
<svg xmlns="http://www.w3.org/2000/svg" version="1.1" xmlns:xlink="http://www.w3.org/1999/xlink" preserveAspectRatio="none" x="0px" y="0px" width="72px" height="72px" viewBox="0 0 72 72">
<defs>
<g id="Layer0_0_FILL">
<path fill="#7E57C2" stroke="none" d="
M 57.55 57.55
L 51.4 57.55 51.4 63.7 57.55 63.7 57.55 57.55
M 20.6 57.55
L 14.5 57.55 14.5 63.7 20.6 63.7 20.6 57.55
M 8.35 14.5
L 2.15 14.5 2.15 32.95 8.35 32.95 8.35 14.5
M 8.35 8.35
L 8.35 14.5 14.5 14.5 14.5 8.35 8.35 8.35
M 45.25 8.35
L 45.25 20.65 26.8 20.65 26.8 8.35 20.6 8.35 20.6 20.65 14.5 20.65 14.5 32.95 8.35 32.95 8.35 39.1 14.5 39.1 14.5 51.4 20.6 51.4 20.6 57.55 26.8 57.55 26.8 51.4 45.25 51.4 45.25 57.55 51.4 57.55 51.4 51.4 57.55 51.4 57.55 39.1 63.7 39.1 63.7 32.95 57.55 32.95 57.55 20.65 51.4 20.65 51.4 8.35 45.25 8.35
M 69.85 14.5
L 63.7 14.5 63.7 32.95 69.85 32.95 69.85 14.5
M 63.7 14.5
L 63.7 8.35 57.55 8.35 57.55 14.5 63.7 14.5 Z"/>
</g>

<g id="Layer0_1_FILL">
<path fill="#2F2F2F" stroke="none" d="
M 20.6 28.8
L 20.6 41.1 26.8 41.1 26.8 28.8 20.6 28.8
M 45.25 41.1
L 51.4 41.1 51.4 28.8 45.25 28.8 45.25 41.1 Z"/>
</g>

<path id="Layer0_0_1_STROKES" stroke="#2F2F2F" stroke-width="3" stroke-linejoin="miter" stroke-linecap="square" stroke-miterlimit="3" fill="none" d="
M 63.7 14.5
L 63.7 8.35 57.55 8.35 57.55 14.5 63.7 14.5 69.85 14.5 69.85 32.95 63.7 32.95 63.7 39.1 57.55 39.1 57.55 51.4 51.4 51.4 51.4 57.55 57.55 57.55 57.55 63.7 51.4 63.7 51.4 57.55 45.25 57.55 45.25 51.4 26.8 51.4 26.8 57.55 20.6 57.55 20.6 63.7 14.5 63.7 14.5 57.55 20.6 57.55 20.6 51.4 14.5 51.4 14.5 39.1 8.35 39.1 8.35 32.95 2.15 32.95 2.15 14.5 8.35 14.5 8.35 8.35 14.5 8.35 14.5 14.5 8.35 14.5 8.35 32.95 14.5 32.95 14.5 20.65 20.6 20.65 20.6 8.35 26.8 8.35 26.8 20.65 45.25 20.65 45.25 8.35 51.4 8.35 51.4 20.65 57.55 20.65 57.55 32.95 63.7 32.95 63.7 14.5 Z"/>
</defs>

<g id="Camada_1">
<g transform="matrix( 1, 0, 0, 1, 0,0) ">
<use xlink:href="#Layer0_0_FILL"/>

<use xlink:href="#Layer0_0_1_STROKES"/>
</g>

<g transform="matrix( 1, 0, 0, 1, 0,0) ">
<use xlink:href="#Layer0_1_FILL"/>
</g>
</g>
</svg>
