
<svg xmlns="http://www.w3.org/2000/svg" version="1.1" xmlns:xlink="http://www.w3.org/1999/xlink" preserveAspectRatio="none" x="0px" y="0px" width="72px" height="72px" viewBox="0 0 72 72">
<defs>
<g id="Layer0_0_MEMBER_0_MEMBER_0_MEMBER_0_MEMBER_0_FILL">
<path fill="#BDBDBD" stroke="none" d="
M 66.65 40.5
Q 70.4 33.45 68.75 24.5 64.5 1.6 36 2.5 7.45 1.6 3.25 24.5 1.5 33.5 5.3 40.55 15.7 60.2 36 70.85 56.25 60.2 66.65 40.5 Z"/>
</g>

<g id="Layer0_0_MEMBER_1_MEMBER_0_MEMBER_0_MEMBER_0_FILL">
<path fill="#2F2F2F" stroke="none" d="
M 25.25 28.05
Q 22.05 25.05 17.4 24.6 12.85 24.2 10.65 26.8 8.4 29.4 9.3 34.1 10.3 38.9 13.8 41.6 17.45 44.4 22.75 44.6 27.6 44.75 29.1 42.95 30.75 41.1 29.9 36.55 28.9 31.4 25.25 28.05 Z"/>
</g>

<g id="Layer0_0_MEMBER_2_MEMBER_0_MEMBER_0_MEMBER_0_FILL">
<path fill="#2F2F2F" stroke="none" d="
M 49 44.6
Q 54.3 44.4 57.95 41.6 61.5 38.9 62.45 34.15 63.4 29.45 61.15 26.8 58.9 24.25 54.35 24.6 49.7 25.05 46.5 28.05 42.85 31.4 41.85 36.55 41 41.1 42.65 42.95 44.15 44.75 49 44.6 Z"/>
</g>

<g id="Layer0_0_MEMBER_3_MEMBER_0_MEMBER_0_MEMBER_0_FILL">
<path fill="#2F2F2F" stroke="none" d="
M 28.6 54.6
Q 32.1 56.65 36 56.65 39.9 56.65 43.4 54.6 44.9 53.75 46.15 52.5 46.55 51.95 46.55 51.35 46.55 50.75 46.1 50.2 45.65 49.75 45.1 49.75 44.55 49.75 44.05 50.25 43.2 51.1 41.9 51.9 39.1 53.45 36 53.45 32.9 53.45 30.1 51.9
L 27.95 50.25
Q 27.55 49.75 26.95 49.75 26.35 49.75 25.9 50.2 25.45 50.75 25.45 51.35 25.45 51.95 25.85 52.5
L 28.6 54.6 Z"/>
</g>
</defs>

<g id="Layer_1">
<g transform="matrix( 1, 0, 0, 1, 0,0) ">
<use xlink:href="#Layer0_0_MEMBER_0_MEMBER_0_MEMBER_0_MEMBER_0_FILL"/>
</g>

<g transform="matrix( 1, 0, 0, 1, 0,0) ">
<use xlink:href="#Layer0_0_MEMBER_1_MEMBER_0_MEMBER_0_MEMBER_0_FILL"/>
</g>

<g transform="matrix( 1, 0, 0, 1, 0,0) ">
<use xlink:href="#Layer0_0_MEMBER_2_MEMBER_0_MEMBER_0_MEMBER_0_FILL"/>
</g>

<g transform="matrix( 1, 0, 0, 1, 0,0) ">
<use xlink:href="#Layer0_0_MEMBER_3_MEMBER_0_MEMBER_0_MEMBER_0_FILL"/>
</g>
</g>
</svg>
