
<svg xmlns="http://www.w3.org/2000/svg" version="1.1" xmlns:xlink="http://www.w3.org/1999/xlink" preserveAspectRatio="none" x="0px" y="0px" width="72px" height="72px" viewBox="0 0 72 72">
<defs>
<g id="Layer0_0_FILL">
<path fill="#FCC21B" stroke="none" d="
M 127.65 93.35
Q 127.65 66.35 119.15 46.3 103.55 9.65 63.85 9.65 24.2 9.65 8.6 46.3 0.1 66.35 0.1 93.35 0.1 103.75 18.8 111.05 37.45 118.4 63.85 118.4 90.3 118.4 108.95 111.05 127.65 103.75 127.65 93.35 Z"/>
</g>

<g id="Layer0_2_MEMBER_0_FILL">
<path fill="#2F2F2F" stroke="none" d="
M 16.8 35.5
Q 17.3 34.75 18.2 34.05 19.9 32.7 22.25 32.7
L 23.05 32.75
Q 22.75 34.8 23.7 36.15 24.6 37.5 26.35 37.5 28.3 37.5 30.05 35.85 30.45 35.5 30.5 34.95 30.6 34.4 30.35 33.95 29.95 33.15 28.8 32.1 26.8 30.35 24.2 29.85 23.15 29.65 22.25 29.65 18.8 29.65 16.2 31.7 14.85 32.8 14.15 33.95 13.85 34.5 14 35.1 14.15 35.7 14.7 36.05 15.25 36.35 15.85 36.2 16.45 36.05 16.8 35.5 Z"/>
</g>

<g id="Layer0_2_MEMBER_1_FILL">
<path fill="#2F2F2F" stroke="none" d="
M 58.1 36.95
Q 58.2 36.4 57.9 35.95 57.5 35.15 56.35 34.1 54.35 32.35 51.75 31.85 50.7 31.65 49.8 31.65 46.4 31.65 43.75 33.7 41.8 35.85 41.75 35.95 41.4 36.5 41.55 37.1 41.7 37.7 42.25 38.05 42.85 38.35 43.45 38.2 44.05 38.05 44.4 37.5 44.65 36.95 45.75 36.05 47.5 34.7 49.8 34.7
L 50.65 34.75
Q 50.3 36.8 51.25 38.15 52.2 39.5 53.95 39.5 55.759375 39.453515625 57.35 38.05 57.375 38.0625 57.4 38.05 57.45 38 57.6 37.85
L 57.65 37.85
Q 58 37.5 58.1 36.95 Z"/>
</g>

<path id="Layer0_1_1_STROKES" stroke="#2F2F2F" stroke-width="3" stroke-linejoin="round" stroke-linecap="round" fill="none" d="
M 24.35 20.95
Q 17.274609375 21.026953125 12.55 27.05"/>

<path id="Layer0_1_MEMBER_0_1_STROKES" stroke="#2F2F2F" stroke-width="3" stroke-linejoin="round" stroke-linecap="round" fill="none" d="
M 30.55 30.5
Q 37.65 30.6 42.35 36.6"/>

<path id="Layer0_3_1_STROKES" stroke="#2F2F2F" stroke-width="3" stroke-linejoin="round" stroke-linecap="round" fill="none" d="
M 30 50.45
Q 46.8259765625 52.446484375 50.3 45.35"/>

<path id="Layer0_3_MEMBER_0_1_STROKES" stroke="#2F2F2F" stroke-width="3" stroke-linejoin="round" stroke-linecap="round" fill="none" d="
M 50.3 45.35
Q 43.65859375 52.1853515625 30 50.45"/>
</defs>

<g transform="matrix( 0.5625, 0, 0, 0.5625, 0.1,0) ">
<use xlink:href="#Layer0_0_FILL"/>
</g>

<g transform="matrix( 1, 0, 0, 1, 0,0) ">
<use xlink:href="#Layer0_1_1_STROKES"/>
</g>

<g transform="matrix( 1, 0, 0, 1, 17.1,-9.65) ">
<use xlink:href="#Layer0_1_MEMBER_0_1_STROKES"/>
</g>

<g transform="matrix( 1, 0, 0, 1, 0,-0.25) ">
<use xlink:href="#Layer0_2_MEMBER_0_FILL"/>
</g>

<g transform="matrix( 1, 0, 0, 1, -0.05,-2.25) ">
<use xlink:href="#Layer0_2_MEMBER_1_FILL"/>
</g>

<g transform="matrix( 1, 0, 0, 1, 0,0) ">
<use xlink:href="#Layer0_3_1_STROKES"/>
</g>

<g transform="matrix( 1, 0, 0, 1, 0,0) ">
<use xlink:href="#Layer0_3_MEMBER_0_1_STROKES"/>
</g>
</svg>
