
<svg xmlns="http://www.w3.org/2000/svg" version="1.1" xmlns:xlink="http://www.w3.org/1999/xlink" preserveAspectRatio="none" x="0px" y="0px" width="72px" height="72px" viewBox="0 0 72 72">
<defs>
<g id="Layer0_0_FILL">
<path fill="#FCC21B" stroke="none" d="
M 127.65 93.35
Q 127.65 66.35 119.15 46.3 103.55 9.65 63.85 9.65 24.2 9.65 8.6 46.3 0.1 66.35 0.1 93.35 0.1 103.75 18.8 111.05 37.45 118.4 63.85 118.4 90.3 118.4 108.95 111.05 127.65 103.75 127.65 93.35 Z"/>
</g>

<g id="Layer0_1_FILL">
<path fill="#2F2F2F" stroke="none" d="
M 55.25 24.2
Q 54.8 23.8 54.15 23.9 52.15 24.2 49.75 24.85 44.85 26.1 41.65 28.05 41.25 28.3 41.05 28.75 40.85 29.2 41 29.7 41.15 30.15 41.55 30.5 41.95 30.8 42.45 30.8
L 46.05 31
Q 50.15 31.45 52.9 32.7
L 53.25 32.8
Q 53.75 32.85 54.15 32.65 54.65 32.4 54.85 31.95 55.1 31.4 54.85 30.8 54.7 30.2 54.1 29.95 51.35 28.75 48.35 28.35 51.65 27.25 54.6 26.85 55.2 26.75 55.6 26.25 55.95 25.8 55.85 25.15 55.75 24.55 55.25 24.2 Z"/>
</g>

<g id="Layer0_2_FILL">
<path fill="#2F2F2F" stroke="none" d="
M 42.35 44.55
Q 42.3 42.55 40.75 41.3 39.95 40.65 38.5 40.4 37.15 40.25 35.95 40.5 35.05 40.75 34.45 41.15 33.7 41.6 33.8 42.15 33.85 42.65 34.7 42.85 35.15 42.9 36.1 42.9 38.15 42.9 38.95 43.55 39.3 43.8 39.35 44.65 39.4 45.1 38.95 45.6 38.35 46.35 37.15 46.65 36.55 46.8 36.15 47.2 35.75 47.7 35.9 48.25 36.15 48.95 36.95 49.1
L 37.25 49.2
Q 39.65 49.65 40 50.8 40.1 51.05 40 51.5 39.9 51.9 39.75 52.05 39.1 52.85 38.15 53.25 37.35 53.6 36.05 53.8 33.8 54.1 33.8 54.95 33.85 55.5 34.65 55.85 35.35 56.1 36.1 56.1 40.3 56.1 42.1 53.9 43.3 52.4 43 50.35 42.7 48.85 40.8 47.65 42.4 46.15 42.35 44.55 Z"/>
</g>

<g id="Layer0_4_FILL">
<path fill="#2F2F2F" stroke="none" d="
M 19 30.35
Q 19 32.6 20.35 34.2 21.75 35.8 23.6 35.75 25.5 35.75 26.85 34.15 28.15 32.5 28.1 30.25 28.1 28 26.75 26.4 25.4 24.8 23.5 24.85 21.65 24.85 20.3 26.45 18.95 28.1 19 30.35 Z"/>
</g>

<g id="Layer0_5_MEMBER_0_MEMBER_0_MEMBER_0_MEMBER_0_FILL">
<path fill="#FFFFFF" stroke="none" d="
M 32.2 23.9
Q 31.9 22 31.1 21.05 30.85 20.75 30 20.15
L 28.95 19.4
Q 28.6 19.1 28 18.25
L 27.35 17
Q 25.75 14.3 23.75 12.4 21.45 10.05 19.1 9.6 17.25 9.25 15 10 12.3 11 10.55 12.9 8.55 14.9 7.9 17.4
L 7.65 18.65
Q 7.45 19.55 7.3 19.9 6.95 20.7 6.15 21.75 4.6 24.15 4.65 28.15 4.65 31.6 5.9 34.05 6.75 36.05 9.6 39 13.15 42.45 16.75 44.8 21.4 47.95 24.75 47.5 27.4 47.1 29.35 44.8 31.15 42.75 31.5 39.8 31.7 38.55 32 37.85 32.35 37.35 32.8 36.95 33.7 36.2 33.75 36.05 34.85 35 34.75 33 34.75 31.45 33.9 29.75
L 33.25 28.4
Q 32.8 27.65 32.65 27.05 32.5 26.7 32.2 23.9
M 23.1 38.6
Q 22.95 38.75 22.75 38.6 20.9 37.7 20.1 36.95
L 23.45 37.6 23.25 38.45 23.1 38.6 Z"/>
</g>

<g id="Layer0_5_MEMBER_1_MEMBER_0_MEMBER_0_MEMBER_0_FILL">
<path fill="#FF3632" stroke="none" d="
M 69.05 24.5
Q 69.05 17.3 64 12.15 59 7.05 51.85 7.05 46.65 7.05 42.25 10 38 12.9 36.05 17.7 34.1 12.85 29.8 10 25.5 7.05 20.2 7.05 13.15 7.05 8.1 12.15 3.05 17.3 3.05 24.5 3.05 33.4 8.6 40.15 11.9 44.2 20.6 50.35 26.15 54.35 28.55 56.5 32.75 60.15 34.75 64.05
L 34.9 64.45
Q 35.25 65.1 36.05 65.1
L 36.1 65.1
Q 36.8 65.1 37.15 64.4 37.25 64.3 37.25 64.15 39.4 60.1 43.5 56.55 46.05 54.25 51.5 50.35 60.2 44.2 63.5 40.15 69.05 33.4 69.05 24.5 Z"/>
</g>

<path id="Layer0_3_1_STROKES" stroke="#2F2F2F" stroke-width="3" stroke-linejoin="round" stroke-linecap="round" fill="none" d="
M 23.8 17.4
Q 18.6 18.55 15.8 22.95"/>
</defs>

<g transform="matrix( 0.5625, 0, 0, 0.5625, 0.1,0) ">
<use xlink:href="#Layer0_0_FILL"/>
</g>

<g transform="matrix( 0.9999847412109375, 0, 0, 0.9999847412109375, 0,2) ">
<use xlink:href="#Layer0_1_FILL"/>
</g>

<g transform="matrix( 1, 0, 0, 1, 0,0) ">
<use xlink:href="#Layer0_2_FILL"/>
</g>

<g transform="matrix( 1, 0, 0, 1, 0,0) ">
<use xlink:href="#Layer0_3_1_STROKES"/>
</g>

<g transform="matrix( 1, 0, 0, 1, 0,0) ">
<use xlink:href="#Layer0_4_FILL"/>
</g>

<g transform="matrix( 0.3253631591796875, 0.1516876220703125, -0.151763916015625, 0.3254852294921875, 50.75,33.25) ">
<use xlink:href="#Layer0_5_MEMBER_0_MEMBER_0_MEMBER_0_MEMBER_0_FILL"/>
</g>

<g transform="matrix( 0.3253631591796875, 0.1516876220703125, -0.151763916015625, 0.3254852294921875, 50.75,33.25) ">
<use xlink:href="#Layer0_5_MEMBER_1_MEMBER_0_MEMBER_0_MEMBER_0_FILL"/>
</g>
</svg>
