
<svg xmlns="http://www.w3.org/2000/svg" version="1.1" xmlns:xlink="http://www.w3.org/1999/xlink" preserveAspectRatio="none" x="0px" y="0px" width="72px" height="72px" viewBox="0 0 72 72">
<defs>
<g id="Layer0_0_FILL">
<path fill="#FCC21B" stroke="none" d="
M 127.55 92.35
Q 127.55 65.35 119.05 45.3 103.45 8.65 63.75 8.65 24.1 8.65 8.5 45.3 0 65.35 0 92.35 0 102.75 18.7 110.05 37.35 117.4 63.75 117.4 90.2 117.4 108.85 110.05 127.55 102.75 127.55 92.35 Z"/>
</g>

<g id="Layer0_1_MEMBER_0_MEMBER_0_FILL">
<path fill="#FCC21B" stroke="none" d="
M 109.5 90.95
Q 116.65 88.35 119.85 81.6 123.05 74.8 120.45 67.75 117.85 60.75 111 57.6 104.1 54.4 97 57 89.9 59.55 86.7 66.35 83.5 73.1 86.05 80.15 88.7 87.15 95.55 90.35 102.4 93.5 109.5 90.95 Z"/>
</g>

<g id="Layer0_1_MEMBER_0_MEMBER_1_FILL">
<path fill="#FCC01C" stroke="none" d="
M 109.3 90.3
Q 116.15 87.8 119.2 81.3 122.3 74.8 119.8 68 117.35 61.25 110.7 58.2 104.1 55.15 97.25 57.6 90.4 60.1 87.3 66.6 84.25 73.15 86.75 79.9 89.25 86.7 95.85 89.75 102.45 92.8 109.3 90.3 Z"/>
</g>

<g id="Layer0_1_MEMBER_0_MEMBER_2_FILL">
<path fill="#FCBE1C" stroke="none" d="
M 109.05 89.65
Q 115.6 87.3 118.6 81 121.55 74.75 119.15 68.25 116.75 61.75 110.4 58.8 104.05 55.9 97.5 58.25 90.9 60.65 87.95 66.9 84.95 73.2 87.35 79.7 89.75 86.2 96.1 89.1 102.45 92 109.05 89.65 Z"/>
</g>

<g id="Layer0_1_MEMBER_0_MEMBER_3_FILL">
<path fill="#FBBB1D" stroke="none" d="
M 108.8 89
Q 115.15 86.75 117.95 80.75 120.8 74.7 118.5 68.45 116.2 62.2 110.1 59.4 104 56.6 97.7 58.9 91.35 61.2 88.55 67.2 85.7 73.2 88 79.45 90.3 85.7 96.4 88.5 102.45 91.3 108.8 89 Z"/>
</g>

<g id="Layer0_1_MEMBER_0_MEMBER_4_FILL">
<path fill="#FBB91E" stroke="none" d="
M 108.6 88.4
Q 114.65 86.25 117.35 80.45 120.1 74.7 117.9 68.7 115.7 62.75 109.85 60.05 104 57.35 97.95 59.5 91.9 61.7 89.2 67.5 86.5 73.25 88.65 79.2 90.85 85.2 96.7 87.9 102.55 90.6 108.6 88.4 Z"/>
</g>

<g id="Layer0_1_MEMBER_0_MEMBER_5_FILL">
<path fill="#FBB71E" stroke="none" d="
M 108.35 87.75
Q 114.15 85.7 116.75 80.15 119.35 74.65 117.25 68.95 115.1 63.2 109.55 60.65 104 58.1 98.2 60.15 92.4 62.25 89.8 67.75 87.2 73.25 89.3 79 91.4 84.7 96.95 87.3 102.55 89.85 108.35 87.75 Z"/>
</g>

<g id="Layer0_1_MEMBER_0_MEMBER_6_FILL">
<path fill="#FBB51F" stroke="none" d="
M 108.1 87.1
Q 113.6 85.15 116.1 79.9 118.6 74.65 116.6 69.15 114.6 63.7 109.25 61.25 103.9 58.8 98.4 60.8 92.9 62.8 90.4 68.05 87.95 73.3 89.95 78.75 91.95 84.2 97.25 86.65 102.6 89.1 108.1 87.1 Z"/>
</g>

<g id="Layer0_1_MEMBER_0_MEMBER_7_FILL">
<path fill="#FAB220" stroke="none" d="
M 107.9 86.5
Q 113.15 84.6 115.5 79.6 117.85 74.6 115.95 69.4 114.05 64.2 108.95 61.9 103.9 59.55 98.65 61.45 93.4 63.35 91.05 68.35 88.7 73.3 90.6 78.5 92.45 83.7 97.55 86.05 102.6 88.4 107.9 86.5 Z"/>
</g>

<g id="Layer0_1_MEMBER_0_MEMBER_8_FILL">
<path fill="#FAB020" stroke="none" d="
M 107.65 85.85
Q 112.65 84.05 114.9 79.3 117.15 74.55 115.3 69.6 113.45 64.7 108.65 62.5 103.85 60.3 98.85 62.05 93.9 63.85 91.65 68.6 89.4 73.4 91.2 78.3 93.05 83.2 97.85 85.45 102.65 87.65 107.65 85.85 Z"/>
</g>

<g id="Layer0_1_MEMBER_0_MEMBER_9_FILL">
<path fill="#FAAE21" stroke="none" d="
M 107.4 85.2
Q 112.15 83.5 114.25 79.05 116.4 74.55 114.65 69.85 112.95 65.2 108.4 63.1 103.85 61 99.1 62.7 94.4 64.4 92.25 68.9 90.15 73.4 91.85 78.05 93.6 82.75 98.15 84.85 102.7 86.95 107.4 85.2 Z"/>
</g>

<g id="Layer0_1_MEMBER_0_MEMBER_10_FILL">
<path fill="#FAAC22" stroke="none" d="
M 107.15 84.6
Q 111.6 83 113.6 78.75 115.6 74.5 114 70.1 112.4 65.7 108.1 63.7 103.8 61.75 99.35 63.35 94.9 64.95 92.9 69.2 90.9 73.4 92.5 77.85 94.1 82.25 98.4 84.2 102.7 86.2 107.15 84.6 Z"/>
</g>

<g id="Layer0_1_MEMBER_0_MEMBER_11_FILL">
<path fill="#F9A922" stroke="none" d="
M 106.95 83.95
Q 111.15 82.45 113.05 78.45 114.9 74.45 113.4 70.3 111.85 66.2 107.8 64.3 103.75 62.45 99.6 63.95 95.4 65.45 93.5 69.45 91.6 73.5 93.15 77.6 94.65 81.75 98.7 83.6 102.75 85.45 106.95 83.95 Z"/>
</g>

<g id="Layer0_1_MEMBER_0_MEMBER_12_FILL">
<path fill="#F9A723" stroke="none" d="
M 106.7 83.3
Q 110.65 81.9 112.4 78.15 114.2 74.4 112.75 70.55 111.35 66.7 107.55 64.95 103.75 63.2 99.8 64.6 95.9 66.05 94.15 69.75 92.4 73.5 93.8 77.35 95.2 81.25 99 83 102.8 84.75 106.7 83.3 Z"/>
</g>

<g id="Layer0_1_MEMBER_0_MEMBER_13_FILL">
<path fill="#F9A524" stroke="none" d="
M 106.5 82.7
Q 110.15 81.4 111.8 77.9 113.4 74.4 112.1 70.75 110.75 67.15 107.2 65.5 103.7 63.9 100.05 65.2 96.4 66.55 94.75 70.05 93.1 73.55 94.4 77.15 95.75 80.75 99.3 82.4 102.85 84 106.5 82.7 Z"/>
</g>

<g id="Layer0_1_MEMBER_0_MEMBER_14_FILL">
<path fill="#F9A324" stroke="none" d="
M 106.25 82.05
Q 109.65 80.85 111.15 77.6 112.7 74.35 111.45 71 110.2 67.65 106.95 66.15 103.7 64.65 100.3 65.85 96.9 67.1 95.35 70.35 93.85 73.55 95.05 76.9 96.3 80.25 99.55 81.75 102.85 83.25 106.25 82.05 Z"/>
</g>

<g id="Layer0_1_MEMBER_0_MEMBER_15_FILL">
<path fill="#F8A025" stroke="none" d="
M 106 81.4
Q 109.1 80.3 110.5 77.3 111.95 74.35 110.8 71.25 109.7 68.2 106.65 66.8 103.6 65.4 100.5 66.5 97.4 67.65 96 70.6 94.6 73.6 95.7 76.7 96.85 79.8 99.9 81.15 102.9 82.55 106 81.4 Z"/>
</g>

<g id="Layer0_1_MEMBER_0_MEMBER_16_FILL">
<path fill="#F89E26" stroke="none" d="
M 105.8 80.75
Q 108.65 79.75 109.95 77 111.2 74.3 110.15 71.45 109.15 68.65 106.35 67.35 103.6 66.1 100.75 67.15 97.9 68.15 96.6 70.9 95.35 73.65 96.35 76.45 97.4 79.25 100.15 80.55 102.9 81.8 105.8 80.75 Z"/>
</g>

<g id="Layer0_1_MEMBER_0_MEMBER_17_FILL">
<path fill="#F89C26" stroke="none" d="
M 105.55 80.15
Q 108.15 79.2 109.3 76.75 110.5 74.25 109.55 71.7 108.6 69.15 106.1 68 103.6 66.85 101 67.75 98.4 68.7 97.2 71.15 96.05 73.65 97 76.2 97.95 78.8 100.45 79.95 102.95 81.1 105.55 80.15 Z"/>
</g>

<g id="Layer0_1_MEMBER_0_MEMBER_18_FILL">
<path fill="#F89A27" stroke="none" d="
M 105.3 79.5
Q 107.6 78.7 108.7 76.45 109.75 74.25 108.9 71.95 108.05 69.65 105.8 68.6 103.55 67.55 101.2 68.4 98.85 69.25 97.85 71.45 96.8 73.7 97.65 76 98.5 78.3 100.75 79.35 103 80.35 105.3 79.5 Z"/>
</g>

<g id="Layer0_1_MEMBER_0_MEMBER_19_FILL">
<path fill="#F79728" stroke="none" d="
M 105.05 78.85
Q 107.1 78.15 108.05 76.15 109 74.2 108.25 72.15 107.5 70.1 105.5 69.2 103.5 68.3 101.45 69.05 99.4 69.8 98.45 71.75 97.55 73.7 98.3 75.75 99.05 77.8 101 78.7 103 79.6 105.05 78.85 Z"/>
</g>

<g id="Layer0_1_MEMBER_0_MEMBER_20_FILL">
<path fill="#F79528" stroke="none" d="
M 104.85 78.25
Q 106.65 77.6 107.45 75.9 108.25 74.15 107.6 72.4 106.95 70.65 105.25 69.85 103.5 69 101.7 69.65 99.9 70.35 99.1 72.05 98.3 73.75 98.95 75.5 99.6 77.3 101.3 78.1 103.05 78.9 104.85 78.25 Z"/>
</g>

<g id="Layer0_1_MEMBER_0_MEMBER_21_FILL">
<path fill="#F79329" stroke="none" d="
M 104.6 77.6
Q 106.15 77.05 106.85 75.6 107.5 74.15 106.95 72.6 106.4 71.1 104.9 70.4 103.45 69.75 101.9 70.3 100.35 70.85 99.7 72.3 99 73.75 99.55 75.3 100.1 76.8 101.6 77.5 103.05 78.15 104.6 77.6 Z"/>
</g>

<g id="Layer0_1_MEMBER_1_MEMBER_0_FILL">
<path fill="#FCC21B" stroke="none" d="
M 33 57.6
Q 26.1 54.4 19 57 11.9 59.55 8.7 66.35 5.5 73.1 8.1 80.15 10.7 87.15 17.55 90.35 24.4 93.5 31.5 90.95 38.65 88.35 41.85 81.6 45.05 74.8 42.45 67.75 39.85 60.75 33 57.6 Z"/>
</g>

<g id="Layer0_1_MEMBER_1_MEMBER_1_FILL">
<path fill="#FCC01C" stroke="none" d="
M 32.7 58.2
Q 26.1 55.15 19.25 57.6 12.4 60.1 9.3 66.6 6.25 73.15 8.75 79.9 11.25 86.7 17.85 89.75 24.45 92.8 31.3 90.3 38.15 87.8 41.2 81.3 44.3 74.8 41.8 68 39.35 61.25 32.7 58.2 Z"/>
</g>

<g id="Layer0_1_MEMBER_1_MEMBER_2_FILL">
<path fill="#FCBE1C" stroke="none" d="
M 32.4 58.8
Q 26.05 55.9 19.5 58.25 12.9 60.65 9.95 66.9 6.95 73.2 9.35 79.7 11.75 86.2 18.1 89.1 24.45 92 31.05 89.65 37.6 87.3 40.6 81 43.55 74.75 41.15 68.25 38.75 61.75 32.4 58.8 Z"/>
</g>

<g id="Layer0_1_MEMBER_1_MEMBER_3_FILL">
<path fill="#FBBB1D" stroke="none" d="
M 30.8 89
Q 37.15 86.75 39.95 80.75 42.8 74.7 40.5 68.45 38.2 62.2 32.1 59.4 26 56.6 19.7 58.9 13.4 61.2 10.55 67.2 7.7 73.25 10 79.45 12.3 85.7 18.4 88.5 24.5 91.3 30.8 89 Z"/>
</g>

<g id="Layer0_1_MEMBER_1_MEMBER_4_FILL">
<path fill="#FBB91E" stroke="none" d="
M 30.6 88.4
Q 36.65 86.25 39.35 80.45 42.1 74.7 39.9 68.7 37.7 62.75 31.85 60.05 26 57.35 19.95 59.5 13.9 61.7 11.2 67.5 8.5 73.25 10.65 79.2 12.85 85.2 18.7 87.9 24.55 90.6 30.6 88.4 Z"/>
</g>

<g id="Layer0_1_MEMBER_1_MEMBER_5_FILL">
<path fill="#FBB71E" stroke="none" d="
M 30.35 87.75
Q 36.15 85.7 38.75 80.15 41.35 74.65 39.25 68.95 37.1 63.2 31.55 60.65 26 58.1 20.2 60.15 14.4 62.25 11.8 67.75 9.2 73.25 11.3 79 13.4 84.7 18.95 87.3 24.55 89.85 30.35 87.75 Z"/>
</g>

<g id="Layer0_1_MEMBER_1_MEMBER_6_FILL">
<path fill="#FBB51F" stroke="none" d="
M 30.1 87.1
Q 35.6 85.15 38.1 79.9 40.6 74.65 38.6 69.15 36.6 63.7 31.25 61.25 25.9 58.8 20.4 60.8 14.9 62.8 12.4 68.05 9.95 73.3 11.95 78.75 13.95 84.2 19.25 86.65 24.6 89.1 30.1 87.1 Z"/>
</g>

<g id="Layer0_1_MEMBER_1_MEMBER_7_FILL">
<path fill="#FAB220" stroke="none" d="
M 29.85 86.5
Q 35.15 84.6 37.5 79.6 39.85 74.6 37.95 69.4 36.05 64.2 30.95 61.9 25.9 59.55 20.65 61.45 15.4 63.35 13.05 68.35 10.7 73.3 12.6 78.5 14.45 83.7 19.55 86.05 24.6 88.4 29.85 86.5 Z"/>
</g>

<g id="Layer0_1_MEMBER_1_MEMBER_8_FILL">
<path fill="#FAB020" stroke="none" d="
M 29.65 85.85
Q 34.65 84.05 36.9 79.3 39.15 74.55 37.3 69.6 35.5 64.7 30.65 62.5 25.85 60.3 20.85 62.05 15.9 63.85 13.65 68.6 11.4 73.4 13.2 78.3 15.05 83.2 19.85 85.45 24.65 87.65 29.65 85.85 Z"/>
</g>

<g id="Layer0_1_MEMBER_1_MEMBER_9_FILL">
<path fill="#FAAE21" stroke="none" d="
M 29.4 85.2
Q 34.15 83.5 36.25 79.05 38.4 74.55 36.7 69.85 35 65.2 30.4 63.1 25.85 61 21.1 62.7 16.4 64.4 14.25 68.9 12.15 73.4 13.85 78.05 15.6 82.75 20.15 84.85 24.7 86.95 29.4 85.2 Z"/>
</g>

<g id="Layer0_1_MEMBER_1_MEMBER_10_FILL">
<path fill="#FAAC22" stroke="none" d="
M 29.2 84.6
Q 33.65 83 35.65 78.75 37.65 74.5 36 70.1 34.4 65.7 30.1 63.7 25.8 61.75 21.35 63.35 16.9 64.9 14.9 69.2 12.9 73.4 14.5 77.85 16.1 82.25 20.45 84.2 24.75 86.2 29.2 84.6 Z"/>
</g>

<g id="Layer0_1_MEMBER_1_MEMBER_11_FILL">
<path fill="#F9A922" stroke="none" d="
M 28.95 83.95
Q 33.1 82.45 35 78.45 36.9 74.45 35.4 70.3 33.85 66.2 29.8 64.3 25.75 62.45 21.6 63.95 17.4 65.45 15.5 69.45 13.6 73.5 15.15 77.6 16.65 81.75 20.7 83.6 24.75 85.45 28.95 83.95 Z"/>
</g>

<g id="Layer0_1_MEMBER_1_MEMBER_12_FILL">
<path fill="#F9A723" stroke="none" d="
M 28.7 83.3
Q 32.65 81.9 34.4 78.15 36.2 74.4 34.75 70.55 33.35 66.7 29.55 64.95 25.75 63.2 21.85 64.6 17.9 66.05 16.15 69.75 14.4 73.5 15.8 77.35 17.2 81.25 21 83 24.8 84.75 28.7 83.3 Z"/>
</g>

<g id="Layer0_1_MEMBER_1_MEMBER_13_FILL">
<path fill="#F9A524" stroke="none" d="
M 28.5 82.7
Q 32.15 81.4 33.8 77.9 35.4 74.4 34.1 70.75 32.75 67.15 29.2 65.5 25.7 63.9 22.05 65.2 18.4 66.55 16.75 70.05 15.1 73.55 16.45 77.15 17.75 80.75 21.3 82.4 24.85 84 28.5 82.7 Z"/>
</g>

<g id="Layer0_1_MEMBER_1_MEMBER_14_FILL">
<path fill="#F9A324" stroke="none" d="
M 28.25 82.05
Q 31.65 80.85 33.15 77.6 34.7 74.35 33.45 71 32.2 67.65 28.95 66.15 25.7 64.65 22.3 65.85 18.9 67.1 17.4 70.35 15.85 73.55 17.1 76.9 18.3 80.25 21.55 81.75 24.85 83.25 28.25 82.05 Z"/>
</g>

<g id="Layer0_1_MEMBER_1_MEMBER_15_FILL">
<path fill="#F8A025" stroke="none" d="
M 28 81.4
Q 31.15 80.3 32.55 77.3 33.95 74.35 32.8 71.25 31.65 68.15 28.65 66.8 25.65 65.4 22.5 66.5 19.4 67.65 18 70.6 16.6 73.6 17.7 76.7 18.85 79.8 21.9 81.15 24.9 82.55 28 81.4 Z"/>
</g>

<g id="Layer0_1_MEMBER_1_MEMBER_16_FILL">
<path fill="#F89E26" stroke="none" d="
M 27.75 80.75
Q 30.65 79.75 31.9 77 33.2 74.3 32.15 71.45 31.1 68.65 28.35 67.35 25.6 66.1 22.75 67.15 19.9 68.15 18.6 70.9 17.35 73.65 18.35 76.45 19.4 79.25 22.15 80.55 24.9 81.8 27.75 80.75 Z"/>
</g>

<g id="Layer0_1_MEMBER_1_MEMBER_17_FILL">
<path fill="#F89C26" stroke="none" d="
M 27.55 80.15
Q 30.15 79.2 31.3 76.75 32.5 74.25 31.55 71.7 30.6 69.15 28.1 68 25.6 66.85 23 67.75 20.4 68.7 19.2 71.15 18.05 73.65 19 76.2 19.95 78.8 22.45 79.95 24.95 81.1 27.55 80.15 Z"/>
</g>

<g id="Layer0_1_MEMBER_1_MEMBER_18_FILL">
<path fill="#F89A27" stroke="none" d="
M 27.3 79.5
Q 29.65 78.7 30.65 76.45 31.7 74.25 30.85 71.95 30.05 69.65 27.8 68.6 25.55 67.55 23.2 68.4 20.85 69.25 19.85 71.45 18.8 73.7 19.65 76 20.5 78.3 22.75 79.35 25 80.35 27.3 79.5 Z"/>
</g>

<g id="Layer0_1_MEMBER_1_MEMBER_19_FILL">
<path fill="#F79728" stroke="none" d="
M 27.1 78.85
Q 29.15 78.15 30.05 76.15 31 74.15 30.25 72.15 29.5 70.1 27.5 69.2 25.5 68.3 23.45 69.05 21.4 69.8 20.45 71.75 19.55 73.7 20.3 75.75 21.05 77.8 23.05 78.7 25.05 79.6 27.1 78.85 Z"/>
</g>

<g id="Layer0_1_MEMBER_1_MEMBER_20_FILL">
<path fill="#F79528" stroke="none" d="
M 26.85 78.25
Q 28.65 77.6 29.45 75.9 30.25 74.15 29.6 72.4 28.95 70.65 27.25 69.85 25.5 69 23.7 69.65 21.9 70.35 21.1 72.05 20.3 73.75 20.95 75.5 21.6 77.3 23.3 78.1 25.05 78.9 26.85 78.25 Z"/>
</g>

<g id="Layer0_1_MEMBER_1_MEMBER_21_FILL">
<path fill="#F79329" stroke="none" d="
M 26.6 77.6
Q 28.15 77.05 28.85 75.6 29.5 74.15 28.95 72.6 28.4 71.1 26.9 70.4 25.45 69.75 23.9 70.3 22.35 70.85 21.7 72.3 21 73.75 21.55 75.3 22.1 76.8 23.6 77.5 25.05 78.15 26.6 77.6 Z"/>
</g>

<g id="Layer0_2_FILL">
<path fill="#2F2F2F" stroke="none" d="
M 63.9 64.6
Q 62.3 65 61.25 65.7 59.9 66.55 60.05 67.5 60.2 68.4 61.65 68.7 62.45 68.85 64.15 68.85 68 68.85 69.2 69.95 69.9 70.45 69.95 71.85 70 72.7 69.25 73.65 68.2 75 66.05 75.5 64.95 75.8 64.3 76.5 63.55 77.35 63.85 78.35 64.25 79.6 65.65 79.85
L 66.25 80
Q 70.5 80.85 71.1 82.9 71.25 83.35 71.1 84.1 70.9 84.8 70.65 85.1 69.5 86.5 67.8 87.25 66.4 87.85 64.1 88.2 60.05 88.7 60.1 90.25 60.15 91.25 61.6 91.85 62.8 92.3 64.2 92.3 71.5 92.3 74.8 88.4 77 85.75 76.4 82.1 75.95 79.4 72.55 77.3 75.35 74.6 75.25 71.75 75.2 68.25 72.45 66 71 64.8 68.4 64.4 66 64.1 63.9 64.6 Z"/>
</g>

<g id="Layer0_3_FILL">
<path fill="#2F2F2F" stroke="none" d="
M 101.1 56.5
Q 101.4 55.4 100.85 54.45 99.6 52.4 97.25 50.55 92.6 46.85 86.45 46.85 80.35 46.85 75.65 50.55 72.15 54.3 72.05 54.45 71.5 55.4 71.8 56.55 72.1 57.65 73.05 58.2 73.75 58.6 74.45 58.6 75.95 58.6 76.75 57.25 76.85 57.15 79.2 54.7 82.35 52.3 86.45 52.3 90.6 52.3 93.7 54.7 95.3 55.9 96.15 57.25 96.7 58.2 97.8 58.45 98.9 58.75 99.85 58.2 100.85 57.6 101.1 56.5 Z"/>
</g>

<g id="Layer0_4_FILL">
<path fill="#2F2F2F" stroke="none" d="
M 27.1 54.45
Q 26.55 55.4 26.85 56.55 27.15 57.65 28.1 58.2 28.8 58.6 29.45 58.6 31 58.6 31.85 57.25 31.9 57.15 34.25 54.7 37.35 52.3 41.5 52.3 45.7 52.3 48.85 54.75 50.45 56 51.2 57.25 51.75 58.2 52.85 58.5 53.9 58.75 54.9 58.2 55.9 57.65 56.15 56.55 56.45 55.4 55.85 54.45 54.65 52.4 52.3 50.55 47.6 46.85 41.5 46.85 35.35 46.85 30.7 50.55 27.2 54.3 27.1 54.45 Z"/>
</g>

<path id="Layer0_5_1_STROKES" stroke="#2F2F2F" stroke-width="2" stroke-linejoin="round" stroke-linecap="round" fill="none" d="
M 48.8 20.1
Q 55.15 19.35 59.4 24.4
M 23.3 20.2
Q 16.85 19.4 12.6 24.4"/>
</defs>

<g id="Layer_1">
<g transform="matrix( 0.5625, 0, 0, 0.5625, 0,0) ">
<use xlink:href="#Layer0_0_FILL"/>
</g>

<g transform="matrix( 0.5625, 0, 0, 0.5625, 0,0) ">
<use xlink:href="#Layer0_1_MEMBER_0_MEMBER_0_FILL"/>
</g>

<g transform="matrix( 0.5625, 0, 0, 0.5625, 0,0) ">
<use xlink:href="#Layer0_1_MEMBER_0_MEMBER_1_FILL"/>
</g>

<g transform="matrix( 0.5625, 0, 0, 0.5625, 0,0) ">
<use xlink:href="#Layer0_1_MEMBER_0_MEMBER_2_FILL"/>
</g>

<g transform="matrix( 0.5625, 0, 0, 0.5625, 0,0) ">
<use xlink:href="#Layer0_1_MEMBER_0_MEMBER_3_FILL"/>
</g>

<g transform="matrix( 0.5625, 0, 0, 0.5625, 0,0) ">
<use xlink:href="#Layer0_1_MEMBER_0_MEMBER_4_FILL"/>
</g>

<g transform="matrix( 0.5625, 0, 0, 0.5625, 0,0) ">
<use xlink:href="#Layer0_1_MEMBER_0_MEMBER_5_FILL"/>
</g>

<g transform="matrix( 0.5625, 0, 0, 0.5625, 0,0) ">
<use xlink:href="#Layer0_1_MEMBER_0_MEMBER_6_FILL"/>
</g>

<g transform="matrix( 0.5625, 0, 0, 0.5625, 0,0) ">
<use xlink:href="#Layer0_1_MEMBER_0_MEMBER_7_FILL"/>
</g>

<g transform="matrix( 0.5625, 0, 0, 0.5625, 0,0) ">
<use xlink:href="#Layer0_1_MEMBER_0_MEMBER_8_FILL"/>
</g>

<g transform="matrix( 0.5625, 0, 0, 0.5625, 0,0) ">
<use xlink:href="#Layer0_1_MEMBER_0_MEMBER_9_FILL"/>
</g>

<g transform="matrix( 0.5625, 0, 0, 0.5625, 0,0) ">
<use xlink:href="#Layer0_1_MEMBER_0_MEMBER_10_FILL"/>
</g>

<g transform="matrix( 0.5625, 0, 0, 0.5625, 0,0) ">
<use xlink:href="#Layer0_1_MEMBER_0_MEMBER_11_FILL"/>
</g>

<g transform="matrix( 0.5625, 0, 0, 0.5625, 0,0) ">
<use xlink:href="#Layer0_1_MEMBER_0_MEMBER_12_FILL"/>
</g>

<g transform="matrix( 0.5625, 0, 0, 0.5625, 0,0) ">
<use xlink:href="#Layer0_1_MEMBER_0_MEMBER_13_FILL"/>
</g>

<g transform="matrix( 0.5625, 0, 0, 0.5625, 0,0) ">
<use xlink:href="#Layer0_1_MEMBER_0_MEMBER_14_FILL"/>
</g>

<g transform="matrix( 0.5625, 0, 0, 0.5625, 0,0) ">
<use xlink:href="#Layer0_1_MEMBER_0_MEMBER_15_FILL"/>
</g>

<g transform="matrix( 0.5625, 0, 0, 0.5625, 0,0) ">
<use xlink:href="#Layer0_1_MEMBER_0_MEMBER_16_FILL"/>
</g>

<g transform="matrix( 0.5625, 0, 0, 0.5625, 0,0) ">
<use xlink:href="#Layer0_1_MEMBER_0_MEMBER_17_FILL"/>
</g>

<g transform="matrix( 0.5625, 0, 0, 0.5625, 0,0) ">
<use xlink:href="#Layer0_1_MEMBER_0_MEMBER_18_FILL"/>
</g>

<g transform="matrix( 0.5625, 0, 0, 0.5625, 0,0) ">
<use xlink:href="#Layer0_1_MEMBER_0_MEMBER_19_FILL"/>
</g>

<g transform="matrix( 0.5625, 0, 0, 0.5625, 0,0) ">
<use xlink:href="#Layer0_1_MEMBER_0_MEMBER_20_FILL"/>
</g>

<g transform="matrix( 0.5625, 0, 0, 0.5625, 0,0) ">
<use xlink:href="#Layer0_1_MEMBER_0_MEMBER_21_FILL"/>
</g>

<g transform="matrix( 0.5625, 0, 0, 0.5625, 0,0) ">
<use xlink:href="#Layer0_1_MEMBER_1_MEMBER_0_FILL"/>
</g>

<g transform="matrix( 0.5625, 0, 0, 0.5625, 0,0) ">
<use xlink:href="#Layer0_1_MEMBER_1_MEMBER_1_FILL"/>
</g>

<g transform="matrix( 0.5625, 0, 0, 0.5625, 0,0) ">
<use xlink:href="#Layer0_1_MEMBER_1_MEMBER_2_FILL"/>
</g>

<g transform="matrix( 0.5625, 0, 0, 0.5625, 0,0) ">
<use xlink:href="#Layer0_1_MEMBER_1_MEMBER_3_FILL"/>
</g>

<g transform="matrix( 0.5625, 0, 0, 0.5625, 0,0) ">
<use xlink:href="#Layer0_1_MEMBER_1_MEMBER_4_FILL"/>
</g>

<g transform="matrix( 0.5625, 0, 0, 0.5625, 0,0) ">
<use xlink:href="#Layer0_1_MEMBER_1_MEMBER_5_FILL"/>
</g>

<g transform="matrix( 0.5625, 0, 0, 0.5625, 0,0) ">
<use xlink:href="#Layer0_1_MEMBER_1_MEMBER_6_FILL"/>
</g>

<g transform="matrix( 0.5625, 0, 0, 0.5625, 0,0) ">
<use xlink:href="#Layer0_1_MEMBER_1_MEMBER_7_FILL"/>
</g>

<g transform="matrix( 0.5625, 0, 0, 0.5625, 0,0) ">
<use xlink:href="#Layer0_1_MEMBER_1_MEMBER_8_FILL"/>
</g>

<g transform="matrix( 0.5625, 0, 0, 0.5625, 0,0) ">
<use xlink:href="#Layer0_1_MEMBER_1_MEMBER_9_FILL"/>
</g>

<g transform="matrix( 0.5625, 0, 0, 0.5625, 0,0) ">
<use xlink:href="#Layer0_1_MEMBER_1_MEMBER_10_FILL"/>
</g>

<g transform="matrix( 0.5625, 0, 0, 0.5625, 0,0) ">
<use xlink:href="#Layer0_1_MEMBER_1_MEMBER_11_FILL"/>
</g>

<g transform="matrix( 0.5625, 0, 0, 0.5625, 0,0) ">
<use xlink:href="#Layer0_1_MEMBER_1_MEMBER_12_FILL"/>
</g>

<g transform="matrix( 0.5625, 0, 0, 0.5625, 0,0) ">
<use xlink:href="#Layer0_1_MEMBER_1_MEMBER_13_FILL"/>
</g>

<g transform="matrix( 0.5625, 0, 0, 0.5625, 0,0) ">
<use xlink:href="#Layer0_1_MEMBER_1_MEMBER_14_FILL"/>
</g>

<g transform="matrix( 0.5625, 0, 0, 0.5625, 0,0) ">
<use xlink:href="#Layer0_1_MEMBER_1_MEMBER_15_FILL"/>
</g>

<g transform="matrix( 0.5625, 0, 0, 0.5625, 0,0) ">
<use xlink:href="#Layer0_1_MEMBER_1_MEMBER_16_FILL"/>
</g>

<g transform="matrix( 0.5625, 0, 0, 0.5625, 0,0) ">
<use xlink:href="#Layer0_1_MEMBER_1_MEMBER_17_FILL"/>
</g>

<g transform="matrix( 0.5625, 0, 0, 0.5625, 0,0) ">
<use xlink:href="#Layer0_1_MEMBER_1_MEMBER_18_FILL"/>
</g>

<g transform="matrix( 0.5625, 0, 0, 0.5625, 0,0) ">
<use xlink:href="#Layer0_1_MEMBER_1_MEMBER_19_FILL"/>
</g>

<g transform="matrix( 0.5625, 0, 0, 0.5625, 0,0) ">
<use xlink:href="#Layer0_1_MEMBER_1_MEMBER_20_FILL"/>
</g>

<g transform="matrix( 0.5625, 0, 0, 0.5625, 0,0) ">
<use xlink:href="#Layer0_1_MEMBER_1_MEMBER_21_FILL"/>
</g>

<g transform="matrix( 0.5625, 0, 0, 0.5625, 0,1.5) ">
<use xlink:href="#Layer0_2_FILL"/>
</g>

<g transform="matrix( 0.5603485107421875, 0.0490264892578125, -0.0490264892578125, 0.5603485107421875, 2.75,-2.6) ">
<use xlink:href="#Layer0_3_FILL"/>
</g>

<g transform="matrix( 0.5603485107421875, -0.0490264892578125, 0.0490264892578125, 0.5603485107421875, -2.5,3.6) ">
<use xlink:href="#Layer0_4_FILL"/>
</g>

<g transform="matrix( 1, 0, 0, 1, 0,0) ">
<use xlink:href="#Layer0_5_1_STROKES"/>
</g>
</g>
</svg>
