
<svg xmlns="http://www.w3.org/2000/svg" version="1.1" xmlns:xlink="http://www.w3.org/1999/xlink" preserveAspectRatio="none" x="0px" y="0px" width="72px" height="72px" viewBox="0 0 72 72">
<defs>
<g id="Layer0_0_FILL">
<path fill="#FCC21B" stroke="none" d="
M 127.75 93.35
Q 127.75 66.35 119.25 46.35 103.65 9.7 64 9.7 24.3 9.65 8.7 46.3 0.2 66.35 0.2 93.35 0.2 103.75 18.9 111.05 37.55 118.4 64 118.4 90.4 118.4 109.1 111.05 127.75 103.75 127.75 93.35 Z"/>
</g>

<g id="Layer0_1_FILL">
<path fill="#2F2F2F" stroke="none" d="
M 48.55 47.85
Q 48.45 47.8 45.1 45.4 40.85 43.1 35.9 43.1 30.9 43.1 26.65 45.4 24.45 46.6 23.2 47.85 22.65 48.4 22.7 49.15 22.7 49.9 23.25 50.45 23.8 51 24.5 51 25.3 50.95 25.8 50.4 26.85 49.45 28.5 48.55 31.9 46.75 35.9 46.75 39.85 46.75 43.25 48.55 45.85 50.35 45.95 50.4 46.45 50.95 47.2 51 47.95 51 48.5 50.45 49.05 49.9 49.1 49.15 49.1 48.4 48.55 47.85 Z"/>
</g>

<g id="Layer0_2_FILL">
<path fill="#2F2F2F" stroke="none" d="
M 15 37.8
Q 15.15 38.4 15.7 38.7 16.1 38.95 16.45 38.95 17.35 38.95 17.8 38.2 17.85 38.1 19.15 36.75 20.9 35.4 23.25 35.4 25.6 35.4 27.4 36.75 28.3 37.45 28.7 38.2 29 38.75 29.65 38.9 30.25 39.05 30.8 38.7 31.35 38.4 31.5 37.8 31.65 37.15 31.3 36.65 30.9 35.65 29.3 34.4 26.7 32.35 23.25 32.35 19.8 32.35 17.15 34.4 15.2 36.5 15.15 36.65 14.85 37.15 15 37.8
M 56.85 36.65
Q 56.15 35.45 54.85 34.4 52.25 32.35 48.75 32.35 45.35 32.35 42.7 34.4 40.75 36.55 40.65 36.65 40.35 37.15 40.55 37.8 40.7 38.4 41.25 38.7 41.65 38.95 42 38.95 42.9 38.95 43.3 38.2 43.35 38.1 44.7 36.75 46.45 35.4 48.75 35.4 51.1 35.4 52.85 36.75 53.75 37.4 54.25 38.2 54.55 38.7 55.15 38.9 55.8 39 56.3 38.7 56.85 38.35 57 37.8 57.2 37.15 56.85 36.65 Z"/>
</g>

<g id="Layer0_3_FILL">
<path fill="#40C0E7" stroke="none" d="
M 10.65 5.5
Q 7.2 9 4.7 15.1 2.3 21.15 4.7 25.15 7.2 29 10.65 29 14.15 29 16.65 25.15 19.05 21.15 16.65 15.1 14.15 9 10.65 5.5 Z"/>
</g>
</defs>

<g id="Layer_1">
<g transform="matrix( 0.5625, 0, 0, 0.5625, 0,0) ">
<use xlink:href="#Layer0_0_FILL"/>
</g>

<g transform="matrix( 0.93560791015625, 0, 0, 1, 2.4,2.15) ">
<use xlink:href="#Layer0_1_FILL"/>
</g>

<g transform="matrix( 1, 0, 0, 1, 0,0) ">
<use xlink:href="#Layer0_2_FILL"/>
</g>

<g transform="matrix( 1.3063812255859375, 0, 0, 1.3063812255859375, -1.25,-5.25) ">
<use xlink:href="#Layer0_3_FILL"/>
</g>
</g>
</svg>
