
<svg xmlns="http://www.w3.org/2000/svg" version="1.1" xmlns:xlink="http://www.w3.org/1999/xlink" preserveAspectRatio="none" x="0px" y="0px" width="72px" height="72px" viewBox="0 0 72 72">
<defs>
<g id="Layer0_0_FILL">
<path fill="#FCC21B" stroke="none" d="
M 127.45 93.2
Q 127.45 66.35 119 46.4 103.5 9.9 64 9.9 24.5 9.9 9 46.4 0.5 66.35 0.5 93.2 0.5 103.55 19.1 110.85 37.65 118.15 64 118.15 90.25 118.15 108.85 110.85 127.45 103.5 127.45 93.2 Z"/>
</g>

<g id="Layer0_1_MEMBER_0_FILL">
<path fill="#2F2F2F" stroke="none" d="
M 35.2 49.6
Q 33.95 49.6 33.1 50.5 32.2 51.35 32.2 52.6 32.2 53.85 33.1 54.7 33.95 55.6 35.2 55.6
L 53.1 55.6
Q 54.35 55.6 55.2 54.7 56.1 53.85 56.1 52.6 56.1 51.35 55.2 50.5 54.35 49.6 53.1 49.6
L 35.2 49.6 Z"/>
</g>

<g id="Layer0_1_MEMBER_1_FILL">
<path fill="#2F2F2F" stroke="none" d="
M 92.75 55.6
Q 94 55.6 94.85 54.7 95.75 53.85 95.75 52.6 95.75 51.35 94.85 50.5 94 49.6 92.75 49.6
L 74.85 49.6
Q 73.6 49.6 72.7 50.5 71.85 51.35 71.85 52.6 71.85 53.85 72.7 54.7 73.6 55.6 74.85 55.6
L 92.75 55.6 Z"/>
</g>

<g id="Layer0_2_FILL">
<path fill="#2F2F2F" stroke="none" d="
M 89.65 84.75
Q 90.9 84.75 91.75 83.9 92.65 83 92.65 81.75 92.65 80.5 91.8 79.65 90.9 78.75 89.65 78.75
L 38.3 78.75
Q 37.05 78.75 36.2 79.65 35.3 80.5 35.3 81.75 35.3 83 36.2 83.9 37.05 84.75 38.3 84.75
L 89.65 84.75 Z"/>
</g>
</defs>

<g id="Layer_1">
<g transform="matrix( 0.5625, 0, 0, 0.5625, 0,0) ">
<use xlink:href="#Layer0_0_FILL"/>
</g>

<g transform="matrix( 0.5625, 0, 0, 0.5625, 0,0) ">
<use xlink:href="#Layer0_1_MEMBER_0_FILL"/>
</g>

<g transform="matrix( 0.5625, 0, 0, 0.5625, 0,0) ">
<use xlink:href="#Layer0_1_MEMBER_1_FILL"/>
</g>

<g transform="matrix( 0.5625, 0, 0, 0.5625, 0,0) ">
<use xlink:href="#Layer0_2_FILL"/>
</g>
</g>
</svg>
