
<svg xmlns="http://www.w3.org/2000/svg" version="1.1" xmlns:xlink="http://www.w3.org/1999/xlink" preserveAspectRatio="none" x="0px" y="0px" width="72px" height="72px" viewBox="0 0 72 72">
<defs>
<g id="Layer0_0_FILL">
<path fill="#FCC21B" stroke="none" d="
M 127.65 93.35
Q 127.65 66.35 119.15 46.3 103.55 9.65 63.85 9.65 24.2 9.65 8.6 46.3 0.1 66.35 0.1 93.35 0.1 103.75 18.8 111.05 37.45 118.4 63.85 118.4 90.3 118.4 108.95 111.05 127.65 103.75 127.65 93.35 Z"/>
</g>

<g id="Layer0_1_MEMBER_0_MEMBER_0_MEMBER_0_MEMBER_0_MEMBER_0_FILL">
<path fill="#2F2F2F" stroke="none" d="
M 55.55 57.95
Q 54.75 58.6 53.65 58.6
L 41.2 58.6
Q 42.2 61.2 44.2 62.75 46.25 64.35 48.7 64.3 51.7 64.25 53.95 61.95 56.15 59.7 56.6 56.25 56.35 57.25 55.55 57.95 Z"/>
</g>

<g id="Layer0_1_MEMBER_0_MEMBER_0_MEMBER_0_MEMBER_0_MEMBER_1_FILL">
<path fill="#2F2F2F" stroke="none" d="
M 55.55 57.95
Q 56.35 57.25 56.6 56.25
L 56.6 56.15 56.65 55.6
Q 56.65 54.35 55.75 53.5 54.9 52.6 53.65 52.6
L 40.65 52.6
Q 40.45 53.45 40.45 54.7 40.55 56.8 41.2 58.6
L 53.65 58.6
Q 54.75 58.6 55.55 57.95 Z"/>
</g>

<g id="Layer0_1_MEMBER_0_MEMBER_1_MEMBER_0_MEMBER_0_MEMBER_0_FILL">
<path fill="#2F2F2F" stroke="none" d="
M 55.55 57.95
Q 54.75 58.6 53.65 58.6
L 41.2 58.6
Q 42.2 61.2 44.2 62.75 46.25 64.35 48.7 64.3 51.7 64.25 53.95 61.95 56.15 59.7 56.6 56.25 56.35 57.25 55.55 57.95 Z"/>
</g>

<g id="Layer0_1_MEMBER_0_MEMBER_1_MEMBER_0_MEMBER_0_MEMBER_1_FILL">
<path fill="#2F2F2F" stroke="none" d="
M 55.55 57.95
Q 56.35 57.25 56.6 56.25
L 56.6 56.15 56.65 55.6
Q 56.65 54.35 55.75 53.5 54.9 52.6 53.65 52.6
L 40.65 52.6
Q 40.45 53.45 40.45 54.7 40.55 56.8 41.2 58.6
L 53.65 58.6
Q 54.75 58.6 55.55 57.95 Z"/>
</g>

<path id="Layer0_1_MEMBER_0_MEMBER_0_MEMBER_1_1_STROKES" stroke="#2F2F2F" stroke-width="3" stroke-linejoin="round" stroke-linecap="round" fill="none" d="
M 29.8 31.45
Q 22.746484375 30.3216796875 16.5 31.45"/>

<path id="Layer0_1_MEMBER_0_MEMBER_1_MEMBER_1_1_STROKES" stroke="#2F2F2F" stroke-width="3" stroke-linejoin="round" stroke-linecap="round" fill="none" d="
M 29.8 31.45
Q 22.746484375 30.3216796875 16.5 31.45"/>

<path id="Layer0_2_MEMBER_0_1_STROKES" stroke="#2F2F2F" stroke-width="3" stroke-linejoin="miter" stroke-linecap="round" stroke-miterlimit="10" fill="none" d="
M 26.45 48.55
Q 30.183984375 45.6126953125 36 45.6 41.9 45.6 45.7 48.55"/>

<path id="Layer0_2_MEMBER_1_1_STROKES" stroke="#2F2F2F" stroke-width="3" stroke-linejoin="round" stroke-linecap="round" fill="none" d="
M 45.55 48.55
Q 40.8060546875 46.5005859375 36.05 46.5 31.281640625 46.4982421875 26.45 48.55"/>

<path id="Layer0_3_1_STROKES" stroke="#2F2F2F" stroke-width="3" stroke-linejoin="round" stroke-linecap="round" fill="none" d="
M 47.55 20.55
Q 52.85 20.2 57.65 23.35
M 24.6 20.55
Q 19.2 20.15 14.35 23.4"/>
</defs>

<g transform="matrix( 0.5625, 0, 0, 0.5625, 0.05,0) ">
<use xlink:href="#Layer0_0_FILL"/>
</g>

<g transform="matrix( 0.5624542236328125, 0, 0, 0.5624542236328125, -0.55,1.3) ">
<use xlink:href="#Layer0_1_MEMBER_0_MEMBER_0_MEMBER_0_MEMBER_0_MEMBER_0_FILL"/>
</g>

<g transform="matrix( 0.5624542236328125, 0, 0, 0.5624542236328125, -0.55,1.3) ">
<use xlink:href="#Layer0_1_MEMBER_0_MEMBER_0_MEMBER_0_MEMBER_0_MEMBER_1_FILL"/>
</g>

<g transform="matrix( 1, 0, 0, 1, 0,1) ">
<use xlink:href="#Layer0_1_MEMBER_0_MEMBER_0_MEMBER_1_1_STROKES"/>
</g>

<g transform="matrix( 0.56243896484375, 0, 0, 0.56243896484375, 25.7,1.3) ">
<use xlink:href="#Layer0_1_MEMBER_0_MEMBER_1_MEMBER_0_MEMBER_0_MEMBER_0_FILL"/>
</g>

<g transform="matrix( 0.56243896484375, 0, 0, 0.56243896484375, 25.7,1.3) ">
<use xlink:href="#Layer0_1_MEMBER_0_MEMBER_1_MEMBER_0_MEMBER_0_MEMBER_1_FILL"/>
</g>

<g transform="matrix( 1, 0, 0, 1, 26.25,1) ">
<use xlink:href="#Layer0_1_MEMBER_0_MEMBER_1_MEMBER_1_1_STROKES"/>
</g>

<g transform="matrix( 1, 0, 0, 1, 0,1) ">
<use xlink:href="#Layer0_2_MEMBER_0_1_STROKES"/>
</g>

<g transform="matrix( 1, 0, 0, 1, 0,1) ">
<use xlink:href="#Layer0_2_MEMBER_1_1_STROKES"/>
</g>

<g transform="matrix( 1, 0, 0, 1, 0,1) ">
<use xlink:href="#Layer0_3_1_STROKES"/>
</g>
</svg>
