
<svg xmlns="http://www.w3.org/2000/svg" version="1.1" xmlns:xlink="http://www.w3.org/1999/xlink" preserveAspectRatio="none" x="0px" y="0px" width="72px" height="72px" viewBox="0 0 72 72">
<defs>
<g id="Layer0_0_MEMBER_0_FILL">
<path fill="#FCC21B" stroke="none" d="
M 127.55 96.25
Q 127.55 69.4 119.05 49.4 103.55 12.85 64 12.85 24.45 12.85 8.9 49.4 0.4 69.4 0.4 96.25 0.4 106.6 19 113.9 37.65 121.2 64 121.2 90.35 121.2 108.95 113.9 127.55 106.6 127.55 96.25 Z"/>
</g>

<g id="Layer0_1_FILL">
<path fill="#FFFFFF" stroke="none" d="
M 104.85 97.5
Q 109 93.4 109 87.6 109 81.85 104.85 77.75 100.75 73.6 95 73.6
L 33 73.6
Q 27.2 73.6 23.1 77.75 19 81.85 19 87.6 19 93.4 23.1 97.5 27.2 101.6 33 101.6
L 95 101.6
Q 100.75 101.6 104.85 97.5 Z"/>
</g>

<g id="Layer0_2_FILL">
<path fill="#2F2F2F" stroke="none" d="
M 59 43.75
Q 56.65 41.4 53.45 41.4
L 18.55 41.4
Q 15.3 41.4 13 43.75 10.7 46.05 10.7 49.25 10.7 52.55 13 54.85 15.3 57.15 18.55 57.15
L 53.45 57.15
Q 56.65 57.15 59 54.85 61.3 52.5 61.3 49.25 61.3 46.05 59 43.75
M 57.4 45.3
Q 59.05 46.95 59.05 49.25 59.05 51.6 57.4 53.25 55.75 54.9 53.45 54.9
L 18.55 54.9
Q 16.25 54.9 14.55 53.25 12.95 51.6 12.95 49.25 12.95 46.95 14.55 45.3 16.25 43.65 18.55 43.65
L 53.45 43.65
Q 55.75 43.65 57.4 45.3 Z"/>
</g>

<g id="Layer0_3_MEMBER_0_FILL">
<path fill="#2F2F2F" stroke="none" d="
M 50.55 75.2
L 47.4 75.2 47.4 100.2 50.55 100.2 50.55 75.2 Z"/>
</g>

<g id="Layer0_3_MEMBER_1_FILL">
<path fill="#2F2F2F" stroke="none" d="
M 35.55 75.2
L 32.4 75.2 32.4 100.2 35.55 100.2 35.55 75.2 Z"/>
</g>

<g id="Layer0_3_MEMBER_2_FILL">
<path fill="#2F2F2F" stroke="none" d="
M 95.55 75.2
L 92.4 75.2 92.4 100.2 95.55 100.2 95.55 75.2 Z"/>
</g>

<g id="Layer0_3_MEMBER_3_FILL">
<path fill="#2F2F2F" stroke="none" d="
M 80.55 75.2
L 77.4 75.2 77.4 100.2 80.55 100.2 80.55 75.2 Z"/>
</g>

<g id="Layer0_3_MEMBER_4_FILL">
<path fill="#2F2F2F" stroke="none" d="
M 65.55 75.2
L 62.4 75.2 62.4 100.2 65.55 100.2 65.55 75.2 Z"/>
</g>

<g id="Layer0_3_MEMBER_5_FILL">
<path fill="#2F2F2F" stroke="none" d="
M 107.5 89.2
L 107.5 86.05 20.45 86.05 20.45 89.2 107.5 89.2 Z"/>
</g>

<g id="Layer0_4_MEMBER_0_FILL">
<path fill="#2F2F2F" stroke="none" d="
M 38.35 49.65
Q 36 52.5 36 56.5 36 60.5 38.35 63.3 40.65 66.1 43.95 66.1 47.2 66.1 49.55 63.3 51.85 60.45 51.85 56.5 51.85 52.5 49.55 49.65 47.2 46.85 43.95 46.85 40.65 46.85 38.35 49.65 Z"/>
</g>

<g id="Layer0_4_MEMBER_1_FILL">
<path fill="#2F2F2F" stroke="none" d="
M 84 66.1
Q 87.3 66.1 89.6 63.3 91.9 60.5 91.9 56.5 91.9 52.5 89.6 49.65 87.3 46.85 84 46.85 80.75 46.85 78.4 49.65 76.1 52.5 76.1 56.5 76.1 60.45 78.4 63.3 80.75 66.1 84 66.1 Z"/>
</g>
</defs>

<g id="Layer_1">
<g transform="matrix( 0.5624847412109375, 0, 0, 0.5624847412109375, 0,0) ">
<use xlink:href="#Layer0_0_MEMBER_0_FILL"/>
</g>

<g transform="matrix( 0.5624847412109375, 0, 0, 0.5624847412109375, 0,-2) ">
<use xlink:href="#Layer0_1_FILL"/>
</g>

<g transform="matrix( 1, 0, 0, 1, 0,-2) ">
<use xlink:href="#Layer0_2_FILL"/>
</g>

<g transform="matrix( 0.5624847412109375, 0, 0, 0.5624847412109375, 0,-2) ">
<use xlink:href="#Layer0_3_MEMBER_0_FILL"/>
</g>

<g transform="matrix( 0.5624847412109375, 0, 0, 0.5624847412109375, 0,-2) ">
<use xlink:href="#Layer0_3_MEMBER_1_FILL"/>
</g>

<g transform="matrix( 0.5624847412109375, 0, 0, 0.5624847412109375, 0,-2) ">
<use xlink:href="#Layer0_3_MEMBER_2_FILL"/>
</g>

<g transform="matrix( 0.5624847412109375, 0, 0, 0.5624847412109375, 0,-2) ">
<use xlink:href="#Layer0_3_MEMBER_3_FILL"/>
</g>

<g transform="matrix( 0.5624847412109375, 0, 0, 0.5624847412109375, 0,-2) ">
<use xlink:href="#Layer0_3_MEMBER_4_FILL"/>
</g>

<g transform="matrix( 0.5624847412109375, 0, 0, 0.5624847412109375, 0,-2) ">
<use xlink:href="#Layer0_3_MEMBER_5_FILL"/>
</g>

<g transform="matrix( 0.5624847412109375, 0, 0, 0.5624847412109375, 0,-1.5) ">
<use xlink:href="#Layer0_4_MEMBER_0_FILL"/>
</g>

<g transform="matrix( 0.5624847412109375, 0, 0, 0.5624847412109375, 0,-1.5) ">
<use xlink:href="#Layer0_4_MEMBER_1_FILL"/>
</g>
</g>
</svg>
