
<svg xmlns="http://www.w3.org/2000/svg" version="1.1" xmlns:xlink="http://www.w3.org/1999/xlink" preserveAspectRatio="none" x="0px" y="0px" width="72px" height="72px" viewBox="0 0 72 72">
<defs>
<g id="Layer0_0_FILL">
<path fill="#FCC21B" stroke="none" d="
M 127.85 93.45
Q 127.85 66.45 119.35 46.35 103.75 9.65 64 9.65 24.25 9.65 8.65 46.35 0.1 66.45 0.1 93.45 0.1 103.85 18.8 111.2 37.55 118.55 64 118.55 90.45 118.55 109.15 111.2 127.85 103.85 127.85 93.45 Z"/>
</g>

<g id="Layer0_1_MEMBER_0_FILL">
<path fill="#2F2F2F" stroke="none" d="
M 47.55 48.9
Q 45.15 46.05 41.8 46.1 38.45 46.15 36.05 49 33.7 51.9 33.75 55.9 33.8 59.9 36.2 62.75 38.6 65.55 41.95 65.5 45.3 65.5 47.7 62.65 50.05 59.75 50 55.75 49.95 51.75 47.55 48.9 Z"/>
</g>

<g id="Layer0_1_MEMBER_1_FILL">
<path fill="#2F2F2F" stroke="none" d="
M 91.75 48.95
Q 89.4 46.1 86.05 46.15 82.7 46.15 80.3 49 77.9 51.85 77.9 55.85 77.9 59.85 80.3 62.7 82.7 65.55 86.05 65.5 89.45 65.5 91.8 62.65 94.2 59.8 94.15 55.8 94.15 51.8 91.75 48.95 Z"/>
</g>

<g id="Layer0_2_FILL">
<path fill="#ED6C30" stroke="none" d="
M 85.65 92.6
Q 84.6 88.85 81.55 85.7 78.85 82.9 75.4 81.1 70.2 78.35 63.95 78.35 57.75 78.35 52.5 81.1 49.05 82.9 46.35 85.7 43.35 88.85 42.3 92.6 41.2 96.45 43.05 97.7 44.35 98.55 46.35 98.4 46.55 98.35 49.75 97.7 56.2 96.35 63.95 96.35 71.75 96.35 78.15 97.7 81.45 98.35 81.6 98.4 83.6 98.55 84.9 97.7 86.75 96.45 85.65 92.6 Z"/>
</g>
</defs>

<g id="Layer_1">
<g transform="matrix( 0.5625, 0, 0, 0.5625, 0,0) ">
<use xlink:href="#Layer0_0_FILL"/>
</g>

<g transform="matrix( 0.5625, 0, 0, 0.5625, 0,-1.1) ">
<use xlink:href="#Layer0_1_MEMBER_0_FILL"/>
</g>

<g transform="matrix( 0.5625, 0, 0, 0.5625, 0,-1.1) ">
<use xlink:href="#Layer0_1_MEMBER_1_FILL"/>
</g>

<g transform="matrix( 0.5625, 0, 0, 0.626861572265625, 0,-8.15) ">
<use xlink:href="#Layer0_2_FILL"/>
</g>
</g>
</svg>
