
<svg xmlns="http://www.w3.org/2000/svg" version="1.1" xmlns:xlink="http://www.w3.org/1999/xlink" preserveAspectRatio="none" x="0px" y="0px" width="72px" height="72px" viewBox="0 0 72 72">
<defs>
<g id="Layer0_0_FILL">
<path fill="#FCC21B" stroke="none" d="
M 127.75 93.35
Q 127.75 66.35 119.25 46.35 103.65 9.7 64 9.7 24.3 9.65 8.7 46.3 0.2 66.35 0.2 93.35 0.2 103.75 18.9 111.05 37.55 118.4 64 118.4 90.4 118.4 109.1 111.05 127.75 103.75 127.75 93.35 Z"/>
</g>

<g id="Layer0_1_MEMBER_0_FILL">
<path fill="#40C0E7" stroke="none" d="
M 89.15 48.8
L 89 48.95
Q 88 49.85 87.95 50.55 87.85 51.5 89.3 52.2
L 90.15 52.5
Q 91 52.85 93.15 53.5
L 95.5 54.25
Q 97.7 55 97.9 55 99.25 55.15 99.9 53.8 100.3 52.9 100.3 52.25 100.25 51.35 99 50.8
L 96.4 49.9
Q 96.05 49.85 96 49.75 95.8 49.55 96.3 49.35
L 97.45 48.6
Q 98.25 48.1 98.6 47.8
L 100.5 46.5
Q 101 46.1 102.45 45.05 103.55 44.05 103.05 43 102.7 42.3 102.1 42
L 101.05 41.6
Q 99.9 41.2 99.8 41.15
L 95.5 39.8
Q 93.25 39.1 93.1 39.05 91.7 38.9 91.1 40.3 90.65 41.3 90.7 41.85 90.75 42.8 91.95 43.25 92.9 43.65 94.1 44
L 94.85 44.25
Q 95.2 44.35 95.2 44.5 95.2 44.7 94.95 44.8
L 90.75 47.6
Q 90.15 48 89.15 48.8 Z"/>
</g>

<g id="Layer0_1_MEMBER_1_FILL">
<path fill="#40C0E7" stroke="none" d="
M 108.45 24.1
Q 106.05 23.05 105.9 23 104.45 22.7 103.6 24.15 103.05 25.1 103 25.75 102.95 26.7 104.25 27.45
L 107.25 28.85
Q 107.7 29 107.65 29.15
L 107.3 29.5 100.35 33.35
Q 99.15 34.15 99 35 98.85 36.05 100.35 36.9
L 101.2 37.35 101.25 37.35
Q 101.9 37.75 104.4 38.75
L 106.9 39.85
Q 109.3 40.9 109.45 40.95 110.9 41.25 111.7 39.8 112.3 38.95 112.35 38.15 112.35 37.15 111.1 36.5
L 107.95 35
Q 107.75 34.8 108.3 34.6
L 109.6 33.9
Q 110.7 33.35 111 33.15
L 111.7 32.8
Q 112.7 32.3 113.15 31.95 113.75 31.55 115.45 30.6 116.8 29.6 116.4 28.45 116.1 27.65 115.45 27.25 115.2 27.1 114.35 26.65
L 108.45 24.1 Z"/>
</g>

<g id="Layer0_1_MEMBER_2_FILL">
<path fill="#40C0E7" stroke="none" d="
M 126.8 9.65
Q 128.5 8.25 127.85 6.7 127.5 5.7 126.55 5.15 126.05 4.85 125.05 4.45
L 117.05 1.4
Q 113.65 0.15 113.6 0.15 111.65 -0.15 110.6 1.8 109.9 3.3 109.9 4 109.9 4.8 110.4 5.35 110.75 5.75 111.65 6.2
L 115.75 7.85
Q 116.3 8 116.25 8.25 116.25 8.5 115.85 8.65
L 109.55 12.45
Q 109.05 12.75 107.15 14.05
L 106.85 14.3
Q 105.35 15.5 105.2 16.55 105.05 17.95 107.05 19
L 108.25 19.55 108.3 19.55
Q 109.6 20.2 112.55 21.2
L 115.95 22.5
Q 119.35 23.75 119.4 23.75 121.4 24.05 122.4 22.1 123.1 20.6 123.1 19.9 123.1 18.6 121.35 17.7
L 117.6 16.2
Q 117.15 16.1 117.05 15.95 116.75 15.7 117.5 15.35
L 121.9 12.8
Q 122.5 12.4 123.8 11.6 124.6 11.05 126.8 9.65 Z"/>
</g>

<g id="Layer0_2_MEMBER_0_FILL">
<path fill="#2F2F2F" stroke="none" d="
M 96.15 59.85
Q 95.3 61.2 93.7 62.4 90.6 64.8 86.45 64.8 82.35 64.8 79.2 62.4 76.85 59.95 76.75 59.85 75.95 58.5 74.45 58.5 73.75 58.5 73.05 58.9 72.1 59.45 71.8 60.55 71.5 61.7 72.05 62.65 72.15 62.8 75.65 66.55 80.35 70.25 86.45 70.25 92.6 70.25 97.25 66.55 99.6 64.7 100.85 62.6 101.4 61.65 101.1 60.6 100.85 59.5 99.85 58.9 98.9 58.35 97.8 58.6 96.7 58.9 96.15 59.85 Z"/>
</g>

<g id="Layer0_2_MEMBER_1_FILL">
<path fill="#2F2F2F" stroke="none" d="
M 28.1 58.9
Q 27.15 59.45 26.85 60.55 26.55 61.7 27.1 62.65 27.2 62.8 30.7 66.55 35.35 70.25 41.5 70.25 47.65 70.25 52.3 66.55 55.15 64.3 55.85 62.6 56.45 61.65 56.15 60.55 55.9 59.45 54.9 58.9 53.95 58.3 52.85 58.6 51.75 58.85 51.2 59.85 50.45 61.1 48.85 62.35 45.7 64.8 41.5 64.8 37.35 64.8 34.25 62.4 31.9 59.95 31.85 59.85 31 58.5 29.45 58.5 28.8 58.5 28.1 58.9 Z"/>
</g>

<g id="Layer0_3_FILL">
<path fill="#ED6C30" stroke="none" d="
M 75.2 75.55
Q 71.1 69.1 64 69.1 56.85 69.1 52.8 75.55 49.2 81.2 49.2 89.3 49.2 96.6 53 100.45 56.8 104.3 64 104.3 71.15 104.3 74.95 100.45 78.75 96.6 78.75 89.3 78.75 81.2 75.2 75.55 Z"/>
</g>
</defs>

<g id="Layer_1">
<g transform="matrix( 0.5625, 0, 0, 0.5625, 0,0) ">
<use xlink:href="#Layer0_0_FILL"/>
</g>

<g transform="matrix( 0.5625, 0, 0, 0.5625, 0,0) ">
<use xlink:href="#Layer0_1_MEMBER_0_FILL"/>
</g>

<g transform="matrix( 0.5625, 0, 0, 0.5625, 0,0) ">
<use xlink:href="#Layer0_1_MEMBER_1_FILL"/>
</g>

<g transform="matrix( 0.5625, 0, 0, 0.5625, 0,0) ">
<use xlink:href="#Layer0_1_MEMBER_2_FILL"/>
</g>

<g transform="matrix( 0.5625, 0, 0, 0.5625, 0,0) ">
<use xlink:href="#Layer0_2_MEMBER_0_FILL"/>
</g>

<g transform="matrix( 0.5625, 0, 0, 0.5625, 0,0) ">
<use xlink:href="#Layer0_2_MEMBER_1_FILL"/>
</g>

<g transform="matrix( 0.4729766845703125, 0, 0, 0.4123382568359375, 5.75,15.3) ">
<use xlink:href="#Layer0_3_FILL"/>
</g>
</g>
</svg>
