
<svg xmlns="http://www.w3.org/2000/svg" version="1.1" xmlns:xlink="http://www.w3.org/1999/xlink" preserveAspectRatio="none" x="0px" y="0px" width="72px" height="72px" viewBox="0 0 72 72">
<defs>
<g id="Layer0_0_MEMBER_0_MEMBER_0_FILL">
<path fill="#FCC21B" stroke="none" d="
M 122 84.85
Q 122 60.3 114.25 42.05 100.1 8.7 64 8.7 27.9 8.7 13.75 42.05 6 60.25 6 84.85 6 94.3 23 101 40 107.65 64 107.65 88 107.65 105 101 122 94.3 122 84.85 Z"/>
</g>

<g id="Layer0_0_MEMBER_0_MEMBER_1_MEMBER_1_MEMBER_0_FILL">
<path fill="#2F2F2F" stroke="none" d="
M 45.75 45.5
Q 48.5 45.9 50.65 43.9 52.85 41.9 53.25 38.65 53.65 35.4 52.05 32.95 50.45 30.45 47.75 30.05 45.1 29.7 42.85 31.7 40.6 33.75 40.25 36.95 39.9 40.15 41.5 42.65 43.1 45.15 45.75 45.5 Z"/>
</g>

<g id="Layer0_0_MEMBER_0_MEMBER_1_MEMBER_1_MEMBER_1_FILL">
<path fill="#2F2F2F" stroke="none" d="
M 86 48.6
Q 87.9 46.2 87.8 42.95 87.8 42.35 87.6 41.35 87.4 40.8 87 40.65 82.25 38.4 77.7 37.05 77 36.9 76.7 37.35 74.55 39.85 74.7 43.25 74.8 46.45 76.8 48.75 78.8 51.05 81.5 50.95 84.15 50.95 86 48.6 Z"/>
</g>

<g id="Layer0_0_MEMBER_1_MEMBER_0_FILL">
<path fill="#FAC036" stroke="none" d="
M 33.5 73.75
Q 32.9 71.25 31.3 69.05 30.35 67.65 28.55 66.8 26.8 65.95 24.9 65.95 22.7 65.95 21.4 66.95 19.7 68.2 19.6 71.1 19.55 72.7 20.2 76.55 20.35 77.85 20.6 79.95 20.55 82.3 20.05 84.1 19.7 85.25 18.85 87.15 17.9 89.4 17.6 90.3 16.95 92.4 16.75 94.75 16.2 101.55 16.55 104.8 17.2 110.5 20.5 114.35 23.6 117.8 27.6 119.4 31.6 121 37.2 121
L 39.65 120.95
Q 54.9 120.05 56.05 115.05 56.55 113.45 56 111.75 56.55 111.25 57.05 110.25 58.75 106.6 57.5 104.25 58.15 103.4 58.2 103.35 59.05 101.95 59.25 100.15 59.4 98.35 58.9 96.85 58.75 96.5 58.7 96.35 63 95.8 68.1 94.75 73.6 93.65 75.05 92.85 76.65 92 77.55 90.35 78.5 88.65 78.35 86.75 78.3 85.05 77.35 83.75 76.45 82.5 74.95 81.95 74 81.55 72.25 81.55 70.05 81.55 64.25 82.55
L 60.55 83.15
Q 52.7 84.3 45.75 84.85 44.85 84.85 43.25 85.05 38.55 85.45 38 85.45 36.5 85.45 35.9 85.05 35 84.4 34.6 83.6 34.1 82.6 34.1 80.85 34.1 76.3 33.5 73.75 Z"/>
</g>

<g id="Layer0_0_MEMBER_1_MEMBER_1_FILL">
<path fill="#2F2F2F" stroke="none" d="
M 29.4 65
Q 27.1 63.95 24.75 63.95 22.05 63.95 20.05 65.35 17.75 67.05 17.5 70.6 17.3 72.75 18.05 76.85 18.45 79.05 18.45 79.85 18.45 81.95 18.05 83.5 17.75 84.55 16.95 86.25 16 88.5 15.65 89.6 14.95 91.9 14.75 94.45 14.1 101.7 14.55 105.15 15.25 111.2 18.95 115.5 22.25 119.3 26.7 121.15 31.15 122.95 37.15 122.95 38.85 122.95 39.75 122.85 49.7 122.3 54.2 119.9 57.25 118.25 57.95 115.45 58.35 113.75 58.15 112.1
L 58.85 110.95
Q 60.5 107.5 59.75 104.45
L 60 104.1
Q 61.7 101.15 61.25 97.7 65.65 97.05 69.85 96.1 74.55 95.05 76.05 94.3 78.2 93.25 79.4 91.05 80.6 88.85 80.5 86.3 80.35 84 79.1 82.2 77.85 80.45 75.8 79.7 74.3 79.2 72.5 79.2 70.05 79.2 64.05 80.2
L 60.35 80.8
Q 57.45 81.25 52.15 81.8 46.9 82.35 45.65 82.5 43.85 82.7 43.15 82.7 38.75 83.1 38.05 83.1 37.15 83 37.05 83 36.55 82.6 36.4 82.3 36.15 81.7 36.15 80.5 36.05 75.85 35.5 73.25 34.8 70.25 32.95 67.6 31.5 65.95 29.4 65
M 22.3 68.55
Q 23.35 67.95 24.75 67.95 26.15 67.95 27.45 68.55 28.85 69.15 29.55 70.25 30.9 72.25 31.45 74.4 32 76.65 32.05 80.95 32.05 83.1 32.75 84.55 33.4 85.75 34.75 86.75 35.85 87.45 38 87.45 38.6 87.45 45.9 86.75 58.3 85.4 60.8 85.05 61.1 85 66.8 84.05 70.5 83.45 72.3 83.45 73.55 83.45 74.3 83.75 76.5 84.55 76.4 87.3 76.3 89.95 74.2 90.95 72.7 91.65 67 92.85 61.05 94.05 57.3 94.35 52.8 94.7 52.8 95.15 52.7 95.5 53.7 95.65 55.3 95.85 55.8 96.05 57.15 96.5 57.3 98.6 57.45 100.65 56.5 102.15 56.1 102.8 55.35 103.2 54.8 103.45 54.8 103.85 54.8 104.15 55.5 104.85 56 105.55 55.9 106.95 55.75 108.2 55.2 109.25 54.8 109.9 54.75 109.95 54.5 110.3 54.1 110.45 53.3 110.7 53.6 111.65 54 112.35 54.1 112.8 54.25 113.55 54 114.55 53.55 116.25 49.55 117.45 45.65 118.55 39.4 118.95
L 37.1 119.05
Q 31.95 119.05 28.35 117.65 24.65 116.2 21.9 113.05 19 109.75 18.45 104.85 18.05 101.55 18.7 94.95 19 91.8 20.8 87.6 22.4 83.9 22.4 79.95 21.8 76 21.5 73.75 20.9 69.6 22.3 68.55 Z"/>
</g>

<path id="Layer0_0_MEMBER_0_MEMBER_1_MEMBER_0_1_STROKES" stroke="#2F2F2F" stroke-width="3" stroke-linejoin="miter" stroke-linecap="round" stroke-miterlimit="10" fill="none" d="
M 24.901010131835935 36.43523254394531
L 26.955604553222656 35.85258636474609
Q 29.562179565429688 35.26994018554687 32.16875457763672 35.26994018554687 40.571125793457036 35.26994018554687 46.12159729003906 41.15773315429688"/>
</defs>

<g id="Layer_1">
<g transform="matrix( 0.613311767578125, 0, 0, 0.613311767578125, -3.25,-4.35) ">
<use xlink:href="#Layer0_0_MEMBER_0_MEMBER_0_FILL"/>
</g>

<g transform="matrix( 0.613311767578125, 0, 0, 0.613311767578125, -3.25,-4.35) ">
<use xlink:href="#Layer0_0_MEMBER_0_MEMBER_1_MEMBER_0_1_STROKES" transform="matrix( 1.6304779052734375, 0, 0, 1.6304779052734375, 5.25,7.05) "/>
</g>

<g transform="matrix( 0.613311767578125, 0, 0, 0.613311767578125, -3.25,-4.35) ">
<use xlink:href="#Layer0_0_MEMBER_0_MEMBER_1_MEMBER_1_MEMBER_0_FILL"/>
</g>

<g transform="matrix( 0.613311767578125, 0, 0, 0.613311767578125, -3.25,-4.35) ">
<use xlink:href="#Layer0_0_MEMBER_0_MEMBER_1_MEMBER_1_MEMBER_1_FILL"/>
</g>

<g transform="matrix( 0.613311767578125, 0, 0, 0.613311767578125, -3.25,-4.35) ">
<use xlink:href="#Layer0_0_MEMBER_1_MEMBER_0_FILL"/>
</g>

<g transform="matrix( 0.613311767578125, 0, 0, 0.613311767578125, -3.25,-4.35) ">
<use xlink:href="#Layer0_0_MEMBER_1_MEMBER_1_FILL"/>
</g>
</g>
</svg>
