
<svg xmlns="http://www.w3.org/2000/svg" version="1.1" xmlns:xlink="http://www.w3.org/1999/xlink" preserveAspectRatio="none" x="0px" y="0px" width="72px" height="72px" viewBox="0 0 72 72">
<defs>
<g id="Layer0_0_MEMBER_0_MEMBER_0_MEMBER_0_MEMBER_0_FILL">
<path fill="#FCC21B" stroke="none" d="
M 36 5.6
Q 13.8 5.6 5.05 26.1 0.25 37.35 0.25 52.45 0.25 58.25 10.7 62.35 21.2 66.45 36 66.45 50.8 66.45 61.25 62.35 71.7 58.25 71.7 52.45 71.7 37.35 66.9 26.1 58.2 5.6 36 5.6 Z"/>
</g>

<g id="Layer0_1_MEMBER_0_FILL">
<path fill="#ED6C30" stroke="none" d="
M 51.45 43.3
Q 50.35 42.4 46.65 42.9 40.4 43.65 37.05 43.65 33.8 43.65 26.35 42.5 21.7 41.75 20.45 43.05 19.55 43.95 19.95 45.3 20.9 49.4 25.65 51.95 30.25 54.4 36.75 54.4 43.45 54.4 47.6 51.8 51.5 49.35 52.2 45.3 52.4 44.1 51.45 43.3 Z"/>
</g>

<g id="Layer0_2_FILL">
<path fill="#EF6C00" stroke="none" d="
M 64.35 24.15
Q 64.75 24 64.75 23.55 64.7 23.05 64.3 22.9
L 55.9 19.9 54.75 11.15
Q 54.65 10.7 54.2 10.55 53.8 10.4 53.5 10.8
L 48.2 17.8 39.45 16.25
Q 38.95 16.2 38.7 16.55 38.4 16.95 38.75 17.3
L 43.85 24.55 39.55 32.4
Q 39.25 32.8 39.55 33.2 39.7 33.35 39.95 33.45 40.15 33.45 40.3 33.4
L 48.8 30.75 54.85 37.35
Q 55.25 37.65 55.65 37.45 56.1 37.3 56.1 36.85
L 56.35 27.85 64.35 24.15
M 33.35 16.55
Q 33.05 16.2 32.6 16.25
L 23.85 17.8 18.5 10.8
Q 18.15 10.4 17.75 10.5 17.3 10.7 17.25 11.15
L 16.1 19.9 7.7 22.9
Q 7.3 23.05 7.25 23.55 7.2 24 7.65 24.15
L 15.7 27.85 15.9 36.85
Q 15.85 37.3 16.35 37.45 16.5 37.6 16.75 37.5 16.9 37.5 17.1 37.3
L 23.15 30.7 31.65 33.35
Q 32.15 33.5 32.4 33.2 32.7 32.8 32.45 32.4
L 28.15 24.55 33.3 17.3
Q 33.55 16.95 33.35 16.55 Z"/>
</g>
</defs>

<g id="Layer_1">
<g transform="matrix( 1, 0, 0, 1, 0,0) ">
<use xlink:href="#Layer0_0_MEMBER_0_MEMBER_0_MEMBER_0_MEMBER_0_FILL"/>
</g>

<g transform="matrix( 1.003021240234375, 0, 0, 1.2949981689453125, -0.15,-16.7) ">
<use xlink:href="#Layer0_1_MEMBER_0_FILL"/>
</g>

<g transform="matrix( 1, 0, 0, 1, 0,0) ">
<use xlink:href="#Layer0_2_FILL"/>
</g>
</g>
</svg>
