
<svg xmlns="http://www.w3.org/2000/svg" version="1.1" xmlns:xlink="http://www.w3.org/1999/xlink" preserveAspectRatio="none" x="0px" y="0px" width="72px" height="72px" viewBox="0 0 72 72">
<defs>
<linearGradient id="Gradient_1" gradientUnits="userSpaceOnUse" x1="36" y1="40.9875" x2="36" y2="12.812499999999998" spreadMethod="pad">
<stop  offset="0%" stop-color="#FCC21B"/>

<stop  offset="100%" stop-color="#ED6C30"/>
</linearGradient>

<g id="Layer2_0_FILL">
<path fill="url(#Gradient_1)" stroke="none" d="
M 36 5.6
Q 13.8 5.6 5.05 26.1 0.25 37.35 0.25 52.45 0.25 58.25 10.7 62.35 21.2 66.45 36 66.45 50.8 66.45 61.25 62.35 71.7 58.25 71.7 52.45 71.7 37.35 66.9 26.1 58.2 5.6 36 5.6 Z"/>
</g>

<g id="Layer1_0_FILL">
<path fill="#2F2F2F" stroke="none" d="
M 36.05 41.15
Q 36 41.15 35.95 41.15 35.2 41.15 34.15 41.2
L 32.3 41.2
Q 23.6 41.6 22.25 48.55 22.4 50.35 25.1 50.35 30.65 50 36.05 50 41.6 50 47.15 50.35 49.85 50.35 49.85 48.55 48.65 41.6 40 41.2
L 38.1 41.2
Q 37 41.15 36.3 41.15 36.2 41.15 36.05 41.15 Z"/>
</g>

<g id="Layer1_1_MEMBER_0_FILL">
<path fill="#2F2F2F" stroke="none" d="
M 53 30.35
Q 53 29.3 52.75 28.4 48.45 28 45.65 26 45.4 26.2 45.2 26.45 43.85 28 43.85 30.3 43.85 32.55 45.15 34.15 46.5 35.75 48.35 35.75 50.25 35.8 51.65 34.25 53 32.6 53 30.35 Z"/>
</g>

<g id="Layer1_1_MEMBER_1_FILL">
<path fill="#2F2F2F" stroke="none" d="
M 19.25 28.35
Q 18.9765625 29.2947265625 19 30.35 19 32.6 20.35 34.25 21.75 35.8 23.65 35.75 25.5 35.75 26.85 34.15 28.15 32.55 28.15 30.3 28.15 28 26.8 26.45 26.5779296875 26.1962890625 26.35 25.95 23.5537109375 28.009375 19.25 28.35 Z"/>
</g>

<g id="Layer1_2_FILL">
<path fill="#D7598B" stroke="none" d="
M 36 45.35
Q 32.1 45.35 26.25 45.85 26.95 46.65 28.2 53.55 28.35 54.35 28.5 55.05 28.55 55.25 28.6 55.45 29.4 57.65 30.45 58.95 31.4 60.05 32.65 60.45 34 60.9 36 60.9 38 60.9 39.35 60.45 40.6 60.05 41.55 58.95 42.6 57.65 43.4 55.45 43.4458984375 55.2552734375 43.5 55.05 43.6458984375 54.3595703125 43.8 53.55 45.05 46.65 45.75 45.85 39.9 45.35 36 45.35
L 36 55.05 36 45.35 Z"/>
</g>

<g id="Layer0_0_FILL">
<path fill="#40C0E7" stroke="none" d="
M 109 50.45
Q 106.6 56.5 109 60.5 111.5 64.35 114.95 64.35 118.45 64.35 120.95 60.5 123.35 56.5 120.95 50.45 118.45 44.35 114.95 40.85 111.5 44.35 109 50.45 Z"/>
</g>

<path id="Layer1_2_1_STROKES" stroke="#2F2F2F" stroke-width="2" stroke-linejoin="round" stroke-linecap="round" fill="none" d="
M 36 45.05
L 36 45.35 36 55.05"/>
</defs>

<g id="_____1">
<g transform="matrix( 1, 0, 0, 1, 0,0) ">
<use xlink:href="#Layer2_0_FILL"/>
</g>
</g>

<g id="Camada_2">
<g transform="matrix( 1, 0, 0, 1, 0,0) ">
<use xlink:href="#Layer1_0_FILL"/>
</g>

<g transform="matrix( 1, 0, 0, 1, 0,0) ">
<use xlink:href="#Layer1_1_MEMBER_0_FILL"/>
</g>

<g transform="matrix( 1, 0, 0, 1, 0,0) ">
<use xlink:href="#Layer1_1_MEMBER_1_FILL"/>
</g>

<g transform="matrix( 1, 0, 0, 1, 0,0) ">
<use xlink:href="#Layer1_2_FILL"/>

<use xlink:href="#Layer1_2_1_STROKES"/>
</g>
</g>

<g id="Camada_3">
<g transform="matrix( 1, 0, 0, 1, -103.15,-21.3) ">
<use xlink:href="#Layer0_0_FILL"/>
</g>
</g>
</svg>
