
<svg xmlns="http://www.w3.org/2000/svg" version="1.1" xmlns:xlink="http://www.w3.org/1999/xlink" preserveAspectRatio="none" x="0px" y="0px" width="72px" height="72px" viewBox="0 0 72 72">
<defs>
<g id="Layer3_0_MEMBER_0_MEMBER_0_FILL">
<path fill="#007DB6" stroke="none" d="
M 72 6.75
Q 72 4 70 2 68 0 65.25 0
L 6.75 0
Q 3.95 0 2 2 0 4 0 6.75
L 0 65.25
Q 0 68.05 2 70.05 3.95 72 6.75 72
L 65.25 72
Q 68 72 70 70.05 72 68.05 72 65.25
L 72 6.75 Z"/>
</g>

<g id="Layer3_0_MEMBER_0_MEMBER_1_MEMBER_0_FILL">
<path fill="#004D80" stroke="none" d="
M 72 6.75
Q 72 3.95 70 2
L 1.95 70.05
Q 3.9 72 6.75 72
L 65.25 72
Q 68 72 70 70.05 72 68.05 72 65.25
L 72 6.75 Z"/>
</g>

<g id="Layer3_0_MEMBER_0_MEMBER_2_FILL">
<path fill="#006CA2" stroke="none" d="
M 63 16.25
Q 63 13.45 61.05 11.5 59.05 9.5 56.25 9.5
L 15.65 9.5
Q 12.9 9.5 10.9 11.5 8.9 13.45 8.9 16.25
L 8.9 56.8
Q 8.9 59.6 10.9 61.6 12.9 63.55 15.65 63.55
L 56.25 63.55
Q 59.05 63.55 61.05 61.6 63 59.6 63 56.8
L 63 16.25 Z"/>
</g>

<g id="Layer0_0_FILL">
<path fill="#FFFFFF" stroke="none" d="
M 89.75 83.2
Q 89.4 82.85 88.95 82.85
L 61.8 82.85
Q 71.95 76.65 82.05 66.6 88.4 60.25 89.15 51.2 89.95 41.45 83.15 34.65 74.8 26.35 64.5 26.35 55 26.35 44.9 33.1 39.75 36.55 36.2 40.3 35.6 40.9 36.05 41.65
L 42.9 52.8
Q 43.15 53.2 43.7 53.3 44.2 53.4 44.6 53 46.75 51.05 49.7 49.15 55.6 45.3 60.15 45.3 64.45 45.3 67.1 49.05 69.25 52.05 68.4 55.95 66.7 63.65 53.8 73.75 47.35 78.8 41.05 82.35 40.5 82.65 40.5 83.35
L 40.5 97.95
Q 40.5 98.4 40.85 98.75 41.15 99.05 41.6 99.05
L 88.95 99.05
Q 89.4 99.05 89.75 98.75 90.05 98.4 90.05 97.95
L 90.05 83.95
Q 90.05 83.5 89.75 83.2 Z"/>
</g>
</defs>

<g id="Layer_1">
<g transform="matrix( 1, 0, 0, 1, 0,0) ">
<use xlink:href="#Layer3_0_MEMBER_0_MEMBER_0_FILL"/>
</g>

<g transform="matrix( 1, 0, 0, 1, 0,0) ">
<use xlink:href="#Layer3_0_MEMBER_0_MEMBER_1_MEMBER_0_FILL"/>
</g>

<g transform="matrix( 1, 0, 0, 1, 0,0) ">
<use xlink:href="#Layer3_0_MEMBER_0_MEMBER_2_FILL"/>
</g>
</g>

<g transform="matrix( 0.5581207275390625, 0, 0, 0.5584564208984375, 0.9,1) ">
<use xlink:href="#Layer0_0_FILL"/>
</g>
</svg>
