
<svg xmlns="http://www.w3.org/2000/svg" version="1.1" xmlns:xlink="http://www.w3.org/1999/xlink" preserveAspectRatio="none" x="0px" y="0px" width="72px" height="72px" viewBox="0 0 72 72">
<defs>
<g id="Layer1_0_MEMBER_0_MEMBER_0_FILL">
<path fill="#007DB6" stroke="none" d="
M 72 6.75
Q 72 4 70 2 68 0 65.25 0
L 6.75 0
Q 3.95 0 2 2 0 4 0 6.75
L 0 65.25
Q 0 68.05 2 70.05 3.95 72 6.75 72
L 65.25 72
Q 68 72 70 70.05 72 68.05 72 65.25
L 72 6.75 Z"/>
</g>

<g id="Layer1_0_MEMBER_0_MEMBER_1_MEMBER_0_FILL">
<path fill="#004D80" stroke="none" d="
M 72 6.75
Q 72 3.95 70 2
L 1.95 70.05
Q 3.9 72 6.75 72
L 65.25 72
Q 68 72 70 70.05 72 68.05 72 65.25
L 72 6.75 Z"/>
</g>

<g id="Layer1_0_MEMBER_0_MEMBER_2_FILL">
<path fill="#006CA2" stroke="none" d="
M 63 16.25
Q 63 13.45 61.05 11.5 59.05 9.5 56.25 9.5
L 15.65 9.5
Q 12.9 9.5 10.9 11.5 8.9 13.45 8.9 16.25
L 8.9 56.8
Q 8.9 59.6 10.9 61.6 12.9 63.55 15.65 63.55
L 56.25 63.55
Q 59.05 63.55 61.05 61.6 63 59.6 63 56.8
L 63 16.25 Z"/>
</g>

<g id="Layer0_0_FILL">
<path fill="#FFFFFF" stroke="none" d="
M 89.6 45.2
Q 90.5 36.7 83.3 29.1 75.95 21.45 64.75 21.45 56.9 21.45 49.2 25 42.5 28.1 39.75 31.8 39.35 32.45 39.75 33.05
L 46.8 43.25
Q 47 43.6 47.5 43.7 48 43.8 48.35 43.5 48.4 43.45 53.1 40.3 58.55 37.15 62.65 37.15 67.1 37.15 69.4 41.15 71.35 44.5 70.15 47.4 68.8 50.75 63.7 53.4 58.85 55.45 58.8 55.45 58 55.7 58 56.5
L 58 65.45
Q 58 66.35 58.85 66.5 58.9 66.55 63.5 68.25 68.35 70.55 69.55 73.65 70.75 76.55 68.4 80.2 65.9 84.05 61 84.05 56.75 84.05 51.2 81.25 46.7 79 43.55 76.2 43.15 75.9 42.7 75.95 42.2 76.05 41.95 76.4
L 34.9 86.6
Q 34.4 87.25 34.95 87.9 36.15 89.2 37.3 90.3 40.1 92.9 43.2 95.05 53.1 101.8 63.4 101.8
L 63.8 101.8
Q 68.65 101.7 73 100.45 79.3 98.7 83.7 94.75 87.8 91.05 89.65 86.15 91.5 81.3 90.7 76.15 89.95 71.35 87.05 67.4 84.15 63.45 79.55 60.95 84 57.6 86.55 53.55 89.15 49.5 89.6 45.2 Z"/>
</g>
</defs>

<g id="Layer_1">
<g transform="matrix( 1, 0, 0, 1, 0,0) ">
<use xlink:href="#Layer1_0_MEMBER_0_MEMBER_0_FILL"/>
</g>

<g transform="matrix( 1, 0, 0, 1, 0,0) ">
<use xlink:href="#Layer1_0_MEMBER_0_MEMBER_1_MEMBER_0_FILL"/>
</g>

<g transform="matrix( 1, 0, 0, 1, 0,0) ">
<use xlink:href="#Layer1_0_MEMBER_0_MEMBER_2_FILL"/>
</g>
</g>

<g transform="matrix( 0.5062103271484375, 0, 0, 0.5052947998046875, 4.25,4.85) ">
<use xlink:href="#Layer0_0_FILL"/>
</g>
</svg>
