
<svg xmlns="http://www.w3.org/2000/svg" version="1.1" xmlns:xlink="http://www.w3.org/1999/xlink" preserveAspectRatio="none" x="0px" y="0px" width="72px" height="72px" viewBox="0 0 72 72">
<defs>
<g id="Layer1_0_MEMBER_0_MEMBER_0_FILL">
<path fill="#007DB6" stroke="none" d="
M 72 6.75
Q 72 4 70 2 68 0 65.25 0
L 6.75 0
Q 3.95 0 2 2 0 4 0 6.75
L 0 65.25
Q 0 68.05 2 70.05 3.95 72 6.75 72
L 65.25 72
Q 68 72 70 70.05 72 68.05 72 65.25
L 72 6.75 Z"/>
</g>

<g id="Layer1_0_MEMBER_0_MEMBER_1_MEMBER_0_FILL">
<path fill="#004D80" stroke="none" d="
M 72 6.75
Q 72 3.95 70 2
L 1.95 70.05
Q 3.9 72 6.75 72
L 65.25 72
Q 68 72 70 70.05 72 68.05 72 65.25
L 72 6.75 Z"/>
</g>

<g id="Layer1_0_MEMBER_0_MEMBER_2_FILL">
<path fill="#006CA2" stroke="none" d="
M 63 16.25
Q 63 13.45 61.05 11.5 59.05 9.5 56.25 9.5
L 15.65 9.5
Q 12.9 9.5 10.9 11.5 8.9 13.45 8.9 16.25
L 8.9 56.8
Q 8.9 59.6 10.9 61.6 12.9 63.55 15.65 63.55
L 56.25 63.55
Q 59.05 63.55 61.05 61.6 63 59.6 63 56.8
L 63 16.25 Z"/>
</g>

<g id="Layer0_0_MEMBER_0_FILL">
<path fill="#FFFFFF" stroke="none" d="
M 114.3 23.5
Q 114.75 16.4 110 11.65 104.05 5.7 96.65 5.7 89.8 5.7 82.55 10.55 76.5 15.55 76.3 15.75 75.95 16.2 76.2 16.7
L 81.1 24.7 81.7 25.05 82.35 24.85
Q 82.4 24.85 86 22.1 90.25 19.35 93.5 19.35 96.6 19.35 98.5 22 100.05 24.25 99.4 26.95 98.2 32.5 88.95 39.7 79.9 45.9 79.8 45.95 79.4 46.2 79.4 46.6
L 79.4 57.1
Q 79.4 57.9 80.2 57.9
L 114.15 57.9
Q 114.95 57.9 114.95 57.1
L 114.95 47.05
Q 114.95 46.3 114.15 46.3
L 94.7 46.3
Q 102.15 41.7 109.2 34.6 113.75 30.05 114.3 23.5 Z"/>
</g>

<g id="Layer0_0_MEMBER_1_FILL">
<path fill="#FFFFFF" stroke="none" d="
M 33.45 68.85
Q 28 68.85 22.7 71.3 18.05 73.45 16.15 76 15.9 76.4 16.15 76.9
L 21.05 83.95 21.55 84.25 22.1 84.1
Q 23.5 83 25.4 81.9 29.2 79.7 32 79.7 35.1 79.7 36.65 82.45 38 84.85 37.2 86.8 36.25 89.1 32.75 90.95 30.95 91.9 29.35 92.35 28.8 92.5 28.8 93.05
L 28.8 99.3
Q 28.8 99.9 29.35 100 29.4 100 32.6 101.2 35.95 102.8 36.8 104.95 37.6 106.95 36 109.45 34.3 112.1 30.85 112.1 27.9 112.1 24.1 110.2 20.95 108.65 18.8 106.7
L 18.2 106.55 17.7 106.85 12.85 113.9
Q 12.5 114.4 12.9 114.8 13.05 115 18.6 119.75 25.4 124.4 32.5 124.4
L 32.8 124.4
Q 41.3 124.25 46.55 119.55 49.4 117 50.65 113.6 51.95 110.15 51.4 106.65 50.85 103.35 48.9 100.6 46.9 97.85 43.7 96.15 49.95 91.45 50.65 85.25 51.25 79.35 46.25 74.1 41.25 68.85 33.45 68.85 Z"/>
</g>

<g id="Layer0_0_MEMBER_2_FILL">
<path fill="#FFFFFF" stroke="none" d="
M -79.55 14.75
Q -79.7 14.65 -79.8 14.65
L -86 14.65
Q -86.1 14.65 -86.25 14.75
L -86.35 14.85 -98.1 33 -98.1 33.05 -98.2 33.25 -98.2 38.2
Q -98.2 38.6 -97.75 38.6
L -86.4 38.6 -86.4 43.6
Q -86.4 43.95 -86 43.95
L -79.8 43.95
Q -79.4 43.95 -79.4 43.6
L -79.4 38.6 -74.55 38.6
Q -74.15 38.6 -74.15 38.2
L -74.15 33.25
Q -74.15 33.05 -74.25 32.95 -74.4 32.8 -74.55 32.8
L -79.4 32.8 -79.4 15.05 -79.45 14.9 -79.45 14.85 -79.55 14.75
M -90.85 32.8
L -86.4 25.95 -86.4 32.8 -90.85 32.8 Z"/>
</g>

<g id="Layer0_0_MEMBER_3_FILL">
<path fill="#FFFFFF" stroke="none" d="
M -127.65 -13.05
L -124.85 -13.85 -124.85 1.4 -127 1.4
Q -127.4 1.4 -127.4 1.8
L -127.4 7
Q -127.4 7.4 -127 7.4
L -115.95 7.4
Q -115.5 7.4 -115.5 7
L -115.5 1.8
Q -115.5 1.65 -115.65 1.55 -115.75 1.4 -115.95 1.4
L -118.05 1.4 -118.05 -20.9 -118.25 -21.2 -118.6 -21.3 -127.85 -19.3
Q -128.15 -19.25 -128.15 -18.9
L -128.15 -13.45 -128 -13.1 -127.65 -13.05 Z"/>
</g>
</defs>

<g id="Layer_1">
<g transform="matrix( 1, 0, 0, 1, 0,0) ">
<use xlink:href="#Layer1_0_MEMBER_0_MEMBER_0_FILL"/>
</g>

<g transform="matrix( 1, 0, 0, 1, 0,0) ">
<use xlink:href="#Layer1_0_MEMBER_0_MEMBER_1_MEMBER_0_FILL"/>
</g>

<g transform="matrix( 1, 0, 0, 1, 0,0) ">
<use xlink:href="#Layer1_0_MEMBER_0_MEMBER_2_FILL"/>
</g>
</g>

<g transform="matrix( 0.3412322998046875, 0, 0, 0.3418731689453125, 13.9,13.75) ">
<use xlink:href="#Layer0_0_MEMBER_0_FILL"/>
</g>

<g transform="matrix( 0.3412322998046875, 0, 0, 0.3418731689453125, 13.9,13.75) ">
<use xlink:href="#Layer0_0_MEMBER_1_FILL"/>
</g>

<g transform="matrix( 0.606658935546875, 0, 0, 0.6077880859375, 98.8,28.95) ">
<use xlink:href="#Layer0_0_MEMBER_2_FILL"/>
</g>

<g transform="matrix( 0.606658935546875, 0, 0, 0.6077880859375, 98.8,28.95) ">
<use xlink:href="#Layer0_0_MEMBER_3_FILL"/>
</g>
</svg>
