
<svg xmlns="http://www.w3.org/2000/svg" version="1.1" xmlns:xlink="http://www.w3.org/1999/xlink" preserveAspectRatio="none" x="0px" y="0px" width="72px" height="72px" viewBox="0 0 72 72">
<defs>
<g id="Layer0_0_MEMBER_0_FILL">
<path fill="#FCC21B" stroke="none" d="
M 125.9 66.2
Q 126.8 65.3 126.8 64.05 126.8 62.75 125.9 61.9
L 66.15 2.1
Q 65.25 1.2 64 1.2 62.7 1.2 61.85 2.1
L 2.05 61.9
Q 1.15 62.8 1.15 64 1.15 65.2 2.05 66.2
L 61.85 125.95
Q 62.75 126.85 64 126.85 65.25 126.85 66.15 125.95
L 125.9 66.2 Z"/>
</g>

<g id="Layer0_0_MEMBER_2_MEMBER_0_MEMBER_0_FILL">
<path fill="#444444" stroke="none" d="
M 52.6 58.5
L 50.75 55.2 43 59.6
Q 42.3 59.95 42.05 60.75
L 40.5 66.7
Q 40.3 67.45 40.65 68.15 41.05 68.85 41.8 69.05 42.6 69.25 43.25 68.85 43.9 68.45 44.15 67.7
L 45.55 62.5 52.6 58.5 Z"/>
</g>

<g id="Layer0_0_MEMBER_2_MEMBER_0_MEMBER_1_MEMBER_0_FILL">
<path fill="#444444" stroke="none" d="
M 52.85 68
L 48.8 71.5 56 80.15
Q 56.55 80.8 57.45 80.9 58.3 80.95 59 80.4 59.65 79.85 59.75 79 59.8 78.1 59.25 77.45
L 52.85 68 Z"/>
</g>

<g id="Layer0_0_MEMBER_2_MEMBER_0_MEMBER_1_MEMBER_1_FILL">
<path fill="#444444" stroke="none" d="
M 59.75 78.75
L 55.5 79.05 56.35 90.3
Q 56.4 91.15 57.05 91.75 57.75 92.35 58.6 92.25 59.45 92.2 60.05 91.5 60.65 90.85 60.55 90
L 59.75 78.75 Z"/>
</g>

<g id="Layer0_0_MEMBER_2_MEMBER_0_MEMBER_2_MEMBER_0_FILL">
<path fill="#444444" stroke="none" d="
M 52.15 68.6
L 47.05 67.1 44.75 78.9
Q 44.55 79.75 45.05 80.5 45.55 81.2 46.45 81.35 47.3 81.5 48.05 81 48.75 80.5 48.9 79.65
L 52.15 68.6 Z"/>
</g>

<g id="Layer0_0_MEMBER_2_MEMBER_0_MEMBER_2_MEMBER_1_FILL">
<path fill="#444444" stroke="none" d="
M 48.8 79.9
L 44.85 78.45 41 89.05
Q 40.7 89.9 41.05 90.65 41.45 91.45 42.25 91.75 43.1 92.05 43.85 91.7 44.65 91.35 45 90.5
L 48.8 79.9 Z"/>
</g>

<g id="Layer0_0_MEMBER_2_MEMBER_0_MEMBER_3_FILL">
<path fill="#444444" stroke="none" d="
M 55.85 40.8
Q 53.25 40.8 51.45 42.65 49.6 44.45 49.6 47.05 49.6 49.65 51.45 51.45 53.25 53.25 55.85 53.25 58.4 53.25 60.25 51.45 62.05 49.65 62.05 47.05 62.05 44.45 60.25 42.65 58.4 40.8 55.85 40.8 Z"/>
</g>

<g id="Layer0_0_MEMBER_2_MEMBER_0_MEMBER_4_FILL">
<path fill="#444444" stroke="none" d="
M 54.1 54.85
L 53.45 54.75
Q 51.85 54.45 50.45 55.35 49.1 56.3 48.8 57.9
L 46.5 69.95
Q 46.2 71.55 47.15 72.95 48.1 74.3 49.7 74.6
L 50.35 74.7
Q 51.95 75 53.35 74.1 54.7 73.15 55 71.55
L 57.3 59.5
Q 57.6 57.9 56.65 56.55 55.7 55.2 54.1 54.85 Z"/>
</g>

<g id="Layer0_0_MEMBER_2_MEMBER_0_MEMBER_5_FILL">
<path fill="#444444" stroke="none" d="
M 54.1 63.1
L 51.9 66.2 59 71.3
Q 59.65 71.75 60.4 71.6 61.2 71.5 61.65 70.85 62.1 70.2 61.95 69.45 61.85 68.65 61.2 68.2
L 54.1 63.1 Z"/>
</g>

<g id="Layer0_0_MEMBER_2_MEMBER_1_MEMBER_0_FILL">
<path fill="#444444" stroke="none" d="
M 61.5 62
Q 61.3 62.95 61.75 63.75 62.2 64.55 63.1 64.75 64 65 64.8 64.55 65.6 64.1 65.85 63.2
L 67.5 57 75.85 51.9 73.65 48 64.45 53.55
Q 63.65 54.05 63.4 55
L 61.5 62 Z"/>
</g>

<g id="Layer0_0_MEMBER_2_MEMBER_1_MEMBER_1_MEMBER_0_FILL">
<path fill="#444444" stroke="none" d="
M 81.7 80.55
Q 82.7 80.65 83.5 80 84.35 79.35 84.45 78.3 84.55 77.3 83.85 76.45
L 76.25 65.3 71.45 69.45 80 79.65
Q 80.65 80.45 81.7 80.55 Z"/>
</g>

<g id="Layer0_0_MEMBER_2_MEMBER_1_MEMBER_1_MEMBER_1_FILL">
<path fill="#444444" stroke="none" d="
M 81.2 91.45
Q 82 92.15 83.05 92.05 84.05 92 84.75 91.2 85.45 90.4 85.35 89.35
L 84.4 77.65 79.4 78 80.35 89.7
Q 80.45 90.75 81.2 91.45 Z"/>
</g>

<g id="Layer0_0_MEMBER_2_MEMBER_1_MEMBER_2_MEMBER_0_FILL">
<path fill="#444444" stroke="none" d="
M 75.35 64.7
L 69 63.8 66.55 76.9
Q 66.35 77.9 66.95 78.75 67.55 79.6 68.55 79.8 69.55 80 70.4 79.4 71.3 78.85 71.5 77.8
L 75.35 64.7 Z"/>
</g>

<g id="Layer0_0_MEMBER_2_MEMBER_1_MEMBER_2_MEMBER_1_FILL">
<path fill="#444444" stroke="none" d="
M 71.45 77.9
L 66.75 76.15 62.2 88.7
Q 61.85 89.7 62.3 90.6 62.75 91.55 63.7 91.9 64.7 92.25 65.6 91.8 66.55 91.35 66.9 90.4
L 71.45 77.9 Z"/>
</g>

<g id="Layer0_0_MEMBER_2_MEMBER_1_MEMBER_3_FILL">
<path fill="#444444" stroke="none" d="
M 83.35 44.25
Q 85.2 42.45 85.2 39.85 85.2 37.25 83.35 35.4 81.55 33.55 78.95 33.55 76.35 33.55 74.55 35.4 72.7 37.25 72.7 39.85 72.7 42.45 74.55 44.25 76.35 46.1 78.95 46.1 81.55 46.1 83.35 44.25 Z"/>
</g>

<g id="Layer0_0_MEMBER_2_MEMBER_1_MEMBER_4_FILL">
<path fill="#444444" stroke="none" d="
M 76.25 47.65
Q 74.55 47.35 73.15 48.3 71.75 49.25 71.45 50.95
L 68.9 64.3
Q 68.6 65.95 69.6 67.35 70.55 68.75 72.2 69.1
L 74 69.4
Q 75.65 69.75 77.05 68.75 78.45 67.8 78.75 66.15
L 81.3 52.8
Q 81.6 51.1 80.65 49.7 79.7 48.3 78.05 48
L 76.25 47.65 Z"/>
</g>

<g id="Layer0_0_MEMBER_2_MEMBER_1_MEMBER_5_FILL">
<path fill="#444444" stroke="none" d="
M 84.05 67.4
Q 84.8 67.95 85.7 67.8 86.6 67.65 87.15 66.9 87.7 66.15 87.55 65.25 87.4 64.3 86.65 63.75
L 78.25 57.75 75.65 61.4 84.05 67.4 Z"/>
</g>

<g id="Layer0_0_MEMBER_2_MEMBER_1_MEMBER_6_FILL">
<path fill="#444444" stroke="none" d="
M 47.1 42.45
Q 47.6 42.45 47.95 42 48.25 41.55 48.05 41.05
L 45.4 35.3
Q 45.25 34.95 44.85 34.95
L 39.45 34.8
Q 39 34.8 38.95 35.2
L 35.55 41.75
Q 35.35 42.25 35.65 42.65 35.95 43.1 36.5 43.1
L 47.1 42.45 Z"/>
</g>

<path id="Layer0_0_MEMBER_1_1_STROKES" stroke="#444444" stroke-width="2" stroke-linejoin="miter" stroke-linecap="butt" stroke-miterlimit="10" fill="none" d="
M 65.41875 37.6875
L 37.6875 65.44687499999999
Q 36.984375 66.14999999999999 36 66.14999999999999 35.015625 66.14999999999999 34.3125 65.44687499999999
L 6.5531250000000005 37.6875
Q 5.8500000000000005 36.984375 5.8500000000000005 36.028124999999996 5.8500000000000005 35.043749999999996 6.5531250000000005 34.340624999999996
L 34.3125 6.58125
Q 35.015625 5.878125 36 5.878125 36.956250000000004 5.878125 37.659375000000004 6.58125
L 65.41875 34.3125
Q 66.09375 35.043749999999996 66.09375 36 66.09375 36.984375 65.41875 37.6875 Z"/>
</defs>

<g id="Layer_1">
<g transform="matrix( 0.5625, 0, 0, 0.5625, 0,0) ">
<use xlink:href="#Layer0_0_MEMBER_0_FILL"/>
</g>

<g transform="matrix( 0.5625, 0, 0, 0.5625, 0,0) ">
<use xlink:href="#Layer0_0_MEMBER_1_1_STROKES" transform="matrix( 1.77777099609375, 0, 0, 1.77777099609375, 0,0) "/>
</g>

<g transform="matrix( 0.5625, 0, 0, 0.5625, 0,0) ">
<use xlink:href="#Layer0_0_MEMBER_2_MEMBER_0_MEMBER_0_FILL"/>
</g>

<g transform="matrix( 0.5625, 0, 0, 0.5625, 0,0) ">
<use xlink:href="#Layer0_0_MEMBER_2_MEMBER_0_MEMBER_1_MEMBER_0_FILL"/>
</g>

<g transform="matrix( 0.5625, 0, 0, 0.5625, 0,0) ">
<use xlink:href="#Layer0_0_MEMBER_2_MEMBER_0_MEMBER_1_MEMBER_1_FILL"/>
</g>

<g transform="matrix( 0.5625, 0, 0, 0.5625, 0,0) ">
<use xlink:href="#Layer0_0_MEMBER_2_MEMBER_0_MEMBER_2_MEMBER_0_FILL"/>
</g>

<g transform="matrix( 0.5625, 0, 0, 0.5625, 0,0) ">
<use xlink:href="#Layer0_0_MEMBER_2_MEMBER_0_MEMBER_2_MEMBER_1_FILL"/>
</g>

<g transform="matrix( 0.5625, 0, 0, 0.5625, 0,0) ">
<use xlink:href="#Layer0_0_MEMBER_2_MEMBER_0_MEMBER_3_FILL"/>
</g>

<g transform="matrix( 0.5625, 0, 0, 0.5625, 0,0) ">
<use xlink:href="#Layer0_0_MEMBER_2_MEMBER_0_MEMBER_4_FILL"/>
</g>

<g transform="matrix( 0.5625, 0, 0, 0.5625, 0,0) ">
<use xlink:href="#Layer0_0_MEMBER_2_MEMBER_0_MEMBER_5_FILL"/>
</g>

<g transform="matrix( 0.5625, 0, 0, 0.5625, 0,0) ">
<use xlink:href="#Layer0_0_MEMBER_2_MEMBER_1_MEMBER_0_FILL"/>
</g>

<g transform="matrix( 0.5625, 0, 0, 0.5625, 0,0) ">
<use xlink:href="#Layer0_0_MEMBER_2_MEMBER_1_MEMBER_1_MEMBER_0_FILL"/>
</g>

<g transform="matrix( 0.5625, 0, 0, 0.5625, 0,0) ">
<use xlink:href="#Layer0_0_MEMBER_2_MEMBER_1_MEMBER_1_MEMBER_1_FILL"/>
</g>

<g transform="matrix( 0.5625, 0, 0, 0.5625, 0,0) ">
<use xlink:href="#Layer0_0_MEMBER_2_MEMBER_1_MEMBER_2_MEMBER_0_FILL"/>
</g>

<g transform="matrix( 0.5625, 0, 0, 0.5625, 0,0) ">
<use xlink:href="#Layer0_0_MEMBER_2_MEMBER_1_MEMBER_2_MEMBER_1_FILL"/>
</g>

<g transform="matrix( 0.5625, 0, 0, 0.5625, 0,0) ">
<use xlink:href="#Layer0_0_MEMBER_2_MEMBER_1_MEMBER_3_FILL"/>
</g>

<g transform="matrix( 0.5625, 0, 0, 0.5625, 0,0) ">
<use xlink:href="#Layer0_0_MEMBER_2_MEMBER_1_MEMBER_4_FILL"/>
</g>

<g transform="matrix( 0.5625, 0, 0, 0.5625, 0,0) ">
<use xlink:href="#Layer0_0_MEMBER_2_MEMBER_1_MEMBER_5_FILL"/>
</g>

<g transform="matrix( 1, 0, 0, 1, 0,0) ">
<use xlink:href="#Layer0_0_MEMBER_2_MEMBER_1_MEMBER_6_FILL"/>
</g>
</g>
</svg>
