
<svg xmlns="http://www.w3.org/2000/svg" version="1.1" xmlns:xlink="http://www.w3.org/1999/xlink" preserveAspectRatio="none" x="0px" y="0px" width="72px" height="72px" viewBox="0 0 72 72">
<defs>
<g id="Layer0_0_FILL">
<path fill="#F79329" stroke="none" d="
M 128 64
Q 128 37.55 109.25 18.75 90.5 0 64 0 37.5 0 18.75 18.75 0 37.5 0 64 0 90.5 18.75 109.25 37.5 128 64 128 90.5 128 109.25 109.25 128 90.5 128 64 Z"/>
</g>

<g id="Layer0_1_MEMBER_0_FILL">
<path fill="#FFFFFF" stroke="none" d="
M 37.15 18.35
Q 36.4 18.15 35.7 18.6 24.25 25.75 17.6 37.5 11.15 48.9 10.65 62 10.65 62.8 11.2 63.35 11.75 63.9 12.55 63.9
L 60.85 63.9
Q 61.95 63.9 62.5 62.95 63.05 62 62.5 61.05
L 38.35 19.25
Q 37.95 18.55 37.15 18.35 Z"/>
</g>

<g id="Layer0_1_MEMBER_1_FILL">
<path fill="#FFFFFF" stroke="none" d="
M 64.15 65.8
Q 63.05 65.8 62.5 66.75
L 38.35 108.6
Q 37.95 109.3 38.2 110.1 38.45 110.85 39.15 111.25 50.7 117.35 63.8 117.45 77.2 117.55 89.15 111.25 89.9 110.9 90.15 110.1 90.35 109.3 89.95 108.6
L 65.8 66.75
Q 65.25 65.8 64.15 65.8 Z"/>
</g>

<g id="Layer0_1_MEMBER_2_FILL">
<path fill="#FFFFFF" stroke="none" d="
M 91.15 18.35
Q 90.35 18.55 89.95 19.25
L 65.8 61.05
Q 65.25 62 65.8 62.95 66.35 63.9 67.45 63.9
L 115.75 63.9
Q 116.55 63.9 117.1 63.35 117.7 62.8 117.65 62 117.2 48.7 110.5 37.15 103.85 25.6 92.65 18.6 91.95 18.15 91.15 18.35 Z"/>
</g>

<g id="Layer0_1_MEMBER_3_FILL">
<path fill="#FFFFFF" stroke="none" d="
M 42 42
Q 44.45 39.5 44.45 36 44.45 32.5 42 30 39.5 27.55 36 27.55 32.5 27.55 30 30 27.5 32.5 27.5 36 27.5 39.5 30 42 32.5 44.5 36 44.5 39.5 44.5 42 42 Z"/>
</g>

<path id="Layer0_1_MEMBER_3_1_STROKES" stroke="#F79329" stroke-width="8" stroke-linejoin="miter" stroke-linecap="butt" stroke-miterlimit="10" fill="none" d="
M 36.05675048828125 28.54044418334961
Q 39.0567123413086 28.54044418334961 41.19954223632813 30.638323974609374 43.29951553344727 32.77901763916016 43.29951553344727 35.77598876953125 43.29951553344727 38.77295989990235 41.19954223632813 40.91365356445313 39.0567123413086 43.05434722900391 36.05675048828125 43.05434722900391 33.05678863525391 43.05434722900391 30.913958740234374 40.91365356445313 28.771128845214843 38.77295989990235 28.771128845214843 35.77598876953125 28.771128845214843 32.77901763916016 30.913958740234374 30.638323974609374 33.05678863525391 28.54044418334961 36.05675048828125 28.54044418334961 Z"/>
</defs>

<g id="Layer_1">
<g transform="matrix( 0.5625, 0, 0, 0.5625, 0,0) ">
<use xlink:href="#Layer0_0_FILL"/>
</g>

<g transform="matrix( 0.48211669921875, 0, 0, 0.4816436767578125, 5.2,4.95) ">
<use xlink:href="#Layer0_1_MEMBER_0_FILL"/>
</g>

<g transform="matrix( 0.48211669921875, 0, 0, 0.4816436767578125, 5.2,4.95) ">
<use xlink:href="#Layer0_1_MEMBER_1_FILL"/>
</g>

<g transform="matrix( 0.48211669921875, 0, 0, 0.4816436767578125, 5.2,4.95) ">
<use xlink:href="#Layer0_1_MEMBER_2_FILL"/>
</g>

<g transform="matrix( 0.8571319580078125, 0, 0, 0.8562774658203125, 5.2,4.95) ">
<use xlink:href="#Layer0_1_MEMBER_3_FILL"/>

<use xlink:href="#Layer0_1_MEMBER_3_1_STROKES" transform="matrix( 1.1666717529296875, 0, 0, 1.1678314208984375, -6.05,-5.75) "/>
</g>
</g>
</svg>
