
<svg xmlns="http://www.w3.org/2000/svg" version="1.1" xmlns:xlink="http://www.w3.org/1999/xlink" preserveAspectRatio="none" x="0px" y="0px" width="72px" height="72px" viewBox="0 0 72 72">
<defs>
<g id="Layer0_0_FILL">
<path fill="#F79329" stroke="none" d="
M 128 64
Q 128 37.55 109.25 18.75 90.5 0 64 0 37.5 0 18.75 18.75 0 37.5 0 64 0 90.5 18.75 109.25 37.5 128 64 128 90.5 128 109.25 109.25 128 90.5 128 64 Z"/>
</g>

<g id="Layer0_2_MEMBER_0_FILL">
<path fill="#FFFFFF" stroke="none" d="
M 93.4 48.3
Q 95.4 42.9 95.4 37.3 95.4 28.65 90.95 21.2 86.5 13.7 78.8 9.6 78 9.2 77.15 9.2 75.25 9.2 74.25 10.85 73.55 12 73.8 13.3 74.05 14.65 75.15 15.45 78.2 17.7 80.15 20.95 82.15 24.25 82.65 27.95 83.85 36.4 77.85 44.55 71 49.55 63.95 49.55 59.7 49.55 55.6 47.55 50.75 45.15 47.95 40.6 45.1 36.1 45.1 30.65 45.1 26.2 47.15 22.15 49.2 18.1 52.85 15.45 53.95 14.65 54.2 13.3 54.45 11.95 53.7 10.8 52.65 9.2 50.8 9.2 49.95 9.2 49.15 9.6 41.45 13.75 37 21.15 32.55 28.6 32.55 37.3 32.55 42.85 34.5 48.3 28.95 49.2 24.05 52.05 16.5 56.4 12.3 64 8.1 71.6 8.35 80.3 8.4 81.65 9.35 82.6 10.3 83.6 11.65 83.65
L 11.85 83.65
Q 13.15 83.65 14.15 82.8 15.1 81.9 15.25 80.6 15.65 76.8 17.5 73.5 19.35 70.15 22.3 67.85 27.8 63.5 35.75 63.5 37.4 63.5 39.05 63.65 45.25 66.35 48.85 71 52.45 75.65 52.8 81.4 53.15 86.8 50.6 91.55 48.1 96.25 43.4 98.95 39.1 101.45 34 101.45 30.05 101.45 26.4 99.85 25.65 99.6 25 99.6 22.9 99.6 21.95 101.45 21.3 102.65 21.65 103.95 22 105.3 23.15 106 30.75 110.7 39.75 110.7 48.15 110.7 55.5 106.5 60.4 103.6 64 99.3 67.55 103.6 72.5 106.5 79.75 110.7 88.2 110.7 97.15 110.7 104.75 105.95 105.9 105.25 106.3 103.9 106.65 102.6 106 101.4 105 99.55 102.95 99.55 102.25 99.55 101.55 99.85 97.95 101.45 93.95 101.45 90.3 101.45 87 100.1 79.05 96.95 75 87.7 74.25 81 76.45 75.55 78.65 70.1 83.5 66.9 88.25 63.7 93.95 63.7 98.9 63.7 103.4 66.25 107.25 68.5 109.75 72.3 112.2 76.1 112.7 80.55 112.85 81.85 113.8 82.75 114.8 83.65 116.1 83.65
L 116.25 83.65
Q 117.65 83.6 118.6 82.6 119.55 81.65 119.6 80.3 119.85 71.6 115.65 64 111.45 56.4 103.9 52.05 98.85 49.2 93.4 48.3 Z"/>
</g>

<g id="Layer0_2_MEMBER_1_FILL">
<path fill="#F79329" stroke="none" d="
M 41.75 4.2
Q 41.05 4.6 40.55 5.35 39.85 6.45 40.1 7.75 40.35 9.05 41.45 9.85 42.9 10.9 43.9 12.5 44.85 14.1 45.1 15.9 45.7 19.95 42.8 24.05 39.4 26.45 35.95 26.45 33.8 26.45 31.9 25.5 29.55 24.35 28.15 22.1 26.8 19.9 26.8 17.25 26.8 15.1 27.8 13.1 28.75 11.15 30.55 9.85 31.6 9.05 31.85 7.75 32.1 6.45 31.4 5.35 30.95 4.6 30.2 4.2 29.45 3.75 28.55 3.75 27.7 3.75 26.95 4.15 22.3 6.65 19.6 11.2 16.9 15.7 16.9 21 16.9 23.65 17.6 26.15 15 26.8 12.85 28.05 8.25 30.7 5.7 35.35 3.1 39.9 3.3 45.2 3.35 46.5 4.25 47.45 5.15 48.4 6.45 48.45
L 6.65 48.45
Q 7.95 48.45 8.9 47.6 9.85 46.75 10 45.5 10.2 43.65 11.1 42 12 40.4 13.4 39.25 16.15 37.1 20.1 37.1 20.85 37.1 21.6 37.2 24.65 38.55 26.4 40.8 28.15 43.05 28.3 45.85 28.45 48.5 27.25 50.8 26 53.15 23.7 54.4 21.65 55.65 19.15 55.65 17.15 55.65 15.4 54.9 14.8 54.6 14.05 54.6 13.15 54.6 12.3 55.1 11.55 55.6 11.1 56.4 10.45 57.55 10.85 58.85 11.15 60.1 12.3 60.8 16.95 63.7 22.35 63.7 27.4 63.7 31.9 61.15 34.15 59.8 35.95 57.95 37.75 59.8 40.05 61.15 44.5 63.7 49.6 63.7 55.05 63.7 59.65 60.8 60.8 60.15 61.1 58.85 61.5 57.55 60.85 56.4 60.4 55.6 59.65 55.1 58.85 54.6 57.9 54.6 57.1 54.6 56.55 54.9 54.8 55.65 52.8 55.65 51.1 55.65 49.45 55 45.6 53.45 43.55 48.95 43.25 45.6 44.3 43 45.35 40.4 47.75 38.8 50.1 37.25 52.85 37.25 55.3 37.25 57.45 38.5 59.35 39.6 60.55 41.45 61.75 43.3 62 45.5 62.15 46.75 63.1 47.6 64.05 48.45 65.3 48.45
L 65.5 48.45
Q 66.8 48.4 67.75 47.45 68.65 46.5 68.7 45.2 68.85 39.9 66.3 35.35 63.75 30.7 59.15 28.05 56.95 26.8 54.35 26.15 55.05 23.5 55.05 21 55.05 15.7 52.35 11.2 49.65 6.65 45 4.15 44.2 3.75 43.4 3.75 42.55 3.75 41.75 4.2
M 42.95 6.85
Q 43.1 6.6 43.4 6.6 43.6 6.6 43.7 6.65 47.65 8.8 49.95 12.65 52.25 16.5 52.25 21 52.25 24.95 50.5 28.35 54.35 28.6 57.75 30.5 61.65 32.75 63.85 36.7 66 40.6 65.85 45.1 65.85 45.65 65.35 45.65 64.85 45.65 64.8 45.15 64.5 42.35 62.9 39.9 61.35 37.5 58.85 36.05 56.05 34.45 52.85 34.45 49.2 34.45 46.2 36.5 43.1 38.55 41.7 42 40.3 45.45 40.8 49.7 43.3 55.6 48.4 57.65 50.5 58.45 52.85 58.45 55.4 58.45 57.7 57.45
L 57.9 57.4
Q 58.25 57.4 58.4 57.7 58.65 58.15 58.2 58.4 54.3 60.85 49.6 60.85 45.2 60.85 41.5 58.7 38.1 56.7 36 53.5 33.9 56.7 30.5 58.7 26.8 60.85 22.35 60.85 17.75 60.85 13.8 58.4 13.6 58.3 13.55 58.1 13.45 57.9 13.6 57.7 13.75 57.45 14.05 57.45
L 14.3 57.45
Q 16.6 58.45 19.15 58.45 22.35 58.45 25.15 56.85 28.15 55.15 29.75 52.15 31.35 49.15 31.1 45.7 30.9 42 28.6 39.05 26.3 36.1 22.35 34.45 21.1 34.3 20.1 34.3 15.2 34.3 11.7 37.05 9.8 38.55 8.65 40.65 7.45 42.8 7.2 45.15 7.15 45.65 6.65 45.65 6.45 45.65 6.25 45.5 6.15 45.35 6.1 45.1 5.95 40.6 8.15 36.7 10.3 32.75 14.25 30.5 17.6 28.6 21.5 28.35 19.7 24.85 19.7 21 19.7 16.5 22 12.65 24.35 8.8 28.3 6.65 28.4 6.6 28.55 6.6 28.85 6.6 29.05 6.85 29.3 7.3 28.9 7.55 26.6 9.25 25.3 11.8 23.95 14.4 23.95 17.25 23.95 20.7 25.75 23.6 27.55 26.5 30.65 28 33.2 29.3 35.95 29.3 40.55 29.3 44.8 26.05 48.65 20.95 47.85 15.55 47.55 13.15 46.3 11.1 45.05 9 43.1 7.55 42.7 7.25 42.95 6.85 Z"/>
</g>

<g id="Layer0_3_FILL">
<path fill="#F79329" stroke="none" d="
M 65.9 47.95
L 62.05 47.95 62.05 57.05
Q 59.8 57.65 58.35 59.55 56.9 61.45 56.9 63.85 56.9 64.85 57.1 65.6
L 49.25 70.15 51.2 73.5 59.05 68.95
Q 61.2 71 64 71 66.9 71 68.95 68.95
L 76.8 73.5 78.7 70.15 70.85 65.6
Q 71.1 64.7 71.1 63.85 71.1 61.45 69.65 59.55 68.15 57.65 65.9 57.05
L 65.9 47.95 Z"/>
</g>

<path id="Layer0_1_1_STROKES" stroke="#FFFFFF" stroke-width="3" stroke-linejoin="miter" stroke-linecap="butt" stroke-miterlimit="10" fill="none" d="
M 36 21.7
Q 41.9 21.7 46.05 25.85 50.25 30.05 50.25 35.9 50.25 41.8 46.05 46 41.9 50.2 36 50.2 30.1 50.2 25.95 46 21.75 41.8 21.75 35.9 21.75 30.05 25.95 25.85 30.1 21.7 36 21.7 Z"/>
</defs>

<g id="Layer_1">
<g transform="matrix( 0.5625, 0, 0, 0.5625, 0,0) ">
<use xlink:href="#Layer0_0_FILL"/>
</g>

<g transform="matrix( 1, 0, 0, 1, 0,0) ">
<use xlink:href="#Layer0_1_1_STROKES"/>
</g>

<g transform="matrix( 0.5625, 0, 0, 0.5625, 0,0) ">
<use xlink:href="#Layer0_2_MEMBER_0_FILL"/>
</g>

<g transform="matrix( 1, 0, 0, 1, 0,0) ">
<use xlink:href="#Layer0_2_MEMBER_1_FILL"/>
</g>

<g transform="matrix( 0.5625, 0, 0, 0.5625, 0,0) ">
<use xlink:href="#Layer0_3_FILL"/>
</g>
</g>
</svg>
