
<svg xmlns="http://www.w3.org/2000/svg" version="1.1" xmlns:xlink="http://www.w3.org/1999/xlink" preserveAspectRatio="none" x="0px" y="0px" width="72px" height="72px" viewBox="0 0 72 72">
<defs>
<g id="Layer1_0_MEMBER_0_MEMBER_0_FILL">
<path fill="#B39DDB" stroke="none" d="
M 72 6.75
Q 72 4 70 2 68 0 65.25 0
L 6.75 0
Q 3.95 0 2 2 0 4 0 6.75
L 0 65.25
Q 0 68.05 2 70.05 3.95 72 6.75 72
L 65.25 72
Q 68 72 70 70.05 72 68.05 72 65.25
L 72 6.75 Z"/>
</g>

<g id="Layer1_0_MEMBER_0_MEMBER_1_MEMBER_0_FILL">
<path fill="#7E57C2" stroke="none" d="
M 72 6.75
Q 72 3.95 70 2
L 1.95 70.05
Q 3.9 72 6.75 72
L 65.25 72
Q 68 72 70 70.05 72 68.05 72 65.25
L 72 6.75 Z"/>
</g>

<g id="Layer1_0_MEMBER_0_MEMBER_2_FILL">
<path fill="#9575CD" stroke="none" d="
M 63 16.25
Q 63 13.45 61.05 11.5 59.05 9.5 56.25 9.5
L 15.65 9.5
Q 12.9 9.5 10.9 11.5 8.9 13.45 8.9 16.25
L 8.9 56.8
Q 8.9 59.6 10.9 61.6 12.9 63.55 15.65 63.55
L 56.25 63.55
Q 59.05 63.55 61.05 61.6 63 59.6 63 56.8
L 63 16.25 Z"/>
</g>

<path id="Layer0_0_MEMBER_0_1_STROKES" stroke="#FFFFFF" stroke-width="5" stroke-linejoin="miter" stroke-linecap="butt" stroke-miterlimit="10" fill="none" d="
M 36.05865478515625 15.725076293945312
Q 44.432653808593756 15.725076293945312 50.39457702636719 21.68699951171875 56.31098937988281 27.603411865234374 56.31098937988281 36.02292175292969 56.31098937988281 44.39692077636719 50.39457702636719 50.35884399414063 44.432653808593756 56.27525634765625 36.05865478515625 56.27525634765625 27.639144897460938 56.27525634765625 21.722732543945312 50.35884399414063 15.76080932617188 44.39692077636719 15.76080932617188 36.02292175292969 15.76080932617188 27.603411865234374 21.722732543945312 21.68699951171875 27.639144897460938 15.725076293945312 36.05865478515625 15.725076293945312 Z"/>

<path id="Layer0_0_MEMBER_1_1_STROKES" stroke="#FFFFFF" stroke-width="5" stroke-linejoin="round" stroke-linecap="round" fill="none" d="
M 36.06333312988281 15.765487670898438
L 36.06333312988281 56.31566772460937"/>

<path id="Layer0_0_MEMBER_2_1_STROKES" stroke="#FFFFFF" stroke-width="5" stroke-linejoin="round" stroke-linecap="round" fill="none" d="
M 36.0220703125 36.0220703125
L 50.35417785644531 50.37165603637695"/>

<path id="Layer0_0_MEMBER_3_1_STROKES" stroke="#FFFFFF" stroke-width="5" stroke-linejoin="round" stroke-linecap="round" fill="none" d="
M 21.672484588623046 50.37165603637695
L 36.0220703125 36.0220703125"/>
</defs>

<g id="Layer_1">
<g transform="matrix( 1, 0, 0, 1, 0,0) ">
<use xlink:href="#Layer1_0_MEMBER_0_MEMBER_0_FILL"/>
</g>

<g transform="matrix( 1, 0, 0, 1, 0,0) ">
<use xlink:href="#Layer1_0_MEMBER_0_MEMBER_1_MEMBER_0_FILL"/>
</g>

<g transform="matrix( 1, 0, 0, 1, 0,0) ">
<use xlink:href="#Layer1_0_MEMBER_0_MEMBER_2_FILL"/>
</g>
</g>

<g transform="matrix( 0.91021728515625, 0, 0, 0.91021728515625, 58.45,17.5) ">
<use xlink:href="#Layer0_0_MEMBER_0_1_STROKES" transform="matrix( 1.0986328125, 0, 0, 1.0986328125, -64.2,-19.2) "/>
</g>

<g transform="matrix( 0.91021728515625, 0, 0, 0.91021728515625, 3.25,3.25) ">
<use xlink:href="#Layer0_0_MEMBER_1_1_STROKES" transform="matrix( 1.0986328125, 0, 0, 1.0986328125, -3.55,-3.55) "/>
</g>

<g transform="matrix( 0.3495635986328125, 0, 0, 0.3495635986328125, 13.65,13.65) ">
<use xlink:href="#Layer0_0_MEMBER_2_1_STROKES" transform="matrix( 2.8607025146484375, 0, 0, 2.8607025146484375, -39,-39) "/>
</g>

<g transform="matrix( 0.3495635986328125, 0, 0, 0.3495635986328125, 13.65,13.65) ">
<use xlink:href="#Layer0_0_MEMBER_3_1_STROKES" transform="matrix( 2.8607025146484375, 0, 0, 2.8607025146484375, -39,-39) "/>
</g>
</svg>
