
<svg xmlns="http://www.w3.org/2000/svg" version="1.1" xmlns:xlink="http://www.w3.org/1999/xlink" preserveAspectRatio="none" x="0px" y="0px" width="72px" height="72px" viewBox="0 0 72 72">
<defs>
<g id="Layer0_0_MEMBER_0_MEMBER_0_FILL">
<path fill="#79D2ED" stroke="none" d="
M 72 6.75
Q 72 4 70 2 68 0 65.25 0
L 6.75 0
Q 3.95 0 2 2 0 4 0 6.75
L 0 65.25
Q 0 68.05 2 70.05 3.95 72 6.75 72
L 65.25 72
Q 68 72 70 70.05 72 68.05 72 65.25
L 72 6.75 Z"/>
</g>

<g id="Layer0_0_MEMBER_0_MEMBER_1_MEMBER_0_FILL">
<path fill="#00B3E5" stroke="none" d="
M 72 6.75
Q 72 3.95 70 2
L 1.95 70.05
Q 3.9 72 6.75 72
L 65.25 72
Q 68 72 70 70.05 72 68.05 72 65.25
L 72 6.75 Z"/>
</g>

<g id="Layer0_0_MEMBER_0_MEMBER_2_FILL">
<path fill="#40C0E7" stroke="none" d="
M 63 16.25
Q 63 13.45 61.05 11.5 59.05 9.5 56.25 9.5
L 15.65 9.5
Q 12.9 9.5 10.9 11.5 8.9 13.45 8.9 16.25
L 8.9 56.8
Q 8.9 59.6 10.9 61.6 12.9 63.55 15.65 63.55
L 56.25 63.55
Q 59.05 63.55 61.05 61.6 63 59.6 63 56.8
L 63 16.25 Z"/>
</g>

<g id="Layer0_1_MEMBER_0_MEMBER_0_MEMBER_0_FILL">
<path fill="#FFFFFF" stroke="none" d="
M 119.15 9.05
L 102.75 9.05 102.75 50.3 119.15 50.3 119.15 9.05 Z"/>
</g>

<g id="Layer0_1_MEMBER_0_MEMBER_0_MEMBER_1_FILL">
<path fill="#FFFFFF" stroke="none" d="
M 119.25 25.45
L 119.25 9.05 78 9.05 78 25.45 119.25 25.45 Z"/>
</g>

<g id="Layer0_1_MEMBER_0_MEMBER_0_MEMBER_2_FILL">
<path fill="#FFFFFF" stroke="none" d="
M 110.35 29.45
L 98.75 17.85 67.25 49.35 78.85 60.95 110.35 29.45 Z"/>
</g>

<g id="Layer0_1_MEMBER_0_MEMBER_1_FILL">
<path fill="#FFFFFF" stroke="none" d="
M 19.65 50.75
Q 7.7 62.7 7.7 79.65 7.7 96.55 19.65 108.5 31.6 120.5 48.55 120.5 65.5 120.5 77.45 108.5 89.4 96.55 89.4 79.65 89.4 62.7 77.45 50.75 65.5 38.75 48.55 38.75 31.6 38.75 19.65 50.75
M 24.55 79.65
Q 24.55 69.65 31.6 62.65 38.6 55.6 48.55 55.6 58.5 55.6 65.55 62.65 72.55 69.65 72.55 79.65 72.55 89.6 65.55 96.6 58.55 103.65 48.6 103.65 38.6 103.65 31.6 96.6 24.55 89.6 24.55 79.65 Z"/>
</g>
</defs>

<g id="Layer_1">
<g transform="matrix( 1, 0, 0, 1, 0,0) ">
<use xlink:href="#Layer0_0_MEMBER_0_MEMBER_0_FILL"/>
</g>

<g transform="matrix( 1, 0, 0, 1, 0,0) ">
<use xlink:href="#Layer0_0_MEMBER_0_MEMBER_1_MEMBER_0_FILL"/>
</g>

<g transform="matrix( 1, 0, 0, 1, 0,0) ">
<use xlink:href="#Layer0_0_MEMBER_0_MEMBER_2_FILL"/>
</g>

<g transform="matrix( 0.3994293212890625, 0, 0, 0.3994293212890625, 10.65,10.15) ">
<use xlink:href="#Layer0_1_MEMBER_0_MEMBER_0_MEMBER_0_FILL"/>
</g>

<g transform="matrix( 0.3994293212890625, 0, 0, 0.3994293212890625, 10.65,10.15) ">
<use xlink:href="#Layer0_1_MEMBER_0_MEMBER_0_MEMBER_1_FILL"/>
</g>

<g transform="matrix( 0.3994293212890625, 0, 0, 0.3994293212890625, 10.65,10.15) ">
<use xlink:href="#Layer0_1_MEMBER_0_MEMBER_0_MEMBER_2_FILL"/>
</g>

<g transform="matrix( 0.399444580078125, 0, 0, 0.399444580078125, 10.65,10.15) ">
<use xlink:href="#Layer0_1_MEMBER_0_MEMBER_1_FILL"/>
</g>
</g>
</svg>
