
<svg xmlns="http://www.w3.org/2000/svg" version="1.1" xmlns:xlink="http://www.w3.org/1999/xlink" preserveAspectRatio="none" x="0px" y="0px" width="72px" height="72px" viewBox="0 0 72 72">
<defs>
<g id="Layer2_0_MEMBER_0_MEMBER_0_FILL">
<path fill="#B39DDB" stroke="none" d="
M 72 6.75
Q 72 4 70 2 68 0 65.25 0
L 6.75 0
Q 3.95 0 2 2 0 4 0 6.75
L 0 65.25
Q 0 68.05 2 70.05 3.95 72 6.75 72
L 65.25 72
Q 68 72 70 70.05 72 68.05 72 65.25
L 72 6.75 Z"/>
</g>

<g id="Layer2_0_MEMBER_0_MEMBER_1_MEMBER_0_FILL">
<path fill="#7E57C2" stroke="none" d="
M 72 6.75
Q 72 3.95 70 2
L 1.95 70.05
Q 3.9 72 6.75 72
L 65.25 72
Q 68 72 70 70.05 72 68.05 72 65.25
L 72 6.75 Z"/>
</g>

<g id="Layer2_0_MEMBER_0_MEMBER_2_FILL">
<path fill="#9575CD" stroke="none" d="
M 63 16.25
Q 63 13.45 61.05 11.5 59.05 9.5 56.25 9.5
L 15.65 9.5
Q 12.9 9.5 10.9 11.5 8.9 13.45 8.9 16.25
L 8.9 56.8
Q 8.9 59.6 10.9 61.6 12.9 63.55 15.65 63.55
L 56.25 63.55
Q 59.05 63.55 61.05 61.6 63 59.6 63 56.8
L 63 16.25 Z"/>
</g>

<g id="Layer0_0_MEMBER_0_FILL">
<path fill="#FFFFFF" stroke="none" d="
M 60.3 31.55
Q 53.6 15.8 43 10.55 37.25 7.75 31 7.75 20 7.75 12.15 15.6 4.3 23.45 4.3 34.45 4.3 45.5 12.15 53.3 20 61.15 31 61.15 34.55 61.15 38 60.25
L 33.5 43.85
Q 32.15 44.15 30.9 44.15 26.85 44.15 24.05 41.3 21.2 38.45 21.2 34.45 21.2 30.4 24.05 27.55 26.9 24.75 30.9 24.75 33.45 24.75 35.3 25.75 39.6 27.95 43.55 36.15 50.1 49.8 53.2 76 54.9 90.7 55.35 107.75 55.6 116.3 55.5 122
L 72.5 122.45
Q 72.6 116.1 72.35 107.25 71.9 89.75 70.2 74.25 67.05 47.35 60.3 31.55 Z"/>
</g>

<g id="Layer0_0_MEMBER_1_FILL">
<path fill="#FFFFFF" stroke="none" d="
M 97.05 7.7
Q 90.9 7.7 85.15 10.5 74.55 15.75 67.8 31.5 61.05 47.3 57.9 74.2 56.1 89.65 55.6 107.2 55.4 116.05 55.5 122.45
L 72.65 122
Q 72.55 116.25 72.75 107.75 73.2 90.8 74.95 76.1 78.05 49.7 84.65 36.05 88.6 27.75 92.95 25.6 94.8 24.6 97.25 24.6 101.3 24.6 104.15 27.45 106.95 30.3 106.95 34.3 106.95 38.35 104.1 41.2 101.25 44 97.25 44 95.95 44 94.65 43.7
L 90.15 60.1
Q 93.2 61 97.15 61 108.2 61 116 53.2 123.8 45.45 123.8 34.4 123.8 23.4 115.95 15.55 108.1 7.7 97.05 7.7 Z"/>
</g>
</defs>

<g id="Layer_1">
<g transform="matrix( 1, 0, 0, 1, 0,0) ">
<use xlink:href="#Layer2_0_MEMBER_0_MEMBER_0_FILL"/>
</g>

<g transform="matrix( 1, 0, 0, 1, 0,0) ">
<use xlink:href="#Layer2_0_MEMBER_0_MEMBER_1_MEMBER_0_FILL"/>
</g>

<g transform="matrix( 1, 0, 0, 1, 0,0) ">
<use xlink:href="#Layer2_0_MEMBER_0_MEMBER_2_FILL"/>
</g>
</g>

<g transform="matrix( 0.339752197265625, 0, 0, 0.3398590087890625, 14.25,13.9) ">
<use xlink:href="#Layer0_0_MEMBER_0_FILL"/>
</g>

<g transform="matrix( 0.339752197265625, 0, 0, 0.3398590087890625, 14.25,13.9) ">
<use xlink:href="#Layer0_0_MEMBER_1_FILL"/>
</g>
</svg>
