
<svg xmlns="http://www.w3.org/2000/svg" version="1.1" xmlns:xlink="http://www.w3.org/1999/xlink" preserveAspectRatio="none" x="0px" y="0px" width="72px" height="72px" viewBox="0 0 72 72">
<defs>
<g id="Layer2_0_MEMBER_0_MEMBER_0_FILL">
<path fill="#B39DDB" stroke="none" d="
M 72 6.75
Q 72 4 70 2 68 0 65.25 0
L 6.75 0
Q 3.95 0 2 2 0 4 0 6.75
L 0 65.25
Q 0 68.05 2 70.05 3.95 72 6.75 72
L 65.25 72
Q 68 72 70 70.05 72 68.05 72 65.25
L 72 6.75 Z"/>
</g>

<g id="Layer2_0_MEMBER_0_MEMBER_1_MEMBER_0_FILL">
<path fill="#7E57C2" stroke="none" d="
M 72 6.75
Q 72 3.95 70 2
L 1.95 70.05
Q 3.9 72 6.75 72
L 65.25 72
Q 68 72 70 70.05 72 68.05 72 65.25
L 72 6.75 Z"/>
</g>

<g id="Layer2_0_MEMBER_0_MEMBER_2_FILL">
<path fill="#9575CD" stroke="none" d="
M 63 16.25
Q 63 13.45 61.05 11.5 59.05 9.5 56.25 9.5
L 15.65 9.5
Q 12.9 9.5 10.9 11.5 8.9 13.45 8.9 16.25
L 8.9 56.8
Q 8.9 59.6 10.9 61.6 12.9 63.55 15.65 63.55
L 56.25 63.55
Q 59.05 63.55 61.05 61.6 63 59.6 63 56.8
L 63 16.25 Z"/>
</g>

<g id="Layer0_0_FILL">
<path fill="#FFFFFF" stroke="none" d="
M 94.85 24.25
Q 91.55 24.25 88.15 25.2 87.25 15.95 80.35 9.65 73.35 3.3 64 3.3 55.3 3.3 48.55 8.85 41.8 3.3 33.15 3.3 23.1 3.3 16 10.45 8.85 17.55 8.85 27.6
L 8.85 79.05 26.6 79.05 26.6 27.6
Q 26.6 24.9 28.5 23 30.4 21.05 33.15 21.05 35.85 21.05 37.8 23 39.7 24.9 39.7 27.6
L 39.7 79.05 57.45 79.05 57.45 27.6
Q 57.45 24.9 59.35 23 61.25 21.05 64 21.05 66.7 21.05 68.65 23 70.55 24.9 70.55 27.6
L 70.55 85.1
Q 70.55 92.75 71.1 96.95 60.5 103 45.75 107.9
L 51.35 124.75
Q 66.6 119.7 77.95 113.4
L 79.15 114.75
Q 88.5 124.1 107.75 124.1
L 107.75 106.35
Q 97.7 106.35 93.1 103.3 119.15 82.25 119.15 48.55 119.15 38.55 112.05 31.4 104.9 24.25 94.85 24.25
M 90.2 43.95
Q 92.1 42 94.8 42 97.55 42 99.45 43.95 101.4 45.85 101.4 48.6 101.4 58.25 98.95 65.85 95.8 75.7 88.25 83.75
L 88.25 48.55
Q 88.3 45.85 90.2 43.95 Z"/>
</g>
</defs>

<g id="Layer_1">
<g transform="matrix( 1, 0, 0, 1, 0,0) ">
<use xlink:href="#Layer2_0_MEMBER_0_MEMBER_0_FILL"/>
</g>

<g transform="matrix( 1, 0, 0, 1, 0,0) ">
<use xlink:href="#Layer2_0_MEMBER_0_MEMBER_1_MEMBER_0_FILL"/>
</g>

<g transform="matrix( 1, 0, 0, 1, 0,0) ">
<use xlink:href="#Layer2_0_MEMBER_0_MEMBER_2_FILL"/>
</g>
</g>

<g transform="matrix( 0.3340911865234375, 0, 0, 0.33428955078125, 14.65,14.6) ">
<use xlink:href="#Layer0_0_FILL"/>
</g>
</svg>
