
<svg xmlns="http://www.w3.org/2000/svg" version="1.1" xmlns:xlink="http://www.w3.org/1999/xlink" preserveAspectRatio="none" x="0px" y="0px" width="72px" height="72px" viewBox="0 0 72 72">
<defs>
<g id="Layer1_0_MEMBER_0_MEMBER_0_FILL">
<path fill="#B39DDB" stroke="none" d="
M 72 6.75
Q 72 4 70 2 68 0 65.25 0
L 6.75 0
Q 3.95 0 2 2 0 4 0 6.75
L 0 65.25
Q 0 68.05 2 70.05 3.95 72 6.75 72
L 65.25 72
Q 68 72 70 70.05 72 68.05 72 65.25
L 72 6.75 Z"/>
</g>

<g id="Layer1_0_MEMBER_0_MEMBER_1_MEMBER_0_FILL">
<path fill="#7E57C2" stroke="none" d="
M 72 6.75
Q 72 3.95 70 2
L 1.95 70.05
Q 3.9 72 6.75 72
L 65.25 72
Q 68 72 70 70.05 72 68.05 72 65.25
L 72 6.75 Z"/>
</g>

<g id="Layer1_0_MEMBER_0_MEMBER_2_FILL">
<path fill="#9575CD" stroke="none" d="
M 63 16.25
Q 63 13.45 61.05 11.5 59.05 9.5 56.25 9.5
L 15.65 9.5
Q 12.9 9.5 10.9 11.5 8.9 13.45 8.9 16.25
L 8.9 56.8
Q 8.9 59.6 10.9 61.6 12.9 63.55 15.65 63.55
L 56.25 63.55
Q 59.05 63.55 61.05 61.6 63 59.6 63 56.8
L 63 16.25 Z"/>
</g>

<g id="Layer0_0_FILL">
<path fill="#FFFFFF" stroke="none" d="
M 120.8 44.9
Q 118.8 40.25 115.1 36.7
L 102.7 49.6
Q 104.85 51.65 104.85 54.7 104.85 57.65 102.75 59.75 100.65 61.85 97.75 61.85 94.7 61.85 92.75 61.3
L 92.75 11.4 74.85 11.4 74.85 56.5 52.95 50.8 52.95 11.4 35.05 11.4 35.05 46.45
Q 31.95 46.15 29.6 46.35 19.45 46.6 12.35 53.85 5.2 61.15 5.2 71.3 5.2 76.45 7.15 81.1 9.15 85.75 12.85 89.3
L 25.3 76.4
Q 23.1 74.3 23.1 71.3 23.1 68.4 25.2 66.3 27.25 64.25 30.2 64.25
L 31.95 64.25
Q 33.9 64.3 35.05 64.65
L 35.05 92.1
Q 35.05 104.05 43.5 112.5 52 120.95 63.9 120.95 75.85 120.95 84.3 112.5 92.75 104.05 92.75 92.1
L 92.75 79.5
Q 94.4 79.75 96.2 79.75 97.25 79.75 98.35 79.65 108.5 79.45 115.6 72.15 122.75 64.9 122.75 54.7 122.75 49.55 120.8 44.9
M 74.85 75
L 74.85 92.1
Q 74.85 96.65 71.65 99.85 68.4 103.05 63.9 103.05 59.35 103.05 56.15 99.85 52.95 96.65 52.95 92.1
L 52.95 69.35 74.85 75 Z"/>
</g>
</defs>

<g id="Layer_1">
<g transform="matrix( 1, 0, 0, 1, 0,0) ">
<use xlink:href="#Layer1_0_MEMBER_0_MEMBER_0_FILL"/>
</g>

<g transform="matrix( 1, 0, 0, 1, 0,0) ">
<use xlink:href="#Layer1_0_MEMBER_0_MEMBER_1_MEMBER_0_FILL"/>
</g>

<g transform="matrix( 1, 0, 0, 1, 0,0) ">
<use xlink:href="#Layer1_0_MEMBER_0_MEMBER_2_FILL"/>
</g>
</g>

<g transform="matrix( 0.3453826904296875, 0, 0, 0.3455047607421875, 13.9,13.15) ">
<use xlink:href="#Layer0_0_FILL"/>
</g>
</svg>
