<svg xmlns="http://www.w3.org/2000/svg" xmlns:xlink="http://www.w3.org/1999/xlink" preserveAspectRatio="none" viewBox="0 0 72 72"><defs><path fill="#007DB6" d="M72 6.75Q72 4 70 2t-4.75-2H6.75Q3.95 0 2 2 0 4 0 6.75v58.5q0 2.8 2 4.8Q3.95 72 6.75 72h58.5Q68 72 70 70.05q2-2 2-4.8V6.75z" id="a"/><path fill="#004D80" d="M72 6.75q0-2.8-2-4.75L1.95 70.05Q3.9 72 6.75 72h58.5Q68 72 70 70.05q2-2 2-4.8V6.75z" id="b"/><path fill="#006CA2" d="M63 16.25q0-2.8-1.95-4.75-2-2-4.8-2h-40.6q-2.75 0-4.75 2-2 1.95-2 4.75V56.8q0 2.8 2 4.8 2 1.95 4.75 1.95h40.6q2.8 0 4.8-1.95 1.95-2 1.95-4.8V16.25z" id="c"/><path fill="#FFF" d="M86.65 93.15q8.9-10.75 8.9-28.7t-8.9-28.7Q77.7 25 62.75 25q-14.9 0-23.85 10.75Q30 46.5 30 64.45t8.9 28.7q8.9 10.7 23.85 10.7 14.95 0 23.9-10.7M72.8 78.45q-3.45 6.8-10.05 6.8-6.55 0-10-6.8-2.9-5.65-2.9-14t2.9-14q3.45-6.8 10-6.8 6.6 0 10.05 6.8 2.9 5.65 2.9 14t-2.9 14z" id="d"/></defs><use xlink:href="#a"/><use xlink:href="#b"/><use xlink:href="#c"/><g transform="matrix(.51488 0 0 .5149 3.7 2.85)"><use xlink:href="#d"/></g></svg>