<svg xmlns="http://www.w3.org/2000/svg" xmlns:xlink="http://www.w3.org/1999/xlink" preserveAspectRatio="none" viewBox="0 0 72 72"><defs><path fill="#007DB6" d="M72 6.75Q72 4 70 2t-4.75-2H6.75Q3.95 0 2 2 0 4 0 6.75v58.5q0 2.8 2 4.8Q3.95 72 6.75 72h58.5Q68 72 70 70.05q2-2 2-4.8V6.75z" id="a"/><path fill="#004D80" d="M72 6.75q0-2.8-2-4.75L1.95 70.05Q3.9 72 6.75 72h58.5Q68 72 70 70.05q2-2 2-4.8V6.75z" id="b"/><path fill="#006CA2" d="M63 16.25q0-2.8-1.95-4.75-2-2-4.8-2h-40.6q-2.75 0-4.75 2-2 1.95-2 4.75V56.8q0 2.8 2 4.8 2 1.95 4.75 1.95h40.6q2.8 0 4.8-1.95 1.95-2 1.95-4.8V16.25z" id="c"/><path fill="#FFF" d="M46.35 46.5q.4.35.95.15l7.5-2.15v41.2h-5.75q-.5 0-.8.35-.35.3-.35.8v14.05q0 .5.35.8.3.35.8.35h29.9q.45 0 .8-.35.3-.3.3-.8V86.85q0-.5-.3-.8-.35-.35-.8-.35h-5.8V25.4q0-.6-.4-.9-.45-.35-.95-.2l-25.05 5.4q-.85.15-.85 1.05V45.6q0 .55.45.9z" id="d"/></defs><use xlink:href="#a"/><use xlink:href="#b"/><use xlink:href="#c"/><g transform="matrix(.52122 0 0 .52185 3.2 3.05)"><use xlink:href="#d"/></g></svg>