<svg xmlns="http://www.w3.org/2000/svg" xmlns:xlink="http://www.w3.org/1999/xlink" preserveAspectRatio="none" viewBox="0 0 72 72"><defs><path id="a" fill="#007DB6" d="M72 6.75Q72 4 70 2t-4.75-2H6.75Q3.95 0 2 2 0 4 0 6.75v58.5q0 2.8 2 4.8Q3.95 72 6.75 72h58.5Q68 72 70 70.05q2-2 2-4.8V6.75z"/><path id="b" fill="#004D80" d="M72 6.75q0-2.8-2-4.75L1.95 70.05Q3.9 72 6.75 72h58.5Q68 72 70 70.05q2-2 2-4.8V6.75z"/><path id="c" fill="#006CA2" d="M63 16.25q0-2.8-1.95-4.75-2-2-4.8-2h-40.6q-2.75 0-4.75 2-2 1.95-2 4.75V56.8q0 2.8 2 4.8 2 1.95 4.75 1.95h40.6q2.8 0 4.8-1.95 1.95-2 1.95-4.8V16.25z"/><path id="d" fill="#FFF" d="M93.65 73.75q-.3-.3-.75-.3H80.05V26.4l-.1-.45v-.05l-.35-.35-.1-.05q-.2-.15-.5-.15H62.6q-.2 0-.45.15l-.15.05-.3.3-31.2 48.1V74l-.15.45V87.7q0 .45.3.8.35.3.75.3h30.1v13.15q0 .45.35.8.3.3.75.3H79q.4 0 .75-.3.3-.35.3-.8v-13.2H92.9q.45 0 .75-.3t.3-.75V74.5q.05-.4-.3-.75m-43.85-.3l11.7-18.1v18.1H49.8z"/></defs><use xlink:href="#a"/><use xlink:href="#b"/><use xlink:href="#c"/><g transform="matrix(.5228 0 0 .52252 3.55 2.45)"><use xlink:href="#d"/></g></svg>