<svg xmlns="http://www.w3.org/2000/svg" xmlns:xlink="http://www.w3.org/1999/xlink" preserveAspectRatio="none" viewBox="0 0 72 72"><defs><path id="a" fill="#007DB6" d="M72 6.75Q72 4 70 2t-4.75-2H6.75Q3.95 0 2 2 0 4 0 6.75v58.5q0 2.8 2 4.8Q3.95 72 6.75 72h58.5Q68 72 70 70.05q2-2 2-4.8V6.75z"/><path id="b" fill="#004D80" d="M72 6.75q0-2.8-2-4.75L1.95 70.05Q3.9 72 6.75 72h58.5Q68 72 70 70.05q2-2 2-4.8V6.75z"/><path id="c" fill="#006CA2" d="M63 16.25q0-2.8-1.95-4.75-2-2-4.8-2h-40.6q-2.75 0-4.75 2-2 1.95-2 4.75V56.8q0 2.8 2 4.8 2 1.95 4.75 1.95h40.6q2.8 0 4.8-1.95 1.95-2 1.95-4.8V16.25z"/><path id="d" fill="#FFF" d="M87.7 25.15q-.35-.3-.8-.3H44.2l-.55.15-.2.15-.1.15-.15.15-.1.4-3.85 43.1q0 .65.4.9.25.25.7.25h.25l.25-.1q6.65-.8 11.6-.8 12.85 0 16.7 4.25 1.7 1.85 1.4 4.65-.4 4-4.15 5.8-2.8 1.35-7.35 1.35-4.75 0-9.95-1.45-4.7-1.3-7.65-3.15-.4-.3-.95-.1-.45.15-.6.65l-4.15 12.9q-.25.8.45 1.2.25.15 8.1 4.05 9.3 3.85 17.5 3.85 4.05 0 7.75-1 4.5-1.25 8.35-3.5 5.5-3.25 8.7-8.05 2.5-3.75 3.3-8.15.8-4.4-.15-8.9-1.05-4.95-4.05-9.15-3-4.25-7.6-7.2-7.15-4.15-18.4-4.75l1.05-12.05H86.9q.45 0 .8-.3.3-.35.3-.8V25.9q0-.45-.3-.75z"/></defs><use xlink:href="#a"/><use xlink:href="#b"/><use xlink:href="#c"/><g transform="matrix(.51787 0 0 .51819 3.4 2.8)"><use xlink:href="#d"/></g></svg>