<svg xmlns="http://www.w3.org/2000/svg" xmlns:xlink="http://www.w3.org/1999/xlink" preserveAspectRatio="none" viewBox="0 0 72 72"><defs><path fill="#007DB6" d="M72 6.75Q72 4 70 2t-4.75-2H6.75Q3.95 0 2 2 0 4 0 6.75v58.5q0 2.8 2 4.8Q3.95 72 6.75 72h58.5Q68 72 70 70.05q2-2 2-4.8V6.75z" id="a"/><path fill="#004D80" d="M72 6.75q0-2.8-2-4.75L1.95 70.05Q3.9 72 6.75 72h58.5Q68 72 70 70.05q2-2 2-4.8V6.75z" id="b"/><path fill="#006CA2" d="M63 16.25q0-2.8-1.95-4.75-2-2-4.8-2h-40.6q-2.75 0-4.75 2-2 1.95-2 4.75V56.8q0 2.8 2 4.8 2 1.95 4.75 1.95h40.6q2.8 0 4.8-1.95 1.95-2 1.95-4.8V16.25z" id="c"/><path fill="#FFF" d="M93.75 78.6q0-11.5-8.55-18.95-8.5-7.5-21.6-7.5-3.2 0-6.4.55 4.2-7.3 11.05-13.6 3.4-3.15 6.05-4.85.4-.3.5-.75 0-.55-.3-.85l-10.05-10.3q-.6-.5-1.25-.2-3.65 1.9-8.05 5.5-8.7 7.2-14.15 16.75-4.3 7.5-6.25 14.9-2.75 10.5-1.2 21.95l.35 2.3.6 2.35q2.55 8.65 10.35 13.85Q52.8 105 63.6 105q13.1 0 21.65-7.45 8.5-7.45 8.5-18.95M63.6 67.4q5.15 0 8.5 3.15 3.35 3.2 3.35 8.05 0 4.85-3.35 8-3.35 3.2-8.5 3.2t-8.5-3.2q-3.35-3.15-3.35-8 0-4.9 3.35-8.05 3.35-3.15 8.5-3.15z" id="d"/></defs><use xlink:href="#a"/><use xlink:href="#b"/><use xlink:href="#c"/><g transform="matrix(.4897 0 0 .48946 5 4.9)"><use xlink:href="#d"/></g></svg>