<svg xmlns="http://www.w3.org/2000/svg" xmlns:xlink="http://www.w3.org/1999/xlink" preserveAspectRatio="none" viewBox="0 0 72 72"><defs><path fill="#EF5250" d="M72 6.75Q72 4 70 2t-4.75-2H6.75Q3.95 0 2 2 0 4 0 6.75v58.5q0 2.8 2 4.8Q3.95 72 6.75 72h58.5Q68 72 70 70.05q2-2 2-4.8V6.75z" id="a"/><path fill="#C62728" d="M72 6.75q0-2.8-2-4.75L1.95 70.05Q3.9 72 6.75 72h58.5Q68 72 70 70.05q2-2 2-4.8V6.75z" id="b"/><path fill="#E53835" d="M63 16.25q0-2.8-1.95-4.75-2-2-4.8-2h-40.6q-2.75 0-4.75 2-2 1.95-2 4.75V56.8q0 2.8 2 4.8 2 1.95 4.75 1.95h40.6q2.8 0 4.8-1.95 1.95-2 1.95-4.8V16.25z" id="c"/><path fill="#FFF" d="M115.6 64q0-21.8-14.6-35.95-14.6-14.2-37.05-14.2-22.45 0-37.05 14.2Q12.3 42.2 12.3 64q0 21.85 14.6 36 14.6 14.2 37.05 14.2 22.45 0 37.05-14.2 14.6-14.15 14.6-36m-26.55 0q0 10.75-7 17.55-7 6.8-18.1 6.8-11.1 0-18.1-6.8Q38.8 74.75 38.8 64q0-10.7 7.05-17.5 7-6.8 18.1-6.8 11.1 0 18.1 6.8 7 6.75 7 17.5z" id="d"/></defs><use xlink:href="#a"/><use xlink:href="#b"/><use xlink:href="#c"/><g transform="matrix(0 .39304 -.3632 0 59.25 10.85)"><use xlink:href="#d"/></g></svg>