<svg xmlns="http://www.w3.org/2000/svg" xmlns:xlink="http://www.w3.org/1999/xlink" preserveAspectRatio="none" viewBox="0 0 72 72"><defs><path fill="#BA68C8" d="M95.7 64.65q-7.6-2.9-10.4-4.35-10.15-5-20.2-21.35-5.4-8.85-8.55-16.65l-39.6 2.05 4.5 28.45q1.4 15.85 10.5 33.35 16.15 30.95 45.8 36.5 2.6.45 5.15.75 8.05.8 15.2-.6 8-1.65 14.1-5.9 7.3-5.35 10.15-14.5 2.8-9.3-.55-17.4-4.15-9.85-15.55-15.75-3.65-1.9-10.55-4.6z" id="a"/><path fill="#BDCF46" d="M124.55 12.35q-.35-1.65-2.3-3.1-1.1-.85-3.5-2.05l-.35-.15-.25-.15q-.5-.25-.7-.25-.35 0-.8.2l-.3.05q-.65.2-1 .5-2 1.75-4.15 1.8h-1.35q-2.2 0-4.4-.15-3-.2-4.5-.2-4.2 0-7.55 1.15l-2.65 1q-4.75 1.85-7.1 2.35-1.5.3-2.9.3-1.85 0-5.65-.85l-1.45-.35-.75-.05q-1.2 0-1.75.9-.5.75-.4 2 .05 1.1.5 2.1 1.95 4.45 8.75 7.35 4.25 1.9 8.8 1.9 2.15 0 4.15-.45l2.4-.45q1-.25 1.4-.25l.35.05q.2.15-.1 1-.3.6-.55.9l-.4.7q-.3.45-.7 1.7l-.25.7q-1.5 4.05-.05 9.45.55 2.05 1.45 3.4l.35.55q1.1 1.8 1.9 2.3 1 .75 2 .75.9 0 1.8-.6.45-.3 1.5-1.25 1.3-1.25 3.6-4.6l.45-.75q1.55-2.4 2.7-3.15.6 3.55 3.25 13.15 1.75 4.05 4.65 6.25 2.85 2.15 6.4 2.15h.95q.9 0 1.25-.45.4-.4.25-1.15-.05-.45-.65-1.25l-.25-.4q-1.75-3.15-1.7-7.25 0-2.45 1-7.65.95-5.15 1-7.75.1-4.35-1.6-7.8l-1.15-1.9q-1.85-2.75-1.75-4.15.05-.8 1-2.3 1.45-2.2 1.1-3.8z" id="b"/></defs><use xlink:href="#a" transform="translate(-2 -.2) scale(.5625)"/><use xlink:href="#b" transform="scale(-.44464 .44464) rotate(-15 39.98 577.465)"/></svg>