<svg xmlns="http://www.w3.org/2000/svg" xmlns:xlink="http://www.w3.org/1999/xlink" preserveAspectRatio="none" viewBox="0 0 72 72"><defs><path id="a" fill="#C19048" d="M110.85 16.45q-6.6-4.6-15.8-6.8Q83 6.85 73.6 7.8l-3.2.45h-.05q-13.7 1.85-23.85 4.8-9.3 2.75-13.35 4.1-7.1 2.45-13.8 5.65L50.9 75.75q-.85 10.8-.85 19.1 0 4.8.2 5.6.65 3.05 3.8 3.25l14.15 1 9.05 15.2 41.65-12.15q1.5-.15 2.5-.7 1.2-.75 1.8-1.9.95-1.95.5-5.5-.75-3.95-1-5.65-.8-6.55-2-19.65-.25-4.45-.4-6.7-.25-4-.95-6.65-.45-1.75-2.7-6.3-1.95-3.9-2.1-6.35-.15-1.7 1.65-3.45 1-1 3-2.55 3.55-3.15 3.3-8.45-.3-5.05-3.8-9.9-2.95-4.1-7.85-7.55z"/><path id="b" fill="#C19048" d="M120.8 21.3q-3.2-4.15-8.05-7.55-7.15-5.05-16.95-7.3Q83.3 3.5 73.3 4.5l-3.25.45h-.1q-14 1.9-24.35 4.9l-.3.1q-8.7 2.5-13.35 4.1-7.2 2.5-14.05 5.75-1.3.65-1.7 2.05-.4 1.4.3 2.65l31.05 52.05q-.8 9.6-.8 18.3v1.25q-.15 4.15.75 6.4 1.55 4.15 6.35 4.45l12.4.9 8.2 13.75q.95 1.6 2.8 1.6.5 0 .95-.15l41.35-12.1q1.85-.2 3.35-1l.1-.05q2.1-1.2 3.15-3.3 1.1-2.2 1-5.35-.1-1.9-.75-5.2l-.4-2.45q-.6-5.05-1.8-17.55l-.45-6.05q-.3-6.5-1.2-9.85-.5-2.1-2.5-6.05-2.1-4.2-2.25-5.95.15-.6 2.4-2.35l1.2-1q4.75-4.2 4.35-11.1-.35-6.45-4.95-12.4M109 19.15q3.55 2.45 6.1 5.5 3.85 4.65 4.1 9.4.15 3.8-2.2 5.85l-.9.75q-2.2 1.75-3.25 3.05-1.75 2.35-1.6 4.85.15 2.15 1.05 4.55.55 1.45 1.9 4 1.65 3.4 2 4.7.65 2.5.95 8.55.1 1.4.3 4.3l.2 2q.95 11.15 1.8 17.8l.5 2.9q.45 2.45.55 3.5.2 1.95-.25 2.85-.2.3-.4.4h-.05q-.4.3-1.3.35L78.8 116 71 103q-.8-1.45-2.55-1.6l-14.2-1-.6-.15q-.35-.4-.35-3.95l.05-1.45q0-8.3.85-18.8.15-1-.45-2l-29.7-49.8q5.5-2.45 11.5-4.45 3.95-1.3 11.6-3.55l.3-.05q9.55-2.8 23.2-4.7h.3l3-.45q8.95-.85 20.35 1.8 8.55 2.05 14.7 6.3z"/><path id="c" fill="#F9F4D9" d="M67.2 29.1q-6.65-4.65-15.8-6.8-12.05-2.8-21.45-1.85-12.5 1.25-19.35 7.5-2.75 2.5-4.45 5.75-1.85 3.55-2.05 7.1-.15 4.15 1.7 7.2.8 1.3 3.05 3.15 2.25 1.85 3 2.95 1.65 2.5.85 6.15-.15.85-2 5.95-1.4 3.95-2.2 9.6-.2 1.4-1.05 9.9Q6.4 96.6 6.4 107.5q0 4.8.2 5.6.65 3.05 3.8 3.25 5.55.35 29.8 2.25 18.3 1.45 29.8 1.75 4.55.15 5.4.05 3.1-.4 4.15-2.6.95-1.95.5-5.5-.75-3.95-1-5.65-.8-6.7-2-19.7-.25-4.45-.4-6.65-.25-4-.95-6.65-.45-1.75-2.7-6.3-2-3.9-2.15-6.35-.1-1.65 1.7-3.45 1-1 2.95-2.55 3.6-3.15 3.3-8.5-.25-5-3.75-9.85-2.95-4.1-7.85-7.55z"/><path id="d" fill="#C19048" d="M43.75 32.3q2.65-2.35 2.45-6.25-.2-3.6-2.75-6.95-1.85-2.35-4.6-4.25-3.95-2.8-9.5-4.1Q22.3 9.1 16.7 9.65q-7.7.75-11.95 4.7-1.95 1.75-3.05 4-1.1 2.2-1.2 4.5-.2 2.85 1.2 5.1.65 1.05 2.15 2.3 1.05.85 1.25 1.2.45.7.3 1.8-.15.8-.8 2.45l-.3.9q-.8 2.2-1.25 5.05-.25 1.7-.55 5.05l-.15 1.35q-.6 6.65-.6 12.4v.7q-.1 2.35.4 3.6.9 2.35 3.6 2.55 3.45.15 12.6.95 13.65 1.1 20.95 1.3l2 .1q3.85 0 5.1-2.55.65-1.25.55-3.05 0-1-.35-2.9l-.3-1.4q-.3-2.8-1-9.9l-.25-3.35q-.15-3.55-.65-5.55-.3-1.2-1.4-3.4-1.2-2.25-1.25-3.35.05-.35 1.3-1.3l.7-.6m-1.3-6.05q.15 2.15-1.2 3.3l-.5.45q-1.25.95-1.85 1.7-1 1.3-.9 2.75.1 1.2.6 2.55.3.7 1.05 2.25.9 1.65 1.15 2.65.4 1.55.55 4.8l.25 3.55q.65 7.05 1.05 10 0 .35.25 1.65.25 1.4.35 1.95.1 1.1-.15 1.6-.3.5-1.8.5l-1.85-.1q-6.2-.15-20.75-1.3-9.3-.75-12.75-.95l-.3-.05q-.2-.25-.2-2.25v-.85q0-5.9.55-12.05l.15-1.3q.3-3.1.55-4.75.4-2.6 1.05-4.45l.3-.85q.85-2.25 1.05-3.6.25-2.25-.9-4.05-.55-.8-2-2-1.1-.9-1.35-1.35-.8-1.3-.7-3 .05-1.55.9-3.15.75-1.55 2.15-2.8 3.35-3.1 9.8-3.75 5.05-.5 11.45 1 4.9 1.15 8.3 3.55 2 1.35 3.4 3.1 2.2 2.6 2.3 5.25z"/><path id="g" fill="#FFCC80" d="M81.35 28.6l.65 1.05q1.55 2.35 2.15 3.05 1.25 1.35 3 1.25 1.8-.1 2.3-1.75.75-2.7-2.85-5.9-3.7-3.2-5.85-.9-.75.8-.45 1.7.15.3 1.05 1.5z"/><path id="h" fill="#FFCC80" d="M93.65 26.2l.65 1q1.5 2.4 2.1 3.05 1.3 1.35 3.05 1.25 1.8-.1 2.25-1.75.8-2.7-2.85-5.85-3.7-3.25-5.85-.9-.75.8-.4 1.65.1.25 1.05 1.55z"/><path id="i" fill="#FFCC80" d="M103.85 23.8l.65 1q1.5 2.4 2.1 3.05 1.3 1.35 3.05 1.3 1.8-.1 2.25-1.75.8-2.7-2.85-5.9-3.7-3.25-5.85-.9-.75.8-.4 1.7.1.25 1.05 1.5z"/><path id="j" fill="#E2D9C3" d="M37.85 42.15l-.3.9q-.6 1.8-.75 2.75-.15 1.4.75 2.4t2.15.45q2-.85 2.05-4.55.1-3.75-2.35-3.85-.8-.05-1.15.55-.1.15-.4 1.35z"/><path id="k" fill="#E2D9C3" d="M26.75 78.75l.95.25q1.8.6 2.8.7 1.45.15 2.45-.8 1.05-.95.5-2.2-.9-2-4.65-2-3.85.05-4 2.5-.05.85.55 1.2.25.15 1.4.35z"/><path id="l" fill="#E2D9C3" d="M55.25 47.05l.9.25q2.35.65 2.8.7 1.45.15 2.45-.8 1.1-.95.5-2.2-.9-2-4.65-2-3.85 0-4 2.5-.05.85.6 1.15.15.1 1.4.4z"/><path id="m" fill="#E2D9C3" d="M56.75 82.5l.4.75q.8 1.75 1.35 2.4.85 1.05 2.1 1.15 1.35.05 1.8-1.15.75-1.9-1.65-4.5-2.5-2.6-4.25-1.05-.6.5-.4 1.2.05.2.65 1.2z"/><path id="n" fill="#E2D9C3" d="M14.25 105.3l.45.8q.95 1.9 1.35 2.45.85 1.1 2.2 1.15 1.35.1 1.85-1.15.75-1.95-1.75-4.6-2.5-2.7-4.3-1.15-.6.55-.45 1.25.05.2.65 1.25z"/><path id="o" fill="#E2D9C3" d="M48.7 109q.3.4.45.8 1.15 2.2 1.35 2.45.85 1.1 2.2 1.15 1.35.1 1.85-1.15.8-1.95-1.7-4.6-2.55-2.7-4.35-1.1-.6.55-.45 1.2.05.15.65 1.25z"/><path id="p" fill="#E2D9C3" d="M64.45 98.6q-.7-.35-1.25.05-.15.15-.95 1.1l-.55.65q-1.4 1.5-1.8 2.15-.7 1.2-.3 2.45.4 1.3 1.75 1.3 2.1 0 3.65-3.25 1.55-3.35-.55-4.45z"/><path id="q" fill="#E2D9C3" d="M28.95 30.45l-.6.7Q26.8 33 26.6 33.3q-.75 1.15-.35 2.4Q26.7 37 28 37q2.1.05 3.7-3.25 1.55-3.3-.55-4.4-.75-.4-1.3.05-.2.15-.9 1.05z"/><path id="e" fill="none" stroke="#F9F4D9" stroke-linecap="round" stroke-linejoin="round" stroke-width="1" d="M5.65 63.55l.3.05q3.45.2 12.75.95 14.55 1.15 20.75 1.3l1.85.1q1.5 0 1.8-.5.25-.5.15-1.6-.1-.55-.35-1.95-.25-1.3-.25-1.65-.4-2.95-1.05-10l-.25-3.55q-.15-3.25-.55-4.8-.25-1-1.15-2.65Q38.9 37.7 38.6 37q-.5-1.35-.6-2.55-.1-1.45.9-2.75.6-.75 1.85-1.7l.5-.45q1.35-1.15 1.2-3.3-.1-2.65-2.3-5.25-1.4-1.75-3.4-3.1-3.4-2.4-8.3-3.55-6.4-1.5-11.45-1-6.45.65-9.8 3.75-1.4 1.25-2.15 2.8-.85 1.6-.9 3.15-.1 1.7.7 3 .25.45 1.35 1.35 1.45 1.2 2 2 1.15 1.8.9 4.05-.2 1.35-1.05 3.6l-.3.85q-.65 1.85-1.05 4.45-.25 1.65-.55 4.75L6 48.4q-.55 6.15-.55 12.05v.85q0 2 .2 2.25z"/><path id="f" fill="none" stroke="#C19048" stroke-linecap="round" stroke-linejoin="round" stroke-width=".1" d="M41.3 69.65l-2-.1q-7.3-.2-20.95-1.3-9.15-.8-12.6-.95-2.7-.2-3.6-2.55-.5-1.25-.4-3.6v-.7q0-5.75.6-12.4l.15-1.35q.3-3.35.55-5.05.45-2.85 1.25-5.05l.3-.9q.65-1.65.8-2.45.15-1.1-.3-1.8-.2-.35-1.25-1.2-1.5-1.25-2.15-2.3Q.3 25.7.5 22.85q.1-2.3 1.2-4.5 1.1-2.25 3.05-4Q9 10.4 16.7 9.65q5.6-.55 12.65 1.1 5.55 1.3 9.5 4.1 2.75 1.9 4.6 4.25 2.55 3.35 2.75 6.95.2 3.9-2.45 6.25l-.7.6q-1.25.95-1.3 1.3.05 1.1 1.25 3.35 1.1 2.2 1.4 3.4.5 2 .65 5.55l.25 3.35q.7 7.1 1 9.9l.3 1.4q.35 1.9.35 2.9.1 1.8-.55 3.05-1.25 2.55-5.1 2.55z"/></defs><use transform="scale(.5625)" xlink:href="#a"/><use transform="scale(.5625)" xlink:href="#b"/><use transform="scale(.5625)" xlink:href="#c"/><g><use xlink:href="#d"/><use xlink:href="#e"/><use xlink:href="#f"/></g><use transform="scale(.5625)" xlink:href="#g"/><use transform="scale(.5625)" xlink:href="#h"/><use transform="scale(.5625)" xlink:href="#i"/><use transform="scale(.5625)" xlink:href="#j"/><use transform="scale(.5625)" xlink:href="#k"/><use transform="scale(.5625)" xlink:href="#l"/><use transform="scale(.5625)" xlink:href="#m"/><use transform="scale(.5625)" xlink:href="#n"/><use transform="scale(.5625)" xlink:href="#o"/><use transform="scale(.5625)" xlink:href="#p"/><use transform="scale(.5625)" xlink:href="#q"/></svg>