<svg xmlns="http://www.w3.org/2000/svg" xmlns:xlink="http://www.w3.org/1999/xlink" preserveAspectRatio="none" viewBox="0 0 72 72"><defs><path fill="#37B4E2" d="M67.4 7.1q0-3.5-3.4-3.8l-35.1.4q-1.15-.15-1.95.1l-.05-.05q-1.05 0-1.8.65-.55.75-.5 1.7l2.1 38.75q-3.75-2.25-8.6-2.1-3.9 0-7.55 1.6-3.65 1.7-5.9 4.45-1.8 2.1-2.35 4.3-.3 1.35-.45 2.8-.1 1.65.3 2.85.75 2.6 2.4 4.75 1.75 2.25 4.2 3.55 1.45.75 2.9 1.2 3.85 1 8-.3 3.7-1.15 6.7-3.95 2.35-2.05 3.85-4.9 1.7-3.15 1.65-6.05l.1-.65-2.2-35.25 33.75-.35 1.45 27.6q-3.75-2.25-8.55-2.1-3.9 0-7.55 1.6-3.7 1.7-5.9 4.45-1.85 2.1-2.4 4.3-.3 1.35-.4 2.8-.15 1.65.3 2.85.7 2.6 2.4 4.75 1.75 2.25 4.2 3.55 1.45.75 2.85 1.2 3.85 1 8.05-.3 3.65-1.15 6.7-3.95 2.35-2.05 3.8-4.9 1.7-3.15 1.65-6.05l.1-.65L67.4 7.1z" id="a"/></defs><use xlink:href="#a"/></svg>