<svg xmlns="http://www.w3.org/2000/svg" xmlns:xlink="http://www.w3.org/1999/xlink" preserveAspectRatio="none" viewBox="0 0 72 72"><defs><path fill="#FADCBC" d="M102.95 15.95q1.95-1.65 1.85-4.8-.2-6.5-9.95-8.05-3.4-.55-9.25-.65-6.4 0-9.1-.1Q62.15 1.9 53 3q-15.9 1.9-23.15 8.25-3.8 3.65-5.65 5.35-3.25 3-5.25 3.8-4.65 1.9-6.2 8.25-1.15 4.75-.9 14.65.1 2.7.05 12.85.7 9.2 4.85 11.55 4.35 2.45 16.6 7 10.85 4.05 13.55 6.2 5.75 4.5 10.3 12.2 3.3 5.55 5.55 11.9 5.3 14.85 5.4 15.1 2.9 5.9 7.85 5.9 8.6 0 11.5-6.65 1.35-3.2 1.7-11.15.25-6.05-6.2-21.05-3-6.95-3.7-9.05-1.2-3.85.15-4.25 4.05 1.1 11.25 1.35 5.35.2 8.95-.1 6.05-.45 7.8-1.1 3.7-1.45 4.35-5.95.55-3.8-1.05-6.15-1.9-2.75-6.6-3.3-5.3-.4-7.7-.8l-1.9-2.05q1.2.15 4.7.25 3.5.05 4.15.15 5.1.65 8.5-1.35 3.65-2.15 4.25-6.65.55-4.1-2.1-6.85-2.7-2.7-7.1-2.5-1 .1-5.25-.3-5.15-.4-7.95-.5l-.4-1.15-.2-.3q5.2-.15 9.35-.4 4.7-.2 7.35-2.55 2.6-2.25 2.5-5.8-.05-3.8-3.2-6-2.45-1.7-5.9-2-2.1-.2-8.3 0-6.2.2-11.2.6l-1.1-1.8 13.9-.65q4.4-.35 6.4-2z" id="a"/><path fill="#DBA689" d="M83.55 18.55h-2.3q-4.75.05-7.45-.65l-1.8-.7q-2.45-1.55-3.05-4.25l-.1-2.45q.3-2.3 2.25-4.05 1.75-1.6 3.8-1.9 4.85-.65 13.55-1.1 6.25-.35 5.35-.5-3.25-.45-9.55-.75-7-.35-9.85 0-3.8.45-6.35 2.7-3.25 2.85-3.25 7.85 0 3.4 1.8 5.6 1.45 1.75 3.1 2.1-2.1 1-3.55 3.5-1.6 2.75-1.6 6.1 0 3.85 3.2 6.35 2.65 2.1 5.2 2-1.3.75-2.5 2.15-2.4 2.8-2.45 6.55-.1 3.7 1.25 6 .7 1.1 1.4 1.5-2.05 1-3.1 3.15-.9 1.95-1.15 5.3-.3 4.6 3.2 7.9 3.4 3.3 9.15 4.05l.2-.8q.25-.3.6-.35-3.4-1.2-5.5-3.65-2.6-2.9-1.9-8.5.85-7 17.35-4.75 9.3 1.25 15.3 1.75-.2-.7-.15-1.1.05-.75 1-1.35-.95.05-2.25-.1-5.9-.6-19.85-2.4Q77.65 53 75.6 52q-3.05-1.45-3.05-4.95l.1-1.7q.25-2.8 2.3-4.6 2.9-2.65 8.8-2.5l23.2.55q-1.25-.6-1.15-2l.35-1.25q-5.3.7-17.4.45l-11.05-.45q-5.3-.2-7.2-3l-.9-2.8q0-4.05 3.2-6.5 1.55-1.2 3.15-1.6 1.15-.5 16.6-1.45l8.3-.45q-.95 0-1.1-1.2-.05-.75.3-1.2-1.5.45-3.55.6-12.25.55-12.95.6z" id="b"/><path fill="#DBA689" d="M65.8 35.9q-2.45-3.5-5.65-6.35l-2.7-2.15q-2.1-1.6-3.3-1.55l-.8.4q-.7.7.15 1.8.45.5 1.05.9 11.35 7.8 13.4 20 1.05 6.1-.2 10.6l3.35.95q2.55-13.45-5.3-24.6z" id="c"/></defs><use xlink:href="#a" transform="scale(.5625)"/><use xlink:href="#b" transform="scale(.5625)"/><use xlink:href="#c" transform="scale(.5625)"/></svg>