<svg xmlns="http://www.w3.org/2000/svg" xmlns:xlink="http://www.w3.org/1999/xlink" preserveAspectRatio="none" viewBox="0 0 72 72"><defs><path fill="#ADADAD" d="M70.9 35.7v-.35q-.45-2.25-1.55-4.3V31l-.4-.7q-.05-.1-.1-.15-.55-.75-1-1.45h-.05Q56.25 11.75 37.6 11.2h-3.2q-18.65.55-30.2 17.5l.05-.05q-.616.758-1.05 1.55-.315.384-.5.8l-.05.05q-1.1 2.05-1.5 4.3-.05.2-.05.35v.6q0 .15.05.35.4 2.25 1.5 4.3l.05.05q.2.4.45.8.5.75 1.1 1.6l-.05-.05q11.55 16.9 30.2 17.45h3.2q18.65-.55 30.2-17.45l.05-.05q.45-.7 1-1.4l.1-.2.4-.7v-.05q1.1-2.05 1.55-4.3v-.35-.3-.3m-3.7-4.4l.4.7q.95 1.75 1.3 3.7v.6q-.35 1.95-1.3 3.7l-.4.7q-.55.75-1.05 1.5-10.95 16.05-28.6 16.6h-3.1q-17.65-.55-28.6-16.6-.55-.75-1-1.5-.25-.35-.45-.7-.95-1.75-1.3-3.7V36v-.3q.35-1.95 1.3-3.7.2-.35.45-.7.45-.75 1-1.5 10.95-16.05 28.6-16.6h3.1q17.65.55 28.6 16.6.5.75 1.05 1.5z" id="a"/><path fill="#FFF" d="M66.15 42.2q.5-.75 1.05-1.5l.4-.7q.95-1.75 1.3-3.7V36v-.3q-.35-1.95-1.3-3.7l-.4-.7q-.55-.75-1.05-1.5-10.95-16.05-28.6-16.6h-3.1q-17.65.55-28.6 16.6-.55.75-1 1.5-.25.35-.45.7-.95 1.75-1.3 3.7v.6q.35 1.95 1.3 3.7.2.35.45.7.45.75 1 1.5 10.95 16.05 28.6 16.6h3.1q17.65-.55 28.6-16.6z" id="b"/><path fill="#F08E46" d="M46.85 46.85q4.45-4.5 4.45-10.8 0-6.35-4.45-10.85-4.5-4.45-10.85-4.45-6.3 0-10.8 4.45-4.5 4.5-4.5 10.85 0 6.3 4.5 10.8 4.5 4.5 10.8 4.5 6.35 0 10.85-4.5z" id="c"/><g id="d"><path fill="#2F2F2F" d="M48.85 36.05q0-5.15-3.75-9.1-3.85-3.8-9.3-3.8-5.35 0-9.2 3.8-3.65 3.85-3.65 9.1 0 5.65 3.65 9.1 3.75 4.15 9.2 4.15 5.55 0 9.3-4.15 3.75-3.55 3.75-9.1M33.6 27.9q1.2 1.5 1.2 3 0 2.05-1.2 3.35-1.25 1.2-3.15 1.2-1.7 0-3.25-1.2-1.1-1.4-1.1-3.35 0-1.4 1.1-3 1.55-1.25 3.25-1.25 1.9 0 3.15 1.25z"/><path fill="#FFF" d="M34.8 30.9q0-1.5-1.2-3-1.25-1.25-3.15-1.25-1.7 0-3.25 1.25-1.1 1.6-1.1 3 0 1.95 1.1 3.35 1.55 1.2 3.25 1.2 1.9 0 3.15-1.2 1.2-1.3 1.2-3.35z"/></g></defs><use xlink:href="#a"/><use xlink:href="#b"/><use xlink:href="#c" transform="matrix(1.06863 0 0 1.06863 -2.45 -2.45)"/><g><use xlink:href="#d"/></g></svg>