<svg xmlns="http://www.w3.org/2000/svg" xmlns:xlink="http://www.w3.org/1999/xlink" preserveAspectRatio="none" viewBox="0 0 72 72"><defs><path fill="#CC9970" d="M93.15 52.8q-3.7.05-5.7-1.8-1.7-1.5-4.65-1.7-2.3-.2-4.6.4-1.15.25-2.4-.3-.05 0-2.5-1.45-1.5-.85-3.85-.75-2.2.05-3.35.85-1.6 1.05-2.3.2-.75-.9-.75-4.05-.4-24.55-.8-30.4-.5-8.15-2.15-9.8-1.55-1.6-4.45-1.9-2.6-.3-4.05.55-2.05 1.2-2.8 2.6-1.05 1.9-1.55 6.65-.45 3.95-.55 19.9-.15 16.65-.2 17.45l-.15 1.2q-.1.7-.75.8-.65.15-1.05-.4-3.2-4.45-6.2-6.1-2-1.05-4.45-1-2.55.05-4.55 1.65-1.65 1.35-2.5 3.25-1.1 2.35-.75 4.7.3 2.15 1.85 4.9 1.2 2.1 6.7 11.65 5.2 9.35 6.85 14 1.95 5.5 4.1 8.4 1.8 2.45 9.3 10.15 1.5 1.6 1.75 5.7.1 2.45-.05 8.8 0 3.55.55 4.85 1.05 2.6 4.65 3.4 3.95.9 13.5.85 9.05-.05 14.8-.85 5.1-.7 6.85-3.6 1.35-2.3 1.35-7.65 0-2.3-.15-6.4-.15-4.1-.15-6 0-3.1.75-6.35.3-1.4 1.7-6.2 1.45-4.95 1.35-13.1-.4-9.4-.4-14.1 0-5.1-3.2-7.45-2.2-1.6-5.05-1.55z" id="a"/><path fill="#99674F" d="M26.05 28.35q-.05.4-.4.45-.4.1-.6-.2-1.2-1.7-2.4-2.7 2 2.75 2.8 5.6.5 1.8.85 5.85.05.5.4.8.4.35.9.3.45-.05.8-.35.3-.35.3-.85v-.1q-.35-4.3-.95-6.4-.5-1.9-1.6-3.85v.8l-.1.65z" id="b"/></defs><use xlink:href="#a" transform="matrix(0 .5625 .5625 0 -.15 .05)"/><use xlink:href="#b" transform="matrix(0 1 1 0 -.15 .05)"/></svg>