<svg xmlns="http://www.w3.org/2000/svg" xmlns:xlink="http://www.w3.org/1999/xlink" preserveAspectRatio="none" viewBox="0 0 72 72"><defs><path id="a" fill="#CC9970" d="M59.05 27.35q.8-10.6-6.35-17.65Q46 3.1 35.3 2.35 25.15 1.6 18.9 8.4q-6.2 6.65-6.05 17.8.05 3.6 1.4 6.35.9 1.95 2.95 4.3 2.6 2.95 3.3 4.05 1.7 2.55 2.35 5.6.15.85-.65 5-1 5.3-1.2 7.8-1.05 10.35 4.85 10.45 16.25.25 20.65-8 1.25-2.3 2.25-7.25 1.05-4.85 2.05-6.7 4.9-8.6 5.25-9.4 2.6-5.5 3-11.05z"/><path id="b" fill="#99674F" d="M96.9 47.35q1-14.15-8.5-23.5Q79.45 15 65.2 14q-8.3-.6-16 4.25-7.3 4.6-12.1 12.7-.45.8.3 1.3.75.55 1.35-.15 5.2-6 12-9.2 7-3.3 13.85-2.8 13.05.95 20.05 7.75 7.55 7.3 6.6 20.25-.5 6.7-3.95 13.65-2 4.05-6.7 11.65-1.35 2.35-2.1 11.85-.85 10.5-2.8 15.85-.3.85.55 1.25.8.4 1.25-.4 3.05-5.15 5.05-15 2-9.95 3.35-12.35 6.45-11.35 7-12.5 3.45-7.3 4-14.75z"/><path id="c" fill="#99674F" d="M27.95 30.45Q23.9 28.9 22.35 33q-1.3 3.3 1.65 5.3.8.5 2.4 1.35 1.25.7 1.45 1.35.6 1.7-.05 7.45-.05.45.3.6.4.15.65-.15 2.2-2.6 3.35-5.2 1.8-3.8 1-6.9-1.25-4.8-5.15-6.35z"/><path id="d" fill="#99674F" d="M52.75 39.6q-.3.9.5 1.25 7.5 3.2 12 8Q71.1 55.1 71.1 63.5q0 .95.9 1 .9.05 1.1-.85 1.55-8.4-2-14.3-4.55-7.55-17.2-10.4-.85-.2-1.15.65z"/></defs><use xlink:href="#a"/><use transform="scale(.56248)" xlink:href="#b"/><use xlink:href="#c"/><use transform="scale(.56248)" xlink:href="#d"/></svg>