<svg xmlns="http://www.w3.org/2000/svg" xmlns:xlink="http://www.w3.org/1999/xlink" preserveAspectRatio="none" viewBox="0 0 72 72"><defs><path fill="#E0BB95" d="M91.45 35.25q-1.45 4.6.2 9.85l5.55 15.35q.6 1.3-.55 2.3-1.2 1.05-2.3.2-2.85-2.35-8.85-8.45l-5.45-5.6Q51.25 19.6 49.6 18.1q-2.65-2.5-5.35-3.2-3-.8-5.3.85-2.5 1.9-2.85 4.45-.4 2.7 1.85 5.65.55.7 13.1 14.05 6.3 6.65 12.5 13.2 1.1 1.15.2 2.2-.85 1.05-2.05-.05l-32.15-33.6q-2.4-2.6-5.7-3.05-3.3-.4-5.55 1.7-2.2 2.1-2.1 5.1.05 3.05 2.45 5.7 1.05 1.1 31.4 33.4 1.25 1.25.15 2.25-.2.25-.55.35-.75.15-1.45-.6L21 38.1q-2.45-2.5-5.05-3.05-2.95-.65-5.25 1.5-2.3 2.1-2.4 5.15-.1 3.2 2.35 5.65L39.2 77.5l.35.7q.2.8-.45 1.4-.7.65-1.5.3l-.7-.5q-4.6-4.9-9.4-9.9-9.55-10-10.3-10.55-4.9-3.6-8.95.55-4.35 4.5.6 10.55 29.8 31.55 31.45 33.2l7.65 7.1q8.65 7.65 13.7 10.7 4.35 2.6 7.7 3.75 4.95 1.7 9.7 1.7 5.25.1 10.5-1.85 5-1.9 9.45-5.2 1.25-.9 2.1-1.7l1.95-1.55q1.35-1.15 3.85-3.55 3.5-3.5 6.55-7.65 2.95-4.1 4.85-8.15 1.9-3.95 2.75-8.1.8-3.8.65-7.2-.05-2.3-.8-5.4-.5-1.8-1.2-3.3l-6.3-17.2v.05l-10.05-26.75q-.6-1.8-2.4-2.3-1.85-.5-3.45.65-4.55 3.25-6.05 7.95z" id="a"/><path fill="#C48E6A" d="M82.2 93.65q.55.3.9.1 1-.25.8-1.65l-.45-1.35q-5.85-12.8-1.3-24.55 1.4-3.65 3.7-6.8 1.15-1.55 2-2.4l-2.4-2.55q-9.3 10.45-8.25 24.3.5 6.95 2.9 11.85 1 2.45 2.1 3.05z" id="b"/><path id="c" stroke="#444" stroke-width="2" stroke-linejoin="miter" stroke-linecap="round" stroke-miterlimit="10" fill="none" d="M35.578 5.737l2.025.647q2.39 1.07 4.275 3.094 1.884 2.053 3.347 4.95.731 1.434 1.069 2.475"/><path id="d" stroke="#444" stroke-width="2" stroke-linejoin="miter" stroke-linecap="round" stroke-miterlimit="10" fill="none" d="M43.438 1.969l1.63 1.125q1.913 1.518 3.235 3.656 1.322 2.138 2.11 4.95.393 1.406.506 2.39"/><path id="e" stroke="#444" stroke-width="2" stroke-linejoin="miter" stroke-linecap="round" stroke-miterlimit="10" fill="none" d="M20.081 62.297q-.815.056-2.11-.197-2.559-.534-4.837-2.11-2.278-1.574-4.33-4.078L7.2 53.72"/><path id="f" stroke="#444" stroke-width="2" stroke-linejoin="miter" stroke-linecap="round" stroke-miterlimit="10" fill="none" d="M17.169 67.587q-.76.029-1.969-.196-2.39-.422-4.584-1.632-2.194-1.209-4.247-3.29L4.738 60.64"/></defs><use xlink:href="#a" transform="scale(.5625)"/><use xlink:href="#b" transform="scale(.5625)"/><use xlink:href="#c"/><use xlink:href="#d" transform="matrix(1 0 0 1 -.016 0)"/><use xlink:href="#e"/><use xlink:href="#f" transform="matrix(1 0 0 1 -.016 -.025)"/></svg>