<svg xmlns="http://www.w3.org/2000/svg" xmlns:xlink="http://www.w3.org/1999/xlink" preserveAspectRatio="none" viewBox="0 0 72 72"><defs><path fill="#FFF" d="M6.35 18.7q-4.8 7.15-4.8 17.3t4.8 17.35q4.8 7.15 11.6 7.15t11.6-7.15q4.8-7.2 4.8-17.35 0-10.15-4.8-17.3-4.8-7.2-11.6-7.2t-11.6 7.2z" id="a"/><path fill="#2F2F2F" d="M16.95 49.15q3.8 0 6.5-3.85t2.7-9.3q0-5.45-2.7-9.35-2.7-3.85-6.5-3.85-3.85 0-6.55 3.85-2.65 3.9-2.65 9.35 0 5.45 2.65 9.3 2.7 3.85 6.55 3.85z" id="c"/><path fill="#FFF" d="M41.55 29.2q.7-.65.7-1.6 0-.95-.7-1.65-.65-.65-1.6-.65-.95 0-1.65.65-.65.7-.65 1.65t.65 1.6q.7.7 1.65.7t1.6-.7z" id="d"/><path fill="#FFF" d="M54.1 11.5q-6.8 0-11.6 7.2-4.8 7.15-4.8 17.3t4.8 17.35q4.8 7.15 11.6 7.15t11.6-7.15q4.8-7.2 4.8-17.35 0-10.15-4.8-17.3-4.8-7.2-11.6-7.2z" id="e"/><path fill="#2F2F2F" d="M16.95 49.15q3.8 0 6.5-3.85t2.7-9.3q0-5.45-2.7-9.35-2.7-3.85-6.5-3.85-3.85 0-6.55 3.85-2.65 3.9-2.65 9.35 0 5.45 2.65 9.3 2.7 3.85 6.55 3.85z" id="g"/><path fill="#FFF" d="M41.55 29.2q.7-.65.7-1.6 0-.95-.7-1.65-.65-.65-1.6-.65-.95 0-1.65.65-.65.7-.65 1.65t.65 1.6q.7.7 1.65.7t1.6-.7z" id="h"/><path id="b" stroke="#ADADAD" stroke-width="2" stroke-linejoin="round" stroke-linecap="round" fill="none" d="M34.35 36q0 10.15-4.8 17.35-4.8 7.15-11.6 7.15t-11.6-7.15q-4.8-7.2-4.8-17.35 0-10.15 4.8-17.3 4.8-7.2 11.6-7.2t11.6 7.2q4.8 7.15 4.8 17.3z"/><path id="f" stroke="#ADADAD" stroke-width="2" stroke-linejoin="round" stroke-linecap="round" fill="none" d="M70.5 36q0 10.15-4.8 17.35-4.8 7.15-11.6 7.15t-11.6-7.15q-4.8-7.2-4.8-17.35 0-10.15 4.8-17.3 4.8-7.2 11.6-7.2t11.6 7.2q4.8 7.15 4.8 17.3z"/></defs><g><use xlink:href="#a"/><use xlink:href="#b"/></g><use xlink:href="#c" transform="matrix(.7752 0 0 .7752 -.65 8.1)"/><use xlink:href="#d" transform="matrix(.7752 0 0 .7752 -16.55 9.85)"/><g><use xlink:href="#e"/><use xlink:href="#f"/></g><use xlink:href="#g" transform="matrix(.7752 0 0 .7752 35.5 8.1)"/><use xlink:href="#h" transform="matrix(.77518 0 0 .77518 19.65 9.85)"/></svg>