<svg xmlns="http://www.w3.org/2000/svg" xmlns:xlink="http://www.w3.org/1999/xlink" preserveAspectRatio="none" viewBox="0 0 72 72"><defs><path id="a" fill="#CC9970" d="M59.15 47.4q-.9-.55-1.95-.2-3.05 1.05-4.65 3.35-1.6 2.25-1.55 5.4l.45 9.3q.1.8-.7 1.15-.8.4-1.25-.25-1.2-1.8-3.3-5.4l-1.85-3.3q-.95-1.7-6.25-12.35-5.25-10.5-5.5-10.9-1.05-1.8-2.4-2.65-1.5-.95-3-.4-1.7.6-2.35 1.9-.65 1.45.1 3.4l8.05 20-11.95-23.7q-.85-1.8-2.6-2.6t-3.3 0q-1.55.75-2 2.4-.45 1.65.4 3.5.35.8 11.5 23.5.45.9-.25 1.25-10.7-19.6-11.15-20.55-.95-1.75-2.25-2.45-1.5-.85-3.15-.1-1.6.8-2.15 2.45-.6 1.7.35 3.45L17 64.85q.3.75-.45 1.1L8.1 51q-2.15-2.75-5-1.15-3.1 1.8-1.45 5.85.35.8 9.15 18.15l4.25 7.75q4.65 8.25 6.9 10.75 2.05 2.3 3.55 3.35 2.25 1.7 5 2.55 2.7.85 6.05.7 3-.15 6-1.25l2.75-1.1q1.75-.7 2.7-1.3 2.5-1.3 4.85-3.05 2.4-1.85 4-3.65 1.85-2 2.85-3.95 1.05-1.85 1.55-3.8.4-1.3.5-3.1 0-1.5-.1-1.95l-.1-.7-1.45-26q-.05-1.1-.95-1.7z"/><path id="b" fill="#99674F" d="M21.5 45.6q.5 0 .4-.9-.6-4.3 1.7-7.45 1.2-1.6 2.75-2.5l-.55-.95q-3.75 2.35-4.7 6.65-.5 2.2-.25 3.85.1.9.4 1.2.1.1.25.1z"/><path id="c" fill="#CC9970" d="M97.45 31.3q-1.35.85-2.4 2.65Q85 54.2 83.3 57.2q-3.25 5.9-5.15 8.7-.45.65-1.25.3-.8-.4-.7-1.2l.45-9.3q.05-3.15-1.5-5.4-1.65-2.3-4.7-3.35-1.05-.35-1.95.25-.9.6-.95 1.65l-1.45 26-.1.7q-.1.45-.1 2 .1 1.95.45 3.05.6 2.05 1.6 3.85 1.05 1.95 2.85 3.9 1.6 1.8 4 3.65 2.45 1.8 4.85 3.1 1.55.85 2.65 1.25l2.75 1.15q3.1 1.05 6.05 1.25 3.2.15 6.05-.75 2.75-.85 5-2.55 1.5-1.05 3.55-3.35 3.6-4 11.15-18.5.5-.9 4.7-9.2 4.2-8.3 4.45-8.95 1.65-4.05-1.45-5.85-2.95-1.6-5 1.2l-8.45 14.9q-.45-.2-.5-.7l.05-.4 10.55-21.2q.95-1.75.35-3.45-.55-1.65-2.2-2.45-1.6-.75-3.1.1-1.3.7-2.25 2.45-.5.95-11.15 20.55-.75-.4-.25-1.3 3.15-6.55 11.5-23.45.85-1.85.4-3.5-.45-1.65-2-2.45-1.55-.75-3.3.05-1.75.8-2.6 2.6l-11.9 23.7 8-20q.75-2 .1-3.4-.65-1.35-2.35-1.95-1.5-.55-3 .4z"/><path id="d" fill="#99674F" d="M46 33.65l-.55 1q1.55.85 2.75 2.5 2.3 3.1 1.7 7.45v.45q.1.45.4.4l.3-.1q.3-.3.35-1.15.25-1.7-.25-3.85-.95-4.3-4.7-6.7z"/></defs><use transform="rotate(.078) scale(.56247)" xlink:href="#a"/><use xlink:href="#b"/><use transform="rotate(.078) scale(.56247)" xlink:href="#c"/><use xlink:href="#d"/></svg>