<svg xmlns="http://www.w3.org/2000/svg" xmlns:xlink="http://www.w3.org/1999/xlink" preserveAspectRatio="none" viewBox="0 0 72 72"><defs><path fill="#563E37" d="M106.9 66.05h-3.6v20.3q4.75 0 7.85-2.4 3.6-2.8 3.6-8.05 0-5.3-3.9-8.1l-3.95-1.75z" id="a"/><path fill="#563E37" d="M24.7 66.05h-3.65l-3.9 1.75q-3.95 2.8-3.95 8.1 0 5.25 3.6 8.05 3.1 2.4 7.9 2.4v-20.3z" id="b"/><path fill="#8E726A" d="M106.75 73.8q0-30.45-8.65-45.45Q87.85 10.6 64 10.6q-23.9 0-34.15 17.75-8.65 15-8.65 45.45 0 25.9 14.6 38.45Q47.05 122 64 122q16.8 0 28.1-9.65 14.65-12.55 14.65-38.55z" id="c"/><path fill="#444" d="M40.15 72.35q-1.7 2-1.7 4.85 0 2.9 1.7 4.9 1.65 2 4.05 2 2.35 0 4.05-2 1.65-2.05 1.65-4.9 0-2.85-1.65-4.85-1.7-2.05-4.05-2.05-2.4 0-4.05 2.05z" id="d"/><path fill="#444" d="M87.85 72.35q-1.7-2.05-4.05-2.05-2.4 0-4.05 2.05-1.7 2-1.7 4.85 0 2.85 1.7 4.9 1.65 2 4.05 2 2.35 0 4.05-2 1.65-2 1.65-4.9 0-2.85-1.65-4.85z" id="e"/><path fill="#513F35" d="M63.95 108.75q4.9 0 9-2.15 3.2-1.7 4.5-3.7.7-1.05.35-1.7-.35-.65-1.45-.65H51.6q-1.1 0-1.45.65-.35.65.35 1.7 1.3 2 4.5 3.7 4.1 2.15 8.95 2.15z" id="f"/><path fill="#563E37" d="M58 90q-.65-.15-.9.3-.3.4-.05.9.7 1.15 2.4 2.2 2.2 1.35 4.55 1.35 2.35 0 4.5-1.35 1.7-1.05 2.4-2.2.25-.5 0-.9-.3-.45-.95-.3-3.15.9-5.95.9-2.85 0-6-.9z" id="g"/><path fill="#232020" d="M63.35 24.5v-.8q-.4-6.25-5.65-10.85-7.2-6.3-21.15-6.5H35.5q-13.95.2-21.1 6.5-5.3 4.6-5.65 10.85-.047.378-.05.8v14.55q.35-.3.95-.75.4-.35.95-.6l.4-.2 1.05 6.95q5.737-8.945 7.35-18.75 4.566 2.98 8.3 4.25 3.739 1.27 7.8 1.2h1.05q6.7-.05 12.3-.7l4.1-.45q.1 0 .2.1L60 44.45l1.05-6.95.45.2q.5.25.9.55.65.5.95.8V24.5z" id="h"/><path fill="#232020" d="M78.85 102.7q.8-.05 1.65-.1.8-.1.95-.95.15-.8-1.4-2.1-7-5.8-16.05-4.8-9-1-16 4.8-1.55 1.3-1.4 2.1.15.85.95.95.85.05 1.65.1h29.65z" id="i"/></defs><use xlink:href="#a" transform="matrix(.56247 0 0 .56247 0 -.85)"/><use xlink:href="#b" transform="matrix(.56247 0 0 .56247 0 -.85)"/><use xlink:href="#c" transform="translate(0 -.3) scale(.5625)"/><use xlink:href="#d" transform="translate(0 -.3) scale(.5625)"/><use xlink:href="#e" transform="translate(0 -.3) scale(.5625)"/><use xlink:href="#f" transform="translate(0 -.3) scale(.5625)"/><use xlink:href="#g" transform="translate(0 -.3) scale(.5625)"/><use xlink:href="#h" transform="translate(0 -.8)"/><use xlink:href="#i" transform="translate(0 -.3) scale(.5625)"/></svg>