<svg xmlns="http://www.w3.org/2000/svg" xmlns:xlink="http://www.w3.org/1999/xlink" preserveAspectRatio="none" viewBox="0 0 72 72"><defs><path id="a" fill="#CC9970" d="M24.4 63.2l.3-4.1-9.8 2.15-.65 1.75q-2 5.35-4.95 9.95l-6.45 10q-.7 1.05-.5 2.4.2 1.4 1.15 2.2 1.2.9 2.75.7 1.6-.2 2.4-1.45L24.4 63.2z"/><path id="b" fill="#B1C937" d="M35.95 71V49.85q-6.65 0-10.6 1.05-5.25 1.4-7.8 4.3-1.95 2.15-3.85 7.35L35.95 71z"/><path id="c" fill="#CC9970" d="M57 61.25l-9.8-2.15.3 4.1 15.75 23.6q.8 1.25 2.45 1.45 1.55.2 2.7-.7 1-.8 1.15-2.2.2-1.35-.5-2.4l-6.45-10q-2.95-4.6-4.95-9.95L57 61.25z"/><path id="d" fill="#B1C937" d="M35.95 49.85V71l22.25-8.45q-1.9-5.2-3.85-7.35-2.55-2.9-7.8-4.3-3.9-1.05-10.6-1.05z"/><path id="e" fill="#616161" d="M32.85 81.95H22.1v45.7h10.75v-45.7z"/><path id="f" fill="#444" d="M34.25 128v-3.5q0-1.65-1.15-2.8-1.2-1.2-2.85-1.2h-5.5q-1.7 0-2.85 1.2-1.15 1.15-1.15 2.8v3.5h13.5z"/><path id="g" fill="#616161" d="M49.7 81.9H39v45.75h10.7V81.9z"/><path id="h" fill="#444" d="M47.1 120.5h-5.5q-1.65 0-2.8 1.2-1.2 1.15-1.2 2.8v3.5h13.5v-3.5q0-1.65-1.15-2.8-1.2-1.2-2.85-1.2z"/><path id="i" fill="#99674F" d="M35.95 57.5q2.2 0 3.75-1.55 1.55-1.55 1.55-3.75v-4.5h-10.6v4.5q0 2.2 1.55 3.75 1.55 1.55 3.75 1.55z"/><path id="j" fill="#99674F" d="M18.05 29.4q1 .2 2.15.2 1.9 0 3-.5v-2.9q0-.6-.35-1.05-.4-.5-.95-.5h-3.35q-.55 0-.95.5-.35.5-.35 1.1v2.9l.8.25z"/><path id="k" fill="#616161" d="M28 46.1H12.45v8.7h6.05v-.5q0-.55.35-.9.4-.4 1-.4h.75q.6 0 .95.4.4.4.4.9v.5H28v-8.7z"/><path id="l" fill="#B1C937" d="M28 48.05v-12.9h-7.8v12.9H28z"/><path id="m" fill="#B1C937" d="M12.45 35.1v10.95h7.75V35.1h-7.75z"/><path id="n" fill="#99674F" d="M106.9 66.05h-3.6v20.3q4.75 0 7.85-2.4 3.6-2.8 3.6-8.05 0-5.3-3.9-8.1l-3.95-1.75z"/><path id="o" fill="#99674F" d="M24.7 66.05h-3.65l-3.9 1.75q-3.95 2.8-3.95 8.1 0 5.25 3.6 8.05 3.1 2.4 7.9 2.4v-20.3z"/><path id="p" fill="#CC9970" d="M106.75 73.8q0-30.45-8.65-45.45Q87.85 10.6 64 10.6q-23.9 0-34.15 17.75-8.65 15-8.65 45.45 0 25.9 14.6 38.45Q47.05 122 64 122q16.8 0 28.1-9.65 14.65-12.55 14.65-38.55z"/><path id="q" fill="#444" d="M40.15 72.35q-1.7 2-1.7 4.85 0 2.9 1.7 4.9 1.65 2 4.05 2 2.35 0 4.05-2 1.65-2.05 1.65-4.9 0-2.85-1.65-4.85-1.7-2.05-4.05-2.05-2.4 0-4.05 2.05z"/><path id="r" fill="#444" d="M87.85 72.35q-1.7-2.05-4.05-2.05-2.4 0-4.05 2.05-1.7 2-1.7 4.85 0 2.85 1.7 4.9 1.65 2 4.05 2 2.35 0 4.05-2 1.65-2 1.65-4.9 0-2.85-1.65-4.85z"/><path id="s" fill="#513F35" d="M63.95 108.75q4.9 0 9-2.15 3.2-1.7 4.5-3.7.7-1.05.35-1.7-.35-.65-1.45-.65H51.6q-1.1 0-1.45.65-.35.65.35 1.7 1.3 2 4.5 3.7 4.1 2.15 8.95 2.15z"/><path id="t" fill="#99674F" d="M58 90q-.65-.15-.9.3-.3.4-.05.9.7 1.15 2.4 2.2 2.2 1.35 4.55 1.35 2.35 0 4.5-1.35 1.7-1.05 2.4-2.2.25-.5 0-.9-.3-.45-.95-.3-3.15.9-5.95.9-2.85 0-6-.9z"/><path id="u" fill="#6D4C41" d="M57.2 19.2q-.35-4.8-4.4-8.4-5.6-4.85-16.4-5.05h-.8q-10.85.2-16.4 5.05-4.1 3.6-4.35 8.4-.05.35-.05.65V31.1q.25-.2.75-.55.3-.3.7-.5l.35-.15.8 5.4q4.45-6.95 5.7-14.55 3.5 2.35 6.45 3.3 2.9 1 6.05.95h.8q5.2-.05 9.55-.55l3.15-.35q.1 0 .15.1l5.35 11.1.8-5.4.35.15q.4.2.7.45l.75.6V19.85v-.65z"/><path id="v" fill="#CC9970" d="M24.4 63.2l.3-4.1-9.8 2.15-.65 1.75q-2 5.35-4.95 9.95l-6.45 10q-.7 1.05-.5 2.4.2 1.4 1.15 2.2 1.2.9 2.75.7 1.6-.2 2.4-1.45L24.4 63.2z"/><path id="w" fill="#00ACC1" d="M35.95 71V49.85q-6.65 0-10.6 1.05-5.25 1.4-7.8 4.3-1.95 2.15-3.85 7.35L35.95 71z"/><path id="x" fill="#CC9970" d="M57 61.25l-9.8-2.15.3 4.1 15.75 23.6q.8 1.25 2.45 1.45 1.55.2 2.7-.7 1-.8 1.15-2.2.2-1.35-.5-2.4l-6.45-10q-2.95-4.6-4.95-9.95L57 61.25z"/><path id="y" fill="#00ACC1" d="M35.95 49.85V71l22.25-8.45q-1.9-5.2-3.85-7.35-2.55-2.9-7.8-4.3-3.9-1.05-10.6-1.05z"/><path id="z" fill="#616161" d="M32.85 81.95H22.1v45.7h10.75v-45.7z"/><path id="A" fill="#444" d="M34.25 128v-3.5q0-1.65-1.15-2.8-1.2-1.2-2.85-1.2h-5.5q-1.7 0-2.85 1.2-1.15 1.15-1.15 2.8v3.5h13.5z"/><path id="B" fill="#616161" d="M49.7 81.9H39v45.75h10.7V81.9z"/><path id="C" fill="#444" d="M47.1 120.5h-5.5q-1.65 0-2.8 1.2-1.2 1.15-1.2 2.8v3.5h13.5v-3.5q0-1.65-1.15-2.8-1.2-1.2-2.85-1.2z"/><path id="D" fill="#99674F" d="M35.95 57.5q2.2 0 3.75-1.55 1.55-1.55 1.55-3.75v-4.5h-10.6v4.5q0 2.2 1.55 3.75 1.55 1.55 3.75 1.55z"/><path id="E" fill="#99674F" d="M18.05 29.4q1 .2 2.15.2 1.9 0 3-.5v-2.9q0-.6-.35-1.05-.4-.5-.95-.5h-3.35q-.55 0-.95.5-.35.5-.35 1.1v2.9l.8.25z"/><path id="F" fill="#616161" d="M28 46.1H12.45v8.7h6.05v-.5q0-.55.35-.9.4-.4 1-.4h.75q.6 0 .95.4.4.4.4.9v.5H28v-8.7z"/><path id="G" fill="#00ACC1" d="M28 48.05v-12.9h-7.8v12.9H28z"/><path id="H" fill="#00ACC1" d="M12.45 35.1v10.95h7.75V35.1h-7.75z"/><path id="I" fill="#99674F" d="M106.9 66.05h-3.6v20.3q4.75 0 7.85-2.4 3.6-2.8 3.6-8.05 0-5.3-3.9-8.1l-3.95-1.75z"/><path id="J" fill="#99674F" d="M24.7 66.05h-3.65l-3.9 1.75q-3.95 2.8-3.95 8.1 0 5.25 3.6 8.05 3.1 2.4 7.9 2.4v-20.3z"/><path id="K" fill="#CC9970" d="M106.75 73.8q0-30.45-8.65-45.45Q87.85 10.6 64 10.6q-23.9 0-34.15 17.75-8.65 15-8.65 45.45 0 25.9 14.6 38.45Q47.05 122 64 122q16.8 0 28.1-9.65 14.65-12.55 14.65-38.55z"/><path id="L" fill="#444" d="M40.15 72.35q-1.7 2-1.7 4.85 0 2.9 1.7 4.9 1.65 2 4.05 2 2.35 0 4.05-2 1.65-2.05 1.65-4.9 0-2.85-1.65-4.85-1.7-2.05-4.05-2.05-2.4 0-4.05 2.05z"/><path id="M" fill="#444" d="M87.85 72.35q-1.7-2.05-4.05-2.05-2.4 0-4.05 2.05-1.7 2-1.7 4.85 0 2.85 1.7 4.9 1.65 2 4.05 2 2.35 0 4.05-2 1.65-2 1.65-4.9 0-2.85-1.65-4.85z"/><path id="N" fill="#513F35" d="M63.95 108.75q4.9 0 9-2.15 3.2-1.7 4.5-3.7.7-1.05.35-1.7-.35-.65-1.45-.65H51.6q-1.1 0-1.45.65-.35.65.35 1.7 1.3 2 4.5 3.7 4.1 2.15 8.95 2.15z"/><path id="O" fill="#99674F" d="M58 90q-.65-.15-.9.3-.3.4-.05.9.7 1.15 2.4 2.2 2.2 1.35 4.55 1.35 2.35 0 4.5-1.35 1.7-1.05 2.4-2.2.25-.5 0-.9-.3-.45-.95-.3-3.15.9-5.95.9-2.85 0-6-.9z"/><path id="P" fill="#6D4C41" d="M57.2 19.2q-.35-4.8-4.4-8.4-5.6-4.85-16.4-5.05h-.8q-10.85.2-16.4 5.05-4.1 3.6-4.35 8.4-.05.35-.05.65V31.1q.25-.2.75-.55.3-.3.7-.5l.35-.15.8 5.4q4.45-6.95 5.7-14.55 3.5 2.35 6.45 3.3 2.9 1 6.05.95h.8q5.2-.05 9.55-.55l3.15-.35q.1 0 .15.1l5.35 11.1.8-5.4.35.15q.4.2.7.45l.75.6V19.85v-.65z"/></defs><use transform="translate(31.55 .05) scale(.5625)" xlink:href="#a"/><use transform="translate(31.55 .05) scale(.5625)" xlink:href="#b"/><use transform="translate(31.55 .05) scale(.5625)" xlink:href="#c"/><use transform="translate(31.55 .05) scale(.5625)" xlink:href="#d"/><use transform="matrix(.5625 0 0 .56345 31.55 0)" xlink:href="#e"/><use transform="translate(31.55 .05) scale(.5625)" xlink:href="#f"/><use transform="translate(31.55 .1) scale(.5625)" xlink:href="#g"/><use transform="translate(31.55 .05) scale(.5625)" xlink:href="#h"/><use transform="translate(31.55 .05) scale(.5625)" xlink:href="#i"/><use transform="translate(31.55 .05)" xlink:href="#j"/><use transform="translate(31.55 .05)" xlink:href="#k"/><use transform="translate(31.55 .05)" xlink:href="#l"/><use transform="matrix(1 0 0 1.18265 31.55 -6.35)" xlink:href="#m"/><use transform="matrix(.20903 0 0 .2088 38.2 2.55)" xlink:href="#n"/><use transform="matrix(.20903 0 0 .2088 38.2 2.55)" xlink:href="#o"/><use transform="matrix(.20917 0 0 .20894 38.2 2.75)" xlink:href="#p"/><use transform="matrix(.20917 0 0 .20894 38.4 2.75)" xlink:href="#q"/><use transform="matrix(.20917 0 0 .20894 38.4 2.75)" xlink:href="#r"/><use transform="matrix(.20917 0 0 .20894 38.4 2.75)" xlink:href="#s"/><use transform="matrix(.20917 0 0 .20894 38.4 2.75)" xlink:href="#t"/><use transform="matrix(.47963 0 0 .47937 34.3 2.2)" xlink:href="#u"/><use transform="translate(0 .05) scale(.5625)" xlink:href="#v"/><use transform="translate(0 .05) scale(.5625)" xlink:href="#w"/><use transform="translate(0 .05) scale(.5625)" xlink:href="#x"/><use transform="translate(0 .05) scale(.5625)" xlink:href="#y"/><use transform="scale(.5625 .56345)" xlink:href="#z"/><use transform="translate(0 .05) scale(.5625)" xlink:href="#A"/><use transform="translate(0 .1) scale(.5625)" xlink:href="#B"/><use transform="translate(0 .05) scale(.5625)" xlink:href="#C"/><use transform="translate(0 .05) scale(.5625)" xlink:href="#D"/><use transform="translate(0 .05)" xlink:href="#E"/><use transform="translate(0 .05)" xlink:href="#F"/><use transform="translate(0 .05)" xlink:href="#G"/><use transform="matrix(1 0 0 1.18265 0 -6.35)" xlink:href="#H"/><use transform="matrix(.20903 0 0 .2088 6.65 2.55)" xlink:href="#I"/><use transform="matrix(.20903 0 0 .2088 6.65 2.55)" xlink:href="#J"/><use transform="matrix(.20917 0 0 .20894 6.65 2.75)" xlink:href="#K"/><use transform="matrix(.20917 0 0 .20894 6.85 2.75)" xlink:href="#L"/><use transform="matrix(.20917 0 0 .20894 6.85 2.75)" xlink:href="#M"/><use transform="matrix(.20917 0 0 .20894 6.85 2.75)" xlink:href="#N"/><use transform="matrix(.20917 0 0 .20894 6.85 2.75)" xlink:href="#O"/><use transform="matrix(.47963 0 0 .47937 2.75 2.2)" xlink:href="#P"/></svg>