<svg xmlns="http://www.w3.org/2000/svg" xmlns:xlink="http://www.w3.org/1999/xlink" preserveAspectRatio="none" viewBox="0 0 72 72"><defs><path fill="#232020" d="M105.5 69.2q.6-13.7.6-24.1l-84 .35q0 11.45.8 25.7 1.65 28.5 5.7 42.45l72.6-.3q3.05-16.7 4.3-44.1z" id="a"/><path fill="#607D8B" d="M34.2 100.75q-13.8 6.15-13.8 17.4V128h87.15v-9.85q0-10.8-13.45-17.15-12.15-5.75-29.8-5.7-18.05.05-30.1 5.45z" id="b"/><path fill="#D8D8D8" d="M53.9 95.85l-4 .5L56.25 128h8.15V95.3q-5.4 0-10.5.55z" id="c"/><path fill="#D8D8D8" d="M78.1 96.35Q72.4 95.3 64 95.3V128h7.65l6.45-31.65z" id="d"/><path fill="#232020" d="M106.1 46.15q0-16.35-12.3-27.9-12.3-11.6-29.7-11.6t-29.7 11.6Q22.1 29.8 22.1 46.15q0 16.35 12.3 27.95 12.3 11.55 29.7 11.55T93.8 74.1q12.3-11.6 12.3-27.95z" id="e"/><path fill="#563E37" d="M35.35 59.9l2.05-.1q3.75 0 3.75-3.6v-5.4h-10.2v5.4q0 1.75 1.25 2.75 1.15.95 3.15.95z" id="f"/><path fill="#FFF" d="M78.25 96.35l-5.1-.65q0 1.2-.9 3.05-1 2-2.5 3.75-2.1 2.45-5.65 3.95l10.4 11.1 3.75-21.2z" id="g"/><path fill="#8E726A" d="M53.25 33.2q0-12.3-3.5-18.4Q45.6 7.65 36 7.65q-9.65 0-13.8 7.15-3.5 6.1-3.5 18.4 0 10.05 6.15 15.3 4.8 4.15 11.15 4.15 6.3 0 11.15-4.15 6.1-5.25 6.1-15.3z" id="h"/><path fill="#513F35" d="M54.85 78.15q-.8 0-1.05.5t.25 1.3q.95 1.45 3.35 2.7 3.05 1.65 6.7 1.65 3.6 0 6.65-1.65 2.4-1.25 3.35-2.7.5-.8.25-1.3t-1.05-.5H54.85z" id="i"/><path fill="#444" d="M53.6 60.75q0-2.1-1.25-3.6-1.25-1.55-3.05-1.55-1.75 0-3 1.55-1.25 1.5-1.25 3.6 0 2.15 1.25 3.7 1.25 1.5 3 1.5 1.8 0 3.05-1.55 1.25-1.5 1.25-3.65z" id="j"/><path fill="#444" d="M83.1 60.75q0-2.1-1.25-3.6-1.25-1.55-3-1.55t-3.05 1.55q-1.25 1.5-1.25 3.6 0 2.15 1.25 3.65 1.3 1.55 3.05 1.55 1.75 0 3-1.5 1.25-1.55 1.25-3.7z" id="k"/><path fill="#563E37" d="M38.9 39.65q-.1-.2-.35-.1-1.4.4-2.5.4-1.15 0-2.55-.4-.25-.1-.35.1-.15.2 0 .4.25.5.95.95.95.55 1.95.55.95 0 1.9-.55.7-.45 1-.95.05-.2-.05-.4z" id="l"/><path fill="#232020" d="M96.7 26.65q-2.4-4.85-7.65-9.7Q78.55 7.2 64.2 7.2q-14.3 0-24.8 9.5-5.25 4.7-7.65 9.45v29.7q14.1-2.4 27.75-10.95 7.85-4.85 13.65-10.4.2-.2.55-.15.3.05.4.3Q78.8 44.3 88.25 51q4.7 3.35 8.45 4.8V26.65z" id="m"/><path fill="#455A64" d="M70.05 128h7.25l11.5-11.95-4.75-6.6 7.1-4.7-4-6.35q-5.05-1.55-10.7-2.3l-6.4 31.9z" id="n"/><path fill="#FFF" d="M55 95.7l-5.05.65 3.75 21.2 10.35-11.1q-3.5-1.5-5.6-3.95-1.5-1.75-2.5-3.75-.95-1.9-.95-3.05z" id="o"/><path fill="#455A64" d="M51.75 96.1q-3.55.45-7.45 1.35l-3.2.8-4.05 6.45 7.1 4.7-4.75 6.6 11.45 12h7.3l-6.4-31.9z" id="p"/><path fill="#B7B7B7" d="M64.25 113.65q-.7 0-1.15.5-.5.5-.5 1.2t.5 1.15q.5.5 1.15.5.7 0 1.2-.5.5-.45.5-1.15t-.5-1.2q-.5-.5-1.2-.5z" id="q"/><path fill="#B7B7B7" d="M64.25 121.65q-.7 0-1.15.5-.5.5-.5 1.2t.5 1.15q.5.5 1.15.5.7 0 1.2-.5.5-.45.5-1.15t-.5-1.2q-.5-.5-1.2-.5z" id="r"/></defs><use xlink:href="#a" transform="scale(.5625)"/><use xlink:href="#b" transform="scale(.5625)"/><use xlink:href="#c" transform="scale(.5625)"/><use xlink:href="#d" transform="scale(.5625)"/><use xlink:href="#e" transform="scale(.5625)"/><use xlink:href="#f"/><use xlink:href="#g" transform="scale(.5625)"/><use xlink:href="#h"/><use xlink:href="#i" transform="scale(.5625)"/><use xlink:href="#j" transform="rotate(.078) scale(.56247)"/><use xlink:href="#k" transform="rotate(.078) scale(.56247)"/><use xlink:href="#l"/><use xlink:href="#m" transform="scale(.5625)"/><use xlink:href="#n" transform="scale(.5625)"/><use xlink:href="#o" transform="scale(.5625)"/><use xlink:href="#p" transform="scale(.5625)"/><use xlink:href="#q" transform="scale(.5625)"/><use xlink:href="#r" transform="scale(.5625)"/></svg>