<svg xmlns="http://www.w3.org/2000/svg" xmlns:xlink="http://www.w3.org/1999/xlink" preserveAspectRatio="none" viewBox="0 0 72 72"><defs><path id="a" fill="#444" d="M62.95 118.75l-10.05-12.8q-1.45 1.15-1.8 3.05-.4 1.95.7 3.3 2.3 2.9 3.5 4.1 1.95 2.05 3.5 2.6 1.25.45 2.55.3 1.05-.1 1.6-.55z"/><path id="b" fill="#444" d="M52.9 105.95l10.05 12.8q.55-.45.9-1.45.45-1.15.3-2.5-.15-1.7-1.65-4.05-.95-1.55-3.2-4.35-1.05-1.35-3.05-1.45-1.95-.1-3.35 1z"/><path id="c" fill="#FBC11B" d="M47.85 94.9q-1.95 0-3.3 1.35-1.35 1.4-1.35 3.3t1.35 3.3q1.35 1.35 3.3 1.35 1.9 0 3.3-1.35 1.35-1.4 1.35-3.3t-1.35-3.3q-1.4-1.35-3.3-1.35z"/><path id="d" fill="#AD6F43" d="M52.05 97.65l-7.4-17-10.4 4.75 9.4 16.2 8.4-3.95z"/><path id="e" fill="#AD6F43" d="M55.1 113.75l4.9-3.8-8.35-13.25-7.35 5.85 10.8 11.2z"/><path id="f" fill="#AD6F43" d="M33.5 80.6H22.8l3.6 43.4h8.3l-1.2-43.4z"/><path id="g" fill="#444" d="M35.8 124.35v-1.85q0-1.7-1.15-2.85-1.2-1.15-2.85-1.15H29q-1.65 0-2.8 1.15-1.2 1.15-1.2 2.85v1.85h10.8z"/><path id="h" fill="#47352D" d="M51.45 42.35l.25-10.9H17l.35 11.65Q18 55.95 19.7 62q1.15 4.1 2.5 5.35 1.7 1.55 4.45-.55l15.4-.15q2.85 2.2 5 .6Q49 65.8 49.7 61.9q1.25-7.25 1.75-19.55z"/><path id="i" fill="#FBC11B" d="M6.5 72q-.2 1.3.6 2.3.8 1.05 2.1 1.2 1.3.2 2.3-.6 1.05-.8 1.2-2.1.2-1.3-.6-2.3-.8-1.05-2.1-1.2-1.25-.2-2.3.6-1.05.8-1.2 2.1z"/><path id="j" fill="#AD6F43" d="M20.15 61.25q-2.4-3.3-2.7-3-3.9 4-10.2 12.05L12 74.45l1.15-1.25q1.45-1.55 5.55-5.2l3.8-3.4q-1.15-1.7-2.35-3.35z"/><path id="k" fill="#444" d="M34.4 72.4V54q-4.4 0-9.25.9-3.1.65-5.4 1.75-2.45 1.2-4.95 3.3l7.55 7.85 12.05 4.6z"/><path id="l" fill="#AD6F43" d="M22.5 81.95q-.05-1.15-.85-1.95l-6.35-6.5q-1.65-1.65-3.4-3.9l-4.65 4.9q5.8 5.9 10.2 9.7.95.95 2.25.9 1.35-.1 2.15-1.1.7-.9.65-2.05z"/><path id="m" fill="#FBC11B" d="M58.75 69.3q-1.3.15-2.1 1.2-.8 1-.6 2.3.15 1.3 1.2 2.1 1 .8 2.3.6 1.3-.15 2.1-1.2t.6-2.3q-.15-1.3-1.2-2.1t-2.3-.6z"/><path id="n" fill="#AD6F43" d="M51.3 58.25q-.3-.3-2.7 3-1.2 1.65-2.35 3.35l3.8 3.4q4.1 3.65 5.55 5.2l1.15 1.25 4.75-4.15q-6.35-8.05-10.2-12.05z"/><path id="o" fill="#444" d="M34.4 54v18.4l12-4.6 7.6-7.85q-2.55-2.15-4.95-3.3-2.3-1.1-5.45-1.75-4.85-.9-9.2-.9z"/><path id="p" fill="#AD6F43" d="M47.1 80q-.8.8-.85 1.95-.05 1.15.65 2.05.85 1 2.15 1.1 1.3.05 2.25-.9 4.4-3.8 10.2-9.7l-4.65-4.9q-1.75 2.25-3.4 3.9L47.1 80z"/><path id="q" fill="#444" d="M31.45 59.25v14.2h4.75v-14.2h-4.75z"/><path id="r" fill="#444" d="M36.75 82.95v-18h-14.4v18h14.4z"/><path id="s" fill="#444" d="M34.35 64.95v18h12v-18h-12z"/><path id="t" fill="#AD6F43" d="M26.75 62.3q3.15 2.3 7.65 2.3 4.45 0 7.6-2.3 3.15-2.3 3.15-5.55L45.1 56q-.55-.25-1.5-.5-3.45-.9-9.2-.9-5.8 0-9.25.9-.95.25-1.5.5l-.05.75q0 3.25 3.15 5.55z"/><path id="u" fill="#FBC11B" d="M34.4 60.25q2 0 3.3-1.2 1.3-1.25 1.3-3.2v-4.6h-9.25v4.6q0 1.95 1.35 3.2 1.3 1.2 3.3 1.2z"/><path id="v" fill="#E7A13D" d="M37 48.8h-5.2q-.9 0-1.5.8-.55.75-.55 1.7v4.5l1.25.35q1.6.3 3.4.3 2.8 0 4.6-.7V51.2q0-.95-.55-1.65-.6-.75-1.45-.75z"/><path id="w" fill="#7A4C32" d="M34.4 60.65q1.95 0 3.35-1.35 1.35-1.4 1.35-3.35v-4h-9.4v4q0 1.95 1.4 3.35 1.35 1.35 3.3 1.35z"/><path id="x" fill="#47352D" d="M46.65 42.4q5.1-4.6 5.1-11.05 0-6.45-5.1-11T34.4 15.8q-7.2 0-12.25 4.55-5.1 4.55-5.1 11t5.1 11.05q5.05 4.55 12.25 4.55 7.15 0 12.25-4.55z"/><path id="y" fill="#AD6F43" d="M25.3 14.15Q23.5 11 19.3 11t-6 3.15q-1.55 2.65-1.55 8 0 4.4 2.7 6.75 2.05 1.8 4.85 1.8 2.75 0 4.85-1.8 2.7-2.35 2.7-6.75 0-5.35-1.55-8z"/><path id="z" fill="#444" d="M29.8 39.85q0-.95-.55-1.6-.55-.65-1.3-.65-.8 0-1.35.65t-.55 1.6q0 .95.55 1.6.55.65 1.35.65.75 0 1.3-.65t.55-1.6z"/><path id="A" fill="#444" d="M42.2 38.25q-.55-.65-1.35-.65t-1.3.65q-.55.65-.55 1.6 0 .95.55 1.6.55.65 1.3.65.8 0 1.35-.65t.55-1.6q0-.95-.55-1.6z"/><path id="B" fill="#47352D" d="M45.05 35.9q2.05 1.45 3.7 2.1V25.2q-1.05-2.1-3.35-4.25-4.55-4.25-10.85-4.25t-10.9 4.15q-2.3 2.1-3.35 4.15v13q6.2-1.05 12.2-4.8 3.45-2.15 5.95-4.55.25-.25.45.05 2.05 4.2 6.15 7.2z"/><path id="C" fill="#513F35" d="M38.9 47.7q-.1-.2-.45-.2h-8.1q-.35 0-.45.2-.1.2.1.55.4.65 1.45 1.25 1.35.7 2.95.7t2.9-.7q1.05-.55 1.5-1.25.2-.35.1-.55z"/><path id="D" fill="#7A4C32" d="M34.4 44.6q-.9 0-1.95-.3-.2-.05-.3.1-.1.15 0 .3.2.35.75.7.75.45 1.5.45t1.5-.45q.55-.35.75-.7.1-.15 0-.3t-.3-.1q-1.05.3-1.95.3z"/><path id="E" fill="#2F2F2F" d="M30.9 12q0-3.45-1.6-6.75-1.55-3.15-2.85-3.15-1.35 0-2.85 3Q22 8.35 22 12q0 3.8 1.6 7 1.5 2.9 2.85 2.9 1.25 0 2.75-2.9 1.7-3.25 1.7-7z"/><path id="F" fill="#FF7CE5" d="M28.2 10l-1.75-3.15Q25.3 8.1 24.7 10q-1.2 3.85 1.75 7.3 2.9-3.45 1.75-7.3z"/><path id="G" fill="#2F2F2F" d="M45.2 5.1q-1.5-3-2.9-3-1.25 0-2.8 3.15Q37.85 8.6 37.85 12q0 3.75 1.7 7 1.5 2.9 2.75 2.9 1.4 0 2.9-2.9 1.6-3.15 1.6-7 0-3.65-1.6-6.9z"/><path id="H" fill="#FF7CE5" d="M42.3 6.85Q41.15 8.1 40.55 10q-1.15 3.85 1.75 7.3 2.95-3.45 1.75-7.3L42.3 6.85z"/><path id="I" fill="#2F2F2F" d="M47.65 26.25q.2-.2.05-.4-5.35-6.7-13.3-6.55-8.15-.15-13.3 6.55-.15.2 0 .4.2.15.4.05 4.15-2.45 6.4-3.2 2.35-.75 6.5-.9 4.1.15 6.45.9 2.3.75 6.45 3.2.2.1.35-.05z"/><path id="J" fill="#AD6F43" d="M57.35 108.5q-1.25 0-2.2.9-.9.95-.9 2.2 0 1.3.9 2.2.95.9 2.2.9 1.3 0 2.2-.9.9-.9.9-2.2 0-1.25-.9-2.2-.9-.9-2.2-.9z"/><path id="K" fill="#444" d="M35.35 91.1q2.05 0 4.35-2.3l6.65-5.85h-24l7.55 5.65q.55.55 2.2 1.4 2 1.1 3.2 1.1h.05z"/><path id="L" fill="#444" d="M22.35 82.95l1.45.75h20.85l1.7-.75-1.2-1.1-21.85.2-.95.9z"/><path id="M" fill="#444" d="M62.95 118.75l-10.05-12.8q-1.45 1.15-1.8 3.05-.4 1.95.7 3.3 2.3 2.9 3.5 4.1 1.95 2.05 3.5 2.6 1.25.45 2.55.3 1.05-.1 1.6-.55z"/><path id="N" fill="#444" d="M52.9 105.95l10.05 12.8q.55-.45.9-1.45.45-1.15.3-2.5-.15-1.7-1.65-4.05-.95-1.55-3.2-4.35-1.05-1.35-3.05-1.45-1.95-.1-3.35 1z"/><path id="O" fill="#FBC11B" d="M47.85 94.9q-1.95 0-3.3 1.35-1.35 1.4-1.35 3.3t1.35 3.3q1.35 1.35 3.3 1.35 1.9 0 3.3-1.35 1.35-1.4 1.35-3.3t-1.35-3.3q-1.4-1.35-3.3-1.35z"/><path id="P" fill="#AD6F43" d="M52.05 97.65l-7.4-17-10.4 4.75 9.4 16.2 8.4-3.95z"/><path id="Q" fill="#AD6F43" d="M55.1 113.75l4.9-3.8-8.35-13.25-7.35 5.85 10.8 11.2z"/><path id="R" fill="#AD6F43" d="M33.5 80.6H22.8l3.6 43.4h8.3l-1.2-43.4z"/><path id="S" fill="#444" d="M35.8 124.35v-1.85q0-1.7-1.15-2.85-1.2-1.15-2.85-1.15H29q-1.65 0-2.8 1.15-1.2 1.15-1.2 2.85v1.85h10.8z"/><path id="T" fill="#47352D" d="M51.45 42.35l.25-10.9H17l.35 11.65Q18 55.95 19.7 62q1.15 4.1 2.5 5.35 1.7 1.55 4.45-.55l15.4-.15q2.85 2.2 5 .6Q49 65.8 49.7 61.9q1.25-7.25 1.75-19.55z"/><path id="U" fill="#FBC11B" d="M6.5 72q-.2 1.3.6 2.3.8 1.05 2.1 1.2 1.3.2 2.3-.6 1.05-.8 1.2-2.1.2-1.3-.6-2.3-.8-1.05-2.1-1.2-1.25-.2-2.3.6-1.05.8-1.2 2.1z"/><path id="V" fill="#AD6F43" d="M20.15 61.25q-2.4-3.3-2.7-3-3.9 4-10.2 12.05L12 74.45l1.15-1.25q1.45-1.55 5.55-5.2l3.8-3.4q-1.15-1.7-2.35-3.35z"/><path id="W" fill="#444" d="M34.4 72.4V54q-4.4 0-9.25.9-3.1.65-5.4 1.75-2.45 1.2-4.95 3.3l7.55 7.85 12.05 4.6z"/><path id="X" fill="#AD6F43" d="M22.5 81.95q-.05-1.15-.85-1.95l-6.35-6.5q-1.65-1.65-3.4-3.9l-4.65 4.9q5.8 5.9 10.2 9.7.95.95 2.25.9 1.35-.1 2.15-1.1.7-.9.65-2.05z"/><path id="Y" fill="#FBC11B" d="M58.75 69.3q-1.3.15-2.1 1.2-.8 1-.6 2.3.15 1.3 1.2 2.1 1 .8 2.3.6 1.3-.15 2.1-1.2t.6-2.3q-.15-1.3-1.2-2.1t-2.3-.6z"/><path id="Z" fill="#AD6F43" d="M51.3 58.25q-.3-.3-2.7 3-1.2 1.65-2.35 3.35l3.8 3.4q4.1 3.65 5.55 5.2l1.15 1.25 4.75-4.15q-6.35-8.05-10.2-12.05z"/><path id="aa" fill="#444" d="M34.4 54v18.4l12-4.6 7.6-7.85q-2.55-2.15-4.95-3.3-2.3-1.1-5.45-1.75-4.85-.9-9.2-.9z"/><path id="ab" fill="#AD6F43" d="M47.1 80q-.8.8-.85 1.95-.05 1.15.65 2.05.85 1 2.15 1.1 1.3.05 2.25-.9 4.4-3.8 10.2-9.7l-4.65-4.9q-1.75 2.25-3.4 3.9L47.1 80z"/><path id="ac" fill="#444" d="M31.45 59.25v14.2h4.75v-14.2h-4.75z"/><path id="ad" fill="#444" d="M36.75 82.95v-18h-14.4v18h14.4z"/><path id="ae" fill="#444" d="M34.35 64.95v18h12v-18h-12z"/><path id="af" fill="#AD6F43" d="M26.75 62.3q3.15 2.3 7.65 2.3 4.45 0 7.6-2.3 3.15-2.3 3.15-5.55L45.1 56q-.55-.25-1.5-.5-3.45-.9-9.2-.9-5.8 0-9.25.9-.95.25-1.5.5l-.05.75q0 3.25 3.15 5.55z"/><path id="ag" fill="#FBC11B" d="M34.4 60.25q2 0 3.3-1.2 1.3-1.25 1.3-3.2v-4.6h-9.25v4.6q0 1.95 1.35 3.2 1.3 1.2 3.3 1.2z"/><path id="ah" fill="#E7A13D" d="M37 48.8h-5.2q-.9 0-1.5.8-.55.75-.55 1.7v4.5l1.25.35q1.6.3 3.4.3 2.8 0 4.6-.7V51.2q0-.95-.55-1.65-.6-.75-1.45-.75z"/><path id="ai" fill="#7A4C32" d="M34.4 60.65q1.95 0 3.35-1.35 1.35-1.4 1.35-3.35v-4h-9.4v4q0 1.95 1.4 3.35 1.35 1.35 3.3 1.35z"/><path id="aj" fill="#47352D" d="M46.65 42.4q5.1-4.6 5.1-11.05 0-6.45-5.1-11T34.4 15.8q-7.2 0-12.25 4.55-5.1 4.55-5.1 11t5.1 11.05q5.05 4.55 12.25 4.55 7.15 0 12.25-4.55z"/><path id="ak" fill="#AD6F43" d="M25.3 14.15Q23.5 11 19.3 11t-6 3.15q-1.55 2.65-1.55 8 0 4.4 2.7 6.75 2.05 1.8 4.85 1.8 2.75 0 4.85-1.8 2.7-2.35 2.7-6.75 0-5.35-1.55-8z"/><path id="al" fill="#444" d="M29.8 39.85q0-.95-.55-1.6-.55-.65-1.3-.65-.8 0-1.35.65t-.55 1.6q0 .95.55 1.6.55.65 1.35.65.75 0 1.3-.65t.55-1.6z"/><path id="am" fill="#444" d="M42.2 38.25q-.55-.65-1.35-.65t-1.3.65q-.55.65-.55 1.6 0 .95.55 1.6.55.65 1.3.65.8 0 1.35-.65t.55-1.6q0-.95-.55-1.6z"/><path id="an" fill="#47352D" d="M45.05 35.9q2.05 1.45 3.7 2.1V25.2q-1.05-2.1-3.35-4.25-4.55-4.25-10.85-4.25t-10.9 4.15q-2.3 2.1-3.35 4.15v13q6.2-1.05 12.2-4.8 3.45-2.15 5.95-4.55.25-.25.45.05 2.05 4.2 6.15 7.2z"/><path id="ao" fill="#513F35" d="M38.9 47.7q-.1-.2-.45-.2h-8.1q-.35 0-.45.2-.1.2.1.55.4.65 1.45 1.25 1.35.7 2.95.7t2.9-.7q1.05-.55 1.5-1.25.2-.35.1-.55z"/><path id="ap" fill="#7A4C32" d="M34.4 44.6q-.9 0-1.95-.3-.2-.05-.3.1-.1.15 0 .3.2.35.75.7.75.45 1.5.45t1.5-.45q.55-.35.75-.7.1-.15 0-.3t-.3-.1q-1.05.3-1.95.3z"/><path id="aq" fill="#2F2F2F" d="M30.9 12q0-3.45-1.6-6.75-1.55-3.15-2.85-3.15-1.35 0-2.85 3Q22 8.35 22 12q0 3.8 1.6 7 1.5 2.9 2.85 2.9 1.25 0 2.75-2.9 1.7-3.25 1.7-7z"/><path id="ar" fill="#FF7CE5" d="M28.2 10l-1.75-3.15Q25.3 8.1 24.7 10q-1.2 3.85 1.75 7.3 2.9-3.45 1.75-7.3z"/><path id="as" fill="#2F2F2F" d="M45.2 5.1q-1.5-3-2.9-3-1.25 0-2.8 3.15Q37.85 8.6 37.85 12q0 3.75 1.7 7 1.5 2.9 2.75 2.9 1.4 0 2.9-2.9 1.6-3.15 1.6-7 0-3.65-1.6-6.9z"/><path id="at" fill="#FF7CE5" d="M42.3 6.85Q41.15 8.1 40.55 10q-1.15 3.85 1.75 7.3 2.95-3.45 1.75-7.3L42.3 6.85z"/><path id="au" fill="#2F2F2F" d="M47.65 26.25q.2-.2.05-.4-5.35-6.7-13.3-6.55-8.15-.15-13.3 6.55-.15.2 0 .4.2.15.4.05 4.15-2.45 6.4-3.2 2.35-.75 6.5-.9 4.1.15 6.45.9 2.3.75 6.45 3.2.2.1.35-.05z"/><path id="av" fill="#AD6F43" d="M57.35 108.5q-1.25 0-2.2.9-.9.95-.9 2.2 0 1.3.9 2.2.95.9 2.2.9 1.3 0 2.2-.9.9-.9.9-2.2 0-1.25-.9-2.2-.9-.9-2.2-.9z"/><path id="aw" fill="#444" d="M35.35 91.1q2.05 0 4.35-2.3l6.65-5.85h-24l7.55 5.65q.55.55 2.2 1.4 2 1.1 3.2 1.1h.05z"/><path id="ax" fill="#444" d="M22.35 82.95l1.45.75h20.85l1.7-.75-1.2-1.1-21.85.2-.95.9z"/></defs><use transform="matrix(.56245 0 0 .56245 -.05 0)" xlink:href="#a"/><use transform="matrix(.56245 0 0 .56245 -.05 0)" xlink:href="#b"/><use transform="translate(-.05) scale(.5625)" xlink:href="#c"/><use transform="translate(-.05) scale(.5625)" xlink:href="#d"/><use transform="translate(-.05) scale(.5625)" xlink:href="#e"/><use transform="matrix(.56245 0 0 .56245 -.05 0)" xlink:href="#f"/><use transform="matrix(.56245 0 0 .56245 -.05 0)" xlink:href="#g"/><use transform="translate(-.05) scale(.5625)" xlink:href="#h"/><use transform="translate(-.05) scale(.5625)" xlink:href="#i"/><use transform="translate(-.05) scale(.5625)" xlink:href="#j"/><use transform="translate(-.05) scale(.5625)" xlink:href="#k"/><use transform="translate(-.05) scale(.5625)" xlink:href="#l"/><use transform="translate(-.05) scale(.5625)" xlink:href="#m"/><use transform="translate(-.05) scale(.5625)" xlink:href="#n"/><use transform="translate(-.05) scale(.5625)" xlink:href="#o"/><use transform="translate(-.05) scale(.5625)" xlink:href="#p"/><use transform="translate(-.05) scale(.5625)" xlink:href="#q"/><use transform="translate(-.05) scale(.5625)" xlink:href="#r"/><use transform="translate(-.05) scale(.5625)" xlink:href="#s"/><use transform="translate(-.05) scale(.5625)" xlink:href="#t"/><use transform="matrix(.56245 0 0 .56245 -.05 0)" xlink:href="#u"/><use transform="matrix(.56245 0 0 .56245 -.05 0)" xlink:href="#v"/><use transform="translate(-.05) scale(.5625)" xlink:href="#w"/><use transform="translate(-.05) scale(.5625)" xlink:href="#x"/><use xlink:href="#y"/><use transform="translate(-.05) scale(.5625)" xlink:href="#z"/><use transform="translate(-.05) scale(.5625)" xlink:href="#A"/><use transform="translate(-.05) scale(.5625)" xlink:href="#B"/><use transform="translate(-.05) scale(.5625)" xlink:href="#C"/><use transform="translate(-.05) scale(.5625)" xlink:href="#D"/><use transform="matrix(.5624 0 0 .5624 -.05 0)" xlink:href="#E"/><use transform="matrix(.5624 0 0 .5624 -.05 0)" xlink:href="#F"/><use transform="matrix(.5624 0 0 .5624 -.05 0)" xlink:href="#G"/><use transform="matrix(.5624 0 0 .5624 -.05 0)" xlink:href="#H"/><use transform="matrix(.56245 0 0 .56245 -.05 0)" xlink:href="#I"/><use transform="translate(-.05) scale(.5625)" xlink:href="#J"/><use transform="translate(-.05) scale(.5625)" xlink:href="#K"/><use transform="translate(-.05) scale(.5625)" xlink:href="#L"/><use transform="matrix(.56247 0 0 .56247 32.3 0)" xlink:href="#M"/><use transform="matrix(.56247 0 0 .56247 32.3 0)" xlink:href="#N"/><use transform="translate(32.3) scale(.5625)" xlink:href="#O"/><use transform="translate(32.3) scale(.5625)" xlink:href="#P"/><use transform="translate(32.3) scale(.5625)" xlink:href="#Q"/><use transform="matrix(.56247 0 0 .56247 32.3 0)" xlink:href="#R"/><use transform="matrix(.56247 0 0 .56247 32.3 0)" xlink:href="#S"/><use transform="translate(32.3) scale(.5625)" xlink:href="#T"/><use transform="translate(32.3) scale(.5625)" xlink:href="#U"/><use transform="translate(32.3) scale(.5625)" xlink:href="#V"/><use transform="translate(32.3) scale(.5625)" xlink:href="#W"/><use transform="translate(32.3) scale(.5625)" xlink:href="#X"/><use transform="translate(32.3) scale(.5625)" xlink:href="#Y"/><use transform="translate(32.3) scale(.5625)" xlink:href="#Z"/><use transform="translate(32.3) scale(.5625)" xlink:href="#aa"/><use transform="translate(32.3) scale(.5625)" xlink:href="#ab"/><use transform="translate(32.3) scale(.5625)" xlink:href="#ac"/><use transform="translate(32.3) scale(.5625)" xlink:href="#ad"/><use transform="translate(32.3) scale(.5625)" xlink:href="#ae"/><use transform="translate(32.3) scale(.5625)" xlink:href="#af"/><use transform="matrix(.56247 0 0 .56247 32.3 0)" xlink:href="#ag"/><use transform="matrix(.56247 0 0 .56247 32.3 0)" xlink:href="#ah"/><use transform="translate(32.3) scale(.5625)" xlink:href="#ai"/><use transform="translate(32.3) scale(.5625)" xlink:href="#aj"/><use transform="translate(32.35)" xlink:href="#ak"/><use transform="translate(32.3) scale(.5625)" xlink:href="#al"/><use transform="translate(32.3) scale(.5625)" xlink:href="#am"/><use transform="translate(32.3) scale(.5625)" xlink:href="#an"/><use transform="translate(32.3) scale(.5625)" xlink:href="#ao"/><use transform="translate(32.3) scale(.5625)" xlink:href="#ap"/><use transform="matrix(.56244 0 0 .56244 32.3 0)" xlink:href="#aq"/><use transform="matrix(.56244 0 0 .56244 32.3 0)" xlink:href="#ar"/><use transform="matrix(.56244 0 0 .56244 32.3 0)" xlink:href="#as"/><use transform="matrix(.56244 0 0 .56244 32.3 0)" xlink:href="#at"/><use transform="matrix(.56247 0 0 .56247 32.3 0)" xlink:href="#au"/><use transform="translate(32.3) scale(.5625)" xlink:href="#av"/><use transform="translate(32.3) scale(.5625)" xlink:href="#aw"/><use transform="translate(32.3) scale(.5625)" xlink:href="#ax"/></svg>