<svg xmlns="http://www.w3.org/2000/svg" xmlns:xlink="http://www.w3.org/1999/xlink" preserveAspectRatio="none" viewBox="0 0 72 72"><defs><path fill="#00ACC1" d="M8.85 69.75V72h54.5v-2.25q0-7.45-5.35-12.55-4.95-4.6-12.95-6-9.1-1.55-18.45.7-7.75 1.8-12.45 6.1-5.3 4.85-5.3 11.75z" id="b"/><path fill="#00ACC1" d="M14.2 57.2q-5.35 5.05-5.35 12.55V72h54.5v-2.25q0-6.9-5.3-11.75-4.7-4.3-12.5-6.1-9.35-2.25-18.4-.7-8.05 1.4-12.95 6z" id="c"/><path fill="#DBA689" d="M64 74.15q2.9 0 4.95-2.05Q71 70.05 71 67.15v-6.4H57v6.4q0 2.9 2.05 4.95 2.05 2.05 4.95 2.05z" id="d"/><path fill="#DBA689" d="M106.9 66.05h-3.6v20.3q4.75 0 7.85-2.4 3.6-2.8 3.6-8.05 0-5.3-3.9-8.1l-3.95-1.75z" id="e"/><path fill="#DBA689" d="M24.7 66.05h-3.65l-3.9 1.75q-3.95 2.8-3.95 8.1 0 5.25 3.6 8.05 3.1 2.4 7.9 2.4v-20.3z" id="f"/><path fill="#FADCBC" d="M106.75 73.8q0-30.45-8.65-45.45Q87.85 10.6 64 10.6q-23.9 0-34.15 17.75-8.65 15-8.65 45.45 0 25.9 14.6 38.45Q47.05 122 64 122q16.8 0 28.1-9.65 14.65-12.55 14.65-38.55z" id="g"/><path fill="#444" d="M40.15 72.35q-1.7 2-1.7 4.85 0 2.9 1.7 4.9 1.65 2 4.05 2 2.35 0 4.05-2 1.65-2.05 1.65-4.9 0-2.85-1.65-4.85-1.7-2.05-4.05-2.05-2.4 0-4.05 2.05z" id="h"/><path fill="#444" d="M87.85 72.35q-1.7-2.05-4.05-2.05-2.4 0-4.05 2.05-1.7 2-1.7 4.85 0 2.85 1.7 4.9 1.65 2 4.05 2 2.35 0 4.05-2 1.65-2 1.65-4.9 0-2.85-1.65-4.85z" id="i"/><path fill="#513F35" d="M63.95 108.75q4.9 0 9-2.15 3.2-1.7 4.5-3.7.7-1.05.35-1.7-.35-.65-1.45-.65H51.6q-1.1 0-1.45.65-.35.65.35 1.7 1.3 2 4.5 3.7 4.1 2.15 8.95 2.15z" id="j"/><path fill="#DBA689" d="M58 90q-.65-.15-.9.3-.3.4-.05.9.7 1.15 2.4 2.2 2.2 1.35 4.55 1.35 2.35 0 4.5-1.35 1.7-1.05 2.4-2.2.25-.5 0-.9-.3-.45-.95-.3-3.15.9-5.95.9-2.85 0-6-.9z" id="k"/><path fill="#312D2D" d="M63.35 24.5v-.8q-.4-6.25-5.65-10.85-7.2-6.3-21.15-6.5H35.5q-13.95.2-21.1 6.5-5.3 4.6-5.65 10.85-.05.4-.05.8v14.55q.35-.3.95-.75.4-.35.95-.6l.4-.2 1.05 6.95Q17.8 35.5 19.4 25.7q4.55 3 8.3 4.25 3.75 1.25 7.8 1.2h1.05q6.7-.05 12.3-.7l4.1-.45q.1 0 .2.1L60 44.45l1.05-6.95.45.2q.5.25.9.55.65.5.95.8V24.5z" id="l"/><path fill="url(#a)" d="M36.05 39.25q-7.45 0-12.65 4.75-5.25 4.7-5.25 11.45 0 6.7 5.25 11.45 5.2 4.75 12.65 4.75 7.35 0 12.6-4.75t5.25-11.45q0-6.75-5.25-11.45-5.25-4.75-12.6-4.75z" id="m"/><radialGradient id="a" gradientUnits="userSpaceOnUse" cx="0" cy="0" r="16.175" fx="0" fy="0" gradientTransform="matrix(1 0 0 .898 36.05 55.75)" spreadMethod="pad"><stop offset="0%" stop-color="#FFF"/><stop offset="100%" stop-color="#FFF" stop-opacity="0"/></radialGradient><g id="n"><path fill="#00ACC1" d="M39.1 62.75h-4.7q-1.4 0-2.45 1.05-1 .95-1.05 2.5-.15 3.25-.4 5.7h12.55q-.3-2.45-.4-5.7-.05-1.55-1.1-2.5-1-1.05-2.45-1.05z"/><path fill="#4DD0E1" d="M11.2 72h19.3q.25-2.45.4-5.7.05-1.55 1.05-2.5 1.05-1.05 2.45-1.05h4.7q1.45 0 2.45 1.05 1.05.95 1.1 2.5.1 3.25.4 5.7H60.9V52.4q0-1.45-1-2.55-1-1-2.4-1H14.6q-1.4 0-2.4 1-1 1.1-1 2.55V72z"/></g></defs><use xlink:href="#b" transform="matrix(1.03345 0 0 1.03345 -1.3 -2.4)"/><use xlink:href="#c" transform="matrix(1.03345 0 0 1.03345 -1.3 -2.4)"/><use xlink:href="#d" transform="matrix(.88004 0 0 .88004 -20.3 -8.1)"/><use xlink:href="#e" transform="matrix(.42915 0 0 .42915 8.55 -3.95)"/><use xlink:href="#f" transform="matrix(.42915 0 0 .42915 8.55 -3.95)"/><use xlink:href="#g" transform="matrix(.42923 0 0 .42924 8.55 -3.55)"/><use xlink:href="#h" transform="matrix(.42923 0 0 .42924 8.55 -3.55)"/><use xlink:href="#i" transform="matrix(.42923 0 0 .42924 8.55 -3.55)"/><use xlink:href="#j" transform="matrix(.42923 0 0 .42924 8.55 -3.55)"/><use xlink:href="#k" transform="matrix(.42923 0 0 .42924 8.55 -3.55)"/><use xlink:href="#l" transform="matrix(.7631 0 0 .76312 8.55 -3.85)"/><use xlink:href="#m"/><use xlink:href="#n" transform="translate(-.05)"/></svg>