<svg xmlns="http://www.w3.org/2000/svg" xmlns:xlink="http://www.w3.org/1999/xlink" preserveAspectRatio="none" viewBox="0 0 72 72"><defs><path fill="#47352D" d="M103.7 69.2q.6-13.7.6-24.1l-84 .3q0 11.45.8 25.7 1.65 28.5 5.7 42.45l72.65-.3q3.05-16.65 4.25-44.05z" id="a"/><path fill="#424242" d="M32.55 100.7q-13.8 6.15-13.8 17.4v9.9h87.15v-9.9q0-10.75-13.45-17.1-12.15-5.75-29.8-5.75-18.1.05-30.1 5.45z" id="b"/><path fill="#47352D" d="M104.3 46.15q0-16.4-12.3-27.95T62.3 6.65q-17.4 0-29.7 11.55T20.3 46.15q0 16.35 12.3 27.95 12.3 11.55 29.7 11.55T92 74.1q12.3-11.6 12.3-27.95z" id="c"/><path fill="#7A4C32" d="M40.15 50.75h-10.2v5.4q0 1.85 1.35 3.15 1.4 1.3 3.3 1.3h.9q1.95 0 3.3-1.3 1.35-1.3 1.35-3.15v-5.4z" id="d"/><path fill="#AD6F43" d="M46.2 48.5q6.15-5.25 6.15-15.3 0-12.3-3.55-18.4-4.1-7.15-13.75-7.15t-13.8 7.15q-3.5 6.1-3.5 18.4 0 10.05 6.2 15.3 4.8 4.15 11.1 4.15T46.2 48.5z" id="e"/><path fill="#444" d="M53.2 78.15q-.85 0-1.1.5-.25.5.25 1.25 1 1.5 3.4 2.75 3.05 1.6 6.65 1.6 3.65 0 6.7-1.6 2.35-1.25 3.35-2.75.5-.75.25-1.25t-1.05-.5H53.2z" id="f"/><path fill="#444" d="M51.9 60.75q0-2.15-1.25-3.65t-3-1.5q-1.75 0-3.05 1.5-1.25 1.5-1.25 3.65t1.25 3.65q1.3 1.5 3.05 1.5 1.75 0 3-1.5t1.25-3.65z" id="g"/><path fill="#444" d="M74.15 57.1q-1.25 1.5-1.25 3.65t1.25 3.65q1.25 1.5 3 1.5t3.05-1.5q1.25-1.5 1.25-3.65T80.2 57.1q-1.3-1.5-3.05-1.5-1.75 0-3 1.5z" id="h"/><path fill="#7A4C32" d="M67.5 70.5q-.2-.35-.7-.2-2.25.65-4.45.65t-4.45-.65q-.45-.15-.7.2-.2.35 0 .65.5.85 1.75 1.65 1.6 1 3.4 1 1.8 0 3.4-1Q67 72 67.5 71.15q.2-.35 0-.65z" id="i"/><path fill="#47352D" d="M94.8 26.6q-2.4-4.85-7.65-9.7Q76.6 7.2 62.3 7.2q-14.35 0-24.85 9.5-5.25 4.7-7.65 9.45V55.8q14.15-2.4 27.8-10.9 7.8-4.9 13.65-10.45.25-.2.55-.15.3.05.4.35Q76.9 44.3 86.35 51q4.7 3.35 8.45 4.8V26.6z" id="j"/><path fill="#262626" d="M92.25 15.3l20.55-3.5-.05-2.55-50.1 7.25h-.05L12.5 9.25l-.05 2.55 20.05 3.5-1.7 4.85q5.2 2.3 11.75 4.15 10.5 3 20.05 3.25 15.4-.4 31.35-7.4l-1.7-4.85z" id="k"/><path fill="#424143" d="M62.6 16.5h.05l50.1-7.25-50-9.2-.15.05-.15-.05-49.95 9.2 50.1 7.25z" id="l"/><path fill="#FBC11B" d="M114.95 46.5q-.5-.55-1.3-.55-.75 0-1.25.55-.55.5-.55 1.25v7.85q0 .75.55 1.3.5.5 1.25.5.8 0 1.3-.5.55-.55.55-1.3v-7.85q0-.75-.55-1.25z" id="m"/><path fill="#FBC11B" d="M111.35 46.5q-.55-.55-1.3-.55-.8 0-1.3.55-.55.5-.55 1.25v7.85q0 .75.55 1.3.55.5 1.3.5t1.3-.5q.5-.55.5-1.3v-7.85q0-.75-.5-1.25z" id="n"/><path fill="#E49500" d="M112.5 46.5q-.55-.55-1.3-.55t-1.25.55q-.55.5-.55 1.25v7.85q0 .75.55 1.3.5.5 1.25.5t1.3-.5q.5-.55.5-1.3v-7.85q0-.75-.5-1.25z" id="o"/><path fill="#E49500" d="M113.9 46.5q-.55-.55-1.3-.55-.8 0-1.3.55-.55.5-.55 1.25v7.85q0 .75.55 1.3.55.5 1.3.5t1.3-.5q.5-.55.5-1.3v-7.85q0-.75-.5-1.25z" id="p"/><path fill="#FBC11B" d="M113.15 46.5q-.55-.55-1.3-.55t-1.25.55q-.55.5-.55 1.25v9.5q0 .75.55 1.3.5.55 1.25.55t1.3-.55q.5-.55.5-1.3v-9.5q0-.75-.5-1.25z" id="q"/><path fill="#E49500" d="M111.85 43.35q-.85 0-1.45.6t-.6 1.45q0 .85.6 1.45t1.45.6q.85 0 1.45-.6t.6-1.45q0-.85-.6-1.45t-1.45-.6z" id="r"/><path fill="#FBC11B" d="M111.85 42.8q-.85 0-1.45.6t-.6 1.45q0 .85.6 1.5.6.6 1.45.6t1.45-.6q.6-.65.6-1.5t-.6-1.45q-.6-.6-1.45-.6z" id="s"/><path fill="#262626" d="M110.95 9.45v35h.05q0 .35.25.55.25.25.6.25.8 0 .9-.8v-35h-1.8z" id="t"/><path fill="#424242" d="M52.45 128h19.7V95.7l-9.85 12-9.85-12V128z" id="u"/></defs><use xlink:href="#a" transform="scale(.56248)"/><use xlink:href="#b" transform="scale(.56248)"/><use xlink:href="#c" transform="scale(.56248)"/><use xlink:href="#d"/><use xlink:href="#e"/><use xlink:href="#f" transform="scale(.56248)"/><use xlink:href="#g" transform="scale(.56248)"/><use xlink:href="#h" transform="scale(.56248)"/><use xlink:href="#i" transform="scale(.56248)"/><use xlink:href="#j" transform="scale(.56248)"/><use xlink:href="#k" transform="scale(.56248)"/><use xlink:href="#l" transform="scale(.56248)"/><use xlink:href="#m" transform="scale(.56248)"/><use xlink:href="#n" transform="scale(.56248)"/><use xlink:href="#o" transform="scale(.56248)"/><use xlink:href="#p" transform="scale(.56248)"/><use xlink:href="#q" transform="scale(.56248)"/><use xlink:href="#r" transform="scale(.56248)"/><use xlink:href="#s" transform="scale(.56248)"/><use xlink:href="#t" transform="scale(.56248)"/><use xlink:href="#u" transform="scale(.56248)"/></svg>