<svg xmlns="http://www.w3.org/2000/svg" xmlns:xlink="http://www.w3.org/1999/xlink" preserveAspectRatio="none" viewBox="0 0 72 72"><defs><path fill="#47352D" d="M102.5 93.4q16-15.05 16-36.3 0-21.2-16-36.25Q86.55 5.8 64 5.8T25.45 20.85Q9.5 35.85 9.5 57.1t15.95 36.3q16 15.05 38.55 15.05 22.55 0 38.5-15.05z" id="a"/><path fill="#7A4C32" d="M108.6 69.8h-3.8v21.4q5.05 0 8.3-2.55 3.8-2.95 3.8-8.45 0-5.6-4.15-8.55l-4.15-1.85z" id="b"/><path fill="#7A4C32" d="M23.15 69.8h-3.8l-4.15 1.85q-4.15 2.95-4.15 8.55 0 5.5 3.8 8.45 3.25 2.55 8.3 2.55V69.8z" id="c"/><path fill="#AD6F43" d="M95.55 43q-5.35-6.7-14.5-10.3-8.1-3.2-17.05-3.2-8.95 0-17.1 3.2-9.15 3.6-14.5 10.3-11.25 14-11.2 37 .05 10.05 2.85 17.2 3.05 7.7 9.85 13.35 13.25 11.1 29.45 11.1 8.25 0 16.2-2.75 8.4-2.95 14.5-8.3 6.7-5.9 9.75-13.45 2.9-7.25 2.95-17.15.05-23-11.2-37z" id="d"/><path fill="#7A4C32" d="M57.75 89.65q-.65-.2-1 .3-.3.45 0 .95.7 1.2 2.5 2.3 2.25 1.4 4.75 1.4 2.45 0 4.75-1.4 1.75-1.1 2.45-2.3.3-.5 0-.95-.3-.5-.95-.3-3.2.95-6.25.95t-6.25-.95z" id="e"/><path fill="#513F35" d="M78.4 100.55q-.35-.7-1.5-.7H51.05q-1.15 0-1.5.7-.35.7.35 1.75 1.35 2.1 4.7 3.85 4.3 2.3 9.4 2.3 5.05 0 9.35-2.3 3.3-1.75 4.7-3.85.75-1.05.35-1.75z" id="f"/><path fill="#47352D" d="M109.15 77.45L116 55.4q-2.75-9.8-10.4-19.6-15.2-19.65-39.4-19.65-24.15 0-41.15 20.95Q16.55 47.55 12.9 58l5.95 19.45q12.4-13.05 16.95-17.4.2-.2.5-.1.25.15.25.45-.3 2.75-.4 5-.05.4.3.7.3.3.7.2 9.7-1.85 19.8-6.45.2-.1.4.05.2.1.2.35-.1 2.65 0 4.2 0 .4.3.65t.7.2q5.3-.85 10.85-2.95 3.7-1.4 6.4-2.9.8-.4 1.7-.1Q82.15 61 88.75 65q.3.2.65.1.35-.1.5-.45.75-1.25 2.2-4.2.1-.2.3-.2.2-.05.35.1 6.65 6.6 16.4 17.1z" id="g"/><path fill="#444" d="M40.15 72.35q-1.7 2-1.7 4.85 0 2.9 1.7 4.9 1.65 2 4.05 2 2.35 0 4.05-2 1.65-2.05 1.65-4.9 0-2.85-1.65-4.85-1.7-2.05-4.05-2.05-2.4 0-4.05 2.05z" id="h"/><path fill="#444" d="M87.85 72.35q-1.7-2.05-4.05-2.05-2.4 0-4.05 2.05-1.7 2-1.7 4.85 0 2.85 1.7 4.9 1.65 2 4.05 2 2.35 0 4.05-2 1.65-2 1.65-4.9 0-2.85-1.65-4.85z" id="i"/></defs><use xlink:href="#a" transform="scale(.5625)"/><use xlink:href="#b" transform="scale(.5625)"/><use xlink:href="#c" transform="scale(.5625)"/><use xlink:href="#d" transform="scale(.5625)"/><use xlink:href="#e" transform="scale(.5625)"/><use xlink:href="#f" transform="scale(.5625)"/><use xlink:href="#g" transform="scale(.5625)"/><use xlink:href="#h" transform="translate(0 1.8) scale(.5625)"/><use xlink:href="#i" transform="translate(0 1.8) scale(.5625)"/></svg>