<svg xmlns="http://www.w3.org/2000/svg" xmlns:xlink="http://www.w3.org/1999/xlink" preserveAspectRatio="none" viewBox="0 0 72 72"><defs><path fill="#C48E6A" d="M106.9 66.05h-3.6v20.3q4.75 0 7.85-2.4 3.6-2.8 3.6-8.05 0-5.3-3.9-8.1l-3.95-1.75z" id="a"/><path fill="#C48E6A" d="M24.7 66.05h-3.65l-3.9 1.75q-3.95 2.8-3.95 8.1 0 5.25 3.6 8.05 3.1 2.4 7.9 2.4v-20.3z" id="b"/><path fill="#E0BB95" d="M60.15 42.85q.722-17.327-4-26.3Q50.298 5.649 36 5.65q-14.399-.001-20.15 10.9-4.722 8.973-4 26.3.568 14.007 8.8 20.5 6.144 5 15.35 5 9.062.001 15.3-4.95 8.232-6.493 8.85-20.55z" id="c"/><path fill="#444" d="M40.15 72.35q-1.7 2-1.7 4.85 0 2.9 1.7 4.9 1.65 2 4.05 2 2.35 0 4.05-2 1.65-2.05 1.65-4.9 0-2.85-1.65-4.85-1.7-2.05-4.05-2.05-2.4 0-4.05 2.05z" id="d"/><path fill="#444" d="M87.85 72.35q-1.7-2.05-4.05-2.05-2.4 0-4.05 2.05-1.7 2-1.7 4.85 0 2.85 1.7 4.9 1.65 2 4.05 2 2.35 0 4.05-2 1.65-2 1.65-4.9 0-2.85-1.65-4.85z" id="e"/><path fill="#513F35" d="M63.95 108.75q4.9 0 9-2.15 3.2-1.7 4.5-3.7.7-1.05.35-1.7-.35-.65-1.45-.65H51.6q-1.1 0-1.45.65-.35.65.35 1.7 1.3 2 4.5 3.7 4.1 2.15 8.95 2.15z" id="f"/><path fill="#C48E6A" d="M58 90q-.65-.15-.9.3-.3.4-.05.9.7 1.15 2.4 2.2 2.2 1.35 4.55 1.35 2.35 0 4.5-1.35 1.7-1.05 2.4-2.2.25-.5 0-.9-.3-.45-.95-.3-3.15.9-5.95.9-2.85 0-6-.9z" id="g"/></defs><use xlink:href="#a" transform="matrix(.56242 0 0 .56242 0 -.75)"/><use xlink:href="#b" transform="matrix(.56242 0 0 .56242 0 -.75)"/><use xlink:href="#c"/><use xlink:href="#d" transform="translate(0 -.3) scale(.5625)"/><use xlink:href="#e" transform="translate(0 -.3) scale(.5625)"/><use xlink:href="#f" transform="translate(0 -.3) scale(.5625)"/><use xlink:href="#g" transform="translate(0 -.3) scale(.5625)"/></svg>