<svg xmlns="http://www.w3.org/2000/svg" xmlns:xlink="http://www.w3.org/1999/xlink" preserveAspectRatio="none" viewBox="0 0 72 72"><defs><path fill="#00ACC1" d="M6.2 74.65Q0 80.35 0 88.45v40.05l64 .05v-40.1q0-8.8-6.3-14.75-5.8-5.4-15.2-7.05-10.65-1.85-21.65.8-9.1 2.15-14.65 7.2z" id="a"/><path fill="#AD6F43" d="M8.15 97.15H0v31.35h8.15V97.15z" id="b"/><path fill="#7A4C32" d="M33.45 74.15q2.9 0 4.95-2.05 2.05-2.05 2.05-4.95v-6.4h-14v6.4q0 2.9 2.05 4.95 2.05 2.05 4.95 2.05z" id="c"/><path fill="#AD6F43" d="M8.15 97.15H0v31.35h8.15V97.15z" id="d"/><path fill="#7A4C32" d="M106.9 66.05h-3.6v20.3q4.75 0 7.85-2.4 3.6-2.8 3.6-8.05 0-5.3-3.9-8.1l-3.95-1.75z" id="e"/><path fill="#7A4C32" d="M24.7 66.05h-3.65l-3.9 1.75q-3.95 2.8-3.95 8.1 0 5.25 3.6 8.05 3.1 2.4 7.9 2.4v-20.3z" id="f"/><path fill="#AD6F43" d="M106.75 73.8q0-30.45-8.65-45.45Q87.85 10.6 64 10.6q-23.9 0-34.15 17.75-8.65 15-8.65 45.45 0 25.9 14.6 38.45Q47.05 122 64 122q16.8 0 28.1-9.65 14.65-12.55 14.65-38.55z" id="g"/><path fill="#444" d="M40.15 72.35q-1.7 2-1.7 4.85 0 2.9 1.7 4.9 1.65 2 4.05 2 2.35 0 4.05-2 1.65-2.05 1.65-4.9 0-2.85-1.65-4.85-1.7-2.05-4.05-2.05-2.4 0-4.05 2.05z" id="h"/><path fill="#444" d="M87.85 72.35q-1.7-2.05-4.05-2.05-2.4 0-4.05 2.05-1.7 2-1.7 4.85 0 2.85 1.7 4.9 1.65 2 4.05 2 2.35 0 4.05-2 1.65-2 1.65-4.9 0-2.85-1.65-4.85z" id="i"/><path fill="#513F35" d="M63.95 108.75q4.9 0 9-2.15 3.2-1.7 4.5-3.7.7-1.05.35-1.7-.35-.65-1.45-.65H51.6q-1.1 0-1.45.65-.35.65.35 1.7 1.3 2 4.5 3.7 4.1 2.15 8.95 2.15z" id="j"/><path fill="#7A4C32" d="M58 90q-.65-.15-.9.3-.3.4-.05.9.7 1.15 2.4 2.2 2.2 1.35 4.55 1.35 2.35 0 4.5-1.35 1.7-1.05 2.4-2.2.25-.5 0-.9-.3-.45-.95-.3-3.15.9-5.95.9-2.85 0-6-.9z" id="k"/><path fill="#47352D" d="M63.35 24.5v-.8q-.4-6.25-5.65-10.85-7.2-6.3-21.15-6.5H35.5q-13.95.2-21.1 6.5-5.3 4.6-5.65 10.85-.05.4-.05.8v14.55q.35-.3.95-.75.4-.35.95-.6l.4-.2 1.05 6.95Q17.8 35.5 19.4 25.7q4.55 3 8.3 4.25 3.75 1.25 7.8 1.2h1.05q6.7-.05 12.3-.7l4.1-.45q.1 0 .2.1L60 44.45l1.05-6.95.45.2q.5.25.9.55.65.5.95.8V24.5z" id="l"/><path fill="#D8BEFF" d="M60.9 129.1q.3 0-.05-6.9v-.25q0-6.55-6.9-10.4-5.2-2.95-10.2-2.95H34.2q-5 0-10.2 2.95-6.95 3.85-6.95 10.4-.3 7.15 0 7.15H60.9z" id="m"/><path fill="#7A4C32" d="M42.5 115.1q1.25-1.3 1.25-3.05v-2.4H34.2v2.4q0 1.75 1.25 3.05 1.3 1.25 3.05 1.25h.95q1.75 0 3.05-1.25z" id="n"/><path fill="#47352D" d="M102.5 91.65q16-14.75 16-35.55 0-20.85-16-35.55Q86.55 5.8 64 5.8q-22.6 0-38.55 14.75Q9.5 35.25 9.5 56.1q0 20.8 15.95 35.55 16 14.75 38.55 14.75 22.55 0 38.5-14.75z" id="o"/><path fill="#7A4C32" d="M108.6 69.8h-3.8v21.4q5.05 0 8.3-2.55 3.8-2.95 3.8-8.45 0-5.6-4.15-8.55l-4.15-1.85z" id="p"/><path fill="#7A4C32" d="M23.15 69.8h-3.8l-4.15 1.85q-4.15 2.95-4.15 8.55 0 5.5 3.8 8.45 3.25 2.55 8.3 2.55V69.8z" id="q"/><path fill="#47352D" d="M63.35 59.8q-.3-1.9-1.2-3.5-1.85-3.2-6.05-3.4-3.55-.15-6 2.35-2.55 2.6-1.8 6 1 4.4 5.6 6.2 4.2 1.65 8.5.25 1.1-.35 2.2-1.15 1.5-1.15 1.15-2.05-.15-.25-.7-.5-.65-.25-.8-.4-.55-.45-.7-1.8-.1-1.5-.2-2z" id="r"/><path fill="#47352D" d="M39.2 98.45Q34.9 94 28.55 94.1q-7.45.15-10.8 5.85-1.55 2.55-2.25 6.15-.15.9-.4 3.6-.35 2.4-1.35 3.15-.25.2-1.4.7-.95.4-1.2.9-.8 1.6 1.9 3.6 2 1.55 3.85 2.1 7.65 2.6 15.15-.2 8.25-3.05 10.15-10.8 1.45-6.1-3-10.7z" id="s"/><path fill="#AD6F43" d="M95.55 43q-5.35-6.7-14.5-10.3-8.1-3.2-17.05-3.2-8.95 0-17.1 3.2-9.15 3.6-14.5 10.3-11.25 14-11.2 37 .05 10.05 2.85 17.2 3.05 7.7 9.85 13.35 13.25 11.1 29.45 11.1 8.25 0 16.2-2.75 8.4-2.95 14.5-8.3 6.7-5.9 9.75-13.45 2.9-7.25 2.95-17.15.05-23-11.2-37z" id="t"/><path fill="#7A4C32" d="M57.75 89.65q-.65-.2-1 .3-.3.45 0 .95.7 1.2 2.5 2.3 2.25 1.4 4.75 1.4 2.45 0 4.75-1.4 1.75-1.1 2.45-2.3.3-.5 0-.95-.3-.5-.95-.3-3.2.95-6.25.95t-6.25-.95z" id="u"/><path fill="#513F35" d="M64 108.45q5.05 0 9.35-2.3 3.3-1.75 4.7-3.85.75-1.05.35-1.75-.35-.7-1.5-.7H51.05q-1.15 0-1.5.7-.35.7.35 1.75 1.35 2.1 4.7 3.85 4.3 2.3 9.4 2.3z" id="v"/><path fill="#47352D" d="M111.55 67.65l4.9-15.05-4.7-16.75-35.55-23.7H51.55L16 35.85 11.35 52.6l4.9 15.05 3.45 6.7Q32.65 71.4 46.3 63.1q11.85-7.2 16.95-13.55.25-.3.65-.3t.6.3q5.15 6.4 16.8 13.5 13.5 8.25 26.8 11.3l3.45-6.7z" id="w"/><path fill="#444" d="M40.15 72.35q-1.7 2-1.7 4.85 0 2.9 1.7 4.9 1.65 2 4.05 2 2.35 0 4.05-2 1.65-2.05 1.65-4.9 0-2.85-1.65-4.85-1.7-2.05-4.05-2.05-2.4 0-4.05 2.05z" id="x"/><path fill="#444" d="M87.85 72.35q-1.7-2.05-4.05-2.05-2.4 0-4.05 2.05-1.7 2-1.7 4.85 0 2.85 1.7 4.9 1.65 2 4.05 2 2.35 0 4.05-2 1.65-2 1.65-4.9 0-2.85-1.65-4.85z" id="y"/><path fill="#D8BEFF" d="M60.9 129.1q.3 0-.05-6.9v-.25q0-6.55-6.9-10.4-5.2-2.95-10.2-2.95H34.2q-5 0-10.2 2.95-6.95 3.85-6.95 10.4-.3 7.15 0 7.15H60.9z" id="z"/><path fill="#7A4C32" d="M42.5 115.1q1.25-1.3 1.25-3.05v-2.4H34.2v2.4q0 1.75 1.25 3.05 1.3 1.25 3.05 1.25h.95q1.75 0 3.05-1.25z" id="A"/><path fill="#47352D" d="M102.5 91.65q16-14.75 16-35.55 0-20.85-16-35.55Q86.55 5.8 64 5.8q-22.6 0-38.55 14.75Q9.5 35.25 9.5 56.1q0 20.8 15.95 35.55 16 14.75 38.55 14.75 22.55 0 38.5-14.75z" id="B"/><path fill="#7A4C32" d="M108.6 69.8h-3.8v21.4q5.05 0 8.3-2.55 3.8-2.95 3.8-8.45 0-5.6-4.15-8.55l-4.15-1.85z" id="C"/><path fill="#7A4C32" d="M23.15 69.8h-3.8l-4.15 1.85q-4.15 2.95-4.15 8.55 0 5.5 3.8 8.45 3.25 2.55 8.3 2.55V69.8z" id="D"/><path fill="#47352D" d="M63.35 59.8q-.3-1.9-1.2-3.5-1.85-3.2-6.05-3.4-3.55-.15-6 2.35-2.55 2.6-1.8 6 1 4.4 5.6 6.2 4.2 1.65 8.5.25 1.1-.35 2.2-1.15 1.5-1.15 1.15-2.05-.15-.25-.7-.5-.65-.25-.8-.4-.55-.45-.7-1.8-.1-1.5-.2-2z" id="E"/><path fill="#47352D" d="M39.2 98.45Q34.9 94 28.55 94.1q-7.45.15-10.8 5.85-1.55 2.55-2.25 6.15-.15.9-.4 3.6-.35 2.4-1.35 3.15-.25.2-1.4.7-.95.4-1.2.9-.8 1.6 1.9 3.6 2 1.55 3.85 2.1 7.65 2.6 15.15-.2 8.25-3.05 10.15-10.8 1.45-6.1-3-10.7z" id="F"/><path fill="#AD6F43" d="M95.55 43q-5.35-6.7-14.5-10.3-8.1-3.2-17.05-3.2-8.95 0-17.1 3.2-9.15 3.6-14.5 10.3-11.25 14-11.2 37 .05 10.05 2.85 17.2 3.05 7.7 9.85 13.35 13.25 11.1 29.45 11.1 8.25 0 16.2-2.75 8.4-2.95 14.5-8.3 6.7-5.9 9.75-13.45 2.9-7.25 2.95-17.15.05-23-11.2-37z" id="G"/><path fill="#7A4C32" d="M57.75 89.65q-.65-.2-1 .3-.3.45 0 .95.7 1.2 2.5 2.3 2.25 1.4 4.75 1.4 2.45 0 4.75-1.4 1.75-1.1 2.45-2.3.3-.5 0-.95-.3-.5-.95-.3-3.2.95-6.25.95t-6.25-.95z" id="H"/><path fill="#513F35" d="M64 108.45q5.05 0 9.35-2.3 3.3-1.75 4.7-3.85.75-1.05.35-1.75-.35-.7-1.5-.7H51.05q-1.15 0-1.5.7-.35.7.35 1.75 1.35 2.1 4.7 3.85 4.3 2.3 9.4 2.3z" id="I"/><path fill="#47352D" d="M111.55 67.65l4.9-15.05-4.7-16.75-35.55-23.7H51.55L16 35.85 11.35 52.6l4.9 15.05 3.45 6.7Q32.65 71.4 46.3 63.1q11.85-7.2 16.95-13.55.25-.3.65-.3t.6.3q5.15 6.4 16.8 13.5 13.5 8.25 26.8 11.3l3.45-6.7z" id="J"/><path fill="#444" d="M40.15 72.35q-1.7 2-1.7 4.85 0 2.9 1.7 4.9 1.65 2 4.05 2 2.35 0 4.05-2 1.65-2.05 1.65-4.9 0-2.85-1.65-4.85-1.7-2.05-4.05-2.05-2.4 0-4.05 2.05z" id="K"/><path fill="#444" d="M87.85 72.35q-1.7-2.05-4.05-2.05-2.4 0-4.05 2.05-1.7 2-1.7 4.85 0 2.85 1.7 4.9 1.65 2 4.05 2 2.35 0 4.05-2 1.65-2 1.65-4.9 0-2.85-1.65-4.85z" id="L"/></defs><use xlink:href="#a" transform="translate(18 -.3) scale(.5625)"/><use xlink:href="#b" transform="translate(49.5 -.3) scale(.5625)"/><use xlink:href="#c" transform="translate(17.85 -.3) scale(.5625)"/><use xlink:href="#d" transform="translate(17.9 -.3) scale(.5625)"/><use xlink:href="#e" transform="matrix(.27599 0 0 .27533 19 2.25)"/><use xlink:href="#f" transform="matrix(.27599 0 0 .27533 19 2.25)"/><use xlink:href="#g" transform="matrix(.27608 0 0 .27542 19 2.5)"/><use xlink:href="#h" transform="matrix(.27608 0 0 .27542 19 2.5)"/><use xlink:href="#i" transform="matrix(.27608 0 0 .27542 19 2.5)"/><use xlink:href="#j" transform="matrix(.27608 0 0 .27542 19 2.5)"/><use xlink:href="#k" transform="matrix(.27608 0 0 .27542 19 2.5)"/><use xlink:href="#l" transform="matrix(.49081 0 0 .48964 19 2.3)"/><use xlink:href="#m" transform="translate(1.3 1.45) scale(.54637)"/><use xlink:href="#n" transform="translate(1.3 1.45) scale(.54637)"/><use xlink:href="#o" transform="matrix(.20758 0 0 .2075 9.35 36.5)"/><use xlink:href="#p" transform="matrix(.20752 0 0 .20744 9.35 36.5)"/><use xlink:href="#q" transform="matrix(.20752 0 0 .20744 9.35 36.5)"/><use xlink:href="#r" transform="matrix(.36903 0 0 .36887 9.35 36.5)"/><use xlink:href="#s" transform="matrix(.20749 0 0 .20741 9.35 36.5)"/><use xlink:href="#t" transform="matrix(.20752 0 0 .20744 9.35 36.5)"/><use xlink:href="#u" transform="matrix(.20758 0 0 .2075 9.35 36.5)"/><use xlink:href="#v" transform="matrix(.20758 0 0 .2075 9.35 36.5)"/><use xlink:href="#w" transform="matrix(.20758 0 0 .2075 9.35 36.5)"/><use xlink:href="#x" transform="matrix(.20753 0 0 .20746 9.2 37.05)"/><use xlink:href="#y" transform="matrix(.20753 0 0 .20746 9.2 37.05)"/><use xlink:href="#z" transform="translate(28.15 1.45) scale(.54637)"/><use xlink:href="#A" transform="translate(28.15 1.45) scale(.54637)"/><use xlink:href="#B" transform="matrix(.20757 0 0 .20749 36.2 36.5)"/><use xlink:href="#C" transform="matrix(.20749 0 0 .20741 36.2 36.5)"/><use xlink:href="#D" transform="matrix(.20749 0 0 .20741 36.2 36.5)"/><use xlink:href="#E" transform="matrix(.36899 0 0 .36882 36.2 36.5)"/><use xlink:href="#F" transform="matrix(.20744 0 0 .20737 36.2 36.5)"/><use xlink:href="#G" transform="matrix(.20749 0 0 .20741 36.2 36.5)"/><use xlink:href="#H" transform="matrix(.20757 0 0 .20749 36.2 36.5)"/><use xlink:href="#I" transform="matrix(.20757 0 0 .20749 36.2 36.5)"/><use xlink:href="#J" transform="matrix(.20757 0 0 .20749 36.2 36.5)"/><use xlink:href="#K" transform="matrix(.2075 0 0 .20743 36 37.05)"/><use xlink:href="#L" transform="matrix(.2075 0 0 .20743 36 37.05)"/></svg>