<svg xmlns="http://www.w3.org/2000/svg" xmlns:xlink="http://www.w3.org/1999/xlink" preserveAspectRatio="none" viewBox="0 0 72 72"><defs><path fill="#563E37" d="M106.9 66.05h-3.6v20.3q4.75 0 7.85-2.4 3.6-2.8 3.6-8.05 0-5.3-3.9-8.1l-3.95-1.75z" id="a"/><path fill="#563E37" d="M24.7 66.05h-3.65l-3.9 1.75q-3.95 2.8-3.95 8.1 0 5.25 3.6 8.05 3.1 2.4 7.9 2.4v-20.3z" id="b"/><path fill="#8E726A" d="M106.75 73.8q0-30.45-8.65-45.45Q87.85 10.6 64 10.6q-23.9 0-34.15 17.75-8.65 15-8.65 45.45 0 25.9 14.6 38.45Q47.05 122 64 122q16.8 0 28.1-9.65 14.65-12.55 14.65-38.55z" id="c"/><path fill="#444" d="M40.15 72.35q-1.7 2-1.7 4.85 0 2.9 1.7 4.9 1.65 2 4.05 2 2.35 0 4.05-2 1.65-2.05 1.65-4.9 0-2.85-1.65-4.85-1.7-2.05-4.05-2.05-2.4 0-4.05 2.05z" id="d"/><path fill="#444" d="M87.85 72.35q-1.7-2.05-4.05-2.05-2.4 0-4.05 2.05-1.7 2-1.7 4.85 0 2.85 1.7 4.9 1.65 2 4.05 2 2.35 0 4.05-2 1.65-2 1.65-4.9 0-2.85-1.65-4.85z" id="e"/><path fill="#513F35" d="M63.95 108.75q4.9 0 9-2.15 3.2-1.7 4.5-3.7.7-1.05.35-1.7-.35-.65-1.45-.65H51.6q-1.1 0-1.45.65-.35.65.35 1.7 1.3 2 4.5 3.7 4.1 2.15 8.95 2.15z" id="f"/><path fill="#563E37" d="M58 90q-.65-.15-.9.3-.3.4-.05.9.7 1.15 2.4 2.2 2.2 1.35 4.55 1.35 2.35 0 4.5-1.35 1.7-1.05 2.4-2.2.25-.5 0-.9-.3-.45-.95-.3-3.15.9-5.95.9-2.85 0-6-.9z" id="g"/><path fill="#232020" d="M64.85 22.55l-.6-.5q.7-1.1.7-2.55 0-2.05-1.4-3.5-1.2-1.15-2.85-1.35.1-.4.1-.85 0-2.05-1.4-3.5-1.45-1.4-3.5-1.4-.7 0-1.3.2-.35-1.15-1.2-2.05-1.45-1.4-3.5-1.4-1.2 0-2.2.5-.25-.5-.7-.95-1.45-1.4-3.5-1.4-2 0-3.45 1.4-.15.15-.3.35-.15-.2-.3-.35Q38 3.8 36 3.8q-2.018.017-3.45 1.4-.15.15-.3.35-.15-.2-.3-.35-1.45-1.4-3.45-1.4-2.05 0-3.5 1.4-.45.45-.7.95-1-.5-2.2-.5-2.05 0-3.5 1.4-.85.9-1.2 2.05-.6-.2-1.3-.2-2.05 0-3.5 1.4-1.4 1.45-1.4 3.5 0 .45.1.85-1.65.2-2.85 1.35-1.4 1.45-1.4 3.5 0 1.45.7 2.55l-.6.5q-1.4 1.45-1.4 3.5 0 1.85 1.15 3.2-.1.05-.15.1-1.4 1.45-1.4 3.5t1.4 3.45q.45.45.95.75 4.117 2.73 4.2 7.65 2.75-.95 3.5-1.7 1.45-1.4 1.45-3.45 0-.55-.1-1.05.95-.35 1.75-1.15 1.45-1.4 1.45-3.45v-.2q1.3-.3 2.35-1.35.7-.65 1.05-1.45.4.05.85.05 2 0 3.45-1.45 1.45 1.45 3.5 1.45 1.35 0 2.45-.65 1.05.65 2.4.65 1.35 0 2.4-.65 1.1.65 2.45.65 2.05 0 3.5-1.45 1.45 1.45 3.45 1.45.45 0 .85-.05.35.8 1.05 1.45 1.05 1.05 2.35 1.35v.2q0 2.05 1.45 3.45.8.8 1.75 1.15-.1.5-.1 1.05 0 2.05 1.45 3.45.75.75 3.5 1.7.1-4.9 4.2-7.65.5-.3.95-.75 1.4-1.4 1.4-3.45 0-2.05-1.4-3.5-.05-.05-.15-.1 1.15-1.35 1.15-3.2 0-2.05-1.4-3.5z" id="h"/></defs><use xlink:href="#a" transform="matrix(.56244 0 0 .56244 0 -.75)"/><use xlink:href="#b" transform="matrix(.56244 0 0 .56244 0 -.75)"/><use xlink:href="#c" transform="translate(0 -.3) scale(.5625)"/><use xlink:href="#d" transform="translate(0 -.3) scale(.5625)"/><use xlink:href="#e" transform="translate(0 -.3) scale(.5625)"/><use xlink:href="#f" transform="translate(0 -.3) scale(.5625)"/><use xlink:href="#g" transform="translate(0 -.3) scale(.5625)"/><use xlink:href="#h"/></svg>