<svg xmlns="http://www.w3.org/2000/svg" xmlns:xlink="http://www.w3.org/1999/xlink" preserveAspectRatio="none" viewBox="0 0 72 72"><defs><path fill="#607D8B" d="M34.2 100.75q-13.8 6.15-13.8 17.4V128h87.15v-9.85q0-10.8-13.45-17.15-12.15-5.75-29.8-5.7-18.05.05-30.1 5.45z" id="a"/><path fill="#D8D8D8" d="M53.9 95.85l-4 .5L56.25 128h8.15V95.3q-5.4 0-10.5.55z" id="b"/><path fill="#D8D8D8" d="M78.1 96.35Q72.4 95.3 64 95.3V128h7.65l6.45-31.65z" id="c"/><path fill="#444" d="M37.6 64.2l.95-4.25H33.4l1 4.25h3.2z" id="d"/><path fill="#444" d="M34.4 64.2l-.9 7.8h4.9l-.8-7.8h-3.2z" id="e"/><path fill="#7A4C32" d="M30.9 56.2q0 1.75 1.2 2.75 1.15.95 3.15.95l2.05-.1q3.8 0 3.8-3.6v-5.4H30.9v5.4z" id="f"/><path fill="#FFF" d="M78.25 96.35l-5.1-.65q0 1.2-.9 3.05-1 2-2.5 3.75-2.1 2.45-5.65 3.95l10.4 11.1 3.75-21.2z" id="g"/><path fill="#455A64" d="M70.05 128h7.25l11.5-11.95-4.75-6.6 7.1-4.7-4-6.35q-5.05-1.55-10.7-2.3l-6.4 31.9z" id="h"/><path fill="#FFF" d="M55 95.7l-5.05.65 3.75 21.2 10.35-11.1q-3.5-1.5-5.6-3.95-1.5-1.75-2.5-3.75-.95-1.9-.95-3.05z" id="i"/><path fill="#455A64" d="M51.75 96.1q-3.55.45-7.45 1.35l-3.2.8-4.05 6.45 7.1 4.7-4.75 6.6 11.45 12h7.3l-6.4-31.9z" id="j"/><path fill="#7A4C32" d="M106.9 66.05h-3.6v20.3q4.75 0 7.85-2.4 3.6-2.8 3.6-8.05 0-5.3-3.9-8.1l-3.95-1.75z" id="k"/><path fill="#7A4C32" d="M24.7 66.05h-3.65l-3.9 1.75q-3.95 2.8-3.95 8.1 0 5.25 3.6 8.05 3.1 2.4 7.9 2.4v-20.3z" id="l"/><path fill="#AD6F43" d="M106.75 73.8q0-30.45-8.65-45.45Q87.85 10.6 64 10.6q-23.9 0-34.15 17.75-8.65 15-8.65 45.45 0 25.9 14.6 38.45Q47.05 122 64 122q16.8 0 28.1-9.65 14.65-12.55 14.65-38.55z" id="m"/><path fill="#444" d="M40.15 72.35q-1.7 2-1.7 4.85 0 2.9 1.7 4.9 1.65 2 4.05 2 2.35 0 4.05-2 1.65-2.05 1.65-4.9 0-2.85-1.65-4.85-1.7-2.05-4.05-2.05-2.4 0-4.05 2.05z" id="n"/><path fill="#444" d="M87.85 72.35q-1.7-2.05-4.05-2.05-2.4 0-4.05 2.05-1.7 2-1.7 4.85 0 2.85 1.7 4.9 1.65 2 4.05 2 2.35 0 4.05-2 1.65-2 1.65-4.9 0-2.85-1.65-4.85z" id="o"/><path fill="#513F35" d="M63.95 108.75q4.9 0 9-2.15 3.2-1.7 4.5-3.7.7-1.05.35-1.7-.35-.65-1.45-.65H51.6q-1.1 0-1.45.65-.35.65.35 1.7 1.3 2 4.5 3.7 4.1 2.15 8.95 2.15z" id="p"/><path fill="#7A4C32" d="M58 90q-.65-.15-.9.3-.3.4-.05.9.7 1.15 2.4 2.2 2.2 1.35 4.55 1.35 2.35 0 4.5-1.35 1.7-1.05 2.4-2.2.25-.5 0-.9-.3-.45-.95-.3-3.15.9-5.95.9-2.85 0-6-.9z" id="q"/><path fill="#47352D" d="M56.7 19.25q-.35-4.65-4.25-8.15Q47 6.4 36.55 6.2h-.8q-10.5.2-15.85 4.9-4 3.5-4.2 8.15-.05.35-.05.6v10.9q.2-.2.7-.5.3-.3.7-.5l.35-.15.75 5.25q4.3-6.75 5.5-14.1 3.4 2.25 6.25 3.2 2.8.95 5.85.9h.8q5.05-.05 9.25-.5l3.05-.35q.1 0 .15.1l5.15 10.75.8-5.25.35.15q.35.2.65.45.5.35.75.55v-10.9-.6z" id="r"/></defs><use xlink:href="#a" transform="scale(.5625)"/><use xlink:href="#b" transform="scale(.5625)"/><use xlink:href="#c" transform="scale(.5625)"/><use xlink:href="#d"/><use xlink:href="#e"/><use xlink:href="#f"/><use xlink:href="#g" transform="scale(.5625)"/><use xlink:href="#h" transform="scale(.5625)"/><use xlink:href="#i" transform="scale(.5625)"/><use xlink:href="#j" transform="scale(.5625)"/><use xlink:href="#k" transform="matrix(.42223 0 0 .422 9 1.4)"/><use xlink:href="#l" transform="matrix(.42223 0 0 .422 9 1.4)"/><use xlink:href="#m" transform="matrix(.4224 0 0 .42215 9 1.75)"/><use xlink:href="#n" transform="matrix(.4224 0 0 .42215 9 1.75)"/><use xlink:href="#o" transform="matrix(.4224 0 0 .42215 9 1.75)"/><use xlink:href="#p" transform="matrix(.4224 0 0 .42215 9 1.75)"/><use xlink:href="#q" transform="matrix(.4224 0 0 .42215 9 1.75)"/><use xlink:href="#r"/></svg>