<svg xmlns="http://www.w3.org/2000/svg" xmlns:xlink="http://www.w3.org/1999/xlink" preserveAspectRatio="none" viewBox="0 0 72 72"><defs><path fill="#E49800" d="M73.05 90.1H54.9v9.6q0 3.25 2.4 5.55 2.45 2.3 5.85 2.3h1.65q3.4 0 5.85-2.3 2.4-2.3 2.4-5.55v-9.6z" id="a"/><path fill="#004373" d="M53.95 95.85l-4 .5 6 31.65h8.55V95.3q-5.45 0-10.55.55z" id="b"/><path fill="#47352D" d="M102.55 69.2q.55-13.7.55-24.1l-78.75.3q0 11.45.75 25.7 1.55 28.5 5.4 42.45l68-.3q2.9-16.65 4.05-44.05z" id="c"/><path fill="#004373" d="M78.2 96.35q-5.75-1.05-14.15-1.05V128h8.65l5.5-31.65z" id="d"/><path fill="#2A56C6" d="M32.2 100.85q-14.7 6.2-14.7 17.6V128h93.85v-9.55q0-10.85-14.65-17.3-13.25-5.8-32.3-5.8-19.45.05-32.2 5.5z" id="e"/><path fill="#004373" d="M53.95 95.85l-4 .5 6 31.65h8.55V95.3q-5.45 0-10.55.55z" id="f"/><path fill="#004373" d="M78.2 96.35q-5.75-1.05-14.15-1.05V128h8.65l5.5-31.65z" id="g"/><path fill="#7A4C32" d="M36.4 60.6q1.95 0 3.3-1.3 1.35-1.3 1.35-3.15v-5.4h-10.2v5.4q0 1.85 1.35 3.15 1.4 1.3 3.3 1.3h.9z" id="h"/><path fill="#FC0" d="M67.15 114.1l1.7-7.5h-9.1l1.75 7.5h5.65z" id="i"/><path fill="#FC0" d="M61.5 114.1L59.95 128h8.7l-1.5-13.9H61.5z" id="j"/><path fill="#004373" d="M33.3 98.45q-4.2 0-10.3-1.4-.9-.2-1.7.25-.8.45-1 1.3l-.7 2.65q-.25.85.3 1.65.55.85 1.55 1.05 7 1.6 11.85 1.6t11.85-1.6q1-.2 1.55-1.05.55-.8.3-1.65l-.7-2.65q-.25-.85-1.05-1.3-.75-.45-1.65-.25-6.1 1.4-10.3 1.4z" id="k"/><path fill="#004373" d="M83.15 97.3q-.8.45-1 1.3l-.75 2.65q-.25.85.3 1.65.55.85 1.55 1.05 7.05 1.6 11.9 1.6 4.8 0 11.85-1.6 1-.2 1.55-1.05.55-.8.3-1.65l-.75-2.65q-.2-.85-1-1.3-.75-.45-1.65-.25-6.1 1.4-10.3 1.4-4.25 0-10.35-1.4-.85-.2-1.65.25z" id="l"/><path fill="#3B78E7" d="M78.3 96.35q-3.05-.45-5.05-.65 0 1.2-.9 3.05-1 2-2.5 3.75-2.15 2.45-5.65 3.95l13.25 11.1.85-21.2z" id="m"/><path fill="#3B78E7" d="M55.25 95.7l-5.1.65.6 21.2 13.55-11.1q-3.55-1.5-5.65-3.95-1.5-1.75-2.5-3.75-.9-1.85-.9-3.05z" id="n"/><path fill="#47352D" d="M103.1 46.15q0-16.35-11.55-27.95-11.5-11.55-27.8-11.55T35.9 18.2Q24.35 29.75 24.35 46.15q0 16.35 11.55 27.95 11.55 11.55 27.85 11.55t27.8-11.55q11.55-11.6 11.55-27.95z" id="o"/><path fill="#AD6F43" d="M47.05 48.5q6.15-5.25 6.15-15.3 0-12.3-3.5-18.4-4.15-7.15-13.8-7.15T22.15 14.8q-3.5 6.1-3.5 18.4 0 10.05 6.15 15.3 4.8 4.15 11.1 4.15 6.35 0 11.15-4.15z" id="p"/><path fill="#444" d="M54.75 78.15q-.8 0-1.05.5t.25 1.25q.95 1.5 3.35 2.75 3.05 1.6 6.7 1.6 3.6 0 6.65-1.6 2.4-1.3 3.35-2.75.5-.75.25-1.25t-1.05-.5H54.75z" id="q"/><path fill="#444" d="M53.5 60.75q0-2.15-1.25-3.65-1.3-1.5-3.05-1.5-1.75 0-3 1.5t-1.25 3.65q0 2.15 1.25 3.65t3 1.5q1.75 0 3.05-1.5 1.25-1.5 1.25-3.65z" id="r"/><path fill="#444" d="M83 60.75q0-2.15-1.25-3.65t-3-1.5q-1.75 0-3.05 1.5-1.25 1.5-1.25 3.65t1.25 3.65q1.25 1.5 3.05 1.5 1.75 0 3-1.5T83 60.75z" id="s"/><path fill="#7A4C32" d="M38.85 39.65q-.1-.2-.35-.1-1.3.35-2.55.35-1.2 0-2.5-.35-.25-.1-.4.1-.1.2 0 .35.3.5 1 .95.9.55 1.9.55 1 0 1.9-.55.7-.45 1-.95.1-.15 0-.35z" id="t"/><path fill="#47352D" d="M54.3 14.95q-1.35-2.7-4.3-5.45-5.9-5.45-13.95-5.45Q28 4.05 22.1 9.4q-2.95 2.65-4.3 5.3v16.7q7.95-1.35 15.6-6.15 4.4-2.75 7.7-5.85.15-.15.3-.1.15 0 .25.2 2.6 5.4 7.9 9.2 2.65 1.85 4.75 2.7V14.95z" id="u"/><path fill="#262626" d="M101.1 43.15q-4.4-.85-11.2-1.7-13.65-1.75-25.8-1.8-12.1.05-25.75 1.8-6.85.85-11.25 1.7l1.85 1.55q2.55 1.9 6.15 3.45 11.55 5.05 29 5.15 17.45-.1 29-5.15 5.75-2.5 8-5z" id="v"/><path fill="#2A56C6" d="M107.7 30.2q-.55-4.55-3.15-7.8-3.2-3.95-7.4-6.85-6.8-4.75-16.3-7.35-8.45-2.3-16.5-2.3h-.75q-8 0-16.5 2.3-9.5 2.6-16.3 7.35-4.2 2.9-7.4 6.85-2.6 3.2-3.15 7.8-.5 4.5 1.15 8.75 1.75 4.5 3.8 7.55 2.9-5.7 8.5-7.15 2.75-.75 11.95-1.55 8.4-.7 18.3-1.15 9.7.4 18.35 1.15 9.15.8 11.95 1.55 5.6 1.45 8.45 7.1 2.1-3.05 3.85-7.5 1.65-4.25 1.15-8.75z" id="w"/><path fill="#3B78E7" d="M100.5 43.3l-1.7-10.55q-3.8-2.2-10.05-4.4Q76.3 23.95 64 23.9q-12.35.05-24.85 4.45-6.2 2.2-10 4.4L27.5 43.3q4.15-.8 10.8-1.6 13.25-1.6 25.55-1.6 14.65 0 27.1 1.6 6.25.8 9.55 1.6z" id="x"/><path fill="#F7CB4D" d="M64.1 15.75q-.55 0-.9.45-1.5 2.25-3.15 2.25-1.95 0-2.95-1.5-.25-.4-.7-.4-.4 0-.65.35l-.3.45q-.7.85-.2 1.8.7 1.3.7 2.8v3.75q0 2.25 2.7 5.3 2.85 3.15 5.5 3.15t5.5-3.15q2.65-3 2.65-5.3v-3.8q0-1.45.7-2.75.5-1-.15-1.8l-.35-.45q-.25-.35-.65-.35-.45 0-.7.4-.9 1.5-2.95 1.5-1.6 0-3.25-2.25-.35-.45-.85-.45z" id="y"/></defs><use xlink:href="#a" transform="scale(.5625)"/><use xlink:href="#b" transform="scale(.5625)"/><use xlink:href="#c" transform="scale(.5625)"/><use xlink:href="#d" transform="scale(.5625)"/><use xlink:href="#e" transform="scale(.5625)"/><use xlink:href="#f" transform="scale(.5625)"/><use xlink:href="#g" transform="scale(.5625)"/><use xlink:href="#h"/><use xlink:href="#i" transform="scale(.5625)"/><use xlink:href="#j" transform="scale(.5625)"/><use xlink:href="#k" transform="scale(.5625)"/><use xlink:href="#l" transform="scale(.5625)"/><use xlink:href="#m" transform="translate(-.1 -.05) scale(.5625)"/><use xlink:href="#n" transform="translate(-.1 -.05) scale(.5625)"/><use xlink:href="#o" transform="scale(.5625)"/><use xlink:href="#p"/><use xlink:href="#q" transform="scale(.5625)"/><use xlink:href="#r" transform="scale(.5625)"/><use xlink:href="#s" transform="scale(.5625)"/><use xlink:href="#t"/><use xlink:href="#u"/><use xlink:href="#v" transform="scale(.5625)"/><use xlink:href="#w" transform="scale(.5625)"/><use xlink:href="#x" transform="scale(.5625)"/><use xlink:href="#y" transform="scale(.5625)"/></svg>