<svg xmlns="http://www.w3.org/2000/svg" xmlns:xlink="http://www.w3.org/1999/xlink" preserveAspectRatio="none" viewBox="0 0 72 72"><defs><path fill="#47352D" d="M120.05 46.85q.35-9.15.35-16.15H68.8q0 7.75.5 17.35 1 19.1 3.5 28.1 1.65 6.1 3.65 7.9Q79 86.4 83.1 83.3l22.9-.2q4.2 3.2 7.45.85 2.9-2.15 3.95-8 1.9-10.8 2.65-29.1z" id="a"/><path fill="#7E57C2" d="M80.3 67.95q-10.35 3.4-16.3 13.6V99.2l25.5-32.55q-4-.35-9.2 1.3z" id="b"/><path fill="#7E57C2" d="M107.1 67.45q-11.2-2.7-22.05-.8-9.35 1.6-15 7.05Q64 79.6 64 88.45v40.1l64-.05V88.45q0-8.1-6.25-13.8-5.5-5.05-14.65-7.2z" id="c"/><path fill="#020202" fill-opacity=".2" d="M49.15 36.9l-1.35.2q-4.55.8-7.5 3.2l-1.15 1.05q-.35.35-.8.95l-.5.5Q36.7 44.3 36 45.5q-3.35-6.05-9.6-7.8-1.2-.35-2.5-.6l-1.3-.2-.4 35h28.3l-.3-35.05q-.4 0-1.05.05z" id="d"/><path fill="#7A4C32" d="M94.65 74.15q2.9 0 4.95-2.05 2.05-2.05 2.05-4.95v-6h-14v6q0 2.9 2.05 4.95 2.05 2.05 4.95 2.05z" id="e"/><path fill="#00ACC1" d="M6.2 74.65Q0 80.35 0 88.45v40.05l64 .05v-40.1q0-8.8-6.3-14.75-5.8-5.4-15.2-7.05-10.65-1.85-21.65.8-9.1 2.15-14.65 7.2z" id="f"/><path fill="#00ACC1" d="M36.1 45.55q-3.25-5.7-9.1-7.65-1.85-.55-3.7-.7h-1.55L36.1 55.5v-9.95z" id="g"/><path fill="#7A4C32" d="M33.45 74.15q2.9 0 4.95-2.05 2.05-2.05 2.05-4.95v-6.4h-14v6.4q0 2.9 2.05 4.95 2.05 2.05 4.95 2.05z" id="h"/><path fill="#AD6F43" d="M8.15 97.15H0v31.35h8.15V97.15z" id="i"/><path fill="#AD6F43" d="M128.1 97.15h-8v31.35h8V97.15z" id="j"/><path fill="#47352D" d="M112.9 46.95q7.55-6.8 7.55-16.4 0-9.6-7.55-16.4-7.55-6.8-18.25-6.8t-18.25 6.8q-7.55 6.8-7.55 16.4 0 9.6 7.55 16.4 7.55 6.8 18.25 6.8t18.25-6.8z" id="k"/><path fill="#AD6F43" d="M110.6 21.25q-4.8-8.3-15.95-8.3-11.15 0-15.95 8.3-4.05 7.05-4.05 21.25 0 11.6 7.1 17.75 5.6 4.8 12.9 4.8 7.35 0 12.9-4.8 7.1-6.1 7.1-17.75 0-14.2-4.05-21.25z" id="l"/><path fill="#444" d="M87.8 43.2q0-1.4-.8-2.35-.8-1-1.95-1t-2 1q-.8.95-.8 2.35 0 1.4.8 2.35.85 1 2 1t1.95-1q.8-.95.8-2.35z" id="m"/><path fill="#444" d="M102.3 40.85q-.8.95-.8 2.35 0 1.4.8 2.35.8 1 1.95 1t2-1q.8-.95.8-2.35 0-1.4-.8-2.35-.85-1-2-1t-1.95 1z" id="n"/><path fill="#47352D" d="M100.7 26.5q.35-.35.65.1 3.05 6.3 9.2 10.7 3.05 2.2 5.5 3.15V21.4q-1.55-3.15-5-6.35-6.85-6.35-16.2-6.35t-16.2 6.2q-2.1 1.9-3.75 4.2l-1.2 1.95v19.4q9.2-1.6 18.15-7.15 5.05-3.2 8.85-6.8z" id="o"/><path fill="#4C3734" d="M100.65 54.55h-12q-.55 0-.7.3-.2.35.15.85.65 1 2.2 1.8 2 1.05 4.35 1.05 2.35 0 4.35-1.05 1.55-.8 2.2-1.8.35-.5.15-.85-.15-.3-.7-.3z" id="p"/><path fill="#7A4C32" d="M98 49.95q-.15-.2-.45-.15-1.5.45-2.9.45t-2.9-.45q-.3-.05-.45.15-.15.2 0 .45.3.55 1.15 1.05 1.05.65 2.2.65 1.15 0 2.2-.65.8-.5 1.15-1.05.1-.25 0-.45z" id="q"/><path fill="#7A4C32" d="M106.9 66.05h-3.6v20.3q4.75 0 7.85-2.4 3.6-2.8 3.6-8.05 0-5.3-3.9-8.1l-3.95-1.75z" id="r"/><path fill="#7A4C32" d="M24.7 66.05h-3.65l-3.9 1.75q-3.95 2.8-3.95 8.1 0 5.25 3.6 8.05 3.1 2.4 7.9 2.4v-20.3z" id="s"/><path fill="#AD6F43" d="M106.75 73.8q0-30.45-8.65-45.45Q87.85 10.6 64 10.6q-23.9 0-34.15 17.75-8.65 15-8.65 45.45 0 25.9 14.6 38.45Q47.05 122 64 122q16.8 0 28.1-9.65 14.65-12.55 14.65-38.55z" id="t"/><path fill="#444" d="M40.15 72.35q-1.7 2-1.7 4.85 0 2.9 1.7 4.9 1.65 2 4.05 2 2.35 0 4.05-2 1.65-2.05 1.65-4.9 0-2.85-1.65-4.85-1.7-2.05-4.05-2.05-2.4 0-4.05 2.05z" id="u"/><path fill="#444" d="M87.85 72.35q-1.7-2.05-4.05-2.05-2.4 0-4.05 2.05-1.7 2-1.7 4.85 0 2.85 1.7 4.9 1.65 2 4.05 2 2.35 0 4.05-2 1.65-2 1.65-4.9 0-2.85-1.65-4.85z" id="v"/><path fill="#513F35" d="M63.95 108.75q4.9 0 9-2.15 3.2-1.7 4.5-3.7.7-1.05.35-1.7-.35-.65-1.45-.65H51.6q-1.1 0-1.45.65-.35.65.35 1.7 1.3 2 4.5 3.7 4.1 2.15 8.95 2.15z" id="w"/><path fill="#7A4C32" d="M58 90q-.65-.15-.9.3-.3.4-.05.9.7 1.15 2.4 2.2 2.2 1.35 4.55 1.35 2.35 0 4.5-1.35 1.7-1.05 2.4-2.2.25-.5 0-.9-.3-.45-.95-.3-3.15.9-5.95.9-2.85 0-6-.9z" id="x"/><path fill="#47352D" d="M63.35 24.5v-.8q-.4-6.25-5.65-10.85-7.2-6.3-21.15-6.5H35.5q-13.95.2-21.1 6.5-5.3 4.6-5.65 10.85-.05.4-.05.8v14.55q.35-.3.95-.75.4-.35.95-.6l.4-.2 1.05 6.95Q17.8 35.5 19.4 25.7q4.55 3 8.3 4.25 3.75 1.25 7.8 1.2h1.05q6.7-.05 12.3-.7l4.1-.45q.1 0 .2.1L60 44.45l1.05-6.95.45.2q.5.25.9.55.65.5.95.8V24.5z" id="y"/><path fill="#D8BEFF" d="M60.9 129.1q.3 0-.05-6.9v-.25q0-6.55-6.9-10.4-5.2-2.95-10.2-2.95H34.2q-5 0-10.2 2.95-6.95 3.85-6.95 10.4-.3 7.15 0 7.15H60.9z" id="z"/><path fill="#7A4C32" d="M42.5 115.1q1.25-1.3 1.25-3.05v-2.4H34.2v2.4q0 1.75 1.25 3.05 1.3 1.25 3.05 1.25h.95q1.75 0 3.05-1.25z" id="A"/><path fill="#47352D" d="M102.5 91.65q16-14.75 16-35.55 0-20.85-16-35.55Q86.55 5.8 64 5.8q-22.6 0-38.55 14.75Q9.5 35.25 9.5 56.1q0 20.8 15.95 35.55 16 14.75 38.55 14.75 22.55 0 38.5-14.75z" id="B"/><path fill="#7A4C32" d="M108.6 69.8h-3.8v21.4q5.05 0 8.3-2.55 3.8-2.95 3.8-8.45 0-5.6-4.15-8.55l-4.15-1.85z" id="C"/><path fill="#7A4C32" d="M23.15 69.8h-3.8l-4.15 1.85q-4.15 2.95-4.15 8.55 0 5.5 3.8 8.45 3.25 2.55 8.3 2.55V69.8z" id="D"/><path fill="#47352D" d="M63.35 59.8q-.3-1.9-1.2-3.5-1.85-3.2-6.05-3.4-3.55-.15-6 2.35-2.55 2.6-1.8 6 1 4.4 5.6 6.2 4.2 1.65 8.5.25 1.1-.35 2.2-1.15 1.5-1.15 1.15-2.05-.15-.25-.7-.5-.65-.25-.8-.4-.55-.45-.7-1.8-.1-1.5-.2-2z" id="E"/><path fill="#47352D" d="M39.2 98.45Q34.9 94 28.55 94.1q-7.45.15-10.8 5.85-1.55 2.55-2.25 6.15-.15.9-.4 3.6-.35 2.4-1.35 3.15-.25.2-1.4.7-.95.4-1.2.9-.8 1.6 1.9 3.6 2 1.55 3.85 2.1 7.65 2.6 15.15-.2 8.25-3.05 10.15-10.8 1.45-6.1-3-10.7z" id="F"/><path fill="#AD6F43" d="M95.55 43q-5.35-6.7-14.5-10.3-8.1-3.2-17.05-3.2-8.95 0-17.1 3.2-9.15 3.6-14.5 10.3-11.25 14-11.2 37 .05 10.05 2.85 17.2 3.05 7.7 9.85 13.35 13.25 11.1 29.45 11.1 8.25 0 16.2-2.75 8.4-2.95 14.5-8.3 6.7-5.9 9.75-13.45 2.9-7.25 2.95-17.15.05-23-11.2-37z" id="G"/><path fill="#7A4C32" d="M57.75 89.65q-.65-.2-1 .3-.3.45 0 .95.7 1.2 2.5 2.3 2.25 1.4 4.75 1.4 2.45 0 4.75-1.4 1.75-1.1 2.45-2.3.3-.5 0-.95-.3-.5-.95-.3-3.2.95-6.25.95t-6.25-.95z" id="H"/><path fill="#513F35" d="M64 108.45q5.05 0 9.35-2.3 3.3-1.75 4.7-3.85.75-1.05.35-1.75-.35-.7-1.5-.7H51.05q-1.15 0-1.5.7-.35.7.35 1.75 1.35 2.1 4.7 3.85 4.3 2.3 9.4 2.3z" id="I"/><path fill="#47352D" d="M111.55 67.65l4.9-15.05-4.7-16.75-35.55-23.7H51.55L16 35.85 11.35 52.6l4.9 15.05 3.45 6.7Q32.65 71.4 46.3 63.1q11.85-7.2 16.95-13.55.25-.3.65-.3t.6.3q5.15 6.4 16.8 13.5 13.5 8.25 26.8 11.3l3.45-6.7z" id="J"/><path fill="#444" d="M40.15 72.35q-1.7 2-1.7 4.85 0 2.9 1.7 4.9 1.65 2 4.05 2 2.35 0 4.05-2 1.65-2.05 1.65-4.9 0-2.85-1.65-4.85-1.7-2.05-4.05-2.05-2.4 0-4.05 2.05z" id="K"/><path fill="#444" d="M87.85 72.35q-1.7-2.05-4.05-2.05-2.4 0-4.05 2.05-1.7 2-1.7 4.85 0 2.85 1.7 4.9 1.65 2 4.05 2 2.35 0 4.05-2 1.65-2 1.65-4.9 0-2.85-1.65-4.85z" id="L"/><path fill="#D8BEFF" d="M60.9 129.1q.3 0-.05-6.9v-.25q0-6.55-6.9-10.4-5.2-2.95-10.2-2.95H34.2q-5 0-10.2 2.95-6.95 3.85-6.95 10.4-.3 7.15 0 7.15H60.9z" id="M"/><path fill="#7A4C32" d="M42.5 115.1q1.25-1.3 1.25-3.05v-2.4H34.2v2.4q0 1.75 1.25 3.05 1.3 1.25 3.05 1.25h.95q1.75 0 3.05-1.25z" id="N"/><path fill="#47352D" d="M102.5 91.65q16-14.75 16-35.55 0-20.85-16-35.55Q86.55 5.8 64 5.8q-22.6 0-38.55 14.75Q9.5 35.25 9.5 56.1q0 20.8 15.95 35.55 16 14.75 38.55 14.75 22.55 0 38.5-14.75z" id="O"/><path fill="#7A4C32" d="M108.6 69.8h-3.8v21.4q5.05 0 8.3-2.55 3.8-2.95 3.8-8.45 0-5.6-4.15-8.55l-4.15-1.85z" id="P"/><path fill="#7A4C32" d="M23.15 69.8h-3.8l-4.15 1.85q-4.15 2.95-4.15 8.55 0 5.5 3.8 8.45 3.25 2.55 8.3 2.55V69.8z" id="Q"/><path fill="#47352D" d="M63.35 59.8q-.3-1.9-1.2-3.5-1.85-3.2-6.05-3.4-3.55-.15-6 2.35-2.55 2.6-1.8 6 1 4.4 5.6 6.2 4.2 1.65 8.5.25 1.1-.35 2.2-1.15 1.5-1.15 1.15-2.05-.15-.25-.7-.5-.65-.25-.8-.4-.55-.45-.7-1.8-.1-1.5-.2-2z" id="R"/><path fill="#47352D" d="M39.2 98.45Q34.9 94 28.55 94.1q-7.45.15-10.8 5.85-1.55 2.55-2.25 6.15-.15.9-.4 3.6-.35 2.4-1.35 3.15-.25.2-1.4.7-.95.4-1.2.9-.8 1.6 1.9 3.6 2 1.55 3.85 2.1 7.65 2.6 15.15-.2 8.25-3.05 10.15-10.8 1.45-6.1-3-10.7z" id="S"/><path fill="#AD6F43" d="M95.55 43q-5.35-6.7-14.5-10.3-8.1-3.2-17.05-3.2-8.95 0-17.1 3.2-9.15 3.6-14.5 10.3-11.25 14-11.2 37 .05 10.05 2.85 17.2 3.05 7.7 9.85 13.35 13.25 11.1 29.45 11.1 8.25 0 16.2-2.75 8.4-2.95 14.5-8.3 6.7-5.9 9.75-13.45 2.9-7.25 2.95-17.15.05-23-11.2-37z" id="T"/><path fill="#7A4C32" d="M57.75 89.65q-.65-.2-1 .3-.3.45 0 .95.7 1.2 2.5 2.3 2.25 1.4 4.75 1.4 2.45 0 4.75-1.4 1.75-1.1 2.45-2.3.3-.5 0-.95-.3-.5-.95-.3-3.2.95-6.25.95t-6.25-.95z" id="U"/><path fill="#513F35" d="M64 108.45q5.05 0 9.35-2.3 3.3-1.75 4.7-3.85.75-1.05.35-1.75-.35-.7-1.5-.7H51.05q-1.15 0-1.5.7-.35.7.35 1.75 1.35 2.1 4.7 3.85 4.3 2.3 9.4 2.3z" id="V"/><path fill="#47352D" d="M111.55 67.65l4.9-15.05-4.7-16.75-35.55-23.7H51.55L16 35.85 11.35 52.6l4.9 15.05 3.45 6.7Q32.65 71.4 46.3 63.1q11.85-7.2 16.95-13.55.25-.3.65-.3t.6.3q5.15 6.4 16.8 13.5 13.5 8.25 26.8 11.3l3.45-6.7z" id="W"/><path fill="#444" d="M40.15 72.35q-1.7 2-1.7 4.85 0 2.9 1.7 4.9 1.65 2 4.05 2 2.35 0 4.05-2 1.65-2.05 1.65-4.9 0-2.85-1.65-4.85-1.7-2.05-4.05-2.05-2.4 0-4.05 2.05z" id="X"/><path fill="#444" d="M87.85 72.35q-1.7-2.05-4.05-2.05-2.4 0-4.05 2.05-1.7 2-1.7 4.85 0 2.85 1.7 4.9 1.65 2 4.05 2 2.35 0 4.05-2 1.65-2 1.65-4.9 0-2.85-1.65-4.85z" id="Y"/></defs><use xlink:href="#a" transform="translate(-.05 -.3) scale(.5625)"/><use xlink:href="#b" transform="translate(-.05 -.3) scale(.5625)"/><use xlink:href="#c" transform="translate(-.05 -.3) scale(.5625)"/><use xlink:href="#d"/><use xlink:href="#e" transform="translate(-.05 -.3) scale(.5625)"/><use xlink:href="#f" transform="translate(.1 -.3) scale(.5625)"/><use xlink:href="#g"/><use xlink:href="#h" transform="translate(-.05 -.3) scale(.5625)"/><use xlink:href="#i" transform="translate(0 -.3) scale(.5625)"/><use xlink:href="#j" transform="translate(-.05 -.3) scale(.5625)"/><use xlink:href="#k" transform="translate(-.05 -.3) scale(.5625)"/><use xlink:href="#l" transform="translate(-.05 -.3) scale(.5625)"/><use xlink:href="#m" transform="translate(-.05 -.3) scale(.5625)"/><use xlink:href="#n" transform="translate(-.05 -.3) scale(.5625)"/><use xlink:href="#o" transform="translate(-.05 -.3) scale(.5625)"/><use xlink:href="#p" transform="translate(-.05 -.3) scale(.5625)"/><use xlink:href="#q" transform="translate(-.05 -.3) scale(.5625)"/><use xlink:href="#r" transform="matrix(.276 0 0 .27534 1.1 2.25)"/><use xlink:href="#s" transform="matrix(.276 0 0 .27534 1.1 2.25)"/><use xlink:href="#t" transform="matrix(.27608 0 0 .27542 1.1 2.5)"/><use xlink:href="#u" transform="matrix(.27608 0 0 .27542 1.1 2.5)"/><use xlink:href="#v" transform="matrix(.27608 0 0 .27542 1.1 2.5)"/><use xlink:href="#w" transform="matrix(.27608 0 0 .27542 1.1 2.5)"/><use xlink:href="#x" transform="matrix(.27608 0 0 .27542 1.1 2.5)"/><use xlink:href="#y" transform="matrix(.49081 0 0 .48964 1.1 2.3)"/><use xlink:href="#z" transform="translate(1.2 1.45) scale(.54637)"/><use xlink:href="#A" transform="translate(1.2 1.45) scale(.54637)"/><use xlink:href="#B" transform="matrix(.2076 0 0 .20752 9.25 36.5)"/><use xlink:href="#C" transform="matrix(.20755 0 0 .20747 9.25 36.5)"/><use xlink:href="#D" transform="matrix(.20755 0 0 .20747 9.25 36.5)"/><use xlink:href="#E" transform="matrix(.36908 0 0 .36891 9.25 36.5)"/><use xlink:href="#F" transform="matrix(.20753 0 0 .20746 9.25 36.5)"/><use xlink:href="#G" transform="matrix(.20755 0 0 .20747 9.25 36.5)"/><use xlink:href="#H" transform="matrix(.2076 0 0 .20752 9.25 36.5)"/><use xlink:href="#I" transform="matrix(.2076 0 0 .20752 9.25 36.5)"/><use xlink:href="#J" transform="matrix(.2076 0 0 .20752 9.25 36.5)"/><use xlink:href="#K" transform="matrix(.20757 0 0 .20749 9.15 37.1)"/><use xlink:href="#L" transform="matrix(.20757 0 0 .20749 9.15 37.1)"/><use xlink:href="#M" transform="translate(28.3 1.45) scale(.54637)"/><use xlink:href="#N" transform="translate(28.3 1.45) scale(.54637)"/><use xlink:href="#O" transform="matrix(.20758 0 0 .2075 36.35 36.5)"/><use xlink:href="#P" transform="matrix(.20752 0 0 .20744 36.35 36.5)"/><use xlink:href="#Q" transform="matrix(.20752 0 0 .20744 36.35 36.5)"/><use xlink:href="#R" transform="matrix(.36903 0 0 .36887 36.35 36.5)"/><use xlink:href="#S" transform="matrix(.20749 0 0 .20741 36.35 36.5)"/><use xlink:href="#T" transform="matrix(.20752 0 0 .20744 36.35 36.5)"/><use xlink:href="#U" transform="matrix(.20758 0 0 .2075 36.35 36.5)"/><use xlink:href="#V" transform="matrix(.20758 0 0 .2075 36.35 36.5)"/><use xlink:href="#W" transform="matrix(.20758 0 0 .2075 36.35 36.5)"/><use xlink:href="#X" transform="matrix(.20753 0 0 .20746 36.2 37.05)"/><use xlink:href="#Y" transform="matrix(.20753 0 0 .20746 36.2 37.05)"/></svg>