<svg xmlns="http://www.w3.org/2000/svg" xmlns:xlink="http://www.w3.org/1999/xlink" preserveAspectRatio="none" viewBox="0 0 72 72"><defs><path fill="#444" d="M62.95 118.75l-10.05-12.8q-1.45 1.15-1.8 3.05-.4 1.95.7 3.3 2.3 2.9 3.5 4.1 1.95 2.05 3.5 2.6 1.25.45 2.55.3 1.05-.1 1.6-.55z" id="a"/><path fill="#444" d="M52.9 105.95l10.05 12.8q.55-.45.9-1.45.45-1.15.3-2.5-.15-1.7-1.65-4.05-.95-1.55-3.2-4.35-1.05-1.35-3.05-1.45-1.95-.1-3.35 1z" id="b"/><path fill="#FBC11B" d="M47.85 94.9q-1.95 0-3.3 1.35-1.35 1.4-1.35 3.3t1.35 3.3q1.35 1.35 3.3 1.35 1.9 0 3.3-1.35 1.35-1.4 1.35-3.3t-1.35-3.3q-1.4-1.35-3.3-1.35z" id="c"/><path fill="#E0BB95" d="M52.05 97.65l-7.4-17-10.4 4.75 9.4 16.2 8.4-3.95z" id="d"/><path fill="#E0BB95" d="M55.1 113.75l4.9-3.8-8.35-13.25-7.35 5.85 10.8 11.2z" id="e"/><path fill="#E0BB95" d="M33.5 80.6H22.8l3.6 43.4h8.3l-1.2-43.4z" id="f"/><path fill="#444" d="M35.8 124.35v-1.85q0-1.7-1.15-2.85-1.2-1.15-2.85-1.15H29q-1.65 0-2.8 1.15-1.2 1.15-1.2 2.85v1.85h10.8z" id="g"/><path fill="#BFA055" d="M51.45 42.35l.25-10.9H17l.35 11.65Q18 55.95 19.7 62q1.15 4.1 2.5 5.35 1.7 1.55 4.45-.55l15.4-.15q2.85 2.2 5 .6Q49 65.8 49.7 61.9q1.25-7.25 1.75-19.55z" id="h"/><path fill="#FBC11B" d="M6.5 72q-.2 1.3.6 2.3.8 1.05 2.1 1.2 1.3.2 2.3-.6 1.05-.8 1.2-2.1.2-1.3-.6-2.3-.8-1.05-2.1-1.2-1.25-.2-2.3.6-1.05.8-1.2 2.1z" id="i"/><path fill="#E0BB95" d="M20.15 61.25q-2.4-3.3-2.7-3-3.9 4-10.2 12.05L12 74.45l1.15-1.25q1.45-1.55 5.55-5.2l3.8-3.4q-1.15-1.7-2.35-3.35z" id="j"/><path fill="#444" d="M34.4 72.4V54q-4.4 0-9.25.9-3.1.65-5.4 1.75-2.45 1.2-4.95 3.3l7.55 7.85 12.05 4.6z" id="k"/><path fill="#E0BB95" d="M22.5 81.95q-.05-1.15-.85-1.95l-6.35-6.5q-1.65-1.65-3.4-3.9l-4.65 4.9q5.8 5.9 10.2 9.7.95.95 2.25.9 1.35-.1 2.15-1.1.7-.9.65-2.05z" id="l"/><path fill="#FBC11B" d="M58.75 69.3q-1.3.15-2.1 1.2-.8 1-.6 2.3.15 1.3 1.2 2.1 1 .8 2.3.6 1.3-.15 2.1-1.2t.6-2.3q-.15-1.3-1.2-2.1t-2.3-.6z" id="m"/><path fill="#E0BB95" d="M51.3 58.25q-.3-.3-2.7 3-1.2 1.65-2.35 3.35l3.8 3.4q4.1 3.65 5.55 5.2l1.15 1.25 4.75-4.15q-6.35-8.05-10.2-12.05z" id="n"/><path fill="#444" d="M34.4 54v18.4l12-4.6 7.6-7.85q-2.55-2.15-4.95-3.3-2.3-1.1-5.45-1.75-4.85-.9-9.2-.9z" id="o"/><path fill="#E0BB95" d="M47.1 80q-.8.8-.85 1.95-.05 1.15.65 2.05.85 1 2.15 1.1 1.3.05 2.25-.9 4.4-3.8 10.2-9.7l-4.65-4.9q-1.75 2.25-3.4 3.9L47.1 80z" id="p"/><path fill="#444" d="M31.45 59.25v14.2h4.75v-14.2h-4.75z" id="q"/><path fill="#444" d="M36.75 82.95v-18h-14.4v18h14.4z" id="r"/><path fill="#444" d="M34.35 64.95v18h12v-18h-12z" id="s"/><path fill="#E0BB95" d="M26.75 62.3q3.15 2.3 7.65 2.3 4.45 0 7.6-2.3 3.15-2.3 3.15-5.55L45.1 56q-.55-.25-1.5-.5-3.45-.9-9.2-.9-5.8 0-9.25.9-.95.25-1.5.5l-.05.75q0 3.25 3.15 5.55z" id="t"/><path fill="#FBC11B" d="M34.4 60.25q2 0 3.3-1.2 1.3-1.25 1.3-3.2v-4.6h-9.25v4.6q0 1.95 1.35 3.2 1.3 1.2 3.3 1.2z" id="u"/><path fill="#E7A13D" d="M37 48.8h-5.2q-.9 0-1.5.8-.55.75-.55 1.7v4.5l1.25.35q1.6.3 3.4.3 2.8 0 4.6-.7V51.2q0-.95-.55-1.65-.6-.75-1.45-.75z" id="v"/><path fill="#C48E6A" d="M34.4 60.65q1.95 0 3.35-1.35 1.35-1.4 1.35-3.35v-4h-9.4v4q0 1.95 1.4 3.35 1.35 1.35 3.3 1.35z" id="w"/><path fill="#BFA055" d="M46.65 42.4q5.1-4.6 5.1-11.05 0-6.45-5.1-11T34.4 15.8q-7.2 0-12.25 4.55-5.1 4.55-5.1 11t5.1 11.05q5.05 4.55 12.25 4.55 7.15 0 12.25-4.55z" id="x"/><path fill="#E0BB95" d="M25.3 14.15Q23.5 11 19.3 11t-6 3.15q-1.55 2.65-1.55 8 0 4.4 2.7 6.75 2.05 1.8 4.85 1.8 2.75 0 4.85-1.8 2.7-2.35 2.7-6.75 0-5.35-1.55-8z" id="y"/><path fill="#444" d="M29.8 39.85q0-.95-.55-1.6-.55-.65-1.3-.65-.8 0-1.35.65t-.55 1.6q0 .95.55 1.6.55.65 1.35.65.75 0 1.3-.65t.55-1.6z" id="z"/><path fill="#444" d="M42.2 38.25q-.55-.65-1.35-.65t-1.3.65q-.55.65-.55 1.6 0 .95.55 1.6.55.65 1.3.65.8 0 1.35-.65t.55-1.6q0-.95-.55-1.6z" id="A"/><path fill="#BFA055" d="M45.05 35.9q2.05 1.45 3.7 2.1V25.2q-1.05-2.1-3.35-4.25-4.55-4.25-10.85-4.25t-10.9 4.15q-2.3 2.1-3.35 4.15v13q6.2-1.05 12.2-4.8 3.45-2.15 5.95-4.55.25-.25.45.05 2.05 4.2 6.15 7.2z" id="B"/><path fill="#513F35" d="M38.9 47.7q-.1-.2-.45-.2h-8.1q-.35 0-.45.2-.1.2.1.55.4.65 1.45 1.25 1.35.7 2.95.7t2.9-.7q1.05-.55 1.5-1.25.2-.35.1-.55z" id="C"/><path fill="#C48E6A" d="M34.4 44.6q-.9 0-1.95-.3-.2-.05-.3.1-.1.15 0 .3.2.35.75.7.75.45 1.5.45t1.5-.45q.55-.35.75-.7.1-.15 0-.3t-.3-.1q-1.05.3-1.95.3z" id="D"/><path fill="#2F2F2F" d="M30.9 12q0-3.45-1.6-6.75-1.55-3.15-2.85-3.15-1.35 0-2.85 3Q22 8.35 22 12q0 3.8 1.6 7 1.5 2.9 2.85 2.9 1.25 0 2.75-2.9 1.7-3.25 1.7-7z" id="E"/><path fill="#FF7CE5" d="M28.2 10l-1.75-3.15Q25.3 8.1 24.7 10q-1.2 3.85 1.75 7.3 2.9-3.45 1.75-7.3z" id="F"/><path fill="#2F2F2F" d="M45.2 5.1q-1.5-3-2.9-3-1.25 0-2.8 3.15Q37.85 8.6 37.85 12q0 3.75 1.7 7 1.5 2.9 2.75 2.9 1.4 0 2.9-2.9 1.6-3.15 1.6-7 0-3.65-1.6-6.9z" id="G"/><path fill="#FF7CE5" d="M42.3 6.85Q41.15 8.1 40.55 10q-1.15 3.85 1.75 7.3 2.95-3.45 1.75-7.3L42.3 6.85z" id="H"/><path fill="#2F2F2F" d="M47.65 26.25q.2-.2.05-.4-5.35-6.7-13.3-6.55-8.15-.15-13.3 6.55-.15.2 0 .4.2.15.4.05 4.15-2.45 6.4-3.2 2.35-.75 6.5-.9 4.1.15 6.45.9 2.3.75 6.45 3.2.2.1.35-.05z" id="I"/><path fill="#E0BB95" d="M57.35 108.5q-1.25 0-2.2.9-.9.95-.9 2.2 0 1.3.9 2.2.95.9 2.2.9 1.3 0 2.2-.9.9-.9.9-2.2 0-1.25-.9-2.2-.9-.9-2.2-.9z" id="J"/><path fill="#444" d="M35.35 91.1q2.05 0 4.35-2.3l6.65-5.85h-24l7.55 5.65q.55.55 2.2 1.4 2 1.1 3.2 1.1h.05z" id="K"/><path fill="#444" d="M22.35 82.95l1.45.75h20.85l1.7-.75-1.2-1.1-21.85.2-.95.9z" id="L"/><path fill="#444" d="M62.95 118.75l-10.05-12.8q-1.45 1.15-1.8 3.05-.4 1.95.7 3.3 2.3 2.9 3.5 4.1 1.95 2.05 3.5 2.6 1.25.45 2.55.3 1.05-.1 1.6-.55z" id="M"/><path fill="#444" d="M52.9 105.95l10.05 12.8q.55-.45.9-1.45.45-1.15.3-2.5-.15-1.7-1.65-4.05-.95-1.55-3.2-4.35-1.05-1.35-3.05-1.45-1.95-.1-3.35 1z" id="N"/><path fill="#FBC11B" d="M47.85 94.9q-1.95 0-3.3 1.35-1.35 1.4-1.35 3.3t1.35 3.3q1.35 1.35 3.3 1.35 1.9 0 3.3-1.35 1.35-1.4 1.35-3.3t-1.35-3.3q-1.4-1.35-3.3-1.35z" id="O"/><path fill="#E0BB95" d="M52.05 97.65l-7.4-17-10.4 4.75 9.4 16.2 8.4-3.95z" id="P"/><path fill="#E0BB95" d="M55.1 113.75l4.9-3.8-8.35-13.25-7.35 5.85 10.8 11.2z" id="Q"/><path fill="#E0BB95" d="M33.5 80.6H22.8l3.6 43.4h8.3l-1.2-43.4z" id="R"/><path fill="#444" d="M35.8 124.35v-1.85q0-1.7-1.15-2.85-1.2-1.15-2.85-1.15H29q-1.65 0-2.8 1.15-1.2 1.15-1.2 2.85v1.85h10.8z" id="S"/><path fill="#BFA055" d="M51.45 42.35l.25-10.9H17l.35 11.65Q18 55.95 19.7 62q1.15 4.1 2.5 5.35 1.7 1.55 4.45-.55l15.4-.15q2.85 2.2 5 .6Q49 65.8 49.7 61.9q1.25-7.25 1.75-19.55z" id="T"/><path fill="#FBC11B" d="M6.5 72q-.2 1.3.6 2.3.8 1.05 2.1 1.2 1.3.2 2.3-.6 1.05-.8 1.2-2.1.2-1.3-.6-2.3-.8-1.05-2.1-1.2-1.25-.2-2.3.6-1.05.8-1.2 2.1z" id="U"/><path fill="#E0BB95" d="M20.15 61.25q-2.4-3.3-2.7-3-3.9 4-10.2 12.05L12 74.45l1.15-1.25q1.45-1.55 5.55-5.2l3.8-3.4q-1.15-1.7-2.35-3.35z" id="V"/><path fill="#444" d="M34.4 72.4V54q-4.4 0-9.25.9-3.1.65-5.4 1.75-2.45 1.2-4.95 3.3l7.55 7.85 12.05 4.6z" id="W"/><path fill="#E0BB95" d="M22.5 81.95q-.05-1.15-.85-1.95l-6.35-6.5q-1.65-1.65-3.4-3.9l-4.65 4.9q5.8 5.9 10.2 9.7.95.95 2.25.9 1.35-.1 2.15-1.1.7-.9.65-2.05z" id="X"/><path fill="#FBC11B" d="M58.75 69.3q-1.3.15-2.1 1.2-.8 1-.6 2.3.15 1.3 1.2 2.1 1 .8 2.3.6 1.3-.15 2.1-1.2t.6-2.3q-.15-1.3-1.2-2.1t-2.3-.6z" id="Y"/><path fill="#E0BB95" d="M51.3 58.25q-.3-.3-2.7 3-1.2 1.65-2.35 3.35l3.8 3.4q4.1 3.65 5.55 5.2l1.15 1.25 4.75-4.15q-6.35-8.05-10.2-12.05z" id="Z"/><path fill="#444" d="M34.4 54v18.4l12-4.6 7.6-7.85q-2.55-2.15-4.95-3.3-2.3-1.1-5.45-1.75-4.85-.9-9.2-.9z" id="aa"/><path fill="#E0BB95" d="M47.1 80q-.8.8-.85 1.95-.05 1.15.65 2.05.85 1 2.15 1.1 1.3.05 2.25-.9 4.4-3.8 10.2-9.7l-4.65-4.9q-1.75 2.25-3.4 3.9L47.1 80z" id="ab"/><path fill="#444" d="M31.45 59.25v14.2h4.75v-14.2h-4.75z" id="ac"/><path fill="#444" d="M36.75 82.95v-18h-14.4v18h14.4z" id="ad"/><path fill="#444" d="M34.35 64.95v18h12v-18h-12z" id="ae"/><path fill="#E0BB95" d="M26.75 62.3q3.15 2.3 7.65 2.3 4.45 0 7.6-2.3 3.15-2.3 3.15-5.55L45.1 56q-.55-.25-1.5-.5-3.45-.9-9.2-.9-5.8 0-9.25.9-.95.25-1.5.5l-.05.75q0 3.25 3.15 5.55z" id="af"/><path fill="#FBC11B" d="M34.4 60.25q2 0 3.3-1.2 1.3-1.25 1.3-3.2v-4.6h-9.25v4.6q0 1.95 1.35 3.2 1.3 1.2 3.3 1.2z" id="ag"/><path fill="#E7A13D" d="M37 48.8h-5.2q-.9 0-1.5.8-.55.75-.55 1.7v4.5l1.25.35q1.6.3 3.4.3 2.8 0 4.6-.7V51.2q0-.95-.55-1.65-.6-.75-1.45-.75z" id="ah"/><path fill="#C48E6A" d="M34.4 60.65q1.95 0 3.35-1.35 1.35-1.4 1.35-3.35v-4h-9.4v4q0 1.95 1.4 3.35 1.35 1.35 3.3 1.35z" id="ai"/><path fill="#BFA055" d="M46.65 42.4q5.1-4.6 5.1-11.05 0-6.45-5.1-11T34.4 15.8q-7.2 0-12.25 4.55-5.1 4.55-5.1 11t5.1 11.05q5.05 4.55 12.25 4.55 7.15 0 12.25-4.55z" id="aj"/><path fill="#E0BB95" d="M25.3 14.15Q23.5 11 19.3 11t-6 3.15q-1.55 2.65-1.55 8 0 4.4 2.7 6.75 2.05 1.8 4.85 1.8 2.75 0 4.85-1.8 2.7-2.35 2.7-6.75 0-5.35-1.55-8z" id="ak"/><path fill="#444" d="M29.8 39.85q0-.95-.55-1.6-.55-.65-1.3-.65-.8 0-1.35.65t-.55 1.6q0 .95.55 1.6.55.65 1.35.65.75 0 1.3-.65t.55-1.6z" id="al"/><path fill="#444" d="M42.2 38.25q-.55-.65-1.35-.65t-1.3.65q-.55.65-.55 1.6 0 .95.55 1.6.55.65 1.3.65.8 0 1.35-.65t.55-1.6q0-.95-.55-1.6z" id="am"/><path fill="#BFA055" d="M45.05 35.9q2.05 1.45 3.7 2.1V25.2q-1.05-2.1-3.35-4.25-4.55-4.25-10.85-4.25t-10.9 4.15q-2.3 2.1-3.35 4.15v13q6.2-1.05 12.2-4.8 3.45-2.15 5.95-4.55.25-.25.45.05 2.05 4.2 6.15 7.2z" id="an"/><path fill="#513F35" d="M38.9 47.7q-.1-.2-.45-.2h-8.1q-.35 0-.45.2-.1.2.1.55.4.65 1.45 1.25 1.35.7 2.95.7t2.9-.7q1.05-.55 1.5-1.25.2-.35.1-.55z" id="ao"/><path fill="#C48E6A" d="M34.4 44.6q-.9 0-1.95-.3-.2-.05-.3.1-.1.15 0 .3.2.35.75.7.75.45 1.5.45t1.5-.45q.55-.35.75-.7.1-.15 0-.3t-.3-.1q-1.05.3-1.95.3z" id="ap"/><path fill="#2F2F2F" d="M30.9 12q0-3.45-1.6-6.75-1.55-3.15-2.85-3.15-1.35 0-2.85 3Q22 8.35 22 12q0 3.8 1.6 7 1.5 2.9 2.85 2.9 1.25 0 2.75-2.9 1.7-3.25 1.7-7z" id="aq"/><path fill="#FF7CE5" d="M28.2 10l-1.75-3.15Q25.3 8.1 24.7 10q-1.2 3.85 1.75 7.3 2.9-3.45 1.75-7.3z" id="ar"/><path fill="#2F2F2F" d="M45.2 5.1q-1.5-3-2.9-3-1.25 0-2.8 3.15Q37.85 8.6 37.85 12q0 3.75 1.7 7 1.5 2.9 2.75 2.9 1.4 0 2.9-2.9 1.6-3.15 1.6-7 0-3.65-1.6-6.9z" id="as"/><path fill="#FF7CE5" d="M42.3 6.85Q41.15 8.1 40.55 10q-1.15 3.85 1.75 7.3 2.95-3.45 1.75-7.3L42.3 6.85z" id="at"/><path fill="#2F2F2F" d="M47.65 26.25q.2-.2.05-.4-5.35-6.7-13.3-6.55-8.15-.15-13.3 6.55-.15.2 0 .4.2.15.4.05 4.15-2.45 6.4-3.2 2.35-.75 6.5-.9 4.1.15 6.45.9 2.3.75 6.45 3.2.2.1.35-.05z" id="au"/><path fill="#E0BB95" d="M57.35 108.5q-1.25 0-2.2.9-.9.95-.9 2.2 0 1.3.9 2.2.95.9 2.2.9 1.3 0 2.2-.9.9-.9.9-2.2 0-1.25-.9-2.2-.9-.9-2.2-.9z" id="av"/><path fill="#444" d="M35.35 91.1q2.05 0 4.35-2.3l6.65-5.85h-24l7.55 5.65q.55.55 2.2 1.4 2 1.1 3.2 1.1h.05z" id="aw"/><path fill="#444" d="M22.35 82.95l1.45.75h20.85l1.7-.75-1.2-1.1-21.85.2-.95.9z" id="ax"/></defs><use xlink:href="#a" transform="matrix(.56245 0 0 .56245 -.05 0)"/><use xlink:href="#b" transform="matrix(.56245 0 0 .56245 -.05 0)"/><use xlink:href="#c" transform="translate(-.05) scale(.5625)"/><use xlink:href="#d" transform="translate(-.05) scale(.5625)"/><use xlink:href="#e" transform="translate(-.05) scale(.5625)"/><use xlink:href="#f" transform="matrix(.56245 0 0 .56245 -.05 0)"/><use xlink:href="#g" transform="matrix(.56245 0 0 .56245 -.05 0)"/><use xlink:href="#h" transform="translate(-.05) scale(.5625)"/><use xlink:href="#i" transform="translate(-.05) scale(.5625)"/><use xlink:href="#j" transform="translate(-.05) scale(.5625)"/><use xlink:href="#k" transform="translate(-.05) scale(.5625)"/><use xlink:href="#l" transform="translate(-.05) scale(.5625)"/><use xlink:href="#m" transform="translate(-.05) scale(.5625)"/><use xlink:href="#n" transform="translate(-.05) scale(.5625)"/><use xlink:href="#o" transform="translate(-.05) scale(.5625)"/><use xlink:href="#p" transform="translate(-.05) scale(.5625)"/><use xlink:href="#q" transform="translate(-.05) scale(.5625)"/><use xlink:href="#r" transform="translate(-.05) scale(.5625)"/><use xlink:href="#s" transform="translate(-.05) scale(.5625)"/><use xlink:href="#t" transform="translate(-.05) scale(.5625)"/><use xlink:href="#u" transform="matrix(.56245 0 0 .56245 -.05 0)"/><use xlink:href="#v" transform="matrix(.56245 0 0 .56245 -.05 0)"/><use xlink:href="#w" transform="translate(-.05) scale(.5625)"/><use xlink:href="#x" transform="translate(-.05) scale(.5625)"/><use xlink:href="#y"/><use xlink:href="#z" transform="translate(-.05) scale(.5625)"/><use xlink:href="#A" transform="translate(-.05) scale(.5625)"/><use xlink:href="#B" transform="translate(-.05) scale(.5625)"/><use xlink:href="#C" transform="translate(-.05) scale(.5625)"/><use xlink:href="#D" transform="translate(-.05) scale(.5625)"/><use xlink:href="#E" transform="matrix(.5624 0 0 .5624 -.05 0)"/><use xlink:href="#F" transform="matrix(.5624 0 0 .5624 -.05 0)"/><use xlink:href="#G" transform="matrix(.5624 0 0 .5624 -.05 0)"/><use xlink:href="#H" transform="matrix(.5624 0 0 .5624 -.05 0)"/><use xlink:href="#I" transform="matrix(.56245 0 0 .56245 -.05 0)"/><use xlink:href="#J" transform="translate(-.05) scale(.5625)"/><use xlink:href="#K" transform="translate(-.05) scale(.5625)"/><use xlink:href="#L" transform="translate(-.05) scale(.5625)"/><use xlink:href="#M" transform="matrix(.56247 0 0 .56247 32.3 0)"/><use xlink:href="#N" transform="matrix(.56247 0 0 .56247 32.3 0)"/><use xlink:href="#O" transform="translate(32.3) scale(.5625)"/><use xlink:href="#P" transform="translate(32.3) scale(.5625)"/><use xlink:href="#Q" transform="translate(32.3) scale(.5625)"/><use xlink:href="#R" transform="matrix(.56247 0 0 .56247 32.3 0)"/><use xlink:href="#S" transform="matrix(.56247 0 0 .56247 32.3 0)"/><use xlink:href="#T" transform="translate(32.3) scale(.5625)"/><use xlink:href="#U" transform="translate(32.3) scale(.5625)"/><use xlink:href="#V" transform="translate(32.3) scale(.5625)"/><use xlink:href="#W" transform="translate(32.3) scale(.5625)"/><use xlink:href="#X" transform="translate(32.3) scale(.5625)"/><use xlink:href="#Y" transform="translate(32.3) scale(.5625)"/><use xlink:href="#Z" transform="translate(32.3) scale(.5625)"/><use xlink:href="#aa" transform="translate(32.3) scale(.5625)"/><use xlink:href="#ab" transform="translate(32.3) scale(.5625)"/><use xlink:href="#ac" transform="translate(32.3) scale(.5625)"/><use xlink:href="#ad" transform="translate(32.3) scale(.5625)"/><use xlink:href="#ae" transform="translate(32.3) scale(.5625)"/><use xlink:href="#af" transform="translate(32.3) scale(.5625)"/><use xlink:href="#ag" transform="matrix(.56247 0 0 .56247 32.3 0)"/><use xlink:href="#ah" transform="matrix(.56247 0 0 .56247 32.3 0)"/><use xlink:href="#ai" transform="translate(32.3) scale(.5625)"/><use xlink:href="#aj" transform="translate(32.3) scale(.5625)"/><use xlink:href="#ak" transform="translate(32.35)"/><use xlink:href="#al" transform="translate(32.3) scale(.5625)"/><use xlink:href="#am" transform="translate(32.3) scale(.5625)"/><use xlink:href="#an" transform="translate(32.3) scale(.5625)"/><use xlink:href="#ao" transform="translate(32.3) scale(.5625)"/><use xlink:href="#ap" transform="translate(32.3) scale(.5625)"/><use xlink:href="#aq" transform="matrix(.56244 0 0 .56244 32.3 0)"/><use xlink:href="#ar" transform="matrix(.56244 0 0 .56244 32.3 0)"/><use xlink:href="#as" transform="matrix(.56244 0 0 .56244 32.3 0)"/><use xlink:href="#at" transform="matrix(.56244 0 0 .56244 32.3 0)"/><use xlink:href="#au" transform="matrix(.56247 0 0 .56247 32.3 0)"/><use xlink:href="#av" transform="translate(32.3) scale(.5625)"/><use xlink:href="#aw" transform="translate(32.3) scale(.5625)"/><use xlink:href="#ax" transform="translate(32.3) scale(.5625)"/></svg>