<svg xmlns="http://www.w3.org/2000/svg" xmlns:xlink="http://www.w3.org/1999/xlink" preserveAspectRatio="none" viewBox="0 0 72 72"><defs><path id="a" fill="#444" d="M62.95 118.75l-10.05-12.8q-1.45 1.15-1.8 3.05-.4 1.95.7 3.3 2.3 2.9 3.5 4.1 1.95 2.05 3.5 2.6 1.25.45 2.55.3 1.05-.1 1.6-.55z"/><path id="b" fill="#444" d="M52.9 105.95l10.05 12.8q.55-.45.9-1.45.45-1.15.3-2.5-.15-1.7-1.65-4.05-.95-1.55-3.2-4.35-1.05-1.35-3.05-1.45-1.95-.1-3.35 1z"/><path id="c" fill="#FBC11B" d="M47.85 94.9q-1.95 0-3.3 1.35-1.35 1.4-1.35 3.3t1.35 3.3q1.35 1.35 3.3 1.35 1.9 0 3.3-1.35 1.35-1.4 1.35-3.3t-1.35-3.3q-1.4-1.35-3.3-1.35z"/><path id="d" fill="#FADCBC" d="M52.05 97.65l-7.4-17-10.4 4.75 9.4 16.2 8.4-3.95z"/><path id="e" fill="#FADCBC" d="M55.1 113.75l4.9-3.8-8.35-13.25-7.35 5.85 10.8 11.2z"/><path id="f" fill="#FADCBC" d="M33.5 80.6H22.8l3.6 43.4h8.3l-1.2-43.4z"/><path id="g" fill="#444" d="M35.8 124.35v-1.85q0-1.7-1.15-2.85-1.2-1.15-2.85-1.15H29q-1.65 0-2.8 1.15-1.2 1.15-1.2 2.85v1.85h10.8z"/><path id="h" fill="#FBC11B" d="M6.5 72q-.2 1.3.6 2.3.8 1.05 2.1 1.2 1.3.2 2.3-.6 1.05-.8 1.2-2.1.2-1.3-.6-2.3-.8-1.05-2.1-1.2-1.25-.2-2.3.6-1.05.8-1.2 2.1z"/><path id="i" fill="#FADCBC" d="M20.15 61.25q-2.4-3.3-2.7-3-3.9 4-10.2 12.05L12 74.45l1.15-1.25q1.45-1.55 5.55-5.2l3.8-3.4q-1.15-1.7-2.35-3.35z"/><path id="j" fill="#444" d="M34.4 72.4V54q-4.4 0-9.25.9-3.1.65-5.4 1.75-2.45 1.2-4.95 3.3l7.55 7.85 12.05 4.6z"/><path id="k" fill="#FADCBC" d="M22.5 81.95q-.05-1.15-.85-1.95l-6.35-6.5q-1.65-1.65-3.4-3.9l-4.65 4.9q5.8 5.9 10.2 9.7.95.95 2.25.9 1.35-.1 2.15-1.1.7-.9.65-2.05z"/><path id="l" fill="#FBC11B" d="M58.75 69.3q-1.3.15-2.1 1.2-.8 1-.6 2.3.15 1.3 1.2 2.1 1 .8 2.3.6 1.3-.15 2.1-1.2t.6-2.3q-.15-1.3-1.2-2.1t-2.3-.6z"/><path id="m" fill="#FADCBC" d="M51.3 58.25q-.3-.3-2.7 3-1.2 1.65-2.35 3.35l3.8 3.4q4.1 3.65 5.55 5.2l1.15 1.25 4.75-4.15q-6.35-8.05-10.2-12.05z"/><path id="n" fill="#444" d="M34.4 54v18.4l12-4.6 7.6-7.85q-2.55-2.15-4.95-3.3-2.3-1.1-5.45-1.75-4.85-.9-9.2-.9z"/><path id="o" fill="#FADCBC" d="M47.1 80q-.8.8-.85 1.95-.05 1.15.65 2.05.85 1 2.15 1.1 1.3.05 2.25-.9 4.4-3.8 10.2-9.7l-4.65-4.9q-1.75 2.25-3.4 3.9L47.1 80z"/><path id="p" fill="#444" d="M31.45 59.25v14.2h4.75v-14.2h-4.75z"/><path id="q" fill="#444" d="M36.75 82.95v-18h-14.4v18h14.4z"/><path id="r" fill="#444" d="M34.35 64.95v18h12v-18h-12z"/><path id="s" fill="#FADCBC" d="M26.75 62.3q3.15 2.3 7.65 2.3 4.45 0 7.6-2.3 3.15-2.3 3.15-5.55L45.1 56q-.55-.25-1.5-.5-3.45-.9-9.2-.9-5.8 0-9.25.9-.95.25-1.5.5l-.05.75q0 3.25 3.15 5.55z"/><path id="t" fill="#FBC11B" d="M34.4 60.25q2 0 3.3-1.2 1.3-1.25 1.3-3.2v-4.6h-9.25v4.6q0 1.95 1.35 3.2 1.3 1.2 3.3 1.2z"/><path id="u" fill="#E7A13D" d="M37 48.8h-5.2q-.9 0-1.5.8-.55.75-.55 1.7v4.5l1.25.35q1.6.3 3.4.3 2.8 0 4.6-.7V51.2q0-.95-.55-1.65-.6-.75-1.45-.75z"/><path id="v" fill="#DBA689" d="M34.4 60.65q1.95 0 3.35-1.35 1.35-1.4 1.35-3.35v-4h-9.4v4q0 1.95 1.4 3.35 1.35 1.35 3.3 1.35z"/><path id="w" fill="#312D2D" d="M45.05 35.9q2.05 1.45 3.7 2.1V25.2q-1.05-2.1-3.35-4.25-4.55-4.25-10.85-4.25t-10.9 4.15q-2.3 2.1-3.35 4.15v13q6.2-1.05 12.2-4.8 3.45-2.15 5.95-4.55.25-.25.45.05 2.05 4.2 6.15 7.2z"/><path id="x" fill="#FADCBC" d="M57.35 108.5q-1.25 0-2.2.9-.9.95-.9 2.2 0 1.3.9 2.2.95.9 2.2.9 1.3 0 2.2-.9.9-.9.9-2.2 0-1.25-.9-2.2-.9-.9-2.2-.9z"/><path id="y" fill="#DBA689" d="M106.9 66.05h-3.6v20.3q4.75 0 7.85-2.4 3.6-2.8 3.6-8.05 0-5.3-3.9-8.1l-3.95-1.75z"/><path id="z" fill="#DBA689" d="M24.7 66.05h-3.65l-3.9 1.75q-3.95 2.8-3.95 8.1 0 5.25 3.6 8.05 3.1 2.4 7.9 2.4v-20.3z"/><path id="A" fill="#FADCBC" d="M106.75 73.8q0-30.45-8.65-45.45Q87.85 10.6 64 10.6q-23.9 0-34.15 17.75-8.65 15-8.65 45.45 0 25.9 14.6 38.45Q47.05 122 64 122q16.8 0 28.1-9.65 14.65-12.55 14.65-38.55z"/><path id="B" fill="#444" d="M40.15 72.35q-1.7 2-1.7 4.85 0 2.9 1.7 4.9 1.65 2 4.05 2 2.35 0 4.05-2 1.65-2.05 1.65-4.9 0-2.85-1.65-4.85-1.7-2.05-4.05-2.05-2.4 0-4.05 2.05z"/><path id="C" fill="#444" d="M87.85 72.35q-1.7-2.05-4.05-2.05-2.4 0-4.05 2.05-1.7 2-1.7 4.85 0 2.85 1.7 4.9 1.65 2 4.05 2 2.35 0 4.05-2 1.65-2 1.65-4.9 0-2.85-1.65-4.85z"/><path id="D" fill="#513F35" d="M63.95 108.75q4.9 0 9-2.15 3.2-1.7 4.5-3.7.7-1.05.35-1.7-.35-.65-1.45-.65H51.6q-1.1 0-1.45.65-.35.65.35 1.7 1.3 2 4.5 3.7 4.1 2.15 8.95 2.15z"/><path id="E" fill="#DBA689" d="M58 90q-.65-.15-.9.3-.3.4-.05.9.7 1.15 2.4 2.2 2.2 1.35 4.55 1.35 2.35 0 4.5-1.35 1.7-1.05 2.4-2.2.25-.5 0-.9-.3-.45-.95-.3-3.15.9-5.95.9-2.85 0-6-.9z"/><path id="F" fill="#312D2D" d="M63.35 24.5v-.8q-.4-6.25-5.65-10.85-7.2-6.3-21.15-6.5H35.5q-13.95.2-21.1 6.5-5.3 4.6-5.65 10.85-.05.4-.05.8v14.55q.35-.3.95-.75.4-.35.95-.6l.4-.2 1.05 6.95Q17.8 35.5 19.4 25.7q4.55 3 8.3 4.25 3.75 1.25 7.8 1.2h1.05q6.7-.05 12.3-.7l4.1-.45q.1 0 .2.1L60 44.45l1.05-6.95.45.2q.5.25.9.55.65.5.95.8V24.5z"/><path id="G" fill="#2F2F2F" d="M30.9 12q0-3.45-1.6-6.75-1.55-3.15-2.85-3.15-1.35 0-2.85 3Q22 8.35 22 12q0 3.8 1.6 7 1.5 2.9 2.85 2.9 1.25 0 2.75-2.9 1.7-3.25 1.7-7z"/><path id="H" fill="#FF7CE5" d="M28.2 10l-1.75-3.15Q25.3 8.1 24.7 10q-1.2 3.85 1.75 7.3 2.9-3.45 1.75-7.3z"/><path id="I" fill="#2F2F2F" d="M45.2 5.1q-1.5-3-2.9-3-1.25 0-2.8 3.15Q37.85 8.6 37.85 12q0 3.75 1.7 7 1.5 2.9 2.75 2.9 1.4 0 2.9-2.9 1.6-3.15 1.6-7 0-3.65-1.6-6.9z"/><path id="J" fill="#FF7CE5" d="M42.3 6.85Q41.15 8.1 40.55 10q-1.15 3.85 1.75 7.3 2.95-3.45 1.75-7.3L42.3 6.85z"/><path id="K" fill="#2F2F2F" d="M47.65 26.25q.2-.2.05-.4-5.35-6.7-13.3-6.55-8.15-.15-13.3 6.55-.15.2 0 .4.2.15.4.05 4.15-2.45 6.4-3.2 2.35-.75 6.5-.9 4.1.15 6.45.9 2.3.75 6.45 3.2.2.1.35-.05z"/><path id="L" fill="#444" d="M26 46.65H12.5l4.25 3.2q.275.236.9.6l1.55.85q.396-.919 1.8-.4l1.3-.95 3.7-3.3z"/><path id="M" fill="#444" d="M25.35 46.05l-12.3.1-.55.5.85.45h11.7l.95-.45-.65-.6z"/><path id="N" fill="#444" d="M13.55 55.25h5.5l.5-4.75-7.05-3.85q.04 4.3 1.05 8.6z"/><path id="O" fill="#444" d="M22.8 54.3l4.8-3q-.897-2.167-1.6-4.65l-5.5 3.6 2.3 4.05z"/><path id="P" fill="#444" d="M62.95 118.75l-10.05-12.8q-1.45 1.15-1.8 3.05-.4 1.95.7 3.3 2.3 2.9 3.5 4.1 1.95 2.05 3.5 2.6 1.25.45 2.55.3 1.05-.1 1.6-.55z"/><path id="Q" fill="#444" d="M52.9 105.95l10.05 12.8q.55-.45.9-1.45.45-1.15.3-2.5-.15-1.7-1.65-4.05-.95-1.55-3.2-4.35-1.05-1.35-3.05-1.45-1.95-.1-3.35 1z"/><path id="R" fill="#FBC11B" d="M47.85 94.9q-1.95 0-3.3 1.35-1.35 1.4-1.35 3.3t1.35 3.3q1.35 1.35 3.3 1.35 1.9 0 3.3-1.35 1.35-1.4 1.35-3.3t-1.35-3.3q-1.4-1.35-3.3-1.35z"/><path id="S" fill="#FADCBC" d="M52.05 97.65l-7.4-17-10.4 4.75 9.4 16.2 8.4-3.95z"/><path id="T" fill="#FADCBC" d="M55.1 113.75l4.9-3.8-8.35-13.25-7.35 5.85 10.8 11.2z"/><path id="U" fill="#FADCBC" d="M33.5 80.6H22.8l3.6 43.4h8.3l-1.2-43.4z"/><path id="V" fill="#444" d="M35.8 124.35v-1.85q0-1.7-1.15-2.85-1.2-1.15-2.85-1.15H29q-1.65 0-2.8 1.15-1.2 1.15-1.2 2.85v1.85h10.8z"/><path id="W" fill="#FBC11B" d="M6.5 72q-.2 1.3.6 2.3.8 1.05 2.1 1.2 1.3.2 2.3-.6 1.05-.8 1.2-2.1.2-1.3-.6-2.3-.8-1.05-2.1-1.2-1.25-.2-2.3.6-1.05.8-1.2 2.1z"/><path id="X" fill="#FADCBC" d="M20.15 61.25q-2.4-3.3-2.7-3-3.9 4-10.2 12.05L12 74.45l1.15-1.25q1.45-1.55 5.55-5.2l3.8-3.4q-1.15-1.7-2.35-3.35z"/><path id="Y" fill="#444" d="M34.4 72.4V54q-4.4 0-9.25.9-3.1.65-5.4 1.75-2.45 1.2-4.95 3.3l7.55 7.85 12.05 4.6z"/><path id="Z" fill="#FADCBC" d="M22.5 81.95q-.05-1.15-.85-1.95l-6.35-6.5q-1.65-1.65-3.4-3.9l-4.65 4.9q5.8 5.9 10.2 9.7.95.95 2.25.9 1.35-.1 2.15-1.1.7-.9.65-2.05z"/><path id="aa" fill="#FBC11B" d="M58.75 69.3q-1.3.15-2.1 1.2-.8 1-.6 2.3.15 1.3 1.2 2.1 1 .8 2.3.6 1.3-.15 2.1-1.2t.6-2.3q-.15-1.3-1.2-2.1t-2.3-.6z"/><path id="ab" fill="#FADCBC" d="M51.3 58.25q-.3-.3-2.7 3-1.2 1.65-2.35 3.35l3.8 3.4q4.1 3.65 5.55 5.2l1.15 1.25 4.75-4.15q-6.35-8.05-10.2-12.05z"/><path id="ac" fill="#444" d="M34.4 54v18.4l12-4.6 7.6-7.85q-2.55-2.15-4.95-3.3-2.3-1.1-5.45-1.75-4.85-.9-9.2-.9z"/><path id="ad" fill="#FADCBC" d="M47.1 80q-.8.8-.85 1.95-.05 1.15.65 2.05.85 1 2.15 1.1 1.3.05 2.25-.9 4.4-3.8 10.2-9.7l-4.65-4.9q-1.75 2.25-3.4 3.9L47.1 80z"/><path id="ae" fill="#444" d="M31.45 59.25v14.2h4.75v-14.2h-4.75z"/><path id="af" fill="#444" d="M36.75 82.95v-18h-14.4v18h14.4z"/><path id="ag" fill="#444" d="M34.35 64.95v18h12v-18h-12z"/><path id="ah" fill="#FADCBC" d="M26.75 62.3q3.15 2.3 7.65 2.3 4.45 0 7.6-2.3 3.15-2.3 3.15-5.55L45.1 56q-.55-.25-1.5-.5-3.45-.9-9.2-.9-5.8 0-9.25.9-.95.25-1.5.5l-.05.75q0 3.25 3.15 5.55z"/><path id="ai" fill="#FBC11B" d="M34.4 60.25q2 0 3.3-1.2 1.3-1.25 1.3-3.2v-4.6h-9.25v4.6q0 1.95 1.35 3.2 1.3 1.2 3.3 1.2z"/><path id="aj" fill="#E7A13D" d="M37 48.8h-5.2q-.9 0-1.5.8-.55.75-.55 1.7v4.5l1.25.35q1.6.3 3.4.3 2.8 0 4.6-.7V51.2q0-.95-.55-1.65-.6-.75-1.45-.75z"/><path id="ak" fill="#DBA689" d="M34.4 60.65q1.95 0 3.35-1.35 1.35-1.4 1.35-3.35v-4h-9.4v4q0 1.95 1.4 3.35 1.35 1.35 3.3 1.35z"/><path id="al" fill="#312D2D" d="M45.05 35.9q2.05 1.45 3.7 2.1V25.2q-1.05-2.1-3.35-4.25-4.55-4.25-10.85-4.25t-10.9 4.15q-2.3 2.1-3.35 4.15v13q6.2-1.05 12.2-4.8 3.45-2.15 5.95-4.55.25-.25.45.05 2.05 4.2 6.15 7.2z"/><path id="am" fill="#FADCBC" d="M57.35 108.5q-1.25 0-2.2.9-.9.95-.9 2.2 0 1.3.9 2.2.95.9 2.2.9 1.3 0 2.2-.9.9-.9.9-2.2 0-1.25-.9-2.2-.9-.9-2.2-.9z"/><path id="an" fill="#DBA689" d="M106.9 66.05h-3.6v20.3q4.75 0 7.85-2.4 3.6-2.8 3.6-8.05 0-5.3-3.9-8.1l-3.95-1.75z"/><path id="ao" fill="#DBA689" d="M24.7 66.05h-3.65l-3.9 1.75q-3.95 2.8-3.95 8.1 0 5.25 3.6 8.05 3.1 2.4 7.9 2.4v-20.3z"/><path id="ap" fill="#FADCBC" d="M106.75 73.8q0-30.45-8.65-45.45Q87.85 10.6 64 10.6q-23.9 0-34.15 17.75-8.65 15-8.65 45.45 0 25.9 14.6 38.45Q47.05 122 64 122q16.8 0 28.1-9.65 14.65-12.55 14.65-38.55z"/><path id="aq" fill="#444" d="M40.15 72.35q-1.7 2-1.7 4.85 0 2.9 1.7 4.9 1.65 2 4.05 2 2.35 0 4.05-2 1.65-2.05 1.65-4.9 0-2.85-1.65-4.85-1.7-2.05-4.05-2.05-2.4 0-4.05 2.05z"/><path id="ar" fill="#444" d="M87.85 72.35q-1.7-2.05-4.05-2.05-2.4 0-4.05 2.05-1.7 2-1.7 4.85 0 2.85 1.7 4.9 1.65 2 4.05 2 2.35 0 4.05-2 1.65-2 1.65-4.9 0-2.85-1.65-4.85z"/><path id="as" fill="#513F35" d="M63.95 108.75q4.9 0 9-2.15 3.2-1.7 4.5-3.7.7-1.05.35-1.7-.35-.65-1.45-.65H51.6q-1.1 0-1.45.65-.35.65.35 1.7 1.3 2 4.5 3.7 4.1 2.15 8.95 2.15z"/><path id="at" fill="#DBA689" d="M58 90q-.65-.15-.9.3-.3.4-.05.9.7 1.15 2.4 2.2 2.2 1.35 4.55 1.35 2.35 0 4.5-1.35 1.7-1.05 2.4-2.2.25-.5 0-.9-.3-.45-.95-.3-3.15.9-5.95.9-2.85 0-6-.9z"/><path id="au" fill="#312D2D" d="M63.35 24.5v-.8q-.4-6.25-5.65-10.85-7.2-6.3-21.15-6.5H35.5q-13.95.2-21.1 6.5-5.3 4.6-5.65 10.85-.05.4-.05.8v14.55q.35-.3.95-.75.4-.35.95-.6l.4-.2 1.05 6.95Q17.8 35.5 19.4 25.7q4.55 3 8.3 4.25 3.75 1.25 7.8 1.2h1.05q6.7-.05 12.3-.7l4.1-.45q.1 0 .2.1L60 44.45l1.05-6.95.45.2q.5.25.9.55.65.5.95.8V24.5z"/><path id="av" fill="#2F2F2F" d="M30.9 12q0-3.45-1.6-6.75-1.55-3.15-2.85-3.15-1.35 0-2.85 3Q22 8.35 22 12q0 3.8 1.6 7 1.5 2.9 2.85 2.9 1.25 0 2.75-2.9 1.7-3.25 1.7-7z"/><path id="aw" fill="#FF7CE5" d="M28.2 10l-1.75-3.15Q25.3 8.1 24.7 10q-1.2 3.85 1.75 7.3 2.9-3.45 1.75-7.3z"/><path id="ax" fill="#2F2F2F" d="M45.2 5.1q-1.5-3-2.9-3-1.25 0-2.8 3.15Q37.85 8.6 37.85 12q0 3.75 1.7 7 1.5 2.9 2.75 2.9 1.4 0 2.9-2.9 1.6-3.15 1.6-7 0-3.65-1.6-6.9z"/><path id="ay" fill="#FF7CE5" d="M42.3 6.85Q41.15 8.1 40.55 10q-1.15 3.85 1.75 7.3 2.95-3.45 1.75-7.3L42.3 6.85z"/><path id="az" fill="#2F2F2F" d="M47.65 26.25q.2-.2.05-.4-5.35-6.7-13.3-6.55-8.15-.15-13.3 6.55-.15.2 0 .4.2.15.4.05 4.15-2.45 6.4-3.2 2.35-.75 6.5-.9 4.1.15 6.45.9 2.3.75 6.45 3.2.2.1.35-.05z"/><path id="aA" fill="#444" d="M26 46.65H12.5l4.25 3.2q.275.236.9.6l1.55.85q.396-.919 1.8-.4l1.3-.95 3.7-3.3z"/><path id="aB" fill="#444" d="M25.35 46.05l-12.3.1-.55.5.85.45h11.7l.95-.45-.65-.6z"/><path id="aC" fill="#444" d="M13.55 55.25h5.5l.5-4.75-7.05-3.85q.04 4.3 1.05 8.6z"/><path id="aD" fill="#444" d="M22.8 54.3l4.8-3q-.897-2.167-1.6-4.65l-5.5 3.6 2.3 4.05z"/></defs><use transform="matrix(.56245 0 0 .56245 32.3 0)" xlink:href="#a"/><use transform="matrix(.56245 0 0 .56245 32.3 0)" xlink:href="#b"/><use transform="translate(32.3) scale(.5625)" xlink:href="#c"/><use transform="translate(32.3) scale(.5625)" xlink:href="#d"/><use transform="translate(32.3) scale(.5625)" xlink:href="#e"/><use transform="matrix(.56245 0 0 .56245 32.3 0)" xlink:href="#f"/><use transform="matrix(.56245 0 0 .56245 32.3 0)" xlink:href="#g"/><use transform="translate(32.3) scale(.5625)" xlink:href="#h"/><use transform="translate(32.3) scale(.5625)" xlink:href="#i"/><use transform="translate(32.3) scale(.5625)" xlink:href="#j"/><use transform="translate(32.3) scale(.5625)" xlink:href="#k"/><use transform="translate(32.3) scale(.5625)" xlink:href="#l"/><use transform="translate(32.3) scale(.5625)" xlink:href="#m"/><use transform="translate(32.3) scale(.5625)" xlink:href="#n"/><use transform="translate(32.3) scale(.5625)" xlink:href="#o"/><use transform="translate(32.3) scale(.5625)" xlink:href="#p"/><use transform="translate(32.3) scale(.5625)" xlink:href="#q"/><use transform="translate(32.3) scale(.5625)" xlink:href="#r"/><use transform="translate(32.3) scale(.5625)" xlink:href="#s"/><use transform="matrix(.56245 0 0 .56245 32.3 0)" xlink:href="#t"/><use transform="matrix(.56245 0 0 .56245 32.3 0)" xlink:href="#u"/><use transform="translate(32.3) scale(.5625)" xlink:href="#v"/><use transform="translate(32.3) scale(.5625)" xlink:href="#w"/><use transform="translate(32.3) scale(.5625)" xlink:href="#x"/><use transform="translate(39.9 8.05) scale(.18376)" xlink:href="#y"/><use transform="translate(39.9 8.05) scale(.18376)" xlink:href="#z"/><use transform="matrix(.18384 0 0 .18384 39.9 8.2)" xlink:href="#A"/><use transform="matrix(.18384 0 0 .18384 39.9 8.2)" xlink:href="#B"/><use transform="matrix(.18384 0 0 .18384 39.9 8.2)" xlink:href="#C"/><use transform="matrix(.18384 0 0 .18384 39.9 8.2)" xlink:href="#D"/><use transform="matrix(.18384 0 0 .18384 39.9 8.2)" xlink:href="#E"/><use transform="matrix(.32687 0 0 .32687 39.9 8.05)" xlink:href="#F"/><use transform="matrix(.5624 0 0 .5624 32.3 0)" xlink:href="#G"/><use transform="matrix(.5624 0 0 .5624 32.3 0)" xlink:href="#H"/><use transform="matrix(.5624 0 0 .5624 32.3 0)" xlink:href="#I"/><use transform="matrix(.5624 0 0 .5624 32.3 0)" xlink:href="#J"/><use transform="matrix(.56245 0 0 .56245 32.3 0)" xlink:href="#K"/><use transform="translate(32.35)" xlink:href="#L"/><use transform="translate(32.35)" xlink:href="#M"/><use transform="translate(32.35)" xlink:href="#N"/><use transform="translate(32.35)" xlink:href="#O"/><use transform="matrix(.56247 0 0 .56247 -.05 0)" xlink:href="#P"/><use transform="matrix(.56247 0 0 .56247 -.05 0)" xlink:href="#Q"/><use transform="translate(-.05) scale(.5625)" xlink:href="#R"/><use transform="translate(-.05) scale(.5625)" xlink:href="#S"/><use transform="translate(-.05) scale(.5625)" xlink:href="#T"/><use transform="matrix(.56247 0 0 .56247 -.05 0)" xlink:href="#U"/><use transform="matrix(.56247 0 0 .56247 -.05 0)" xlink:href="#V"/><use transform="translate(-.05) scale(.5625)" xlink:href="#W"/><use transform="translate(-.05) scale(.5625)" xlink:href="#X"/><use transform="translate(-.05) scale(.5625)" xlink:href="#Y"/><use transform="translate(-.05) scale(.5625)" xlink:href="#Z"/><use transform="translate(-.05) scale(.5625)" xlink:href="#aa"/><use transform="translate(-.05) scale(.5625)" xlink:href="#ab"/><use transform="translate(-.05) scale(.5625)" xlink:href="#ac"/><use transform="translate(-.05) scale(.5625)" xlink:href="#ad"/><use transform="translate(-.05) scale(.5625)" xlink:href="#ae"/><use transform="translate(-.05) scale(.5625)" xlink:href="#af"/><use transform="translate(-.05) scale(.5625)" xlink:href="#ag"/><use transform="translate(-.05) scale(.5625)" xlink:href="#ah"/><use transform="matrix(.56247 0 0 .56247 -.05 0)" xlink:href="#ai"/><use transform="matrix(.56247 0 0 .56247 -.05 0)" xlink:href="#aj"/><use transform="translate(-.05) scale(.5625)" xlink:href="#ak"/><use transform="translate(-.05) scale(.5625)" xlink:href="#al"/><use transform="translate(-.05) scale(.5625)" xlink:href="#am"/><use transform="matrix(.1838 0 0 .1838 7.55 8.05)" xlink:href="#an"/><use transform="matrix(.1838 0 0 .1838 7.55 8.05)" xlink:href="#ao"/><use transform="matrix(.18385 0 0 .18385 7.55 8.2)" xlink:href="#ap"/><use transform="matrix(.18385 0 0 .18385 7.55 8.2)" xlink:href="#aq"/><use transform="matrix(.18385 0 0 .18385 7.55 8.2)" xlink:href="#ar"/><use transform="matrix(.18385 0 0 .18385 7.55 8.2)" xlink:href="#as"/><use transform="matrix(.18385 0 0 .18385 7.55 8.2)" xlink:href="#at"/><use transform="matrix(.32689 0 0 .32689 7.55 8.05)" xlink:href="#au"/><use transform="matrix(.56244 0 0 .56244 -.05 0)" xlink:href="#av"/><use transform="matrix(.56244 0 0 .56244 -.05 0)" xlink:href="#aw"/><use transform="matrix(.56244 0 0 .56244 -.05 0)" xlink:href="#ax"/><use transform="matrix(.56244 0 0 .56244 -.05 0)" xlink:href="#ay"/><use transform="matrix(.56247 0 0 .56247 -.05 0)" xlink:href="#az"/><use xlink:href="#aA"/><use xlink:href="#aB"/><use xlink:href="#aC"/><use xlink:href="#aD"/></svg>