<svg xmlns="http://www.w3.org/2000/svg" xmlns:xlink="http://www.w3.org/1999/xlink" preserveAspectRatio="none" viewBox="0 0 72 72"><defs><path fill="#424242" d="M32.55 100.7q-13.8 6.15-13.8 17.4v9.9h87.15v-9.9q0-10.75-13.45-17.1-12.15-5.75-29.8-5.75-18.1.05-30.1 5.45z" id="a"/><path fill="#C48E6A" d="M40.15 50.75h-10.2v5.4q0 1.85 1.35 3.15 1.4 1.3 3.3 1.3h.9q1.95 0 3.3-1.3 1.35-1.3 1.35-3.15v-5.4z" id="b"/><path fill="#C48E6A" d="M106.9 66.05h-3.6v20.3q4.75 0 7.85-2.4 3.6-2.8 3.6-8.05 0-5.3-3.9-8.1l-3.95-1.75z" id="c"/><path fill="#C48E6A" d="M24.7 66.05h-3.65l-3.9 1.75q-3.95 2.8-3.95 8.1 0 5.25 3.6 8.05 3.1 2.4 7.9 2.4v-20.3z" id="d"/><path fill="#E0BB95" d="M106.75 73.8q0-30.45-8.65-45.45Q87.85 10.6 64 10.6q-23.9 0-34.15 17.75-8.65 15-8.65 45.45 0 25.9 14.6 38.45Q47.05 122 64 122q16.8 0 28.1-9.65 14.65-12.55 14.65-38.55z" id="e"/><path fill="#444" d="M40.15 72.35q-1.7 2-1.7 4.85 0 2.9 1.7 4.9 1.65 2 4.05 2 2.35 0 4.05-2 1.65-2.05 1.65-4.9 0-2.85-1.65-4.85-1.7-2.05-4.05-2.05-2.4 0-4.05 2.05z" id="f"/><path fill="#444" d="M87.85 72.35q-1.7-2.05-4.05-2.05-2.4 0-4.05 2.05-1.7 2-1.7 4.85 0 2.85 1.7 4.9 1.65 2 4.05 2 2.35 0 4.05-2 1.65-2 1.65-4.9 0-2.85-1.65-4.85z" id="g"/><path fill="#513F35" d="M63.95 108.75q4.9 0 9-2.15 3.2-1.7 4.5-3.7.7-1.05.35-1.7-.35-.65-1.45-.65H51.6q-1.1 0-1.45.65-.35.65.35 1.7 1.3 2 4.5 3.7 4.1 2.15 8.95 2.15z" id="h"/><path fill="#C48E6A" d="M58 90q-.65-.15-.9.3-.3.4-.05.9.7 1.15 2.4 2.2 2.2 1.35 4.55 1.35 2.35 0 4.5-1.35 1.7-1.05 2.4-2.2.25-.5 0-.9-.3-.45-.95-.3-3.15.9-5.95.9-2.85 0-6-.9z" id="i"/><path fill="#BFA055" d="M63.35 24.5v-.8q-.4-6.25-5.65-10.85-7.2-6.3-21.15-6.5H35.5q-13.95.2-21.1 6.5-5.3 4.6-5.65 10.85-.05.4-.05.8v14.55q.35-.3.95-.75.4-.35.95-.6l.4-.2 1.05 6.95Q17.8 35.5 19.4 25.7q4.55 3 8.3 4.25 3.75 1.25 7.8 1.2h1.05q6.7-.05 12.3-.7l4.1-.45q.1 0 .2.1L60 44.45l1.05-6.95.45.2q.5.25.9.55.65.5.95.8V24.5z" id="j"/><path fill="#424242" d="M52.45 128h19.7V95.7l-9.85 12-9.85-12V128z" id="k"/><path fill="#262626" d="M92.25 15.3l20.55-3.5-.05-2.55-50.1 7.25h-.05L12.5 9.25l-.05 2.55 20.05 3.5-1.7 4.85q5.2 2.3 11.75 4.15 10.5 3 20.05 3.25 15.4-.4 31.35-7.4l-1.7-4.85z" id="l"/><path fill="#424143" d="M62.6 16.5h.05l50.1-7.25-50-9.2-.15.05-.15-.05-49.95 9.2 50.1 7.25z" id="m"/><path fill="#FBC11B" d="M114.95 46.5q-.5-.55-1.3-.55-.75 0-1.25.55-.55.5-.55 1.25v7.85q0 .75.55 1.3.5.5 1.25.5.8 0 1.3-.5.55-.55.55-1.3v-7.85q0-.75-.55-1.25z" id="n"/><path fill="#FBC11B" d="M111.35 46.5q-.55-.55-1.3-.55-.8 0-1.3.55-.55.5-.55 1.25v7.85q0 .75.55 1.3.55.5 1.3.5t1.3-.5q.5-.55.5-1.3v-7.85q0-.75-.5-1.25z" id="o"/><path fill="#E49500" d="M112.5 46.5q-.55-.55-1.3-.55t-1.25.55q-.55.5-.55 1.25v7.85q0 .75.55 1.3.5.5 1.25.5t1.3-.5q.5-.55.5-1.3v-7.85q0-.75-.5-1.25z" id="p"/><path fill="#E49500" d="M113.9 46.5q-.55-.55-1.3-.55-.8 0-1.3.55-.55.5-.55 1.25v7.85q0 .75.55 1.3.55.5 1.3.5t1.3-.5q.5-.55.5-1.3v-7.85q0-.75-.5-1.25z" id="q"/><path fill="#FBC11B" d="M113.15 46.5q-.55-.55-1.3-.55t-1.25.55q-.55.5-.55 1.25v9.5q0 .75.55 1.3.5.55 1.25.55t1.3-.55q.5-.55.5-1.3v-9.5q0-.75-.5-1.25z" id="r"/><path fill="#E49500" d="M111.85 43.35q-.85 0-1.45.6t-.6 1.45q0 .85.6 1.45t1.45.6q.85 0 1.45-.6t.6-1.45q0-.85-.6-1.45t-1.45-.6z" id="s"/><path fill="#FBC11B" d="M111.85 42.8q-.85 0-1.45.6t-.6 1.45q0 .85.6 1.5.6.6 1.45.6t1.45-.6q.6-.65.6-1.5t-.6-1.45q-.6-.6-1.45-.6z" id="t"/><path fill="#262626" d="M112.75 9.45h-1.8v35h.05q0 .35.25.55.25.25.6.25.8 0 .9-.8v-35z" id="u"/></defs><use xlink:href="#a" transform="scale(.5625)"/><use xlink:href="#b"/><use xlink:href="#c" transform="matrix(.4207 0 0 .42055 8.2 1.8)"/><use xlink:href="#d" transform="matrix(.4207 0 0 .42055 8.2 1.8)"/><use xlink:href="#e" transform="matrix(.42082 0 0 .42068 8.2 2.3)"/><use xlink:href="#f" transform="matrix(.42082 0 0 .42068 8.2 2.3)"/><use xlink:href="#g" transform="matrix(.42082 0 0 .42068 8.2 2.3)"/><use xlink:href="#h" transform="matrix(.42082 0 0 .42068 8.2 2.3)"/><use xlink:href="#i" transform="matrix(.42082 0 0 .42068 8.2 2.3)"/><use xlink:href="#j" transform="matrix(.74814 0 0 .7479 8.2 2)"/><use xlink:href="#k" transform="scale(.5625)"/><use xlink:href="#l" transform="matrix(.56247 0 0 .56247 0 2)"/><use xlink:href="#m" transform="matrix(.56247 0 0 .56247 0 2)"/><use xlink:href="#n" transform="matrix(.56244 0 0 .56244 0 2)"/><use xlink:href="#o" transform="matrix(.56244 0 0 .56244 0 2)"/><use xlink:href="#p" transform="matrix(.56244 0 0 .56244 0 2)"/><use xlink:href="#q" transform="matrix(.56244 0 0 .56244 0 2)"/><use xlink:href="#r" transform="matrix(.56244 0 0 .56244 0 2)"/><use xlink:href="#s" transform="matrix(.56245 0 0 .56245 0 2)"/><use xlink:href="#t" transform="matrix(.56245 0 0 .56245 0 2)"/><use xlink:href="#u" transform="matrix(.56247 0 0 .56247 0 2)"/></svg>