<svg xmlns="http://www.w3.org/2000/svg" xmlns:xlink="http://www.w3.org/1999/xlink" preserveAspectRatio="none" viewBox="0 0 72 72"><defs><path id="a" fill="#2A56C6" d="M17.5 118.45V128h93.85v-9.55q0-10.85-14.65-17.3-13.25-5.8-32.3-5.8-19.45.05-32.2 5.5-14.7 6.2-14.7 17.6z"/><path id="b" fill="#004373" d="M53.95 95.85l-4 .5 6 31.65h8.55V95.3q-5.45 0-10.55.55z"/><path id="c" fill="#004373" d="M78.2 96.35q-5.75-1.05-14.15-1.05V128h8.65l5.5-31.65z"/><path id="d" fill="#E59900" d="M35.5 60.5h.95q1.9 0 3.3-1.3 1.35-1.3 1.35-3.1v-5.4H30.9v5.4q0 1.8 1.35 3.1t3.25 1.3z"/><path id="e" fill="#FC0" d="M67.15 114.1l1.7-7.5h-9.1l1.75 7.5h5.65z"/><path id="f" fill="#FC0" d="M59.95 128h8.7l-1.5-13.9H61.5L59.95 128z"/><path id="g" fill="#E59600" d="M106.9 66.05h-3.6v20.3q4.75 0 7.85-2.4 3.6-2.8 3.6-8.05 0-5.3-3.9-8.1l-3.95-1.75z"/><path id="h" fill="#E59600" d="M24.7 66.05h-3.65l-3.9 1.75q-3.95 2.8-3.95 8.1 0 5.25 3.6 8.05 3.1 2.4 7.9 2.4v-20.3z"/><path id="i" fill="#FCC21B" d="M106.75 73.8q0-30.45-8.65-45.45Q87.85 10.6 64 10.6q-23.9 0-34.15 17.75-8.65 15-8.65 45.45 0 25.9 14.6 38.45Q47.05 122 64 122q16.8 0 28.1-9.65 14.65-12.55 14.65-38.55z"/><path id="j" fill="#FFA000" d="M57.2 19.2q-.35-4.8-4.4-8.4-5.6-4.85-16.4-5.05h-.8q-10.85.2-16.4 5.05-4.1 3.6-4.35 8.4-.05.35-.05.65V31.1q.25-.2.75-.55.3-.3.7-.5l.35-.15.8 5.4q4.45-6.95 5.7-14.55 3.5 2.35 6.45 3.3 2.9 1 6.05.95h.8q5.2-.05 9.55-.55l3.15-.35q.1 0 .15.1l5.35 11.1.8-5.4.35.15q.4.2.7.45l.75.6V19.85v-.65z"/><path id="k" fill="#4C3734" d="M53.8 79.7q1 1.55 3.4 2.85 3.15 1.65 6.85 1.65 3.7 0 6.85-1.65 2.4-1.3 3.4-2.85.5-.75.25-1.3-.25-.5-1.05-.5H54.6q-.8 0-1.05.5-.3.55.25 1.3z"/><path id="l" fill="#513F35" d="M53.8 79.7q1 1.55 3.4 2.85 3.15 1.65 6.85 1.65 3.7 0 6.85-1.65 2.4-1.3 3.4-2.85.5-.75.25-1.3-.25-.5-1.05-.5H54.6q-.8 0-1.05.5-.3.55.25 1.3z"/><path id="m" fill="#E59600" d="M69.3 70.75q.2-.35 0-.65-.2-.35-.7-.2-2.3.65-4.55.65t-4.55-.65q-.5-.15-.75.2-.2.3 0 .65.55.9 1.85 1.7 1.65 1 3.45 1 1.8 0 3.45-1 1.3-.8 1.8-1.7z"/><path id="n" fill="#444" d="M52.05 63.85q1.25-1.5 1.25-3.7t-1.25-3.75q-1.3-1.55-3.1-1.55T45.9 56.4q-1.3 1.55-1.3 3.75t1.3 3.7q1.25 1.55 3.05 1.55 1.8 0 3.1-1.55z"/><path id="o" fill="#444" d="M82.25 63.85q1.25-1.5 1.25-3.7t-1.25-3.75q-1.3-1.55-3.1-1.55-1.85 0-3.1 1.55-1.3 1.55-1.3 3.75t1.3 3.7q1.25 1.55 3.1 1.55 1.8 0 3.1-1.55z"/><path id="p" fill="#262626" d="M91.9 48.3q5.55-2.5 7.7-5-4.25-.85-10.8-1.7-13.15-1.75-24.8-1.85-11.7.1-24.85 1.85-6.55.85-10.8 1.7l1.8 1.55q2.45 1.9 5.9 3.45 11.1 5.05 27.95 5.15 16.8-.1 27.9-5.15z"/><path id="q" fill="#2A56C6" d="M81.6 37.8q8.8.8 11.5 1.55 5.35 1.45 8.15 7.1 2.05-3.05 3.7-7.5 1.6-4.25 1.1-8.75-.55-4.55-3.05-7.8-3.1-4-7.1-6.85-6.55-4.75-15.7-7.35-8.15-2.3-15.9-2.3h-.7q-7.7 0-15.85 2.3-9.15 2.6-15.7 7.35-4 2.85-7.1 6.85-2.55 3.2-3.05 7.8-.5 4.5 1.1 8.75 1.65 4.5 3.65 7.55 2.85-5.65 8.15-7.15 2.7-.75 11.5-1.55 8.15-.7 17.65-1.15 9.3.4 17.65 1.15z"/><path id="r" fill="#3B78E7" d="M54.85 18.4q-2.05-1.2-5.45-2.45-6.75-2.5-13.4-2.5t-13.45 2.5q-3.35 1.25-5.4 2.45l-.9 5.95q2.25-.5 5.85-1 7.2-1 13.85-1 6.7 0 13.9 1 3.6.5 5.9 1l-.9-5.95z"/><path id="s" fill="#F7CB4D" d="M68.05 18.45q-1.6 0-3.1-2.25-.35-.45-.85-.45t-.85.45q-1.5 2.25-3 2.25-1.9 0-2.9-1.5-.25-.4-.65-.4-.3 0-.65.35l-.3.45q-.65.8-.15 1.8.65 1.25.65 2.8v3.75q0 2.3 2.6 5.3 2.7 3.15 5.3 3.15 2.55 0 5.3-3.15Q72 28 72 25.7v-3.8q0-1.35.65-2.75.5-1-.15-1.8l-.3-.45q-.25-.35-.65-.35t-.65.4q-.9 1.5-2.85 1.5z"/><path id="t" fill="#004373" d="M33.3 98.45q-4.2 0-10.3-1.4-.9-.2-1.7.25-.8.45-1 1.3l-.7 2.65q-.25.85.3 1.65.55.85 1.55 1.05 7 1.6 11.85 1.6t11.85-1.6q1-.2 1.55-1.05.55-.8.3-1.65l-.7-2.65q-.25-.85-1.05-1.3-.75-.45-1.65-.25-6.1 1.4-10.3 1.4z"/><path id="u" fill="#004373" d="M83.15 97.3q-.8.45-1 1.3l-.75 2.65q-.25.85.3 1.65.55.85 1.55 1.05 7.05 1.6 11.9 1.6 4.8 0 11.85-1.6 1-.2 1.55-1.05.55-.8.3-1.65l-.75-2.65q-.2-.85-1-1.3-.75-.45-1.65-.25-6.1 1.4-10.3 1.4-4.25 0-10.35-1.4-.85-.2-1.65.25z"/><path id="v" fill="#3B78E7" d="M78.3 96.35q-3.05-.45-5.05-.65 0 1.2-.9 3.05-1 2-2.5 3.75-2.15 2.45-5.65 3.95l13.25 11.1.85-21.2z"/><path id="w" fill="#3B78E7" d="M55.25 95.7l-5.1.65.6 21.2 13.55-11.1q-3.55-1.5-5.65-3.95-1.5-1.75-2.5-3.75-.9-1.85-.9-3.05z"/></defs><use transform="scale(.5625)" xlink:href="#a"/><use transform="scale(.5625)" xlink:href="#b"/><use transform="scale(.5625)" xlink:href="#c"/><use xlink:href="#d"/><use transform="scale(.5625)" xlink:href="#e"/><use transform="scale(.5625)" xlink:href="#f"/><use transform="matrix(.43246 0 0 .43268 8.35 .85)" xlink:href="#g"/><use transform="matrix(.43246 0 0 .43268 8.35 .85)" xlink:href="#h"/><use transform="matrix(.43275 0 0 .4329 8.35 1.2)" xlink:href="#i"/><use transform="matrix(.99216 0 0 .99313 .35 .1)" xlink:href="#j"/><use transform="scale(.5625)" xlink:href="#k"/><use transform="scale(.5625)" xlink:href="#l"/><use transform="scale(.5625)" xlink:href="#m"/><use transform="scale(.5625)" xlink:href="#n"/><use transform="scale(.5625)" xlink:href="#o"/><use transform="translate(0 -.05) scale(.5625)" xlink:href="#p"/><use transform="scale(.5625)" xlink:href="#q"/><use xlink:href="#r"/><use transform="scale(.5625)" xlink:href="#s"/><use transform="scale(.5625)" xlink:href="#t"/><use transform="scale(.5625)" xlink:href="#u"/><use transform="translate(-.1 -.05) scale(.5625)" xlink:href="#v"/><use transform="translate(-.1 -.05) scale(.5625)" xlink:href="#w"/></svg>