<svg xmlns="http://www.w3.org/2000/svg" xmlns:xlink="http://www.w3.org/1999/xlink" preserveAspectRatio="none" viewBox="0 0 72 72"><defs><path fill="#E59600" d="M111.4 66.55h-4.05V89.3q5.35 0 8.85-2.7 4-3.15 4-9 0-5.95-4.4-9.1-1.35-.95-3-1.55l-1.4-.4z" id="a"/><path fill="#E59600" d="M20.6 66.55h-4.05q-.55.1-1.35.4-1.65.6-3.05 1.55-4.4 3.15-4.4 9.1 0 5.85 4.05 9 3.45 2.7 8.8 2.7V66.55z" id="b"/><path fill="#FCC21B" d="M58.5 18.3Q54.55 12.5 49 10q-5.15-2.4-13-2.4T23 10q-5.55 2.5-9.5 8.3-2.85 4.25-3.8 10.9-.85 6.2.1 13.6.9 7.1 2.8 11.35 2.1 4.7 6.3 8.35 6.8 5.95 16.7 5.95h.75q9.95 0 16.7-5.95 4.25-3.65 6.3-8.35 1.9-4.25 2.8-11.35.95-7.4.1-13.6-.9-6.65-3.75-10.9z" id="c"/><path fill="#E59600" d="M39.4 51.35q.1-.25 0-.45-.15-.25-.45-.15-1.55.45-2.95.45-1.45 0-2.95-.45-.3-.1-.45.15-.15.2 0 .45.3.55 1.15 1.1 1.05.6 2.2.6 1.2 0 2.25-.6.85-.55 1.2-1.1z" id="d"/><path fill="#513F35" d="M74.3 100.05q-.25-.6-1.05-.6h-18.5q-.8 0-1.05.6t.25 1.5q1 1.75 3.35 3.2 3.05 1.9 6.7 1.9 3.65 0 6.7-1.9 2.35-1.45 3.35-3.2.5-.9.25-1.5z" id="e"/><path fill="#FFA000" d="M75.65 8.5Q68.8 4.35 61.4 5.55q-5.35.9-9.7 4.35-3.65 2.95-4.4 5.55 5.65-1.4 11.9-1.75 4.75-.3 7.95 2.05 3.35 2.45 3.15 6.4-.35 7.65-7.8 8.6-6.6.85-11.1-3.1-.5-.45-1.1-.1-.6.3-.55.95.25 2.5 1.8 4.85 1.75 2.75 4.95 4.75 2.75 1.7 7.2 1.85 4.65.15 8.95-1.6Q83.5 34 83.5 22.05q0-8.85-7.85-13.55z" id="f"/><path fill="#444" d="M40.15 72.35q-1.7 2-1.7 4.85 0 2.9 1.7 4.9 1.65 2 4.05 2 2.35 0 4.05-2 1.65-2.05 1.65-4.9 0-2.85-1.65-4.85-1.7-2.05-4.05-2.05-2.4 0-4.05 2.05z" id="g"/><path fill="#444" d="M87.85 72.35q-1.7-2.05-4.05-2.05-2.4 0-4.05 2.05-1.7 2-1.7 4.85 0 2.85 1.7 4.9 1.65 2 4.05 2 2.35 0 4.05-2 1.65-2 1.65-4.9 0-2.85-1.65-4.85z" id="h"/></defs><use xlink:href="#a" transform="rotate(.078) scale(.56247)"/><use xlink:href="#b" transform="rotate(.078) scale(.56247)"/><use xlink:href="#c"/><use xlink:href="#d"/><use xlink:href="#e" transform="scale(.5625)"/><use xlink:href="#f" transform="scale(.5625)"/><use xlink:href="#g" transform="translate(0 .75) scale(.5625)"/><use xlink:href="#h" transform="translate(0 .75) scale(.5625)"/></svg>