<svg xmlns="http://www.w3.org/2000/svg" xmlns:xlink="http://www.w3.org/1999/xlink" preserveAspectRatio="none" viewBox="0 0 72 72"><defs><path id="a" fill="#7E57C2" d="M57.55 57.55H51.4v6.15h6.15v-6.15m-36.95 0h-6.1v6.15h6.1v-6.15M8.35 14.5h-6.2v18.45h6.2V14.5m0-6.15v6.15h6.15V8.35H8.35m36.9 0v12.3H26.8V8.35h-6.2v12.3h-6.1v12.3H8.35v6.15h6.15v12.3h6.1v6.15h6.2V51.4h18.45v6.15h6.15V51.4h6.15V39.1h6.15v-6.15h-6.15v-12.3H51.4V8.35h-6.15m24.6 6.15H63.7v18.45h6.15V14.5m-6.15 0V8.35h-6.15v6.15h6.15z"/><path id="c" fill="#2F2F2F" d="M20.6 28.8v12.3h6.2V28.8h-6.2m24.65 12.3h6.15V28.8h-6.15v12.3z"/><path id="b" fill="none" stroke="#2F2F2F" stroke-linecap="square" stroke-linejoin="miter" stroke-miterlimit="3" stroke-width="3" d="M63.7 14.5V8.35h-6.15v6.15h12.3v18.45H63.7v6.15h-6.15v12.3H51.4v6.15h6.15v6.15H51.4v-6.15h-6.15V51.4H26.8v6.15h-6.2v6.15h-6.1v-6.15h6.1V51.4h-6.1V39.1H8.35v-6.15h-6.2V14.5h6.2V8.35h6.15v6.15H8.35v18.45h6.15v-12.3h6.1V8.35h6.2v12.3h18.45V8.35h6.15v12.3h6.15v12.3h6.15V14.5z"/></defs><g><use xlink:href="#a"/><use xlink:href="#b"/></g><use xlink:href="#c"/></svg>