<svg xmlns="http://www.w3.org/2000/svg" xmlns:xlink="http://www.w3.org/1999/xlink" preserveAspectRatio="none" viewBox="0 0 72 72"><defs><path fill="#6D4C41" d="M106.75 47q-3.85-8.6-9.65-16.15-15-19.8-32.05-19.8-24.3 0-37.65 18.75-5.05 7.1-7.75 16-2.3 7.55-2.3 13.95V71.6q.55-.6 1.6-1.4.7-.55 1.55-1l.75-.35 1.8 11.95L34.8 56.25q.15-.25.4-.25l7 .8q22.45 2.5 44.8-.15l5.15-.65q.35 0 .4.25l12.8 24.65 1.7-11.75 1.25.4q1.15.55 2.2 1.45l.2-11.25q-.4-4.9-3.95-12.75z" id="a"/><path fill="#DBA689" d="M105.55 68.3h-3.5v19.55q4.6 0 7.6-2.3 3.45-2.7 3.45-7.75 0-5.1-3.75-7.8l-3.8-1.7z" id="b"/><path fill="#DBA689" d="M26.2 68.3h-3.45l-3.8 1.7q-3.8 2.7-3.8 7.8 0 5.05 3.45 7.75 3 2.3 7.6 2.3V68.3z" id="c"/><path fill="#FADCBC" d="M105.4 75.75q0-29.35-8.35-43.85-9.9-17.15-32.9-17.15-23.05 0-32.95 17.15-8.35 14.5-8.35 43.85 0 25 14.05 37.1 10.9 9.4 27.25 9.4 16.2 0 27.1-9.3 14.15-12.1 14.15-37.2z" id="d"/><path fill="#4C3734" d="M64.15 108.25q4.65 0 8.55-2.1 3.05-1.6 4.3-3.5.65-1 .3-1.65-.3-.65-1.35-.65H52.3q-1.05 0-1.35.65-.35.65.3 1.65 1.25 1.9 4.3 3.5 3.95 2.1 8.6 2.1z" id="e"/><path fill="#513F35" d="M64.15 108.25q4.65 0 8.55-2.1 3.05-1.6 4.3-3.5.65-1 .3-1.65-.3-.65-1.35-.65H52.3q-1.05 0-1.35.65-.35.65.3 1.65 1.25 1.9 4.3 3.5 3.95 2.1 8.6 2.1z" id="f"/><path fill="#DBA689" d="M58.45 90.3q-.65-.15-.9.3-.25.4 0 .85.65 1.1 2.25 2.1 2.1 1.25 4.35 1.25 2.25 0 4.35-1.25 1.6-1 2.25-2.1.25-.45 0-.85-.3-.45-.9-.3-2.85.85-5.7.85t-5.7-.85z" id="g"/><path fill="#444" d="M50.7 78.1q0-2.75-1.6-4.65-1.6-1.95-3.9-1.95-2.25 0-3.85 1.95-1.6 1.9-1.6 4.65 0 2.7 1.6 4.65 1.6 1.9 3.85 1.9 2.3 0 3.9-1.9 1.6-1.95 1.6-4.65z" id="h"/><path fill="#444" d="M86.9 73.45q-1.6-1.95-3.85-1.95-2.3 0-3.9 1.95-1.6 1.9-1.6 4.65 0 2.7 1.6 4.65 1.6 1.9 3.9 1.9 2.25 0 3.85-1.9 1.6-1.95 1.6-4.65 0-2.75-1.6-4.65z" id="i"/><path fill="#312D2D" d="M52.05 31.75l7.25 12.2.85-6.3q1.05-7.6-1.35-15.2-4.75-15.2-22.1-15.2-17.3 0-22.95 14.6-2.8 7.25-2.15 14.5l1.25 7.6 7.75-12.5q11.15.85 22.4.65 5.65-.1 9.05-.35z" id="j"/><path fill="#E75625" d="M110.7 53.9h.1q-.8-15.6-10.55-28.5Q87.45 8.45 64.85 8H63q-22.6.45-35.4 17.4-9.7 12.9-10.5 28.5h.1q46.7-6.95 93.5 0z" id="k"/><path fill="#8BC34A" d="M85.75 53.05q-.3-11.25-3.15-22.5Q76.85 8 63.95 8 51.05 8 45.3 30.55q-2.85 11.25-3.15 22.5l6.5-.8q7.95-.85 15.3-.85 7.35 0 15.3.85 4 .4 6.5.8z" id="l"/><path fill="#444" d="M110.8 64.25q1.3.35 2.15-.3.9-.7.85-2l-.1-4.7q-.05-1.25-.9-2.3-.9-1.1-2.1-1.45-23.1-6.2-46.75-6.2-23.7 0-46.8 6.2-1.2.35-2.05 1.45-.85 1.05-.9 2.3l-.1 4.7q-.05 1.3.85 2 .85.65 2.1.3 23-6.2 46.9-6.2 23.85 0 46.85 6.2z" id="m"/><path fill="#444" d="M113.8 62.1l-3.25 1.7-.05 4.7q2.1-.5 2.8-2.3.5-1.25.5-4.1z" id="n"/><path fill="#444" d="M17.35 63.8l-3.25-1.7q0 2.85.5 4.1.7 1.85 2.75 2.3v-4.7z" id="o"/><path fill="#FBB817" d="M63.95 26.7q-3.3 0-5.6 2.3Q56 31.35 56 34.6q0 3.3 2.35 5.65 2.3 2.3 5.6 2.3 3.25 0 5.6-2.3 2.3-2.35 2.3-5.65 0-3.25-2.3-5.6-2.35-2.3-5.6-2.3z" id="p"/></defs><use xlink:href="#a" transform="scale(.5625)"/><use xlink:href="#b" transform="scale(.56248)"/><use xlink:href="#c" transform="scale(.56248)"/><use xlink:href="#d" transform="scale(.5625)"/><use xlink:href="#e" transform="scale(.5625)"/><use xlink:href="#f" transform="scale(.5625)"/><use xlink:href="#g" transform="scale(.5625)"/><use xlink:href="#h" transform="scale(.5625)"/><use xlink:href="#i" transform="scale(.5625)"/><use xlink:href="#j"/><use xlink:href="#k" transform="scale(.5625)"/><use xlink:href="#l" transform="scale(.5625)"/><use xlink:href="#m" transform="scale(.5625)"/><use xlink:href="#n" transform="scale(.5625)"/><use xlink:href="#o" transform="scale(.5625)"/><use xlink:href="#p" transform="matrix(.356 0 0 .356 13.2 17.3)"/></svg>