<svg xmlns="http://www.w3.org/2000/svg" xmlns:xlink="http://www.w3.org/1999/xlink" preserveAspectRatio="none" viewBox="0 0 72 72"><defs><path id="a" fill="#BA68C8" d="M105.9 5.2q-1.4-1.4-3.55-2.1-2.75-.9-3.9.65-.6.85-.1 2.9.25 1.1.8 3 .75 5.15-.75 10.7-1.55 5.65-4.85 9.55-1.3 1.55-5.25 4.65-3.35 2.65-4.4 5.65-1.6 4.55 1.95 9.6 2.4 3.4 6.15 5.3 4.15 2.1 7.95 1.25 4.45-.95 8.15-4.85 3.35-3.5 5-8.2 3.55-10.55 1.05-22.05-2.1-10-8.25-16.05z"/><path id="b" fill="#BA68C8" d="M43 49q3.6-5.15 2-9.65-1.15-3.1-4.45-5.65-3.85-3-5.25-4.6-3.3-3.95-4.8-9.55-1.5-5.6-.75-10.75.55-1.9.8-3 .5-2.05-.1-2.85-1.15-1.6-3.85-.7Q24.35 3 23 4.4q-6.1 6-8.25 16.05-2.5 11.45 1.05 22 1.65 4.7 5 8.25 3.7 3.85 8.15 4.85 3.8.85 7.95-1.25 3.7-1.9 6.1-5.3z"/><path id="c" fill="#BA68C8" d="M36 14Q15.1 14 6.9 33.25 2.4 43.8 2.4 58.05q0 5.45 9.85 9.3Q22.1 71.2 36 71.2t23.75-3.85q9.85-3.85 9.85-9.3 0-14.2-4.5-24.8Q56.9 14 36 14z"/><path id="d" fill="#2F2F2F" d="M28.6 49.1q3.35-2.05 3.8-4.6l-19.3-5.75q-.6 3.3.9 6.5 2 4.25 7.15 5.3 3.85.8 7.45-1.45z"/><path id="e" fill="#FBB817" d="M15.95 15.25q4.5.9 8.8-2.15 3.16-2.229 3.8-4.65L6.9 2q-.612 3.05.8 6.6 2.15 5.45 8.25 6.65z"/><path id="f" fill="#2F2F2F" d="M28.6 49.1q3.35-2.05 3.8-4.6l-19.3-5.75q-.6 3.3.9 6.5 2 4.25 7.15 5.3 3.85.8 7.45-1.45z"/><path id="g" fill="#2F2F2F" d="M86.45 98.8q-1-.65-2.15-.4t-1.75 1.2q-1.45 2.15-4.45 4.15-6 4-14 3.55-8.05-.45-13.6-3.85-4.05-3.4-4.2-3.6-.7-.95-1.8-1.15-1.15-.2-2.1.45-.95.65-1.2 1.8-.2 1.2.45 2.15.5.75 1.35 1.55 1.65 1.7 3.85 3.2 6.95 4.55 16.9 5.15l1.95.05q9.25 0 16.2-5 3.5-2.55 5.35-5.35.65-.95.45-2.1-.25-1.15-1.25-1.8z"/></defs><use transform="translate(-.25) scale(.5625)" xlink:href="#a"/><use transform="translate(-.25) scale(.5625)" xlink:href="#b"/><use xlink:href="#c"/><use transform="scale(-1 1) rotate(5 15.217 -781.429)" xlink:href="#d"/><use transform="matrix(-.56035 .04903 .04903 .56035 58.5 35.35)" xlink:href="#e"/><use transform="rotate(5 51.217 43.084)" xlink:href="#f"/><g><use transform="rotate(5.001 -398.052 172.275) scale(.56249)" xlink:href="#e"/></g><g transform="matrix(.5625 0 0 -.5625 -.25 114.2)"><use xlink:href="#g"/></g></svg>