<svg xmlns="http://www.w3.org/2000/svg" xmlns:xlink="http://www.w3.org/1999/xlink" preserveAspectRatio="none" viewBox="0 0 72 72"><defs><path id="a" fill="#E0E0E0" d="M55.95 47.45q-2-1.25-4.15-.75-2.15.5-3.5 2.4-.55.85-2.15 4-1.85 3.6-2.55 4.75-.8 1.35-3.65 4.8-1.9 2.3-1.7 3.35.2 1 .8 1.65.75.8 2.3 1.35 1.9.55 4.45.35 2.8-.25 4-1.25.5-.55 0-1.4l-.6-.75q2 .35 4.5-.1 2.85-.45 3.4-1.5.25-.45-.3-1.1-.45-.5-.85-.75 7.45-.4 8.2-2.45.35-1.05-1.4-1.95 2.55-.3 3.85-.65 2.5-.7 3.55-2.05.5-.55.6-1.25.1-.8-.3-1.35-.4-.6-1.3-.85-.45-.15-1.6-.25-2.85-.25-5.25-1.1-2.95-1-6.35-3.15z"/><path id="b" fill="#B0BEC5" d="M43.85 20.5q-.08-.015-.15-.05-4.05 0-9.85-1.3-3.75-.85-5.8-1.55.75.65 3.55 1.9 2.2 1 3.75 1.55 5.079 1.66 10.55 1.3-.576-.938-2.3-1.8.12-.014.25-.05z"/><path id="c" fill="#B0BEC5" d="M32.05 28.1q-3.3.15-7.2-1.15-5.2-2-5.6-2.2 4.15 3 6.1 3.8 2.995 1.1 5.55 1.35.599-.108 1.1-.25.404-.115.75-.25-.627-.744-1.25-1.1.369-.02.7-.05-.112-.125-.15-.15z"/><path id="d" fill="#B0BEC5" d="M19.95 34.45q-.054-.077-.1-.15-4-.65-8.8-2.3 3 2.1 4.5 2.6 3.239 1.02 5.05 1.25-.019-.048-.05-.1L19.5 34.4q.23.04.45.05z"/><path id="e" fill="#E0E0E0" d="M55.95 47.45q-2-1.25-4.15-.75-2.15.5-3.5 2.4-.55.85-2.15 4-1.85 3.6-2.55 4.75-.8 1.35-3.65 4.8-1.9 2.3-1.7 3.35.2 1 .8 1.65.75.8 2.3 1.35 1.9.55 4.45.35 2.8-.25 4-1.25.5-.55 0-1.4l-.6-.75q2 .35 4.5-.1 2.85-.45 3.4-1.5.25-.45-.3-1.1-.45-.5-.85-.75 7.45-.4 8.2-2.45.35-1.05-1.4-1.95 2.55-.3 3.85-.65 2.5-.7 3.55-2.05.5-.55.6-1.25.1-.8-.3-1.35-.4-.6-1.3-.85-.45-.15-1.6-.25-2.85-.25-5.25-1.1-2.95-1-6.35-3.15z"/><path id="f" fill="#99674F" d="M111.4 66.55h-4.05V89.3q5.35 0 8.85-2.7 4-3.15 4-9 0-5.95-4.4-9.1-1.35-.95-3-1.55l-1.4-.4z"/><path id="g" fill="#99674F" d="M20.6 66.55h-4.05q-.55.1-1.35.4-1.65.6-3.05 1.55-4.4 3.15-4.4 9.1 0 5.85 4.05 9 3.45 2.7 8.8 2.7V66.55z"/><path id="h" fill="#CC9970" d="M56.5 23.1q-3.6-5.3-8.6-7.55-4.7-2.15-11.8-2.15-7.1 0-11.8 2.15-5 2.3-8.55 7.55-2.6 3.85-3.45 9.85-.8 5.65.05 12.35.85 6.45 2.55 10.3 1.9 4.25 5.7 7.6 6.15 5.35 15.15 5.35h.7q9 0 15.15-5.35 3.8-3.35 5.7-7.6 1.7-3.85 2.5-10.3.85-6.7.1-12.35-.8-6-3.4-9.85z"/><path id="i" fill="#513F35" d="M77 97.15q-.35-.65-1.45-.65H52.4q-1 0-1.3.65-.35.65.3 1.55 1.2 1.85 4.2 3.45 3.85 2.05 8.45 2.05t8.45-2.05q3-1.55 4.25-3.45.55-.95.25-1.55z"/><path id="j" fill="#99674F" d="M39.15 53.05q.15-.25 0-.45-.1-.2-.4-.1-1.35.4-2.65.4-1.3 0-2.65-.4-.3-.1-.4.1-.15.2 0 .45.25.5 1 .95 1 .6 2.05.6 1.05 0 2-.6.8-.45 1.05-.95z"/><path id="k" fill="#6D4C41" d="M75.65 8.5Q68.8 4.35 61.4 5.55q-5.35.9-9.7 4.35-3.65 2.95-4.4 5.55 5.65-1.4 11.9-1.75 4.75-.3 7.95 2.05 3.35 2.45 3.15 6.4-.35 7.65-7.8 8.6-6.6.85-11.1-3.1-.5-.45-1.1-.1-.6.3-.55.95.25 2.5 1.8 4.85 1.75 2.75 4.95 4.75 2.75 1.7 7.2 1.85 4.65.15 8.95-1.6Q83.5 34 83.5 22.05q0-8.85-7.85-13.55z"/><path id="l" fill="#444" d="M40.15 72.35q-1.7 2-1.7 4.85 0 2.9 1.7 4.9 1.65 2 4.05 2 2.35 0 4.05-2 1.65-2.05 1.65-4.9 0-2.85-1.65-4.85-1.7-2.05-4.05-2.05-2.4 0-4.05 2.05z"/><path id="m" fill="#444" d="M87.85 72.35q-1.7-2.05-4.05-2.05-2.4 0-4.05 2.05-1.7 2-1.7 4.85 0 2.85 1.7 4.9 1.65 2 4.05 2 2.35 0 4.05-2 1.65-2 1.65-4.9 0-2.85-1.65-4.85z"/><path id="n" fill="#40C0E7" d="M120.3 21q0-8.7-16.55-14.85T63.75 0Q40.35 0 23.8 6.15 7.25 12.3 7.25 21q0 8.75 16.55 14.85Q40.35 42 63.75 42q23.45 0 40-6.15Q120.3 29.75 120.3 21m-24.55-3.6q0 3.55-9.35 6-9.4 2.5-22.65 2.5-13.25 0-22.6-2.5-9.4-2.5-9.4-6 0-3.55 9.4-6.05 9.35-2.5 22.6-2.5 13.25 0 22.65 2.5 9.35 2.5 9.35 6.05z"/><path id="o" fill="#6D4C41" d="M46.05 17.75q0-4.5-4-6.9-2.24-1.377-4.6-1.6l-1.8 4.35q1.16.283 2.05.95 1.7 1.25 1.6 3.25-.15 3.9-3.95 4.4-3.35.4-5.65-1.6-.25-.25-.55-.05-.35.15-.3.5.15 1.25.9 2.45.9 1.4 2.55 2.45 1.4.85 3.65.9 2.4.1 4.55-.8 5.55-2.2 5.55-8.3z"/></defs><use transform="matrix(-1 0 0 1 72 -.05)" xlink:href="#a"/><use transform="matrix(-.5625 0 0 .5625 33.8 46.5)" xlink:href="#b"/><use transform="matrix(-.5625 0 0 .5625 33.8 46.5)" xlink:href="#c"/><use transform="matrix(-.5625 0 0 .5625 33.8 46.5)" xlink:href="#d"/><use xlink:href="#e"/><use transform="translate(38.2 46.55) scale(.5625)" xlink:href="#b"/><use transform="translate(38.2 46.55) scale(.5625)" xlink:href="#c"/><use transform="translate(38.2 46.55) scale(.5625)" xlink:href="#d"/><use transform="matrix(.5095 0 0 .50984 3.5 6.5)" xlink:href="#f"/><use transform="matrix(.5095 0 0 .50984 3.5 6.5)" xlink:href="#g"/><use xlink:href="#h"/><use transform="matrix(.5625 0 0 .7159 .1 -12)" xlink:href="#i"/><use xlink:href="#j"/><use transform="matrix(.50955 0 0 .5099 3.5 6.5)" xlink:href="#k"/><use transform="matrix(.50955 0 0 .5099 3.5 7.25)" xlink:href="#l"/><use transform="matrix(.50955 0 0 .5099 3.5 7.25)" xlink:href="#m"/><g transform="translate(6.55 2.65) scale(.4608)"><use xlink:href="#n"/></g><g><use xlink:href="#o"/></g></svg>