<svg xmlns="http://www.w3.org/2000/svg" xmlns:xlink="http://www.w3.org/1999/xlink" preserveAspectRatio="none" viewBox="0 0 72 72"><defs><path id="a" fill="#2F2F2F" d="M58.75 13.45q-2.45-2.05-4.9-1.3-2.1-1.7-4.7-2.5-6.9-1.3-13.05-1.35-6.15.05-13 1.35-2.65.8-4.75 2.5-2.45-.75-4.85 1.3-2.35 2.4-2.4 5.5Q5.35 23.7 6.35 30.2q.55 3.45-.25 5.6-.2.5-.65 1.3-.5.8-.65 1.25-1 2.1-.85 4.4.1.8.75 4.35.2 1-.35 2.5-.75 2.15-.8 2.45-.4 2.1.25 3.85.25.55 1.1 1.8.7 1.05.9 1.85.3 1.3.9 2.25 2.5 7.25 23.2 6.4 2.95-.05 6-.05t6.4-.15q20.7 1.05 23.2-6.2.6-.95.9-2.25.2-.8.95-1.85.85-1.25 1.05-1.8.65-1.75.25-3.85-.05-.3-.75-2.45-.55-1.5-.35-2.5.65-3.55.7-4.35.15-2.3-.8-4.4-.15-.45-.7-1.25-.45-.8-.65-1.3-.8-2.15-.25-5.6 1-6.5-4.7-11.25-.05-3.1-2.4-5.5z"/><path id="b" fill="#ED6C30" d="M48.8 21.75q-2.15-2.85-5.1-3.2H28.3q-2.95.35-5.1 3.2-.8 1.4-2.8 1.9-1.45.3-2.7 1.1-2.05 1.2-2.7 2.45-.8 1.8-.65 3l.05.3q.2 1.25.15 1.95-.05 1.05-.55 2.15-.55 1.15-1.65 2.75-1.6 2.45-2 3.95-.85 4.3.95 8.6.4.95 1.7 2.7 1.25 1.75 1.7 2.75.9 1.7.9 3.3v1.8q-.2 1.9 0 3 .3 5.65 6.3 5.65.45 0 1.55-.35 1.4-.4 2.35-.4h.3q1 .1 1.65.45.456.306 1.65 1.35 1.232 1.031 3.55 1.15 2.373.125 3.05.1.7 0 3-.1 2.35-.1 3.55-1.15 1.25-1.05 1.7-1.35.65-.35 1.65-.45h.3q.95 0 2.35.4 1.1.35 1.55.35 6 0 6.3-5.65.2-1.1 0-3v-1.8q0-1.6.9-3.3.45-1 1.7-2.75 1.3-1.75 1.7-2.7 1.8-4.3.95-8.6-.4-1.5-2-3.95-1.1-1.6-1.65-2.75-.5-1.1-.55-2.15-.05-.7.15-1.95l.05-.3q.15-1.2-.65-3-.65-1.25-2.7-2.45-1.25-.8-2.7-1.1-2-.5-2.8-1.9z"/><path id="c" fill="#FFF" d="M43.1 40.9q.25.15.5.25l9.1-1.7.35-.35q.1-.1.2-.25-4.95 1.7-10.15 2.05z"/><path id="d" fill="#2F2F2F" d="M88.55 73.2v.05q-1.66.388-3.85 2.1-3.241 2.478-3.85 2.8Q77.823 80.058 75 81q-1.936.675-2.95 1-3.19 1.254-8.4 1.25-5.21.004-8.45-1.25h.05q-2.034-.589-3-1-2.812-1.045-5.8-2.85-.608-.321-3.8-2.8-2.252-1.682-3.95-2.15-1.76-.41-3.8.65-2.058 1.018-2.9 2.65-1.63 3.508.65 9.15 3.209 7.732 3.3 9.7.192 3.558.65 5.35.838 3.207 2.85 4.9 3.009 2.465 7.65 2.7 4.52.197 8-1.85h-.05q2.39-1.476 3.55-2.2h-.05q2.245-1.345 4.1-1.55.374-.053 1-.05.647-.003 1 .05 1.87.214 4.05 1.55 1.21.722 3.5 2.2 3.48 2.047 7.95 1.85 4.691-.235 7.65-2.7 2.016-1.644 2.9-4.9.41-1.506.7-5.35.1-1.967 3.2-9.7 2.33-5.642.7-9.15-.797-1.63-2.9-2.65-2.039-1.061-3.85-.65z"/><path id="i" fill="#2F2F2F" d="M40.9 43.3q.45-.5.2-1.1-2.73-2.647-3.7-7.25-.4-.7-1.35-.75-1 0-1.35.7-.7 3.65-3.75 7.3-.35.55.1 1.1.45.5 1.2.5h7.45q.8 0 1.2-.5z"/><path id="j" fill="#ED6C30" d="M41.25 22.2q2.4-2.35.95-4.55-2.5-2.6-3.85-4.1-1.25-1.45-3.9-5-2.4-3.3-3.95-4.95-1.35-1.5-2.75-1.7-2.1-.3-3.2 1.75-.8 1.5-.95 3.9-.35 5.15 1.65 11.55.85 2.7 1.5 4.1 1.15 2.5 2.65 3.35.65.35 1.45.45 4.5.75 10.4-4.8z"/><path id="k" fill="#ED6C30" d="M102.1 19.1q2-6.4 1.65-11.55-.1-2.35-.95-3.9-1.1-2.05-3.2-1.75-1.3.2-2.75 1.7-1.6 1.7-4 4.95-2.6 3.6-3.85 5-3 2.75-3.85 4.1-1.45 2.2.95 4.55Q92 27.75 96.55 27q.75-.1 1.4-.45 1.55-.85 2.7-3.35.6-1.3 1.45-4.1z"/><path id="l" fill="#FFF" d="M38.8 54.55q-.25.5-.35 1.05v.5q-.05.15.1.2 0 .05.25.15l2.95.8q.85-.2.7-2-.2-1.8-1-2.15-.8-.3-1.55.2-.65.45-1.1 1.25m9.35-8.95q-.45-.7-1.5-.5-.75.1-1.6.6-2 1-2.1 2.4-.1 1.05 1.25 2.3.75.7 2.15 1.85 1.8 1.5 2.3 1.6 1.1.25 1.05-2 0-1.35-.3-2.95-.2-1.65-1.25-3.3z"/><path id="m" fill="#FFF" d="M32.65 54.6q-.1-.55-.35-1.05-.45-.8-1.1-1.25-.75-.5-1.55-.2-.8.35-1 2.15-.15 1.8.7 2l2.95-.8q.25-.1.25-.15.15-.05.1-.2v-.5z"/><path id="n" fill="#FFF" d="M40 87.95q-.4 2.25-.4 4.15-.05 3.2 1.45 2.85.75-.15 3.25-2.3 2-1.55 3.05-2.55 1.85-1.8 1.7-3.25-.1-1.95-2.95-3.4-1.15-.7-2.2-.85-1.5-.25-2.1.75-1.5 2.3-1.8 4.6z"/><path id="f" fill="none" stroke="#2F2F2F" stroke-linecap="round" stroke-linejoin="round" stroke-width="2" d="M54.229 38.115l-.755.324q-4.533 1.51-9.28 1.888-.756.054-1.565.054m-.432-11.384q-.917.108-1.726.162m9.55-2.212q-3.94 1.618-7.824 2.05m9.388-2.752q-.755.324-1.564.702"/><path id="h" fill="none" stroke="#2F2F2F" stroke-linecap="round" stroke-linejoin="round" stroke-width="2" d="M17.918 38.115l.756.324m1.888-12.194q.755.324 1.565.702 3.938 1.618 7.823 2.05m-1.996 11.33q.755.054 1.564.054m.432-11.384q.917.108 1.726.162m-13.002 9.28q4.532 1.51 9.28 1.888"/><g id="e"><path fill="#FFF" d="M52.15 35.9q1.7-2.05 1.4-4.7-.15-2.8-2.35-4.65-1.05-.9-2.25-1.3-3.65 1.5-7.25 1.9l-.1.1q-1.85 2.1-1.65 4.9.25 2.8 2.4 4.6.55.5 1.2.9 4.4-.35 8.6-1.75m-3.7-7l.05.05q.892.86 1.05 2.2.15 1.421-.6 2.45-.746 1.041-1.9 1.2-.01.012-.05 0-1.057.227-1.9-.55-.936-.847-1.1-2.2V32q-.113-1.347.6-2.45.761-1.023 1.9-1.25 1.088-.133 1.95.6z"/><path fill="#2F2F2F" d="M48.5 28.95l-.05-.05q-.862-.733-1.95-.6-1.139.227-1.9 1.25-.713 1.103-.6 2.45v.05q.164 1.353 1.1 2.2.843.777 1.9.55.04.012.05 0 1.154-.159 1.9-1.2.75-1.029.6-2.45-.158-1.34-1.05-2.2z"/></g><g id="g"><path fill="#FFF" d="M18.5 31.2q-.3 2.65 1.4 4.7 4.2 1.4 8.6 1.75.65-.4 1.2-.9 2.15-1.8 2.4-4.6.2-2.8-1.65-4.9l-.1-.1q-3.6-.4-7.25-1.9-1.2.4-2.25 1.3-2.2 1.85-2.35 4.65m7.05-2.9q1.139.227 1.85 1.25.763 1.103.65 2.45-.147 1.388-1.1 2.25h-.05q-.794.777-1.85.55-.04.012-.1 0-1.104-.159-1.9-1.2-.7-1.029-.55-2.45.15-1.332 1.05-2.2v-.05q.912-.733 2-.6z"/><path fill="#2F2F2F" d="M27.4 29.55q-.711-1.023-1.85-1.25-1.088-.133-2 .6v.05q-.9.868-1.05 2.2-.15 1.421.55 2.45.796 1.041 1.9 1.2.06.012.1 0 1.056.227 1.85-.55h.05q.953-.862 1.1-2.25.113-1.347-.65-2.45z"/></g></defs><use xlink:href="#a"/><use xlink:href="#b"/><use xlink:href="#c"/><use transform="matrix(.60696 0 0 .60696 -2.8 -.3)" xlink:href="#d"/><g transform="translate(-2.8 -.3) scale(1.07907)"><use xlink:href="#e"/><use transform="translate(2.55 .25) scale(.92671)" xlink:href="#f"/></g><g transform="translate(-2.8 -.3) scale(1.07907)"><use xlink:href="#g"/><use transform="translate(2.55 .25) scale(.92671)" xlink:href="#h"/></g><use transform="translate(-2.8 -.3) scale(1.07907)" xlink:href="#i"/><use transform="matrix(.60696 0 0 .60696 -2.55 -.3)" xlink:href="#j"/><use transform="matrix(.60696 0 0 .60696 -2.55 -.3)" xlink:href="#k"/><use transform="translate(-2.3 -.3) scale(1.07907)" xlink:href="#l"/><use transform="translate(-2.3 .75) scale(1.07907)" xlink:href="#m"/><use transform="translate(-9.55 -15) scale(.76724)" xlink:href="#n"/></svg>