<svg xmlns="http://www.w3.org/2000/svg" xmlns:xlink="http://www.w3.org/1999/xlink" preserveAspectRatio="none" viewBox="0 0 72 72"><defs><path fill="#7A4C32" d="M106.9 66.05h-3.6v20.3q4.75 0 7.85-2.4 3.6-2.8 3.6-8.05 0-5.3-3.9-8.1l-3.95-1.75z" id="a"/><path fill="#7A4C32" d="M24.7 66.05h-3.65l-3.9 1.75q-3.95 2.8-3.95 8.1 0 5.25 3.6 8.05 3.1 2.4 7.9 2.4v-20.3z" id="b"/><path fill="#AD6F43" d="M59.95 41.3q0-16.15-5-23.95Q49.25 8.4 36 8.4t-19.1 9.05q-5.1 7.95-5.1 24.05 0 13.5 8.7 21.1 7 6.1 15.5 6.1 8.45 0 15.35-6.2 8.6-7.7 8.6-21.2z" id="c"/><path fill="#BDBDBD" d="M81.55 28.1q7.35-4.5 7.35-10.85T81.55 6.4Q74.2 1.9 63.8 1.9T46.1 6.4q-7.35 4.5-7.35 10.85T46.1 28.1q7.3 4.5 17.7 4.5 10.4 0 17.75-4.5z" id="j"/><path fill="#E1F5FE" d="M40.15 72.35q-1.7 2-1.7 4.85 0 2.9 1.7 4.9 1.65 2 4.05 2 2.35 0 4.05-2 1.65-2.05 1.65-4.9 0-2.85-1.65-4.85-1.7-2.05-4.05-2.05-2.4 0-4.05 2.05z" id="k"/><path fill="#E1F5FE" d="M87.85 72.35q-1.7-2.05-4.05-2.05-2.4 0-4.05 2.05-1.7 2-1.7 4.85 0 2.85 1.7 4.9 1.65 2 4.05 2 2.35 0 4.05-2 1.65-2 1.65-4.9 0-2.85-1.65-4.85z" id="l"/><path fill="#E1F5FE" d="M63.95 108.75q4.9 0 9-2.15 3.2-1.7 4.5-3.7.7-1.05.35-1.7-.35-.65-1.45-.65H51.6q-1.1 0-1.45.65-.35.65.35 1.7 1.3 2 4.5 3.7 4.1 2.15 8.95 2.15z" id="m"/><path fill="#E1F5FE" d="M58 90q-.65-.15-.9.3-.3.4-.05.9.7 1.15 2.4 2.2 2.2 1.35 4.55 1.35 2.35 0 4.5-1.35 1.7-1.05 2.4-2.2.25-.5 0-.9-.3-.45-.95-.3-3.15.9-5.95.9-2.85 0-6-.9z" id="n"/><path fill="#444" d="M40.15 72.35q-1.7 2-1.7 4.85 0 2.9 1.7 4.9 1.65 2 4.05 2 2.35 0 4.05-2 1.65-2.05 1.65-4.9 0-2.85-1.65-4.85-1.7-2.05-4.05-2.05-2.4 0-4.05 2.05z" id="o"/><path fill="#444" d="M87.85 72.35q-1.7-2.05-4.05-2.05-2.4 0-4.05 2.05-1.7 2-1.7 4.85 0 2.85 1.7 4.9 1.65 2 4.05 2 2.35 0 4.05-2 1.65-2 1.65-4.9 0-2.85-1.65-4.85z" id="p"/><path fill="#513F35" d="M63.95 108.75q4.9 0 9-2.15 3.2-1.7 4.5-3.7.7-1.05.35-1.7-.35-.65-1.45-.65H51.6q-1.1 0-1.45.65-.35.65.35 1.7 1.3 2 4.5 3.7 4.1 2.15 8.95 2.15z" id="q"/><path fill="#7A4C32" d="M58 90q-.65-.15-.9.3-.3.4-.05.9.7 1.15 2.4 2.2 2.2 1.35 4.55 1.35 2.35 0 4.5-1.35 1.7-1.05 2.4-2.2.25-.5 0-.9-.3-.45-.95-.3-3.15.9-5.95.9-2.85 0-6-.9z" id="r"/><path fill="#E0E0E0" d="M42.75 45.6q1.65-.5 6.2-1.65 4.5-1.2 7.35-2.55Q65 37.3 65 29.6v-16Q65 10 60.5 9q-4.1-.9-10.55.65-6.5 1.5-12.5 4.8-6.5 3.55-10.1 7.9-7.1 8.6-9.2 22.9-2 13.45.95 27.05.25 1.2 1.5 1.2 1.25-.05 1.45-1.25 1.8-9.15 6.85-16.2 5.7-7.9 13.85-10.45z" id="s"/><path fill="#E0E0E0" d="M100.6 22.35Q97 18 90.5 14.45q-6-3.3-12.45-4.8-6.5-1.55-10.6-.65Q63 10 63 13.6v16q0 7.7 8.65 11.8 4.75 2.2 13.6 4.2 8.1 2.55 13.8 10.45 5.05 7.05 6.85 16.2.25 1.2 1.45 1.25 1.25 0 1.5-1.2 2.95-13.6 1-27.05-2.15-14.3-9.25-22.9z" id="t"/><path id="d" stroke="#7A4C32" stroke-opacity=".498" stroke-width="1.5" stroke-linejoin="round" stroke-linecap="round" fill="none" d="M27.794 30q7.959-1.912 15.862 0"/><path id="e" stroke="#7A4C32" stroke-opacity=".498" stroke-width="1.5" stroke-linejoin="round" stroke-linecap="round" fill="none" d="M26.894 35.134q8.83-2.109 17.634 0"/><path id="f" stroke="#7A4C32" stroke-opacity=".498" stroke-width="1.5" stroke-linejoin="round" stroke-linecap="round" fill="none" d="M28.35 52.194q-1.182.618-2.503 2.025-2.644 2.756-3.403 6.552"/><path id="g" stroke="#7A4C32" stroke-opacity=".498" stroke-width="1.5" stroke-linejoin="round" stroke-linecap="round" fill="none" d="M28.956 47.244q-.366.703-1.21 1.406-1.63 1.378-3.852 1.378"/><path id="h" stroke="#7A4C32" stroke-opacity=".498" stroke-width="1.5" stroke-linejoin="round" stroke-linecap="round" fill="none" d="M43.094 52.194q1.18.618 2.503 2.025 2.643 2.756 3.402 6.552"/><path id="i" stroke="#7A4C32" stroke-opacity=".498" stroke-width="1.5" stroke-linejoin="round" stroke-linecap="round" fill="none" d="M42.544 47.244q.365.703 1.18 1.406 1.66 1.378 3.882 1.378"/></defs><use xlink:href="#a" transform="scale(.56245)"/><use xlink:href="#b" transform="scale(.56245)"/><use xlink:href="#c"/><use xlink:href="#d" transform="matrix(1 0 0 1 .007 .02)"/><use xlink:href="#e" transform="matrix(1 0 0 1 .007 .007)"/><use xlink:href="#f" transform="matrix(1 0 0 1 .002 .026)"/><use xlink:href="#g" transform="matrix(1 0 0 1 .017 .026)"/><use xlink:href="#h" transform="matrix(1 0 0 1 .01 .026)"/><use xlink:href="#i" transform="matrix(1 0 0 1 .022 .026)"/><use xlink:href="#j" transform="scale(.56248)"/><use xlink:href="#k" transform="scale(.56248)"/><use xlink:href="#l" transform="scale(.56248)"/><use xlink:href="#m" transform="scale(.56248)"/><use xlink:href="#n" transform="scale(.56248)"/><use xlink:href="#o" transform="scale(.56248)"/><use xlink:href="#p" transform="scale(.56248)"/><use xlink:href="#q" transform="scale(.56248)"/><use xlink:href="#r" transform="scale(.56248)"/><use xlink:href="#s" transform="scale(.56248)"/><use xlink:href="#t" transform="scale(.56248)"/></svg>