<svg xmlns="http://www.w3.org/2000/svg" xmlns:xlink="http://www.w3.org/1999/xlink" preserveAspectRatio="none" viewBox="0 0 72 72"><defs><path fill="#99674F" d="M106.9 66.05h-3.6v20.3q4.75 0 7.85-2.4 3.6-2.8 3.6-8.05 0-5.3-3.9-8.1l-3.95-1.75z" id="a"/><path fill="#99674F" d="M24.7 66.05h-3.65l-3.9 1.75q-3.95 2.8-3.95 8.1 0 5.25 3.6 8.05 3.1 2.4 7.9 2.4v-20.3z" id="b"/><path fill="#E0E0E0" d="M51.9 49.3q0-10.75-4.05-17.35Q43.3 24.6 34.9 24.6q-10.1 0-16.05 3.95-7.35 4.85-8 15.45-.75 12 5.1 20.75 5.8 8.7 14.65 8.7 8.8 0 15.05-7.05 6.25-7.1 6.25-17.1z" id="c"/><path fill="#E0E0E0" d="M109.15 28.5q-5.95-3.9-16.1-3.9-8.35 0-12.9 7.35-4.1 6.65-4.1 17.35 0 10 6.25 17.1 6.25 7.05 15.05 7.05 8.85 0 14.7-8.75 5.8-8.7 5.05-20.75-.6-10.6-7.95-15.45z" id="d"/><path fill="#CC9970" d="M15.25 16.5q-4.75 8.05-3.35 25 1.3 15.65 8.95 22.25Q26.5 68.6 36 68.6V6.95q-15.2 0-20.75 9.55z" id="e"/><path fill="#CC9970" d="M60.05 41.5q1.4-16.95-3.3-25Q51.15 6.95 36 6.95V68.6q9.5 0 15.15-4.85 7.6-6.6 8.9-22.25z" id="f"/><path fill="#444" d="M40.15 72.35q-1.7 2-1.7 4.85 0 2.9 1.7 4.9 1.65 2 4.05 2 2.35 0 4.05-2 1.65-2.05 1.65-4.9 0-2.85-1.65-4.85-1.7-2.05-4.05-2.05-2.4 0-4.05 2.05z" id="m"/><path fill="#444" d="M87.85 72.35q-1.7-2.05-4.05-2.05-2.4 0-4.05 2.05-1.7 2-1.7 4.85 0 2.85 1.7 4.9 1.65 2 4.05 2 2.35 0 4.05-2 1.65-2 1.65-4.9 0-2.85-1.65-4.85z" id="n"/><path fill="#513F35" d="M63.95 108.75q4.9 0 9-2.15 3.2-1.7 4.5-3.7.7-1.05.35-1.7-.35-.65-1.45-.65H51.6q-1.1 0-1.45.65-.35.65.35 1.7 1.3 2 4.5 3.7 4.1 2.15 8.95 2.15z" id="o"/><path fill="#99674F" d="M58 90q-.65-.15-.9.3-.3.4-.05.9.7 1.15 2.4 2.2 2.2 1.35 4.55 1.35 2.35 0 4.5-1.35 1.7-1.05 2.4-2.2.25-.5 0-.9-.3-.45-.95-.3-3.15.9-5.95.9-2.85 0-6-.9z" id="p"/><path id="g" stroke="#99674F" stroke-opacity=".498" stroke-width="1.5" stroke-linejoin="round" stroke-linecap="round" fill="none" d="M27.794 30q7.959-1.912 15.862 0"/><path id="h" stroke="#99674F" stroke-opacity=".498" stroke-width="1.5" stroke-linejoin="round" stroke-linecap="round" fill="none" d="M26.894 35.134q8.83-2.109 17.634 0"/><path id="i" stroke="#99674F" stroke-opacity=".498" stroke-width="1.5" stroke-linejoin="round" stroke-linecap="round" fill="none" d="M28.35 52.194q-1.182.618-2.503 2.025-2.644 2.756-3.403 6.552"/><path id="j" stroke="#99674F" stroke-opacity=".498" stroke-width="1.5" stroke-linejoin="round" stroke-linecap="round" fill="none" d="M28.956 47.244q-.366.703-1.21 1.406-1.63 1.378-3.852 1.378"/><path id="k" stroke="#99674F" stroke-opacity=".498" stroke-width="1.5" stroke-linejoin="round" stroke-linecap="round" fill="none" d="M43.094 52.194q1.18.618 2.503 2.025 2.643 2.756 3.402 6.552"/><path id="l" stroke="#99674F" stroke-opacity=".498" stroke-width="1.5" stroke-linejoin="round" stroke-linecap="round" fill="none" d="M42.544 47.244q.365.703 1.18 1.406 1.66 1.378 3.882 1.378"/></defs><use xlink:href="#a" transform="scale(.56242)"/><use xlink:href="#b" transform="scale(.56242)"/><use xlink:href="#c" transform="rotate(.11) scale(.56244)"/><use xlink:href="#d" transform="rotate(.11) scale(.56244)"/><use xlink:href="#e"/><use xlink:href="#f"/><use xlink:href="#g" transform="matrix(1 0 0 1 .007 .02)"/><use xlink:href="#h" transform="matrix(1 0 0 1 .007 .007)"/><use xlink:href="#i" transform="matrix(1 0 0 1 .002 .026)"/><use xlink:href="#j" transform="matrix(1 0 0 1 .017 .026)"/><use xlink:href="#k" transform="matrix(1 0 0 1 .01 .026)"/><use xlink:href="#l" transform="matrix(1 0 0 1 .022 .026)"/><use xlink:href="#m" transform="rotate(.11) scale(.56244)"/><use xlink:href="#n" transform="rotate(.11) scale(.56244)"/><use xlink:href="#o" transform="rotate(.11) scale(.56244)"/><use xlink:href="#p" transform="rotate(.11) scale(.56244)"/></svg>