<svg xmlns="http://www.w3.org/2000/svg" xmlns:xlink="http://www.w3.org/1999/xlink" preserveAspectRatio="none" viewBox="0 0 72 72"><defs><path id="c" fill="#2F2F2F" d="M55.45 36.45q-.7-2.25-2.05-3.6-1.9-1.6-3.9-1.1-2.15.55-3.85 4.5-1.75 3.9-3.1 5.55 0 .05-1.5 2.5-.75 1.25-2 1.3.9.45 2 .55 1 .15 1.9.55 1.2.65 1.95.9 1.8.5 3.2.05 1.3-.4 2.7-1.8 3-3 4.4-6.15.5-1.1.55-1.7.05-.55-.3-1.55z"/><path id="d" fill="#D7598B" d="M29.2 68.45q.2.35.6.95.9 1 2.4 1.9.363.22.7.4.363.168.7.3h2.8l3.35-5.65q2.3-3.9 2.7-6 .35-2.45-1.65-3.65-2-1.2-4.05.4-1.6 1.3-3.9 5.2l-3.65 6.15z"/><path id="e" fill="#D7598B" d="M81.35 68.75q4.45.5 6.4-3.15 1.95-3.7-1.05-7.1-2.45-2.8-9.5-6.6l-11.3-5.95q-.6.3-1.55 1.1-1.8 1.7-3.25 4.4-1.35 2.6-1.75 5.1-.2 1.25-.1 1.95l11.25 6q7.1 3.75 10.85 4.25z"/><path id="f" fill="#D7598B" d="M81.35 68.75q4.45.5 6.4-3.15 1.95-3.7-1.05-7.1-2.45-2.8-9.5-6.6l-11.3-5.95q-.6.3-1.55 1.1-1.8 1.7-3.25 4.4-1.35 2.6-1.75 5.1-.2 1.25-.1 1.95l11.25 6q7.1 3.75 10.85 4.25z"/><path id="g" fill="#D7598B" d="M81.35 68.75q4.45.5 6.4-3.15 1.95-3.7-1.05-7.1-2.45-2.8-9.5-6.6l-11.3-5.95q-.6.3-1.55 1.1-1.8 1.7-3.25 4.4-1.35 2.6-1.75 5.1-.2 1.25-.1 1.95l11.25 6q7.1 3.75 10.85 4.25z"/><path id="h" fill="#D7598B" d="M46.45 48.15q1 0 2.15-.4 2.35-.9 4.5-3.75 2-2.7 1.75-4.1-.05.4-1.7 2.25-.2.15-2.75 2.8.55-.6 1.25-3.4.65-2.8.55-4-1.55 4-4.7 6.7 3.15-6 2-10.2-1.5 4.1-4.65 6.8 1.7-1.9 1.75-4.6-2.05 4.85-7.25 8.3-.35.25-1.35.25-.95.05-1.5-.1.4.5 2.1 1.2.9.4 2.45 1.05 2.25 1.1 5.4 1.2z"/><path id="b" fill="none" stroke="#7A4C32" stroke-linecap="round" stroke-linejoin="round" stroke-width="1" d="M34.7 41.8l-.2.35"/><path id="i" fill="none" stroke="#7A4C32" stroke-linecap="round" stroke-linejoin="round" stroke-width="1" d="M41.574 57.692l-8.162 13.677m1.053-29.236L17.153 71.114M21.202 37L4.336 66.778"/><g id="a"><path fill="#AD6F43" d="M45.65 45.65q-.8-2.8-3.3-4.2-2.55-1.4-5.35-.55-1.5.35-2.5 1.25-.05 0-.15.1l.35-.45.2-.45q1.05-2.05.85-4.15-.1-.6-.25-1.2-.8-2.85-3.3-4.25-2.55-1.4-5.35-.55-2.8.75-4.2 3.3l-1.4 2.45q.443-1.774-.1-3.65-.8-2.8-3.3-4.2-2.55-1.4-5.35-.6-2.8.8-4.2 3.35l-3.2 5.7-.4.6-4.7 8.4v25.5l48.85.1 2.95-5.3q1.4-2.55.6-5.35-.8-2.8-3.3-4.2l-.6-.3q-2.25-1.05-4.75-.3-1.2.3-2.2 1l-.5.4L45 51.05q1.4-2.55.65-5.4z"/><path fill="#F48120" d="M52.25 18.65q.75.6 2 1.35 1.2.65 2.2.95.95.35 1.1.1l5.1-9.05-6.05-3.15-4.95 8.85q-.15.25.6.95M72 9.4V0H53.6L51 5.05l18.25 9.55L72 9.4z"/><path fill="#2F2F2F" d="M72 11.05V9.4l-2.75 5.2L51 5.05 53.6 0h-.85L50.1 5.05q-.1.1 0 .25.05.2.2.25l6.3 3.3L62.65 12l6.6 3.45q.1.1.25.05.2-.1.25-.2L72 11.05z"/></g></defs><g><use xlink:href="#a"/><use xlink:href="#b"/></g><use transform="matrix(.78824 0 0 .78824 13.05 -6.95)" xlink:href="#c"/><use transform="matrix(1.27528 0 0 1.27528 0 -19.75)" xlink:href="#d"/><use transform="matrix(.0319 -.71648 .71648 .0319 -4.55 97.3)" xlink:href="#e"/><use transform="matrix(.0319 -.71648 .71648 .0319 -14.7 87.65)" xlink:href="#f"/><use transform="matrix(.0319 -.71648 .71648 .0319 -29.05 84.95)" xlink:href="#g"/><use transform="matrix(.78824 0 0 .78824 13.05 -6.95)" xlink:href="#h"/><use transform="matrix(1 0 0 1 0 -.047)" xlink:href="#i"/></svg>