<svg xmlns="http://www.w3.org/2000/svg" xmlns:xlink="http://www.w3.org/1999/xlink" preserveAspectRatio="none" viewBox="0 0 72 72"><defs><path id="b" fill="#E0E0E0" d="M16.9 49.5Q4.15 62.3 4.15 80.3q0 18.05 12.75 30.8 12.75 12.7 30.8 12.7 18 0 30.8-12.7 12.75-12.75 12.75-30.8 0-18-12.75-30.8-12.8-12.75-30.8-12.75-18.05 0-30.8 12.75m-5.05 30.8q0-14.85 10.5-25.3 10.5-10.5 25.35-10.5Q62.55 44.5 73 55q10.5 10.45 10.5 25.3 0 14.85-10.5 25.35-10.45 10.5-25.3 10.5-14.85 0-25.35-10.5-10.5-10.5-10.5-25.35z"/><path id="c" fill="#E1F5FE" d="M91.75 13.3l.75-11.5-17.45 3.6 16.7 7.9z"/><path id="d" fill="#81D4FA" d="M82.9 29.35l8.85-16.05-16.7-7.9 7.85 23.95z"/><path id="e" fill="#64B5F6" d="M100.8 27.25L91.75 13.3 82.9 29.35l17.9-2.1z"/><path id="f" fill="#0288D1" d="M114.7 36.25l7.9 16.7 3.6-17.45-11.5.75z"/><path id="g" fill="#81D4FA" d="M114.7 36.25L98.65 45.1l23.95 7.85-7.9-16.7z"/><path id="h" fill="#E1F5FE" d="M114.7 36.25l-13.9-9-2.15 17.85 16.05-8.85z"/><path id="i" fill="#B2EBF2" d="M98.65 45.1l2.15-17.85-17.9 2.1L98.65 45.1z"/><path id="j" fill="#B3E5FC" d="M126.2 35.5l-4.05-13.05-16.6-16.6L92.5 1.8l-.75 11.5 9.05 13.95 13.9 9 11.5-.75z"/><path id="k" fill="#1E88E5" d="M75.05 5.4l.25 47.3 7.6-23.35L75.05 5.4z"/><path id="l" fill="#B3E5FC" d="M122.6 52.95L98.65 45.1 75.3 52.7l47.3.25z"/><path id="m" fill="#E1F5FE" d="M98.65 45.1L82.9 29.35 75.3 52.7l23.35-7.6z"/><path id="n" fill="#BDBDBD" d="M14.5 51.9Q1.8 64.65 1.8 82.7q0 18 12.7 30.8 12.75 12.7 30.8 12.7t30.8-12.7q12.75-12.75 12.75-30.8T76.1 51.9Q63.35 39.15 45.3 39.15T14.5 51.9m-5 30.8q0-14.85 10.5-25.35 10.45-10.5 25.3-10.5 14.85 0 25.35 10.5 10.5 10.5 10.5 25.35 0 14.85-10.5 25.35-10.5 10.45-25.35 10.45-14.85 0-25.3-10.5Q9.5 97.55 9.5 82.7z"/><path id="o" fill="#BDBDBD" d="M96.45 53.6q.35-.45.4-.8l-20.6-1.05-1.05 1.05 3.7 4.25 6.6-.85q6.9-.9 8.5-1.3 1.7-.4 2.45-1.3z"/><path id="p" fill="#BDBDBD" d="M73.1 34q-.6 2.6-2.15 15.05l4.25 3.75 1.05-1.05-1.05-20.6q-.35.05-.8.4-.9.75-1.3 2.45z"/><path id="a" fill="none" stroke="#FFF" stroke-linecap="round" stroke-linejoin="round" stroke-width="2.5" d="M18.636 41.344q-1.14 2.715-1.408 5.664-.251 2.932.386 5.78m5.06-17.426q-1.324 1.324-2.33 2.832"/></defs><use transform="matrix(1 0 0 1 .003 .025)" xlink:href="#a"/><use transform="rotate(-45 40.187 26.404) scale(.47392)" xlink:href="#b"/><use transform="rotate(-45 40.187 26.404) scale(.47392)" xlink:href="#c"/><use transform="rotate(-45 40.187 26.404) scale(.47392)" xlink:href="#d"/><use transform="rotate(-45 40.187 26.404) scale(.47392)" xlink:href="#e"/><use transform="rotate(-45 40.187 26.404) scale(.47392)" xlink:href="#f"/><use transform="rotate(-45 40.187 26.404) scale(.47392)" xlink:href="#g"/><use transform="rotate(-45 40.187 26.404) scale(.47392)" xlink:href="#h"/><use transform="rotate(-45 40.187 26.404) scale(.47392)" xlink:href="#i"/><use transform="rotate(-45 40.187 26.404) scale(.47392)" xlink:href="#j"/><use transform="rotate(-45 40.187 26.404) scale(.47392)" xlink:href="#k"/><use transform="rotate(-45 40.187 26.404) scale(.47392)" xlink:href="#l"/><use transform="rotate(-45 40.187 26.404) scale(.47392)" xlink:href="#m"/><use transform="rotate(-45 40.187 26.404) scale(.47392)" xlink:href="#n"/><use transform="rotate(-45 40.187 26.404) scale(.47392)" xlink:href="#o"/><use transform="rotate(-45 40.187 26.404) scale(.47392)" xlink:href="#p"/></svg>