<svg xmlns="http://www.w3.org/2000/svg" xmlns:xlink="http://www.w3.org/1999/xlink" preserveAspectRatio="none" viewBox="0 0 72 72"><defs><path fill="#47352D" d="M60 41.9q1.5-8.65 1.5-22.7H35.6l.25 8.7q.5 9.55 1.75 14.1.85 3.05 1.85 3.95 1.3 1.15 3.35-.4l11.45-.1q2.15 1.6 3.75.45 1.5-1.1 2-4z" id="a"/><path fill="#AD6F43" d="M24.25 21.7q-1.05.45-1.9 1.1-.4.3-.6.5l3.3 5.2q4.6.2 8.6-1.25 2-.75 3.1-1.55l-.65-5.45q-.95.6-2.25.8-1.15.15-2 0-4.25-.8-7.6.65z" id="b"/><path fill="#AD6F43" d="M73.6 30.35q-.45 1.45.25 2.85.7 1.35 2.2 1.85 1.45.5 2.85-.2 1.35-.75 1.8-2.2.5-1.45-.2-2.85-.75-1.35-2.2-1.85-1.45-.5-2.85.25-1.35.7-1.85 2.15z" id="c"/><path fill="#AD6F43" d="M63.65 45.45q.75.05 2-.4 1.2-.45 1.85-.95 4.5-3.5 11.95-9.65l-4.6-5.8-1.65 1.15q-1.95 1.5-7.55 4.95l-5.2 3.15 1.3 3.8q1.35 3.75 1.9 3.75z" id="d"/><path fill="#AD6F43" d="M76.9 22.25q-2.9-5-3.7-6.95-.5-1.4-1.15-1.6-.6-.2-2.05.5-1.45.6-1.7.95-.45.5-.05 1.65l3.35 10.25q.9 2.7 1.55 5.95l7.5-2.8q-1.15-3.55-3.75-7.95z" id="e"/><path fill="#AD6F43" d="M72.95 10.55q-.7.15-1.35.7l-3.05 2.7q-1.3 1.15-.4 2.55.9 1.35 2.3.5 1.7-.95 4.05-3.25L76.2 12q2-1.95 3.35-2.95.35-.25.2-.75-.15-.5-.65-.45-.95.2-3.1 1.75l-1.95 1.55q-.25-.75-1.1-.6z" id="f"/><path fill="#FBC11B" d="M25.25 55.85q-.25 1.5.6 2.8.9 1.25 2.4 1.55 1.55.25 2.8-.6 1.25-.85 1.55-2.4.25-1.5-.6-2.75-.85-1.3-2.4-1.6-1.5-.25-2.75.6-1.3.85-1.6 2.4z" id="g"/><path fill="#AD6F43" d="M42.95 44.45q-1.85-3.55-2.35-3.5-.8.05-1.95.7-1.1.55-1.7 1.15-5.35 5.45-10.65 11.1l5.35 5.15 1.45-1.35q2.85-2.75 11.6-9.65-.8-1.8-1.75-3.6z" id="h"/><path fill="#AD6F43" d="M32.75 64.7q4.65 3.35 6.15 4.75.9.95 2.35.45.7-.2 1.25-.65 1.05-1.2 1.15-1.55.2-.65-.65-1.6l-7.3-7.9q-2.45-2.8-3.85-4.8l-5.65 5.65q2.5 2.75 6.55 5.65z" id="i"/><path fill="#AD6F43" d="M38.75 79.25q.65-.7 1.45-3.2l.65-2.4q.7.45 1.3-.2.45-.5.65-1.35l.85-3.95q.35-1.7-1.15-2.3-1.55-.6-2.2.9-.65 1.45-1.35 5.05l-.3 2.45Q38.2 77 37.7 78.6q-.1.45.3.7.4.3.75-.05z" id="j"/><path fill="#DD2C00" d="M59.7 41.2q-1.2-1.45-2.9-3.15l-1.45-1.4H54.2q1.75 2.05 2.95 6.05 1.45 4.85-.95 5.95-2.25 1.05-7.2-4.8l-4.5-6.1-1.45.4q-2.35.8-4.9 2.75-2.25 1.75-2.2 2.15 0 .15 4.2 4.9 4.65 5.3 6 7.15 1 1.2 1.75 3.3 1.05 2.8.5 4.95Q44.75 71 46.05 75.9q.35 1.35 1.5 3.5 1 1.95 1.2 3.05.95 4.85-2.35 14.25-4.2 11.85-12.5 17.15l12.25 2.9 8.65-7.45 11.9-1.75 4.2-8.65-2.55-15.7 2.55-2.85 8.75-.7q1.35.15-3-4.4-4.4-4.65-7.7-6.55-4.85-2.85-5.8-9.7-.3-2.05.75-4.75 1.25-3.2 1.35-4.5.25-3.25-1.85-5.4-2.7-2-3.7-3.15z" id="k"/><path fill="#DD2C00" d="M58.7 36.8q-1.85-.2-3.35-.2 2.35 2.6 3.7 5.6 2.05 4.55 4.15 5.2.9.3 3.05-1.1 2.05-1.35 2.05-1.85.1-1.65-1.45-4.1-1.55-2.35-3.1-3.55-1.1-.65-1.45-.55-2.05.6-3.6.55z" id="l"/><path fill="#47352D" d="M49.4 30.8q5.35-.4 8.9-4.1 3.5-3.65 3.15-8.45-.35-4.8-4.4-7.9-4-3.1-9.35-2.75-5.35.4-8.9 4.1-3.5 3.65-3.15 8.45.4 4.85 4.4 7.95 4 3.1 9.35 2.7z" id="m"/><path fill="#7A4C32" d="M28.2 22.9q.85-.05 1.35-.6.5-.6.45-1.4l-.15-1.9-3.85.25.15 1.95q.05.8.65 1.25.6.5 1.4.45z" id="n"/><path fill="#7A4C32" d="M28.95 18l-2.15.15q-.4.05-.6.4-.25.35-.2.75l.15 1.9.5.05q.7.1 1.45.05 1.2-.1 1.9-.45L29.85 19q-.05-.45-.3-.7-.25-.35-.6-.3z" id="o"/><path fill="#AD6F43" d="M56.15 13.95Q53.45 10 47.9 10.4q-5.6.4-7.65 4.75Q38.45 18.8 39 25.9q.45 5.8 4.25 8.65 2.95 2.2 6.6 1.9 3.65-.3 6.25-2.9 3.35-3.35 2.9-9.15-.55-7.1-2.85-10.45z" id="p"/><path fill="#47352D" d="M51.45 16.95q.05-.1.15-.05.1 0 .15.1 1.8 3.05 5 5 1.6 1 2.85 1.35l-.7-9.55q-.9-1.5-2.75-3-3.65-2.9-8.3-2.55-4.7.4-7.9 3.75l-2.25 3.25.75 9.65q4.55-1.1 8.8-4.2 2.4-1.8 4.2-3.75z" id="q"/><path fill="#444" d="M45.7 26q-.05-.7-.5-1.15-.45-.45-1-.4-.55.05-.95.55-.35.55-.3 1.2.05.65.5 1.15.45.45 1 .4.55-.05.95-.55.35-.5.3-1.2z" id="r"/><path fill="#444" d="M29.65 13.65q-.2.3-.15.7.05.4.25.65.25.25.55.2.35 0 .55-.3.2-.25.15-.65 0-.4-.25-.65t-.55-.25q-.35.05-.55.3z" id="s"/><path fill="#444" d="M52.8 31.25q-.1-.2-.35-.15l-5.95.45q-.65 0-.2.6.35.45 1.15.8 1 .4 2.15.35 1.15-.1 2.1-.7.75-.45 1-.95.2-.25.1-.4z" id="t"/><path fill="#7A4C32" d="M50.95 28.95q.1-.35-.25-.25-.75.3-1.4.3-.6.05-1.45-.1-.15-.05-.2.1-.1.1 0 .2.65.8 1.7.7 1.15-.05 1.6-.95z" id="u"/><path fill="#B42002" d="M88.6 66.7q-2.8-.35-4.8.1-3.55.85-4.05 4.05-.3 1.85-1.4 2.8-.35.3-2.65 1.5-.3.2-3.3.5-2.55.3-5 2.5-2.15 1.95-1.85 5.95.15 1.9 1.25 5.9 1.35 4.75.35 10.05-1.05 5.8-4.25 5.75-1.2 0-4.45-1.7-2.8-1.5-4.3-.95-2.55 1-4.6 5.2-2.1 4.35-3.9 5.25-1.55.8-10.8-.45-7.85-1-9.3 2.6-.5 1.2.15 2.7.6 1.35 1.85 2.15 4.25 2.75 8.2 2.2 2.25-.35 6.65-1.1.1 0 4.2 1.05 3.15.8 4.8.15 1.3-.5 3.1-2.85 1.85-2.4 2.5-2.75 1.8-.9 7.1.1 5.1.9 6.25.05 1.9-1.4 4.4-1.15 3.15.25 3.2.25 1.2-.3 1.85-1.65.6-1.2.5-2.6-.2-2.4-.05-3.6.25-2.45 1.7-3.8.6-.55 2.5-1.15 1.75-.6 2.95-2.05.75-.9 1.25-2.9.5-1.9 1.4-2.8.7-.7 2.7-.9 1.2-.15 4-.3 2.7-.2 4.15-1.45.95-.75 1.25-1.85.4-1.15-.1-2.15-.85-1.7-.95-1.95-.35-1.05.05-1.95.75-1 1.2-2 .85-1.9.3-3.65-.55-1.7-2.8-2.05-2.5-.35-2.95-1-.4-.6-.5-2.3-.15-2.1-.4-3-1.15-3.85-7.4-4.75z" id="v"/><path fill="#DD2C00" d="M36.35 42.45L35.1 43.7q-.45.35-.5.75 0 .25.2.65 1.7 3.3 5.55 6.4.45.35.75.4.35.1 2.3-1.4.4-.45-.15-1.35-1.55-3-2.8-4.35-2.05-2.25-4.1-2.35z" id="w"/><path fill="#B42002" d="M96.05 119.8q-1.65-1.2-4.6-3.05-2.8-1.75-2.9-1.7-.95.35-1.35.75-.9.85-.9 2.35t.35 2.8q.55 1.75.75 3.7H89q.05-.45.3-.45.25.05.5.5.5 1 1.05 1.3 2.9 1.6 7.1 1.95 3.6.25 3.95-.2.25-.3.15-1.05-.1-.65-.3-1.05-.65-1.25-2.6-3.2-1.85-1.85-3.1-2.65z" id="x"/><path fill="#AD6F43" d="M84.15 91.5q-.6-1.3-2.35-1.05-1.45.2-3.15 1.3-2 1.25-2.5 2-.85 1.2.1 2.7.85 1.3 6 8.1 4.2 5.6 5.5 8.35.25.5 1.3 3.95.75 2.35 1.9 3.6 1.4 1.6 2.75 1.8 2.85.5 3.1-1.05.1-.55-.2-1.7-.25-.95-.55-1.65l-2.7-6.3Q89 101.4 84.15 91.5z" id="y"/><path fill="#B42002" d="M2.25 0q-.05.05.1 1.95Q2.5 4.3 2.2 6.1 2 7.1.85 10.35-.1 13.05.1 13.2q.35.25 1.8-2.3 1.6-2.85 1.95-5.3.2-1.35-.4-3.55Q2.8-.2 2.25 0z" id="A"/><path fill="#B42002" d="M.7.05Q.65.1 1 2.15q.4 2.65.3 4.65-.05 1.2-.8 4.85-.65 3.05-.45 3.2.4.2 1.55-2.7 1.3-3.3 1.35-6.05 0-1.5-.9-3.9Q1.2-.2.7.05z" id="B"/><path fill="#7F1301" d="M54.1 117.45q-1.55-2.4-3.15-2.4-1.6 0-3.25 2.4-1.45 2.15-1.8 4.3-.1.35-.1 1.7 0 .7 5.05.7 5 0 5-.75 0-1.45-.05-1.65-.35-2.2-1.7-4.3z" id="C"/><path fill="#7F1301" d="M48.1 121.85q-1.8.7-2.25 1.4-.15.3.15.7.35.45.85.45h4v-3.25q-1.05 0-2.75.7z" id="D"/><path fill="#7F1301" d="M55.8 123.25q-.45-.7-2.25-1.4-1.7-.7-2.75-.7v3.25h4.05q.5 0 .85-.45.3-.4.1-.7z" id="E"/><path fill="#7A4C32" d="M32 61.8q.25-.8-1.5-1-1.75-.2-1.9.45-.1.4-.55 1.9-.35 1.45-.5 2.15-.25.8.05 1.2.25.4 1.15.5.75.15 1.1-.25.35-.3.6-1.1L32 61.8z" id="F"/><filter id="z" x="-20%" y="-20%" width="140%" height="140%" color-interpolation-filters="sRGB"><feColorMatrix in="SourceGraphic" values="1 0 0 0 0 0 1 0 0 0 0 0 1 0 0 0 0 0 0.5 0" result="result1"/></filter></defs><use xlink:href="#a" transform="scale(.5625)"/><use xlink:href="#b"/><use xlink:href="#c" transform="scale(.5625)"/><use xlink:href="#d" transform="scale(.5625)"/><use xlink:href="#e" transform="scale(.5625)"/><use xlink:href="#f" transform="scale(.5625)"/><use xlink:href="#g" transform="scale(.5625)"/><use xlink:href="#h" transform="scale(.5625)"/><use xlink:href="#i" transform="scale(.5625)"/><use xlink:href="#j" transform="scale(.5625)"/><use xlink:href="#k" transform="scale(.5625)"/><use xlink:href="#l" transform="scale(.5625)"/><use xlink:href="#m" transform="scale(.5625)"/><use xlink:href="#n"/><use xlink:href="#o"/><use xlink:href="#p" transform="scale(.5625)"/><use xlink:href="#q" transform="scale(.5625)"/><use xlink:href="#r" transform="scale(.5625)"/><use xlink:href="#s"/><use xlink:href="#t" transform="scale(.5625)"/><use xlink:href="#u" transform="scale(.5625)"/><use xlink:href="#v" transform="scale(.5625)"/><use xlink:href="#w" transform="scale(.5625)"/><use xlink:href="#x" transform="scale(.5625)"/><use xlink:href="#y" transform="scale(.5625)"/><use filter="url(#z)" xlink:href="#A" transform="translate(27.1 48.6) scale(.5625)"/><use filter="url(#z)" xlink:href="#B" transform="translate(34.3 49.2) scale(.5625)"/><use xlink:href="#C" transform="scale(.5625)"/><use xlink:href="#D" transform="scale(.5625)"/><use xlink:href="#E" transform="scale(.5625)"/><use xlink:href="#F"/></svg>