<svg xmlns="http://www.w3.org/2000/svg" xmlns:xlink="http://www.w3.org/1999/xlink" preserveAspectRatio="none" viewBox="0 0 72 72"><defs><path fill="#E1F5FE" d="M42.3 29.85L44.15 1.8l-42.5 8.7L42.3 29.85z" id="a"/><path fill="#81D4FA" d="M20.75 68.95l21.55-39.1L1.65 10.5l19.1 58.45z" id="b"/><path fill="#64B5F6" d="M20.75 68.95l43.55-5.2-22-33.9-21.55 39.1z" id="c"/><path fill="#0288D1" d="M126.2 83.85L98.15 85.7l19.35 40.65 8.7-42.5z" id="d"/><path fill="#81D4FA" d="M98.15 85.7l-39.1 21.55 58.45 19.1L98.15 85.7z" id="e"/><path fill="#E1F5FE" d="M64.3 63.75l-5.25 43.5 39.1-21.55L64.3 63.75z" id="f"/><path fill="#B2EBF2" d="M64.3 63.75l-43.55 5.2 38.3 38.3 5.25-43.5z" id="g"/><path fill="#B3E5FC" d="M98.15 85.7l28.05-1.85-9.8-31.8L75.9 11.6 44.15 1.8 42.3 29.85l22 33.9L98.15 85.7z" id="h"/><path fill="#1E88E5" d="M20.75 68.95L1.65 10.5l.55 115.3 18.55-56.85z" id="i"/><path fill="#B3E5FC" d="M59.05 107.25L2.2 125.8l115.3.55-58.45-19.1z" id="j"/><path fill="#E1F5FE" d="M2.2 125.8l56.85-18.55-38.3-38.3L2.2 125.8z" id="k"/></defs><use xlink:href="#a" transform="rotate(-45 31.488 16.507) scale(.42459)"/><use xlink:href="#b" transform="rotate(-45 31.488 16.507) scale(.42459)"/><use xlink:href="#c" transform="rotate(-45 31.488 16.507) scale(.42459)"/><use xlink:href="#d" transform="rotate(-45 31.488 16.507) scale(.42459)"/><use xlink:href="#e" transform="rotate(-45 31.488 16.507) scale(.42459)"/><use xlink:href="#f" transform="rotate(-45 31.488 16.507) scale(.42459)"/><use xlink:href="#g" transform="rotate(-45 31.488 16.507) scale(.42459)"/><use xlink:href="#h" transform="rotate(-45 31.488 16.507) scale(.42459)"/><use xlink:href="#i" transform="rotate(-45 31.488 16.507) scale(.42459)"/><use xlink:href="#j" transform="rotate(-45 31.488 16.507) scale(.42459)"/><use xlink:href="#k" transform="rotate(-45 31.488 16.507) scale(.42459)"/></svg>