<svg xmlns="http://www.w3.org/2000/svg" xmlns:xlink="http://www.w3.org/1999/xlink" preserveAspectRatio="none" viewBox="0 0 72 72"><defs><path fill="#40C0E7" d="M90.95 43.65q4.25-4.35 5.85-10.3 1.65-5.95.2-11.9-1.35-5.6-5.05-9.65-3.7-4.05-9.15-5.85-2.1-.75-5.25-1.35-2.85-.5-6.1-.5-9.6 0-18.6 5.05-9 5-16.25 14.45-2.4 3.15-4.65 6.85l-.1.15-.1.1-4.9 8.35q-2.75 5-3.9 7.55-4.05 9.35-6.7 17.6l-.15.4q-1.2 3.9-1.5 5.8-.5 3.45.8 5.3.75.95 2.45.95 1.6 0 3.95-.9 3.75-1.6 10.45-6.1 5-3.35 7.15-4.55 6.85-3.85 18.2-7.6l9.3-2.4q8.6-2.25 12.65-3.9 6.9-2.9 11.4-7.55z" id="a"/><path fill="#40C0E7" d="M107.15 92.2q-1.55-1.7-2.8-2.8-7.6-6.45-18-6.45-10.85 0-22.85 6.75l-1.6.75q-8.8 4.45-16.6 11.95-2.55 2.45-3.7 3.9-1.85 2.4-2.05 4.45-.1 1.35.35 1.65.85.95 4.05.95l2.65-.1q2.35-.2 6.7-.3h.45q1.3.1 1.7.1h1.05l.35-.05h.3l4.25.35q1.75.3 4.75.95 2.05.55 3.4.75l9.1 2.55q4.45 1.25 6.5 1.7 3.85.8 7 .8t6-.75q4.3-1.15 7.6-4.35 3.3-3.2 4.6-7.5 1.25-4.05.45-8.1-.85-3.95-3.65-7.2z" id="b"/><path fill="#40C0E7" d="M107.15 92.2q-1.55-1.7-2.8-2.8-7.6-6.45-18-6.45-10.85 0-22.85 6.75l-1.6.75q-8.8 4.45-16.6 11.95-2.55 2.45-3.7 3.9-1.85 2.4-2.05 4.45-.1 1.35.35 1.65.85.95 4.05.95l2.65-.1q2.35-.2 6.7-.3h.45q1.3.1 1.7.1h1.05l.35-.05h.3l4.25.35q1.75.3 4.75.95 2.05.55 3.4.75l9.1 2.55q4.45 1.25 6.5 1.7 3.85.8 7 .8t6-.75q4.3-1.15 7.6-4.35 3.3-3.2 4.6-7.5 1.25-4.05.45-8.1-.85-3.95-3.65-7.2z" id="c"/></defs><use xlink:href="#a" transform="rotate(61.501 38.275 34.975) scale(.50784)"/><use xlink:href="#b" transform="matrix(.00005 .65813 -.65813 .00005 83.85 -5.45)"/><use xlink:href="#c" transform="rotate(64.5 45.94 55.604) scale(.53459)"/></svg>