<svg xmlns="http://www.w3.org/2000/svg" xmlns:xlink="http://www.w3.org/1999/xlink" preserveAspectRatio="none" viewBox="0 0 72 72"><defs><path fill="#865D53" d="M53 20.35q-.75-3.25-3.55-4.9-2-1.2-6.05-1.9-2.25-.45-3.4-.8-2.8-.95-3.95-2.6-.9-1.25-1.4-3.8-.35-2.55-.55-3.1-.6-1.55-3.55.4-1.65 1.15-3.75 3.6-2.45 2.95-3.5 5.7-1.5 4.1-.7 7.8-1.85.3-3.5 1.05l-.3.1q-1.65.7-3.3 2.85-2.1 2.75-2.3 6.05-.2 2.7.65 5.25-9.826 3.603-8 14.05-3.543 1.132-4.25 6.95-.652 5.868 2.25 8.15 2.941 2.33 17.65 3.45 14.773 1.11 29.55-.2 14.818-1.304 17.3-3.8 2.54-2.45 2.55-5.8-.001-6.52-6.25-8.55 3.132-8.559-5.1-13.65 1.1-4.05-2.05-7.5-1.6-1.75-3.6-2.65l-1.65-.5q1.45-2.75.75-5.65z" id="a"/><path fill="#FFF" d="M30.65 55.55Q26.5 60.75 27 67.6q.5 6.85 5.4 11.4 4.9 4.5 11.3 4t10.55-5.7q4.2-5.2 3.65-12.05-.5-6.85-5.4-11.35-4.9-4.55-11.3-4.05t-10.55 5.7z" id="b"/><path fill="#2F2F2F" d="M38.15 62.25q-1.55 2-1.25 4.45.3 2.45 2.25 3.95 2 1.55 4.5 1.2 2.5-.3 4.1-2.25 1.55-1.95 1.25-4.45-.3-2.45-2.3-4-1.95-1.5-4.45-1.2-2.5.35-4.1 2.3z" id="c"/><path fill="#FFF" d="M30.65 55.55Q26.5 60.75 27 67.6q.5 6.85 5.4 11.4 4.9 4.5 11.3 4t10.55-5.7q4.2-5.2 3.65-12.05-.5-6.85-5.4-11.35-4.9-4.55-11.3-4.05t-10.55 5.7z" id="d"/><path fill="#2F2F2F" d="M38.15 62.25q-1.55 2-1.25 4.45.3 2.45 2.25 3.95 2 1.55 4.5 1.2 2.5-.3 4.1-2.25 1.55-1.95 1.25-4.45-.3-2.45-2.3-4-1.95-1.5-4.45-1.2-2.5.35-4.1 2.3z" id="e"/><path fill="#ED6D31" d="M87.3 89.5q-1.45-.95-3.65-.75-.65.05-3.8.75Q72.7 90.95 64 90.95q-8.75 0-15.9-1.45-3.15-.7-3.8-.75-2.2-.2-3.65.75-2.1 1.4-.9 5.65 1.2 4.15 4.6 7.7 2.95 3.1 6.85 5.15 5.85 3.05 12.8 3.05 6.95 0 12.75-3.05 3.9-2 6.9-5.15 3.35-3.55 4.55-7.7 1.2-4.25-.9-5.65z" id="f"/></defs><use xlink:href="#a"/><use xlink:href="#b" transform="matrix(.52425 0 0 .56248 2 0)"/><use xlink:href="#c" transform="matrix(.7423 0 0 .98233 -7.6 -27.55)"/><use xlink:href="#d" transform="matrix(.52425 0 0 .56248 25.55 0)"/><use xlink:href="#e" transform="matrix(.7423 0 0 .98233 15.95 -27.55)"/><use xlink:href="#f" transform="scale(.56248)"/></svg>