<svg xmlns="http://www.w3.org/2000/svg" xmlns:xlink="http://www.w3.org/1999/xlink" preserveAspectRatio="none" viewBox="0 0 72 72"><defs><path fill="#B0BEC5" d="M64.05 8.4q-.95-.95-2.25-.95H10.25Q8.9 7.45 8 8.4q-.95.95-.95 2.3v34.2q0 1.35.95 2.3.9.95 2.25.95H61.8q1.3 0 2.25-.95t.95-2.3V10.7q0-1.35-.95-2.3z" id="a"/><path fill="#78909C" d="M60.8 14.55q0-1-.7-1.7-.75-.75-1.75-.75H13.7q-1 0-1.7.75-.75.7-.75 1.7V37.4q0 1 .75 1.75.7.7 1.7.7h44.65q1 0 1.75-.7.7-.75.7-1.75V14.55z" id="b"/><path fill="#FFF" d="M7.1 2.45q-1.65.05-2.85 1.3Q2.95 5 2.95 6.8v40.6q0 1.8 1.3 3.1 1.2 1.2 2.85 1.25h22.05L44.7 2.45H7.1z" id="c"/><path fill="#90A4AE" d="M64.5 47.25q-.5-.4-1.1-.4H8.6q-.6 0-1.1.4-.5.4-.6 1l-3.15 15.9q-.1.6.25 1 .3.4.85.4h62.3q.55 0 .9-.4.3-.4.2-1l-3.15-15.9q-.15-.6-.6-1z" id="d"/><path fill="#FFF" d="M17.3 106.05q.55.55 1.35.55h68.4q.85 0 1.4-.55.55-.55.55-1.4 0-.8-.55-1.35-.6-.6-1.4-.6h-68.4q-.8 0-1.35.6-.6.55-.6 1.35t.6 1.4z" id="e"/><path fill="#FFF" d="M15.4 64.9q.3.3.75.3H56.7q.5 0 .8-.3.3-.3.3-.75t-.3-.8q-.3-.3-.75-.3h-40.6q-.45 0-.8.3-.3.35-.3.8 0 .45.35.75z" id="f"/><path fill="#78909C" d="M60.1 12.85q-.75-.75-1.75-.75H13.7q-1 0-1.7.75-.75.7-.75 1.7V37.4q0 1 .75 1.75.7.7 1.7.7h44.65q1 0 1.75-.7.7-.75.7-1.75V14.55q0-1-.7-1.7m-1.85 1.8V37.3H13.8V14.65h44.45z" id="g"/></defs><use xlink:href="#a" transform="translate(0 -1)"/><use xlink:href="#b" transform="translate(0 -1)"/><use xlink:href="#c" transform="translate(9.6 9.75) scale(.5625)"/><use xlink:href="#d"/><use xlink:href="#e" transform="matrix(.7153 0 0 .73856 -1.6 -24.9)"/><g transform="matrix(1.27165 0 0 1.31299 -10.1 -24.9)"><use xlink:href="#f"/></g><g transform="translate(0 -1)"><use xlink:href="#g"/></g></svg>