<svg xmlns="http://www.w3.org/2000/svg" xmlns:xlink="http://www.w3.org/1999/xlink" preserveAspectRatio="none" viewBox="0 0 72 72"><defs><path fill="#007DB6" d="M72 6.75Q72 4 70 2t-4.75-2H6.75Q3.95 0 2 2 0 4 0 6.75v58.5q0 2.8 2 4.8Q3.95 72 6.75 72h58.5Q68 72 70 70.05q2-2 2-4.8V6.75z" id="a"/><path fill="#004D80" d="M72 6.75q0-2.8-2-4.75L1.95 70.05Q3.9 72 6.75 72h58.5Q68 72 70 70.05q2-2 2-4.8V6.75z" id="b"/><path fill="#006CA2" d="M63 16.25q0-2.8-1.95-4.75-2-2-4.8-2h-40.6q-2.75 0-4.75 2-2 1.95-2 4.75V56.8q0 2.8 2 4.8 2 1.95 4.75 1.95h40.6q2.8 0 4.8-1.95 1.95-2 1.95-4.8V16.25z" id="c"/><path fill="#FFF" d="M114.3 23.5q.45-7.1-4.3-11.85-5.95-5.95-13.35-5.95-6.85 0-14.1 4.85-6.05 5-6.25 5.2-.35.45-.1.95l4.9 8 .6.35.65-.2q.05 0 3.65-2.75 4.25-2.75 7.5-2.75 3.1 0 5 2.65 1.55 2.25.9 4.95-1.2 5.55-10.45 12.75-9.05 6.2-9.15 6.25-.4.25-.4.65v10.5q0 .8.8.8h33.95q.8 0 .8-.8V47.05q0-.75-.8-.75H94.7q7.45-4.6 14.5-11.7 4.55-4.55 5.1-11.1z" id="d"/><path fill="#FFF" d="M33.45 68.85q-5.45 0-10.75 2.45-4.65 2.15-6.55 4.7-.25.4 0 .9l4.9 7.05.5.3.55-.15q1.4-1.1 3.3-2.2 3.8-2.2 6.6-2.2 3.1 0 4.65 2.75 1.35 2.4.55 4.35-.95 2.3-4.45 4.15-1.8.95-3.4 1.4-.55.15-.55.7v6.25q0 .6.55.7.05 0 3.25 1.2 3.35 1.6 4.2 3.75.8 2-.8 4.5-1.7 2.65-5.15 2.65-2.95 0-6.75-1.9-3.15-1.55-5.3-3.5l-.6-.15-.5.3-4.85 7.05q-.35.5.05.9.15.2 5.7 4.95 6.8 4.65 13.9 4.65h.3q8.5-.15 13.75-4.85 2.85-2.55 4.1-5.95 1.3-3.45.75-6.95-.55-3.3-2.5-6.05-2-2.75-5.2-4.45 6.25-4.7 6.95-10.9.6-5.9-4.4-11.15t-12.8-5.25z" id="e"/><path fill="#FFF" d="M-79.55 14.75q-.15-.1-.25-.1H-86q-.1 0-.25.1l-.1.1L-98.1 33v.05l-.1.2v4.95q0 .4.45.4h11.35v5q0 .35.4.35h6.2q.4 0 .4-.35v-5h4.85q.4 0 .4-.4v-4.95q0-.2-.1-.3-.15-.15-.3-.15h-4.85V15.05l-.05-.15v-.05l-.1-.1m-11.3 18.05l4.45-6.85v6.85h-4.45z" id="f"/><path fill="#FFF" d="M-127.65-13.05l2.8-.8V1.4H-127q-.4 0-.4.4V7q0 .4.4.4h11.05q.45 0 .45-.4V1.8q0-.15-.15-.25-.1-.15-.3-.15h-2.1v-22.3l-.2-.3-.35-.1-9.25 2q-.3.05-.3.4v5.45l.15.35.35.05z" id="g"/></defs><use xlink:href="#a"/><use xlink:href="#b"/><use xlink:href="#c"/><use xlink:href="#d" transform="matrix(.34123 0 0 .34187 13.9 13.75)"/><use xlink:href="#e" transform="matrix(.34123 0 0 .34187 13.9 13.75)"/><g transform="matrix(.60666 0 0 .60779 98.8 28.95)"><use xlink:href="#f"/></g><g transform="matrix(.60666 0 0 .60779 98.8 28.95)"><use xlink:href="#g"/></g></svg>