<svg xmlns="http://www.w3.org/2000/svg" xmlns:xlink="http://www.w3.org/1999/xlink" preserveAspectRatio="none" viewBox="0 0 72 72"><defs><path id="a" fill="#ED6C30" d="M86.75 40.2q1.9-9.8.65-18.15-1.5-9.85-7.3-16.4-4.65-5.3-7.25-5.4-.9-.05-.5.9.05.1.9 1.35 1.15 1.65 2 3.75 3.95 10.2-3.45 20.8-3.15 4.5-15.45 16-6.8 6.35-12 14.7-.15.25-.8 1.3-.65.85-1.25.65-.7-.25-1.1-1.85-.35-1.7-.55-2.2-1.15-3.4-3.1-5.4-2.05-2.25-4.6-3.45-2.75-1.3-5.6-1.1l-1.1.2q-1.45.35-1.75.5-1.1.45-.7 1.3.2.45.8.6.35.1 1.05.25 9.7 2.95 6.85 18.3-1.2 6.4-4.95 18.85-2.45 11 .55 19.15 4.2 11.5 15.8 18.05 11.45 6.4 23.65 4.45 7.8-1.25 13.35-4.25 7.6-4.05 12.1-8.85 6.4-6.8 7.65-16.25.65-4.6-.55-10.3-.6-2.85-2.8-10-6.35-20.65 4.95-24.95.25-.1 1-.3.65-.25.85-.6 1.3-1.9-5.55-.65-7.15 1.55-9.55 7.35-1.15 3.45-2.15 5.15-1.8 3.1-4.3 2.05-2.15-.9-1.65-5.2.3-2.1 1.35-5.05 1.25-3.25 1.75-4.9 1.8-5.55 2.75-10.4z"/><path id="b" fill="#FCC21B" d="M65.7 71q.45 1.5.1 3.05-.8 3.2-3.25 6.3-1.25 1.6-5.1 5.45-4.4 4.4-6.25 7-2.95 4.2-3.6 8.6-1.3 8.5 4.2 14.85 5.95 6.85 15.55 5.15 6.5-1.15 11-5.95 4.85-5.25 3.7-11.55-.3-1.35-1.45-3.35-1.45-2.5-2.55-2.25-.1.45.05 1.2.2.85.2 1.15 0 .7-.5 1.8-.85 1.75-2.6 3.05-1.65 1.25-3.5 1.5-2.1.3-3.6-.9-2.45-2.1-1.4-6.2.5-1.8 2.5-5.5 1.9-3.45 2.3-5.7.95-5.1-.15-10.05-1.15-5.3-4.35-8.9-1.05-1.2-1.15-1.25-.85-.75-.8.3.05.8.65 2.2z"/></defs><use transform="scale(.5625)" xlink:href="#a"/><use transform="matrix(.70128 0 0 .70128 -8.95 -15.95)" xlink:href="#b"/></svg>