<svg xmlns="http://www.w3.org/2000/svg" xmlns:xlink="http://www.w3.org/1999/xlink" preserveAspectRatio="none" viewBox="0 0 72 72"><defs><path fill="#ECEFF1" d="M68.45 36q0-13.4-9.5-22.9Q49.4 3.55 36 3.55q-13.45 0-22.95 9.55Q3.5 22.6 3.5 36.05q0 13.4 9.55 22.95 9.5 9.5 22.95 9.5 13.4 0 22.95-9.55 9.5-9.5 9.5-22.95z" id="a"/><path fill="#BDBDBD" d="M71.95 36q0-14.85-10.55-25.35Q50.85.1 36 .1 21.1.1 10.6 10.65.05 21.15.05 36q0 14.9 10.55 25.45 10.5 10.5 25.4 10.5 14.85 0 25.4-10.5Q71.95 50.9 71.95 36m-13-22.9q9.5 9.5 9.5 22.9 0 13.45-9.5 22.95Q49.4 68.5 36 68.5q-13.45 0-22.95-9.5Q3.5 49.45 3.5 36.05q0-13.45 9.55-22.95Q22.55 3.55 36 3.55q13.4 0 22.95 9.55z" id="b"/><path fill="#CFD8DC" d="M116.5 61.45q-1.05-1.1-2.6-1.1-1.5 0-2.55 1.1-1.1 1.05-1.1 2.6 0 1.5 1.1 2.6 1.05 1.05 2.55 1.05 1.55 0 2.6-1.05 1.1-1.1 1.1-2.6 0-1.55-1.1-2.6z" id="c"/><path fill="#CFD8DC" d="M106.25 42.6q1.5.4 2.8-.35 1.3-.75 1.7-2.2.4-1.5-.35-2.85-.75-1.3-2.2-1.7-1.5-.4-2.85.35-1.3.8-1.7 2.25-.4 1.5.35 2.8.8 1.3 2.25 1.7z" id="d"/><path fill="#CFD8DC" d="M92.5 19.85q-.4-1.5-1.7-2.25-1.35-.8-2.8-.4-1.5.4-2.25 1.75-.75 1.3-.35 2.8.4 1.45 1.7 2.25 1.3.75 2.8.35 1.45-.4 2.25-1.7.75-1.35.35-2.8z" id="e"/><path fill="#CFD8DC" d="M40.85 23.95q1.3-.75 1.7-2.2.4-1.5-.35-2.8-.8-1.3-2.25-1.7-1.5-.4-2.8.35-1.3.75-1.7 2.2-.4 1.5.35 2.8.8 1.35 2.25 1.75 1.5.4 2.8-.4z" id="f"/><path fill="#CFD8DC" d="M17.55 37.2q-.8 1.35-.35 2.85.4 1.45 1.7 2.2 1.3.75 2.8.35 1.45-.4 2.2-1.7.8-1.3.4-2.8-.4-1.45-1.75-2.25-1.3-.75-2.8-.35-1.45.4-2.2 1.7z" id="g"/><path fill="#CFD8DC" d="M16.65 61.45q-1.05-1.1-2.6-1.1t-2.6 1.1q-1.1 1.05-1.1 2.55 0 1.55 1.1 2.6 1.05 1.1 2.6 1.1 1.5 0 2.6-1.1 1.05-1.05 1.05-2.6 0-1.5-1.05-2.55z" id="h"/><path fill="#CFD8DC" d="M21.7 85.45q-1.5-.4-2.8.35-1.35.75-1.75 2.25-.4 1.45.4 2.8.75 1.3 2.2 1.7 1.5.4 2.8-.35 1.35-.8 1.75-2.25.4-1.5-.35-2.8-.8-1.3-2.25-1.7z" id="i"/><path fill="#CFD8DC" d="M42.55 106.3q-.4-1.45-1.7-2.2-1.35-.8-2.8-.4-1.45.4-2.25 1.75-.75 1.3-.35 2.8.4 1.45 1.7 2.2 1.3.75 2.8.35 1.45-.4 2.25-1.7.75-1.3.35-2.8z" id="j"/><path fill="#CFD8DC" d="M66.55 111.35q-1.05-1.1-2.6-1.1-1.5 0-2.55 1.1-1.1 1.1-1.1 2.6 0 1.55 1.1 2.6 1.05 1.1 2.55 1.1 1.55 0 2.6-1.1 1.1-1.05 1.1-2.6 0-1.5-1.1-2.6z" id="k"/><path fill="#CFD8DC" d="M89.9 103.75q-1.5-.45-2.8.35-1.3.75-1.7 2.2-.4 1.5.35 2.8.8 1.3 2.25 1.75 1.5.4 2.8-.4 1.3-.75 1.7-2.2.4-1.5-.35-2.8-.8-1.3-2.25-1.7z" id="l"/><path fill="#CFD8DC" d="M104 87.15q-.75 1.3-.35 2.8.4 1.45 1.7 2.25 1.35.75 2.85.35 1.45-.4 2.2-1.7.75-1.3.35-2.8-.4-1.45-1.7-2.25-1.3-.75-2.8-.35-1.45.4-2.25 1.7z" id="m"/><path fill="#CFD8DC" d="M66.55 111.35q-1.05-1.1-2.6-1.1-1.5 0-2.55 1.1-1.1 1.1-1.1 2.6 0 1.55 1.1 2.6 1.05 1.1 2.55 1.1 1.55 0 2.6-1.1 1.1-1.05 1.1-2.6 0-1.5-1.1-2.6z" id="n"/><path id="o" stroke="#2F2F2F" stroke-width="5" stroke-linejoin="round" stroke-linecap="round" fill="none" d="M23.781 48.562l12.726-12.727"/><path id="p" stroke="#2F2F2F" stroke-width="5" stroke-linejoin="round" stroke-linecap="round" fill="none" d="M36 64V36"/><g id="q"><path fill="#2F2F2F" d="M32.1 32.05Q30.5 33.7 30.5 36q0 2.25 1.6 3.85 1.65 1.65 3.9 1.65 2.3 0 3.9-1.65 1.6-1.6 1.6-3.85 0-2.3-1.6-3.95-1.6-1.55-3.9-1.55-2.25 0-3.9 1.55M33.25 36q0-1.15.8-1.95.85-.8 1.95-.8 1.15 0 1.95.8t.8 1.95q0 1.15-.8 1.95t-1.95.8q-1.1 0-1.95-.8-.8-.8-.8-1.95z"/><path fill="#ECEFF1" d="M34.05 34.05q-.8.8-.8 1.95t.8 1.95q.85.8 1.95.8 1.15 0 1.95-.8t.8-1.95q0-1.15-.8-1.95t-1.95-.8q-1.1 0-1.95.8z"/></g></defs><use xlink:href="#a"/><use xlink:href="#b"/><use xlink:href="#c" transform="scale(.5625)"/><use xlink:href="#d" transform="scale(.5625)"/><use xlink:href="#e" transform="scale(.5625)"/><use xlink:href="#f" transform="scale(.5625)"/><use xlink:href="#g" transform="scale(.5625)"/><use xlink:href="#h" transform="scale(.5625)"/><use xlink:href="#i" transform="scale(.5625)"/><use xlink:href="#j" transform="scale(.5625)"/><use xlink:href="#k" transform="scale(.5625)"/><use xlink:href="#l" transform="scale(.5625)"/><use xlink:href="#m" transform="scale(.5625)"/><use xlink:href="#n" transform="matrix(-.5625 0 0 -.5625 71.95 72.05)"/><g transform="matrix(-.70708 -.70699 .45448 -.45453 45.6 77.65)"><use xlink:href="#o" transform="matrix(-.70721 1.10002 -.70714 -1.10016 87.15 35.25)"/></g><g transform="rotate(180 36 36)"><use xlink:href="#p" transform="rotate(180 36 36)"/></g><g><use xlink:href="#q"/></g></svg>