<svg xmlns="http://www.w3.org/2000/svg" xmlns:xlink="http://www.w3.org/1999/xlink" preserveAspectRatio="none" viewBox="0 0 72 72"><defs><path fill="#FCC21B" d="M127.65 93.35q0-27-8.5-47.05-15.6-36.65-55.3-36.65Q24.2 9.65 8.6 46.3.1 66.35.1 93.35q0 10.4 18.7 17.7 18.65 7.35 45.05 7.35 26.45 0 45.1-7.35 18.7-7.3 18.7-17.7z" id="a"/><path fill="#ED6C30" d="M56.75 43.5q1.05-3.55-.75-4.75-1.2-.85-3.1-.65-.253.054-4.95 1.4-4.692 1.337-12.05 1.4-7.309.063-11.85-1.35-4.547-1.404-4.75-1.45-1.9-.2-3.15.65-1.75 1.2-.7 4.75 1 3.6 3.85 6.6 2.6 2.65 5.9 4.35 4.95 2.6 10.9 2.6t10.9-2.6q3.25-1.7 5.8-4.35 2.9-3 3.95-6.6z" id="b"/><path fill="#40C0E7" d="M104.15 57.35q-1.25-.35-1.9-.35-1.7.15-1.2 2.65 2 9.35 2.35 11.3.15 1.3 1.15 4 1.05 3 2 4.5.9 1.5 3 2.6 2.05 1.1 4.05 1.2 2.8.1 5.2-1.8 2.5-2 2.85-5.1.45-4.15-1.6-7.95-1.95-3.55-5.55-6.05-4.55-3.05-8.5-4.4-1.15-.4-1.85-.6z" id="c"/><path fill="#40C0E7" d="M24.6 70.95q1.5-7.35 2.25-11.3.6-2.5-1.1-2.65-.7 0-1.95.35-1.35.45-1.85.6-3.95 1.35-8.5 4.4-3.6 2.5-5.5 6.05-2.1 3.8-1.65 7.95.35 3.1 2.85 5.1 2.4 1.9 5.2 1.8 2-.1 4-1.2 2.1-1.1 3.05-2.6.95-1.5 2.05-4.5.95-2.65 1.15-4z" id="d"/><path fill="#2F2F2F" d="M52.4 47.8q-4.65-3.7-10.8-3.7-6.1 0-10.75 3.7-2.35 1.85-3.6 3.9-.55 1-.3 2.05.3 1.1 1.25 1.65.95.6 2.05.3 1.1-.25 1.7-1.2.45-1.05 2.4-2.6 3.15-2.4 7.25-2.35 4.15 0 7.25 2.4 1.6 1.2 2.45 2.55.75 1.3 2.35 1.3.75 0 1.4-.35.95-.6 1.25-1.7.25-1.1-.3-2.05-1.25-2.05-3.6-3.9z" id="e"/><path fill="#2F2F2F" d="M97.35 47.75q-4.65-3.7-10.75-3.7-6.15 0-10.8 3.7-3.5 3.8-3.6 3.95-.55 1-.3 2.05.3 1.1 1.25 1.65.95.6 2.1.3 1.1-.25 1.65-1.25l2.35-2.5q3.15-2.45 7.35-2.45 4.1 0 7.25 2.4 1.6 1.2 2.4 2.55.8 1.35 2.35 1.35.7 0 1.4-.4.95-.55 1.25-1.65.25-1.1-.3-2.05-1.25-2.05-3.6-3.95z" id="f"/><path id="g" stroke="#2F2F2F" stroke-width="2" stroke-linejoin="round" stroke-linecap="round" fill="none" d="M49.4 21.119q5.946.33 9.13 5.067M22.75 21.119q-5.893.275-9.078 5.012"/></defs><use xlink:href="#a" transform="scale(.5625)"/><use xlink:href="#b" transform="matrix(.99855 0 0 1.1 0 -4.75)"/><use xlink:href="#c" transform="matrix(.6946 0 0 .6946 -13.1 -6.2)"/><use xlink:href="#d" transform="matrix(.6946 0 0 .6946 -3.75 -6.2)"/><use xlink:href="#e" transform="rotate(-5.001 45.825 27.816) scale(.56249)"/><use xlink:href="#f" transform="rotate(5.001 26.468 28.1) scale(.56249)"/><use xlink:href="#g" transform="translate(-.026 -.032) scale(.99999)"/></svg>