<svg xmlns="http://www.w3.org/2000/svg" xmlns:xlink="http://www.w3.org/1999/xlink" preserveAspectRatio="none" viewBox="0 0 72 72"><defs><path fill="#FCC21B" d="M127.65 93.35q0-27-8.5-47.05-15.6-36.65-55.3-36.65Q24.2 9.65 8.6 46.3.1 66.35.1 93.35q0 10.4 18.7 17.7 18.65 7.35 45.05 7.35 26.45 0 45.1-7.35 18.7-7.3 18.7-17.7z" id="a"/><path fill="#2F2F2F" d="M52.4 47.8q-4.65-3.7-10.8-3.7-6.1 0-10.75 3.7-2.35 1.85-3.6 3.9-.55 1-.3 2.05.3 1.1 1.25 1.65.95.6 2.05.3 1.1-.25 1.7-1.2.45-1.05 2.4-2.6 3.15-2.4 7.25-2.35 4.15 0 7.25 2.4 1.6 1.2 2.45 2.55.75 1.3 2.35 1.3.75 0 1.4-.35.95-.6 1.25-1.7.25-1.1-.3-2.05-1.25-2.05-3.6-3.9z" id="c"/><path fill="#2F2F2F" d="M97.35 47.75q-4.65-3.7-10.75-3.7-6.15 0-10.8 3.7-3.5 3.8-3.6 3.95-.55 1-.3 2.05.3 1.1 1.25 1.65.95.6 2.1.3 1.1-.25 1.65-1.25l2.35-2.5q3.15-2.45 7.35-2.45 4.1 0 7.25 2.4 1.6 1.2 2.4 2.55.8 1.35 2.35 1.35.7 0 1.4-.4.95-.55 1.25-1.65.25-1.1-.3-2.05-1.25-2.05-3.6-3.95z" id="d"/><g id="b"><path fill="#2F2F2F" d="M45 39.15q-1.125.105-2.25.15-2.874.177-5.75.2-1.125.01-2.25 0-.512-.005-1.05-.05-2.312-.006-4.65-.15-1.125-.045-2.25-.15-2.137-.163-4.3-.35-2.324-.245-4.7-.6-2.175-.325-4.4-.7-.19-.013-.4-.05-.7-.1-1.15.3-.55.45-.5 1.1.3 7.6 7.35 12.7.075.054.15.1 1.084.777 2.25 1.4.91.537 1.85.95 1.688.65 3.35 1.25.25.105.5.15 1.102.326 2.25.55 2.708.545 5.7.6.545.05 1.1.05H36q.791 0 1.55-.05 2.613-.275 5.2-.6 1.15-.199 2.25-.5 3.048-.85 5.7-2.35 1.163-.61 2.25-1.4.126-.06.25-.15 7-5.1 7.3-12.7.05-.6-.5-1.1-.45-.4-1.15-.3-2.95.528-5.9.9-1.125.174-2.25.3-2.85.325-5.7.5m.15 2.85q2.485-.167 4.95-.45.316-.018.6-.05v8.25l-.4.25q-.159.099-.35.2-.127.091-.3.15-.278.201-.6.35-1.487.712-3 1.4-.517.179-1.05.35V42q.07.02.15 0m8.9 5q-.5.552-1.1 1.05V41.2q2.275-.276 4.55-.65-.293 1.453-.9 2.75-.031.092-.1.15-1.2 1.775-2.45 3.55M18.4 41.15q.24.046.45.05V48q-3.635-3.164-4.5-7.45 2.037.313 4.05.6m2.7.35q2.137.2 4.25.4.737.074 1.45.1v10.45q-2.703-.89-5.1-2.35-.069-.05-.15-.1-.229-.142-.45-.3v-8.2m7.95.65q2.85.149 5.7.15v11.45q-.46.01-.95 0-1.3-.138-2.65-.3-1.06-.141-2.1-.4v-10.9m8.7 11.6q-.372.015-.75 0V42.3q2.875.001 5.75-.15v10.9q-2.5.363-5 .7z"/><path fill="#FFF" d="M37 53.75q.378.015.75 0 2.5-.337 5-.7v-10.9q-2.875.151-5.75.15v11.45M34.75 42.3q-2.85-.001-5.7-.15v10.9q1.04.259 2.1.4 1.35.162 2.65.3.49.01.95 0V42.3m-9.4-.4q-2.113-.2-4.25-.4v8.2q.221.158.45.3.081.05.15.1 2.397 1.46 5.1 2.35V42q-.713-.026-1.45-.1m-6.5-.7q-.21-.004-.45-.05-2.012-.288-4.05-.6.865 4.286 4.5 7.45v-6.8m34.1 6.85q.6-.498 1.1-1.05 1.25-1.775 2.45-3.55.069-.058.1-.15.607-1.297.9-2.75-2.275.374-4.55.65v6.85m-2.85-6.5q-2.465.283-4.95.45-.08.02-.15 0v10.45q.533-.171 1.05-.35 1.513-.688 3-1.4.322-.149.6-.35.173-.059.3-.15.191-.101.35-.2l.4-.25V41.5q-.284.032-.6.05z"/></g></defs><use xlink:href="#a" transform="scale(.5625)"/><use xlink:href="#b"/><use xlink:href="#c" transform="scale(.5625)"/><use xlink:href="#d" transform="scale(.5625)"/></svg>