<svg xmlns="http://www.w3.org/2000/svg" xmlns:xlink="http://www.w3.org/1999/xlink" preserveAspectRatio="none" viewBox="0 0 72 72"><defs><path fill="#FCC21B" d="M127.2 93.45q0-27.05-8.45-47.2Q103.3 9.5 64 9.5q-39.35 0-54.8 36.75Q.75 66.4.75 93.45q0 10.4 18.5 17.75 18.55 7.35 44.75 7.35 26.15 0 44.7-7.35 18.5-7.35 18.5-17.75z" id="a"/><path fill="#D7598B" d="M100.75 74.15L82.15 94q3.2-.1 6.45 1.8 1.6.9 5.55 4 6.85 5.45 12 3.95 2.85-.75 5.25-3.35 2.3-2.45 3.05-5.5 2-7.5-4.2-14.85-2.4-2.9-5.2-4.6-2.7-1.6-4.3-1.3z" id="b"/><path fill="#2F2F2F" d="M87.5 91.7q10.4-6.75 14.2-17.65.4-1.15-.15-2.3t-1.7-1.55q-1.15-.4-2.25.15-1.15.55-1.55 1.7-3.2 9.1-12.05 14.75-8.85 5.6-20 5.6-1.25 0-2.15.9-.85.85-.85 2.1t.85 2.1q.9.9 2.15.9 13.1 0 23.5-6.7z" id="c"/><path fill="#2F2F2F" d="M31.9 72.05q-.4-1.15-1.55-1.7-1.1-.55-2.3-.15-1.15.4-1.7 1.55-.5 1.1-.1 2.3Q30.1 84.95 40.5 91.7q10.4 6.7 23.5 6.7 1.25 0 2.1-.9.9-.85.9-2.1t-.9-2.1q-.85-.9-2.1-.9-11.2 0-20.05-5.6-8.85-5.6-12.05-14.75z" id="d"/><path fill="#2F2F2F" d="M51.3 48.95q-4.7-3.7-10.8-3.7-6.1 0-10.75 3.7-2.35 1.85-3.6 3.9-.55 1-.3 2.05.3 1.1 1.25 1.65.95.6 2.05.3 1.1-.25 1.65-1.2.85-1.35 2.45-2.55 3.15-2.4 7.25-2.4t7.25 2.4q1.6 1.2 2.45 2.55.75 1.3 2.3 1.3.85 0 1.4-.35 1-.55 1.25-1.65.3-1.1-.25-2.1-1.25-2.05-3.6-3.9z" id="e"/><path fill="#2F2F2F" d="M98.25 48.95q-4.65-3.7-10.8-3.7-6.1 0-10.75 3.7-3.5 3.75-3.6 3.9-.6.95-.3 2.05.25 1.1 1.25 1.65.95.6 2.05.3 1.1-.25 1.65-1.25.05 0 2.35-2.45 3.15-2.45 7.35-2.45 4.15 0 7.25 2.4 1.6 1.2 2.4 2.5.9 1.35 2.4 1.35.75 0 1.35-.4 1-.55 1.25-1.65.3-1.1-.3-2.05-1.2-2.05-3.55-3.9z" id="f"/></defs><use xlink:href="#a" transform="scale(.5625)"/><use xlink:href="#b" transform="scale(.5625)"/><use xlink:href="#c" transform="scale(.5625)"/><use xlink:href="#d" transform="scale(.5625)"/><use xlink:href="#e" transform="scale(.5625)"/><use xlink:href="#f" transform="scale(.5625)"/></svg>