<svg xmlns="http://www.w3.org/2000/svg" xmlns:xlink="http://www.w3.org/1999/xlink" preserveAspectRatio="none" viewBox="0 0 72 72"><defs><path fill="#BA68C8" d="M105.9 5.2q-1.4-1.4-3.55-2.1-2.75-.9-3.9.65-.6.85-.1 2.9.25 1.1.8 3 .75 5.15-.75 10.7-1.55 5.65-4.85 9.55-1.3 1.55-5.25 4.65-3.35 2.65-4.4 5.65-1.6 4.55 1.95 9.6 2.4 3.4 6.15 5.3 4.15 2.1 7.95 1.25 4.45-.95 8.15-4.85 3.35-3.5 5-8.2 3.55-10.55 1.05-22.05-2.1-10-8.25-16.05z" id="a"/><path fill="#BA68C8" d="M43 49q3.6-5.15 2-9.65-1.15-3.1-4.45-5.65-3.85-3-5.25-4.6-3.3-3.95-4.8-9.55-1.5-5.6-.75-10.75.55-1.9.8-3 .5-2.05-.1-2.85-1.15-1.6-3.85-.7Q24.35 3 23 4.4q-6.1 6-8.25 16.05-2.5 11.45 1.05 22 1.65 4.7 5 8.25 3.7 3.85 8.15 4.85 3.8.85 7.95-1.25 3.7-1.9 6.1-5.3z" id="b"/><path fill="#BA68C8" d="M64.45 24.85q-37.15 0-51.75 34.3Q4.75 77.9 4.75 103.2q0 9.7 17.5 16.55 17.5 6.85 42.2 6.85 24.7 0 42.2-6.85 17.5-6.85 17.5-16.55 0-25.25-8-44.05-14.55-34.3-51.7-34.3z" id="c"/><path fill="#2F2F2F" d="M28.6 49.1q3.35-2.05 3.8-4.6l-19.3-5.75q-.6 3.3.9 6.5 2 4.25 7.15 5.3 3.85.8 7.45-1.45z" id="d"/><path fill="#FBB817" d="M24.75 13.1q3.16-2.229 3.8-4.65L6.9 2q-.612 3.05.8 6.6 2.15 5.45 8.25 6.65 4.5.9 8.8-2.15z" id="e"/><path fill="#2F2F2F" d="M13.1 38.75q-.6 3.3.9 6.5 2 4.25 7.15 5.3 3.85.8 7.45-1.45 3.35-2.05 3.8-4.6l-19.3-5.75z" id="f"/><path fill="#2F2F2F" d="M86.45 98.8q-1-.65-2.15-.4t-1.75 1.2q-1.45 2.15-4.45 4.15-6 4-14 3.55-8.05-.45-13.6-3.85-4.05-3.4-4.2-3.6-.7-.95-1.8-1.15-1.15-.2-2.1.45-.95.65-1.2 1.8-.2 1.2.45 2.15.5.75 1.35 1.55 1.65 1.7 3.85 3.2 6.95 4.55 16.9 5.15l1.95.05q9.25 0 16.2-5 3.5-2.55 5.35-5.35.65-.95.45-2.1-.25-1.15-1.25-1.8z" id="g"/></defs><use xlink:href="#a" transform="translate(-.25) scale(.5625)"/><use xlink:href="#b" transform="translate(-.25) scale(.5625)"/><use xlink:href="#c" transform="translate(-.25) scale(.5625)"/><use xlink:href="#d" transform="scale(-1 1) rotate(-5 -13.876 869.65)"/><use xlink:href="#e" transform="scale(-.56249 .56249) rotate(-5 752.193 1248.512)"/><use xlink:href="#f" transform="rotate(-5 22.148 44.566)"/><g><use xlink:href="#e" transform="rotate(-5.001 458.555 -122.811) scale(.56249)"/></g><g transform="translate(-.25) scale(.5625)"><use xlink:href="#g"/></g></svg>