<svg xmlns="http://www.w3.org/2000/svg" xmlns:xlink="http://www.w3.org/1999/xlink" preserveAspectRatio="none" viewBox="0 0 72 72"><defs><path id="a" fill="#FCC21B" d="M127.55 92.35q0-27-8.5-47.05-15.6-36.65-55.3-36.65Q24.1 8.65 8.5 45.3 0 65.35 0 92.35q0 10.4 18.7 17.7 18.65 7.35 45.05 7.35 26.45 0 45.1-7.35 18.7-7.3 18.7-17.7z"/><path id="b" fill="#2F2F2F" d="M90.05 82.4q-1.25 0-2.15.85-6.4 6.2-15.2 8.45-8.8 2.3-17.55.05-1.2-.35-2.25.3-1.1.6-1.4 1.8-.35 1.2.3 2.3.65 1.05 1.85 1.4 5.15 1.3 10.25 1.3 7.85 0 15.15-2.9 7.4-2.95 13.05-8.4.9-.85.9-2.1t-.85-2.1q-.85-.9-2.1-.95z"/><path id="c" fill="#2F2F2F" d="M14.05 37.1q.15.6.7.95.55.3 1.15.15.6-.15.95-.7.5-.75 1.4-1.45 1.7-1.35 4.05-1.35l.8.05q-.3 2.05.65 3.4.9 1.35 2.65 1.35 1.95 0 3.7-1.65.4-.35.45-.9.1-.55-.15-1-.4-.8-1.55-1.85-2-1.75-4.6-2.25-1.05-.2-1.95-.2-3.45 0-6.05 2.05-1.35 1.1-2.05 2.25-.3.55-.15 1.15z"/><path id="d" fill="#2F2F2F" d="M57.9 35.95q-.4-.8-1.55-1.85-2-1.75-4.6-2.25-1.05-.2-1.95-.2-3.4 0-6.05 2.05-1.95 2.15-2 2.25-.35.55-.2 1.15.15.6.7.95.6.3 1.2.15t.95-.7q.25-.55 1.35-1.45 1.75-1.35 4.05-1.35l.85.05q-.35 2.05.6 3.4t2.7 1.35q1.81-.046 3.4-1.45.025.013.05 0l.2-.2h.05q.35-.35.45-.9.1-.55-.2-1z"/><path id="e" fill="none" stroke="#2F2F2F" stroke-linecap="round" stroke-linejoin="round" stroke-width="3" d="M49.033 20.427q5.818-.267 9.33 5.086m-35.274-5.086q-5.817-.267-9.33 5.086"/></defs><use transform="scale(.5625)" xlink:href="#a"/><use transform="translate(0 -2) scale(.5625)" xlink:href="#b"/><use transform="translate(0 -2)" xlink:href="#c"/><use transform="translate(0 -2)" xlink:href="#d"/><use transform="matrix(1 0 0 .99999 -.025 -.048)" xlink:href="#e"/></svg>