<svg xmlns="http://www.w3.org/2000/svg" xmlns:xlink="http://www.w3.org/1999/xlink" preserveAspectRatio="none" viewBox="0 0 72 72"><defs><path id="a" fill="#FCC21B" d="M35.9 5.45q-22.3 0-31.05 20.6Q.05 37.3.05 52.5q0 5.85 10.55 9.95 10.45 4.15 25.3 4.15 14.9 0 25.4-4.15 10.5-4.1 10.5-9.95 0-15.2-4.8-26.45-8.75-20.6-31.1-20.6z"/><path id="c" fill="#2F2F2F" d="M99.2 48q-.85-.65-1.95-.5-3.55.55-7.95 1.7-8.65 2.25-14.3 5.65-.75.45-1.1 1.3-.3.85-.1 1.7.25.85 1 1.35.7.55 1.6.55.05 0 6.4.4 7.25.8 12.15 3 .3.15.6.15.9.15 1.7-.25.85-.4 1.2-1.25.45-1 .05-2-.4-1.05-1.4-1.45-4.85-2.2-10.2-2.95 5.8-1.9 11.1-2.65 1.1-.15 1.75-1.05.65-.85.5-1.95-.15-1.1-1.05-1.75z"/><path id="d" fill="#2F2F2F" d="M85.5 87.95q4.45-3.1 6.65-6.5.7-1.15.4-2.45-.3-1.3-1.4-2-1.1-.7-2.45-.4-1.3.3-2 1.4-1.75 2.6-5.3 5-7.05 4.65-17 4.65-10.3 0-17.9-4.05-2.4-1.3-4.3-2.9-.95-.8-1.5-1.45-.85-1.05-2.2-1.2-1.3-.15-2.35.7-1 .85-1.15 2.2-.15 1.3.7 2.35.6.75 1.85 1.9 2.3 2 5.25 3.65Q52 94.1 64.4 94.1q12.3 0 21.1-6.15z"/><path id="e" fill="#2F2F2F" d="M40.2 45.65q-3.35 0-5.75 2.85-2.35 2.85-2.35 6.95 0 4.05 2.35 6.9 2.4 2.85 5.75 2.85t5.75-2.85q2.35-2.85 2.35-6.9 0-4.1-2.35-6.95-2.35-2.85-5.75-2.85z"/><path id="b" fill="none" stroke="#2F2F2F" stroke-linecap="round" stroke-linejoin="round" stroke-width="3" d="M21.25 18.7q-4.76 1.563-7.2 6.65"/></defs><use transform="translate(.1)" xlink:href="#a"/><use transform="translate(-.15)" xlink:href="#b"/><use transform="matrix(.51314 -.04488 .04868 .55656 1.65 3.9)" xlink:href="#c"/><use transform="matrix(.43523 0 0 .47069 8.25 7.25)" xlink:href="#d"/><g transform="matrix(.55717 0 0 .5587 1.05 -.1)"><use xlink:href="#e"/></g></svg>