<svg xmlns="http://www.w3.org/2000/svg" xmlns:xlink="http://www.w3.org/1999/xlink" preserveAspectRatio="none" viewBox="0 0 72 72"><defs><path fill="#FCC21B" d="M127.65 93.35q0-27-8.5-47.05-15.6-36.65-55.3-36.65Q24.2 9.65 8.6 46.3.1 66.35.1 93.35q0 10.4 18.7 17.7 18.65 7.35 45.05 7.35 26.45 0 45.1-7.35 18.7-7.3 18.7-17.7z" id="a"/><path fill="#2F2F2F" d="M16.8 35.5q.5-.75 1.4-1.45 1.7-1.35 4.05-1.35l.8.05q-.3 2.05.65 3.4.9 1.35 2.65 1.35 1.95 0 3.7-1.65.4-.35.45-.9.1-.55-.15-1-.4-.8-1.55-1.85-2-1.75-4.6-2.25-1.05-.2-1.95-.2-3.45 0-6.05 2.05-1.35 1.1-2.05 2.25-.3.55-.15 1.15.15.6.7.95.55.3 1.15.15.6-.15.95-.7z" id="d"/><path fill="#2F2F2F" d="M58.1 36.95q.1-.55-.2-1-.4-.8-1.55-1.85-2-1.75-4.6-2.25-1.05-.2-1.95-.2-3.4 0-6.05 2.05-1.95 2.15-2 2.25-.35.55-.2 1.15.15.6.7.95.6.3 1.2.15t.95-.7q.25-.55 1.35-1.45 1.75-1.35 4.05-1.35l.85.05q-.35 2.05.6 3.4t2.7 1.35q1.81-.046 3.4-1.45.025.013.05 0l.2-.2h.05q.35-.35.45-.9z" id="e"/><path id="b" stroke="#2F2F2F" stroke-width="3" stroke-linejoin="round" stroke-linecap="round" fill="none" d="M24.35 20.95q-7.075.077-11.8 6.1"/><path id="c" stroke="#2F2F2F" stroke-width="3" stroke-linejoin="round" stroke-linecap="round" fill="none" d="M30.55 30.5q7.1.1 11.8 6.1"/><path id="f" stroke="#2F2F2F" stroke-width="3" stroke-linejoin="round" stroke-linecap="round" fill="none" d="M30 50.45q16.826 1.996 20.3-5.1"/><path id="g" stroke="#2F2F2F" stroke-width="3" stroke-linejoin="round" stroke-linecap="round" fill="none" d="M50.3 45.35q-6.641 6.835-20.3 5.1"/></defs><use xlink:href="#a" transform="translate(.1) scale(.5625)"/><use xlink:href="#b"/><use xlink:href="#c" transform="translate(17.1 -9.65)"/><use xlink:href="#d" transform="translate(0 -.25)"/><use xlink:href="#e" transform="translate(-.05 -2.25)"/><use xlink:href="#f"/><use xlink:href="#g"/></svg>