<svg xmlns="http://www.w3.org/2000/svg" xmlns:xlink="http://www.w3.org/1999/xlink" preserveAspectRatio="none" viewBox="0 0 72 72"><defs><path fill="#FCC21B" d="M35.85 4.85q-22.3 0-31.05 20.65Q0 36.75 0 51.95q0 5.85 10.5 9.95 10.5 4.15 25.35 4.15 14.9 0 25.4-4.15 10.5-4.1 10.5-9.95 0-15.2-4.8-26.45Q58.2 4.85 35.85 4.85z" id="a"/><path fill="#ED6C30" d="M54.95 43.95q.95-3.3-.7-4.4-1.1-.75-2.85-.6-.2.05-3 .6Q42.7 40.7 36 40.7q-6.75 0-12.4-1.15-2.8-.55-3-.6-1.75-.15-2.9.6-1.6 1.1-.65 4.4.95 3.3 3.55 6.05 2.4 2.45 5.4 4 4.55 2.4 10 2.4T46 54q3-1.55 5.35-4 2.65-2.75 3.6-6.05z" id="b"/><path fill="#2F2F2F" d="M51.3 48.95q-4.7-3.7-10.8-3.7-6.1 0-10.75 3.7-2.35 1.85-3.6 3.9-.55 1-.3 2.05.3 1.1 1.25 1.65.95.6 2.05.3 1.1-.25 1.65-1.2.85-1.35 2.45-2.55 3.15-2.4 7.25-2.4t7.25 2.4q1.6 1.2 2.45 2.55.75 1.3 2.3 1.3.85 0 1.4-.35 1-.55 1.25-1.65.3-1.1-.25-2.1-1.25-2.05-3.6-3.9z" id="c"/><path fill="#2F2F2F" d="M98.25 48.95q-4.65-3.7-10.8-3.7-6.1 0-10.75 3.7-3.5 3.75-3.6 3.9-.6.95-.3 2.05.25 1.1 1.25 1.65.95.6 2.05.3 1.1-.25 1.65-1.25.05 0 2.35-2.45 3.15-2.45 7.35-2.45 4.15 0 7.25 2.4 1.6 1.2 2.4 2.5.9 1.35 2.4 1.35.75 0 1.35-.4 1-.55 1.25-1.65.3-1.1-.3-2.05-1.2-2.05-3.55-3.9z" id="d"/><path fill="#40C0E7" d="M61.2 5.5q-3.45 3.5-5.95 9.6-2.4 6.05 0 10.05Q57.75 29 61.2 29q3.5 0 6-3.85 2.4-4 0-10.05-2.5-6.1-6-9.6z" id="e"/></defs><use xlink:href="#a"/><use xlink:href="#b" transform="translate(0 -2)"/><use xlink:href="#c" transform="matrix(.56245 0 0 .56245 .05 -.6)"/><use xlink:href="#d" transform="matrix(.56245 0 0 .56245 .05 -.6)"/><g><use xlink:href="#e"/></g></svg>