<svg xmlns="http://www.w3.org/2000/svg" xmlns:xlink="http://www.w3.org/1999/xlink" preserveAspectRatio="none" viewBox="0 0 72 72"><defs><path id="a" fill="#FCC21B" d="M35.85 4.85q-22.3 0-31.05 20.65Q0 36.75 0 51.95q0 5.85 10.5 9.95 10.5 4.15 25.35 4.15 14.9 0 25.4-4.15 10.5-4.1 10.5-9.95 0-15.2-4.8-26.45Q58.2 4.85 35.85 4.85z"/><path id="b" fill="#2F2F2F" d="M100.25 45.75q-.15-1.1-1.05-1.75-.85-.65-1.95-.5-3.55.55-7.95 1.7-8.65 2.25-14.3 5.65-.75.45-1.1 1.3-.3.85-.1 1.7.25.85 1 1.35.7.55 1.6.55.05 0 6.4.4 7.25.8 12.15 3 .3.15.6.15.9.15 1.7-.25.85-.4 1.2-1.25.45-1 .05-2-.4-1.05-1.4-1.45-4.85-2.2-10.2-2.95 5.8-1.9 11.1-2.65 1.1-.15 1.75-1.05.65-.85.5-1.95z"/><path id="c" fill="#2F2F2F" d="M28.45 47.7q.65.9 1.7 1.05.45 0 3.4.6 4.05.85 7.75 2.05-5.4.75-10.25 2.95-.95.4-1.35 1.45-.4 1.05.05 2 .35.85 1.2 1.25.75.4 1.65.25.3 0 .6-.15 4.9-2.2 12.2-3 3.65-.4 6.35-.4.9 0 1.65-.55.7-.5.95-1.35.25-.85-.05-1.7-.35-.85-1.15-1.3-5.65-3.4-14.3-5.65-7.65-1.65-7.95-1.7-1.1-.15-1.95.5-.85.65-1 1.75-.15 1.1.5 1.95z"/><path id="d" fill="#ED6C30" d="M96.45 68.3q-2-1.35-5.1-1.05Q91 67.3 86 68.3q-10.05 2.05-22 2.05-12 0-22.05-2.05-5-1-5.35-1.05-3.1-.3-5.1 1.05-2.9 1.95-1.2 7.85Q32 82 36.65 86.85q4.2 4.35 9.55 7.15 8.1 4.25 17.8 4.25 9.65 0 17.75-4.25 5.35-2.8 9.55-7.15Q96 82 97.65 76.15q1.7-5.9-1.2-7.85z"/></defs><use xlink:href="#a"/><use transform="scale(.5625)" xlink:href="#b"/><use transform="scale(.5625)" xlink:href="#c"/><use transform="scale(.5625)" xlink:href="#d"/></svg>