<svg xmlns="http://www.w3.org/2000/svg" xmlns:xlink="http://www.w3.org/1999/xlink" preserveAspectRatio="none" viewBox="0 0 72 72"><defs><path fill="#FCC21B" d="M36 5.45q-22.3 0-31.05 20.6Q.15 37.3.15 52.5q0 5.85 10.55 9.95Q21.15 66.6 36 66.6q14.9 0 25.4-4.15 10.5-4.1 10.5-9.95 0-15.2-4.8-26.45Q58.35 5.45 36 5.45z" id="a"/><path fill="#ED6C30" d="M54.95 42.45q.95-3.3-.7-4.4-1.1-.75-2.85-.6-.2.05-3 .6Q42.7 39.2 36 39.2q-6.75 0-12.4-1.15-2.8-.55-3-.6-1.75-.15-2.9.6-1.6 1.1-.65 4.4.95 3.3 3.55 6.05 2.4 2.45 5.4 4 4.55 2.4 10 2.4t10-2.4q3-1.55 5.35-4 2.65-2.75 3.6-6.05z" id="b"/><path fill="#2F2F2F" d="M47.8 44.7q-2.45-2.85-5.8-2.8-3.35.05-5.75 2.9-2.35 2.9-2.3 6.9.05 4 2.45 6.85 2.45 2.8 5.8 2.75 3.35-.05 5.7-2.9t2.35-6.85q-.05-4.05-2.45-6.85z" id="c"/><path fill="#2F2F2F" d="M45.3 32.9q1.35 1.6 3.25 1.6t3.25-1.6q1.3-1.6 1.3-3.85t-1.35-3.9q-1.35-1.6-3.25-1.55-1.85 0-3.2 1.6t-1.35 3.85q0 2.25 1.35 3.85z" id="d"/></defs><use xlink:href="#a"/><use xlink:href="#b" transform="translate(0 1)"/><use xlink:href="#c" transform="matrix(.5625 0 0 .76886 0 -12.55)"/><use xlink:href="#d" transform="matrix(1 0 0 1.36687 0 -12.55)"/></svg>