<svg xmlns="http://www.w3.org/2000/svg" xmlns:xlink="http://www.w3.org/1999/xlink" preserveAspectRatio="none" viewBox="0 0 72 72"><defs><path id="a" fill="#2F2F2F" d="M73.05 82.2q.45-2.3-.4-4.75-2.05-5.7-10.55-5.1-3.15.2-3.05 1.85.1 1.05 2.45 1.35 1.05.1 3.5.1 2.15.2 3.1 1.25.85.95 1 2.55.1 1.45-.4 2.7-.6 1.55-2.3 2.15-2.15.5-3.2 1-.9.4-.7 1.45.1.35.35.55.45.4 1.35.5.55.05 1.5.1 1.15.1 1.45.2.8.15 1.3.65.95.9 1.15 2.7.15 1.8-.55 2.95-.6 1-2.95 2.4-2.8 1.65-3.3 2.15-.75.7-1.15 1.55-.5 1.05.05 1.7.5.6 1.8.6 1.6 0 3.3-.95 1.85-1 3.8-3.3 1.85-2.2 2.75-4.2 1.9-4.1-1.05-7.85-.55-.7-.05-2.15.7-1.55.8-2.15z"/><path id="b" fill="#FCC21B" d="M127.2 93.45q0-27.05-8.45-47.2Q103.3 9.5 64 9.5q-39.35 0-54.8 36.75Q.75 66.4.75 93.45q0 10.4 18.5 17.75 18.55 7.35 44.75 7.35 26.15 0 44.7-7.35 18.5-7.35 18.5-17.75z"/><path id="c" fill="#2F2F2F" d="M85.95 48.6q5.85-1.9 11.1-2.65 1.1-.2 1.75-1.05.65-.85.5-1.95-.15-1.1-1.05-1.75-.85-.65-1.95-.5-3.55.55-7.9 1.7-8.7 2.25-14.35 5.65-.75.45-1.1 1.25-.3.85-.05 1.7t.95 1.4q.7.55 1.6.55.05 0 6.4.4 7.3.8 12.2 3l.6.15q.9.15 1.65-.25.85-.4 1.2-1.25.45-.95.05-2-.35-1.05-1.35-1.5-4.9-2.15-10.25-2.9z"/><path id="d" fill="#2F2F2F" d="M50 48.55q-.05-4-2.45-6.85-2.4-2.85-5.75-2.8-3.35.05-5.75 2.9-2.35 2.9-2.3 6.9.05 4 2.45 6.85 2.45 2.8 5.8 2.75 3.35-.05 5.7-2.9t2.3-6.85z"/><path id="e" fill="#2F2F2F" d="M75.25 81.85q-.05-3.5-2.8-5.75-1.45-1.2-4.05-1.6-2.4-.3-4.5.2-1.6.4-2.65 1.1-1.35.85-1.2 1.8.15.9 1.6 1.2.8.15 2.5.15 3.7 0 5.05 1.1.7.5.75 1.95.05.8-.7 1.75-1.05 1.35-3.2 1.85-1.1.3-1.75 1-.75.85-.45 1.85.4 1.25 1.8 1.5l.6.15q4.25.85 4.85 2.9.15.45 0 1.2-.2.7-.45 1-1.15 1.4-2.85 2.15-1.4.6-3.7.95-4.05.5-4 2.05.05 1 1.5 1.6 1.2.45 2.6.45 7.4 0 10.6-3.9 2.2-2.65 1.6-6.3-.45-2.7-3.85-4.8 2.8-2.7 2.7-5.55z"/><path id="f" fill="#D7598B" d="M60.25 38.6q-.6-2.1-1.3-3.25-.95-1.65-2.45-2.4-1.45-.7-3.35-.55-1.8.15-3.25 1-2.25 1.3-3.1 3.8-.75 2.3-.2 5.05.2.95.8 2.85.2.45 1 2.3.6 1.7.05 2.25-.05.05-.45.25-.3.1-.3.35.05.55.8 1 4.2 2.6 11.25 1.7 2.45-.3 4.7-1.45 2.55-1.3 3.7-3.2.95-1.5.95-3.3.05-1.85-.95-3.3-1.05-1.6-2.75-2.3-1.65-.7-3.45-.35-.75.15-1 .15-.5-.05-.7-.6z"/><path id="g" fill="none" stroke="#2F2F2F" stroke-linecap="round" stroke-linejoin="round" stroke-width="2" d="M23.8 17.4q-5.2 1.15-8 5.55"/></defs><use transform="scale(.5625)" xlink:href="#a"/><use transform="scale(.5625)" xlink:href="#b"/><use transform="translate(0 1) scale(.5625)" xlink:href="#c"/><use transform="translate(0 1) scale(.5625)" xlink:href="#d"/><use transform="translate(0 -3) scale(.5625)" xlink:href="#e"/><use xlink:href="#f"/><use xlink:href="#g"/></svg>