<svg xmlns="http://www.w3.org/2000/svg" xmlns:xlink="http://www.w3.org/1999/xlink" preserveAspectRatio="none" viewBox="0 0 72 72"><defs><path id="a" fill="#FCC21B" d="M127.65 93.35q0-27-8.5-47.05-15.6-36.65-55.3-36.65Q24.2 9.65 8.6 46.3.1 66.35.1 93.35q0 10.4 18.7 17.7 18.65 7.35 45.05 7.35 26.45 0 45.1-7.35 18.7-7.3 18.7-17.7z"/><path id="b" fill="#2F2F2F" d="M55.55 57.95q-.8.65-1.9.65H41.2q1 2.6 3 4.15 2.05 1.6 4.5 1.55 3-.05 5.25-2.35 2.2-2.25 2.65-5.7-.25 1-1.05 1.7z"/><path id="c" fill="#2F2F2F" d="M55.55 57.95q.8-.7 1.05-1.7v-.1l.05-.55q0-1.25-.9-2.1-.85-.9-2.1-.9h-13q-.2.85-.2 2.1.1 2.1.75 3.9h12.45q1.1 0 1.9-.65z"/><path id="e" fill="#2F2F2F" d="M55.55 57.95q-.8.65-1.9.65H41.2q1 2.6 3 4.15 2.05 1.6 4.5 1.55 3-.05 5.25-2.35 2.2-2.25 2.65-5.7-.25 1-1.05 1.7z"/><path id="f" fill="#2F2F2F" d="M55.55 57.95q.8-.7 1.05-1.7v-.1l.05-.55q0-1.25-.9-2.1-.85-.9-2.1-.9h-13q-.2.85-.2 2.1.1 2.1.75 3.9h12.45q1.1 0 1.9-.65z"/><path id="d" fill="none" stroke="#2F2F2F" stroke-linecap="round" stroke-linejoin="round" stroke-width="3" d="M29.8 31.45q-7.054-1.128-13.3 0"/><path id="g" fill="none" stroke="#2F2F2F" stroke-linecap="round" stroke-linejoin="round" stroke-width="3" d="M29.8 31.45q-7.054-1.128-13.3 0"/><path id="h" fill="none" stroke="#2F2F2F" stroke-linecap="round" stroke-linejoin="miter" stroke-miterlimit="10" stroke-width="3" d="M26.45 48.55q3.734-2.937 9.55-2.95 5.9 0 9.7 2.95"/><path id="i" fill="none" stroke="#2F2F2F" stroke-linecap="round" stroke-linejoin="round" stroke-width="3" d="M45.55 48.55q-4.744-2.05-9.5-2.05-4.768-.002-9.6 2.05"/><path id="j" fill="none" stroke="#2F2F2F" stroke-linecap="round" stroke-linejoin="round" stroke-width="3" d="M47.55 20.55q5.3-.35 10.1 2.8m-33.05-2.8q-5.4-.4-10.25 2.85"/></defs><use transform="translate(.05) scale(.5625)" xlink:href="#a"/><use transform="matrix(.56245 0 0 .56245 -.55 1.3)" xlink:href="#b"/><use transform="matrix(.56245 0 0 .56245 -.55 1.3)" xlink:href="#c"/><use transform="translate(0 1)" xlink:href="#d"/><use transform="matrix(.56244 0 0 .56244 25.7 1.3)" xlink:href="#e"/><use transform="matrix(.56244 0 0 .56244 25.7 1.3)" xlink:href="#f"/><use transform="translate(26.25 1)" xlink:href="#g"/><use transform="translate(0 1)" xlink:href="#h"/><use transform="translate(0 1)" xlink:href="#i"/><use transform="translate(0 1)" xlink:href="#j"/></svg>