<svg xmlns="http://www.w3.org/2000/svg" xmlns:xlink="http://www.w3.org/1999/xlink" preserveAspectRatio="none" viewBox="0 0 72 72"><defs><path id="a" fill="#FCC21B" d="M127.45 93.2q0-26.85-8.45-46.8Q103.5 9.9 64 9.9T9 46.4Q.5 66.35.5 93.2q0 10.35 18.6 17.65 18.55 7.3 44.9 7.3 26.25 0 44.85-7.3 18.6-7.35 18.6-17.65z"/><path id="b" fill="#2F2F2F" d="M27.3 57.7q.85.9 2.1.9h11.8q-.7-1.85-.7-3.9-.05-1.05.15-2.1H29.4q-1.25 0-2.1.9-.9.85-.9 2.1t.9 2.1z"/><path id="c" fill="#2F2F2F" d="M55.55 57.95q-.8.65-1.9.65H41.2q1 2.6 3 4.15 2.05 1.6 4.5 1.55 3-.05 5.25-2.35 2.2-2.25 2.65-5.7-.25 1-1.05 1.7z"/><path id="d" fill="#2F2F2F" d="M55.55 57.95q.8-.7 1.05-1.7v-.1l.05-.55q0-1.25-.9-2.1-.85-.9-2.1-.9h-13q-.2.85-.2 2.1.1 2.1.75 3.9h12.45q1.1 0 1.9-.65z"/><path id="e" fill="#2F2F2F" d="M85.35 54.7q0-1.15.2-2.1H74.3q-1.25 0-2.15.9-.85.85-.85 2.1t.85 2.1q.9.9 2.15.9h11.8q-.75-2-.75-3.9z"/><path id="f" fill="#2F2F2F" d="M100.45 57.95q-.8.65-1.9.65H86.1q1 2.6 3 4.15 2 1.6 4.45 1.55 3-.05 5.25-2.35 2.2-2.25 2.7-5.7-.25 1-1.05 1.7z"/><path id="g" fill="#2F2F2F" d="M101.5 56.25v-.1l.05-.55q0-1.25-.9-2.1-.85-.9-2.1-.9h-13q-.2.85-.2 2.1 0 1.9.75 3.9h12.45q1.1 0 1.9-.65.8-.7 1.05-1.7z"/><path id="h" fill="none" stroke="#2F2F2F" stroke-linecap="round" stroke-linejoin="miter" stroke-miterlimit="10" stroke-width="3" d="M26.45 47.9q3.75-2.95 9.6-2.95t9.65 2.95"/><path id="i" fill="none" stroke="#2F2F2F" stroke-linecap="round" stroke-linejoin="round" stroke-width="3" d="M49.4 19.15q5.55-.2 8.9 3.8m-33.65-3.8q-5.55-.2-8.9 3.8"/></defs><use transform="scale(.5625)" xlink:href="#a"/><use transform="translate(-.45) scale(.5625)" xlink:href="#b"/><use transform="translate(-.45) scale(.5625)" xlink:href="#c"/><use transform="translate(-.45) scale(.5625)" xlink:href="#d"/><use transform="translate(.55) scale(.5625)" xlink:href="#e"/><use transform="translate(.55) scale(.5625)" xlink:href="#f"/><use transform="translate(.55) scale(.5625)" xlink:href="#g"/><use xlink:href="#h"/><use transform="translate(-1)" xlink:href="#i"/></svg>