<svg xmlns="http://www.w3.org/2000/svg" xmlns:xlink="http://www.w3.org/1999/xlink" preserveAspectRatio="none" viewBox="0 0 72 72"><defs><path id="a" fill="#FCC21B" d="M127.45 93.2q0-26.85-8.45-46.8Q103.5 9.9 64 9.9T9 46.4Q.5 66.35.5 93.2q0 10.35 18.6 17.65 18.55 7.3 44.9 7.3 26.25 0 44.85-7.3 18.6-7.35 18.6-17.65z"/><path id="b" fill="#2F2F2F" d="M35.2 49.6q-1.25 0-2.1.9-.9.85-.9 2.1t.9 2.1q.85.9 2.1.9h17.9q1.25 0 2.1-.9.9-.85.9-2.1t-.9-2.1q-.85-.9-2.1-.9H35.2z"/><path id="c" fill="#2F2F2F" d="M92.75 55.6q1.25 0 2.1-.9.9-.85.9-2.1t-.9-2.1q-.85-.9-2.1-.9h-17.9q-1.25 0-2.15.9-.85.85-.85 2.1t.85 2.1q.9.9 2.15.9h17.9z"/><path id="d" fill="#2F2F2F" d="M89.65 84.75q1.25 0 2.1-.85.9-.9.9-2.15t-.85-2.1q-.9-.9-2.15-.9H38.3q-1.25 0-2.1.9-.9.85-.9 2.1t.9 2.15q.85.85 2.1.85h51.35z"/></defs><use transform="scale(.5625)" xlink:href="#a"/><use transform="scale(.5625)" xlink:href="#b"/><use transform="scale(.5625)" xlink:href="#c"/><use transform="scale(.5625)" xlink:href="#d"/></svg>