<svg xmlns="http://www.w3.org/2000/svg" xmlns:xlink="http://www.w3.org/1999/xlink" preserveAspectRatio="none" viewBox="0 0 72 72"><defs><path id="a" fill="#FCC21B" d="M36 5.45q-22.3 0-31.05 20.6Q.15 37.3.15 52.5q0 5.85 10.55 9.95Q21.15 66.6 36 66.6q14.9 0 25.4-4.15 10.5-4.1 10.5-9.95 0-15.2-4.8-26.45Q58.35 5.45 36 5.45z"/><path id="b" fill="#2F2F2F" d="M35.2 49.6q-1.25 0-2.1.9-.9.85-.9 2.1t.9 2.1q.85.9 2.1.9h17.9q1.25 0 2.1-.9.9-.85.9-2.1t-.9-2.1q-.85-.9-2.1-.9H35.2z"/><path id="c" fill="#2F2F2F" d="M92.75 55.6q1.25 0 2.1-.9.9-.85.9-2.1t-.9-2.1q-.85-.9-2.1-.9h-17.9q-1.25 0-2.15.9-.85.85-.85 2.1t.85 2.1q.9.9 2.15.9h17.9z"/><path id="d" fill="#2F2F2F" d="M89.65 84.75q1.25 0 2.1-.85.9-.9.9-2.15t-.85-2.1q-.9-.9-2.15-.9H38.3q-1.25 0-2.1.9-.9.85-.9 2.1t.9 2.15q.85.85 2.1.85h51.35z"/></defs><use xlink:href="#a"/><use transform="matrix(.6379 0 0 .56248 -4.8 1.5)" xlink:href="#b"/><use transform="matrix(.6379 0 0 .56248 -4.8 1.5)" xlink:href="#c"/><use transform="matrix(.48605 0 0 .5625 4.85 1.5)" xlink:href="#d"/></svg>