<svg xmlns="http://www.w3.org/2000/svg" xmlns:xlink="http://www.w3.org/1999/xlink" preserveAspectRatio="none" viewBox="0 0 72 72"><defs><path fill="#FCC21B" d="M36 5.35Q13.85 5.35 5.2 26 .4 37.35.4 52.55q0 5.85 10.45 10Q21.25 66.7 36 66.7q14.7 0 25.15-4.15 10.4-4.15 10.4-10 0-15.2-4.75-26.55Q58.1 5.35 36 5.35z" id="a"/><path fill="#2F2F2F" d="M55.15 46.15q.95-3.3-.7-4.4-1.1-.75-2.85-.6-.2.05-3 .6-5.7 1.15-12.4 1.15-6.75 0-12.4-1.15-2.8-.55-3-.6-1.75-.15-2.9.6-1.6 1.1-.65 4.4.95 3.3 3.55 6.05 2.4 2.45 5.4 4 4.55 2.4 10 2.4t10-2.4q3-1.55 5.35-4 2.65-2.75 3.6-6.05z" id="b"/><path fill="#D7598B" d="M36 47.65q-5.3 0-10.45-.8.6.7 2.3 9.75.2 1.05.4 1.95.8 2.3 1.95 3.65 1 1.2 2.3 1.6 1.45.5 3.5.5t3.5-.5q1.3-.4 2.3-1.6 1.15-1.35 1.95-3.65.2-.9.4-1.95 1.7-9.05 2.3-9.75-5.15.8-10.45.8v10.5-10.5z" id="c"/><path fill="#FFF" d="M97.7 42.4q-3.95-5.35-10.35-6.05-6.4-.7-11.45 3.6-5.05 4.35-5.8 11.2t3.2 12.15q4 5.35 10.35 6.05 6.4.7 11.45-3.6 5.05-4.35 5.8-11.2.8-6.8-3.2-12.15z" id="e"/><path fill="#2F2F2F" d="M90.7 48.45Q89 46.6 86.5 46.5q-2.5-.2-4.4 1.45-1.9 1.65-2.05 4.15-.2 2.45 1.5 4.35 1.65 1.85 4.15 2 2.5.15 4.4-1.5 1.9-1.65 2.1-4.15.15-2.5-1.5-4.35z" id="f"/><path fill="#2F2F2F" d="M17.15 33.75q.4-.8 1.2-1.6 1.65-1.5 3.95-1.7 2.3-.2 4.15 1 1 .65 1.5 1.35.5.7 1.4.6.4 0 .75-.25.5-.4.65-1 .05-.6-.3-1.15-.8-1.1-2.2-2-2.75-1.9-6.2-1.6-3.45.3-5.9 2.65-1.2 1.15-1.8 2.35-.25.6-.05 1.15.2.6.8.9.55.25 1.15.05.6-.2.9-.75z" id="g"/><path id="d" stroke="#2F2F2F" stroke-width="2" stroke-linejoin="round" stroke-linecap="round" fill="none" d="M36 47.65v10.5"/></defs><use xlink:href="#a"/><use xlink:href="#b"/><g><g><use xlink:href="#c"/><use xlink:href="#d"/></g><use xlink:href="#e" transform="matrix(-.56247 0 0 .56247 97.7 .1)"/><use xlink:href="#f" transform="matrix(-.64214 0 0 .64214 104.9 -4.05)"/><use xlink:href="#g" transform="rotate(5 34.982 26.009)"/></g></svg>