<svg xmlns="http://www.w3.org/2000/svg" xmlns:xlink="http://www.w3.org/1999/xlink" preserveAspectRatio="none" viewBox="0 0 72 72"><defs><path id="a" fill="#FCC21B" d="M127.65 93.35q0-27-8.5-47.05-15.6-36.65-55.3-36.65Q24.2 9.65 8.6 46.3.1 66.35.1 93.35q0 10.4 18.7 17.7 18.65 7.35 45.05 7.35 26.45 0 45.1-7.35 18.7-7.3 18.7-17.7z"/><path id="b" fill="#2F2F2F" d="M31.3 32.95v-.4q0-.7-.5-1.15-.45-.5-1.2-.5h-7.3q-.1.45-.1 1.15.05 1.2.4 2.2.6 1.45 1.7 2.35 1.15.9 2.55.85 1.7 0 2.95-1.3 1.25-1.25 1.5-3.2z"/><path id="d" fill="#2F2F2F" d="M31.3 32.55q0-.7-.5-1.15-.45-.5-1.2-.5h-7.3q-.1.45-.1 1.15.05 1.2.4 2.2.6 1.45 1.7 2.35 1.15.9 2.55.85 1.7 0 2.95-1.3 1.25-1.25 1.5-3.2v-.4z"/><path id="c" fill="none" stroke="#2F2F2F" stroke-linecap="round" stroke-linejoin="round" stroke-width="3" d="M29.8 31.45q-7.054-1.128-13.3 0"/><path id="e" fill="none" stroke="#2F2F2F" stroke-linecap="round" stroke-linejoin="round" stroke-width="3" d="M29.8 31.45q-7.054-1.128-13.3 0"/><path id="f" fill="none" stroke="#2F2F2F" stroke-linecap="round" stroke-linejoin="miter" stroke-miterlimit="10" stroke-width="3" d="M26.45 48.55q3.734-2.937 9.55-2.95 5.9 0 9.7 2.95"/><path id="g" fill="none" stroke="#2F2F2F" stroke-linecap="round" stroke-linejoin="round" stroke-width="3" d="M45.55 48.55q-4.744-2.05-9.5-2.05-4.768-.002-9.6 2.05"/><path id="h" fill="none" stroke="#2F2F2F" stroke-linecap="round" stroke-linejoin="round" stroke-width="3" d="M47.55 20.55q5.3-.35 10.1 2.8m-33.05-2.8q-5.4-.4-10.25 2.85"/></defs><use transform="translate(.05) scale(.5625)" xlink:href="#a"/><use transform="translate(26.25)" xlink:href="#b"/><use transform="translate(26.25 1)" xlink:href="#c"/><use xlink:href="#d"/><use transform="translate(0 1)" xlink:href="#e"/><use transform="translate(0 1)" xlink:href="#f"/><use transform="translate(0 1)" xlink:href="#g"/><use transform="translate(0 1)" xlink:href="#h"/></svg>