<svg xmlns="http://www.w3.org/2000/svg" xmlns:xlink="http://www.w3.org/1999/xlink" preserveAspectRatio="none" viewBox="0 0 72 72"><defs><path fill="#FCC21B" d="M35.85 4.85q-22.3 0-31.05 20.65Q0 36.75 0 51.95q0 5.85 10.5 9.95 10.5 4.15 25.35 4.15 14.9 0 25.4-4.15 10.5-4.1 10.5-9.95 0-15.2-4.8-26.45Q58.2 4.85 35.85 4.85z" id="a"/><path fill="#ED6C30" d="M97.65 76.15q1.7-5.9-1.2-7.85-2-1.35-5.1-1.05Q91 67.3 86 68.3q-10.05 2.05-22 2.05-12 0-22.05-2.05-5-1-5.35-1.05-3.1-.3-5.1 1.05-2.9 1.95-1.2 7.85Q32 82 36.65 86.85q4.2 4.35 9.55 7.15 8.1 4.25 17.8 4.25 9.65 0 17.75-4.25 5.35-2.8 9.55-7.15Q96 82 97.65 76.15z" id="b"/><path id="c" stroke="#2F2F2F" stroke-width="3" stroke-linejoin="round" stroke-linecap="round" fill="none" d="M54.8 19.7l-1.15-.1q-4-.35-5.5-1.85-1.15-1.4-1.65-2.45m-30.75 4.4q4.9-.2 6.65-1.95 1.15-1.4 1.65-2.45"/><path id="d" stroke="#2F2F2F" stroke-width="3" stroke-linejoin="round" stroke-linecap="round" fill="none" d="M53.574 33.517q-5.128-2.963-11.272-4.82 6.144-1.976 11.272-4.82"/><path id="e" stroke="#2F2F2F" stroke-width="3" stroke-linejoin="round" stroke-linecap="round" fill="none" d="M18.52 33.517q5.128-2.963 11.272-4.82-6.144-1.976-11.272-4.82"/></defs><use xlink:href="#a"/><use xlink:href="#b" transform="matrix(-.53206 0 0 -.61676 70.05 94.95)"/><use xlink:href="#c" transform="translate(.75)"/><use xlink:href="#d" transform="matrix(1 0 0 .99999 .043 .013)"/><use xlink:href="#e" transform="matrix(1 0 0 .99999 .043 .013)"/></svg>