<svg xmlns="http://www.w3.org/2000/svg" xmlns:xlink="http://www.w3.org/1999/xlink" preserveAspectRatio="none" viewBox="0 0 72 72"><defs><path fill="url(#a)" d="M127.55 92.35q0-27-8.5-47.05-15.6-36.65-55.3-36.65Q24.1 8.65 8.5 45.3 0 65.35 0 92.35q0 10.4 18.7 17.7 18.65 7.35 45.05 7.35 26.45 0 45.1-7.35 18.7-7.3 18.7-17.7z" id="b"/><path fill="#2F2F2F" d="M96.1 47.4q-1-.45-2.05 0l-16.5 7.55q-1.1.55-2.2.5-1.45 0-2.15-.8l-.95-1.55q-.2-.4-.65-.6-.5-.25-.9-.05-1.2.5-.95 3.35.3 2.25 1.25 4.1 1 1.9 2.35 3.25 1.9 1.85 4.8 2.85 3 1.05 6.15.85 2.6-.15 5.05-1.15 6.1-2.5 8.05-8 1.6-4.5.1-8.8-.4-1.1-1.4-1.5z" id="d"/><path fill="#2F2F2F" d="M33.7 47.4q-1-.45-2.05 0-1.1.4-1.4 1.5-1.5 4.3.1 8.8 1.9 5.5 8 8 2.45 1 5.05 1.15 3.15.2 6.2-.85 2.9-1 4.8-2.85 1.35-1.35 2.35-3.25.95-1.9 1.2-4.1.15-.7 0-1.7-.2-1.35-.9-1.65-.45-.2-.9.05-.45.2-.65.6l-.95 1.55q-.7.8-2.15.8-.7.05-1.5-.25l-.7-.25-16.5-7.55z" id="e"/><path id="c" stroke="#2F2F2F" stroke-width="3" stroke-linejoin="miter" stroke-linecap="round" stroke-miterlimit="10" fill="none" d="M21.7 50.35q5.6-5.85 14.2-5.85 8.55 0 14.15 5.85"/><linearGradient id="a" gradientUnits="userSpaceOnUse" x1="63.7" y1="8.45" x2="63.7" y2="117.45" spreadMethod="pad"><stop offset="0%" stop-color="#E53935"/><stop offset="100%" stop-color="#FCC21B"/></linearGradient></defs><use xlink:href="#b" transform="scale(.5625)"/><use xlink:href="#c"/><use xlink:href="#d" transform="scale(.56248)"/><use xlink:href="#e" transform="scale(.56248)"/></svg>