<svg xmlns="http://www.w3.org/2000/svg" xmlns:xlink="http://www.w3.org/1999/xlink" preserveAspectRatio="none" viewBox="0 0 72 72"><defs><path fill="#FCC21B" d="M128.1 93.45q0-27-8.55-47.1-15.6-36.7-55.35-36.7T8.85 46.35Q.3 66.45.3 93.45q0 10.4 18.7 17.7 18.7 7.35 45.2 7.35 26.5 0 45.2-7.35 18.7-7.3 18.7-17.7z" id="a"/><path fill="#40C0E7" d="M109.25 17h-7.8q3.6 20.45 3.15 39.3 4-.4 8.15-1.8 0-17.25-3.5-37.5z" id="b"/><path fill="#2F2F2F" d="M109.4 19.3q.85.7 1.35 1.45.35.5.95.65.6.15 1.15-.15.6-.35.7-.95.2-.55-.15-1.1-.7-1.15-2-2.2-2.65-2.15-6.05-2.15-3.5 0-6.05 2.15-1.35 1.05-2.05 2.2-.3.6-.2 1.2.2.5.75.85.35.25.75.2.9.05 1.35-.7.45-.7 1.4-1.45 1.75-1.35 4.05-1.35t4.05 1.35z" id="c"/><path fill="#ED6C30" d="M75.2 75.55Q71.1 69.1 64 69.1q-7.15 0-11.2 6.45-3.6 5.65-3.6 13.75 0 7.3 3.8 11.15 3.8 3.85 11 3.85 7.15 0 10.95-3.85 3.8-3.85 3.8-11.15 0-8.1-3.55-13.75z" id="d"/><path fill="#40C0E7" d="M26.05 26.4h-7.8q-3.5 20.25-3.5 37.5 4.15 1.4 8.15 1.8-.45-18.85 3.15-39.3z" id="f"/><path fill="#2F2F2F" d="M16.7 30.15q.5-.75 1.35-1.45 1.75-1.35 4.05-1.35t4.05 1.35q.95.75 1.4 1.45.45.75 1.35.7.4.05.75-.2.55-.3.75-.85.1-.6-.2-1.2-.7-1.15-2.05-2.2-2.55-2.15-6.05-2.15-3.4 0-6.05 2.15-1.3 1.05-2 2.2-.35.55-.15 1.1.1.6.7.95.55.3 1.15.15.6-.15.95-.65z" id="g"/><path id="e" stroke="#2F2F2F" stroke-width="3" stroke-linejoin="round" stroke-linecap="round" fill="none" d="M58.74 21.3l-1.292-.1q-4.495-.35-6.18-1.85-1.293-1.4-1.855-2.45m-36.244 4.4q5.507-.2 7.474-1.95 1.292-1.4 1.854-2.45"/></defs><use xlink:href="#a" transform="translate(-.1 -.05) scale(.5625)"/><use xlink:href="#b" transform="translate(-55.45 9.4)"/><use xlink:href="#c" transform="translate(-55.45 9.4)"/><use xlink:href="#d" transform="matrix(.55743 0 0 .55743 .25 -1.85)"/><use xlink:href="#e" transform="matrix(1 0 0 1 -.036 0)"/><use xlink:href="#f"/><use xlink:href="#g"/></svg>