<svg xmlns="http://www.w3.org/2000/svg" xmlns:xlink="http://www.w3.org/1999/xlink" preserveAspectRatio="none" viewBox="0 0 72 72"><defs><path fill="#FCC21B" d="M127.85 93.4q0-27-8.5-47.1Q103.75 9.6 64 9.6T8.65 46.3Q.1 66.4.1 93.4q0 10.4 18.7 17.7 18.7 7.35 45.2 7.35 26.45 0 45.15-7.35 18.7-7.3 18.7-17.7z" id="a"/><path fill="#2F2F2F" d="M96.15 40.45Q95.3 41.8 93.7 43q-3.1 2.35-7.25 2.35-4.1 0-7.25-2.4-2.35-2.4-2.45-2.55-.75-1.3-2.3-1.3-.8 0-1.4.4-.95.55-1.25 1.65-.3 1.1.25 2.05.1.15 3.6 3.9 4.7 3.7 10.8 3.7 6.15 0 10.8-3.7 2.35-1.85 3.6-3.9.55-.95.25-2.05-.25-1.1-1.25-1.65-.95-.55-2.05-.3-1.1.3-1.65 1.25z" id="b"/><path fill="#2F2F2F" d="M52.3 47.1q2.35-1.85 3.55-3.9.6-.95.3-2.05-.25-1.1-1.25-1.65-.95-.6-2.05-.3-1.1.25-1.65 1.25-.75 1.25-2.35 2.45-3.15 2.45-7.35 2.45-4.15 0-7.25-2.35-2.35-2.45-2.4-2.55-.85-1.35-2.4-1.35-.75 0-1.35.4-.95.55-1.25 1.65-.3 1.1.25 2.05.1.15 3.6 3.9 4.65 3.7 10.8 3.7 6.1 0 10.8-3.7z" id="c"/><path fill="#ED6C30" d="M47.7 49.3q-1.75-1.75-4.05-2.85-3.45-1.75-7.6-1.75-4.1 0-7.55 1.75-2.3 1.1-4.05 2.85-2 2-2.7 4.35-.75 2.4.5 3.2.85.55 2.2.45.1-.05 3.3-.5 3.2-.453 8.35-.45 5.15.002 8.35.45 3.2.449 3.3.5 1.35.1 2.2-.45 1.2-.8.5-3.2-.7-2.35-2.75-4.35z" id="d"/><path fill="#40C0E7" d="M61.95 40.05q-3.25-1.9-7.15-1.4-2.1.3-5.65 1.75-3.7 1.55-6.6 3.4-.3.2.05.35 1.65.7 3.25 2.4.65.65 2.85 3.5 1.75 2.3 3.1 3.3 1.5 1.1 3.25 1.7 1.85.6 3.6.55 4.3-.2 6.65-4 2.35-3.75.55-7.55-1.2-2.5-3.9-4z" id="e"/><path id="f" stroke="#2F2F2F" stroke-width="3" stroke-linejoin="round" stroke-linecap="round" fill="none" d="M49.4 24.2q5.55-.2 8.9 3.8m-37.65-3.8q-5.55-.2-8.9 3.8"/></defs><use xlink:href="#a" transform="scale(.5625)"/><use xlink:href="#b" transform="matrix(.56248 0 0 .56248 0 10)"/><use xlink:href="#c" transform="matrix(.56248 0 0 .56248 0 10)"/><use xlink:href="#d" transform="matrix(.75818 0 0 1 8.65 0)"/><use xlink:href="#e"/><use xlink:href="#f" transform="translate(1)"/></svg>