<svg xmlns="http://www.w3.org/2000/svg" xmlns:xlink="http://www.w3.org/1999/xlink" preserveAspectRatio="none" viewBox="0 0 72 72"><defs><path fill="#FCC21B" d="M127.55 96.25q0-26.85-8.5-46.85Q103.55 12.85 64 12.85T8.9 49.4Q.4 69.4.4 96.25.4 106.6 19 113.9q18.65 7.3 45 7.3t44.95-7.3q18.6-7.3 18.6-17.65z" id="a"/><path fill="#FFF" d="M104.85 97.5q4.15-4.1 4.15-9.9 0-5.75-4.15-9.85-4.1-4.15-9.85-4.15H33q-5.8 0-9.9 4.15-4.1 4.1-4.1 9.85 0 5.8 4.1 9.9 4.1 4.1 9.9 4.1h62q5.75 0 9.85-4.1z" id="b"/><path fill="#2F2F2F" d="M59 43.75q-2.35-2.35-5.55-2.35h-34.9q-3.25 0-5.55 2.35-2.3 2.3-2.3 5.5 0 3.3 2.3 5.6t5.55 2.3h34.9q3.2 0 5.55-2.3 2.3-2.35 2.3-5.6 0-3.2-2.3-5.5m-1.6 1.55q1.65 1.65 1.65 3.95 0 2.35-1.65 4t-3.95 1.65h-34.9q-2.3 0-4-1.65-1.6-1.65-1.6-4 0-2.3 1.6-3.95 1.7-1.65 4-1.65h34.9q2.3 0 3.95 1.65z" id="c"/><path fill="#2F2F2F" d="M50.55 75.2H47.4v25h3.15v-25z" id="d"/><path fill="#2F2F2F" d="M35.55 75.2H32.4v25h3.15v-25z" id="e"/><path fill="#2F2F2F" d="M95.55 75.2H92.4v25h3.15v-25z" id="f"/><path fill="#2F2F2F" d="M80.55 75.2H77.4v25h3.15v-25z" id="g"/><path fill="#2F2F2F" d="M65.55 75.2H62.4v25h3.15v-25z" id="h"/><path fill="#2F2F2F" d="M107.5 89.2v-3.15H20.45v3.15h87.05z" id="i"/><path fill="#2F2F2F" d="M38.35 49.65Q36 52.5 36 56.5q0 4 2.35 6.8 2.3 2.8 5.6 2.8 3.25 0 5.6-2.8 2.3-2.85 2.3-6.8 0-4-2.3-6.85-2.35-2.8-5.6-2.8-3.3 0-5.6 2.8z" id="j"/><path fill="#2F2F2F" d="M84 66.1q3.3 0 5.6-2.8t2.3-6.8q0-4-2.3-6.85-2.3-2.8-5.6-2.8-3.25 0-5.6 2.8-2.3 2.85-2.3 6.85 0 3.95 2.3 6.8 2.35 2.8 5.6 2.8z" id="k"/></defs><use xlink:href="#a" transform="scale(.56248)"/><use xlink:href="#b" transform="matrix(.56248 0 0 .56248 0 -2)"/><use xlink:href="#c" transform="translate(0 -2)"/><use xlink:href="#d" transform="matrix(.56248 0 0 .56248 0 -2)"/><use xlink:href="#e" transform="matrix(.56248 0 0 .56248 0 -2)"/><use xlink:href="#f" transform="matrix(.56248 0 0 .56248 0 -2)"/><use xlink:href="#g" transform="matrix(.56248 0 0 .56248 0 -2)"/><use xlink:href="#h" transform="matrix(.56248 0 0 .56248 0 -2)"/><use xlink:href="#i" transform="matrix(.56248 0 0 .56248 0 -2)"/><use xlink:href="#j" transform="matrix(.56248 0 0 .56248 0 -1.5)"/><use xlink:href="#k" transform="matrix(.56248 0 0 .56248 0 -1.5)"/></svg>