<svg xmlns="http://www.w3.org/2000/svg" xmlns:xlink="http://www.w3.org/1999/xlink" preserveAspectRatio="none" viewBox="0 0 72 72"><defs><path id="a" fill="#FCC21B" d="M36 5.45q-22.3 0-31.05 20.6Q.15 37.3.15 52.5q0 5.85 10.55 9.95Q21.15 66.6 36 66.6q14.9 0 25.4-4.15 10.5-4.1 10.5-9.95 0-15.2-4.8-26.45Q58.35 5.45 36 5.45z"/><path id="b" fill="#2F2F2F" d="M47.55 48.9q-2.4-2.85-5.75-2.8-3.35.05-5.75 2.9-2.35 2.9-2.3 6.9.05 4 2.45 6.85 2.4 2.8 5.75 2.75 3.35 0 5.75-2.85 2.35-2.9 2.3-6.9-.05-4-2.45-6.85z"/><path id="c" fill="#2F2F2F" d="M91.75 48.95q-2.35-2.85-5.7-2.8-3.35 0-5.75 2.85t-2.4 6.85q0 4 2.4 6.85 2.4 2.85 5.75 2.8 3.4 0 5.75-2.85 2.4-2.85 2.35-6.85 0-4-2.4-6.85z"/><path id="d" fill="#ED6C30" d="M45.95 45.55q-1.55-1.75-3.5-2.85-2.95-1.75-6.4-1.75-3.55 0-6.5 1.75-1.95 1.1-3.5 2.85-1.65 2-2.25 4.35-.6 2.4.4 3.2.75.55 1.85.45.15-.05 1.95-.45 3.6-.85 7.95-.85 4.45 0 8.05.85 1.8.4 1.95.45 1.1.1 1.85-.45 1-.8.4-3.2-.6-2.35-2.25-4.35z"/></defs><use xlink:href="#a"/><use transform="matrix(.56248 0 0 .56248 0 -.1)" xlink:href="#b"/><use transform="matrix(.56248 0 0 .56248 0 -.1)" xlink:href="#c"/><use xlink:href="#d"/></svg>