<svg xmlns="http://www.w3.org/2000/svg" xmlns:xlink="http://www.w3.org/1999/xlink" preserveAspectRatio="none" viewBox="0 0 72 72"><defs><path fill="#FCC21B" d="M128.1 93.45q0-27-8.55-47.1-15.6-36.7-55.35-36.7T8.85 46.35Q.3 66.45.3 93.45q0 10.4 18.7 17.75 18.75 7.35 45.2 7.35 26.45 0 45.2-7.35 18.7-7.35 18.7-17.75z" id="a"/><path fill="#ED6C30" d="M75.2 75.55Q71.1 69.1 64 69.1q-7.15 0-11.2 6.45-3.6 5.65-3.6 13.75 0 7.3 3.8 11.15 3.8 3.85 11 3.85 7.15 0 10.95-3.85 3.8-3.85 3.8-11.15 0-8.1-3.55-13.75z" id="b"/><path id="c" stroke="#2F2F2F" stroke-width="3" stroke-linejoin="round" stroke-linecap="round" fill="none" d="M48.1 28.55q.2-1.1 1.2-1.7 1.05-.45 2.2-.3 1.15.25 1.95 1.35.7 1.1.8 2.7.1 2-1.5 3.8-2 2.2-5.1 1.8-3.35-.45-4.8-3.6-1.3-2.6-.75-5.15.4-2.5 2.4-4.5 2.5-2.4 6.5-2.4 4.05.05 6.6 3 1.9 2.3 2.4 5.3M23.95 30.4q-1.15.15-2-.6-.85-.8-1.05-2-.2-1.1.6-2.25.8-1.05 2.2-1.7 1.8-.8 4.1.1 2.75 1.1 3.5 4.15.75 3.3-1.75 5.8-2 2.05-4.5 2.5-2.55.45-5.05-.75-3.15-1.5-4.55-5.2-1.45-3.8.5-7.2 1.45-2.6 4.15-4.15"/></defs><use xlink:href="#a" transform="scale(.5625)"/><use xlink:href="#b" transform="matrix(.47298 0 0 .47298 5.75 8.65)"/><use xlink:href="#c" transform="translate(-1.4)"/></svg>