<svg xmlns="http://www.w3.org/2000/svg" xmlns:xlink="http://www.w3.org/1999/xlink" preserveAspectRatio="none" viewBox="0 0 72 72"><defs><path fill="#FCC21B" d="M66.85 48q.563-3.917-.05-8.15-.85-5.1-3.85-9.65.75-7.8.55-13.6-.45-9.5-3.55-11.65-2.5-1.65-8.3 3.05-3.95 3.05-7.6 7.35l-1.85 2.2q-3.3-.5-6.2-.5-2.9 0-6.2.5l-1.85-2.2q-3.65-4.3-7.6-7.35-5.8-4.7-8.3-3.05Q8.95 7.1 8.5 16.6q-.2 5.8.55 13.6-3 4.55-3.85 9.65-.6 4.25-.1 8.2.1.45.15.95.45 2.35 1.3 4.6l.2.5q.5 1 1.05 1.95.05 0 .05.05v.05q1.75 2.65 4.45 4.7 5.15 3.8 12.55 5.45Q31 67.55 35.8 67.55h.4q4.8 0 10.95-1.25 7.4-1.65 12.55-5.45 2.676-2.053 4.4-4.75h.05q.01-.026 0-.05.614-.94 1.1-1.95l.2-.5q.845-2.256 1.25-4.65.108-.452.15-.95z" id="a"/><path fill="#FCD995" d="M-24.95 46.55q2.7-2.05 4.45-4.7v-.05q0-.05.05-.05.55-.95 1.05-1.95l.2-.5q.85-2.25 1.3-4.6.05-.5.15-.95-15.25-5.2-30.9-5.3-15.65.1-30.9 5.3.1.45.15.95.45 2.35 1.3 4.6l.2.5q.5 1 1.05 1.95.05 0 .05.05v.05q1.75 2.65 4.45 4.7 5.15 3.8 12.55 5.45 6.15 1.25 10.95 1.25h.4q4.8 0 10.95-1.25 7.4-1.65 12.55-5.45z" id="b"/><path fill="#FCD995" d="M13.35 7.35q-3.4 1.4-.85 19.35 5.7-4.75 13.1-8.25Q16.85 6.1 13.35 7.35m46.1 19.3Q62.045 8.757 58.6 7.3q-3.469-1.22-12.25 11.15 7.46 3.488 13.1 8.2z" id="c"/><path fill="#2F2F2F" d="M31.2 43.1q2.95.6 4.8 2.45 1.85-1.85 4.8-2.45-.95-2.7-4.75-2.7-3.95 0-4.85 2.7z" id="e"/><path fill="#ED6C30" d="M52 47.75q-.2-.35-.55-.55-.9-.6-2.4-.45-.15.05-1.45.25-.5.1-1.1.2-.124.023-.25.05-4.745.85-10.25.85-5.488 0-10.15-.85-.171-.017-.35-.05-.5-.1-.9-.15h-.05q-1.5-.25-1.6-.3-1.5-.15-2.45.45-.35.2-.55.6-.6.95 0 2.8.8 2.5 3 4.6 2.05 1.9 4.6 3.1 3.85 1.85 8.45 1.85t8.45-1.85Q47 57.1 49 55.2q2.25-2.1 3.05-4.6.6-1.9-.05-2.85z" id="h"/><path fill="#2F2F2F" d="M18.6 31.85q-1.35 1.5-1.35 3.6t1.35 3.6q1.3 1.45 3.15 1.45 1.9 0 3.2-1.45 1.3-1.5 1.3-3.6t-1.3-3.6q-1.3-1.45-3.2-1.45-1.85 0-3.15 1.45m28.45 7.2q1.35 1.45 3.2 1.45t3.2-1.45q1.3-1.5 1.3-3.6t-1.3-3.6q-1.35-1.5-3.2-1.5t-3.2 1.5q-1.35 1.5-1.35 3.6t1.35 3.6z" id="i"/><path id="d" stroke="#2F2F2F" stroke-width="2" stroke-linejoin="round" stroke-linecap="round" fill="none" d="M58.15 43.1q5.85-1.05 11.75-.6M60.15 47q4.7.25 8.7 1.4m-12.4-8.85q6.5-2.85 14.4-3.3M14 43.1Q8.1 42 2.25 42.5m9.7 4.5q-4.7.3-8.75 1.4m12.4-8.85q-6.5-2.85-14.4-3.3"/><path id="f" stroke="#2F2F2F" stroke-width="1" stroke-linejoin="round" stroke-linecap="round" fill="none" d="M30.993 42.382q3.096.63 5.038 2.571 1.941-1.941 5.037-2.57-.997-2.834-4.985-2.834-4.145 0-5.09 2.833z"/><path id="g" stroke="#2F2F2F" stroke-width="2" stroke-linejoin="round" stroke-linecap="round" fill="none" d="M36.03 44.953v3.464"/></defs><use xlink:href="#a"/><use xlink:href="#b" transform="translate(84.65 14.3)"/><use xlink:href="#c"/><use xlink:href="#d"/><g transform="matrix(1.04947 0 0 1.04947 -1.75 -2.85)"><use xlink:href="#e"/><use xlink:href="#f" transform="translate(1.65 2.7) scale(.95285)"/><use xlink:href="#g" transform="translate(1.65 2.7) scale(.95285)"/></g><use xlink:href="#h" transform="matrix(.88129 0 0 .92168 4.3 3.35)"/><use xlink:href="#i"/></svg>