<svg xmlns="http://www.w3.org/2000/svg" xmlns:xlink="http://www.w3.org/1999/xlink" preserveAspectRatio="none" viewBox="0 0 72 72"><defs><path id="a" fill="#FCC21B" d="M127.85 93.35q0-27-8.5-47.05-15.6-36.65-55.3-36.65Q24.4 9.65 8.8 46.3.3 66.35.3 93.35q0 10.4 18.7 17.7 18.65 7.35 45.05 7.35 26.45 0 45.1-7.35 18.7-7.3 18.7-17.7z"/><path id="b" fill="#EEE" d="M5.85 83.7v.45q8.159 2.588 18.65 4.15 6.65.95 11.85 1.25h.2q1.2 0 2.05-.8.9-.85.95-2.05.05-1.25-.8-2.15-.8-.9-2.05-1-4.7-.25-11.05-1.2-11.372-1.656-19.7-4.55-.1 2.925-.1 5.9m30.7-13.25q1.1 0 1.95-.7.8-.7 1-1.8.2-1.25-.55-2.25-.7-1-1.9-1.25-4.65-.75-10.95-2.75-9.764-3.034-17.35-7.35-.634 3.056-1.15 6.2 7.398 4.004 16.5 6.9 6.7 2.1 11.95 3h.5M99.7 86.7q.1 1.2.95 2.05.9.8 2.05.8l.2-.05q3.45 0 11.85-1.25 10.47-1.519 18.65-4.15v-.4q0-2.966-.1-5.85-8.312 2.848-19.65 4.5-11 1.2-11.1 1.2-1.25.1-2.05 1-.85.9-.8 2.15m3-16.25h.55q.4-.05 11.9-3 9.11-2.888 16.5-6.9-.515-3.118-1.2-6.15-7.517 4.287-17.25 7.35-10.85 2.75-10.95 2.75-1.25.25-1.95 1.25t-.5 2.2q.2 1.1 1 1.8.85.7 1.9.7z"/><path id="c" fill="#FFF" d="M99.05 67.4q-2.9-2.5-7.05-2-28 3.25-56.05 0-4.15-.5-7.05 2Q26 69.9 26 74v25q0 4.2 2.9 7.55 2.95 3.35 7.05 3.85 28.05 3.25 56.05 0 4.15-.5 7.1-3.85Q102 103.2 102 99V74q0-4.1-2.95-6.6z"/><path id="d" fill="none" stroke="#2F2F2F" stroke-linecap="round" stroke-linejoin="round" stroke-width="3" d="M42.5 28.15l13.75 2.4m-26.7-2.4l-13.75 2.4"/></defs><use transform="scale(.5625)" xlink:href="#a"/><use transform="translate(-3.1 5.4) scale(.5625)" xlink:href="#b"/><use transform="scale(.5625)" xlink:href="#c"/><use xlink:href="#d"/></svg>