<svg xmlns="http://www.w3.org/2000/svg" xmlns:xlink="http://www.w3.org/1999/xlink" preserveAspectRatio="none" viewBox="0 0 72 72"><defs><path id="a" fill="#FCC21B" d="M127.75 93.35q0-27-8.5-47Q103.65 9.7 64 9.7 24.3 9.65 8.7 46.3.2 66.35.2 93.35q0 10.4 18.7 17.7 18.65 7.35 45.1 7.35 26.4 0 45.1-7.35 18.65-7.3 18.65-17.7z"/><path id="b" fill="#40C0E7" d="M89.15 48.8l-.15.15q-1 .9-1.05 1.6-.1.95 1.35 1.65l.85.3q.85.35 3 1l2.35.75q2.2.75 2.4.75 1.35.15 2-1.2.4-.9.4-1.55-.05-.9-1.3-1.45l-2.6-.9q-.35-.05-.4-.15-.2-.2.3-.4l1.15-.75q.8-.5 1.15-.8l1.9-1.3q.5-.4 1.95-1.45 1.1-1 .6-2.05-.35-.7-.95-1l-1.05-.4q-1.15-.4-1.25-.45l-4.3-1.35q-2.25-.7-2.4-.75-1.4-.15-2 1.25-.45 1-.4 1.55.05.95 1.25 1.4.95.4 2.15.75l.75.25q.35.1.35.25 0 .2-.25.3l-4.2 2.8q-.6.4-1.6 1.2z"/><path id="c" fill="#40C0E7" d="M108.45 24.1q-2.4-1.05-2.55-1.1-1.45-.3-2.3 1.15-.55.95-.6 1.6-.05.95 1.25 1.7l3 1.4q.45.15.4.3l-.35.35-6.95 3.85q-1.2.8-1.35 1.65-.15 1.05 1.35 1.9l.85.45h.05q.65.4 3.15 1.4l2.5 1.1q2.4 1.05 2.55 1.1 1.45.3 2.25-1.15.6-.85.65-1.65 0-1-1.25-1.65l-3.15-1.5q-.2-.2.35-.4l1.3-.7q1.1-.55 1.4-.75l.7-.35q1-.5 1.45-.85.6-.4 2.3-1.35 1.35-1 .95-2.15-.3-.8-.95-1.2-.25-.15-1.1-.6l-5.9-2.55z"/><path id="d" fill="#40C0E7" d="M126.8 9.65q1.7-1.4 1.05-2.95-.35-1-1.3-1.55-.5-.3-1.5-.7l-8-3.05Q113.65.15 113.6.15q-1.95-.3-3 1.65-.7 1.5-.7 2.2 0 .8.5 1.35.35.4 1.25.85l4.1 1.65q.55.15.5.4 0 .25-.4.4l-6.3 3.8q-.5.3-2.4 1.6l-.3.25q-1.5 1.2-1.65 2.25-.15 1.4 1.85 2.45l1.2.55h.05q1.3.65 4.25 1.65l3.4 1.3q3.4 1.25 3.45 1.25 2 .3 3-1.65.7-1.5.7-2.2 0-1.3-1.75-2.2l-3.75-1.5q-.45-.1-.55-.25-.3-.25.45-.6l4.4-2.55q.6-.4 1.9-1.2.8-.55 3-1.95z"/><path id="e" fill="#2F2F2F" d="M96.15 59.85q-.85 1.35-2.45 2.55-3.1 2.4-7.25 2.4-4.1 0-7.25-2.4-2.35-2.45-2.45-2.55-.8-1.35-2.3-1.35-.7 0-1.4.4-.95.55-1.25 1.65-.3 1.15.25 2.1.1.15 3.6 3.9 4.7 3.7 10.8 3.7 6.15 0 10.8-3.7 2.35-1.85 3.6-3.95.55-.95.25-2-.25-1.1-1.25-1.7-.95-.55-2.05-.3-1.1.3-1.65 1.25z"/><path id="f" fill="#2F2F2F" d="M28.1 58.9q-.95.55-1.25 1.65-.3 1.15.25 2.1.1.15 3.6 3.9 4.65 3.7 10.8 3.7t10.8-3.7q2.85-2.25 3.55-3.95.6-.95.3-2.05-.25-1.1-1.25-1.65-.95-.6-2.05-.3-1.1.25-1.65 1.25-.75 1.25-2.35 2.5-3.15 2.45-7.35 2.45-4.15 0-7.25-2.4-2.35-2.45-2.4-2.55-.85-1.35-2.4-1.35-.65 0-1.35.4z"/><path id="g" fill="#ED6C30" d="M75.2 75.55Q71.1 69.1 64 69.1q-7.15 0-11.2 6.45-3.6 5.65-3.6 13.75 0 7.3 3.8 11.15 3.8 3.85 11 3.85 7.15 0 10.95-3.85 3.8-3.85 3.8-11.15 0-8.1-3.55-13.75z"/></defs><use transform="scale(.5625)" xlink:href="#a"/><use transform="scale(.5625)" xlink:href="#b"/><use transform="scale(.5625)" xlink:href="#c"/><use transform="scale(.5625)" xlink:href="#d"/><use transform="scale(.5625)" xlink:href="#e"/><use transform="scale(.5625)" xlink:href="#f"/><use transform="matrix(.47298 0 0 .41234 5.75 15.3)" xlink:href="#g"/></svg>