<svg xmlns="http://www.w3.org/2000/svg" xmlns:xlink="http://www.w3.org/1999/xlink" preserveAspectRatio="none" viewBox="0 0 72 72"><defs><path fill="#232020" d="M105.4 69.2q.6-13.7.6-24.1l-84 .3q0 11.45.8 25.7 1.65 28.5 5.7 42.45l72.6-.3q3.05-16.65 4.3-44.05z" id="a"/><path fill="#232020" d="M106 46.15q0-16.35-12.3-27.95Q81.4 6.65 64 6.65q-17.45 0-29.7 11.55Q22 29.75 22 46.15 22 62.5 34.3 74.1 46.6 85.65 64 85.65q17.35 0 29.7-11.55Q106 62.5 106 46.15z" id="b"/><path fill="#7E57C2" d="M34.2 100.7q-13.8 6.15-13.8 17.4v9.9h87.15v-9.9q0-10.75-13.45-17.1-12.15-5.75-29.8-5.75-18.05.05-30.1 5.45z" id="c"/><path fill="#563E37" d="M73 90.25H54.85v9.6q0 3.25 2.4 5.55 2.45 2.3 5.85 2.3h1.65q3.4 0 5.85-2.3 2.4-2.3 2.4-5.55v-9.6z" id="d"/><path fill="#8E726A" d="M83.65 86.25Q94.6 76.85 94.6 59q0-21.85-6.25-32.65Q81 13.6 63.85 13.6t-24.5 12.75q-6.2 10.8-6.2 32.65 0 17.85 10.95 27.25 8.55 7.35 19.75 7.35 11.25 0 19.8-7.35z" id="e"/><path fill="#232020" d="M96.55 26.6q-2.4-4.85-7.65-9.7-10.5-9.7-24.8-9.7t-24.8 9.5q-5.25 4.7-7.65 9.45V55.8q14.1-2.4 27.75-10.9 7.8-4.9 13.65-10.45.25-.2.55-.15.3.05.4.35Q78.7 44.3 88.1 51q4.7 3.35 8.45 4.8V26.6z" id="f"/><path fill="#563E37" d="M69.2 68.9q-.2-.35-.65-.2-2.5.7-4.5.7-1.95 0-4.45-.7-.45-.15-.65.2t-.05.7q.5.85 1.75 1.65 1.65 1 3.4 1 1.8 0 3.45-1 1.25-.8 1.75-1.65.15-.35-.05-.7z" id="g"/><path fill="#563E37" d="M54.35 83.45q-.1.5 2.55-1.65 3.75-3.05 6.9-3.05h.4q3.15 0 6.9 3.05 2.65 2.15 2.55 1.65-.5-2.05-2.9-4.5-3.05-3.15-6.5-3.15h-.5q-3.45 0-6.5 3.15-2.4 2.45-2.9 4.5z" id="h"/><path fill="#444" d="M83.2 60.05q0-2.1-1.25-3.6-1.25-1.55-3-1.55t-3 1.5q-1.25 1.5-1.25 3.65t1.25 3.65q1.25 1.5 3 1.5t3-1.5q1.25-1.5 1.25-3.65z" id="i"/><path fill="#444" d="M53.35 60.05q0-2.1-1.25-3.6-1.25-1.55-3-1.55t-3 1.5q-1.25 1.5-1.25 3.65t1.25 3.65q1.25 1.5 3 1.5t3-1.5q1.25-1.5 1.25-3.65z" id="j"/><path fill="#8E726A" d="M87.95 66.8v-3.1h-46v3.1h46z" id="k"/><path fill-opacity=".259" d="M54.35 83.45q-.1.5 2.55-1.65 3.75-3.05 6.9-3.05h.4q3.15 0 6.9 3.05 2.65 2.15 2.55 1.65-.5-2.05-2.9-4.5-3.05-3.15-6.5-3.15h-.5q-3.45 0-6.5 3.15-2.4 2.45-2.9 4.5z" id="l"/></defs><use xlink:href="#a" transform="scale(.5625)"/><use xlink:href="#b" transform="scale(.5625)"/><use xlink:href="#c" transform="scale(.5625)"/><use xlink:href="#d" transform="scale(.5625)"/><use xlink:href="#e" transform="scale(.5625)"/><use xlink:href="#f" transform="scale(.5625)"/><use xlink:href="#g" transform="scale(.5625)"/><use xlink:href="#h" transform="scale(.5625)"/><use xlink:href="#i" transform="matrix(.5625 0 0 -.5625 0 67.85)"/><use xlink:href="#j" transform="matrix(.5625 0 0 -.5625 0 67.85)"/><use xlink:href="#k" transform="matrix(.5625 0 0 -.5625 0 67.85)"/><use xlink:href="#l" transform="scale(.5625)"/></svg>