<svg xmlns="http://www.w3.org/2000/svg" xmlns:xlink="http://www.w3.org/1999/xlink" preserveAspectRatio="none" viewBox="0 0 72 72"><defs><path fill="#FFA000" d="M105.4 69.2q.6-13.7.6-24.1l-84 .3q0 11.45.8 25.7 1.65 28.5 5.7 42.45l72.6-.3q3.05-16.65 4.3-44.05z" id="a"/><path fill="#FFA000" d="M106 46.15q0-16.35-12.3-27.95Q81.4 6.65 64 6.65T34.3 18.2Q22 29.75 22 46.15 22 62.5 34.3 74.1 46.6 85.65 64 85.65q17.35 0 29.7-11.55Q106 62.5 106 46.15z" id="b"/><path fill="#7E57C2" d="M34.2 100.7q-13.8 6.15-13.8 17.4v9.9h87.15v-9.9q0-10.75-13.45-17.1-12.15-5.75-29.8-5.75-18.05.05-30.1 5.45z" id="c"/><path fill="#7E57C2" d="M39.7 94.4q-1.1-.85-1.45-2.2l-3-12.35-9.15 15.4v13.55h38.2V95.25H42.15q-1.4 0-2.45-.85z" id="d"/><path fill="#E59900" d="M73 90.25H54.85v9.6q0 3.25 2.4 5.55 2.45 2.3 5.85 2.3h1.65q3.4 0 5.85-2.3 2.4-2.3 2.4-5.55v-9.6z" id="e"/><path fill="#FCC21B" d="M83.65 86.25Q94.6 76.85 94.6 59q0-21.85-6.25-32.65Q81 13.6 63.85 13.6t-24.5 12.75q-6.2 10.8-6.2 32.65 0 17.85 10.95 27.25 8.55 7.35 19.75 7.35 11.25 0 19.8-7.35z" id="f"/><path fill="#513F35" d="M54.75 78.15q-.8 0-1.05.5t.25 1.25q.95 1.5 3.35 2.75 3.05 1.6 6.7 1.6 3.6 0 6.65-1.6 2.4-1.3 3.35-2.75.5-.75.25-1.25t-1.05-.5H54.75z" id="g"/><path fill="#E59600" d="M69.05 70.5q-.2-.35-.65-.2-2.3.65-4.5.65-2.15 0-4.45-.65-.45-.15-.7.2-.2.35 0 .65.5.85 1.75 1.65 1.6 1 3.4 1 1.8 0 3.4-1 1.25-.8 1.75-1.65.2-.35 0-.65z" id="h"/><path fill="#FFA000" d="M96.55 26.6q-2.4-4.85-7.65-9.7-10.5-9.7-24.8-9.7t-24.8 9.5q-5.25 4.7-7.65 9.45V55.8q14.1-2.4 27.75-10.9 7.8-4.9 13.65-10.45.25-.2.55-.15.3.05.4.35Q78.7 44.3 88.1 51q4.7 3.35 8.45 4.8V26.6z" id="i"/><path fill="#FAC036" d="M45.05 29.5q.25-.8-.6-1.45-1.8-1.4-3.6-1.1-1.05.15-3.35 1.25-1.6 0-1.3-2.5.2-1.65 1-3.6l4.35-9.9q.6-1.2.45-2.15-.2-.95-1.05-1.35-.8-.4-1.75.35-.8.6-1.2 1.4-2.25 4.25-3.55 7.35-.15.3-.25.3-.45.15-.7-.2l-.15-.35q2.25-8.3 2.6-9.65.95-3.4-.9-4-2.15-.6-3.1 3.05-1.5 5.45-2.65 9.3-.6.55-1.05.2l-.3-.45q.6-3.75 1.55-8.85.35-2.85-1.35-3.2-1.85-.45-2.45 2.8L24 15.7q-.45.85-1.05.65l-.45-.4q.25-2.7.4-5.5.1-1.5-.3-2.1-.35-.65-1.3-.65-.95-.05-1.45.75-.35.6-.55 2.1-1.2 9.6-1.9 12.3-.9 3.5-.3 6.65.5 3.05 2.1 4.35 2.3 1.85 5.4 2.65 3.25.8 6.45.1 1.05-.25 3.85-2.1.15-.1 3.7-2.3 1.4-.4 2.8-.7 1.05-.2 2-.55 1.45-.55 1.65-1.45z" id="j"/><path fill="#FAC036" d="M35.9 33.85L17 25.4q-.6 3.3-.25 8.2.15 2.5.45 4.3l15.35 1.65q.7-2.65 2.1-4.45.7-.9 1.25-1.25z" id="k"/><path fill="#7E57C2" d="M16.5 34.75q-.6.45-.8 1.2l-6.5 30.1q-.7 3.55-.3 6.65l4.1 32.65q2.3 16.8 7.45 22.65H43.5l-4.55-33-5.4-22.05q-.7-2.75-.55-5.9l1.65-28.6q.1-.8-.45-1.4-.5-.6-1.3-.7l-15-1.95q-.75-.1-1.4.35z" id="l"/><path fill="#444" d="M53.5 60.75q0-2.15-1.25-3.65-1.3-1.5-3.05-1.5-1.75 0-3 1.5t-1.25 3.65q0 2.15 1.25 3.65t3 1.5q1.75 0 3.05-1.5 1.25-1.5 1.25-3.65z" id="m"/><path fill="#444" d="M83 60.75q0-2.15-1.25-3.65t-3-1.5q-1.75 0-3.05 1.5-1.25 1.5-1.25 3.65t1.25 3.65q1.25 1.5 3.05 1.5 1.75 0 3-1.5T83 60.75z" id="n"/></defs><use xlink:href="#a" transform="rotate(.078) scale(.56247)"/><use xlink:href="#b" transform="scale(.56245)"/><use xlink:href="#c" transform="rotate(.078) scale(.56247)"/><use xlink:href="#d" transform="rotate(.078) scale(.56247)"/><use xlink:href="#e" transform="rotate(.078) scale(.56247)"/><use xlink:href="#f" transform="scale(.56245)"/><use xlink:href="#g" transform="rotate(.078) scale(.56247)"/><use xlink:href="#h" transform="rotate(.078) scale(.56247)"/><use xlink:href="#i" transform="rotate(.078) scale(.56247)"/><use xlink:href="#j" transform="scale(.56245)"/><use xlink:href="#k" transform="scale(.56245)"/><use xlink:href="#l" transform="rotate(.078) scale(.56247)"/><use xlink:href="#m" transform="scale(.56245)"/><use xlink:href="#n" transform="scale(.56245)"/></svg>