<svg xmlns="http://www.w3.org/2000/svg" xmlns:xlink="http://www.w3.org/1999/xlink" preserveAspectRatio="none" viewBox="0 0 72 72"><defs><path fill="#C48E6A" d="M35.6 3.55l-.75-.75v52.3L36 54l1.1 1.1V2.8l-.7.75q-.2.15-.4.15-.25 0-.4-.15z" id="a"/><path fill="#E0BB95" d="M87.3 71.8q-.75-3.55-4.35-17.35-2.05-8-2.75-16.65L77.25 4.9q-.3-1.4-1.1-2.3l-.35-.45q-1.7-2.2-4.5-2.1-2.8.1-4.4 2.4-.9 1.3-.9 3.25v39.6q2.85 42.3 2.8 47.45-.1 8.95 2.8 11.05 1.5 1 2.95.25 3.6-6.1 7-13.2 6.8-14.2 5.75-19.05z" id="b"/><path fill="#E0BB95" d="M50.75 4.9l-3 32.9Q47.1 46.45 45 54.45q-3.6 13.8-4.35 17.35-1.05 4.85 5.75 19.05 3.4 7.1 7 13.2 1.5.75 2.95-.25 2.9-2.1 2.8-11.05-.05-3.2 1.4-25.65.75-11.2 1.45-21.8V5.7q0-1.85-.95-3.25Q59.5.15 56.7.05q-2.8-.1-4.55 2.1l-.35.45q-.8.95-1.05 2.3z" id="c"/><path fill="#E0BB95" d="M103.3 92.8q-4.2-2.3-10.4-10.55l-5.35-7.85-14.2 31.55q2.25.15 8.95 9.95 3.35 4.9 6.25 9.75 5.4-7.3 9.9-15.05 9.05-15.55 4.85-17.8z" id="d"/><path fill="#E0BB95" d="M77.25 27.6l-.65-11.55q-.8-2.6-3.25-3.7t-4.75.15q-.8.35-1.45 1.1Q66 14.9 66 16.55L66.1 67q.05 17.5-.1 25.25-.1 7.8 3.9 11.2 2 1.75 4 1.9l3.35-77.75z" id="e"/><path fill="#E0BB95" d="M83.6 55.15l-1.3-2.9q-2.6-7.45-4-15.6-.984-5.577-1.05-8.65v-.2q-.06-2.96-1.8-4.7-1.55-1.55-3.9-1.45-2.3.05-3.85 1.7-1.75 1.8-1.7 4.7V94.5q-.1 6.8.8 9.2.45 1.2.9 1l6.2 1.25q4.8 0 8.55-2.95 3.75-3 4.85-7.65l.8-3.3q1.7-14.7-1.85-28.7-1.15-4.4-2.65-8.2z" id="f"/><path fill="#E0BB95" d="M50.7 28q-.063 3.073-1 8.65-1.45 8.15-4.05 15.6l-1.3 2.9q-1.5 3.8-2.65 8.2-3.55 14-1.85 28.7l.8 3.3q1.1 4.65 4.85 7.65 3.75 2.95 8.55 2.95 2.05-.15 4.05-1.65 4-3 3.9-9.8V28.05q.05-2.9-1.7-4.7-1.6-1.65-3.9-1.7-2.35-.1-3.9 1.45-1.74 1.74-1.8 4.7v.2z" id="g"/><path fill="#E0BB95" d="M35.05 82.25q-6.2 8.25-10.4 10.55-4.2 2.25 4.85 17.8 4.55 7.75 9.9 15.05 2.9-4.85 6.25-9.75 6.7-9.8 8.95-9.95L40.4 74.4l-5.35 7.85z" id="h"/><path fill="#00ACC1" d="M72 61.1l-12.15-10-14.6 15.65 4.6 5.25H72V61.1z" id="i"/><path fill="#E0BB95" d="M51.35 16.05L50.7 27.6l10.8 75.5q.15.4.3-.75.25-2.3.15-10.1-.1-7.75-.05-25.25l.1-50.45q0-1.6-1.2-2.95-.65-.75-1.45-1.1-2.3-1.25-4.75-.15t-3.25 3.7z" id="j"/><path fill="#E0BB95" d="M64 20l10.45-5.7q-2.6-3.75-6.45-2.1-4 1.75-4 7.8z" id="k"/><path fill="#C48E6A" d="M72.75 12.25q-.05-.05-1.2-.7-1.1-.35-1.5-.4-.3-.05-.85-.05l-.9.1q-.75.1-1.7.65l-1.5 1.05q-.35.3-.6.7l-.55.65q-.8 1.3-.85 1.45-.15.5-.5 1.4l-.35 1.2-.3 2.2q.1.85.75 1.4.65.55 1.45.45.85-.05 1.35-.7.55-.65.5-1.5V20l-.1-.55-.05-.75.05-.9q.1-.65.1-1.05.25-.75.3-1.15l.25-.55.7-1.1.45-.45q.85-.6 1.1-.7.15-.15.6-.25l.6-.1q.45-.1 1.3 0 1 .3 1.1.35l.5.2 1.05.8.5.5-.9-1.3-.35-.4-.45-.35z" id="l"/><path fill="#E0BB95" d="M51.35 3.2l12.7 4.9q-.95-5.25-5.9-6.95-4.85-1.7-6.8 2.05z" id="m"/><path fill="#C48E6A" d="M65.3 5.95l-.65-1.2-.9-1.25q-1.1-1.1-1.25-1.2l-.7-.55L60.25.9 58.5.3q-.05 0-.85-.15-.3-.1-.9-.1-.55 0-.8.05l-.85.1-.75.2q-.1 0-.65.3-.5.25-.6.35-.75.55-.9.75l-.85 1.4.5-.55q.05-.05.65-.55.15-.15.9-.5l.55-.2 1.3-.15 1.35.25 1.35.5.6.4q.15.05.6.4l.55.45.9 1q.3.35.65 1.05l.45 1 .2.85q.1.25.1.7l.1.6v.2l.1.4q.25.8 1 1.15.75.35 1.55.1.8-.25 1.15-1 .4-.75.1-1.55l-.3-.9q-.3-.75-.4-.9z" id="n"/><path fill="#E0BB95" d="M63.85 8.1L76.5 3.2q-1.9-3.75-6.75-2.05-5 1.7-5.9 6.95z" id="o"/><path fill="#C48E6A" d="M76.5 3.2l-.35-.65q-.05-.25-.5-.7-.15-.2-.85-.8L74.2.7l-.7-.3-.75-.2-.8-.1q-.3-.05-.85-.05L69.35.3l-1.7.6-1.6.85-.7.55q-.25.2-1.25 1.2l-.9 1.25-.65 1.2q-.1.15-.4.9l-.3.9-.1.45q-.05.85.45 1.5.55.65 1.35.7.8.1 1.5-.4.65-.5.75-1.35v-.2l.05-.6q0-.45.1-.7l.65-1.85q.25-.3.7-1.05l.9-1 1.1-.85.65-.4.65-.25q.3-.15.7-.25.6-.15.7-.15l1.3-.05q.15 0 .6.15l.6.15q.8.4.9.5.6.5.65.55l.45.55z" id="p"/><path fill="#E0BB95" d="M53.4 14.5L64 20q0-6.2-4.1-7.85-4-1.65-6.5 2.35z" id="q"/><path fill="#C48E6A" d="M64.8 15.65q-.05-.25-.8-1.45l-.6-.7q-.25-.45-.6-.65-.55-.55-1.55-1.1-1.2-.5-1.75-.55-.3-.1-.9-.1h-.45l-.4.1q-.2 0-1.55.4-1.05.65-1.15.75l-.45.4-.85 1.1-.35.65.5-.55q.15-.25.6-.5l.4-.3.5-.25q.3-.2 1.1-.4 1-.1 1.3-.05h.3l.95.3q.5.2 1.1.7.6.5.85.95l.35.55.25.6q.1.4.3 1.15l.15 1.05L62 20.6q.15.8.85 1.3.65.45 1.5.35.85-.15 1.3-.85.5-.7.35-1.5l-.6-2.85q-.4-.9-.6-1.4z" id="r"/><path fill="#00ACC1" d="M12.45 51.1L0 61.1V72h22.7l4.45-5.25-14.7-15.65z" id="s"/><path fill="#E0BB95" d="M52.7 34.9L64 39q0-6.75-4.7-8.05-4.6-1.25-6.6 3.95z" id="t"/><path fill="#C48E6A" d="M60.45 30.3l-1-.25L58.4 30l-.95.1-.9.25q-.2.05-.8.4-.35.15-.7.45l-.6.5-1.15 1.6q-.25.4-.35.85l-.3.75.45-.65q.15-.4.5-.75.7-.65.85-.8l.5-.4.55-.3q.2-.15.7-.25.3-.15.65-.15l.7-.05.75.05.65.2.65.35.55.4.5.5q.1.15.75 1.15l.4 1.2q.05.4.2 1.1v3.1q.15.8.85 1.3.65.45 1.45.35.8-.15 1.3-.85.5-.65.4-1.5l-.7-3.1q-.1-.35-.65-1.55-.2-.45-.95-1.55-.95-1.1-1.45-1.4l-.85-.55q-.6-.35-.95-.45z" id="u"/><path fill="#E0BB95" d="M64 39l11.55-3.35q-.8-2.7-2.75-4-1.8-1.2-3.85-.75Q64 31.95 64 39z" id="v"/><path fill="#C48E6A" d="M72 30.55l-.9-.4-1-.2q-1.2-.1-2.1.2-.35.05-1.05.35l-.95.55q-.8.6-.8.65l-.75.75q-.75.95-1.05 1.6-.65 1.45-.7 1.6L62.3 37l-.35 2.45q.05.8.7 1.4.6.55 1.45.5.85-.05 1.4-.7.55-.65.5-1.45l-.05-2.75q0-.05.25-1.2l.45-1.2.4-.6q.1-.25.45-.55l.5-.5q.4-.3.6-.35.45-.25 1.45-.45h.75l.7.1.7.25 1.25.75.45.45q.25.25.75.95.3.3.5.8l.4.75-.2-.8q-.15-.55-.35-.9-.45-1-.55-1.15l-.45-.65-.55-.55q-.3-.4-.65-.6-.7-.4-.8-.45z" id="w"/><path fill="#E0BB95" d="M53.7 106.3q2.2.1 4.05-.55 5.95-2.1 6.15-10.8L51.85 106.1l1.85.2z" id="x"/><path fill="#C48E6A" d="M65.9 95l.05-.4q-.05-.85-.65-1.4-.65-.6-1.45-.55-.85.05-1.4.65-.6.6-.55 1.45l.05 1.8q.1.45 0 1.1l-.45 2.7q-.05.15-.55 1.45-.5.9-.85 1.35l-1.1 1.1-1.35.9-1.45.55q-.65.2-1.4.3l-1.2.15-1.75-.05 1.75.4 1.25.1q.7.1 1.5 0 .1 0 1.7-.3 1.5-.5 1.8-.65.6-.3 1.7-1.1l1.4-1.45 1.85-3.3 1.1-4.8z" id="y"/><path fill="#E0BB95" d="M70.25 105.8q2.95 1 5.9.3L64 95q.25 8.7 6.25 10.8z" id="z"/><path fill="#C48E6A" d="M66 94.35q-.15-.8-.85-1.25-.7-.5-1.5-.35-.8.15-1.3.85-.45.65-.35 1.5l.35 1.9q.3 1.15.35 1.3l.45 1.55.8 1.65q.2.45 1.1 1.65.55.7 1.4 1.45 1.1.8 1.7 1.05.3.15 1.75.7 1.5.25 1.7.25.8.1 1.55 0l1.25-.1 1.75-.4-3-.1-1.35-.3-1.45-.6q-1.05-.55-1.35-.85-.45-.3-1.15-1.1l-.85-1.3q-.5-1.3-.55-1.45L66.1 99l-.1-4.65z" id="A"/></defs><use xlink:href="#a"/><use xlink:href="#b" transform="scale(.56248)"/><use xlink:href="#c" transform="scale(.56248)"/><use xlink:href="#d" transform="scale(.56248)"/><use xlink:href="#e" transform="scale(.56248)"/><use xlink:href="#f" transform="scale(.56248)"/><use xlink:href="#g" transform="scale(.56248)"/><use xlink:href="#h" transform="scale(.56248)"/><use xlink:href="#i"/><use xlink:href="#j" transform="scale(.56248)"/><use xlink:href="#k" transform="scale(.56245)"/><use xlink:href="#l" transform="scale(.56245)"/><use xlink:href="#m" transform="scale(.56245)"/><use xlink:href="#n" transform="scale(.56245)"/><use xlink:href="#o" transform="scale(.56245)"/><use xlink:href="#p" transform="scale(.56245)"/><use xlink:href="#q" transform="scale(.56245)"/><use xlink:href="#r" transform="scale(.56245)"/><use xlink:href="#s"/><use xlink:href="#t" transform="scale(.56245)"/><use xlink:href="#u" transform="scale(.56245)"/><use xlink:href="#v" transform="scale(.56245)"/><use xlink:href="#w" transform="scale(.56245)"/><use xlink:href="#x" transform="scale(.56245)"/><use xlink:href="#y" transform="scale(.56245)"/><use xlink:href="#z" transform="scale(.56245)"/><use xlink:href="#A" transform="scale(.56245)"/></svg>