<svg xmlns="http://www.w3.org/2000/svg" xmlns:xlink="http://www.w3.org/1999/xlink" preserveAspectRatio="none" viewBox="0 0 72 72"><defs><path fill="#00ACC1" d="M36 47.5q-7 0-9.4.45Q9 51.3 9 63.9V72h54v-8.1q0-12.6-17.6-15.95-2.4-.45-9.4-.45z" id="a"/><path fill="#99674F" d="M30.15 53q0 2.6 1.75 4.4 1.8 1.85 4.4 1.85 2.55 0 4.3-1.85 1.8-1.8 1.8-4.4v-5.35H30.15V53z" id="b"/><path fill="#99674F" d="M106.9 66.05h-3.6v20.3q4.75 0 7.85-2.4 3.6-2.8 3.6-8.05 0-5.3-3.9-8.1l-3.95-1.75z" id="c"/><path fill="#99674F" d="M24.7 66.05h-3.65l-3.9 1.75q-3.95 2.8-3.95 8.1 0 5.25 3.6 8.05 3.1 2.4 7.9 2.4v-20.3z" id="d"/><path fill="#CC9970" d="M106.75 73.8q0-30.45-8.65-45.45Q87.85 10.6 64 10.6q-23.9 0-34.15 17.75-8.65 15-8.65 45.45 0 25.9 14.6 38.45Q47.05 122 64 122q16.8 0 28.1-9.65 14.65-12.55 14.65-38.55z" id="e"/><path fill="#6D4C41" d="M57.2 19.2q-.35-4.8-4.4-8.4-5.6-4.85-16.4-5.05h-.8q-10.85.2-16.4 5.05-4.1 3.6-4.35 8.4-.05.35-.05.65V31.1q.25-.2.75-.55.3-.3.7-.5l.35-.15.8 5.4q4.45-6.95 5.7-14.55 3.5 2.35 6.45 3.3 2.9 1 6.05.95h.8q5.2-.05 9.55-.55l3.15-.35q.1 0 .15.1l5.35 11.1.8-5.4.35.15q.4.2.7.45l.75.6V19.85v-.65z" id="f"/><path fill="#444" d="M44.8 65.05q-.05 2.2 1.2 3.8 1.25 1.6 3.05 1.6 1.8 0 3.1-1.55 1.3-1.6 1.35-3.8.1-2.75-1.65-4.3-1.7 1.5-3.8 2.15-1.55.5-3.05.65-.2.9-.2 1.45z" id="g"/><path fill="#444" d="M82.55 68.85q1.25-1.6 1.2-3.8-.1-1-.25-1.45-1.5-.15-3.05-.65-2.1-.65-3.8-2.15-1.7 1.55-1.65 4.3.05 2.2 1.35 3.8 1.3 1.55 3.15 1.55 1.8 0 3.05-1.6z" id="h"/><path fill="#513F35" d="M56.1 88.25q.25.5.85.3 3.4-1.1 7.4-1.05 3.9 0 7.25 1.05.6.2.85-.3.2-.5-.2-1.1-.8-1.2-2.7-2.2-2.45-1.3-5.3-1.3-2.85 0-5.3 1.3-1.9 1-2.7 2.2-.35.65-.15 1.1z" id="i"/><path fill="#99674F" d="M59.7 75.5q-.5-.1-.7.25-.2.3 0 .65.5.9 1.8 1.7 1.65 1 3.45 1 1.85 0 3.5-1 1.3-.8 1.8-1.7.2-.35 0-.65-.25-.35-.75-.25-2.25.7-4.55.7t-4.55-.7z" id="j"/></defs><use xlink:href="#a"/><use xlink:href="#b" transform="translate(0 -.05)"/><use xlink:href="#c" transform="matrix(.42715 0 0 .42694 8.85 3.25)"/><use xlink:href="#d" transform="matrix(.42715 0 0 .42694 8.85 3.25)"/><use xlink:href="#e" transform="matrix(.42735 0 0 .42708 8.85 3.6)"/><use xlink:href="#f" transform="translate(.95 2.5) scale(.97975)"/><use xlink:href="#g" transform="translate(0 -.05) scale(.5625)"/><use xlink:href="#h" transform="translate(0 -.05) scale(.5625)"/><use xlink:href="#i" transform="translate(0 -.05) scale(.5625)"/><use xlink:href="#j" transform="translate(0 -.05) scale(.5625)"/></svg>