<svg xmlns="http://www.w3.org/2000/svg" xmlns:xlink="http://www.w3.org/1999/xlink" preserveAspectRatio="none" viewBox="0 0 72 72"><defs><path id="a" fill="#00ACC1" d="M34.2 100.7q-13.8 6.15-13.8 17.4v9.9h87.15v-9.9q0-10.75-13.45-17.1-12.15-5.75-29.8-5.75-18.05.05-30.1 5.45z"/><path id="b" fill="#7A4C32" d="M73 90.25H54.85v9.6q0 3.25 2.4 5.55 2.45 2.3 5.85 2.3h1.65q3.4 0 5.85-2.3 2.4-2.3 2.4-5.55v-9.6z"/><path id="c" fill="#7A4C32" d="M106.9 66.05h-3.6v20.3q4.75 0 7.85-2.4 3.6-2.8 3.6-8.05 0-5.3-3.9-8.1l-3.95-1.75z"/><path id="d" fill="#7A4C32" d="M24.7 66.05h-3.65l-3.9 1.75q-3.95 2.8-3.95 8.1 0 5.25 3.6 8.05 3.1 2.4 7.9 2.4v-20.3z"/><path id="e" fill="#AD6F43" d="M106.75 73.8q0-30.45-8.65-45.45Q87.85 10.6 64 10.6q-23.9 0-34.15 17.75-8.65 15-8.65 45.45 0 25.9 14.6 38.45Q47.05 122 64 122q16.8 0 28.1-9.65 14.65-12.55 14.65-38.55z"/><path id="f" fill="#47352D" d="M57.2 19.2q-.35-4.8-4.4-8.4-5.6-4.85-16.4-5.05h-.8q-10.85.2-16.4 5.05-4.1 3.6-4.35 8.4-.05.35-.05.65V31.1q.25-.2.75-.55.3-.3.7-.5l.35-.15.8 5.4q4.45-6.95 5.7-14.55 3.5 2.35 6.45 3.3 2.9 1 6.05.95h.8q5.2-.05 9.55-.55l3.15-.35q.1 0 .15.1l5.35 11.1.8-5.4.35.15q.4.2.7.45l.75.6V19.85v-.65z"/><path id="g" fill="#7A4C32" d="M54.35 83.45q-.1.5 2.55-1.65 3.75-3.05 6.9-3.05h.4q3.15 0 6.9 3.05 2.65 2.15 2.55 1.65-.5-2.05-2.9-4.5-3.05-3.15-6.5-3.15h-.5q-3.45 0-6.5 3.15-2.4 2.45-2.9 4.5z"/><path id="h" fill="#7A4C32" d="M69.05 70.5q-.2-.35-.65-.2-2.3.65-4.5.65-2.15 0-4.45-.65-.45-.15-.7.2-.2.35 0 .65.5.85 1.75 1.65 1.6 1 3.4 1 1.8 0 3.4-1 1.25-.8 1.75-1.65.2-.35 0-.65z"/><path id="i" fill="#444" d="M53.5 60.75q0-2.15-1.25-3.65-1.3-1.5-3.05-1.5-1.75 0-3 1.5t-1.25 3.65q0 2.15 1.25 3.65t3 1.5q1.75 0 3.05-1.5 1.25-1.5 1.25-3.65z"/><path id="j" fill="#444" d="M83 60.75q0-2.15-1.25-3.65t-3-1.5q-1.75 0-3.05 1.5-1.25 1.5-1.25 3.65t1.25 3.65q1.25 1.5 3.05 1.5 1.75 0 3-1.5T83 60.75z"/><path id="k" fill="#AD6F43" d="M87.95 66.8v-3.1h-46v3.1h46z"/><path id="l" fill-opacity=".259" d="M54.35 83.45q-.1.5 2.55-1.65 3.75-3.05 6.9-3.05h.4q3.15 0 6.9 3.05 2.65 2.15 2.55 1.65-.5-2.05-2.9-4.5-3.05-3.15-6.5-3.15h-.5q-3.45 0-6.5 3.15-2.4 2.45-2.9 4.5z"/></defs><use transform="scale(.56248)" xlink:href="#a"/><use transform="scale(.56248)" xlink:href="#b"/><use transform="matrix(.40439 0 0 .40437 10.05 2.65)" xlink:href="#c"/><use transform="matrix(.40439 0 0 .40437 10.05 2.65)" xlink:href="#d"/><use transform="matrix(.40468 0 0 .4046 10.05 3)" xlink:href="#e"/><use transform="matrix(.92776 0 0 .92822 2.55 2)" xlink:href="#f"/><use transform="scale(.56248)" xlink:href="#g"/><use transform="matrix(.53265 0 0 .5329 1.95 2.35)" xlink:href="#h"/><use transform="matrix(.5326 0 0 .53285 1.95 2.35)" xlink:href="#i"/><use transform="matrix(.5326 0 0 .53285 1.95 2.35)" xlink:href="#j"/><use transform="matrix(.56248 0 0 -.56248 -.5 68.8)" xlink:href="#k"/><use transform="scale(.5625)" xlink:href="#l"/></svg>