<svg xmlns="http://www.w3.org/2000/svg" xmlns:xlink="http://www.w3.org/1999/xlink" preserveAspectRatio="none" viewBox="0 0 72 72"><defs><path fill="#47352D" d="M104.05 70.9q.6-14.4.6-25.4h-81q0 12.2.8 27.2 1.55 30.05 5.45 44.2.958 3.435 1.95 6H98.2q1.118-2.705 1.75-6.3 2.95-16.9 4.1-45.7z" id="a"/><path fill="#444" d="M52.25 68.9q1.25-1.5 1.25-3.7t-1.25-3.75q-1.3-1.55-3.1-1.55t-3.05 1.55Q44.8 63 44.8 65.2t1.3 3.7q1.25 1.55 3.05 1.55 1.8 0 3.1-1.55z" id="b"/><path fill="#444" d="M82.5 68.9q1.25-1.5 1.25-3.7t-1.25-3.75q-1.3-1.55-3.1-1.55-1.85 0-3.1 1.55Q75 63 75 65.2t1.3 3.7q1.25 1.55 3.1 1.55 1.8 0 3.1-1.55z" id="c"/><path fill="#47352D" d="M104.8 45.25q0-15.1-11.85-25.75-11.9-10.65-28.7-10.65-16.75 0-28.65 10.65-11.85 10.7-11.85 25.75 0 15.1 11.85 25.8Q47.5 81.7 64.25 81.7q16.8 0 28.7-10.65 11.85-10.7 11.85-25.8z" id="d"/><path fill="#7E57C2" d="M64 84.55q-12.45 0-16.75.8Q16 91.25 16 113.7v14.35h96V113.7q0-22.45-31.3-28.35-4.25-.8-16.7-.8z" id="e"/><path fill="#7A4C32" d="M31.9 57.4q1.8 1.85 4.4 1.85 2.55 0 4.3-1.85 1.8-1.8 1.8-4.4v-5.35H30.15V53q0 2.6 1.75 4.4z" id="f"/><path fill="#AD6F43" d="M84.5 91.95q11.2-9.65 11.2-27.9 0-22.3-6.4-33.35-7.55-13.05-25.05-13.05T39.2 30.7q-6.35 11-6.35 33.35 0 18.25 11.15 27.9 8.75 7.5 20.25 7.5t20.25-7.5z" id="g"/><path fill="#47352D" d="M97.85 30.9q-2.45-4.95-7.8-9.95Q79.3 11 64.6 11q-14.65 0-25.4 9.7-5.4 4.85-7.85 9.7v30.35Q45.8 58.3 59.8 49.6q8.2-5.1 13.95-10.7.25-.2.55-.15.3.05.45.35Q79.6 49 89.2 55.9q4.8 3.45 8.65 4.9V30.9z" id="h"/><path fill="#513F35" d="M56.1 88.25q.25.5.85.3 3.4-1.1 7.4-1.05 3.9 0 7.25 1.05.6.2.85-.3.2-.5-.2-1.1-.8-1.2-2.7-2.2-2.45-1.3-5.3-1.3-2.85 0-5.3 1.3-1.9 1-2.7 2.2-.35.65-.15 1.1z" id="i"/><path fill="#7A4C32" d="M59.7 75.5q-.5-.1-.7.25-.2.3 0 .65.5.9 1.8 1.7 1.65 1 3.45 1 1.85 0 3.5-1 1.3-.8 1.8-1.7.2-.35 0-.65-.25-.35-.75-.25-2.25.7-4.55.7t-4.55-.7z" id="j"/><path fill="#444" d="M45 63.6q-.2.9-.2 1.45-.05 2.2 1.2 3.8 1.25 1.6 3.05 1.6 1.8 0 3.1-1.55 1.3-1.6 1.35-3.8.1-2.75-1.65-4.3-1.7 1.5-3.8 2.15-1.55.5-3.05.65z" id="k"/><path fill="#444" d="M83.75 65.05q-.1-1-.25-1.45-1.5-.15-3.05-.65-2.1-.65-3.8-2.15-1.7 1.55-1.65 4.3.05 2.2 1.35 3.8 1.3 1.55 3.15 1.55 1.8 0 3.05-1.6 1.25-1.6 1.2-3.8z" id="l"/></defs><use xlink:href="#a" transform="translate(0 -.05) scale(.5625)"/><use xlink:href="#b" transform="translate(0 -.05) scale(.5625)"/><use xlink:href="#c" transform="translate(0 -.05) scale(.5625)"/><use xlink:href="#d" transform="translate(0 -.05) scale(.5625)"/><use xlink:href="#e" transform="translate(0 -.05) scale(.5625)"/><use xlink:href="#f" transform="translate(0 -.05)"/><use xlink:href="#g" transform="translate(0 -.05) scale(.5625)"/><use xlink:href="#h" transform="translate(0 -.05) scale(.5625)"/><use xlink:href="#i" transform="translate(0 -.05) scale(.5625)"/><use xlink:href="#j" transform="translate(0 -.05) scale(.5625)"/><use xlink:href="#k" transform="translate(0 -.05) scale(.5625)"/><use xlink:href="#l" transform="translate(0 -.05) scale(.5625)"/></svg>