<svg xmlns="http://www.w3.org/2000/svg" xmlns:xlink="http://www.w3.org/1999/xlink" preserveAspectRatio="none" viewBox="0 0 72 72"><defs><path fill="#E59600" d="M106.9 66.05h-3.6v20.3q4.75 0 7.85-2.4 3.6-2.8 3.6-8.05 0-5.3-3.9-8.1l-3.95-1.75z" id="a"/><path fill="#E59600" d="M24.7 66.05h-3.65l-3.9 1.75q-3.95 2.8-3.95 8.1 0 5.25 3.6 8.05 3.1 2.4 7.9 2.4v-20.3z" id="b"/><path fill="#FCC21B" d="M106.75 73.8q0-30.45-8.65-45.45Q87.85 10.6 64 10.6q-23.9 0-34.15 17.75-8.65 15-8.65 45.45 0 25.9 14.6 38.45Q47.05 122 64 122q16.8 0 28.1-9.65 14.65-12.55 14.65-38.55z" id="c"/><path fill="#FFA000" d="M63.35 24.5v-.8q-.4-6.25-5.65-10.85-7.2-6.3-21.15-6.5H35.5q-13.95.2-21.1 6.5-5.3 4.6-5.65 10.85-.05.4-.05.8v14.55q.35-.3.95-.75.4-.35.95-.6l.4-.2 1.05 6.95Q17.8 35.5 19.4 25.7q4.55 3 8.3 4.25 3.75 1.25 7.8 1.2h1.05q6.7-.05 12.3-.7l4.1-.45q.1 0 .2.1L60 44.45l1.05-6.95.45.2q.5.25.9.55.65.5.95.8V24.5z" id="d"/><path fill="#444" d="M53.65 60.95q0-2.15-1.25-3.65-1.25-1.55-3.05-1.55-1.75 0-3.05 1.55-1.25 1.5-1.25 3.65t1.25 3.65q1.3 1.5 3.05 1.5 1.8 0 3.05-1.5 1.25-1.5 1.25-3.65z" id="e"/><path fill="#444" d="M83.3 60.95q0-2.15-1.25-3.65-1.25-1.55-3.05-1.55-1.75 0-3 1.55-1.25 1.5-1.25 3.65T76 64.6q1.25 1.5 3 1.5 1.8 0 3.05-1.5 1.25-1.5 1.25-3.65z" id="f"/><path fill="#00ACC1" d="M34.2 100.7q-13.8 6.15-13.8 17.4v9.9h87.15v-9.9q0-10.75-13.45-17.1-12.15-5.75-29.8-5.75-18.05.05-30.1 5.45z" id="g"/><path fill="#E59900" d="M73 90.25H54.85v9.6q0 3.25 2.4 5.55 2.45 2.3 5.85 2.3h1.65q3.4 0 5.85-2.3 2.4-2.3 2.4-5.55v-9.6z" id="h"/><path fill="#444" d="M53.5 60.75q0-2.15-1.25-3.65-1.3-1.5-3.05-1.5-1.75 0-3 1.5t-1.25 3.65q0 2.15 1.25 3.65t3 1.5q1.75 0 3.05-1.5 1.25-1.5 1.25-3.65z" id="i"/><path fill="#444" d="M83 60.75q0-2.15-1.25-3.65t-3-1.5q-1.75 0-3.05 1.5-1.25 1.5-1.25 3.65t1.25 3.65q1.25 1.5 3.05 1.5 1.75 0 3-1.5T83 60.75z" id="j"/><path fill="#E59600" d="M69.05 70.5q-.2-.35-.65-.2-2.3.65-4.5.65-2.15 0-4.45-.65-.45-.15-.7.2-.2.35 0 .65.5.85 1.75 1.65 1.6 1 3.4 1 1.8 0 3.4-1 1.25-.8 1.75-1.65.2-.35 0-.65z" id="k"/><path fill="#513F35" d="M68.3 82.05q0-1.65-1.25-2.65-1.2-.95-3.05-.95-1.85 0-3.05.95-1.3 1-1.3 2.65 0 1.5 1.25 2.15 1.05.5 3.1.5t3.05-.5q1.25-.6 1.25-2.15z" id="l"/><path fill="#FCC21B" d="M125.8 49.15q0-.9-1.1-1.3-1.15-.4-1.65.4-3.8 5.5-5.45 7.2-.85.9-3.7 3.1l-2.7 2-14.15 8.2 5.25 6.5 10.2-4.75q1.55-.7 2.6-2.1 1.05-1.35 1.35-3.05l.3-1.5 7.2-8.4q1.05-1.75 1.4-2.45.45-1.15.45-2.95v-.9z" id="m"/><path fill="#FCC21B" d="M3.75 47.85q-.95.35-1.2 1.3v.9q.1 1.85.55 2.95.05.15 1.25 2.45l7.2 8.4.3 1.5q.3 1.7 1.35 3.05 1.05 1.4 2.6 2.1l10.15 4.75 5.25-6.5-14.15-8.2q-5.05-3.65-6.4-5.1-1.45-1.5-5.4-7.2-.5-.75-1.5-.4z" id="n"/><path fill="#00ACC1" d="M18.1 78.3q.15.7.75 1.1l64.1 42.45 21.85-1.55-8.25-18.15-69.5-37.3q-.6-.3-1.25-.1-.7.2-1.05.85L18.3 76.95q-.35.65-.2 1.35z" id="o"/><path fill="#00ACC1" d="M108.95 79.4q.65-.4.8-1.1.2-.7-.2-1.35l-6.5-11.4q-.35-.6-1-.8-.65-.2-1.3.1l-68.4 36.85L23 120.3l21.85 1.55 64.1-42.45z" id="p"/><path fill="#020202" fill-opacity=".537" d="M25.35 72l10.8-7.75L47.3 72h4.6l-13.85-9.1 11.25-8.15-1.8-.95L19.8 72h5.55z" id="q"/><path fill="#020202" fill-opacity=".537" d="M36 47.65l-1.7-.95-11.65 5.95 1.75 1.15L36 47.65z" id="r"/></defs><use xlink:href="#a" transform="matrix(.42305 0 0 .42305 9.05 1.35)"/><use xlink:href="#b" transform="matrix(.42305 0 0 .42305 9.05 1.35)"/><use xlink:href="#c" transform="matrix(.42313 0 0 .42313 9.05 1.8)"/><use xlink:href="#d" transform="matrix(.75224 0 0 .75224 9.05 1.45)"/><use xlink:href="#e" transform="scale(.5625)"/><use xlink:href="#f" transform="scale(.5625)"/><use xlink:href="#g" transform="scale(.5625)"/><use xlink:href="#h" transform="scale(.5625)"/><use xlink:href="#i" transform="scale(.56248)"/><use xlink:href="#j" transform="scale(.56248)"/><use xlink:href="#k" transform="scale(.5625)"/><use xlink:href="#l" transform="scale(.5625)"/><use xlink:href="#m" transform="scale(.5625)"/><use xlink:href="#n" transform="scale(.5625)"/><use xlink:href="#o" transform="scale(.5625)"/><use xlink:href="#p" transform="scale(.5625)"/><use xlink:href="#q"/><use xlink:href="#r"/></svg>