<svg xmlns="http://www.w3.org/2000/svg" xmlns:xlink="http://www.w3.org/1999/xlink" preserveAspectRatio="none" viewBox="0 0 72 72"><defs><path fill="#FFF" d="M32.2 23.9q-.25-1.9-1.05-2.85-.35-.4-1.1-.9-.8-.55-1.1-.8-.45-.4-.9-1.15-.45-.8-.7-1.25-1.55-2.6-3.55-4.55-2.3-2.35-4.65-2.85-1.95-.3-4.15.45-2.6.95-4.45 2.85-1.95 1.95-2.6 4.5-.05.45-.25 1.3-.15.75-.4 1.25-.25.65-1.1 1.8-1.6 2.45-1.55 6.45 0 3.4 1.25 5.9.95 2.1 3.7 4.9 3.35 3.3 7.15 5.85 4.65 3.15 8.05 2.7 2.6-.4 4.55-2.7 1.8-2.15 2.2-5 .2-1.45.5-1.95.25-.45.8-.95.8-.65.95-.85 1.05-1.15 1-3.05-.05-1.6-.9-3.3-.45-.85-.65-1.3-.4-.8-.6-1.35-.1-.4-.45-3.15m-9.1 14.7q-.1.1-.35 0-1.9-1-2.6-1.7 1.45.35 3.3.7 0 .1-.2.8-.05.15-.15.2z" id="a"/><path fill="#A65C51" d="M110.6 27.85q-8.4-7.7-20.25-7.7-8.8 0-16 4.45-7.1 4.35-10.35 11.6-3.3-7.25-10.4-11.6-7.2-4.45-16-4.45-11.85 0-20.2 7.7Q9 35.6 9 46.5q0 13.45 9.2 23.65 5.55 6.15 20 15.45 9.25 6 13.3 9.3 6.95 5.55 10.35 11.35l.25.6q.55 1.05 1.85 1.05h.1q1.1 0 1.8-1.1.15-.25.15-.4 3.45-5.85 10.4-11.45 4.2-3.45 13.35-9.35 14.45-9.3 20-15.45Q119 59.95 119 46.5q0-10.9-8.4-18.65z" id="b"/></defs><use xlink:href="#a"/><use xlink:href="#b" transform="matrix(.59973 0 0 .6617 -2.3 -6.3)"/></svg>