<svg xmlns="http://www.w3.org/2000/svg" xmlns:xlink="http://www.w3.org/1999/xlink" preserveAspectRatio="none" viewBox="0 0 72 72"><defs><path fill="#FCC21B" d="M127.95 93.45q0-27.05-8.55-47.15Q103.8 9.5 64 9.5q-39.85 0-55.45 36.8Q0 66.4 0 93.45q0 10.4 18.75 17.75 18.7 7.35 45.25 7.35 26.5 0 45.2-7.35 18.75-7.35 18.75-17.75z" id="a"/><path fill="#2F2F2F" d="M113.2 43.7q-17.05-3-29.4-1.3-.05 0-9.5 1.65Q68.7 45 64 45.1q-4.7-.1-10.3-1.05-9.5-1.65-9.55-1.65-12.35-1.7-29.4 1.3-1.35.25-1.65.55-.4.3-.6 1.6-.2 1.6-.2 4.85-.05 1.05.25 1.45.25.35 1.4.95 1.1.55 1.35 1 .45.7.45 2.5 0 12.2 5.3 17.9 4.5 4.9 13.2 5.25 8.25.3 14.8-4.05 6.35-4.25 9.25-11.65 2.1-5.5 3.25-7.65 1.35-2.55 2.45-2.7 1.05.1 2.4 2.7 1.15 2.15 3.25 7.65 2.9 7.4 9.3 11.65 6.5 4.35 14.8 4.05 8.7-.35 13.2-5.25 5.25-5.7 5.25-17.9 0-1.8.45-2.5.25-.45 1.35-1 1.15-.6 1.4-.95.3-.4.25-1.45 0-3.25-.2-4.85-.2-1.3-.6-1.6-.3-.3-1.65-.55m-22.4 2.6q5.65-.2 11.8 1.05 3.15.65 4.05 2.35.95 1.7.85 6.55-.15 8.3-3.05 12.65-3.4 5.1-10.9 5.4-9.45.35-14.6-5.95-2.85-3.5-6-12.6-.8-2.3-.05-3.6.85-1.5 4.15-3 5.7-2.5 13.75-2.85m-65.45 1.05q6.15-1.25 11.8-1.05 8.05.35 13.75 2.85 3.3 1.5 4.15 3 .75 1.3-.05 3.6-3.15 9.1-6 12.6-5.15 6.3-14.6 5.95-7.5-.3-10.9-5.4-2.9-4.35-3.05-12.65-.1-4.9.85-6.6.9-1.65 4.05-2.3z" id="b"/><path fill="#ED6C30" d="M91.75 84q-2.2-2.25-9.6-1Q70.1 85.05 64 85.05q-6.15 0-18.15-2.05-7.45-1.25-9.65 1-.75.8-.9 2.25-.15 1.55.55 2.65 2.6 4 9.6 7.4 8.5 4.15 18.5 4.3 10.05-.15 18.55-4.3 7-3.4 9.55-7.4.75-1.1.6-2.65-.15-1.45-.9-2.25z" id="c"/><path fill="#FFF" d="M35.95 47.8q-2.35 0-6.2-.5v3q0 .8.5 1.35.5.6 1.3.7l2 .3q.95.15 1.7-.5.69-.59.7-1.55.012.96.75 1.55.7.65 1.65.5l2-.3q.8-.1 1.3-.7.55-.55.55-1.35v-3q-3.9.5-6.25.5z" id="d"/><path fill="#2F2F2F" d="M33.75 58.4q.05 4 2.45 6.85 2.45 2.8 5.8 2.75 3.35 0 5.7-2.85 2.35-2.9 2.3-6.9-.05-4-2.45-6.85-2.4-2.85-5.75-2.8-3.35.05-5.75 2.9-2.35 2.9-2.3 6.9z" id="e"/><path fill="#2F2F2F" d="M86.1 68q3.35 0 5.7-2.85 2.4-2.85 2.4-6.85-.05-4-2.4-6.85-2.4-2.85-5.75-2.8-3.35 0-5.75 2.85t-2.4 6.85q.05 4 2.45 6.85 2.4 2.85 5.75 2.8z" id="f"/></defs><use xlink:href="#a" transform="scale(.5625)"/><use xlink:href="#b" transform="scale(.5625)"/><use xlink:href="#c" transform="scale(.5625)"/><use xlink:href="#d"/><use xlink:href="#e" transform="scale(.5625)"/><use xlink:href="#f" transform="scale(.5625)"/></svg>