<svg xmlns="http://www.w3.org/2000/svg" xmlns:xlink="http://www.w3.org/1999/xlink" preserveAspectRatio="none" viewBox="0 0 72 72"><defs><path id="a" fill="#8E726A" d="M55.6 1.5Q54.35.1 52.05.1q-3.9 0-4.25 5.35-.2 3-2.05 24.55-.15.3-.4.4-.55.15-1.15-1-.55-1-1.6-1.65-1.35-.8-2.95-.6-2.1.35-2.85 1.4-.5.65-.95 2.9-.35 1.45-.65.8-1.2-2-1.45-2.25-.55-.6-1.6-1-1.25-.5-2.4-.3-1.55.25-2.8 1.45-1.3 1.2-1.6 2.8-.25 1.4-.95.9-.3-.2-1.2-1.45-.55-.75-1.75-1.05-1.35-.4-2.6.05-3.8 1.3-3.95 4.9-.05 1.5-.45 9.7-.1 8.4 1.6 13.25 1.7 5.1 7.2 8.8 6.05 4 13.55 4 9.35 0 15.9-5.6 6.5-5.55 6.5-13.25 0-3.8-.95-8.7-1.05-5.4-1.15-7.05-.25-6.45-.25-19.5 0-12.55-.05-13.15-.15-2.1-1.2-3.3z"/><path id="b" fill="#8E726A" d="M20.05 19.1q-1.65-6.8-2-8.6-.4-1.95-1.65-2.85-1.15-.8-2.55-.5-1.35.35-2.3 1.5-1 1.3-1 3.1 0 2.1 1.1 9.85.95 6.7 1.6 10.25.8 4.45 1.1 9.15.15 2.3.15 3.8l11.85-3.5.05-8.1-.6.8q-.7.7-1.35.05-.55-.6-1.25-2.2-.7-1.7-1.05-3.55-.5-2.6-2.1-9.2z"/><path id="c" fill="#563E37" d="M55.55 45q.017.16 0 .3-.25.6-.7.75-.663.21-1.4-.75v.25l-.65 19.7q-1.789-.787-5.5-2.4-4.124-1.804-7.15-2.8.006-.048 0-.1l-1.9-11.1q-.068-.432-.35-.7-.362 2.012-1.35.6-.221-.33-.45-.65v.05q-.35.35-.35.85l.05 10.05q-1.126-.04-2 .1l-.5.1q-.4 0-.8.2-.85.35-1.3.65-1.35.85-2.2 2.1-.85 1.5-1.1 2.85-.2 1.25-.1 2.9 0 .5.2 1.4l.1.3v.3l.2.6q.3.45.45 1.15.2.8.4 1.2.707 1.837 1.65 3.4h-.3q-1 0-1.55-.2-2.1-.5-3.45-2.5-1.4-1.85-2.55-5-1.6-4.2-2.7-11-.45-2.2-.6-3.75l-.2-1.45q-.08-.318-.35-.6-.463 1.135-1.4.45-.108-.072-.3-.25-.15.27-.15.6l.1 1.5q0 1.55.3 3.95.65 6.85 2.1 11.65 1.3 3.9 2.75 6.1 1.7 2 2.3 2.5 1.5 1.15 2.8 1.6 1.5.6 2.7.6l2-.1q.6-.1 1.3-.2l.35-.1q.577.533 1.2 1 1.4 1 2.2 1.4 1.6.8 2.3 1L43.8 85q1.65.45 4.1 1.4l2 .7q1.35.45 1.5.6.95.5 1.9 2.2.8 1.45.95 2.9l.05 2-.05.7q-.65 2-.85 2.4-.85 1.85-2.5 3.5-.7.85-2.15 1.9l-.95.6h-.05q-.5.3-.35.9.05.3.4.45.3.15.6.05l1.1-.4q2-.85 3-1.6 2.25-1.7 3.6-4 .9-1.65 1.3-3.2l.2-.9.1-1.9-.1-1q-.4-2.5-1.2-4-1-2.2-3.1-3.6-.6-.35-1.2-.55-.8-.3-.95-.35l-10-3.8q-1.25-.45-1.9-.8-1-.5-1.75-1.1-3.15-2.45-4.75-6.6-.2-.25-.45-1l-.3-1-.15-1.9q-.15-2.1.6-3.15.25-.5 1-1l.7-.35.25-.2.5-.1 1.5.1 1.9.4q2.45.75 7.6 2.9 6.65 2.75 7 2.9 5.25 2.2 5.85 2.5l8.3 3.6q.5.2.85-.15.6-.75 0-1.45-1.1-1.05-3.4-2.65-2.05-1.45-4.4-2.5l-3.05-1.4q.013-.08 0-.2l-.1-3.3q-.3-6-.4-7.35-.15-3.75-.5-7.3l-.3-3.3q0-.335-.2-.6z"/></defs><use xlink:href="#a"/><use xlink:href="#b"/><use transform="translate(14.45 4.4) scale(.5625)" xlink:href="#c"/></svg>