<svg xmlns="http://www.w3.org/2000/svg" xmlns:xlink="http://www.w3.org/1999/xlink" preserveAspectRatio="none" viewBox="0 0 72 72"><defs><path id="a" fill="#FCC21B" d="M127.55 92.35q0-26.95-8.55-47.05Q103.4 8.65 63.75 8.65T8.55 45.3Q0 65.4 0 92.35q0 10.35 18.7 17.7 18.7 7.3 45.05 7.3 26.45 0 45.1-7.3 18.7-7.35 18.7-17.7z"/><path id="b" fill="#FCC21B" d="M109.5 85.95q7.15-2.6 10.35-9.4 3.2-6.75.55-13.75-2.55-7-9.4-10.2-6.85-3.15-14-.6-7.1 2.6-10.3 9.4-3.2 6.75-.65 13.7 2.6 7.05 9.45 10.25 6.85 3.15 14 .6z"/><path id="c" fill="#FCC01C" d="M109.3 85.35q6.8-2.5 9.9-9.05 3.05-6.55.6-13.3-2.55-6.75-9.15-9.75-6.65-3.05-13.45-.6-6.8 2.5-9.9 9-3.05 6.55-.6 13.3 2.55 6.8 9.15 9.85 6.65 3.05 13.45.55z"/><path id="d" fill="#FCBE1C" d="M109.05 84.6q6.6-2.35 9.55-8.6 3-6.25.55-12.8-2.4-6.55-8.75-9.45-6.35-2.95-12.95-.55-6.6 2.3-9.55 8.6-2.95 6.3-.55 12.8 2.4 6.55 8.75 9.45 6.35 2.95 12.95.55z"/><path id="e" fill="#FBBB1D" d="M108.8 84q6.35-2.25 9.2-8.25 2.8-6 .5-12.3-2.35-6.25-8.45-9.05-6.1-2.8-12.4-.55-6.3 2.35-9.1 8.35-2.85 6-.55 12.25 2.3 6.3 8.4 9.05 6.1 2.75 12.4.5z"/><path id="f" fill="#FBB91E" d="M108.55 83.45q6.05-2.2 8.8-8 2.75-5.8.55-11.7-2.15-6-8-8.7-5.85-2.7-11.9-.5-6.1 2.15-8.8 7.95-2.75 5.75-.55 11.75 2.15 6 8 8.7 5.85 2.7 11.9.5z"/><path id="g" fill="#FBB71E" d="M108.4 82.7q5.75-2 8.35-7.55 2.6-5.55.55-11.25-2.2-5.7-7.75-8.3-5.6-2.6-11.35-.5-5.8 2.1-8.4 7.6-2.6 5.5-.5 11.2 2.15 5.75 7.75 8.35 5.55 2.55 11.35.45z"/><path id="h" fill="#FBB51F" d="M108.05 82.1q5.6-1.95 8.1-7.2 2.45-5.3.4-10.8-2-5.45-7.35-7.9t-10.85-.5Q92.8 57.75 90.3 63q-2.45 5.25-.45 10.7 2 5.45 7.35 7.9 5.3 2.45 10.85.5z"/><path id="i" fill="#FAB220" d="M107.9 81.5q5.25-1.9 7.6-6.9 2.4-4.95.5-10.15-1.95-5.25-7-7.55-5.05-2.35-10.3-.45-5.25 1.85-7.6 6.9-2.4 4.95-.5 10.15 1.85 5.2 6.95 7.55 5.05 2.35 10.35.45z"/><path id="j" fill="#FAB020" d="M107.65 80.85q4.95-1.8 7.2-6.55 2.25-4.7.5-9.65-1.8-4.95-6.6-7.15-4.85-2.25-9.8-.45-5 1.8-7.25 6.55-2.25 4.7-.45 9.65t6.6 7.2q4.8 2.2 9.8.4z"/><path id="k" fill="#FAAE21" d="M107.4 80.2q4.7-1.7 6.85-6.2 2.15-4.55.45-9.2-1.7-4.7-6.3-6.8-4.55-2.15-9.3-.4-4.75 1.75-6.85 6.3-2.15 4.5-.45 9.1 1.7 4.7 6.25 6.85 4.6 2.1 9.35.35z"/><path id="l" fill="#FAAC22" d="M107.15 79.6q4.45-1.6 6.45-5.85 2-4.2.4-8.5-1.65-4.4-5.95-6.4-4.3-2-8.75-.4-4.45 1.55-6.45 5.8t-.35 8.7q1.6 4.3 5.9 6.25 4.35 2 8.75.4z"/><path id="m" fill="#F9A922" d="M107 78.95q4.15-1.5 6.05-5.45 1.85-4 .35-8.05-1.5-4.2-5.55-6.1-4.1-1.85-8.3-.35-4.15 1.5-6.05 5.5-1.85 3.95-.35 8.1 1.5 4.1 5.6 6 4.05 1.85 8.25.35z"/><path id="n" fill="#F9A723" d="M106.65 78.35q4-1.4 5.75-5.15 1.75-3.75.25-7.55-1.4-3.9-5.2-5.65-3.8-1.75-7.7-.35-3.9 1.4-5.65 5.15-1.75 3.75-.35 7.65Q95.2 76.25 99 78t7.65.35z"/><path id="o" fill="#F9A524" d="M106.5 77.7q3.65-1.3 5.3-4.8t.35-7.1q-1.3-3.6-4.85-5.2-3.55-1.65-7.25-.3-3.7 1.35-5.3 4.85-1.65 3.45-.25 7.05 1.25 3.6 4.75 5.25 3.55 1.6 7.25.25z"/><path id="p" fill="#F9A324" d="M106.3 77q3.35-1.15 4.85-4.4 1.5-3.2.35-6.6-1.3-3.25-4.55-4.75-3.3-1.5-6.65-.3-3.35 1.15-4.9 4.4-1.5 3.2-.3 6.6 1.3 3.3 4.55 4.8 3.3 1.45 6.65.25z"/><path id="q" fill="#F8A025" d="M106 76.45q3.1-1.1 4.5-4.1 1.45-3 .3-6.1-1.1-3.05-4.15-4.45-3.05-1.35-6.15-.25-3.15 1.1-4.6 4.15-1.4 2.95-.25 6.05 1.15 3.05 4.15 4.45 3.05 1.4 6.2.25z"/><path id="r" fill="#F89E26" d="M105.8 75.85q2.8-1.05 4.1-3.8 1.3-2.75.3-5.55-1.05-2.8-3.8-4.05-2.75-1.3-5.6-.2-2.85 1-4.15 3.7-1.3 2.7-.25 5.55 1.05 2.85 3.8 4.1 2.75 1.3 5.6.25z"/><path id="s" fill="#F89C26" d="M105.55 75.1q2.6-.85 3.75-3.35 1.2-2.5.25-5.05-.85-2.55-3.35-3.65-2.5-1.15-5.15-.25-2.6.9-3.8 3.4-1.15 2.45-.2 5 .9 2.55 3.4 3.7 2.45 1.1 5.1.2z"/><path id="t" fill="#F89A27" d="M105.3 74.5q2.3-.8 3.4-3 1.05-2.25.2-4.55-.9-2.25-3.15-3.3-2.25-1-4.55-.2t-3.35 3.05q-1.1 2.2-.25 4.5.9 2.25 3.15 3.3 2.25 1 4.55.2z"/><path id="u" fill="#F79728" d="M105.05 73.85q2.1-.7 3.05-2.65.95-1.95.15-4.05-.75-2-2.75-2.95-2-.9-4.05-.15-2.1.75-3 2.7-.95 1.95-.2 4T101 73.7q1.95.9 4.05.15z"/><path id="v" fill="#F79528" d="M104.9 73.2q1.8-.55 2.6-2.3.8-1.75.2-3.5-.7-1.75-2.4-2.55-1.7-.8-3.5-.15-1.8.6-2.65 2.3-.85 1.7-.15 3.5.7 1.75 2.4 2.55 1.7.8 3.5.15z"/><path id="w" fill="#F79329" d="M104.55 72.6q1.55-.55 2.25-2.05.65-1.45.1-2.95-.5-1.5-2-2.15-1.5-.7-3-.15-1.5.6-2.15 2.05-.7 1.45-.2 2.95.5 1.5 2 2.15 1.5.7 3 .15z"/><path id="x" fill="#FCC21B" d="M33 52.6q-6.85-3.15-14-.6-7.1 2.6-10.3 9.4-3.2 6.75-.6 13.7 2.55 7.05 9.4 10.25 6.85 3.15 14 .6 7.15-2.6 10.35-9.4 3.2-6.75.55-13.75-2.55-7-9.4-10.2z"/><path id="y" fill="#FCC01C" d="M32.7 53.2q-6.65-3.05-13.55-.55-6.8 2.5-9.9 9-3.05 6.55-.6 13.3 2.55 6.8 9.15 9.85 6.65 3.05 13.45.55 6.85-2.5 9.9-9.05 3.1-6.55.6-13.3-2.45-6.75-9.05-9.8z"/><path id="z" fill="#FCBE1C" d="M32.45 53.75q-6.4-2.95-12.95-.5-6.65 2.4-9.6 8.65-2.95 6.25-.55 12.7 2.45 6.55 8.8 9.45Q24.5 87 31.1 84.6q6.5-2.35 9.5-8.55 3-6.3.6-12.8-2.4-6.55-8.75-9.5z"/><path id="A" fill="#FBBB1D" d="M30.75 84q6.35-2.25 9.2-8.25 2.85-6 .55-12.3-2.3-6.25-8.4-9.05-6.1-2.8-12.4-.55-6.3 2.35-9.15 8.35-2.85 6-.55 12.25t8.35 9.05q6.05 2.75 12.4.5z"/><path id="B" fill="#FBB91E" d="M30.6 83.45q6.05-2.2 8.75-8t.55-11.7q-2.15-6-8-8.7-5.8-2.65-11.9-.5-6.05 2.15-8.75 7.95-2.75 5.75-.55 11.75t8 8.7q5.8 2.7 11.9.5z"/><path id="C" fill="#FBB71E" d="M30.35 82.7q5.75-2 8.4-7.55 2.6-5.55.5-11.25-2.15-5.7-7.75-8.3-5.6-2.6-11.35-.5-5.8 2.1-8.4 7.6-2.6 5.5-.5 11.2 2.15 5.75 7.75 8.35 5.6 2.55 11.35.45z"/><path id="D" fill="#FBB51F" d="M30.1 82.1q5.55-1.95 8.05-7.2 2.45-5.25.55-10.8-2-5.45-7.4-7.9-5.35-2.45-10.8-.5-5.55 2.05-8.05 7.3Q10 68.25 12 73.7q1.95 5.45 7.25 7.9t10.85.5z"/><path id="E" fill="#FAB220" d="M29.85 81.5q5.3-1.9 7.65-6.9 2.4-4.95.5-10.15-1.95-5.25-7-7.55-5.05-2.35-10.3-.45-5.25 1.85-7.6 6.9-2.4 4.95-.5 10.15 1.85 5.25 6.9 7.55 5.1 2.35 10.35.45z"/><path id="F" fill="#FAB020" d="M29.7 80.85q4.9-1.8 7.15-6.55 2.3-4.75.55-9.65-1.8-4.95-6.6-7.15-4.85-2.25-9.8-.45-5 1.8-7.25 6.55-2.25 4.7-.45 9.65t6.6 7.2q4.8 2.2 9.8.4z"/><path id="G" fill="#FAAE21" d="M29.35 80.2q4.75-1.7 6.9-6.2 2.15-4.55.4-9.2-1.7-4.7-6.3-6.8-4.55-2.15-9.3-.4-4.75 1.75-6.85 6.3-2.15 4.5-.45 9.1 1.7 4.7 6.3 6.85 4.55 2.1 9.3.35z"/><path id="H" fill="#FAAC22" d="M29.2 79.6q4.4-1.6 6.4-5.85 2.05-4.25.4-8.5-1.65-4.4-5.95-6.4-4.3-2-8.75-.4-4.45 1.55-6.45 5.8t-.35 8.7q1.65 4.3 5.95 6.25 4.35 2 8.75.4z"/><path id="I" fill="#F9A922" d="M29 78.95q4.15-1.5 6.05-5.45 1.85-4 .35-8.05-1.5-4.2-5.55-6.1Q25.8 57.5 21.6 59t-6.05 5.5q-1.9 3.95-.4 8.1 1.55 4.15 5.6 6 4 1.85 8.25.35z"/><path id="J" fill="#F9A723" d="M28.7 78.35q3.95-1.4 5.75-5.15 1.75-3.75.25-7.55-1.4-3.9-5.2-5.65-3.8-1.75-7.7-.35-3.9 1.4-5.65 5.15-1.75 3.75-.35 7.65 1.45 3.8 5.2 5.55 3.8 1.75 7.7.35z"/><path id="K" fill="#F9A524" d="M28.5 77.7q3.65-1.3 5.35-4.8 1.65-3.5.35-7.1-1.35-3.6-4.9-5.2-3.55-1.65-7.2-.3-3.7 1.35-5.35 4.85-1.65 3.45-.25 7.05 1.3 3.6 4.8 5.25 3.55 1.6 7.2.25z"/><path id="L" fill="#F9A324" d="M28.25 77q3.35-1.15 4.9-4.4 1.5-3.2.35-6.6-1.3-3.25-4.6-4.75t-6.65-.3q-3.35 1.15-4.9 4.4-1.5 3.2-.3 6.6 1.3 3.3 4.55 4.8 3.3 1.45 6.65.25z"/><path id="M" fill="#F8A025" d="M28 76.45q3.15-1.1 4.5-4.1 1.4-3 .25-6.1-1.1-3.1-4.1-4.45-3-1.35-6.15-.25-3.15 1.1-4.55 4.15-1.4 2.95-.25 6.05 1.15 3.1 4.1 4.45 3 1.35 6.2.25z"/><path id="N" fill="#F89E26" d="M27.75 75.85q2.9-1.05 4.15-3.8 1.3-2.75.25-5.55t-3.8-4.05q-2.75-1.3-5.6-.2-2.8 1-4.1 3.7-1.3 2.7-.3 5.55 1.05 2.8 3.8 4.1 2.8 1.3 5.6.25z"/><path id="O" fill="#F89C26" d="M27.6 75.1q2.55-.85 3.7-3.35 1.15-2.5.3-5.05-.9-2.55-3.4-3.65-2.45-1.15-5.1-.25-2.6.9-3.8 3.4-1.15 2.45-.2 5 .85 2.55 3.35 3.7 2.5 1.1 5.15.2z"/><path id="P" fill="#F89A27" d="M27.25 74.5q2.35-.8 3.4-3 1.05-2.25.2-4.55-.9-2.25-3.15-3.3-2.25-1-4.55-.2T19.8 66.5q-1.1 2.2-.25 4.5.9 2.25 3.15 3.3 2.25 1 4.55.2z"/><path id="Q" fill="#F79728" d="M27.1 73.85q2-.7 2.95-2.65.95-1.95.2-4.05-.75-2-2.75-2.95-1.95-.9-4-.15-2.1.75-3.05 2.7-.95 1.95-.2 4T23 73.7q2 .9 4.1.15z"/><path id="R" fill="#F79528" d="M26.85 73.2q1.8-.55 2.6-2.3.85-1.75.2-3.5-.7-1.75-2.4-2.55-1.7-.8-3.5-.15-1.8.6-2.6 2.3-.8 1.7-.15 3.5.65 1.75 2.35 2.55 1.75.8 3.5.15z"/><path id="S" fill="#F79329" d="M26.6 72.6q1.55-.55 2.25-2.05.65-1.45 0-2.95-.5-1.5-2-2.15-1.5-.7-3-.15-1.5.6-2.15 2.05-.65 1.45-.1 2.95.5 1.5 2 2.15 1.5.7 3 .15z"/><path id="T" fill="#2F2F2F" d="M48.6 44.1q-3.2 2.95-7.3 3.9-2.55.75-5.9 1.1-.4 1.6-.4 2.7-.2 4.1 2.25 7.2 2.4 3.05 5.85 3.2 3.45.1 6-2.8t2.7-7.1q.15-5-3.2-8.2z"/><path id="U" fill="#2F2F2F" d="M92.4 49.1q-3.4-.35-5.9-1.1-4.05-.95-7.35-3.9-3.35 3.2-3.15 8.2.1 4.2 2.65 7.1 2.55 2.9 6 2.8 3.55-.15 5.95-3.2 2.35-3.05 2.2-7.2 0-1.1-.4-2.7z"/><path id="V" fill="#2F2F2F" d="M125.4 46.45l-.85-.95q-2-2.3-5.1-2.45-3.15-.2-5.45 1.9l-43.85 38.9q-2.35 2-2.5 5.15-.2 3.15 1.9 5.45l.85.9q2.05 2.3 5.15 2.5 3.1.15 5.45-1.9L124.8 57q2.3-2 2.5-5.1.15-3.15-1.9-5.45z"/><path id="W" fill="#FFF" d="M121.15 48.6q-1.15-1.2-2.75-1.3-1.65-.1-2.9 1L69 89.5q-1.25 1.15-1.35 2.8-.1 1.65 1 2.9l.85.9q1.1 1.3 2.8 1.4 1.65.1 2.85-1.05l46.5-41.2q1.25-1.15 1.35-2.8.1-1.65-1-2.95l-.85-.9z"/><path id="X" fill="#ED6C30" d="M109.5 63.25q1.1-.95 1.2-2.45.1-1.5-.9-2.65-.95-1.1-2.45-1.2-1.5-.1-2.65.9l-33.9 30.1q-1.15.95-1.2 2.45-.1 1.5.9 2.6 1 1.15 2.45 1.25 1.5.1 2.6-.9l33.95-30.1z"/><path id="ac" fill="#FCC21B" d="M89 89.1v-2q-5.95-4.35-13.05-5.6L70 81.1l-4 5-3 14 15 1 11-12z"/><path id="Y" fill="none" stroke="#2F2F2F" stroke-linecap="round" stroke-linejoin="miter" stroke-miterlimit="10" stroke-width="1.5" d="M46.069 42.581l1.968 1.969"/><path id="Z" fill="none" stroke="#2F2F2F" stroke-linecap="round" stroke-linejoin="miter" stroke-miterlimit="10" stroke-width="1.5" d="M51.216 38.025l1.968 1.969"/><path id="aa" fill="none" stroke="#2F2F2F" stroke-linecap="round" stroke-linejoin="miter" stroke-miterlimit="10" stroke-width="1.5" d="M56.531 33.469l1.969 1.968"/><path id="ab" fill="none" stroke="#2F2F2F" stroke-linecap="round" stroke-linejoin="miter" stroke-miterlimit="10" stroke-width="1.5" d="M62.24 28.125l1.97 1.969"/><path id="ad" fill="none" stroke="#2F2F2F" stroke-linecap="round" stroke-linejoin="round" stroke-width="3" d="M24.75 49.8l2.8-1.8q3.8-1.8 9-1.8t9.3 1.95q2.1 1 3.1 1.95"/></defs><use transform="scale(.5625)" xlink:href="#a"/><use transform="scale(.5625)" xlink:href="#b"/><use transform="scale(.5625)" xlink:href="#c"/><use transform="scale(.5625)" xlink:href="#d"/><use transform="scale(.5625)" xlink:href="#e"/><use transform="scale(.5625)" xlink:href="#f"/><use transform="scale(.5625)" xlink:href="#g"/><use transform="scale(.5625)" xlink:href="#h"/><use transform="scale(.5625)" xlink:href="#i"/><use transform="scale(.5625)" xlink:href="#j"/><use transform="scale(.5625)" xlink:href="#k"/><use transform="scale(.5625)" xlink:href="#l"/><use transform="scale(.5625)" xlink:href="#m"/><use transform="scale(.5625)" xlink:href="#n"/><use transform="scale(.5625)" xlink:href="#o"/><use transform="scale(.5625)" xlink:href="#p"/><use transform="scale(.5625)" xlink:href="#q"/><use transform="scale(.5625)" xlink:href="#r"/><use transform="scale(.5625)" xlink:href="#s"/><use transform="scale(.5625)" xlink:href="#t"/><use transform="scale(.5625)" xlink:href="#u"/><use transform="scale(.5625)" xlink:href="#v"/><use transform="scale(.5625)" xlink:href="#w"/><use transform="scale(.5625)" xlink:href="#x"/><use transform="scale(.5625)" xlink:href="#y"/><use transform="scale(.5625)" xlink:href="#z"/><use transform="scale(.5625)" xlink:href="#A"/><use transform="scale(.5625)" xlink:href="#B"/><use transform="scale(.5625)" xlink:href="#C"/><use transform="scale(.5625)" xlink:href="#D"/><use transform="scale(.5625)" xlink:href="#E"/><use transform="scale(.5625)" xlink:href="#F"/><use transform="scale(.5625)" xlink:href="#G"/><use transform="scale(.5625)" xlink:href="#H"/><use transform="scale(.5625)" xlink:href="#I"/><use transform="scale(.5625)" xlink:href="#J"/><use transform="scale(.5625)" xlink:href="#K"/><use transform="scale(.5625)" xlink:href="#L"/><use transform="scale(.5625)" xlink:href="#M"/><use transform="scale(.5625)" xlink:href="#N"/><use transform="scale(.5625)" xlink:href="#O"/><use transform="scale(.5625)" xlink:href="#P"/><use transform="scale(.5625)" xlink:href="#Q"/><use transform="scale(.5625)" xlink:href="#R"/><use transform="scale(.5625)" xlink:href="#S"/><use transform="scale(.5625)" xlink:href="#T"/><use transform="scale(.5625)" xlink:href="#U"/><use transform="scale(.5625)" xlink:href="#V"/><use transform="scale(.5625)" xlink:href="#W"/><use transform="scale(.5625)" xlink:href="#X"/><use xlink:href="#Y"/><use xlink:href="#Z"/><use xlink:href="#aa"/><use xlink:href="#ab"/><use transform="translate(0 .2) scale(.5625)" xlink:href="#ac"/><use xlink:href="#ad"/></svg>