<svg xmlns="http://www.w3.org/2000/svg" xmlns:xlink="http://www.w3.org/1999/xlink" preserveAspectRatio="none" viewBox="0 0 72 72"><defs><path fill="#FADCBC" d="M114.3 37.9q-3.2-2.45-16.5-6.1-12.6-3.4-25.1-5.5-14.05-2.35-19.5-3.1-11.3-1.6-19.6-1.9-9.95-1.05-14.55-.8-8 .4-10.25 6-2.75 6.9-2.85 17.45 0 7.85 2.2 13.5 3.45 8.7 11.45 9.3 2.65-.05 6.55.7 4.15.8 5.95 1.75 1.65.85 6.15 4.85 4.4 3.85 4.75 4.65 3.9 5.75 7.5 9.45 4.4 4.6 9.4 7.5 4 2.3 12.3 7.1 7.55 3.8 15 4.85 3.3.45 7-4.7 3.85-5.35 2.5-9.8 11.15 3.5 15.6 2.25 2.65-.75 4.3-3 1.35-1.85 2.15-4.95 1.7-6.65 2.6-17.5.55-5.95.6-9.3.15-5.15-.45-9.3-1.35-8.9-7.2-13.4z" id="a"/><path fill="#DBA689" d="M96.05 65.85q.7.55 4.25 3.55 2.4 2.05 2.6 1.85 1.05-.75-1.15-3.65-2.25-2.95-7-6.5-5.6-4.15-11.15-6.25-2.85-1.05-6.35-.3-3.7.85-5.6 3.35-.5.65-.4 1.5.1.8.75 1.3.7.55 1.55.45.9-.1 1.25-.8 1.1-1.95 3.9-2.35 2.3-.4 4.3.35 4.55 1.7 8 3.85 1.7 1.1 5.05 3.65z" id="b"/><path fill="#DBA689" d="M87.65 49.2q.4-.35-1-.75-2.45-.75-6.5 1.15-4.25 1.95-6.8 5.3Q71 58 70.5 61.85t.95 7.95q2.25 6.35 14.35 15.1 2 1.4 4.15 2.7 3.55 2.2 4.05 2.6 1.85 1.35 2.7 2.9 1.75.75 7.45 2-2.8-4.3-9.2-8.95-6.15-4-6.8-4.5-11.1-7.95-12.95-13.2-1.3-3.6-.65-7.05.5-2.8 2-4.7 3.25-4.15 8.8-6.45 2.15-.9 2.3-1.05z" id="c"/></defs><use xlink:href="#a" transform="scale(.5625)"/><use xlink:href="#b" transform="scale(.5625)"/><use xlink:href="#c" transform="scale(.5625)"/></svg>