<svg xmlns="http://www.w3.org/2000/svg" xmlns:xlink="http://www.w3.org/1999/xlink" preserveAspectRatio="none" viewBox="0 0 72 72"><defs><path fill="#FCC21B" d="M122 84.85q0-24.55-7.75-42.8Q100.1 8.7 64 8.7T13.75 42.05Q6 60.25 6 84.85 6 94.3 23 101q17 6.65 41 6.65t41-6.65q17-6.7 17-16.15z" id="a"/><path fill="#2F2F2F" d="M45.75 45.5q2.75.4 4.9-1.6 2.2-2 2.6-5.25.4-3.25-1.2-5.7-1.6-2.5-4.3-2.9-2.65-.35-4.9 1.65-2.25 2.05-2.6 5.25-.35 3.2 1.25 5.7t4.25 2.85z" id="c"/><path fill="#2F2F2F" d="M86 48.6q1.9-2.4 1.8-5.65 0-.6-.2-1.6-.2-.55-.6-.7-4.75-2.25-9.3-3.6-.7-.15-1 .3-2.15 2.5-2 5.9.1 3.2 2.1 5.5t4.7 2.2q2.65 0 4.5-2.35z" id="d"/><path fill="#FAC036" d="M33.5 73.75q-.6-2.5-2.2-4.7-.95-1.4-2.75-2.25-1.75-.85-3.65-.85-2.2 0-3.5 1-1.7 1.25-1.8 4.15-.05 1.6.6 5.45.15 1.3.4 3.4-.05 2.35-.55 4.15-.35 1.15-1.2 3.05-.95 2.25-1.25 3.15-.65 2.1-.85 4.45-.55 6.8-.2 10.05.65 5.7 3.95 9.55 3.1 3.45 7.1 5.05 4 1.6 9.6 1.6l2.45-.05q15.25-.9 16.4-5.9.5-1.6-.05-3.3.55-.5 1.05-1.5 1.7-3.65.45-6 .65-.85.7-.9.85-1.4 1.05-3.2.15-1.8-.35-3.3-.15-.35-.2-.5 4.3-.55 9.4-1.6 5.5-1.1 6.95-1.9 1.6-.85 2.5-2.5.95-1.7.8-3.6-.05-1.7-1-3-.9-1.25-2.4-1.8-.95-.4-2.7-.4-2.2 0-8 1l-3.7.6q-7.85 1.15-14.8 1.7-.9 0-2.5.2-4.7.4-5.25.4-1.5 0-2.1-.4-.9-.65-1.3-1.45-.5-1-.5-2.75 0-4.55-.6-7.1z" id="e"/><path fill="#2F2F2F" d="M29.4 65q-2.3-1.05-4.65-1.05-2.7 0-4.7 1.4-2.3 1.7-2.55 5.25-.2 2.15.55 6.25.4 2.2.4 3 0 2.1-.4 3.65-.3 1.05-1.1 2.75-.95 2.25-1.3 3.35-.7 2.3-.9 4.85-.65 7.25-.2 10.7.7 6.05 4.4 10.35 3.3 3.8 7.75 5.65 4.45 1.8 10.45 1.8 1.7 0 2.6-.1 9.95-.55 14.45-2.95 3.05-1.65 3.75-4.45.4-1.7.2-3.35l.7-1.15q1.65-3.45.9-6.5l.25-.35q1.7-2.95 1.25-6.4 4.4-.65 8.6-1.6 4.7-1.05 6.2-1.8 2.15-1.05 3.35-3.25 1.2-2.2 1.1-4.75-.15-2.3-1.4-4.1-1.25-1.75-3.3-2.5-1.5-.5-3.3-.5-2.45 0-8.45 1l-3.7.6q-2.9.45-8.2 1-5.25.55-6.5.7-1.8.2-2.5.2-4.4.4-5.1.4-.9-.1-1-.1-.5-.4-.65-.7-.25-.6-.25-1.8-.1-4.65-.65-7.25-.7-3-2.55-5.65-1.45-1.65-3.55-2.6m-7.1 3.55q1.05-.6 2.45-.6 1.4 0 2.7.6 1.4.6 2.1 1.7 1.35 2 1.9 4.15.55 2.25.6 6.55 0 2.15.7 3.6.65 1.2 2 2.2 1.1.7 3.25.7.6 0 7.9-.7 12.4-1.35 14.9-1.7l6-1q3.7-.6 5.5-.6 1.25 0 2 .3 2.2.8 2.1 3.55-.1 2.65-2.2 3.65-1.5.7-7.2 1.9-5.95 1.2-9.7 1.5-4.5.35-4.5.8-.1.35.9.5 1.6.2 2.1.4 1.35.45 1.5 2.55.15 2.05-.8 3.55-.4.65-1.15 1.05-.55.25-.55.65 0 .3.7 1 .5.7.4 2.1-.15 1.25-.7 2.3-.4.65-.45.7-.25.35-.65.5-.8.25-.5 1.2.4.7.5 1.15.15.75-.1 1.75-.45 1.7-4.45 2.9-3.9 1.1-10.15 1.5l-2.3.1q-5.15 0-8.75-1.4-3.7-1.45-6.45-4.6-2.9-3.3-3.45-8.2-.4-3.3.25-9.9.3-3.15 2.1-7.35 1.6-3.7 1.6-7.65-.6-3.95-.9-6.2-.6-4.15.8-5.2z" id="f"/><path id="b" stroke="#2F2F2F" stroke-width="3" stroke-linejoin="miter" stroke-linecap="round" stroke-miterlimit="10" fill="none" d="M24.901 36.435l2.055-.582q2.606-.583 5.213-.583 8.402 0 13.953 5.888"/></defs><use xlink:href="#a" transform="translate(-3.25 -4.35) scale(.61331)"/><use xlink:href="#b" transform="matrix(1 0 0 1 -.03 -.026)"/><use xlink:href="#c" transform="translate(-3.25 -4.35) scale(.61331)"/><use xlink:href="#d" transform="translate(-3.25 -4.35) scale(.61331)"/><use xlink:href="#e" transform="translate(-3.25 -4.35) scale(.61331)"/><use xlink:href="#f" transform="translate(-3.25 -4.35) scale(.61331)"/></svg>