<svg xmlns="http://www.w3.org/2000/svg" xmlns:xlink="http://www.w3.org/1999/xlink" preserveAspectRatio="none" viewBox="0 0 72 72"><defs><path fill="#AD6F43" d="M88.8 16.1q.15-3.35-2.05-5.55-2.05-2.1-5.1-2.05-3 .05-4.7 2.4-1.45 2.15-1.55 5.5l-.45 38.1q0 1-.6 1.35l-.65.15q-1.4 0-1.4-1.7-.05-12.4.1-44.4-.05-3.45-2-5.7Q68.45 2 65.5 2t-5 2.5q-2.05 2.5-2.05 5.9l-.5 45.1q-.1 1.55-1.45 1.35-1.3-.15-1.3-1.7l.1-36.2q-.3-3.55-2.4-5.25-2-1.55-5-1.2-2.7.3-4.3 2.9-1.45 2.3-1.7 5.8-.05.75-.5 19.6-.45 19.05-.65 22.35l-.1 7.55q-.25 8.3-.7 11.85-.2 1.35-1.7 1.4-1.55 0-2-1.3l.3-21.1q-.1-5.55-2.3-8.35-2.55-3.3-7.7-2.65-2.35.3-4.25 2.8-2.35 3.15-2.25 8.2l-.1 12.4q.15 13.8 1.1 20.8l.85 3.65 2.75 5.8q3.6 6.6 8.15 10.6 6.65 5.75 12.7 7.55 1.4.45 4.3 1.35 2.6.85 4.5 1.2 5.05.95 9.7 1.1 2.8.1 5.05-.05l5-.35q5.5-.65 10.15-2.6 5.05-2.2 8.7-5.6 3.45-3.3 5.75-7.65 1.5-2.85 2.9-7.75 1.55-5.45 2.55-16.65l.75-10.1q.1-2.25.3-44.25-.5-7.6-6.6-7.9-3.3-.15-5.05 1.95-1.2 1.35-1.6 3.55-.2.9-.3 14.3l-.1 13.2q0 .4-.2.8-.35.8-1.25.8-.85 0-1.25-.7l-.2-.7.2-40.2z" id="a"/><path fill="#7A4C32" d="M.75 2Q.25 3 0 4q.2.5.65 1Q1.6 6 3 6q1.4 0 2.35-1 .45-.5.65-1-.25-1-.75-2-1-2-2.25-2T.75 2z" id="c"/><path fill="#7A4C32" d="M.75 2Q.25 3 0 4q.2.5.65 1Q1.6 6 3 6q1.4 0 2.35-1 .45-.5.65-1-.25-1-.75-2-1-2-2.25-2T.75 2z" id="d"/><path fill="#7A4C32" d="M1 2.7Q.35 4 0 5.35.25 6 .9 6.7 2.15 8 4 8q1.9 0 3.15-1.3.6-.7.85-1.35Q7.7 4 7 2.7 5.7 0 4 0 2.35 0 1 2.7z" id="e"/><path fill="#7A4C32" d="M.9 2.35Q.3 3.55 0 4.7q.25.6.8 1.15Q1.9 7 3.5 7q1.65 0 2.75-1.15Q6.8 5.3 7 4.7q-.3-1.15-.85-2.35Q4.95 0 3.5 0T.9 2.35z" id="f"/><path fill="#7A4C32" d="M.75 1q-.5.5-.75 1 .75 1 3 1t3-1q-.25-.5-.75-1-1-1-2.25-1T.75 1z" id="h"/><path fill="#7A4C32" d="M.75 1q-.5.5-.75 1 .75 1 3 1t3-1q-.25-.5-.75-1-1-1-2.25-1T.75 1z" id="i"/><path fill="#7A4C32" d="M.75 1q-.5.5-.75 1 .75 1 3 1t3-1q-.25-.5-.75-1-1-1-2.25-1T.75 1z" id="j"/><path fill="#7A4C32" d="M.75 1q-.5.5-.75 1 .75 1 3 1t3-1q-.25-.5-.75-1-1-1-2.25-1T.75 1z" id="k"/><filter id="b" x="-20%" y="-20%" width="140%" height="140%" color-interpolation-filters="sRGB"><feColorMatrix in="SourceGraphic" values="1 0 0 0 0 0 1 0 0 0 0 0 1 0 0 0 0 0 0.5 0" result="result1"/></filter><filter id="g" x="-20%" y="-20%" width="140%" height="140%" color-interpolation-filters="sRGB"><feColorMatrix in="SourceGraphic" values="1 0 0 0 0 0 1 0 0 0 0 0 1 0 0 0 0 0 0.3 0" result="result1"/></filter></defs><use xlink:href="#a" transform="scale(.5625)"/><use filter="url(#b)" xlink:href="#c" transform="translate(25.3 34.3) scale(.5625)"/><use filter="url(#b)" xlink:href="#d" transform="translate(53.45 36) scale(.5625)"/><use filter="url(#b)" xlink:href="#e" transform="translate(34.3 32.6) scale(.5625)"/><use filter="url(#b)" xlink:href="#f" transform="translate(43.9 33.75) scale(.5625)"/><use filter="url(#g)" xlink:href="#h" transform="translate(54 24.15) scale(.5625)"/><use filter="url(#g)" xlink:href="#i" transform="translate(44.45 20.25) scale(.5625)"/><use filter="url(#g)" xlink:href="#j" transform="translate(34.9 19.65) scale(.5625)"/><use filter="url(#g)" xlink:href="#k" transform="translate(25.3 22.5) scale(.5625)"/></svg>