<svg xmlns="http://www.w3.org/2000/svg" xmlns:xlink="http://www.w3.org/1999/xlink" preserveAspectRatio="none" viewBox="0 0 72 72"><defs><path id="a" fill="#E0BB95" d="M88.35 70.65l-.1-7.55q-.2-3.6-7.35-6.15l-7.1-1.8q.05 1.5-1.3 1.7-1.35.15-1.45-1.4-3.55-.9-7.15-.3-7.15 1.25-7.2 9 0 1.7-1.35 1.7-1.25.1-1.25-1.5 0-2-.25-6.7-.25-5.4-.25-5.55-.1-3.35-1.55-5.5-1.7-2.35-4.7-2.4-3.05-.05-5.1 2.05-2.2 2.2-2.05 5.55l.15 14.4q-.05 1.35-1.4 1.35-.9 0-1.25-.8l-.2-.8q-.1-10.35-.35-11.75-1.15-5.75-6.7-5.5-6.05.3-6.55 7.85-.05 1.05.05 9.05.1 7.75.2 9.65l.75 10.05q1 11.2 2.55 16.65 1.4 4.85 2.95 7.8 2.45 4.6 5.75 7.6 3.5 3.45 8.65 5.65 4.6 1.9 10.15 2.55l5 .4q2.3.15 5.05.05 4.75-.15 9.7-1.1 4.85-.95 8.8-2.55 3.85-1.55 7.35-3.9 2.9-2 5.2-4.65 1.25-1.3 3.05-4.35 1-2.05 1.3-3.1l.4-1.1q.5-1.25-8.05-22.6-.45 1.3-2 1.25-1.5-.05-1.7-1.4-.45-3.55-.7-11.85z"/><path id="b" fill="#E0BB95" d="M89.15 8.95q-.1-3.65-3.8-4.8-4.4-1.35-7.35 1.5-1.471 1.471-3.6 5.45-1.492-3.423-1.7-3.7-2.55-3.8-7.05-2.7-4.8 1.2-5.05 6.2-.15 2.5 1.2 7.1.792 2.64 3.45 13.1-.254.544-.5 1.1-8.05 18.4-8 21v10.9q0 1.75-1.4 1.75-.85 0-1.15-.8l-.1-.85q-3.2 2.4-6.25 5.25-6.05 5.7-5.1 7.85l-1.7 1.05q-.55-1.1-7.8-.4-7.25.7-6.55 2.15l4.5 13.25q2.75 8.6 4.45 13.2l.3.75q.6 1.65 1.15 2.75 1.1 2.5 1.25 2.75 3.75 6.6 10.5 10.1 6.5 3.4 14.2 3.05.3 0 4.6-.1 5.05-.25 9.7-1.4 14.7-3.65 21.6-14.55 1.5-2.45 2.3-5.4 1.1-4.1 1.2-10.1 0-7-1.2-11.25-1.25-4.25-3.15-6.5-1.9-2.2-5.6-3.95l-.1-8.35q-.15-2.95-2.45-9.5-3.65-9.8-6.4-17.75l-1.65-4.8q5.3-14.21 6.1-17.1 1.25-4.55 1.15-6.25z"/><path id="c" fill="#C48E6A" d="M65.25 31.1l-3 6.85q3.1.65 8.9 15.9.35 1 .75.75.35-.2.1-1.25-1.35-5.85-4.2-14.65l-2.55-7.6z"/><path id="d" fill="#C48E6A" d="M92.5 72.7l-.05-4.1q-1.95-.8-4.9-1.7Q81.7 65.05 77 64.35q-2.75-.45-4.2-.65-2.6-.4-4.15-.35-3.85.2-7 1.4-4.1 1.5-6.6 4.55l-1.25 3.5q-.65 4.2 2.15 7.65l1.25 1.1q1.85 1.2 4.75 1.9l1.5.3q1.75.3 3.3.35 5.7.2 8.4.85l3.4 1.3q3.5 1.85 3.95 4.5l-.05 1.3q-.2 1.55-.85 3.05l-.1 1q0 1.1.8 1.3.5.15 1.45-.2t1.6-1q1.05-.95 1.35-3.2.25-.85.05-2.1-.4-2.55-2.55-4.7-.55-.6-1.55-1.35-1.95-1.5-4-2.1-3.3-1-4.25-1.2-2.05-.4-5.9-.6-1.45-.05-3.4-.4-3.85-.65-6.25-2.2-.8-.55-1.3-1.65-1.05-2.2.25-4.75.75-1.55 3-2.95 4.6-2.85 12.4-2.05l6.85 1.6q7.8 2.05 12.45 4.15z"/><path id="e" fill="#C48E6A" d="M53.65 53l.05 23.85.25.85q.45.8 1.4.8t1.25-.85l.1-.85V53q-.95 1.15-2.1.7l-.95-.7z"/><path id="f" fill="#C48E6A" d="M37.3 56.5l.2 20.4.15.8q.35.8 1.3.8.95 0 1.45-.85l.3-.9-.4-20.25q-1.05 1.25-2.1.75l-.9-.75z"/><path id="g" fill="#C48E6A" d="M37.5 76.9q0 3.15 1.6 5.75 2.5 4.05 8 4.05h.15q5.55 0 7.95-4.1 1.55-2.65 1.5-5.85 0-.55-1.5-.6-1.5-.05-1.5.7 0 2.9-1.2 4.7-1.65 2.45-5.3 2.5-3.65-.05-5.3-2.5-1.25-1.9-1.2-4.8 0-.7-1.6-.6-1.6.15-1.6.75z"/><path id="h" fill="#C48E6A" d="M39.1 73.25q-1.6-.05-1.6.7.05 2.9-1.1 4.7-1.6 2.45-5.25 2.5-3.7-.05-5.5-2.55-1.214-1.648-1.45-4 .264 3.565.9 5.2 1.6 3.95 6 3.95h.15q5.5 0 7.9-4.05 1.55-2.6 1.55-5.85 0-.6-1.6-.6z"/><path id="i" fill="#C48E6A" d="M82.8 29.95l-.1-.4-7.7-19.4h-.05q-.258.5-.55 1.05l7.55 21.15q.459-1.24.85-2.4z"/></defs><use transform="scale(.5625)" xlink:href="#a"/><use transform="scale(.5625)" xlink:href="#b"/><use transform="scale(.5625)" xlink:href="#c"/><use transform="scale(.5625)" xlink:href="#d"/><use transform="scale(.5625)" xlink:href="#e"/><use transform="scale(.5625)" xlink:href="#f"/><use transform="scale(.5625)" xlink:href="#g"/><use transform="scale(.5625)" xlink:href="#h"/><use transform="scale(.5625)" xlink:href="#i"/></svg>