<svg xmlns="http://www.w3.org/2000/svg" xmlns:xlink="http://www.w3.org/1999/xlink" preserveAspectRatio="none" viewBox="0 0 72 72"><defs><path id="a" fill="#FCC21B" d="M36 5.6q-22.2 0-30.95 20.5Q.25 37.35.25 52.45q0 5.8 10.45 9.9 10.5 4.1 25.3 4.1t25.25-4.1q10.45-4.1 10.45-9.9 0-15.1-4.8-26.35Q58.2 5.6 36 5.6z"/><path id="b" fill="#2F2F2F" d="M26.65 20.7q-1.45-1.7-3.5-1.65-2 .05-3.4 1.75-1.45 1.8-1.4 4.2.043 2.063 1.1 3.55.136.182.25.3 3.74-.246 7.45-.4.128-.144.2-.3.839-1.447.8-3.3-.05-2.5-1.5-4.15m25.75 0q-1.45-1.7-3.5-1.65-2.05 0-3.4 1.8-1.45 1.7-1.4 4.1.036 1.766.8 3.15.087.156.15.3 3.813.152 7.55.4.117-.122.2-.3 1.1-1.551 1.1-3.65-.05-2.45-1.5-4.15z"/><path id="d" fill="#FCC21B" d="M47.8 44.75q.55.55.75 1.2.4 1.45-.2 2.15-.35.4-.9.65 1.45.2 2 1.4.349.647.5 1.2.097.396.1.95.051.369.05.75 0 .096-.05.15l-.3 2.8q.021.067 0 .1 4.29-5.008 2.55-8.1-1.689-3.1-4.5-3.25m0 0Q47 44 45.5 43.5q-2.75-.95-8.45 1.05-2.9.75-5.15 2.05 2.25-1.3 5.15-2.05 1.4-2.3 1.95-4.4.75-2.05.75-3.9.083-1.654-.15-2.75-.337-3.336-2.95-3.65-2.602-.05-3.95 3.65h-.05q-.372 1.237-1.45 5.45-1.2 4.3-2.95 8.2-1.85 3.85-2.2 7.9-.3 4 1.1 8.05 1.3 4.05 5.9 5.1 4.55 1.05 8.5.05.39-.071.75-.15 2.43-.514 3.65-1.55 3.68-3.422 1.25-7.9-3.757.123-5.75.9 1.993-.777 5.75-.9 2.703.192 2.6-2.25-.004-.14-.05-.3.021-.033 0-.1-.005-.216-.05-.45-.294-1.374-2.4-1.95-5.864-.301-9.4 1.55 3.536-1.851 9.4-1.55.617.045 1.25.1 1.38.023 1.5-.5.05-.054.05-.15.001-.381-.05-.75-.003-.554-.1-.95-.151-.553-.5-1.2-.55-1.2-2-1.4-7.45-1.05-14.1 2.9 6.65-3.95 14.1-2.9.55-.25.9-.65.6-.7.2-2.15-.2-.65-.75-1.2z"/><path id="c" fill="none" stroke="#2F2F2F" stroke-linecap="round" stroke-linejoin="round" stroke-width="3" d="M29.75 37.05q6.4 2.2 12.7 0"/><path id="e" fill="none" stroke="#2F2F2F" stroke-linecap="round" stroke-linejoin="round" stroke-width="2" d="M39 40.15q-.55 2.1-1.95 4.4 5.7-2 8.45-1.05 1.5.5 2.3 1.25 2.811.15 4.525 3.25 1.715 3.092-2.55 8.125.02.136.025.275.103 2.442-2.6 2.275 2.43 4.453-1.25 7.875-1.22 1.036-3.625 1.55-.385.079-.775.15-3.95 1-8.5-.05-4.6-1.05-5.9-5.1-1.4-4.05-1.1-8.05.35-4.05 2.2-7.9 1.75-3.9 2.95-8.2 1.078-4.213 1.475-5.45h.025q1.348-3.7 3.95-3.65 2.613.314 2.95 3.65.233 1.096.15 2.75 0 1.85-.75 3.9zm8.8 4.6q.55.55.75 1.2.4 1.45-.2 2.15-.35.4-.9.65 1.45.2 2 1.4.349.647.5 1.225.097.371.125.95.026.344.025.75 0 .07-.025.125m-.3 2.8q-.004.067 0 .125M37.05 44.55q-2.9.75-5.15 2.05m18.175 6.6q-.146.523-1.525.5-.633-.055-1.25-.1 2.106.576 2.4 1.95.045.234.075.45M47.2 58.675q-3.757.098-5.75.875m5.85-5.95q-5.864-.301-9.4 1.55m9.55-6.4q-7.45-1.05-14.1 2.9"/></defs><use transform="matrix(1.00005 0 0 .99904 .05 -2.35)" xlink:href="#a"/><g><use xlink:href="#b"/><use xlink:href="#c"/></g><g><use xlink:href="#d"/><use xlink:href="#e"/></g></svg>