<svg xmlns="http://www.w3.org/2000/svg" xmlns:xlink="http://www.w3.org/1999/xlink" preserveAspectRatio="none" viewBox="0 0 72 72"><defs><path fill="#232020" d="M105.4 69.2q.6-13.7.6-24.1l-84 .3q0 11.45.8 25.7 1.65 28.5 5.7 42.45l72.6-.3q3.05-16.65 4.3-44.05z" id="a"/><path fill="#7E57C2" d="M11.5 66.45V72h24.65V53.6q-10.15 0-16.9 3.05-7.75 3.45-7.75 9.8z" id="b"/><path fill="#7E57C2" d="M36.15 53.6V72H60.5v-5.55q0-6.05-7.55-9.65-6.85-3.2-16.8-3.2z" id="c"/><path fill="#232020" d="M106 46.15q0-16.35-12.3-27.95Q81.4 6.65 64 6.65T34.3 18.2Q22 29.75 22 46.15 22 62.5 34.3 74.1 46.6 85.65 64 85.65q17.35 0 29.7-11.55Q106 62.5 106 46.15z" id="d"/><path fill="#563E37" d="M73 90.25H54.85v9.6q0 3.25 2.4 5.55 2.45 2.3 5.85 2.3h1.65q3.4 0 5.85-2.3 2.4-2.3 2.4-5.55v-9.6z" id="e"/><path fill="#8E726A" d="M83.65 86.25Q94.6 76.85 94.6 59q0-21.85-6.25-32.65Q81 13.6 63.85 13.6t-24.5 12.75q-6.2 10.8-6.2 32.65 0 17.85 10.95 27.25 8.55 7.35 19.75 7.35 11.25 0 19.8-7.35z" id="f"/><path fill="#444" d="M56 60.75q.95-2 .2-2.25-.25-.1-.9.35-1.1.8-1.4.95-2.3 1.25-4.9 1-2.05-.15-4.05-1.3-.9-.5-1.1.4-.2.9 1.4 2.45 1.6 1.6 3.85 1.9 1.65.25 3.2-.25 2.45-.8 3.7-3.25z" id="g"/><path fill="#444" d="M82.3 62.3q1.6-1.55 1.4-2.5-.2-.85-1.1-.35-1.95 1.15-4.05 1.35-1.15.1-2.55-.2-1.35-.25-2.35-.8-.35-.15-1.4-.9-.65-.5-.95-.35-.7.25.25 2.2 1.2 2.45 3.7 3.25 1.6.5 3.25.2 2.2-.3 3.8-1.9z" id="h"/><path fill="#232020" d="M96.55 26.6q-2.4-4.85-7.65-9.7-10.5-9.7-24.8-9.7t-24.8 9.5q-5.25 4.7-7.65 9.45V55.8q14.1-2.4 27.75-10.9 7.8-4.9 13.65-10.45.25-.2.55-.15.3.05.4.35Q78.7 44.3 88.1 51q4.7 3.35 8.45 4.8V26.6z" id="i"/><path fill="#E49500" d="M69.05 69.6q.15-.35-.05-.7t-.7-.2q-2.4.7-4.45.7-1.95 0-4.45-.7-.45-.15-.7.2-.2.35 0 .7.5.85 1.75 1.65 1.65 1 3.4 1t3.4-1q1.3-.8 1.8-1.65z" id="j"/><path fill="#513F35" d="M56.85 80.55q-2.95.5-2.95 1.25 0 1.2 9.95 1.2t9.95-1.2q0-.8-2.9-1.25-2.75-.45-7.05-.45-4.2 0-7 .45z" id="k"/><path fill-opacity=".537" d="M39.4 62.75q-.35.5-.15 1.1l3 8.1h1.7l-3.6-9.7q-.6 0-.95.5z" id="l"/><path fill="#563E37" d="M55.5 32.8q-1.592.5-1.95 2.1-.264 1.26.45 3.35.218.653.95 2.8-.718-1.548-.95-2-1.884-3.541-4.3-2.3l.05-.05q-1.39.603-1.55 2.1-.147 1.145.65 2.95l1.75 4q-.097-.184-.2-.35-1.073-1.56-1.9-1.9-1.068-.577-2.4.25-.06.04-.1.1-1.189.86-1.1 2.25.02.9.85 2.45.028.048.05.1.402.82 2.45 4.8 2.21 4.428 2.85 6.2.034.08.1.15l1.05 2.25q1.424 3.14 4.55 7.1 1.603 2.007 2.9 3.35h-.05q.264.248.6.3.33.053.6-.1h.05l13.6-7.35v-.05q.32-.154.45-.5.13-.35 0-.7-.848-2.3-.8-4.3l.35-1.75 1.15-2.55 3.1-3.65h.05q.027-.023.05-.05 1.22-1.707.7-2.95.02-.042 0-.1-.457-1.387-2.2-1.55h-.1q-2.743-.104-4.3 1.45-.817.8-2.05 2.9-.049.019-.1 0-.357-.226-.75-1-.677-1.255-1.15-3.1.012-.07 0-.15l-2-10.65q-.266-1.7-1.2-2.55v.05-.05q-.997-1.032-2.45-.8-1.41.17-2.05 1.9-.448 1.206-.25 2.35.01.052 0 .1.088.331.5 3.25.011.091 0 .15-.722-2.07-1.7-4.9-.019-.048-.05-.1-.634-1.903-1.55-2.7h.05q-1.192-1.064-2.7-.55z" id="m"/><path fill="#8E726A" d="M58.8 36.5q-1.1-3.4-3-2.75-2.05.65-.85 4.2.45 1.35 3.1 9.2-.1.75-.65.75l-.55-.2q-3.2-7.15-3.75-8.2-1.35-2.55-2.95-1.85-1.7.7-.4 3.7l3.65 8.3q.15.95-.45 1.1l-.6-.05q-1.7-3-2.8-4.75-.85-1.25-1.45-1.55-.65-.3-1.45.2-.8.55-.75 1.45.05.75.75 2.05.25.55 2.5 4.9 2.25 4.5 2.9 6.3l1.1 2.35q1.4 3.05 4.45 6.9 1.55 1.95 2.8 3.25L74 64.45q-.95-2.6-.85-4.85l.35-1.75 1.3-2.9 3.25-3.75q.9-1.25.55-2.1-.3-.8-1.35-.9-2.3-.1-3.6 1.15-.8.8-2.05 2.95-1.3.95-2.45-1.3-.75-1.4-1.25-3.5l-2-10.65q-.2-1.35-.9-2-.65-.7-1.6-.55-.85.15-1.25 1.25-.35.95-.2 1.85.05.2.5 3.35.35 2.8.75 4.75.05.3 0 .4-.3.4-.7.25l-.35-.25q-1-2.6-3.35-9.4z" id="n"/><path fill="#7E57C2" d="M76.15 64.8q-.15-.7-.75-1.1-.6-.4-1.3-.3l-16 6.3q-.7.1-1.15.65-.4.55-.35 1.25L78.2 128h29.3L76.15 64.8z" id="o"/></defs><use xlink:href="#a" transform="scale(.5625)"/><use xlink:href="#b" transform="translate(.2)"/><use xlink:href="#c" transform="translate(-.2)"/><use xlink:href="#d" transform="scale(.5625)"/><use xlink:href="#e" transform="scale(.5625)"/><use xlink:href="#f" transform="scale(.5625)"/><use xlink:href="#g" transform="scale(.5625)"/><use xlink:href="#h" transform="scale(.5625)"/><use xlink:href="#i" transform="scale(.5625)"/><use xlink:href="#j" transform="scale(.5625)"/><use xlink:href="#k" transform="scale(.5625)"/><use xlink:href="#l"/><use xlink:href="#m" transform="translate(-.2 .4) scale(.5625)"/><use xlink:href="#n" transform="scale(.5625)"/><use xlink:href="#o" transform="scale(.5625)"/></svg>