<svg xmlns="http://www.w3.org/2000/svg" xmlns:xlink="http://www.w3.org/1999/xlink" preserveAspectRatio="none" viewBox="0 0 72 72"><defs><path fill="url(#a)" d="M35.85 4.85q-22.3 0-31.05 20.65Q0 36.75 0 51.95q0 5.85 10.5 9.95 10.5 4.15 25.35 4.15 14.9 0 25.4-4.15 10.5-4.1 10.5-9.95 0-15.2-4.8-26.45Q58.2 4.85 35.85 4.85z" id="b"/><path fill="#2F2F2F" d="M57.2 30.9q-.7-.3-1.45 0l-11.7 5.35q-.75.4-1.55.35-1.05 0-1.55-.55-.05-.1-.65-1.1-.4-.75-1.1-.5-.5.25-.6 1.2-.1.65-.05 1.2.2 1.6.85 2.9.8 1.55 1.7 2.3 1.35 1.35 3.4 2.05 2.1.7 4.35.6 1.8-.05 3.6-.8 4.3-1.8 5.7-5.7 1.1-3.2.05-6.25-.25-.75-1-1.05z" id="e"/><path fill="#2F2F2F" d="M13.25 31.95q-1.1 3.05.05 6.25 1.4 3.9 5.7 5.7 1.8.75 3.55.8 2.25.1 4.4-.6 2.1-.75 3.4-2.05Q31.4 41 32 39.75q.65-1.3.9-2.9.05-.55 0-1.2-.15-.95-.65-1.2-.7-.25-1.1.5-.2.35-.65 1.1-.55.55-1.55.55-.5.05-1.05-.15L15.7 30.9q-.75-.3-1.5 0-.7.3-.95 1.05z" id="f"/><path id="d" stroke="#2F2F2F" stroke-width="1" stroke-linejoin="round" stroke-linecap="round" fill="none" d="M24.1 41.55L47.75 41q.1 0 .25.05.6-.05 1.9-.05 1.6 0 3.55 1.8 1.95 1.75 2 4.5 0 2.75-1.65 4.65-1.75 1.8-3.45 1.85-1.7.1-2.55.05l-22.9.5q-.2.05-.5.05h-2q-1.7 0-3.5-1.7-1.8-1.85-1.9-4.55-.05-2.75 1.85-4.6 1.8-1.85 3.45-1.95 1.3-.05 1.8-.05z"/><linearGradient id="a" gradientUnits="userSpaceOnUse" x1="33.6" y1="34.788" x2="33.6" y2="5.712" spreadMethod="pad"><stop offset="0%" stop-color="#FCC21B"/><stop offset="100%" stop-color="#E75625"/></linearGradient><g id="c"><path fill="#2F2F2F" d="M48 41.05q-.15-.05-.25-.05l-23.65.55q-.5 0-1.8.05-1.65.1-3.45 1.95-1.9 1.85-1.85 4.6.1 2.7 1.9 4.55 1.8 1.7 3.5 1.7h2q.3 0 .5-.05l22.9-.5q.85.05 2.55-.05 1.7-.05 3.45-1.85 1.65-1.9 1.65-4.65-.05-2.75-2-4.5Q51.5 41 49.9 41q-1.3 0-1.9.05m1.65 1.55h.8L50.1 45l1.4-.05v.75l-1.55.05-.3 1.9 1.55-.1.05.75-1.7.1-.4 2.4h-.8l.4-2.4-1.6.1-.35 2.35H46l.3-2.35-1.45.05v-.75l1.55-.1.35-1.8-1.55.05v-.75l1.6-.1.4-2.4.8-.05-.35 2.45 1.6-.1.4-2.4m-7.9.2q1.1-.05 1.7.45.65.5.7 1.45 0 .4-.1.7-.1.35-.3.65-.25.3-.9.85-.5.5-.7.8-.1.35-.1.85v.2l-.8.05v-.3q-.05-.7.15-1.15.2-.4.7-.85.6-.5.75-.75.2-.25.3-.45.05-.25.05-.55 0-.55-.4-.8-.35-.3-1.05-.25-.45 0-.85.1-.4.15-.9.4l-.45-.8q1.05-.55 2.2-.6M27.5 45.85q.55-1.15 1.6-1.8 1.15-.7 2.55-.7 1.15-.05 2.15.4.9.4 1.5 1.35.5.9.55 2.15.05.75-.15 1.4-.25.65-.7 1.05-.4.4-1 .4-.5 0-.75-.25-.4-.2-.5-.7l-.05.05q-.15.45-.55.75-.45.25-1 .3-.85.05-1.35-.55-.5-.55-.55-1.55 0-.75.25-1.3.3-.6.8-.95.6-.35 1.3-.4.35 0 .85.1.5 0 .9.15l-.05 2.75q.05.95.75.9.55 0 .8-.6t.2-1.55q0-1-.45-1.75t-1.15-1.1q-.8-.4-1.8-.35-1.2.05-2.1.6-.85.55-1.3 1.5-.5.95-.45 2.25.1 1.65 1 2.5.9.9 2.6.8 1.2-.05 2.45-.55v.8q-1.1.45-2.4.5-2.05.1-3.2-.95-1.15-1.05-1.25-3.05-.05-1.45.5-2.6m9.8-2.8l1.2-.05-.05 5.9h-.7l-.45-5.85m.4 8.1q-.25-.2-.25-.55-.05-.35.2-.55.15-.25.5-.25t.5.25q.2.1.25.45.05.35-.2.65-.15.2-.55.2-.3 0-.45-.2m3.6-.1q-.25-.2-.25-.6-.05-.75.65-.8.4 0 .5.2.25.2.25.6 0 .35-.15.55-.2.2-.55.25-.3 0-.45-.2m-18.8-7.9l.7-.05.05 1.05q1.05-.05 2.05.35l-.3.8q-.9-.35-1.7-.35l.1 2.35q.9.25 1.35.45.45.3.65.65.2.3.25.8 0 .75-.5 1.25-.55.55-1.6.7l.05 1.25-.75.05-.05-1.2q-.6 0-1.2-.05-.6-.1-1-.25v-.9q.4.15 1.05.3.6.1 1.15.1l-.1-2.4q-1.15-.35-1.7-.75-.45-.5-.5-1.25-.05-.75.5-1.25.6-.5 1.5-.65v-1m1.85 5.55q-.3-.25-.95-.45l.15 2.1q1.1-.25 1.1-1.05-.05-.4-.3-.6m-2.6-3.35q-.2.25-.2.65t.2.65q.3.2.9.4l-.1-2.1q-.5.1-.8.4m10.7 1q-.4-.15-.85-.1-.7 0-1.1.55-.4.5-.35 1.35.1 1.45 1.15 1.35 1.1-.05 1.15-1.75v-1.4m15.1-.5l-.35 1.85 1.65-.05.3-1.9-1.6.1z"/><path fill="#FFF" d="M23.2 43.1l-.7.05v1q-.9.15-1.5.65-.55.5-.5 1.25.05.75.5 1.25.55.4 1.7.75l.1 2.4q-.55 0-1.15-.1-.65-.15-1.05-.3v.9q.4.15 1 .25.6.05 1.2.05l.05 1.2.75-.05-.05-1.25q1.05-.15 1.6-.7.5-.5.5-1.25-.05-.5-.25-.8-.2-.35-.65-.65-.45-.2-1.35-.45l-.1-2.35q.8 0 1.7.35l.3-.8q-1-.4-2.05-.35l-.05-1.05M21.55 46q0-.4.2-.65.3-.3.8-.4l.1 2.1q-.6-.2-.9-.4-.2-.25-.2-.65m1.85 2.25q.65.2.95.45.25.2.3.6 0 .8-1.1 1.05l-.15-2.1m17.65 2.2q0 .4.25.6.15.2.45.2.35-.05.55-.25.15-.2.15-.55 0-.4-.25-.6-.1-.2-.5-.2-.7.05-.65.8m-3.6.15q0 .35.25.55.15.2.45.2.4 0 .55-.2.25-.3.2-.65-.05-.35-.25-.45-.15-.25-.5-.25t-.5.25q-.25.2-.2.55M38.5 43l-1.2.05.45 5.85h.7l.05-5.9m-9.4 1.05q-1.05.65-1.6 1.8t-.5 2.6q.1 2 1.25 3.05 1.15 1.05 3.2.95 1.3-.05 2.4-.5v-.8q-1.25.5-2.45.55-1.7.1-2.6-.8-.9-.85-1-2.5-.05-1.3.45-2.25.45-.95 1.3-1.5.9-.55 2.1-.6 1-.05 1.8.35.7.35 1.15 1.1.45.75.45 1.75.05.95-.2 1.55-.25.6-.8.6-.7.05-.75-.9l.05-2.75q-.4-.15-.9-.15-.5-.1-.85-.1-.7.05-1.3.4-.5.35-.8.95-.25.55-.25 1.3.05 1 .55 1.55.5.6 1.35.55.55-.05 1-.3.4-.3.55-.75l.05-.05q.1.5.5.7.25.25.75.25.6 0 1-.4.45-.4.7-1.05.2-.65.15-1.4-.05-1.25-.55-2.15-.6-.95-1.5-1.35-1-.45-2.15-.4-1.4 0-2.55.7m2.5 2.2q.45-.05.85.1v1.4q-.05 1.7-1.15 1.75-1.05.1-1.15-1.35-.05-.85.35-1.35.4-.55 1.1-.55m11.85-3q-.6-.5-1.7-.45-1.15.05-2.2.6l.45.8q.5-.25.9-.4.4-.1.85-.1.7-.05 1.05.25.4.25.4.8 0 .3-.05.55-.1.2-.3.45-.15.25-.75.75-.5.45-.7.85-.2.45-.15 1.15v.3l.8-.05v-.2q0-.5.1-.85.2-.3.7-.8.65-.55.9-.85.2-.3.3-.65.1-.3.1-.7-.05-.95-.7-1.45m7-.65h-.8l-.4 2.4-1.6.1.35-2.45-.8.05-.4 2.4-1.6.1v.75l1.55-.05-.35 1.8-1.55.1v.75l1.45-.05-.3 2.35h.8l.35-2.35 1.6-.1-.4 2.4h.8l.4-2.4 1.7-.1-.05-.75-1.55.1.3-1.9 1.55-.05v-.75l-1.4.05.35-2.4m-3.25 5.1l.35-1.85 1.6-.1-.3 1.9-1.65.05z"/></g></defs><use xlink:href="#b"/><g><use xlink:href="#c"/><use xlink:href="#d"/></g><use xlink:href="#e" transform="matrix(.91302 0 0 .91302 3.15 -4.05)"/><use xlink:href="#f" transform="matrix(.91302 0 0 .91302 3.15 -4.05)"/></svg>