<svg xmlns="http://www.w3.org/2000/svg" xmlns:xlink="http://www.w3.org/1999/xlink" preserveAspectRatio="none" viewBox="0 0 72 72"><defs><path fill="#FCC21B" d="M36 5.6q-22.2 0-30.95 20.5Q.25 37.35.25 52.45q0 5.8 10.45 9.9 10.5 4.1 25.3 4.1t25.25-4.1q10.45-4.1 10.45-9.9 0-15.1-4.8-26.35Q58.2 5.6 36 5.6z" id="a"/><path fill="#2F2F2F" d="M51.6 41.15q-.2.05-3 .6-5.7 1.15-12.4 1.15-6.75 0-12.4-1.15-2.8-.55-3-.6-1.75-.15-2.9.6-1.6 1.1-.65 4.4.95 3.3 3.55 6.05 2.4 2.45 5.4 4 4.55 2.4 10 2.4t10-2.4q3-1.55 5.35-4 2.65-2.75 3.6-6.05.95-3.3-.7-4.4-1.1-.75-2.85-.6z" id="d"/><path fill="#D7598B" d="M40.1 41.5q-4.851 1.813-8.65 2.2v11.5-11.5l-10 1.35q.267.364 1.85 8.55 0 .1.05.2.15 1 .35 1.8.85 2.25 1.95 3.6 1 1.25 2.35 1.65 1.45.45 3.45.45 2.1 0 3.5-.45 1.35-.45 2.35-1.6 1.1-1.4 1.9-3.7.1-.5.25-1.1.05-.45.2-.85 1.65-9.1.45-12.1z" id="e"/><path id="f" stroke="#2F2F2F" stroke-width="2" stroke-linejoin="round" stroke-linecap="round" fill="none" d="M31.45 43.7v11.5"/><g id="b"><path fill="#FFF" d="M11.1 11.1Q13 9.2 13 6.5q0-2.7-1.9-4.6Q9.2 0 6.5 0 3.8 0 1.9 1.9 0 3.8 0 6.5q0 2.7 1.9 4.6Q3.8 13 6.5 13q2.7 0 4.6-1.9m.4-4.6q0 1.35-.95 2.3-.95.95-2.3.95-.46 0-.9-.1-.774-.224-1.4-.85Q5 7.85 5 6.5q0-1.35.95-2.3.626-.626 1.4-.85.44-.1.9-.1 1.35 0 2.3.95.95.95.95 2.3z"/><path fill="#2F2F2F" d="M10.55 8.8q.95-.95.95-2.3 0-1.35-.95-2.3-.95-.95-2.3-.95-.46 0-.9.1-.774.224-1.4.85Q5 5.15 5 6.5q0 1.35.95 2.3.626.626 1.4.85.44.1.9.1 1.35 0 2.3-.95z"/></g><g id="c"><path fill="#FFF" d="M9.7 27.55q-1.15 4.15 1 7.85 2.15 3.7 6.3 4.8 4.15 1.15 7.9-1 3.65-2.15 4.8-6.3 1.1-4.15-1.05-7.9-2.15-3.65-6.3-4.8-4.15-1.1-7.9 1-3.65 2.2-4.75 6.35M17 33.7q-.5 0-1.05-.15-1.65-.45-2.5-1.95-.9-1.5-.4-3.15.4-1.65 1.9-2.5 1.45-.85 3.1-.4.55.15 1.05.4.9.5 1.5 1.5.85 1.5.4 3.15-.45 1.65-1.9 2.55-1.05.6-2.1.55z"/><path fill="#2F2F2F" d="M15.95 33.55q.55.15 1.05.15 1.05.05 2.1-.55 1.45-.9 1.9-2.55.45-1.65-.4-3.15-.6-1-1.5-1.5-.5-.25-1.05-.4-1.65-.45-3.1.4-1.5.85-1.9 2.5-.5 1.65.4 3.15.85 1.5 2.5 1.95z"/></g></defs><use xlink:href="#a" transform="matrix(.95303 -.25536 .25534 .95341 -10.45 9.85)"/><use xlink:href="#b" transform="matrix(.83878 .5875 -.58731 .83907 41.25 14.4)"/><use xlink:href="#c" transform="matrix(.99997 0 0 .99997 -.15 -.65)"/><g transform="rotate(-15 25.443 47.396)"><use xlink:href="#d"/></g><g transform="translate(0 2)"><use xlink:href="#e"/><use xlink:href="#f"/></g></svg>