<svg xmlns="http://www.w3.org/2000/svg" xmlns:xlink="http://www.w3.org/1999/xlink" preserveAspectRatio="none" viewBox="0 0 72 72"><defs><path fill="#FCC21B" d="M127.75 92.35q0-27-8.5-47Q103.65 8.7 64 8.7 24.3 8.65 8.7 45.3.2 65.35.2 92.35q0 10.4 18.7 17.7 18.65 7.35 45.1 7.35 26.4 0 45.1-7.35 18.65-7.3 18.65-17.7z" id="a"/><path fill="#FCC21B" d="M83.9 94.95q22.6-3.65 32.8-13.45 10.2-9.75 2-19.9-8.3-10.1-30.15-14.65-21.9-4.55-44.5-.85-22.6 3.65-32.8 13.45Q1.1 69.3 9.3 79.45 17.5 89.6 39.35 94.1q21.85 4.55 44.55.85z" id="b"/><path fill="#FCC01C" d="M83.15 94.05q21.75-3.5 31.6-12.95 9.8-9.4 1.9-19.15-7.95-9.75-29-14.15Q66.6 43.45 44.8 47T13.2 59.95q-9.75 9.4-1.85 19.15 7.9 9.75 28.95 14.1 20.95 4.4 42.85.85z" id="c"/><path fill="#FCBE1C" d="M82.4 93.15q20.9-3.4 30.35-12.45 9.45-9.05 1.85-18.4-7.65-9.4-27.9-13.6-20.2-4.2-41.15-.8Q24.6 51.35 15.2 60.4q-9.45 9-1.85 18.35 7.65 9.4 27.85 13.6 20.2 4.2 41.2.8z" id="d"/><path fill="#FBBB1D" d="M81.65 92.2q20.1-3.25 29.15-11.95 9.05-8.65 1.75-17.65-7.3-9-26.75-13.05-19.4-4-39.5-.75-20.1 3.3-29.15 12-9.05 8.65-1.75 17.65 7.3 9 26.7 13.05 19.4 4 39.55.7z" id="e"/><path fill="#FBB91E" d="M108.85 79.85q8.65-8.3 1.65-16.9-7-8.6-25.6-12.5-18.6-3.85-37.85-.7Q27.8 52.9 19.15 61.2q-8.7 8.3-1.7 16.9 7 8.65 25.6 12.5 18.55 3.85 37.85.7 19.25-3.1 27.95-11.45z" id="f"/><path fill="#FBB71E" d="M106.85 79.45q8.3-7.95 1.6-16.15-6.7-8.25-24.5-11.95-17.75-3.7-36.15-.7-18.45 3-26.7 10.95-8.3 7.95-1.6 16.15Q26.2 86 43.95 89.7q17.75 3.7 36.2.7 18.4-3 26.7-10.95z" id="g"/><path fill="#FBB51F" d="M104.85 79.05q7.95-7.6 1.6-15.45-6.4-7.85-23.4-11.4-16.95-3.5-34.5-.65-17.6 2.9-25.5 10.45-7.85 7.6-1.5 15.45 6.4 7.85 23.35 11.35 16.95 3.55 34.5.65 17.55-2.8 25.45-10.4z" id="h"/><path fill="#FAB220" d="M102.9 78.65q7.55-7.25 1.5-14.7-6.1-7.5-22.25-10.85Q66 49.75 49.3 52.5q-16.75 2.7-24.25 9.9-7.55 7.25-1.45 14.7 6.05 7.5 22.2 10.85 16.1 3.35 32.85.6 16.7-2.7 24.25-9.9z" id="i"/><path fill="#FAB020" d="M100.9 78.2q7.2-6.85 1.4-13.9-5.75-7.1-21.1-10.3-15.3-3.2-31.2-.6-15.85 2.6-23 9.45t-1.35 13.9q5.75 7.1 21.05 10.3 15.3 3.2 31.2.6 15.85-2.6 23-9.45z" id="j"/><path fill="#FAAE21" d="M98.95 77.8q6.8-6.5 1.35-13.2-5.45-6.7-20-9.7-14.5-3.05-29.55-.6-15.05 2.5-21.8 8.95-6.7 6.5-1.25 13.2 5.5 6.7 19.95 9.75 14.45 3 29.5.55t21.8-8.95z" id="k"/><path fill="#FAAC22" d="M97 77.4q6.4-6.1 1.25-12.45t-18.85-9.2q-13.7-2.85-27.9-.55-14.2 2.35-20.55 8.45-6.35 6.1-1.2 12.45 5.15 6.35 18.8 9.2 13.7 2.85 27.9.55Q90.6 83.55 97 77.4z" id="l"/><path fill="#F9A922" d="M95.05 77q6-5.75 1.15-11.7-4.85-6-17.75-8.65-12.85-2.7-26.2-.5Q38.9 58.3 32.9 64.1q-6 5.7-1.15 11.65 4.9 5.95 17.75 8.65t26.2.5Q89 82.75 95.05 77z" id="m"/><path fill="#F9A723" d="M93.05 76.6q5.65-5.4 1.1-11-4.55-5.6-16.6-8.1T53 57.05q-12.5 2.05-18.1 7.4-5.65 5.4-1.1 11 4.55 5.6 16.6 8.1 12 2.5 24.55.45 12.45-2 18.1-7.4z" id="n"/><path fill="#F9A524" d="M91.1 76.15q5.25-5 1-10.2-4.25-5.2-15.5-7.55-11.2-2.35-22.85-.45-11.65 1.9-16.9 6.95-5.2 5-1 10.2 4.25 5.2 15.45 7.55 11.25 2.35 22.9.45 11.65-1.9 16.9-6.95z" id="o"/><path fill="#F9A324" d="M89.1 75.75q4.9-4.65.95-9.45-3.95-4.85-14.35-7-10.4-2.2-21.2-.45-10.8 1.8-15.65 6.45t-.95 9.45q3.95 4.85 14.35 7 10.4 2.2 21.2.45 10.8-1.75 15.65-6.45z" id="p"/><path fill="#F8A025" d="M87.1 75.35q4.5-4.3.9-8.75-3.65-4.45-13.2-6.4-9.6-2-19.55-.4-9.95 1.6-14.45 5.9-4.45 4.3-.85 8.75t13.2 6.4q9.6 2 19.55.4 9.95-1.6 14.4-5.9z" id="q"/><path fill="#F89E26" d="M85.15 74.95q4.1-3.95.8-8-3.35-4.1-12.1-5.9-8.75-1.8-17.9-.35-9.1 1.5-13.2 5.45-4.05 3.9-.75 7.95 3.3 4.1 12.05 5.9 8.75 1.8 17.9.35 9.1-1.5 13.2-5.4z" id="r"/><path fill="#F89C26" d="M83.2 74.55q3.7-3.6.7-7.3-3-3.7-10.95-5.35-8-1.65-16.25-.3-8.25 1.35-11.95 4.9-3.7 3.55-.7 7.25T55 79.1q7.95 1.65 16.25.35 8.2-1.35 11.95-4.9z" id="s"/><path fill="#F89A27" d="M81.25 74.1q3.3-3.2.65-6.5-2.7-3.3-9.85-4.8-7.2-1.5-14.6-.3-7.4 1.25-10.7 4.45-3.35 3.15-.65 6.5 2.7 3.3 9.85 4.8 7.1 1.45 14.55.25 7.4-1.2 10.75-4.4z" id="t"/><path fill="#F79728" d="M69.75 77.6q6.55-1.05 9.5-3.9 2.95-2.8.6-5.75-2.4-2.9-8.75-4.25-6.35-1.3-12.9-.25-6.55 1.1-9.5 3.9-2.95 2.85-.55 5.75 2.35 2.9 8.7 4.25 6.35 1.3 12.9.25z" id="u"/><path fill="#F79528" d="M69 76.7q5.7-.95 8.3-3.4 2.55-2.45.45-5.05-2.05-2.55-7.6-3.7-5.5-1.15-11.2-.2-5.7.95-8.3 3.4-2.55 2.45-.5 5 2.1 2.6 7.6 3.75t11.25.2z" id="v"/><path fill="#F79329" d="M68.25 75.75q4.85-.8 7.05-2.9 2.2-2.05.45-4.25-1.8-2.15-6.5-3.15t-9.55-.2q-4.9.85-7.05 2.95-2.2 2.1-.45 4.25 1.75 2.2 6.45 3.15 4.75.95 9.6.15z" id="w"/><path fill="#2F2F2F" d="M99.9 49.25q-.25-1.1-1.2-1.65-.9-.6-1.95-.35-2.5.45-7.8 2.35-8.4 3.05-13.75 6.9-.7.55-.95 1.4-.3.85.05 1.65.35.85 1.1 1.3.75.5 1.65.4.05 0 6.35-.15 7.35.15 12.4 1.9l.65.15q.9.1 1.65-.4.75-.5 1.05-1.35.4-1.05-.1-2.05-.5-.95-1.55-1.3-4.85-1.7-10.45-2.05 5.7-2.4 10.85-3.6 1.1-.25 1.65-1.2.6-.9.35-1.95z" id="x"/><path fill="#2F2F2F" d="M30.1 47.6q-.95.55-1.2 1.65-.2 1.05.35 1.95.55.95 1.6 1.2.35 0 3.35.9 3.95 1.2 7.5 2.7-5.6.35-10.45 2.05-1.05.35-1.5 1.3-.5 1-.15 2.05.3.85 1.1 1.35.75.5 1.65.4L33 63q5.05-1.75 12.4-1.9 3.65-.1 6.35.15 2 .15 2.75-1.7.35-.8.1-1.65-.3-.85-1-1.4-5.4-3.85-13.75-6.9-5.3-1.9-7.8-2.35Q31 47 30.1 47.6z" id="y"/><path fill="#2F2F2F" d="M90.75 92.2q.9.85 2.15.85t2.1-.85q.85-.9.85-2.15t-.85-2.1q-6.8-6.8-17.2-4.5-9.4 2.1-17.6 10.25-.85.85-.85 2.1t.85 2.1q.85.9 2.1.9t2.15-.9q6.3-6.3 13.55-8.25 8-2.2 12.75 2.55z" id="z"/><path fill="#BDBDBD" d="M37.95 34.65q-1.83-1.712-6.35.2Q23.39 38.33 21 39q-1.063.291-12.95 2.6-8.16 1.567-7.8 3.55.21 1.499 1.55 3.05 1.603 1.799 1.85 2.25.599 1.24.6 3.2-.002 2.534.25 3.25.55 1.551 1.9 3.05 1.512 1.734 1.6 1.7-.004.15.05.25.763 1.167 1.05 4.1.327 3.02 1.6 4.25 1.13 1.363 7.8-2.95 6.242-4.025 9.55-7.8 5.22-6.031 8.7-13.6 4.049-8.837 1.2-11.25z" id="A"/><path fill="#EEE" d="M21.3 40.45q-1.354.37-12.95 2.65-6.421 1.212-6.6 1.85.19 1.117 1.2 2.3Q4.747 49.253 5 49.8q.753 1.47.75 3.85.002 2.146.2 2.75.45 1.298 1.6 2.6 1.17 1.34 1.6 1.95.127.053.2.15.925 1.314 1.25 4.75.235 2.275 1.05 3.25.068.047.1.05.563.358 5.95-3.1 6.017-3.9 9.25-7.5 5.06-5.888 8.45-13.25 3.431-7.5 1.6-9.5l-.05-.05q-1.367-.975-4.75.45-8.33 3.541-10.75 4.25-.074.022-.15 0z" id="B"/><path fill="#BDBDBD" d="M28 42.85q-.3-.15-1.05.25-2.2 1.4-8.05 4.25-4.75 2.3-7.95 3.1-.5.1-.65.5-.1.4.75.35 2.05-.1 4.2-.75 1.7-.5 3.95-1.55 2-.9 4.25-2.3 2.5-1.55 4.25-3.15.6-.55.3-.7z" id="C"/><path fill="#BDBDBD" d="M28.25 49q-.3-.05-.85.45-1.85 1.9-6.25 5.6-3.7 3.15-6.35 4.6-.45.2-.5.55 0 .4.8.2 1.8-.5 3.55-1.6 1.3-.85 3.2-2.3 1.6-1.3 3.2-3.05 1.9-2 3.1-3.75.4-.65.1-.7z" id="D"/></defs><use xlink:href="#a" transform="scale(.5625)"/><use xlink:href="#b" transform="scale(.56245)"/><use xlink:href="#c" transform="scale(.56245)"/><use xlink:href="#d" transform="scale(.56245)"/><use xlink:href="#e" transform="scale(.56245)"/><use xlink:href="#f" transform="scale(.56245)"/><use xlink:href="#g" transform="scale(.56245)"/><use xlink:href="#h" transform="scale(.56245)"/><use xlink:href="#i" transform="scale(.56245)"/><use xlink:href="#j" transform="scale(.56245)"/><use xlink:href="#k" transform="scale(.56245)"/><use xlink:href="#l" transform="scale(.56245)"/><use xlink:href="#m" transform="scale(.56245)"/><use xlink:href="#n" transform="scale(.56245)"/><use xlink:href="#o" transform="scale(.56245)"/><use xlink:href="#p" transform="scale(.56245)"/><use xlink:href="#q" transform="scale(.56245)"/><use xlink:href="#r" transform="scale(.56245)"/><use xlink:href="#s" transform="scale(.56245)"/><use xlink:href="#t" transform="scale(.56245)"/><use xlink:href="#u" transform="scale(.56245)"/><use xlink:href="#v" transform="scale(.56245)"/><use xlink:href="#w" transform="scale(.56245)"/><use xlink:href="#x" transform="scale(.5625)"/><use xlink:href="#y" transform="scale(.5625)"/><use xlink:href="#z" transform="scale(.5625)"/><use xlink:href="#A"/><use xlink:href="#B"/><use xlink:href="#C"/><use xlink:href="#D"/></svg>