<svg xmlns="http://www.w3.org/2000/svg" xmlns:xlink="http://www.w3.org/1999/xlink" preserveAspectRatio="none" viewBox="0 0 72 72"><defs><path id="a" fill="#FCC21B" d="M36 5.6q-22.2 0-30.95 20.5Q.25 37.35.25 52.45q0 5.8 10.45 9.9 10.5 4.1 25.3 4.1t25.25-4.1q10.45-4.1 10.45-9.9 0-15.1-4.8-26.35Q58.2 5.6 36 5.6z"/><path id="b" fill="#2F2F2F" d="M51.1 49.4q.45-.15.65-.6.25-.45.05-.9-.15-.45-.55-.65-.45-.25-.9-.1-1.6.55-3.45 1.45-3.75 1.75-6 3.75-.65.55-.3 1.4.4.75 1.3.6.05 0 2.9-.35 3.35-.2 5.75.4l.3.05q.95 0 1.1-.9.15-.45-.1-.85-.25-.45-.7-.55-2.25-.6-5.1-.5 2.55-1.45 5.05-2.25z"/><path id="c" fill="#2F2F2F" d="M51.1 49.4q.45-.15.65-.6.25-.45.05-.9-.15-.45-.55-.65-.45-.25-.9-.1-1.6.55-3.45 1.45-3.75 1.75-6 3.75-.65.55-.3 1.4.4.75 1.3.6.05 0 2.9-.35 3.35-.2 5.75.4l.3.05q.95 0 1.1-.9.15-.45-.1-.85-.25-.45-.7-.55-2.25-.6-5.1-.5 2.55-1.45 5.05-2.25z"/><path id="d" fill="#2F2F2F" d="M36 38.85q-6.354.018-10.95 3.3-5 3.65-6.05 9.55-.4 1.9.55 3.25 1.35 1.8 6.3.75 6.336-1.323 9.9-1.4h.35q3.4 0 10.05 1.4 4.95 1.05 6.3-.75.95-1.35.55-3.25-1.05-5.9-6.05-9.55-4.6-3.3-10.95-3.3z"/><path id="e" fill="#7CB342" d="M36 40.5q-7.881-.008-11.95 5.6-2.427 3.66-2.95 8.4-.513 4.796-.4 10.1h30.6q.1-5.3-.4-10.05-.5-4.8-2.95-8.45Q43.9 40.5 36 40.5z"/><path id="f" fill="#7CB342" d="M10.55 65.45q0 2.2 7.45 3.75 7.45 1.6 18 1.6t18-1.6q7.45-1.55 7.45-3.75T54 61.65q-7.45-1.55-18-1.55t-18 1.55q-7.45 1.6-7.45 3.8z"/><path id="g" fill="#B1C937" d="M-1.95 10.1q-3.4-3.4-8.2-3.4-4.8 0-8.2 3.4-3.4 3.4-3.4 8.2 0 4.8 3.4 8.2 3.4 3.4 8.2 3.4 4.8 0 8.2-3.4 3.4-3.4 3.4-8.2 0-4.8-3.4-8.2z"/><path id="i" fill="#B1C937" d="M-1.95 10.1q-3.4-3.4-8.2-3.4-4.8 0-8.2 3.4-3.4 3.4-3.4 8.2 0 4.8 3.4 8.2 3.4 3.4 8.2 3.4 4.8 0 8.2-3.4 3.4-3.4 3.4-8.2 0-4.8-3.4-8.2z"/><path id="k" fill="#B1C937" d="M-1.95 10.1q-3.4-3.4-8.2-3.4-4.8 0-8.2 3.4-3.4 3.4-3.4 8.2 0 4.8 3.4 8.2 3.4 3.4 8.2 3.4 4.8 0 8.2-3.4 3.4-3.4 3.4-8.2 0-4.8-3.4-8.2z"/><path id="m" fill="#B1C937" d="M-1.95 10.1q-3.4-3.4-8.2-3.4-4.8 0-8.2 3.4-3.4 3.4-3.4 8.2 0 4.8 3.4 8.2 3.4 3.4 8.2 3.4 4.8 0 8.2-3.4 3.4-3.4 3.4-8.2 0-4.8-3.4-8.2z"/><path id="o" fill="#B1C937" d="M-1.95 10.1q-3.4-3.4-8.2-3.4-4.8 0-8.2 3.4-3.4 3.4-3.4 8.2 0 4.8 3.4 8.2 3.4 3.4 8.2 3.4 4.8 0 8.2-3.4 3.4-3.4 3.4-8.2 0-4.8-3.4-8.2z"/><path id="q" fill="#B1C937" d="M-1.95 10.1q-3.4-3.4-8.2-3.4-4.8 0-8.2 3.4-3.4 3.4-3.4 8.2 0 4.8 3.4 8.2 3.4 3.4 8.2 3.4 4.8 0 8.2-3.4 3.4-3.4 3.4-8.2 0-4.8-3.4-8.2z"/><path id="s" fill="#B1C937" d="M-1.95 10.1q-3.4-3.4-8.2-3.4-4.8 0-8.2 3.4-3.4 3.4-3.4 8.2 0 4.8 3.4 8.2 3.4 3.4 8.2 3.4 4.8 0 8.2-3.4 3.4-3.4 3.4-8.2 0-4.8-3.4-8.2z"/><path id="u" fill="#B1C937" d="M-1.95 10.1q-3.4-3.4-8.2-3.4-4.8 0-8.2 3.4-3.4 3.4-3.4 8.2 0 4.8 3.4 8.2 3.4 3.4 8.2 3.4 4.8 0 8.2-3.4 3.4-3.4 3.4-8.2 0-4.8-3.4-8.2z"/><path id="w" fill="#B1C937" d="M-1.95 10.1q-3.4-3.4-8.2-3.4-4.8 0-8.2 3.4-3.4 3.4-3.4 8.2 0 4.8 3.4 8.2 3.4 3.4 8.2 3.4 4.8 0 8.2-3.4 3.4-3.4 3.4-8.2 0-4.8-3.4-8.2z"/><path id="y" fill="#B1C937" d="M-1.95 10.1q-3.4-3.4-8.2-3.4-4.8 0-8.2 3.4-3.4 3.4-3.4 8.2 0 4.8 3.4 8.2 3.4 3.4 8.2 3.4 4.8 0 8.2-3.4 3.4-3.4 3.4-8.2 0-4.8-3.4-8.2z"/><path id="A" fill="#B1C937" d="M-1.95 10.1q-3.4-3.4-8.2-3.4-4.8 0-8.2 3.4-3.4 3.4-3.4 8.2 0 4.8 3.4 8.2 3.4 3.4 8.2 3.4 4.8 0 8.2-3.4 3.4-3.4 3.4-8.2 0-4.8-3.4-8.2z"/><path id="C" fill="#B1C937" d="M-1.95 10.1q-3.4-3.4-8.2-3.4-4.8 0-8.2 3.4-3.4 3.4-3.4 8.2 0 4.8 3.4 8.2 3.4 3.4 8.2 3.4 4.8 0 8.2-3.4 3.4-3.4 3.4-8.2 0-4.8-3.4-8.2z"/><path id="h" fill="none" stroke="#B1C937" stroke-linecap="round" stroke-linejoin="round" stroke-width=".1" d="M42.512 62.005q0 1.025-.732 1.75-.732.726-1.765.726t-1.765-.726q-.732-.725-.732-1.75 0-1.024.732-1.75.732-.725 1.765-.725t1.765.725q.732.726.732 1.75z"/><path id="j" fill="none" stroke="#B1C937" stroke-linecap="round" stroke-linejoin="round" stroke-width=".1" d="M51.512 65.005q0 1.025-.732 1.75-.732.726-1.765.726t-1.765-.726q-.732-.725-.732-1.75 0-1.024.732-1.75.732-.725 1.765-.725t1.765.725q.732.726.732 1.75z"/><path id="l" fill="none" stroke="#B1C937" stroke-linecap="round" stroke-linejoin="round" stroke-width=".1" d="M35.512 56.005q0 1.025-.732 1.75-.732.726-1.765.726t-1.765-.726q-.732-.725-.732-1.75 0-1.024.732-1.75.732-.725 1.765-.725t1.765.725q.732.726.732 1.75z"/><path id="n" fill="none" stroke="#B1C937" stroke-linecap="round" stroke-linejoin="round" stroke-width=".1" d="M31.512 49.005q0 1.025-.732 1.75-.732.726-1.765.726t-1.765-.726q-.732-.725-.732-1.75 0-1.024.732-1.75.732-.725 1.765-.725t1.765.725q.732.726.732 1.75z"/><path id="p" fill="none" stroke="#B1C937" stroke-linecap="round" stroke-linejoin="round" stroke-width=".1" d="M46.512 51.005q0 1.025-.732 1.75-.732.726-1.765.726t-1.765-.726q-.732-.725-.732-1.75 0-1.024.732-1.75.732-.725 1.765-.725t1.765.725q.732.726.732 1.75z"/><path id="r" fill="none" stroke="#B1C937" stroke-linecap="round" stroke-linejoin="round" stroke-width=".1" d="M25.312 63.955q0 1.025-.732 1.75-.732.726-1.765.726t-1.765-.726q-.732-.725-.732-1.75 0-1.024.732-1.75.732-.725 1.765-.725t1.765.725q.732.726.732 1.75z"/><path id="t" fill="none" stroke="#B1C937" stroke-linecap="round" stroke-linejoin="round" stroke-width=".1" d="M30.487 61.477q0 .61-.439 1.043-.439.433-1.059.433-.62 0-1.059-.433-.439-.432-.439-1.043 0-.61.44-1.042.438-.433 1.058-.433.62 0 1.06.433.438.432.438 1.042z"/><path id="v" fill="none" stroke="#B1C937" stroke-linecap="round" stroke-linejoin="round" stroke-width=".1" d="M44.487 56.477q0 .61-.439 1.043-.439.433-1.059.433-.62 0-1.059-.433-.439-.432-.439-1.043 0-.61.44-1.042.438-.433 1.058-.433.62 0 1.06.433.438.432.438 1.042z"/><path id="x" fill="none" stroke="#B1C937" stroke-linecap="round" stroke-linejoin="round" stroke-width=".1" d="M26.487 56.477q0 .61-.439 1.043-.439.433-1.059.433-.62 0-1.059-.433-.439-.432-.439-1.043 0-.61.44-1.042.438-.433 1.058-.433.62 0 1.06.433.438.432.438 1.042z"/><path id="z" fill="none" stroke="#B1C937" stroke-linecap="round" stroke-linejoin="round" stroke-width=".1" d="M36.487 65.477q0 .61-.439 1.043-.439.433-1.059.433-.62 0-1.059-.433-.439-.432-.439-1.043 0-.61.44-1.042.438-.433 1.058-.433.62 0 1.06.433.438.432.438 1.042z"/><path id="B" fill="none" stroke="#B1C937" stroke-linecap="round" stroke-linejoin="round" stroke-width=".1" d="M38.987 48.477q0 .61-.439 1.043-.439.433-1.059.433-.62 0-1.059-.433-.439-.432-.439-1.043 0-.61.44-1.042.438-.433 1.058-.433.62 0 1.06.433.438.432.438 1.042z"/><path id="D" fill="none" stroke="#B1C937" stroke-linecap="round" stroke-linejoin="round" stroke-width=".1" d="M48.487 60.677q0 .61-.439 1.043-.439.433-1.059.433-.62 0-1.059-.433-.439-.432-.439-1.043 0-.61.44-1.042.438-.433 1.058-.433.62 0 1.06.433.438.432.438 1.042z"/></defs><use transform="translate(.05)" xlink:href="#a"/><use transform="translate(-11.5 -36.25) scale(1.32086)" xlink:href="#b"/><use transform="matrix(-1.32086 0 0 1.32086 83.5 -36.25)" xlink:href="#c"/><use xlink:href="#d"/><use transform="translate(0 2.1)" xlink:href="#e"/><use transform="matrix(.88016 0 0 1.17757 4.3 -12.6)" xlink:href="#f"/><g transform="matrix(.21527 0 0 .2134 42.2 58.1)"><use xlink:href="#g"/><use transform="matrix(4.6453 0 0 4.68582 -196 -272.2)" xlink:href="#h"/></g><g transform="matrix(.21527 0 0 .2134 51.2 61.1)"><use xlink:href="#i"/><use transform="matrix(4.6453 0 0 4.68582 -237.8 -286.3)" xlink:href="#j"/></g><g transform="matrix(.21527 0 0 .2134 35.2 52.1)"><use xlink:href="#k"/><use transform="matrix(4.6453 0 0 4.68582 -163.5 -244.1)" xlink:href="#l"/></g><g transform="matrix(.21527 0 0 .2134 31.2 45.1)"><use xlink:href="#m"/><use transform="matrix(4.6453 0 0 4.68582 -144.9 -211.3)" xlink:href="#n"/></g><g transform="matrix(.21527 0 0 .2134 46.2 47.1)"><use xlink:href="#o"/><use transform="matrix(4.6453 0 0 4.68582 -214.6 -220.7)" xlink:href="#p"/></g><g transform="matrix(.21527 0 0 .2134 25 60.05)"><use xlink:href="#q"/><use transform="matrix(4.6453 0 0 4.68582 -116.1 -281.35)" xlink:href="#r"/></g><g transform="matrix(.12915 0 0 .12718 30.3 59.15)"><use xlink:href="#s"/><use transform="matrix(7.7429 0 0 7.86275 -234.6 -465.05)" xlink:href="#t"/></g><g transform="matrix(.12915 0 0 .12718 44.3 54.15)"><use xlink:href="#u"/><use transform="matrix(7.7429 0 0 7.86275 -343 -425.75)" xlink:href="#v"/></g><g transform="matrix(.12915 0 0 .12718 26.3 54.15)"><use xlink:href="#w"/><use transform="matrix(7.7429 0 0 7.86275 -203.6 -425.75)" xlink:href="#x"/></g><g transform="matrix(.12915 0 0 .12718 36.3 63.15)"><use xlink:href="#y"/><use transform="matrix(7.7429 0 0 7.86275 -281.05 -496.5)" xlink:href="#z"/></g><g transform="matrix(.12915 0 0 .12718 38.8 46.15)"><use xlink:href="#A"/><use transform="matrix(7.7429 0 0 7.86275 -300.4 -362.85)" xlink:href="#B"/></g><g transform="matrix(.12915 0 0 .12718 48.3 58.35)"><use xlink:href="#C"/><use transform="matrix(7.7429 0 0 7.86275 -373.95 -458.75)" xlink:href="#D"/></g></svg>