<svg xmlns="http://www.w3.org/2000/svg" xmlns:xlink="http://www.w3.org/1999/xlink" preserveAspectRatio="none" viewBox="0 0 72 72"><defs><path id="a" fill="#FCC21B" d="M36 5.6q-22.2 0-30.95 20.5Q.25 37.35.25 52.45q0 5.8 10.45 9.9 10.5 4.1 25.3 4.1t25.25-4.1q10.45-4.1 10.45-9.9 0-15.1-4.8-26.35Q58.2 5.6 36 5.6z"/><path id="b" fill="#ED6C30" d="M51.45 43.3q-1.1-.9-4.8-.4-6.25.75-9.6.75-3.25 0-10.7-1.15-4.65-.75-5.9.55-.9.9-.5 2.25.95 4.1 5.7 6.65 4.6 2.45 11.1 2.45 6.7 0 10.85-2.6 3.9-2.45 4.6-6.5.2-1.2-.75-2z"/><path id="c" fill="#EF6C00" d="M64.35 24.15q.4-.15.4-.6-.05-.5-.45-.65l-8.4-3-1.15-8.75q-.1-.45-.55-.6-.4-.15-.7.25l-5.3 7-8.75-1.55q-.5-.05-.75.3-.3.4.05.75l5.1 7.25-4.3 7.85q-.3.4 0 .8.15.15.4.25.2 0 .35-.05l8.5-2.65 6.05 6.6q.4.3.8.1.45-.15.45-.6l.25-9 8-3.7m-31-7.6q-.3-.35-.75-.3l-8.75 1.55-5.35-7q-.35-.4-.75-.3-.45.2-.5.65L16.1 19.9l-8.4 3q-.4.15-.45.65-.05.45.4.6l8.05 3.7.2 9q-.05.45.45.6.15.15.4.05.15 0 .35-.2l6.05-6.6 8.5 2.65q.5.15.75-.15.3-.4.05-.8l-4.3-7.85 5.15-7.25q.25-.35.05-.75z"/></defs><use xlink:href="#a"/><use transform="matrix(1.00302 0 0 1.295 -.15 -16.7)" xlink:href="#b"/><use xlink:href="#c"/></svg>