<svg xmlns="http://www.w3.org/2000/svg" xmlns:xlink="http://www.w3.org/1999/xlink" preserveAspectRatio="none" viewBox="0 0 72 72"><defs><filter id="m" width="140%" height="140%" x="-20%" y="-20%" color-interpolation-filters="sRGB"><feColorMatrix in="SourceGraphic" result="result1" values="1 0 0 0 0 0 1 0 0 0 0 0 1 0 0 0 0 0 0.5 0"/></filter><path id="a" fill="#A1887F" d="M125.1 49.15q1-6.9-1.25-12.1-4.45-10.2-18.05-5.65-3.55 1.15-10.25 5.5-7.15 4.6-12.85 6.75-6.85 2.55-13.45 3.5l-5.25.4V80.3q12.05-.5 27.35-3.4 7.65-1.5 12.9-2.85 6.5-2.9 12.1-7.95 5.05-4.55 6.3-7.85 1.9-5.2 2.45-9.1z"/><path id="b" fill="#A1887F" d="M58.75 47.15q-6.6-.95-13.5-3.5-5.75-2.2-12.9-6.75-6.8-4.35-10.3-5.55-6.3-2.05-10.45-1.05-5.05 1.15-7.5 6.75-2.25 5.2-1.25 12.1.55 3.9 2.45 9.1 1.25 3.3 6.3 7.85 5.6 5.05 12.1 7.95l12.9 2.8q15.3 2.9 27.35 3.4v-32.7q-1.942.044-5.2-.4z"/><path id="c" fill="#8D6E63" d="M15.9 34.85q-1.9 2-.85 5.4 1.2 4 6.35 8.25l9.45-12.3q-2.8-1.3-6.05-2.15-6.55-1.65-8.9.8z"/><path id="d" fill="#8D6E63" d="M106.75 48.5q5.1-4.25 6.35-8.25 1.05-3.4-.85-5.4-2.35-2.45-8.9-.8L97.3 36.2l9.45 12.3z"/><path id="e" fill="#FCC21B" d="M35.8 4.85q-22.3 0-31 20.65Q0 36.75 0 52q0 5.85 10.5 9.95 10.55 4.15 25.3 4.15 14.9 0 25.45-4.15 10.5-4.1 10.5-9.95 0-15.3-4.85-26.5Q58.2 4.85 35.8 4.85z"/><path id="f" fill="#ED6C30" d="M51.3 48q2.65-2.65 3.65-6 .9-3.35-.7-4.45-1.05-.7-2.85-.55l-3 .55q-5.7 1.2-12.4 1.2-6.75 0-12.4-1.2l-3-.55q-1.85-.15-2.9.55-1.6 1.1-.7 4.45 1 3.35 3.6 6 2.3 2.45 5.4 4 4.45 2.45 10 2.45 5.45 0 10-2.45 2.9-1.45 5.3-4z"/><path id="g" fill="#2F2F2F" d="M28.25 29q-.1-2.3-1.4-3.85-1.4-1.6-3.25-1.55-1.9 0-3.25 1.6-1.3 1.7-1.3 3.9.1 2.3 1.4 3.85 1.35 1.55 3.25 1.55t3.2-1.6q1.35-1.65 1.35-3.9z"/><path id="h" fill="#2F2F2F" d="M43.95 29.05q0 2.3 1.3 3.9 1.4 1.55 3.25 1.55 1.9 0 3.25-1.55 1.3-1.6 1.3-3.9 0-2.2-1.3-3.9-1.35-1.55-3.25-1.5-1.85 0-3.25 1.6-1.3 1.5-1.3 3.8z"/><path id="i" fill="#BCAAA4" d="M55.05 3.3q-3.55 0-12.9 8.1-8.5 7.35-9.85 10-.85 1.6-2.4 5.45-1.6 3.95-1.85 5.15-.25 1.2-1.7 1.3-1.26.097-2.25-.55l5.95 4.2q7.2 4.65 13.4 6.85 6.2 2.2 14 3.3 3.9.5 6.55.6V6.6q-2.05 0-4.4-1.65-2.3-1.65-4.55-1.65z"/><path id="j" fill="#BCAAA4" d="M95.65 21.4q-1.45-2.65-9.85-9.95Q76.45 3.3 72.9 3.3q-2.25 0-4.55 1.65Q66 6.6 64 6.6v41.1l6.55-.6Q78.3 46 84.5 43.8q6.2-2.2 12.4-6.35 3.15-2.1 5-3.75-.8.55-1.1.2-.2-.25-.55-1.7-.35-1.35-1.95-5.15-1.6-3.7-2.65-5.65z"/><path id="k" fill="#BCAAA4" d="M64 26.1q-11.75.55-22.45 2.05l-8.4 1.4q-.7 4.4-3.55 5.25h-2.75q11.5 8.25 25.5 11.4Q59.3 47.8 64 47.7V26.1z"/><path id="l" fill="#BCAAA4" d="M100.9 34.95q-1.25.4-2.65-.1-2.75-1-3.45-5.3-3.1-.6-8.55-1.3Q75.45 26.8 64 26.1v21.6l3.15-.15q4.05-.3 8.4-1.25 13.8-3.1 25.35-11.35z"/><path id="n" fill="#A1887F" d="M16.25.25q-4.2 1.8-12.1 9.85-8.25 8.4-.75 6.65 7.85-1.8 13.65-6.2 5.05-3.85 4.9-6.35-.15-2.1-2.1-3.4-1.95-1.3-3.6-.55z"/><path id="o" fill="#A1887F" d="M17.75 10.1Q9.9 2.05 5.7.25 4.05-.5 2.1.8.1 2.1 0 4.2q-.15 2.5 4.9 6.35 5.75 4.4 13.6 6.2 7.5 1.75-.75-6.65z"/><path id="p" fill="#BCAAA4" d="M64 47q7.3 0 14.65-2.6 3.7-1.3 5.95-2.6-5.15 1.6-13.1 2.3-15.9 1.4-29.95-3.25l6.85 3.1Q56.7 47 64 47z"/><path id="q" fill="#A1887F" d="M94.2 35.5l3.65-3.15q-3.4-1.25-9.25-2.55-11.7-2.55-23.85-2.55-12.15 0-24.6 2.55-6.25 1.3-10.05 2.55l3.5 3.15 9.25-1.6q11.4-1.6 22.2-1.35 10.75.25 21.05 1.65 5.1.65 8.1 1.3z"/><path id="r" fill="#8D6E63" d="M67.85 31.1q2.8-.5 2.8-.85 0-.5-6.2-1.75-.8 0-3.4.6-2.9.6-2.9 1 0 .45 2.85.95 2.55.5 3.45.5.85 0 3.4-.45z"/><path id="s" fill="#8D6E63" d="M83.6 32.05q2.45-.2 2.5-.5.05-.45-5.25-2.1-.75-.05-3.05.25-2.55.35-2.6.7-.05.35 2.45 1.05 2.1.6 2.95.75.75.05 3-.15z"/><path id="t" fill="#8D6E63" d="M50.3 29.7q-2.3-.3-3.05-.25-.5.05-2.75.9-2.5.9-2.5 1.2.05.3 2.55.5 2.2.2 2.95.15.85-.15 2.95-.75 2.5-.7 2.45-1.05-.05-.35-2.6-.7z"/><path id="u" fill="#BCAAA4" d="M55.6 45.3q-5.9-.6-10.4-2.6-2.75-1.2-12.85-8.75-9.25-6.9-13.8-8.05Q12.6 24.35 7.8 27q-4.55 2.55-6.2 7.65-1.35 4.2-.9 10.7.6 8.95 5.1 15.5 1.25 1.8 1.85 2.5l.55-1.75-.3-.4Q3.85 56.15 3 48.35q-.65-6.1.6-10.1.95-2.95 3.9-4.8 4.05-2.6 10.25-1.55 5.3.9 12.65 4.65 10.3 5.3 14.4 6.9 7.3 2.85 14 3.6 3.35.4 5.2.2v-1.6q-5.3 0-8.4-.35z"/><path id="v" fill="#BCAAA4" d="M124.3 38.25q1.25 3.95.55 10.05-.9 7.7-4.8 12.95l-.3.4.5 1.75q.45-.55 1.9-2.55 4.55-6.5 5.15-15.5.45-6.4-.9-10.65-1.7-5.15-6.25-7.7-4.8-2.65-10.75-1.1-4.5 1.15-13.75 8.05-10.1 7.55-12.9 8.75-4.5 2-10.4 2.6-3.05.35-8.35.35v1.6l5.25-.25q6.75-.85 14.05-3.7 3.95-1.55 14.25-6.75 7.15-3.6 12.5-4.5 6.2-1.05 10.3 1.45 3.1 1.9 3.95 4.75z"/></defs><use transform="translate(-.05 1.8) scale(.5625)" xlink:href="#a"/><use transform="translate(0 1.85) scale(.5625)" xlink:href="#b"/><use transform="translate(0 1.85) scale(.5625)" xlink:href="#c"/><use transform="translate(0 1.85) scale(.5625)" xlink:href="#d"/><use transform="matrix(.91406 0 0 .91402 3.1 7.95)" xlink:href="#e"/><use transform="matrix(.91406 0 0 .91402 3.1 7.95)" xlink:href="#f"/><use transform="matrix(.91406 0 0 .91402 3.1 7.95)" xlink:href="#g"/><use transform="matrix(.91406 0 0 .91402 3.1 7.95)" xlink:href="#h"/><use transform="translate(0 1.85) scale(.5625)" xlink:href="#i"/><use transform="translate(0 1.85) scale(.5625)" xlink:href="#j"/><use transform="translate(0 1.85) scale(.5625)" xlink:href="#k"/><use transform="translate(0 1.85) scale(.5625)" xlink:href="#l"/><use filter="url(#m)" transform="translate(20.1 5.75) scale(.5625)" xlink:href="#n"/><use filter="url(#m)" transform="translate(39.45 5.75) scale(.5625)" xlink:href="#o"/><use transform="translate(0 1.85) scale(.5625)" xlink:href="#p"/><use transform="translate(0 1.85) scale(.5625)" xlink:href="#q"/><use transform="translate(0 1.85) scale(.5625)" xlink:href="#r"/><use transform="translate(0 1.85) scale(.5625)" xlink:href="#s"/><use transform="translate(0 1.85) scale(.5625)" xlink:href="#t"/><use transform="translate(0 1.85) scale(.5625)" xlink:href="#u"/><use transform="translate(0 1.85) scale(.5625)" xlink:href="#v"/></svg>