<svg xmlns="http://www.w3.org/2000/svg" xmlns:xlink="http://www.w3.org/1999/xlink" preserveAspectRatio="none" viewBox="0 0 72 72"><defs><path fill="#00ACC1" d="M19.25 56.65q-7.75 3.45-7.75 9.8V72h24.65V53.6q-10.15 0-16.9 3.05z" id="a"/><path fill="#00ACC1" d="M36.15 53.6V72H60.5v-5.55q0-6.05-7.55-9.65-6.85-3.2-16.8-3.2z" id="b"/><path fill="#E59600" d="M73 90.25H54.85v9.6q0 3.25 2.4 5.55 2.45 2.3 5.85 2.3h1.65q3.4 0 5.85-2.3 2.4-2.3 2.4-5.55v-9.6z" id="c"/><path fill="#E59600" d="M106.9 66.05h-3.6v20.3q4.75 0 7.85-2.4 3.6-2.8 3.6-8.05 0-5.3-3.9-8.1l-3.95-1.75z" id="d"/><path fill="#E59600" d="M24.7 66.05h-3.65l-3.9 1.75q-3.95 2.8-3.95 8.1 0 5.25 3.6 8.05 3.1 2.4 7.9 2.4v-20.3z" id="e"/><path fill="#FCC21B" d="M106.75 73.8q0-30.45-8.65-45.45Q87.85 10.6 64 10.6q-23.9 0-34.15 17.75-8.65 15-8.65 45.45 0 25.9 14.6 38.45Q47.05 122 64 122q16.8 0 28.1-9.65 14.65-12.55 14.65-38.55z" id="f"/><path fill="#FFA000" d="M63.35 24.5v-.8q-.4-6.25-5.65-10.85-7.2-6.3-21.15-6.5H35.5q-13.95.2-21.1 6.5-5.3 4.6-5.65 10.85-.05.4-.05.8v14.55q.35-.3.95-.75.4-.35.95-.6l.4-.2 1.05 6.95Q17.8 35.5 19.4 25.7q4.55 3 8.3 4.25 3.75 1.25 7.8 1.2h1.05q6.7-.05 12.3-.7l4.1-.45q.1 0 .2.1L60 44.45l1.05-6.95.45.2q.5.25.9.55.65.5.95.8V24.5z" id="g"/><path fill="#444" d="M56.2 58.5q-.25-.1-.9.35-1.1.8-1.4.95-2.3 1.25-4.9 1-2.05-.15-4.05-1.3-.9-.5-1.1.4-.2.9 1.4 2.45 1.6 1.6 3.85 1.9 1.65.25 3.2-.25 2.45-.8 3.7-3.25.95-2 .2-2.25z" id="h"/><path fill="#444" d="M83.7 59.8q-.2-.85-1.1-.35-1.95 1.15-4.05 1.35-1.15.1-2.55-.2-1.35-.25-2.35-.8-.35-.15-1.4-.9-.65-.5-.95-.35-.7.25.25 2.2 1.2 2.45 3.7 3.25 1.6.5 3.25.2 2.2-.3 3.8-1.9 1.6-1.55 1.4-2.5z" id="i"/><path fill="#E49500" d="M69 68.9q-.2-.35-.7-.2-2.4.7-4.45.7-1.95 0-4.45-.7-.45-.15-.7.2-.2.35 0 .7.5.85 1.75 1.65 1.65 1 3.4 1t3.4-1q1.3-.8 1.8-1.65.15-.35-.05-.7z" id="j"/><path fill="#513F35" d="M73.8 81.8q0-.8-2.9-1.25-2.75-.45-7.05-.45-4.2 0-7 .45-2.95.5-2.95 1.25 0 1.2 9.95 1.2t9.95-1.2z" id="k"/><path fill-opacity=".537" d="M40.35 62.25q-.6 0-.95.5t-.15 1.1l3 8.1h1.7l-3.6-9.7z" id="l"/><path fill="#E59600" d="M58.15 33.35h.05q-1.192-1.064-2.7-.55-1.592.5-1.95 2.1-.264 1.26.45 3.35.218.653.95 2.8-.718-1.548-.95-2-1.884-3.541-4.3-2.3l.05-.05q-1.39.603-1.55 2.1-.147 1.145.65 2.95l1.75 4q-.097-.184-.2-.35-1.073-1.56-1.9-1.9-1.068-.577-2.4.25-.06.04-.1.1-1.189.86-1.1 2.25.02.9.85 2.45.028.048.05.1.402.82 2.45 4.8 2.21 4.428 2.85 6.2.034.08.1.15l1.05 2.25q1.424 3.14 4.55 7.1 1.603 2.007 2.9 3.35h-.05q.264.248.6.3.33.053.6-.1h.05l13.6-7.35v-.05q.32-.154.45-.5.13-.35 0-.7-.848-2.3-.8-4.3l.35-1.75 1.15-2.55 3.1-3.65h.05q.027-.023.05-.05 1.22-1.707.7-2.95.02-.042 0-.1-.457-1.387-2.2-1.55h-.1q-2.743-.104-4.3 1.45-.817.8-2.05 2.9-.049.019-.1 0-.357-.226-.75-1-.677-1.255-1.15-3.1.012-.07 0-.15l-2-10.65q-.266-1.7-1.2-2.55v.05-.05q-.997-1.032-2.45-.8-1.41.17-2.05 1.9-.448 1.206-.25 2.35.01.052 0 .1.088.331.5 3.25.011.091 0 .15-.722-2.07-1.7-4.9-.019-.048-.05-.1-.634-1.903-1.55-2.7z" id="m"/><path fill="#FCC21B" d="M58.8 36.5q-1.1-3.4-3-2.75-2.05.65-.85 4.2.45 1.35 3.1 9.2-.1.75-.65.75l-.55-.2q-3.2-7.15-3.75-8.2-1.35-2.55-2.95-1.85-1.7.7-.4 3.7l3.65 8.3q.15.95-.45 1.1l-.6-.05q-1.7-3-2.8-4.75-.85-1.25-1.45-1.55-.65-.3-1.45.2-.8.55-.75 1.45.05.75.75 2.05.25.55 2.5 4.9 2.25 4.5 2.9 6.3l1.1 2.35q1.4 3.05 4.45 6.9 1.55 1.95 2.8 3.25L74 64.45q-.95-2.6-.85-4.85l.35-1.75 1.3-2.9 3.25-3.75q.9-1.25.55-2.1-.3-.8-1.35-.9-2.3-.1-3.6 1.15-.8.8-2.05 2.95-1.3.95-2.45-1.3-.75-1.4-1.25-3.5l-2-10.65q-.2-1.35-.9-2-.65-.7-1.6-.55-.85.15-1.25 1.25-.35.95-.2 1.85.05.2.5 3.35.35 2.8.75 4.75.05.3 0 .4-.3.4-.7.25l-.35-.25q-1-2.6-3.35-9.4z" id="n"/><path fill="#00ACC1" d="M76.15 64.8q-.15-.7-.75-1.1-.6-.4-1.3-.3l-16 6.3q-.7.1-1.15.65-.4.55-.35 1.25L78.2 128h29.3L76.15 64.8z" id="o"/></defs><use xlink:href="#a" transform="translate(.2)"/><use xlink:href="#b" transform="translate(-.2)"/><use xlink:href="#c" transform="scale(.5625)"/><use xlink:href="#d" transform="matrix(.42908 0 0 .42908 8.55 -.2)"/><use xlink:href="#e" transform="matrix(.42908 0 0 .42908 8.55 -.2)"/><use xlink:href="#f" transform="matrix(.4292 0 0 .42921 8.55 .3)"/><use xlink:href="#g" transform="matrix(.76303 0 0 .76306 8.55 0)"/><use xlink:href="#h" transform="scale(.5625)"/><use xlink:href="#i" transform="scale(.5625)"/><use xlink:href="#j" transform="scale(.5625)"/><use xlink:href="#k" transform="scale(.5625)"/><use xlink:href="#l"/><use xlink:href="#m" transform="translate(-.2 .4) scale(.5625)"/><use xlink:href="#n" transform="scale(.5625)"/><use xlink:href="#o" transform="scale(.5625)"/></svg>