<svg xmlns="http://www.w3.org/2000/svg" xmlns:xlink="http://www.w3.org/1999/xlink" preserveAspectRatio="none" viewBox="0 0 72 72"><defs><path id="a" fill="#FCC21B" d="M35.9 5.45q-22.3 0-31.1 20.6Q.05 37.45.05 52.55q0 5.85 10.5 9.95 10.55 4.15 25.35 4.15t25.35-4.15q10.55-4.15 10.55-9.95 0-15.15-4.8-26.5-8.8-20.6-31.1-20.6z"/><path id="b" fill="#ED6C30" d="M52.7 48.65q2.95-3.1 3.9-6.6 1.05-3.6-.75-4.8-1.15-.8-3.1-.65l-3.25.65Q43.4 38.5 36 38.5q-7.45 0-13.5-1.25l-3.25-.65q-2-.15-3.15.65-1.75 1.15-.7 4.8.95 3.55 3.85 6.6Q21.9 51.3 25.1 53q5.05 2.6 10.9 2.6 5.85 0 10.9-2.6 3.3-1.75 5.8-4.35z"/><path id="c" fill="#40C0E7" d="M59.9 32.4l-1.2-.4-1.25-.25q-1.2.1-.8 1.75l1.55 7.55q.1.85.75 2.65.85 2.25 1.35 3 .6.95 2 1.7 1.3.7 2.65.8 1.85.1 3.5-1.2 1.6-1.3 1.9-3.4.25-2.8-1.1-5.25Q68 37 65.55 35.3q-2.9-1.95-5.65-2.9z"/><path id="d" fill="#40C0E7" d="M13.3 32l-1.25.4q-2.6.9-5.65 2.9-2.35 1.6-3.65 4.05-1.4 2.55-1.1 5.25.2 2 1.9 3.4 1.6 1.3 3.45 1.2 1.45-.1 2.65-.8 1.5-.8 2.05-1.7.6-1.05 1.35-3 .7-1.8.75-2.65l1.5-7.55q.45-1.65-.7-1.75-.4 0-1.3.25z"/><path id="e" fill="#2F2F2F" d="M56.1 26.85q.35-.4.25-1.1-.1-.65-.6-1-.5-.3-1.05-.25-2.2.35-4.5.95-4.85 1.25-8.05 3.2-.45.3-.6.7-.15.6-.05.95.15.55.55.8.4.3.9.3l3.6.2q4.15.45 6.85 1.7l.3.1q.55.1 1-.15.4-.2.65-.7.25-.65.05-1.15-.2-.55-.8-.8-2.7-1.25-5.75-1.65 2.95-1 6.25-1.5.65-.1 1-.6z"/><path id="f" fill="#2F2F2F" d="M15.7 25.75q-.1.65.3 1.1.3.5.95.6.35 0 1.9.35 2.05.4 4.35 1.15-3.05.4-5.75 1.65-.55.25-.75.8-.25.6 0 1.15.25.5.7.7.4.25.9.15l.35-.1q2.7-1.25 6.85-1.7 1.85-.2 3.6-.2.55 0 .9-.3.4-.25.55-.8.15-.45-.05-.95-.15-.45-.65-.7-3.05-1.9-8-3.2l-4.5-.95q-.55-.05-1.1.25-.45.4-.55 1z"/></defs><use transform="matrix(.83717 -.4829 .48332 .83641 -15.3 21.05)" xlink:href="#a"/><use transform="matrix(.83717 -.4829 .48332 .83641 -16.9 18.2)" xlink:href="#b"/><use transform="matrix(.83717 -.4829 .48332 .83641 -18.5 19.1)" xlink:href="#c"/><use transform="matrix(.83717 -.4829 .48332 .83641 -15.25 17.15)" xlink:href="#d"/><use transform="matrix(.83717 -.4829 .48332 .83641 -16.9 18.2)" xlink:href="#e"/><use transform="matrix(.83717 -.4829 .48332 .83641 -16.9 18.2)" xlink:href="#f"/></svg>