<svg xmlns="http://www.w3.org/2000/svg" xmlns:xlink="http://www.w3.org/1999/xlink" preserveAspectRatio="none" viewBox="0 0 72 72"><defs><path fill="#F15A24" d="M57.7 43.1q2.54-2.164 2.55-5.25.004-3.046-1.65-4.2-2.15-1-4.35-1.75-3.35-1.2-6.95-1.9-5.4-1.05-11.2-1.05-12.05 0-22.45 4.7-1.694 1.153-1.55 4.8.131 3.69 2.3 5.35l21.7 15.25L57.7 43.1z" id="b"/><path fill="url(#a)" d="M44.55 33.9q-3.55-8.1 0-16.5h-16.9q3.85 8.4 0 16.5h16.9z" id="d"/><path fill="#ED6C30" d="M87.5 79.3q-1.14-1.4-2.3-2.55-5.129-5-10.6-7.25-4.808-1.95-10.4-1.95-5.758 0-10.45 1.95-5.529 2.25-10.3 7.25-1.29 1.15-2.15 2.55-.976 1.15-1.65 2.4-1.7 2.8-2.05 5.55-.35 2.4.35 4.8 3.366 12.3 26.85 12.35 23.116-.05 26.45-12.35.601-2.4.15-4.9-.511-2.75-2.3-5.6-.688-1.15-1.6-2.25z" id="j"/><path id="c" stroke="#C73200" stroke-width="2" stroke-linejoin="round" stroke-linecap="round" fill="none" d="M54.25 31.9q2.2.75 4.35 1.75 1.654 1.154 1.65 4.225-.01 3.061-2.55 5.225L36.1 59.05 14.4 43.8q-2.169-1.66-2.3-5.325-.144-3.672 1.55-4.825 10.4-4.7 22.45-4.7 5.8 0 11.2 1.05 3.6.7 6.95 1.9z"/><path id="e" stroke="#C73200" stroke-width="2" stroke-linejoin="round" stroke-linecap="round" fill="none" d="M27.65 33.9q3.85-8.1 0-16.5h16.9q-3.55 8.4 0 16.5"/><path id="g" stroke="#D8D8D8" stroke-width="1.5" stroke-linejoin="round" stroke-linecap="round" fill="none" d="M44.55 17.4q3.316-5.07 10.25-2.65M21.2 17.4q4.95-2.75 8.45.6m.5-8.75Q34.1 6 38.1 9.4"/><path id="h" stroke="#CCC" stroke-width="2" stroke-linejoin="round" stroke-linecap="round" fill="none" d="M43.65 4.9q2.4-2.85 7.3-2 5.5.7 5.35 4.7 4.3 0 4.65 5.4.35 5.35-3.9 6.15-.25 5.5-5.4 5.85-4.05 1.25-7-2.25Q42.2 26.5 38.2 24l-3.55-2.25q-2 3.35-6.5 3-4-.75-4.75-3.45-2.05 6.05-6.4 3.4-4.4-2.7-1.35-7.2-3.65.15-4.35-4.45-.75-4.6 4.2-5.2.7-8.95 10.25-3.35Q28.6.75 36.1 1.25q6.1.7 7.5 3.5"/><g id="f"><path fill="#FCC21B" d="M55.9 35.65l-3.65 2.85-5.05-1.05L43.95 40l-4.45-1.4-2.8 1.4-3.35-1.4-3.8 1-3-2.4-3.45 1.6-3.35-2.75-5.15 1.05-1.8-1.45-2.35 1.55q-.05-.05-.1-.05-.2.3-.3.65-4 9.4-4 22.15 0 4.85 8.75 8.35 8.8 3.4 21.3 3.4 12.4 0 21.2-3.4 5.7-2.25 7.75-5.1 1.05-1.55 1.05-3.25 0-12.75-4.05-22.15-.1-.35-.3-.65l-5.85-1.5z"/><path fill="#F2F2F2" d="M43.65 4.9l-.05-.15q-1.4-2.8-7.5-3.5-7.5-.5-10.35 3.25Q16.2-1.1 15.5 7.85q-4.95.6-4.2 5.2.7 4.6 4.35 4.45Q12.6 22 17 24.7q4.35 2.65 6.4-3.4.75 2.7 4.75 3.45 4.5.35 6.5-3L38.2 24q4 2.5 6.45-1.25 2.95 3.5 7 2.25 5.15-.35 5.4-5.85 4.25-.8 3.9-6.15-.35-5.4-4.65-5.4.15-4-5.35-4.7-4.9-.85-7.3 2m-13.5 4.35Q34.1 6 38.1 9.4q-4-3.4-7.95-.15M21.2 17.4q4.95-2.75 8.45.6-3.5-3.35-8.45-.6m23.35 0q3.316-5.07 10.25-2.65-6.934-2.42-10.25 2.65z"/></g><g id="i"><path fill="#FFF" d="M11.1 11.1Q13 9.2 13 6.5q0-2.7-1.9-4.6Q9.2 0 6.5 0 3.8 0 1.9 1.9 0 3.8 0 6.5q0 2.7 1.9 4.6Q3.8 13 6.5 13q2.7 0 4.6-1.9M6.5 3.25q1.35 0 2.3.95.95.95.95 2.3 0 1.35-.95 2.3-.95.95-2.3.95-1.35 0-2.3-.95-.95-.95-.95-2.3 0-1.35.95-2.3.95-.95 2.3-.95z"/><path fill="#2F2F2F" d="M8.8 4.2q-.95-.95-2.3-.95-1.35 0-2.3.95-.95.95-.95 2.3 0 1.35.95 2.3.95.95 2.3.95 1.35 0 2.3-.95.95-.95.95-2.3 0-1.35-.95-2.3z"/></g><linearGradient id="a" gradientUnits="userSpaceOnUse" x1="35.4" y1="35.05" x2="35.4" y2="18.15" spreadMethod="pad"><stop offset="0%" stop-color="#F15A24"/><stop offset="100%" stop-color="#F1DC0C"/></linearGradient></defs><g><use xlink:href="#b"/><use xlink:href="#c"/></g><g><use xlink:href="#d"/><use xlink:href="#e"/></g><g><use xlink:href="#f"/><use xlink:href="#g"/><use xlink:href="#h"/></g><use xlink:href="#i" transform="matrix(1.29259 0 0 1.29259 40 41.1)"/><use xlink:href="#i" transform="matrix(1.29259 0 0 1.29259 16.05 41.1)"/><use xlink:href="#j" transform="matrix(.2319 0 0 .2319 21.45 40.85)"/></svg>