<svg xmlns="http://www.w3.org/2000/svg" xmlns:xlink="http://www.w3.org/1999/xlink" preserveAspectRatio="none" viewBox="0 0 72 72"><defs><path fill="#7CB342" d="M127.05 94.35q0-27-8.4-47-15.35-36.65-54.6-36.6-39.15 0-54.55 36.6-8.45 20.05-8.45 47 0 10.35 18.45 17.7 18.45 7.3 44.55 7.3 26.1 0 44.55-7.3 18.45-7.35 18.45-17.7z" id="a"/><path fill="#2F2F2F" d="M36.1 51.55q-2.35 2.85-2.35 6.9 0 3.95 2.45 6.75Q38.6 68 42 68q3.35 0 5.7-2.85t2.3-6.9q0-3.95-2.45-6.8-2.4-2.8-5.8-2.8-3.3.1-5.65 2.9z" id="b"/><path fill="#2F2F2F" d="M86.55 68q3.35 0 5.75-2.85 2.35-2.9 2.25-6.9 0-3.95-2.4-6.8-2.35-2.8-5.75-2.8-3.3.1-5.65 2.9-2.35 2.85-2.35 6.9 0 3.95 2.4 6.75 2.35 2.8 5.75 2.8z" id="c"/><path id="d" stroke="#2F2F2F" stroke-width="3" stroke-linejoin="miter" stroke-linecap="round" stroke-miterlimit="10" fill="none" d="M22.725 42.916l1.04.703q1.182 1.04 1.772 2.756.591 1.716.422 3.881-.084 1.097-.309 1.857"/><path id="e" stroke="#2F2F2F" stroke-width="3" stroke-linejoin="miter" stroke-linecap="round" stroke-miterlimit="10" fill="none" d="M49.247 42.916q-.45.197-1.04.703-1.182 1.04-1.773 2.756-.59 1.716-.393 3.881.112 1.097.309 1.857"/><path id="f" stroke="#2F2F2F" stroke-width="3" stroke-linejoin="miter" stroke-linecap="round" stroke-miterlimit="10" fill="none" d="M25.988 47.219q9.984-2.39 20.024.197"/><path id="g" stroke="#2F2F2F" stroke-width="3" stroke-linejoin="round" stroke-linecap="round" fill="none" d="M56.45 25.1L55.3 25q-4-.35-5.5-1.85-1.15-1.4-1.65-2.45M15.9 25.1q4.9-.2 6.65-1.95 1.15-1.4 1.65-2.45"/></defs><use xlink:href="#a" transform="scale(.5625)"/><use xlink:href="#b" transform="translate(0 -1) scale(.5625)"/><use xlink:href="#c" transform="translate(0 -1) scale(.5625)"/><use xlink:href="#d" transform="matrix(1 0 0 1 0 -.003)"/><use xlink:href="#e" transform="matrix(1 0 0 1 0 -.003)"/><use xlink:href="#f" transform="matrix(1 0 0 1 0 -.003)"/><use xlink:href="#g" transform="translate(-.15 -1.2)"/></svg>