<svg xmlns="http://www.w3.org/2000/svg" xmlns:xlink="http://www.w3.org/1999/xlink" preserveAspectRatio="none" viewBox="0 0 72 72"><defs><path fill="#FCC21B" d="M35.85 5.35q-22.4 0-31.15 20.7Q-.1 37.3-.1 52.55q0 5.9 10.55 10 10.5 4.15 25.4 4.15 14.95 0 25.45-4.15 10.55-4.1 10.55-10 0-15.2-4.8-26.5-8.8-20.7-31.2-20.7z" id="a"/><path fill="#FCC21B" d="M65.1 47.25q1.75-3.7.35-7.5T60.3 34.2q-3.7-1.7-7.55-.3-3.85 1.4-5.55 5.1-1.75 3.65-.35 7.45 1.4 3.8 5.1 5.55 3.75 1.7 7.6.3 3.85-1.4 5.55-5.05z" id="b"/><path fill="#FCC01C" d="M64.75 47.05q1.65-3.5.3-7.15-1.35-3.65-4.9-5.3-3.55-1.65-7.25-.3-3.7 1.3-5.4 4.85-1.65 3.5-.3 7.15 1.35 3.7 4.9 5.3 3.6 1.65 7.3.3 3.7-1.3 5.35-4.85z" id="c"/><path fill="#FCBE1C" d="M64.4 46.9q1.55-3.4.3-6.9-1.25-3.5-4.7-5.05-3.4-1.55-6.95-.3-3.55 1.25-5.15 4.65-1.6 3.35-.3 6.9 1.3 3.5 4.7 5.05 3.4 1.6 6.95.3 3.55-1.25 5.15-4.65z" id="d"/><path fill="#FBBB1D" d="M64 46.7q1.55-3.2.3-6.55-1.25-3.35-4.5-4.85-3.25-1.5-6.65-.25-3.35 1.2-4.9 4.45-1.5 3.2-.3 6.55 1.25 3.35 4.5 4.85 3.3 1.5 6.65.25 3.4-1.2 4.9-4.45z" id="e"/><path fill="#FBB91E" d="M63.65 46.55q1.45-3.05.3-6.25-1.2-3.2-4.3-4.6-3.15-1.45-6.35-.3-3.2 1.15-4.65 4.25-1.45 3.05-.3 6.25t4.3 4.65q3.1 1.4 6.35.25 3.2-1.15 4.65-4.25z" id="f"/><path fill="#FBB71E" d="M63.3 46.4q1.4-2.95.25-5.95-1.15-3.05-4.05-4.4-3-1.35-6.05-.25t-4.45 4q-1.4 2.95-.25 5.95 1.1 3.05 4.05 4.4 3 1.4 6.05.25 3.05-1.1 4.45-4z" id="g"/><path fill="#FBB51F" d="M62.95 46.2q1.3-2.75.25-5.65-1.1-2.85-3.9-4.15-2.8-1.3-5.7-.25-2.9 1.05-4.25 3.85-1.3 2.75-.25 5.65 1.1 2.85 3.9 4.15 2.8 1.3 5.7.25 2.9-1.05 4.25-3.85z" id="h"/><path fill="#FAB220" d="M62.55 46.05q1.25-2.6.25-5.35-1-2.7-3.65-3.95-2.7-1.2-5.45-.2t-3.95 3.6q-1.25 2.6-.25 5.35 1 2.75 3.65 3.95 2.65 1.2 5.4.2 2.8-.95 4-3.6z" id="i"/><path fill="#FAB020" d="M58.45 49.3q2.6-.95 3.75-3.4 1.15-2.5.2-5.05-.95-2.6-3.45-3.75t-5.1-.2q-2.6.95-3.75 3.4-1.2 2.5-.25 5.05 1 2.6 3.5 3.75t5.1.2z" id="j"/><path fill="#FAAE21" d="M58.3 48.9q2.45-.85 3.55-3.2 1.05-2.3.2-4.7-.9-2.45-3.25-3.5-2.35-1.1-4.8-.2-2.45.85-3.55 3.2-1.1 2.3-.2 4.75.9 2.4 3.25 3.5 2.35 1.05 4.8.15z" id="k"/><path fill="#FAAC22" d="M58.15 48.55q2.3-.8 3.3-3 1.05-2.15.2-4.45-.8-2.25-3-3.25t-4.5-.2q-2.3.85-3.35 3-1 2.2-.2 4.45.85 2.25 3.05 3.25 2.2 1.05 4.5.2z" id="l"/><path fill="#F9A922" d="M58 48.15q2.15-.75 3.1-2.75.95-2.05.2-4.15-.8-2.1-2.85-3.05-2.05-.95-4.2-.2-2.1.8-3.05 2.8-.95 2.05-.2 4.15.8 2.1 2.85 3.05 2 .95 4.15.15z" id="m"/><path fill="#F9A723" d="M57.85 47.8q2-.7 2.9-2.6.85-1.85.15-3.8-.7-1.95-2.6-2.85-1.9-.85-3.9-.15-1.95.7-2.85 2.6-.85 1.85-.15 3.8.7 1.95 2.6 2.85 1.9.85 3.85.15z" id="n"/><path fill="#F9A524" d="M57.75 47.4q1.8-.65 2.6-2.35.85-1.75.2-3.55-.65-1.75-2.45-2.55-1.75-.85-3.55-.2-1.8.7-2.6 2.4-.85 1.75-.2 3.55.7 1.8 2.4 2.55 1.8.8 3.6.15z" id="o"/><path fill="#F9A324" d="M57.6 47.05q1.65-.6 2.4-2.15.75-1.6.15-3.25-.6-1.6-2.2-2.35t-3.25-.15q-1.7.6-2.4 2.2-.75 1.55-.15 3.2.6 1.6 2.2 2.35t3.25.15z" id="p"/><path fill="#F8A025" d="M57.45 46.65q1.5-.5 2.2-1.95.65-1.45.1-2.9-.5-1.5-1.95-2.15-1.45-.7-2.95-.15-1.5.55-2.2 2-.65 1.45-.15 2.9.55 1.5 2 2.15 1.45.65 2.95.1z" id="q"/><path fill="#F89E26" d="M57.3 46.3q1.35-.5 1.95-1.75.65-1.3.15-2.6-.5-1.35-1.8-1.95-1.3-.6-2.65-.1-1.35.5-1.95 1.75-.6 1.3-.1 2.6.5 1.35 1.8 1.95 1.3.6 2.6.1z" id="r"/><path fill="#F89C26" d="M57.2 45.9q1.2-.4 1.7-1.55.55-1.1.1-2.3-.4-1.15-1.55-1.7-1.15-.5-2.35-.1-1.2.45-1.7 1.6-.55 1.1-.1 2.3.4 1.15 1.55 1.7 1.15.5 2.35.05z" id="s"/><path fill="#F89A27" d="M57.05 45.55q1-.4 1.5-1.35.45-1 .1-2t-1.4-1.45q-1-.45-2-.1-1.05.4-1.5 1.35-.45 1-.1 2 .4 1 1.35 1.45 1 .5 2.05.1z" id="t"/><path fill="#F79728" d="M56.9 45.2q.9-.35 1.3-1.15.35-.85.05-1.7-.35-.85-1.15-1.25-.85-.4-1.7-.1-.9.35-1.3 1.15-.4.85-.05 1.7.3.85 1.15 1.25.85.4 1.7.1z" id="u"/><path fill="#F79528" d="M56.75 44.8q.75-.25 1.05-.95.3-.65.05-1.35-.25-.7-.95-1.05-.7-.3-1.4-.05t-1.05.95q-.3.65-.05 1.35.25.7.95 1.05.7.3 1.4.05z" id="v"/><path fill="#F79329" d="M56.65 44.45q.55-.2.8-.75t.05-1.1q-.2-.55-.75-.8t-1.1-.05q-.55.25-.8.75-.25.55-.05 1.1t.75.8q.55.25 1.1.05z" id="w"/><path fill="#FCC21B" d="M23.85 46.85q1.75-3.7.3-7.5-1.4-3.8-5.1-5.5-3.7-1.7-7.55-.3-3.85 1.4-5.6 5.05-1.75 3.7-.35 7.5Q7 49.9 10.7 51.6q3.7 1.7 7.55.3 3.85-1.4 5.6-5.05z" id="x"/><path fill="#FCC01C" d="M23.5 46.7q1.65-3.55.3-7.2-1.35-3.65-4.9-5.25-3.6-1.65-7.3-.35-3.7 1.35-5.35 4.85-1.65 3.55-.3 7.2 1.35 3.65 4.9 5.3 3.55 1.6 7.25.3 3.7-1.35 5.4-4.85z" id="y"/><path fill="#FCBE1C" d="M23.1 46.5q1.6-3.35.3-6.85-1.25-3.5-4.7-5.05-3.4-1.55-6.95-.3-3.55 1.3-5.1 4.65-1.6 3.35-.35 6.85 1.3 3.5 4.75 5.05 3.4 1.55 6.95.3 3.55-1.3 5.1-4.65z" id="z"/><path fill="#FBBB1D" d="M22.75 46.35q1.5-3.2.3-6.55-1.25-3.35-4.5-4.85-3.25-1.5-6.65-.3Q8.5 35.9 7 39.1q-1.55 3.2-.3 6.55Q7.95 49 11.2 50.5q3.25 1.5 6.65.3 3.35-1.2 4.9-4.45z" id="A"/><path fill="#FBB91E" d="M22.35 46.15q1.45-3.05.3-6.25t-4.25-4.6q-3.1-1.4-6.35-.25-3.25 1.15-4.7 4.25-1.45 3.05-.25 6.25 1.15 3.2 4.25 4.6 3.1 1.4 6.35.25 3.2-1.15 4.65-4.25z" id="B"/><path fill="#FBB71E" d="M22 46q1.4-2.9.3-5.95-1.1-3.05-4.1-4.4-2.95-1.35-6.05-.25-3.05 1.1-4.45 4.05-1.35 2.9-.25 5.95 1.1 3.05 4.1 4.4 2.9 1.35 6 .25Q20.6 48.95 22 46z" id="C"/><path fill="#FBB51F" d="M21.65 45.85q1.3-2.75.25-5.65-1.05-2.9-3.85-4.15-2.8-1.3-5.75-.25-2.9 1.05-4.2 3.8-1.3 2.75-.25 5.65 1.05 2.9 3.85 4.15 2.8 1.3 5.75.25 2.9-1 4.2-3.8z" id="D"/><path fill="#FAB220" d="M17.3 49.3q2.75-.95 4-3.6 1.2-2.65.2-5.35-.95-2.75-3.65-3.95-2.65-1.25-5.4-.25-2.75 1-4 3.65-1.25 2.6-.25 5.3 1 2.75 3.65 3.95 2.65 1.25 5.45.25z" id="E"/><path fill="#FAB020" d="M17.15 48.9q2.6-.95 3.75-3.4 1.2-2.45.25-5.05-.95-2.55-3.45-3.7-2.5-1.15-5.1-.2-2.6.9-3.8 3.4Q7.65 42.4 8.6 45q.95 2.55 3.45 3.7 2.5 1.15 5.1.2z" id="F"/><path fill="#FAAE21" d="M17 48.55q2.45-.85 3.55-3.2 1.1-2.35.2-4.75-.85-2.4-3.25-3.5-2.35-1.05-4.8-.2-2.45.85-3.5 3.2-1.1 2.35-.25 4.75.9 2.4 3.25 3.5 2.35 1.05 4.8.2z" id="G"/><path fill="#FAAC22" d="M16.85 48.15q2.3-.8 3.35-2.95 1.05-2.2.2-4.45-.85-2.25-3.05-3.25-2.2-1-4.5-.2-2.3.85-3.3 3t-.2 4.4q.85 2.25 3 3.25 2.2 1.05 4.5.2z" id="H"/><path fill="#F9A922" d="M16.75 47.8q2.1-.75 3.05-2.8 1-2.05.2-4.1-.8-2.15-2.8-3.05-2.05-.95-4.2-.2-2.15.75-3.1 2.8-.95 2-.15 4.1.75 2.15 2.8 3.05 2.05.95 4.2.2z" id="I"/><path fill="#F9A723" d="M16.6 47.4q1.95-.7 2.85-2.55.9-1.9.15-3.85-.7-1.95-2.6-2.85-1.9-.85-3.85-.15-2 .7-2.85 2.6-.9 1.9-.2 3.85.7 1.95 2.6 2.8 1.9.85 3.9.15z" id="J"/><path fill="#F9A524" d="M16.45 47.05q1.85-.65 2.65-2.35.85-1.75.15-3.55-.65-1.8-2.4-2.6t-3.6-.15q-1.8.65-2.6 2.35-.8 1.75-.15 3.55.65 1.8 2.4 2.6t3.55.15z" id="K"/><path fill="#F9A324" d="M16.3 46.65q1.7-.55 2.4-2.15.75-1.55.15-3.2-.6-1.65-2.2-2.4-1.6-.7-3.25-.15-1.65.6-2.4 2.2t-.15 3.2q.6 1.65 2.2 2.4 1.6.7 3.25.1z" id="L"/><path fill="#F8A025" d="M16.2 46.3q1.5-.5 2.15-1.95.7-1.45.15-2.95-.55-1.45-2-2.1-1.45-.65-2.95-.15-1.5.55-2.2 1.95-.65 1.45-.1 2.95.5 1.45 2 2.1 1.45.7 2.95.15z" id="M"/><path fill="#F89E26" d="M16.05 45.9q1.35-.45 1.95-1.7.6-1.3.1-2.65-.5-1.3-1.8-1.9-1.3-.6-2.6-.15-1.35.5-1.95 1.75-.65 1.3-.15 2.65.5 1.3 1.8 1.9 1.3.6 2.65.1z" id="N"/><path fill="#F89C26" d="M15.9 45.55q1.2-.4 1.75-1.55.5-1.15.1-2.3-.45-1.15-1.6-1.7-1.15-.5-2.35-.1-1.15.4-1.7 1.55-.5 1.15-.1 2.3.45 1.15 1.6 1.7 1.15.5 2.3.1z" id="O"/><path fill="#F89A27" d="M15.75 45.2q1.05-.35 1.5-1.35.5-1 .1-2.05-.35-1-1.35-1.45-1-.45-2.05-.1-1 .4-1.45 1.35-.45 1-.1 2 .4 1 1.35 1.5 1 .45 2 .1z" id="P"/><path fill="#F79728" d="M15.65 44.8q.85-.3 1.25-1.15.4-.85.05-1.7-.3-.85-1.15-1.25-.85-.35-1.7-.05t-1.25 1.15q-.4.85-.1 1.7.35.85 1.15 1.25.85.35 1.75.05z" id="Q"/><path fill="#F79528" d="M15.5 44.45q.7-.25 1.05-.95.3-.7.05-1.4t-.95-1.05q-.7-.3-1.4-.05t-1.05.95q-.3.7-.05 1.4t.95 1q.7.35 1.4.1z" id="R"/><path fill="#F79329" d="M15.35 44.05q.55-.2.8-.75.3-.5.05-1.05-.2-.55-.75-.8-.5-.25-1.05-.05t-.8.75q-.3.5-.1 1.05.25.55.75.8.55.25 1.1.05z" id="S"/><path fill="#2F2F2F" d="M16.85 37.25q.45-.75 1.35-1.45 1.75-1.35 4.05-1.35t4.1 1.35q.9.7 1.35 1.45.45.75 1.35.75.4 0 .75-.2.55-.35.75-.95.15-.6-.2-1.15-.7-1.15-2-2.2-2.65-2.1-6.1-2.1-3.4 0-6.05 2.1-1.3 1.05-2 2.2-.35.55-.15 1.15.15.6.7.9.5.35 1.15.2.6-.15.95-.7z" id="T"/><path fill="#2F2F2F" d="M58.05 36.85q.15-.6-.15-1.15-.7-1.15-2-2.2-2.65-2.1-6.1-2.1-3.45 0-6.05 2.1-1.95 2.1-2 2.2-.35.5-.2 1.15.15.6.7.95.55.3 1.2.15.6-.15.9-.7.05 0 1.35-1.4 1.75-1.4 4.1-1.4 2.3 0 4.1 1.35.9.7 1.35 1.45.5.75 1.35.75.4 0 .75-.2.55-.35.7-.95z" id="U"/><g id="V"><path fill="#2F2F2F" d="M36.65 8.05q0-1.65-1-2.8-1-1.05-2.55-1.25-1.55-.2-3.15.55-.2-1.75-1.25-3.05Q27.4.1 25.55 0q-2.2-.15-4.15 1.6-1.95 1.4-7.1 7.15-.25-1.7-1.5-2.7-1.1-.85-2.55-.9-1.6 0-2.85.9-1.15.8-2.8 2.65-2.2 2.75-3.15 5Q-1 19.8.7 25.8 3.05 34 12.2 36.5h.15q5.05.85 12.7-3.2 1.65-.85 5.75-3.35 3.3-1.95 4.85-2.6l.15-.15q1.75-1.05 2.5-2.75.6-1.65.05-3.2-.35-.8-1.55-1.8 1.5-1.05 2.1-2.6.6-1.55 0-2.9-.85-2.2-3.45-2.7 1.1-1.5 1.2-3.2M33.5 7.2q1.1 1.25-.6 2.7-1.3 1.05-4.35 3.3-3.5 2.65-4.7 3.35-.5.3-.65.85-.1.6.1 1.05.3.6.85.75.5.2 1.05-.1l8.65-4.9q1.85-.65 2.3.8.65 1.65-1.9 2.9l-7.5 3.5-.95.55-.4.3q-.05 0-.25.2-.3.3-.3.9 0 .85.85 1.3.35.2.65.2l.4-.05q.25 0 .3-.15l.8-.3q.65-.2 2.35-1.05l3.1-1.5.2-.05q1.65-.6 2.2.65.45 1.35-1.35 2.45-1.75.8-4.95 2.7-4.2 2.5-5.6 3.3Q17 34.4 13 33.75 5.5 31.55 3.55 25q-1.25-5.2.65-10.2.9-2.2 2.75-4.3 1.45-1.75 2.2-2.1l.1-.1q1-.75 1.85-.05.85.55.4 1.85l-1.4 3.25q-.2.2-.2.6v.4q.2.85.85 1.15.85.55 1.7-.3 8.8-10 10.7-11.4 1.3-.95 2.25-.95.75 0 1.3.5.35.5.45 1.2.05.7-.3 1L25.7 6.7q-.65.55-2.35 2.25l-3.9 3.75-.15.3-.05.3v.35l.2.65.6.55.55.15h.35l.5-.15q.3-.15.85-.55l7.3-6.05q.5-.35.65-.55l-.05.05.1-.15-.05.1q2.2-1.95 3.25-.5z"/><path fill="#FCC21B" d="M30.25 7.7l.05-.1-.1.15.05-.05m2.65 2.2q1.7-1.45.6-2.7-1.05-1.45-3.25.5-.15.2-.65.55l-7.3 6.05q-.55.4-.85.55l-.5.15h-.35l-.55-.15-.6-.55-.2-.65v-.35l.05-.3.15-.3 3.9-3.75q1.7-1.7 2.35-2.25l1.15-1.15q.35-.3.3-1-.1-.7-.45-1.2-.55-.5-1.3-.5-.95 0-2.25.95-1.9 1.4-10.7 11.4-.85.85-1.7.3-.65-.3-.85-1.15v-.4q0-.4.2-.6l1.4-3.25q.45-1.3-.4-1.85-.85-.7-1.85.05l-.1.1q-.75.35-2.2 2.1-1.85 2.1-2.75 4.3-1.9 5-.65 10.2Q5.5 31.55 13 33.75q4 .65 10.8-2.9 1.4-.8 5.6-3.3 3.2-1.9 4.95-2.7 1.8-1.1 1.35-2.45-.55-1.25-2.2-.65l-.2.05-3.1 1.5q-1.7.85-2.35 1.05l-.8.3q-.05.15-.3.15l-.4.05q-.3 0-.65-.2-.85-.45-.85-1.3 0-.6.3-.9.2-.2.25-.2l.4-.3.95-.55 7.5-3.5q2.55-1.25 1.9-2.9-.45-1.45-2.3-.8l-8.65 4.9q-.55.3-1.05.1-.55-.15-.85-.75-.2-.45-.1-1.05.15-.55.65-.85 1.2-.7 4.7-3.35 3.05-2.25 4.35-3.3z"/></g></defs><use xlink:href="#a"/><use xlink:href="#b" transform="matrix(1.1111 0 0 1.11923 -6.35 -5.25)"/><use xlink:href="#c" transform="matrix(1.1111 0 0 1.11923 -6.35 -5.25)"/><use xlink:href="#d" transform="matrix(1.1111 0 0 1.11923 -6.35 -5.25)"/><use xlink:href="#e" transform="matrix(1.1111 0 0 1.11923 -6.35 -5.25)"/><use xlink:href="#f" transform="matrix(1.1111 0 0 1.11923 -6.35 -5.25)"/><use xlink:href="#g" transform="matrix(1.1111 0 0 1.11923 -6.35 -5.25)"/><use xlink:href="#h" transform="matrix(1.1111 0 0 1.11923 -6.35 -5.25)"/><use xlink:href="#i" transform="matrix(1.1111 0 0 1.11923 -6.35 -5.25)"/><use xlink:href="#j" transform="matrix(1.1111 0 0 1.11923 -6.35 -5.25)"/><use xlink:href="#k" transform="matrix(1.1111 0 0 1.11923 -6.35 -5.25)"/><use xlink:href="#l" transform="matrix(1.1111 0 0 1.11923 -6.35 -5.25)"/><use xlink:href="#m" transform="matrix(1.1111 0 0 1.11923 -6.35 -5.25)"/><use xlink:href="#n" transform="matrix(1.1111 0 0 1.11923 -6.35 -5.25)"/><use xlink:href="#o" transform="matrix(1.1111 0 0 1.11923 -6.35 -5.25)"/><use xlink:href="#p" transform="matrix(1.1111 0 0 1.11923 -6.35 -5.25)"/><use xlink:href="#q" transform="matrix(1.1111 0 0 1.11923 -6.35 -5.25)"/><use xlink:href="#r" transform="matrix(1.1111 0 0 1.11923 -6.35 -5.25)"/><use xlink:href="#s" transform="matrix(1.1111 0 0 1.11923 -6.35 -5.25)"/><use xlink:href="#t" transform="matrix(1.1111 0 0 1.11923 -6.35 -5.25)"/><use xlink:href="#u" transform="matrix(1.1111 0 0 1.11923 -6.35 -5.25)"/><use xlink:href="#v" transform="matrix(1.1111 0 0 1.11923 -6.35 -5.25)"/><use xlink:href="#w" transform="matrix(1.1111 0 0 1.11923 -6.35 -5.25)"/><use xlink:href="#x" transform="matrix(1.11583 0 0 1.12215 -.5 -4.95)"/><use xlink:href="#y" transform="matrix(1.11583 0 0 1.12215 -.5 -4.95)"/><use xlink:href="#z" transform="matrix(1.11583 0 0 1.12215 -.5 -4.95)"/><use xlink:href="#A" transform="matrix(1.11583 0 0 1.12215 -.5 -4.95)"/><use xlink:href="#B" transform="matrix(1.11583 0 0 1.12215 -.5 -4.95)"/><use xlink:href="#C" transform="matrix(1.11583 0 0 1.12215 -.5 -4.95)"/><use xlink:href="#D" transform="matrix(1.11583 0 0 1.12215 -.5 -4.95)"/><use xlink:href="#E" transform="matrix(1.11583 0 0 1.12215 -.5 -4.95)"/><use xlink:href="#F" transform="matrix(1.11583 0 0 1.12215 -.5 -4.95)"/><use xlink:href="#G" transform="matrix(1.11583 0 0 1.12215 -.5 -4.95)"/><use xlink:href="#H" transform="matrix(1.11583 0 0 1.12215 -.5 -4.95)"/><use xlink:href="#I" transform="matrix(1.11583 0 0 1.12215 -.5 -4.95)"/><use xlink:href="#J" transform="matrix(1.11583 0 0 1.12215 -.5 -4.95)"/><use xlink:href="#K" transform="matrix(1.11583 0 0 1.12215 -.5 -4.95)"/><use xlink:href="#L" transform="matrix(1.11583 0 0 1.12215 -.5 -4.95)"/><use xlink:href="#M" transform="matrix(1.11583 0 0 1.12215 -.5 -4.95)"/><use xlink:href="#N" transform="matrix(1.11583 0 0 1.12215 -.5 -4.95)"/><use xlink:href="#O" transform="matrix(1.11583 0 0 1.12215 -.5 -4.95)"/><use xlink:href="#P" transform="matrix(1.11583 0 0 1.12215 -.5 -4.95)"/><use xlink:href="#Q" transform="matrix(1.11583 0 0 1.12215 -.5 -4.95)"/><use xlink:href="#R" transform="matrix(1.11583 0 0 1.12215 -.5 -4.95)"/><use xlink:href="#S" transform="matrix(1.11583 0 0 1.12215 -.5 -4.95)"/><use xlink:href="#T" transform="translate(0 -2.65)"/><use xlink:href="#U" transform="translate(0 -2.65)"/><use xlink:href="#V" transform="rotate(-5 406.288 -108.464) scale(.99996)"/></svg>