<svg xmlns="http://www.w3.org/2000/svg" xmlns:xlink="http://www.w3.org/1999/xlink" preserveAspectRatio="none" viewBox="0 0 72 72"><defs><path fill="#7A4C32" d="M35.7 62.6q2.55 0 4.25-1.8 1.7-1.8 1.7-4.4v-5.25H29.8v5.25q0 2.6 1.65 4.4 1.7 1.8 4.25 1.8z" id="b"/><path fill="#47352D" d="M118.2 71.6l.3-15.8L65 53.6 9.5 55.8l.3 15.8q.7 18.65 2.85 33.05 2 13.55 3.95 16.2 2.4 3.3 11.2 2.3 6.3-.75 20.9-3 9.45-1.5 14.8-1.5h.95q5.35 0 14.8 1.5 14.6 2.25 20.85 3 8.8 1 11.2-2.3 2-2.65 4-16.2 2.15-14.4 2.9-33.05z" id="c"/><path fill="#47352D" d="M102.5 91.65q16-14.75 16-35.55 0-20.85-16-35.55Q86.55 5.8 64 5.8q-22.6 0-38.55 14.75Q9.5 35.25 9.5 56.1q0 20.8 15.95 35.55 16 14.75 38.55 14.75 22.55 0 38.5-14.75z" id="d"/><path fill="#AD6F43" d="M106.75 73.45q0-28.7-8.9-42.6Q87.7 14.9 64.15 14.9q-23.55 0-33.9 16.1-9.05 14.15-9.05 42.8 0 24 15.45 37.5 12.35 10.85 27.5 10.85 15.05 0 27.35-11 15.25-13.7 15.25-37.7z" id="e"/><path fill="#47352D" d="M108.05 32.25q-3.2-6.5-10.25-13.05Q83.65 6.15 64.4 6.15q-19.2 0-33.35 12.75Q24 25.3 20.8 31.65v39.8q19-3.2 37.35-14.65 10.5-6.55 18.3-14 .3-.3.7-.25.4.1.6.5Q84.05 56 96.7 65q6.3 4.55 11.35 6.45v-39.2z" id="f"/><path fill="#444" d="M40.15 72.35q-1.7 2-1.7 4.85 0 2.9 1.7 4.9 1.65 2 4.05 2 2.35 0 4.05-2 1.65-2.05 1.65-4.9 0-2.85-1.65-4.85-1.7-2.05-4.05-2.05-2.4 0-4.05 2.05z" id="g"/><path fill="#444" d="M87.85 72.35q-1.7-2.05-4.05-2.05-2.4 0-4.05 2.05-1.7 2-1.7 4.85 0 2.85 1.7 4.9 1.65 2 4.05 2 2.35 0 4.05-2 1.65-2 1.65-4.9 0-2.85-1.65-4.85z" id="h"/><path fill="#513F35" d="M63.95 108.75q4.9 0 9-2.15 3.2-1.7 4.5-3.7.7-1.05.35-1.7-.35-.65-1.45-.65H51.6q-1.1 0-1.45.65-.35.65.35 1.7 1.3 2 4.5 3.7 4.1 2.15 8.95 2.15z" id="i"/><path fill="#7A4C32" d="M58 90q-.65-.15-.9.3-.3.4-.05.9.7 1.15 2.4 2.2 2.2 1.35 4.55 1.35 2.35 0 4.5-1.35 1.7-1.05 2.4-2.2.25-.5 0-.9-.3-.45-.95-.3-3.15.9-5.95.9-2.85 0-6-.9z" id="j"/><path fill="#020202" d="M75.95 110.55q.15-2.7.1-3.65-.1-1.65-1.1-2.05-1.25-.45-2.8.2-.75.25-2.3 1.25-1.5.95-4.5 2.8-.75.4-.85 1.5-.15 1.05.3 1.75.65 1 4.65 2.65.95.4 2.95 1.3 1.75.6 2.85.1.8-.35.85-1.85-.15-2.3-.15-4z" id="k"/><path fill="#444" d="M73.25 108.85q0-.2-1.15-.1-1.2.1-2.75.45-3.9.8-3.8 1.2.1.45 3.9-.35 3.9-.8 3.8-1.2z" id="l"/><path fill="#444" d="M73.3 112.8q0-.4-3.85-.95-1.6-.25-2.75-.3-1.15-.05-1.15.15-.1.45 3.8 1 3.85.55 3.95.1z" id="m"/><path fill="#020202" d="M62.5 110.6q-.15-1.1-.9-1.5-3-1.85-4.5-2.8-1.55-1-2.3-1.25-1.55-.65-2.8-.2-1 .4-1.1 2.05-.05.95.1 3.65 0 1.7-.15 4 .05 1.5.85 1.85 1.1.5 2.85-.1 1-.35 3-1.3 4-1.7 4.65-2.65.4-.7.3-1.75z" id="n"/><path fill="#444" d="M57.6 109.2q-3.8-.8-3.9-.35-.1.4 3.8 1.2 3.8.8 3.9.35.1-.4-3.8-1.2z" id="o"/><path fill="#444" d="M57.5 111.85q-3.85.55-3.85.95.1.45 3.95-.1t3.85-1q-.05-.2-1.2-.15-1.15.05-2.75.3z" id="p"/><path fill="#020202" d="M37.65 62.6q0-.9-.45-1.4-.5-.55-1.5-.55-1.9 0-1.9 1.95 0 .8.55 1.3.55.45 1.35.45.85 0 1.35-.45.6-.5.6-1.3z" id="q"/><path fill="#444" d="M63.5 117.25q-.65 0-1.15.5-.45.45-.45 1.1 0 .7.45 1.15.5.45 1.15.45.65 0 1.1-.45.45-.5.45-1.15 0-.65-.45-1.1-.45-.5-1.1-.5z" id="r"/><path fill="#444" d="M63.5 122.75q-.65 0-1.15.45-.45.5-.45 1.15 0 .65.45 1.1.5.45 1.15.45.65 0 1.1-.45.45-.45.45-1.1 0-.65-.45-1.15-.45-.45-1.1-.45z" id="s"/><g id="a"><path fill="#020202" d="M63 72v-.35Q63 59 45.4 55.7q-.15 0-.35-.05 2.3 1.55 4.6 4.4 1.5 1.85 2.4 3.4L48.4 66.2l4.3 2.85L51.45 72H63M21.75 60.05q2.2-2.75 4.5-4.25Q9 59.15 9 71.65V72h10.95l-1.2-2.95 4.3-2.85-3.65-2.75q.9-1.55 2.35-3.4z"/><path fill="#FFF" d="M29.8 56.4l-1.25 1.4q-1.25 1.9-1.3 4.3-.1 3.2 1.5 9.9h13.9q1.65-6.7 1.55-9.9-.05-2.4-1.3-4.3l-1.25-1.4-5.95-1.15-5.9 1.15z"/><path fill="#444" d="M39.1 54.35q-2.35-.15-3.4-.1-1-.05-3.4.1-2.9.15-4.5.5-.75.4-1.55.95-2.3 1.5-4.5 4.25-1.45 1.85-2.35 3.4l3.65 2.75-4.3 2.85 1.2 2.95h8.8q-1.6-6.7-1.5-9.9.05-2.4 1.3-4.3l1.25-1.4 5.9-1.15 5.95 1.15 1.25 1.4q1.25 1.9 1.3 4.3.1 3.2-1.55 9.9h8.8l1.25-2.95-4.3-2.85 3.65-2.75q-.9-1.55-2.4-3.4-2.3-2.85-4.6-4.4-.7-.5-1.45-.8-1.55-.35-4.5-.5z"/></g></defs><use xlink:href="#a"/><use xlink:href="#b"/><use xlink:href="#c" transform="matrix(.43787 0 0 .43787 7.8 1)"/><use xlink:href="#d" transform="matrix(.43787 0 0 .43787 7.8 1)"/><use xlink:href="#e" transform="matrix(.43787 0 0 .43787 7.8 1)"/><use xlink:href="#f" transform="matrix(.43787 0 0 .43787 7.8 1)"/><use xlink:href="#g" transform="matrix(.43767 0 0 .43767 7.8 1)"/><use xlink:href="#h" transform="matrix(.43767 0 0 .43767 7.8 1)"/><use xlink:href="#i" transform="matrix(.43767 0 0 .43767 7.8 1)"/><use xlink:href="#j" transform="matrix(.43767 0 0 .43767 7.8 1)"/><use xlink:href="#k" transform="matrix(.56244 0 0 .56244 0 .1)"/><use xlink:href="#l" transform="matrix(.56244 0 0 .56244 0 .1)"/><use xlink:href="#m" transform="matrix(.56244 0 0 .56244 0 .1)"/><use xlink:href="#n" transform="matrix(.56244 0 0 .56244 0 .1)"/><use xlink:href="#o" transform="matrix(.56244 0 0 .56244 0 .1)"/><use xlink:href="#p" transform="matrix(.56244 0 0 .56244 0 .1)"/><use xlink:href="#q"/><use xlink:href="#r" transform="scale(.5625)"/><use xlink:href="#s" transform="scale(.5625)"/></svg>