<svg xmlns="http://www.w3.org/2000/svg" xmlns:xlink="http://www.w3.org/1999/xlink" preserveAspectRatio="none" viewBox="0 0 72 72"><defs><path id="a" fill="#E0BB95" d="M44.95 11.2q-1.55-1.35-2.5-1.7-1.6-.65-2.35.3t.95 2.5q2.5 2.15 4.3 4.4.9 1.2.8 3.2-.1 1.35-1.3 2.45-1.15 1.1-2.95 1.55-2 .5-3.15-.35-.65-.5-1.85-2.25-1.15-1.65-2.05-2.2-1.65-.95-2.8.15-1 1-1.15 2.85-.15 1.85.3 3.75.15.75.95 3.4.55 1.7 1.8 2.8.8.65 2.8 2 .95.75.4 2.55-.65 2.2-.3 3.15.4 1.1 2.05 2.2.9.55 2.65 1.6.9.7 2.25.8 1.25.1 1.6-.4.35-.45.8-1.5.5-1.25.55-1.35 1.7-3.1 2.45-4.8 1.4-2.9 1.85-5.2.3-1.15.2-2.4 0-.4-.2-2.7-.05-3.35-.25-5l-.1-.8q-.45-2.45-.9-3.65-.7-1.65-2.2-2.9-1.8-1.7-2.65-2.45z"/><path id="b" fill="#C48E6A" d="M64.55 44.5q-.6-.15-1.25-.6-.05-.05-1.05-.9-1.5-1.25-3.15-1.9-.3.15.05 1.25.35.95.75 1.45 2.1 2.45 4.3 4.1.15.1.35-3.4z"/><path id="c" fill="#757575" d="M82.2 46.7q1.05-.65.85-1.95L75.15 3.8q-.15-.7-.7-1.15-.55-.45-1.2-.4-.6 0-1.05.3L60.75 10.2q-1.05.75-.8 1.95L67.8 53.1q.2 1.05 1.15 1.45.95.35 1.8-.2L82.2 46.7z"/><path id="d" fill="#757575" d="M73.25 6V2.25H70.3V6h2.95z"/><path id="e" fill="#757575" d="M69.75 54.7v-3.75h-3v3.75h3z"/><path id="f" fill="#B2B2B3" d="M57.85 10.2q-1.05.8-.8 1.95l7.9 40.95q.2 1.05 1.15 1.45.95.35 1.8-.2l11.45-7.65q1.05-.7.8-1.95L72.25 3.8q-.2-1-1.15-1.4-.95-.4-1.8.15L57.85 10.2z"/><path id="g" fill="#00ACC1" d="M82.5 80q-.2-1.55-1.45-2.5L65.9 65.6q-.85-.7-1.95-.6-1.1.15-1.8 1l-22.9 28.9q-1.9 2.3-4.75 1.9L0 94.45v32.25l48.25-2.35q3.4 0 5.35-2.75l28.2-38.8q.9-1.3.7-2.8z"/><path id="h" fill="#E0BB95" d="M82.4 41.35q2.3 1.45 4.25.35 2-1.1.9-3.3-.55-1.15-2.6-3.2-2.3-2.2-4-3.2-1.1-.6-4.95-2.25-3.65-1.35-5.45-1.45-1.5-.1-2.65.55-1.15.7-1.35 2-.25 1.25.7 2.25.9.95 3.05 1.65 3.85 1.2 4.45 1.45 2.45.9 4.15 2.2 1.05.85 3.5 2.95z"/><path id="i" fill="#E0BB95" d="M87.7 46.7q-.55-1.25-2.4-3.1-2.2-2.3-3.65-3.1-1.2-.75-4.55-2.15-3.2-1.3-4.95-1.35-1.55 0-2.45.6-1.05.7-1.25 2-.15 1.3.65 2.25.95 1.05 2.85 1.6 3.4 1.05 4.1 1.3 2.2.9 3.75 2.15 1 .85 3.2 2.85 2.1 1.4 3.9.3 1.85-1.2.8-3.35z"/><path id="j" fill="#E0BB95" d="M57.8 33.7q-1.5 1.1-1.2 3.15.35 2.15 2.55 4.5 2.3 2.5 4.45 3.55 2.7 1.3 4.25-.2 1.5-1.45.35-3.8-.85-1.75-3.7-4.85-1.7-1.8-3.35-2.5-1.95-.85-3.35.15z"/><path id="k" fill="#E0BB95" d="M88.5 29.4q-1.25-2.95-3.85-5.2-3.2-2.95-4.75-4.3-2.7-2.4-4.45-3-2.85-1.15-4.15.5-.8.95 0 2.4.55 1.05 1.7 2 4.65 4.05 7.6 7.9 1.65 2.15 1.45 5.3l8.35 3.15-.3-2.25q-.75-4.35-1.6-6.5z"/><path id="l" fill="#C48E6A" d="M45.35 30.25q-.55-.25-.95-.4-.7-.25-1.35-.05-.55.2-1.3.7-.7.5-1.1.6-.35.1-.95-.15-.65-.3-.85-.35 0 .6.35 1.05.35.5 1 .5 1.05 0 2-.7.2-.1.6-.45.3-.25.6-.3.45-.15 1-.05.3.05.95.2.25.05.95-.15-.35-.15-.95-.45z"/><path id="m" fill="#E0BB95" d="M48.25 28.95q0-.55-.3-.6-.45-.2-1.3-.7-.9-.55-1.3-.75-1.2-.5-2.2-.4-.5.1-1.3.55-1.45.85-1.85 1.3-.55.6-.9 1.25-.45.95-.05 1.4.35.4 1 .4.85 0 1.9-.85.65-.5 1.4-.65.85-.15 1.5.2.2.1.5.35.35.25.6.3.4.1 1-.1.5-.25.9-.7.4-.5.4-1z"/></defs><use xlink:href="#a"/><use transform="rotate(.078) scale(.56247)" xlink:href="#b"/><use transform="scale(.56242)" xlink:href="#c"/><use transform="scale(.56242)" xlink:href="#d"/><use transform="scale(.56242)" xlink:href="#e"/><use transform="scale(.56242)" xlink:href="#f"/><use transform="rotate(.078) scale(.56247)" xlink:href="#g"/><use transform="rotate(.078) scale(.56247)" xlink:href="#h"/><use transform="rotate(.078) scale(.56247)" xlink:href="#i"/><use transform="rotate(.078) scale(.56247)" xlink:href="#j"/><use transform="rotate(.078) scale(.56247)" xlink:href="#k"/><use xlink:href="#l"/><use xlink:href="#m"/></svg>