<svg xmlns="http://www.w3.org/2000/svg" xmlns:xlink="http://www.w3.org/1999/xlink" preserveAspectRatio="none" viewBox="0 0 72 72"><defs><path id="a" fill="#E59600" d="M106.9 66.05h-3.6v20.3q4.75 0 7.85-2.4 3.6-2.8 3.6-8.05 0-5.3-3.9-8.1l-3.95-1.75z"/><path id="b" fill="#E59600" d="M24.7 66.05h-3.65l-3.9 1.75q-3.95 2.8-3.95 8.1 0 5.25 3.6 8.05 3.1 2.4 7.9 2.4v-20.3z"/><path id="c" fill="#E1F5FE" d="M106.6 73.45q0-28.7-8.9-42.6Q87.55 14.9 64 14.9q-23.55 0-33.95 16.1Q21 45.15 21 73.8q0 24 15.45 37.5 12.4 10.85 27.55 10.85 15 0 27.3-11 15.3-13.7 15.3-37.7z"/><path id="d" fill="#E1F5FE" d="M40.15 72.35q-1.7 2-1.7 4.85 0 2.9 1.7 4.9 1.65 2 4.05 2 2.35 0 4.05-2 1.65-2.05 1.65-4.9 0-2.85-1.65-4.85-1.7-2.05-4.05-2.05-2.4 0-4.05 2.05z"/><path id="e" fill="#E1F5FE" d="M87.85 72.35q-1.7-2.05-4.05-2.05-2.4 0-4.05 2.05-1.7 2-1.7 4.85 0 2.85 1.7 4.9 1.65 2 4.05 2 2.35 0 4.05-2 1.65-2 1.65-4.9 0-2.85-1.65-4.85z"/><path id="f" fill="#E1F5FE" d="M63.95 108.75q4.9 0 9-2.15 3.2-1.7 4.5-3.7.7-1.05.35-1.7-.35-.65-1.45-.65H51.6q-1.1 0-1.45.65-.35.65.35 1.7 1.3 2 4.5 3.7 4.1 2.15 8.95 2.15z"/><path id="g" fill="#E1F5FE" d="M58 90q-.65-.15-.9.3-.3.4-.05.9.7 1.15 2.4 2.2 2.2 1.35 4.55 1.35 2.35 0 4.5-1.35 1.7-1.05 2.4-2.2.25-.5 0-.9-.3-.45-.95-.3-3.15.9-5.95.9-2.85 0-6-.9z"/><path id="h" fill="#FCC21B" d="M106.6 73.45q0-28.7-8.9-42.6Q87.55 14.9 64 14.9q-23.55 0-33.95 16.1Q21 45.15 21 73.8q0 24 15.45 37.5 12.4 10.85 27.55 10.85 15 0 27.3-11 15.3-13.7 15.3-37.7z"/><path id="i" fill="#444" d="M40.15 72.35q-1.7 2-1.7 4.85 0 2.9 1.7 4.9 1.65 2 4.05 2 2.35 0 4.05-2 1.65-2.05 1.65-4.9 0-2.85-1.65-4.85-1.7-2.05-4.05-2.05-2.4 0-4.05 2.05z"/><path id="j" fill="#444" d="M87.85 72.35q-1.7-2.05-4.05-2.05-2.4 0-4.05 2.05-1.7 2-1.7 4.85 0 2.85 1.7 4.9 1.65 2 4.05 2 2.35 0 4.05-2 1.65-2 1.65-4.9 0-2.85-1.65-4.85z"/><path id="k" fill="#513F35" d="M63.95 108.75q4.9 0 9-2.15 3.2-1.7 4.5-3.7.7-1.05.35-1.7-.35-.65-1.45-.65H51.6q-1.1 0-1.45.65-.35.65.35 1.7 1.3 2 4.5 3.7 4.1 2.15 8.95 2.15z"/><path id="l" fill="#E48C15" d="M58 90q-.65-.15-.9.3-.3.4-.05.9.7 1.15 2.4 2.2 2.2 1.35 4.55 1.35 2.35 0 4.5-1.35 1.7-1.05 2.4-2.2.25-.5 0-.9-.3-.45-.95-.3-3.15.9-5.95.9-2.85 0-6-.9z"/><path id="m" fill="#E59600" fill-opacity=".498" d="M31 2.4q-.35-.55-.95-.7-14.45-3.45-28.9 0-.6.15-.9.7-.35.5-.2 1.15Q.4 4.7 1.5 4.7l.35-.05q13.75-3.3 27.5 0 .6.15 1.15-.15.5-.35.65-.95.15-.65-.15-1.15z"/><path id="n" fill="#E59600" fill-opacity=".498" d="M32.5 4.8l.35.05q1.1 0 1.45-1.15.15-.6-.15-1.1-.35-.55-.95-.7-16-3.9-32.05 0-.6.15-.9.7-.35.5-.2 1.1.15.6.7.95.5.3 1.1.15 15.3-3.65 30.65 0z"/><path id="o" fill="#E59600" fill-opacity=".498" d="M12.75 2.85q.55-.3.75-.9.15-.6-.15-1.15-.25-.55-.85-.7-.65-.2-1.15.1Q8.9 1.55 6.4 4.15 1.45 9.35.05 16.5q-.1.6.25 1.1.3.55.95.65l.3.05q1.2 0 1.45-1.25 1.25-6.25 5.6-10.8 2.15-2.3 4.15-3.4z"/><path id="p" fill="#E59600" fill-opacity=".498" d="M11.8 2.2q.3-.55.1-1.15-.15-.6-.7-.9-.55-.3-1.15-.1-.6.15-.9.7-.55 1.1-1.8 2.1-2.5 2.1-5.85 2.1-.65 0-1.05.45Q0 5.8 0 6.45q0 .6.45 1.05.4.45 1.05.45 4.45 0 7.75-2.8 1.7-1.4 2.55-2.95z"/><path id="q" fill="#E59600" fill-opacity=".498" d="M42.7 52.9q1.1.6 2.35 1.9 2.45 2.55 3.15 6.1.05.3.3.5.2.2.55.2l.1-.05q.4-.05.6-.35.15-.3.1-.6-.8-4.05-3.6-6.95-1.4-1.5-2.75-2.25-.3-.15-.65-.05-.3.1-.5.4-.15.3-.05.65.1.35.4.5z"/><path id="r" fill="#E59600" fill-opacity=".498" d="M10.5 7.95q.65 0 1.05-.45.45-.45.45-1.05 0-.65-.45-1.05-.4-.45-1.05-.45-3.35 0-5.8-2Q3.45 1.9 2.8.75 2.5.2 1.9.05q-.6-.2-1.1.1-.55.3-.75.9-.15.6.1 1.15.9 1.55 2.55 2.95 3.3 2.8 7.8 2.8z"/><path id="s" fill="#757575" d="M64 79.45q-4.9-.05-8.4 2.95l.05 2.35q1.4-1.4 3.6-2.3 2.4-1 4.75-1v-2z"/><path id="t" fill="#757575" d="M72.35 82.4q-3.5-3-8.35-2.95v2q2.3 0 4.7 1 2.2.9 3.6 2.3l.05-2.35z"/><path id="u" fill="#FAFAFA" fill-opacity=".498" d="M12 0Q7 0 3.5 1.85T0 6.35Q0 9 3.5 10.9 7 12.75 12 12.75q4.95 0 8.5-1.85Q24 9 24 6.35q0-2.6-3.5-4.5Q16.95 0 12 0z"/><path id="w" fill="#FFF" d="M23.85 7.35q.15-.5.15-1 0-2.6-3.5-4.5Q16.95 0 12 0 7 0 3.5 1.85T0 6.35q0 .5.15 1 .7-2.35 4-3.9Q7.55 1.9 12 1.9q4.45 0 7.85 1.55 3.3 1.55 4 3.9z"/><path id="x" fill="#FFF" d="M23.85 7.35q.15-.5.15-1 0-2.65-3.5-4.5T12 0Q7.05 0 3.55 1.85 0 3.75 0 6.35q0 .5.15 1 .7-2.35 4-3.9Q7.55 1.9 12 1.9q4.5 0 7.85 1.55 3.35 1.55 4 3.9z"/><path id="y" fill="#FAFAFA" fill-opacity=".498" d="M12 0Q7.05 0 3.55 1.85 0 3.75 0 6.35 0 9 3.55 10.9q3.5 1.85 8.45 1.85 5 0 8.5-1.85Q24 9 24 6.35t-3.5-4.5Q17 0 12 0z"/><path id="z" fill="#757575" d="M31.6 84.5l.35-1.95q-2.15-.4-4.6-2.6-4.9-4.4-6.4-13.25l-1.95.35q1.65 9.75 7.15 14.55 2.75 2.4 5.45 2.9z"/><path id="A" fill="#757575" d="M96.3 84.5q2.75-.5 5.5-2.9 5.5-4.8 7.15-14.55L107 66.7q-1.45 8.85-6.25 13.2-2.45 2.2-4.8 2.65l.35 1.95z"/><path id="B" fill="#BF360C" d="M64.05 12.55h-.95q-24.7 0-38.7 15.15-6.55 7.05-8.75 15.95-2.25 9.2.6 18.85.25 0 .3-.1 4.6-3.35 11.45-10.25 7.9-8.15 11.9-12.1 14.8-14.65 24.15-16.2v-11.3z"/><path id="C" fill="#EEE" d="M55.85 19.5q-5.5-3.85-9-2.55-3.45 1.3-4.6 8.15-1.2 7.2-3 8.35-2.4 1.55-9.55.9-6.6-.6-8.7 1.8-1.8 2.05-.95 6.9 1.05 5.75.45 7.75-.6 1.9-5.7 5.1-4.65 2.9-4.7 6.65 0 2.5 2.85 5.15 3.2 3.05 3.85 5.2l.45 2.05q.25 1.25 1.55 1.25 1.3-.05 1.5-1.3 1.85-9.6 7.15-16.9 5.9-8.25 14.4-10.95Q45.25 46 55.5 43.9q8.55-2.75 8.55-8.55v-11.5q-2 0-8.2-4.35z"/><path id="D" fill="#BF360C" d="M50.2 23.1q2.35 2.35 6.95 7.2 4 4.05 6.7 6.05l.2.05q1.65-5.65.35-11.05-1.3-5.2-5.1-9.35-8.25-8.95-22.7-8.95h-.55v6.35q5.45.95 14.15 9.7z"/><path id="E" fill="#EEE" d="M45.7 9.55q-1.95-.75-5.05 1.4-3.45 2.45-4.6 2.45v6.5q0 3.25 4.8 4.8 2.65.85 7.65 1.75 4.8 1.55 8.15 6.2 3 4.1 4 9.5.15.7.85.7t.9-.7l.2-1.15q.35-1.2 2.2-2.9 1.6-1.5 1.6-2.9-.05-2.1-2.65-3.75-2.9-1.8-3.2-2.85-.35-1.2.25-4.4.45-2.7-.55-3.85-1.2-1.35-4.9-1.05-4 .4-5.35-.5-1.05-.65-1.7-4.7-.65-3.85-2.6-4.55z"/><filter id="v" width="140%" height="140%" x="-20%" y="-20%" color-interpolation-filters="sRGB"><feColorMatrix in="SourceGraphic" result="result1" values="1 0 0 0 0 0 1 0 0 0 0 0 1 0 0 0 0 0 0.8 0"/></filter></defs><use transform="rotate(.078) scale(.56247)" xlink:href="#a"/><use transform="rotate(.078) scale(.56247)" xlink:href="#b"/><use transform="rotate(.078) scale(.56247)" xlink:href="#c"/><use transform="rotate(.078) scale(.56247)" xlink:href="#d"/><use transform="rotate(.078) scale(.56247)" xlink:href="#e"/><use transform="rotate(.078) scale(.56247)" xlink:href="#f"/><use transform="rotate(.078) scale(.56247)" xlink:href="#g"/><use transform="scale(.56248)" xlink:href="#h"/><use transform="rotate(.078) scale(.56247)" xlink:href="#i"/><use transform="rotate(.078) scale(.56247)" xlink:href="#j"/><use transform="rotate(.078) scale(.56247)" xlink:href="#k"/><use transform="scale(.56248)" xlink:href="#l"/><use transform="translate(27.1 28.15) scale(.5625)" xlink:href="#m"/><use transform="translate(26.2 33.2) scale(.5625)" xlink:href="#n"/><use transform="matrix(.56247 0 0 .56247 21.65 51.3)" xlink:href="#o"/><use transform="matrix(.56247 0 0 .56247 23.1 46.35)" xlink:href="#p"/><use xlink:href="#q"/><use transform="matrix(.56247 0 0 .56247 41.75 46.35)" xlink:href="#r"/><use transform="scale(.5625)" xlink:href="#s"/><use transform="scale(.5625)" xlink:href="#t"/><use transform="translate(17.8 43.9) scale(.5625)" xlink:href="#u"/><use filter="url(#v)" transform="translate(17.8 42.85) scale(.5625)" xlink:href="#w"/><use filter="url(#v)" transform="translate(40.65 42.85) scale(.5625)" xlink:href="#x"/><use transform="translate(40.65 43.9) scale(.5625)" xlink:href="#y"/><use transform="scale(.5625)" xlink:href="#z"/><use transform="scale(.5625)" xlink:href="#A"/><use transform="scale(.5625)" xlink:href="#B"/><use transform="scale(.5625)" xlink:href="#C"/><use xlink:href="#D"/><use xlink:href="#E"/></svg>