<svg xmlns="http://www.w3.org/2000/svg" xmlns:xlink="http://www.w3.org/1999/xlink" preserveAspectRatio="none" viewBox="0 0 72 72"><defs><path id="a" fill="#FCC21B" d="M127.55 92.35q0-27-8.5-47.05-15.6-36.65-55.3-36.65Q24.1 8.65 8.5 45.3 0 65.35 0 92.35q0 10.4 18.7 17.7 18.65 7.35 45.05 7.35 26.45 0 45.1-7.35 18.7-7.3 18.7-17.7z"/><path id="b" fill="#2F2F2F" d="M101.1 49q-.25-1.1-1.25-1.7-.95-.55-2.05-.25-1.1.25-1.65 1.2-.85 1.35-2.45 2.55-3.1 2.4-7.25 2.4-4.1 0-7.25-2.4-2.35-2.45-2.45-2.55-.8-1.35-2.3-1.35-.7 0-1.4.4-.95.55-1.25 1.65-.3 1.15.25 2.1.1.15 3.6 3.9 4.7 3.7 10.8 3.7 6.15 0 10.8-3.7 2.35-1.85 3.6-3.9.55-.95.25-2.05z"/><path id="c" fill="#2F2F2F" d="M56.15 48.95q-.25-1.1-1.25-1.65-1-.55-2.05-.3-1.1.3-1.65 1.25-.75 1.25-2.35 2.5-3.15 2.45-7.35 2.45-4.15 0-7.25-2.4-2.35-2.45-2.4-2.55-.85-1.35-2.4-1.35-.65 0-1.35.4-.95.55-1.25 1.65-.3 1.15.25 2.1.1.15 3.6 3.9 4.65 3.7 10.8 3.7 6.1 0 10.8-3.7 2.35-1.85 3.55-3.9.6-.95.3-2.1z"/><g id="d"><path fill="#7E57C2" d="M44.7 51.45l.05-2.5-6.2-.35.25 2.9 5.9-.05z"/><path fill="#90CAF9" d="M56.85 41.15q.55-1.15 1.95-1.6 1.3-.3 2.5.25 1.6.85 2.2 2.6.4 1.85-.4 3.4-1.8 3.35-6.25 3.45-2.1 0-12.1-.3l-.05 2.5 12.1-.1q5.75 0 8.15-4.55 1.3-2.4.55-4.95-.8-2.6-3.2-3.85-1.95-1.1-4.1-.5-2.1.65-3.25 2.65-.85 1.7-.3 3.45.55 1.85 2.2 2.8 1.35.65 2.85.25 1.6-.25 2.35-1.75.45-.65.35-1.6 0-.9-.4-1.8-.85-1.4-2.4-1.55-.4-.05-.75.25t-.35.8q-.1.4.2.8.3.25.7.3.45 0 .75.45.15.4.15.75 0 .3-.1.6-.35.6-.95.7-.75.2-1.45-.15-.85-.5-1.1-1.45-.35-.9.15-1.85z"/></g><g id="e"><path fill="#90CAF9" d="M12.8 4.8q-1.25 8.65-5.2 14.8.15 7.45.75 14.15 3.85-.35 7.3-1.3 4.6-10.15 6.45-19.8-4.4-3.9-9.3-7.85m18.75 16.5q-.25 1.45-.6 2.85l1.7-1.7q-.55-.6-1.1-1.15z"/><path fill="#F44336" d="M30.95 24.15q.35-1.4.6-2.85-4.5-4.3-9.45-8.65-1.85 9.65-6.45 19.8 8.8-2.4 15.3-8.3M7.75.8q-.35 9.95-.15 18.8 3.95-6.15 5.2-14.8-2.45-1.95-5.05-4z"/></g><path id="f" fill="#2F2F2F" d="M63.9 64.6q-1.6.4-2.65 1.1-1.35.85-1.2 1.8.15.9 1.6 1.2.8.15 2.5.15 3.85 0 5.05 1.1.7.5.75 1.9.05.85-.7 1.8-1.05 1.35-3.2 1.85-1.1.3-1.75 1-.75.85-.45 1.85.4 1.25 1.8 1.5l.6.15q4.25.85 4.85 2.9.15.45 0 1.2-.2.7-.45 1-1.15 1.4-2.85 2.15-1.4.6-3.7.95-4.05.5-4 2.05.05 1 1.5 1.6 1.2.45 2.6.45 7.3 0 10.6-3.9 2.2-2.65 1.6-6.3-.45-2.7-3.85-4.8 2.8-2.7 2.7-5.55-.05-3.5-2.8-5.75-1.45-1.2-4.05-1.6-2.4-.3-4.5.2z"/><g id="g"><path fill="#00E676" d="M30.6 11.8l.7-4.05q-5.95.15-11.3-2.6l-.85 3.9Q24.4 11.7 30.6 11.8m26.25 19.75l-.9 3.7Q61.25 38 67.35 38l.9-3.95q-6.1.1-11.4-2.5z"/><path fill="#F44336" d="M58.25 10.95q-5.05 3.7-11.2 4.65l1.6 3.8q6.25-1 11.2-4.65l-1.6-3.8M67.8 57.5q-5 3.65-11.2 4.7l1.6 3.8q6.25-1 11.2-4.65l-1.6-3.85M4.35 38.55L2.2 42.2q4.75 4.55 10.9 6.35l2.25-3.75q-6.3-1.7-11-6.25z"/><path fill="#90CAF9" d="M8.1 62l1.1 4.1q6.4-.1 12-3.2l-1.05-4.05Q14.6 61.85 8.1 62z"/></g></defs><use transform="matrix(.54488 0 0 .54488 1.25 7.7)" xlink:href="#a"/><use transform="matrix(.54488 0 0 -.54488 1.25 65.2)" xlink:href="#b"/><use transform="matrix(.54488 0 0 -.54488 1.25 65.2)" xlink:href="#c"/><use xlink:href="#d"/><use xlink:href="#e"/><g><use transform="matrix(.54488 0 0 .54488 1.25 7.7)" xlink:href="#f"/></g><g><use xlink:href="#g"/></g></svg>