<svg xmlns="http://www.w3.org/2000/svg" xmlns:xlink="http://www.w3.org/1999/xlink" preserveAspectRatio="none" viewBox="0 0 72 72"><defs><path id="a" fill="#FCC21B" d="M127.85 93.4q0-27-8.5-47.1Q103.75 9.6 64 9.6T8.65 46.3Q.1 66.4.1 93.4q0 10.4 18.7 17.7 18.7 7.35 45.2 7.35 26.45 0 45.15-7.35 18.7-7.3 18.7-17.7z"/><path id="b" fill="#2F2F2F" d="M96.15 40.45Q95.3 41.8 93.7 43q-3.1 2.35-7.25 2.35-4.1 0-7.25-2.4-2.35-2.4-2.45-2.55-.75-1.3-2.3-1.3-.8 0-1.4.4-.95.55-1.25 1.65-.3 1.1.25 2.05.1.15 3.6 3.9 4.7 3.7 10.8 3.7 6.15 0 10.8-3.7 2.35-1.85 3.6-3.9.55-.95.25-2.05-.25-1.1-1.25-1.65-.95-.55-2.05-.3-1.1.3-1.65 1.25z"/><path id="c" fill="#2F2F2F" d="M52.3 47.1q2.35-1.85 3.55-3.9.6-.95.3-2.05-.25-1.1-1.25-1.65-.95-.6-2.05-.3-1.1.25-1.65 1.25-.75 1.25-2.35 2.45-3.15 2.45-7.35 2.45-4.15 0-7.25-2.35-2.35-2.45-2.4-2.55-.85-1.35-2.4-1.35-.75 0-1.35.4-.95.55-1.25 1.65-.3 1.1.25 2.05.1.15 3.6 3.9 4.65 3.7 10.8 3.7 6.1 0 10.8-3.7z"/><path id="d" fill="#ED6C30" d="M36 35.35q-5.35 0-10.05 5.25-4.9 5.45-5.85 12.55-1.05 7.3 3.8 9.65 4.8 2.3 12.7 2.15 7.9-.25 12.15-2.7 4.2-2.5 3.3-9.3-1-6.9-6-12.35Q41.4 35.35 36 35.35z"/><path id="e" fill="#FCC21B" d="M7.75 47.55q-2.3-1.95-3.85-.3-1.5 1.7.5 3.4 4.128 3.348 6.2 4.6L4.75 51.9q-2.2-.9-2.95 1.05-.75 2 1.85 3.3.35.2 3.3 1.55 2.8 1.35 2.8 1.5 0 .1-4.75-2.15-2.15-.7-2.8 1.05-.7 1.75 1.35 2.95 2.1.95 7.5 4.25 5.1 2.7 8.3 2.1 5.95-1.6 7.4-6.85 1.05-3.9-.5-7.8-.7-1.65-2.1-3.3-1.05-1.2-1.8-1.7-1.3-1.05-2.55-.05-1.2 1-.6 2.45 1.1 2.6 1.05 2.65-2.95-3.3-4.3-4.8-2.3-2.55-3.45-3.35-2.25-1.7-3.7-.1-1.35 1.55-.1 2.9 4.8 4.7 4.95 4.8 1.3 1.2-5.9-4.8z"/><path id="f" fill="#2F2F2F" d="M4.9 45.7q-1.1.15-1.8.9-.7.8-.7 1.95.05 1.2.85 2.25-1.85.35-2.45 1.9-.4.95 0 2.05.45 1.1 1.5 1.85-.85.7-1.1 1.25-.4 1.1.05 2.25.5 1.2 1.75 1.95l.1.1q1.1.45 3.4 1.85 2.9 1.75 4.05 2.35 5.4 2.85 8.95 2.25h.1q6.45-1.75 8.1-7.55 1.2-4.2-.5-8.5-.7-1.6-2.25-3.55-1.15-1.3-1.95-1.85-.9-.65-2-.65-1.05.05-1.8.65-.9.7-1.05 1.9-3.65-4.05-5-5.05-1.4-1.2-2.95-1.1-1.3.05-2.2 1.05-.75.9-.9 2.15-1.1-.55-2.2-.4m1.95 2.6v-.05l.1.1q-.036-.032-.1-.05.148.136.5.4l5.15 4.25q.4.3.6.4l.35.1h.25l.4-.1.4-.4.15-.45v-.25l-.05-.2-.1-.2-2.75-2.65q-1.2-1.2-1.65-1.6l-.8-.8q-.25-.2-.2-.7.05-.5.3-.85.4-.35.9-.35.7 0 1.6.65 1.35 1 7.55 8.05.6.6 1.2.2.45-.2.6-.8v-.3q0-.25-.15-.4l-1-2.3q-.3-.9.3-1.3.6-.5 1.3.05l.05.05q.55.25 1.55 1.5 1.3 1.45 1.95 3 1.35 3.55.45 7.2-1.35 4.6-6.65 6.15-2.8.45-7.6-2.05-1-.55-3.95-2.3-2.256-1.344-3.5-1.9-1.25-.8-.95-1.75.4-.85 1.55-.45l.15.05 2.2 1.05q1.2.6 1.65.75l.55.2q.05.1.2.1l.3.05q.2 0 .45-.15.6-.3.6-.9 0-.45-.2-.65-.15-.15-.2-.15l-.25-.2-.7-.4L4.1 55.5q-1.8-.9-1.35-2.05.3-1 1.6-.55l6.1 3.45q.4.2.75.05.4-.1.6-.5.15-.35.05-.75-.1-.4-.45-.6-.85-.5-3.3-2.35-2.15-1.6-3.05-2.35-1.2-1-.45-1.9.733-.978 2.25.35z"/></defs><use transform="scale(.5625)" xlink:href="#a"/><use transform="matrix(.54332 .14557 .14557 -.54332 -3.8 37.15)" xlink:href="#b"/><use transform="matrix(.54332 -.14557 -.14557 -.54332 6.3 55.8)" xlink:href="#c"/><use transform="matrix(1 0 0 .90541 0 1.75)" xlink:href="#d"/><g><use transform="matrix(-1.18295 0 0 1.18176 44.6 -15.75)" xlink:href="#e"/><use transform="matrix(-1.18295 0 0 1.18176 44.6 -15.75)" xlink:href="#f"/></g></svg>