<svg xmlns="http://www.w3.org/2000/svg" xmlns:xlink="http://www.w3.org/1999/xlink" preserveAspectRatio="none" viewBox="0 0 72 72"><defs><path id="a" fill="#FCC21B" d="M36 5.6q-22.2 0-30.95 20.5Q.25 37.35.25 52.45q0 5.8 10.45 9.9 10.5 4.1 25.3 4.1t25.25-4.1q10.45-4.1 10.45-9.9 0-15.1-4.8-26.35Q58.2 5.6 36 5.6z"/><path id="b" fill="#FCC21B" d="M65.1 47.25q1.75-3.7.35-7.5T60.3 34.2q-3.7-1.7-7.55-.3-3.85 1.4-5.55 5.1-1.75 3.65-.35 7.45 1.4 3.8 5.1 5.55 3.75 1.7 7.6.3 3.85-1.4 5.55-5.05z"/><path id="c" fill="#FCC01C" d="M64.75 47.05q1.65-3.5.3-7.15-1.35-3.65-4.9-5.3-3.55-1.65-7.25-.3-3.7 1.3-5.4 4.85-1.65 3.5-.3 7.15 1.35 3.7 4.9 5.3 3.6 1.65 7.3.3 3.7-1.3 5.35-4.85z"/><path id="d" fill="#FCBE1C" d="M64.4 46.9q1.55-3.4.3-6.9-1.25-3.5-4.7-5.05-3.4-1.55-6.95-.3-3.55 1.25-5.15 4.65-1.6 3.35-.3 6.9 1.3 3.5 4.7 5.05 3.4 1.6 6.95.3 3.55-1.25 5.15-4.65z"/><path id="e" fill="#FBBB1D" d="M64 46.7q1.55-3.2.3-6.55-1.25-3.35-4.5-4.85-3.25-1.5-6.65-.25-3.35 1.2-4.9 4.45-1.5 3.2-.3 6.55 1.25 3.35 4.5 4.85 3.3 1.5 6.65.25 3.4-1.2 4.9-4.45z"/><path id="f" fill="#FBB91E" d="M63.65 46.55q1.45-3.05.3-6.25-1.2-3.2-4.3-4.6-3.15-1.45-6.35-.3-3.2 1.15-4.65 4.25-1.45 3.05-.3 6.25t4.3 4.65q3.1 1.4 6.35.25 3.2-1.15 4.65-4.25z"/><path id="g" fill="#FBB71E" d="M63.3 46.4q1.4-2.95.25-5.95-1.15-3.05-4.05-4.4-3-1.35-6.05-.25t-4.45 4q-1.4 2.95-.25 5.95 1.1 3.05 4.05 4.4 3 1.4 6.05.25 3.05-1.1 4.45-4z"/><path id="h" fill="#FBB51F" d="M62.95 46.2q1.3-2.75.25-5.65-1.1-2.85-3.9-4.15-2.8-1.3-5.7-.25-2.9 1.05-4.25 3.85-1.3 2.75-.25 5.65 1.1 2.85 3.9 4.15 2.8 1.3 5.7.25 2.9-1.05 4.25-3.85z"/><path id="i" fill="#FAB220" d="M62.55 46.05q1.25-2.6.25-5.35-1-2.7-3.65-3.95-2.7-1.2-5.45-.2t-3.95 3.6q-1.25 2.6-.25 5.35 1 2.75 3.65 3.95 2.65 1.2 5.4.2 2.8-.95 4-3.6z"/><path id="j" fill="#FAB020" d="M58.45 49.3q2.6-.95 3.75-3.4 1.15-2.5.2-5.05-.95-2.6-3.45-3.75t-5.1-.2q-2.6.95-3.75 3.4-1.2 2.5-.25 5.05 1 2.6 3.5 3.75t5.1.2z"/><path id="k" fill="#FAAE21" d="M58.3 48.9q2.45-.85 3.55-3.2 1.05-2.3.2-4.7-.9-2.45-3.25-3.5-2.35-1.1-4.8-.2-2.45.85-3.55 3.2-1.1 2.3-.2 4.75.9 2.4 3.25 3.5 2.35 1.05 4.8.15z"/><path id="l" fill="#FAAC22" d="M58.15 48.55q2.3-.8 3.3-3 1.05-2.15.2-4.45-.8-2.25-3-3.25t-4.5-.2q-2.3.85-3.35 3-1 2.2-.2 4.45.85 2.25 3.05 3.25 2.2 1.05 4.5.2z"/><path id="m" fill="#F9A922" d="M58 48.15q2.15-.75 3.1-2.75.95-2.05.2-4.15-.8-2.1-2.85-3.05-2.05-.95-4.2-.2-2.1.8-3.05 2.8-.95 2.05-.2 4.15.8 2.1 2.85 3.05 2 .95 4.15.15z"/><path id="n" fill="#F9A723" d="M57.85 47.8q2-.7 2.9-2.6.85-1.85.15-3.8-.7-1.95-2.6-2.85-1.9-.85-3.9-.15-1.95.7-2.85 2.6-.85 1.85-.15 3.8.7 1.95 2.6 2.85 1.9.85 3.85.15z"/><path id="o" fill="#F9A524" d="M57.75 47.4q1.8-.65 2.6-2.35.85-1.75.2-3.55-.65-1.75-2.45-2.55-1.75-.85-3.55-.2-1.8.7-2.6 2.4-.85 1.75-.2 3.55.7 1.8 2.4 2.55 1.8.8 3.6.15z"/><path id="p" fill="#F9A324" d="M57.6 47.05q1.65-.6 2.4-2.15.75-1.6.15-3.25-.6-1.6-2.2-2.35t-3.25-.15q-1.7.6-2.4 2.2-.75 1.55-.15 3.2.6 1.6 2.2 2.35t3.25.15z"/><path id="q" fill="#F8A025" d="M57.45 46.65q1.5-.5 2.2-1.95.65-1.45.1-2.9-.5-1.5-1.95-2.15-1.45-.7-2.95-.15-1.5.55-2.2 2-.65 1.45-.15 2.9.55 1.5 2 2.15 1.45.65 2.95.1z"/><path id="r" fill="#F89E26" d="M57.3 46.3q1.35-.5 1.95-1.75.65-1.3.15-2.6-.5-1.35-1.8-1.95-1.3-.6-2.65-.1-1.35.5-1.95 1.75-.6 1.3-.1 2.6.5 1.35 1.8 1.95 1.3.6 2.6.1z"/><path id="s" fill="#F89C26" d="M57.2 45.9q1.2-.4 1.7-1.55.55-1.1.1-2.3-.4-1.15-1.55-1.7-1.15-.5-2.35-.1-1.2.45-1.7 1.6-.55 1.1-.1 2.3.4 1.15 1.55 1.7 1.15.5 2.35.05z"/><path id="t" fill="#F89A27" d="M57.05 45.55q1-.4 1.5-1.35.45-1 .1-2t-1.4-1.45q-1-.45-2-.1-1.05.4-1.5 1.35-.45 1-.1 2 .4 1 1.35 1.45 1 .5 2.05.1z"/><path id="u" fill="#F79728" d="M56.9 45.2q.9-.35 1.3-1.15.35-.85.05-1.7-.35-.85-1.15-1.25-.85-.4-1.7-.1-.9.35-1.3 1.15-.4.85-.05 1.7.3.85 1.15 1.25.85.4 1.7.1z"/><path id="v" fill="#F79528" d="M56.75 44.8q.75-.25 1.05-.95.3-.65.05-1.35-.25-.7-.95-1.05-.7-.3-1.4-.05t-1.05.95q-.3.65-.05 1.35.25.7.95 1.05.7.3 1.4.05z"/><path id="w" fill="#F79329" d="M56.65 44.45q.55-.2.8-.75t.05-1.1q-.2-.55-.75-.8t-1.1-.05q-.55.25-.8.75-.25.55-.05 1.1t.75.8q.55.25 1.1.05z"/><path id="x" fill="#FCC21B" d="M65.1 47.25q1.75-3.7.35-7.5T60.3 34.2q-3.7-1.7-7.55-.3-3.85 1.4-5.55 5.1-1.75 3.65-.35 7.45 1.4 3.8 5.1 5.55 3.75 1.7 7.6.3 3.85-1.4 5.55-5.05z"/><path id="y" fill="#FCC01C" d="M64.75 47.05q1.65-3.5.3-7.15-1.35-3.65-4.9-5.3-3.55-1.65-7.25-.3-3.7 1.3-5.4 4.85-1.65 3.5-.3 7.15 1.35 3.7 4.9 5.3 3.6 1.65 7.3.3 3.7-1.3 5.35-4.85z"/><path id="z" fill="#FCBE1C" d="M64.4 46.9q1.55-3.4.3-6.9-1.25-3.5-4.7-5.05-3.4-1.55-6.95-.3-3.55 1.25-5.15 4.65-1.6 3.35-.3 6.9 1.3 3.5 4.7 5.05 3.4 1.6 6.95.3 3.55-1.25 5.15-4.65z"/><path id="A" fill="#FBBB1D" d="M64 46.7q1.55-3.2.3-6.55-1.25-3.35-4.5-4.85-3.25-1.5-6.65-.25-3.35 1.2-4.9 4.45-1.5 3.2-.3 6.55 1.25 3.35 4.5 4.85 3.3 1.5 6.65.25 3.4-1.2 4.9-4.45z"/><path id="B" fill="#FBB91E" d="M63.65 46.55q1.45-3.05.3-6.25-1.2-3.2-4.3-4.6-3.15-1.45-6.35-.3-3.2 1.15-4.65 4.25-1.45 3.05-.3 6.25t4.3 4.65q3.1 1.4 6.35.25 3.2-1.15 4.65-4.25z"/><path id="C" fill="#FBB71E" d="M63.3 46.4q1.4-2.95.25-5.95-1.15-3.05-4.05-4.4-3-1.35-6.05-.25t-4.45 4q-1.4 2.95-.25 5.95 1.1 3.05 4.05 4.4 3 1.4 6.05.25 3.05-1.1 4.45-4z"/><path id="D" fill="#FBB51F" d="M62.95 46.2q1.3-2.75.25-5.65-1.1-2.85-3.9-4.15-2.8-1.3-5.7-.25-2.9 1.05-4.25 3.85-1.3 2.75-.25 5.65 1.1 2.85 3.9 4.15 2.8 1.3 5.7.25 2.9-1.05 4.25-3.85z"/><path id="E" fill="#FAB220" d="M62.55 46.05q1.25-2.6.25-5.35-1-2.7-3.65-3.95-2.7-1.2-5.45-.2t-3.95 3.6q-1.25 2.6-.25 5.35 1 2.75 3.65 3.95 2.65 1.2 5.4.2 2.8-.95 4-3.6z"/><path id="F" fill="#FAB020" d="M58.45 49.3q2.6-.95 3.75-3.4 1.15-2.5.2-5.05-.95-2.6-3.45-3.75t-5.1-.2q-2.6.95-3.75 3.4-1.2 2.5-.25 5.05 1 2.6 3.5 3.75t5.1.2z"/><path id="G" fill="#FAAE21" d="M58.3 48.9q2.45-.85 3.55-3.2 1.05-2.3.2-4.7-.9-2.45-3.25-3.5-2.35-1.1-4.8-.2-2.45.85-3.55 3.2-1.1 2.3-.2 4.75.9 2.4 3.25 3.5 2.35 1.05 4.8.15z"/><path id="H" fill="#FAAC22" d="M58.15 48.55q2.3-.8 3.3-3 1.05-2.15.2-4.45-.8-2.25-3-3.25t-4.5-.2q-2.3.85-3.35 3-1 2.2-.2 4.45.85 2.25 3.05 3.25 2.2 1.05 4.5.2z"/><path id="I" fill="#F9A922" d="M58 48.15q2.15-.75 3.1-2.75.95-2.05.2-4.15-.8-2.1-2.85-3.05-2.05-.95-4.2-.2-2.1.8-3.05 2.8-.95 2.05-.2 4.15.8 2.1 2.85 3.05 2 .95 4.15.15z"/><path id="J" fill="#F9A723" d="M57.85 47.8q2-.7 2.9-2.6.85-1.85.15-3.8-.7-1.95-2.6-2.85-1.9-.85-3.9-.15-1.95.7-2.85 2.6-.85 1.85-.15 3.8.7 1.95 2.6 2.85 1.9.85 3.85.15z"/><path id="K" fill="#F9A524" d="M57.75 47.4q1.8-.65 2.6-2.35.85-1.75.2-3.55-.65-1.75-2.45-2.55-1.75-.85-3.55-.2-1.8.7-2.6 2.4-.85 1.75-.2 3.55.7 1.8 2.4 2.55 1.8.8 3.6.15z"/><path id="L" fill="#F9A324" d="M57.6 47.05q1.65-.6 2.4-2.15.75-1.6.15-3.25-.6-1.6-2.2-2.35t-3.25-.15q-1.7.6-2.4 2.2-.75 1.55-.15 3.2.6 1.6 2.2 2.35t3.25.15z"/><path id="M" fill="#F8A025" d="M57.45 46.65q1.5-.5 2.2-1.95.65-1.45.1-2.9-.5-1.5-1.95-2.15-1.45-.7-2.95-.15-1.5.55-2.2 2-.65 1.45-.15 2.9.55 1.5 2 2.15 1.45.65 2.95.1z"/><path id="N" fill="#F89E26" d="M57.3 46.3q1.35-.5 1.95-1.75.65-1.3.15-2.6-.5-1.35-1.8-1.95-1.3-.6-2.65-.1-1.35.5-1.95 1.75-.6 1.3-.1 2.6.5 1.35 1.8 1.95 1.3.6 2.6.1z"/><path id="O" fill="#F89C26" d="M57.2 45.9q1.2-.4 1.7-1.55.55-1.1.1-2.3-.4-1.15-1.55-1.7-1.15-.5-2.35-.1-1.2.45-1.7 1.6-.55 1.1-.1 2.3.4 1.15 1.55 1.7 1.15.5 2.35.05z"/><path id="P" fill="#F89A27" d="M57.05 45.55q1-.4 1.5-1.35.45-1 .1-2t-1.4-1.45q-1-.45-2-.1-1.05.4-1.5 1.35-.45 1-.1 2 .4 1 1.35 1.45 1 .5 2.05.1z"/><path id="Q" fill="#F79728" d="M56.9 45.2q.9-.35 1.3-1.15.35-.85.05-1.7-.35-.85-1.15-1.25-.85-.4-1.7-.1-.9.35-1.3 1.15-.4.85-.05 1.7.3.85 1.15 1.25.85.4 1.7.1z"/><path id="R" fill="#F79528" d="M56.75 44.8q.75-.25 1.05-.95.3-.65.05-1.35-.25-.7-.95-1.05-.7-.3-1.4-.05t-1.05.95q-.3.65-.05 1.35.25.7.95 1.05.7.3 1.4.05z"/><path id="S" fill="#F79329" d="M56.65 44.45q.55-.2.8-.75t.05-1.1q-.2-.55-.75-.8t-1.1-.05q-.55.25-.8.75-.25.55-.05 1.1t.75.8q.55.25 1.1.05z"/><path id="U" fill="none" stroke="#2F2F2F" stroke-linecap="round" stroke-linejoin="round" stroke-width="3" d="M56.6 23.7h-1.3q-4.6 0-6.45-1.6-1.45-1.45-2.1-2.55M15.6 23.6q5.55.2 7.7-1.6 1.45-1.45 2.1-2.55m4.6 35.8q6.3-2.1 12 0"/><g id="T"><path fill="#FFF" d="M14.25 34.75q0 3.5 2.5 5.95 2.5 2.55 6.05 2.55 3.5 0 5.95-2.55 2.55-2.45 2.55-5.95 0-3.55-2.55-6.05-2.45-2.5-5.95-2.5-3.55 0-6.05 2.5t-2.5 6.05m2.2-2.05q0-2.65 1.85-4.5 1.85-1.9 4.55-1.9 2.7 0 4.55 1.9 1.85 1.85 1.85 4.5 0 2.7-1.85 4.5-1.85 2.05-4.55 2.05-2.7 0-4.55-2.05-1.85-1.8-1.85-4.5m11.25 3.45V36q-.1-.35-.3-.7-.25-.25-.75-.25-.45 0-.75.25-.35.4-.35.85 0 .45.35.75.3.25.65.3h.1q.5 0 .75-.3.3-.3.3-.75M20.15 28q-.85 0-1.55.65-.6.7-.6 1.5 0 1 .6 1.6.7.65 1.55.65 1 0 1.55-.65.65-.6.65-1.6 0-.8-.65-1.5-.55-.65-1.55-.65m37.65 6.85q0-3.55-2.55-6.05-2.45-2.5-5.95-2.5-3.55 0-6.05 2.5t-2.5 6.05q0 3.5 2.5 5.95 2.5 2.55 6.05 2.55 3.5 0 5.95-2.55 2.55-2.45 2.55-5.95m-3.9-6.55q1.85 1.85 1.85 4.5 0 2.7-1.85 4.5-1.85 2.05-4.55 2.05-2.7 0-4.55-2.05-1.85-1.8-1.85-4.5 0-2.65 1.85-4.5 1.85-1.9 4.55-1.9 2.7 0 4.55 1.9m-5.05 1.95q0-.8-.65-1.5-.55-.65-1.55-.65-.85 0-1.55.65-.6.7-.6 1.5 0 1 .6 1.6.7.65 1.55.65 1 0 1.55-.65.65-.6.65-1.6m5.35 5.85q-.1-.35-.3-.7-.25-.25-.75-.25-.45 0-.75.25-.35.4-.35.85 0 .45.35.75.3.25.65.3h.1q.5 0 .75-.3.3-.3.3-.75v-.15z"/><path fill="#2F2F2F" d="M18.3 28.2q-1.85 1.85-1.85 4.5 0 2.7 1.85 4.5 1.85 2.05 4.55 2.05 2.7 0 4.55-2.05 1.85-1.8 1.85-4.5 0-2.65-1.85-4.5-1.85-1.9-4.55-1.9-2.7 0-4.55 1.9m.3.45q.7-.65 1.55-.65 1 0 1.55.65.65.7.65 1.5 0 1-.65 1.6-.55.65-1.55.65-.85 0-1.55-.65-.6-.6-.6-1.6 0-.8.6-1.5M27.7 36v.15q0 .45-.3.75-.25.3-.75.3h-.1q-.35-.05-.65-.3-.35-.3-.35-.75t.35-.85q.3-.25.75-.25.5 0 .75.25.2.35.3.7m28.05-3.2q0-2.65-1.85-4.5-1.85-1.9-4.55-1.9-2.7 0-4.55 1.9-1.85 1.85-1.85 4.5 0 2.7 1.85 4.5 1.85 2.05 4.55 2.05 2.7 0 4.55-2.05 1.85-1.8 1.85-4.5m-1.85 2.6q.2.35.3.7v.15q0 .45-.3.75-.25.3-.75.3h-.1q-.35-.05-.65-.3-.35-.3-.35-.75t.35-.85q.3-.25.75-.25.5 0 .75.25m-5.7-6.65q.65.7.65 1.5 0 1-.65 1.6-.55.65-1.55.65-.85 0-1.55-.65-.6-.6-.6-1.6 0-.8.6-1.5.7-.65 1.55-.65 1 0 1.55.65z"/></g></defs><use xlink:href="#a"/><use transform="translate(-41.25 .9)" xlink:href="#b"/><use transform="translate(-41.25 .9)" xlink:href="#c"/><use transform="translate(-41.25 .9)" xlink:href="#d"/><use transform="translate(-41.25 .9)" xlink:href="#e"/><use transform="translate(-41.25 .9)" xlink:href="#f"/><use transform="translate(-41.25 .9)" xlink:href="#g"/><use transform="translate(-41.25 .9)" xlink:href="#h"/><use transform="translate(-41.25 .9)" xlink:href="#i"/><use transform="translate(-41.25 .9)" xlink:href="#j"/><use transform="translate(-41.25 .9)" xlink:href="#k"/><use transform="translate(-41.25 .9)" xlink:href="#l"/><use transform="translate(-41.25 .9)" xlink:href="#m"/><use transform="translate(-41.25 .9)" xlink:href="#n"/><use transform="translate(-41.25 .9)" xlink:href="#o"/><use transform="translate(-41.25 .9)" xlink:href="#p"/><use transform="translate(-41.25 .9)" xlink:href="#q"/><use transform="translate(-41.25 .9)" xlink:href="#r"/><use transform="translate(-41.25 .9)" xlink:href="#s"/><use transform="translate(-41.25 .9)" xlink:href="#t"/><use transform="translate(-41.25 .9)" xlink:href="#u"/><use transform="translate(-41.25 .9)" xlink:href="#v"/><use transform="translate(-41.25 .9)" xlink:href="#w"/><use transform="translate(.95 .9)" xlink:href="#x"/><use transform="translate(.95 .9)" xlink:href="#y"/><use transform="translate(.95 .9)" xlink:href="#z"/><use transform="translate(.95 .9)" xlink:href="#A"/><use transform="translate(.95 .9)" xlink:href="#B"/><use transform="translate(.95 .9)" xlink:href="#C"/><use transform="translate(.95 .9)" xlink:href="#D"/><use transform="translate(.95 .9)" xlink:href="#E"/><use transform="translate(.95 .9)" xlink:href="#F"/><use transform="translate(.95 .9)" xlink:href="#G"/><use transform="translate(.95 .9)" xlink:href="#H"/><use transform="translate(.95 .9)" xlink:href="#I"/><use transform="translate(.95 .9)" xlink:href="#J"/><use transform="translate(.95 .9)" xlink:href="#K"/><use transform="translate(.95 .9)" xlink:href="#L"/><use transform="translate(.95 .9)" xlink:href="#M"/><use transform="translate(.95 .9)" xlink:href="#N"/><use transform="translate(.95 .9)" xlink:href="#O"/><use transform="translate(.95 .9)" xlink:href="#P"/><use transform="translate(.95 .9)" xlink:href="#Q"/><use transform="translate(.95 .9)" xlink:href="#R"/><use transform="translate(.95 .9)" xlink:href="#S"/><g><g><use xlink:href="#T"/><use xlink:href="#U"/></g></g></svg>