<svg xmlns="http://www.w3.org/2000/svg" xmlns:xlink="http://www.w3.org/1999/xlink" preserveAspectRatio="none" viewBox="0 0 72 72"><defs><path fill="url(#a)" d="M36 5.6q-22.2 0-30.95 20.5Q.25 37.35.25 52.45q0 5.8 10.45 9.9 10.5 4.1 25.3 4.1t25.25-4.1q10.45-4.1 10.45-9.9 0-15.1-4.8-26.35Q58.2 5.6 36 5.6z" id="b"/><path fill="#2F2F2F" d="M36.05 41.15h-.1q-.75 0-1.8.05H32.3q-8.7.4-10.05 7.35.15 1.8 2.85 1.8Q30.65 50 36.05 50q5.55 0 11.1.35 2.7 0 2.7-1.8-1.2-6.95-9.85-7.35h-1.9q-1.1-.05-1.8-.05h-.25z" id="c"/><path fill="#2F2F2F" d="M53 30.35q0-1.05-.25-1.95-4.3-.4-7.1-2.4-.25.2-.45.45-1.35 1.55-1.35 3.85 0 2.25 1.3 3.85 1.35 1.6 3.2 1.6 1.9.05 3.3-1.5Q53 32.6 53 30.35z" id="d"/><path fill="#2F2F2F" d="M19.25 28.35q-.273.945-.25 2 0 2.25 1.35 3.9 1.4 1.55 3.3 1.5 1.85 0 3.2-1.6 1.3-1.6 1.3-3.85 0-2.3-1.35-3.85-.222-.254-.45-.5-2.796 2.06-7.1 2.4z" id="e"/><path fill="#D7598B" d="M36 45.35q-3.9 0-9.75.5.7.8 1.95 7.7.15.8.3 1.5l.1.4q.8 2.2 1.85 3.5.95 1.1 2.2 1.5 1.35.45 3.35.45t3.35-.45q1.25-.4 2.2-1.5 1.05-1.3 1.85-3.5.046-.195.1-.4.146-.69.3-1.5 1.25-6.9 1.95-7.7-5.85-.5-9.75-.5v9.7-9.7z" id="f"/><path fill="#40C0E7" d="M109 50.45q-2.4 6.05 0 10.05 2.5 3.85 5.95 3.85 3.5 0 6-3.85 2.4-4 0-10.05-2.5-6.1-6-9.6-3.45 3.5-5.95 9.6z" id="h"/><path id="g" stroke="#2F2F2F" stroke-width="2" stroke-linejoin="round" stroke-linecap="round" fill="none" d="M36 45.05v10"/><linearGradient id="a" gradientUnits="userSpaceOnUse" x1="36" y1="40.987" x2="36" y2="12.812" spreadMethod="pad"><stop offset="0%" stop-color="#FCC21B"/><stop offset="100%" stop-color="#ED6C30"/></linearGradient></defs><use xlink:href="#b"/><use xlink:href="#c"/><use xlink:href="#d"/><use xlink:href="#e"/><g><use xlink:href="#f"/><use xlink:href="#g"/></g><g><use xlink:href="#h" transform="translate(-103.15 -21.3)"/></g></svg>