<svg xmlns="http://www.w3.org/2000/svg" xmlns:xlink="http://www.w3.org/1999/xlink" preserveAspectRatio="none" viewBox="0 0 72 72"><defs><path id="b" fill="#FFA000" d="M64.85 22.55l-.6-.5q.7-1.1.7-2.55 0-2.05-1.4-3.5-1.2-1.15-2.85-1.35.1-.4.1-.85 0-2.05-1.4-3.5-1.45-1.4-3.5-1.4-.7 0-1.3.2-.35-1.15-1.2-2.05-1.45-1.4-3.5-1.4-1.2 0-2.2.5-.25-.5-.7-.95-1.45-1.4-3.5-1.4-2 0-3.45 1.4-.15.15-.3.35-.15-.2-.3-.35Q38 3.8 36 3.8q-2.018.017-3.45 1.4-.15.15-.3.35-.15-.2-.3-.35-1.45-1.4-3.45-1.4-2.05 0-3.5 1.4-.45.45-.7.95-1-.5-2.2-.5-2.05 0-3.5 1.4-.85.9-1.2 2.05-.6-.2-1.3-.2-2.05 0-3.5 1.4-1.4 1.45-1.4 3.5 0 .45.1.85-1.65.2-2.85 1.35-1.4 1.45-1.4 3.5 0 1.45.7 2.55l-.6.5q-1.4 1.45-1.4 3.5 0 1.85 1.15 3.2-.1.05-.15.1-1.4 1.45-1.4 3.5t1.4 3.45q.45.45.95.75 4.117 2.73 4.2 7.65 2.75-.95 3.5-1.7 1.45-1.4 1.45-3.45 0-.55-.1-1.05.95-.35 1.75-1.15 1.45-1.4 1.45-3.45v-.2q1.3-.3 2.35-1.35.7-.65 1.05-1.45.4.05.85.05 2 0 3.45-1.45 1.45 1.45 3.5 1.45 1.35 0 2.45-.65 1.05.65 2.4.65 1.35 0 2.4-.65 1.1.65 2.45.65 2.05 0 3.5-1.45 1.45 1.45 3.45 1.45.45 0 .85-.05.35.8 1.05 1.45 1.05 1.05 2.35 1.35v.2q0 2.05 1.45 3.45.8.8 1.75 1.15-.1.5-.1 1.05 0 2.05 1.45 3.45.75.75 3.5 1.7.1-4.9 4.2-7.65.5-.3.95-.75 1.4-1.4 1.4-3.45 0-2.05-1.4-3.5-.05-.05-.15-.1 1.15-1.35 1.15-3.2 0-2.05-1.4-3.5z"/><path id="a" fill="none" stroke="#2F2F2F" stroke-linecap="round" stroke-linejoin="round" stroke-width="3" d="M3.5 3.5h65v65h-65v-65z"/></defs><use xlink:href="#a"/><use transform="translate(0 11.75)" xlink:href="#b"/></svg>