<svg xmlns="http://www.w3.org/2000/svg" xmlns:xlink="http://www.w3.org/1999/xlink" preserveAspectRatio="none" viewBox="0 0 72 72"><defs><path id="a" fill="#FCC21B" d="M59.95 6.1q-.7-4.2-2.5-3.95h-.55q-14.7 1.5-23.35 5-3 1.2-5.6 2.7-2.65 1.45-3 5.05-.1.894-.05 1.7.056.975.1 1.9.23 3.158 1.3 6.9-.005.161 0 .3-.17 4.587-.1 9.3.103 7.297.15 8.2l.8 8.1q.45 3.2-3.1 6.55L21.2 61.1q-2.2 2.3-4.15 2.55-2 .3-2.65.45-.65.2-.9.45-.25.15-.6.3-.25.1-.9.2-.65.05-.65.9-.15.7.6 1.2.05.8 1.2 1.35.3.6 1.5.45V69q.3.65 1.55.2.2.75 1.15.7.45-.05.85-.25.65-.35 1.55-.2h.35q1.95-.25 4-1.05 1.95-.85 3.6-2 2.9-2.1 6.65-2.75 1.5-.2 2.9-.85 2.75-.85 2.95-3.55.05-2-1.1-3.4-1.65-1.75-2.2-5.8l-.25-1.75q-.6-6 1.75-11.2 2.35-5.15 3.4-10.9.7-4 .05-6.5 9.25-.45 17-4.8 2.15-1.05 1.85-3.2l-.75-5.6z"/><path id="c" fill="#E48C15" d="M20.05 63.55q-.108-.154-.3-.2-4.505-.813-7.45 3.4-.028.062-.05.1-.054.106-.05.2.215-.007.45-.05.041.287.15.55.201-.062.3-.25 2.555-3.638 6.45-2.95.204.028.35-.1.204-.108.25-.3.028-.204-.1-.4M3.3 60.75q.178.195.35.35 0 .25.05.45.005.046 0 .1.056-.013.1-.05.208-.01.3-.2 1.054-1.591 3.35-2.5.217-.055.3-.25.092-.186 0-.4-.055-.166-.25-.25-.186-.092-.4-.05-2.59 1.017-3.8 2.8m12.45.5q.208-.048.3-.25.128-.15.05-.35-.01-.208-.2-.35-.15-.09-.35-.05-5.12 1.168-6.85 5.55v.05q.006.05 0 .1.194.005.4 0l.05.1q.095.22.25.4.195-.083.25-.3 1.534-3.87 6.1-4.9m-5.1-.5q.227-.032.35-.2.127-.168.1-.4-.031-.177-.2-.3-.168-.127-.4-.1-2.786.328-4.9 4.5l.4.25q.07.28.25.5.16-.058.25-.25 1.808-3.631 4.15-4z"/><path id="b" fill="none" stroke="#E48C15" stroke-linecap="round" stroke-linejoin="round" stroke-width="1" d="M34.242 60.272q3.18-2.725 1.193-5.337"/></defs><use xlink:href="#a"/><use transform="matrix(1 0 0 1 .01 -.02)" xlink:href="#b"/><use transform="matrix(.43704 -.05344 .05344 .43704 7.05 40.45)" xlink:href="#c"/></svg>