<svg xmlns="http://www.w3.org/2000/svg" xmlns:xlink="http://www.w3.org/1999/xlink" preserveAspectRatio="none" viewBox="0 0 72 72"><defs><path fill="#FBC21A" d="M114.05 48.4q-2.6-1.85-5.65-1.4l-12.05 1.7.1 1.4q0 4-2.85 6.85-2.85 2.85-6.9 2.85-3.65 0-6.4-2.4-2.7-2.35-3.2-5.95l-36.95 5.3q.4.95.4 1.95 0 1.85-1.4 3.15-1.35 1.35-3.35 1.35-1.95 0-3.35-1.3-1.4-1.35-1.4-3.2l.05-.65-14.05 2.05q-2.6.35-4.35 2.3-1.8 1.95-1.9 4.55l.45 34.4q0 3.3 2.45 5.45 2.5 2.15 5.75 1.75l91.1-10.4q2.8-.35 4.65-2.45 1.85-2.1 1.8-4.9l.2-36.65-.1-.95v-.05q-.45-2.9-3.05-4.75M95.1 71.5q2.2-2.15 5.25-2.15 3.1 0 5.25 2.15 2.15 2.2 2.15 5.25 0 3.1-2.15 5.25t-5.25 2.15q-3.05 0-5.25-2.15-2.15-2.15-2.15-5.25 0-3.05 2.15-5.25M27.8 78q0 1.45-1 2.45-1 1-2.45 1-1.4 0-2.4-1-1-1.05-1-2.45 0-1.4 1-2.4t2.4-1q1.45 0 2.45 1 1 1 1 2.4m3.05 17.35q0-2.65 1.85-4.55 1.9-1.85 4.55-1.85t4.5 1.85q1.85 1.9 1.85 4.55t-1.85 4.5q-1.85 1.85-4.5 1.85t-4.55-1.85q-1.85-1.85-1.85-4.5m32.85-29.8q3.3 3.3 3.3 7.95t-3.3 7.95q-3.25 3.3-7.95 3.3-4.65 0-7.95-3.3t-3.3-7.95q0-4.65 3.3-7.95t7.95-3.3q4.7 0 7.95 3.3M79.65 87.1q0 1.9-1.3 3.2-1.35 1.35-3.25 1.35-1.85 0-3.2-1.35-1.35-1.3-1.35-3.2 0-1.9 1.35-3.25 1.3-1.35 3.2-1.35 1.9 0 3.25 1.35 1.3 1.35 1.3 3.25z" id="a"/><path fill="#FDE283" d="M64.65 23.7q-.3-.5-.5-.7-4.5-5.2-8.7-7.65-3.6-2.2-9.95-4-2.4-.7-4.9-.25-2.5.45-4.55 1.95L8.15 33l-1 1q-1.05 1.4-1.1 3.65.1-1.5 1.05-2.55 1.05-1.1 2.5-1.3l7.9-1.15q.05-.75.8-1.25t1.85-.5q.8 0 1.4.3.65.25 1 .75l20.8-3v-.5q0-1.8 1.65-3.1 1.65-1.25 3.9-1.25 1.85 0 3.4.95 1.5.95 1.85 2.35l6.85-.95q1.7-.25 3.15.8 1.45 1 1.7 2.7 0-3.3-.45-4.7-.25-.8-.75-1.55M46.6 15.85q.8.6.8 1.4 0 .8-.8 1.4-.8.6-1.9.6-1.15 0-1.95-.6t-.8-1.4q0-.8.8-1.4.8-.6 1.95-.6 1.1 0 1.9.6m-17.8 5.2q1.2-.8 2.85-.8 1.7 0 2.9.8 1.15.8 1.15 1.9 0 1.15-1.15 1.95-1.2.8-2.9.8-1.65 0-2.85-.8-1.2-.8-1.2-1.95 0-1.1 1.2-1.9z" id="b"/><path fill="#C47930" d="M100.35 69.35q-3.05 0-5.25 2.15-2.15 2.2-2.15 5.25 0 3.1 2.15 5.25 2.2 2.15 5.25 2.15 3.1 0 5.25-2.15t2.15-5.25q0-3.05-2.15-5.25-2.15-2.15-5.25-2.15z" id="c"/><path fill="#C47930" d="M96.3 48.75h-.15L77.1 51.5q.5 3.55 3.2 5.9 2.75 2.4 6.4 2.4 4 0 6.85-2.85 2.85-2.85 2.85-6.85 0-.9-.1-1.35z" id="d"/><path fill="#E5AB4C" d="M54.15 27.4q-.35-1.4-1.85-2.35-1.55-.95-3.4-.95-2.25 0-3.9 1.25-1.65 1.3-1.65 3.1v.5l10.8-1.55z" id="e"/><path fill="#E5AB4C" d="M82.85 33.15q1.4-1.05 1.4-2.5 0-1.5-1.4-2.5-1.4-1.05-3.45-1.05-2 0-3.4 1.05-1.4 1-1.4 2.5 0 1.45 1.4 2.5t3.4 1.05q2 0 3.45-1.05z" id="f"/><path fill="#C47930" d="M75.1 82.5q-1.9 0-3.2 1.35-1.35 1.35-1.35 3.25t1.35 3.2q1.35 1.35 3.2 1.35 1.9 0 3.25-1.35 1.3-1.3 1.3-3.2 0-1.9-1.3-3.25Q77 82.5 75.1 82.5z" id="g"/><path fill="#C47930" d="M55.75 62.25q-4.65 0-7.95 3.3t-3.3 7.95q0 4.65 3.3 7.95t7.95 3.3q4.7 0 7.95-3.3 3.3-3.3 3.3-7.95t-3.3-7.95q-3.25-3.3-7.95-3.3z" id="h"/><path fill="#E5AB4C" d="M56.25 36q-2.95 0-5.1 1.4-2.1 1.4-2.1 3.4t2.1 3.45q2.15 1.4 5.1 1.4 3 0 5.15-1.4 2.1-1.45 2.1-3.45t-2.1-3.4Q59.25 36 56.25 36z" id="i"/><path fill="#C47930" d="M37.25 88.95q-2.65 0-4.55 1.85-1.85 1.9-1.85 4.55t1.85 4.5q1.9 1.85 4.55 1.85t4.5-1.85q1.85-1.85 1.85-4.5t-1.85-4.55q-1.85-1.85-4.5-1.85z" id="j"/><path fill="#C47930" d="M40.1 56.8l-9 1.25-.05.65q0 1.85 1.4 3.15 1.4 1.35 3.35 1.35 2 0 3.35-1.3 1.4-1.3 1.4-3.2 0-1-.4-1.95l-.05.05z" id="k"/><path fill="#E5AB4C" d="M40.1 56.8q-.55-.85-1.7-1.35-1.2-.55-2.6-.55-1.9 0-3.25.9-1.35.95-1.45 2.25l9-1.25z" id="l"/><path fill="#C47930" d="M24.4 74.6q-1.4 0-2.45 1-1 1-1 2.4 0 1.45 1 2.45 1.05 1 2.45 1 1.4 0 2.4-1 1-1.05 1-2.45 0-1.4-1-2.4t-2.4-1z" id="m"/></defs><use xlink:href="#a" transform="scale(.5625)"/><use xlink:href="#b"/><use xlink:href="#c" transform="scale(.5625)"/><use xlink:href="#d" transform="scale(.5625)"/><use xlink:href="#e"/><use xlink:href="#f" transform="scale(.5625)"/><use xlink:href="#g" transform="scale(.5625)"/><use xlink:href="#h" transform="scale(.5625)"/><use xlink:href="#i" transform="scale(.5625)"/><use xlink:href="#j" transform="scale(.5625)"/><use xlink:href="#k" transform="scale(.5625)"/><use xlink:href="#l" transform="scale(.5625)"/><use xlink:href="#m" transform="scale(.5625)"/></svg>