<svg xmlns="http://www.w3.org/2000/svg" xmlns:xlink="http://www.w3.org/1999/xlink" preserveAspectRatio="none" viewBox="0 0 72 72"><defs><path id="b" fill="none" stroke="#C6EFFF" stroke-linecap="round" stroke-linejoin="round" stroke-width="3" d="M36 66.75q3.7-.6 7.4-2.95l16.55-10.15q5.4-3.35 5.55-7.6V23.5q.1-4.55-1.5-6.55m-28 49.8q-3.7-.6-7.4-2.95L12.05 53.65q-5.4-3.35-5.55-7.6V23.5q-.05-4.55 1.5-6.55 1.4-2 7.65-4.9l6.5-2.85q8.7-3.95 14-3.95 5 0 13.75 3.95l6.45 2.85q6.3 2.9 7.65 4.9"/><g id="a"><path fill="#96D9F2" d="M6.5 23.5v22.55q.15 4.25 5.55 7.6L28.6 63.8q3.7 2.35 7.4 2.95v-36.2L8 16.95q-1.55 2-1.5 6.55z"/><path fill="#9EE4FF" d="M56.35 12.05L49.9 9.2q-8.75-3.95-13.75-3.95-5.3 0-14 3.95l-6.5 2.85Q9.4 14.95 8 16.95l28 13.6q16.85-4.4 28-13.6-1.35-2-7.65-4.9z"/><path fill="#82C3D8" d="M65.5 46.05V23.5q.1-4.55-1.5-6.55-11.15 9.2-28 13.6v36.2q3.7-.6 7.4-2.95l16.55-10.15q5.4-3.35 5.55-7.6z"/></g></defs><g><use xlink:href="#a"/><use xlink:href="#b"/></g></svg>