<svg xmlns="http://www.w3.org/2000/svg" xmlns:xlink="http://www.w3.org/1999/xlink" preserveAspectRatio="none" viewBox="0 0 72 72"><defs><path fill="#FCC21B" d="M36 5.6q-22.2 0-30.95 20.5Q.25 37.35.25 52.45q0 5.8 10.45 9.9 10.5 4.1 25.3 4.1t25.25-4.1q10.45-4.1 10.45-9.9 0-15.1-4.8-26.35Q58.2 5.6 36 5.6z" id="a"/><path fill="#2F2F2F" d="M24.05 40.1q1.9-.05 3.25-1.65 1.3-1.6 1.25-3.85-.05-2.3-1.4-3.85-1.35-1.6-3.25-1.55-1.9.05-3.2 1.65-1.35 1.65-1.3 3.9.05 2.25 1.4 3.8 1.35 1.6 3.25 1.55z" id="g"/><path fill="#2F2F2F" d="M24.05 40.1q1.9-.05 3.25-1.65 1.3-1.6 1.25-3.85-.05-2.3-1.4-3.85-1.35-1.6-3.25-1.55-1.9.05-3.2 1.65-1.35 1.65-1.3 3.9.05 2.25 1.4 3.8 1.35 1.6 3.25 1.55z" id="h"/><path id="b" stroke="#2F2F2F" stroke-width="3" stroke-linejoin="round" stroke-linecap="round" fill="none" d="M41.4 21.5q3.6-2.75 6.85-3.55 3.25-.85 7.25 3.25m-38.95 3.25q4.1-3.75 12.3.4m-3.05 23.1q10.5-4.05 20.45 0"/><path id="c" stroke="#626364" stroke-width="2" stroke-linejoin="round" stroke-linecap="round" fill="none" d="M59.15 30.05q8.45.65 6.9 16-.75 7.35 2.65 11.65"/><path id="d" stroke="#2F2F2F" stroke-width="3" stroke-linejoin="round" stroke-linecap="round" fill="none" d="M57.3 26.7q1.45 2.2 1.45 4.95t-1.45 4.9"/><path id="e" stroke="#2F2F2F" stroke-width="2" stroke-linejoin="round" stroke-linecap="round" fill="none" d="M56.3 26.85q1.35 2.1 1.35 4.75v.2q-.05 2.7-1.55 4.85"/><path id="f" stroke="#626364" stroke-width="2" stroke-linejoin="round" stroke-linecap="round" fill="none" d="M56.1 36.65q-.5.65-1.1 1.25-2.6 2.65-6.3 2.65-3.65 0-6.3-2.65-2.6-2.6-2.6-6.3 0-3.7 2.6-6.35 2.65-2.6 6.3-2.6 3.7 0 6.3 2.6.75.75 1.3 1.6"/></defs><use xlink:href="#a"/><g><use xlink:href="#b"/><use xlink:href="#c"/></g><use xlink:href="#d" transform="translate(.4 -1)"/><g transform="translate(.4 -1)"><use xlink:href="#e"/><use xlink:href="#f"/></g><use xlink:href="#g" transform="translate(-.7 -4.35)"/><use xlink:href="#h" transform="translate(24.75 -4.35)"/></svg>