<svg xmlns="http://www.w3.org/2000/svg" xmlns:xlink="http://www.w3.org/1999/xlink" preserveAspectRatio="none" viewBox="0 0 72 72"><defs><path id="a" fill="#E59600" d="M106.9 66.05h-3.6v20.3q4.75 0 7.85-2.4 3.6-2.8 3.6-8.05 0-5.3-3.9-8.1l-3.95-1.75z"/><path id="b" fill="#E59600" d="M24.7 66.05h-3.65l-3.9 1.75q-3.95 2.8-3.95 8.1 0 5.25 3.6 8.05 3.1 2.4 7.9 2.4v-20.3z"/><path id="c" fill="#FCC21B" d="M59.95 41.3q0-16.15-5-23.95Q49.25 8.4 36 8.4t-19.1 9.05q-5.1 7.95-5.1 24.05 0 13.5 8.7 21.1 7 6.1 15.5 6.1 8.45 0 15.35-6.2 8.6-7.7 8.6-21.2z"/><path id="d" fill="#E1F5FE" d="M40.15 72.35q-1.7 2-1.7 4.85 0 2.9 1.7 4.9 1.65 2 4.05 2 2.35 0 4.05-2 1.65-2.05 1.65-4.9 0-2.85-1.65-4.85-1.7-2.05-4.05-2.05-2.4 0-4.05 2.05z"/><path id="e" fill="#E1F5FE" d="M87.85 72.35q-1.7-2.05-4.05-2.05-2.4 0-4.05 2.05-1.7 2-1.7 4.85 0 2.85 1.7 4.9 1.65 2 4.05 2 2.35 0 4.05-2 1.65-2 1.65-4.9 0-2.85-1.65-4.85z"/><path id="f" fill="#E1F5FE" d="M63.95 108.75q4.9 0 9-2.15 3.2-1.7 4.5-3.7.7-1.05.35-1.7-.35-.65-1.45-.65H51.6q-1.1 0-1.45.65-.35.65.35 1.7 1.3 2 4.5 3.7 4.1 2.15 8.95 2.15z"/><path id="g" fill="#E1F5FE" d="M58 90q-.65-.15-.9.3-.3.4-.05.9.7 1.15 2.4 2.2 2.2 1.35 4.55 1.35 2.35 0 4.5-1.35 1.7-1.05 2.4-2.2.25-.5 0-.9-.3-.45-.95-.3-3.15.9-5.95.9-2.85 0-6-.9z"/><path id="h" fill="#444" d="M40.15 72.35q-1.7 2-1.7 4.85 0 2.9 1.7 4.9 1.65 2 4.05 2 2.35 0 4.05-2 1.65-2.05 1.65-4.9 0-2.85-1.65-4.85-1.7-2.05-4.05-2.05-2.4 0-4.05 2.05z"/><path id="i" fill="#444" d="M87.85 72.35q-1.7-2.05-4.05-2.05-2.4 0-4.05 2.05-1.7 2-1.7 4.85 0 2.85 1.7 4.9 1.65 2 4.05 2 2.35 0 4.05-2 1.65-2 1.65-4.9 0-2.85-1.65-4.85z"/><path id="j" fill="#513F35" d="M63.95 108.75q4.9 0 9-2.15 3.2-1.7 4.5-3.7.7-1.05.35-1.7-.35-.65-1.45-.65H51.6q-1.1 0-1.45.65-.35.65.35 1.7 1.3 2 4.5 3.7 4.1 2.15 8.95 2.15z"/><path id="k" fill="#E59600" d="M39.9 50.8q-.2-.25-.55-.2-1.8.55-3.35.55-1.6 0-3.4-.55-.35-.05-.5.2-.15.2 0 .5.4.65 1.35 1.25 1.25.75 2.55.75 1.3 0 2.55-.75.95-.6 1.35-1.25.1-.3 0-.5z"/><path id="r" fill="#E0E0E0" d="M41.85 24.65q1.65-1.15 2.7-.35.35.45.75.9 6.4 7.7 15.75 12.4l.45.2q.5.25.9.55.65.5.95.8V26.9q-.4-2.15-1.3-4.3Q54.6 9.15 40.1 7.6H39.95q-1.85-.2-3.8-.2-1.95 0-3.75.2h-.2q-14.4 1.55-21.9 15-.05.1-.1.25Q8.95 26 8.7 29.2v9.95q.35-.3.95-.75.4-.35.95-.6l.4-.2q19.7-3.5 30.85-12.95z"/><path id="l" fill="none" stroke="#E59600" stroke-linecap="round" stroke-linejoin="round" stroke-opacity=".498" stroke-width="1.5" d="M27.894 29.9q7.959-1.912 15.862 0"/><path id="m" fill="none" stroke="#E59600" stroke-linecap="round" stroke-linejoin="round" stroke-opacity=".498" stroke-width="1.5" d="M26.994 35.034q8.83-2.109 17.634 0"/><path id="n" fill="none" stroke="#E59600" stroke-linecap="round" stroke-linejoin="round" stroke-opacity=".498" stroke-width="1.5" d="M28.35 52.094q-1.182.618-2.503 2.025-2.644 2.756-3.403 6.552"/><path id="o" fill="none" stroke="#E59600" stroke-linecap="round" stroke-linejoin="round" stroke-opacity=".498" stroke-width="1.5" d="M28.956 47.144q-.366.703-1.21 1.406-1.63 1.378-3.852 1.378"/><path id="p" fill="none" stroke="#E59600" stroke-linecap="round" stroke-linejoin="round" stroke-opacity=".498" stroke-width="1.5" d="M43.094 52.094q1.18.618 2.503 2.025 2.643 2.756 3.402 6.552"/><path id="q" fill="none" stroke="#E59600" stroke-linecap="round" stroke-linejoin="round" stroke-opacity=".498" stroke-width="1.5" d="M42.544 47.144q.365.703 1.18 1.406 1.66 1.378 3.882 1.378"/></defs><use transform="scale(.56245)" xlink:href="#a"/><use transform="scale(.56245)" xlink:href="#b"/><use xlink:href="#c"/><use transform="scale(.56248)" xlink:href="#d"/><use transform="scale(.56248)" xlink:href="#e"/><use transform="scale(.56248)" xlink:href="#f"/><use transform="scale(.56248)" xlink:href="#g"/><use transform="scale(.56248)" xlink:href="#h"/><use transform="scale(.56248)" xlink:href="#i"/><use transform="scale(.56248)" xlink:href="#j"/><use xlink:href="#k"/><use transform="matrix(1 0 0 1 .023 .004)" xlink:href="#l"/><use transform="matrix(1 0 0 1 .023 .02)" xlink:href="#m"/><use transform="matrix(1 0 0 1 .002 .01)" xlink:href="#n"/><use transform="matrix(1 0 0 1 .017 .01)" xlink:href="#o"/><use transform="matrix(1 0 0 1 .01 .01)" xlink:href="#p"/><use transform="matrix(1 0 0 1 .022 .01)" xlink:href="#q"/><use xlink:href="#r"/></svg>