<svg xmlns="http://www.w3.org/2000/svg" xmlns:xlink="http://www.w3.org/1999/xlink" preserveAspectRatio="none" viewBox="0 0 72 72"><defs><path fill="#E53935" d="M50.1 6.3q-.4.3-.3.7l4.6 66.15q0 .4.35.65.35.3.8.3H72.4q.5 0 .85-.3.3-.25.35-.65L78.2 7q0-.5-.35-.7-.35-.35-.85-.35H50.95q-.5 0-.85.35z" id="a"/><path fill="#E53935" d="M73.6 98.6q-1.8-1.5-4.3-2.3-2.55-.7-5.2-.7-2.75 0-5.4.7-2.55.75-4.4 2.3-1.9 1.55-2.95 4.05-1.05 2.55-1.05 6.2 0 3.4 1.1 6 1.05 2.45 2.9 4.1 1.9 1.65 4.4 2.4 2.55.75 5.4.75 2.75 0 5.2-.75 2.4-.75 4.3-2.4 1.9-1.6 2.95-4.1 1.1-2.4 1.1-6 0-3.7-1.1-6.2-1.05-2.5-2.95-4.05z" id="b"/><path fill="#E53935" d="M50.1 6.3q-.4.3-.3.7l4.6 66.15q0 .4.35.65.35.3.8.3H72.4q.5 0 .85-.3.3-.25.35-.65L78.2 7q0-.5-.35-.7-.35-.35-.85-.35H50.95q-.5 0-.85.35z" id="c"/><path fill="#E53935" d="M73.6 98.6q-1.8-1.5-4.3-2.3-2.55-.7-5.2-.7-2.75 0-5.4.7-2.55.75-4.4 2.3-1.9 1.55-2.95 4.05-1.05 2.55-1.05 6.2 0 3.4 1.1 6 1.05 2.45 2.9 4.1 1.9 1.65 4.4 2.4 2.55.75 5.4.75 2.75 0 5.2-.75 2.4-.75 4.3-2.4 1.9-1.6 2.95-4.1 1.1-2.4 1.1-6 0-3.7-1.1-6.2-1.05-2.5-2.95-4.05z" id="d"/></defs><use xlink:href="#a" transform="matrix(.56248 0 0 .62851 14.5 -.4)"/><use xlink:href="#b" transform="matrix(.56248 0 0 .56248 14.5 -.05)"/><use xlink:href="#c" transform="matrix(.56248 0 0 .62851 -14.5 -.4)"/><use xlink:href="#d" transform="matrix(.56248 0 0 .56248 -14.5 -.05)"/></svg>