<svg xmlns="http://www.w3.org/2000/svg" xmlns:xlink="http://www.w3.org/1999/xlink" preserveAspectRatio="none" viewBox="0 0 72 72"><defs><path fill="#007DB6" d="M72 6.75Q72 4 70 2t-4.75-2H6.75Q3.95 0 2 2 0 4 0 6.75v58.5q0 2.8 2 4.8Q3.95 72 6.75 72h58.5Q68 72 70 70.05q2-2 2-4.8V6.75z" id="a"/><path fill="#004D80" d="M72 6.75q0-2.8-2-4.75L1.95 70.05Q3.9 72 6.75 72h58.5Q68 72 70 70.05q2-2 2-4.8V6.75z" id="b"/><path fill="#006CA2" d="M63 16.25q0-2.8-1.95-4.75-2-2-4.8-2h-40.6q-2.75 0-4.75 2-2 1.95-2 4.75V56.8q0 2.8 2 4.8 2 1.95 4.75 1.95h40.6q2.8 0 4.8-1.95 1.95-2 1.95-4.8V16.25z" id="c"/><path fill="#FFF" d="M64.9 21.9q.35-.35.35-.85-.05-.5-.4-.9L59.8 15.1q-.35-.35-.9-.35-.5 0-.85.35l-29.2 29.45q-.35.35-.85.35t-.9-.35l-13.2-13.1q-.35-.35-.85-.35t-.9.35L7.1 36.5q-.4.35-.4.9 0 .5.4.85L27.15 58.2q.4.4.9.4t.85-.4l36-36.3z" id="d"/><path id="e" stroke="#FFF" stroke-width="2" stroke-linejoin="miter" stroke-linecap="butt" stroke-miterlimit="10" fill="none" d="M29.876 50.898l-13.903-13.83q-.277-.243-.277-.59 0-.381.277-.624l3.502-3.5q.277-.243.624-.243t.59.242l9.153 9.082q.277.243.624.243.346 0 .59-.243l20.247-20.417q.243-.242.59-.242.38 0 .624.242l3.501 3.501q.243.278.278.624 0 .347-.243.59L31.09 50.898q-.243.277-.59.277-.346 0-.624-.277z"/></defs><use xlink:href="#a"/><use xlink:href="#b"/><use xlink:href="#c"/><g transform="matrix(.69342 0 0 .69327 11.05 10.55)"><use xlink:href="#d"/><use xlink:href="#e" transform="matrix(1.44212 0 0 1.44244 -15.9 -15.2)"/></g></svg>