<svg xmlns="http://www.w3.org/2000/svg" xmlns:xlink="http://www.w3.org/1999/xlink" preserveAspectRatio="none" viewBox="0 0 72 72"><defs><path fill="#FAC036" d="M89.5 10.95Q87.65 9 84.1 9q-3.5 0-5.15 2.35-1.4 2-1.4 5.5V46.4q-.2.5-.6.65-.8.3-1.7-1.5-.75-1.45-2.6-2.15-1.9-.8-4-.35-5.05 1.15-5.75 5.75-.3 2.1-1.5 1.2-1.45-1.7-2.25-2.45-.95-.9-2.5-1.5-2-.75-3.7-.5-2.65.45-4.35 1.75-1.95 1.5-2.35 3.85-.35 2.2-1.5 1.4-.65-.45-1.85-2.2-.8-1.15-2.7-1.65-2.1-.6-4.05.1-5.8 2-6 7.55-.05 2.3-.75 16.25-.15 14.25 2.4 21.65Q40.4 119 65.7 119q14.75 0 24.7-12.05 9-10.85 8.05-22.05-.5-6.35-2.85-12.8-2.15-5.95-2.4-12.85-1.1-32.8-1.8-43.45-.2-3.1-1.9-4.85z" id="a"/><path fill="#E48C15" d="M47.55 38.05q-.623.234-1.3-.8-.1.23-.1.55l.9 17.6q-.217-.01-.45-.05-2.5-.4-6.75-.6-1.945-.049-3.8-.05l-2.2-13.9q-.047-.42-.4-.7-.338 1.734-1.45.9-.251-.295-.5-.55-.134.26-.1.6l.4 13.75q-2.192.12-3.45.3l-1.35.2-.2.05h-.15l-.5.15q-.6.2-1.35.55-.45.25-1.15.75-1.05.9-1.7 2.25-.6 1.3-.65 2.6-.065.777 0 1.55l-.45-.05-.35-.1-.35-.2-.35-.35-.4-.55q-.45-1.05-.6-1.6l-.85-4.25q-.3-3.05-.45-4.5l-.55-7.9q-.046-.413-.3-.7-.413 1.167-1.3.55-.209-.145-.5-.45-.2.299-.2.7l-.05 7.95q0 3.05.1 4.65 0 .8.15 2.45l.4 2.4q.25 1.35.75 2.4l.65 1.15.85 1q.35.25 1 .75l1.05.5q.15.05 1.7.4l1.35.05q.984 1.658 2.55 2.95 1.95 1.5 4.25 2.2 2.15.6 4.45.5l3.9-.05q2.35 0 3.25.25.9.2 2.55 1.35 2.85 2 3.5 4.1l.1.4-.1 1.7q-.2 1.1-.7 2.05-.65 1.55-2.1 3.1-.6.65-1.9 1.65l-.75.55-.05.05q-.45.3-.3.9.3.8 1 .55l1-.35q1.5-.55 2.65-1.4 2.1-1.5 3.25-3.55.8-1.35 1.15-2.85l.15-.85.05-1.8q0-.35-.2-1.05-.45-1.75-1.85-3.4-1.3-1.45-2.8-2.6-2.1-1.5-3.7-2-1.5-.4-4.2-.4l-5.65-.1-1.65-.35q-1.55-.45-2.85-1.5t-1.9-2.5q-.7-1.65-.55-3.1.1-1.45 1-2.2l.5-.35.95-.35h.1l.1-.05h.15l.9-.15 3.7-.3q4.2-.15 7.2-.1 3.8 0 6.35.4 3 .5 5.05 1.25 1.85.75 3.6 1.6l3.3 1.55q.55.2.9-.15.35-.2.4-.6.05-.4-.2-.75l-.6-.75q-.95-1.05-2.2-1.95-1.75-1.3-4-2.2-.462-.175-.95-.35l-2.95-18.95q-.082-.33-.3-.6v.45q-.2.5-.6.65z" id="b"/><path fill="#E48C15" d="M30.5 55.95V54.1q-.3 1.05-.35 2.25-.05 2.05-.6 13.25.4 1 .95 2.05 1.15 2.1 3 3.5 2.15 1.6 4.65 1.65 2.75 0 4.6-1.15 1.8-1.2 2.9-3.45.6-1.35 1-3.45.45-2.35.45-5l-.05-1.85q-.1-1.35-1.45-1.5-.65-.05-1.1.4-.45.4-.5 1.05l-.1 1.75q-.25 2.65-.65 4.45-.4 1.7-.85 2.6-.65 1.4-1.6 1.95-.95.65-2.65.65-1.45 0-2.65-.9-1.2-.85-2.15-2.35-.75-1.25-1.35-3.15-.95-2.85-1.2-6.25-.15-1.6-.3-4.65z" id="c"/></defs><use xlink:href="#a" transform="scale(.5625)"/><use xlink:href="#b" transform="translate(16.5 5.05) scale(.5625)"/><g transform="scale(.5625)"><use xlink:href="#c"/></g></svg>