<svg xmlns="http://www.w3.org/2000/svg" xmlns:xlink="http://www.w3.org/1999/xlink" preserveAspectRatio="none" viewBox="0 0 72 72"><defs><path id="a" fill="#CFD8DC" d="M70.7 5.8q-1.5-1.45-3.65-1.4-2.15.05-3.75 1.65h-.05q.393-.793 1.05-1.45 1.25-1.25 3-1.55-.35-.95-1.1-1.75-1.45-1.45-3.6-1.4-2.2.1-3.75 1.7-1.6 1.55-1.65 3.7-.01.23 0 .45 0 4.2-3.35 7.5l.1-.1Q45.073 22.463 36 31.55q-9.413-9.42-18.65-19.1-2.386-2.79-2.6-6.25.072-.416.05-.9-.1-2.15-1.65-3.7Q11.55 0 9.4-.1 7.25-.15 5.75 1.3 4.3 2.8 4.4 4.95 4.45 7.1 6 8.7l.1.1q-.856-.406-1.55-1.1Q3.3 6.45 3 4.75q-.95.3-1.7 1.05Q-.15 7.3-.05 9.4q.1 2.2 1.65 3.75 1.55 1.6 3.7 1.65.23.01.45 0 4.15 0 7.45 3.35l-.1-.15q4.858 4.663 9.65 9.35.338.33.65.65 1.648-.7 3.3-.7 3 0 4.75 2.1 1.75 2.05 1.35 4.75-.45 2.95-3.05 4.65-.947.618-2.05 1-7.176 7.108-14.5 14.1-.233.223-.5.45-3.09 2.85-6.95 2.85-.216-.005-.45 0-2.2.1-3.75 1.65Q0 60.45-.1 62.6q-.05 2.15 1.4 3.65 1.45 1.45 3.6 1.4 2.2-.1 3.75-1.65l.1-.1q-.409.859-1.1 1.55Q6.4 68.7 4.7 69q.35.95 1.05 1.7 1.5 1.45 3.65 1.4 2.15-.1 3.75-1.65 1.55-1.55 1.65-3.75.01-.229 0-.45 0-3.57 2.45-6.5 7.752-8.163 15.65-16.15 1.493-1.515 3-3.05.063-.038.1-.1.038.062.05.1.075.05.1.1 1.49 1.473 2.95 2.95 7.494 7.58 14.85 15.25l-.1-.05q3.35 3.3 3.35 7.45-.01.221 0 .45.05 2.2 1.65 3.75 1.55 1.6 3.75 1.65 2.15.05 3.6-1.4 1.45-1.45 1.4-3.6-.05-2.2-1.65-3.75v-.05q.8.4 1.45 1.05 1.25 1.25 1.55 3 .95-.4 1.75-1.1 1.45-1.5 1.4-3.65-.1-2.15-1.65-3.75-1.6-1.55-3.75-1.65-.229-.005-.45 0-3.908 0-7.05-2.85-.218-.228-.45-.45-6.873-6.573-13.65-13.25-.439-.435-.9-.9-1.025-.346-1.95-.95-2.6-1.7-3.05-4.65-.45-2.7 1.3-4.75 1.75-2.1 4.8-2.1 1.643 0 3.25.7.354-.337.7-.7 4.726-4.588 9.5-9.15.306-.293.6-.6 3.085-2.75 6.9-2.75.221.01.45 0 2.15-.05 3.75-1.65Q72 11.6 72.1 9.4q.05-2.1-1.4-3.6z"/><g id="b"><path fill="#ECEFF1" d="M59.55 33.05q0-10.6-5.85-16.4-6.15-6.1-17.8-6.1-11.55 0-17.55 6.1-5.8 5.8-5.8 16.4 0 11.6 6.9 16.75 1.5 1.15 3.45 2 .2 6.45 3.85 8.4.68.39 1.75.65 2.598.696 7.5.7h.05q4.864 0 7.45-.65 1.11-.295 1.8-.7 3.65-1.95 3.9-8.4 1.9-.85 3.4-2 6.95-5.15 6.95-16.75m-40.15 5.7q-1.65-1.55-1.65-3.7 0-2.65 2.95-5.2 3-2.45 6.1-2.45 2.95 0 4.7 2.05t1.35 4.75q-.45 2.9-3.05 4.6-2.4 1.6-5.7 1.6-2.9 0-4.7-1.65m21.7 8.35q.25.6-.2 1.1-.4.5-1.2.5h-7.45q-.75 0-1.2-.5-.45-.55-.1-1.1l3.75-7.3q.35-.7 1.35-.7.95.05 1.35.75l3.7 7.25m10.25-17.25q2.95 2.55 2.95 5.2 0 2.15-1.65 3.7-1.8 1.65-4.7 1.65-3.3 0-5.7-1.6-2.6-1.7-3.05-4.6-.45-2.7 1.3-4.75t4.75-2.05q3.1 0 6.1 2.45z"/><path fill="#2F2F2F" d="M54.3 35.05q0-2.65-2.95-5.2-3-2.45-6.1-2.45-3 0-4.75 2.05t-1.3 4.75q.45 2.9 3.05 4.6 2.4 1.6 5.7 1.6 2.9 0 4.7-1.65 1.65-1.55 1.65-3.7M40.9 48.2q.45-.5.2-1.1l-3.7-7.25q-.4-.7-1.35-.75-1 0-1.35.7l-3.75 7.3q-.35.55.1 1.1.45.5 1.2.5h7.45q.8 0 1.2-.5M17.75 35.05q0 2.15 1.65 3.7 1.8 1.65 4.7 1.65 3.3 0 5.7-1.6 2.6-1.7 3.05-4.6.4-2.7-1.35-4.75t-4.7-2.05q-3.1 0-6.1 2.45-2.95 2.55-2.95 5.2z"/></g><path id="c" fill="none" stroke="#2F2F2F" stroke-linecap="round" stroke-linejoin="miter" stroke-miterlimit="3" stroke-width="2" d="M36 55.85v5m-7.5-.5v-4.5m15 0v4.5"/></defs><use transform="matrix(.99377 0 0 .99377 .25 .25)" xlink:href="#a"/><use xlink:href="#b"/><use xlink:href="#c"/></svg>