<svg xmlns="http://www.w3.org/2000/svg" xmlns:xlink="http://www.w3.org/1999/xlink" preserveAspectRatio="none" viewBox="0 0 72 72"><defs><path fill="#F79329" d="M128 64q0-26.45-18.75-45.25Q90.5 0 64 0T18.75 18.75Q0 37.5 0 64t18.75 45.25Q37.5 128 64 128t45.25-18.75Q128 90.5 128 64z" id="a"/><path fill="#FFF" d="M37.15 18.35q-.75-.2-1.45.25-11.45 7.15-18.1 18.9-6.45 11.4-6.95 24.5 0 .8.55 1.35t1.35.55h48.3q1.1 0 1.65-.95.55-.95 0-1.9l-24.15-41.8q-.4-.7-1.2-.9z" id="b"/><path fill="#FFF" d="M64.15 65.8q-1.1 0-1.65.95L38.35 108.6q-.4.7-.15 1.5.25.75.95 1.15 11.55 6.1 24.65 6.2 13.4.1 25.35-6.2.75-.35 1-1.15.2-.8-.2-1.5L65.8 66.75q-.55-.95-1.65-.95z" id="c"/><path fill="#FFF" d="M91.15 18.35q-.8.2-1.2.9L65.8 61.05q-.55.95 0 1.9t1.65.95h48.3q.8 0 1.35-.55.6-.55.55-1.35-.45-13.3-7.15-24.85-6.65-11.55-17.85-18.55-.7-.45-1.5-.25z" id="d"/><path fill="#FFF" d="M42 42q2.45-2.5 2.45-6T42 30q-2.5-2.45-6-2.45T30 30q-2.5 2.5-2.5 6t2.5 6q2.5 2.5 6 2.5t6-2.5z" id="e"/><path id="f" stroke="#F79329" stroke-width="8" stroke-linejoin="miter" stroke-linecap="butt" stroke-miterlimit="10" fill="none" d="M36.057 28.54q3 0 5.143 2.098 2.1 2.141 2.1 5.138t-2.1 5.138q-2.143 2.14-5.143 2.14t-5.143-2.14q-2.143-2.141-2.143-5.138t2.143-5.138q2.143-2.098 5.143-2.098z"/></defs><use xlink:href="#a" transform="scale(.5625)"/><use xlink:href="#b" transform="matrix(.48212 0 0 .48164 5.2 4.95)"/><use xlink:href="#c" transform="matrix(.48212 0 0 .48164 5.2 4.95)"/><use xlink:href="#d" transform="matrix(.48212 0 0 .48164 5.2 4.95)"/><g transform="matrix(.85713 0 0 .85628 5.2 4.95)"><use xlink:href="#e"/><use xlink:href="#f" transform="matrix(1.16667 0 0 1.16783 -6.05 -5.75)"/></g></svg>