<svg xmlns="http://www.w3.org/2000/svg" xmlns:xlink="http://www.w3.org/1999/xlink" preserveAspectRatio="none" viewBox="0 0 72 72"><defs><path fill="#F79329" d="M128 64q0-26.45-18.75-45.25Q90.5 0 64 0T18.75 18.75Q0 37.5 0 64t18.75 45.25Q37.5 128 64 128t45.25-18.75Q128 90.5 128 64z" id="a"/><path fill="#FFF" d="M93.4 48.3q2-5.4 2-11 0-8.65-4.45-16.1Q86.5 13.7 78.8 9.6q-.8-.4-1.65-.4-1.9 0-2.9 1.65-.7 1.15-.45 2.45.25 1.35 1.35 2.15 3.05 2.25 5 5.5 2 3.3 2.5 7 1.2 8.45-4.8 16.6-6.85 5-13.9 5-4.25 0-8.35-2-4.85-2.4-7.65-6.95-2.85-4.5-2.85-9.95 0-4.45 2.05-8.5t5.7-6.7q1.1-.8 1.35-2.15.25-1.35-.5-2.5-1.05-1.6-2.9-1.6-.85 0-1.65.4-7.7 4.15-12.15 11.55-4.45 7.45-4.45 16.15 0 5.55 1.95 11-5.55.9-10.45 3.75Q16.5 56.4 12.3 64T8.35 80.3q.05 1.35 1 2.3.95 1 2.3 1.05h.2q1.3 0 2.3-.85.95-.9 1.1-2.2.4-3.8 2.25-7.1 1.85-3.35 4.8-5.65 5.5-4.35 13.45-4.35 1.65 0 3.3.15 6.2 2.7 9.8 7.35 3.6 4.65 3.95 10.4.35 5.4-2.2 10.15-2.5 4.7-7.2 7.4-4.3 2.5-9.4 2.5-3.95 0-7.6-1.6-.75-.25-1.4-.25-2.1 0-3.05 1.85-.65 1.2-.3 2.5.35 1.35 1.5 2.05 7.6 4.7 16.6 4.7 8.4 0 15.75-4.2 4.9-2.9 8.5-7.2 3.55 4.3 8.5 7.2 7.25 4.2 15.7 4.2 8.95 0 16.55-4.75 1.15-.7 1.55-2.05.35-1.3-.3-2.5-1-1.85-3.05-1.85-.7 0-1.4.3-3.6 1.6-7.6 1.6-3.65 0-6.95-1.35-7.95-3.15-12-12.4-.75-6.7 1.45-12.15t7.05-8.65q4.75-3.2 10.45-3.2 4.95 0 9.45 2.55 3.85 2.25 6.35 6.05 2.45 3.8 2.95 8.25.15 1.3 1.1 2.2 1 .9 2.3.9h.15q1.4-.05 2.35-1.05.95-.95 1-2.3.25-8.7-3.95-16.3-4.2-7.6-11.75-11.95-5.05-2.85-10.5-3.75z" id="c"/><path fill="#F79329" d="M41.75 4.2q-.7.4-1.2 1.15-.7 1.1-.45 2.4.25 1.3 1.35 2.1 1.45 1.05 2.45 2.65.95 1.6 1.2 3.4.6 4.05-2.3 8.15-3.4 2.4-6.85 2.4-2.15 0-4.05-.95-2.35-1.15-3.75-3.4-1.35-2.2-1.35-4.85 0-2.15 1-4.15.95-1.95 2.75-3.25 1.05-.8 1.3-2.1t-.45-2.4q-.45-.75-1.2-1.15-.75-.45-1.65-.45-.85 0-1.6.4-4.65 2.5-7.35 7.05-2.7 4.5-2.7 9.8 0 2.65.7 5.15-2.6.65-4.75 1.9-4.6 2.65-7.15 7.3-2.6 4.55-2.4 9.85.05 1.3.95 2.25.9.95 2.2 1h.2q1.3 0 2.25-.85t1.1-2.1q.2-1.85 1.1-3.5.9-1.6 2.3-2.75 2.75-2.15 6.7-2.15.75 0 1.5.1 3.05 1.35 4.8 3.6t1.9 5.05q.15 2.65-1.05 4.95-1.25 2.35-3.55 3.6-2.05 1.25-4.55 1.25-2 0-3.75-.75-.6-.3-1.35-.3-.9 0-1.75.5-.75.5-1.2 1.3-.65 1.15-.25 2.45.3 1.25 1.45 1.95 4.65 2.9 10.05 2.9 5.05 0 9.55-2.55 2.25-1.35 4.05-3.2 1.8 1.85 4.1 3.2 4.45 2.55 9.55 2.55 5.45 0 10.05-2.9 1.15-.65 1.45-1.95.4-1.3-.25-2.45-.45-.8-1.2-1.3-.8-.5-1.75-.5-.8 0-1.35.3-1.75.75-3.75.75-1.7 0-3.35-.65-3.85-1.55-5.9-6.05-.3-3.35.75-5.95t3.45-4.2q2.35-1.55 5.1-1.55 2.45 0 4.6 1.25 1.9 1.1 3.1 2.95 1.2 1.85 1.45 4.05.15 1.25 1.1 2.1.95.85 2.2.85h.2q1.3-.05 2.25-1 .9-.95.95-2.25.15-5.3-2.4-9.85-2.55-4.65-7.15-7.3-2.2-1.25-4.8-1.9.7-2.65.7-5.15 0-5.3-2.7-9.8-2.7-4.55-7.35-7.05-.8-.4-1.6-.4-.85 0-1.65.45m1.2 2.65q.15-.25.45-.25.2 0 .3.05 3.95 2.15 6.25 6t2.3 8.35q0 3.95-1.75 7.35 3.85.25 7.25 2.15 3.9 2.25 6.1 6.2 2.15 3.9 2 8.4 0 .55-.5.55t-.55-.5q-.3-2.8-1.9-5.25-1.55-2.4-4.05-3.85-2.8-1.6-6-1.6-3.65 0-6.65 2.05-3.1 2.05-4.5 5.5t-.9 7.7q2.5 5.9 7.6 7.95 2.1.8 4.45.8 2.55 0 4.85-1l.2-.05q.35 0 .5.3.25.45-.2.7-3.9 2.45-8.6 2.45-4.4 0-8.1-2.15-3.4-2-5.5-5.2-2.1 3.2-5.5 5.2-3.7 2.15-8.15 2.15-4.6 0-8.55-2.45-.2-.1-.25-.3-.1-.2.05-.4.15-.25.45-.25h.25q2.3 1 4.85 1 3.2 0 6-1.6 3-1.7 4.6-4.7 1.6-3 1.35-6.45-.2-3.7-2.5-6.65t-6.25-4.6q-1.25-.15-2.25-.15-4.9 0-8.4 2.75-1.9 1.5-3.05 3.6-1.2 2.15-1.45 4.5-.05.5-.55.5-.2 0-.4-.15-.1-.15-.15-.4-.15-4.5 2.05-8.4 2.15-3.95 6.1-6.2 3.35-1.9 7.25-2.15-1.8-3.5-1.8-7.35 0-4.5 2.3-8.35 2.35-3.85 6.3-6 .1-.05.25-.05.3 0 .5.25.25.45-.15.7-2.3 1.7-3.6 4.25-1.35 2.6-1.35 5.45 0 3.45 1.8 6.35 1.8 2.9 4.9 4.4 2.55 1.3 5.3 1.3 4.6 0 8.85-3.25 3.85-5.1 3.05-10.5-.3-2.4-1.55-4.45-1.25-2.1-3.2-3.55-.4-.3-.15-.7z" id="d"/><path fill="#F79329" d="M65.9 47.95h-3.85v9.1q-2.25.6-3.7 2.5-1.45 1.9-1.45 4.3 0 1 .2 1.75l-7.85 4.55 1.95 3.35 7.85-4.55Q61.2 71 64 71q2.9 0 4.95-2.05l7.85 4.55 1.9-3.35-7.85-4.55q.25-.9.25-1.75 0-2.4-1.45-4.3-1.5-1.9-3.75-2.5v-9.1z" id="e"/><path id="b" stroke="#FFF" stroke-width="3" stroke-linejoin="miter" stroke-linecap="butt" stroke-miterlimit="10" fill="none" d="M36 21.7q5.9 0 10.05 4.15 4.2 4.2 4.2 10.05 0 5.9-4.2 10.1Q41.9 50.2 36 50.2T25.95 46q-4.2-4.2-4.2-10.1 0-5.85 4.2-10.05Q30.1 21.7 36 21.7z"/></defs><use xlink:href="#a" transform="scale(.5625)"/><use xlink:href="#b"/><use xlink:href="#c" transform="scale(.5625)"/><use xlink:href="#d"/><use xlink:href="#e" transform="scale(.5625)"/></svg>