<svg xmlns="http://www.w3.org/2000/svg" xmlns:xlink="http://www.w3.org/1999/xlink" preserveAspectRatio="none" viewBox="0 0 72 72"><defs><path fill="#FCC21B" d="M127.7 93.35q0-27-8.5-47.05Q103.6 9.65 63.9 9.65q-39.65 0-55.25 36.65Q.1 66.4.1 93.35q0 10.4 18.7 17.7 18.65 7.35 45.1 7.35 26.45 0 45.1-7.35 18.7-7.3 18.7-17.7z" id="a"/><path fill="#2F2F2F" d="M94.05 97.1Q91.3 87.95 82.8 82.05q-8.5-5.95-18.85-5.95-10.3 0-18.8 5.95-8.5 5.9-11.25 15.05-.35 1.3.25 2.45.65 1.2 1.9 1.6 1.3.4 2.5-.25t1.55-1.95q2.15-7.1 8.9-11.75 6.75-4.6 14.95-4.6 8.25 0 15 4.6 6.75 4.65 8.9 11.75.3 1.05 1.2 1.7.85.6 1.9.6l.95-.1q1.3-.4 1.9-1.6.65-1.15.25-2.45z" id="b"/><path fill="#2F2F2F" d="M36.05 51.5q-2.35 2.9-2.3 6.9.05 4 2.45 6.85 2.45 2.8 5.8 2.75 3.35 0 5.7-2.85 2.35-2.9 2.3-6.9-.05-4-2.45-6.85-2.4-2.85-5.75-2.8-3.35.05-5.75 2.9z" id="c"/><path fill="#2F2F2F" d="M94.2 58.3q-.05-4-2.4-6.85-2.4-2.85-5.75-2.8-3.35 0-5.75 2.85t-2.4 6.85q.05 4 2.45 6.85 2.4 2.85 5.75 2.8 3.35 0 5.7-2.85 2.4-2.85 2.4-6.85z" id="d"/></defs><use xlink:href="#a" transform="scale(.5625)"/><use xlink:href="#b" transform="translate(0 -3) scale(.5625)"/><use xlink:href="#c" transform="translate(0 -2.5) scale(.5625)"/><use xlink:href="#d" transform="translate(0 -2.5) scale(.5625)"/></svg>