<svg xmlns="http://www.w3.org/2000/svg" xmlns:xlink="http://www.w3.org/1999/xlink" preserveAspectRatio="none" viewBox="0 0 72 72"><defs><path fill="#ECB6CD" d="M70 2q-2-2-4.75-2H6.75Q3.95 0 2 2 0 4 0 6.75v58.5q0 2.8 2 4.8Q3.95 72 6.75 72h58.5Q68 72 70 70.05q2-2 2-4.8V6.75Q72 4 70 2z" id="a"/><path fill="#D8578D" d="M72 6.75q0-2.8-2-4.75L1.95 70.05Q3.9 72 6.75 72h58.5Q68 72 70 70.05q2-2 2-4.8V6.75z" id="b"/><path fill="#E187AC" d="M63 16.25q0-2.8-1.95-4.75-2-2-4.8-2h-40.6q-2.75 0-4.75 2-2 1.95-2 4.75V56.8q0 2.8 2 4.8 2 1.95 4.75 1.95h40.6q2.8 0 4.8-1.95 1.95-2 1.95-4.8V16.25z" id="c"/><path fill="#FFF" d="M71.9 83.7H55.05v40.35H71.9V83.7z" id="d"/><path fill="#FFF" d="M83.65 111.55V94.7H43.3v16.85h40.35z" id="e"/><path fill="#FFF" d="M104.35 45.55q0-16.9-11.95-28.9Q80.4 4.7 63.5 4.7q-16.95 0-28.9 11.95-12 12-12 28.9 0 16.95 12 28.95 11.95 11.95 28.9 11.95 16.9 0 28.9-11.95 11.95-12 11.95-28.95m-40.85-24q9.95 0 16.95 7.05 7.05 7 7.05 16.95t-7.05 17q-7 7.05-16.95 7.05t-17-7.05q-7.05-7-7.05-17 0-9.95 7.05-16.95 7.05-7.05 17-7.05z" id="f"/></defs><use xlink:href="#a"/><use xlink:href="#b"/><use xlink:href="#c"/><use xlink:href="#d" transform="matrix(.37418 0 0 .3733 12.25 12)"/><use xlink:href="#e" transform="matrix(.37418 0 0 .3733 12.25 12)"/><use xlink:href="#f" transform="matrix(.37418 0 0 .3733 12.25 12)"/></svg>