<svg xmlns="http://www.w3.org/2000/svg" xmlns:xlink="http://www.w3.org/1999/xlink" preserveAspectRatio="none" viewBox="0 0 72 72"><defs><path fill="#79D2ED" d="M72 6.75Q72 4 70 2t-4.75-2H6.75Q3.95 0 2 2 0 4 0 6.75v58.5q0 2.8 2 4.8Q3.95 72 6.75 72h58.5Q68 72 70 70.05q2-2 2-4.8V6.75z" id="a"/><path fill="#00B3E5" d="M72 6.75q0-2.8-2-4.75L1.95 70.05Q3.9 72 6.75 72h58.5Q68 72 70 70.05q2-2 2-4.8V6.75z" id="b"/><path fill="#40C0E7" d="M63 16.25q0-2.8-1.95-4.75-2-2-4.8-2h-40.6q-2.75 0-4.75 2-2 1.95-2 4.75V56.8q0 2.8 2 4.8 2 1.95 4.75 1.95h40.6q2.8 0 4.8-1.95 1.95-2 1.95-4.8V16.25z" id="c"/><path fill="#FFF" d="M119.15 9.05h-16.4V50.3h16.4V9.05z" id="d"/><path fill="#FFF" d="M119.25 25.45V9.05H78v16.4h41.25z" id="e"/><path fill="#FFF" d="M110.35 29.45l-11.6-11.6-31.5 31.5 11.6 11.6 31.5-31.5z" id="f"/><path fill="#FFF" d="M19.65 50.75Q7.7 62.7 7.7 79.65q0 16.9 11.95 28.85 11.95 12 28.9 12t28.9-12Q89.4 96.55 89.4 79.65q0-16.95-11.95-28.9-11.95-12-28.9-12t-28.9 12m4.9 28.9q0-10 7.05-17 7-7.05 16.95-7.05t17 7.05q7 7 7 17 0 9.95-7 16.95-7 7.05-16.95 7.05-10 0-17-7.05-7.05-7-7.05-16.95z" id="g"/></defs><use xlink:href="#a"/><use xlink:href="#b"/><use xlink:href="#c"/><use xlink:href="#d" transform="matrix(.39943 0 0 .39943 10.65 10.15)"/><use xlink:href="#e" transform="matrix(.39943 0 0 .39943 10.65 10.15)"/><use xlink:href="#f" transform="matrix(.39943 0 0 .39943 10.65 10.15)"/><use xlink:href="#g" transform="matrix(.39944 0 0 .39944 10.65 10.15)"/></svg>