<svg xmlns="http://www.w3.org/2000/svg" xmlns:xlink="http://www.w3.org/1999/xlink" preserveAspectRatio="none" viewBox="0 0 72 72"><defs><path id="a" fill="#B39DDB" d="M72 6.75Q72 4 70 2t-4.75-2H6.75Q3.95 0 2 2 0 4 0 6.75v58.5q0 2.8 2 4.8Q3.95 72 6.75 72h58.5Q68 72 70 70.05q2-2 2-4.8V6.75z"/><path id="b" fill="#7E57C2" d="M72 6.75q0-2.8-2-4.75L1.95 70.05Q3.9 72 6.75 72h58.5Q68 72 70 70.05q2-2 2-4.8V6.75z"/><path id="c" fill="#9575CD" d="M63 16.25q0-2.8-1.95-4.75-2-2-4.8-2h-40.6q-2.75 0-4.75 2-2 1.95-2 4.75V56.8q0 2.8 2 4.8 2 1.95 4.75 1.95h40.6q2.8 0 4.8-1.95 1.95-2 1.95-4.8V16.25z"/><path id="d" fill="#FFF" d="M95.65 32.05q8.25-1.2 17.75-3.3v-18.3q-24.65 6.2-49.45 6.2-24.9 0-49.4-6.2v18.3q9.3 2.05 17.75 3.3v67.1q-9.6 1.4-17.75 3.3v18.3q8.8-2.3 19.1-3.85 15.45-2.35 30.3-2.35 14.85 0 30.3 2.35 10.25 1.55 19.15 3.85v-18.3q-9.5-2.1-17.75-3.3v-67.1M64 34.4q7.25 0 13.9-.45v63.3q-6.65-.45-13.9-.45t-13.95.45v-63.3q6.7.45 13.95.45z"/></defs><use xlink:href="#a"/><use xlink:href="#b"/><use xlink:href="#c"/><g transform="matrix(.36823 0 0 .36809 12.45 11.85)"><use xlink:href="#d"/></g></svg>