<svg xmlns="http://www.w3.org/2000/svg" xmlns:xlink="http://www.w3.org/1999/xlink" preserveAspectRatio="none" viewBox="0 0 72 72"><defs><path id="a" fill="#B39DDB" d="M72 6.75Q72 4 70 2t-4.75-2H6.75Q3.95 0 2 2 0 4 0 6.75v58.5q0 2.8 2 4.8Q3.95 72 6.75 72h58.5Q68 72 70 70.05q2-2 2-4.8V6.75z"/><path id="b" fill="#7E57C2" d="M72 6.75q0-2.8-2-4.75L1.95 70.05Q3.9 72 6.75 72h58.5Q68 72 70 70.05q2-2 2-4.8V6.75z"/><path id="c" fill="#9575CD" d="M63 16.25q0-2.8-1.95-4.75-2-2-4.8-2h-40.6q-2.75 0-4.75 2-2 1.95-2 4.75V56.8q0 2.8 2 4.8 2 1.95 4.75 1.95h40.6q2.8 0 4.8-1.95 1.95-2 1.95-4.8V16.25z"/><path id="d" fill="#FFF" d="M48.4 28.9q-4.45 0-7.6 3.15-3.15 3.15-3.15 7.6 0 2.75 1.35 5.15 1.25 2.35 3.4 3.8-3.15.85-6.35.85-5.7 0-11.75-1.85-4.9-1.8-4.95-1.85l-3.05 6.2q.65.3 1.75.75 2 .8 4.25 1.5 7 2.1 13.75 2.1 9.1 0 15.85-4.4 7.25-4.8 7.25-12.25 0-4.45-3.15-7.6-3.15-3.15-7.6-3.15m-2.75 8q1.15-1.15 2.75-1.15t2.75 1.15q1.15 1.15 1.15 2.75t-1.15 2.75Q50 43.55 48.4 43.55t-2.75-1.15q-1.1-1.15-1.1-2.75t1.1-2.75z"/><path id="e" fill="#FFF" d="M115.05 27.6q-6.3-3.1-15.5-5.9-18.15-5.5-35.6-5.5-23.5 0-40.9 11.4Q4.2 40 4.2 59.25q0 11.5 8.15 19.7Q20.5 87.1 32 87.1q11.5 0 19.65-8.15 8.15-8.2 8.15-19.7 0-7.05-3.35-13.25-3.3-6.05-8.95-9.85 8.25-2.2 16.45-2.2 14.7 0 30.35 4.75 7.85 2.35 12.85 4.8l7.9-15.9m-75.9 38.8q-3 2.95-7.15 2.95t-7.1-2.95q-2.95-3-2.95-7.15t2.95-7.1q2.95-2.95 7.1-2.95 4.15 0 7.15 2.95 2.95 2.95 2.95 7.1 0 4.15-2.95 7.15z"/></defs><use xlink:href="#a"/><use xlink:href="#b"/><use xlink:href="#c"/><g transform="matrix(.87892 0 0 .87807 4.35 4.4)"><use xlink:href="#d"/></g><g transform="matrix(.34 0 0 .33968 14.25 12.65)"><use xlink:href="#e"/></g></svg>