<svg xmlns="http://www.w3.org/2000/svg" xmlns:xlink="http://www.w3.org/1999/xlink" preserveAspectRatio="none" viewBox="0 0 72 72"><defs><path id="a" fill="#B39DDB" d="M72 6.75Q72 4 70 2t-4.75-2H6.75Q3.95 0 2 2 0 4 0 6.75v58.5q0 2.8 2 4.8Q3.95 72 6.75 72h58.5Q68 72 70 70.05q2-2 2-4.8V6.75z"/><path id="b" fill="#7E57C2" d="M72 6.75q0-2.8-2-4.75L1.95 70.05Q3.9 72 6.75 72h58.5Q68 72 70 70.05q2-2 2-4.8V6.75z"/><path id="c" fill="#9575CD" d="M63 16.25q0-2.8-1.95-4.75-2-2-4.8-2h-40.6q-2.75 0-4.75 2-2 1.95-2 4.75V56.8q0 2.8 2 4.8 2 1.95 4.75 1.95h40.6q2.8 0 4.8-1.95 1.95-2 1.95-4.8V16.25z"/><path id="d" fill="#FFF" d="M108.55 9.8H89.1q-9.4 22.95-10.95 46.75H49q-1.65-23.9-11-46.7H18.6q3.85 8.05 6.85 17.5 4.6 14.75 5.75 29.2H11.85V74.3H31.2q-1.15 14.45-5.8 29.15-2.95 9.45-6.85 17.55H38q9.35-22.9 11-46.7h29.15Q79.7 98.05 89.1 121h19.45q-3.9-8.1-6.85-17.55-4.65-14.7-5.75-29.15h20.15V56.55H95.9q1.15-14.45 5.8-29.2 2.95-9.45 6.85-17.55z"/></defs><use xlink:href="#a"/><use xlink:href="#b"/><use xlink:href="#c"/><g transform="matrix(.36499 0 0 .36511 12.65 12.1)"><use xlink:href="#d"/></g></svg>