<svg xmlns="http://www.w3.org/2000/svg" xmlns:xlink="http://www.w3.org/1999/xlink" preserveAspectRatio="none" viewBox="0 0 72 72"><defs><path id="a" fill="#007DB6" d="M72 6.75Q72 4 70 2t-4.75-2H6.75Q3.95 0 2 2 0 4 0 6.75v58.5q0 2.8 2 4.8Q3.95 72 6.75 72h58.5Q68 72 70 70.05q2-2 2-4.8V6.75z"/><path id="b" fill="#004D80" d="M72 6.75q0-2.8-2-4.75L1.95 70.05Q3.9 72 6.75 72h58.5Q68 72 70 70.05q2-2 2-4.8V6.75z"/><path id="c" fill="#006CA2" d="M63 16.25q0-2.8-1.95-4.75-2-2-4.8-2h-40.6q-2.75 0-4.75 2-2 1.95-2 4.75V56.8q0 2.8 2 4.8 2 1.95 4.75 1.95h40.6q2.8 0 4.8-1.95 1.95-2 1.95-4.8V16.25z"/><path id="d" fill="#FFF" d="M49.9 34.3q-.8-1-2.55-.9l-7.85.45 3.8-4.1q1.3-1.4 1.4-3.15.05-1.7-1.6-2.4l-9.95-5.95q-.9-.55-1.95-.6-.9.15-1.75.9l-5.3 4.75q-.7.6-.65 1.85.1 1.2 1 1.9 1.35 1.1 3.1-.35l4-3.65 3.35 2.05-5.8 6.65L41.4 38.6l3.85-.2-.7 10.1q.15 2 2.5 2 2.3 0 2.4-2.3l.85-11.35q.35-1.55-.4-2.55z"/><path id="e" fill="#FFF" d="M23 43.95q0-2.7 1.6-4.75l-3.15-3.15q-2.85 3.35-2.85 7.9 0 5.15 3.65 8.75 3.55 3.6 8.7 3.6 4.55 0 7.9-2.85l-3.1-3.1q-2.1 1.55-4.8 1.55-3.3 0-5.6-2.3-1.6-1.6-2.1-3.6-.25-1-.25-2.05m15.65-9.65q-3.25-2.65-7.7-2.65t-7.7 2.65l-.1.1 3.15 3.15q2-1.5 4.65-1.5 3.3 0 5.6 2.3 2.35 2.3 2.35 5.6 0 1.05-.25 2.05-.35 1.45-1.25 2.65l3.15 3.15q2.75-3.3 2.75-7.85 0-5.1-3.6-8.7-.5-.5-1.05-.95z"/><path id="g" fill="#FFF" d="M45.2 23.95q1.7 0 2.9-1.25 1.2-1.15 1.2-2.9 0-1.7-1.2-2.9t-2.9-1.2q-1.7 0-2.95 1.2-1.2 1.2-1.2 2.9 0 1.75 1.2 2.9 1.25 1.25 2.95 1.25z"/><path id="f" fill="none" stroke="#006CA2" stroke-linecap="round" stroke-linejoin="round" stroke-width="1.25" d="M43.3 43.95q0 4.55-2.75 7.85l-3.15-3.15q.9-1.2 1.25-2.65.25-1 .25-2.05 0-3.3-2.35-5.6-2.3-2.3-5.6-2.3-2.65 0-4.65 1.5l-3.15-3.15.1-.1q3.25-2.65 7.7-2.65t7.7 2.65q.55.45 1.05.95 3.6 3.6 3.6 8.7zM22.25 52.7q3.55 3.6 8.7 3.6 4.55 0 7.9-2.85l-3.1-3.1q-2.1 1.55-4.8 1.55-3.3 0-5.6-2.3-1.6-1.6-2.1-3.6-.25-1-.25-2.05 0-2.7 1.6-4.75l-3.15-3.15q-2.85 3.35-2.85 7.9 0 5.15 3.65 8.75z"/></defs><use xlink:href="#a"/><use xlink:href="#b"/><use xlink:href="#c"/><use transform="rotate(9.999 37.822 43.918)" xlink:href="#d"/><g transform="translate(.1 -1.15)"><use xlink:href="#e"/><use xlink:href="#f"/></g><g transform="rotate(9.999 37.822 43.918)"><use xlink:href="#g"/></g></svg>