<svg xmlns="http://www.w3.org/2000/svg" xmlns:xlink="http://www.w3.org/1999/xlink" preserveAspectRatio="none" viewBox="0 0 72 72"><defs><path id="a" fill="#B39DDB" d="M72 6.75Q72 4 70 2t-4.75-2H6.75Q3.95 0 2 2 0 4 0 6.75v58.5q0 2.8 2 4.8Q3.95 72 6.75 72h58.5Q68 72 70 70.05q2-2 2-4.8V6.75z"/><path id="b" fill="#7E57C2" d="M72 6.75q0-2.8-2-4.75L1.95 70.05Q3.9 72 6.75 72h58.5Q68 72 70 70.05q2-2 2-4.8V6.75z"/><path id="c" fill="#9575CD" d="M63 16.25q0-2.8-1.95-4.75-2-2-4.8-2h-40.6q-2.75 0-4.75 2-2 1.95-2 4.75V56.8q0 2.8 2 4.8 2 1.95 4.75 1.95h40.6q2.8 0 4.8-1.95 1.95-2 1.95-4.8V16.25z"/><path id="d" fill="#FFF" d="M89.3 64q0-25-6.5-43.3Q75.6.45 64 .45 52.3.45 45.15 20.7q-6.5 18.25-6.5 43.3 0 25.1 6.5 43.35Q52.3 127.6 64 127.6q11.6 0 18.8-20.25 6.5-18.3 6.5-43.35M64 8.45q6.05 0 11.35 14.9Q81.3 40 81.3 64q0 24.05-5.95 40.7-5.3 14.9-11.35 14.9t-11.4-14.9Q46.65 88.05 46.65 64q0-24.05 5.95-40.65Q57.95 8.45 64 8.45z"/><path id="e" fill="#FFF" d="M120.3 42.1q1.15-5.6-1.3-9.85-5.8-10.1-26.9-6.2Q73 29.6 51.3 42.1q-10.6 6.1-19.5 13.15-8.85 7.1-14.9 14.2-7.75 9.1-9.25 16.5-1.2 5.6 1.3 9.85 4.15 7.25 16.7 7.25 10.25 0 24.3-4.8 13.4-4.6 26.7-12.3 10.65-6.1 19.5-13.15Q105 65.7 111 58.6q7.75-9.1 9.3-16.5m-18.05-9.15q7.9 0 9.85 3.3 1.4 2.4-.55 7.05-1.9 4.6-6.6 10.15-5.6 6.6-13.9 13.2-8.35 6.6-18.4 12.4-20.8 12-38.2 15.15-15.55 2.85-18.6-2.4-1.4-2.45.55-7.05 1.9-4.6 6.6-10.15 5.6-6.6 13.9-13.2 8.35-6.55 18.4-12.4 14-8.05 27.1-12.3 11.55-3.75 19.85-3.75z"/><path id="f" fill="#FFF" d="M119 95.8q2.45-4.25 1.3-9.85-1.55-7.4-9.3-16.5-6-7.1-14.85-14.15-8.9-7.1-19.5-13.2-21.7-12.5-40.8-16.05-21.1-3.9-26.9 6.2-2.45 4.25-1.3 9.85 1.55 7.4 9.25 16.5 6.05 7.15 14.9 14.2 8.9 7.05 19.5 13.15 13.3 7.7 26.7 12.3 14.05 4.8 24.3 4.8 12.55 0 16.7-7.25M91.05 61.4q8.35 6.6 13.9 13.2 4.7 5.55 6.6 10.15 1.95 4.6.55 7.05-3.05 5.25-18.6 2.4-17.4-3.15-38.2-15.15-10.05-5.8-18.4-12.4-8.3-6.6-13.9-13.2-4.7-5.55-6.6-10.15-1.95-4.65-.55-7.05 1.95-3.3 9.85-3.3 8.35 0 19.9 3.75Q58.65 40.95 72.65 49q10.05 5.85 18.4 12.4z"/><path id="g" fill="#FFF" d="M64 56.1q-3.3 0-5.6 2.3-2.35 2.35-2.35 5.6 0 3.3 2.35 5.65 2.3 2.3 5.6 2.3 3.25 0 5.6-2.3 2.3-2.35 2.3-5.65 0-3.25-2.3-5.6-2.35-2.3-5.6-2.3z"/></defs><use xlink:href="#a"/><use xlink:href="#b"/><use xlink:href="#c"/><use transform="matrix(.31923 0 0 .3193 15.6 15.55)" xlink:href="#d"/><use transform="matrix(.31923 0 0 .3193 15.6 15.55)" xlink:href="#e"/><g transform="matrix(.31923 0 0 .3193 15.6 15.55)"><use xlink:href="#f"/></g><g transform="matrix(.31923 0 0 .3193 15.6 15.55)"><use xlink:href="#g"/></g></svg>