<svg xmlns="http://www.w3.org/2000/svg" xmlns:xlink="http://www.w3.org/1999/xlink" preserveAspectRatio="none" viewBox="0 0 72 72"><defs><path fill="#2F2F2F" d="M117.65 53.65q-1.25-.15-2.25.6L98.6 67.2q-.95.8-1.15 2.05-.15 1.25.6 2.2.9 1.2 2.45 1.2 1.05 0 1.85-.65l16.75-12.9q1-.8 1.15-2.05.2-1.25-.6-2.25-.75-.95-2-1.15z" id="a"/><path fill="#2F2F2F" d="M109.5 54q-.2-1.25-1.2-1.95-1-.75-2.25-.6-1.25.2-2 1.2t-.55 2.3l1.4 9.35q.2 1.15 1.05 1.85.85.75 1.95.75l.45-.05q1.25-.2 2-1.2.75-.95.55-2.25l-1.4-9.4z" id="b"/><path fill="#2F2F2F" d="M26.85 72q1.35 0 2.25-1.05.85-.9.8-2.15-.1-1.25-1-2.1L12.2 51.8q-.95-.85-2.2-.75-1.25.05-2.1 1-.85.95-.75 2.2.05 1.25 1 2.05l16.7 14.95q.85.75 2 .75z" id="c"/><path fill="#2F2F2F" d="M21.6 65.05q.8-.6 1.1-1.6l2.5-9.15q.35-1.2-.3-2.3-.6-1.1-1.8-1.45-1.2-.35-2.3.3-1.1.6-1.45 1.85l-2.5 9.1q-.35 1.25.3 2.35.6 1.05 1.8 1.4l.8.1q1 0 1.85-.6z" id="d"/><path fill="#E0E0E0" d="M49.05 36.05l.05-.05q3.25-4.2 3.25-9.45 0-6.6-4.9-11.25-4.8-4.6-11.4-4.6-6.725.02-11.5 4.6-4.9 4.65-4.9 11.25 0 5.25 3.25 9.45l.05.05q.3.45.3 1-.05.55-.45.95l-.1.05-.35.3-.05.05q-1.9 1.4-3.55 3.45l-.9 1.2q-2.75 3.9-3.25 8.35-.5 4.45 1.35 8.6 1.95 4.55 6.15 7.45 4.15 3 9.6 3.7 1.85.25 4.1.25 2.65 0 4.5-.25 5.45-.7 9.6-3.7 4.2-2.9 6.15-7.45 1.85-4.15 1.35-8.6-.5-4.45-3.25-8.35l-.9-1.2Q51.6 39.8 49.7 38.4l-.05-.05-.35-.3-.1-.05q-.4-.4-.45-.95 0-.55.3-1z" id="e"/><path fill="#2F2F2F" d="M55.85 36.1q.1-2.35-1.2-4.1-1.35-1.75-3.35-1.8-2-.05-3.45 1.55-1.45 1.6-1.55 4-.05 2.35 1.25 4.1 1.35 1.75 3.35 1.8 1.95.1 3.4-1.55 1.5-1.65 1.55-4z" id="f"/><path fill="#2F2F2F" d="M71.3 32q-1.35 1.75-1.25 4.1.1 2.35 1.55 4t3.4 1.55q2-.05 3.35-1.8t1.25-4.1q-.05-2.4-1.55-4-1.45-1.6-3.45-1.55-1.95.05-3.3 1.8z" id="g"/><path fill="#2F2F2F" d="M72.55 57.3q-.2-.7-.6-1.1-.5-.5-1.15-.4-.3.1-1.15.5-1.6.75-2.85.95-1.65.2-2.8.15-1.1.05-2.8-.15-1.25-.2-2.8-.95-.85-.4-1.2-.5-.6-.1-1.1.4-.4.4-.6 1.1-.2.6-.1 1.15.3.85 1.35 1.4.05.05 1.85.7.9.4 2.3.6 1.7.3 3.1.3 1.45 0 3.15-.3 1.35-.2 2.25-.6 1.85-.65 1.85-.7 1.1-.55 1.35-1.4.15-.55-.05-1.15z" id="h"/><path fill="#2F2F2F" d="M116.3 86.25q0 2.45 1.7 4.2 1.8 1.8 4.3 1.8 2.45 0 4.2-1.8 1.8-1.75 1.8-4.2 0-2.5-1.8-4.3-1.75-1.7-4.2-1.7-2.5 0-4.3 1.7-1.7 1.8-1.7 4.3z" id="i"/><path fill="#2F2F2F" d="M116.3 86.25q0 2.45 1.7 4.2 1.8 1.8 4.3 1.8 2.45 0 4.2-1.8 1.8-1.75 1.8-4.2 0-2.5-1.8-4.3-1.75-1.7-4.2-1.7-2.5 0-4.3 1.7-1.7 1.8-1.7 4.3z" id="j"/><path fill="#F79329" d="M69.65 43.6q-3.45-1.95-6.55-2.45-3.1-.55-3.45 2.1-.05.15-.05.35 0 .2.05.35.35 2.65 3.45 2.1 3.1-.5 6.55-2.45z" id="k"/><path fill="#2F2F2F" d="M49.9 22.35q2.7-.3 2.7-2.4l.1-2.7q.05-1.5-1.05-1.45l-3.2.35.3-12.7q0-.6-.15-1.05-.35-1.05-1.85-1.1Q41.4.7 36.05.7q-5.4 0-10.75.6-1.45.05-1.85 1.1-.15.45-.15 1.05l.35 12.7-3.2-.35q-1.15-.05-1.1 1.45l.1 2.7q.05 2.1 2.7 2.4 6.95.7 13.9.65 6.9.05 13.85-.65z" id="l"/><path fill="#E53935" d="M48.45 16.4l.05-1.85q-.527-.222-1.15-.15-5.808.95-11.3.95-5.54 0-11.3-.95-.604-.077-1.15.15l.05 1.85q12.4 2.187 24.8 0z" id="m"/></defs><use xlink:href="#a" transform="translate(3.75 7.9) scale(.50679)"/><use xlink:href="#b" transform="translate(3.75 7.9) scale(.50679)"/><use xlink:href="#c" transform="translate(3.75 8.25) scale(.50679)"/><use xlink:href="#d" transform="translate(3.75 8.25) scale(.50679)"/><use xlink:href="#e"/><use xlink:href="#f" transform="translate(4.1 8.5) scale(.50682)"/><use xlink:href="#g" transform="translate(4.1 8.5) scale(.50682)"/><use xlink:href="#h" transform="translate(.05) scale(.5625)"/><use xlink:href="#i" transform="translate(-25.8 2.25) scale(.50682)"/><use xlink:href="#j" transform="translate(-25.8 13.95) scale(.50682)"/><use xlink:href="#k" transform="matrix(.50684 0 0 .50684 3.6 7)"/><use xlink:href="#l"/><use xlink:href="#m" transform="translate(0 -.25)"/></svg>