<svg xmlns="http://www.w3.org/2000/svg" xmlns:xlink="http://www.w3.org/1999/xlink" preserveAspectRatio="none" viewBox="0 0 72 72"><defs><path fill="#875E54" d="M122.8 69.6q0-23.3-16.65-39.85T66 13.2q-23.5 0-40.15 16.55Q9.2 46.25 9.2 69.6t16.65 39.85Q42.5 126 66 126t40.15-16.55Q122.8 92.9 122.8 69.6m-20.35-35.8q15.1 14.85 15.1 35.8 0 20.95-15.1 35.8Q87.3 120.25 66 120.25q-21.35 0-36.45-14.85-15.1-14.85-15.1-35.8 0-20.95 15.1-35.8Q44.65 18.95 66 18.95q21.3 0 36.45 14.85z" id="a"/><path fill="#875E54" d="M30.4 64.35V70h11.45v-5.65H30.4z" id="b"/><path fill="#BE1931" d="M69.85 34.65q-.8-.45-1.2-1.85Q61 5.4 36.05 5.4l-.05.55V5.4q-15.5 0-24.15 10.35-5 6-7.9 16.45-.4 1.55-1.45 2.25-.55.35-1.05.5-.1 1.65 1.5 3.65 1.75 2.2 5.15 4.3 5 3.05 13.2 4.9 7.6 1.65 14.7 1.65h.05q7.1 0 14.65-1.65 8.2-1.85 13.2-4.9 3.45-2.1 5.2-4.3 1.6-2 1.45-3.65-.3-.05-.7-.3z" id="c"/><path fill="#EA596E" d="M48.8 36.95L41.4 5.3q-5.35-1.8-10.8-.2l-.65.2-6.7 31.65.2.05q12.55 2.55 25.2 0l.15-.05z" id="d"/><path fill="#FFF" d="M67.3 32.9h-6.65v24.5h6.65V32.9z" id="e"/><path fill="#FFF" d="M78.65 43.85H51.9v7.85h26.75v-7.85z" id="f"/><path fill="#BE1931" d="M2.95 32.05q-1.35 1.4-1.5 2.9l2.2.9L4.3 31l-1.35 1.05z" id="g"/><path fill="#BE1931" d="M68.35 35.9l2.2-.9q-.3-1.9-1.6-3.35L67.7 30.6l.65 5.3z" id="h"/><path fill="#EA596E" d="M66.3 36.4l4.25-1.25-.1-.7q-.15-.9-.95-1.4-.8-.45-1.65-.2l-1.55.5q-15.35 4.5-30.95 4.4-15.65-.1-31-4.8H4.2q-.9-.3-1.7.2-.8.5-1 1.4l-.05.65 2.9.85q15.3 4.65 31 4.8 15.6.05 30.95-4.45z" id="i"/></defs><use xlink:href="#a" transform="translate(-.7 -1.6) scale(.5625)"/><use xlink:href="#b" transform="translate(0 -1.6)"/><use xlink:href="#c" transform="translate(0 -1.6)"/><use xlink:href="#d" transform="translate(0 -1.6)"/><use xlink:href="#e" transform="translate(0 -.45) scale(.5625)"/><use xlink:href="#f" transform="translate(-.7 -1.6) scale(.5625)"/><use xlink:href="#g" transform="translate(0 -1.6)"/><use xlink:href="#h" transform="translate(0 -1.6)"/><use xlink:href="#i" transform="translate(0 -1.6)"/></svg>