<svg xmlns="http://www.w3.org/2000/svg" xmlns:xlink="http://www.w3.org/1999/xlink" preserveAspectRatio="none" viewBox="0 0 72 72"><defs><path fill="#FAC036" d="M82.1 25.4q-.4 4.95-.5 7.85l-3.05-.95.15-6.25q.05-5.3-2.75-8.1-2.85-2.9-8.35-2.85-4.45 0-7.2 3.3-2.35 2.8-2.55 6.4-.25 3.65.8 14.2l-1.3.6-.4.25q-.5-3.25-1.65-9.9-.9-5-4-7.5-3-2.4-7.15-1.8-4.45.6-6.6 4.25-1.75 2.9-1.6 6.6.1 2.3 1.1 8.85 1.05 6.75 2.2 11.95l-2 1.4-.9-5.35v-.05l-.3-1.85-.1-.35-1.3-7.1q-.95-4.65-3.2-6.55-2.2-1.85-5.95-1.3-4.65.75-6.8 4.95-1.65 3.2-1.3 6.85.25 3.1 1.8 10 1.65 7.5 2.9 10.3.15.4.4.75l-2.05 1.45q.8 11.5 4.95 22.7 2.1 5.6 4 8.9 4.2 7.45 8.6 10.6 3.2 2.25 9.55 3.8 5.35 1.25 12.55 1.5 4.1.1 7.45-.1 13.3-.5 21.2-4.15 8.95-4.1 15.35-13.85 2.9-4.3 4-6.55 2.4-5.25 3.2-12.1.35-3.1.1-7.05-.25-4-1-7.05-1.95-8-11.25-12.8.9-5 1.7-12.3.75-7.1.65-9.75-.15-4.25-1.4-6.3-2-3.4-7.5-3.95-4.4-.5-7.05 1.35-3 2.1-3.45 7.05z" id="a"/><path fill="#E48C15" d="M82.45 23.25q-.05.35-.35.65-.65.65-1.85.65-.95 0-1.7-.85.15 1.15.15 2.35l-.45 17.45-1.5.1q-13.1.75-16.55 6.1-1.55-13.2-2.35-24.9-.6 1.45-2.25 1.55l-1.5-.2q1.55 5.55 2.8 18.5.65 6.5.95 11.85.5 5.7-2.35 8.55-1.45 1.45-3 1.75-4.6 1.05-8.15-2.55l-2.65-3.8q-.8-1.35-3.85-17.55l-1.7-8.65q.158.871-1.25 1.2-.9.2-1.4-.1.6 1.35 1.1 3.65.7 3.25 2.45 13.75l.35 2.45q.65 5.05.2 8.1-.25 1.5-.6 2-1.45 2.8-4.95 3.3l-3.15-.1q-3.45-.6-5.7-3.9l-1.55-3.15Q21.2 60 19.5 53.2l-1.55-6.45 2.45 18.7q.3.85.75 1.5.3.4.85 1.05 3.4 4.15 8.4 4.4 2.5.1 4.35-.6 1.8-.65 3.1-1.95l1-1.2q1.1-1.8 1.35-4.25 2.55 4.8 7.65 6.05 2.55.65 4.6.35 6.15-1.2 8-7.5l1.4 1.5q1 .85 2.6 1.5 5.1 2 13.8.85 3.4-.45 4.75-.45 1.2 0 3.5.4l2.9 1.55q2.65 2.15 1.4 5.45-.5 1.75-2.65 4.5l-.5 1.1q-.2 1.1 1.5 1.05 1.55 0 3.55-1.7 1.4-1.15 2.15-3.95.75-1.8.55-4.1-.4-4.55-5-6.85-2.6-1.3-5.15-1.4-1.55-.05-5.15.45-3.1.3-6.65.2-7.2-.2-9.7-2.25-.9-.8-1.55-2.25-1.3-2.85.1-6.05 0-.2.85-1.15 1.25-1.25 3.15-2.3 6-3.2 16.25-2.55l5.25.25q6.25.6 11.35 2.2l.5-2.9q-1.45-.5-3.95-1.15-5.05-1.2-10.45-1.65-2.15-.15-3.9-.15l1.1-20.2z" id="b"/></defs><use xlink:href="#a" transform="scale(.5625)"/><use xlink:href="#b" transform="scale(.5625)"/></svg>