<svg xmlns="http://www.w3.org/2000/svg" xmlns:xlink="http://www.w3.org/1999/xlink" preserveAspectRatio="none" viewBox="0 0 72 72"><defs><path id="a" fill="#FAC036" d="M97.85 9.6q-.5-5.65-4.7-7Q87.4.75 83.55 5q-1.15 1.3-2 4.2-.5 1.85-1.5 6.7-.45 2.7-.95 4.7l-1.75 8.45q-3.45 16.5-4.2 19l-.25.8q-.85 2.8-1.6 4-1.05 1.65-2.75 1.95-1.7-.15-2.9-1.6-.85-1.1-2-3.75l-.35-.75q-.55-1.25-6.55-18.4l-4.3-12.65q-1.65-4.85-2.3-6.45-1.2-2.85-2.5-3.95-4.35-3.75-9.8-1.2-4 1.9-3.8 7.55.1 3.2 1.95 9.2l.4 1.45q1.85 6.2 5.95 18 3.8 10.9 4.6 12.65.95 2 3.05 8.45l1.95 5.05.1.15-1.35.75-3.4-9q-1.4-3.7-4.6-4.8-2.8-1-6.1.25-3.1 1.15-4 4.6-.75 2.85.2 5.65.8 2.4 4.8 10.4l-1.75.95-1.95-3.9q-3.35-6.25-9.6-3.65-2.75 1.2-3.35 4.9-.5 3.05.55 5.65.35 1 1.75 3.8l2.05 7.75q2.35 8.7 3.9 13.4l.25.7q.5 1.6 1 2.8 1.05 2.65 1.15 2.85 3.45 6.75 10 10.55 6.4 3.7 14.1 3.7.3 0 4.6.1 5.05-.05 9.75-1 14.85-3 22.2-13.55 1.65-2.35 2.55-5.35 1.3-4 1.65-10 .4-6.75-.7-11.3-1.9-7.65-10.2-11.9l1.3-6.65v-.05q.7-2.2.85-2.95l.45-2.3q1.35-6.7 2-8.8.6-1.85 3-13.05 2.65-12.25 3.65-18.65l.25-1.5q1.1-6.15.8-9.35z"/><path id="b" fill="#E39E49" d="M85.5 72.85l.65-3.4q-6.5-2.9-14-4.35-2.7-.55-4.15-.85-2.6-.5-4.15-.5-6.85 0-11.2 2.6L47.6 56.3q0 1.05-.5 1.35-.65.4-1.3-.05l-.1.05q1.05 1.25 1.6 2.7l3 7.95-.6.75-1.4 3.45q-.85 4.15 1.8 7.7l1.2 1.15q1.8 1.35 4.65 2.15.8 3-.8 5.25-.8 1.1-1.75 1.6Q50 92.1 46.55 90l-2.8-2.45q-1-.95-4.55-7.85l-4.5-9.35q-.05 1.05-.6 1.4-.6.4-1.3-.1l-.05.05q.65.8 1.15 1.75 2.15 4 5 10.5v-.05l.7 1.6q1.6 3.5 1.9 5.65.15 1.05 0 1.4-.55 2.5-3.1 3.65l-2.45.65q-2.8.3-5.45-2l-2.15-2.4-5.1-8.35 1.95 7.45q1.45 2.85 3.45 4.85.95 1 1.65 1.4 3.55 2.4 7.55 1.55 2.05-.4 3.35-1.3 1.2-.85 1.95-2.2l.5-1.15q.45-1.55.1-3.45 3.25 2.9 7.3 2.8 2-.05 3.35-.7 3-1.6 4.05-4.75.7-2.1.4-4.5 1.25.2 2.15.25 6.4.6 8.65 1.25l3.3 1.45q3.4 2 3.75 4.7L76.6 93q-.3 1.6-1 3.05l-.15 1q0 1.05.8 1.3.5.15 1.4-.15 1-.3 1.65-.9 1.1-.9 1.55-3.15.25-.85.1-2.1-.25-2.55-2.3-4.75-.55-.65-1.5-1.45-1.9-1.6-3.9-2.3-3.05-1.05-4.35-1.35-2.1-.5-6-.9-1.5-.1-3.5-.55-4-.85-6.3-2.5-.75-.6-1.25-1.7-.95-2.2.5-4.7.2-.4.7-.95 1.05-1.1 2.55-1.9 4.8-2.6 12.6-1.5l5.9 1.3q6.8 1.75 11.4 4.05z"/><path id="c" fill="#FAC036" d="M97.85 9.6q-.5-5.65-4.7-7Q87.4.75 83.55 5q-1.15 1.3-2 4.2-.5 1.85-1.5 6.7-.45 2.7-.95 4.7l-1.75 8.45q-3.45 16.5-4.2 19l-.25.8q-.85 2.8-1.6 4-1.05 1.65-2.75 1.95-1.7-.15-2.9-1.6-.85-1.1-2-3.75l-.35-.75q-.55-1.25-6.55-18.4l-4.3-12.65q-1.65-4.85-2.3-6.45-1.2-2.85-2.5-3.95-4.35-3.75-9.8-1.2-4 1.9-3.8 7.55.1 3.2 1.95 9.2l.4 1.45q1.85 6.2 5.95 18 3.8 10.9 4.6 12.65.95 2 3.05 8.45l1.95 5.05.1.15-1.35.75-3.4-9q-1.4-3.7-4.6-4.8-2.8-1-6.1.25-3.1 1.15-4 4.6-.75 2.85.2 5.65.8 2.4 4.8 10.4l-1.75.95-1.95-3.9q-3.35-6.25-9.6-3.65-2.75 1.2-3.35 4.9-.5 3.05.55 5.65.35 1 1.75 3.8l2.05 7.75q2.35 8.7 3.9 13.4l.25.7q.5 1.6 1 2.8 1.05 2.65 1.15 2.85 3.45 6.75 10 10.55 6.4 3.7 14.1 3.7.3 0 4.6.1 5.05-.05 9.75-1 14.85-3 22.2-13.55 1.65-2.35 2.55-5.35 1.3-4 1.65-10 .4-6.75-.7-11.3-1.9-7.65-10.2-11.9l2.6-11.95q1.35-6.7 2-8.8.6-1.85 3-13.05 2.65-12.25 3.65-18.65l.25-1.5q1.1-6.15.8-9.35z"/><path id="d" fill="#E48C15" d="M85.55 72.85l.75-3.35q-6.65-2.95-14.15-4.4-2.7-.55-4.15-.85-2.6-.5-4.15-.5-6.85 0-11.2 2.6L47.6 56.3q0 1.05-.5 1.35-.65.4-1.3-.05l-.05.05q1.05 1.3 1.55 2.7 1.1 2.7 3 7.95l-.6.75-1.4 3.45q-.85 4.15 1.8 7.7l1.2 1.15q1.8 1.35 4.65 2.15.8 3-.8 5.25-.8 1.1-1.75 1.6-3.35 1.75-6.85-.35l-2.8-2.45q-1-.95-4.55-7.85l-4.5-9.35q-.05 1.05-.55 1.4-.65.4-1.35-.1l-.05.05q.65.8 1.15 1.75 2.15 4 5 10.5v-.05l.7 1.6q1.6 3.5 1.9 5.65.15 1.05 0 1.4-.55 2.5-3.1 3.65l-2.45.65q-2.8.3-5.45-2l-2.15-2.4-5.05-8.35 1.95 7.45q1.45 2.85 3.4 4.85.95 1 1.65 1.4 3.55 2.4 7.55 1.55 2.05-.4 3.35-1.3 1.2-.85 1.95-2.2l.5-1.15q.45-1.55.1-3.45 3.25 2.9 7.3 2.8 2-.05 3.35-.7 3-1.6 4.05-4.75.7-2.1.4-4.5l2.15.25q6.4.55 8.65 1.25L73 87.05q3.4 2 3.7 4.7L76.6 93q-.25 1.6-1 3.05l-.15 1q0 1.05.8 1.3.5.15 1.4-.15 1-.3 1.65-.9 1.1-.9 1.55-3.15.25-.85.1-2.1-.25-2.55-2.3-4.75-.55-.65-1.5-1.45-1.9-1.6-3.9-2.3-3.1-1.05-4.3-1.35-2.15-.5-6-.9-1.5-.1-3.5-.55-4-.85-6.35-2.5-.75-.6-1.25-1.7-.95-2.2.5-4.7.2-.4.7-.95 1.05-1.1 2.55-1.9 4.8-2.6 12.6-1.5l5.95 1.35q6.85 1.75 11.4 4z"/></defs><use transform="scale(.5625)" xlink:href="#a"/><use transform="scale(.5625)" xlink:href="#b"/><use transform="scale(.5625)" xlink:href="#c"/><use transform="scale(.5625)" xlink:href="#d"/></svg>