<svg xmlns="http://www.w3.org/2000/svg" xmlns:xlink="http://www.w3.org/1999/xlink" preserveAspectRatio="none" viewBox="0 0 72 72"><defs><path id="a" fill="#E48C15" d="M69.9 47.45q-5.45-2.8-12.15-4.7-13.4-3.85-19.45.55-5.4 3.85-11.55 7.45-3.4 2-8.4 4.75-.8.5-3.5 1.55-2.25.95-3.5 1.85-3.9 2.9-4.45 10.3-.35 5.05-.85 13.5-.5 6.4-1.5 8.55Q2.9 94.7 3.9 97.6q.9 2.7 3.35 3.2 2.55.5 5.05-2.1 2.85-3 4.45-9.35 1.6-5.35 4.95-6.9 2.6-1.25 7.15-.3 2.6.5 8.2 2.1 5 1.15 8.2.4 7.15-1.7 19.1-12.2 11-9.6 12.95-14.1 1.9-4.3-2.55-8.05l-4.85-2.85z"/><path id="b" fill="#E48C15" d="M25.05 96.1l-.2 2.25q-.05 2.7.6 4.65 2.05 6.35 10.55 3.55 14.1-4.7 21.05-2.15 2.1.8 4.9 2.85 2.9 2.15 4.5 2.8 8.55 3.45 16.3 1.8 9.1-1.95 17.5-11 7.95-8.6-12.5-13.8-9.4-2.4-30.8-4.65-7.5-.8-19.8 6.25-6.2 3.55-10.85 7.2l-1.25.25z"/><path id="c" fill="#006CA0" d="M30.3 98.45q-3.55-2.85-7.4-5.2-7.75-4.8-9.2-2.55-2.35 3.55-6.85 12.65L.7 121.1v1.15l-.65 3.05q.1 2.35 3.95-.9l.85-.2q4.2-3.4 8.45-6.8 8.55-6.8 8.9-6.9.55-.2 8.1-12.05z"/><path id="d" fill="#006CA0" d="M70.2 4q-2.8 3.15-28.75 42.5-12.95 19.7-25.4 38.75l-.9 1.8 16.55 1.5Q46.1 69.1 60 49.4 87.85 9.95 85.55 8.5 74 1.15 73.95 1.15q-1-.35-1.7.4Q71.2 2.9 70.2 4z"/><path id="e" fill="#FAC036" d="M114.95 69.7q-6.35-2.1-20.65-9.15-13.55-6.6-18.75-9.9-3.8-2.35-6.3-2.5-5.2-.4-10.15 5.3l-4.9 6.3q-2.1 3.1-5.55 6.85-6.8 7.45-13.35 10.55-5.2 2.5-15.35 6.45-7.3 3.7-6.1 9 1.75 7.35 8.7 8.9 8.2 1.85 19.2-6.4 5.5-3.55 10.85-2.1.45.1 10.1 4.6 1.8.85 4.85 2.9 2.9 1.95 4.7 2.75 6.25 2.7 17.8.8 12.1-1.95 18.1-.4 2.3.6 5.05 2.05 1.6.85 5.25 2.85 8.95-5.6 8.95-29.4 0-6.65-2-7.85-1-.6-10.45-1.6z"/></defs><use transform="scale(.5625)" xlink:href="#a"/><use transform="scale(.5625)" xlink:href="#b"/><use transform="scale(.5625)" xlink:href="#c"/><use transform="scale(.5625)" xlink:href="#d"/><use transform="scale(.5625)" xlink:href="#e"/></svg>