<svg xmlns="http://www.w3.org/2000/svg" xmlns:xlink="http://www.w3.org/1999/xlink" preserveAspectRatio="none" viewBox="0 0 72 72"><defs><path fill="#B39DDB" d="M72 6.75Q72 4 70 2t-4.75-2H6.75Q3.95 0 2 2 0 4 0 6.75v58.5q0 2.8 2 4.8Q3.95 72 6.75 72h58.5Q68 72 70 70.05q2-2 2-4.8V6.75z" id="a"/><path fill="#7E57C2" d="M72 6.75q0-2.8-2-4.75L1.95 70.05Q3.9 72 6.75 72h58.5Q68 72 70 70.05q2-2 2-4.8V6.75z" id="b"/><path fill="#9575CD" d="M63 16.25q0-2.8-1.95-4.75-2-2-4.8-2h-40.6q-2.75 0-4.75 2-2 1.95-2 4.75V56.8q0 2.8 2 4.8 2 1.95 4.75 1.95h40.6q2.8 0 4.8-1.95 1.95-2 1.95-4.8V16.25z" id="c"/><path fill="#FFF" d="M150.6 33.35q-.6-.6-1.4-.6h-28v-30q0-.8-.6-1.4-.6-.6-1.4-.6h-11q-.8 0-1.4.6-.6.6-.6 1.4v30h-27q-.85 0-1.45.6-.55.6-.55 1.4v11q0 .85.55 1.4.6.6 1.45.6h27v75q0 .85.6 1.4.6.6 1.4.6h11q.8 0 1.4-.6.6-.6.6-1.4v-75h28q.8 0 1.4-.6.6-.6.6-1.4v-11q0-.8-.6-1.4z" id="d"/></defs><use xlink:href="#a"/><use xlink:href="#b"/><use xlink:href="#c"/><g transform="matrix(.35945 0 0 .35927 -5.05 13.5)"><use xlink:href="#d"/></g></svg>