<svg xmlns="http://www.w3.org/2000/svg" xmlns:xlink="http://www.w3.org/1999/xlink" preserveAspectRatio="none" viewBox="0 0 72 72"><defs><path fill="red" d="M36 36v.05h.05L36 36m0 .05V36h-.05v.05H36z" id="a"/><path id="b" stroke="#40C0E7" stroke-width="5" stroke-linejoin="round" stroke-linecap="round" fill="none" d="M64.35 32.7L48.9 28.6l-12.8 7.45 12.85 7.4 15.4-4.1M53.05 58.9L48.9 43.45h.05l15.4 8.9m-11.3-39.2L48.9 28.6l15.45-8.95m-28.3 16.4h.05V21.1l-.05.05-11.3-11.3m11.35-6.5V21.1L47.35 9.85M36 36v.05h.05M36 36l-12.9-7.4-15.4 4.1m11.35-19.55l4.1 15.45h-.05L7.7 19.65m17.05 42.5l11.3-11.25V36.05l-12.9 7.4-4.1 15.45M7.7 39.35l15.45 4.1-15.45 8.9m28.35-1.45l.05-.05 11.25 11.3m-11.3 6.55V50.9"/></defs><g><use xlink:href="#a"/><use xlink:href="#b"/></g></svg>