<svg xmlns="http://www.w3.org/2000/svg" xmlns:xlink="http://www.w3.org/1999/xlink" preserveAspectRatio="none" viewBox="0 0 72 72"><defs><path id="a" fill="#8BC34A" d="M72 6.75Q72 4 70 2t-4.75-2H6.75Q3.95 0 2 2 0 4 0 6.75v58.5q0 2.8 2 4.8Q3.95 72 6.75 72h58.5Q68 72 70 70.05q2-2 2-4.8V6.75z"/><path id="b" fill="#689F38" d="M72 6.75q0-2.8-2-4.75L1.95 70.05Q3.9 72 6.75 72h58.5Q68 72 70 70.05q2-2 2-4.8V6.75z"/><path id="c" fill="#7CB342" d="M63 16.25q0-2.8-1.95-4.75-2-2-4.8-2h-40.6q-2.75 0-4.75 2-2 1.95-2 4.75V56.8q0 2.8 2 4.8 2 1.95 4.75 1.95h40.6q2.8 0 4.8-1.95 1.95-2 1.95-4.8V16.25z"/><path id="d" fill="#FFF" d="M109.5 34.15q1.05-1.05 1.05-2.5 0-1.5-1.05-2.55L98.9 18.5q-1-1.05-2.5-1.05t-2.5 1.05L64 48.4 34.05 18.5q-1-1.05-2.5-1.05t-2.5 1.05l-10.6 10.6q-1.05 1-1.05 2.5t1.05 2.5L48.35 64l-29.9 29.95q-1.05 1-1.05 2.5t1.05 2.5l10.6 10.6q1 1.05 2.5 1.05t2.5-1.05L64 79.65l29.9 29.9q1 1.05 2.5 1.05t2.5-1.05l10.6-10.6q1.05-1 1.05-2.5t-1.05-2.5L79.6 64l29.9-29.85z"/></defs><use xlink:href="#a"/><use xlink:href="#b"/><use xlink:href="#c"/><use transform="translate(8.1 8.1) scale(.43585)" xlink:href="#d"/></svg>