<svg xmlns="http://www.w3.org/2000/svg" xmlns:xlink="http://www.w3.org/1999/xlink" preserveAspectRatio="none" viewBox="0 0 72 72"><defs><path id="a" fill="#CFD8DC" d="M60.35 96.3q-2.8 0-5.45.7-2.55.7-4.4 2.25-1.85 1.55-2.9 4.1-1.05 2.55-1.05 6.2 0 3.5 1.05 5.95 1.05 2.5 2.9 4.15 1.9 1.65 4.4 2.35 2.55.75 5.4.75 2.75 0 5.2-.75 2.5-.75 4.3-2.35 1.9-1.7 3-4.15 1.05-2.45 1.05-5.95 0-3.65-1.05-6.2-1.1-2.5-3-4.1-1.9-1.6-4.3-2.25-2.55-.7-5.15-.7M93.1 49.45q2.05-3.15 3.25-7.15 1.1-3.75 1.1-8.75 0-6.7-2.4-11.9-2.35-5.25-6.8-8.85-4.4-3.65-10.8-5.6Q71 5.3 63.15 5.3q-4.3 0-8.6.8-4.45.75-8.6 2.15-4.7 1.5-8.15 3.1-3.95 1.75-7.25 3.7l7.9 17.2Q44.9 29 51.25 26.7q6.25-2.25 11.55-2.25 6.15 0 9.15 2.85 3 2.95 3 7.35 0 2.9-.6 5.05-.7 2.2-2.05 4.15-1.5 2.1-3.65 4-2.45 2.2-5.55 4.6-3.9 3.1-6.35 5.7-2.5 2.6-4.35 5.7-1.6 2.85-2.45 6.15-.85 3.3-.85 7.2v5.75h20.55V78.3q0-2.35.4-4.35.45-1.8 1.6-3.55 1.3-1.8 3.25-3.6 2.05-1.9 5.35-4.45 4.45-3.6 7.5-6.5 3.25-3.1 5.35-6.4z"/></defs><use transform="scale(.5625)" xlink:href="#a"/></svg>