<svg xmlns="http://www.w3.org/2000/svg" xmlns:xlink="http://www.w3.org/1999/xlink" preserveAspectRatio="none" viewBox="0 0 72 72"><defs><path fill="#DB4437" d="M71.5 36q0-14.7-10.4-25.1Q50.7.5 36 .5 21.3.5 10.9 10.9.5 21.3.5 36q0 14.7 10.4 25.1Q21.3 71.5 36 71.5q14.7 0 25.1-10.4Q71.5 50.7 71.5 36M53.75 18.25Q61.1 25.6 61.1 36t-7.35 17.8Q46.4 61.15 36 61.15T18.25 53.8q-7.4-7.4-7.4-17.8t7.4-17.75Q25.6 10.9 36 10.9t17.75 7.35z" id="a"/></defs><use xlink:href="#a" transform="matrix(.99367 0 0 .99367 .25 .25)"/></svg>