<svg xmlns="http://www.w3.org/2000/svg" xmlns:xlink="http://www.w3.org/1999/xlink" preserveAspectRatio="none" viewBox="0 0 72 72"><defs><path id="a" fill="#007DB6" d="M72 6.75Q72 4 70 2t-4.75-2H6.75Q3.95 0 2 2 0 4 0 6.75v58.5q0 2.8 2 4.8Q3.95 72 6.75 72h58.5Q68 72 70 70.05q2-2 2-4.8V6.75z"/><path id="b" fill="#004D80" d="M72 6.75q0-2.8-2-4.75L1.95 70.05Q3.9 72 6.75 72h58.5Q68 72 70 70.05q2-2 2-4.8V6.75z"/><path id="c" fill="#006CA2" d="M63 16.25q0-2.8-1.95-4.75-2-2-4.8-2h-40.6q-2.75 0-4.75 2-2 1.95-2 4.75V56.8q0 2.8 2 4.8 2 1.95 4.75 1.95h40.6q2.8 0 4.8-1.95 1.95-2 1.95-4.8V16.25z"/><path id="d" fill="#FFF" d="M89.75 83.2q-.35-.35-.8-.35H61.8q10.15-6.2 20.25-16.25 6.35-6.35 7.1-15.4.8-9.75-6-16.55-8.35-8.3-18.65-8.3-9.5 0-19.6 6.75-5.15 3.45-8.7 7.2-.6.6-.15 1.35L42.9 52.8q.25.4.8.5.5.1.9-.3 2.15-1.95 5.1-3.85 5.9-3.85 10.45-3.85 4.3 0 6.95 3.75 2.15 3 1.3 6.9-1.7 7.7-14.6 17.8-6.45 5.05-12.75 8.6-.55.3-.55 1v14.6q0 .45.35.8.3.3.75.3h47.35q.45 0 .8-.3.3-.35.3-.8v-14q0-.45-.3-.75z"/></defs><use xlink:href="#a"/><use xlink:href="#b"/><use xlink:href="#c"/><g transform="matrix(.55812 0 0 .55846 .9 1)"><use xlink:href="#d"/></g></svg>