<svg xmlns="http://www.w3.org/2000/svg" xmlns:xlink="http://www.w3.org/1999/xlink" preserveAspectRatio="none" viewBox="0 0 72 72"><defs><path id="a" fill="#007DB6" d="M72 6.75Q72 4 70 2t-4.75-2H6.75Q3.95 0 2 2 0 4 0 6.75v58.5q0 2.8 2 4.8Q3.95 72 6.75 72h58.5Q68 72 70 70.05q2-2 2-4.8V6.75z"/><path id="b" fill="#004D80" d="M72 6.75q0-2.8-2-4.75L1.95 70.05Q3.9 72 6.75 72h58.5Q68 72 70 70.05q2-2 2-4.8V6.75z"/><path id="c" fill="#006CA2" d="M63 16.25q0-2.8-1.95-4.75-2-2-4.8-2h-40.6q-2.75 0-4.75 2-2 1.95-2 4.75V56.8q0 2.8 2 4.8 2 1.95 4.75 1.95h40.6q2.8 0 4.8-1.95 1.95-2 1.95-4.8V16.25z"/><path id="d" fill="#FFF" d="M89.6 45.2q.9-8.5-6.3-16.1-7.35-7.65-18.55-7.65-7.85 0-15.55 3.55-6.7 3.1-9.45 6.8-.4.65 0 1.25l7.05 10.2q.2.35.7.45.5.1.85-.2.05-.05 4.75-3.2 5.45-3.15 9.55-3.15 4.45 0 6.75 4 1.95 3.35.75 6.25-1.35 3.35-6.45 6-4.85 2.05-4.9 2.05-.8.25-.8 1.05v8.95q0 .9.85 1.05.05.05 4.65 1.75 4.85 2.3 6.05 5.4 1.2 2.9-1.15 6.55-2.5 3.85-7.4 3.85-4.25 0-9.8-2.8-4.5-2.25-7.65-5.05-.4-.3-.85-.25-.5.1-.75.45L34.9 86.6q-.5.65.05 1.3 1.2 1.3 2.35 2.4 2.8 2.6 5.9 4.75 9.9 6.75 20.2 6.75h.4q4.85-.1 9.2-1.35 6.3-1.75 10.7-5.7 4.1-3.7 5.95-8.6 1.85-4.85 1.05-10-.75-4.8-3.65-8.75t-7.5-6.45q4.45-3.35 7-7.4 2.6-4.05 3.05-8.35z"/></defs><use xlink:href="#a"/><use xlink:href="#b"/><use xlink:href="#c"/><g transform="matrix(.50621 0 0 .5053 4.25 4.85)"><use xlink:href="#d"/></g></svg>