<svg xmlns="http://www.w3.org/2000/svg" xmlns:xlink="http://www.w3.org/1999/xlink" preserveAspectRatio="none" viewBox="0 0 72 72"><defs><path id="a" fill="#007DB6" d="M72 6.75Q72 4 70 2t-4.75-2H6.75Q3.95 0 2 2 0 4 0 6.75v58.5q0 2.8 2 4.8Q3.95 72 6.75 72h58.5Q68 72 70 70.05q2-2 2-4.8V6.75z"/><path id="b" fill="#004D80" d="M72 6.75q0-2.8-2-4.75L1.95 70.05Q3.9 72 6.75 72h58.5Q68 72 70 70.05q2-2 2-4.8V6.75z"/><path id="c" fill="#006CA2" d="M63 16.25q0-2.8-1.95-4.75-2-2-4.8-2h-40.6q-2.75 0-4.75 2-2 1.95-2 4.75V56.8q0 2.8 2 4.8 2 1.95 4.75 1.95h40.6q2.8 0 4.8-1.95 1.95-2 1.95-4.8V16.25z"/><path id="d" fill="#FFF" d="M88.5 69.45q-2.4-4.8-6.85-8.2 3.1-2.95 4.8-6.85 1.7-4 1.7-8.5 0-9.75-7.2-16.05Q73.7 23.5 62.6 23.5q-11.15 0-18.35 6.35-7.2 6.3-7.2 16.05 0 9.15 6.5 15.35-4.45 3.4-6.85 8.2-2.5 4.95-2.5 10.7 0 10.8 8.05 17.85 8 7 20.35 7 12.35 0 20.35-7Q91 90.95 91 80.15q0-5.75-2.5-10.7M69.8 39.1q2.85 2.7 2.85 6.8 0 3.9-2.6 6.55-2.6 2.6-6.7 2.85l-.75-.05-.75.05q-4.1-.25-6.65-2.85-2.65-2.65-2.65-6.55 0-4.1 2.85-6.8t7.2-2.7q4.35 0 7.2 2.7m-7.2 30.5q4.85 0 8 3 3.15 3 3.15 7.55T70.6 87.7q-3.15 2.95-8 2.95t-8-2.95q-3.15-3-3.15-7.55t3.15-7.55q3.15-3 8-3z"/></defs><use xlink:href="#a"/><use xlink:href="#b"/><use xlink:href="#c"/><g transform="matrix(.49823 0 0 .49815 4.8 4)"><use xlink:href="#d"/></g></svg>