<svg xmlns="http://www.w3.org/2000/svg" xmlns:xlink="http://www.w3.org/1999/xlink" preserveAspectRatio="none" viewBox="0 0 72 72"><defs><path id="a" fill="#007DB6" d="M72 6.75Q72 4 70 2t-4.75-2H6.75Q3.95 0 2 2 0 4 0 6.75v58.5q0 2.8 2 4.8Q3.95 72 6.75 72h58.5Q68 72 70 70.05q2-2 2-4.8V6.75z"/><path id="b" fill="#004D80" d="M72 6.75q0-2.8-2-4.75L1.95 70.05Q3.9 72 6.75 72h58.5Q68 72 70 70.05q2-2 2-4.8V6.75z"/><path id="c" fill="#006CA2" d="M63 16.25q0-2.8-1.95-4.75-2-2-4.8-2h-40.6q-2.75 0-4.75 2-2 1.95-2 4.75V56.8q0 2.8 2 4.8 2 1.95 4.75 1.95h40.6q2.8 0 4.8-1.95 1.95-2 1.95-4.8V16.25z"/><path id="d" fill="#FFF" d="M93 49.45q0-10.75-8-18Q76.75 24 63.85 24q-12.9 0-21.15 7.45-7.95 7.25-7.95 18T42.7 67.4q8.25 7.4 21.15 7.4 12.9 0 21.15-7.4 8-7.2 8-17.95m-38.5-8.7q3.6-3.55 9.35-3.55 5.7 0 9.35 3.55 3.55 3.5 3.55 8.65 0 5.2-3.55 8.7-3.65 3.55-9.35 3.55-5.7 0-9.35-3.6-3.55-3.5-3.55-8.65t3.55-8.65z"/><path id="e" fill="#FFF" d="M81.4 85.85Q86.9 78.4 89.65 71q3.85-10.35 3.25-22.25-.6-11.85-13.4-19.15-4-2.3-8.7-3.85l-3.95-1.1 16.45 17.1-6.45 9.65Q75.9 65.75 68.7 76q-5.2 7.4-13.3 13.2-4 2.9-7 4.35l8.8 11.4q3.45-1.25 8.2-4.3 9.55-6.05 16-14.8z"/></defs><use xlink:href="#a"/><use xlink:href="#b"/><use xlink:href="#c"/><g transform="matrix(.50128 0 0 .50154 4 3.65)"><use xlink:href="#d"/></g><g transform="matrix(.50128 0 0 .50154 4 3.65)"><use xlink:href="#e"/></g></svg>