
<svg xmlns="http://www.w3.org/2000/svg" version="1.1" xmlns:xlink="http://www.w3.org/1999/xlink" preserveAspectRatio="none" x="0px" y="0px" width="72px" height="72px" viewBox="0 0 72 72">
<defs>
<g id="Layer1_0_MEMBER_0_MEMBER_0_FILL">
<path fill="#BE2006" stroke="none" d="
M 81.25 18.75
Q 91.3 26.55 96.5 34.5 98.9 38.15 100.55 41.6 101.85 44.45 103.2 48.35 105.45 54.9 106.55 62.2 107.05 65.85 107.15 68.15
L 115.5 68.15
Q 115.85 62.6 114.65 54.5 112.2 38.35 104.3 25.85 95.9 12.5 77.35 7.9 71.55 6.45 65.45 6.05
L 60.5 5.95
Q 71.85 11.45 81.25 18.75 Z"/>
</g>

<g id="Layer1_0_MEMBER_0_MEMBER_1_FILL">
<path fill="#CFD8DC" stroke="none" d="
M 111.35 65.95
Q 106.9 65.95 103.7 69.1 100.55 72.3 100.55 76.75 100.55 81.2 103.7 84.4 106.9 87.55 111.35 87.55 115.8 87.55 119 84.4 122.15 81.2 122.15 76.75 122.15 72.3 119 69.1 115.8 65.95 111.35 65.95 Z"/>
</g>

<g id="Layer1_0_MEMBER_0_MEMBER_2_MEMBER_0_FILL">
<path fill="#DBA689" stroke="none" d="
M 98.95 62.8
L 95.5 62.8 95.5 82.35
Q 100.1 82.35 103.1 80.05 106.55 77.35 106.55 72.3 106.55 67.2 102.75 64.5
L 98.95 62.8 Z"/>
</g>

<g id="Layer1_0_MEMBER_0_MEMBER_2_MEMBER_1_FILL">
<path fill="#DBA689" stroke="none" d="
M 19.65 62.8
L 16.15 62.8 12.35 64.5
Q 8.55 67.2 8.55 72.3 8.55 77.35 12 80.05 15 82.35 19.65 82.35
L 19.65 62.8 Z"/>
</g>

<g id="Layer1_0_MEMBER_0_MEMBER_3_FILL">
<path fill="#312D2D" stroke="none" d="
M 48.4 28.65
L 55.6 40.85 56.4 34.55
Q 57.5 26.95 55.15 19.35 50.35 4.15 33 4.15 15.65 4.15 10.05 18.75 7.25 26 7.95 33.25
L 9.15 40.85 16.9 28.4
Q 28 29.2 39.3 29.05 44.95 28.9 48.4 28.65 Z"/>
</g>

<g id="Layer1_0_MEMBER_0_MEMBER_4_FILL">
<path fill="#FADCBC" stroke="none" d="
M 55.6 39.5
Q 55.6 23 50.9 14.85 45.35 5.2 32.35 5.2 19.45 5.2 13.85 14.85 9.15 23 9.15 39.5 9.15 53.6 17.05 60.4 23.2 65.65 32.35 65.65 41.5 65.65 47.65 60.45 55.6 53.65 55.6 39.5 Z"/>
</g>

<g id="Layer1_0_MEMBER_0_MEMBER_5_MEMBER_0_FILL">
<path fill="#E0E0E0" stroke="none" d="
M 30.6 88.75
Q 22.55 80.9 23.4 58.9
L 13 58.9 14.25 63.3
Q 15.55 68.5 15.65 72.55 15.8 77.6 15 82.5 14.1 88.25 14 92.7 13.75 99.75 16.7 104.85 20.95 112.15 32.05 116.75 37.25 118.9 46.25 120.7 55.2 122.5 57.55 123.5
L 57.55 91.2
Q 38.85 96.85 30.6 88.75 Z"/>
</g>

<g id="Layer1_0_MEMBER_0_MEMBER_5_MEMBER_1_FILL">
<path fill="#E0E0E0" stroke="none" d="
M 91.7 58.9
Q 92.6 80.85 84.55 88.75 76.3 96.8 57.55 91.2
L 57.55 123.5
Q 59.95 122.5 68.85 120.7 77.85 118.9 83.1 116.75 94.2 112.2 98.45 104.85 101.35 99.8 101.15 92.7 101 88.3 100.1 82.5 99.3 77.6 99.45 72.55 99.55 68.5 100.85 63.3
L 102.15 58.9 91.7 58.9 Z"/>
</g>

<g id="Layer1_0_MEMBER_0_MEMBER_6_MEMBER_0_FILL">
<path fill="#E0E0E0" stroke="none" d="
M 26.45 95.1
Q 24.1 95.7 25 97.3 25.85 98.9 29.15 100.45 37.6 104.4 47.85 102.55 54.7 101.35 57 96.1 57.7 94.5 57.85 92.65
L 57.9 91.15
Q 46.3 87.5 37.2 90.45 34.65 91.25 31 93.1 27.7 94.8 26.45 95.1 Z"/>
</g>

<g id="Layer1_0_MEMBER_0_MEMBER_6_MEMBER_1_FILL">
<path fill="#E0E0E0" stroke="none" d="
M 90.15 97.3
Q 91.05 95.7 88.7 95.1 87.45 94.8 84.1 93.1 80.5 91.25 77.9 90.45 68.8 87.5 57.2 91.15
L 57.25 92.65
Q 57.4 94.5 58.15 96.1 60.45 101.35 67.3 102.55 77.55 104.4 86 100.45 89.25 98.9 90.15 97.3 Z"/>
</g>

<g id="Layer1_0_MEMBER_0_MEMBER_7_FILL">
<path fill="#DD2C00" stroke="none" d="
M 101.9 44.4
Q 99.8 28.6 91.5 19 80.2 5.95 58.65 5.95 36.4 5.95 24.4 19.15 15.65 28.8 13 44.35 35 39.6 57.45 39.65 79.9 39.65 101.9 44.4 Z"/>
</g>

<g id="Layer1_0_MEMBER_0_MEMBER_8_MEMBER_0_MEMBER_0_FILL">
<path fill="#F5F5F5" stroke="none" d="
M 59.7 35.5
Q 59.8 34.55 59.8 34.5
L 59.75 27.1
Q 59.7 26.45 59.25 25.85 58.75 25.25 58.1 25.1 45.35 22.3 32.3 22.3 19.25 22.3 6.55 25.1 5.85 25.25 5.35 25.85 4.9 26.45 4.85 27.1
L 4.8 34.5 4.9 35.55
Q 5.2 36.7 5.95 37.2 6.7 36.15 8.25 35.6 20.1 33.15 32.3 33.15 44.5 33.15 56.35 35.6 57.9 36.15 58.7 37.05 59.45 36.6 59.7 35.5 Z"/>
</g>

<g id="An_1F385_SVG_Layer_1__Clip_Group__0_Layer2_0_FILL">
<path fill="#CFD8DC" stroke="none" d="
M 91.15 7.7
Q 91.2 9.4 91.3 11.5 91.35 12.9 91.2 13.8 90.95 15.55 89.05 16.5 87.3 17.35 85.1 17.05 70.2 14.65 63 13.65 50.55 11.95 40.85 12.7 35.45 13.15 23.45 15.5 12.1 17.75 6.05 18.1 3.8 18.25 2.05 17 0.974609375 16.271484375 0.6 15.5
L 0.55 21.75 0.75 23.6
Q 1.25 25.65 2.6 26.5 3.95 24.7 6.65 23.65 27.75 19.3 49.45 19.3 71.15 19.3 92.2 23.65 94.95 24.7 96.35 26.3 97.65 25.5 98.1 23.55 98.3 21.8 98.3 21.75
L 98.2 8.6
Q 98.15 7.4 97.3 6.35 96.45 5.3 95.25 5.05 91.458203125 4.2046875 87.65 3.5 88.61640625 3.8330078125 89.55 4.65 91.1 6 91.15 7.7 Z"/>
</g>

<g id="Layer1_0_MEMBER_0_MEMBER_9_FILL">
<path fill="#513F35" stroke="none" d="
M 70.75 95.5
Q 70.45 94.85 69.4 94.85
L 45.75 94.85
Q 44.7 94.85 44.35 95.5 44.05 96.1 44.7 97.15 45.95 99.05 49 100.65 52.9 102.7 57.55 102.7 62.2 102.7 66.1 100.65 69.15 99.05 70.4 97.15 71.05 96.15 70.75 95.5 Z"/>
</g>

<g id="Layer1_0_MEMBER_0_MEMBER_10_FILL">
<path fill="#DBA689" stroke="none" d="
M 57.55 85.65
Q 54.95 85.65 51.85 84.8 51.25 84.6 50.95 85.05 50.7 85.45 50.95 85.9 51.6 87 53.2 88.05 55.25 89.3 57.55 89.3 59.85 89.3 61.9 88.05 63.5 87 64.15 85.9 64.4 85.45 64.15 85.05 63.9 84.65 63.25 84.8 60.15 85.65 57.55 85.65 Z"/>
</g>

<g id="Layer1_0_MEMBER_0_MEMBER_11_FILL">
<path fill="#444444" stroke="none" d="
M 38.65 66
Q 36.35 66 34.75 67.95 33.15 69.85 33.15 72.6 33.15 75.3 34.75 77.25 36.35 79.15 38.65 79.15 40.9 79.15 42.5 77.25 44.1 75.3 44.1 72.6 44.1 69.85 42.5 67.9 40.9 65.95 38.65 66 Z"/>
</g>

<g id="Layer1_0_MEMBER_0_MEMBER_12_FILL">
<path fill="#444444" stroke="none" d="
M 72.6 67.9
Q 71 69.85 71 72.6 71 75.3 72.6 77.25 74.2 79.15 76.5 79.15 78.75 79.15 80.35 77.25 81.95 75.3 81.95 72.6 81.95 69.85 80.35 67.95 78.75 66 76.5 66 74.2 65.95 72.6 67.9 Z"/>
</g>

<g id="Layer1_0_MEMBER_0_MEMBER_13_FILL">
<path fill="#513F35" stroke="none" d="
M 70.75 95.5
Q 70.45 94.85 69.4 94.85
L 45.75 94.85
Q 44.7 94.85 44.35 95.5 44.05 96.1 44.7 97.15 45.95 99.05 49 100.65 52.9 102.7 57.55 102.7 62.2 102.7 66.1 100.65 69.15 99.05 70.4 97.15 71.05 96.15 70.75 95.5 Z"/>
</g>
</defs>

<g id="Layer_1">
<g transform="matrix( 0.5625, 0, 0, 0.5625, 0,0) ">
<use xlink:href="#Layer1_0_MEMBER_0_MEMBER_0_FILL"/>
</g>

<g transform="matrix( 0.5625, 0, 0, 0.5625, 0,0) ">
<use xlink:href="#Layer1_0_MEMBER_0_MEMBER_1_FILL"/>
</g>

<g transform="matrix( 0.5624847412109375, 0, 0, 0.5624847412109375, 0,-0.15) ">
<use xlink:href="#Layer1_0_MEMBER_0_MEMBER_2_MEMBER_0_FILL"/>
</g>

<g transform="matrix( 0.5624847412109375, 0, 0, 0.5624847412109375, 0,-0.15) ">
<use xlink:href="#Layer1_0_MEMBER_0_MEMBER_2_MEMBER_1_FILL"/>
</g>

<g transform="matrix( 1, 0, 0, 1, 0,0) ">
<use xlink:href="#Layer1_0_MEMBER_0_MEMBER_3_FILL"/>
</g>

<g transform="matrix( 1, 0, 0, 1, 0,0) ">
<use xlink:href="#Layer1_0_MEMBER_0_MEMBER_4_FILL"/>
</g>

<g transform="matrix( 0.5624847412109375, 0, 0, 0.5624847412109375, 0,0) ">
<use xlink:href="#Layer1_0_MEMBER_0_MEMBER_5_MEMBER_0_FILL"/>
</g>

<g transform="matrix( 0.5624847412109375, 0, 0, 0.5624847412109375, 0,0) ">
<use xlink:href="#Layer1_0_MEMBER_0_MEMBER_5_MEMBER_1_FILL"/>
</g>

<g transform="matrix( 0.5624847412109375, 0, 0, 0.5624847412109375, 0,0) ">
<use xlink:href="#Layer1_0_MEMBER_0_MEMBER_6_MEMBER_0_FILL"/>
</g>

<g transform="matrix( 0.5624847412109375, 0, 0, 0.5624847412109375, 0,0) ">
<use xlink:href="#Layer1_0_MEMBER_0_MEMBER_6_MEMBER_1_FILL"/>
</g>

<g transform="matrix( 0.5625, 0, 0, 0.5625, 0,0) ">
<use xlink:href="#Layer1_0_MEMBER_0_MEMBER_7_FILL"/>
</g>

<g transform="matrix( 1, 0, 0, 1, 0,0) ">
<use xlink:href="#Layer1_0_MEMBER_0_MEMBER_8_MEMBER_0_MEMBER_0_FILL"/>
</g>

<g transform="matrix( 0.5625, 0, 0, 0.5625, 4.5,22.3) ">
<g id="Camada_1"/>

<g id="Camada_3">
<g transform="matrix( 1, 0, 0, 1, 0,0) ">
<use xlink:href="#An_1F385_SVG_Layer_1__Clip_Group__0_Layer2_0_FILL"/>
</g>
</g>

<g id="Camada_2"/>

<g id="Camada_4"/>
</g>

<g transform="matrix( 0.5625, 0, 0, 0.5625, 0,0) ">
<use xlink:href="#Layer1_0_MEMBER_0_MEMBER_9_FILL"/>
</g>

<g transform="matrix( 0.5625, 0, 0, 0.5625, 0,0) ">
<use xlink:href="#Layer1_0_MEMBER_0_MEMBER_10_FILL"/>
</g>

<g transform="matrix( 0.5625, 0, 0, 0.5625, 0,0) ">
<use xlink:href="#Layer1_0_MEMBER_0_MEMBER_11_FILL"/>
</g>

<g transform="matrix( 0.5625, 0, 0, 0.5625, 0,0) ">
<use xlink:href="#Layer1_0_MEMBER_0_MEMBER_12_FILL"/>
</g>

<g transform="matrix( 0.5625, 0, 0, 0.5625, 0,0) ">
<use xlink:href="#Layer1_0_MEMBER_0_MEMBER_13_FILL"/>
</g>
</g>
</svg>
