<svg xmlns="http://www.w3.org/2000/svg" xmlns:xlink="http://www.w3.org/1999/xlink" preserveAspectRatio="none" viewBox="0 0 72 72"><defs><path id="a" fill="#2F2F2F" d="M108.95 87.3V46.75H17.4V87.3h91.55z"/><path id="b" fill="#006CA2" d="M108.95 65.75L90 74.25q-3.55 1.7-5.45 2.6-6.35 3-8.85 3.95-6 2.3-11.9 2.3-8.15 0-17.1-4.25-9.2-4.4-29.3-13.25v7.75q0 3.45-.65 11.9-.15 7.65 2.2 12.05 2.6 4.9 8.85 6.85 11.35 3.5 27.55 3.8 12.05.2 28.1-1.4 11.7-1.2 17-3.45 8.35-3.55 8.5-11.25v-26.1z"/><path id="c" fill="#006CA2" d="M126.05 44.95q-1.3-1.3-4.1-2.85t-7.25-3.45q-4.95-2.1-7.4-3.2l-28-12.65q-5.15-2.35-8.4-3.4-4.7-1.5-8.65-1.5-3.45 0-6.8 1.1-7.4 2.6-16.75 6.85-3.05 1.4-16.3 7.75-12.25 5.85-14.1 6.7-.4.2-2.4 1.3-3.1 1.95-4.5 4-.45.55-.85 1.5-1.35 3.45 2.2 6.2 1.55 1.2 6.5 3.35l8.15 3.55q18.35 7.9 31.45 14.15 7.9 3.75 14.95 3.75 5.05 0 10.1-1.9 2.65-1.05 7.05-3.2 5.1-2.45 7-3.3l34.4-15.45q2.45-1.1 3.35-1.7 1.75-1.25 2-3 .45-2.45-1.65-4.6z"/><path id="d" fill="#ED6C30" d="M121.5 110.45q2.65.25 4.6-.15-.3-1.95-.35-3.9v-1.55l-12.7-1q-.35.9-.4 3.1 3.55 3.05 8.85 3.5z"/><path id="e" fill="#F79329" d="M117.15 55.05V66.6h.05v1.55q.05 2.2-.1 13.25v14.55q-1.3.5-2.05 1.7-.65 1.05-1.35 3.45-.2.6-.65 2.75l.05.45q.15.5.65.75 3.45 1.45 8.75.9 1.05-.1 1.85-.35 1.2-.4 1.4-.75.1-.2.05-.8-.05-.6-.05-.75l-.2-2.05q-.4-2.7-2.05-4.45-.65-.55-1.15-.75v-41h-5.2z"/><path id="f" fill="#F79329" d="M121.95 123.75q.05.2 0 .5.05.25.25.4.4.25 1.05.15.6-.1.95-.4.6-.6 1.2-2 1.25-3.1 1.25-7.05-.05-2.5-.4-5.05l-.4-2.1q-2.5.8-6.6.55-3.05-.2-5.15-1l-1.45-.8-.75 4.2q-.55 2.5-1.55 4.65-.7 1.35-1.95 2.85-1.8 2.15-1.35 3.45.35 1.2 1.5 1.3.45.05 1-.4.6-.45.9-.45.45-.05.4.4-.05.25-.15.7.35 1.3 2.45 1.55.85.1 1.45-.45.7-.7.85-.7.4 0 .4.2l.1.55q.8 1.4 3.65.6.5-.15.75-.5.35-.5.55-.8.9-1.25 1.05-.35z"/><path id="g" fill="#F79329" d="M119.6 57.15l.5.05q.8 0 1.45-.5.6-.45.8-1.25.2-.95-.35-1.7-.5-.8-1.4-1L63.9 40.4q-.9-.2-1.7.3-.75.5-1 1.45-.2.9.35 1.7.5.8 1.4 1l56.65 12.3z"/></defs><use transform="scale(.5625)" xlink:href="#a"/><use transform="scale(.5625)" xlink:href="#b"/><use transform="scale(.5625)" xlink:href="#c"/><use transform="scale(.5625)" xlink:href="#d"/><use transform="scale(.5625)" xlink:href="#e"/><use transform="scale(.5625)" xlink:href="#f"/><use transform="scale(.5625)" xlink:href="#g"/></svg>