
<svg xmlns="http://www.w3.org/2000/svg" version="1.1" xmlns:xlink="http://www.w3.org/1999/xlink" preserveAspectRatio="none" x="0px" y="0px" width="72px" height="72px" viewBox="0 0 72 72">
<defs>
<g id="Layer0_0_MEMBER_0_FILL">
<path fill="#CC9970" stroke="none" d="
M 83.75 29.35
Q 82.05 30.15 81.5 32.1 79.9 32.7 78.9 31.45 77.9 26.8 74.9 24.7 71.65 22.45 66.35 23.25 60.6 24.1 58.05 26.4 56.05 28.15 55.4 31.45
L 55.35 31.45
Q 55 31.95 54.4 32.35 53.25 33.1 52.3 32.4 51.6 30.45 49.9 29.7 48 28.85 44.6 29.2 36.5 30.05 33.7 35.05 32.5 37.1 31.75 43.2 31 43.55 30.35 43.1 29.05 41 25.4 41 21.2 41 17.7 46.1 14.8 50.35 14.5 53.95 14.25 56.8 15.2 65.95 16.1 74.6 16.9 78.45 17.7 81.95 21.3 83.85 24.9 85.75 28.35 84.5 31.5 83.35 32.35 82 33.7 79.9 32.2 75.3
L 32 74.6 33.2 74.8
Q 33.8 79.4 35.5 81.9 37.9 85.4 42.65 85.35 45.7 85.35 48 83.5 50.7 81.3 51.1 77.2
L 54.95 77.7 55.1 79.2
Q 55.45 83.15 59.6 85.3 62.9 87 67.05 87
L 63.7 88.1 59.35 87.55
Q 58.8 87.65 58.05 88 56.45 88.65 55.3 89.65 51.5 92.85 52.9 98.4 53.75 101.85 57.45 103.1 59.1 103.65 66.8 104.7 72.4 105.5 84.75 104.7 98.5 103.85 100.1 101.6 103 98.6 106.1 94.4 112.3 85.95 113.25 79.75 114 75.05 112.7 66.7 111.5 58.8 108.95 50.15 108.85 49.15 107.85 47.55 105.95 44.45 101.8 41.8
L 101.45 38.5
Q 100.9 34.3 99.95 32.9 97.15 28.75 88.65 28.6 85.4 28.55 83.75 29.35 Z"/>
</g>

<g id="Layer0_0_MEMBER_1_FILL">
<path fill="#99674F" stroke="none" d="
M 82.1 46.65
Q 81.95 45.35 81.8 44.35 81.5 42.4 80.85 41.25 80.05 39.8 79.4 40.45
L 78.9 41.4
Q 79.55 53.3 79.35 65.2 79.25 71.15 79.05 74.7 78.95 81.25 75.2 84.3 73.3 85.9 67.2 86.2 59.65 86.35 56.6 81.65 55.65 80.15 55.25 78.4
L 55.05 76.9
Q 54.65 74.5 54.35 69.4 53.7 59.2 54.05 45.65 54.05 44.9 53.8 44.25 53.35 43 52.25 43.7
L 51.7 45.65
Q 51.1 48.05 50.95 50.2
L 50.4 58.1
Q 50.1 67.9 51.05 77.55 50.55 81.5 47.9 83.6 45.65 85.35 42.65 85.35 37.05 85.4 34.75 80.6 32.25 71.9 32.4 53.4 32.5 52.45 32.45 51.55 32.35 49.8 31.55 50.25
L 30.9 51.2
Q 30.1 52.85 29.6 56.45
L 29.25 62.25
Q 29.1 69.65 30.15 77.7 30.75 83.75 27.8 84.65 25.15 85.4 22.4 84.35 19.65 83.35 18.1 81.1 19.65 83.95 21.8 85.7 24.75 88.1 28.45 87.95
L 30.5 87.5
Q 32.7 86.85 33.55 85.65 35.45 88.8 40.65 89.5 43.25 89.85 45.45 89.55 50.75 88.85 52.9 84.7
L 52.9 84.75
Q 55.35 89.05 61.55 90.5 64.6 91.25 67.2 91.1 77.8 91.1 81.05 85.25 82.45 87.8 85.6 89.25 87.2 89.95 88.5 90.15 94.4 90.75 98.7 87.25 100.85 85.5 101.85 83.6 105.35 76.95 105.55 63.45 105.7 55.55 104.6 43.85
L 101.8 41.85
Q 102.5 51.45 101.85 68.2 101.6 75.5 99.9 79.1 97.6 84 91.9 84.7 86.5 85.4 83.95 82.2 83.3 80.5 83.1 77.7
L 83 75.25
Q 83.2 63.7 82.7 54
L 82.1 46.65 Z"/>
</g>
</defs>

<g id="Layer_1">
<g transform="matrix( 0.5625, 0, 0, 0.5625, 0,0) ">
<use xlink:href="#Layer0_0_MEMBER_0_FILL"/>
</g>

<g transform="matrix( 0.5625, 0, 0, 0.5625, 0,0) ">
<use xlink:href="#Layer0_0_MEMBER_1_FILL"/>
</g>
</g>
</svg>
