
<svg xmlns="http://www.w3.org/2000/svg" version="1.1" xmlns:xlink="http://www.w3.org/1999/xlink" preserveAspectRatio="none" x="0px" y="0px" width="72px" height="72px" viewBox="0 0 72 72">
<defs>
<g id="Layer0_0_MEMBER_0_FILL">
<path fill="#AD6F43" stroke="none" d="
M 93.15 52.8
Q 89.45 52.85 87.45 51 85.75 49.5 82.8 49.3 80.5 49.1 78.2 49.7 77.05 49.95 75.8 49.4 75.75 49.4 73.3 47.95 71.8 47.1 69.45 47.2 67.25 47.25 66.1 48.05 64.5 49.1 63.8 48.25 63.05 47.35 63.05 44.2 62.65 19.65 62.25 13.8 61.75 5.65 60.1 4 58.55 2.4 55.65 2.1 53.05 1.8 51.6 2.65 49.55 3.85 48.8 5.25 47.75 7.15 47.25 11.9 46.8 15.85 46.7 31.8 46.55 48.45 46.5 49.25
L 46.35 50.45
Q 46.25 51.15 45.6 51.25 44.95 51.4 44.55 50.85 41.35 46.4 38.35 44.75 36.35 43.7 33.9 43.75 31.35 43.8 29.35 45.4 27.7 46.75 26.85 48.65 25.75 51 26.1 53.35 26.4 55.5 27.95 58.25 29.15 60.35 34.65 69.9 39.85 79.25 41.5 83.9 43.45 89.4 45.6 92.3 47.4 94.75 54.9 102.45 56.4 104.05 56.65 108.15 56.75 110.6 56.6 116.95 56.6 120.5 57.15 121.8 58.2 124.4 61.8 125.2 65.75 126.1 75.3 126.05 84.35 126 90.1 125.2 95.2 124.5 96.95 121.6 98.3 119.3 98.3 113.95 98.3 111.65 98.15 107.55 98 103.45 98 101.55 98 98.45 98.75 95.2 99.05 93.8 100.45 89 101.9 84.05 101.8 75.9 101.4 66.5 101.4 61.8 101.4 56.7 98.2 54.35 96 52.75 93.15 52.8 Z"/>
</g>

<g id="Layer0_0_MEMBER_1_FILL">
<path fill="#7A4C32" stroke="none" d="
M 26.05 28.35
Q 26 28.75 25.65 28.8 25.25 28.9 25.05 28.6 23.85 26.9 22.65 25.9 24.65 28.65 25.45 31.5 25.95 33.3 26.3 37.35 26.35 37.85 26.7 38.15 27.1 38.5 27.6 38.45 28.05 38.4 28.4 38.1 28.7 37.75 28.7 37.25
L 28.7 37.15
Q 28.35 32.85 27.75 30.75 27.25 28.85 26.15 26.9 26.15 27.55 26.15 27.7
L 26.05 28.35 Z"/>
</g>
</defs>

<g id="Layer_1">
<g transform="matrix( 0, 0.5625, 0.5625, 0, -0.15,0.05) ">
<use xlink:href="#Layer0_0_MEMBER_0_FILL"/>
</g>

<g transform="matrix( 0, 1, 1, 0, -0.15,0.05) ">
<use xlink:href="#Layer0_0_MEMBER_1_FILL"/>
</g>
</g>
</svg>
