
<svg xmlns="http://www.w3.org/2000/svg" version="1.1" xmlns:xlink="http://www.w3.org/1999/xlink" preserveAspectRatio="none" x="0px" y="0px" width="72px" height="72px" viewBox="0 0 72 72">
<defs>
<g id="Layer0_0_MEMBER_0_FILL">
<path fill="#AD6F43" stroke="none" d="
M 105.15 48.3
Q 102.25 39.4 98.65 32.7 94.45 24.95 92.6 21.9 89.65 17 85.85 12.25 80.5 5.45 76.8 3.35 71.3 0.2 66.35 4.45 61.55 8.6 66.5 17.7 66.3 17.55 66.5 18.6 66.7 19.7 66.5 19.5 60.7 15.05 57.95 14.6 55.9 14.2 53.5 16.15 49.2 19.55 53.9 27.15 56.45 31.3 62.3 38.5 62.65 39.05 64.15 40 65.7 41 65.95 41.45
L 67.05 43.3 65.75 42.9
Q 62.1 41.85 57.05 41.5 51.05 41.05 48.2 42.15 30.5 48.8 26.2 53.65 23.5 56.7 25.35 62 27.1 66.9 32.3 68.1 38.45 69.5 46.7 64.35 57.15 60.05 65.8 64.2 73.8 68 73.8 74.95 73.8 84.05 70.65 88.5 67.25 93.3 59.95 93.3 50.3 93.3 44.55 85.75 38.95 76.1 34.7 71.85 32.9 70.05 29.55 69.8 26 69.5 23.65 71.2 18.8 74.75 19.75 82.2 20.3 86.65 22.85 91.9 27.9 102.15 30.35 106 36.2 115.1 44.55 121.85 49.15 125.6 60.05 126 69 126.3 77.8 124.5 90.45 121.95 96.55 112.5 100.6 106.15 105.85 87.55 107.4 82.05 107.95 76.35 108.4 71.9 108.4 64.5 108.4 58.35 105.15 48.3 Z"/>
</g>

<g id="Layer0_0_MEMBER_1_FILL">
<path fill="#7A4C32" stroke="none" d="
M 44.8 20.2
Q 42.65 15.85 41.2 13.9 40.55 13 38.95 11.3 37.3 9.5 37 9.15 37.2 9.95 36.65 10.4 36.75 10.55 38.6 13.05 40.6 15.9 41.45 17.8 42.8 20.8 43.95 24.1 36.4 21.7 35.05 21.7
L 35.35 22.05
Q 35.6 22.55 35.6 23.1 35.6 23.65 35.05 23.7 40.6 25.35 42.25 26 46.6 27.7 49 30 50.15 31.1 51.5 32.75 52.9 34.5 53.65 35.8 54.15 36.65 54.8 35.7 55.45 34.75 55.3 34.05 54.85 32.2 51.7 29.15 49.25 26.8 46.95 25.3 46.7 24.2 44.8 20.2 Z"/>
</g>
</defs>

<g id="Layer_1">
<g transform="matrix( 0.5625, 0, 0, 0.5625, 0,0) ">
<use xlink:href="#Layer0_0_MEMBER_0_FILL"/>
</g>

<g transform="matrix( 1, 0, 0, 1, 0,0) ">
<use xlink:href="#Layer0_0_MEMBER_1_FILL"/>
</g>
</g>
</svg>
