<svg xmlns="http://www.w3.org/2000/svg" xmlns:xlink="http://www.w3.org/1999/xlink" preserveAspectRatio="none" viewBox="0 0 72 72"><defs><path id="a" fill="#AD6F43" d="M48.95 42.85q-3-20.45-3.35-39.2H26.45q-.35 18.75-3.35 39.2-3.95-2.65-8.55 1.2-4.45 3.85-5.4 13.3-.6 6.65 6.4 7.9 2.1.35 5.85.3 3.95-.1 4.85.05 3.05.4 5.1 1.75 1.55 1 4.7 1.05 3.1-.05 4.65-1.05 2.05-1.35 5.1-1.75.9-.15 4.85-.05 3.75.05 5.85-.3 7-1.25 6.4-7.9-.95-9.45-5.4-13.3-4.6-3.85-8.55-1.2z"/><path id="b" fill="#7A4C32" d="M45.4 107.9q8 1.35 9.2 1.2 4.3-.5-.7-6.85-5.55-6.95-12.7-3.7-2.25 1-4.35 2.95-1.1.95-1.7 1.7-1.1 3.1-.95 4.1.1.9 1.5.8.85-.05 3.75-.45 3.1-.25 5.95.25z"/><path id="c" fill="#7A4C32" d="M52.85 60.35q.1-.55-.55-2.3-1.35-1.7-3.4-2.6-4-1.85-7.15 2.05-2.8 3.6-.35 3.85.7.1 5.15-.65 1.6-.3 3.35-.15.9.1 2.1.25.8.05.85-.45z"/></defs><use xlink:href="#a"/><use transform="rotate(4.999 147.608 -77.052) scale(.67323)" xlink:href="#b"/><use transform="scale(1.1969) rotate(-5 -57.238 70.362)" xlink:href="#c"/></svg>