<svg xmlns="http://www.w3.org/2000/svg" xmlns:xlink="http://www.w3.org/1999/xlink" preserveAspectRatio="none" viewBox="0 0 72 72"><defs><path id="a" fill="#FAC036" d="M105.15 48.3q-2.9-8.9-6.5-15.6-4.2-7.75-6.05-10.8-2.95-4.9-6.75-9.65-5.35-6.8-9.05-8.9Q71.3.2 66.35 4.45q-4.8 4.15.15 13.25-.2-.15 0 .9.2 1.1 0 .9-5.8-4.45-8.55-4.9-2.05-.4-4.45 1.55-4.3 3.4.4 11 2.55 4.15 8.4 11.35.35.55 1.85 1.5 1.55 1 1.8 1.45l1.1 1.85-1.3-.4q-3.65-1.05-8.7-1.4-6-.45-8.85.65-17.7 6.65-22 11.5-2.7 3.05-.85 8.35 1.75 4.9 6.95 6.1 6.15 1.4 14.4-3.75 10.45-4.3 19.1-.15 8 3.8 8 10.75 0 9.1-3.15 13.55-3.4 4.8-10.7 4.8-9.65 0-15.4-7.55-5.6-9.65-9.85-13.9-1.8-1.8-5.15-2.05-3.55-.3-5.9 1.4-4.85 3.55-3.9 11 .55 4.45 3.1 9.7 5.05 10.25 7.5 14.1 5.85 9.1 14.2 15.85 4.6 3.75 15.5 4.15 8.95.3 17.75-1.5 12.65-2.55 18.75-12 4.05-6.35 9.3-24.95 1.55-5.5 2.1-11.2.45-4.45.45-11.85 0-6.15-3.25-16.2z"/><path id="b" fill="#E48C15" d="M44.8 20.2q-2.15-4.35-3.6-6.3-.65-.9-2.25-2.6Q37.3 9.5 37 9.15q.2.8-.35 1.25.1.15 1.95 2.65 2 2.85 2.85 4.75 1.35 3 2.5 6.3-7.55-2.4-8.9-2.4l.3.35q.25.5.25 1.05t-.55.6q5.55 1.65 7.2 2.3 4.35 1.7 6.75 4 1.15 1.1 2.5 2.75 1.4 1.75 2.15 3.05.5.85 1.15-.1.65-.95.5-1.65-.45-1.85-3.6-4.9-2.45-2.35-4.75-3.85-.25-1.1-2.15-5.1z"/></defs><use transform="scale(.5625)" xlink:href="#a"/><use xlink:href="#b"/></svg>