
<svg xmlns="http://www.w3.org/2000/svg" version="1.1" xmlns:xlink="http://www.w3.org/1999/xlink" preserveAspectRatio="none" x="0px" y="0px" width="72px" height="72px" viewBox="0 0 72 72">
<defs>
<g id="Layer0_0_MEMBER_0_FILL">
<path fill="#E0BB95" stroke="none" d="
M 83 40.95
Q 89.45 25.9 89.2 19.85 88.85 11.85 87.5 8.7 84.6 2 76 2 71.05 2 68.15 7.95 68.05 8.1 62.75 23.05 60.5 29.4 57.2 34.95 52.65 42.65 46.9 47.15 44.2 49.3 33.35 53.35 21.1 57.9 16.75 60.35 12.6 62.7 11.9 71.9 11.5 76.85 11.85 84.75 11.6 94.65 12.75 99.4 14.3 105.75 18.95 107.65 20.95 108.45 24.2 111.45 26.05 113.15 29.85 116.8 37.1 123.15 53 125.05 62.15 126.15 76.5 125.7 79.2 125.65 85.6 125.6 91.4 125.5 94.85 124.95 104.6 123.4 104.8 116.9 104.9 113.75 102.95 112.1 100.95 110.45 96.55 110.1
L 82.65 109.45 83.75 107.65
Q 88.75 108.05 94.95 108.25 101.15 108.45 103.25 108.25 106.7 108 109.15 106.25 112.3 104.05 112.35 100.25 112.45 96.75 109.85 94.45 107.2 92.1 102.5 91.85
L 93.15 91.5 93.35 91.15 93.75 90.05
Q 96.55 90 101.7 89.55 105.95 89.2 106.95 89.25 111.35 89.5 114.05 86.75 116.7 84 116.15 79.9 115.55 75.4 111.9 73.3 108.5 71.3 103.4 71.9 102.75 72 99.25 72.05 95.75 72.15 94.55 72.3
L 96.45 70.2
Q 98.85 69.85 104.15 69.45 108.85 68.95 110.75 66.15 112.35 63.8 111.8 60 111.15 55.55 107.45 54.1 105.65 53.4 99.65 52.95 96 52.65 90.7 52.85 83.5 53.1 79.45 54.25 78.1 53.85 79.3 50 80 47.85 83 40.95 Z"/>
</g>

<g id="Layer0_0_MEMBER_1_FILL">
<path fill="#C48E6A" stroke="none" d="
M 103.4 71.9
L 105.65 71.75
Q 104.7 71.3 104.65 70.45
L 104.8 69.35
Q 98.8 69.85 89.5 71.1 73 73.25 72.15 66.3 71.45 60.75 74.05 57.85 75.35 56.3 77.6 55.1 78.7 54.5 79.55 54.2 79.2 54.1 78.95 53.85
L 78.75 53.05
Q 73 53.75 69.6 57.1 66.1 60.4 66.4 65 66.65 68.35 67.55 70.3 68.6 72.45 70.65 73.45
L 69.25 74.95
Q 67.9 77.25 68 80.95 68.05 84.7 70.45 87.5 71.65 88.9 72.95 89.65 70.4 89.6 67.75 91.65 64.55 94.15 64.55 97.95 64.55 101.35 66.15 104.1 67.6 106.6 69.7 107.6 68.05 107.95 66.6 109.7 64.8 111.95 64.8 115.3 64.8 120.3 68.05 123.15 70.6 125.4 74.4 125.85 77.25 126.2 84.25 125.85 90.55 125.55 93.8 125.1 94.7 124.95 88.45 124.6 79.7 124.1 74.9 123.45 72.85 123.2 71.1 121.6 69.15 119.85 68.85 117.55 68.65 116.5 68.95 115.1 69.55 112.4 72 110.85
L 73.8 110.15
Q 76.5 109.45 81.25 109.5
L 83.55 109.5
Q 84.25 109.55 96.5 110.1 98.4 110.25 100.05 110.65 99.7 110.3 99.75 109.5 99.9 108.3 100.85 108.3
L 92.55 107.85
Q 77.25 106.9 75.95 106.4 74.35 106 72.8 104.8 69.6 102.35 69.6 98.3 69.5 96.9 70.5 95.5 72.4 92.65 77.7 92.5
L 88.75 92.05
Q 100.85 91.8 106.15 92.5 105.85 91.95 105.8 91.25 105.7 89.85 106.95 89.2
L 83.75 89.8
Q 77.85 89.95 74.95 87.3 72.9 85.5 72.65 82.7
L 72.55 80.95
Q 72.55 77.45 75.6 76 77.6 75.1 83.55 74.3 97.5 72.45 103.4 71.9 Z"/>
</g>

<g id="Layer0_0_MEMBER_2_FILL">
<path fill="#C48E6A" stroke="none" d="
M 65.8 92.15
Q 73.65 81 71.1 67.55
L 67.75 68.5 68.25 71.5
Q 68.6 75.3 67.95 79.1 65.9 91.3 54.55 99.1
L 53.5 100
Q 52.65 101.1 53.35 101.8
L 54.15 102.2
Q 55.35 102.25 57.45 100.65 61.9 97.75 65.8 92.15 Z"/>
</g>
</defs>

<g id="Layer_1">
<g transform="matrix( 0.5625, 0, 0, 0.5625, 0,0) ">
<use xlink:href="#Layer0_0_MEMBER_0_FILL"/>
</g>

<g transform="matrix( 0.5625, 0, 0, 0.5625, 0,0) ">
<use xlink:href="#Layer0_0_MEMBER_1_FILL"/>
</g>

<g transform="matrix( 0.5625, 0, 0, 0.5625, 0,0) ">
<use xlink:href="#Layer0_0_MEMBER_2_FILL"/>
</g>
</g>
</svg>
