
<svg xmlns="http://www.w3.org/2000/svg" version="1.1" xmlns:xlink="http://www.w3.org/1999/xlink" preserveAspectRatio="none" x="0px" y="0px" width="72px" height="72px" viewBox="0 0 72 72">
<defs>
<g id="Layer0_0_MEMBER_0_FILL">
<path fill="#AD6F43" stroke="none" d="
M 102.95 15.95
Q 104.9 14.3 104.8 11.15 104.6 4.65 94.85 3.1 91.45 2.55 85.6 2.45 79.2 2.45 76.5 2.35 62.15 1.9 53 3 37.1 4.9 29.85 11.25 26.05 14.9 24.2 16.6 20.95 19.6 18.95 20.4 14.3 22.3 12.75 28.65 11.6 33.4 11.85 43.3 11.95 46 11.9 56.15 12.6 65.35 16.75 67.7 21.1 70.15 33.35 74.7 44.2 78.75 46.9 80.9 52.65 85.4 57.2 93.1 60.5 98.65 62.75 105 68.05 119.85 68.15 120.1 71.05 126 76 126 84.6 126 87.5 119.35 88.85 116.15 89.2 108.2 89.45 102.15 83 87.15 80 80.2 79.3 78.1 78.1 74.25 79.45 73.85 83.5 74.95 90.7 75.2 96.05 75.4 99.65 75.1 105.7 74.65 107.45 74 111.15 72.55 111.8 68.05 112.35 64.25 110.75 61.9 108.85 59.15 104.15 58.6 98.85 58.2 96.45 57.8
L 94.55 55.75
Q 95.75 55.9 99.25 56 102.75 56.05 103.4 56.15 108.5 56.8 111.9 54.8 115.55 52.65 116.15 48.15 116.7 44.05 114.05 41.3 111.35 38.6 106.95 38.8 105.95 38.9 101.7 38.5 96.55 38.1 93.75 38
L 93.35 36.85 93.15 36.55
Q 98.35 36.4 102.5 36.15 107.2 35.95 109.85 33.6 112.45 31.35 112.35 27.8 112.3 24 109.15 21.8 106.7 20.1 103.25 19.8 101.15 19.6 94.95 19.8 88.75 20 83.75 20.4
L 82.65 18.6 96.55 17.95
Q 100.95 17.6 102.95 15.95 Z"/>
</g>

<g id="Layer0_0_MEMBER_1_FILL">
<path fill="#7A4C32" stroke="none" d="
M 83.55 18.55
L 81.25 18.55
Q 76.5 18.6 73.8 17.9
L 72 17.2
Q 69.55 15.65 68.95 12.95
L 68.85 10.5
Q 69.15 8.2 71.1 6.45 72.85 4.85 74.9 4.55 79.75 3.9 88.45 3.45 94.7 3.1 93.8 2.95 90.55 2.5 84.25 2.2 77.25 1.85 74.4 2.2 70.6 2.65 68.05 4.9 64.8 7.75 64.8 12.75 64.8 16.15 66.6 18.35 68.05 20.1 69.7 20.45 67.6 21.45 66.15 23.95 64.55 26.7 64.55 30.05 64.55 33.9 67.75 36.4 70.4 38.5 72.95 38.4 71.65 39.15 70.45 40.55 68.05 43.35 68 47.1 67.9 50.8 69.25 53.1 69.95 54.2 70.65 54.6 68.6 55.6 67.55 57.75 66.65 59.7 66.4 63.05 66.1 67.65 69.6 70.95 73 74.25 78.75 75
L 78.95 74.2
Q 79.2 73.9 79.55 73.85 76.15 72.65 74.05 70.2 71.45 67.3 72.15 61.7 73 54.7 89.5 56.95 98.8 58.2 104.8 58.7 104.6 58 104.65 57.6 104.7 56.85 105.65 56.25 104.7 56.3 103.4 56.15 97.5 55.55 83.55 53.75 77.65 53 75.6 52 72.55 50.55 72.55 47.05
L 72.65 45.35
Q 72.9 42.55 74.95 40.75 77.85 38.1 83.75 38.25
L 106.95 38.8
Q 105.7 38.2 105.8 36.8
L 106.15 35.55
Q 100.85 36.25 88.75 36
L 77.7 35.55
Q 72.4 35.35 70.5 32.55
L 69.6 29.75
Q 69.6 25.7 72.8 23.25 74.35 22.05 75.95 21.65 77.1 21.15 92.55 20.2
L 100.85 19.75
Q 99.9 19.75 99.75 18.55 99.7 17.8 100.05 17.35 98.55 17.8 96.5 17.95 84.25 18.5 83.55 18.55 Z"/>
</g>

<g id="Layer0_0_MEMBER_2_FILL">
<path fill="#7A4C32" stroke="none" d="
M 65.8 35.9
Q 63.35 32.4 60.15 29.55
L 57.45 27.4
Q 55.35 25.8 54.15 25.85
L 53.35 26.25
Q 52.65 26.95 53.5 28.05 53.95 28.55 54.55 28.95 65.9 36.75 67.95 48.95 69 55.05 67.75 59.55
L 71.1 60.5
Q 73.65 47.05 65.8 35.9 Z"/>
</g>
</defs>

<g id="Layer_1">
<g transform="matrix( 0.5625, 0, 0, 0.5625, 0,0) ">
<use xlink:href="#Layer0_0_MEMBER_0_FILL"/>
</g>

<g transform="matrix( 0.5625, 0, 0, 0.5625, 0,0) ">
<use xlink:href="#Layer0_0_MEMBER_1_FILL"/>
</g>

<g transform="matrix( 0.5625, 0, 0, 0.5625, 0,0) ">
<use xlink:href="#Layer0_0_MEMBER_2_FILL"/>
</g>
</g>
</svg>
