<svg xmlns="http://www.w3.org/2000/svg" xmlns:xlink="http://www.w3.org/1999/xlink" preserveAspectRatio="none" viewBox="0 0 72 72"><defs><path id="a" fill="#8E726A" d="M83.75 29.35q-1.7.8-2.25 2.75-1.6.6-2.6-.65-1-4.65-4-6.75-3.25-2.25-8.55-1.45-5.75.85-8.3 3.15-2 1.75-2.65 5.05h-.05q-.35.5-.95.9-1.15.75-2.1.05-.7-1.95-2.4-2.7-1.9-.85-5.3-.5-8.1.85-10.9 5.85-1.2 2.05-1.95 8.15-.75.35-1.4-.1-1.3-2.1-4.95-2.1-4.2 0-7.7 5.1-2.9 4.25-3.2 7.85-.25 2.85.7 12 .9 8.65 1.7 12.5.8 3.5 4.4 5.4 3.6 1.9 7.05.65 3.15-1.15 4-2.5 1.35-2.1-.15-6.7l-.2-.7 1.2.2q.6 4.6 2.3 7.1 2.4 3.5 7.15 3.45 3.05 0 5.35-1.85 2.7-2.2 3.1-6.3l3.85.5.15 1.5q.35 3.95 4.5 6.1 3.3 1.7 7.45 1.7l-3.35 1.1-4.35-.55q-.55.1-1.3.45-1.6.65-2.75 1.65-3.8 3.2-2.4 8.75.85 3.45 4.55 4.7 1.65.55 9.35 1.6 5.6.8 17.95 0 13.75-.85 15.35-3.1 2.9-3 6-7.2 6.2-8.45 7.15-14.65.75-4.7-.55-13.05-1.2-7.9-3.75-16.55-.1-1-1.1-2.6-1.9-3.1-6.05-5.75l-.35-3.3q-.55-4.2-1.5-5.6-2.8-4.15-11.3-4.3-3.25-.05-4.9.75z"/><path id="b" fill="#563E37" d="M82.1 46.65q-.15-1.3-.3-2.3-.3-1.95-.95-3.1-.8-1.45-1.45-.8l-.5.95q.65 11.9.45 23.8-.1 5.95-.3 9.5-.1 6.55-3.85 9.6-1.9 1.6-8 1.9-7.55.15-10.6-4.55-.95-1.5-1.35-3.25l-.2-1.5q-.4-2.4-.7-7.5-.65-10.2-.3-23.75 0-.75-.25-1.4-.45-1.25-1.55-.55l-.55 1.95q-.6 2.4-.75 4.55l-.55 7.9q-.3 9.8.65 19.45-.5 3.95-3.15 6.05-2.25 1.75-5.25 1.75-5.6.05-7.9-4.75-2.5-8.7-2.35-27.2.1-.95.05-1.85-.1-1.75-.9-1.3l-.65.95q-.8 1.65-1.3 5.25l-.35 5.8q-.15 7.4.9 15.45.6 6.05-2.35 6.95-2.65.75-5.4-.3-2.75-1-4.3-3.25 1.55 2.85 3.7 4.6 2.95 2.4 6.65 2.25l2.05-.45q2.2-.65 3.05-1.85 1.9 3.15 7.1 3.85 2.6.35 4.8.05 5.3-.7 7.45-4.85v.05q2.45 4.3 8.65 5.75 3.05.75 5.65.6 10.6 0 13.85-5.85 1.4 2.55 4.55 4 1.6.7 2.9.9 5.9.6 10.2-2.9 2.15-1.75 3.15-3.65 3.5-6.65 3.7-20.15.15-7.9-.95-19.6l-2.8-2q.7 9.6.05 26.35-.25 7.3-1.95 10.9-2.3 4.9-8 5.6-5.4.7-7.95-2.5-.65-1.7-.85-4.5l-.1-2.45q.2-11.55-.3-21.25l-.6-7.35z"/></defs><use transform="scale(.5625)" xlink:href="#a"/><use transform="scale(.5625)" xlink:href="#b"/></svg>