
<svg xmlns="http://www.w3.org/2000/svg" version="1.1" xmlns:xlink="http://www.w3.org/1999/xlink" preserveAspectRatio="none" x="0px" y="0px" width="72px" height="72px" viewBox="0 0 72 72">
<defs>
<g id="Layer0_0_FILL">
<path fill="#FADCBC" stroke="none" d="
M 102.6 39.25
Q 98.65 42.2 97.35 46.3 96.1 50.35 97.6 55
L 102.7 68.4
Q 103.25 69.55 102.2 70.45 101.15 71.4 100.2 70.65 97.65 68.6 92.35 63.3
L 87.5 58.4
Q 85.5 56.55 73.05 44.15 61.05 32.25 60.35 31.65 58 29.5 55.6 28.9 52.95 28.2 51 29.7 48.75 31.4 48.5 33.65 48.15 36.05 50.2 38.6
L 73 62.3
Q 74 63.3 73.2 64.25 72.45 65.15 71.4 64.2
L 42.75 34.95
Q 40.6 32.7 37.7 32.4 34.8 32.05 32.85 33.9 30.95 35.75 31.05 38.4 31.15 41.1 33.25 43.4 34.15 44.35 61.2 72.45 62.35 73.6 61.4 74.45 60.65 75.3 59.65 74.25
L 35.4 49.55
Q 33.2 47.4 30.9 46.95 28.3 46.45 26.3 48.3 24.3 50.2 24.25 52.85 24.2 55.7 26.4 57.8
L 51.8 84.05
Q 52 84.05 52.15 84.65 52.3 85.35 51.75 85.9 50.8 86.8 49.8 85.75 45.7 81.5 41.45 77.15 32.95 68.4 32.3 67.95 28 64.8 24.45 68.55 20.65 72.5 25.1 77.8 51.6 105.25 53.1 106.65
L 59.9 112.8
Q 67.6 119.5 72.05 122.1 75.8 124.35 78.85 125.35 83.35 126.8 87.4 126.75 92.1 126.75 96.6 125 100.85 123.35 104.9 120.3
L 108.45 117.4
Q 110.2 115.9 111.75 114.25 114.75 111.15 117.45 107.45 119.9 103.95 121.6 100.25 123.3 96.5 123.95 93.1 124.6 90 124.45 86.75 124.4 85.05 123.7 82 123.1 80.05 122.65 79.15
L 122.15 78.15 107.8 40.65
Q 107.25 39.05 105.65 38.65 104 38.2 102.6 39.25 Z"/>
</g>

<g id="Layer0_1_FILL">
<path fill="#FADCBC" stroke="none" d="
M 82.85 45.75
Q 82.25 47 81.05 46.7 77.95 45.85 70.95 43.05
L 64.6 40.4
Q 61.9 39.4 45.75 32.9 30 26.55 29.2 26.25 26.2 25.2 23.75 25.6 21.05 26 19.8 28.15 18.4 30.55 19 32.75 19.65 35.1 22.5 36.6
L 52.75 49.55
Q 54.05 50.1 53.7 51.3 53.35 52.45 52 52
L 14.25 36.2
Q 11.4 34.95 8.6 35.75 5.8 36.55 4.7 39.05 3.65 41.5 4.8 43.9 5.95 46.35 8.8 47.6 35.55 59 45.85 63.5 47.3 64.1 46.8 65.3
L 46.45 65.75
Q 45.95 66.15 45.1 65.8
L 13.15 52.45
Q 10.3 51.3 8 51.8 5.4 52.35 4.3 54.85 3.2 57.35 4.15 59.85 5.2 62.45 8.05 63.55
L 41.7 77.85 42.2 78.3
Q 42.65 78.85 42.35 79.55 42 80.35 41.2 80.35
L 40.5 80.2
Q 35.05 77.9 29.45 75.5 18.25 70.8 17.45 70.6 12.25 69.45 10.45 74.2 8.45 79.35 14.65 82.5 49.75 97.45 51.65 98.2
L 60.35 101.2
Q 70.05 104.35 75.15 105.05 79.75 105.65 82.65 105.4 87.2 105.05 91.05 103.35 95.25 101.55 98.85 98.15 102.05 95.15 104.7 90.6
L 106.8 86.55
Q 107.65 84.95 108.65 82.35 110.2 78.4 111.25 73.9 112.2 69.5 112.25 65.6 112.4 61.9 111.65 58.1 111.05 55.1 109.65 52.1 108.9 50.4 107.1 48 105.85 46.45 105 45.75
L 104.2 45.05 76.35 16.15
Q 75.25 14.9 73.6 15.15 71.95 15.35 71.05 16.85 68.55 21.1 69 25.4 69.4 29.6 72.6 33.25
L 82.5 43.65
Q 83.4 44.5 82.85 45.75 Z"/>
</g>

<g id="Layer0_2_FILL">
<path fill="#DBA689" stroke="none" d="
M 98.25 46.85
Q 99.15 44 101.8 40.8 103.05 39.3 103.7 38.75 89.6 43.85 97.95 62.8 98.6 64.3 99.65 66.25 100.25 67.5 99.75 67.75 98.85 68.3 97.3 67.1 95.75 65.6 95.3 65.2 80.6 50.2 71.1 40 61.95 30.15 57.8 27.95 52.9 25.35 48.6 29.25 45.45 32.1 46.8 36.2 37.95 27.1 31.65 33.15 29.25 35.35 29.2 38.55 29.15 41.95 31.75 45.05 30.9 44.9 29.4 45 26.35 45.2 24.05 47.45 20.9 50.5 22.7 55.4 23.95 58.8 26.65 61.7
L 29.15 64.35
Q 27.1 64.25 25.85 64.65 24.5 65.15 23 66.6 19.4 70.05 20.7 75.25 21.8 79.65 25.6 83.1 33.15 90 50.05 106.1 65.55 119.75 78.1 125.15 79.1 125.55 76.6 123.55 74.45 121.8 72.65 120.55 63.2 113.85 57.7 109.05 56.1 107.6 44.65 96.75 26.5 79.4 24.7 76.95 21.55 72.8 25.15 69.35 28.65 65.9 32 68.6 33 69.35 43.05 78.25 52.75 86.7 53.05 86.3
L 54 85.55
Q 54.55 85.05 54.2 84.75 47.9 79.25 45.05 76.25
L 28.05 58.8
Q 25.4 56.1 25.25 53.45 25.05 51.1 26.75 49.5 28.3 47.95 30.6 47.95 33.1 48 35 49.9 61.9 75.45 62.55 74.9 62.95 74.65 63.25 74.25 63.8 73.5 63.15 72.9
L 35.75 46
Q 30.25 40.6 33.4 36.25 34.6 34.6 36.55 34.15 38.55 33.65 39.9 34.8 46.75 40.55 59.35 53.25 64.4 58.35 72.15 65.15 73.1 66.05 73.45 64.7 73.75 63.3 72.45 61.95 55.95 45.95 55.95 45.9 52.75 42.7 51.25 41 50.4 40 50.1 39.3 47.9 34.75 51.35 31.45 54.9 28.1 59.05 32.45 62.75 36.3 76.35 49.8 80.15 53.6 87.5 61.4 93.95 67.95 94.35 68.3 99.35 72.6 101.65 70.9 103.4 69.65 102.95 67.9 102 65.75 101.4 64.45 99.25 59.35 98.35 55.05 97.3 49.95 98.25 46.85 Z"/>
</g>

<path id="Layer0_3_1_STROKES" stroke="#444444" stroke-width="2" stroke-linejoin="miter" stroke-linecap="round" stroke-miterlimit="10" fill="none" d="
M 56.953125 1.7718749999999999
L 53.353125 13.078125"/>

<path id="Layer0_4_1_STROKES" stroke="#444444" stroke-width="2" stroke-linejoin="miter" stroke-linecap="round" stroke-miterlimit="10" fill="none" d="
M 23.878125 12.796875
L 17.859375 5.625"/>

<path id="Layer0_5_1_STROKES" stroke="#444444" stroke-width="2" stroke-linejoin="miter" stroke-linecap="round" stroke-miterlimit="10" fill="none" d="
M 29.671875 1.7718749999999999
L 28.349999999999998 12.206249999999999"/>

<path id="Layer0_6_1_STROKES" stroke="#444444" stroke-width="2" stroke-linejoin="miter" stroke-linecap="round" stroke-miterlimit="10" fill="none" d="
M 63.365625 12.0375
L 56.418749999999996 17.60625"/>
</defs>

<g id="Layer_1">
<g transform="matrix( 0.5625, 0, 0, 0.5625, 0,0) ">
<use xlink:href="#Layer0_0_FILL"/>
</g>

<g transform="matrix( 0.5625, 0, 0, 0.5625, 0,0) ">
<use xlink:href="#Layer0_1_FILL"/>
</g>

<g transform="matrix( 0.5625, 0, 0, 0.5625, 0,0) ">
<use xlink:href="#Layer0_2_FILL"/>
</g>

<g transform="matrix( 0.5625, 0, 0, 0.5625, 0,0) ">
<use xlink:href="#Layer0_3_1_STROKES" transform="matrix( 1.77777099609375, 0, 0, 1.77777099609375, 0,0) "/>
</g>

<g transform="matrix( 0.5625, 0, 0, 0.5625, 0,0) ">
<use xlink:href="#Layer0_4_1_STROKES" transform="matrix( 1.77777099609375, 0, 0, 1.77777099609375, 0,0) "/>
</g>

<g transform="matrix( 0.5625, 0, 0, 0.5625, 0,0) ">
<use xlink:href="#Layer0_5_1_STROKES" transform="matrix( 1.77777099609375, 0, 0, 1.77777099609375, 0,0) "/>
</g>

<g transform="matrix( 0.5625, 0, 0, 0.5625, 0,0) ">
<use xlink:href="#Layer0_6_1_STROKES" transform="matrix( 1.77777099609375, 0, 0, 1.77777099609375, 0,0) "/>
</g>
</g>
</svg>
