
<svg xmlns="http://www.w3.org/2000/svg" version="1.1" xmlns:xlink="http://www.w3.org/1999/xlink" preserveAspectRatio="none" x="0px" y="0px" width="72px" height="72px" viewBox="0 0 72 72">
<defs>
<g id="Layer0_0_MEMBER_0_FILL">
<path fill="#CC9970" stroke="none" d="
M 59.05 27.35
Q 59.85 16.75 52.7 9.7 46 3.1 35.3 2.35 25.15 1.6 18.9 8.4 12.7 15.05 12.85 26.2 12.9 29.8 14.25 32.55 15.15 34.5 17.2 36.85 19.8 39.8 20.5 40.9 22.2 43.45 22.85 46.5 23 47.35 22.2 51.5 21.2 56.8 21 59.3 19.95 69.65 25.85 69.75 42.1 70 46.5 61.75 47.75 59.45 48.75 54.5 49.8 49.65 50.8 47.8 55.7 39.2 56.05 38.4 58.65 32.9 59.05 27.35 Z"/>
</g>

<g id="Layer0_0_MEMBER_1_FILL">
<path fill="#99674F" stroke="none" d="
M 96.9 47.35
Q 97.9 33.2 88.4 23.85 79.45 15 65.2 14 56.9 13.4 49.2 18.25 41.9 22.85 37.1 30.95 36.65 31.75 37.4 32.25 38.15 32.8 38.75 32.1 43.95 26.1 50.75 22.9 57.75 19.6 64.6 20.1 77.65 21.05 84.65 27.85 92.2 35.15 91.25 48.1 90.75 54.8 87.3 61.75 85.3 65.8 80.6 73.4 79.25 75.75 78.5 85.25 77.65 95.75 75.7 101.1 75.4 101.95 76.25 102.35 77.05 102.75 77.5 101.95 80.55 96.8 82.55 86.95 84.55 77 85.9 74.6 92.35 63.25 92.9 62.1 96.35 54.8 96.9 47.35 Z"/>
</g>

<g id="Layer0_0_MEMBER_2_FILL">
<path fill="#99674F" stroke="none" d="
M 27.95 30.45
Q 23.9 28.9 22.35 33 21.05 36.3 24 38.3 24.8 38.8 26.4 39.65 27.65 40.35 27.85 41 28.45 42.7 27.8 48.45 27.75 48.9 28.1 49.05 28.5 49.2 28.75 48.9 30.95 46.3 32.1 43.7 33.9 39.9 33.1 36.8 31.85 32 27.95 30.45 Z"/>
</g>

<g id="Layer0_0_MEMBER_3_FILL">
<path fill="#99674F" stroke="none" d="
M 52.75 39.6
Q 52.45 40.5 53.25 40.85 60.75 44.05 65.25 48.85 71.1 55.1 71.1 63.5 71.1 64.45 72 64.5 72.9 64.55 73.1 63.65 74.65 55.25 71.1 49.35 66.55 41.8 53.9 38.95 53.05 38.75 52.75 39.6 Z"/>
</g>
</defs>

<g id="Layer_1">
<g transform="matrix( 1, 0, 0, 1, 0,0) ">
<use xlink:href="#Layer0_0_MEMBER_0_FILL"/>
</g>

<g transform="matrix( 0.5624847412109375, 0, 0, 0.5624847412109375, 0,0) ">
<use xlink:href="#Layer0_0_MEMBER_1_FILL"/>
</g>

<g transform="matrix( 1, 0, 0, 1, 0,0) ">
<use xlink:href="#Layer0_0_MEMBER_2_FILL"/>
</g>

<g transform="matrix( 0.5624847412109375, 0, 0, 0.5624847412109375, 0,0) ">
<use xlink:href="#Layer0_0_MEMBER_3_FILL"/>
</g>
</g>
</svg>
