
<svg xmlns="http://www.w3.org/2000/svg" version="1.1" xmlns:xlink="http://www.w3.org/1999/xlink" preserveAspectRatio="none" x="0px" y="0px" width="72px" height="72px" viewBox="0 0 72 72">
<defs>
<g id="Layer0_0_MEMBER_0_MEMBER_0_FILL">
<path fill="#8E726A" stroke="none" d="
M 59.15 47.4
Q 58.25 46.85 57.2 47.2 54.15 48.25 52.55 50.55 50.95 52.8 51 55.95
L 51.45 65.25
Q 51.55 66.05 50.75 66.4 49.95 66.8 49.5 66.15 48.3 64.35 46.2 60.75
L 44.35 57.45
Q 43.4 55.75 38.1 45.1 32.85 34.6 32.6 34.2 31.55 32.4 30.2 31.55 28.7 30.6 27.2 31.15 25.5 31.75 24.85 33.05 24.2 34.5 24.95 36.45
L 33 56.45 21.05 32.75
Q 20.2 30.95 18.45 30.15 16.7 29.35 15.15 30.15 13.6 30.9 13.15 32.55 12.7 34.2 13.55 36.05 13.9 36.85 25.05 59.55 25.5 60.45 24.8 60.8 14.1 41.2 13.65 40.25 12.7 38.5 11.4 37.8 9.9 36.95 8.25 37.7 6.65 38.5 6.1 40.15 5.5 41.85 6.45 43.6
L 17 64.85
Q 17.3 65.6 16.55 65.95
L 8.1 51
Q 5.95 48.25 3.1 49.85 0 51.65 1.65 55.7 2 56.5 10.8 73.85
L 15.05 81.6
Q 19.7 89.85 21.95 92.35 24 94.65 25.5 95.7 27.75 97.4 30.5 98.25 33.2 99.1 36.55 98.95 39.55 98.8 42.55 97.7
L 45.3 96.6
Q 47.05 95.9 48 95.3 50.5 94 52.85 92.25 55.25 90.4 56.85 88.6 58.7 86.6 59.7 84.65 60.75 82.8 61.25 80.85 61.65 79.55 61.75 77.75 61.75 76.25 61.65 75.8
L 61.55 75.1 60.1 49.1
Q 60.05 48 59.15 47.4 Z"/>
</g>

<g id="Layer0_0_MEMBER_0_MEMBER_1_FILL">
<path fill="#563E37" stroke="none" d="
M 21.5 45.6
Q 22 45.6 21.9 44.7 21.3 40.4 23.6 37.25 24.8 35.65 26.35 34.75
L 25.8 33.8
Q 22.05 36.15 21.1 40.45 20.6 42.65 20.85 44.3 20.95 45.2 21.25 45.5 21.35 45.6 21.5 45.6 Z"/>
</g>

<g id="Layer0_0_MEMBER_1_MEMBER_0_FILL">
<path fill="#8E726A" stroke="none" d="
M 97.45 31.3
Q 96.1 32.15 95.05 33.95 85 54.2 83.3 57.2 80.05 63.1 78.15 65.9 77.7 66.55 76.9 66.2 76.1 65.8 76.2 65
L 76.65 55.7
Q 76.7 52.55 75.15 50.3 73.5 48 70.45 46.95 69.4 46.6 68.5 47.2 67.6 47.8 67.55 48.85
L 66.1 74.85 66 75.55
Q 65.9 76 65.9 77.55 66 79.5 66.35 80.6 66.95 82.65 67.95 84.45 69 86.4 70.8 88.35 72.4 90.15 74.8 92 77.25 93.8 79.65 95.1 81.2 95.95 82.3 96.35
L 85.05 97.5
Q 88.15 98.55 91.1 98.75 94.3 98.9 97.15 98 99.9 97.15 102.15 95.45 103.65 94.4 105.7 92.1 109.3 88.1 116.85 73.6 117.35 72.7 121.55 64.4 125.75 56.1 126 55.45 127.65 51.4 124.55 49.6 121.6 48 119.55 50.8
L 111.1 65.7
Q 110.65 65.5 110.6 65
L 110.65 64.6 121.2 43.4
Q 122.15 41.65 121.55 39.95 121 38.3 119.35 37.5 117.75 36.75 116.25 37.6 114.95 38.3 114 40.05 113.5 41 102.85 60.6 102.1 60.2 102.6 59.3 105.75 52.75 114.1 35.85 114.95 34 114.5 32.35 114.05 30.7 112.5 29.9 110.95 29.15 109.2 29.95 107.45 30.75 106.6 32.55
L 94.7 56.25 102.7 36.25
Q 103.45 34.25 102.8 32.85 102.15 31.5 100.45 30.9 98.95 30.35 97.45 31.3 Z"/>
</g>

<g id="Layer0_0_MEMBER_1_MEMBER_1_FILL">
<path fill="#563E37" stroke="none" d="
M 46 33.65
L 45.45 34.65
Q 47 35.5 48.2 37.15 50.5 40.25 49.9 44.6
L 49.9 45.05
Q 50 45.5 50.3 45.45
L 50.6 45.35
Q 50.9 45.05 50.95 44.2 51.2 42.5 50.7 40.35 49.75 36.05 46 33.65 Z"/>
</g>
</defs>

<g id="Layer_1">
<g transform="matrix( 0.562469482421875, 0, 0, 0.562469482421875, 0,0) ">
<use xlink:href="#Layer0_0_MEMBER_0_MEMBER_0_FILL"/>
</g>

<g transform="matrix( 1, 0, 0, 1, 0,0) ">
<use xlink:href="#Layer0_0_MEMBER_0_MEMBER_1_FILL"/>
</g>

<g transform="matrix( 0.562469482421875, 0, 0, 0.562469482421875, 0,0) ">
<use xlink:href="#Layer0_0_MEMBER_1_MEMBER_0_FILL"/>
</g>

<g transform="matrix( 1, 0, 0, 1, 0,0) ">
<use xlink:href="#Layer0_0_MEMBER_1_MEMBER_1_FILL"/>
</g>
</g>
</svg>
