
<svg xmlns="http://www.w3.org/2000/svg" version="1.1" xmlns:xlink="http://www.w3.org/1999/xlink" preserveAspectRatio="none" x="0px" y="0px" width="72px" height="72px" viewBox="0 0 72 72">
<defs>
<radialGradient id="Gradient_1" gradientUnits="userSpaceOnUse" cx="0" cy="0" r="22.087500000000006" fx="0" fy="0" gradientTransform="matrix( 0.9999999999999999, 0, 0, 0.898132427843803, 36.25,47.85) " spreadMethod="pad">
<stop  offset="0%" stop-color="#FFFFFF"/>

<stop  offset="100%" stop-color="#FFFFFF" stop-opacity="0"/>
</radialGradient>

<g id="Layer0_0_MEMBER_0_MEMBER_0_MEMBER_0_FILL">
<path fill="#00ACC1" stroke="none" d="
M 8.85 69.75
L 8.85 72 63.35 72 63.35 69.75
Q 63.35 62.3 58 57.2 53.05 52.6 45.05 51.2 35.95 49.65 26.6 51.9 18.85 53.7 14.15 58 8.85 62.85 8.85 69.75 Z"/>
</g>

<g id="Layer0_0_MEMBER_0_MEMBER_1_FILL">
<path fill="#00ACC1" stroke="none" d="
M 14.2 57.2
Q 8.85 62.25 8.85 69.75
L 8.85 72 63.35 72 63.35 69.75
Q 63.35 62.85 58.05 58 53.35 53.7 45.55 51.9 36.2 49.65 27.15 51.2 19.1 52.6 14.2 57.2 Z"/>
</g>

<g id="Layer0_0_MEMBER_0_MEMBER_2_FILL">
<path fill="#C48E6A" stroke="none" d="
M 64 74.15
Q 66.9 74.15 68.95 72.1 71 70.05 71 67.15
L 71 60.75 57 60.75 57 67.15
Q 57 70.05 59.05 72.1 61.1 74.15 64 74.15 Z"/>
</g>

<g id="Layer0_0_MEMBER_1_MEMBER_0_MEMBER_0_FILL">
<path fill="#C48E6A" stroke="none" d="
M 106.9 66.05
L 103.3 66.05 103.3 86.35
Q 108.05 86.35 111.15 83.95 114.75 81.15 114.75 75.9 114.75 70.6 110.85 67.8
L 106.9 66.05 Z"/>
</g>

<g id="Layer0_0_MEMBER_1_MEMBER_0_MEMBER_1_FILL">
<path fill="#C48E6A" stroke="none" d="
M 24.7 66.05
L 21.05 66.05 17.15 67.8
Q 13.2 70.6 13.2 75.9 13.2 81.15 16.8 83.95 19.9 86.35 24.7 86.35
L 24.7 66.05 Z"/>
</g>

<g id="Layer0_0_MEMBER_1_MEMBER_1_FILL">
<path fill="#E0BB95" stroke="none" d="
M 106.75 73.8
Q 106.75 43.35 98.1 28.35 87.85 10.6 64 10.6 40.1 10.6 29.85 28.35 21.2 43.35 21.2 73.8 21.2 99.7 35.8 112.25 47.05 122 64 122 80.8 122 92.1 112.35 106.75 99.8 106.75 73.8 Z"/>
</g>

<g id="Layer0_0_MEMBER_1_MEMBER_2_FILL">
<path fill="#444444" stroke="none" d="
M 40.15 72.35
Q 38.45 74.35 38.45 77.2 38.45 80.1 40.15 82.1 41.8 84.1 44.2 84.1 46.55 84.1 48.25 82.1 49.9 80.05 49.9 77.2 49.9 74.35 48.25 72.35 46.55 70.3 44.2 70.3 41.8 70.3 40.15 72.35 Z"/>
</g>

<g id="Layer0_0_MEMBER_1_MEMBER_3_FILL">
<path fill="#444444" stroke="none" d="
M 87.85 72.35
Q 86.15 70.3 83.8 70.3 81.4 70.3 79.75 72.35 78.05 74.35 78.05 77.2 78.05 80.05 79.75 82.1 81.4 84.1 83.8 84.1 86.15 84.1 87.85 82.1 89.5 80.1 89.5 77.2 89.5 74.35 87.85 72.35 Z"/>
</g>

<g id="Layer0_0_MEMBER_1_MEMBER_4_FILL">
<path fill="#513F35" stroke="none" d="
M 63.95 108.75
Q 68.85 108.75 72.95 106.6 76.15 104.9 77.45 102.9 78.15 101.85 77.8 101.2 77.45 100.55 76.35 100.55
L 51.6 100.55
Q 50.5 100.55 50.15 101.2 49.8 101.85 50.5 102.9 51.8 104.9 55 106.6 59.1 108.75 63.95 108.75 Z"/>
</g>

<g id="Layer0_0_MEMBER_1_MEMBER_5_FILL">
<path fill="#C48E6A" stroke="none" d="
M 58 90
Q 57.35 89.85 57.1 90.3 56.8 90.7 57.05 91.2 57.75 92.35 59.45 93.4 61.65 94.75 64 94.75 66.35 94.75 68.5 93.4 70.2 92.35 70.9 91.2 71.15 90.7 70.9 90.3 70.6 89.85 69.95 90 66.8 90.9 64 90.9 61.15 90.9 58 90 Z"/>
</g>

<g id="Layer0_0_MEMBER_1_MEMBER_6_FILL">
<path fill="#BFA055" stroke="none" d="
M 63.35 24.5
Q 63.35 24.1 63.35 23.7 62.95 17.45 57.7 12.85 50.5 6.55 36.55 6.35
L 35.5 6.35
Q 21.55 6.55 14.4 12.85 9.1 17.45 8.75 23.7 8.7 24.1 8.7 24.5
L 8.7 39.05
Q 9.05 38.75 9.65 38.3 10.05 37.95 10.6 37.7
L 11 37.5 12.05 44.45
Q 17.8 35.5 19.4 25.7 23.95 28.7 27.7 29.95 31.45 31.2 35.5 31.15
L 36.55 31.15
Q 43.25 31.1 48.85 30.45
L 52.95 30
Q 53.05 30 53.15 30.1
L 60 44.45 61.05 37.5 61.5 37.7
Q 62 37.95 62.4 38.25 63.05 38.75 63.35 39.05
L 63.35 24.5 Z"/>
</g>

<g id="Layer0_0_MEMBER_2_MEMBER_0_FILL">
<path fill="#E0BB95" stroke="none" d="
M 21.15 119.55
Q 22.05 116.1 21.3 114.1 20.5 112.05 17.35 109.05 16.85 108.35 15.15 108.25
L 14.75 107.7
Q 14.2 106.95 13.9 106.8 12.9 106.3 11.3 107.2 10.2 107.8 10.35 108.6 10.15 108.85 9.8 108.75 8.4 107.2 6.6 108.55 5 109.8 5.45 111.25 5.35 111.8 4.95 111.75 4.3 111.2 3.2 111.95 1.8 113 1.8 114.2 1.8 114.75 2.3 115.95 2.2 116.05 2 116.05 1.55 115.8 0.85 116.2 0.1 116.65 0 117.95 -0.05 119 0.2 119.75 0.45 120.3 1.6 121.9 2.65 123.35 3.25 124.05 3.8 124.6 4.65 124.6 5.5 124.55 6 123.95 6.5 123.45 6.5 123.1 6.55 122.55 5.75 121.85
L 5.65 121.75 5.9 121.65
Q 7.2 123.5 8.75 122.6 9.3 122.3 9.55 121.7 9.85 121.05 9.45 120.2
L 10.25 119.9 10.4 120.15
Q 11.35 121.45 13.45 120.35
L 12.95 120.9 12.1 121.25 11.55 122.1
Q 11.2 123.1 12.05 123.95 12.6 124.5 13.4 124.35 13.8 124.3 15.3 123.65 16.4 123.2 18.6 121.75 21.1 120.15 21.15 119.55 Z"/>
</g>

<g id="Layer0_0_MEMBER_2_MEMBER_1_FILL">
<path fill="#C48E6A" stroke="none" d="
M 10.85 110.4
Q 10.8 110.5 10.85 110.6 13.05 114.05 14.4 116.8 15.05 118 14.7 118.95 14.5 119.45 13.4 120.15 12.05 121 11 120.45
L 10.2 119.75
Q 8.9 118.1 6.7 114.05 6.6 113.9 6.5 113.8 6.3 113.6 6.15 113.85
L 6.6 115.2 7.35 116.7
Q 8.3 118.6 9.5 120.3 9.85 121.05 9.55 121.75 9.35 122.3 8.8 122.6 7.7 123.2 6.8 122.55 5.45 121.3 3.5 117.75 3.4 117.55 3.3 117.4 3.1 117.1 3 117.25
L 2.95 117.5
Q 3 117.9 3.3 118.65
L 3.85 119.75
Q 4.55 121.15 5.6 122.5 6.4 123.6 5.9 124.05 4.95 125 3.75 124.4 5.2 125.35 6.4 124.6 7.05 124.15 7.1 123.65 8.2 124.25 9.7 123.1 10.6 122.4 10.6 121.4 12.05 122.3 13.9 121.1 15.9 119.95 15.9 118.55 16.75 119.05 17.8 118.65 18.95 118.15 19.35 117.05
L 19.55 116.05
Q 19.5 113.3 15.9 108.35
L 15.15 108.25
Q 16.1 109.6 17.95 113.15 18.7 114.55 18.75 115.4 18.85 116.55 17.85 117.3 16.95 118 16.1 117.65
L 15.2 116.45
Q 14 114.3 12.9 112.55
L 12 111.25
Q 11.6 110.6 11.2 110.4 10.9 110.2 10.85 110.4 Z"/>
</g>

<g id="Layer0_0_MEMBER_3_MEMBER_0_FILL">
<path fill="#E0E0E0" stroke="none" d="
M 18.75 116.35
L 18.8 116.8
Q 18.8 119.9 17.5 122.05 16.2 124.25 14.35 124.25 12.5 124.25 11.2 122.05 9.9 119.9 9.9 116.8
L 9.95 116.35
Q 8.1 117.7 7 119.9 5.9 122.2 5.9 124.85
L 5.9 125.5
Q 5.9 126.55 6.55 127.3 7.15 128 8.05 128
L 20.65 128
Q 21.55 128 22.2 127.3 22.8 126.55 22.8 125.5
L 22.8 124.85
Q 22.8 122.2 21.7 119.9 20.6 117.7 18.75 116.35 Z"/>
</g>

<g id="Layer0_0_MEMBER_3_MEMBER_1_FILL">
<path fill="#BDBDBD" stroke="none" d="
M 8.75 122.05
Q 8.7 124.25 14.35 124.25 20 124.25 19.95 122.05 18.8 118.85 18.8 116.8
L 18.75 116.35
Q 16.8 114.85 14.35 114.85 11.95 114.85 9.95 116.35
L 9.9 116.8
Q 9.9 118.85 8.75 122.05 Z"/>
</g>

<g id="Layer0_0_MEMBER_4_MEMBER_0_FILL">
<path fill="#E0BB95" stroke="none" d="
M 11.35 107.2
Q 10.2 107.8 10.4 108.6 10.15 108.85 9.8 108.75 8.4 107.1 6.6 108.55 5 109.8 5.45 111.25 5.4 111.8 5 111.75 4.35 111.15 3.2 111.95 1.8 113 1.8 114.2 1.8 114.7 2.3 115.9 2.25 116.05 2.05 116.05 1.6 115.8 0.9 116.15 0.15 116.6 0.05 117.95 -0.05 119 0.25 119.75 0.5 120.25 1.65 121.9 2.65 123.35 3.25 124.05 3.65 124.35 3.85 124.4
L 4.15 124.55 4.3 124.55 4.6 124.6 4.8 124.55 4.95 124.55 5.15 124.5 5.9 124.1 5.95 124
Q 6.4 123.55 5.65 122.5 4.6 121.15 3.85 119.75
L 3.3 118.6
Q 3 117.9 3 117.5
L 3 117.25
Q 3.1 117.1 3.3 117.4 3.4 117.55 3.5 117.75 5.35 121.1 6.8 122.55
L 6.85 122.6 7.15 122.75 7.3 122.8 7.6 122.85 7.75 122.9 8.1 122.85 8.25 122.85 8.8 122.6 9.15 122.35 9.25 122.25 9.35 122.1 9.45 122 9.55 121.8 9.6 121.75 9.65 121.5 9.65 121.4 9.7 121.15 9.7 121.05 9.65 120.8 9.65 120.65 9.5 120.25
Q 8.3 118.55 7.35 116.7
L 6.6 115.2 6.15 113.85
Q 6.3 113.6 6.5 113.8 6.65 113.9 6.7 114.05 8.9 118.1 10.2 119.75
L 11 120.45
Q 12.1 121 13.45 120.15 14.55 119.45 14.7 118.95 15.15 118.05 14.4 116.8 13.05 114.05 10.85 110.6 10.8 110.45 10.85 110.35 10.9 110.2 11.2 110.4 11.55 110.6 12 111.25
L 12.9 112.55
Q 14 114.3 15.2 116.45
L 15.5 116.9
Q 15.85 117.4 16.15 117.65 16.95 118 17.9 117.3 18.85 116.55 18.8 115.4 18.7 114.55 18 113.15 16.3 109.95 15.2 108.25
L 14.8 107.65
Q 14.15 106.9 13.9 106.75 12.95 106.3 11.35 107.2 Z"/>
</g>

<g id="Layer0_0_MEMBER_4_MEMBER_1_FILL">
<path fill="#C48E6A" stroke="none" d="
M 9.55 120.35
L 9.65 120.65 9.65 120.75 9.7 121.05 9.7 121.15 9.65 121.4 9.65 121.45 9.6 121.7 9.45 122 9.35 122.05 9.25 122.25 9.15 122.35 8.8 122.6 8.1 122.85 7.6 122.85 7.3 122.8 7.15 122.75 6.85 122.55 6.8 122.55
Q 6.35 122.25 5.9 121.6
L 5.65 121.7 5.8 121.8
Q 6.55 122.5 6.55 123.05 6.5 123.4 6.05 123.95
L 5.95 124 5.95 124.05 5.9 124.1
Q 5.5 124.4 5.25 124.45
L 5.15 124.5 4.95 124.55 4.8 124.55 4.6 124.6 4.3 124.55 4.15 124.55 3.95 124.5 3.75 124.4
Q 5.25 125.35 6.4 124.6 7.05 124.15 7.1 123.65 8.25 124.25 9.75 123.1 10.7 122.35 10.6 121.4 11.1 121.7 11.75 121.7
L 12.1 121.25 13 120.9 13.5 120.35
Q 12.7 120.75 11.9 120.8 10.95 120.85 10.45 120.15
L 10.25 119.9 9.5 120.2 9.5 120.25 9.55 120.35 Z"/>
</g>

<g id="Layer0_0_MEMBER_4_MEMBER_2_FILL">
<path fill="#C48E6A" stroke="none" d="
M 3.3 117.4
Q 3.1 117.1 3 117.25
L 3 117.5
Q 3 117.9 3.3 118.6
L 3.85 119.7
Q 4.6 121.1 5.65 122.5 6.3578125 123.4908203125 6 123.95 6.5 123.4 6.5 123.05 6.55 122.5 5.75 121.8
L 5.65 121.7 5.9 121.65
Q 6.45 122.3 6.8 122.55 5.35 121.1 3.5 117.75 3.4 117.55 3.3 117.4 Z"/>
</g>

<g id="Layer0_0_MEMBER_4_MEMBER_3_FILL">
<path fill="#C48E6A" stroke="none" d="
M 10.85 110.4
Q 10.8 110.5 10.85 110.6 13.05 114.05 14.4 116.8 15.05 118 14.7 119 14.5 119.5 13.4 120.2 12.05 121 10.95 120.45
L 10.15 119.75
Q 8.85 118.1 6.7 114.05 6.6 113.9 6.5 113.8 6.3 113.65 6.15 113.85
L 7.3 116.7
Q 8.283984375 118.5205078125 9.45 120.2
L 10.25 119.9 10.4 120.15
Q 10.9 120.85 11.9 120.85 12.7 120.8 13.45 120.35
L 12.95 120.9 12.1 121.25 11.75 121.75
Q 12.9 121.75 13.95 121.05 15.9 120 15.9 118.5 16.75 119.05 17.8 118.65 18.95 118.1 19.4 117
L 19.6 116
Q 19.5 113.3 15.9 108.35
L 15.8 108.35 15.15 108.25
Q 16.25 109.95 17.95 113.15 18.7 114.55 18.75 115.4 18.85 116.55 17.85 117.3 16.95 118 16.1 117.65 15.8 117.4 15.45 116.9
L 15.2 116.45
Q 14 114.3 12.9 112.55
L 12 111.25
Q 11.6 110.65 11.2 110.4 10.9 110.2 10.85 110.4 Z"/>
</g>

<g id="Layer0_0_MEMBER_5_FILL">
<path fill="url(#Gradient_1)" stroke="none" d="
M 60.6 47.4
Q 60.6 38.25 53.45 31.8 46.3 25.3 36.25 25.3 26.1 25.3 18.95 31.8 11.8 38.25 11.8 47.4 11.8 56.6 18.95 63.05 26.1 69.55 36.25 69.55 46.3 69.55 53.45 63.05 60.6 56.6 60.6 47.4 Z"/>
</g>

<g id="Layer0_0_MEMBER_6_FILL">
<path fill="#4DD0E1" stroke="none" d="
M 69.05 49.15
Q 68 48.1 66.5 48.1
L 20.5 48.1
Q 19 48.1 17.9 49.15 16.85 50.25 16.85 51.75
L 16.85 71.85 37.5 71.85
Q 37.8150390625 69.348046875 37.95 66 38 64.45 39.1 63.45 40.2 62.35 41.75 62.35
L 46.75 62.35
Q 48.3 62.35 49.4 63.45 50.5 64.45 50.55 66 50.6849609375 69.348046875 50.95 71.85
L 70.15 71.85 70.15 51.75
Q 70.15 50.25 69.05 49.15 Z"/>

<path fill="#00ACC1" stroke="none" d="
M 37.95 66
Q 37.8150390625 69.348046875 37.5 71.85
L 50.95 71.85
Q 50.6849609375 69.348046875 50.55 66 50.5 64.45 49.4 63.45 48.3 62.35 46.75 62.35
L 41.75 62.35
Q 40.2 62.35 39.1 63.45 38 64.45 37.95 66 Z"/>
</g>
</defs>

<g id="Layer_1">
<g transform="matrix( 1, 0, 0, 1, 0,0) ">
<use xlink:href="#Layer0_0_MEMBER_0_MEMBER_0_MEMBER_0_FILL"/>
</g>

<g transform="matrix( 1, 0, 0, 1, 0,0) ">
<use xlink:href="#Layer0_0_MEMBER_0_MEMBER_1_FILL"/>
</g>

<g transform="matrix( 0.8515625, 0, 0, 0.8515625, -18.4,-5.55) ">
<use xlink:href="#Layer0_0_MEMBER_0_MEMBER_2_FILL"/>
</g>

<g transform="matrix( 0.415283203125, 0, 0, 0.415283203125, 9.45,-1.5) ">
<use xlink:href="#Layer0_0_MEMBER_1_MEMBER_0_MEMBER_0_FILL"/>
</g>

<g transform="matrix( 0.415283203125, 0, 0, 0.415283203125, 9.45,-1.5) ">
<use xlink:href="#Layer0_0_MEMBER_1_MEMBER_0_MEMBER_1_FILL"/>
</g>

<g transform="matrix( 0.41534423828125, 0, 0, 0.4153594970703125, 9.45,-1.15) ">
<use xlink:href="#Layer0_0_MEMBER_1_MEMBER_1_FILL"/>
</g>

<g transform="matrix( 0.41534423828125, 0, 0, 0.4153594970703125, 9.45,-1.15) ">
<use xlink:href="#Layer0_0_MEMBER_1_MEMBER_2_FILL"/>
</g>

<g transform="matrix( 0.41534423828125, 0, 0, 0.4153594970703125, 9.45,-1.15) ">
<use xlink:href="#Layer0_0_MEMBER_1_MEMBER_3_FILL"/>
</g>

<g transform="matrix( 0.41534423828125, 0, 0, 0.4153594970703125, 9.45,-1.15) ">
<use xlink:href="#Layer0_0_MEMBER_1_MEMBER_4_FILL"/>
</g>

<g transform="matrix( 0.41534423828125, 0, 0, 0.4153594970703125, 9.45,-1.15) ">
<use xlink:href="#Layer0_0_MEMBER_1_MEMBER_5_FILL"/>
</g>

<g transform="matrix( 0.7384033203125, 0, 0, 0.738433837890625, 9.45,-1.45) ">
<use xlink:href="#Layer0_0_MEMBER_1_MEMBER_6_FILL"/>
</g>

<g transform="matrix( 0.562469482421875, 0, 0, 0.562469482421875, 4.5,-0.05) ">
<use xlink:href="#Layer0_0_MEMBER_2_MEMBER_0_FILL"/>
</g>

<g transform="matrix( 0.562469482421875, 0, 0, 0.562469482421875, 4.5,-0.05) ">
<use xlink:href="#Layer0_0_MEMBER_2_MEMBER_1_FILL"/>
</g>

<g transform="matrix( 0.562469482421875, 0, 0, 0.562469482421875, 4.5,-0.05) ">
<use xlink:href="#Layer0_0_MEMBER_3_MEMBER_0_FILL"/>
</g>

<g transform="matrix( 0.562469482421875, 0, 0, 0.562469482421875, 4.5,-0.05) ">
<use xlink:href="#Layer0_0_MEMBER_3_MEMBER_1_FILL"/>
</g>

<g transform="matrix( 0.5625, 0, 0, 0.5625, 4.5,-0.05) ">
<use xlink:href="#Layer0_0_MEMBER_4_MEMBER_0_FILL"/>
</g>

<g transform="matrix( 0.5625, 0, 0, 0.5625, 4.5,-0.05) ">
<use xlink:href="#Layer0_0_MEMBER_4_MEMBER_1_FILL"/>
</g>

<g transform="matrix( 0.5625, 0, 0, 0.5625, 4.5,-0.05) ">
<use xlink:href="#Layer0_0_MEMBER_4_MEMBER_2_FILL"/>
</g>

<g transform="matrix( 0.5625, 0, 0, 0.5625, 4.5,-0.05) ">
<use xlink:href="#Layer0_0_MEMBER_4_MEMBER_3_FILL"/>
</g>

<g transform="matrix( 0.848358154296875, 0, 0, 0.848358154296875, 12.75,12.75) ">
<use xlink:href="#Layer0_0_MEMBER_5_FILL"/>
</g>

<g transform="matrix( 1, 0, 0, 1, 0,0.15) ">
<use xlink:href="#Layer0_0_MEMBER_6_FILL"/>
</g>
</g>
</svg>
