<svg xmlns="http://www.w3.org/2000/svg" xmlns:xlink="http://www.w3.org/1999/xlink" preserveAspectRatio="none" viewBox="0 0 72 72"><defs><path id="a" fill="#BFA055" d="M110.9 36.8q.3-6.85.3-12.1H72.65q0 5.8.35 12.95.75 14.3 2.6 21 1.3 4.6 2.75 5.95 1.9 1.7 5-.6l17.1-.15q3.15 2.4 5.55.65 2.2-1.6 2.95-6 1.4-8.05 1.95-21.7z"/><path id="b" fill="#BFA055" d="M91.9 42q8 0 13.65-5.05 5.65-5.1 5.65-12.25 0-7.2-5.65-12.25-5.65-5.1-13.65-5.1t-13.6 5.1q-5.65 5.05-5.65 12.25 0 7.15 5.65 12.25Q83.9 42 91.9 42z"/><path id="c" fill="#E0BB95" d="M112.7 61.65l-9.4-2.35.3 4.1L119.35 87q.85 1.2 2.3 1.45 1.45.2 2.55-.7 1-.8 1.15-2.05.2-1.3-.5-2.35l-6.55-10q-3-4.75-4.95-9.95l-.65-1.75z"/><path id="d" fill="#E0BB95" d="M80.65 59.1l-9.4 2.35-.65 1.75q-1.95 5.2-4.95 9.95l-6.55 10q-.7 1.05-.5 2.3.15 1.25 1.15 2.1 1.15.9 2.6.7Q63.8 88 64.6 86.8l15.75-23.6.3-4.1z"/><path id="e" fill="#7E57C2" d="M91.9 70.3V49.85q-6.35 0-10.25 1-5 1.35-7.5 4.15-1.85 2.1-3.75 7.1l21.5 8.2z"/><path id="f" fill="#7E57C2" d="M88.65 55.7v15.75h5.3V55.7h-5.3z"/><path id="g" fill="#7E57C2" d="M90.8 79.4V62H78.55v17.4H90.8z"/><path id="h" fill="#7E57C2" d="M91.9 96.95v-19.5H78.6l-8.2 19.5h21.5z"/><path id="i" fill="#E0BB95" d="M54 71.8h5.2V54.55H54V71.8z"/><path id="j" fill="#E0BB95" d="M49.4 71.8V54.55h-5.2V71.8h5.2z"/><path id="k" fill="#444" d="M78.2 122.7q-1.15 1.15-1.15 2.8v2.5h12v-2.5q0-1.65-1.15-2.8-1.2-1.2-2.85-1.2h-4q-1.7 0-2.85 1.2z"/><path id="l" fill="#7E57C2" d="M91.9 49.85V70.3l21.5-8.2q-1.85-5-3.7-7.1-2.5-2.8-7.55-4.15-3.9-1-10.25-1z"/><path id="m" fill="#7E57C2" d="M105.2 79.4V62H91.9v17.4h13.3z"/><path id="n" fill="#7E57C2" d="M105.2 77.45H91.9v19.5h21.5l-8.2-19.5z"/><path id="o" fill="#444" d="M94.75 125.5v2.5h12v-2.5q0-1.65-1.15-2.8-1.15-1.2-2.85-1.2h-4q-1.65 0-2.8 1.2-1.2 1.15-1.2 2.8z"/><path id="p" fill="#C48E6A" d="M97 46.75H86.8v5.15q0 2.2 1.45 3.55 1.4 1.35 3.65 1.35t3.65-1.35Q97 54.05 97 51.9v-5.15z"/><path id="q" fill="#C48E6A" d="M54.55 29.15h.05V26.3q0-.6-.35-1.05-.4-.45-.9-.45h-3.3q-.5 0-.9.5-.3.45-.3 1.05v2.85l.75.2q1 .2 2.1.2 1.75 0 2.85-.45z"/><path id="r" fill="#7E57C2" d="M89.85 76.45v20.5h4.1v-20.5h-4.1z"/><path id="s" fill="#6443A8" d="M91.9 77.5v-6.05H78.6v6.05h13.3z"/><path id="t" fill="#6443A8" d="M105.2 77.5v-6.05H91.9v6.05h13.3z"/><path id="u" fill="#6443A8" d="M89.85 71.45v6.05h4.1v-6.05h-4.1z"/><path id="v" fill="#E0BB95" d="M103.8 17.75q-3.55-6.2-11.9-6.2-8.35 0-11.9 6.2Q76.95 23 76.95 33.6q0 8.7 5.3 13.3 4.15 3.55 9.65 3.55 5.45 0 9.65-3.6 5.3-4.55 5.3-13.25 0-10.6-3.05-15.85z"/><path id="w" fill="#BFA055" d="M96.4 21.65q.3-.3.5.1 2.3 4.7 6.85 7.95 2.3 1.65 4.15 2.35v-14.2q-1.15-2.35-3.7-4.7Q99.05 8.4 92.05 8.4q-6.95 0-12.1 4.6-1.6 1.45-2.8 3.15l-.9 1.45v14.45q6.85-1.15 13.55-5.3 3.85-2.4 6.6-5.1z"/><path id="x" fill="#444" d="M86.9 34.5q0-1.05-.6-1.75-.6-.75-1.45-.75t-1.45.75q-.6.7-.6 1.75 0 1 .6 1.75.6.7 1.45.7t1.45-.7q.6-.75.6-1.75z"/><path id="y" fill="#444" d="M97.5 32.75q-.6.7-.6 1.75 0 1 .6 1.75.6.7 1.45.7t1.45-.7q.6-.75.6-1.75 0-1.05-.6-1.75-.6-.75-1.45-.75t-1.45.75z"/><path id="z" fill="#4C3734" d="M87.1 43.65q.45.7 1.6 1.3 1.45.8 3.2.8 1.75 0 3.2-.75 1.15-.65 1.6-1.35.25-.35.1-.6-.1-.25-.5-.25h-8.8q-.4 0-.5.25-.15.25.1.6z"/><path id="A" fill="#C48E6A" d="M89.4 39.75q.25.4.85.8.8.45 1.65.45.85 0 1.6-.45.65-.4.85-.8.1-.15 0-.3t-.3-.1q-1.1.3-2.15.3-1 0-2.15-.3-.2-.05-.3.1-.15.15-.05.3z"/><path id="B" fill="#8E726A" d="M24.4 63.2l.3-4.1-9.8 2.15-.65 1.75q-2 5.35-4.95 9.95l-6.45 10q-.7 1.05-.5 2.4.2 1.4 1.15 2.2 1.2.9 2.75.7 1.6-.2 2.4-1.45L24.4 63.2z"/><path id="C" fill="#00ACC1" d="M35.95 71V49.85q-6.65 0-10.6 1.05-5.25 1.4-7.8 4.3-1.95 2.15-3.85 7.35L35.95 71z"/><path id="D" fill="#8E726A" d="M57 61.25l-9.8-2.15.3 4.1 15.75 23.6q.8 1.25 2.45 1.45 1.55.2 2.7-.7 1-.8 1.15-2.2.2-1.35-.5-2.4l-6.45-10q-2.95-4.6-4.95-9.95L57 61.25z"/><path id="E" fill="#00ACC1" d="M35.95 49.85V71l22.25-8.45q-1.9-5.2-3.85-7.35-2.55-2.9-7.8-4.3-3.9-1.05-10.6-1.05z"/><path id="F" fill="#616161" d="M32.85 81.95H22.1v45.7h10.75v-45.7z"/><path id="G" fill="#444" d="M34.25 128v-3.5q0-1.65-1.15-2.8-1.2-1.2-2.85-1.2h-5.5q-1.7 0-2.85 1.2-1.15 1.15-1.15 2.8v3.5h13.5z"/><path id="H" fill="#616161" d="M49.7 81.9H39v45.75h10.7V81.9z"/><path id="I" fill="#444" d="M47.1 120.5h-5.5q-1.65 0-2.8 1.2-1.2 1.15-1.2 2.8v3.5h13.5v-3.5q0-1.65-1.15-2.8-1.2-1.2-2.85-1.2z"/><path id="J" fill="#563E37" d="M51.7 32.35q1.25 0 2.15-.9.85-.85.85-2.1v-2.5h-5.95v2.5q0 1.25.85 2.1.9.9 2.1.9z"/><path id="K" fill="#563E37" d="M18.05 29.4q1 .2 2.15.2 1.9 0 3-.5v-2.9q0-.6-.35-1.05-.4-.5-.95-.5h-3.35q-.55 0-.95.5-.35.5-.35 1.1v2.9l.8.25z"/><path id="L" fill="#616161" d="M28 46.1H12.45v8.7h6.05v-.5q0-.55.35-.9.4-.4 1-.4h.75q.6 0 .95.4.4.4.4.9v.5H28v-8.7z"/><path id="M" fill="#00ACC1" d="M28 48.05v-12.9h-7.8v12.9H28z"/><path id="N" fill="#00ACC1" d="M12.45 35.1v10.95h7.75V35.1h-7.75z"/><path id="O" fill="#563E37" d="M106.9 66.05h-3.6v20.3q4.75 0 7.85-2.4 3.6-2.8 3.6-8.05 0-5.3-3.9-8.1l-3.95-1.75z"/><path id="P" fill="#563E37" d="M24.7 66.05h-3.65l-3.9 1.75q-3.95 2.8-3.95 8.1 0 5.25 3.6 8.05 3.1 2.4 7.9 2.4v-20.3z"/><path id="Q" fill="#8E726A" d="M106.75 73.8q0-30.45-8.65-45.45Q87.85 10.6 64 10.6q-23.9 0-34.15 17.75-8.65 15-8.65 45.45 0 25.9 14.6 38.45Q47.05 122 64 122q16.8 0 28.1-9.65 14.65-12.55 14.65-38.55z"/><path id="R" fill="#444" d="M40.15 72.35q-1.7 2-1.7 4.85 0 2.9 1.7 4.9 1.65 2 4.05 2 2.35 0 4.05-2 1.65-2.05 1.65-4.9 0-2.85-1.65-4.85-1.7-2.05-4.05-2.05-2.4 0-4.05 2.05z"/><path id="S" fill="#444" d="M87.85 72.35q-1.7-2.05-4.05-2.05-2.4 0-4.05 2.05-1.7 2-1.7 4.85 0 2.85 1.7 4.9 1.65 2 4.05 2 2.35 0 4.05-2 1.65-2 1.65-4.9 0-2.85-1.65-4.85z"/><path id="T" fill="#513F35" d="M63.95 108.75q4.9 0 9-2.15 3.2-1.7 4.5-3.7.7-1.05.35-1.7-.35-.65-1.45-.65H51.6q-1.1 0-1.45.65-.35.65.35 1.7 1.3 2 4.5 3.7 4.1 2.15 8.95 2.15z"/><path id="U" fill="#563E37" d="M58 90q-.65-.15-.9.3-.3.4-.05.9.7 1.15 2.4 2.2 2.2 1.35 4.55 1.35 2.35 0 4.5-1.35 1.7-1.05 2.4-2.2.25-.5 0-.9-.3-.45-.95-.3-3.15.9-5.95.9-2.85 0-6-.9z"/><path id="V" fill="#232020" d="M61.7 11.65v-.3q-.2-2.3-2.15-4Q56.9 5 51.7 4.9h-.4q-5.2.1-7.85 2.45-1.95 1.7-2.1 4v5.7q.1-.1.35-.25.15-.15.35-.25l.15-.05.4 2.55q2.15-3.3 2.75-6.95 1.65 1.1 3.05 1.6 1.4.45 2.9.45h.4q2.5-.05 4.6-.3l1.5-.15q.05 0 .05.05l2.6 5.3.35-2.55.2.05q.2.1.35.2.2.2.35.3v-5.4z"/></defs><use transform="translate(-31.5) scale(.5625)" xlink:href="#a"/><use transform="translate(-31.5) scale(.5625)" xlink:href="#b"/><use transform="translate(-31.5) scale(.5625)" xlink:href="#c"/><use transform="translate(-31.5) scale(.5625)" xlink:href="#d"/><use transform="translate(-31.5) scale(.5625)" xlink:href="#e"/><use transform="translate(-31.5) scale(.5625)" xlink:href="#f"/><use transform="translate(-31.5) scale(.5625)" xlink:href="#g"/><use transform="translate(-31.5) scale(.5625)" xlink:href="#h"/><use transform="translate(-31.5)" xlink:href="#i"/><use transform="translate(-31.5)" xlink:href="#j"/><use transform="translate(-31.5) scale(.5625)" xlink:href="#k"/><use transform="translate(-31.5) scale(.5625)" xlink:href="#l"/><use transform="translate(-31.5) scale(.5625)" xlink:href="#m"/><use transform="translate(-31.5) scale(.5625)" xlink:href="#n"/><use transform="translate(-31.5) scale(.5625)" xlink:href="#o"/><use transform="translate(-31.5) scale(.5625)" xlink:href="#p"/><use transform="translate(-31.5)" xlink:href="#q"/><use transform="translate(-31.5) scale(.5625)" xlink:href="#r"/><use transform="translate(-31.5) scale(.5625)" xlink:href="#s"/><use transform="translate(-31.5) scale(.5625)" xlink:href="#t"/><use transform="translate(-31.5) scale(.5625)" xlink:href="#u"/><use transform="matrix(.56245 0 0 .56245 -31.5 0)" xlink:href="#v"/><use transform="translate(-31.5) scale(.5625)" xlink:href="#w"/><use transform="translate(-31.5) scale(.5625)" xlink:href="#x"/><use transform="translate(-31.5) scale(.5625)" xlink:href="#y"/><use transform="translate(-31.5) scale(.5625)" xlink:href="#z"/><use transform="translate(-31.5) scale(.5625)" xlink:href="#A"/><use transform="translate(31.5) scale(.5625)" xlink:href="#B"/><use transform="translate(31.5) scale(.5625)" xlink:href="#C"/><use transform="translate(31.5) scale(.5625)" xlink:href="#D"/><use transform="translate(31.5) scale(.5625)" xlink:href="#E"/><use transform="matrix(.5625 0 0 .56345 31.5 -.05)" xlink:href="#F"/><use transform="translate(31.5) scale(.5625)" xlink:href="#G"/><use transform="translate(31.5 .05) scale(.5625)" xlink:href="#H"/><use transform="translate(31.5) scale(.5625)" xlink:href="#I"/><use xlink:href="#J"/><use transform="translate(31.5)" xlink:href="#K"/><use transform="translate(31.5)" xlink:href="#L"/><use transform="translate(31.5)" xlink:href="#M"/><use transform="matrix(1 0 0 1.18265 31.5 -6.4)" xlink:href="#N"/><use transform="matrix(.20903 0 0 .2088 38.15 2.5)" xlink:href="#O"/><use transform="matrix(.20903 0 0 .2088 38.15 2.5)" xlink:href="#P"/><use transform="matrix(.20917 0 0 .20894 38.15 2.7)" xlink:href="#Q"/><use transform="matrix(.20917 0 0 .20894 38.4 2.7)" xlink:href="#R"/><use transform="matrix(.20917 0 0 .20894 38.4 2.7)" xlink:href="#S"/><use transform="matrix(.20917 0 0 .20894 38.4 2.7)" xlink:href="#T"/><use transform="matrix(.20917 0 0 .20894 38.4 2.7)" xlink:href="#U"/><use xlink:href="#V"/></svg>