<svg xmlns="http://www.w3.org/2000/svg" xmlns:xlink="http://www.w3.org/1999/xlink" preserveAspectRatio="none" viewBox="0 0 72 72"><defs><path id="a" fill="#6D4C41" d="M120.05 46.85q.35-9.15.35-16.15H68.8q0 7.75.5 17.35 1 19.1 3.5 28.1 1.65 6.1 3.65 7.9Q79 86.4 83.1 83.3l22.9-.2q4.2 3.2 7.45.85 2.9-2.15 3.95-8 1.9-10.8 2.65-29.1z"/><path id="b" fill="#7E57C2" d="M107.1 67.45q-11.2-2.7-22.05-.8-9.35 1.6-15 7.05Q64 79.6 64 88.45v40.1l64-.05V88.45q0-8.1-6.25-13.8-5.5-5.05-14.65-7.2z"/><path id="c" fill="#CC9970" d="M128.1 97.15h-8v31.35h8V97.15z"/><path id="d" fill="#99674F" d="M94.65 74.15q2.9 0 4.95-2.05 2.05-2.05 2.05-4.95v-6h-14v6q0 2.9 2.05 4.95 2.05 2.05 4.95 2.05z"/><path id="e" fill="#6D4C41" d="M112.9 46.95q7.55-6.8 7.55-16.4 0-9.6-7.55-16.4-7.55-6.8-18.25-6.8t-18.25 6.8q-7.55 6.8-7.55 16.4 0 9.6 7.55 16.4 7.55 6.8 18.25 6.8t18.25-6.8z"/><path id="f" fill="#CC9970" d="M110.6 21.25q-4.8-8.3-15.95-8.3-11.15 0-15.95 8.3-4.05 7.05-4.05 21.25 0 11.6 7.1 17.75 5.6 4.8 12.9 4.8 7.35 0 12.9-4.8 7.1-6.1 7.1-17.75 0-14.2-4.05-21.25z"/><path id="g" fill="#6D4C41" d="M100.7 26.5q.35-.35.65.1 3.05 6.3 9.2 10.7 3.05 2.2 5.5 3.15V21.4q-1.55-3.15-5-6.35-6.85-6.35-16.2-6.35t-16.2 6.2q-2.1 1.9-3.75 4.2l-1.2 1.95v19.4q9.2-1.6 18.15-7.15 5.05-3.2 8.85-6.8z"/><path id="h" fill="#4C3734" d="M100.65 54.55h-12q-.55 0-.7.3-.2.35.15.85.65 1 2.2 1.8 2 1.05 4.35 1.05 2.35 0 4.35-1.05 1.55-.8 2.2-1.8.35-.5.15-.85-.15-.3-.7-.3z"/><path id="i" fill="#99674F" d="M98 49.95q-.15-.2-.45-.15-1.5.45-2.9.45t-2.9-.45q-.3-.05-.45.15-.15.2 0 .45.3.55 1.15 1.05 1.05.65 2.2.65 1.15 0 2.2-.65.8-.5 1.15-1.05.1-.25 0-.45z"/><path id="j" fill="#CC9970" d="M128.1 97.15h-8v31.35h8V97.15z"/><path id="k" fill="#444" d="M87.8 43.2q0-1.4-.8-2.35-.8-1-1.95-1t-2 1q-.8.95-.8 2.35 0 1.4.8 2.35.85 1 2 1t1.95-1q.8-.95.8-2.35z"/><path id="l" fill="#444" d="M102.3 40.85q-.8.95-.8 2.35 0 1.4.8 2.35.8 1 1.95 1t2-1q.8-.95.8-2.35 0-1.4-.8-2.35-.85-1-2-1t-1.95 1z"/><path id="m" fill="#B2DFDB" d="M73.5 111.75q-6.8 3.8-6.8 10.25-.3 7.1 0 7.1h43.1q.35 0 0-6.8v-.3q0-6.45-6.8-10.25-5.15-2.9-10.05-2.9h-9.4q-4.9 0-10.05 2.9z"/><path id="n" fill="#99674F" d="M88.25 116.35q1.95 0 3.35-1.4 1.35-1.4 1.35-3.3v-3.6h-9.4v3.6q0 1.95 1.4 3.35 1.35 1.35 3.3 1.35z"/><path id="o" fill="#6D4C41" d="M102.5 93.4q16-15.05 16-36.3 0-21.2-16-36.25Q86.55 5.8 64 5.8T25.45 20.85Q9.5 35.85 9.5 57.1t15.95 36.3q16 15.05 38.55 15.05 22.55 0 38.5-15.05z"/><path id="p" fill="#99674F" d="M108.6 69.8h-3.8v21.4q5.05 0 8.3-2.55 3.8-2.95 3.8-8.45 0-5.6-4.15-8.55l-4.15-1.85z"/><path id="q" fill="#99674F" d="M23.15 69.8h-3.8l-4.15 1.85q-4.15 2.95-4.15 8.55 0 5.5 3.8 8.45 3.25 2.55 8.3 2.55V69.8z"/><path id="r" fill="#CC9970" d="M95.55 43q-5.35-6.7-14.5-10.3-8.1-3.2-17.05-3.2-8.95 0-17.1 3.2-9.15 3.6-14.5 10.3-11.25 14-11.2 37 .05 10.05 2.85 17.2 3.05 7.7 9.85 13.35 13.25 11.1 29.45 11.1 8.25 0 16.2-2.75 8.4-2.95 14.5-8.3 6.7-5.9 9.75-13.45 2.9-7.25 2.95-17.15.05-23-11.2-37z"/><path id="s" fill="#99674F" d="M57.75 89.65q-.65-.2-1 .3-.3.45 0 .95.7 1.2 2.5 2.3 2.25 1.4 4.75 1.4 2.45 0 4.75-1.4 1.75-1.1 2.45-2.3.3-.5 0-.95-.3-.5-.95-.3-3.2.95-6.25.95t-6.25-.95z"/><path id="t" fill="#513F35" d="M64 108.45q5.05 0 9.35-2.3 3.3-1.75 4.7-3.85.75-1.05.35-1.75-.35-.7-1.5-.7H51.05q-1.15 0-1.5.7-.35.7.35 1.75 1.35 2.1 4.7 3.85 4.3 2.3 9.4 2.3z"/><path id="u" fill="#6D4C41" d="M109.15 77.45L116 55.4q-2.75-9.8-10.4-19.6-15.2-19.65-39.4-19.65-24.15 0-41.15 20.95Q16.55 47.55 12.9 58l5.95 19.45q12.4-13.05 16.95-17.4.2-.2.5-.1.25.15.25.45-.3 2.75-.4 5-.05.4.3.7.3.3.7.2 9.7-1.85 19.8-6.45.2-.1.4.05.2.1.2.35-.1 2.65 0 4.2 0 .4.3.65t.7.2q5.3-.85 10.85-2.95 3.7-1.4 6.4-2.9.8-.4 1.7-.1Q82.15 61 88.75 65q.3.2.65.1.35-.1.5-.45.75-1.25 2.2-4.2.1-.2.3-.2.2-.05.35.1 6.65 6.6 16.4 17.1z"/><path id="v" fill="#444" d="M40.15 72.35q-1.7 2-1.7 4.85 0 2.9 1.7 4.9 1.65 2 4.05 2 2.35 0 4.05-2 1.65-2.05 1.65-4.9 0-2.85-1.65-4.85-1.7-2.05-4.05-2.05-2.4 0-4.05 2.05z"/><path id="w" fill="#444" d="M87.85 72.35q-1.7-2.05-4.05-2.05-2.4 0-4.05 2.05-1.7 2-1.7 4.85 0 2.85 1.7 4.9 1.65 2 4.05 2 2.35 0 4.05-2 1.65-2 1.65-4.9 0-2.85-1.65-4.85z"/></defs><use transform="translate(-17.2 -.3) scale(.5625)" xlink:href="#a"/><use transform="translate(-18 -.3) scale(.5625)" xlink:href="#b"/><use transform="translate(-18 -.3) scale(.5625)" xlink:href="#c"/><use transform="translate(-17.25 -.3) scale(.5625)" xlink:href="#d"/><use transform="translate(-17.25 -.3) scale(.5625)" xlink:href="#e"/><use transform="translate(-17.25 -.3) scale(.5625)" xlink:href="#f"/><use transform="translate(-17.35 -.3) scale(.5625)" xlink:href="#g"/><use transform="translate(-17.2 -.3) scale(.5625)" xlink:href="#h"/><use transform="translate(-17.2 -.3) scale(.5625)" xlink:href="#i"/><use transform="translate(-49.6 -.3) scale(.5625)" xlink:href="#j"/><use transform="translate(-17.2 -.3) scale(.5625)" xlink:href="#k"/><use transform="translate(-17.2 -.3) scale(.5625)" xlink:href="#l"/><use transform="translate(-12.25 1.45) scale(.54631)" xlink:href="#m"/><use transform="translate(-12.25 1.45) scale(.54631)" xlink:href="#n"/><use transform="matrix(.20752 0 0 .20744 22.85 36.35)" xlink:href="#o"/><use transform="matrix(.20746 0 0 .20737 22.85 36.35)" xlink:href="#p"/><use transform="matrix(.20746 0 0 .20737 22.85 36.35)" xlink:href="#q"/><use transform="matrix(.20746 0 0 .20737 22.85 36.35)" xlink:href="#r"/><use transform="matrix(.20752 0 0 .20744 22.85 36.35)" xlink:href="#s"/><use transform="matrix(.20752 0 0 .20744 22.85 36.35)" xlink:href="#t"/><use transform="matrix(.20752 0 0 .20744 22.85 36.35)" xlink:href="#u"/><use transform="matrix(.20746 0 0 .20738 22.85 36.85)" xlink:href="#v"/><use transform="matrix(.20746 0 0 .20738 22.85 36.85)" xlink:href="#w"/></svg>