<svg xmlns="http://www.w3.org/2000/svg" xmlns:xlink="http://www.w3.org/1999/xlink" preserveAspectRatio="none" viewBox="0 0 72 72"><defs><path id="a" fill="#6D4C41" d="M105.5 69.2q.6-13.7.6-24.1l-84 .35q0 11.45.8 25.7 1.65 28.5 5.7 42.45l72.6-.3q3.05-16.7 4.3-44.1z"/><path id="b" fill="#607D8B" d="M34.2 100.75q-13.8 6.15-13.8 17.4V128h87.15v-9.85q0-10.8-13.45-17.15-12.15-5.75-29.8-5.7-18.05.05-30.1 5.45z"/><path id="c" fill="#D8D8D8" d="M53.9 95.85l-4 .5L56.25 128h8.15V95.3q-5.4 0-10.5.55z"/><path id="d" fill="#D8D8D8" d="M78.1 96.35Q72.4 95.3 64 95.3V128h7.65l6.45-31.65z"/><path id="e" fill="#6D4C41" d="M106.1 46.15q0-16.35-12.3-27.9-12.3-11.6-29.7-11.6t-29.7 11.6Q22.1 29.8 22.1 46.15q0 16.35 12.3 27.95 12.3 11.55 29.7 11.55T93.8 74.1q12.3-11.6 12.3-27.95z"/><path id="f" fill="#99674F" d="M35.35 59.9l2.05-.1q3.75 0 3.75-3.6v-5.4h-10.2v5.4q0 1.75 1.25 2.75 1.15.95 3.15.95z"/><path id="g" fill="#FFF" d="M78.25 96.35l-5.1-.65q0 1.2-.9 3.05-1 2-2.5 3.75-2.1 2.45-5.65 3.95l10.4 11.1 3.75-21.2z"/><path id="h" fill="#CC9970" d="M47.15 48.5q6.1-5.25 6.1-15.3 0-12.3-3.5-18.4Q45.6 7.65 36 7.65q-9.65 0-13.8 7.15-3.5 6.1-3.5 18.4 0 10.05 6.15 15.3 4.8 4.15 11.15 4.15 6.3 0 11.15-4.15z"/><path id="i" fill="#513F35" d="M54.85 78.15q-.8 0-1.05.5t.25 1.3q.95 1.45 3.35 2.7 3.05 1.65 6.7 1.65 3.6 0 6.65-1.65 2.4-1.25 3.35-2.7.5-.8.25-1.3t-1.05-.5H54.85z"/><path id="j" fill="#444" d="M53.6 60.75q0-2.1-1.25-3.6-1.25-1.55-3.05-1.55-1.75 0-3 1.55-1.25 1.5-1.25 3.6 0 2.15 1.25 3.7 1.25 1.5 3 1.5 1.8 0 3.05-1.55 1.25-1.5 1.25-3.65z"/><path id="k" fill="#444" d="M83.1 60.75q0-2.1-1.25-3.6-1.25-1.55-3-1.55t-3.05 1.55q-1.25 1.5-1.25 3.6 0 2.15 1.25 3.65 1.3 1.55 3.05 1.55 1.75 0 3-1.5 1.25-1.55 1.25-3.7z"/><path id="l" fill="#E49500" d="M69.15 70.5q-.2-.35-.65-.2-2.5.7-4.45.7-2 0-4.5-.7-.45-.15-.65.2t0 .7q.5.85 1.75 1.65 1.65 1 3.4 1t3.4-1q1.25-.8 1.75-1.65.15-.35-.05-.7z"/><path id="m" fill="#6D4C41" d="M96.7 26.65q-2.4-4.85-7.65-9.7Q78.55 7.2 64.2 7.2q-14.3 0-24.8 9.5-5.25 4.7-7.65 9.45v29.7q14.1-2.4 27.75-10.95 7.85-4.85 13.65-10.4.2-.2.55-.15.3.05.4.3Q78.8 44.3 88.25 51q4.7 3.35 8.45 4.8V26.65z"/><path id="n" fill="#455A64" d="M70.05 128h7.25l11.5-11.95-4.75-6.6 7.1-4.7-4-6.35q-5.05-1.55-10.7-2.3l-6.4 31.9z"/><path id="o" fill="#FFF" d="M55 95.7l-5.05.65 3.75 21.2 10.35-11.1q-3.5-1.5-5.6-3.95-1.5-1.75-2.5-3.75-.95-1.9-.95-3.05z"/><path id="p" fill="#455A64" d="M51.75 96.1q-3.55.45-7.45 1.35l-3.2.8-4.05 6.45 7.1 4.7-4.75 6.6 11.45 12h7.3l-6.4-31.9z"/><path id="q" fill="#B7B7B7" d="M64.25 113.65q-.7 0-1.15.5-.5.5-.5 1.2t.5 1.15q.5.5 1.15.5.7 0 1.2-.5.5-.45.5-1.15t-.5-1.2q-.5-.5-1.2-.5z"/><path id="r" fill="#B7B7B7" d="M64.25 121.65q-.7 0-1.15.5-.5.5-.5 1.2t.5 1.15q.5.5 1.15.5.7 0 1.2-.5.5-.45.5-1.15t-.5-1.2q-.5-.5-1.2-.5z"/></defs><use transform="scale(.5625)" xlink:href="#a"/><use transform="scale(.5625)" xlink:href="#b"/><use transform="scale(.5625)" xlink:href="#c"/><use transform="scale(.5625)" xlink:href="#d"/><use transform="scale(.5625)" xlink:href="#e"/><use xlink:href="#f"/><use transform="scale(.5625)" xlink:href="#g"/><use xlink:href="#h"/><use transform="scale(.5625)" xlink:href="#i"/><use transform="scale(.56248)" xlink:href="#j"/><use transform="scale(.56248)" xlink:href="#k"/><use transform="scale(.5625)" xlink:href="#l"/><use transform="scale(.5625)" xlink:href="#m"/><use transform="scale(.5625)" xlink:href="#n"/><use transform="scale(.5625)" xlink:href="#o"/><use transform="scale(.5625)" xlink:href="#p"/><use transform="scale(.5625)" xlink:href="#q"/><use transform="scale(.5625)" xlink:href="#r"/></svg>