<svg xmlns="http://www.w3.org/2000/svg" xmlns:xlink="http://www.w3.org/1999/xlink" preserveAspectRatio="none" viewBox="0 0 72 72"><defs><radialGradient id="a" cx="0" cy="0" r="22.088" fx="0" fy="0" gradientTransform="matrix(1 0 0 .89813 36.25 47.85)" gradientUnits="userSpaceOnUse" spreadMethod="pad"><stop offset="0%" stop-color="#FFF"/><stop offset="100%" stop-color="#FFF" stop-opacity="0"/></radialGradient><path id="b" fill="#651FFF" d="M8.85 69.75V72h54.5v-2.25q0-7.45-5.35-12.55-4.95-4.6-12.95-6-9.1-1.55-18.45.7-7.75 1.8-12.45 6.1-5.3 4.85-5.3 11.75z"/><path id="c" fill="#651FFF" d="M14.2 57.2q-5.35 5.05-5.35 12.55V72h54.5v-2.25q0-6.9-5.3-11.75-4.7-4.3-12.5-6.1-9.35-2.25-18.4-.7-8.05 1.4-12.95 6z"/><path id="d" fill="#7A4C32" d="M64 74.15q2.9 0 4.95-2.05Q71 70.05 71 67.15v-6.4H57v6.4q0 2.9 2.05 4.95 2.05 2.05 4.95 2.05z"/><path id="e" fill="#47352D" d="M118.2 71.6l.3-15.8L65 53.6 9.5 55.8l.3 15.8q.7 18.65 2.85 33.05 2 13.55 3.95 16.2 2.4 3.3 11.2 2.3 6.3-.75 20.9-3 9.45-1.5 14.8-1.5h.95q5.35 0 14.8 1.5 14.6 2.25 20.85 3 8.8 1 11.2-2.3 2-2.65 4-16.2 2.15-14.4 2.9-33.05z"/><path id="f" fill="#47352D" d="M102.5 91.65q16-14.75 16-35.55 0-20.85-16-35.55Q86.55 5.8 64 5.8q-22.6 0-38.55 14.75Q9.5 35.25 9.5 56.1q0 20.8 15.95 35.55 16 14.75 38.55 14.75 22.55 0 38.5-14.75z"/><path id="g" fill="#AD6F43" d="M106.75 73.45q0-28.7-8.9-42.6Q87.7 14.9 64.15 14.9q-23.55 0-33.9 16.1-9.05 14.15-9.05 42.8 0 24 15.45 37.5 12.35 10.85 27.5 10.85 15.05 0 27.35-11 15.25-13.7 15.25-37.7z"/><path id="h" fill="#47352D" d="M108.05 32.25q-3.2-6.5-10.25-13.05Q83.65 6.15 64.4 6.15q-19.2 0-33.35 12.75Q24 25.3 20.8 31.65v39.8q19-3.2 37.35-14.65 10.5-6.55 18.3-14 .3-.3.7-.25.4.1.6.5Q84.05 56 96.7 65q6.3 4.55 11.35 6.45v-39.2z"/><path id="i" fill="#444" d="M40.15 72.35q-1.7 2-1.7 4.85 0 2.9 1.7 4.9 1.65 2 4.05 2 2.35 0 4.05-2 1.65-2.05 1.65-4.9 0-2.85-1.65-4.85-1.7-2.05-4.05-2.05-2.4 0-4.05 2.05z"/><path id="j" fill="#444" d="M87.85 72.35q-1.7-2.05-4.05-2.05-2.4 0-4.05 2.05-1.7 2-1.7 4.85 0 2.85 1.7 4.9 1.65 2 4.05 2 2.35 0 4.05-2 1.65-2 1.65-4.9 0-2.85-1.65-4.85z"/><path id="k" fill="#513F35" d="M63.95 108.75q4.9 0 9-2.15 3.2-1.7 4.5-3.7.7-1.05.35-1.7-.35-.65-1.45-.65H51.6q-1.1 0-1.45.65-.35.65.35 1.7 1.3 2 4.5 3.7 4.1 2.15 8.95 2.15z"/><path id="l" fill="#7A4C32" d="M58 90q-.65-.15-.9.3-.3.4-.05.9.7 1.15 2.4 2.2 2.2 1.35 4.55 1.35 2.35 0 4.5-1.35 1.7-1.05 2.4-2.2.25-.5 0-.9-.3-.45-.95-.3-3.15.9-5.95.9-2.85 0-6-.9z"/><path id="m" fill="#AD6F43" d="M21.15 119.55q.9-3.45.15-5.45-.8-2.05-3.95-5.05-.5-.7-2.2-.8l-.4-.55q-.55-.75-.85-.9-1-.5-2.6.4-1.1.6-.95 1.4-.2.25-.55.15-1.4-1.55-3.2-.2-1.6 1.25-1.15 2.7-.1.55-.5.5-.65-.55-1.75.2-1.4 1.05-1.4 2.25 0 .55.5 1.75-.1.1-.3.1-.45-.25-1.15.15-.75.45-.85 1.75-.05 1.05.2 1.8.25.55 1.4 2.15 1.05 1.45 1.65 2.15.55.55 1.4.55.85-.05 1.35-.65.5-.5.5-.85.05-.55-.75-1.25l-.1-.1.25-.1q1.3 1.85 2.85.95.55-.3.8-.9.3-.65-.1-1.5l.8-.3.15.25q.95 1.3 3.05.2l-.5.55-.85.35-.55.85q-.35 1 .5 1.85.55.55 1.35.4.4-.05 1.9-.7 1.1-.45 3.3-1.9 2.5-1.6 2.55-2.2z"/><path id="n" fill="#7A4C32" d="M10.85 110.4q-.05.1 0 .2 2.2 3.45 3.55 6.2.65 1.2.3 2.15-.2.5-1.3 1.2-1.35.85-2.4.3l-.8-.7q-1.3-1.65-3.5-5.7-.1-.15-.2-.25-.2-.2-.35.05l.45 1.35.75 1.5q.95 1.9 2.15 3.6.35.75.05 1.45-.2.55-.75.85-1.1.6-2-.05-1.35-1.25-3.3-4.8-.1-.2-.2-.35-.2-.3-.3-.15l-.05.25q.05.4.35 1.15l.55 1.1q.7 1.4 1.75 2.75.8 1.1.3 1.55-.95.95-2.15.35 1.45.95 2.65.2.65-.45.7-.95 1.1.6 2.6-.55.9-.7.9-1.7 1.45.9 3.3-.3 2-1.15 2-2.55.85.5 1.9.1 1.15-.5 1.55-1.6l.2-1q-.05-2.75-3.65-7.7l-.75-.1q.95 1.35 2.8 4.9.75 1.4.8 2.25.1 1.15-.9 1.9-.9.7-1.75.35l-.9-1.2q-1.2-2.15-2.3-3.9l-.9-1.3q-.4-.65-.8-.85-.3-.2-.35 0z"/><path id="o" fill="#E0E0E0" d="M18.75 116.35l.05.45q0 3.1-1.3 5.25-1.3 2.2-3.15 2.2-1.85 0-3.15-2.2-1.3-2.15-1.3-5.25l.05-.45Q8.1 117.7 7 119.9q-1.1 2.3-1.1 4.95v.65q0 1.05.65 1.8.6.7 1.5.7h12.6q.9 0 1.55-.7.6-.75.6-1.8v-.65q0-2.65-1.1-4.95-1.1-2.2-2.95-3.55z"/><path id="p" fill="#BDBDBD" d="M8.75 122.05q-.05 2.2 5.6 2.2 5.65 0 5.6-2.2-1.15-3.2-1.15-5.25l-.05-.45q-1.95-1.5-4.4-1.5-2.4 0-4.4 1.5l-.05.45q0 2.05-1.15 5.25z"/><path id="q" fill="#AD6F43" d="M11.35 107.2q-1.15.6-.95 1.4-.25.25-.6.15-1.4-1.65-3.2-.2-1.6 1.25-1.15 2.7-.05.55-.45.5-.65-.6-1.8.2-1.4 1.05-1.4 2.25 0 .5.5 1.7-.05.15-.25.15-.45-.25-1.15.1-.75.45-.85 1.8-.1 1.05.2 1.8.25.5 1.4 2.15 1 1.45 1.6 2.15.4.3.6.35l.3.15h.15l.3.05.2-.05h.15l.2-.05.75-.4.05-.1q.45-.45-.3-1.5-1.05-1.35-1.8-2.75l-.55-1.15q-.3-.7-.3-1.1v-.25q.1-.15.3.15.1.15.2.35 1.85 3.35 3.3 4.8l.05.05.3.15.15.05.3.05.15.05.35-.05h.15l.55-.25.35-.25.1-.1.1-.15.1-.1.1-.2.05-.05.05-.25v-.1l.05-.25v-.1l-.05-.25v-.15l-.15-.4q-1.2-1.7-2.15-3.55l-.75-1.5-.45-1.35q.15-.25.35-.05.15.1.2.25 2.2 4.05 3.5 5.7l.8.7q1.1.55 2.45-.3 1.1-.7 1.25-1.2.45-.9-.3-2.15-1.35-2.75-3.55-6.2-.05-.15 0-.25.05-.15.35.05.35.2.8.85l.9 1.3q1.1 1.75 2.3 3.9l.3.45q.35.5.65.75.8.35 1.75-.35.95-.75.9-1.9-.1-.85-.8-2.25-1.7-3.2-2.8-4.9l-.4-.6q-.65-.75-.9-.9-.95-.45-2.55.45z"/><path id="r" fill="#7A4C32" d="M9.55 120.35l.1.3v.1l.05.3v.1l-.05.25v.05l-.05.25-.15.3-.1.05-.1.2-.1.1-.35.25-.7.25h-.5l-.3-.05-.15-.05-.3-.2H6.8q-.45-.3-.9-.95l-.25.1.15.1q.75.7.75 1.25-.05.35-.5.9l-.1.05v.05l-.05.05q-.4.3-.65.35l-.1.05-.2.05H4.8l-.2.05-.3-.05h-.15l-.2-.05-.2-.1q1.5.95 2.65.2.65-.45.7-.95 1.15.6 2.65-.55.95-.75.85-1.7.5.3 1.15.3l.35-.45.9-.35.5-.55q-.8.4-1.6.45-.95.05-1.45-.65l-.2-.25-.75.3v.05l.05.1z"/><path id="s" fill="#7A4C32" d="M3.3 117.4q-.2-.3-.3-.15v.25q0 .4.3 1.1l.55 1.1q.75 1.4 1.8 2.8.708.99.35 1.45.5-.55.5-.9.05-.55-.75-1.25l-.1-.1.25-.05q.55.65.9.9-1.45-1.45-3.3-4.8-.1-.2-.2-.35z"/><path id="t" fill="#7A4C32" d="M10.85 110.4q-.05.1 0 .2 2.2 3.45 3.55 6.2.65 1.2.3 2.2-.2.5-1.3 1.2-1.35.8-2.45.25l-.8-.7q-1.3-1.65-3.45-5.7-.1-.15-.2-.25-.2-.15-.35.05l1.15 2.85q.984 1.82 2.15 3.5l.8-.3.15.25q.5.7 1.5.7.8-.05 1.55-.5l-.5.55-.85.35-.35.5q1.15 0 2.2-.7 1.95-1.05 1.95-2.55.85.55 1.9.15 1.15-.55 1.6-1.65l.2-1q-.1-2.7-3.7-7.65h-.1l-.65-.1q1.1 1.7 2.8 4.9.75 1.4.8 2.25.1 1.15-.9 1.9-.9.7-1.75.35-.3-.25-.65-.75l-.25-.45q-1.2-2.15-2.3-3.9l-.9-1.3q-.4-.6-.8-.85-.3-.2-.35 0z"/><path id="u" fill="url(#a)" d="M60.6 47.4q0-9.15-7.15-15.6-7.15-6.5-17.2-6.5-10.15 0-17.3 6.5-7.15 6.45-7.15 15.6 0 9.2 7.15 15.65 7.15 6.5 17.3 6.5 10.05 0 17.2-6.5Q60.6 56.6 60.6 47.4z"/><g id="v"><path fill="#00ACC1" d="M39.1 63.45q-1.1 1-1.15 2.55-.135 3.348-.45 5.85h13.45q-.265-2.502-.4-5.85-.05-1.55-1.15-2.55-1.1-1.1-2.65-1.1h-5q-1.55 0-2.65 1.1z"/><path fill="#4DD0E1" d="M69.05 49.15Q68 48.1 66.5 48.1h-46q-1.5 0-2.6 1.05-1.05 1.1-1.05 2.6v20.1H37.5q.315-2.502.45-5.85.05-1.55 1.15-2.55 1.1-1.1 2.65-1.1h5q1.55 0 2.65 1.1 1.1 1 1.15 2.55.135 3.348.4 5.85h19.2v-20.1q0-1.5-1.1-2.6z"/></g></defs><use xlink:href="#b"/><use xlink:href="#c"/><use transform="matrix(.85156 0 0 .85156 -18.4 -5.55)" xlink:href="#d"/><use transform="matrix(.41585 0 0 .41585 9.4 -1.15)" xlink:href="#e"/><use transform="matrix(.41585 0 0 .41585 9.4 -1.15)" xlink:href="#f"/><use transform="matrix(.41585 0 0 .41585 9.4 -1.15)" xlink:href="#g"/><use transform="matrix(.41585 0 0 .41585 9.4 -1.15)" xlink:href="#h"/><use transform="matrix(.41576 0 0 .41576 9.4 -1.15)" xlink:href="#i"/><use transform="matrix(.41576 0 0 .41576 9.4 -1.15)" xlink:href="#j"/><use transform="matrix(.41576 0 0 .41576 9.4 -1.15)" xlink:href="#k"/><use transform="matrix(.41576 0 0 .41576 9.4 -1.15)" xlink:href="#l"/><use transform="matrix(.56247 0 0 .56247 4.5 -.05)" xlink:href="#m"/><use transform="matrix(.56247 0 0 .56247 4.5 -.05)" xlink:href="#n"/><use transform="matrix(.56247 0 0 .56247 4.5 -.05)" xlink:href="#o"/><use transform="matrix(.56247 0 0 .56247 4.5 -.05)" xlink:href="#p"/><use transform="translate(4.5 -.05) scale(.5625)" xlink:href="#q"/><use transform="translate(4.5 -.05) scale(.5625)" xlink:href="#r"/><use transform="translate(4.5 -.05) scale(.5625)" xlink:href="#s"/><use transform="translate(4.5 -.05) scale(.5625)" xlink:href="#t"/><use transform="matrix(.84836 0 0 .84836 12.75 12.75)" xlink:href="#u"/><use transform="translate(0 .15)" xlink:href="#v"/></svg>