
<svg xmlns="http://www.w3.org/2000/svg" version="1.1" xmlns:xlink="http://www.w3.org/1999/xlink" preserveAspectRatio="none" x="0px" y="0px" width="72px" height="72px" viewBox="0 0 72 72">
<defs>
<g id="Layer1_0_MEMBER_0_MEMBER_0_FILL">
<path fill="#563E37" stroke="none" d="
M 106.9 66.05
L 103.3 66.05 103.3 86.35
Q 108.05 86.35 111.15 83.95 114.75 81.15 114.75 75.9 114.75 70.6 110.85 67.8
L 106.9 66.05 Z"/>
</g>

<g id="Layer1_0_MEMBER_0_MEMBER_1_FILL">
<path fill="#563E37" stroke="none" d="
M 24.7 66.05
L 21.05 66.05 17.15 67.8
Q 13.2 70.6 13.2 75.9 13.2 81.15 16.8 83.95 19.9 86.35 24.7 86.35
L 24.7 66.05 Z"/>
</g>

<g id="Layer1_0_MEMBER_1_FILL">
<path fill="#8E726A" stroke="none" d="
M 106.75 73.8
Q 106.75 43.35 98.1 28.35 87.85 10.6 64 10.6 40.1 10.6 29.85 28.35 21.2 43.35 21.2 73.8 21.2 99.7 35.8 112.25 47.05 122 64 122 80.8 122 92.1 112.35 106.75 99.8 106.75 73.8 Z"/>
</g>

<g id="Layer1_0_MEMBER_2_FILL">
<path fill="#444444" stroke="none" d="
M 40.15 72.35
Q 38.45 74.35 38.45 77.2 38.45 80.1 40.15 82.1 41.8 84.1 44.2 84.1 46.55 84.1 48.25 82.1 49.9 80.05 49.9 77.2 49.9 74.35 48.25 72.35 46.55 70.3 44.2 70.3 41.8 70.3 40.15 72.35 Z"/>
</g>

<g id="Layer1_0_MEMBER_3_FILL">
<path fill="#444444" stroke="none" d="
M 87.85 72.35
Q 86.15 70.3 83.8 70.3 81.4 70.3 79.75 72.35 78.05 74.35 78.05 77.2 78.05 80.05 79.75 82.1 81.4 84.1 83.8 84.1 86.15 84.1 87.85 82.1 89.5 80.1 89.5 77.2 89.5 74.35 87.85 72.35 Z"/>
</g>

<g id="Layer1_0_MEMBER_4_FILL">
<path fill="#513F35" stroke="none" d="
M 63.95 108.75
Q 68.85 108.75 72.95 106.6 76.15 104.9 77.45 102.9 78.15 101.85 77.8 101.2 77.45 100.55 76.35 100.55
L 51.6 100.55
Q 50.5 100.55 50.15 101.2 49.8 101.85 50.5 102.9 51.8 104.9 55 106.6 59.1 108.75 63.95 108.75 Z"/>
</g>

<g id="Layer1_0_MEMBER_5_FILL">
<path fill="#563E37" stroke="none" d="
M 58 90
Q 57.35 89.85 57.1 90.3 56.8 90.7 57.05 91.2 57.75 92.35 59.45 93.4 61.65 94.75 64 94.75 66.35 94.75 68.5 93.4 70.2 92.35 70.9 91.2 71.15 90.7 70.9 90.3 70.6 89.85 69.95 90 66.8 90.9 64 90.9 61.15 90.9 58 90 Z"/>
</g>

<g id="Layer1_0_MEMBER_6_FILL">
<path fill="#232020" stroke="none" d="
M 64.85 22.55
Q 64.55 22.3 64.25 22.05 64.95 20.95 64.95 19.5 64.95 17.45 63.55 16 62.35 14.85 60.7 14.65 60.8 14.25 60.8 13.8 60.8 11.75 59.4 10.3 57.95 8.9 55.9 8.9 55.2 8.9 54.6 9.1 54.25 7.95 53.4 7.05 51.95 5.65 49.9 5.65 48.7 5.65 47.7 6.15 47.45 5.65 47 5.2 45.55 3.8 43.5 3.8 41.5 3.8 40.05 5.2 39.9 5.35 39.75 5.55 39.6 5.35 39.45 5.2 38 3.8 36 3.8 33.9822265625 3.8171875 32.55 5.2 32.4 5.35 32.25 5.55 32.1 5.35 31.95 5.2 30.5 3.8 28.5 3.8 26.45 3.8 25 5.2 24.55 5.65 24.3 6.15 23.3 5.65 22.1 5.65 20.05 5.65 18.6 7.05 17.75 7.95 17.4 9.1 16.8 8.9 16.1 8.9 14.05 8.9 12.6 10.3 11.2 11.75 11.2 13.8 11.2 14.25 11.3 14.65 9.65 14.85 8.45 16 7.05 17.45 7.05 19.5 7.05 20.95 7.75 22.05 7.45 22.3 7.15 22.55 5.75 24 5.75 26.05 5.75 27.9 6.9 29.25 6.8 29.3 6.75 29.35 5.35 30.8 5.35 32.85 5.35 34.9 6.75 36.3 7.2 36.75 7.7 37.05 11.8169921875 39.7806640625 11.9 44.7 14.65078125 43.74921875 15.4 43 16.85 41.6 16.85 39.55 16.85 39 16.75 38.5 17.7 38.15 18.5 37.35 19.95 35.95 19.95 33.9 19.95 33.8 19.95 33.7 21.25 33.4 22.3 32.35 23 31.7 23.35 30.9 23.75 30.95 24.2 30.95 26.2 30.95 27.65 29.5 29.1 30.95 31.15 30.95 32.5 30.95 33.6 30.3 34.65 30.95 36 30.95 37.35 30.95 38.4 30.3 39.5 30.95 40.85 30.95 42.9 30.95 44.35 29.5 45.8 30.95 47.8 30.95 48.25 30.95 48.65 30.9 49 31.7 49.7 32.35 50.75 33.4 52.05 33.7 52.05 33.8 52.05 33.9 52.05 35.95 53.5 37.35 54.3 38.15 55.25 38.5 55.15 39 55.15 39.55 55.15 41.6 56.6 43 57.35 43.75 60.1 44.7 60.2 39.8 64.3 37.05 64.8 36.75 65.25 36.3 66.65 34.9 66.65 32.85 66.65 30.8 65.25 29.35 65.2 29.3 65.1 29.25 66.25 27.9 66.25 26.05 66.25 24 64.85 22.55 Z"/>
</g>
</defs>

<g id="Layer_1">
<g transform="matrix( 0.56243896484375, 0, 0, 0.56243896484375, 0,-0.75) ">
<use xlink:href="#Layer1_0_MEMBER_0_MEMBER_0_FILL"/>
</g>

<g transform="matrix( 0.56243896484375, 0, 0, 0.56243896484375, 0,-0.75) ">
<use xlink:href="#Layer1_0_MEMBER_0_MEMBER_1_FILL"/>
</g>

<g transform="matrix( 0.5625, 0, 0, 0.5625, 0,-0.3) ">
<use xlink:href="#Layer1_0_MEMBER_1_FILL"/>
</g>

<g transform="matrix( 0.5625, 0, 0, 0.5625, 0,-0.3) ">
<use xlink:href="#Layer1_0_MEMBER_2_FILL"/>
</g>

<g transform="matrix( 0.5625, 0, 0, 0.5625, 0,-0.3) ">
<use xlink:href="#Layer1_0_MEMBER_3_FILL"/>
</g>

<g transform="matrix( 0.5625, 0, 0, 0.5625, 0,-0.3) ">
<use xlink:href="#Layer1_0_MEMBER_4_FILL"/>
</g>

<g transform="matrix( 0.5625, 0, 0, 0.5625, 0,-0.3) ">
<use xlink:href="#Layer1_0_MEMBER_5_FILL"/>
</g>

<g transform="matrix( 1, 0, 0, 1, 0,0) ">
<use xlink:href="#Layer1_0_MEMBER_6_FILL"/>
</g>
</g>

<g id="Camada_2"/>
</svg>
