<svg xmlns="http://www.w3.org/2000/svg" xmlns:xlink="http://www.w3.org/1999/xlink" preserveAspectRatio="none" viewBox="0 0 72 72"><defs><path id="a" fill="#DBA689" d="M106.9 66.05h-3.6v20.3q4.75 0 7.85-2.4 3.6-2.8 3.6-8.05 0-5.3-3.9-8.1l-3.95-1.75z"/><path id="b" fill="#DBA689" d="M24.7 66.05h-3.65l-3.9 1.75q-3.95 2.8-3.95 8.1 0 5.25 3.6 8.05 3.1 2.4 7.9 2.4v-20.3z"/><path id="c" fill="#FADCBC" d="M57.85 43.35q.998-16.133-3.2-24.5Q49.541 8.728 36.4 8.5q-13.326-.228-18.8 10.1-4.445 8.65-3.45 25.15.799 12.696 8.8 19.3 6.117 5.152 13.35 5 7.133-.158 13.1-5.5 7.688-6.791 8.45-19.2z"/><path id="d" fill="#444" d="M40.15 72.35q-1.7 2-1.7 4.85 0 2.9 1.7 4.9 1.65 2 4.05 2 2.35 0 4.05-2 1.65-2.05 1.65-4.9 0-2.85-1.65-4.85-1.7-2.05-4.05-2.05-2.4 0-4.05 2.05z"/><path id="e" fill="#444" d="M87.85 72.35q-1.7-2.05-4.05-2.05-2.4 0-4.05 2.05-1.7 2-1.7 4.85 0 2.85 1.7 4.9 1.65 2 4.05 2 2.35 0 4.05-2 1.65-2 1.65-4.9 0-2.85-1.65-4.85z"/><path id="f" fill="#513F35" d="M63.95 108.75q4.9 0 9-2.15 3.2-1.7 4.5-3.7.7-1.05.35-1.7-.35-.65-1.45-.65H51.6q-1.1 0-1.45.65-.35.65.35 1.7 1.3 2 4.5 3.7 4.1 2.15 8.95 2.15z"/><path id="g" fill="#DBA689" d="M58 90q-.65-.15-.9.3-.3.4-.05.9.7 1.15 2.4 2.2 2.2 1.35 4.55 1.35 2.35 0 4.5-1.35 1.7-1.05 2.4-2.2.25-.5 0-.9-.3-.45-.95-.3-3.15.9-5.95.9-2.85 0-6-.9z"/></defs><use transform="matrix(.56242 0 0 .56242 -.85 .2)" xlink:href="#a"/><use transform="matrix(.56242 0 0 .56242 1.15 .2)" xlink:href="#b"/><use xlink:href="#c"/><use transform="matrix(.56245 0 0 .56245 0 -.25)" xlink:href="#d"/><use transform="matrix(.56245 0 0 .56245 0 -.25)" xlink:href="#e"/><use transform="matrix(.56245 0 0 .56245 0 -.25)" xlink:href="#f"/><use transform="matrix(.56245 0 0 .56245 0 -.25)" xlink:href="#g"/></svg>