<svg xmlns="http://www.w3.org/2000/svg" xmlns:xlink="http://www.w3.org/1999/xlink" preserveAspectRatio="none" viewBox="0 0 72 72"><defs><path id="a" fill="#00ACC1" d="M6.2 74.65Q0 80.35 0 88.45v40.05l64 .05v-40.1q0-8.8-6.3-14.75-5.8-5.4-15.2-7.05-10.65-1.85-21.65.8-9.1 2.15-14.65 7.2z"/><path id="b" fill="#FCC21B" d="M8.15 97.15H0v31.35h8.15V97.15z"/><path id="c" fill="#E59900" d="M33.45 74.15q2.9 0 4.95-2.05 2.05-2.05 2.05-4.95v-6.4h-14v6.4q0 2.9 2.05 4.95 2.05 2.05 4.95 2.05z"/><path id="d" fill="#FCC21B" d="M8.15 97.15H0v31.35h8.15V97.15z"/><path id="e" fill="#E59600" d="M106.9 66.05h-3.6v20.3q4.75 0 7.85-2.4 3.6-2.8 3.6-8.05 0-5.3-3.9-8.1l-3.95-1.75z"/><path id="f" fill="#E59600" d="M24.7 66.05h-3.65l-3.9 1.75q-3.95 2.8-3.95 8.1 0 5.25 3.6 8.05 3.1 2.4 7.9 2.4v-20.3z"/><path id="g" fill="#FCC21B" d="M106.75 73.8q0-30.45-8.65-45.45Q87.85 10.6 64 10.6q-23.9 0-34.15 17.75-8.65 15-8.65 45.45 0 25.9 14.6 38.45Q47.05 122 64 122q16.8 0 28.1-9.65 14.65-12.55 14.65-38.55z"/><path id="h" fill="#444" d="M40.15 72.35q-1.7 2-1.7 4.85 0 2.9 1.7 4.9 1.65 2 4.05 2 2.35 0 4.05-2 1.65-2.05 1.65-4.9 0-2.85-1.65-4.85-1.7-2.05-4.05-2.05-2.4 0-4.05 2.05z"/><path id="i" fill="#444" d="M87.85 72.35q-1.7-2.05-4.05-2.05-2.4 0-4.05 2.05-1.7 2-1.7 4.85 0 2.85 1.7 4.9 1.65 2 4.05 2 2.35 0 4.05-2 1.65-2 1.65-4.9 0-2.85-1.65-4.85z"/><path id="j" fill="#513F35" d="M63.95 108.75q4.9 0 9-2.15 3.2-1.7 4.5-3.7.7-1.05.35-1.7-.35-.65-1.45-.65H51.6q-1.1 0-1.45.65-.35.65.35 1.7 1.3 2 4.5 3.7 4.1 2.15 8.95 2.15z"/><path id="k" fill="#E59600" d="M58 90q-.65-.15-.9.3-.3.4-.05.9.7 1.15 2.4 2.2 2.2 1.35 4.55 1.35 2.35 0 4.5-1.35 1.7-1.05 2.4-2.2.25-.5 0-.9-.3-.45-.95-.3-3.15.9-5.95.9-2.85 0-6-.9z"/><path id="l" fill="#FFA000" d="M63.35 24.5v-.8q-.4-6.25-5.65-10.85-7.2-6.3-21.15-6.5H35.5q-13.95.2-21.1 6.5-5.3 4.6-5.65 10.85-.05.4-.05.8v14.55q.35-.3.95-.75.4-.35.95-.6l.4-.2 1.05 6.95Q17.8 35.5 19.4 25.7q4.55 3 8.3 4.25 3.75 1.25 7.8 1.2h1.05q6.7-.05 12.3-.7l4.1-.45q.1 0 .2.1L60 44.45l1.05-6.95.45.2q.5.25.9.55.65.5.95.8V24.5z"/><path id="m" fill="#B2DFDB" d="M73.5 111.75q-6.8 3.8-6.8 10.25-.3 7.1 0 7.1h43.1q.35 0 0-6.8v-.3q0-6.45-6.8-10.25-5.15-2.9-10.05-2.9h-9.4q-4.9 0-10.05 2.9z"/><path id="n" fill="#E59900" d="M88.25 116.35q1.95 0 3.35-1.4 1.35-1.4 1.35-3.3v-3.6h-9.4v3.6q0 1.95 1.4 3.35 1.35 1.35 3.3 1.35z"/><path id="o" fill="#FFA000" d="M102.5 93.4q16-15.05 16-36.3 0-21.2-16-36.25Q86.55 5.8 64 5.8T25.45 20.85Q9.5 35.85 9.5 57.1t15.95 36.3q16 15.05 38.55 15.05 22.55 0 38.5-15.05z"/><path id="p" fill="#E59600" d="M108.6 69.8h-3.8v21.4q5.05 0 8.3-2.55 3.8-2.95 3.8-8.45 0-5.6-4.15-8.55l-4.15-1.85z"/><path id="q" fill="#E59600" d="M23.15 69.8h-3.8l-4.15 1.85q-4.15 2.95-4.15 8.55 0 5.5 3.8 8.45 3.25 2.55 8.3 2.55V69.8z"/><path id="r" fill="#FCC21B" d="M95.55 43q-5.35-6.7-14.5-10.3-8.1-3.2-17.05-3.2-8.95 0-17.1 3.2-9.15 3.6-14.5 10.3-11.25 14-11.2 37 .05 10.05 2.85 17.2 3.05 7.7 9.85 13.35 13.25 11.1 29.45 11.1 8.25 0 16.2-2.75 8.4-2.95 14.5-8.3 6.7-5.9 9.75-13.45 2.9-7.25 2.95-17.15.05-23-11.2-37z"/><path id="s" fill="#E59600" d="M57.75 89.65q-.65-.2-1 .3-.3.45 0 .95.7 1.2 2.5 2.3 2.25 1.4 4.75 1.4 2.45 0 4.75-1.4 1.75-1.1 2.45-2.3.3-.5 0-.95-.3-.5-.95-.3-3.2.95-6.25.95t-6.25-.95z"/><path id="t" fill="#513F35" d="M64 108.45q5.05 0 9.35-2.3 3.3-1.75 4.7-3.85.75-1.05.35-1.75-.35-.7-1.5-.7H51.05q-1.15 0-1.5.7-.35.7.35 1.75 1.35 2.1 4.7 3.85 4.3 2.3 9.4 2.3z"/><path id="u" fill="#FFA000" d="M109.15 77.45L116 55.4q-2.75-9.8-10.4-19.6-15.2-19.65-39.4-19.65-24.15 0-41.15 20.95Q16.55 47.55 12.9 58l5.95 19.45q12.4-13.05 16.95-17.4.2-.2.5-.1.25.15.25.45-.3 2.75-.4 5-.05.4.3.7.3.3.7.2 9.7-1.85 19.8-6.45.2-.1.4.05.2.1.2.35-.1 2.65 0 4.2 0 .4.3.65t.7.2q5.3-.85 10.85-2.95 3.7-1.4 6.4-2.9.8-.4 1.7-.1Q82.15 61 88.75 65q.3.2.65.1.35-.1.5-.45.75-1.25 2.2-4.2.1-.2.3-.2.2-.05.35.1 6.65 6.6 16.4 17.1z"/><path id="v" fill="#444" d="M40.15 72.35q-1.7 2-1.7 4.85 0 2.9 1.7 4.9 1.65 2 4.05 2 2.35 0 4.05-2 1.65-2.05 1.65-4.9 0-2.85-1.65-4.85-1.7-2.05-4.05-2.05-2.4 0-4.05 2.05z"/><path id="w" fill="#444" d="M87.85 72.35q-1.7-2.05-4.05-2.05-2.4 0-4.05 2.05-1.7 2-1.7 4.85 0 2.85 1.7 4.9 1.65 2 4.05 2 2.35 0 4.05-2 1.65-2 1.65-4.9 0-2.85-1.65-4.85z"/><path id="x" fill="#B2DFDB" d="M73.5 111.75q-6.8 3.8-6.8 10.25-.3 7.1 0 7.1h43.1q.35 0 0-6.8v-.3q0-6.45-6.8-10.25-5.15-2.9-10.05-2.9h-9.4q-4.9 0-10.05 2.9z"/><path id="y" fill="#E59900" d="M88.25 116.35q1.95 0 3.35-1.4 1.35-1.4 1.35-3.3v-3.6h-9.4v3.6q0 1.95 1.4 3.35 1.35 1.35 3.3 1.35z"/><path id="z" fill="#FFA000" d="M102.5 93.4q16-15.05 16-36.3 0-21.2-16-36.25Q86.55 5.8 64 5.8T25.45 20.85Q9.5 35.85 9.5 57.1t15.95 36.3q16 15.05 38.55 15.05 22.55 0 38.5-15.05z"/><path id="A" fill="#E59600" d="M108.6 69.8h-3.8v21.4q5.05 0 8.3-2.55 3.8-2.95 3.8-8.45 0-5.6-4.15-8.55l-4.15-1.85z"/><path id="B" fill="#E59600" d="M23.15 69.8h-3.8l-4.15 1.85q-4.15 2.95-4.15 8.55 0 5.5 3.8 8.45 3.25 2.55 8.3 2.55V69.8z"/><path id="C" fill="#FCC21B" d="M95.55 43q-5.35-6.7-14.5-10.3-8.1-3.2-17.05-3.2-8.95 0-17.1 3.2-9.15 3.6-14.5 10.3-11.25 14-11.2 37 .05 10.05 2.85 17.2 3.05 7.7 9.85 13.35 13.25 11.1 29.45 11.1 8.25 0 16.2-2.75 8.4-2.95 14.5-8.3 6.7-5.9 9.75-13.45 2.9-7.25 2.95-17.15.05-23-11.2-37z"/><path id="D" fill="#E59600" d="M57.75 89.65q-.65-.2-1 .3-.3.45 0 .95.7 1.2 2.5 2.3 2.25 1.4 4.75 1.4 2.45 0 4.75-1.4 1.75-1.1 2.45-2.3.3-.5 0-.95-.3-.5-.95-.3-3.2.95-6.25.95t-6.25-.95z"/><path id="E" fill="#513F35" d="M64 108.45q5.05 0 9.35-2.3 3.3-1.75 4.7-3.85.75-1.05.35-1.75-.35-.7-1.5-.7H51.05q-1.15 0-1.5.7-.35.7.35 1.75 1.35 2.1 4.7 3.85 4.3 2.3 9.4 2.3z"/><path id="F" fill="#FFA000" d="M109.15 77.45L116 55.4q-2.75-9.8-10.4-19.6-15.2-19.65-39.4-19.65-24.15 0-41.15 20.95Q16.55 47.55 12.9 58l5.95 19.45q12.4-13.05 16.95-17.4.2-.2.5-.1.25.15.25.45-.3 2.75-.4 5-.05.4.3.7.3.3.7.2 9.7-1.85 19.8-6.45.2-.1.4.05.2.1.2.35-.1 2.65 0 4.2 0 .4.3.65t.7.2q5.3-.85 10.85-2.95 3.7-1.4 6.4-2.9.8-.4 1.7-.1Q82.15 61 88.75 65q.3.2.65.1.35-.1.5-.45.75-1.25 2.2-4.2.1-.2.3-.2.2-.05.35.1 6.65 6.6 16.4 17.1z"/><path id="G" fill="#444" d="M40.15 72.35q-1.7 2-1.7 4.85 0 2.9 1.7 4.9 1.65 2 4.05 2 2.35 0 4.05-2 1.65-2.05 1.65-4.9 0-2.85-1.65-4.85-1.7-2.05-4.05-2.05-2.4 0-4.05 2.05z"/><path id="H" fill="#444" d="M87.85 72.35q-1.7-2.05-4.05-2.05-2.4 0-4.05 2.05-1.7 2-1.7 4.85 0 2.85 1.7 4.9 1.65 2 4.05 2 2.35 0 4.05-2 1.65-2 1.65-4.9 0-2.85-1.65-4.85z"/></defs><use transform="translate(18 -.3) scale(.5625)" xlink:href="#a"/><use transform="translate(49.5 -.3) scale(.5625)" xlink:href="#b"/><use transform="translate(17.85 -.3) scale(.5625)" xlink:href="#c"/><use transform="translate(17.9 -.3) scale(.5625)" xlink:href="#d"/><use transform="matrix(.27599 0 0 .27533 19 2.25)" xlink:href="#e"/><use transform="matrix(.27599 0 0 .27533 19 2.25)" xlink:href="#f"/><use transform="matrix(.27608 0 0 .27542 19 2.5)" xlink:href="#g"/><use transform="matrix(.27608 0 0 .27542 19 2.5)" xlink:href="#h"/><use transform="matrix(.27608 0 0 .27542 19 2.5)" xlink:href="#i"/><use transform="matrix(.27608 0 0 .27542 19 2.5)" xlink:href="#j"/><use transform="matrix(.27608 0 0 .27542 19 2.5)" xlink:href="#k"/><use transform="matrix(.49081 0 0 .48964 19 2.3)" xlink:href="#l"/><use transform="translate(-25.7 1.45) scale(.54631)" xlink:href="#m"/><use transform="translate(-25.7 1.45) scale(.54631)" xlink:href="#n"/><use transform="matrix(.20752 0 0 .20744 9.45 36.35)" xlink:href="#o"/><use transform="matrix(.20746 0 0 .20737 9.45 36.35)" xlink:href="#p"/><use transform="matrix(.20746 0 0 .20737 9.45 36.35)" xlink:href="#q"/><use transform="matrix(.20746 0 0 .20737 9.45 36.35)" xlink:href="#r"/><use transform="matrix(.20752 0 0 .20744 9.45 36.35)" xlink:href="#s"/><use transform="matrix(.20752 0 0 .20744 9.45 36.35)" xlink:href="#t"/><use transform="matrix(.20752 0 0 .20744 9.45 36.35)" xlink:href="#u"/><use transform="matrix(.20746 0 0 .20738 9.45 36.85)" xlink:href="#v"/><use transform="matrix(.20746 0 0 .20738 9.45 36.85)" xlink:href="#w"/><use transform="translate(1.2 1.45) scale(.54634)" xlink:href="#x"/><use transform="translate(1.2 1.45) scale(.54634)" xlink:href="#y"/><use transform="matrix(.20755 0 0 .20747 36.3 36.4)" xlink:href="#z"/><use transform="matrix(.2075 0 0 .20741 36.3 36.4)" xlink:href="#A"/><use transform="matrix(.2075 0 0 .20741 36.3 36.4)" xlink:href="#B"/><use transform="matrix(.2075 0 0 .20741 36.3 36.4)" xlink:href="#C"/><use transform="matrix(.20755 0 0 .20747 36.3 36.4)" xlink:href="#D"/><use transform="matrix(.20755 0 0 .20747 36.3 36.4)" xlink:href="#E"/><use transform="matrix(.20755 0 0 .20747 36.3 36.4)" xlink:href="#F"/><use transform="matrix(.2075 0 0 .20743 36.3 36.95)" xlink:href="#G"/><use transform="matrix(.2075 0 0 .20743 36.3 36.95)" xlink:href="#H"/></svg>