<svg xmlns="http://www.w3.org/2000/svg" xmlns:xlink="http://www.w3.org/1999/xlink" preserveAspectRatio="none" viewBox="0 0 72 72"><defs><path id="b" fill="#7E57C2" d="M8.85 69.75V72h54.5v-2.25q0-7.45-5.35-12.55-4.95-4.6-12.95-6-9.1-1.55-18.45.7-7.75 1.8-12.45 6.1-5.3 4.85-5.3 11.75z"/><path id="c" fill="#7E57C2" d="M13.35 56.7q-5.5 5.25-5.5 13V72h56.3v-2.3q0-7.15-5.45-12.15-4.85-4.45-12.95-6.3-9.65-2.35-19-.75-8.3 1.45-13.4 6.2z"/><path id="d" fill="#99674F" d="M64 74.15q2.9 0 4.95-2.05Q71 70.05 71 67.15v-6.4H57v6.4q0 2.9 2.05 4.95 2.05 2.05 4.95 2.05z"/><path id="e" fill="#6D4C41" d="M118.2 71.6l.3-15.8L65 53.6 9.5 55.8l.3 15.8q.7 18.65 2.85 33.05 2 13.55 3.95 16.2 2.4 3.3 11.2 2.3 6.3-.75 20.9-3 9.45-1.5 14.8-1.5h.95q5.35 0 14.8 1.5 14.6 2.25 20.85 3 8.8 1 11.2-2.3 2-2.65 4-16.2 2.15-14.4 2.9-33.05z"/><path id="f" fill="#6D4C41" d="M102.5 91.65q16-14.75 16-35.55 0-20.85-16-35.55Q86.55 5.8 64 5.8q-22.6 0-38.55 14.75Q9.5 35.25 9.5 56.1q0 20.8 15.95 35.55 16 14.75 38.55 14.75 22.55 0 38.5-14.75z"/><path id="g" fill="#CC9970" d="M106.75 73.45q0-28.7-8.9-42.6Q87.7 14.9 64.15 14.9q-23.55 0-33.9 16.1-9.05 14.15-9.05 42.8 0 24 15.45 37.5 12.35 10.85 27.5 10.85 15.05 0 27.35-11 15.25-13.7 15.25-37.7z"/><path id="h" fill="#6D4C41" d="M108.05 32.25q-3.2-6.5-10.25-13.05Q83.65 6.15 64.4 6.15q-19.2 0-33.35 12.75Q24 25.3 20.8 31.65v39.8q19-3.2 37.35-14.65 10.5-6.55 18.3-14 .3-.3.7-.25.4.1.6.5Q84.05 56 96.7 65q6.3 4.55 11.35 6.45v-39.2z"/><path id="i" fill="#444" d="M40.15 72.35q-1.7 2-1.7 4.85 0 2.9 1.7 4.9 1.65 2 4.05 2 2.35 0 4.05-2 1.65-2.05 1.65-4.9 0-2.85-1.65-4.85-1.7-2.05-4.05-2.05-2.4 0-4.05 2.05z"/><path id="j" fill="#444" d="M87.85 72.35q-1.7-2.05-4.05-2.05-2.4 0-4.05 2.05-1.7 2-1.7 4.85 0 2.85 1.7 4.9 1.65 2 4.05 2 2.35 0 4.05-2 1.65-2 1.65-4.9 0-2.85-1.65-4.85z"/><path id="k" fill="#513F35" d="M63.95 108.75q4.9 0 9-2.15 3.2-1.7 4.5-3.7.7-1.05.35-1.7-.35-.65-1.45-.65H51.6q-1.1 0-1.45.65-.35.65.35 1.7 1.3 2 4.5 3.7 4.1 2.15 8.95 2.15z"/><path id="l" fill="#99674F" d="M58 90q-.65-.15-.9.3-.3.4-.05.9.7 1.15 2.4 2.2 2.2 1.35 4.55 1.35 2.35 0 4.5-1.35 1.7-1.05 2.4-2.2.25-.5 0-.9-.3-.45-.95-.3-3.15.9-5.95.9-2.85 0-6-.9z"/><path id="m" fill="url(#a)" d="M36.05 39.25q-7.45 0-12.65 4.75-5.25 4.7-5.25 11.45 0 6.7 5.25 11.45 5.2 4.75 12.65 4.75 7.35 0 12.6-4.75t5.25-11.45q0-6.75-5.25-11.45-5.25-4.75-12.6-4.75z"/><radialGradient id="a" cx="0" cy="0" r="16.175" fx="0" fy="0" gradientTransform="matrix(1 0 0 .898 36.05 55.75)" gradientUnits="userSpaceOnUse" spreadMethod="pad"><stop offset="0%" stop-color="#FFF"/><stop offset="100%" stop-color="#FFF" stop-opacity="0"/></radialGradient><g id="n"><path fill="#00ACC1" d="M39.1 62.75h-4.7q-1.4 0-2.45 1.05-1 .95-1.05 2.5-.15 3.25-.4 5.7h12.55q-.3-2.45-.4-5.7-.05-1.55-1.1-2.5-1-1.05-2.45-1.05z"/><path fill="#4DD0E1" d="M12.2 49.85q-1 1.1-1 2.55V72h19.3q.25-2.45.4-5.7.05-1.55 1.05-2.5 1.05-1.05 2.45-1.05h4.7q1.45 0 2.45 1.05 1.05.95 1.1 2.5.1 3.25.4 5.7H60.9V52.4q0-1.45-1-2.55-1-1-2.4-1H14.6q-1.4 0-2.4 1z"/></g></defs><use transform="matrix(1.03339 0 0 1.03339 -1.3 -2.4)" xlink:href="#b"/><use xlink:href="#c"/><use transform="matrix(.88 0 0 .88 -20.25 -8.05)" xlink:href="#d"/><use transform="matrix(.42116 0 0 .42116 9.05 -2.25)" xlink:href="#e"/><use transform="matrix(.42116 0 0 .42116 9.05 -2.25)" xlink:href="#f"/><use transform="matrix(.42116 0 0 .42116 9.05 -2.25)" xlink:href="#g"/><use transform="matrix(.42116 0 0 .42116 9.05 -2.25)" xlink:href="#h"/><use transform="matrix(.4211 0 0 .4211 9.05 -2.25)" xlink:href="#i"/><use transform="matrix(.4211 0 0 .4211 9.05 -2.25)" xlink:href="#j"/><use transform="matrix(.4211 0 0 .4211 9.05 -2.25)" xlink:href="#k"/><use transform="matrix(.4211 0 0 .4211 9.05 -2.25)" xlink:href="#l"/><use xlink:href="#m"/><use transform="translate(-.05)" xlink:href="#n"/></svg>