<svg xmlns="http://www.w3.org/2000/svg" xmlns:xlink="http://www.w3.org/1999/xlink" preserveAspectRatio="none" viewBox="0 0 72 72"><defs><path id="a" fill="#6D4C41" d="M110.9 36.8q.3-6.85.3-12.1H72.65q0 5.8.35 12.95.75 14.3 2.6 21 1.3 4.6 2.75 5.95 1.9 1.7 5-.6l17.1-.15q3.15 2.4 5.55.65 2.2-1.6 2.95-6 1.4-8.05 1.95-21.7z"/><path id="b" fill="#6D4C41" d="M91.9 42q8 0 13.65-5.05 5.65-5.1 5.65-12.25 0-7.2-5.65-12.25-5.65-5.1-13.65-5.1t-13.6 5.1q-5.65 5.05-5.65 12.25 0 7.15 5.65 12.25Q83.9 42 91.9 42z"/><path id="c" fill="#CC9970" d="M112.7 61.65l-9.4-2.35.3 4.1L119.35 87q.85 1.2 2.3 1.45 1.45.2 2.55-.7 1-.8 1.15-2.05.2-1.3-.5-2.35l-6.55-10q-3-4.75-4.95-9.95l-.65-1.75z"/><path id="d" fill="#CC9970" d="M80.65 59.1l-9.4 2.35-.65 1.75q-1.95 5.2-4.95 9.95l-6.55 10q-.7 1.05-.5 2.3.15 1.25 1.15 2.1 1.15.9 2.6.7Q63.8 88 64.6 86.8l15.75-23.6.3-4.1z"/><path id="e" fill="#E53935" d="M91.9 70.3V49.85q-6.35 0-10.25 1-5 1.35-7.5 4.15-1.85 2.1-3.75 7.1l21.5 8.2z"/><path id="f" fill="#E53935" d="M88.65 55.7v15.75h5.3V55.7h-5.3z"/><path id="g" fill="#E53935" d="M90.8 79.4V62H78.55v17.4H90.8z"/><path id="h" fill="#E53935" d="M91.9 96.95v-19.5H78.6l-8.2 19.5h21.5z"/><path id="i" fill="#CC9970" d="M54 71.8h5.2V54.55H54V71.8z"/><path id="j" fill="#CC9970" d="M49.4 71.8V54.55h-5.2V71.8h5.2z"/><path id="k" fill="#444" d="M78.2 122.7q-1.15 1.15-1.15 2.8v2.5h12v-2.5q0-1.65-1.15-2.8-1.2-1.2-2.85-1.2h-4q-1.7 0-2.85 1.2z"/><path id="l" fill="#E53935" d="M91.9 49.85V70.3l21.5-8.2q-1.85-5-3.7-7.1-2.5-2.8-7.55-4.15-3.9-1-10.25-1z"/><path id="m" fill="#E53935" d="M105.2 79.4V62H91.9v17.4h13.3z"/><path id="n" fill="#E53935" d="M105.2 77.45H91.9v19.5h21.5l-8.2-19.5z"/><path id="o" fill="#444" d="M94.75 125.5v2.5h12v-2.5q0-1.65-1.15-2.8-1.15-1.2-2.85-1.2h-4q-1.65 0-2.8 1.2-1.2 1.15-1.2 2.8z"/><path id="p" fill="#99674F" d="M97 46.75H86.8v5.15q0 2.2 1.45 3.55 1.4 1.35 3.65 1.35t3.65-1.35Q97 54.05 97 51.9v-5.15z"/><path id="q" fill="#99674F" d="M54.55 29.15h.05V26.3q0-.6-.35-1.05-.4-.45-.9-.45h-3.3q-.5 0-.9.5-.3.45-.3 1.05v2.85l.75.2q1 .2 2.1.2 1.75 0 2.85-.45z"/><path id="r" fill="#E53935" d="M89.85 76.45v20.5h4.1v-20.5h-4.1z"/><path id="s" fill="#CC2828" d="M91.9 77.5v-6.05H78.6v6.05h13.3z"/><path id="t" fill="#CC2828" d="M105.2 77.5v-6.05H91.9v6.05h13.3z"/><path id="u" fill="#CC2828" d="M89.85 71.45v6.05h4.1v-6.05h-4.1z"/><path id="v" fill="#CC9970" d="M103.8 17.75q-3.55-6.2-11.9-6.2-8.35 0-11.9 6.2Q76.95 23 76.95 33.6q0 8.7 5.3 13.3 4.15 3.55 9.65 3.55 5.45 0 9.65-3.6 5.3-4.55 5.3-13.25 0-10.6-3.05-15.85z"/><path id="w" fill="#6D4C41" d="M96.4 21.65q.3-.3.5.1 2.3 4.7 6.85 7.95 2.3 1.65 4.15 2.35v-14.2q-1.15-2.35-3.7-4.7Q99.05 8.4 92.05 8.4q-6.95 0-12.1 4.6-1.6 1.45-2.8 3.15l-.9 1.45v14.45q6.85-1.15 13.55-5.3 3.85-2.4 6.6-5.1z"/><path id="x" fill="#444" d="M86.9 34.5q0-1.05-.6-1.75-.6-.75-1.45-.75t-1.45.75q-.6.7-.6 1.75 0 1 .6 1.75.6.7 1.45.7t1.45-.7q.6-.75.6-1.75z"/><path id="y" fill="#444" d="M97.5 32.75q-.6.7-.6 1.75 0 1 .6 1.75.6.7 1.45.7t1.45-.7q.6-.75.6-1.75 0-1.05-.6-1.75-.6-.75-1.45-.75t-1.45.75z"/><path id="z" fill="#4C3734" d="M87.1 43.65q.45.7 1.6 1.3 1.45.8 3.2.8 1.75 0 3.2-.75 1.15-.65 1.6-1.35.25-.35.1-.6-.1-.25-.5-.25h-8.8q-.4 0-.5.25-.15.25.1.6z"/><path id="A" fill="#99674F" d="M89.4 39.75q.25.4.85.8.8.45 1.65.45.85 0 1.6-.45.65-.4.85-.8.1-.15 0-.3t-.3-.1q-1.1.3-2.15.3-1 0-2.15-.3-.2-.05-.3.1-.15.15-.05.3z"/><path id="B" fill="#232020" d="M110.9 36.8q.3-6.85.3-12.1H72.65q0 5.8.35 12.95.75 14.3 2.6 21 1.3 4.6 2.75 5.95 1.9 1.7 5-.6l17.1-.15q3.15 2.4 5.55.65 2.2-1.6 2.95-6 1.4-8.05 1.95-21.7z"/><path id="C" fill="#232020" d="M91.9 42q8 0 13.65-5.05 5.65-5.1 5.65-12.25 0-7.2-5.65-12.25-5.65-5.1-13.65-5.1t-13.6 5.1q-5.65 5.05-5.65 12.25 0 7.15 5.65 12.25Q83.9 42 91.9 42z"/><path id="D" fill="#8E726A" d="M112.7 61.65l-9.4-2.35.3 4.1L119.35 87q.85 1.2 2.3 1.45 1.45.2 2.55-.7 1-.8 1.15-2.05.2-1.3-.5-2.35l-6.55-10q-3-4.75-4.95-9.95l-.65-1.75z"/><path id="E" fill="#8E726A" d="M80.65 59.1l-9.4 2.35-.65 1.75q-1.95 5.2-4.95 9.95l-6.55 10q-.7 1.05-.5 2.3.15 1.25 1.15 2.1 1.15.9 2.6.7Q63.8 88 64.6 86.8l15.75-23.6.3-4.1z"/><path id="F" fill="#7E57C2" d="M91.9 70.3V49.85q-6.35 0-10.25 1-5 1.35-7.5 4.15-1.85 2.1-3.75 7.1l21.5 8.2z"/><path id="G" fill="#7E57C2" d="M88.65 55.7v15.75h5.3V55.7h-5.3z"/><path id="H" fill="#7E57C2" d="M90.8 79.4V62H78.55v17.4H90.8z"/><path id="I" fill="#7E57C2" d="M91.9 96.95v-19.5H78.6l-8.2 19.5h21.5z"/><path id="J" fill="#8E726A" d="M54 71.8h5.2V54.55H54V71.8z"/><path id="K" fill="#8E726A" d="M49.4 71.8V54.55h-5.2V71.8h5.2z"/><path id="L" fill="#444" d="M78.2 122.7q-1.15 1.15-1.15 2.8v2.5h12v-2.5q0-1.65-1.15-2.8-1.2-1.2-2.85-1.2h-4q-1.7 0-2.85 1.2z"/><path id="M" fill="#7E57C2" d="M91.9 49.85V70.3l21.5-8.2q-1.85-5-3.7-7.1-2.5-2.8-7.55-4.15-3.9-1-10.25-1z"/><path id="N" fill="#7E57C2" d="M105.2 79.4V62H91.9v17.4h13.3z"/><path id="O" fill="#7E57C2" d="M105.2 77.45H91.9v19.5h21.5l-8.2-19.5z"/><path id="P" fill="#444" d="M94.75 125.5v2.5h12v-2.5q0-1.65-1.15-2.8-1.15-1.2-2.85-1.2h-4q-1.65 0-2.8 1.2-1.2 1.15-1.2 2.8z"/><path id="Q" fill="#563E37" d="M97 46.75H86.8v5.15q0 2.2 1.45 3.55 1.4 1.35 3.65 1.35t3.65-1.35Q97 54.05 97 51.9v-5.15z"/><path id="R" fill="#563E37" d="M54.55 29.15h.05V26.3q0-.6-.35-1.05-.4-.45-.9-.45h-3.3q-.5 0-.9.5-.3.45-.3 1.05v2.85l.75.2q1 .2 2.1.2 1.75 0 2.85-.45z"/><path id="S" fill="#7E57C2" d="M89.85 76.45v20.5h4.1v-20.5h-4.1z"/><path id="T" fill="#6443A8" d="M91.9 77.5v-6.05H78.6v6.05h13.3z"/><path id="U" fill="#6443A8" d="M105.2 77.5v-6.05H91.9v6.05h13.3z"/><path id="V" fill="#6443A8" d="M89.85 71.45v6.05h4.1v-6.05h-4.1z"/><path id="W" fill="#8E726A" d="M103.8 17.75q-3.55-6.2-11.9-6.2-8.35 0-11.9 6.2Q76.95 23 76.95 33.6q0 8.7 5.3 13.3 4.15 3.55 9.65 3.55 5.45 0 9.65-3.6 5.3-4.55 5.3-13.25 0-10.6-3.05-15.85z"/><path id="X" fill="#232020" d="M96.4 21.65q.3-.3.5.1 2.3 4.7 6.85 7.95 2.3 1.65 4.15 2.35v-14.2q-1.15-2.35-3.7-4.7Q99.05 8.4 92.05 8.4q-6.95 0-12.1 4.6-1.6 1.45-2.8 3.15l-.9 1.45v14.45q6.85-1.15 13.55-5.3 3.85-2.4 6.6-5.1z"/><path id="Y" fill="#444" d="M86.9 34.5q0-1.05-.6-1.75-.6-.75-1.45-.75t-1.45.75q-.6.7-.6 1.75 0 1 .6 1.75.6.7 1.45.7t1.45-.7q.6-.75.6-1.75z"/><path id="Z" fill="#444" d="M97.5 32.75q-.6.7-.6 1.75 0 1 .6 1.75.6.7 1.45.7t1.45-.7q.6-.75.6-1.75 0-1.05-.6-1.75-.6-.75-1.45-.75t-1.45.75z"/><path id="aa" fill="#4C3734" d="M87.1 43.65q.45.7 1.6 1.3 1.45.8 3.2.8 1.75 0 3.2-.75 1.15-.65 1.6-1.35.25-.35.1-.6-.1-.25-.5-.25h-8.8q-.4 0-.5.25-.15.25.1.6z"/><path id="ab" fill="#563E37" d="M89.4 39.75q.25.4.85.8.8.45 1.65.45.85 0 1.6-.45.65-.4.85-.8.1-.15 0-.3t-.3-.1q-1.1.3-2.15.3-1 0-2.15-.3-.2-.05-.3.1-.15.15-.05.3z"/></defs><use transform="translate(-31.45) scale(.5625)" xlink:href="#a"/><use transform="translate(-31.45) scale(.5625)" xlink:href="#b"/><use transform="translate(-31.45) scale(.5625)" xlink:href="#c"/><use transform="translate(-31.45) scale(.5625)" xlink:href="#d"/><use transform="translate(-31.45) scale(.5625)" xlink:href="#e"/><use transform="translate(-31.45) scale(.5625)" xlink:href="#f"/><use transform="translate(-31.45) scale(.5625)" xlink:href="#g"/><use transform="translate(-31.45) scale(.5625)" xlink:href="#h"/><use transform="translate(-31.45)" xlink:href="#i"/><use transform="translate(-31.45)" xlink:href="#j"/><use transform="translate(-31.45) scale(.5625)" xlink:href="#k"/><use transform="translate(-31.45) scale(.5625)" xlink:href="#l"/><use transform="translate(-31.45) scale(.5625)" xlink:href="#m"/><use transform="translate(-31.45) scale(.5625)" xlink:href="#n"/><use transform="translate(-31.45) scale(.5625)" xlink:href="#o"/><use transform="translate(-31.45) scale(.5625)" xlink:href="#p"/><use transform="translate(-31.45)" xlink:href="#q"/><use transform="translate(-31.45) scale(.5625)" xlink:href="#r"/><use transform="translate(-31.45) scale(.5625)" xlink:href="#s"/><use transform="translate(-31.45) scale(.5625)" xlink:href="#t"/><use transform="translate(-31.45) scale(.5625)" xlink:href="#u"/><use transform="matrix(.56244 0 0 .56244 -31.45 0)" xlink:href="#v"/><use transform="translate(-31.45) scale(.5625)" xlink:href="#w"/><use transform="translate(-31.45) scale(.5625)" xlink:href="#x"/><use transform="translate(-31.45) scale(.5625)" xlink:href="#y"/><use transform="translate(-31.45) scale(.5625)" xlink:href="#z"/><use transform="translate(-31.45) scale(.5625)" xlink:href="#A"/><use transform="scale(.5625)" xlink:href="#B"/><use transform="scale(.5625)" xlink:href="#C"/><use transform="scale(.5625)" xlink:href="#D"/><use transform="scale(.5625)" xlink:href="#E"/><use transform="scale(.5625)" xlink:href="#F"/><use transform="scale(.5625)" xlink:href="#G"/><use transform="scale(.5625)" xlink:href="#H"/><use transform="scale(.5625)" xlink:href="#I"/><use xlink:href="#J"/><use xlink:href="#K"/><use transform="scale(.5625)" xlink:href="#L"/><use transform="scale(.5625)" xlink:href="#M"/><use transform="scale(.5625)" xlink:href="#N"/><use transform="scale(.5625)" xlink:href="#O"/><use transform="scale(.5625)" xlink:href="#P"/><use transform="scale(.5625)" xlink:href="#Q"/><use xlink:href="#R"/><use transform="scale(.5625)" xlink:href="#S"/><use transform="scale(.5625)" xlink:href="#T"/><use transform="scale(.5625)" xlink:href="#U"/><use transform="scale(.5625)" xlink:href="#V"/><use transform="rotate(.078) scale(.56247)" xlink:href="#W"/><use transform="scale(.5625)" xlink:href="#X"/><use transform="scale(.5625)" xlink:href="#Y"/><use transform="scale(.5625)" xlink:href="#Z"/><use transform="scale(.5625)" xlink:href="#aa"/><use transform="scale(.5625)" xlink:href="#ab"/></svg>