<svg xmlns="http://www.w3.org/2000/svg" xmlns:xlink="http://www.w3.org/1999/xlink" preserveAspectRatio="none" viewBox="0 0 72 72"><defs><path id="a" fill="#312D2D" d="M102.5 91.65q16-14.75 16-35.55 0-20.85-16-35.55Q86.55 5.8 64 5.8q-22.6 0-38.55 14.75Q9.5 35.25 9.5 56.1q0 20.8 15.95 35.55 16 14.75 38.55 14.75 22.55 0 38.5-14.75z"/><path id="b" fill="#DBA689" d="M108.6 69.8h-3.8v21.4q5.05 0 8.3-2.55 3.8-2.95 3.8-8.45 0-5.6-4.15-8.55l-4.15-1.85z"/><path id="c" fill="#DBA689" d="M23.15 69.8h-3.8l-4.15 1.85q-4.15 2.95-4.15 8.55 0 5.5 3.8 8.45 3.25 2.55 8.3 2.55V69.8z"/><path id="d" fill="#312D2D" d="M63.35 59.8q-.3-1.9-1.2-3.5-1.85-3.2-6.05-3.4-3.55-.15-6 2.35-2.55 2.6-1.8 6 1 4.4 5.6 6.2 4.2 1.65 8.5.25 1.1-.35 2.2-1.15 1.5-1.15 1.15-2.05-.15-.25-.7-.5-.65-.25-.8-.4-.55-.45-.7-1.8-.1-1.5-.2-2z"/><path id="e" fill="#312D2D" d="M39.2 98.45Q34.9 94 28.55 94.1q-7.45.15-10.8 5.85-1.55 2.55-2.25 6.15-.15.9-.4 3.6-.35 2.4-1.35 3.15-.25.2-1.4.7-.95.4-1.2.9-.8 1.6 1.9 3.6 2 1.55 3.85 2.1 7.65 2.6 15.15-.2 8.25-3.05 10.15-10.8 1.45-6.1-3-10.7z"/><path id="f" fill="#FADCBC" d="M95.55 43q-5.35-6.7-14.5-10.3-8.1-3.2-17.05-3.2-8.95 0-17.1 3.2-9.15 3.6-14.5 10.3-11.25 14-11.2 37 .05 10.05 2.85 17.2 3.05 7.7 9.85 13.35 13.25 11.1 29.45 11.1 8.25 0 16.2-2.75 8.4-2.95 14.5-8.3 6.7-5.9 9.75-13.45 2.9-7.25 2.95-17.15.05-23-11.2-37z"/><path id="g" fill="#DBA689" d="M57.75 89.65q-.65-.2-1 .3-.3.45 0 .95.7 1.2 2.5 2.3 2.25 1.4 4.75 1.4 2.45 0 4.75-1.4 1.75-1.1 2.45-2.3.3-.5 0-.95-.3-.5-.95-.3-3.2.95-6.25.95t-6.25-.95z"/><path id="h" fill="#513F35" d="M78.4 100.55q-.35-.7-1.5-.7H51.05q-1.15 0-1.5.7-.35.7.35 1.75 1.35 2.1 4.7 3.85 4.3 2.3 9.4 2.3 5.05 0 9.35-2.3 3.3-1.75 4.7-3.85.75-1.05.35-1.75z"/><path id="i" fill="#312D2D" d="M108.1 74.35l3.45-6.7 4.9-15.05-4.7-16.75-35.55-23.7H51.55L16 35.85 11.35 52.6l4.9 15.05 3.45 6.7Q32.65 71.4 46.3 63.1q11.85-7.2 16.95-13.55.25-.3.65-.3t.6.3q5.15 6.4 16.8 13.5 13.5 8.25 26.8 11.3z"/><path id="j" fill="#444" d="M40.15 72.35q-1.7 2-1.7 4.85 0 2.9 1.7 4.9 1.65 2 4.05 2 2.35 0 4.05-2 1.65-2.05 1.65-4.9 0-2.85-1.65-4.85-1.7-2.05-4.05-2.05-2.4 0-4.05 2.05z"/><path id="k" fill="#444" d="M87.85 72.35q-1.7-2.05-4.05-2.05-2.4 0-4.05 2.05-1.7 2-1.7 4.85 0 2.85 1.7 4.9 1.65 2 4.05 2 2.35 0 4.05-2 1.65-2 1.65-4.9 0-2.85-1.65-4.85z"/></defs><use transform="scale(.5625)" xlink:href="#a"/><use transform="scale(.5625)" xlink:href="#b"/><use transform="scale(.5625)" xlink:href="#c"/><use xlink:href="#d"/><use transform="scale(.5625)" xlink:href="#e"/><use transform="scale(.5625)" xlink:href="#f"/><use transform="scale(.5625)" xlink:href="#g"/><use transform="scale(.5625)" xlink:href="#h"/><use transform="scale(.5625)" xlink:href="#i"/><use transform="translate(0 1.75) scale(.5625)" xlink:href="#j"/><use transform="translate(0 1.75) scale(.5625)" xlink:href="#k"/></svg>