
<svg xmlns="http://www.w3.org/2000/svg" version="1.1" xmlns:xlink="http://www.w3.org/1999/xlink" preserveAspectRatio="none" x="0px" y="0px" width="72px" height="72px" viewBox="0 0 72 72">
<defs>
<g id="Layer0_0_MEMBER_0_MEMBER_0_MEMBER_0_FILL">
<path fill="#7A4C32" stroke="none" d="
M 106.9 66.05
L 103.3 66.05 103.3 86.35
Q 108.05 86.35 111.15 83.95 114.75 81.15 114.75 75.9 114.75 70.6 110.85 67.8
L 106.9 66.05 Z"/>
</g>

<g id="Layer0_0_MEMBER_0_MEMBER_1_MEMBER_0_FILL">
<path fill="#7A4C32" stroke="none" d="
M 24.7 66.05
L 21.05 66.05 17.15 67.8
Q 13.2 70.6 13.2 75.9 13.2 81.15 16.8 83.95 19.9 86.35 24.7 86.35
L 24.7 66.05 Z"/>
</g>

<g id="Layer0_0_MEMBER_1_MEMBER_0_FILL">
<path fill="#E0E0E0" stroke="none" d="
M 51.9 49.3
Q 51.9 38.55 47.85 31.95 43.3 24.6 34.9 24.6 24.8 24.6 18.85 28.55 11.5 33.4 10.85 44 10.1 56 15.95 64.75 21.75 73.45 30.6 73.45 39.4 73.45 45.65 66.4 51.9 59.3 51.9 49.3 Z"/>
</g>

<g id="Layer0_0_MEMBER_1_MEMBER_1_FILL">
<path fill="#E0E0E0" stroke="none" d="
M 109.15 28.5
Q 103.2 24.6 93.05 24.6 84.7 24.6 80.15 31.95 76.05 38.6 76.05 49.3 76.05 59.3 82.3 66.4 88.55 73.45 97.35 73.45 106.2 73.45 112.05 64.7 117.85 56 117.1 43.95 116.5 33.35 109.15 28.5 Z"/>
</g>

<g id="Layer0_0_MEMBER_2_FILL">
<path fill="#AD6F43" stroke="none" d="
M 15.25 16.5
Q 10.5 24.55 11.9 41.5 13.2 57.15 20.85 63.75 26.5 68.6 36 68.6
L 36 6.95
Q 20.8 6.95 15.25 16.5 Z"/>
</g>

<g id="Layer0_0_MEMBER_3_FILL">
<path fill="#AD6F43" stroke="none" d="
M 60.05 41.5
Q 61.45 24.55 56.75 16.5 51.15 6.95 36 6.95
L 36 68.6
Q 45.5 68.6 51.15 63.75 58.75 57.15 60.05 41.5 Z"/>
</g>

<g id="Layer0_0_MEMBER_7_MEMBER_0_FILL">
<path fill="#444444" stroke="none" d="
M 40.15 72.35
Q 38.45 74.35 38.45 77.2 38.45 80.1 40.15 82.1 41.8 84.1 44.2 84.1 46.55 84.1 48.25 82.1 49.9 80.05 49.9 77.2 49.9 74.35 48.25 72.35 46.55 70.3 44.2 70.3 41.8 70.3 40.15 72.35 Z"/>
</g>

<g id="Layer0_0_MEMBER_8_MEMBER_0_FILL">
<path fill="#444444" stroke="none" d="
M 87.85 72.35
Q 86.15 70.3 83.8 70.3 81.4 70.3 79.75 72.35 78.05 74.35 78.05 77.2 78.05 80.05 79.75 82.1 81.4 84.1 83.8 84.1 86.15 84.1 87.85 82.1 89.5 80.1 89.5 77.2 89.5 74.35 87.85 72.35 Z"/>
</g>

<g id="Layer0_0_MEMBER_9_MEMBER_0_FILL">
<path fill="#513F35" stroke="none" d="
M 63.95 108.75
Q 68.85 108.75 72.95 106.6 76.15 104.9 77.45 102.9 78.15 101.85 77.8 101.2 77.45 100.55 76.35 100.55
L 51.6 100.55
Q 50.5 100.55 50.15 101.2 49.8 101.85 50.5 102.9 51.8 104.9 55 106.6 59.1 108.75 63.95 108.75 Z"/>
</g>

<g id="Layer0_0_MEMBER_10_MEMBER_0_FILL">
<path fill="#E49500" stroke="none" d="
M 58 90
Q 57.35 89.85 57.1 90.3 56.8 90.7 57.05 91.2 57.75 92.35 59.45 93.4 61.65 94.75 64 94.75 66.35 94.75 68.5 93.4 70.2 92.35 70.9 91.2 71.15 90.7 70.9 90.3 70.6 89.85 69.95 90 66.8 90.9 64 90.9 61.15 90.9 58 90 Z"/>
</g>

<path id="Layer0_0_MEMBER_4_MEMBER_0_1_STROKES" stroke="#7A4C32" stroke-opacity="0.4980392156862745" stroke-width="1.5" stroke-linejoin="round" stroke-linecap="round" fill="none" d="
M 27.793727111816406 29.999951171875
Q 35.75288619995117 28.08750305175781 43.65579681396484 29.999951171875"/>

<path id="Layer0_0_MEMBER_5_MEMBER_0_1_STROKES" stroke="#7A4C32" stroke-opacity="0.4980392156862745" stroke-width="1.5" stroke-linejoin="round" stroke-linecap="round" fill="none" d="
M 26.893727111816407 35.13432388305664
Q 35.724737548828124 33.02500610351562 44.5276237487793 35.13432388305664"/>

<path id="Layer0_0_MEMBER_6_MEMBER_0_MEMBER_0_1_STROKES" stroke="#7A4C32" stroke-opacity="0.4980392156862745" stroke-width="1.5" stroke-linejoin="round" stroke-linecap="round" fill="none" d="
M 28.34945068359375 52.19368133544922
Q 27.168296813964844 52.812380981445315 25.846529388427737 54.21851654052735 23.20299453735352 56.974542236328126 22.44368133544922 60.77110824584961"/>

<path id="Layer0_0_MEMBER_6_MEMBER_0_MEMBER_1_1_STROKES" stroke="#7A4C32" stroke-opacity="0.4980392156862745" stroke-width="1.5" stroke-linejoin="round" stroke-linecap="round" fill="none" d="
M 28.955769348144532 47.24368133544922
Q 28.5901741027832 47.94674911499023 27.746492767333983 48.64981689453125 26.115375518798828 50.02782974243164 23.89368133544922 50.02782974243164"/>

<path id="Layer0_0_MEMBER_6_MEMBER_1_MEMBER_0_1_STROKES" stroke="#7A4C32" stroke-opacity="0.4980392156862745" stroke-width="1.5" stroke-linejoin="round" stroke-linecap="round" fill="none" d="
M 43.09368133544922 52.19368133544922
Q 44.274835205078126 52.812380981445315 45.59660263061524 54.21851654052735 48.24013748168945 56.974542236328126 48.99945068359375 60.77110824584961"/>

<path id="Layer0_0_MEMBER_6_MEMBER_1_MEMBER_1_1_STROKES" stroke="#7A4C32" stroke-opacity="0.4980392156862745" stroke-width="1.5" stroke-linejoin="round" stroke-linecap="round" fill="none" d="
M 42.54368133544922 47.24368133544922
Q 42.90927658081055 47.94674911499023 43.72483520507813 48.64981689453125 45.38407516479492 50.02782974243164 47.605769348144534 50.02782974243164"/>
</defs>

<g id="Layer_1">
<g transform="matrix( 0.5624237060546875, 0, 0, 0.5624237060546875, 0,0) ">
<use xlink:href="#Layer0_0_MEMBER_0_MEMBER_0_MEMBER_0_FILL"/>
</g>

<g transform="matrix( 0.5624237060546875, 0, 0, 0.5624237060546875, 0,0) ">
<use xlink:href="#Layer0_0_MEMBER_0_MEMBER_1_MEMBER_0_FILL"/>
</g>

<g transform="matrix( 0.5624542236328125, 0, 0, 0.5624542236328125, 0,0) ">
<use xlink:href="#Layer0_0_MEMBER_1_MEMBER_0_FILL"/>
</g>

<g transform="matrix( 0.5624542236328125, 0, 0, 0.5624542236328125, 0,0) ">
<use xlink:href="#Layer0_0_MEMBER_1_MEMBER_1_FILL"/>
</g>

<g transform="matrix( 1, 0, 0, 1, 0,0) ">
<use xlink:href="#Layer0_0_MEMBER_2_FILL"/>
</g>

<g transform="matrix( 1, 0, 0, 1, 0,0) ">
<use xlink:href="#Layer0_0_MEMBER_3_FILL"/>
</g>

<g transform="matrix( 0.5624847412109375, 0, 0, 0.5624847412109375, 26.95,28.2) ">
<use xlink:href="#Layer0_0_MEMBER_4_MEMBER_0_1_STROKES" transform="matrix( 1.7778167724609375, 0, 0, 1.7778167724609375, -47.9,-50.1) "/>
</g>

<g transform="matrix( 0.5624847412109375, 0, 0, 0.5624847412109375, 26.05,33.25) ">
<use xlink:href="#Layer0_0_MEMBER_5_MEMBER_0_1_STROKES" transform="matrix( 1.7778167724609375, 0, 0, 1.7778167724609375, -46.3,-59.1) "/>
</g>

<g transform="matrix( 0.5624542236328125, 0, 0, 0.5624542236328125, 21.6,51.35) ">
<use xlink:href="#Layer0_0_MEMBER_6_MEMBER_0_MEMBER_0_1_STROKES" transform="matrix( 1.7779083251953125, 0, 0, 1.7779083251953125, -38.4,-91.25) "/>
</g>

<g transform="matrix( 0.5624542236328125, 0, 0, 0.5624542236328125, 23.05,46.4) ">
<use xlink:href="#Layer0_0_MEMBER_6_MEMBER_0_MEMBER_1_1_STROKES" transform="matrix( 1.7779083251953125, 0, 0, 1.7779083251953125, -40.95,-82.45) "/>
</g>

<g transform="matrix( 0.5624542236328125, 0, 0, 0.5624542236328125, 42.25,51.35) ">
<use xlink:href="#Layer0_0_MEMBER_6_MEMBER_1_MEMBER_0_1_STROKES" transform="matrix( 1.7779083251953125, 0, 0, 1.7779083251953125, -75.1,-91.25) "/>
</g>

<g transform="matrix( 0.5624542236328125, 0, 0, 0.5624542236328125, 41.7,46.4) ">
<use xlink:href="#Layer0_0_MEMBER_6_MEMBER_1_MEMBER_1_1_STROKES" transform="matrix( 1.7779083251953125, 0, 0, 1.7779083251953125, -74.1,-82.45) "/>
</g>

<g transform="matrix( 0.5624542236328125, 0, 0, 0.5624542236328125, 0,0) ">
<use xlink:href="#Layer0_0_MEMBER_7_MEMBER_0_FILL"/>
</g>

<g transform="matrix( 0.5624542236328125, 0, 0, 0.5624542236328125, 0,0) ">
<use xlink:href="#Layer0_0_MEMBER_8_MEMBER_0_FILL"/>
</g>

<g transform="matrix( 0.5624542236328125, 0, 0, 0.5624542236328125, 0,0) ">
<use xlink:href="#Layer0_0_MEMBER_9_MEMBER_0_FILL"/>
</g>

<g transform="matrix( 0.5624542236328125, 0, 0, 0.5624542236328125, 0,0) ">
<use xlink:href="#Layer0_0_MEMBER_10_MEMBER_0_FILL"/>
</g>
</g>
</svg>
