
<svg xmlns="http://www.w3.org/2000/svg" version="1.1" xmlns:xlink="http://www.w3.org/1999/xlink" preserveAspectRatio="none" x="0px" y="0px" width="72px" height="72px" viewBox="0 0 72 72">
<defs>
<g id="Layer0_0_FILL">
<path fill="#ECEFF1" stroke="none" d="
M 68.2 31.95
Q 68.2 17.5 60.2 9.55 51.8 1.2 35.85 1.2 20.1 1.2 11.9 9.55 3.95 17.5 3.95 31.95 3.95 47.8 13.4 54.85 15.45 56.45 18.1 57.6 18.35 66.4 23.35 69.05 24.3 69.6 25.75 70.05 29.3 70.9 36 70.9
L 36.05 70.9
Q 42.7 70.9 46.25 70.05 47.75 69.6 48.7 69.05 53.7 66.4 54.05 57.6 56.65 56.45 58.7 54.85 68.2 47.8 68.2 31.95
M 52.35 42
Q 47.8 42 44.55 39.85 41 37.5 40.35 33.55 39.75 29.85 42.15 27.05 44.55 24.25 48.65 24.25 52.9 24.25 57 27.6 61 31.1 61 34.7 61 37.65 58.75 39.75 56.3 42 52.35 42
M 13.3 39.75
Q 11.05 37.65 11.05 34.7 11.05 31.1 15.1 27.6 19.2 24.25 23.45 24.25 27.45 24.25 29.85 27.05 32.25 29.85 31.7 33.55 31.1 37.5 27.55 39.85 24.25 42 19.75 42 15.75 42 13.3 39.75
M 36.05 40.25
Q 37.35 40.3 37.9 41.25
L 42.95 51.15
Q 43.3 52 42.7 52.65 42.15 53.35 41.05 53.35
L 30.9 53.35
Q 29.85 53.35 29.25 52.65 28.6 51.9 29.1 51.15
L 34.2 41.2
Q 34.7 40.25 36.05 40.25 Z"/>

<path fill="#2F2F2F" stroke="none" d="
M 37.9 41.25
Q 37.35 40.3 36.05 40.25 34.7 40.25 34.2 41.2
L 29.1 51.15
Q 28.6 51.9 29.25 52.65 29.85 53.35 30.9 53.35
L 41.05 53.35
Q 42.15 53.35 42.7 52.65 43.3 52 42.95 51.15
L 37.9 41.25
M 11.05 34.7
Q 11.05 37.65 13.3 39.75 15.75 42 19.75 42 24.25 42 27.55 39.85 31.1 37.5 31.7 33.55 32.25 29.85 29.85 27.05 27.45 24.25 23.45 24.25 19.2 24.25 15.1 27.6 11.05 31.1 11.05 34.7
M 44.55 39.85
Q 47.8 42 52.35 42 56.3 42 58.75 39.75 61 37.65 61 34.7 61 31.1 57 27.6 52.9 24.25 48.65 24.25 44.55 24.25 42.15 27.05 39.75 29.85 40.35 33.55 41 37.5 44.55 39.85 Z"/>
</g>

<path id="Layer0_0_MEMBER_0_1_STROKES" stroke="#2F2F2F" stroke-width="3" stroke-linejoin="miter" stroke-linecap="round" stroke-miterlimit="3" fill="none" d="
M 36 62.6
L 36 69.4
M 25.75 68.45
L 25.75 62.3
M 46.25 62.3
L 46.25 68.45"/>
</defs>

<g id="Layer_1">
<g transform="matrix( 1, 0, 0, 1, 0,0) ">
<use xlink:href="#Layer0_0_FILL"/>
</g>

<g transform="matrix( 1, 0, 0, 1, 0,0) ">
<use xlink:href="#Layer0_0_MEMBER_0_1_STROKES"/>
</g>
</g>
</svg>
