
<svg xmlns="http://www.w3.org/2000/svg" version="1.1" xmlns:xlink="http://www.w3.org/1999/xlink" preserveAspectRatio="none" x="0px" y="0px" width="72px" height="72px" viewBox="0 0 72 72">
<defs>
<g id="Layer0_0_MEMBER_0_FILL">
<path fill="#E0BB95" stroke="none" d="
M 57.7 11.75
Q 57.35 11.2 57.05 10.15 56.65 8.8 56.5 8.45 55.65 6.15 55.15 5.35 54.45 4.25 54.15 3.9 53.6 3.3 52.65 3 50.9 2.2 49.95 2.1 46.75 1.75 42.7 3.25 38.6 4.8 37.85 5.1 35.15 6.25 33.3 7.55 30.65 9.35 27.35 11.8 25 13.4 24 14.4 23.95 14.45 23.65 14.85 22.3 15.35 20.3 19 19.25 20.95 17.85 23.75 16.7 25.6 14.3 29.25 12.3 32.45 11.1 34.9 8.45 40.4 7.6 46.05 6.6 52.7 8.45 57.65 9.25 59.8 11 61.5 12.9 63.35 15.05 63.6 19.05 64.05 19.9 64.15 22.6 64.6 24.7 65.3 25.8 65.7 28 66.5 29.9 67.15 31.35 67.4 33.1 67.8 35.55 67.8 36.95 67.85 39.75 67.8 41.3 67.8 42.65 67.95 44.35 68.2 45.85 68.25 46.05 68.25 47.3 68.3 48.3 68.35 48.7 68.35
L 63.5 68.85
Q 66.1634765625 66.43046875 67.1 61.2 67.5248046875 58.8384765625 67.6 55.9 67.7216796875 51.4712890625 67.1 47.6 66.0962890625 41.4025390625 63.15 36.7 62.8 36.05 62.05 35.45 59.55 33.4 54.8 32.8 51.15 32.35 46.9 32.8 41.1 33.4 36.4 37.9 35.85 38.4 34.9 39.45 33.9 40.55 33.4 41.05 33.25 41.15 32.25 42.3 31.55 43.15 30.95 43.4 29.9 43.95 29.5 43.45 29.15 43.05 29.15 41.9 29.15 39.9 29.5 37.3 29.85 34.3 30.05 32.75
L 30.7 28
Q 30.8 26.9 31.2 26.6 31.65 26.25 32.75 26.2 37.65 26.05 40.7 25.1 41.95 24.7 44.5 23.85 46.75 23.2 48.45 23.2 49.2 23.2 50.45 23.65 51.75 24.05 52.35 24.1 54.55 24.3 56.2 23.75 57.75 23.2 58.55 22.75 60.05 21.95 60.45 21.1 60.7 20.5 60.55 19.4 60.25 18.25 60.2 17.8 60.1 17.05 59.45 16.4 58.65 15.55 58.45 15.05 58.2 14.55 58.15 13.35 58.05 12.25 57.7 11.75 Z"/>
</g>

<g id="Layer0_0_MEMBER_1_MEMBER_0_MEMBER_0_FILL">
<path fill="#C48E6A" stroke="none" d="
M 100.55 12.35
Q 98.6 7.45 95.05 5.4 92.15 3.7 87.65 3.65 90.85 4.05 92.25 5.1 93.1 5.7 94.15 8.4 95.5 11.85 95.65 12.1 96.15 13.05 97.05 15.35 97.65 17.05 98.1 18.65 99.2 21.55 100.35 25.85 100.45 26.05 100.45 26.45
L 100.3 27.05
Q 99.95 27.65 99.2 28 98.45 28.25 97.75 28.2 96.85 28.1 96.4 27.45 95.9 26.8 95.15 24.95 94.45 23.3 94.2 22.5
L 91.75 16.25
Q 91.25 15.3 90.4 15.1 89.9 14.95 89.25 15.15 88.55 15.35 88.25 15.8 87.95 16.3 88 17.1 88.05 17.45 88.15 17.75
L 92.6 29.05
Q 93.05 30.5 91.5 31.2 90.8 31.5 90.05 31.45 89.15 31.35 88.7 30.75 88.3 30.2 86.05 25.05 83.85 19.8 83.7 19.45
L 83.65 19.35
Q 83.15 18.4 82.3 18.2 81.75 18.05 81.1 18.25 80.4 18.5 80.15 18.95 79.8 19.55 79.85 20.3 79.9 20.65 80 20.9
L 85.1 32.25
Q 85.6 33.6 84.05 34.35 83.4 34.65 82.65 34.65 81.8 34.6 81.3 34 80.85 33.4 78.1 28
L 75.4 22.75
Q 74.8 21.85 73.95 21.7 73.4 21.6 72.75 21.9 72.1 22.2 71.9 22.65 71.7 23.15 71.85 23.95 71.9 24.3 72 24.6
L 77.45 35.6
Q 78.15 37 76.6 37.9 75.95 38.25 75.2 38.3 74.3 38.35 73.75 37.75 72.8 36.7 67.2 26.85 65.1 28.5 65.4 30.95 65.45 31.55 66.5 34.6 66.85 35.85 66.6 37.85 66.3 40.35 65 41.45 63.45 42.9 61 42.9
L 59.3 42.7 59.05 42.6 59.1 42.65
Q 57.2 42.4 55.65 42 54.15 41.7 52.95 42.55 51.7 43.4 51.55 44.95
L 48.3 80.6
Q 48.25 81.25 48.85 82.75 49.4 84.2 49.85 84.75 51.55 81.65 52.3 80.6 53.3 79.2 55.6 76.85 55.55 76.85 56 69.15
L 57.85 49.25
Q 65.8 50.45 74 48.9 79.35 47.85 84.25 45.75 87 47.55 91 47.7 96.45 47.85 103.7 44.85
L 104.1 44.65
Q 108.45 42.7 109.65 38.65 110.55 35.55 108.3 31.45 105.6 27.5 105.05 26.6 104.1 22.3 103.6 20.7 103 18.55 100.55 12.35
M 91.05 39.4
Q 90.55 38.5 90.6 37.5 90.65 36.3 91.55 35.65 92.9 34.6 101.7 30.65
L 102.65 30.2 103.4 31.55
Q 104.1 33.2 103.85 34.8 103.8 35.5 103.3 36.2 102.45 37.45 100.9 38.05 95.7 40.25 95.05 40.4 92.1 41.2 91.05 39.4 Z"/>
</g>

<g id="Layer0_0_MEMBER_1_MEMBER_0_MEMBER_1_FILL">
<path fill="#C48E6A" stroke="none" d="
M 11.7 62.6
Q 13.75 64.9 16.1 66.2 18.35 67.4 33.15 69.2 44.5826171875 70.55078125 55.7 71.05 56.4240234375 71.1095703125 57.15 71.15 61.9697265625 71.115625 64.55 67.6 48.9724609375 67.383984375 32.7 65.35 19.5 63.75 14.7 62.4 13 61.9 10.45 59.25 8.25 56.85 7.85 55.65 8.9 59.5 11.7 62.6 Z"/>
</g>

<g id="Layer0_0_MEMBER_1_MEMBER_1_FILL">
<path fill="#C48E6A" stroke="none" d="
M 110.15 90.05
Q 109.25 89.65 108.45 90.2 100.3 96 84.75 96 80.65 96 76.4 95.6 73.05 95.15 73 95.15 72.45 95.05 71.95 95.3 71.45 95.6 71.2 96.1 70.7 97.25 71.7 98.1 71.9 98.25 78.2 101.9 85.95 105.45 93.65 105.45 96.85 105.45 99.45 104.9 105.65 103.7 108.8 98.95 111.15 95.4 111.05 91.5 111.05 90.55 110.15 90.05 Z"/>
</g>
</defs>

<g id="Layer_1">
<g transform="matrix( 1, 0, 0, 1, -1.4,0) ">
<use xlink:href="#Layer0_0_MEMBER_0_FILL"/>
</g>

<g transform="matrix( 0.5625, 0, 0, 0.5625, -1.4,0) ">
<use xlink:href="#Layer0_0_MEMBER_1_MEMBER_0_MEMBER_0_FILL"/>
</g>

<g transform="matrix( 1, 0, 0, 1, -1.4,0) ">
<use xlink:href="#Layer0_0_MEMBER_1_MEMBER_0_MEMBER_1_FILL"/>
</g>

<g transform="matrix( 0.5625, 0, 0, 0.5625, -1.4,0) ">
<use xlink:href="#Layer0_0_MEMBER_1_MEMBER_1_FILL"/>
</g>
</g>
</svg>
