<svg xmlns="http://www.w3.org/2000/svg" xmlns:xlink="http://www.w3.org/1999/xlink" preserveAspectRatio="none" viewBox="0 0 72 72"><defs><path id="c" fill="#795548" d="M118.55 36.3q-2.35-2.3-5.6-2.3H15q-3.25 0-5.6 2.3-2.3 2.35-2.3 5.6v66.05q0 3.25 2.3 5.6 2.35 2.3 5.6 2.3h97.95q3.25 0 5.6-2.3 2.3-2.35 2.3-5.6V41.9q0-3.25-2.3-5.6z"/><path id="d" fill="#5D4037" d="M120.85 45.1q0-2.55-1.9-4.35-1.95-1.85-4.6-1.85H13.6q-2.65 0-4.6 1.85-1.9 1.8-1.9 4.35v24.75q0 1.5 1.4 2.4 9.2 5.95 24.5 9.4 14.5 3.3 31 3.6 16.45-.3 30.95-3.6 15.3-3.45 24.5-9.4 1.4-.9 1.4-2.45V45.1z"/><path id="e" fill="#795548" d="M120.75 32.35Q118.8 30.4 116 30.4H11.95q-2.75 0-4.75 1.95-1.95 2-1.95 4.75v26.85q0 1.6 1.4 2.6 9.5 6.45 25.3 10.2 15 3.55 32.05 3.9 17.05-.35 32-3.9 15.8-3.75 25.3-10.2 1.4-1 1.4-2.65V37.1q0-2.75-1.95-4.75z"/><path id="f" fill="#757575" d="M71.8 73.65q-.45-.45-1.1-.45H57.25q-.65 0-1.1.45-.5.5-.5 1.15v15.7q0 .65.5 1.1.45.5 1.1.5H70.7q.65 0 1.1-.5.5-.45.5-1.1V74.8q0-.65-.5-1.15z"/><path id="g" fill="#BDBDBD" d="M71.8 70.2q-.45-.45-1.1-.45H57.25q-.65 0-1.1.45-.5.5-.5 1.15v15.7q0 .65.5 1.15.45.45 1.1.45H70.7q.65 0 1.1-.45.5-.5.5-1.15v-15.7q0-.65-.5-1.15z"/><path id="h" fill="#757575" d="M73.8 73.35q-.45-.5-1.1-.5H55.25q-.65 0-1.1.45-.5.5-.5 1.15v1.95q0 .65.5 1.1.45.5 1.1.5H72.7q.65 0 1.1-.5.5-.45.5-1.1v-1.95q0-.65-.5-1.1z"/><path id="a" fill="none" stroke="#BDBDBD" stroke-linecap="butt" stroke-linejoin="miter" stroke-miterlimit="10" stroke-width="2" d="M47.419 17.1q0-1.603-.816-3.234"/><path id="b" fill="none" stroke="#BDBDBD" stroke-linecap="butt" stroke-linejoin="miter" stroke-miterlimit="10" stroke-width="2" d="M25.35 13.85q-.8 1.65-.8 3.25"/><path id="i" fill="none" stroke="#795548" stroke-linecap="round" stroke-linejoin="miter" stroke-miterlimit="10" stroke-width="3" d="M46.6 13.85q-1.25-2.45-4.1-4Q39.55 8.3 36 8.3t-6.5 1.55q-2.85 1.55-4.15 4"/></defs><use xlink:href="#a"/><use xlink:href="#b"/><use transform="scale(.5625)" xlink:href="#c"/><use transform="scale(.5625)" xlink:href="#d"/><use transform="scale(.5625)" xlink:href="#e"/><use transform="scale(.5625)" xlink:href="#f"/><use transform="scale(.5625)" xlink:href="#g"/><use transform="scale(.5625)" xlink:href="#h"/><use xlink:href="#i"/></svg>