<svg xmlns="http://www.w3.org/2000/svg" xmlns:xlink="http://www.w3.org/1999/xlink" preserveAspectRatio="none" viewBox="0 0 72 72"><defs><path id="a" fill="#ECEFF1" d="M68.45 36q0-13.4-9.5-22.9Q49.4 3.55 36 3.55q-13.45 0-22.95 9.55Q3.5 22.6 3.5 36.05q0 13.4 9.55 22.95 9.5 9.5 22.95 9.5 13.4 0 22.95-9.55 9.5-9.5 9.5-22.95z"/><path id="b" fill="#BDBDBD" d="M71.95 36q0-14.85-10.55-25.35Q50.85.1 36 .1 21.1.1 10.6 10.65.05 21.15.05 36q0 14.9 10.55 25.45 10.5 10.5 25.4 10.5 14.85 0 25.4-10.5Q71.95 50.9 71.95 36m-13-22.9q9.5 9.5 9.5 22.9 0 13.45-9.5 22.95Q49.4 68.5 36 68.5q-13.45 0-22.95-9.5Q3.5 49.45 3.5 36.05q0-13.45 9.55-22.95Q22.55 3.55 36 3.55q13.4 0 22.95 9.55z"/><path id="c" fill="#CFD8DC" d="M116.5 61.45q-1.05-1.1-2.6-1.1-1.5 0-2.55 1.1-1.1 1.05-1.1 2.6 0 1.5 1.1 2.6 1.05 1.05 2.55 1.05 1.55 0 2.6-1.05 1.1-1.1 1.1-2.6 0-1.55-1.1-2.6z"/><path id="d" fill="#CFD8DC" d="M106.25 42.6q1.5.4 2.8-.35 1.3-.75 1.7-2.2.4-1.5-.35-2.85-.75-1.3-2.2-1.7-1.5-.4-2.85.35-1.3.8-1.7 2.25-.4 1.5.35 2.8.8 1.3 2.25 1.7z"/><path id="e" fill="#CFD8DC" d="M92.5 19.85q-.4-1.5-1.7-2.25-1.35-.8-2.8-.4-1.5.4-2.25 1.75-.75 1.3-.35 2.8.4 1.45 1.7 2.25 1.3.75 2.8.35 1.45-.4 2.25-1.7.75-1.35.35-2.8z"/><path id="f" fill="#CFD8DC" d="M40.85 23.95q1.3-.75 1.7-2.2.4-1.5-.35-2.8-.8-1.3-2.25-1.7-1.5-.4-2.8.35-1.3.75-1.7 2.2-.4 1.5.35 2.8.8 1.35 2.25 1.75 1.5.4 2.8-.4z"/><path id="g" fill="#CFD8DC" d="M17.55 37.2q-.8 1.35-.35 2.85.4 1.45 1.7 2.2 1.3.75 2.8.35 1.45-.4 2.2-1.7.8-1.3.4-2.8-.4-1.45-1.75-2.25-1.3-.75-2.8-.35-1.45.4-2.2 1.7z"/><path id="h" fill="#CFD8DC" d="M16.65 61.45q-1.05-1.1-2.6-1.1t-2.6 1.1q-1.1 1.05-1.1 2.55 0 1.55 1.1 2.6 1.05 1.1 2.6 1.1 1.5 0 2.6-1.1 1.05-1.05 1.05-2.6 0-1.5-1.05-2.55z"/><path id="i" fill="#CFD8DC" d="M21.7 85.45q-1.5-.4-2.8.35-1.35.75-1.75 2.25-.4 1.45.4 2.8.75 1.3 2.2 1.7 1.5.4 2.8-.35 1.35-.8 1.75-2.25.4-1.5-.35-2.8-.8-1.3-2.25-1.7z"/><path id="j" fill="#CFD8DC" d="M42.55 106.3q-.4-1.45-1.7-2.2-1.35-.8-2.8-.4-1.45.4-2.25 1.75-.75 1.3-.35 2.8.4 1.45 1.7 2.2 1.3.75 2.8.35 1.45-.4 2.25-1.7.75-1.3.35-2.8z"/><path id="k" fill="#CFD8DC" d="M66.55 111.35q-1.05-1.1-2.6-1.1-1.5 0-2.55 1.1-1.1 1.1-1.1 2.6 0 1.55 1.1 2.6 1.05 1.1 2.55 1.1 1.55 0 2.6-1.1 1.1-1.05 1.1-2.6 0-1.5-1.1-2.6z"/><path id="l" fill="#CFD8DC" d="M89.9 103.75q-1.5-.45-2.8.35-1.3.75-1.7 2.2-.4 1.5.35 2.8.8 1.3 2.25 1.75 1.5.4 2.8-.4 1.3-.75 1.7-2.2.4-1.5-.35-2.8-.8-1.3-2.25-1.7z"/><path id="m" fill="#CFD8DC" d="M104 87.15q-.75 1.3-.35 2.8.4 1.45 1.7 2.25 1.35.75 2.85.35 1.45-.4 2.2-1.7.75-1.3.35-2.8-.4-1.45-1.7-2.25-1.3-.75-2.8-.35-1.45.4-2.25 1.7z"/><path id="n" fill="#CFD8DC" d="M66.55 111.35q-1.05-1.1-2.6-1.1-1.5 0-2.55 1.1-1.1 1.1-1.1 2.6 0 1.55 1.1 2.6 1.05 1.1 2.55 1.1 1.55 0 2.6-1.1 1.1-1.05 1.1-2.6 0-1.5-1.1-2.6z"/><g id="q"><path fill="#2F2F2F" d="M32.1 32.05Q30.5 33.7 30.5 36q0 2.25 1.6 3.85 1.65 1.65 3.9 1.65 2.3 0 3.9-1.65 1.6-1.6 1.6-3.85 0-2.3-1.6-3.95-1.6-1.55-3.9-1.55-2.25 0-3.9 1.55M33.25 36q0-1.15.8-1.95.85-.8 1.95-.8 1.15 0 1.95.8t.8 1.95q0 1.15-.8 1.95t-1.95.8q-1.1 0-1.95-.8-.8-.8-.8-1.95z"/><path fill="#ECEFF1" d="M34.05 34.05q-.8.8-.8 1.95t.8 1.95q.85.8 1.95.8 1.15 0 1.95-.8t.8-1.95q0-1.15-.8-1.95t-1.95-.8q-1.1 0-1.95.8z"/></g><path id="o" fill="none" stroke="#2F2F2F" stroke-linecap="round" stroke-linejoin="round" stroke-width="5" d="M20.353 44.953l15.587-9"/><path id="p" fill="none" stroke="#2F2F2F" stroke-linecap="round" stroke-linejoin="round" stroke-width="5" d="M36 8v28"/></defs><use xlink:href="#a"/><use xlink:href="#b"/><use transform="scale(.5625)" xlink:href="#c"/><use transform="scale(.5625)" xlink:href="#d"/><use transform="scale(.5625)" xlink:href="#e"/><use transform="scale(.5625)" xlink:href="#f"/><use transform="scale(.5625)" xlink:href="#g"/><use transform="scale(.5625)" xlink:href="#h"/><use transform="scale(.5625)" xlink:href="#i"/><use transform="scale(.5625)" xlink:href="#j"/><use transform="scale(.5625)" xlink:href="#k"/><use transform="scale(.5625)" xlink:href="#l"/><use transform="scale(.5625)" xlink:href="#m"/><use transform="matrix(-.5625 0 0 -.5625 71.95 72.05)" xlink:href="#n"/><g transform="matrix(-.50002 -.866 .55669 -.32143 33.9 78.7)"><use transform="matrix(-.50003 1.3472 -.86601 -.77785 85.1 15.5)" xlink:href="#o"/></g><g><use xlink:href="#p"/></g><g><use xlink:href="#q"/></g></svg>