<svg xmlns="http://www.w3.org/2000/svg" xmlns:xlink="http://www.w3.org/1999/xlink" preserveAspectRatio="none" viewBox="0 0 72 72"><defs><path id="a" fill="#E49F49" d="M78.75 14.15q-1.3 1.3-1.8 3.1-.95 3.8-2.3 11.8Q72.7 40.3 71.85 50q2.25-7.9 4.3-19.25 1.65-9.1 2.6-16.6z"/><path id="b" fill="#E0BB95" d="M93 24.35q1.65-11.35-5-13.4-5.85-1.8-9.25 3.2-.95 7.65-2.55 16.6-2.05 11.4-4.3 19.25 0 .1-.3 4l-.95-.25h.1L71.9 50q.8-9.7 2.75-20.95 1.35-7.95 2.3-11.8.5-1.8 1.8-3.1l.4-4.05q.3-4.6-2.5-7.4Q73.9-.1 69.6.4q-6.35.75-8.55 13-3.35 23.4-6.75 37.9-1.75 2.65-4.15 1.9l-2.1-1.3q-5.25-10.6-8.6-20.6-2.7-9-3.6-11.5-1.75-4.95-4.85-7.3-2.9-2.25-5.6-1.3-3.05 1-4.4 3.65-1.2 2.4-.7 5.3.25 1.55 1.75 7.05 1.8 1.95 2.8 5.65.45 1.6 2.45 7.3 1.988 6.31 3.1 13.15-3.808-9.38-8.35-26.1-2.5-2.65-6.9-1.4-2.8.8-3.75 5-.8 3.65.05 6.75.15.6 2.65 10.7 2.3 9.4 4.15 15.9.3 8.8.65 12.25.2 2 1.45 10.65 2.15 14.8 5.65 22.35 3.5 7.5 9.7 10.9 11.75 6.25 23.45 7.2 14.15 1.15 24.6-6.05 2.05-1.45 5-4.5 3.2-3.45 4.7-4.95.25-.2 4.1-7.45 3.95-7.4 4.45-8.05 4.55-5.55 8.85-8.95 2.4-1.85 5.5-4.9 5.4-4.65 6.15-8.55.7-3.65-3-5.1-4.95-1.8-9.5-1.4-4.7.45-6.95 3.1-1 1.15-4.1 5.8-2.25 3.35-6.25 6.9-5.3 1.6-6.95-2.8-.5-1.4-.55-3.2v-1.55q.15-4.05 3.1-21.4.6-2.9 4.7-30.1M32.2 57.3h.05q-.65.45-1.7.85l.55-.35-.65-4.4q1.203 2.855 1.75 3.9z"/><path id="c" fill="#E49F49" d="M24.85 32.85Q23.8 29 22.05 27.2q4.45 16.5 8.4 26.2-1.15-6.9-3.15-13.25-2-5.7-2.45-7.3z"/><path id="d" fill="#C48E6A" d="M22.7 27.45q-1.25-1.15-.9 2.5l9.2 30.2 1.2.25q1.4-.05 2.1-1.4Q34 57.7 24 29.35q-.7-1.3-1.3-1.9z"/><path id="e" fill="#C48E6A" d="M78.85 14.55q-.4-.8-1.45.8-.6 1.45-4.4 21.1-1.9 9.85-3.7 19.4l.8.8q1.05.65 2.6 0 .5-2.2 6.35-40.95 0-.7-.2-1.15z"/><path id="f" fill="#C48E6A" d="M85.2 75.6q.1-2.5.45-4.2-5.4.1-9.15.75-3 .5-6.1 1.55-6.45 2.15-11.35 9.4-3.1 4.65-5.15 9.95-1.8 4.75-1.15 5.3 1.4 1.05 3.7-3.55 4-7.95 5.65-10.3 3-4.25 8.65-6.85 6.8-3.1 14.45-2.05z"/></defs><use transform="scale(.5625)" xlink:href="#a"/><use transform="scale(.5625)" xlink:href="#b"/><use transform="scale(.5625)" xlink:href="#c"/><use transform="scale(.5625)" xlink:href="#d"/><use transform="scale(.5625)" xlink:href="#e"/><use transform="scale(.5625)" xlink:href="#f"/></svg>