
<svg xmlns="http://www.w3.org/2000/svg" version="1.1" xmlns:xlink="http://www.w3.org/1999/xlink" preserveAspectRatio="none" x="0px" y="0px" width="72px" height="72px" viewBox="0 0 72 72">
<defs>
<g id="Layer0_0_MEMBER_0_MEMBER_0_MEMBER_0_FILL">
<path fill="#E49F49" stroke="none" d="
M 78.75 14.15
Q 77.45 15.45 76.95 17.25 76 21.05 74.65 29.05 72.7 40.3 71.85 50 74.1 42.1 76.15 30.75 77.8 21.65 78.75 14.15 Z"/>
</g>

<g id="Layer0_0_MEMBER_0_MEMBER_0_MEMBER_1_FILL">
<path fill="#8E726A" stroke="none" d="
M 93 24.35
Q 94.65 13 88 10.95 82.15 9.15 78.75 14.15 77.8 21.8 76.2 30.75 74.15 42.15 71.9 50 71.9 50.1 71.6 54
L 70.65 53.75 70.75 53.75 71.9 50
Q 72.7 40.3 74.65 29.05 76 21.1 76.95 17.25 77.45 15.45 78.75 14.15
L 79.15 10.1
Q 79.45 5.5 76.65 2.7 73.9 -0.1 69.6 0.4 63.25 1.15 61.05 13.4 57.7 36.8 54.3 51.3 52.55 53.95 50.15 53.2
L 48.05 51.9
Q 42.8 41.3 39.45 31.3 36.75 22.3 35.85 19.8 34.1 14.85 31 12.5 28.1 10.25 25.4 11.2 22.35 12.2 21 14.85 19.8 17.25 20.3 20.15 20.55 21.7 22.05 27.2 23.85 29.15 24.85 32.85 25.3 34.45 27.3 40.15 29.2876953125 46.4609375 30.4 53.3 26.5916015625 43.919140625 22.05 27.2 19.55 24.55 15.15 25.8 12.35 26.6 11.4 30.8 10.6 34.45 11.45 37.55 11.6 38.15 14.1 48.25 16.4 57.65 18.25 64.15 18.55 72.95 18.9 76.4 19.1 78.4 20.35 87.05 22.5 101.85 26 109.4 29.5 116.9 35.7 120.3 47.45 126.55 59.15 127.5 73.3 128.65 83.75 121.45 85.8 120 88.75 116.95 91.95 113.5 93.45 112 93.7 111.8 97.55 104.55 101.5 97.15 102 96.5 106.55 90.95 110.85 87.55 113.25 85.7 116.35 82.65 121.75 78 122.5 74.1 123.2 70.45 119.5 69 114.55 67.2 110 67.6 105.3 68.05 103.05 70.7 102.05 71.85 98.95 76.5 96.7 79.85 92.7 83.4 87.4 85 85.75 80.6 85.25 79.2 85.2 77.4
L 85.2 75.85
Q 85.35 71.8 88.3 54.45 88.9 51.55 93 24.35
M 32.2 57.3
L 32.25 57.3
Q 31.6 57.75 30.55 58.15
L 31.1 57.8 30.45 53.4
Q 31.6525390625 56.2548828125 32.2 57.3 Z"/>
</g>

<g id="Layer0_0_MEMBER_0_MEMBER_0_MEMBER_2_FILL">
<path fill="#E49F49" stroke="none" d="
M 24.85 32.85
Q 23.8 29 22.05 27.2 26.5 43.7 30.45 53.4 29.3 46.5 27.3 40.15 25.3 34.45 24.85 32.85 Z"/>
</g>

<g id="Layer0_0_MEMBER_1_FILL">
<path fill="#563E37" stroke="none" d="
M 22.7 27.45
Q 21.45 26.3 21.8 29.95
L 31 60.15 32.2 60.4
Q 33.6 60.35 34.3 59 34 57.7 24 29.35 23.3 28.05 22.7 27.45 Z"/>
</g>

<g id="Layer0_0_MEMBER_2_FILL">
<path fill="#563E37" stroke="none" d="
M 78.85 14.55
Q 78.45 13.75 77.4 15.35 76.8 16.8 73 36.45 71.1 46.3 69.3 55.85
L 70.1 56.65
Q 71.15 57.3 72.7 56.65 73.2 54.45 79.05 15.7 79.05 15 78.85 14.55 Z"/>
</g>

<g id="Layer0_1_MEMBER_0_FILL">
<path fill="#563E37" stroke="none" d="
M 85.2 75.6
Q 85.3 73.1 85.65 71.4 80.25 71.5 76.5 72.15 73.5 72.65 70.4 73.7 63.95 75.85 59.05 83.1 55.95 87.75 53.9 93.05 52.1 97.8 52.75 98.35 54.15 99.4 56.45 94.8 60.45 86.85 62.1 84.5 65.1 80.25 70.75 77.65 77.55 74.55 85.2 75.6 Z"/>
</g>
</defs>

<g id="Layer_1">
<g transform="matrix( 0.5625, 0, 0, 0.5625, 0,0) ">
<use xlink:href="#Layer0_0_MEMBER_0_MEMBER_0_MEMBER_0_FILL"/>
</g>

<g transform="matrix( 0.5625, 0, 0, 0.5625, 0,0) ">
<use xlink:href="#Layer0_0_MEMBER_0_MEMBER_0_MEMBER_1_FILL"/>
</g>

<g transform="matrix( 0.5625, 0, 0, 0.5625, 0,0) ">
<use xlink:href="#Layer0_0_MEMBER_0_MEMBER_0_MEMBER_2_FILL"/>
</g>

<g transform="matrix( 0.5625, 0, 0, 0.5625, 0,0) ">
<use xlink:href="#Layer0_0_MEMBER_1_FILL"/>
</g>

<g transform="matrix( 0.5625, 0, 0, 0.5625, 0,0) ">
<use xlink:href="#Layer0_0_MEMBER_2_FILL"/>
</g>

<g transform="matrix( 0.5625, 0, 0, 0.5625, 0,0) ">
<use xlink:href="#Layer0_1_MEMBER_0_FILL"/>
</g>
</g>
</svg>
