
<svg xmlns="http://www.w3.org/2000/svg" version="1.1" xmlns:xlink="http://www.w3.org/1999/xlink" preserveAspectRatio="none" x="0px" y="0px" width="72px" height="72px" viewBox="0 0 72 72">
<defs>
<g id="Layer0_0_MEMBER_0_MEMBER_0_FILL">
<path fill="#E0BB95" stroke="none" d="
M 98.75 63
Q 97.75 58.55 93.75 57.65 91.5 57.15 88.8 57.8 86.9 58.25 85.85 57.35 85.35 57 84.55 55.55 84.2 54.95 83.35 53.95 82.3 52.85 81.55 52.5 77.3 50.65 74.35 51.5 71.6 52.3 70.85 51.85 69.95 51.35 69.65 48.45 69.45 46.6 69.2 38.75 68.8 26.45 68.5 13.2 68.15 5.75 66.15 3.2 63.9 0.3 60.05 0.65 56.1 1 54.65 4.5 53 8.45 53.35 26.8 53.7 47.3 53.55 48.45 53.2 51.45 51.3 52
L 49.45 51.9
Q 46.25 51.55 45.4 51.6 42.95 51.8 40.85 53.7 37.25 56.95 37 63.65 36.95 64.85 37.65 73.5 37.7 74 37.55 74.4
L 37.55 74.45
Q 39.05 78.5 41.45 84.65 42.55 88.6 39.35 87.3 35.45 85.7 35.3 80.85
L 35.95 76.3
Q 36.821875 76.009375 37.4 74.8 36.946875 75.6775390625 35.75 76.3 34.8 76.85 34.05 76.95 32.95 77.1 31.6 78.8 30.9 79.65 30.45 80.45 28.7 83 28.9 85.1 29.1 87.2 31.85 94.45 35.4 103.8 40.75 108.15 43.2 110.2 49.9 112.95 55.8 115.35 61 115.85 63.6 116.1 65.05 115.85 69.4 116.3 73.8 115.45 76 115 77.35 114.45 79.4 113.65 85.7 112.6 91.85 110.75 95.75 104.75 98.3 100.8 99.15 84.05 99.95 68.45 98.75 63 Z"/>
</g>

<g id="Layer0_0_MEMBER_0_MEMBER_1_FILL">
<path fill="#C48E6A" stroke="none" d="
M 37.55 74.45
L 37.5 74.65 37.45 74.75
Q 36.85 76 35.95 76.3
L 35.3 80.8
Q 35.45 85.65 39.35 87.25 42.55 88.55 41.45 84.65 39.05 78.5 37.55 74.45 Z"/>
</g>

<g id="Layer0_1_FILL">
<path fill="#E0BB95" stroke="none" d="
M 48.05 125.9
Q 49.75 127.6 52.2 127.6
L 86.05 127.6
Q 88.5 127.6 90.2 125.85 91.95 124.1 91.9 121.65
L 91.8 115.75
Q 91.8 112.15 93.95 107.75
L 96.1 104.05 42.9 109.7 44.65 111.2
Q 46.35 113.15 46.35 115.5
L 46.35 121.75
Q 46.35 124.15 48.05 125.9 Z"/>
</g>
</defs>

<g id="Layer_1">
<g transform="matrix( 0.5625, 0, 0, 0.5625, 0,0) ">
<use xlink:href="#Layer0_0_MEMBER_0_MEMBER_0_FILL"/>
</g>

<g transform="matrix( 0.5625, 0, 0, 0.5625, 0,0) ">
<use xlink:href="#Layer0_0_MEMBER_0_MEMBER_1_FILL"/>
</g>

<g transform="matrix( 0.5625, 0, 0, 0.5625, 0,0) ">
<use xlink:href="#Layer0_1_FILL"/>
</g>
</g>
</svg>
