<svg xmlns="http://www.w3.org/2000/svg" xmlns:xlink="http://www.w3.org/1999/xlink" preserveAspectRatio="none" viewBox="0 0 72 72"><defs><path id="a" fill="#FCC21B" d="M127.55 92.35q0-27-8.5-47.05-15.6-36.65-55.3-36.65Q24.1 8.65 8.5 45.3 0 65.35 0 92.35q0 10.4 18.7 17.7 18.65 7.35 45.05 7.35 26.45 0 45.1-7.35 18.7-7.3 18.7-17.7z"/><path id="b" fill="#2F2F2F" d="M86.4 86.65q.95-.95.9-2.3 0-1.35-.95-2.3-1-.95-2.3-.95-1.35.05-2.3 1-1.8 1.75-4.8 3.35-6 3.15-13.1 3.15-7.05 0-13.05-3.15-4.65-3.2-4.8-3.35-.95-.95-2.3-1-1.3 0-2.3.95-.95.95-1 2.3 0 1.3.95 2.3.2.15 6.1 4.35 7.55 4.1 16.4 4.1 8.85 0 16.45-4.1 3.85-2.1 6.1-4.35z"/><path id="c" fill="#2F2F2F" d="M117.9 42.8q-11.35-1.45-19.7-1.45-8.3 0-13.4 1.2-4.85 1.55-8 2.2-3.9.8-8.75 1.15l-4.05.15q-6.6 0-12.85-1.35-5.15-1.5-8.05-2.15-5.1-1.2-13.35-1.2-8.35 0-19.7 1.45-5.65.75-9.65 1.45v8.5l1.85.65q1.85 1.05 2.05 3.1.05.35 0 5 .25 5.35 1.85 9.7 5 13.65 21.65 13.65 12.85 0 20.85-6.8 6.3-5.35 8.6-13.75 1.35-4.85 2.1-6.3Q61 54.95 64 54.95q2.95 0 4.6 3.05.85 1.55 2.1 6.3 2.35 8.45 8.6 13.75 8 6.8 20.85 6.8 16.7 0 21.7-13.7 1.55-4.3 1.8-9.65-.05-4.65 0-5 .2-2.05 2.1-3.1.95-.55 1.85-.65v-8.5q-4.05-.7-9.7-1.45z"/><path id="d" fill="#707070" d="M97.25 45.45q-.5-.4-1.35-.4-4.1.15-8.3.75l-3.35.6q-6.65 1.4-8.9 5.45-1.6 2.9-1 7.5Q76 71.95 84.4 77.85q.55.4 1.15.35.8-.1 1.2-1.1 3.4-16.25 10.75-29.9.4-1.2-.25-1.75z"/><path id="e" fill="#707070" d="M32.3 45.5q-.5-.45-1.25-.45-7.6-.2-13.65 1.35-3.8.95-5.5 3.1-1.7 2.1-2.1 6.25-.7 6.9.45 12.35 1.85 8.8 8.25 12.15.6.3 1.25.2.8-.2 1.2-1.15 2.55-10.9 4.35-16.1 2.4-6.95 7.2-15.95.4-1.15-.2-1.75z"/></defs><use transform="scale(.5625)" xlink:href="#a"/><use transform="matrix(.49002 0 0 .4256 4.7 14.2)" xlink:href="#b"/><use transform="matrix(.52728 0 0 .52728 2.25 1.1)" xlink:href="#c"/><use transform="matrix(.52728 0 0 .52728 2.25 1.1)" xlink:href="#d"/><use transform="matrix(.52728 0 0 .52728 2.25 1.1)" xlink:href="#e"/></svg>