<svg xmlns="http://www.w3.org/2000/svg" xmlns:xlink="http://www.w3.org/1999/xlink" preserveAspectRatio="none" viewBox="0 0 72 72"><defs><path id="a" fill="#FCC21B" d="M35.85 4.85q-22.3 0-31.05 20.65Q0 36.75 0 51.95q0 5.85 10.5 9.95 10.5 4.15 25.35 4.15 14.9 0 25.4-4.15 10.5-4.1 10.5-9.95 0-15.2-4.8-26.45Q58.2 4.85 35.85 4.85z"/><path id="b" fill="#ED6C30" d="M54.95 43.95q.95-3.3-.7-4.4-1.1-.75-2.85-.6-.2.05-3 .6Q42.7 40.7 36 40.7q-6.75 0-12.4-1.15-2.8-.55-3-.6-1.75-.15-2.9.6-1.6 1.1-.65 4.4.95 3.3 3.55 6.05 2.4 2.45 5.4 4 4.55 2.4 10 2.4T46 54q3-1.55 5.35-4 2.65-2.75 3.6-6.05z"/><path id="c" fill="#2F2F2F" d="M47.8 44.7q-2.45-2.85-5.8-2.8-3.35.05-5.75 2.9-2.35 2.9-2.3 6.9.05 4 2.45 6.85 2.45 2.8 5.8 2.75 3.35-.05 5.7-2.9t2.35-6.85q-.05-4.05-2.45-6.85z"/><path id="d" fill="#2F2F2F" d="M45.3 32.9q1.35 1.6 3.25 1.6t3.25-1.6q1.3-1.6 1.3-3.85t-1.35-3.9q-1.35-1.6-3.25-1.55-1.85 0-3.2 1.6t-1.35 3.85q0 2.25 1.35 3.85z"/></defs><use xlink:href="#a"/><use transform="translate(0 -2)" xlink:href="#b"/><use transform="scale(.5625)" xlink:href="#c"/><use xlink:href="#d"/></svg>