<svg xmlns="http://www.w3.org/2000/svg" xmlns:xlink="http://www.w3.org/1999/xlink" preserveAspectRatio="none" viewBox="0 0 72 72"><defs><path id="a" fill="#FCC21B" d="M127.65 93.35q0-27-8.5-47.05-15.6-36.65-55.3-36.65Q24.2 9.65 8.6 46.3.1 66.35.1 93.35q0 10.4 18.7 17.7 18.65 7.35 45.05 7.35 26.45 0 45.1-7.35 18.7-7.3 18.7-17.7z"/><path id="b" fill="#ED6C30" d="M52.9 38.1q-.253.054-4.95 1.4-4.692 1.337-12.05 1.4-7.309.063-11.85-1.35-4.547-1.404-4.75-1.45-1.9-.2-3.15.65-1.75 1.2-.7 4.75 1 3.6 3.85 6.6 2.6 2.65 5.9 4.35 4.95 2.6 10.9 2.6t10.9-2.6q3.25-1.7 5.8-4.35 2.9-3 3.95-6.6 1.05-3.55-.75-4.75-1.2-.85-3.1-.65z"/><path id="c" fill="#40C0E7" d="M120.05 68.4q-1.95-3.55-5.55-6.05-4.55-3.05-8.5-4.4-1.15-.4-1.85-.6-1.25-.35-1.9-.35-1.7.15-1.2 2.65 2 9.35 2.35 11.3.15 1.3 1.15 4 1.05 3 2 4.5.9 1.5 3 2.6 2.05 1.1 4.05 1.2 2.8.1 5.2-1.8 2.5-2 2.85-5.1.45-4.15-1.6-7.95z"/><path id="d" fill="#40C0E7" d="M23.8 57.35q-1.35.45-1.85.6-3.95 1.35-8.5 4.4-3.6 2.5-5.5 6.05-2.1 3.8-1.65 7.95.35 3.1 2.85 5.1 2.4 1.9 5.2 1.8 2-.1 4-1.2 2.1-1.1 3.05-2.6.95-1.5 2.05-4.5.95-2.65 1.15-4 1.5-7.35 2.25-11.3.6-2.5-1.1-2.65-.7 0-1.95.35z"/><path id="e" fill="#2F2F2F" d="M52.4 47.8q-4.65-3.7-10.8-3.7-6.1 0-10.75 3.7-2.35 1.85-3.6 3.9-.55 1-.3 2.05.3 1.1 1.25 1.65.95.6 2.05.3 1.1-.25 1.7-1.2.45-1.05 2.4-2.6 3.15-2.4 7.25-2.35 4.15 0 7.25 2.4 1.6 1.2 2.45 2.55.75 1.3 2.35 1.3.75 0 1.4-.35.95-.6 1.25-1.7.25-1.1-.3-2.05-1.25-2.05-3.6-3.9z"/><path id="f" fill="#2F2F2F" d="M97.35 47.75q-4.65-3.7-10.75-3.7-6.15 0-10.8 3.7-3.5 3.8-3.6 3.95-.55 1-.3 2.05.3 1.1 1.25 1.65.95.6 2.1.3 1.1-.25 1.65-1.25l2.35-2.5q3.15-2.45 7.35-2.45 4.1 0 7.25 2.4 1.6 1.2 2.4 2.55.8 1.35 2.35 1.35.7 0 1.4-.4.95-.55 1.25-1.65.25-1.1-.3-2.05-1.25-2.05-3.6-3.95z"/><path id="g" fill="none" stroke="#2F2F2F" stroke-linecap="round" stroke-linejoin="round" stroke-width="3" d="M48.55 22.4q5.6.3 8.6 4.6m-33.7-4.6q-5.55.25-8.55 4.55"/></defs><use transform="scale(.5625)" xlink:href="#a"/><use transform="matrix(1.03801 0 0 1 -1.45 0)" xlink:href="#b"/><use transform="matrix(.6946 0 0 .6946 -13.1 -6.2)" xlink:href="#c"/><use transform="matrix(.6946 0 0 .6946 -3.75 -6.2)" xlink:href="#d"/><use transform="matrix(.55394 -.09767 .09767 .55394 -4.5 6.4)" xlink:href="#e"/><use transform="scale(.56248) rotate(10 66.913 50.97)" xlink:href="#f"/><use transform="translate(0 -1.05)" xlink:href="#g"/></svg>