
<svg xmlns="http://www.w3.org/2000/svg" version="1.1" xmlns:xlink="http://www.w3.org/1999/xlink" preserveAspectRatio="none" x="0px" y="0px" width="72px" height="72px" viewBox="0 0 72 72">
<defs>
<g id="Layer0_0_FILL">
<path fill="#FCC21B" stroke="none" d="
M 127.55 92.35
Q 127.55 65.35 119.05 45.3 103.45 8.65 63.75 8.65 24.1 8.65 8.5 45.3 0 65.35 0 92.35 0 102.75 18.7 110.05 37.35 117.4 63.75 117.4 90.2 117.4 108.85 110.05 127.55 102.75 127.55 92.35 Z"/>
</g>

<g id="Layer0_1_FILL">
<path fill="#2F2F2F" stroke="none" d="
M 90.05 82.4
Q 88.8 82.4 87.9 83.25 81.5 89.45 72.7 91.7 63.9 94 55.15 91.75 53.95 91.4 52.9 92.05 51.8 92.65 51.5 93.85 51.15 95.05 51.8 96.15 52.45 97.2 53.65 97.55 58.8 98.85 63.9 98.85 71.75 98.85 79.05 95.95 86.45 93 92.1 87.55 93 86.7 93 85.45 93 84.2 92.15 83.35 91.3 82.45 90.05 82.4 Z"/>
</g>

<g id="Layer0_3_FILL">
<path fill="#2F2F2F" stroke="none" d="
M 14.05 37.1
Q 14.2 37.7 14.75 38.05 15.3 38.35 15.9 38.2 16.5 38.05 16.85 37.5 17.35 36.75 18.25 36.05 19.95 34.7 22.3 34.7
L 23.1 34.75
Q 22.8 36.8 23.75 38.15 24.65 39.5 26.4 39.5 28.35 39.5 30.1 37.85 30.5 37.5 30.55 36.95 30.65 36.4 30.4 35.95 30 35.15 28.85 34.1 26.85 32.35 24.25 31.85 23.2 31.65 22.3 31.65 18.85 31.65 16.25 33.7 14.9 34.8 14.2 35.95 13.9 36.5 14.05 37.1 Z"/>
</g>

<g id="Layer0_4_FILL">
<path fill="#2F2F2F" stroke="none" d="
M 57.9 35.95
Q 57.5 35.15 56.35 34.1 54.35 32.35 51.75 31.85 50.7 31.65 49.8 31.65 46.4 31.65 43.75 33.7 41.8 35.85 41.75 35.95 41.4 36.5 41.55 37.1 41.7 37.7 42.25 38.05 42.85 38.35 43.45 38.2 44.05 38.05 44.4 37.5 44.65 36.95 45.75 36.05 47.5 34.7 49.8 34.7
L 50.65 34.75
Q 50.3 36.8 51.25 38.15 52.2 39.5 53.95 39.5 55.759375 39.453515625 57.35 38.05 57.375 38.0625 57.4 38.05 57.45 38 57.6 37.85
L 57.65 37.85
Q 58 37.5 58.1 36.95 58.2 36.4 57.9 35.95 Z"/>
</g>

<path id="Layer0_5_1_STROKES" stroke="#2F2F2F" stroke-width="3" stroke-linejoin="round" stroke-linecap="round" fill="none" d="
M 49.03346557617187 20.427326202392578
Q 54.851243591308595 20.15967788696289 58.362875366210936 25.51264419555664
M 23.089320373535156 20.427326202392578
Q 17.271542358398438 20.15967788696289 13.759910583496094 25.51264419555664"/>
</defs>

<g id="Layer_1">
<g transform="matrix( 0.5625, 0, 0, 0.5625, 0,0) ">
<use xlink:href="#Layer0_0_FILL"/>
</g>

<g transform="matrix( 0.5625, 0, 0, 0.5625, 0,-2) ">
<use xlink:href="#Layer0_1_FILL"/>
</g>

<g transform="matrix( 1, 0, 0, 1, 0,-2) ">
<use xlink:href="#Layer0_3_FILL"/>
</g>

<g transform="matrix( 1, 0, 0, 1, 0,-2) ">
<use xlink:href="#Layer0_4_FILL"/>
</g>

<g transform="matrix( 1.048248291015625, 0, 0, 1.3382415771484375, -2.75,-5.2) ">
<use xlink:href="#Layer0_5_1_STROKES" transform="matrix( 0.9539642333984375, 0, 0, 0.7472381591796875, 2.6,3.85) "/>
</g>
</g>
</svg>
