<svg xmlns="http://www.w3.org/2000/svg" xmlns:xlink="http://www.w3.org/1999/xlink" preserveAspectRatio="none" viewBox="0 0 72 72"><defs><path id="a" fill="#FCC21B" d="M127.2 93.45q0-27.05-8.45-47.2Q103.3 9.5 64 9.5q-39.35 0-54.8 36.75Q.75 66.4.75 93.45q0 10.4 18.5 17.75 18.55 7.35 44.75 7.35 26.15 0 44.7-7.35 18.5-7.35 18.5-17.75z"/><path id="b" fill="#2F2F2F" d="M55.15 46.15q.95-3.3-.7-4.4-1.1-.75-2.85-.6-.2.05-3 .6-5.7 1.15-12.4 1.15-6.75 0-12.4-1.15-2.8-.55-3-.6-1.75-.15-2.9.6-1.6 1.1-.65 4.4.95 3.3 3.55 6.05 2.4 2.45 5.4 4 4.55 2.4 10 2.4t10-2.4q3-1.55 5.35-4 2.65-2.75 3.6-6.05z"/><path id="c" fill="#D7598B" d="M36 47.65q-5.3 0-10.45-.8.6.7 2.3 9.75.2 1.05.4 1.95.8 2.3 1.95 3.65 1 1.2 2.3 1.6 1.45.5 3.5.5t3.5-.5q1.3-.4 2.3-1.6 1.15-1.35 1.95-3.65.2-.9.4-1.95 1.7-9.05 2.3-9.75-5.15.8-10.45.8v10.5-10.5z"/><path id="d" fill="none" stroke="#2F2F2F" stroke-linecap="round" stroke-linejoin="round" stroke-width="2" d="M36 47.65v10.5"/><path id="e" fill="none" stroke="#2F2F2F" stroke-linecap="round" stroke-linejoin="round" stroke-width="3" d="M54.302 36.712q-5.347-3.458-11.754-5.624 6.407-2.305 11.754-5.623"/><path id="f" fill="none" stroke="#2F2F2F" stroke-linecap="round" stroke-linejoin="round" stroke-width="3" d="M17.75 36.712q5.346-3.458 11.754-5.624-6.408-2.305-11.755-5.623"/></defs><use transform="scale(.5625)" xlink:href="#a"/><use xlink:href="#b"/><g><g><use xlink:href="#c"/><use xlink:href="#d"/></g><use transform="matrix(.99999 0 0 .99999 .003 -.026)" xlink:href="#e"/><use transform="matrix(.99999 0 0 .99999 .003 -.026)" xlink:href="#f"/></g></svg>