<svg xmlns="http://www.w3.org/2000/svg" xmlns:xlink="http://www.w3.org/1999/xlink" preserveAspectRatio="none" viewBox="0 0 72 72"><defs><path id="a" fill="#FCC21B" d="M127.1 94.3q0-26.95-8.4-46.95Q103.3 10.7 64.15 10.7T9.6 47.35Q1.15 67.4 1.15 94.3q0 10.35 18.45 17.7 18.45 7.3 44.55 7.3 26.1 0 44.55-7.3 18.4-7.35 18.4-17.7z"/><path id="b" fill="#ED6C30" d="M36 44.3h-.45q-4.45 0-7.25 2-2.6 1.9-3.05 5-.15 1 .5 1.6.75.7 3.2.3 4.15-.6 6.4-.6.3 0 .65.05v-.05h.65q2.25 0 6.4.6 2.45.4 3.2-.3.65-.6.5-1.6-.45-3.1-3.05-5-2.8-2-7.25-2H36z"/><path id="d" fill="#2F2F2F" d="M27.3 32.9q0-2.3-1.35-3.9-1.3-1.6-3.2-1.6-1.9 0-3.2 1.6-1.35 1.6-1.35 3.9 0 2.25 1.35 3.85t3.2 1.6q1.9 0 3.2-1.6 1.35-1.6 1.35-3.85z"/><path id="e" fill="#2F2F2F" d="M46.35 29Q45 30.6 45 32.9q0 2.25 1.35 3.85t3.2 1.6q1.9 0 3.2-1.6 1.35-1.6 1.35-3.85 0-2.3-1.35-3.9-1.3-1.6-3.2-1.6-1.9 0-3.2 1.6z"/><path id="c" fill="none" stroke="#2F2F2F" stroke-linecap="round" stroke-linejoin="round" stroke-width="3" d="M56.45 25.1L55.3 25q-4-.35-5.5-1.85-1.15-1.4-1.65-2.45M15.9 25.1q4.9-.2 6.65-1.95 1.15-1.4 1.65-2.45"/></defs><use transform="scale(.56248)" xlink:href="#a"/><use xlink:href="#b"/><use transform="translate(-.15)" xlink:href="#c"/><use transform="matrix(1.0669 0 0 1.0669 -1.35 -2.55)" xlink:href="#d"/><use transform="matrix(1.0669 0 0 1.0669 -3.75 -2.55)" xlink:href="#e"/></svg>