<svg xmlns="http://www.w3.org/2000/svg" xmlns:xlink="http://www.w3.org/1999/xlink" preserveAspectRatio="none" viewBox="0 0 72 72"><defs><path id="a" fill="#2F2F2F" d="M38.75 53.4q-1.2 2.2-.95 4.65.05.6.55 2.25.3 1.5-.3 2.1-3.35 3.4-1.9 7.7.4 1.2 2.1 3.75 1.6 2.35 1.9 3.85.35 1.65 2.6 2.15 2 .4 3.65-.3 1.2-.5.25-2.35-.55-1.1-1.65-2.35-.5-.6-2.45-2-1.65-1.15-2.15-2.2-.55-1.2-.2-3 .4-1.75 1.45-2.55.55-.4 1.35-.5.25-.05 1.45-.05.5 0 1.5.05.9 0 1.4-.3.3-.25.4-.55.15-.4 0-.8-.15-.5-.5-.7-2.1-.9-3.05-1.35-1.65-.8-2.1-2.4-.35-1.3-.05-2.75.3-1.55 1.25-2.4 1.05-.95 3.2-.9 1.2.05 3.5.25 1.45.1 2.35-.55.65-.4.55-1.2-.1-.7-.7-1.25-.95-.9-2.45-.6-4.25.4-6.25.8-3.45.75-4.75 3.5z"/><path id="b" fill="#2F2F2F" d="M42.75 37.7q1.05 1.05 1.7 2.25.35.75 1.05 1.15.7.45 1.45.4.65 0 1.15-.3 1.05-.5 1.4-1.6.4-1.1-.1-2.1-1-2.05-2.9-3.9-3.7-3.6-8.65-3.55h-.05q-4.9.15-8.5 3.85-1.8 1.9-2.7 3.95-.5 1.05-.05 2.15.4 1.05 1.4 1.55 1.05.5 2.15.05 1.05-.4 1.5-1.45.55-1.15 1.6-2.25 2.05-2.15 4.75-2.2 2.65-.05 4.8 2z"/><path id="c" fill="#2F2F2F" d="M87.8 49q.7-.95.6-2.1-.35-2.5-1.7-5.05-2.65-5.05-7.8-6.7-5.15-1.6-10.2 1.05-4.05 3.05-4.2 3.2-.8.85-.7 2 .05 1.15.9 1.95.8.8 1.95.75 1.15-.1 1.95-.95l2.5-1.9q3.15-1.7 6.2-.75 3 1 4.6 4.05.8 1.55 1 3.05.15 1.1.95 1.8.8.7 1.85.65h.3q1.1-.15 1.8-1.05z"/><path id="d" fill="#FCC21B" d="M127.85 93.4q0-27-8.5-47.1Q103.75 9.6 64 9.6T8.65 46.3Q.1 66.4.1 93.4q0 10.4 18.7 17.7 18.7 7.35 45.2 7.35 26.45 0 45.15-7.35 18.7-7.3 18.7-17.7z"/><path id="e" fill="#2F2F2F" d="M63.9 67.7q-1.6.4-2.65 1.1-1.35.85-1.2 1.8.15.9 1.6 1.2.8.15 2.5.15 3.7 0 5.05 1.1.7.5.75 1.95.05.8-.7 1.75-1.05 1.35-3.2 1.85-1.1.3-1.75 1-.75.85-.45 1.85.4 1.25 1.8 1.5l.6.15q4.25.85 4.85 2.9.15.45 0 1.2-.2.7-.45 1-1.15 1.4-2.85 2.15-1.4.6-3.7.95-4.05.5-4 2.05.05 1 1.5 1.6 1.2.45 2.6.45 7.4 0 10.6-3.9 2.2-2.65 1.6-6.3-.45-2.7-3.85-4.8 2.8-2.7 2.7-5.55-.05-3.5-2.8-5.75-1.45-1.2-4.05-1.6-2.4-.3-4.5.2z"/><path id="f" fill="#2F2F2F" d="M47.8 45.7q-2.45-2.85-5.8-2.8-3.35.05-5.75 2.9-2.35 2.9-2.3 6.9.05 4 2.45 6.85 2.45 2.8 5.8 2.75 3.35-.05 5.7-2.9t2.35-6.85q-.05-4.05-2.45-6.85z"/><path id="g" fill="#2F2F2F" d="M92 45.75q-2.4-2.85-5.75-2.8-3.35 0-5.75 2.85-2.35 2.85-2.35 6.85 0 4 2.4 6.85 2.4 2.85 5.75 2.8 3.35 0 5.75-2.85 2.35-2.85 2.35-6.85 0-4-2.4-6.85z"/></defs><use transform="scale(.5625)" xlink:href="#a"/><use transform="scale(.5625)" xlink:href="#b"/><use transform="scale(.5625)" xlink:href="#c"/><use transform="scale(.5625)" xlink:href="#d"/><use transform="scale(.5625)" xlink:href="#e"/><use transform="scale(.5625)" xlink:href="#f"/><use transform="scale(.5625)" xlink:href="#g"/></svg>