<svg xmlns="http://www.w3.org/2000/svg" xmlns:xlink="http://www.w3.org/1999/xlink" preserveAspectRatio="none" viewBox="0 0 72 72"><defs><path id="a" fill="#FCC21B" d="M127.1 94.3q0-26.95-8.4-46.95Q103.3 10.7 64.15 10.7T9.6 47.35Q1.15 67.4 1.15 94.3q0 10.35 18.45 17.7 18.45 7.3 44.55 7.3 26.1 0 44.55-7.3 18.4-7.35 18.4-17.7z"/><path id="c" fill="#ED6C30" d="M91.45 76.95q-1.95-1.6-8.55-.75-11 1.4-17 1.4-5.9 0-19.05-2.05-8.3-1.3-10.5.95-.7.7-.95 1.9-.2 1.1.05 2.15 1.75 7.3 10.15 11.75 8.25 4.4 19.8 4.4 11.85 0 19.25-4.65 6.9-4.35 8.15-11.5.35-2.2-1.35-3.6z"/><path id="d" fill="#2F2F2F" d="M27.3 32.9q0-2.3-1.35-3.9-1.3-1.6-3.2-1.6-1.9 0-3.2 1.6-1.35 1.6-1.35 3.9 0 2.25 1.35 3.85t3.2 1.6q1.9 0 3.2-1.6 1.35-1.6 1.35-3.85z"/><path id="e" fill="#2F2F2F" d="M46.35 29Q45 30.6 45 32.9q0 2.25 1.35 3.85t3.2 1.6q1.9 0 3.2-1.6 1.35-1.6 1.35-3.85 0-2.3-1.35-3.9-1.3-1.6-3.2-1.6-1.9 0-3.2 1.6z"/><path id="b" fill="none" stroke="#2F2F2F" stroke-linecap="round" stroke-linejoin="round" stroke-width="3" d="M56.45 25.1L55.3 25q-4-.35-5.5-1.85-1.15-1.4-1.65-2.45M15.9 25.1q4.9-.2 6.65-1.95 1.15-1.4 1.65-2.45"/></defs><use transform="scale(.56248)" xlink:href="#a"/><use xlink:href="#b"/><use transform="matrix(.3755 0 0 -.43608 11.9 86.45)" xlink:href="#c"/><g><use transform="matrix(1.06691 0 0 1.06691 -1.15 -2.55)" xlink:href="#d"/><use transform="matrix(1.06691 0 0 1.06691 -3.55 -2.55)" xlink:href="#e"/></g></svg>