<svg xmlns="http://www.w3.org/2000/svg" xmlns:xlink="http://www.w3.org/1999/xlink" preserveAspectRatio="none" viewBox="0 0 72 72"><defs><path id="a" fill="#FCC21B" d="M127.75 93.35q0-27-8.5-47.05Q103.65 9.65 64 9.65q-39.7 0-55.3 36.65Q.2 66.35.2 93.35q0 10.4 18.7 17.7 18.65 7.35 45.1 7.35 26.4 0 45.1-7.35 18.65-7.3 18.65-17.7z"/><path id="b" fill="none" stroke="#2F2F2F" stroke-linecap="round" stroke-linejoin="round" stroke-width="3" d="M52.55 46.75L49.1 50.5 42.5 43l-6.65 7.5-6.6-7.5-6.65 7.5-3.3-3.75"/><path id="c" fill="none" stroke="#2F2F2F" stroke-linecap="round" stroke-linejoin="round" stroke-width="3" d="M54.304 41.663q-5.347-3.457-11.754-5.624 6.407-2.305 11.754-5.624"/><path id="d" fill="none" stroke="#2F2F2F" stroke-linecap="round" stroke-linejoin="round" stroke-width="3" d="M17.75 30.415q5.353 3.337 11.754 5.624-6.413 2.187-11.754 5.624"/></defs><use transform="scale(.5625)" xlink:href="#a"/><use transform="translate(0 3)" xlink:href="#b"/><use transform="matrix(1 0 0 1 .003 .038)" xlink:href="#c"/><use transform="matrix(1 0 0 1 .003 .038)" xlink:href="#d"/></svg>