<svg xmlns="http://www.w3.org/2000/svg" xmlns:xlink="http://www.w3.org/1999/xlink" preserveAspectRatio="none" viewBox="0 0 72 72"><defs><path id="a" fill="#FCC21B" d="M127.75 93.35q0-27-8.5-47Q103.65 9.7 64 9.7 24.3 9.65 8.7 46.3.2 66.35.2 93.35q0 10.4 18.7 17.7 18.65 7.35 45.1 7.35 26.4 0 45.1-7.35 18.65-7.3 18.65-17.7z"/><path id="b" fill="#2F2F2F" d="M48.55 47.85q-.1-.05-3.45-2.45-4.25-2.3-9.2-2.3-5 0-9.25 2.3-2.2 1.2-3.45 2.45-.55.55-.5 1.3 0 .75.55 1.3t1.25.55q.8-.05 1.3-.6 1.05-.95 2.7-1.85 3.4-1.8 7.4-1.8 3.95 0 7.35 1.8 2.6 1.8 2.7 1.85.5.55 1.25.6.75 0 1.3-.55t.6-1.3q0-.75-.55-1.3z"/><path id="c" fill="#2F2F2F" d="M15 37.8q.15.6.7.9.4.25.75.25.9 0 1.35-.75.05-.1 1.35-1.45 1.75-1.35 4.1-1.35 2.35 0 4.15 1.35.9.7 1.3 1.45.3.55.95.7.6.15 1.15-.2.55-.3.7-.9.15-.65-.2-1.15-.4-1-2-2.25-2.6-2.05-6.05-2.05-3.45 0-6.1 2.05-1.95 2.1-2 2.25-.3.5-.15 1.15m41.85-1.15q-.7-1.2-2-2.25-2.6-2.05-6.1-2.05-3.4 0-6.05 2.05-1.95 2.15-2.05 2.25-.3.5-.1 1.15.15.6.7.9.4.25.75.25.9 0 1.3-.75.05-.1 1.4-1.45 1.75-1.35 4.05-1.35 2.35 0 4.1 1.35.9.65 1.4 1.45.3.5.9.7.65.1 1.15-.2.55-.35.7-.9.2-.65-.15-1.15z"/><path id="d" fill="#40C0E7" d="M10.65 5.5Q7.2 9 4.7 15.1q-2.4 6.05 0 10.05Q7.2 29 10.65 29q3.5 0 6-3.85 2.4-4 0-10.05-2.5-6.1-6-9.6z"/></defs><use transform="scale(.5625)" xlink:href="#a"/><use transform="matrix(.9356 0 0 1 2.4 2.15)" xlink:href="#b"/><use xlink:href="#c"/><use transform="translate(-1.25 -5.25) scale(1.30638)" xlink:href="#d"/></svg>