<svg xmlns="http://www.w3.org/2000/svg" xmlns:xlink="http://www.w3.org/1999/xlink" preserveAspectRatio="none" viewBox="0 0 72 72"><defs><path id="a" fill="#FCC21B" d="M35.85 4.85q-22.3 0-31.05 20.65Q0 36.75 0 51.95q0 5.85 10.5 9.95 10.5 4.15 25.35 4.15 14.9 0 25.4-4.15 10.5-4.1 10.5-9.95 0-15.2-4.8-26.45Q58.2 4.85 35.85 4.85z"/><path id="b" fill="#2F2F2F" d="M96.15 52.4q-.85 1.35-2.45 2.55-3.1 2.4-7.25 2.4-4.1 0-7.25-2.4-2.35-2.45-2.45-2.6-.75-1.3-2.3-1.3-.7 0-1.4.4-.95.55-1.25 1.65-.3 1.1.25 2.05.1.15 3.6 3.95 4.7 3.7 10.8 3.7 6.15 0 10.8-3.7 2.35-1.85 3.6-3.95.55-.95.25-2.05-.25-1.05-1.25-1.65-.95-.55-2.05-.3-1.1.3-1.65 1.25z"/><path id="c" fill="#2F2F2F" d="M28.1 51.45q-.95.55-1.25 1.65-.3 1.1.25 2.05.1.2 3.6 3.95 4.65 3.7 10.8 3.7t10.8-3.7q2.85-2.25 3.55-3.95.6-.95.3-2.05-.25-1.1-1.25-1.65-.95-.6-2.05-.3-1.1.25-1.65 1.25-.75 1.25-2.35 2.5-3.15 2.45-7.35 2.45-4.15 0-7.25-2.4-2.35-2.45-2.4-2.55-.85-1.35-2.4-1.35-.65 0-1.35.4z"/><path id="d" fill="#ED6C30" d="M97.65 76.15q1.7-5.9-1.2-7.85-2-1.35-5.1-1.05Q91 67.3 86 68.3q-10.05 2.05-22 2.05-12 0-22.05-2.05-5-1-5.35-1.05-3.1-.3-5.1 1.05-2.9 1.95-1.2 7.85Q32 82 36.65 86.85q4.2 4.35 9.55 7.15 8.1 4.25 17.8 4.25 9.65 0 17.75-4.25 5.35-2.8 9.55-7.15Q96 82 97.65 76.15z"/><path id="e" fill="none" stroke="#2F2F2F" stroke-linecap="round" stroke-linejoin="round" stroke-width="3" d="M56.45 25.1L55.3 25q-4-.35-5.5-1.85-1.15-1.4-1.65-2.45M15.9 25.1q4.9-.2 6.65-1.95 1.15-1.4 1.65-2.45"/></defs><use xlink:href="#a"/><use transform="rotate(10 62.336 37.742) scale(.53977)" xlink:href="#b"/><use transform="rotate(-10 8.302 20.308) scale(.53977)" xlink:href="#c"/><use transform="matrix(-.53206 0 0 -.61676 70.05 94.95)" xlink:href="#d"/><use transform="translate(-.15 -5.1)" xlink:href="#e"/></svg>