<svg xmlns="http://www.w3.org/2000/svg" xmlns:xlink="http://www.w3.org/1999/xlink" preserveAspectRatio="none" viewBox="0 0 72 72"><defs><path id="a" fill="#FCC21B" d="M36 5.55q-22.2 0-30.95 20.55Q.3 37.3.3 52.45q0 5.8 10.45 9.9 10.45 4.1 25.25 4.1 14.75 0 25.25-4.1 10.45-4.15 10.45-9.9 0-15.15-4.75-26.35Q58.2 5.55 36 5.55z"/><path id="e" fill="#ED6C30" d="M36 46.75q-3.45 0-6.4 1.2-1.95.8-3.5 2.05-1.65 1.4-2.25 3.05-.6 1.7.4 2.25.75.4 1.85.35.159-.048 2.5-.9 2.392-.81 6.45-.9 4.108-.09 7.45.8 3.34.947 3.45 1 1.15.05 1.85-.35 1.05-.55.45-2.25-.6-1.65-2.35-3.05-1.5-1.25-3.45-2.05-2.9-1.2-6.45-1.2z"/><path id="b" fill="none" stroke="#2F2F2F" stroke-linecap="round" stroke-linejoin="round" stroke-width="3" d="M57.1 24.95q-6.05.2-9.65-3.8m-33.95 3.8q6.05.2 9.65-3.8"/><path id="c" fill="none" stroke="#2F2F2F" stroke-linecap="round" stroke-linejoin="round" stroke-width="3" d="M54.034 43.148q-6.004-4.218-13.199-6.86 7.195-2.812 13.2-6.861"/><path id="d" fill="none" stroke="#2F2F2F" stroke-linecap="round" stroke-linejoin="round" stroke-width="3" d="M18.037 43.148q6.004-4.218 13.2-6.86-7.196-2.812-13.2-6.861"/></defs><use xlink:href="#a"/><use transform="translate(.7)" xlink:href="#b"/><use transform="matrix(.99999 0 0 1 -.005 -.039)" xlink:href="#c"/><use transform="matrix(.99999 0 0 1 .024 -.039)" xlink:href="#d"/><use transform="matrix(1 0 0 1.14607 0 -7.45)" xlink:href="#e"/></svg>