
<svg xmlns="http://www.w3.org/2000/svg" version="1.1" xmlns:xlink="http://www.w3.org/1999/xlink" preserveAspectRatio="none" x="0px" y="0px" width="72px" height="72px" viewBox="0 0 72 72">
<defs>
<g id="Layer0_0_FILL">
<path fill="#FCC21B" stroke="none" d="
M 128.1 93.45
Q 128.1 66.45 119.55 46.35 103.95 9.65 64.2 9.65 24.45 9.65 8.85 46.35 0.3 66.45 0.3 93.45 0.3 103.85 19 111.2 37.75 118.55 64.2 118.55 90.65 118.55 109.4 111.2 128.1 103.85 128.1 93.45 Z"/>
</g>

<g id="Layer0_1_FILL">
<path fill="#ED6C30" stroke="none" d="
M 75.2 75.55
Q 71.1 69.1 64 69.1 56.85 69.1 52.8 75.55 49.2 81.2 49.2 89.3 49.2 96.6 53 100.45 56.8 104.3 64 104.3 71.15 104.3 74.95 100.45 78.75 96.6 78.75 89.3 78.75 81.2 75.2 75.55 Z"/>
</g>

<path id="Layer0_2_1_STROKES" stroke="#2F2F2F" stroke-width="3" stroke-linejoin="round" stroke-linecap="round" fill="none" d="
M 48.1 28.55
Q 48.3 27.45 49.3 26.85 50.35 26.4 51.5 26.55 52.65 26.8 53.45 27.9 54.15 29 54.25 30.6 54.35 32.6 52.75 34.4 50.75 36.6 47.65 36.2 44.3 35.75 42.85 32.6 41.55 30 42.1 27.45 42.5 24.95 44.5 22.95 47 20.55 51 20.55 55.05 20.6 57.6 23.55 59.5 25.85 60 28.85
M 23.95 30.4
Q 22.8 30.55 21.95 29.8 21.1 29 20.9 27.8 20.7 26.7 21.5 25.55 22.3 24.5 23.7 23.85 25.5 23.05 27.8 23.95 30.55 25.05 31.3 28.1 32.05 31.4 29.55 33.9 27.55 35.95 25.05 36.4 22.5 36.85 20 35.65 16.85 34.15 15.45 30.45 14 26.65 15.95 23.25 17.4 20.65 20.1 19.1"/>
</defs>

<g id="Layer_1">
<g transform="matrix( 0.5625, 0, 0, 0.5625, 0,0) ">
<use xlink:href="#Layer0_0_FILL"/>
</g>

<g transform="matrix( 0.4729766845703125, 0, 0, 0.4729766845703125, 5.75,8.65) ">
<use xlink:href="#Layer0_1_FILL"/>
</g>

<g transform="matrix( 1, 0, 0, 1, -1.4,0) ">
<use xlink:href="#Layer0_2_1_STROKES"/>
</g>
</g>
</svg>
