<svg xmlns="http://www.w3.org/2000/svg" xmlns:xlink="http://www.w3.org/1999/xlink" preserveAspectRatio="none" viewBox="0 0 72 72"><defs><radialGradient id="a" cx="0" cy="0" r="10.375" fx="0" fy="0" gradientTransform="translate(53.3 46.4)" gradientUnits="userSpaceOnUse" spreadMethod="pad"><stop offset="0%" stop-color="#F79329"/><stop offset="100%" stop-color="#FCC21B" stop-opacity="0"/></radialGradient><radialGradient id="b" cx="0" cy="0" r="10.375" fx="0" fy="0" gradientTransform="translate(18.6 46.4)" gradientUnits="userSpaceOnUse" spreadMethod="pad"><stop offset="0%" stop-color="#F79329"/><stop offset="100%" stop-color="#FCC21B" stop-opacity="0"/></radialGradient><path id="c" fill="#FCC21B" d="M66.85 48q.563-3.917-.05-8.15-.85-5.1-3.85-9.65.75-7.8.55-13.6-.45-9.5-3.55-11.65-2.5-1.65-8.3 3.05-3.95 3.05-7.6 7.35l-1.85 2.2q-3.3-.5-6.2-.5-2.9 0-6.2.5l-1.85-2.2q-3.65-4.3-7.6-7.35-5.8-4.7-8.3-3.05Q8.95 7.1 8.5 16.6q-.2 5.8.55 13.6-3 4.55-3.85 9.65-.6 4.25-.1 8.2.1.45.15.95.45 2.35 1.3 4.6l.2.5q.5 1 1.05 1.95.05 0 .05.05v.05q1.75 2.65 4.45 4.7 5.15 3.8 12.55 5.45Q31 67.55 35.8 67.55h.4q4.8 0 10.95-1.25 7.4-1.65 12.55-5.45 2.676-2.053 4.4-4.75h.05q.01-.026 0-.05.614-.94 1.1-1.95l.2-.5q.845-2.256 1.25-4.65.108-.452.15-.95z"/><path id="d" fill="#FCD995" d="M-24.95 46.55q2.7-2.05 4.45-4.7v-.05q0-.05.05-.05.55-.95 1.05-1.95l.2-.5q.85-2.25 1.3-4.6.05-.5.15-.95-15.25-5.2-30.9-5.3-15.65.1-30.9 5.3.1.45.15.95.45 2.35 1.3 4.6l.2.5q.5 1 1.05 1.95.05 0 .05.05v.05q1.75 2.65 4.45 4.7 5.15 3.8 12.55 5.45 6.15 1.25 10.95 1.25h.4q4.8 0 10.95-1.25 7.4-1.65 12.55-5.45z"/><path id="e" fill="#FCD995" d="M13.35 7.35q-3.4 1.4-.85 19.35 5.7-4.75 13.1-8.25Q16.85 6.1 13.35 7.35m46.1 19.3Q62.045 8.757 58.6 7.3q-3.469-1.22-12.25 11.15 7.46 3.488 13.1 8.2z"/><path id="f" fill="url(#a)" d="M49.8 36.7q-4.1 1.45-5.95 5.35-1.8 3.9-.35 7.95 1.5 4 5.45 5.85 3.95 1.8 8 .35 4.1-1.5 5.95-5.35 1.85-3.9.35-7.95-1.5-4.05-5.45-5.85-3.95-1.85-8-.35z"/><path id="g" fill="url(#b)" d="M15.1 36.7q-4.1 1.45-5.95 5.35-1.8 3.9-.35 7.95 1.5 4 5.45 5.85 3.95 1.8 8 .35 4.1-1.5 5.95-5.35 1.85-3.9.35-7.95-1.5-4.05-5.45-5.85-3.95-1.85-8-.35z"/><path id="i" fill="#2F2F2F" d="M51.4 48.8q-4.65-3.7-10.8-3.7-6.1 0-10.75 3.7-2.35 1.85-3.6 3.9-.55 1-.3 2.05.3 1.1 1.25 1.65.95.6 2.05.3 1.1-.25 1.7-1.2.85-1.35 2.45-2.6 3.1-2.4 7.2-2.35 4.15 0 7.25 2.4 1.6 1.2 2.45 2.55.75 1.3 2.35 1.3.75 0 1.4-.35.95-.6 1.25-1.7.25-1.1-.3-2.05-1.25-2.05-3.6-3.9z"/><path id="j" fill="#2F2F2F" d="M98.35 48.75q-4.65-3.7-10.75-3.7-6.15 0-10.8 3.7-3.5 3.8-3.6 3.95-.55 1-.3 2.05.3 1.1 1.25 1.65.95.6 2.1.3 1.1-.25 1.65-1.25l2.35-2.5q3.15-2.45 7.35-2.45 4.1 0 7.25 2.4 1.6 1.2 2.4 2.55.8 1.35 2.35 1.35.7 0 1.4-.4.95-.55 1.25-1.65.25-1.1-.3-2.05-1.25-2.05-3.6-3.95z"/><path id="k" fill="#2F2F2F" d="M31.2 43.1q2.95.6 4.8 2.45 1.85-1.85 4.8-2.45-.95-2.7-4.75-2.7-3.95 0-4.85 2.7z"/><path id="n" fill="#2F2F2F" d="M96.35 36.15q-.9.2-1.5.6-.75.5-.65 1 .05.5.9.7.45.05 1.4.05 2.05 0 2.85.65.35.25.4 1.1.05.45-.4.95-.6.8-1.8 1.05-.6.2-1 .6-.4.45-.25 1 .25.7 1.05.85l.3.1q2.4.45 2.75 1.65.1.25 0 .65t-.25.55q-.65.8-1.6 1.2-.8.35-2.1.55-2.25.3-2.25 1.15.05.55.85.9.7.25 1.45.25 4.2 0 6-2.2 1.2-1.45.9-3.5-.3-1.55-2.2-2.7 1.6-1.55 1.55-3.15-.05-1.95-1.6-3.25-.8-.65-2.25-.9-1.35-.15-2.55.15z"/><path id="h" fill="none" stroke="#2F2F2F" stroke-linecap="round" stroke-linejoin="round" stroke-width="2" d="M58.15 43.1q5.85-1.05 11.75-.6M60.15 47q4.7.25 8.7 1.4m-12.4-8.85q6.5-2.85 14.4-3.3M14 43.1Q8.1 42 2.25 42.5m9.7 4.5q-4.7.3-8.75 1.4m12.4-8.85q-6.5-2.85-14.4-3.3"/><path id="l" fill="none" stroke="#2F2F2F" stroke-linecap="round" stroke-linejoin="round" stroke-width="1" d="M30.993 42.382q3.096.63 5.038 2.571 1.941-1.941 5.037-2.57-.997-2.834-4.985-2.834-4.145 0-5.09 2.833z"/><path id="m" fill="none" stroke="#2F2F2F" stroke-linecap="round" stroke-linejoin="round" stroke-width="2" d="M36.03 44.953v3.464"/></defs><use xlink:href="#c"/><use transform="translate(84.65 14.3)" xlink:href="#d"/><use xlink:href="#e"/><use xlink:href="#f"/><use xlink:href="#g"/><use xlink:href="#h"/><use transform="rotate(-5.001 134.41 -2.735) scale(.49704)" xlink:href="#i"/><use transform="rotate(5.001 -66.574 91.862) scale(.49704)" xlink:href="#j"/><g transform="matrix(1.04947 0 0 1.04947 -1.75 -2.85)"><use xlink:href="#k"/><use transform="translate(1.65 2.7) scale(.95285)" xlink:href="#l"/><use transform="translate(1.65 2.7) scale(.95285)" xlink:href="#m"/></g><use transform="matrix(.82796 0 0 .82796 -44.8 17.8)" xlink:href="#n"/></svg>