<svg xmlns="http://www.w3.org/2000/svg" xmlns:xlink="http://www.w3.org/1999/xlink" preserveAspectRatio="none" viewBox="0 0 72 72"><defs><linearGradient id="a" x1="64" x2="64" y1="66.688" y2="4.313" gradientUnits="userSpaceOnUse" spreadMethod="pad"><stop offset="0%" stop-color="#FCC21B"/><stop offset="15.294%" stop-color="#E5BF34"/><stop offset="47.451%" stop-color="#ABB973"/><stop offset="93.333%" stop-color="#4FAFD8"/><stop offset="100%" stop-color="#42ADE7"/></linearGradient><path id="b" fill="url(#a)" d="M127.8 93.35q0-26.95-8.55-47.05Q103.65 9.65 64 9.65T8.75 46.3Q.2 66.4.2 93.35q0 10.4 18.7 17.7 18.65 7.35 45.1 7.35 26.4 0 45.1-7.35 18.7-7.3 18.7-17.7z"/><path id="c" fill="#ED6C30" d="M64.5 61.55h-.9q-6.986.134-11.2 4.3-4.85 4.85-4.85 14.1V90.05q0 9.25 4.85 14.1 4.214 4.166 11.2 4.3h.9q6.984-.134 11.15-4.3 4.85-4.85 4.85-14.1V85.1v-5.15q0-9.25-4.85-14.1-4.166-4.166-11.15-4.3z"/><path id="d" fill="#E48C15" d="M26.15 67.35q-2.3-4.2-4.3-10.6-.7-2.4-2.2-3.7-1.7-1.6-4.15-1.3-2.3.25-3.35 1.75-1.45 2.1-1.35 7.45.15 7.15 1.55 13.4Q13.8 81 16.5 85.7q3.2 5.55 3.9 13.75.4 4.5.45 11.95.3 3.3 2.4 6 2.25 2.95 5.8 3.85 3.65 1.05 6.85-.4 3.35-1.55 3.4-4.8l.65-14.75q.3-4.15-.45-9.15-1.5-10.05-6.65-15.3l-.1-.15q-4.25-5-6.6-9.35m79.9-10.6q-1.95 6.4-4.2 10.6-2.35 4.35-6.65 9.35l-.1.15q-5.15 5.25-6.6 15.3-.75 5-.5 9.15l.65 14.75q.05 3.25 3.4 4.8 3.2 1.45 6.85.4 3.55-.9 5.85-3.85 2.05-2.7 2.35-6 .1-7.45.45-11.95.7-8.2 3.9-13.75 2.65-4.7 4.15-11.35 1.4-6.3 1.55-13.4.1-5.35-1.35-7.45-1.05-1.5-3.35-1.75-2.4-.3-4.15 1.3-1.5 1.3-2.25 3.7z"/><path id="e" fill="#FFF" d="M101.35 47.05q.8-6.85-3.2-12.2Q94.2 29.5 87.8 28.8q-6.35-.7-11.45 3.65-5.05 4.35-5.8 11.15-.75 6.85 3.2 12.2 4 5.35 10.35 6.05 6.4.7 11.45-3.65 5.05-4.3 5.8-11.15z"/><path id="f" fill="#FFF" d="M55.65 47.1q.7-6.85-2.75-12.2-3.4-5.35-8.95-6.05-5.45-.7-9.85 3.65-4.35 4.35-5 11.15-.65 6.85 2.75 12.2 3.45 5.35 8.9 6.05 5.55.7 9.9-3.65 4.35-4.3 5-11.15z"/></defs><use transform="scale(.5625)" xlink:href="#b"/><use transform="matrix(.48238 0 0 .50403 5.1 5.95)" xlink:href="#c"/><use transform="scale(.5625)" xlink:href="#d"/><use transform="matrix(.45547 -.16577 .19237 .52855 1.25 17.4)" xlink:href="#e"/><use transform="matrix(.52855 .19237 -.19237 .52855 9.25 -4.85)" xlink:href="#f"/></svg>