<svg xmlns="http://www.w3.org/2000/svg" xmlns:xlink="http://www.w3.org/1999/xlink" preserveAspectRatio="none" viewBox="0 0 72 72"><defs><path id="b" fill="url(#a)" d="M127.55 92.35q0-27-8.5-47.05-15.6-36.65-55.3-36.65Q24.1 8.65 8.5 45.3 0 65.35 0 92.35q0 10.4 18.7 17.7 18.65 7.35 45.05 7.35 26.45 0 45.1-7.35 18.7-7.3 18.7-17.7z"/><path id="c" fill="#ED6C30" d="M92.9 95.7q.5-4.3-2.1-9.2-3.65-6.9-9.9-10.4-5.5-3.1-13.75-3.95L64 72q-2.2.1-3.2.2-8.2.85-13.7 3.95-6.3 3.5-9.95 10.35-2.6 4.9-2.1 9.2.5 4.35 4.1 6.85 1.75 1.2 5 1.3 2.9.15 5.4-.65 1.7-.5 5.65-1.85 3.8-1.1 7.15-1.15h3.2q3.4.05 7.2 1.15 2.1.6 5.65 1.85 2.5.8 5.45.65 3.2-.1 4.95-1.3 3.6-2.5 4.1-6.85z"/><path id="d" fill="#2F2F2F" d="M27.3 32.9q0-2.3-1.35-3.9-1.3-1.6-3.2-1.6-1.9 0-3.2 1.6-1.35 1.6-1.35 3.9 0 2.25 1.35 3.85t3.2 1.6q1.9 0 3.2-1.6 1.35-1.6 1.35-3.85z"/><path id="e" fill="#2F2F2F" d="M46.35 29Q45 30.6 45 32.9q0 2.25 1.35 3.85t3.2 1.6q1.9 0 3.2-1.6 1.35-1.6 1.35-3.85 0-2.3-1.35-3.9-1.3-1.6-3.2-1.6-1.9 0-3.2 1.6z"/><path id="f" fill="#40C0E7" d="M10.65 5.5Q7.2 9 4.7 15.1q-2.4 6.05 0 10.05Q7.2 29 10.65 29q3.5 0 6-3.85 2.4-4 0-10.05-2.5-6.1-6-9.6z"/><path id="g" fill="none" stroke="#2F2F2F" stroke-linecap="round" stroke-linejoin="round" stroke-width="3" d="M56.45 25.1L55.3 25q-4-.35-5.5-1.85-1.15-1.4-1.65-2.45M15.9 25.1q4.9-.2 6.65-1.95 1.15-1.4 1.65-2.45"/><linearGradient id="a" x1="63.85" x2="63.85" y1="65.688" y2="3.313" gradientUnits="userSpaceOnUse" spreadMethod="pad"><stop offset="0%" stop-color="#FCC21B"/><stop offset="15.294%" stop-color="#E5BF34"/><stop offset="47.451%" stop-color="#ABB973"/><stop offset="93.333%" stop-color="#4FAFD8"/><stop offset="100%" stop-color="#42ADE7"/></linearGradient></defs><use transform="scale(.56248)" xlink:href="#b"/><use transform="matrix(.46198 0 0 .37044 6.4 17.9)" xlink:href="#c"/><use transform="matrix(1.0669 0 0 1.0669 -1.35 -.25)" xlink:href="#d"/><use transform="matrix(1.0669 0 0 1.0669 -3.75 -.25)" xlink:href="#e"/><use transform="translate(.9 33.15) scale(1.10623)" xlink:href="#f"/><use transform="translate(-.1 -2.2)" xlink:href="#g"/></svg>