<svg xmlns="http://www.w3.org/2000/svg" xmlns:xlink="http://www.w3.org/1999/xlink" preserveAspectRatio="none" viewBox="0 0 72 72"><defs><path id="a" fill="#FCC21B" d="M66.85 48q.563-3.917-.05-8.15-.85-5.1-3.85-9.65.75-7.8.55-13.6-.45-9.5-3.55-11.65-2.5-1.65-8.3 3.05-3.95 3.05-7.6 7.35l-1.85 2.2q-3.3-.5-6.2-.5-2.9 0-6.2.5l-1.85-2.2q-3.65-4.3-7.6-7.35-5.8-4.7-8.3-3.05Q8.95 7.1 8.5 16.6q-.2 5.8.55 13.6-3 4.55-3.85 9.65-.6 4.25-.1 8.2.1.45.15.95.45 2.35 1.3 4.6l.2.5q.5 1 1.05 1.95.05 0 .05.05v.05q1.75 2.65 4.45 4.7 5.15 3.8 12.55 5.45Q31 67.55 35.8 67.55h.4q4.8 0 10.95-1.25 7.4-1.65 12.55-5.45 2.676-2.053 4.4-4.75h.05q.01-.026 0-.05.614-.94 1.1-1.95l.2-.5q.845-2.256 1.25-4.65.108-.452.15-.95z"/><path id="b" fill="#FCD995" d="M-24.95 46.55q2.7-2.05 4.45-4.7v-.05q0-.05.05-.05.55-.95 1.05-1.95l.2-.5q.85-2.25 1.3-4.6.05-.5.15-.95-15.25-5.2-30.9-5.3-15.65.1-30.9 5.3.1.45.15.95.45 2.35 1.3 4.6l.2.5q.5 1 1.05 1.95.05 0 .05.05v.05q1.75 2.65 4.45 4.7 5.15 3.8 12.55 5.45 6.15 1.25 10.95 1.25h.4q4.8 0 10.95-1.25 7.4-1.65 12.55-5.45z"/><path id="c" fill="#FCD995" d="M13.35 7.35q-3.4 1.4-.85 19.35 5.7-4.75 13.1-8.25Q16.85 6.1 13.35 7.35m46.1 19.3Q62.045 8.757 58.6 7.3q-3.469-1.22-12.25 11.15 7.46 3.488 13.1 8.2z"/><path id="e" fill="#2F2F2F" d="M31.2 43.1q2.95.6 4.8 2.45 1.85-1.85 4.8-2.45-.95-2.7-4.75-2.7-3.95 0-4.85 2.7z"/><path id="h" fill="#2F2F2F" d="M16.75 26.95q-1.35 1.1-2 2.2-.3.65-.2 1.15.25.7.7.95.55.3 1.15.15.65-.15.95-.65.35-.7 1.4-1.45 1.75-1.35 4.05-1.35t4.1 1.35q.95.7 1.35 1.45.45.7 1.3.7.55 0 .8-.2.55-.3.7-.9.15-.6-.15-1.2-.65-1.1-2-2.2-2.65-2.05-6.1-2.05-3.5 0-6.05 2.05z"/><path id="i" fill="#2F2F2F" d="M57.3 29.15q-.65-1.1-2-2.2-2.55-2.05-6.1-2.05-3.5 0-6.05 2.05l-2 2.2q-.35.5-.2 1.15.15.65.75.95.5.3 1.15.15.6-.15.9-.7l1.35-1.4q1.75-1.35 4.1-1.35 2.4 0 4.1 1.35.95.7 1.35 1.4.55.75 1.35.75.5 0 .75-.2.55-.25.7-.95.15-.6-.15-1.15z"/><path id="j" fill="#ED6C30" d="M49.65 46.85q-.8-.55-2.1-.4-.15.05-1.3.2-.45.1-.95.2-.1 0-.25.05-4.2.8-9 .8-4.85 0-8.95-.75-.15-.05-.35-.1-.4-.1-.75-.15h-.05q-1.35-.2-1.4-.25-1.35-.15-2.2.4-.3.2-.45.55-.55.9 0 2.6.7 2.3 2.65 4.25 1.8 1.75 4.05 2.85 3.35 1.7 7.45 1.7 4.05 0 7.4-1.7 2.25-1.1 4.05-2.85 1.95-1.95 2.65-4.25.55-1.75 0-2.65-.2-.3-.5-.5z"/><path id="d" fill="none" stroke="#2F2F2F" stroke-linecap="round" stroke-linejoin="round" stroke-width="2" d="M58.15 43.1q5.85-1.05 11.75-.6M60.15 47q4.7.25 8.7 1.4m-12.4-8.85q6.5-2.85 14.4-3.3M14 43.1Q8.1 42 2.25 42.5m9.7 4.5q-4.7.3-8.75 1.4m12.4-8.85q-6.5-2.85-14.4-3.3"/><path id="f" fill="none" stroke="#2F2F2F" stroke-linecap="round" stroke-linejoin="round" stroke-width="1" d="M30.993 42.382q3.096.63 5.038 2.571 1.941-1.941 5.037-2.57-.997-2.834-4.985-2.834-4.145 0-5.09 2.833z"/><path id="g" fill="none" stroke="#2F2F2F" stroke-linecap="round" stroke-linejoin="round" stroke-width="2" d="M36.03 44.953v3.464"/></defs><use xlink:href="#a"/><use transform="translate(84.65 14.3)" xlink:href="#b"/><use xlink:href="#c"/><use xlink:href="#d"/><g transform="matrix(1.04947 0 0 1.04947 -1.75 -2.85)"><use xlink:href="#e"/><use transform="translate(1.65 2.7) scale(.95285)" xlink:href="#f"/><use transform="translate(1.65 2.7) scale(.95285)" xlink:href="#g"/></g><use transform="matrix(.93712 0 0 .93712 2.3 8.95)" xlink:href="#h"/><use transform="matrix(.93712 0 0 .93712 2.3 8.95)" xlink:href="#i"/><use xlink:href="#j"/></svg>