<svg xmlns="http://www.w3.org/2000/svg" xmlns:xlink="http://www.w3.org/1999/xlink" preserveAspectRatio="none" viewBox="0 0 72 72"><defs><radialGradient id="a" cx="0" cy="0" r="12.012" fx="0" fy="0" gradientTransform="translate(13.2 41.7)" gradientUnits="userSpaceOnUse" spreadMethod="pad"><stop offset="0%" stop-color="#ED6C30"/><stop offset="100%" stop-color="#FCC21B"/></radialGradient><path id="b" fill="#FCC21B" d="M127.55 92.35q0-27-8.5-47.05-15.6-36.65-55.3-36.65Q24.1 8.65 8.5 45.3 0 65.35 0 92.35q0 10.4 18.7 17.7 18.65 7.35 45.05 7.35 26.45 0 45.1-7.35 18.7-7.3 18.7-17.7z"/><path id="c" fill="url(#a)" d="M2.2 36.6q-2.1 4.5-.4 9.2 1.75 4.6 6.3 6.75 4.55 2.1 9.25.4 4.75-1.75 6.85-6.2 2.15-4.5.4-9.2-1.7-4.65-6.25-6.75-4.6-2.1-9.3-.4-4.7 1.7-6.85 6.2z"/><path id="d" fill="url(#a)" d="M2.2 36.6q-2.1 4.5-.4 9.2 1.75 4.6 6.3 6.75 4.55 2.1 9.25.4 4.75-1.75 6.85-6.2 2.15-4.5.4-9.2-1.7-4.65-6.25-6.75-4.6-2.1-9.3-.4-4.7 1.7-6.85 6.2z"/><path id="e" fill="#FFF" d="M97.7 42.4q-3.95-5.35-10.35-6.05-6.4-.7-11.45 3.6-5.05 4.35-5.8 11.2t3.2 12.15q4 5.35 10.35 6.05 6.4.7 11.45-3.6 5.05-4.35 5.8-11.2.8-6.8-3.2-12.15z"/><path id="f" fill="#2F2F2F" d="M90.7 48.45Q89 46.6 86.5 46.5q-2.5-.2-4.4 1.45-1.9 1.65-2.05 4.15-.2 2.45 1.5 4.35 1.65 1.85 4.15 2 2.5.15 4.4-1.5 1.9-1.65 2.1-4.15.15-2.5-1.5-4.35z"/><path id="g" fill="#FFF" d="M97.7 42.4q-3.95-5.35-10.35-6.05-6.4-.7-11.45 3.6-5.05 4.35-5.8 11.2t3.2 12.15q4 5.35 10.35 6.05 6.4.7 11.45-3.6 5.05-4.35 5.8-11.2.8-6.8-3.2-12.15z"/><path id="h" fill="#2F2F2F" d="M90.7 48.45Q89 46.6 86.5 46.5q-2.5-.2-4.4 1.45-1.9 1.65-2.05 4.15-.2 2.45 1.5 4.35 1.65 1.85 4.15 2 2.5.15 4.4-1.5 1.9-1.65 2.1-4.15.15-2.5-1.5-4.35z"/><path id="i" fill="none" stroke="#2F2F2F" stroke-linecap="round" stroke-linejoin="round" stroke-width="3" d="M30 51.85h12"/><path id="j" fill="none" stroke="#2F2F2F" stroke-linecap="round" stroke-linejoin="round" stroke-width="3" d="M47.05 17.5q6-.45 9.9 4.4M24.5 17.45q-6-.45-9.95 4.45"/></defs><use transform="scale(.5625)" xlink:href="#b"/><use transform="translate(42.8 1.5)" xlink:href="#c"/><use transform="translate(2.75 1.5)" xlink:href="#d"/><use transform="matrix(.56247 0 0 .56247 -25.1 3)" xlink:href="#e"/><use transform="matrix(.64214 0 0 .64214 -32.3 -1.15)" xlink:href="#f"/><use transform="matrix(-.56247 0 0 .56247 97.1 3)" xlink:href="#g"/><use transform="matrix(-.64214 0 0 .64214 104.3 -1.15)" xlink:href="#h"/><g><use xlink:href="#i"/><use transform="translate(.25)" xlink:href="#j"/></g></svg>