<svg xmlns="http://www.w3.org/2000/svg" xmlns:xlink="http://www.w3.org/1999/xlink" preserveAspectRatio="none" viewBox="0 0 72 72"><defs><path id="a" fill="#00ACC1" d="M34.2 100.7q-13.8 6.15-13.8 17.4v9.9h87.15v-9.9q0-10.75-13.45-17.1-12.15-5.75-29.8-5.75-18.05.05-30.1 5.45z"/><path id="b" fill="#00ACC1" d="M22.35 53.1q-.65-.5-.85-1.25l-1.65-6.95-5.15 8.7v7.6h21.45v-7.6H23.7q-.8 0-1.35-.5z"/><path id="c" fill="#563E37" d="M73 90.25H54.85v9.6q0 3.25 2.4 5.55 2.45 2.3 5.85 2.3h1.65q3.4 0 5.85-2.3 2.4-2.3 2.4-5.55v-9.6z"/><path id="d" fill="#563E37" d="M106.9 66.05h-3.6v20.3q4.75 0 7.85-2.4 3.6-2.8 3.6-8.05 0-5.3-3.9-8.1l-3.95-1.75z"/><path id="e" fill="#563E37" d="M24.7 66.05h-3.65l-3.9 1.75q-3.95 2.8-3.95 8.1 0 5.25 3.6 8.05 3.1 2.4 7.9 2.4v-20.3z"/><path id="f" fill="#8E726A" d="M106.75 73.8q0-30.45-8.65-45.45Q87.85 10.6 64 10.6q-23.9 0-34.15 17.75-8.65 15-8.65 45.45 0 25.9 14.6 38.45Q47.05 122 64 122q16.8 0 28.1-9.65 14.65-12.55 14.65-38.55z"/><path id="g" fill="#232020" d="M63.35 24.5v-.8q-.4-6.25-5.65-10.85-7.2-6.3-21.15-6.5H35.5q-13.95.2-21.1 6.5-5.3 4.6-5.65 10.85-.05.4-.05.8v14.55q.35-.3.95-.75.4-.35.95-.6l.4-.2 1.05 6.95Q17.8 35.5 19.4 25.7q4.55 3 8.3 4.25 3.75 1.25 7.8 1.2h1.05q6.7-.05 12.3-.7l4.1-.45q.1 0 .2.1L60 44.45l1.05-6.95.45.2q.5.25.9.55.65.5.95.8V24.5z"/><path id="h" fill="#513F35" d="M54.75 78.15q-.8 0-1.05.5t.25 1.25q.95 1.5 3.35 2.75 3.05 1.6 6.7 1.6 3.6 0 6.65-1.6 2.4-1.3 3.35-2.75.5-.75.25-1.25t-1.05-.5H54.75z"/><path id="i" fill="#563E37" d="M69.05 70.5q-.2-.35-.65-.2-2.3.65-4.5.65-2.15 0-4.45-.65-.45-.15-.7.2-.2.35 0 .65.5.85 1.75 1.65 1.6 1 3.4 1 1.8 0 3.4-1 1.25-.8 1.75-1.65.2-.35 0-.65z"/><path id="j" fill="#8E726A" d="M45.05 29.5q.25-.8-.6-1.45-1.8-1.4-3.6-1.1-1.05.15-3.35 1.25-1.6 0-1.3-2.5.2-1.65 1-3.6l4.35-9.9q.6-1.2.45-2.15-.2-.95-1.05-1.35-.8-.4-1.75.35-.8.6-1.2 1.4-2.25 4.25-3.55 7.35-.15.3-.25.3-.45.15-.7-.2l-.15-.35q2.25-8.3 2.6-9.65.95-3.4-.9-4-2.15-.6-3.1 3.05-1.5 5.45-2.65 9.3-.6.55-1.05.2l-.3-.45q.6-3.75 1.55-8.85.35-2.85-1.35-3.2-1.85-.45-2.45 2.8L24 15.7q-.45.85-1.05.65l-.45-.4q.25-2.7.4-5.5.1-1.5-.3-2.1-.35-.65-1.3-.65-.95-.05-1.45.75-.35.6-.55 2.1-1.2 9.6-1.9 12.3-.9 3.5-.3 6.65.5 3.05 2.1 4.35 2.3 1.85 5.4 2.65 3.25.8 6.45.1 1.05-.25 3.85-2.1.15-.1 3.7-2.3 1.4-.4 2.8-.7 1.05-.2 2-.55 1.45-.55 1.65-1.45z"/><path id="k" fill="#8E726A" d="M35.9 33.85L17 25.4q-.6 3.3-.25 8.2.15 2.5.45 4.3l15.35 1.65q.7-2.65 2.1-4.45.7-.9 1.25-1.25z"/><path id="l" fill="#00ACC1" d="M9.3 19.55q-.35.25-.45.65l-3.7 16.95q-.35 2-.15 3.75l2.3 18.35Q8.6 68.7 11.5 72h12.95L21.9 53.45l-3.05-12.4q-.35-1.55-.3-3.35l.95-16.05q.05-.45-.25-.8-.3-.35-.75-.4l-8.45-1.1q-.4-.05-.75.2z"/><path id="m" fill="#444" d="M53.5 60.75q0-2.15-1.25-3.65-1.3-1.5-3.05-1.5-1.75 0-3 1.5t-1.25 3.65q0 2.15 1.25 3.65t3 1.5q1.75 0 3.05-1.5 1.25-1.5 1.25-3.65z"/><path id="n" fill="#444" d="M83 60.75q0-2.15-1.25-3.65t-3-1.5q-1.75 0-3.05 1.5-1.25 1.5-1.25 3.65t1.25 3.65q1.25 1.5 3.05 1.5 1.75 0 3-1.5T83 60.75z"/></defs><use transform="rotate(.078) scale(.56247)" xlink:href="#a"/><use xlink:href="#b"/><use transform="rotate(.078) scale(.56247)" xlink:href="#c"/><use transform="matrix(.423 0 0 .423 8.95 .6)" xlink:href="#d"/><use transform="matrix(.423 0 0 .423 8.95 .6)" xlink:href="#e"/><use transform="matrix(.42313 0 0 .42313 8.95 1.05)" xlink:href="#f"/><use transform="matrix(.75224 0 0 .75224 8.95 .7)" xlink:href="#g"/><use transform="rotate(.078) scale(.56247)" xlink:href="#h"/><use transform="rotate(.078) scale(.56247)" xlink:href="#i"/><use transform="rotate(.11) scale(.56244)" xlink:href="#j"/><use transform="rotate(.11) scale(.56244)" xlink:href="#k"/><use xlink:href="#l"/><use transform="rotate(.11) scale(.56244)" xlink:href="#m"/><use transform="rotate(.11) scale(.56244)" xlink:href="#n"/></svg>