<svg xmlns="http://www.w3.org/2000/svg" xmlns:xlink="http://www.w3.org/1999/xlink" preserveAspectRatio="none" viewBox="0 0 72 72"><defs><path id="a" fill="#00ACC1" d="M92.8 92.55q-1.85 4.85-10.7 4.2-11.65-1.7-18.25-1.5v13.55h37.8V95.25L96.5 81.4l-3.7 11.15z"/><path id="b" fill="#00ACC1" d="M31.25 81.4L26.1 95.25v13.55h37.75V95.25q-3.9-.15-9.6.5-8.3 1-8.6 1-8.85.65-10.7-4.2l-3.7-11.15z"/><path id="c" fill="#00ACC1" d="M34.2 100.7q-13.8 6.15-13.8 17.4v9.9h87.15v-9.9q0-10.75-13.45-17.1-12.15-5.75-29.8-5.75-18.05.05-30.1 5.45z"/><path id="d" fill="#7A4C32" d="M73 90.25H54.85v9.6q0 3.25 2.4 5.55 2.45 2.3 5.85 2.3h1.65q3.4 0 5.85-2.3 2.4-2.3 2.4-5.55v-9.6z"/><path id="e" fill="#7A4C32" d="M106.9 66.05h-3.6v20.3q4.75 0 7.85-2.4 3.6-2.8 3.6-8.05 0-5.3-3.9-8.1l-3.95-1.75z"/><path id="f" fill="#7A4C32" d="M24.7 66.05h-3.65l-3.9 1.75q-3.95 2.8-3.95 8.1 0 5.25 3.6 8.05 3.1 2.4 7.9 2.4v-20.3z"/><path id="g" fill="#AD6F43" d="M106.75 73.8q0-30.45-8.65-45.45Q87.85 10.6 64 10.6q-23.9 0-34.15 17.75-8.65 15-8.65 45.45 0 25.9 14.6 38.45Q47.05 122 64 122q16.8 0 28.1-9.65 14.65-12.55 14.65-38.55z"/><path id="h" fill="#47352D" d="M57.2 19.2q-.35-4.8-4.4-8.4-5.6-4.85-16.4-5.05h-.8q-10.85.2-16.4 5.05-4.1 3.6-4.35 8.4-.05.35-.05.65V31.1q.25-.2.75-.55.3-.3.7-.5l.35-.15.8 5.4q4.45-6.95 5.7-14.55 3.5 2.35 6.45 3.3 2.9 1 6.05.95h.8q5.2-.05 9.55-.55l3.15-.35q.1 0 .15.1l5.35 11.1.8-5.4.35.15q.4.2.7.45l.75.6V19.85v-.65z"/><path id="i" fill="#513F35" d="M54.75 78.15q-.8 0-1.05.5t.25 1.25q.95 1.5 3.35 2.75 3.05 1.6 6.7 1.6 3.6 0 6.65-1.6 2.4-1.3 3.35-2.75.5-.75.25-1.25t-1.05-.5H54.75z"/><path id="j" fill="#7A4C32" d="M69.05 70.5q-.2-.35-.65-.2-2.3.65-4.5.65-2.15 0-4.45-.65-.45-.15-.7.2-.2.35 0 .65.5.85 1.75 1.65 1.6 1 3.4 1 1.8 0 3.4-1 1.25-.8 1.75-1.65.2-.35 0-.65z"/><path id="k" fill="#AD6F43" d="M97.15 14.5q-3.8-4.25-12-7.35-5.6-2.15-8.5-2.85-2.8-.65-6.1-.7-3.05 0-2.5 1.6.65 2.2 3.95 2.4 2.65.2 5.05 1.25 1.2.5 4.9 2.55.9.45 2.45 3 1.6 2.75 2.45 3.35 1.95 1.4 3.7 3.95 2.55 3.7 3.35 8.4.3 1.8 4.95.75 4.75-1.05 4.8-3.95 0-1.4-1.5-4.7-1.95-4.35-5-7.7z"/><path id="l" fill="#00ACC1" d="M90 21.55q-1.6.85-1 2.9l9.15 32.85q1.1 3.95.45 7.45L85.15 128h24.05q2.525-6.184 4.5-16.35l9.4-47v-.1q.3-4-1.7-8.3L102.8 17.2q-.35-.8-1.2-1.15-.9-.4-1.7 0l-9.9 5.5z"/><path id="m" fill="#AD6F43" d="M40.85 17.75q.9-.6 2.5-3.35 1.55-2.55 2.45-3 3.55-2 4.85-2.55 2.45-1.05 5.1-1.25 3.2-.2 3.95-2.4.45-1.6-2.55-1.6-3.3.05-6.05.7-2.95.7-8.55 2.85-8.1 3.05-11.95 7.35-3.05 3.4-5 7.7-1.55 3.35-1.5 4.7.05 2.9 4.8 3.95 4.65 1.05 4.95-.75.8-4.7 3.3-8.4 1.75-2.6 3.7-3.95z"/><path id="n" fill="#00ACC1" d="M38.75 24.45q.5-2.05-1.05-2.9l-9.85-5.5q-.8-.4-1.7 0-.9.35-1.2 1.15L6.35 56.25Q4.3 60.5 4.6 64.55v.1l9.4 47q1.975 10.166 4.5 16.35h24.1L29.1 64.75q-.65-3.55.5-7.45l9.15-32.85z"/><path id="o" fill="#444" d="M53.5 60.75q0-2.15-1.25-3.65-1.3-1.5-3.05-1.5-1.75 0-3 1.5t-1.25 3.65q0 2.15 1.25 3.65t3 1.5q1.75 0 3.05-1.5 1.25-1.5 1.25-3.65z"/><path id="p" fill="#444" d="M83 60.75q0-2.15-1.25-3.65t-3-1.5q-1.75 0-3.05 1.5-1.25 1.5-1.25 3.65t1.25 3.65q1.25 1.5 3.05 1.5 1.75 0 3-1.5T83 60.75z"/></defs><use transform="scale(.5625)" xlink:href="#a"/><use transform="scale(.5625)" xlink:href="#b"/><use transform="scale(.5625)" xlink:href="#c"/><use transform="scale(.5625)" xlink:href="#d"/><use transform="matrix(.42708 0 0 .42686 8.7 .35)" xlink:href="#e"/><use transform="matrix(.42708 0 0 .42686 8.7 .35)" xlink:href="#f"/><use transform="matrix(.42735 0 0 .42708 8.7 .7)" xlink:href="#g"/><use transform="translate(.8 -.4) scale(.97975)" xlink:href="#h"/><use transform="scale(.5625)" xlink:href="#i"/><use transform="scale(.5625)" xlink:href="#j"/><use transform="scale(.5625)" xlink:href="#k"/><use transform="scale(.5625)" xlink:href="#l"/><use transform="scale(.5625)" xlink:href="#m"/><use transform="scale(.5625)" xlink:href="#n"/><use transform="rotate(.078) scale(.56247)" xlink:href="#o"/><use transform="rotate(.078) scale(.56247)" xlink:href="#p"/></svg>