
<svg xmlns="http://www.w3.org/2000/svg" version="1.1" xmlns:xlink="http://www.w3.org/1999/xlink" preserveAspectRatio="none" x="0px" y="0px" width="72px" height="72px" viewBox="0 0 72 72">
<defs>
<g id="Layer0_0_MEMBER_0_FILL">
<path fill="#232020" stroke="none" d="
M 59.3 38.95
Q 59.65 31.2 59.65 25.35
L 12.4 25.55
Q 12.4 32 12.85 40 13.75 56.05 16.05 63.85
L 56.85 63.7
Q 58.6 54.35 59.3 38.95 Z"/>
</g>

<g id="Layer0_0_MEMBER_1_MEMBER_0_FILL">
<path fill="#232020" stroke="none" d="
M 106 46.15
Q 106 29.8 93.7 18.2 81.4 6.65 64 6.65 46.6 6.65 34.3 18.2 22 29.75 22 46.15 22 62.5 34.3 74.1 46.6 85.65 64 85.65 81.35 85.65 93.7 74.1 106 62.5 106 46.15 Z"/>
</g>

<g id="Layer0_0_MEMBER_2_FILL">
<path fill="#7E57C2" stroke="none" d="
M 34.2 100.7
Q 20.4 106.85 20.4 118.1
L 20.4 128 107.55 128 107.55 118.1
Q 107.55 107.35 94.1 101 81.95 95.25 64.3 95.25 46.25 95.3 34.2 100.7 Z"/>
</g>

<g id="Layer0_0_MEMBER_3_FILL">
<path fill="#563E37" stroke="none" d="
M 73 90.25
L 54.85 90.25 54.85 99.85
Q 54.85 103.1 57.25 105.4 59.7 107.7 63.1 107.7
L 64.75 107.7
Q 68.15 107.7 70.6 105.4 73 103.1 73 99.85
L 73 90.25 Z"/>
</g>

<g id="Layer0_0_MEMBER_4_FILL">
<path fill="#8E726A" stroke="none" d="
M 83.65 86.25
Q 94.6 76.85 94.6 59 94.6 37.15 88.35 26.35 81 13.6 63.85 13.6 46.7 13.6 39.35 26.35 33.15 37.15 33.15 59 33.15 76.85 44.1 86.25 52.65 93.6 63.85 93.6 75.1 93.6 83.65 86.25 Z"/>
</g>

<g id="Layer0_0_MEMBER_5_MEMBER_0_FILL">
<path fill="#444444" stroke="none" d="
M 53.5 60.75
Q 53.5 58.6 52.25 57.1 50.95 55.6 49.2 55.6 47.45 55.6 46.2 57.1 44.95 58.6 44.95 60.75 44.95 62.9 46.2 64.4 47.45 65.9 49.2 65.9 50.95 65.9 52.25 64.4 53.5 62.9 53.5 60.75 Z"/>
</g>

<g id="Layer0_0_MEMBER_5_MEMBER_1_FILL">
<path fill="#444444" stroke="none" d="
M 83 60.75
Q 83 58.6 81.75 57.1 80.5 55.6 78.75 55.6 77 55.6 75.7 57.1 74.45 58.6 74.45 60.75 74.45 62.9 75.7 64.4 76.95 65.9 78.75 65.9 80.5 65.9 81.75 64.4 83 62.9 83 60.75 Z"/>
</g>

<g id="Layer0_0_MEMBER_6_FILL">
<path fill="#563E37" stroke="none" d="
M 69.05 70.5
Q 68.85 70.15 68.4 70.3 66.1 70.95 63.9 70.95 61.75 70.95 59.45 70.3 59 70.15 58.75 70.5 58.55 70.85 58.75 71.15 59.25 72 60.5 72.8 62.1 73.8 63.9 73.8 65.7 73.8 67.3 72.8 68.55 72 69.05 71.15 69.25 70.8 69.05 70.5 Z"/>
</g>

<g id="Layer0_0_MEMBER_7_FILL">
<path fill="#232020" stroke="none" d="
M 96.55 26.6
Q 94.15 21.75 88.9 16.9 78.4 7.2 64.1 7.2 49.8 7.2 39.3 16.7 34.05 21.4 31.65 26.15
L 31.65 55.8
Q 45.75 53.4 59.4 44.9 67.2 40 73.05 34.45 73.3 34.25 73.6 34.3 73.9 34.35 74 34.65 78.7 44.3 88.1 51 92.8 54.35 96.55 55.8
L 96.55 26.6 Z"/>
</g>

<g id="Layer0_0_MEMBER_8_FILL">
<path fill="#513F35" stroke="none" d="
M 68.3 82.05
Q 68.3 80.4 67.05 79.4 65.85 78.45 64 78.45 62.15 78.45 60.95 79.4 59.65 80.4 59.65 82.05 59.65 83.55 60.9 84.2 61.95 84.7 64 84.7 66.05 84.7 67.05 84.2 68.3 83.6 68.3 82.05 Z"/>
</g>

<g id="Layer0_0_MEMBER_9_FILL">
<path fill="#8E726A" stroke="none" d="
M 125.8 49.15
Q 125.8 48.25 124.7 47.85 123.55 47.45 123.05 48.25 119.25 53.75 117.6 55.45 116.75 56.35 113.9 58.55
L 111.2 60.55 97.05 68.75 102.3 75.25 112.5 70.5
Q 114.05 69.8 115.1 68.4 116.15 67.05 116.45 65.35
L 116.75 63.85 123.95 55.45
Q 125 53.7 125.35 53 125.8 51.85 125.8 50.05
L 125.8 49.15 Z"/>
</g>

<g id="Layer0_0_MEMBER_10_FILL">
<path fill="#8E726A" stroke="none" d="
M 3.75 47.85
Q 2.8 48.2 2.55 49.15
L 2.55 50.05
Q 2.65 51.9 3.1 53 3.15 53.15 4.35 55.45
L 11.55 63.85 11.85 65.35
Q 12.15 67.05 13.2 68.4 14.25 69.8 15.8 70.5
L 25.95 75.25 31.2 68.75 17.05 60.55
Q 12 56.9 10.65 55.45 9.2 53.95 5.25 48.25 4.75 47.5 3.75 47.85 Z"/>
</g>

<g id="Layer0_0_MEMBER_11_FILL">
<path fill="#7E57C2" stroke="none" d="
M 18.1 78.3
Q 18.25 79 18.85 79.4
L 82.95 121.85 104.8 120.3 96.55 102.15 27.05 64.85
Q 26.45 64.55 25.8 64.75 25.1 64.95 24.75 65.6
L 18.3 76.95
Q 17.95 77.6 18.1 78.3 Z"/>
</g>

<g id="Layer0_0_MEMBER_12_FILL">
<path fill="#7E57C2" stroke="none" d="
M 108.95 79.4
Q 109.6 79 109.75 78.3 109.95 77.6 109.55 76.95
L 103.05 65.55
Q 102.7 64.95 102.05 64.75 101.4 64.55 100.75 64.85
L 32.35 101.7 23 120.3 44.85 121.85 108.95 79.4 Z"/>
</g>

<g id="Layer0_0_MEMBER_13_FILL">
<path fill="#020202" fill-opacity="0.5372549019607843" stroke="none" d="
M 25.35 72
L 36.15 64.25 47.3 72 51.9 72 38.05 62.9 49.3 54.75 47.5 53.8 19.8 72 25.35 72 Z"/>
</g>

<g id="Layer0_0_MEMBER_14_FILL">
<path fill="#020202" fill-opacity="0.5372549019607843" stroke="none" d="
M 36 47.65
L 34.3 46.7 22.65 52.65 24.4 53.8 36 47.65 Z"/>
</g>
</defs>

<g id="Layer_1">
<g transform="matrix( 1, 0, 0, 1, 0,0) ">
<use xlink:href="#Layer0_0_MEMBER_0_FILL"/>
</g>

<g transform="matrix( 0.5625, 0, 0, 0.5625, 0,0) ">
<use xlink:href="#Layer0_0_MEMBER_1_MEMBER_0_FILL"/>
</g>

<g transform="matrix( 0.5625, 0, 0, 0.5625, 0,0) ">
<use xlink:href="#Layer0_0_MEMBER_2_FILL"/>
</g>

<g transform="matrix( 0.5625, 0, 0, 0.5625, 0,0) ">
<use xlink:href="#Layer0_0_MEMBER_3_FILL"/>
</g>

<g transform="matrix( 0.5625, 0, 0, 0.5625, 0,0) ">
<use xlink:href="#Layer0_0_MEMBER_4_FILL"/>
</g>

<g transform="matrix( 0.5624847412109375, 0, 0, 0.5624847412109375, 0,0) ">
<use xlink:href="#Layer0_0_MEMBER_5_MEMBER_0_FILL"/>
</g>

<g transform="matrix( 0.5624847412109375, 0, 0, 0.5624847412109375, 0,0) ">
<use xlink:href="#Layer0_0_MEMBER_5_MEMBER_1_FILL"/>
</g>

<g transform="matrix( 0.5625, 0, 0, 0.5625, 0,0) ">
<use xlink:href="#Layer0_0_MEMBER_6_FILL"/>
</g>

<g transform="matrix( 0.5625, 0, 0, 0.5625, 0,0) ">
<use xlink:href="#Layer0_0_MEMBER_7_FILL"/>
</g>

<g transform="matrix( 0.5625, 0, 0, 0.5625, 0,0) ">
<use xlink:href="#Layer0_0_MEMBER_8_FILL"/>
</g>

<g transform="matrix( 0.5625, 0, 0, 0.5625, 0,0) ">
<use xlink:href="#Layer0_0_MEMBER_9_FILL"/>
</g>

<g transform="matrix( 0.5625, 0, 0, 0.5625, 0,0) ">
<use xlink:href="#Layer0_0_MEMBER_10_FILL"/>
</g>

<g transform="matrix( 0.5625, 0, 0, 0.5625, 0,0) ">
<use xlink:href="#Layer0_0_MEMBER_11_FILL"/>
</g>

<g transform="matrix( 0.5625, 0, 0, 0.5625, 0,0) ">
<use xlink:href="#Layer0_0_MEMBER_12_FILL"/>
</g>

<g transform="matrix( 1, 0, 0, 1, 0,0) ">
<use xlink:href="#Layer0_0_MEMBER_13_FILL"/>
</g>

<g transform="matrix( 1, 0, 0, 1, 0,0) ">
<use xlink:href="#Layer0_0_MEMBER_14_FILL"/>
</g>
</g>
</svg>
