
<svg xmlns="http://www.w3.org/2000/svg" version="1.1" xmlns:xlink="http://www.w3.org/1999/xlink" preserveAspectRatio="none" x="0px" y="0px" width="72px" height="72px" viewBox="0 0 72 72">
<defs>
<g id="Layer0_1_MEMBER_4_MEMBER_0_MEMBER_0_FILL">
<path fill="#CC9970" stroke="none" d="
M 43.75 48.6
Q 42.9 47.05 41.25 46.85 39.45 46.6 38.2 47.55 36.9 48.55 36.65 50.55
L 34.3 72.85
Q 34.3 73.75 33.65 73.85 33 74 32.9 73.05 32.75 71.05 32.4 58.8 32.05 46.65 32.1 45.7 32.15 43.75 31.2 42.35 30.15 40.9 28.5 40.85 26.7 40.8 25.55 41.9 24.4 43 24.35 45
L 24 72.3
Q 24 73.15 23.05 73.25 22.15 73.25 22.05 72.45 21.5 68.05 20.75 58.85 20.05 51.1 20 49.55 19.95 47.6 18.9 46.25 17.8 44.85 16.15 44.9 14.3 45 13.25 46.1 12.15 47.25 12.25 49.25
L 13.45 73.4
Q 13.55 74.3 12.5 74.6
L 12.45 74.6
Q 11.95 74.7 11.5 74.45 11.05 74.2 10.9 73.7 8.35 63.1 7.85 60.3 7.55 58.35 6.3 57.15 5 55.85 3.35 56.15 1.6 56.4 0.7 57.65 -0.25 58.95 0.1 60.95 0.2 61.4 1.45 68.9 2.85 77 3.75 80.9 4.2 82.55 4.45 84.95 5 90.7 5.35 93.35 6.1 104.25 11.45 109.05 16.05 113.2 25.15 113.6
L 37.65 113.45
Q 41.9 113.3 46.1 109.3 49.35 106.2 50 104.1
L 60.8 78.45
Q 61.3 77.45 60.7 76.5 60.15 75.55 59 75.4 55.75 74.95 53.25 76.35 50.8 77.7 49.4 80.65
L 45.65 89.35
Q 45.4 90.15 44.5 90.1 43.65 90.1 43.45 89.3 42.9 86.8 42.9 81.95
L 43 77.6
Q 42.85 75.25 43.5 64 44.05 53.35 44.25 52.05 44.55 50.1 43.75 48.6 Z"/>
</g>

<g id="Layer0_1_MEMBER_4_MEMBER_0_MEMBER_1_FILL">
<path fill="#CC9970" stroke="none" d="
M 41.05 121.55
Q 41.6 114.45 43.65 111.3 42.55 111.3 11.8 108.85 13.2 109.25 13.15 118.65 13.15 123.4 12.85 128
L 40.9 128
Q 40.75 125.1 41.05 121.55 Z"/>
</g>

<g id="Layer0_1_MEMBER_4_MEMBER_1_MEMBER_0_FILL">
<path fill="#CC9970" stroke="none" d="
M 22.95 63.4
Q 23.05 63.35 23.15 63.3
L 8.5 62.75
Q 10.7 63.7 14.2 63.85
L 21.2 63.8
Q 22 63.8 22.95 63.4 Z"/>

<path fill="#99674F" stroke="none" d="
M 24.55 62.6
Q 24.569921875 62.56015625 24.6 62.5 24.473828125 62.626171875 24.35 62.75 23.85 63 23.35 63.25 23.25 63.3 23.15 63.3 23.05 63.35 22.95 63.4 22 63.8 21.2 63.8
L 14.2 63.85
Q 10.7 63.7 8.5 62.75 8.2 62.6 7.9 62.4 7.45 62.15 7.05 61.8 7.3 62.7 7.4 64.7 9.95 65.95 14.05 66.1
L 21.2 66.05
Q 22.3 66.05 23.45 65.65 23.85 63.7 24.55 62.6 Z"/>
</g>

<g id="Layer0_1_MEMBER_5_MEMBER_0_MEMBER_0_FILL">
<path fill="#CC9970" stroke="none" d="
M 43.75 48.6
Q 42.9 47.05 41.25 46.85 39.45 46.6 38.2 47.55 36.9 48.55 36.65 50.55
L 34.3 72.85
Q 34.3 73.75 33.65 73.85 33 74 32.9 73.05 32.75 71.05 32.4 58.8 32.05 46.65 32.1 45.7 32.15 43.75 31.2 42.35 30.15 40.9 28.5 40.85 26.7 40.8 25.55 41.9 24.4 43 24.35 45
L 24 72.3
Q 24 73.15 23.05 73.25 22.15 73.25 22.05 72.45 21.5 68.05 20.75 58.85 20.05 51.1 20 49.55 19.95 47.6 18.9 46.25 17.8 44.85 16.15 44.9 14.3 45 13.25 46.1 12.15 47.25 12.25 49.25
L 13.45 73.4
Q 13.55 74.3 12.5 74.6
L 12.45 74.6
Q 11.95 74.7 11.5 74.45 11.05 74.2 10.9 73.7 8.35 63.1 7.85 60.3 7.55 58.35 6.3 57.15 5 55.85 3.35 56.15 1.6 56.4 0.7 57.65 -0.25 58.95 0.1 60.95 0.2 61.4 1.45 68.9 2.85 77 3.75 80.9 4.2 82.55 4.45 84.95 5 90.7 5.35 93.35 6.1 104.25 11.45 109.05 16.05 113.2 25.15 113.6
L 37.65 113.45
Q 41.9 113.3 46.1 109.3 49.35 106.2 50 104.1
L 60.8 78.45
Q 61.3 77.45 60.7 76.5 60.15 75.55 59 75.4 55.75 74.95 53.25 76.35 50.8 77.7 49.4 80.65
L 45.65 89.35
Q 45.4 90.15 44.5 90.1 43.65 90.1 43.45 89.3 42.9 86.8 42.9 81.95
L 43 77.6
Q 42.85 75.25 43.5 64 44.05 53.35 44.25 52.05 44.55 50.1 43.75 48.6 Z"/>
</g>

<g id="Layer0_1_MEMBER_5_MEMBER_0_MEMBER_1_FILL">
<path fill="#CC9970" stroke="none" d="
M 41.05 121.55
Q 41.6 114.45 43.65 111.3 42.55 111.3 11.8 108.85 13.2 109.25 13.15 118.65 13.15 123.4 12.85 128
L 40.9 128
Q 40.75 125.1 41.05 121.55 Z"/>
</g>

<g id="Layer0_1_MEMBER_5_MEMBER_1_MEMBER_0_FILL">
<path fill="#CC9970" stroke="none" d="
M 21.2 63.8
Q 22 63.8 22.95 63.4 23.05 63.35 23.15 63.3
L 8.5 62.75
Q 10.7 63.7 14.2 63.85
L 21.2 63.8 Z"/>

<path fill="#99674F" stroke="none" d="
M 22.95 63.4
Q 22 63.8 21.2 63.8
L 14.2 63.85
Q 10.7 63.7 8.5 62.75 8.2 62.6 7.9 62.4 7.45 62.15 7.05 61.8 7.3 62.7 7.4 64.7 9.95 65.95 14.05 66.1
L 21.2 66.05
Q 22.3 66.05 23.45 65.65 23.85 63.7 24.55 62.6 24.569921875 62.56015625 24.6 62.5 24.473828125 62.626171875 24.35 62.75 23.85 63 23.35 63.25 23.25 63.3 23.15 63.3 23.05 63.35 22.95 63.4 Z"/>
</g>

<path id="Layer0_1_MEMBER_0_1_STROKES" stroke="#444444" stroke-width="2" stroke-linejoin="miter" stroke-linecap="round" stroke-miterlimit="10" fill="none" d="
M 29.587500000000002 12.09375
L 27.253125 3.4031249999999997"/>

<path id="Layer0_1_MEMBER_1_1_STROKES" stroke="#444444" stroke-width="2" stroke-linejoin="miter" stroke-linecap="round" stroke-miterlimit="10" fill="none" d="
M 18.478125000000002 18.506249999999998
L 12.121875000000001 12.15"/>

<path id="Layer0_1_MEMBER_2_1_STROKES" stroke="#444444" stroke-width="2" stroke-linejoin="miter" stroke-linecap="round" stroke-miterlimit="10" fill="none" d="
M 53.49375 18.506249999999998
L 59.85 12.15"/>

<path id="Layer0_1_MEMBER_3_1_STROKES" stroke="#444444" stroke-width="2" stroke-linejoin="miter" stroke-linecap="round" stroke-miterlimit="10" fill="none" d="
M 42.384375 12.09375
L 44.71875 3.4031249999999997"/>
</defs>

<g id="Layer_1">
<g transform="matrix( 0.5625, 0, 0, 0.5625, 0,0) ">
<use xlink:href="#Layer0_1_MEMBER_0_1_STROKES" transform="matrix( 1.77777099609375, 0, 0, 1.77777099609375, 0,0) "/>
</g>

<g transform="matrix( 0.5625, 0, 0, 0.5625, 0,0) ">
<use xlink:href="#Layer0_1_MEMBER_1_1_STROKES" transform="matrix( 1.77777099609375, 0, 0, 1.77777099609375, 0,0) "/>
</g>

<g transform="matrix( 0.5625, 0, 0, 0.5625, 0,0) ">
<use xlink:href="#Layer0_1_MEMBER_2_1_STROKES" transform="matrix( 1.77777099609375, 0, 0, 1.77777099609375, 0,0) "/>
</g>

<g transform="matrix( 0.5625, 0, 0, 0.5625, 0,0) ">
<use xlink:href="#Layer0_1_MEMBER_3_1_STROKES" transform="matrix( 1.77777099609375, 0, 0, 1.77777099609375, 0,0) "/>
</g>

<g transform="matrix( 0.5625, 0, 0, 0.5625, 0,0) ">
<use xlink:href="#Layer0_1_MEMBER_4_MEMBER_0_MEMBER_0_FILL"/>
</g>

<g transform="matrix( 0.5625, 0, 0, 0.5625, 0,0) ">
<use xlink:href="#Layer0_1_MEMBER_4_MEMBER_0_MEMBER_1_FILL"/>
</g>

<g transform="matrix( 1, 0, 0, 1, 0,0) ">
<use xlink:href="#Layer0_1_MEMBER_4_MEMBER_1_MEMBER_0_FILL"/>
</g>

<g transform="matrix( -0.5624847412109375, 0, 0, 0.5624847412109375, 72,0) ">
<use xlink:href="#Layer0_1_MEMBER_5_MEMBER_0_MEMBER_0_FILL"/>
</g>

<g transform="matrix( -0.5624847412109375, 0, 0, 0.5624847412109375, 72,0) ">
<use xlink:href="#Layer0_1_MEMBER_5_MEMBER_0_MEMBER_1_FILL"/>
</g>

<g transform="matrix( -1, 0, 0, 1, 72,0) ">
<use xlink:href="#Layer0_1_MEMBER_5_MEMBER_1_MEMBER_0_FILL"/>
</g>
</g>
</svg>
