<svg xmlns="http://www.w3.org/2000/svg" xmlns:xlink="http://www.w3.org/1999/xlink" preserveAspectRatio="none" viewBox="0 0 72 72"><defs><path id="e" fill="#FAC036" d="M43.75 48.6q-.85-1.55-2.5-1.75-1.8-.25-3.05.7-1.3 1-1.55 3l-2.35 22.3q0 .9-.65 1-.65.15-.75-.8-.15-2-.5-14.25-.35-12.15-.3-13.1.05-1.95-.9-3.35-1.05-1.45-2.7-1.5-1.8-.05-2.95 1.05-1.15 1.1-1.2 3.1L24 72.3q0 .85-.95.95-.9 0-1-.8-.55-4.4-1.3-13.6-.7-7.75-.75-9.3-.05-1.95-1.1-3.3-1.1-1.4-2.75-1.35-1.85.1-2.9 1.2-1.1 1.15-1 3.15l1.2 24.15q.1.9-.95 1.2h-.05q-.5.1-.95-.15-.45-.25-.6-.75-2.55-10.6-3.05-13.4-.3-1.95-1.55-3.15-1.3-1.3-2.95-1-1.75.25-2.65 1.5-.95 1.3-.6 3.3.1.45 1.35 7.95 1.4 8.1 2.3 12 .45 1.65.7 4.05.55 5.75.9 8.4.75 10.9 6.1 15.7 4.6 4.15 13.7 4.55l12.5-.15q4.25-.15 8.45-4.15 3.25-3.1 3.9-5.2l10.8-25.65q.5-1-.1-1.95-.55-.95-1.7-1.1-3.25-.45-5.75.95-2.45 1.35-3.85 4.3l-3.75 8.7q-.25.8-1.15.75-.85 0-1.05-.8-.55-2.5-.55-7.35l.1-4.35q-.15-2.35.5-13.6.55-10.65.75-11.95.3-1.95-.5-3.45z"/><path id="f" fill="#FAC036" d="M41.05 121.55q.55-7.1 2.6-10.25-1.1 0-31.85-2.45 1.4.4 1.35 9.8 0 4.75-.3 9.35H40.9q-.15-2.9.15-6.45z"/><g id="g"><path fill="#FAC036" d="M22.95 63.4l.2-.1-14.65-.55q2.2.95 5.7 1.1l7-.05q.8 0 1.75-.4z"/><path fill="#E39E49" d="M24.55 62.6l.05-.1-.25.25-1 .5q-.1.05-.2.05l-.2.1q-.95.4-1.75.4l-7 .05q-3.5-.15-5.7-1.1-.3-.15-.6-.35-.45-.25-.85-.6.25.9.35 2.9 2.55 1.25 6.65 1.4l7.15-.05q1.1 0 2.25-.4.4-1.95 1.1-3.05z"/></g><path id="h" fill="#FAC036" d="M43.75 48.6q-.85-1.55-2.5-1.75-1.8-.25-3.05.7-1.3 1-1.55 3l-2.35 22.3q0 .9-.65 1-.65.15-.75-.8-.15-2-.5-14.25-.35-12.15-.3-13.1.05-1.95-.9-3.35-1.05-1.45-2.7-1.5-1.8-.05-2.95 1.05-1.15 1.1-1.2 3.1L24 72.3q0 .85-.95.95-.9 0-1-.8-.55-4.4-1.3-13.6-.7-7.75-.75-9.3-.05-1.95-1.1-3.3-1.1-1.4-2.75-1.35-1.85.1-2.9 1.2-1.1 1.15-1 3.15l1.2 24.15q.1.9-.95 1.2h-.05q-.5.1-.95-.15-.45-.25-.6-.75-2.55-10.6-3.05-13.4-.3-1.95-1.55-3.15-1.3-1.3-2.95-1-1.75.25-2.65 1.5-.95 1.3-.6 3.3.1.45 1.35 7.95 1.4 8.1 2.3 12 .45 1.65.7 4.05.55 5.75.9 8.4.75 10.9 6.1 15.7 4.6 4.15 13.7 4.55l12.5-.15q4.25-.15 8.45-4.15 3.25-3.1 3.9-5.2l10.8-25.65q.5-1-.1-1.95-.55-.95-1.7-1.1-3.25-.45-5.75.95-2.45 1.35-3.85 4.3l-3.75 8.7q-.25.8-1.15.75-.85 0-1.05-.8-.55-2.5-.55-7.35l.1-4.35q-.15-2.35.5-13.6.55-10.65.75-11.95.3-1.95-.5-3.45z"/><path id="i" fill="#FAC036" d="M41.05 121.55q.55-7.1 2.6-10.25-1.1 0-31.85-2.45 1.4.4 1.35 9.8 0 4.75-.3 9.35H40.9q-.15-2.9.15-6.45z"/><g id="j"><path fill="#FAC036" d="M21.2 63.8q.8 0 1.75-.4l.2-.1-14.65-.55q2.2.95 5.7 1.1l7-.05z"/><path fill="#E39E49" d="M22.95 63.4q-.95.4-1.75.4l-7 .05q-3.5-.15-5.7-1.1-.3-.15-.6-.35-.45-.25-.85-.6.25.9.35 2.9 2.55 1.25 6.65 1.4l7.15-.05q1.1 0 2.25-.4.4-1.95 1.1-3.05l.05-.1-.25.25-1 .5q-.1.05-.2.05l-.2.1z"/></g><path id="a" fill="none" stroke="#444" stroke-linecap="round" stroke-linejoin="miter" stroke-miterlimit="10" stroke-width="2" d="M29.588 12.094l-2.335-8.69"/><path id="b" fill="none" stroke="#444" stroke-linecap="round" stroke-linejoin="miter" stroke-miterlimit="10" stroke-width="2" d="M18.478 18.506l-6.356-6.356"/><path id="c" fill="none" stroke="#444" stroke-linecap="round" stroke-linejoin="miter" stroke-miterlimit="10" stroke-width="2" d="M53.494 18.506l6.356-6.356"/><path id="d" fill="none" stroke="#444" stroke-linecap="round" stroke-linejoin="miter" stroke-miterlimit="10" stroke-width="2" d="M42.384 12.094l2.335-8.69"/></defs><use xlink:href="#a"/><use xlink:href="#b"/><use xlink:href="#c"/><use xlink:href="#d"/><use transform="scale(.5625)" xlink:href="#e"/><use transform="scale(.5625)" xlink:href="#f"/><use xlink:href="#g"/><use transform="matrix(-.56248 0 0 .56248 72 0)" xlink:href="#h"/><use transform="matrix(-.56248 0 0 .56248 72 0)" xlink:href="#i"/><use transform="matrix(-1 0 0 1 72 0)" xlink:href="#j"/></svg>