<svg xmlns="http://www.w3.org/2000/svg" xmlns:xlink="http://www.w3.org/1999/xlink" preserveAspectRatio="none" viewBox="0 0 72 72"><defs><path id="a" fill="#6D4C41" d="M93.7 86.95Q106 76.35 106 61.3q0-15.05-12.3-25.65Q81.35 25 64 25q-17.4 0-29.7 10.65Q22 46.25 22 61.3q0 15.05 12.3 25.65Q46.6 97.6 64 97.6q17.35 0 29.7-10.65z"/><path id="b" fill="#6D4C41" d="M105.4 82.45l.6-22.15-84 .35.8 23.6q1.65 26.15 5.7 38.95l72.6-.25q3.05-15.3 4.3-40.5z"/><path id="c" fill="#7E57C2" d="M113.05 95.95q-8.9-9.2-27.95-13.2-10.3-2.2-20.6-2.45h-.55q-10.35.25-20.65 2.45-19 4-27.9 13.2-6.75 6.95-7.6 14.7-.6 5.75 1.7 9.1 2.5 3.55 8.9 6.25 3.15 1.35 5.85 2h79.9l5.9-2q6.35-2.7 8.85-6.25 2.35-3.3 1.7-9.1-.85-7.75-7.55-14.7z"/><path id="d" fill-opacity=".2" d="M57.55 2.25Q52.7.7 45.45.2q-3.95-.3-8.2-.2Q24.75-.25 17 2.25 7.5 5.35 2.8 9.7.45 11.85 0 13.4l23.7 17.65h27.2L74.55 13.4q-.45-1.55-2.8-3.75-4.7-4.35-14.2-7.4z"/><path id="e" fill="#99674F" d="M72.65 90.95H55.2v9.25q0 3.1 2.35 5.35 2.3 2.2 5.6 2.2h1.6q3.25 0 5.6-2.2 2.3-2.25 2.3-5.35v-9.25z"/><path id="f" fill="#CC9970" d="M83.65 98.15Q94.6 89.5 94.6 73.1q0-20.05-6.25-30Q81 31.4 63.85 31.4t-24.5 11.7q-6.2 9.95-6.2 30 0 16.4 10.95 25.05 8.55 6.75 19.75 6.75 11.25 0 19.8-6.75z"/><path id="g" fill="#6D4C41" d="M96.55 43.35q-2.4-4.45-7.65-8.9-10.5-8.95-24.8-8.95t-24.8 8.75q-5.25 4.35-7.65 8.7V70.2q14.1-2.25 27.75-10.05 7.85-4.5 13.65-9.6.25-.2.55-.1.3.05.4.3 4.7 8.85 14.1 15.05 4.7 3.1 8.45 4.4V43.35z"/><path id="h" fill="#444" d="M54 77.9q0-2.05-1.2-3.5-1.15-1.45-2.85-1.45-1.7 0-2.9 1.45t-1.2 3.5q0 2.05 1.2 3.5 1.2 1.45 2.9 1.45t2.85-1.45q1.2-1.45 1.2-3.5z"/><path id="i" fill="#444" d="M82.4 77.9q0-2.05-1.2-3.5-1.2-1.45-2.9-1.45t-2.9 1.45q-1.2 1.45-1.2 3.5t1.2 3.5q1.2 1.45 2.9 1.45t2.9-1.45q1.2-1.45 1.2-3.5z"/><path id="j" fill="#99674F" d="M59.85 89q-.45-.15-.65.2-.2.3-.05.65.5.8 1.75 1.55 1.55.95 3.2.95 1.7 0 3.25-.95 1.25-.75 1.7-1.55.2-.35 0-.65-.2-.35-.65-.2-2.15.65-4.3.65-2.1 0-4.25-.65z"/><path id="o" fill="#CC9970" d="M61.05 128q1 0 1.7-.7t.7-1.7q0-.8-.5-1.45-.5-.65-1.3-.85-2.55-.65-8.2-2.45-7.4-2.45-7.65-2.5-1.8-.55-3.55-.55l-5.35-.35L33.75 128h27.3z"/><path id="p" fill="#CC9970" d="M65.2 127.3q.7.7 1.7.7h27.35l-3.15-10.55-5.35.35q-1.8 0-3.6.55-11.55 3.85-15.85 4.95-.8.2-1.3.85-.5.65-.5 1.45 0 1 .7 1.7z"/><path id="q" fill="#7E57C2" d="M23.85 104.05l.4 23.95h10l5.25-11.6q.25-.65.05-1.3-.2-.7-.75-1.1l-14.95-9.95z"/><path id="r" fill="#7E57C2" d="M104.15 128l.75-24.55L89.15 114q-.55.4-.75 1.1-.2.65.1 1.3l5.2 11.6h10.45z"/><path id="k" fill="none" stroke="#444" stroke-linecap="round" stroke-linejoin="miter" stroke-miterlimit="10" stroke-width="2" d="M29.56 10.688l-1.52-5.682"/><path id="l" fill="none" stroke="#444" stroke-linecap="round" stroke-linejoin="miter" stroke-miterlimit="10" stroke-width="2" d="M21.178 14.878l-4.162-4.162"/><path id="m" fill="none" stroke="#444" stroke-linecap="round" stroke-linejoin="miter" stroke-miterlimit="10" stroke-width="2" d="M50.794 14.878l4.134-4.162"/><path id="n" fill="none" stroke="#444" stroke-linecap="round" stroke-linejoin="miter" stroke-miterlimit="10" stroke-width="2" d="M42.413 10.688l1.518-5.682"/></defs><use transform="scale(.5625)" xlink:href="#a"/><use transform="scale(.5625)" xlink:href="#b"/><use transform="scale(.5625)" xlink:href="#c"/><use transform="translate(15 54.5) scale(.5625)" xlink:href="#d"/><use transform="scale(.5625)" xlink:href="#e"/><use transform="scale(.5625)" xlink:href="#f"/><use transform="scale(.5625)" xlink:href="#g"/><use transform="scale(.5625)" xlink:href="#h"/><use transform="scale(.5625)" xlink:href="#i"/><use transform="scale(.5625)" xlink:href="#j"/><use xlink:href="#k"/><use xlink:href="#l"/><use xlink:href="#m"/><use xlink:href="#n"/><use transform="scale(.5625)" xlink:href="#o"/><use transform="scale(.5625)" xlink:href="#p"/><use transform="scale(.5625)" xlink:href="#q"/><use transform="scale(.5625)" xlink:href="#r"/></svg>