<svg xmlns="http://www.w3.org/2000/svg" xmlns:xlink="http://www.w3.org/1999/xlink" preserveAspectRatio="none" viewBox="0 0 72 72"><defs><path id="a" fill="#47352D" d="M59.3 38.95q.35-7.75.35-13.6l-47.25.2q0 6.45.45 14.45.9 16.05 3.2 23.85l40.8-.15q1.75-9.35 2.45-24.75z"/><path id="b" fill="#47352D" d="M106 46.15q0-16.35-12.3-27.95Q81.4 6.65 64 6.65T34.3 18.2Q22 29.75 22 46.15 22 62.5 34.3 74.1 46.6 85.65 64 85.65q17.35 0 29.7-11.55Q106 62.5 106 46.15z"/><path id="c" fill="#7E57C2" d="M34.2 100.7q-13.8 6.15-13.8 17.4v9.9h87.15v-9.9q0-10.75-13.45-17.1-12.15-5.75-29.8-5.75-18.05.05-30.1 5.45z"/><path id="d" fill="#7A4C32" d="M73 90.25H54.85v9.6q0 3.25 2.4 5.55 2.45 2.3 5.85 2.3h1.65q3.4 0 5.85-2.3 2.4-2.3 2.4-5.55v-9.6z"/><path id="e" fill="#AD6F43" d="M83.65 86.25Q94.6 76.85 94.6 59q0-21.85-6.25-32.65Q81 13.6 63.85 13.6t-24.5 12.75q-6.2 10.8-6.2 32.65 0 17.85 10.95 27.25 8.55 7.35 19.75 7.35 11.25 0 19.8-7.35z"/><path id="f" fill="#444" d="M53.5 60.75q0-2.15-1.25-3.65-1.3-1.5-3.05-1.5-1.75 0-3 1.5t-1.25 3.65q0 2.15 1.25 3.65t3 1.5q1.75 0 3.05-1.5 1.25-1.5 1.25-3.65z"/><path id="g" fill="#444" d="M83 60.75q0-2.15-1.25-3.65t-3-1.5q-1.75 0-3.05 1.5-1.25 1.5-1.25 3.65t1.25 3.65q1.25 1.5 3.05 1.5 1.75 0 3-1.5T83 60.75z"/><path id="h" fill="#7A4C32" d="M69.05 70.5q-.2-.35-.65-.2-2.3.65-4.5.65-2.15 0-4.45-.65-.45-.15-.7.2-.2.35 0 .65.5.85 1.75 1.65 1.6 1 3.4 1 1.8 0 3.4-1 1.25-.8 1.75-1.65.2-.35 0-.65z"/><path id="i" fill="#47352D" d="M96.55 26.6q-2.4-4.85-7.65-9.7-10.5-9.7-24.8-9.7t-24.8 9.5q-5.25 4.7-7.65 9.45V55.8q14.1-2.4 27.75-10.9 7.8-4.9 13.65-10.45.25-.2.55-.15.3.05.4.35Q78.7 44.3 88.1 51q4.7 3.35 8.45 4.8V26.6z"/><path id="j" fill="#513F35" d="M68.3 82.05q0-1.65-1.25-2.65-1.2-.95-3.05-.95-1.85 0-3.05.95-1.3 1-1.3 2.65 0 1.5 1.25 2.15 1.05.5 3.1.5t3.05-.5q1.25-.6 1.25-2.15z"/><path id="k" fill="#AD6F43" d="M125.8 49.15q0-.9-1.1-1.3-1.15-.4-1.65.4-3.8 5.5-5.45 7.2-.85.9-3.7 3.1l-2.7 2-14.15 8.2 5.25 6.5 10.2-4.75q1.55-.7 2.6-2.1 1.05-1.35 1.35-3.05l.3-1.5 7.2-8.4q1.05-1.75 1.4-2.45.45-1.15.45-2.95v-.9z"/><path id="l" fill="#AD6F43" d="M3.75 47.85q-.95.35-1.2 1.3v.9q.1 1.85.55 2.95.05.15 1.25 2.45l7.2 8.4.3 1.5q.3 1.7 1.35 3.05 1.05 1.4 2.6 2.1l10.15 4.75 5.25-6.5-14.15-8.2q-5.05-3.65-6.4-5.1-1.45-1.5-5.4-7.2-.5-.75-1.5-.4z"/><path id="m" fill="#7E57C2" d="M18.1 78.3q.15.7.75 1.1l64.1 42.45 21.85-1.55-8.25-18.15-69.5-37.3q-.6-.3-1.25-.1-.7.2-1.05.85L18.3 76.95q-.35.65-.2 1.35z"/><path id="n" fill="#7E57C2" d="M108.95 79.4q.65-.4.8-1.1.2-.7-.2-1.35l-6.5-11.4q-.35-.6-1-.8-.65-.2-1.3.1l-68.4 36.85L23 120.3l21.85 1.55 64.1-42.45z"/><path id="o" fill="#020202" fill-opacity=".537" d="M25.35 72l10.8-7.75L47.3 72h4.6l-13.85-9.1 11.25-8.15-1.8-.95L19.8 72h5.55z"/><path id="p" fill="#020202" fill-opacity=".537" d="M36 47.65l-1.7-.95-11.65 5.95 1.75 1.15L36 47.65z"/></defs><use xlink:href="#a"/><use transform="scale(.5625)" xlink:href="#b"/><use transform="scale(.5625)" xlink:href="#c"/><use transform="scale(.5625)" xlink:href="#d"/><use transform="scale(.5625)" xlink:href="#e"/><use transform="scale(.56248)" xlink:href="#f"/><use transform="scale(.56248)" xlink:href="#g"/><use transform="scale(.5625)" xlink:href="#h"/><use transform="scale(.5625)" xlink:href="#i"/><use transform="scale(.5625)" xlink:href="#j"/><use transform="scale(.5625)" xlink:href="#k"/><use transform="scale(.5625)" xlink:href="#l"/><use transform="scale(.5625)" xlink:href="#m"/><use transform="scale(.5625)" xlink:href="#n"/><use xlink:href="#o"/><use xlink:href="#p"/></svg>