<svg xmlns="http://www.w3.org/2000/svg" xmlns:xlink="http://www.w3.org/1999/xlink" preserveAspectRatio="none" viewBox="0 0 72 72"><defs><path id="a" fill="#B39DDB" d="M72 6.75Q72 4 70 2t-4.75-2H6.75Q3.95 0 2 2 0 4 0 6.75v58.5q0 2.8 2 4.8Q3.95 72 6.75 72h58.5Q68 72 70 70.05q2-2 2-4.8V6.75z"/><path id="b" fill="#7E57C2" d="M72 6.75q0-2.8-2-4.75L1.95 70.05Q3.9 72 6.75 72h58.5Q68 72 70 70.05q2-2 2-4.8V6.75z"/><path id="c" fill="#9575CD" d="M63 16.25q0-2.8-1.95-4.75-2-2-4.8-2h-40.6q-2.75 0-4.75 2-2 1.95-2 4.75V56.8q0 2.8 2 4.8 2 1.95 4.75 1.95h40.6q2.8 0 4.8-1.95 1.95-2 1.95-4.8V16.25z"/><path id="d" fill="#FFF" d="M104.5 38.05q2.3 0 3.55-1.95.9-1.45.5-3.15-.4-1.65-1.85-2.55L75.45 11.2q-4.85-3-11.6-3-6.7 0-11.6 3L21 30.4q-1.45.9-1.85 2.55-.4 1.7.5 3.15t2.55 1.85q1.7.4 3.15-.5l31.25-19.2q2.95-1.8 7.25-1.8 4.35 0 7.25 1.8l31.25 19.2q1.05.6 2.15.6z"/><path id="e" fill="#FFF" d="M83.6 93.7q2.05-.5 3.35-2.35 1.3-1.9 1.05-4.05-1.55-8.25-2.75-12.7-1.65-5.95-4.3-12.25-1.1-3.05-3.75-5.05-2.85-2.1-5.6-1.4l-4.7 1.2q-3.1.8-4.25 4.2-1 2.95-.2 6.15 1.35 5.1 2.5 11.55 1.55 8.5 2.65 13.4.45 2.15 1.95 3.25 1.6 1.15 3.6.65l10.45-2.6z"/><path id="f" fill="#FFF" d="M69.75 64.95l-4.1-7.35-16.9 9.3q-1.5.85-2 2.55-.45 1.65.35 3.2.85 1.55 2.55 2.05 1.65.45 3.2-.4l16.9-9.35z"/><path id="g" fill="#FFF" d="M36.65 58.25q-.15 1.75.95 3.1l9.95 12 6.55-5.45-9.95-11.95q-1.1-1.35-2.85-1.5-1.75-.15-3.15.95-1.35 1.15-1.5 2.85z"/><path id="h" fill="#FFF" d="M56.15 117.6q1.4 1.45 3.4 1.45h26.3q2 0 3.4-1.45 1.45-1.4 1.45-3.4t-1.45-3.45q-1.4-1.45-3.45-1.45H59.55q-2 0-3.45 1.45-1.4 1.4-1.4 3.45 0 2 1.45 3.4z"/><path id="i" fill="#FFF" d="M85.75 89.4q-2.3-1.6-3.35-2.5-1.5-1.3-3.5-1.1-2.05.15-3.35 1.7l-7.75 5.75-12 17.8q-1.3 1.55-1.1 3.55.15 2.05 1.7 3.3 1.55 1.3 3.6 1.15 1.95-.2 3.25-1.75l23-25.1q1.1-1.3-.5-2.8z"/><path id="j" fill="#FFF" d="M64.1 30.9q-4.8 0-8.15 3.4-3.4 3.35-3.4 8.15 0 4.8 3.4 8.2 3.35 3.4 8.15 3.4 4.8 0 8.2-3.4 3.4-3.4 3.4-8.2 0-4.8-3.4-8.15-3.4-3.4-8.2-3.4z"/></defs><use xlink:href="#a"/><use xlink:href="#b"/><use xlink:href="#c"/><use transform="matrix(.40248 0 0 .40189 10.3 10.45)" xlink:href="#d"/><use transform="matrix(.40248 0 0 .40189 10.3 10.45)" xlink:href="#e"/><use transform="matrix(.40248 0 0 .40189 10.3 10.45)" xlink:href="#f"/><use transform="matrix(.40248 0 0 .40189 10.3 10.45)" xlink:href="#g"/><use transform="matrix(.40248 0 0 .40189 10.3 10.45)" xlink:href="#h"/><g transform="matrix(.40248 0 0 .40189 10.3 10.45)"><use xlink:href="#i"/></g><g transform="matrix(.40248 0 0 .40189 10.3 10.45)"><use xlink:href="#j"/></g></svg>