<svg xmlns="http://www.w3.org/2000/svg" xmlns:xlink="http://www.w3.org/1999/xlink" preserveAspectRatio="none" viewBox="0 0 72 72"><defs><path id="a" fill="#B0BEC5" d="M101.85 19.95q-.05-.35-.4-.45-5.55-1.55-10.9-.3Q85 20.45 81 24.45q-4 4-5.25 9.55-1.25 5.4.35 10.95-7.6 12.8-20 25.05-11.35 11.25-24.9 20.3-1.9 1.3-5.75 3.7-3.15 2.3-4.5 5.05-1.5 3-1.35 6.4.1 3.35 1.85 6.25.45.7 2.1 2.35 1.7 1.65 2.35 2.1 2.9 1.7 6.25 1.85 3.4.15 6.4-1.3 2.75-1.4 5.05-4.5 2.45-3.85 3.7-5.75 9.05-13.55 20.3-24.9 12.25-12.4 25.05-20.05 5.55 1.6 10.95.35 5.55-1.25 9.55-5.25 4-3.95 5.25-9.5 1.25-5.4-.3-10.95-.1-.3-.45-.4-.35-.05-.55.15l-11.65 11.65q-.5.55-1.3.55t-1.35-.55L90.05 34.8q-.55-.5-.55-1.3t.55-1.35L101.7 20.5q.25-.25.15-.55M38 104.85q0 2.15-1.55 3.7-1.55 1.55-3.7 1.55-2.15 0-3.75-1.5-1.5-1.6-1.5-3.75t1.55-3.7q1.55-1.55 3.7-1.55 2.15 0 3.75 1.5 1.5 1.6 1.5 3.75z"/><path id="b" fill="#855C52" d="M95.35 88.75q-8.95-8.7-12.6-12.1-1.8-1.65-8.45-6.9-6.45-5.1-6.9-5.55l-24.1-24-6.65 6.65 24.05 24.1q.35.4 5.5 6.9 5.25 6.6 6.9 8.4 3.15 3.4 12.1 12.6 8.95 9.3 12.2 12.45l2.55 2.4q1.2 1.1 2.65 1.25 1.45.15 2.35-.75l5.7-5.7q.9-.9.75-2.35-.15-1.45-1.25-2.65l-2.4-2.5q-3-3.1-12.4-12.25z"/><path id="c" fill="#855C52" d="M47.15 44.05l-6.6-6.55-6.6 6.6 6.55 6.6q.7-2.55 2.4-4.25 1.6-1.7 4.25-2.4z"/><path id="d" fill="#B0BEC5" d="M50.95 14.35q-2.35-.65-9.9.85-3.5.7-5.75 2.2-.8.6-2.7 2.45l-16.35 16.3q-.25.25-.25.65t.25.65l2.7 2.65q.4.4.25 1-.15.55-.7.75l-.85.25q-2.9.9-6 .45-1.55-.25-2.7.9l-3.9 3.9q-.3.3-.3.7 0 .4.3.7L20.4 64.1q.85.85 2 .85t1.95-.85L27 61.5q1.1-1.1.85-2.7-.45-2.95.45-6.05l.25-.8q.2-.55.75-.7.6-.15 1 .25l2.65 2.7q.7.6 1.3 0L51.2 37.25q.25-.25.25-.65t-.25-.65l-5.25-5.25q-2.5-2.45-2.9-3.6-1.3-3.6 1.65-6.65 1.25-1.3 5.1-3.65 1.95-1.15 2.15-1.65.2-.5-1-.8z"/><path id="e" fill="#B0BEC5" d="M9.15 22.2q-.1.3-.4.4l-.5.15Q6.5 23.3 4.6 23l8.9 8.9.15.35q.05.8-.55 1.4l-1.6 1.6q-.5.5-1.15.5-.678 0-1.2-.5l1.5 1.5q.15.15.45.15.2 0 .4-.15l2.3-2.35q.7-.7.55-1.65-.25-1.85.3-3.6l.15-.5q.1-.3.45-.4.34-.097.55.1L9.05 21.6v.05q.2.2.1.55z"/></defs><use transform="matrix(.60187 0 0 .60187 -2.4 -2.6)" xlink:href="#a"/><use transform="matrix(.60187 0 0 .60187 -2.4 -2.6)" xlink:href="#b"/><use transform="matrix(.60187 0 0 .60187 -2.4 -2.6)" xlink:href="#c"/><use transform="matrix(.60187 0 0 .60187 -2.4 -2.6)" xlink:href="#d"/><use xlink:href="#e"/></svg>