<svg xmlns="http://www.w3.org/2000/svg" xmlns:xlink="http://www.w3.org/1999/xlink" preserveAspectRatio="none" viewBox="0 0 72 72"><defs><path id="a" fill="#FCC21B" d="M121.8 84.8q0-24.55-7.75-42.75Q99.9 8.7 63.75 8.7q-36.1 0-50.25 33.35-7.75 18.2-7.75 42.75 0 9.45 17 16.15 17 6.65 41 6.65 24.05 0 41.05-6.65 17-6.7 17-16.15z"/><path id="b" fill="#FCC21B" d="M101.9 82.1q6.2-2.25 9-8.15t.5-12.05q-2.35-6.15-8.3-8.9-6-2.75-12.2-.5-6.15 2.25-8.95 8.15-2.8 5.9-.55 12.05 2.35 6.2 8.3 8.9 5.95 2.75 12.2.5z"/><path id="c" fill="#FCC01C" d="M101.65 81.5q5.95-2.15 8.6-7.8 2.7-5.7.6-11.6-2.15-5.85-7.9-8.5-5.8-2.65-11.7-.5-6 2.15-8.7 7.85-2.7 5.7-.5 11.55 2.2 5.9 7.9 8.55 5.75 2.65 11.7.45z"/><path id="d" fill="#FCBE1C" d="M101.5 80.95q5.65-2.05 8.25-7.5 2.6-5.45.55-11.1-2.1-5.6-7.6-8.1-5.5-2.55-11.2-.5-5.8 2.1-8.4 7.55-2.55 5.4-.45 11.05 2.15 5.6 7.65 8.1t11.2.5z"/><path id="e" fill="#FBBB1D" d="M101.3 80.35q5.4-2 7.9-7.2 2.45-5.25.5-10.55-2-5.4-7.25-7.8-5.25-2.4-10.75-.5-5.45 2-7.9 7.15-2.45 5.2-.5 10.55 2.05 5.4 7.3 7.85 5.25 2.45 10.7.5z"/><path id="f" fill="#FBB91E" d="M101 79.7q5.25-1.85 7.55-6.85 2.35-4.95.45-10.05-1.85-5.15-6.9-7.45-5-2.35-10.2-.45-5.25 1.85-7.55 6.85Q82 66.7 83.9 71.8q1.85 5.15 6.9 7.5 5 2.3 10.2.4z"/><path id="g" fill="#FBB71E" d="M100.8 79.1q4.95-1.8 7.15-6.5 2.25-4.75.4-9.6-1.75-4.9-6.55-7.1-4.8-2.2-9.75-.4-4.95 1.8-7.15 6.5-2.25 4.75-.4 9.6 1.8 4.9 6.6 7.1 4.75 2.2 9.7.4z"/><path id="h" fill="#FBB51F" d="M100.55 78.5q4.75-1.7 6.85-6.15 2.1-4.45.35-9.1-1.7-4.65-6.3-6.7-4.55-2.05-9.2-.4-4.7 1.75-6.8 6.2-2.1 4.45-.4 9.1 1.75 4.6 6.25 6.65 4.5 2.05 9.25.4z"/><path id="i" fill="#FAB220" d="M100.4 77.95q4.45-1.7 6.4-5.9 1.95-4.2.4-8.75-1.55-4.35-5.85-6.3-4.3-2-8.75-.4-4.4 1.65-6.4 5.9t-.4 8.6q1.55 4.4 5.9 6.4 4.25 2 8.7.45z"/><path id="j" fill="#FAB020" d="M100.15 77.35q4.15-1.5 6-5.5 1.9-4 .4-8.1T101 57.8q-4.05-1.85-8.25-.35T86.7 62.9q-1.85 3.95-.35 8.1 1.5 4.15 5.55 6 4.05 1.85 8.25.35z"/><path id="k" fill="#FAAE21" d="M99.9 76.7q3.95-1.4 5.7-5.2 1.8-3.8.3-7.6-1.5-3.9-5.3-5.65-3.85-1.75-7.7-.35-3.9 1.45-5.65 5.15-1.75 3.75-.35 7.65 1.5 3.9 5.25 5.65 3.75 1.75 7.75.35z"/><path id="l" fill="#FAAC22" d="M99.65 76.1q3.7-1.3 5.35-4.85 1.7-3.5.35-7.15-1.35-3.65-4.9-5.25-3.5-1.65-7.2-.35-3.75 1.35-5.4 4.9-1.65 3.5-.3 7.1 1.35 3.7 4.9 5.35 3.55 1.65 7.2.25z"/><path id="m" fill="#F9A922" d="M99.5 75.5q3.4-1.25 4.95-4.5 1.55-3.25.35-6.65-1.3-3.35-4.6-4.9-3.3-1.5-6.7-.3-3.5 1.25-5.05 4.55-1.55 3.25-.3 6.65 1.3 3.35 4.6 4.85 3.3 1.5 6.75.3z"/><path id="n" fill="#F9A723" d="M99.3 74.95q3.15-1.2 4.55-4.25 1.45-3 .35-6.1-1.2-3.15-4.25-4.55-3.1-1.4-6.25-.25-3.2 1.1-4.6 4.15-1.45 3-.3 6.15 1.2 3.15 4.3 4.6 3.05 1.4 6.2.25z"/><path id="o" fill="#F9A524" d="M99 74.2q2.95-1 4.3-3.8 1.3-2.8.2-5.7-1.1-2.85-3.9-4.15-2.8-1.3-5.7-.25-2.9 1.1-4.25 3.85-1.3 2.8-.25 5.65 1.05 2.85 3.85 4.15 2.8 1.3 5.75.25z"/><path id="p" fill="#F9A324" d="M98.8 73.6q2.65-.85 3.85-3.4 1.2-2.55.25-5.2-1-2.7-3.6-3.9-2.55-1.15-5.25-.2-2.65 1-3.85 3.55Q89 67 90 69.6q1 2.65 3.55 3.8 2.55 1.2 5.25.2z"/><path id="q" fill="#F8A025" d="M98.55 73q2.45-.8 3.55-3.1 1.1-2.3.15-4.8-.9-2.35-3.25-3.45t-4.75-.2q-2.4.9-3.5 3.2-1.05 2.3-.2 4.7.9 2.35 3.25 3.45 2.4 1.1 4.75.2z"/><path id="r" fill="#F89E26" d="M98.4 72.45q2.2-.75 3.15-2.8.95-2.05.15-4.2-.75-2.2-2.85-3.15-2.05-.95-4.25-.2-2.15.75-3.1 2.8-.95 2-.2 4.2.75 2.15 2.85 3.15 2.05.95 4.25.2z"/><path id="s" fill="#F89C26" d="M98.15 71.85q1.9-.7 2.75-2.5.85-1.9.15-3.75t-2.55-2.7q-1.9-.85-3.75-.15t-2.7 2.5q-.85 1.8-.2 3.7.7 1.9 2.5 2.75 1.85.85 3.8.15z"/><path id="t" fill="#F89A27" d="M97.9 71.2q1.65-.55 2.4-2.15.75-1.6.1-3.25t-2.25-2.35q-1.65-.75-3.25-.15-1.65.6-2.4 2.2-.75 1.55-.1 3.2.6 1.65 2.25 2.4 1.6.7 3.25.1z"/><path id="u" fill="#F79728" d="M97.65 70.6q1.45-.45 2.1-1.8.65-1.35.1-2.8-.55-1.35-1.85-1.95-1.35-.6-2.75-.1t-2.05 1.8q-.65 1.35-.15 2.75.55 1.35 1.85 2 1.35.6 2.75.1z"/><path id="v" fill="#F79528" d="M97.5 70q1.1-.35 1.65-1.45.55-1.05.15-2.2-.5-1.2-1.6-1.75-1.05-.5-2.2-.1-1.25.5-1.75 1.6-.55 1.1-.1 2.25.5 1.15 1.6 1.6 1.15.5 2.25.05z"/><path id="w" fill="#F79329" d="M97.3 69.45q.9-.35 1.3-1.2.35-.85.1-1.75-.35-.9-1.25-1.3-.85-.4-1.75-.1-.9.3-1.3 1.15-.4.9-.1 1.75.35.95 1.25 1.35.85.4 1.75.1z"/><path id="x" fill="#FCC21B" d="M36.6 52.4q-6-2.75-12.2-.5-6.15 2.25-8.95 8.15-2.8 5.9-.55 12.05 2.3 6.2 8.3 8.9 5.95 2.75 12.2.5 6.25-2.25 9.05-8.15 2.75-5.9.45-12.05-2.35-6.15-8.3-8.9z"/><path id="y" fill="#FCC01C" d="M36.4 53.05q-5.75-2.6-11.7-.55-5.95 2.2-8.6 7.9-2.65 5.65-.5 11.55 2.2 5.85 7.9 8.5 5.7 2.65 11.7.5 5.9-2.2 8.6-7.9 2.65-5.7.5-11.55-2.15-5.8-7.9-8.45z"/><path id="z" fill="#FCBE1C" d="M36.2 53.65q-5.5-2.55-11.2-.5-5.75 2.1-8.35 7.55-2.55 5.4-.45 11.05 2.1 5.6 7.6 8.1 5.45 2.5 11.2.5 5.65-2.15 8.25-7.55 2.55-5.45.5-10.95-2.05-5.65-7.55-8.2z"/><path id="A" fill="#FBBB1D" d="M35.9 54.2q-5.25-2.45-10.75-.5-5.45 1.95-7.9 7.15-2.45 5.15-.5 10.55 2.05 5.4 7.3 7.85 5.25 2.4 10.7.45 5.45-1.95 7.9-7.15t.5-10.55q-2-5.4-7.25-7.8z"/><path id="B" fill="#FBB91E" d="M35.6 54.75q-5.05-2.35-10.25-.45-5.25 1.85-7.55 6.85-2.35 4.95-.45 10.05 1.85 5.15 6.95 7.5 5 2.3 10.2.4 5.25-1.85 7.55-6.85 2.35-4.95.45-10.05-1.85-5.15-6.9-7.45z"/><path id="C" fill="#FBB71E" d="M35.35 55.35q-4.8-2.25-9.75-.4-4.95 1.75-7.15 6.45Q16.2 66.1 18 71q1.75 4.9 6.55 7.1 4.75 2.25 9.7.4 5-1.8 7.2-6.5 2.2-4.65.45-9.55-1.8-4.9-6.55-7.1z"/><path id="D" fill="#FBB51F" d="M35 55.95q-4.55-2.05-9.25-.4-4.7 1.75-6.8 6.2-2.1 4.45-.4 9.1 1.7 4.6 6.25 6.65 4.5 2.05 9.25.45 4.7-1.75 6.8-6.2 2.1-4.45.4-9.1-1.7-4.65-6.25-6.7z"/><path id="E" fill="#FAB220" d="M33.9 77.35q4.4-1.7 6.35-5.9 2-4.25.45-8.65-1.65-4.35-5.9-6.3-4.3-1.95-8.7-.35-4.4 1.65-6.4 5.9t-.4 8.6q1.55 4.35 5.9 6.3 4.25 2 8.7.4z"/><path id="F" fill="#FAB020" d="M33.7 76.7q4.1-1.5 6-5.45 1.85-4 .4-8.05-1.5-4.2-5.55-6.05-4.05-1.85-8.25-.35t-6.05 5.5q-1.85 3.95-.35 8.1 1.5 4.1 5.55 5.95 4.05 1.85 8.25.35z"/><path id="G" fill="#FAAE21" d="M33.4 76.1q4-1.4 5.75-5.2 1.75-3.75.25-7.6-1.5-3.9-5.3-5.65-3.8-1.75-7.7-.35-3.9 1.45-5.65 5.2-1.75 3.75-.35 7.6 1.5 3.9 5.25 5.65 3.8 1.75 7.75.35z"/><path id="H" fill="#FAAC22" d="M33.2 75.5q3.65-1.35 5.3-4.85 1.65-3.5.4-7.15-1.4-3.65-4.95-5.25-3.55-1.65-7.2-.3-3.7 1.35-5.35 4.85-1.65 3.5-.3 7.15 1.35 3.7 4.9 5.3 3.55 1.65 7.2.25z"/><path id="I" fill="#F9A922" d="M33 74.95q3.4-1.3 4.95-4.6 1.55-3.25.3-6.6-1.25-3.4-4.55-4.9-3.25-1.5-6.7-.3-3.45 1.3-5 4.55-1.55 3.3-.3 6.65 1.25 3.35 4.55 4.85 3.25 1.5 6.75.35z"/><path id="J" fill="#F9A723" d="M32.75 74.2q3.2-1.1 4.65-4.15 1.4-3 .25-6.15-1.2-3.15-4.25-4.55-3.1-1.4-6.25-.25-3.2 1.1-4.6 4.15-1.45 3-.3 6.15 1.2 3.15 4.3 4.55 3.05 1.4 6.2.25z"/><path id="K" fill="#F9A524" d="M32.5 73.6q2.95-1.05 4.25-3.8 1.3-2.8.25-5.7-1.1-2.85-3.9-4.15-2.85-1.3-5.75-.25t-4.2 3.85q-1.3 2.8-.3 5.65 1.05 2.85 3.9 4.15 2.85 1.3 5.75.25z"/><path id="L" fill="#F9A324" d="M32.25 73q2.7-.85 3.95-3.4 1.2-2.55.2-5.25-1-2.65-3.55-3.85-2.55-1.15-5.25-.2t-3.9 3.55q-1.2 2.5-.2 5.15.95 2.65 3.5 3.8 2.55 1.2 5.25.2z"/><path id="M" fill="#F8A025" d="M32.05 72.45q2.45-.85 3.5-3.15 1.15-2.3.2-4.8-.9-2.4-3.25-3.45-2.35-1.1-4.75-.2-2.4.9-3.5 3.2-1.1 2.3-.2 4.7.9 2.4 3.25 3.5 2.35 1.05 4.75.2z"/><path id="N" fill="#F89E26" d="M31.85 71.85Q34 71.1 35 69q.95-2.05.15-4.15-.75-2.15-2.85-3.15-2.05-.95-4.25-.2-2.15.75-3.1 2.85-.95 2.05-.2 4.15.75 2.2 2.85 3.15 2.1.95 4.25.2z"/><path id="O" fill="#F89C26" d="M31.7 71.2q1.85-.65 2.75-2.5.85-1.8.15-3.7-.65-1.85-2.55-2.7-1.85-.9-3.75-.2-1.85.7-2.7 2.5-.85 1.8-.2 3.7.7 1.9 2.5 2.75 1.85.85 3.8.15z"/><path id="P" fill="#F89A27" d="M31.35 70.6q1.65-.55 2.4-2.15.8-1.55.15-3.25-.65-1.65-2.25-2.35-1.6-.75-3.3-.15-1.65.6-2.35 2.2-.7 1.55-.15 3.2.65 1.65 2.25 2.4t3.25.1z"/><path id="Q" fill="#F79728" d="M31.2 70q1.4-.4 2-1.75.65-1.35.2-2.8-.55-1.35-1.85-2-1.35-.6-2.75-.1-1.45.5-2.1 1.85-.65 1.35-.1 2.75.55 1.35 1.85 1.95 1.35.6 2.75.1z"/><path id="R" fill="#F79528" d="M31 69.45q1.1-.35 1.65-1.5.5-1.1.1-2.3-.4-1.15-1.5-1.65-1.15-.5-2.25-.05-1.2.45-1.7 1.55-.55 1.15-.1 2.25.4 1.1 1.55 1.6 1.1.5 2.25.1z"/><path id="S" fill="#F79329" d="M30.75 68.85q.9-.3 1.3-1.15.4-.85.1-1.75-.35-.95-1.25-1.35-.85-.4-1.75-.1-.85.35-1.3 1.2-.4.85-.1 1.75.4.9 1.25 1.3t1.75.1z"/><path id="T" fill="#2F2F2F" d="M33.05 57.95q.8-1.5 2.25-2.9 2.8-2.75 6.4-2.8 3.75 0 6.6 2.7 1.45 1.35 2.2 2.85.55 1.2 2.05 1.2.8 0 1.3-.25.9-.55 1.2-1.55.25-1-.3-1.9-1.1-2.2-3.25-4.2-4.15-3.8-9.75-3.8-5.5 0-9.7 3.9-2.1 1.95-3.3 4.1-.5.9-.25 1.9.25 1 1.15 1.55.9.55 1.9.3 1-.2 1.5-1.1z"/><path id="U" fill="#2F2F2F" d="M98.4 58.75q.9-.6 1.15-1.55.2-1-.4-1.9-1.45-2.6-3.3-4.25-4.1-3.75-9.7-3.75-5.55 0-9.65 3.75-1.9 1.75-3.35 4.25-.5.9-.2 1.9.25 1 1.1 1.55.95.5 1.95.2 1-.25 1.5-1.15l2.1-2.8q2.9-2.75 6.7-2.75 3.75 0 6.6 2.7 1.45 1.35 2.2 2.85.6 1.2 2.1 1.2.7 0 1.2-.25z"/><path id="V" fill="#2F2F2F" d="M81.6 79.15q3.8-2.6 5.8-5.55.65-1 .4-2.15-.25-1.2-1.25-1.85-1.05-.65-2.2-.4-1.2.25-1.85 1.25-1.2 1.95-4.65 4.2-5.95 3.85-13.6 3.85-8.35 0-14.35-4.05-1.95-1.3-3.4-2.85-.6-.6-1.25-1.5-.75-.95-1.95-1.15-1.2-.2-2.15.55-1 .75-1.15 1.95-.2 1.2.55 2.15.1.1 1.55 1.85 1.9 2 4.3 3.7 7.6 5.2 17.65 5.2 10 0 17.55-5.2z"/><path id="W" fill="#FAC036" d="M18 76.4q-1.95 0-3.6 1.5-2.05 2.05-1.2 4.7l-.1-.1q-1.6-1.3-3.4-1.3-1.2 0-2.35.65-1.2.6-1.85 1.65-.9 1.5-.6 3.3.25 1.6 1.4 3-2.15.45-3.6 2.5-1.1 1.7-.3 3.85.7 1.8 2.2 2.95.3.3 1.4.9-1.6.65-2.4 2.5-.75 1.95.15 3.8.8 1.65 2.55 2.65l3.05 1.65q3.6 1.85 6.15 2.9.2 0 1.7.8 1.95 1 4 2.4 4.2 3 9.5 3 4 0 6.65-1.5 3.9-1.6 6.25-3.9 3.35-3.3 4.55-8.6.6-2.8.4-5.75-.25-3-1.2-5.25-1.1-2.3-2.9-4.7-1.65-2.2-2.1-3.4-.75-1.95-1.6-3-1.45-1.8-3.7-1.8-2.3 0-3.7 1.8-1.8 2.25-1 5.1.15.9.6 1.7l-2.4-2.6q-1.15-1.4-8.8-9.6-1.7-1.8-3.75-1.8z"/><path id="X" fill="#2F2F2F" d="M13.1 76.7q-1.35 1.2-1.8 2.9-.75-.15-1.65-.15-1.75 0-3.3.8-1.65.85-2.6 2.25-1.95 2.8-.5 6.45-1.25.75-2.4 2.4Q-.5 93.5.1 96.1q.55 2.35 2.45 4.15-.65.8-.9 1.7-1.05 2.55.2 5.15 1.1 2.3 3.4 3.65.05 0 3.25 1.75 3.7 2 6.25 3.05l1.55.75q1.9 1 3.75 2.25 4.8 3.3 10.7 3.3 3.7 0 7.3-1.4 4.3-1.7 6.95-4.3 3.7-3.7 5.05-9.6.7-3.05.45-6.4-.2-3.35-1.35-5.9-.65-1.45-1.6-2.9-1.05-1.55-1.5-2.2-1.4-1.95-1.8-3-1.05-2.45-2.05-3.6-2-2.4-5-2.4h-.1q-3.35 0-5.2 2.6-.7 1-1.2 2.3l-7.3-8Q20.85 74.6 18 74.6q-2.8 0-4.9 2.1m2.75 2.8q.9-.9 2.15-.9 1.2 0 2.25 1.2l8.8 9.6q.6.7 2.3 2.6l3 3.1.55.45q.7.45 1.25.45 1.05 0 1.7-1.6-.65-1.15-2.15-3.1-1.1-1.5-1.45-2.7-.4-1.7.45-3.05.85-1.35 2.3-1.35 1.2 0 2.05.95.6.75 1.35 2.55.65 1.6 2.35 3.9 1.8 2.4 2.65 4.3.9 1.9 1.05 4.7.2 2.65-.35 5.1-1.05 4.6-3.7 7.35-2.15 2.2-5.9 3.75-2.75 1.1-5.8 1.1-4.55 0-8.4-2.6-2.1-1.5-4.25-2.6l-1.75-.8q-3.6-1.5-9-4.5-1-.55-1.6-1.55-.75-1.2-.3-2.35.7-1.7 2.4-1.7.95 0 1.7.5 6.6 3.6 8 4.3.7-.2.75-.6.2-.6-.4-1.3-1.4-.95-6.8-4.05-5.15-2.95-5.4-3.15-.9-.6-1.4-1.75-.6-1.35 0-2.3 1-1.6 2.75-1.6.9 0 1.65.6l11.1 7.3q.45-.05.8-.35.75-.5.3-1.45-3.35-2.2-7.45-5-4.95-3.45-5.4-4-.85-.85-1.2-1.9-.45-1.3.25-2.3 1.05-1.4 2.6-1.4 1.25 0 2.1.8l12.4 10.2h.4q1.1 0 1-1.35-2.2-2.05-4.45-4.25-4.55-4.35-4.95-4.8-.8-1-1-2.05-.3-1.45.7-2.4z"/><path id="Y" fill="#FAC036" d="M85.7 86.8q-.65 1.4-2.1 3.4-2.05 2.75-2.9 4.7-1 2.3-1.2 5.25-.25 3.05.4 5.75 1.2 5.3 4.55 8.6 2.35 2.3 6.25 3.9 3.25 1.3 6.6 1.3 5.25 0 9.6-3 3.15-2.2 5.65-3.2 4.1-1.6 9.2-4.6 1.7-1.1 2.5-2.7.95-1.9.2-3.7-.8-1.75-2.4-2.5l1.4-.9q1.55-1.1 2.25-2.95.75-2.1-.35-3.85-1.4-2.2-3.6-2.5 1.2-1.4 1.5-3.05.35-1.85-.7-3.25-.65-1-1.75-1.6-1.15-.6-2.4-.6-1.95 0-3.4 1.3 0 .1-.1.1.85-2.8-1.2-4.7-1.65-1.5-3.6-1.5-2.1 0-3.8 1.8-7.65 8.2-8.8 9.6-.5.7-2.2 2.5l-.2.2.6-1.7q.65-3-1-5.1Q93.25 82 91 82q-2.2.05-3.7 1.9-.85 1-1.6 2.9z"/><path id="Z" fill="#2F2F2F" d="M97.5 85q-.65-1.45-1.2-2.3-2-2.6-5.3-2.6h-.1q-3 .05-5.05 2.45-1 1.15-2.05 3.55-.4 1.05-1.8 3-1.9 2.4-3.1 5.1-1.1 2.55-1.35 5.9-.25 3.35.45 6.4 1.35 5.95 5.05 9.6 2.65 2.6 6.95 4.35 3.95 1.4 7.3 1.4 5.7 0 10.7-3.35 3-2.05 5.3-3 2.7-1.05 6.3-2.95 3.05-1.65 3.2-1.85 2.3-1.3 3.4-3.6 1.25-2.6.2-5.2-.15-.45-.9-1.7 1.9-1.75 2.45-4.15.6-2.6-.8-4.75-.9-1.5-2.4-2.4 1.45-3.6-.5-6.4-.95-1.4-2.55-2.25-1.6-.85-3.35-.85-.6 0-1.6.2-.45-1.7-1.8-2.9-2.25-2.1-4.95-2.1-3 0-5.2 2.4-6.5 7.1-7.3 8M89 85q.85-1 2.05-1 1.45 0 2.3 1.35.85 1.35.4 3.1-.3 1.2-1.4 2.65-1.6 2.15-2.2 3.15.55 1.6 1.7 1.6.9 0 1.8-.9l5.3-5.7q8-8.8 8.8-9.6 1.15-1.05 2.25-1.05 1.15 0 2.15 1 1 .95.7 2.35-.2 1.05-1 2.05-.6.85-9.4 9.1-.1 1.35 1 1.35h.4q2.5-2.2 12.4-10.2.8-.8 2.1-.8 1.65 0 2.6 1.4.65 1 .25 2.35-.4 1.1-1.15 1.8-.55.6-5.5 4-4.4 3.05-7.4 5-.45.95.3 1.5.35.25.8.35l11.1-7.35q.85-.55 1.7-.55 1.65 0 2.7 1.55.6 1 0 2.35-.5 1.15-1.4 1.75-1.1.95-12.2 6.9-.7.85-.4 1.35.2.5.8.6 4.15-2.05 8-4.35 1-.5 1.7-.5 1.8 0 2.4 1.7.5 1.15-.25 2.35-.65 1-1.65 1.55-.9.55-3.45 1.9-3.2 1.6-5.55 2.6-2.6 1.1-6 3.4-3.65 2.6-8.4 2.6-3.05 0-5.8-1.1-3.75-1.55-5.9-3.75-2.65-2.75-3.7-7.35-.55-2.4-.35-5.05.15-2.7 1.05-4.75.8-1.9 2.6-4.3 1.75-2.35 2.4-3.9.65-1.7 1.35-2.5z"/></defs><use transform="scale(.5625)" xlink:href="#a"/><use transform="scale(.5625)" xlink:href="#b"/><use transform="scale(.5625)" xlink:href="#c"/><use transform="scale(.5625)" xlink:href="#d"/><use transform="scale(.5625)" xlink:href="#e"/><use transform="scale(.5625)" xlink:href="#f"/><use transform="scale(.5625)" xlink:href="#g"/><use transform="scale(.5625)" xlink:href="#h"/><use transform="scale(.5625)" xlink:href="#i"/><use transform="scale(.5625)" xlink:href="#j"/><use transform="scale(.5625)" xlink:href="#k"/><use transform="scale(.5625)" xlink:href="#l"/><use transform="scale(.5625)" xlink:href="#m"/><use transform="scale(.5625)" xlink:href="#n"/><use transform="scale(.5625)" xlink:href="#o"/><use transform="scale(.5625)" xlink:href="#p"/><use transform="scale(.5625)" xlink:href="#q"/><use transform="scale(.5625)" xlink:href="#r"/><use transform="scale(.5625)" xlink:href="#s"/><use transform="scale(.5625)" xlink:href="#t"/><use transform="scale(.5625)" xlink:href="#u"/><use transform="scale(.5625)" xlink:href="#v"/><use transform="scale(.5625)" xlink:href="#w"/><use transform="scale(.5625)" xlink:href="#x"/><use transform="scale(.5625)" xlink:href="#y"/><use transform="scale(.5625)" xlink:href="#z"/><use transform="scale(.5625)" xlink:href="#A"/><use transform="scale(.5625)" xlink:href="#B"/><use transform="scale(.5625)" xlink:href="#C"/><use transform="scale(.5625)" xlink:href="#D"/><use transform="scale(.5625)" xlink:href="#E"/><use transform="scale(.5625)" xlink:href="#F"/><use transform="scale(.5625)" xlink:href="#G"/><use transform="scale(.5625)" xlink:href="#H"/><use transform="scale(.5625)" xlink:href="#I"/><use transform="scale(.5625)" xlink:href="#J"/><use transform="scale(.5625)" xlink:href="#K"/><use transform="scale(.5625)" xlink:href="#L"/><use transform="scale(.5625)" xlink:href="#M"/><use transform="scale(.5625)" xlink:href="#N"/><use transform="scale(.5625)" xlink:href="#O"/><use transform="scale(.5625)" xlink:href="#P"/><use transform="scale(.5625)" xlink:href="#Q"/><use transform="scale(.5625)" xlink:href="#R"/><use transform="scale(.5625)" xlink:href="#S"/><use transform="scale(.5625)" xlink:href="#T"/><use transform="scale(.5625)" xlink:href="#U"/><use transform="scale(.5625)" xlink:href="#V"/><use transform="scale(.5625)" xlink:href="#W"/><use transform="scale(.5625)" xlink:href="#X"/><use transform="scale(.5625)" xlink:href="#Y"/><use transform="scale(.5625)" xlink:href="#Z"/></svg>