<svg xmlns="http://www.w3.org/2000/svg" xmlns:xlink="http://www.w3.org/1999/xlink" preserveAspectRatio="none" viewBox="0 0 72 72"><defs><path id="a" fill="#FADCBC" d="M101.65 20.75q-5.85.5-7.3.55-8.3.3-19.6 1.9-5.45.75-19.5 3.1-12.55 2.1-25.1 5.55-13.3 3.6-16.5 6.1Q7.8 42.4 6.5 51.3q-.65 4.15-.5 9.3.05 3.35.6 9.3.95 10.95 2.65 17.5 1.65 6.7 6.4 7.95 2.85.8 7.9-.2 2.95-.55 7.7-2.05-1.35 4.45 2.5 9.8 3.7 5.15 7 4.7 7.5-1.05 15.05-4.85 4.35-2.2 12.25-7.1 5-2.9 9.4-7.5 3.6-3.7 7.5-9.45.35-.8 4.8-4.65 4.5-4 6.15-4.85 1.75-.95 5.9-1.75 3.9-.75 6.55-.7 8-.6 11.45-9.3 2.2-5.65 2.2-13.5-.1-10.55-2.85-17.45-2.25-5.6-10.25-6-2.65-.15-7.25.25z"/><path id="b" fill="#DBA689" d="M27.65 69.4q3.55-3 4.25-3.55 3.35-2.55 5.05-3.65 3.5-2.15 8.05-3.85 1.95-.75 4.3-.35 2.75.4 3.85 2.35.35.7 1.25.8.85.1 1.55-.45.65-.5.75-1.3.1-.85-.4-1.5-1.9-2.5-5.6-3.35-3.45-.75-6.35.3-5.55 2.1-11.15 6.25-4.75 3.55-7 6.5-.75 1-1.15 1.9-.6 1.35 0 1.75.2.2 2.6-1.85z"/><path id="c" fill="#DBA689" d="M39.8 81.65q-.6.5-6.8 4.5-6.4 4.65-9.2 8.95 5.7-1.25 7.45-2 .85-1.55 2.7-2.9.5-.4 4.05-2.6 2.15-1.3 4.15-2.7Q54.2 76.2 56.5 69.8q1.45-4.1.95-7.95-.5-3.85-2.85-6.95-2.55-3.35-6.8-5.3-4.05-1.9-6.5-1.15-1.4.4-1 .75.15.15 2.3 1.05 5.55 2.3 8.8 6.45 1.5 1.9 2 4.7.65 3.45-.65 7.05-1.85 5.25-12.95 13.2z"/></defs><use transform="scale(.5625)" xlink:href="#a"/><use transform="scale(.5625)" xlink:href="#b"/><use transform="scale(.5625)" xlink:href="#c"/></svg>