<svg xmlns="http://www.w3.org/2000/svg" xmlns:xlink="http://www.w3.org/1999/xlink" preserveAspectRatio="none" viewBox="0 0 72 72"><defs><path id="a" fill="#AD6F43" d="M64.35 7.1q.75-3.55-2.05-4.95-2.8-1.4-6.05 1-1.95 1.6-3.05 2.45-2.05 1.6-3.8 2.5-2.6 1.4-8.95.55-6.5-.85-8.75.15-5.05 2.2-8.25 1.85-1.7-.25-2.6-.4-1.65-.25-3.25-.1-2.35.2-4.6 4.75-1.25 2.45-2.7 6.35-2.2 4.7-2.65 7Q7 31.6 8.95 33.1q3.65 2.8 4.85 3.95 2.2 2.15 2.7 4.05 1.15 4.5 6.25 7.4 2.85 1.6 8.85 3.85 5.55 2.6 9.95 7.2 1.05 1.15 6.75 8.3 1.2 1.45 2.6 2.2 1.7.9 3 0 1.25-.85 1.35-2.65.15-1.75-.85-3.2-1.4-2-5.45-7.4-3.65-4.85-4.15-5.7-.75-1.2-2.4-2.15-2-.9-2.9-1.35-.9-.5-1.95-1l.85-.6q2.15 1.2 4.95 2.55 2.8 1.3 3.8 1.65 1.6.55 3.1.3 1.85-.4 2.65-2.1.7-1.6 0-3.15-.75-1.6-2.85-2.65l-4.2-2 .2-.15.4-.45q1.3.55 3.75 1.35 2 .75 2.4.95 1.95 1 3.75.3 1.75-.7 2.3-2.7.65-2.15-.6-3.85-1.15-1.6-3.55-2.35-.35-.05-1.95-.75-1.6-.65-2.2-.85l1.3-.55q1.15.3 3.65 1.2 4.2 1.3 5.35-2.75.65-2.2-.75-3.55-.7-.7-3.35-2.1-1.6-.85-4.05-1.8-3.35-1.35-5.4-1.65-.2-.25-.25-.4-.1-.2.2-.3.4-.1 2.25-.25 2.05-.3 3.75-.8 5.4-1.7 8.65-6.5 2.15-3.15 2.65-5.55z"/><path id="b" fill="#7A4C32" d="M47.05 20.2q-2.8-.8-4.95 0-2.25.8-3.05 3-1.1 3.05.25 4.65-.4.05-.95.4-1.05.8-1.8 2.5-.7 1.75-.2 3.45.3.9.75 1.5-1.15-.55-2.8-.1-1.95.45-2.7 2.2-.65 1.5-.5 3.1.15 1.45.9 2.3 1.15 1.05 1.55 1.35 1.05.8 3.3 1.8l1.05.5q.2.05 1.75.8 1.7.85 2.6 1.4 1.45.85 2.65 2.15.1-.7.25-.9.2-.35.5-.5.248-.1.35-.05l-3.65-1.9q-6.75-3.45-7.3-3.95-.6-.5-1.1-1.35-.95-1.75-.15-3.6.25-.65.95-1.1 1.5-.9 3.9.1l5.15 2q5.55 2.3 7.8 3.65 0-.3.1-.6.2-.65.9-.7l-10.65-4.4q-2.7-1.1-3.5-2.9-.55-1.2-.1-2.5.15-.55.3-.85.65-1.6 2.35-1.6 1.1-.05 3.95.8 6.75 1.9 9.55 2.85l1 .4q-.3-.45-.2-.85l.35-.45q-2.85-.95-7.35-2.25-7.9-2.3-6.9-5.65.8-2.6 2.55-3.45 1.45-.7 3.25-.6-.15-.1-.2-.25l.05-.4z"/><path id="c" fill="#7A4C32" d="M72.3 44.9l-3.05-.4q-.6 4.1-3.6 8.65-6 9.1-17.95 11.35l-1.15.4q-1.1.55-.8 1.4l.55.6q.95.45 3.2-.1 4.6-.75 9.75-3.9 10.35-6.2 13.05-18z"/></defs><use xlink:href="#a"/><use xlink:href="#b"/><use transform="scale(.5625)" xlink:href="#c"/></svg>