<svg xmlns="http://www.w3.org/2000/svg" xmlns:xlink="http://www.w3.org/1999/xlink" preserveAspectRatio="none" viewBox="0 0 72 72"><defs><path id="a" fill="#FCC21B" d="M127.2 93.45q0-27.05-8.45-47.2Q103.3 9.5 64 9.5q-39.35 0-54.8 36.75Q.75 66.4.75 93.45q0 10.4 18.5 17.75 18.55 7.35 44.75 7.35 26.15 0 44.7-7.35 18.5-7.35 18.5-17.75z"/><path id="b" fill="#2F2F2F" d="M55.15 46.15q.95-3.3-.7-4.4-1.1-.75-2.85-.6-.2.05-3 .6-5.7 1.15-12.4 1.15-6.75 0-12.4-1.15-2.8-.55-3-.6-1.75-.15-2.9.6-1.6 1.1-.65 4.4.95 3.3 3.55 6.05 2.4 2.45 5.4 4 4.55 2.4 10 2.4t10-2.4q3-1.55 5.35-4 2.65-2.75 3.6-6.05z"/><path id="c" fill="#7CB342" d="M36 47.65q-5.3 0-10.45-.8.6.7 2.3 9.75.2 1.05.4 1.95.8 2.3 1.95 3.65 1 1.2 2.3 1.6 1.45.5 3.5.5t3.5-.5q1.3-.4 2.3-1.6 1.15-1.35 1.95-3.65.2-.9.4-1.95 1.7-9.05 2.3-9.75-5.15.8-10.45.8z"/><path id="d" fill="#2F2F2F" d="M62.75 91.2q-.45.5-.45 1.15V93q-2.85.3-4.8 1.95-2.2 1.8-2.2 4.05 0 2.3 2.1 4 2.05 1.75 4.9 2.45v6.8q-1.55-.3-2.6-1.5-.65-.65-1-1.7-.35-1.4-1.8-1.4-.95 0-1.55.75-.55.75-.25 1.65.65 1.75 1.9 3 2.2 2.2 5.2 2.5v.6q0 .7.45 1.15.5.45 1.15.45.7 0 1.15-.45.45-.45.45-1.15v-.6q3.05-.3 5.1-2.2 2.3-2 2.3-4.7.15-2.05-2.25-3.8-2.45-1.75-5.05-2.2v-6.3q.95.2 1.8 1.15.6.65.9 1.45.55 1.05 1.6 1.05h.2q1.05 0 1.6-.9.55-.95.05-1.9-.5-1.15-1.5-2-2.05-1.9-4.65-2.2v-.65q0-.65-.45-1.15-.45-.45-1.15-.45-.65 0-1.15.45m-3.7 7.65q0-1 1-1.7.85-.7 2.2-1v5.8q-1.15-.35-2.2-1.2-1-1.2-1-1.9M68 107.1q1.05.65 1.05 1.6 0 1.05-1.05 2.2-1.05.9-2.5 1.2v-6.2q1.65.5 2.5 1.2z"/><path id="e" fill="#2F2F2F" d="M41.9 41.5v.8q-3.05.3-5.4 2.1-2.45 2-2.45 4.6 0 2.4 2.45 4.5 2.1 1.95 5.5 2.7v7.7q-1.6-.3-2.95-1.7-.85-1-1.05-2-.25-.7-.75-1.15-.6-.45-1.25-.45-1.1 0-1.7.85-.65.85-.3 1.85.75 2.2 2.2 3.4 2.25 2.35 5.9 2.8v.7q0 .75.55 1.3.5.5 1.25.5t1.3-.5q.5-.55.5-1.3v-.7q3.55-.5 5.8-2.4 2.5-2.2 2.5-5.3-.4-2.4-2.75-4.2-2.1-1.7-5.75-2.5V46q1.05.4 2 1.3.65.85 1.05 1.6.5 1.2 1.8 1.2h.2q1.2 0 1.8-1 .65-1.05.15-2.1-.9-1.5-1.75-2.2-2.05-2.05-5.25-2.5v-.8q0-.75-.5-1.25-.55-.5-1.3-.5t-1.25.5q-.55.5-.55 1.25m-3.5 7.45q0-1.15 1.1-2 1.3-.9 2.5-1.1v6.5q-1.35-.4-2.5-1.4-1.1-.9-1.1-2m9.85 9.15q1.3.9 1.3 1.9 0 1.4-1.3 2.5-.95.95-2.75 1.3v-7q1.85.55 2.75 1.3z"/><path id="f" fill="#2F2F2F" d="M85.75 42.3v-.8q0-.75-.5-1.25-.55-.5-1.3-.5t-1.25.5q-.55.5-.55 1.25v.8q-3.05.3-5.4 2.1-2.4 1.95-2.4 4.6 0 2.4 2.4 4.5 2.05 1.9 5.5 2.7v7.7q-1.65-.3-2.9-1.7-.8-.95-1.1-2-.25-.7-.75-1.15-.6-.45-1.25-.45-1.05 0-1.65.85-.65.85-.35 1.85.7 2.1 2.2 3.4 2.35 2.35 5.9 2.8v.7q0 .75.55 1.3.5.5 1.25.5t1.3-.5q.5-.55.5-1.3v-.7q3.55-.5 5.8-2.4 2.5-2.2 2.5-5.3-.15-2.25-2.7-4.2-2.15-1.7-5.8-2.5V46q1 .35 2 1.3.8 1 1.1 1.6.5 1.2 1.8 1.2h.2q1.2 0 1.8-1 .65-1.05.1-2.1-.75-1.45-1.7-2.2-2.05-2.05-5.3-2.5m2.9 15.8Q90 59.15 90 60q0 1.4-1.35 2.5-1.05 1-2.8 1.3v-7q1.9.5 2.8 1.3m-6.4-12.25v6.5q-1.35-.4-2.5-1.4-1.1-1-1.1-2 0-1.15 1.1-2 1.3-.9 2.5-1.1z"/></defs><use transform="scale(.5625)" xlink:href="#a"/><use xlink:href="#b"/><use xlink:href="#c"/><use transform="matrix(.56096 0 0 .56073 .15 -2.55)" xlink:href="#d"/><use transform="matrix(.56096 0 0 .56073 .1 -.6)" xlink:href="#e"/><g transform="matrix(.56096 0 0 .56073 .1 -.6)"><use xlink:href="#f"/></g></svg>