<svg xmlns="http://www.w3.org/2000/svg" xmlns:xlink="http://www.w3.org/1999/xlink" preserveAspectRatio="none" viewBox="0 0 72 72"><defs><path id="a" fill="#FADCBC" d="M60.6 36.55q-2.5-2.6-5.85-5.45-3.4-3-6.25-4.95-5.5-3.85-7.45-5.1-4.7-2.9-8-3.95-3.65-1.1-6.4-1.05-2.45.1-6.2 1.3-1.45.45-5.35-1.1-3.95-1.55-6.3-.8Q5.95 16.5 3.3 21 1 24.85.8 27.4q-.4 4 7.15 9.55 3.35 2.45 12 7.4 1.7 1 8.5 5.45 5.7 3.7 8.65 5.15 2.55 1.2 4.1 1.45 2.3.4 3.5-.75 1.15-1.15 1.2-2 0-.2.1-.25.15-.1.3-.05 1.5.55 2.5.5 1 0 1.95-.7.9-.65 1.25-1.7.35-1 .05-2.1 0-.15.1-.25t.2-.05q2.7.95 4.7-.8.8-.7 1.05-1.8.3-1.2-.15-2.55-.05-.15.05-.3.1-.1.2-.1 1.5.05 2.6-.5t1.45-1.65q.85-2.25-1.65-4.8z"/><path id="b" fill="#DBA689" d="M58.2 34.2q.55.8.65 1.9.1 1.45-.65 2.55-.65.95-1.85 1.4-1.3.55-1.35.55-.1.1-.35 1.4-.25 1.25-1.2 2.1-1.05.9-2.6 1.05-1.55.1-1.65.2 0 .05-.4 1.35-.4 1.25-1.65 2.15-1.35.9-2.95 1.05l-1.55.15q-.1.05-.4 1-.3.95-1.55 2.05-1.35 1.15-4.3.15-3.05-1.3-3.65-1.55-.25-.05-.8.25l-.05.05q3.2 1.95 5.2 2.9 2.5 1.25 4.1 1.5 2.25.4 3.5-.8 1.15-1.1 1.2-1.95 0-.2.1-.3.15-.05.3 0 1.5.55 2.5.5 1-.05 1.95-.7.9-.7 1.25-1.7t.05-2.1q-.05-.15.1-.3.05-.05.2 0 2.7.9 4.7-.8.75-.7 1.05-1.8.3-1.25-.15-2.55-.05-.15.05-.3.05-.1.2-.1 1.45.05 2.55-.5 1.1-.55 1.5-1.65.85-2.25-1.65-4.8-1.1-1.15-2.4-2.35z"/><path id="c" fill="#DBA689" d="M118.25 37.4q-2.85-3.4-7.15-5.3-4.55-2-8.35-1.1-4.05 1.2-6.7 1.9-4.85 1.25-7.55 1.2-7.05-.2-11.45-.9-4.3-.65-11.6 1.65-7.4 2.35-14.05 6.65-3.8 2.55-5.65 5.6-1.55 2.5.15 5.5 1.7 3.05 5.3 3.5 3.75.45 9.75-3.1 9.15-5.4 10.35-5.9 2.75-1.15 3.3-1.35 2.05-.7 3.9-.55 2.3.2 10.8 6.95 8.35 6.5 16.75 14.6 8.8-5.8 9.85-6.6 6.7-5.2 8.5-10.05 1.2-3.25-1.3-7-3.45-4-4.85-5.7z"/><path id="e" fill="#DBA689" d="M67.05 88.35q-.15 2.75-.55 3.75-.3.8-.9 2.55-.6 1.45-1.25 2.2l1.7.85q2.1-2.95 2.75-4.35.65-1.5.65-3.4 0-1.8-1.15-3.15l-1.15-1.05-.1 2.6z"/><path id="f" fill="#DBA689" d="M33.75 70.4q.65 1.7.25 2.7-.3.8-.85 2.35-.5 1.35-1.2 2.05l.25-.15q.35-.15.65.05.5.3.2.85l1.55-1.75q1.3-1.65.55-4.55-.35-1.3-1.3-2.3l-.85-.8.75 1.55z"/><path id="g" fill="#DBA689" d="M45.9 74.2l-1.1-1.1.1 2.65q.05 2.8-.35 3.8-.3.8-.85 2.4-.55 1.3-1.2 2.05l.35-.15q.45-.1.75.1.5.25.25 1.05l2.2-2.6q1.4-1.75 1.1-5.15Q47 75.6 45.9 74.2z"/><path id="h" fill="#DBA689" d="M58.3 77.9l-1.15 3.85q-1.25 4-1.65 5-.3.8-.85 2.4-.5 1.3-1.15 2.05l.35-.15q.45-.1.75.05.5.3.2 1.1l2.7-3.15q2.8-3.6 2.8-7.15 0-1.8-1-3.05l-1-.95z"/><path id="i" fill="#DBA689" d="M56 93.5q-.95 2.85 1.2 4.9 2.2 2.15 4.95 1.05 2.15-.9 5.25-4.1 6.7-7 2.95-10.65-2-1.9-5-.7-2.6 1-5.55 4.1-3 3.2-3.8 5.4z"/><path id="k" fill="#DBA689" d="M50 94.85q2.7-1.05 6.7-5.65 4.4-5.05 5.35-7.6 1.2-3-1.1-5.2-2.35-2.2-5.5-1-3.05 1.2-7.15 5.8-3.8 4.3-4.8 6.7-1.4 3.35 1 5.65 2.6 2.45 5.5 1.3z"/><path id="m" fill="#DBA689" d="M33.2 86.8q2.3 2.25 5.3 1 2.3-.95 5.7-4.45 3.7-3.85 4.6-6.5.95-2.9-1.25-5-2.15-2.1-5.3-.9-2.85 1.1-6.05 4.75-3.3 3.7-4.15 5.95-1.15 3 1.15 5.15z"/><path id="o" fill="#DBA689" d="M30.4 66.15q-2.35.8-4.95 3.5-2.65 2.75-3.25 4.8-.7 2.6 1.55 4.75t4.8 1.35q1.95-.65 4.7-3.45 5.85-6.2 2-9.9-2.05-1.95-4.85-1.05z"/><path id="q" fill="#FADCBC" d="M67.6 19.7q-1.65-2-4.15-3.1-2.65-1.2-4.9-.65-2.35.7-3.85 1.1-2.85.7-4.45.65-4.1-.1-6.65-.5-2.4-.4-6.75.95-4.2 1.3-8.15 3.85-2.25 1.5-3.3 3.3-.9 1.45.1 3.2 1 1.75 3.1 2 2.15.3 5.65-1.75 5.35-3.2 6.05-3.45 1.6-.7 1.9-.8 1.2-.35 2.25-.3 1.35.1 6.3 4.05 4.85 3.8 9.75 8.5 5.4-3.6 5.7-3.85 3.9-3.05 4.95-5.85.75-1.9-.75-4.05-2-2.35-2.8-3.3z"/><path id="r" fill="#FADCBC" d="M57.2 89.4q-3 3.1-3.75 5.3-1 2.75 1.15 4.8 2.15 2.1 4.9 1 2.1-.8 5.15-3.95 6.65-6.9 2.85-10.5-1.95-1.9-4.9-.7-2.5 1-5.4 4.05z"/><path id="s" fill="#FADCBC" d="M47.55 96.05q2.65-1.05 6.6-5.55 4.3-4.95 5.25-7.45 1.15-3-1.1-5.15-2.3-2.2-5.35-1-3.05 1.2-7.05 5.7-3.75 4.2-4.75 6.6-1.35 3.35 1 5.55 2.5 2.45 5.4 1.3z"/><path id="t" fill="#FADCBC" d="M31 88.1q2.3 2.2 5.2 1 2.3-.95 5.6-4.4 3.7-3.8 4.55-6.35.95-2.85-1.25-4.95-2.1-2.05-5.2-.85-2.8 1.05-5.95 4.65-3.25 3.65-4.05 5.85Q28.8 86 31 88.1z"/><path id="u" fill="#FADCBC" d="M28.3 67.8q-2.35.8-4.9 3.45-2.6 2.7-3.2 4.75-.7 2.55 1.5 4.65 2.2 2.15 4.75 1.3 1.95-.65 4.6-3.4 5.8-6.05 1.95-9.7-2-1.9-4.7-1.05z"/><path id="d" fill="none" stroke="#DBA689" stroke-linecap="butt" stroke-linejoin="miter" stroke-miterlimit="10" stroke-width="2" d="M59.65 37.55q4.95-3.25 5.55-3.7 3.75-2.95 4.8-5.65.65-1.85-.75-3.95-1.95-2.25-2.75-3.2-1.6-1.9-4-3-2.55-1.1-4.7-.6-2.3.65-3.75 1.05-2.75.7-4.25.7-4-.15-6.45-.5-2.45-.4-6.55.9-4.15 1.35-7.9 3.75-2.1 1.45-3.15 3.15-.9 1.4.05 3.1 1 1.7 3 1.95 2.1.25 5.5-1.75 5.15-3 5.8-3.3 1.55-.65 1.85-.75 1.15-.4 2.2-.3 1.3.1 6.1 3.9 4.7 3.65 9.4 8.2z"/><path id="j" fill="none" stroke="#DBA689" stroke-linecap="butt" stroke-linejoin="miter" stroke-miterlimit="10" stroke-width="2" d="M37.913 53.634q-1.744 1.8-2.954 2.307-1.547.618-2.784-.591-1.21-1.153-.675-2.756.45-1.238 2.137-3.038 1.66-1.743 3.122-2.306 1.688-.675 2.813.394 2.11 2.053-1.66 5.99z"/><path id="l" fill="none" stroke="#DBA689" stroke-linecap="butt" stroke-linejoin="miter" stroke-miterlimit="10" stroke-width="2" d="M31.894 50.175q-2.25 2.587-3.769 3.178-1.631.647-3.094-.731-1.35-1.294-.562-3.178.562-1.35 2.7-3.769 2.306-2.587 4.022-3.262 1.771-.675 3.093.562 1.294 1.237.62 2.925-.535 1.434-3.01 4.275z"/><path id="n" fill="none" stroke="#DBA689" stroke-linecap="butt" stroke-linejoin="miter" stroke-miterlimit="10" stroke-width="2" d="M24.863 46.884q-1.913 1.97-3.207 2.503-1.687.704-2.981-.562-1.294-1.21-.647-2.897.478-1.265 2.335-3.347 1.8-2.053 3.403-2.672 1.771-.675 2.98.507 1.238 1.18.704 2.812-.506 1.49-2.587 3.656z"/><path id="p" fill="none" stroke="#DBA689" stroke-linecap="butt" stroke-linejoin="miter" stroke-miterlimit="10" stroke-width="2" d="M18.703 43.369q-1.547 1.575-2.644 1.94-1.434.45-2.7-.759-1.265-1.21-.872-2.672.338-1.153 1.829-2.7 1.462-1.519 2.784-1.969 1.575-.506 2.728.591 2.166 2.081-1.125 5.569z"/></defs><use xlink:href="#a"/><use xlink:href="#b"/><use transform="scale(.5625)" xlink:href="#c"/><use xlink:href="#d"/><use transform="scale(.5625)" xlink:href="#e"/><use transform="scale(.5625)" xlink:href="#f"/><use transform="scale(.5625)" xlink:href="#g"/><use transform="scale(.5625)" xlink:href="#h"/><use transform="scale(.5625)" xlink:href="#i"/><use xlink:href="#j"/><use transform="scale(.5625)" xlink:href="#k"/><use xlink:href="#l"/><use transform="scale(.5625)" xlink:href="#m"/><use xlink:href="#n"/><use transform="scale(.5625)" xlink:href="#o"/><use xlink:href="#p"/><use xlink:href="#q"/><use transform="scale(.5625)" xlink:href="#r"/><use transform="scale(.5625)" xlink:href="#s"/><use transform="scale(.5625)" xlink:href="#t"/><use transform="scale(.5625)" xlink:href="#u"/></svg>