
<svg xmlns="http://www.w3.org/2000/svg" version="1.1" xmlns:xlink="http://www.w3.org/1999/xlink" preserveAspectRatio="none" x="0px" y="0px" width="72px" height="72px" viewBox="0 0 72 72">
<defs>
<g id="Layer0_0_FILL">
<path fill="#FADCBC" stroke="none" d="
M 101.65 20.75
Q 95.8 21.25 94.35 21.3 86.05 21.6 74.75 23.2 69.3 23.95 55.25 26.3 42.7 28.4 30.15 31.85 16.85 35.45 13.65 37.95 7.8 42.4 6.5 51.3 5.85 55.45 6 60.6 6.05 63.95 6.6 69.9 7.55 80.85 9.25 87.4 10.9 94.1 15.65 95.35 18.5 96.15 23.55 95.15 26.5 94.6 31.25 93.1 29.9 97.55 33.75 102.9 37.45 108.05 40.75 107.6 48.25 106.55 55.8 102.75 60.15 100.55 68.05 95.65 73.05 92.75 77.45 88.15 81.05 84.45 84.95 78.7 85.3 77.9 89.75 74.05 94.25 70.05 95.9 69.2 97.65 68.25 101.8 67.45 105.7 66.7 108.35 66.75 116.35 66.15 119.8 57.45 122 51.8 122 43.95 121.9 33.4 119.15 26.5 116.9 20.9 108.9 20.5 106.25 20.35 101.65 20.75 Z"/>
</g>

<g id="Layer0_1_FILL">
<path fill="#DBA689" stroke="none" d="
M 27.65 69.4
Q 31.2 66.4 31.9 65.85 35.25 63.3 36.95 62.2 40.45 60.05 45 58.35 46.95 57.6 49.3 58 52.05 58.4 53.15 60.35 53.5 61.05 54.4 61.15 55.25 61.25 55.95 60.7 56.6 60.2 56.7 59.4 56.8 58.55 56.3 57.9 54.4 55.4 50.7 54.55 47.25 53.8 44.35 54.85 38.8 56.95 33.2 61.1 28.45 64.65 26.2 67.6 25.45 68.6 25.05 69.5 24.45 70.85 25.05 71.25 25.25 71.45 27.65 69.4 Z"/>
</g>

<g id="Layer0_2_FILL">
<path fill="#DBA689" stroke="none" d="
M 39.8 81.65
Q 39.2 82.15 33 86.15 26.6 90.8 23.8 95.1 29.5 93.85 31.25 93.1 32.1 91.55 33.95 90.2 34.45 89.8 38 87.6 40.15 86.3 42.15 84.9 54.2 76.2 56.5 69.8 57.95 65.7 57.45 61.85 56.95 58 54.6 54.9 52.05 51.55 47.8 49.6 43.75 47.7 41.3 48.45 39.9 48.85 40.3 49.2 40.45 49.35 42.6 50.25 48.15 52.55 51.4 56.7 52.9 58.6 53.4 61.4 54.05 64.85 52.75 68.45 50.9 73.7 39.8 81.65 Z"/>
</g>
</defs>

<g id="Layer_1">
<g transform="matrix( 0.5625, 0, 0, 0.5625, 0,0) ">
<use xlink:href="#Layer0_0_FILL"/>
</g>

<g transform="matrix( 0.5625, 0, 0, 0.5625, 0,0) ">
<use xlink:href="#Layer0_1_FILL"/>
</g>

<g transform="matrix( 0.5625, 0, 0, 0.5625, 0,0) ">
<use xlink:href="#Layer0_2_FILL"/>
</g>
</g>
</svg>
