
<svg xmlns="http://www.w3.org/2000/svg" version="1.1" xmlns:xlink="http://www.w3.org/1999/xlink" preserveAspectRatio="none" x="0px" y="0px" width="72px" height="72px" viewBox="0 0 72 72">
<defs>
<g id="Layer0_0_MEMBER_0_MEMBER_0_FILL">
<path fill="#FADCBC" stroke="none" d="
M 64.35 7.1
Q 65.1 3.55 62.3 2.15 59.5 0.75 56.25 3.15 54.3 4.75 53.2 5.6 51.15 7.2 49.4 8.1 46.8 9.5 40.45 8.65 33.95 7.8 31.7 8.8 26.65 11 23.45 10.65 21.75 10.4 20.85 10.25 19.2 10 17.6 10.15 15.25 10.35 13 14.9 11.75 17.35 10.3 21.25 8.1 25.95 7.65 28.25 7 31.6 8.95 33.1 12.6 35.9 13.8 37.05 16 39.2 16.5 41.1 17.65 45.6 22.75 48.5 25.6 50.1 31.6 52.35 37.15 54.95 41.55 59.55 42.6 60.7 48.3 67.85 49.5 69.3 50.9 70.05 52.6 70.95 53.9 70.05 55.15 69.2 55.25 67.4 55.4 65.65 54.4 64.2 53 62.2 48.95 56.8 45.3 51.95 44.8 51.1 44.05 49.9 42.4 48.95 40.4 48.05 39.5 47.6 38.6 47.1 37.55 46.6
L 38.4 46
Q 40.55 47.2 43.35 48.55 46.15 49.85 47.15 50.2 48.75 50.75 50.25 50.5 52.1 50.1 52.9 48.4 53.6 46.8 52.9 45.25 52.15 43.65 50.05 42.6
L 45.85 40.6 46.05 40.45 46.45 40
Q 47.75 40.55 50.2 41.35 52.2 42.1 52.6 42.3 54.55 43.3 56.35 42.6 58.1 41.9 58.65 39.9 59.3 37.75 58.05 36.05 56.9 34.45 54.5 33.7 54.15 33.65 52.55 32.95 50.95 32.3 50.35 32.1
L 51.65 31.55
Q 52.8 31.85 55.3 32.75 59.5 34.05 60.65 30 61.3 27.8 59.9 26.45 59.2 25.75 56.55 24.35 54.95 23.5 52.5 22.55 49.15 21.2 47.1 20.9 46.9 20.65 46.85 20.5 46.75 20.3 47.05 20.2 47.45 20.1 49.3 19.95 51.35 19.65 53.05 19.15 58.45 17.45 61.7 12.65 63.85 9.5 64.35 7.1 Z"/>
</g>

<g id="Layer0_0_MEMBER_0_MEMBER_1_FILL">
<path fill="#DBA689" stroke="none" d="
M 47.05 20.2
Q 44.25 19.4 42.1 20.2 39.85 21 39.05 23.2 37.95 26.25 39.3 27.85 38.9 27.9 38.35 28.25 37.3 29.05 36.55 30.75 35.85 32.5 36.35 34.2 36.65 35.1 37.1 35.7 35.95 35.15 34.3 35.6 32.35 36.05 31.6 37.8 30.95 39.3 31.1 40.9 31.25 42.35 32 43.2 33.15 44.25 33.55 44.55 34.6 45.35 36.85 46.35
L 37.9 46.85
Q 38.1 46.9 39.65 47.65 41.35 48.5 42.25 49.05 43.7 49.9 44.9 51.2 45 50.5 45.15 50.3 45.35 49.95 45.65 49.8 45.898046875 49.70078125 46 49.75
L 42.35 47.85
Q 35.6 44.4 35.05 43.9 34.45 43.4 33.95 42.55 33 40.8 33.8 38.95 34.05 38.3 34.75 37.85 36.25 36.95 38.65 37.95
L 43.8 39.95
Q 49.35 42.25 51.6 43.6 51.6 43.3 51.7 43 51.9 42.35 52.6 42.3
L 41.95 37.9
Q 39.25 36.8 38.45 35 37.9 33.8 38.35 32.5 38.5 31.95 38.65 31.65 39.3 30.05 41 30.05 42.1 30 44.95 30.85 51.7 32.75 54.5 33.7
L 55.5 34.1
Q 55.2 33.65 55.3 33.25
L 55.65 32.8
Q 52.8 31.85 48.3 30.55 40.4 28.25 41.4 24.9 42.2 22.3 43.95 21.45 45.4 20.75 47.2 20.85 47.05 20.75 47 20.6
L 47.05 20.2 Z"/>
</g>

<g id="Layer0_0_MEMBER_0_MEMBER_2_FILL">
<path fill="#DBA689" stroke="none" d="
M 72.3 44.9
L 69.25 44.5
Q 68.65 48.6 65.65 53.15 59.65 62.25 47.7 64.5
L 46.55 64.9
Q 45.45 65.45 45.75 66.3
L 46.3 66.9
Q 47.25 67.35 49.5 66.8 54.1 66.05 59.25 62.9 69.6 56.7 72.3 44.9 Z"/>
</g>
</defs>

<g id="Layer_1">
<g transform="matrix( 1, 0, 0, 1, 0,0) ">
<use xlink:href="#Layer0_0_MEMBER_0_MEMBER_0_FILL"/>
</g>

<g transform="matrix( 1, 0, 0, 1, 0,0) ">
<use xlink:href="#Layer0_0_MEMBER_0_MEMBER_1_FILL"/>
</g>

<g transform="matrix( 0.5625, 0, 0, 0.5625, 0,0) ">
<use xlink:href="#Layer0_0_MEMBER_0_MEMBER_2_FILL"/>
</g>
</g>
</svg>
