
<svg xmlns="http://www.w3.org/2000/svg" version="1.1" xmlns:xlink="http://www.w3.org/1999/xlink" preserveAspectRatio="none" x="0px" y="0px" width="72px" height="72px" viewBox="0 0 72 72">
<defs>
<g id="Layer0_0_FILL">
<path fill="#8E726A" stroke="none" d="
M 114.3 37.9
Q 111.1 35.45 97.8 31.8 85.2 28.4 72.7 26.3 58.65 23.95 53.2 23.2 41.9 21.6 33.6 21.3 23.65 20.25 19.05 20.5 11.05 20.9 8.8 26.5 6.05 33.4 5.95 43.95 5.95 51.8 8.15 57.45 11.6 66.15 19.6 66.75 22.25 66.7 26.15 67.45 30.3 68.25 32.1 69.2 33.75 70.05 38.25 74.05 42.65 77.9 43 78.7 46.9 84.45 50.5 88.15 54.9 92.75 59.9 95.65 63.9 97.95 72.2 102.75 79.75 106.55 87.2 107.6 90.5 108.05 94.2 102.9 98.05 97.55 96.7 93.1 107.85 96.6 112.3 95.35 114.95 94.6 116.6 92.35 117.95 90.5 118.75 87.4 120.45 80.75 121.35 69.9 121.9 63.95 121.95 60.6 122.1 55.45 121.5 51.3 120.15 42.4 114.3 37.9 Z"/>
</g>

<g id="Layer0_1_FILL">
<path fill="#563E37" stroke="none" d="
M 96.05 65.85
Q 96.75 66.4 100.3 69.4 102.7 71.45 102.9 71.25 103.95 70.5 101.75 67.6 99.5 64.65 94.75 61.1 89.15 56.95 83.6 54.85 80.75 53.8 77.25 54.55 73.55 55.4 71.65 57.9 71.15 58.55 71.25 59.4 71.35 60.2 72 60.7 72.7 61.25 73.55 61.15 74.45 61.05 74.8 60.35 75.9 58.4 78.7 58 81 57.6 83 58.35 87.55 60.05 91 62.2 92.7 63.3 96.05 65.85 Z"/>
</g>

<g id="Layer0_2_FILL">
<path fill="#563E37" stroke="none" d="
M 87.65 49.2
Q 88.05 48.85 86.65 48.45 84.2 47.7 80.15 49.6 75.9 51.55 73.35 54.9 71 58 70.5 61.85 70 65.7 71.45 69.8 73.7 76.15 85.8 84.9 87.8 86.3 89.95 87.6 93.5 89.8 94 90.2 95.85 91.55 96.7 93.1 98.45 93.85 104.15 95.1 101.35 90.8 94.95 86.15 88.8 82.15 88.15 81.65 77.05 73.7 75.2 68.45 73.9 64.85 74.55 61.4 75.05 58.6 76.55 56.7 79.8 52.55 85.35 50.25 87.5 49.35 87.65 49.2 Z"/>
</g>
</defs>

<g id="Layer_1">
<g transform="matrix( 0.5625, 0, 0, 0.5625, 0,0) ">
<use xlink:href="#Layer0_0_FILL"/>
</g>

<g transform="matrix( 0.5625, 0, 0, 0.5625, 0,0) ">
<use xlink:href="#Layer0_1_FILL"/>
</g>

<g transform="matrix( 0.5625, 0, 0, 0.5625, 0,0) ">
<use xlink:href="#Layer0_2_FILL"/>
</g>
</g>
</svg>
