<svg xmlns="http://www.w3.org/2000/svg" xmlns:xlink="http://www.w3.org/1999/xlink" preserveAspectRatio="none" viewBox="0 0 72 72"><defs><path id="a" fill="#FCC21B" d="M36 5.6q-22.2 0-30.95 20.5Q.25 37.35.25 52.45q0 5.8 10.45 9.9 10.5 4.1 25.3 4.1t25.25-4.1q10.45-4.1 10.45-9.9 0-15.1-4.8-26.35Q58.2 5.6 36 5.6z"/><path id="b" fill="#2F2F2F" d="M36.85 38.65q-6.9 0-11.8 3.5-5 3.65-6.05 9.55-.4 1.9.55 3.25 1.35 1.8 6.3.75 7.9-1.65 11.35-1.65 3.5 0 10.2 1.1 3.9.7 5.1-.6.95-1.1.75-2.85-.7-5.85-4.85-9.35-4.45-3.7-11.55-3.7z"/><path id="c" fill="#62B342" d="M36.7 42.55q-5.498-.004-9 1.7-3.457 1.712-4.3 5.55l-.45 11.45q-1.475.242-2.85.5-6.6 1.4-6.6 3.35 0 1.95 6.6 3.3 6.65 1.4 16.05 1.4 9.35 0 16-1.4 6.65-1.35 6.65-3.3 0-1.95-6.65-3.35-.55-.1-1.15-.2-.248-.047-.5-.1L50 49.8q-.064-2.985-3.9-5.1-3.9-2.15-9.4-2.15z"/><path id="d" fill="#B4BF43" d="M25.6 54.35q.95.95 2.3.95 1.35 0 2.25-.95.95-.9.95-2.25t-.95-2.3q-.9-.9-2.25-.9t-2.3.9q-.9.95-.9 2.3 0 1.35.9 2.25M53.05 65.4q.3-.25.3-.6t-.3-.65q-.25-.25-.6-.25t-.65.25q-.25.3-.25.65 0 .35.25.6.3.3.65.3.35 0 .6-.3m-7.8-10.1q-.5 0-.85.3-.3.35-.3.85t.3.8q.35.35.85.35t.8-.35q.35-.3.35-.8t-.35-.85q-.3-.3-.8-.3m2.15 6q-.55 0-.95.4-.4.4-.4.95 0 .55.4.95.4.4.95.4.55 0 .95-.4.4-.4.4-.95 0-.55-.4-.95-.4-.4-.95-.4m-7.6-1.25q-.45.5-.45 1.2t.45 1.15q.5.5 1.2.5t1.15-.5q.5-.45.5-1.15t-.5-1.2q-.45-.45-1.15-.45t-1.2.45m5 7.05q.5-.5.5-1.2t-.5-1.2q-.5-.5-1.2-.5t-1.2.5q-.5.5-.5 1.2t.5 1.2q.5.5 1.2.5t1.2-.5m-8.95.25q.35-.3.35-.8t-.35-.85q-.3-.3-.8-.3t-.85.3q-.3.35-.3.85t.3.8q.35.35.85.35t.8-.35m-13.9-.15q.25-.2.25-.5t-.25-.55q-.2-.2-.5-.2t-.55.2q-.2.25-.2.55 0 .3.2.5.25.25.55.25.3 0 .5-.25M19.3 65q.35-.35.35-.85t-.35-.85q-.35-.35-.85-.35t-.85.35q-.35.35-.35.85t.35.85q.35.35.85.35t.85-.35m9.9-3.55q-.7-.7-1.75-.7t-1.8.7q-.7.75-.7 1.8t.7 1.75q.75.75 1.8.75T29.2 65q.75-.7.75-1.75t-.75-1.8m4.3-12.15q.25-.2.25-.55 0-.35-.25-.6-.2-.2-.55-.2-.35 0-.6.2-.2.25-.2.6t.2.55q.25.25.6.25t.55-.25m9.15-2.15q-.75.8-.75 1.9 0 1.1.75 1.85.8.8 1.9.8 1.1 0 1.85-.8.8-.75.8-1.85t-.8-1.9q-.75-.75-1.85-.75t-1.9.75M39 53.7q.5-.5.5-1.2t-.5-1.2q-.5-.5-1.2-.5t-1.2.5q-.5.5-.5 1.2t.5 1.2q.5.5 1.2.5t1.2-.5m-4.95 6.2q.6-.55.6-1.35t-.6-1.4q-.55-.55-1.35-.55t-1.4.55q-.55.6-.55 1.4 0 .8.55 1.35.6.6 1.4.6.8 0 1.35-.6z"/><path id="e" fill="#2F2F2F" d="M51.1 49.4q.45-.15.65-.6.25-.45.05-.9-.15-.45-.55-.65-.45-.25-.9-.1-1.6.55-3.45 1.45-3.75 1.75-6 3.75-.65.55-.3 1.4.4.75 1.3.6.05 0 2.9-.35 3.35-.2 5.75.4l.3.05q.95 0 1.1-.9.15-.45-.1-.85-.25-.45-.7-.55-2.25-.6-5.1-.5 2.55-1.45 5.05-2.25z"/><path id="f" fill="#2F2F2F" d="M25.05 48.6q-3.3-1.4-3.45-1.45-.45-.15-.9.1-.45.2-.6.65-.15.45.1.9.2.45.65.6.15 0 1.55.6 1.85.7 3.5 1.6-3 0-5.1.55-.45.1-.7.5-.25.4-.15.9.25.9 1.15.9l.3-.05q3.8-.95 8.65-.05.9.15 1.3-.6.4-.8-.3-1.4-2.25-2-6-3.75z"/></defs><use xlink:href="#a"/><use xlink:href="#b"/><use xlink:href="#c"/><use xlink:href="#d"/><use transform="translate(-11.45 -36.25) scale(1.32086)" xlink:href="#e"/><use transform="translate(-11.45 -36.25) scale(1.32086)" xlink:href="#f"/></svg>