<svg xmlns="http://www.w3.org/2000/svg" xmlns:xlink="http://www.w3.org/1999/xlink" preserveAspectRatio="none" viewBox="0 0 72 72"><defs><radialGradient id="a" cx="0" cy="0" r="9.65" fx="0" fy="0" gradientTransform="matrix(1 0 0 1.01166 64.7 45)" gradientUnits="userSpaceOnUse" spreadMethod="pad"><stop offset="0%" stop-color="#FF8A80"/><stop offset="100%" stop-color="#FFE6B3"/></radialGradient><path id="b" fill="#FFE6B3" d="M35.9 5.45q-22.3 0-31.05 20.6Q.05 37.3.05 52.5q0 5.85 10.55 9.95 10.45 4.15 25.3 4.15 14.9 0 25.4-4.15 10.5-4.1 10.5-9.95 0-15.2-4.8-26.45-8.75-20.6-31.1-20.6z"/><path id="c" fill="url(#a)" d="M73.8 49.4q1.75-3.8.4-7.65-1.45-3.85-5.2-5.65-3.8-1.7-7.65-.35-3.85 1.4-5.6 5.2Q54 44.7 55.4 48.6q1.45 3.85 5.2 5.6 3.75 1.7 7.55.3 3.9-1.35 5.65-5.1z"/><path id="d" fill="url(#a)" d="M73.8 49.4q1.75-3.8.4-7.65-1.45-3.85-5.2-5.65-3.8-1.7-7.65-.35-3.85 1.4-5.6 5.2Q54 44.7 55.4 48.6q1.45 3.85 5.2 5.6 3.75 1.7 7.55.3 3.9-1.35 5.65-5.1z"/><path id="e" fill="#2F2F2F" d="M47.8 44.7q-2.45-2.85-5.8-2.8-3.35.05-5.75 2.9-2.35 2.9-2.3 6.9.05 4 2.45 6.85 2.45 2.8 5.8 2.75 3.35-.05 5.7-2.9t2.35-6.85q-.05-4.05-2.45-6.85z"/><path id="f" fill="#2F2F2F" d="M45.3 32.9q1.35 1.6 3.25 1.6t3.25-1.6q1.3-1.6 1.3-3.85t-1.35-3.9q-1.35-1.6-3.25-1.55-1.85 0-3.2 1.6t-1.35 3.85q0 2.25 1.35 3.85z"/><g id="g"><path fill="#DB4437" d="M45 39.15q-1.125.105-2.25.15-2.874.175-5.75.2-1.125.008-2.25 0-2.85-.03-5.7-.2-1.125-.045-2.25-.15-2.85-.172-5.7-.5-4.074-.472-8.15-1.2-.65-.1-1.15.3-.5.45-.45 1.1.3 7.6 7.3 12.65 7 5.1 17.2 5.1H36q10.15 0 17.15-5.1 7.05-5.05 7.35-12.65.05-.6-.5-1.1-.45-.4-1.2-.3-2.924.524-5.85.9-1.125.168-2.25.3-2.85.328-5.7.5m-2.25 2.95q1.125-.045 2.25-.15 2.85-.173 5.7-.5 1.125-.129 2.25-.3 2.25-.274 4.5-.65v.05q-.313 1.584-1 3L54.2 46.8q-.58.646-1.25 1.2-1.016.909-2.25 1.7-.197.126-.4.25-1.025.638-2.1 1.15l-1.15.55q-.998.416-2.05.75-1.098.36-2.25.6-.304.095-.65.15l-3.65.5q-.713.056-1.45.05-.496.05-1 .05h-.15q-.555 0-1.1-.05-2.997-.062-5.7-.7-1.152-.242-2.25-.6-2.827-.91-5.3-2.45-.203-.124-.4-.25-1.235-.792-2.25-1.7-2.985-2.593-4.1-5.95-.245-.733-.4-1.5v-.05q2.211.37 4.4.65.061.009.1 0 1.125.174 2.25.3 2.85.327 5.7.5 1.125.105 2.25.15 2.85.169 5.7.2 1.125.008 2.25 0 2.875-.026 5.75-.2z"/><path fill="#FFF" d="M37 53.7q.737.006 1.45-.05l3.65-.5q.346-.055.65-.15V42.1q-2.875.174-5.75.2v11.4m-2.25-11.4q-2.85-.031-5.7-.2V53q2.703.638 5.7.7V42.3m-7.95-.35q-2.85-.173-5.7-.5v8.25q.197.126.4.25 2.473 1.54 5.3 2.45V41.95m-7.95-.8q-.039.009-.1 0-2.189-.28-4.4-.65v.05q.155.767.4 1.5 1.115 3.357 4.1 5.95v-6.85m31.85.3q-2.85.327-5.7.5V52.4q1.052-.334 2.05-.75l1.15-.55q1.075-.512 2.1-1.15.203-.124.4-.25v-8.25m6.75-.9v-.05q-2.25.376-4.5.65V48q.67-.554 1.25-1.2l2.25-3.25q.687-1.416 1-3z"/><path fill="#2F2F2F" d="M37 42.3q-1.125.008-2.25 0v11.4q.545.05 1.1.05H36q.504 0 1-.05V42.3m-7.95-.2q-1.125-.045-2.25-.15V52.4q1.098.358 2.25.6V42.1m-10.2-.95V48q1.015.908 2.25 1.7v-8.25q-1.125-.126-2.25-.3m34.1 0q-1.125.171-2.25.3v8.25q1.234-.791 2.25-1.7v-6.85m-7.95.8q-1.125.105-2.25.15V53q1.152-.24 2.25-.6V41.95z"/></g><path id="h" fill="#DB4437" d="M63.8 71.35q-4.05 0-6.9 2.85-2.9 2.85-2.9 6.9 0 4.05 2.9 6.95 2.85 2.85 6.9 2.85 4.05 0 6.9-2.85 2.85-2.9 2.85-6.95 0-4.05-2.85-6.9-2.85-2.85-6.9-2.85z"/><path id="i" fill="#DB4437" d="M22.15 12.25q.05-2.4-1.8-4.25-1.8-1.8-4.3-1.85-2.5 0-4.35 1.85-.55.55-.9 1.15-2.4.3-4.35 2.25-1.85 1.85-2.2 4.3-.6.35-1.15.9-1.8 1.8-1.85 4.35.05 2.5 1.85 4.3 1.85 1.85 4.25 1.8 2.55 0 4.35-1.8.65-.6 1-1.25 2.45-.35 4.25-2.15 1.85-1.85 2.1-4.2.7-.4 1.3-1.05 1.85-1.85 1.8-4.35m43.4-.85Q63.6 9.45 61.2 9.15q-.35-.6-.9-1.15-1.85-1.85-4.35-1.85-2.5.05-4.3 1.85-1.85 1.85-1.8 4.25-.05 2.5 1.8 4.35.6.65 1.3 1.05.25 2.35 2.1 4.2 1.8 1.8 4.25 2.15.35.65 1 1.25 1.8 1.8 4.35 1.8 2.4.05 4.25-1.8 1.8-1.8 1.85-4.3-.05-2.55-1.85-4.35-.55-.55-1.15-.9-.35-2.45-2.2-4.3z"/></defs><use xlink:href="#b"/><use transform="translate(-4.5 -5)" xlink:href="#c"/><use transform="translate(-53.05 -5)" xlink:href="#d"/><use transform="matrix(.5625 0 0 .6811 -.1 -8.1)" xlink:href="#e"/><use transform="matrix(1 0 0 1.21088 -.1 -8.1)" xlink:href="#f"/><use xlink:href="#g"/><g transform="matrix(.5 0 0 .5 4.1 -6.7)"><use xlink:href="#h"/></g><g><use xlink:href="#i"/></g></svg>