<svg xmlns="http://www.w3.org/2000/svg" xmlns:xlink="http://www.w3.org/1999/xlink" preserveAspectRatio="none" viewBox="0 0 72 72"><defs><path id="a" fill="#FCC21B" d="M36 5.6q-22.2 0-30.95 20.5Q.25 37.35.25 52.45q0 5.8 10.45 9.9 10.5 4.1 25.3 4.1t25.25-4.1q10.45-4.1 10.45-9.9 0-15.1-4.8-26.35Q58.2 5.6 36 5.6z"/><path id="c" fill="#2F2F2F" d="M24.05 40.1q1.9-.05 3.25-1.65 1.3-1.6 1.25-3.85-.05-2.3-1.4-3.85-1.35-1.6-3.25-1.55-1.9.05-3.2 1.65-1.35 1.65-1.3 3.9.05 2.25 1.4 3.8 1.35 1.6 3.25 1.55z"/><path id="d" fill="#2F2F2F" d="M45.3 32.9q1.35 1.6 3.25 1.6t3.25-1.6q1.3-1.6 1.3-3.85t-1.35-3.9q-1.35-1.6-3.25-1.55-1.85 0-3.2 1.6t-1.35 3.85q0 2.25 1.35 3.85z"/><path id="b" fill="none" stroke="#2F2F2F" stroke-linecap="round" stroke-linejoin="round" stroke-width="3" d="M41.4 22.5q3.578-2.775 6.85-3.575 3.272-.8 7.25 3.275m-38.95 3.25q4.1-3.75 12.3.4M26 46h20"/></defs><use xlink:href="#a"/><use xlink:href="#b"/><use transform="translate(-.75 -3.2)" xlink:href="#c"/><use transform="matrix(1 0 0 1.19531 .15 -4.35)" xlink:href="#d"/></svg>