
<svg xmlns="http://www.w3.org/2000/svg" version="1.1" xmlns:xlink="http://www.w3.org/1999/xlink" preserveAspectRatio="none" x="0px" y="0px" width="72px" height="72px" viewBox="0 0 72 72">
<defs>
<g id="Layer0_0_MEMBER_0_MEMBER_0_MEMBER_0_FILL">
<path fill="#E0BB95" stroke="none" d="
M 23.45 13.95
Q 23.95 10.8 21.3 10.25 19.3 9.9 18.35 12.7 16.85 21.05 15.85 29.7 15.3 29.65 15.3 28.75
L 16.3 16.6
Q 15.9 14.35 14.15 14 12.35 13.65 11.2 16.45 9.65 23.2 8.75 33.4 8.45 26.75 5.95 26.55 4.65 26.45 3.6 27.55 2.4 29.15 2.05 33.5 0.8 48.8 6.35 57.05 8.25 60.25 12.5 60.75 16.9 61.8 22.1 61.8 22.75 61.75 23.35 61.8 29.05 62.1 32.7 57.95 36.75 52.8 35 47.55 34.2 45.15 34.15 41.95
L 34.1 35.8
Q 34.65 29.15 35.05 25.2 35.55 19.95 33.5 19.55 31.7 19.15 30.85 23.2
L 28.7 33.4
Q 28.15 33.4 28.15 32.75 29.25 24.8 29.8 16.5 29.95 14.6 28.3 13.75 26.4 12.7 25.05 15.45 24.2 17.5 22 32.2 21.45 32.15 21.5 31.25
L 23.45 13.95 Z"/>
</g>

<g id="Layer0_0_MEMBER_0_MEMBER_0_MEMBER_1_FILL">
<path fill="#E0BB95" stroke="none" d="
M 50.65 10.25
Q 48 10.8 48.5 13.95
L 50.45 31.25
Q 50.5 32.15 49.95 32.2 47.75 17.5 46.9 15.45 45.55 12.7 43.65 13.75 42 14.6 42.15 16.5 42.7 24.8 43.8 32.75 43.8 33.4 43.25 33.4
L 41.1 23.2
Q 40.25 19.15 38.45 19.55 36.4 19.95 36.9 25.2 37.3 29.15 37.85 35.8
L 37.8 41.95
Q 37.75 45.15 36.95 47.55 35.2 52.8 39.25 57.95 42.9 62.1 48.6 61.8 49.2 61.75 49.85 61.8 55.05 61.8 59.45 60.75 63.7 60.25 65.6 57.05 71.15 48.8 69.9 33.5 69.55 29.15 68.35 27.55 67.3 26.45 66 26.55 63.5 26.75 63.2 33.4 62.3 23.2 60.75 16.45 59.6 13.65 57.8 14 56.05 14.35 55.65 16.6
L 56.65 28.75
Q 56.65 29.65 56.1 29.7 55.1 21.05 53.6 12.7 52.65 9.9 50.65 10.25 Z"/>
</g>

<path id="Layer0_0_MEMBER_0_MEMBER_0_MEMBER_0_MEMBER_0_1_STROKES" stroke="#C48E6A" stroke-width="1" stroke-linejoin="round" stroke-linecap="round" fill="none" d="
M 8.886154174804688 32.59008789062499
Q 8.237643706798554 41.63844215869903 12.694410705566405 43.34907836914062 17.1470165848732 45.05763401985168 15.863519287109376 50.11339416503906"/>

<path id="Layer0_0_MEMBER_0_MEMBER_0_MEMBER_1_MEMBER_0_1_STROKES" stroke="#C48E6A" stroke-width="1" stroke-linejoin="round" stroke-linecap="round" fill="none" d="
M 63.01384582519532 32.59008789062499
Q 63.662356293201455 41.63844215869903 59.2055892944336 43.34907836914062 54.752983415126806 45.05763401985168 56.03648071289063 50.11339416503906"/>
</defs>

<g id="Layer_1">
<g transform="matrix( 1, 0, 0, 1, 0,0) ">
<use xlink:href="#Layer0_0_MEMBER_0_MEMBER_0_MEMBER_0_FILL"/>
</g>

<g transform="matrix( 1.06524658203125, 0, 0, 1.06524658203125, -1.5,-2.35) ">
<use xlink:href="#Layer0_0_MEMBER_0_MEMBER_0_MEMBER_0_MEMBER_0_1_STROKES" transform="matrix( 0.9387359619140625, 0, 0, 0.9387359619140625, 1.4,2.2) "/>
</g>

<g transform="matrix( 1, 0, 0, 1, 0,0) ">
<use xlink:href="#Layer0_0_MEMBER_0_MEMBER_0_MEMBER_1_FILL"/>
</g>

<g transform="matrix( -1.06524658203125, 0, 0, 1.06524658203125, 73.4,-2.35) ">
<use xlink:href="#Layer0_0_MEMBER_0_MEMBER_0_MEMBER_1_MEMBER_0_1_STROKES" transform="matrix( -0.9387359619140625, 0, 0, 0.9387359619140625, 68.9,2.2) "/>
</g>
</g>
</svg>
