<svg xmlns="http://www.w3.org/2000/svg" xmlns:xlink="http://www.w3.org/1999/xlink" preserveAspectRatio="none" viewBox="0 0 72 72"><defs><path id="a" fill="#312D2D" d="M95.7 71.75l-1.5-20.1-63.95 6.3L33 79.35q3.55 23.6 7.75 34.45 2.85 7.35 5.55 9.35 3.45 2.55 8.15-1.75l28.3-3.1q5.6 3.45 9.3.15 3.4-3 3.95-10.35 1-13.55-.3-36.35z"/><path id="b" fill="#7E57C2" d="M77.85 86.25q-8.1-.2-13.85-.3V128h25.05v-7.55q5.8 7.55 11.8 7.55h2.95v-11.15q0-12.7-7.45-21.6-7.5-9-18.5-9z"/><path id="c" fill="#FADCBC" d="M102.5 73.1q1.75 3.1 5.15 2.6 2.65-.5 4.65-1.5 2-1.05 4.95-3.35 6.95-5.95 9.9-11.35.75-1.4.05-2.45-.75-1-1.65 0-2 2.7-5.55 5.85-3.25 2.8-3.4 2.5-.45-1.6-2.3-1.35-1.3.15-2.9 1.2-3.6 2.3-7.35 3.7-3.25 1.1-1.55 4.15z"/><path id="d" fill="#FADCBC" d="M109.65 71.6l-5.55-2.65q-.5.1-1.05.5-1.15.85-1.55 2.4-.25.8-.15 3.55v1.75l5.55 1.95 4.75-1.15q.25-.9.7-2 .95-2.2 2.15-3.1l-4.85-1.25z"/><path id="e" fill="#7E57C2" d="M56.25 42.2q-.25.2-.35.5l-3 23.7q-.35 2.2 1.1 3.9 1.5 1.7 3.75 1.7 2.75 0 4.65-1.95 1.95-1.95 1.85-4.7l-.1-22.2q0-.3-.25-.55-.2-.2-.5-.25L56.8 42q-.3-.05-.55.2z"/><path id="f" fill="#7E57C2" d="M63.95 85.95q-11.45.3-13.85.3-10.95 0-18.5 9-7.45 8.9-7.45 21.6V128h3q5.95 0 11.8-7.55V128h25V85.95z"/><path id="g" fill="#312D2D" d="M48.9 40.9q4.75-5.25 4.1-11.95-.65-6.7-6.35-10.9-5.75-4.2-13.2-3.5-7.45.75-12.25 6T17.05 32.5q.65 6.7 6.4 10.9 5.7 4.2 13.15 3.5 7.45-.75 12.3-6z"/><path id="h" fill="#DBA689" d="M36.25 57.45q2 0 3.45-1.45 1.4-1.45 1.4-3.5v-4.2h-9.75v4.2q0 2.05 1.4 3.5 1.45 1.45 3.5 1.45z"/><path id="i" fill="#FADCBC" d="M84.8 88.15q7.2-9.2 4.4-23.4-3.4-17.35-10.05-25-7.9-8.95-21.5-6.3-13.65 2.7-17.5 14Q36.9 57 40.3 74.4q2.85 14.2 13 19.95 7.95 4.5 16.9 2.75t14.6-8.95z"/><path id="j" fill="#312D2D" d="M82.9 59.35q4.3 1.95 7.5 2.5L85.8 38.6q-2.65-3.5-7.6-6.5-9.9-6.1-21.3-3.85Q45.45 30.5 38.6 39.7q-3.45 4.6-4.6 8.75l4.65 23.65Q49.55 67.95 59.1 59q5.5-5.15 9.2-10.45.15-.2.4-.2t.4.2q5.25 6.95 13.8 10.8z"/><path id="k" fill="#DBA689" d="M70.1 77.25q-.2-.25-.55-.05-1.85.9-3.4 1.2-1.45.3-3.55.15-.4-.05-.5.25-.1.3.1.55.5.6 1.6 1 1.45.5 2.8.25 1.35-.25 2.5-1.3.85-.8 1.1-1.55.1-.3-.1-.5z"/><path id="l" fill="#513F35" d="M71 87.6q-.2-1.1-1.2-1.55-.9-.5-2.15-.25t-1.9 1.05q-.7.8-.5 1.9.3 1.8 3.2 1.15 2.85-.55 2.55-2.3z"/><path id="m" fill="#444" d="M56.55 72.1q-.3-1.7-1.55-2.7-1.2-1-2.65-.75-1.4.3-2.15 1.7t-.4 3.1q.35 1.7 1.55 2.7 1.25 1 2.65.7 1.4-.25 2.15-1.65t.4-3.1z"/><path id="n" fill="#444" d="M73.7 65.7q-.75 1.4-.4 3.1.35 1.7 1.55 2.7 1.25 1 2.65.7 1.4-.25 2.15-1.65t.45-3.1q-.35-1.7-1.55-2.7-1.25-1-2.65-.75-1.4.3-2.2 1.7z"/><path id="o" fill="#FADCBC" d="M25.45 73.1q1.7-3.05-1.55-4.15-3.75-1.4-7.35-3.7-1.6-1.05-2.9-1.2-1.85-.25-2.3 1.35-.15.3-3.4-2.5-3.55-3.15-5.55-5.85-.9-1-1.6 0-.75 1 0 2.45 2.95 5.4 9.95 11.35 2.85 2.3 4.9 3.35 1.95.95 4.65 1.5 3.45.5 5.15-2.6z"/><path id="p" fill="#FADCBC" d="M24.9 69.45l-1.05-.5-5.5 2.65-4.9 1.25q1.95 1.45 2.85 5.1l4.8 1.15 5.5-1.95V75.4q.1-2.75-.15-3.55-.4-1.55-1.55-2.4z"/><path id="q" fill="#7E57C2" d="M16 42.7q-.05-.3-.3-.5-.25-.25-.55-.2l-6.65.35q-.3.05-.5.25-.2.25-.2.55l-.2 22.2q0 2.75 1.9 4.7Q11.4 72 14.15 72q2.25 0 3.75-1.7t1.15-3.95L16 42.7z"/></defs><use transform="scale(.5625)" xlink:href="#a"/><use transform="translate(-.05) scale(.5625)" xlink:href="#b"/><use transform="matrix(.56245 0 0 .56245 -.05 0)" xlink:href="#c"/><use transform="matrix(.56245 0 0 .56245 -.05 0)" xlink:href="#d"/><use xlink:href="#e"/><use transform="translate(.05) scale(.5625)" xlink:href="#f"/><use xlink:href="#g"/><use xlink:href="#h"/><use transform="scale(.5625)" xlink:href="#i"/><use transform="scale(.5625)" xlink:href="#j"/><use transform="scale(.5625)" xlink:href="#k"/><use transform="scale(.5625)" xlink:href="#l"/><use transform="scale(.5625)" xlink:href="#m"/><use transform="scale(.5625)" xlink:href="#n"/><use transform="rotate(.11) scale(.56244)" xlink:href="#o"/><use transform="rotate(.11) scale(.56244)" xlink:href="#p"/><use xlink:href="#q"/></svg>