<svg xmlns="http://www.w3.org/2000/svg" xmlns:xlink="http://www.w3.org/1999/xlink" preserveAspectRatio="none" viewBox="0 0 72 72"><defs><path id="a" fill="#00ACC1" d="M58.35 72v-6.25q0-7.15-4.2-12.15-4.2-5.1-10.4-5.1-4.55-.1-7.8-.15V72h14.1v-4.25Q53.3 72 56.7 72h1.65z"/><path id="b" fill="#AD6F43" d="M102.5 73.1q1.75 3.1 5.15 2.6 2.65-.5 4.65-1.5 2-1.05 4.95-3.35 6.95-5.95 9.9-11.35.75-1.4.05-2.45-.75-1-1.65 0-2 2.7-5.55 5.85-3.25 2.8-3.4 2.5-.45-1.6-2.3-1.35-1.3.15-2.9 1.2-3.6 2.3-7.35 3.7-3.25 1.1-1.55 4.15z"/><path id="c" fill="#AD6F43" d="M109.65 71.6l-5.55-2.65q-.5.1-1.05.5-1.15.85-1.55 2.4-.25.8-.15 3.55v1.75l5.55 1.95 4.75-1.15q.25-.9.7-2 .95-2.2 2.15-3.1l-4.85-1.25z"/><path id="d" fill="#00ACC1" d="M100.05 75q-.45.35-.55.9L94.1 118q-.6 3.95 2 7 2.65 3 6.65 3 4.9 0 8.3-3.45 3.4-3.5 3.3-8.4l-.25-39.45q0-.55-.4-.95-.35-.4-.9-.45l-11.75-.65q-.55-.05-1 .35z"/><path id="e" fill="#020202" fill-opacity=".537" d="M53.2 52.5l-1.05 7.6 1.35 1.6 1.05-7.65-1.35-1.55z"/><path id="f" fill="#00ACC1" d="M36 48.35q-6.4.15-7.75.15-6.2 0-10.4 5.1-4.2 5-4.2 12.15V72h1.65q3.35 0 6.65-4.25V72H36V48.35z"/><path id="g" fill="#7A4C32" d="M36.25 57.45q2 0 3.45-1.45 1.4-1.45 1.4-3.5v-4.2h-9.75v4.2q0 2.05 1.4 3.5 1.45 1.45 3.5 1.45z"/><path id="h" fill="#AD6F43" d="M25.45 73.1q1.7-3.05-1.55-4.15-3.75-1.4-7.35-3.7-1.6-1.05-2.9-1.2-1.85-.25-2.3 1.35-.15.3-3.4-2.5-3.55-3.15-5.55-5.85-.9-1-1.6 0-.75 1 0 2.45 2.95 5.4 9.95 11.35 2.85 2.3 4.9 3.35 1.95.95 4.65 1.5 3.45.5 5.15-2.6z"/><path id="i" fill="#AD6F43" d="M24.9 69.45l-1.05-.5-5.5 2.65-4.9 1.25q1.95 1.45 2.85 5.1l4.8 1.15 5.5-1.95V75.4q.1-2.75-.15-3.55-.4-1.55-1.55-2.4z"/><path id="j" fill="#00ACC1" d="M16 42.7q0-.3-.3-.5-.25-.25-.55-.2l-6.65.35q-.3.05-.5.25-.2.25-.2.55l-.2 22.2q0 2.75 1.9 4.7Q11.4 72 14.2 72q2.25 0 3.7-1.7 1.5-1.7 1.15-3.9L16 42.7z"/><path id="k" fill="#020202" fill-opacity=".537" d="M19.75 60.1l-1.05-7.6-1.35 1.55 1.05 7.65 1.35-1.6z"/><path id="l" fill="#7A4C32" d="M106.9 66.05h-3.6v20.3q4.75 0 7.85-2.4 3.6-2.8 3.6-8.05 0-5.3-3.9-8.1l-3.95-1.75z"/><path id="m" fill="#7A4C32" d="M24.7 66.05h-3.65l-3.9 1.75q-3.95 2.8-3.95 8.1 0 5.25 3.6 8.05 3.1 2.4 7.9 2.4v-20.3z"/><path id="n" fill="#AD6F43" d="M106.75 73.8q0-30.45-8.65-45.45Q87.85 10.6 64 10.6q-23.9 0-34.15 17.75-8.65 15-8.65 45.45 0 25.9 14.6 38.45Q47.05 122 64 122q16.8 0 28.1-9.65 14.65-12.55 14.65-38.55z"/><path id="o" fill="#47352D" d="M63.35 24.5v-.8q-.4-6.25-5.65-10.85-7.2-6.3-21.15-6.5H35.5q-13.95.2-21.1 6.5-5.3 4.6-5.65 10.85-.05.4-.05.8v14.55q.35-.3.95-.75.4-.35.95-.6l.4-.2 1.05 6.95Q17.8 35.5 19.4 25.7q4.55 3 8.3 4.25 3.75 1.25 7.8 1.2h1.05q6.7-.05 12.3-.7l4.1-.45q.1 0 .2.1L60 44.45l1.05-6.95.45.2q.5.25.9.55.65.5.95.8V24.5z"/><path id="p" fill="#7A4C32" d="M34.95 44.3q-.1.2.05.35.25.3.9.55.8.3 1.55.15t1.4-.75q.5-.45.65-.85.05-.2-.05-.3-.15-.15-.35-.05-1 .55-1.9.7-.8.15-2 .1-.2-.05-.25.1z"/><path id="q" fill="#513F35" d="M71 87.6q-.2-1.1-1.2-1.55-.9-.5-2.15-.25t-1.9 1.05q-.7.8-.5 1.9.3 1.8 3.2 1.15 2.85-.55 2.55-2.3z"/><path id="r" fill="#444" d="M56.55 72.1q-.3-1.7-1.55-2.7-1.2-1-2.65-.75-1.4.3-2.15 1.7t-.4 3.1q.35 1.7 1.55 2.7 1.25 1 2.65.7 1.4-.25 2.15-1.65t.4-3.1z"/><path id="s" fill="#444" d="M73.7 65.7q-.75 1.4-.4 3.1.35 1.7 1.55 2.7 1.25 1 2.65.7 1.4-.25 2.15-1.65t.45-3.1q-.35-1.7-1.55-2.7-1.25-1-2.65-.75-1.4.3-2.2 1.7z"/></defs><use xlink:href="#a"/><use transform="matrix(.56247 0 0 .56247 -.05 0)" xlink:href="#b"/><use transform="matrix(.56247 0 0 .56247 -.05 0)" xlink:href="#c"/><use transform="translate(-.05) scale(.5625)" xlink:href="#d"/><use xlink:href="#e"/><use xlink:href="#f"/><use xlink:href="#g"/><use transform="rotate(.078) scale(.56247)" xlink:href="#h"/><use transform="rotate(.078) scale(.56247)" xlink:href="#i"/><use xlink:href="#j"/><use xlink:href="#k"/><use transform="matrix(.34651 -.06108 .06108 .34651 9.3 15.8)" xlink:href="#l"/><use transform="matrix(.34651 -.06108 .06108 .34651 9.3 15.8)" xlink:href="#m"/><use transform="rotate(-9.996 96.735 -45.689) scale(.35193)" xlink:href="#n"/><use transform="rotate(-9.995 95.55 -45.22) scale(.62577)" xlink:href="#o"/><use xlink:href="#p"/><use transform="rotate(.078) scale(.56247)" xlink:href="#q"/><use transform="rotate(.078) scale(.56247)" xlink:href="#r"/><use transform="rotate(.078) scale(.56247)" xlink:href="#s"/></svg>