
<svg xmlns="http://www.w3.org/2000/svg" version="1.1" xmlns:xlink="http://www.w3.org/1999/xlink" preserveAspectRatio="none" x="0px" y="0px" width="72px" height="72px" viewBox="0 0 72 72">
<defs>
<g id="Layer1_0_MEMBER_0_MEMBER_0_FILL">
<path fill="#FCC21B" stroke="none" d="
M 35.85 5.35
Q 13.45 5.35 4.7 26.05 -0.1 37.3 -0.1 52.55 -0.1 58.45 10.45 62.55 20.95 66.7 35.85 66.7 50.8 66.7 61.3 62.55 71.85 58.45 71.85 52.55 71.85 37.35 67.05 26.05 58.25 5.35 35.85 5.35 Z"/>
</g>

<g id="Layer1_0_MEMBER_0_MEMBER_1_MEMBER_0_FILL">
<path fill="#FCC21B" stroke="none" d="
M 65.1 47.25
Q 66.85 43.55 65.45 39.75 64.05 35.95 60.3 34.2 56.6 32.5 52.75 33.9 48.9 35.3 47.2 39 45.45 42.65 46.85 46.45 48.25 50.25 51.95 52 55.7 53.7 59.55 52.3 63.4 50.9 65.1 47.25 Z"/>
</g>

<g id="Layer1_0_MEMBER_0_MEMBER_1_MEMBER_1_FILL">
<path fill="#FCC01C" stroke="none" d="
M 64.75 47.05
Q 66.4 43.55 65.05 39.9 63.7 36.25 60.15 34.6 56.6 32.95 52.9 34.3 49.2 35.6 47.5 39.15 45.85 42.65 47.2 46.3 48.55 50 52.1 51.6 55.7 53.25 59.4 51.9 63.1 50.6 64.75 47.05 Z"/>
</g>

<g id="Layer1_0_MEMBER_0_MEMBER_1_MEMBER_2_FILL">
<path fill="#FCBE1C" stroke="none" d="
M 64.4 46.9
Q 65.95 43.5 64.7 40 63.45 36.5 60 34.95 56.6 33.4 53.05 34.65 49.5 35.9 47.9 39.3 46.3 42.65 47.6 46.2 48.9 49.7 52.3 51.25 55.7 52.85 59.25 51.55 62.8 50.3 64.4 46.9 Z"/>
</g>

<g id="Layer1_0_MEMBER_0_MEMBER_1_MEMBER_3_FILL">
<path fill="#FBBB1D" stroke="none" d="
M 64 46.7
Q 65.55 43.5 64.3 40.15 63.05 36.8 59.8 35.3 56.55 33.8 53.15 35.05 49.8 36.25 48.25 39.5 46.75 42.7 47.95 46.05 49.2 49.4 52.45 50.9 55.75 52.4 59.1 51.15 62.5 49.95 64 46.7 Z"/>
</g>

<g id="Layer1_0_MEMBER_0_MEMBER_1_MEMBER_4_FILL">
<path fill="#FBB91E" stroke="none" d="
M 63.65 46.55
Q 65.1 43.5 63.95 40.3 62.75 37.1 59.65 35.7 56.5 34.25 53.3 35.4 50.1 36.55 48.65 39.65 47.2 42.7 48.35 45.9 49.5 49.1 52.65 50.55 55.75 51.95 59 50.8 62.2 49.65 63.65 46.55 Z"/>
</g>

<g id="Layer1_0_MEMBER_0_MEMBER_1_MEMBER_5_FILL">
<path fill="#FBB71E" stroke="none" d="
M 63.3 46.4
Q 64.7 43.45 63.55 40.45 62.4 37.4 59.5 36.05 56.5 34.7 53.45 35.8 50.4 36.9 49 39.8 47.6 42.75 48.75 45.75 49.85 48.8 52.8 50.15 55.8 51.55 58.85 50.4 61.9 49.3 63.3 46.4 Z"/>
</g>

<g id="Layer1_0_MEMBER_0_MEMBER_1_MEMBER_6_FILL">
<path fill="#FBB51F" stroke="none" d="
M 62.95 46.2
Q 64.25 43.45 63.2 40.55 62.1 37.7 59.3 36.4 56.5 35.1 53.6 36.15 50.7 37.2 49.35 40 48.05 42.75 49.1 45.65 50.2 48.5 53 49.8 55.8 51.1 58.7 50.05 61.6 49 62.95 46.2 Z"/>
</g>

<g id="Layer1_0_MEMBER_0_MEMBER_1_MEMBER_7_FILL">
<path fill="#FAB220" stroke="none" d="
M 62.55 46.05
Q 63.8 43.45 62.8 40.7 61.8 38 59.15 36.75 56.45 35.55 53.7 36.55 50.95 37.55 49.75 40.15 48.5 42.75 49.5 45.5 50.5 48.25 53.15 49.45 55.8 50.65 58.55 49.65 61.35 48.7 62.55 46.05 Z"/>
</g>

<g id="Layer1_0_MEMBER_0_MEMBER_1_MEMBER_8_FILL">
<path fill="#FAB020" stroke="none" d="
M 58.45 49.3
Q 61.05 48.35 62.2 45.9 63.35 43.4 62.4 40.85 61.45 38.25 58.95 37.1 56.45 35.95 53.85 36.9 51.25 37.85 50.1 40.3 48.9 42.8 49.85 45.35 50.85 47.95 53.35 49.1 55.85 50.25 58.45 49.3 Z"/>
</g>

<g id="Layer1_0_MEMBER_0_MEMBER_1_MEMBER_9_FILL">
<path fill="#FAAE21" stroke="none" d="
M 58.3 48.9
Q 60.75 48.05 61.85 45.7 62.9 43.4 62.05 41 61.15 38.55 58.8 37.5 56.45 36.4 54 37.3 51.55 38.15 50.45 40.5 49.35 42.8 50.25 45.25 51.15 47.65 53.5 48.75 55.85 49.8 58.3 48.9 Z"/>
</g>

<g id="Layer1_0_MEMBER_0_MEMBER_1_MEMBER_10_FILL">
<path fill="#FAAC22" stroke="none" d="
M 58.15 48.55
Q 60.45 47.75 61.45 45.55 62.5 43.4 61.65 41.1 60.85 38.85 58.65 37.85 56.45 36.85 54.15 37.65 51.85 38.5 50.8 40.65 49.8 42.85 50.6 45.1 51.45 47.35 53.65 48.35 55.85 49.4 58.15 48.55 Z"/>
</g>

<g id="Layer1_0_MEMBER_0_MEMBER_1_MEMBER_11_FILL">
<path fill="#F9A922" stroke="none" d="
M 58 48.15
Q 60.15 47.4 61.1 45.4 62.05 43.35 61.3 41.25 60.5 39.15 58.45 38.2 56.4 37.25 54.25 38 52.15 38.8 51.2 40.8 50.25 42.85 51 44.95 51.8 47.05 53.85 48 55.85 48.95 58 48.15 Z"/>
</g>

<g id="Layer1_0_MEMBER_0_MEMBER_1_MEMBER_12_FILL">
<path fill="#F9A723" stroke="none" d="
M 57.85 47.8
Q 59.85 47.1 60.75 45.2 61.6 43.35 60.9 41.4 60.2 39.45 58.3 38.55 56.4 37.7 54.4 38.4 52.45 39.1 51.55 41 50.7 42.85 51.4 44.8 52.1 46.75 54 47.65 55.9 48.5 57.85 47.8 Z"/>
</g>

<g id="Layer1_0_MEMBER_0_MEMBER_1_MEMBER_13_FILL">
<path fill="#F9A524" stroke="none" d="
M 57.75 47.4
Q 59.55 46.75 60.35 45.05 61.2 43.3 60.55 41.5 59.9 39.75 58.1 38.95 56.35 38.1 54.55 38.75 52.75 39.45 51.95 41.15 51.1 42.9 51.75 44.7 52.45 46.5 54.15 47.25 55.95 48.05 57.75 47.4 Z"/>
</g>

<g id="Layer1_0_MEMBER_0_MEMBER_1_MEMBER_14_FILL">
<path fill="#F9A324" stroke="none" d="
M 57.6 47.05
Q 59.25 46.45 60 44.9 60.75 43.3 60.15 41.65 59.55 40.05 57.95 39.3 56.35 38.55 54.7 39.15 53 39.75 52.3 41.35 51.55 42.9 52.15 44.55 52.75 46.15 54.35 46.9 55.95 47.65 57.6 47.05 Z"/>
</g>

<g id="Layer1_0_MEMBER_0_MEMBER_1_MEMBER_15_FILL">
<path fill="#F8A025" stroke="none" d="
M 57.45 46.65
Q 58.95 46.15 59.65 44.7 60.3 43.25 59.75 41.8 59.25 40.3 57.8 39.65 56.35 38.95 54.85 39.5 53.35 40.05 52.65 41.5 52 42.95 52.5 44.4 53.05 45.9 54.5 46.55 55.95 47.2 57.45 46.65 Z"/>
</g>

<g id="Layer1_0_MEMBER_0_MEMBER_1_MEMBER_16_FILL">
<path fill="#F89E26" stroke="none" d="
M 57.3 46.3
Q 58.65 45.8 59.25 44.55 59.9 43.25 59.4 41.95 58.9 40.6 57.6 40 56.3 39.4 54.95 39.9 53.6 40.4 53 41.65 52.4 42.95 52.9 44.25 53.4 45.6 54.7 46.2 56 46.8 57.3 46.3 Z"/>
</g>

<g id="Layer1_0_MEMBER_0_MEMBER_1_MEMBER_17_FILL">
<path fill="#F89C26" stroke="none" d="
M 57.2 45.9
Q 58.4 45.5 58.9 44.35 59.45 43.25 59 42.05 58.6 40.9 57.45 40.35 56.3 39.85 55.1 40.25 53.9 40.7 53.4 41.85 52.85 42.95 53.3 44.15 53.7 45.3 54.85 45.85 56 46.35 57.2 45.9 Z"/>
</g>

<g id="Layer1_0_MEMBER_0_MEMBER_1_MEMBER_18_FILL">
<path fill="#F89A27" stroke="none" d="
M 57.05 45.55
Q 58.05 45.15 58.55 44.2 59 43.2 58.65 42.2 58.3 41.2 57.25 40.75 56.25 40.3 55.25 40.65 54.2 41.05 53.75 42 53.3 43 53.65 44 54.05 45 55 45.45 56 45.95 57.05 45.55 Z"/>
</g>

<g id="Layer1_0_MEMBER_0_MEMBER_1_MEMBER_19_FILL">
<path fill="#F79728" stroke="none" d="
M 56.9 45.2
Q 57.8 44.85 58.2 44.05 58.55 43.2 58.25 42.35 57.9 41.5 57.1 41.1 56.25 40.7 55.4 41 54.5 41.35 54.1 42.15 53.7 43 54.05 43.85 54.35 44.7 55.2 45.1 56.05 45.5 56.9 45.2 Z"/>
</g>

<g id="Layer1_0_MEMBER_0_MEMBER_1_MEMBER_20_FILL">
<path fill="#F79528" stroke="none" d="
M 56.75 44.8
Q 57.5 44.55 57.8 43.85 58.1 43.2 57.85 42.5 57.6 41.8 56.9 41.45 56.2 41.15 55.5 41.4 54.8 41.65 54.45 42.35 54.15 43 54.4 43.7 54.65 44.4 55.35 44.75 56.05 45.05 56.75 44.8 Z"/>
</g>

<g id="Layer1_0_MEMBER_0_MEMBER_1_MEMBER_21_FILL">
<path fill="#F79329" stroke="none" d="
M 56.65 44.45
Q 57.2 44.25 57.45 43.7 57.7 43.15 57.5 42.6 57.3 42.05 56.75 41.8 56.2 41.55 55.65 41.75 55.1 42 54.85 42.5 54.6 43.05 54.8 43.6 55 44.15 55.55 44.4 56.1 44.65 56.65 44.45 Z"/>
</g>

<g id="Layer1_0_MEMBER_0_MEMBER_2_MEMBER_0_FILL">
<path fill="#FCC21B" stroke="none" d="
M 23.85 46.85
Q 25.6 43.15 24.15 39.35 22.75 35.55 19.05 33.85 15.35 32.15 11.5 33.55 7.65 34.95 5.9 38.6 4.15 42.3 5.55 46.1 7 49.9 10.7 51.6 14.4 53.3 18.25 51.9 22.1 50.5 23.85 46.85 Z"/>
</g>

<g id="Layer1_0_MEMBER_0_MEMBER_2_MEMBER_1_FILL">
<path fill="#FCC01C" stroke="none" d="
M 23.5 46.7
Q 25.15 43.15 23.8 39.5 22.45 35.85 18.9 34.25 15.3 32.6 11.6 33.9 7.9 35.25 6.25 38.75 4.6 42.3 5.95 45.95 7.3 49.6 10.85 51.25 14.4 52.85 18.1 51.55 21.8 50.2 23.5 46.7 Z"/>
</g>

<g id="Layer1_0_MEMBER_0_MEMBER_2_MEMBER_2_FILL">
<path fill="#FCBE1C" stroke="none" d="
M 23.1 46.5
Q 24.7 43.15 23.4 39.65 22.15 36.15 18.7 34.6 15.3 33.05 11.75 34.3 8.2 35.6 6.65 38.95 5.05 42.3 6.3 45.8 7.6 49.3 11.05 50.85 14.45 52.4 18 51.15 21.55 49.85 23.1 46.5 Z"/>
</g>

<g id="Layer1_0_MEMBER_0_MEMBER_2_MEMBER_3_FILL">
<path fill="#FBBB1D" stroke="none" d="
M 22.75 46.35
Q 24.25 43.15 23.05 39.8 21.8 36.45 18.55 34.95 15.3 33.45 11.9 34.65 8.5 35.9 7 39.1 5.45 42.3 6.7 45.65 7.95 49 11.2 50.5 14.45 52 17.85 50.8 21.2 49.6 22.75 46.35 Z"/>
</g>

<g id="Layer1_0_MEMBER_0_MEMBER_2_MEMBER_4_FILL">
<path fill="#FBB91E" stroke="none" d="
M 22.35 46.15
Q 23.8 43.1 22.65 39.9 21.5 36.7 18.4 35.3 15.3 33.9 12.05 35.05 8.8 36.2 7.35 39.3 5.9 42.35 7.1 45.55 8.25 48.75 11.35 50.15 14.45 51.55 17.7 50.4 20.9 49.25 22.35 46.15 Z"/>
</g>

<g id="Layer1_0_MEMBER_0_MEMBER_2_MEMBER_5_FILL">
<path fill="#FBB71E" stroke="none" d="
M 22 46
Q 23.4 43.1 22.3 40.05 21.2 37 18.2 35.65 15.25 34.3 12.15 35.4 9.1 36.5 7.7 39.45 6.35 42.35 7.45 45.4 8.55 48.45 11.55 49.8 14.45 51.15 17.55 50.05 20.6 48.95 22 46 Z"/>
</g>

<g id="Layer1_0_MEMBER_0_MEMBER_2_MEMBER_6_FILL">
<path fill="#FBB51F" stroke="none" d="
M 21.65 45.85
Q 22.95 43.1 21.9 40.2 20.85 37.3 18.05 36.05 15.25 34.75 12.3 35.8 9.4 36.85 8.1 39.6 6.8 42.35 7.85 45.25 8.9 48.15 11.7 49.4 14.5 50.7 17.45 49.65 20.35 48.65 21.65 45.85 Z"/>
</g>

<g id="Layer1_0_MEMBER_0_MEMBER_2_MEMBER_7_FILL">
<path fill="#FAB220" stroke="none" d="
M 17.3 49.3
Q 20.05 48.35 21.3 45.7 22.5 43.05 21.5 40.35 20.55 37.6 17.85 36.4 15.2 35.15 12.45 36.15 9.7 37.15 8.45 39.8 7.2 42.4 8.2 45.1 9.2 47.85 11.85 49.05 14.5 50.3 17.3 49.3 Z"/>
</g>

<g id="Layer1_0_MEMBER_0_MEMBER_2_MEMBER_8_FILL">
<path fill="#FAB020" stroke="none" d="
M 17.15 48.9
Q 19.75 47.95 20.9 45.5 22.1 43.05 21.15 40.45 20.2 37.9 17.7 36.75 15.2 35.6 12.6 36.55 10 37.45 8.8 39.95 7.65 42.4 8.6 45 9.55 47.55 12.05 48.7 14.55 49.85 17.15 48.9 Z"/>
</g>

<g id="Layer1_0_MEMBER_0_MEMBER_2_MEMBER_9_FILL">
<path fill="#FAAE21" stroke="none" d="
M 17 48.55
Q 19.45 47.7 20.55 45.35 21.65 43 20.75 40.6 19.9 38.2 17.5 37.1 15.15 36.05 12.7 36.9 10.25 37.75 9.2 40.1 8.1 42.45 8.95 44.85 9.85 47.25 12.2 48.35 14.55 49.4 17 48.55 Z"/>
</g>

<g id="Layer1_0_MEMBER_0_MEMBER_2_MEMBER_10_FILL">
<path fill="#FAAC22" stroke="none" d="
M 16.85 48.15
Q 19.15 47.35 20.2 45.2 21.25 43 20.4 40.75 19.55 38.5 17.35 37.5 15.15 36.5 12.85 37.3 10.55 38.15 9.55 40.3 8.55 42.45 9.35 44.7 10.2 46.95 12.35 47.95 14.55 49 16.85 48.15 Z"/>
</g>

<g id="Layer1_0_MEMBER_0_MEMBER_2_MEMBER_11_FILL">
<path fill="#F9A922" stroke="none" d="
M 16.75 47.8
Q 18.85 47.05 19.8 45 20.8 42.95 20 40.9 19.2 38.75 17.2 37.85 15.15 36.9 13 37.65 10.85 38.4 9.9 40.45 8.95 42.45 9.75 44.55 10.5 46.7 12.55 47.6 14.6 48.55 16.75 47.8 Z"/>
</g>

<g id="Layer1_0_MEMBER_0_MEMBER_2_MEMBER_12_FILL">
<path fill="#F9A723" stroke="none" d="
M 16.6 47.4
Q 18.55 46.7 19.45 44.85 20.35 42.95 19.6 41 18.9 39.05 17 38.15 15.1 37.3 13.15 38 11.15 38.7 10.3 40.6 9.4 42.5 10.1 44.45 10.8 46.4 12.7 47.25 14.6 48.1 16.6 47.4 Z"/>
</g>

<g id="Layer1_0_MEMBER_0_MEMBER_2_MEMBER_13_FILL">
<path fill="#F9A524" stroke="none" d="
M 16.45 47.05
Q 18.3 46.4 19.1 44.7 19.95 42.95 19.25 41.15 18.6 39.35 16.85 38.55 15.1 37.75 13.25 38.4 11.45 39.05 10.65 40.75 9.85 42.5 10.5 44.3 11.15 46.1 12.9 46.9 14.65 47.7 16.45 47.05 Z"/>
</g>

<g id="Layer1_0_MEMBER_0_MEMBER_2_MEMBER_14_FILL">
<path fill="#F9A324" stroke="none" d="
M 16.3 46.65
Q 18 46.1 18.7 44.5 19.45 42.95 18.85 41.3 18.25 39.65 16.65 38.9 15.05 38.2 13.4 38.75 11.75 39.35 11 40.95 10.25 42.55 10.85 44.15 11.45 45.8 13.05 46.55 14.65 47.25 16.3 46.65 Z"/>
</g>

<g id="Layer1_0_MEMBER_0_MEMBER_2_MEMBER_15_FILL">
<path fill="#F8A025" stroke="none" d="
M 16.2 46.3
Q 17.7 45.8 18.35 44.35 19.05 42.9 18.5 41.4 17.95 39.95 16.5 39.3 15.05 38.65 13.55 39.15 12.05 39.7 11.35 41.1 10.7 42.55 11.25 44.05 11.75 45.5 13.25 46.15 14.7 46.85 16.2 46.3 Z"/>
</g>

<g id="Layer1_0_MEMBER_0_MEMBER_2_MEMBER_16_FILL">
<path fill="#F89E26" stroke="none" d="
M 16.05 45.9
Q 17.4 45.45 18 44.2 18.6 42.9 18.1 41.55 17.6 40.25 16.3 39.65 15 39.05 13.7 39.5 12.35 40 11.75 41.25 11.1 42.55 11.6 43.9 12.1 45.2 13.4 45.8 14.7 46.4 16.05 45.9 Z"/>
</g>

<g id="Layer1_0_MEMBER_0_MEMBER_2_MEMBER_17_FILL">
<path fill="#F89C26" stroke="none" d="
M 15.9 45.55
Q 17.1 45.15 17.65 44 18.15 42.85 17.75 41.7 17.3 40.55 16.15 40 15 39.5 13.8 39.9 12.65 40.3 12.1 41.45 11.6 42.6 12 43.75 12.45 44.9 13.6 45.45 14.75 45.95 15.9 45.55 Z"/>
</g>

<g id="Layer1_0_MEMBER_0_MEMBER_2_MEMBER_18_FILL">
<path fill="#F89A27" stroke="none" d="
M 15.75 45.2
Q 16.8 44.85 17.25 43.85 17.75 42.85 17.35 41.8 17 40.8 16 40.35 15 39.9 13.95 40.25 12.95 40.65 12.5 41.6 12.05 42.6 12.4 43.6 12.8 44.6 13.75 45.1 14.75 45.55 15.75 45.2 Z"/>
</g>

<g id="Layer1_0_MEMBER_0_MEMBER_2_MEMBER_19_FILL">
<path fill="#F79728" stroke="none" d="
M 15.65 44.8
Q 16.5 44.5 16.9 43.65 17.3 42.8 16.95 41.95 16.65 41.1 15.8 40.7 14.95 40.35 14.1 40.65 13.25 40.95 12.85 41.8 12.45 42.65 12.75 43.5 13.1 44.35 13.9 44.75 14.75 45.1 15.65 44.8 Z"/>
</g>

<g id="Layer1_0_MEMBER_0_MEMBER_2_MEMBER_20_FILL">
<path fill="#F79528" stroke="none" d="
M 15.5 44.45
Q 16.2 44.2 16.55 43.5 16.85 42.8 16.6 42.1 16.35 41.4 15.65 41.05 14.95 40.75 14.25 41 13.55 41.25 13.2 41.95 12.9 42.65 13.15 43.35 13.4 44.05 14.1 44.35 14.8 44.7 15.5 44.45 Z"/>
</g>

<g id="Layer1_0_MEMBER_0_MEMBER_2_MEMBER_21_FILL">
<path fill="#F79329" stroke="none" d="
M 15.35 44.05
Q 15.9 43.85 16.15 43.3 16.45 42.8 16.2 42.25 16 41.7 15.45 41.45 14.95 41.2 14.4 41.4 13.85 41.6 13.6 42.15 13.3 42.65 13.5 43.2 13.75 43.75 14.25 44 14.8 44.25 15.35 44.05 Z"/>
</g>

<g id="Layer1_0_MEMBER_0_MEMBER_3_FILL">
<path fill="#2F2F2F" stroke="none" d="
M 16.85 37.25
Q 17.3 36.5 18.2 35.8 19.95 34.45 22.25 34.45 24.55 34.45 26.35 35.8 27.25 36.5 27.7 37.25 28.15 38 29.05 38 29.45 38 29.8 37.8 30.35 37.45 30.55 36.85 30.7 36.25 30.35 35.7 29.65 34.55 28.35 33.5 25.7 31.4 22.25 31.4 18.85 31.4 16.2 33.5 14.9 34.55 14.2 35.7 13.85 36.25 14.05 36.85 14.2 37.45 14.75 37.75 15.25 38.1 15.9 37.95 16.5 37.8 16.85 37.25 Z"/>
</g>

<g id="Layer1_0_MEMBER_0_MEMBER_4_FILL">
<path fill="#2F2F2F" stroke="none" d="
M 58.05 36.85
Q 58.2 36.25 57.9 35.7 57.2 34.55 55.9 33.5 53.25 31.4 49.8 31.4 46.35 31.4 43.75 33.5 41.8 35.6 41.75 35.7 41.4 36.2 41.55 36.85 41.7 37.45 42.25 37.8 42.8 38.1 43.45 37.95 44.05 37.8 44.35 37.25 44.4 37.25 45.7 35.85 47.45 34.45 49.8 34.45 52.1 34.45 53.9 35.8 54.8 36.5 55.25 37.25 55.75 38 56.6 38 57 38 57.35 37.8 57.9 37.45 58.05 36.85 Z"/>
</g>

<g id="Layer1_0_MEMBER_1_FILL">
<path fill="#2F2F2F" stroke="none" d="
M 50 45.8
Q 50.4 45.15 50.25 44.45 50.1 43.75 49.55 43.35 48.95 42.95 48.35 43.1 47.7 43.25 47.35 43.9 46.5 45.35 44.75 46.7 41.3294921875 49.205078125 36.45 49.2 30.6376953125 49.1810546875 27.25 46.7 25.5 45.35 24.65 43.9 24.3 43.25 23.65 43.1 23.05 42.95 22.45 43.35 21.9 43.75 21.75 44.45 21.6 45.15 22 45.8 23.05 47.75 25.25 49.5 29.6 52.95 35.7 52.95 36.203125 52.95 36.3 52.95 42.4 52.95 46.75 49.5 48.95 47.75 50 45.8 Z"/>
</g>

<g id="Layer0_0_FILL">
<path fill="#D7598B" stroke="none" d="
M 66.95 53.3
Q 66.95 51.5 65.6 50.25 64.2 49 62.3 49 60.85 49 59.65 49.7 58.5 50.4 57.95 51.6 57.45 50.4 56.25 49.7 55.1 49 53.65 49 51.7 49 50.35 50.25 48.95 51.5 48.95 53.3 48.95 55.5 50.5 57.15 51.4 58.15 53.75 59.65 55.25 60.65 55.9 61.2 57.05 62.1 57.6 63.05
L 57.65 63.15
Q 57.75 63.3 57.95 63.3
L 58 63.3
Q 58.15 63.3 58.25 63.15 58.3 63.1 58.3 63.05 58.85 62.1 60 61.2 60.7 60.65 62.2 59.65 64.55 58.15 65.45 57.15 66.95 55.5 66.95 53.3 Z"/>
</g>

<g id="Layer0_1_FILL">
<path fill="#D7598B" stroke="none" d="
M 110.6 27.85
Q 102.2 20.15 90.35 20.15 81.55 20.15 74.35 24.6 67.25 28.95 64 36.2 60.7 28.95 53.6 24.6 46.4 20.15 37.6 20.15 25.75 20.15 17.4 27.85 9 35.6 9 46.5 9 59.95 18.2 70.15 23.75 76.3 38.2 85.6 47.45 91.6 51.5 94.9 58.45 100.45 61.85 106.25
L 62.1 106.85
Q 62.65 107.9 63.95 107.9
L 64.05 107.9
Q 65.15 107.9 65.85 106.8 66 106.55 66 106.4 69.45 100.55 76.4 94.95 80.6 91.5 89.75 85.6 104.2 76.3 109.75 70.15 119 59.95 119 46.5 119 35.6 110.6 27.85 Z"/>
</g>

<g id="Layer0_2_FILL">
<path fill="#D7598B" stroke="none" d="
M 110.6 27.85
Q 102.2 20.15 90.35 20.15 81.55 20.15 74.35 24.6 67.25 28.95 64 36.2 60.7 28.95 53.6 24.6 46.4 20.15 37.6 20.15 25.75 20.15 17.4 27.85 9 35.6 9 46.5 9 59.95 18.2 70.15 23.75 76.3 38.2 85.6 47.45 91.6 51.5 94.9 58.45 100.45 61.85 106.25
L 62.1 106.85
Q 62.65 107.9 63.95 107.9
L 64.05 107.9
Q 65.15 107.9 65.85 106.8 66 106.55 66 106.4 69.45 100.55 76.4 94.95 80.6 91.5 89.75 85.6 104.2 76.3 109.75 70.15 119 59.95 119 46.5 119 35.6 110.6 27.85 Z"/>
</g>
</defs>

<g id="_____1">
<g transform="matrix( 1, 0, 0, 1, 0.1,0) ">
<use xlink:href="#Layer1_0_MEMBER_0_MEMBER_0_FILL"/>
</g>

<g transform="matrix( 1, 0, 0, 1, 0.1,0) ">
<use xlink:href="#Layer1_0_MEMBER_0_MEMBER_1_MEMBER_0_FILL"/>
</g>

<g transform="matrix( 1, 0, 0, 1, 0.1,0) ">
<use xlink:href="#Layer1_0_MEMBER_0_MEMBER_1_MEMBER_1_FILL"/>
</g>

<g transform="matrix( 1, 0, 0, 1, 0.1,0) ">
<use xlink:href="#Layer1_0_MEMBER_0_MEMBER_1_MEMBER_2_FILL"/>
</g>

<g transform="matrix( 1, 0, 0, 1, 0.1,0) ">
<use xlink:href="#Layer1_0_MEMBER_0_MEMBER_1_MEMBER_3_FILL"/>
</g>

<g transform="matrix( 1, 0, 0, 1, 0.1,0) ">
<use xlink:href="#Layer1_0_MEMBER_0_MEMBER_1_MEMBER_4_FILL"/>
</g>

<g transform="matrix( 1, 0, 0, 1, 0.1,0) ">
<use xlink:href="#Layer1_0_MEMBER_0_MEMBER_1_MEMBER_5_FILL"/>
</g>

<g transform="matrix( 1, 0, 0, 1, 0.1,0) ">
<use xlink:href="#Layer1_0_MEMBER_0_MEMBER_1_MEMBER_6_FILL"/>
</g>

<g transform="matrix( 1, 0, 0, 1, 0.1,0) ">
<use xlink:href="#Layer1_0_MEMBER_0_MEMBER_1_MEMBER_7_FILL"/>
</g>

<g transform="matrix( 1, 0, 0, 1, 0.1,0) ">
<use xlink:href="#Layer1_0_MEMBER_0_MEMBER_1_MEMBER_8_FILL"/>
</g>

<g transform="matrix( 1, 0, 0, 1, 0.1,0) ">
<use xlink:href="#Layer1_0_MEMBER_0_MEMBER_1_MEMBER_9_FILL"/>
</g>

<g transform="matrix( 1, 0, 0, 1, 0.1,0) ">
<use xlink:href="#Layer1_0_MEMBER_0_MEMBER_1_MEMBER_10_FILL"/>
</g>

<g transform="matrix( 1, 0, 0, 1, 0.1,0) ">
<use xlink:href="#Layer1_0_MEMBER_0_MEMBER_1_MEMBER_11_FILL"/>
</g>

<g transform="matrix( 1, 0, 0, 1, 0.1,0) ">
<use xlink:href="#Layer1_0_MEMBER_0_MEMBER_1_MEMBER_12_FILL"/>
</g>

<g transform="matrix( 1, 0, 0, 1, 0.1,0) ">
<use xlink:href="#Layer1_0_MEMBER_0_MEMBER_1_MEMBER_13_FILL"/>
</g>

<g transform="matrix( 1, 0, 0, 1, 0.1,0) ">
<use xlink:href="#Layer1_0_MEMBER_0_MEMBER_1_MEMBER_14_FILL"/>
</g>

<g transform="matrix( 1, 0, 0, 1, 0.1,0) ">
<use xlink:href="#Layer1_0_MEMBER_0_MEMBER_1_MEMBER_15_FILL"/>
</g>

<g transform="matrix( 1, 0, 0, 1, 0.1,0) ">
<use xlink:href="#Layer1_0_MEMBER_0_MEMBER_1_MEMBER_16_FILL"/>
</g>

<g transform="matrix( 1, 0, 0, 1, 0.1,0) ">
<use xlink:href="#Layer1_0_MEMBER_0_MEMBER_1_MEMBER_17_FILL"/>
</g>

<g transform="matrix( 1, 0, 0, 1, 0.1,0) ">
<use xlink:href="#Layer1_0_MEMBER_0_MEMBER_1_MEMBER_18_FILL"/>
</g>

<g transform="matrix( 1, 0, 0, 1, 0.1,0) ">
<use xlink:href="#Layer1_0_MEMBER_0_MEMBER_1_MEMBER_19_FILL"/>
</g>

<g transform="matrix( 1, 0, 0, 1, 0.1,0) ">
<use xlink:href="#Layer1_0_MEMBER_0_MEMBER_1_MEMBER_20_FILL"/>
</g>

<g transform="matrix( 1, 0, 0, 1, 0.1,0) ">
<use xlink:href="#Layer1_0_MEMBER_0_MEMBER_1_MEMBER_21_FILL"/>
</g>

<g transform="matrix( 1, 0, 0, 1, 0.1,0) ">
<use xlink:href="#Layer1_0_MEMBER_0_MEMBER_2_MEMBER_0_FILL"/>
</g>

<g transform="matrix( 1, 0, 0, 1, 0.1,0) ">
<use xlink:href="#Layer1_0_MEMBER_0_MEMBER_2_MEMBER_1_FILL"/>
</g>

<g transform="matrix( 1, 0, 0, 1, 0.1,0) ">
<use xlink:href="#Layer1_0_MEMBER_0_MEMBER_2_MEMBER_2_FILL"/>
</g>

<g transform="matrix( 1, 0, 0, 1, 0.1,0) ">
<use xlink:href="#Layer1_0_MEMBER_0_MEMBER_2_MEMBER_3_FILL"/>
</g>

<g transform="matrix( 1, 0, 0, 1, 0.1,0) ">
<use xlink:href="#Layer1_0_MEMBER_0_MEMBER_2_MEMBER_4_FILL"/>
</g>

<g transform="matrix( 1, 0, 0, 1, 0.1,0) ">
<use xlink:href="#Layer1_0_MEMBER_0_MEMBER_2_MEMBER_5_FILL"/>
</g>

<g transform="matrix( 1, 0, 0, 1, 0.1,0) ">
<use xlink:href="#Layer1_0_MEMBER_0_MEMBER_2_MEMBER_6_FILL"/>
</g>

<g transform="matrix( 1, 0, 0, 1, 0.1,0) ">
<use xlink:href="#Layer1_0_MEMBER_0_MEMBER_2_MEMBER_7_FILL"/>
</g>

<g transform="matrix( 1, 0, 0, 1, 0.1,0) ">
<use xlink:href="#Layer1_0_MEMBER_0_MEMBER_2_MEMBER_8_FILL"/>
</g>

<g transform="matrix( 1, 0, 0, 1, 0.1,0) ">
<use xlink:href="#Layer1_0_MEMBER_0_MEMBER_2_MEMBER_9_FILL"/>
</g>

<g transform="matrix( 1, 0, 0, 1, 0.1,0) ">
<use xlink:href="#Layer1_0_MEMBER_0_MEMBER_2_MEMBER_10_FILL"/>
</g>

<g transform="matrix( 1, 0, 0, 1, 0.1,0) ">
<use xlink:href="#Layer1_0_MEMBER_0_MEMBER_2_MEMBER_11_FILL"/>
</g>

<g transform="matrix( 1, 0, 0, 1, 0.1,0) ">
<use xlink:href="#Layer1_0_MEMBER_0_MEMBER_2_MEMBER_12_FILL"/>
</g>

<g transform="matrix( 1, 0, 0, 1, 0.1,0) ">
<use xlink:href="#Layer1_0_MEMBER_0_MEMBER_2_MEMBER_13_FILL"/>
</g>

<g transform="matrix( 1, 0, 0, 1, 0.1,0) ">
<use xlink:href="#Layer1_0_MEMBER_0_MEMBER_2_MEMBER_14_FILL"/>
</g>

<g transform="matrix( 1, 0, 0, 1, 0.1,0) ">
<use xlink:href="#Layer1_0_MEMBER_0_MEMBER_2_MEMBER_15_FILL"/>
</g>

<g transform="matrix( 1, 0, 0, 1, 0.1,0) ">
<use xlink:href="#Layer1_0_MEMBER_0_MEMBER_2_MEMBER_16_FILL"/>
</g>

<g transform="matrix( 1, 0, 0, 1, 0.1,0) ">
<use xlink:href="#Layer1_0_MEMBER_0_MEMBER_2_MEMBER_17_FILL"/>
</g>

<g transform="matrix( 1, 0, 0, 1, 0.1,0) ">
<use xlink:href="#Layer1_0_MEMBER_0_MEMBER_2_MEMBER_18_FILL"/>
</g>

<g transform="matrix( 1, 0, 0, 1, 0.1,0) ">
<use xlink:href="#Layer1_0_MEMBER_0_MEMBER_2_MEMBER_19_FILL"/>
</g>

<g transform="matrix( 1, 0, 0, 1, 0.1,0) ">
<use xlink:href="#Layer1_0_MEMBER_0_MEMBER_2_MEMBER_20_FILL"/>
</g>

<g transform="matrix( 1, 0, 0, 1, 0.1,0) ">
<use xlink:href="#Layer1_0_MEMBER_0_MEMBER_2_MEMBER_21_FILL"/>
</g>

<g transform="matrix( 1, 0, 0, 1, 0.1,0) ">
<use xlink:href="#Layer1_0_MEMBER_0_MEMBER_3_FILL"/>
</g>

<g transform="matrix( 1, 0, 0, 1, 0.1,0) ">
<use xlink:href="#Layer1_0_MEMBER_0_MEMBER_4_FILL"/>
</g>

<g transform="matrix( 1, 0, 0, 1, 0.1,0) ">
<use xlink:href="#Layer1_0_MEMBER_1_FILL"/>
</g>
</g>

<g transform="matrix( 1.1240234375, 0.3011627197265625, -0.302215576171875, 1.127960205078125, 11.3,-19.6) ">
<use xlink:href="#Layer0_0_FILL"/>
</g>

<g transform="matrix( 0.20172119140625, -0.0540313720703125, 0.0531005859375, 0.198211669921875, -3.6,45.15) ">
<use xlink:href="#Layer0_1_FILL"/>
</g>

<g transform="matrix( 0.21942138671875, 0.0587921142578125, -0.05865478515625, 0.2191619873046875, 47.05,-3.35) ">
<use xlink:href="#Layer0_2_FILL"/>
</g>
</svg>
