
<svg xmlns="http://www.w3.org/2000/svg" version="1.1" xmlns:xlink="http://www.w3.org/1999/xlink" preserveAspectRatio="none" x="0px" y="0px" width="72px" height="72px" viewBox="0 0 72 72">
<defs>
<g id="Layer1_0_MEMBER_0_MEMBER_0_MEMBER_0_MEMBER_0_FILL">
<path fill="#FCC21B" stroke="none" d="
M 36 5.6
Q 13.8 5.6 5.05 26.1 0.25 37.35 0.25 52.45 0.25 58.25 10.7 62.35 21.2 66.45 36 66.45 50.8 66.45 61.25 62.35 71.7 58.25 71.7 52.45 71.7 37.35 66.9 26.1 58.2 5.6 36 5.6 Z"/>
</g>

<g id="Layer1_0_MEMBER_1_MEMBER_0_FILL">
<path fill="#FCC21B" stroke="none" d="
M 65.1 47.25
Q 66.85 43.55 65.45 39.75 64.05 35.95 60.3 34.2 56.6 32.5 52.75 33.9 48.9 35.3 47.2 39 45.45 42.65 46.85 46.45 48.25 50.25 51.95 52 55.7 53.7 59.55 52.3 63.4 50.9 65.1 47.25 Z"/>
</g>

<g id="Layer1_0_MEMBER_1_MEMBER_1_FILL">
<path fill="#FCC01C" stroke="none" d="
M 64.75 47.05
Q 66.4 43.55 65.05 39.9 63.7 36.25 60.15 34.6 56.6 32.95 52.9 34.3 49.2 35.6 47.5 39.15 45.85 42.65 47.2 46.3 48.55 50 52.1 51.6 55.7 53.25 59.4 51.9 63.1 50.6 64.75 47.05 Z"/>
</g>

<g id="Layer1_0_MEMBER_1_MEMBER_2_FILL">
<path fill="#FCBE1C" stroke="none" d="
M 64.4 46.9
Q 65.95 43.5 64.7 40 63.45 36.5 60 34.95 56.6 33.4 53.05 34.65 49.5 35.9 47.9 39.3 46.3 42.65 47.6 46.2 48.9 49.7 52.3 51.25 55.7 52.85 59.25 51.55 62.8 50.3 64.4 46.9 Z"/>
</g>

<g id="Layer1_0_MEMBER_1_MEMBER_3_FILL">
<path fill="#FBBB1D" stroke="none" d="
M 64 46.7
Q 65.55 43.5 64.3 40.15 63.05 36.8 59.8 35.3 56.55 33.8 53.15 35.05 49.8 36.25 48.25 39.5 46.75 42.7 47.95 46.05 49.2 49.4 52.45 50.9 55.75 52.4 59.1 51.15 62.5 49.95 64 46.7 Z"/>
</g>

<g id="Layer1_0_MEMBER_1_MEMBER_4_FILL">
<path fill="#FBB91E" stroke="none" d="
M 63.65 46.55
Q 65.1 43.5 63.95 40.3 62.75 37.1 59.65 35.7 56.5 34.25 53.3 35.4 50.1 36.55 48.65 39.65 47.2 42.7 48.35 45.9 49.5 49.1 52.65 50.55 55.75 51.95 59 50.8 62.2 49.65 63.65 46.55 Z"/>
</g>

<g id="Layer1_0_MEMBER_1_MEMBER_5_FILL">
<path fill="#FBB71E" stroke="none" d="
M 63.3 46.4
Q 64.7 43.45 63.55 40.45 62.4 37.4 59.5 36.05 56.5 34.7 53.45 35.8 50.4 36.9 49 39.8 47.6 42.75 48.75 45.75 49.85 48.8 52.8 50.15 55.8 51.55 58.85 50.4 61.9 49.3 63.3 46.4 Z"/>
</g>

<g id="Layer1_0_MEMBER_1_MEMBER_6_FILL">
<path fill="#FBB51F" stroke="none" d="
M 62.95 46.2
Q 64.25 43.45 63.2 40.55 62.1 37.7 59.3 36.4 56.5 35.1 53.6 36.15 50.7 37.2 49.35 40 48.05 42.75 49.1 45.65 50.2 48.5 53 49.8 55.8 51.1 58.7 50.05 61.6 49 62.95 46.2 Z"/>
</g>

<g id="Layer1_0_MEMBER_1_MEMBER_7_FILL">
<path fill="#FAB220" stroke="none" d="
M 62.55 46.05
Q 63.8 43.45 62.8 40.7 61.8 38 59.15 36.75 56.45 35.55 53.7 36.55 50.95 37.55 49.75 40.15 48.5 42.75 49.5 45.5 50.5 48.25 53.15 49.45 55.8 50.65 58.55 49.65 61.35 48.7 62.55 46.05 Z"/>
</g>

<g id="Layer1_0_MEMBER_1_MEMBER_8_FILL">
<path fill="#FAB020" stroke="none" d="
M 58.45 49.3
Q 61.05 48.35 62.2 45.9 63.35 43.4 62.4 40.85 61.45 38.25 58.95 37.1 56.45 35.95 53.85 36.9 51.25 37.85 50.1 40.3 48.9 42.8 49.85 45.35 50.85 47.95 53.35 49.1 55.85 50.25 58.45 49.3 Z"/>
</g>

<g id="Layer1_0_MEMBER_1_MEMBER_9_FILL">
<path fill="#FAAE21" stroke="none" d="
M 58.3 48.9
Q 60.75 48.05 61.85 45.7 62.9 43.4 62.05 41 61.15 38.55 58.8 37.5 56.45 36.4 54 37.3 51.55 38.15 50.45 40.5 49.35 42.8 50.25 45.25 51.15 47.65 53.5 48.75 55.85 49.8 58.3 48.9 Z"/>
</g>

<g id="Layer1_0_MEMBER_1_MEMBER_10_FILL">
<path fill="#FAAC22" stroke="none" d="
M 58.15 48.55
Q 60.45 47.75 61.45 45.55 62.5 43.4 61.65 41.1 60.85 38.85 58.65 37.85 56.45 36.85 54.15 37.65 51.85 38.5 50.8 40.65 49.8 42.85 50.6 45.1 51.45 47.35 53.65 48.35 55.85 49.4 58.15 48.55 Z"/>
</g>

<g id="Layer1_0_MEMBER_1_MEMBER_11_FILL">
<path fill="#F9A922" stroke="none" d="
M 58 48.15
Q 60.15 47.4 61.1 45.4 62.05 43.35 61.3 41.25 60.5 39.15 58.45 38.2 56.4 37.25 54.25 38 52.15 38.8 51.2 40.8 50.25 42.85 51 44.95 51.8 47.05 53.85 48 55.85 48.95 58 48.15 Z"/>
</g>

<g id="Layer1_0_MEMBER_1_MEMBER_12_FILL">
<path fill="#F9A723" stroke="none" d="
M 57.85 47.8
Q 59.85 47.1 60.75 45.2 61.6 43.35 60.9 41.4 60.2 39.45 58.3 38.55 56.4 37.7 54.4 38.4 52.45 39.1 51.55 41 50.7 42.85 51.4 44.8 52.1 46.75 54 47.65 55.9 48.5 57.85 47.8 Z"/>
</g>

<g id="Layer1_0_MEMBER_1_MEMBER_13_FILL">
<path fill="#F9A524" stroke="none" d="
M 57.75 47.4
Q 59.55 46.75 60.35 45.05 61.2 43.3 60.55 41.5 59.9 39.75 58.1 38.95 56.35 38.1 54.55 38.75 52.75 39.45 51.95 41.15 51.1 42.9 51.75 44.7 52.45 46.5 54.15 47.25 55.95 48.05 57.75 47.4 Z"/>
</g>

<g id="Layer1_0_MEMBER_1_MEMBER_14_FILL">
<path fill="#F9A324" stroke="none" d="
M 57.6 47.05
Q 59.25 46.45 60 44.9 60.75 43.3 60.15 41.65 59.55 40.05 57.95 39.3 56.35 38.55 54.7 39.15 53 39.75 52.3 41.35 51.55 42.9 52.15 44.55 52.75 46.15 54.35 46.9 55.95 47.65 57.6 47.05 Z"/>
</g>

<g id="Layer1_0_MEMBER_1_MEMBER_15_FILL">
<path fill="#F8A025" stroke="none" d="
M 57.45 46.65
Q 58.95 46.15 59.65 44.7 60.3 43.25 59.75 41.8 59.25 40.3 57.8 39.65 56.35 38.95 54.85 39.5 53.35 40.05 52.65 41.5 52 42.95 52.5 44.4 53.05 45.9 54.5 46.55 55.95 47.2 57.45 46.65 Z"/>
</g>

<g id="Layer1_0_MEMBER_1_MEMBER_16_FILL">
<path fill="#F89E26" stroke="none" d="
M 57.3 46.3
Q 58.65 45.8 59.25 44.55 59.9 43.25 59.4 41.95 58.9 40.6 57.6 40 56.3 39.4 54.95 39.9 53.6 40.4 53 41.65 52.4 42.95 52.9 44.25 53.4 45.6 54.7 46.2 56 46.8 57.3 46.3 Z"/>
</g>

<g id="Layer1_0_MEMBER_1_MEMBER_17_FILL">
<path fill="#F89C26" stroke="none" d="
M 57.2 45.9
Q 58.4 45.5 58.9 44.35 59.45 43.25 59 42.05 58.6 40.9 57.45 40.35 56.3 39.85 55.1 40.25 53.9 40.7 53.4 41.85 52.85 42.95 53.3 44.15 53.7 45.3 54.85 45.85 56 46.35 57.2 45.9 Z"/>
</g>

<g id="Layer1_0_MEMBER_1_MEMBER_18_FILL">
<path fill="#F89A27" stroke="none" d="
M 57.05 45.55
Q 58.05 45.15 58.55 44.2 59 43.2 58.65 42.2 58.3 41.2 57.25 40.75 56.25 40.3 55.25 40.65 54.2 41.05 53.75 42 53.3 43 53.65 44 54.05 45 55 45.45 56 45.95 57.05 45.55 Z"/>
</g>

<g id="Layer1_0_MEMBER_1_MEMBER_19_FILL">
<path fill="#F79728" stroke="none" d="
M 56.9 45.2
Q 57.8 44.85 58.2 44.05 58.55 43.2 58.25 42.35 57.9 41.5 57.1 41.1 56.25 40.7 55.4 41 54.5 41.35 54.1 42.15 53.7 43 54.05 43.85 54.35 44.7 55.2 45.1 56.05 45.5 56.9 45.2 Z"/>
</g>

<g id="Layer1_0_MEMBER_1_MEMBER_20_FILL">
<path fill="#F79528" stroke="none" d="
M 56.75 44.8
Q 57.5 44.55 57.8 43.85 58.1 43.2 57.85 42.5 57.6 41.8 56.9 41.45 56.2 41.15 55.5 41.4 54.8 41.65 54.45 42.35 54.15 43 54.4 43.7 54.65 44.4 55.35 44.75 56.05 45.05 56.75 44.8 Z"/>
</g>

<g id="Layer1_0_MEMBER_1_MEMBER_21_FILL">
<path fill="#F79329" stroke="none" d="
M 56.65 44.45
Q 57.2 44.25 57.45 43.7 57.7 43.15 57.5 42.6 57.3 42.05 56.75 41.8 56.2 41.55 55.65 41.75 55.1 42 54.85 42.5 54.6 43.05 54.8 43.6 55 44.15 55.55 44.4 56.1 44.65 56.65 44.45 Z"/>
</g>

<g id="Layer1_0_MEMBER_2_MEMBER_0_FILL">
<path fill="#FCC21B" stroke="none" d="
M 65.1 47.25
Q 66.85 43.55 65.45 39.75 64.05 35.95 60.3 34.2 56.6 32.5 52.75 33.9 48.9 35.3 47.2 39 45.45 42.65 46.85 46.45 48.25 50.25 51.95 52 55.7 53.7 59.55 52.3 63.4 50.9 65.1 47.25 Z"/>
</g>

<g id="Layer1_0_MEMBER_2_MEMBER_1_FILL">
<path fill="#FCC01C" stroke="none" d="
M 64.75 47.05
Q 66.4 43.55 65.05 39.9 63.7 36.25 60.15 34.6 56.6 32.95 52.9 34.3 49.2 35.6 47.5 39.15 45.85 42.65 47.2 46.3 48.55 50 52.1 51.6 55.7 53.25 59.4 51.9 63.1 50.6 64.75 47.05 Z"/>
</g>

<g id="Layer1_0_MEMBER_2_MEMBER_2_FILL">
<path fill="#FCBE1C" stroke="none" d="
M 64.4 46.9
Q 65.95 43.5 64.7 40 63.45 36.5 60 34.95 56.6 33.4 53.05 34.65 49.5 35.9 47.9 39.3 46.3 42.65 47.6 46.2 48.9 49.7 52.3 51.25 55.7 52.85 59.25 51.55 62.8 50.3 64.4 46.9 Z"/>
</g>

<g id="Layer1_0_MEMBER_2_MEMBER_3_FILL">
<path fill="#FBBB1D" stroke="none" d="
M 64 46.7
Q 65.55 43.5 64.3 40.15 63.05 36.8 59.8 35.3 56.55 33.8 53.15 35.05 49.8 36.25 48.25 39.5 46.75 42.7 47.95 46.05 49.2 49.4 52.45 50.9 55.75 52.4 59.1 51.15 62.5 49.95 64 46.7 Z"/>
</g>

<g id="Layer1_0_MEMBER_2_MEMBER_4_FILL">
<path fill="#FBB91E" stroke="none" d="
M 63.65 46.55
Q 65.1 43.5 63.95 40.3 62.75 37.1 59.65 35.7 56.5 34.25 53.3 35.4 50.1 36.55 48.65 39.65 47.2 42.7 48.35 45.9 49.5 49.1 52.65 50.55 55.75 51.95 59 50.8 62.2 49.65 63.65 46.55 Z"/>
</g>

<g id="Layer1_0_MEMBER_2_MEMBER_5_FILL">
<path fill="#FBB71E" stroke="none" d="
M 63.3 46.4
Q 64.7 43.45 63.55 40.45 62.4 37.4 59.5 36.05 56.5 34.7 53.45 35.8 50.4 36.9 49 39.8 47.6 42.75 48.75 45.75 49.85 48.8 52.8 50.15 55.8 51.55 58.85 50.4 61.9 49.3 63.3 46.4 Z"/>
</g>

<g id="Layer1_0_MEMBER_2_MEMBER_6_FILL">
<path fill="#FBB51F" stroke="none" d="
M 62.95 46.2
Q 64.25 43.45 63.2 40.55 62.1 37.7 59.3 36.4 56.5 35.1 53.6 36.15 50.7 37.2 49.35 40 48.05 42.75 49.1 45.65 50.2 48.5 53 49.8 55.8 51.1 58.7 50.05 61.6 49 62.95 46.2 Z"/>
</g>

<g id="Layer1_0_MEMBER_2_MEMBER_7_FILL">
<path fill="#FAB220" stroke="none" d="
M 62.55 46.05
Q 63.8 43.45 62.8 40.7 61.8 38 59.15 36.75 56.45 35.55 53.7 36.55 50.95 37.55 49.75 40.15 48.5 42.75 49.5 45.5 50.5 48.25 53.15 49.45 55.8 50.65 58.55 49.65 61.35 48.7 62.55 46.05 Z"/>
</g>

<g id="Layer1_0_MEMBER_2_MEMBER_8_FILL">
<path fill="#FAB020" stroke="none" d="
M 58.45 49.3
Q 61.05 48.35 62.2 45.9 63.35 43.4 62.4 40.85 61.45 38.25 58.95 37.1 56.45 35.95 53.85 36.9 51.25 37.85 50.1 40.3 48.9 42.8 49.85 45.35 50.85 47.95 53.35 49.1 55.85 50.25 58.45 49.3 Z"/>
</g>

<g id="Layer1_0_MEMBER_2_MEMBER_9_FILL">
<path fill="#FAAE21" stroke="none" d="
M 58.3 48.9
Q 60.75 48.05 61.85 45.7 62.9 43.4 62.05 41 61.15 38.55 58.8 37.5 56.45 36.4 54 37.3 51.55 38.15 50.45 40.5 49.35 42.8 50.25 45.25 51.15 47.65 53.5 48.75 55.85 49.8 58.3 48.9 Z"/>
</g>

<g id="Layer1_0_MEMBER_2_MEMBER_10_FILL">
<path fill="#FAAC22" stroke="none" d="
M 58.15 48.55
Q 60.45 47.75 61.45 45.55 62.5 43.4 61.65 41.1 60.85 38.85 58.65 37.85 56.45 36.85 54.15 37.65 51.85 38.5 50.8 40.65 49.8 42.85 50.6 45.1 51.45 47.35 53.65 48.35 55.85 49.4 58.15 48.55 Z"/>
</g>

<g id="Layer1_0_MEMBER_2_MEMBER_11_FILL">
<path fill="#F9A922" stroke="none" d="
M 58 48.15
Q 60.15 47.4 61.1 45.4 62.05 43.35 61.3 41.25 60.5 39.15 58.45 38.2 56.4 37.25 54.25 38 52.15 38.8 51.2 40.8 50.25 42.85 51 44.95 51.8 47.05 53.85 48 55.85 48.95 58 48.15 Z"/>
</g>

<g id="Layer1_0_MEMBER_2_MEMBER_12_FILL">
<path fill="#F9A723" stroke="none" d="
M 57.85 47.8
Q 59.85 47.1 60.75 45.2 61.6 43.35 60.9 41.4 60.2 39.45 58.3 38.55 56.4 37.7 54.4 38.4 52.45 39.1 51.55 41 50.7 42.85 51.4 44.8 52.1 46.75 54 47.65 55.9 48.5 57.85 47.8 Z"/>
</g>

<g id="Layer1_0_MEMBER_2_MEMBER_13_FILL">
<path fill="#F9A524" stroke="none" d="
M 57.75 47.4
Q 59.55 46.75 60.35 45.05 61.2 43.3 60.55 41.5 59.9 39.75 58.1 38.95 56.35 38.1 54.55 38.75 52.75 39.45 51.95 41.15 51.1 42.9 51.75 44.7 52.45 46.5 54.15 47.25 55.95 48.05 57.75 47.4 Z"/>
</g>

<g id="Layer1_0_MEMBER_2_MEMBER_14_FILL">
<path fill="#F9A324" stroke="none" d="
M 57.6 47.05
Q 59.25 46.45 60 44.9 60.75 43.3 60.15 41.65 59.55 40.05 57.95 39.3 56.35 38.55 54.7 39.15 53 39.75 52.3 41.35 51.55 42.9 52.15 44.55 52.75 46.15 54.35 46.9 55.95 47.65 57.6 47.05 Z"/>
</g>

<g id="Layer1_0_MEMBER_2_MEMBER_15_FILL">
<path fill="#F8A025" stroke="none" d="
M 57.45 46.65
Q 58.95 46.15 59.65 44.7 60.3 43.25 59.75 41.8 59.25 40.3 57.8 39.65 56.35 38.95 54.85 39.5 53.35 40.05 52.65 41.5 52 42.95 52.5 44.4 53.05 45.9 54.5 46.55 55.95 47.2 57.45 46.65 Z"/>
</g>

<g id="Layer1_0_MEMBER_2_MEMBER_16_FILL">
<path fill="#F89E26" stroke="none" d="
M 57.3 46.3
Q 58.65 45.8 59.25 44.55 59.9 43.25 59.4 41.95 58.9 40.6 57.6 40 56.3 39.4 54.95 39.9 53.6 40.4 53 41.65 52.4 42.95 52.9 44.25 53.4 45.6 54.7 46.2 56 46.8 57.3 46.3 Z"/>
</g>

<g id="Layer1_0_MEMBER_2_MEMBER_17_FILL">
<path fill="#F89C26" stroke="none" d="
M 57.2 45.9
Q 58.4 45.5 58.9 44.35 59.45 43.25 59 42.05 58.6 40.9 57.45 40.35 56.3 39.85 55.1 40.25 53.9 40.7 53.4 41.85 52.85 42.95 53.3 44.15 53.7 45.3 54.85 45.85 56 46.35 57.2 45.9 Z"/>
</g>

<g id="Layer1_0_MEMBER_2_MEMBER_18_FILL">
<path fill="#F89A27" stroke="none" d="
M 57.05 45.55
Q 58.05 45.15 58.55 44.2 59 43.2 58.65 42.2 58.3 41.2 57.25 40.75 56.25 40.3 55.25 40.65 54.2 41.05 53.75 42 53.3 43 53.65 44 54.05 45 55 45.45 56 45.95 57.05 45.55 Z"/>
</g>

<g id="Layer1_0_MEMBER_2_MEMBER_19_FILL">
<path fill="#F79728" stroke="none" d="
M 56.9 45.2
Q 57.8 44.85 58.2 44.05 58.55 43.2 58.25 42.35 57.9 41.5 57.1 41.1 56.25 40.7 55.4 41 54.5 41.35 54.1 42.15 53.7 43 54.05 43.85 54.35 44.7 55.2 45.1 56.05 45.5 56.9 45.2 Z"/>
</g>

<g id="Layer1_0_MEMBER_2_MEMBER_20_FILL">
<path fill="#F79528" stroke="none" d="
M 56.75 44.8
Q 57.5 44.55 57.8 43.85 58.1 43.2 57.85 42.5 57.6 41.8 56.9 41.45 56.2 41.15 55.5 41.4 54.8 41.65 54.45 42.35 54.15 43 54.4 43.7 54.65 44.4 55.35 44.75 56.05 45.05 56.75 44.8 Z"/>
</g>

<g id="Layer1_0_MEMBER_2_MEMBER_21_FILL">
<path fill="#F79329" stroke="none" d="
M 56.65 44.45
Q 57.2 44.25 57.45 43.7 57.7 43.15 57.5 42.6 57.3 42.05 56.75 41.8 56.2 41.55 55.65 41.75 55.1 42 54.85 42.5 54.6 43.05 54.8 43.6 55 44.15 55.55 44.4 56.1 44.65 56.65 44.45 Z"/>
</g>

<g id="Layer0_0_FILL">
<path fill="#FFFFFF" stroke="none" d="
M 14.25 34.75
Q 14.25 38.25 16.75 40.7 19.25 43.25 22.8 43.25 26.3 43.25 28.75 40.7 31.3 38.25 31.3 34.75 31.3 31.2 28.75 28.7 26.3 26.2 22.8 26.2 19.25 26.2 16.75 28.7 14.25 31.2 14.25 34.75
M 16.45 32.7
Q 16.45 30.05 18.3 28.2 20.15 26.3 22.85 26.3 25.55 26.3 27.4 28.2 29.25 30.05 29.25 32.7 29.25 35.4 27.4 37.2 25.55 39.25 22.85 39.25 20.15 39.25 18.3 37.2 16.45 35.4 16.45 32.7
M 27.7 36.15
Q 27.7 36.1 27.7 36 27.6 35.65 27.4 35.3 27.15 35.05 26.65 35.05 26.2 35.05 25.9 35.3 25.55 35.7 25.55 36.15 25.55 36.6 25.9 36.9 26.2 37.15 26.55 37.2 26.6 37.2 26.65 37.2 27.15 37.2 27.4 36.9 27.7 36.6 27.7 36.15
M 20.15 28
Q 19.3 28 18.6 28.65 18 29.35 18 30.15 18 31.15 18.6 31.75 19.3 32.4 20.15 32.4 21.15 32.4 21.7 31.75 22.35 31.15 22.35 30.15 22.35 29.35 21.7 28.65 21.15 28 20.15 28
M 57.8 34.85
Q 57.8 31.3 55.25 28.8 52.8 26.3 49.3 26.3 45.75 26.3 43.25 28.8 40.75 31.3 40.75 34.85 40.75 38.35 43.25 40.8 45.75 43.35 49.3 43.35 52.8 43.35 55.25 40.8 57.8 38.35 57.8 34.85
M 53.9 28.3
Q 55.75 30.15 55.75 32.8 55.75 35.5 53.9 37.3 52.05 39.35 49.35 39.35 46.65 39.35 44.8 37.3 42.95 35.5 42.95 32.8 42.95 30.15 44.8 28.3 46.65 26.4 49.35 26.4 52.05 26.4 53.9 28.3
M 48.85 30.25
Q 48.85 29.45 48.2 28.75 47.65 28.1 46.65 28.1 45.8 28.1 45.1 28.75 44.5 29.45 44.5 30.25 44.5 31.25 45.1 31.85 45.8 32.5 46.65 32.5 47.65 32.5 48.2 31.85 48.85 31.25 48.85 30.25
M 54.2 36.1
Q 54.1 35.75 53.9 35.4 53.65 35.15 53.15 35.15 52.7 35.15 52.4 35.4 52.05 35.8 52.05 36.25 52.05 36.7 52.4 37 52.7 37.25 53.05 37.3 53.1 37.3 53.15 37.3 53.65 37.3 53.9 37 54.2 36.7 54.2 36.25 54.2 36.2 54.2 36.1 Z"/>

<path fill="#2F2F2F" stroke="none" d="
M 18.3 28.2
Q 16.45 30.05 16.45 32.7 16.45 35.4 18.3 37.2 20.15 39.25 22.85 39.25 25.55 39.25 27.4 37.2 29.25 35.4 29.25 32.7 29.25 30.05 27.4 28.2 25.55 26.3 22.85 26.3 20.15 26.3 18.3 28.2
M 18.6 28.65
Q 19.3 28 20.15 28 21.15 28 21.7 28.65 22.35 29.35 22.35 30.15 22.35 31.15 21.7 31.75 21.15 32.4 20.15 32.4 19.3 32.4 18.6 31.75 18 31.15 18 30.15 18 29.35 18.6 28.65
M 27.7 36
Q 27.7 36.1 27.7 36.15 27.7 36.6 27.4 36.9 27.15 37.2 26.65 37.2 26.6 37.2 26.55 37.2 26.2 37.15 25.9 36.9 25.55 36.6 25.55 36.15 25.55 35.7 25.9 35.3 26.2 35.05 26.65 35.05 27.15 35.05 27.4 35.3 27.6 35.65 27.7 36
M 55.75 32.8
Q 55.75 30.15 53.9 28.3 52.05 26.4 49.35 26.4 46.65 26.4 44.8 28.3 42.95 30.15 42.95 32.8 42.95 35.5 44.8 37.3 46.65 39.35 49.35 39.35 52.05 39.35 53.9 37.3 55.75 35.5 55.75 32.8
M 53.9 35.4
Q 54.1 35.75 54.2 36.1 54.2 36.2 54.2 36.25 54.2 36.7 53.9 37 53.65 37.3 53.15 37.3 53.1 37.3 53.05 37.3 52.7 37.25 52.4 37 52.05 36.7 52.05 36.25 52.05 35.8 52.4 35.4 52.7 35.15 53.15 35.15 53.65 35.15 53.9 35.4
M 48.2 28.75
Q 48.85 29.45 48.85 30.25 48.85 31.25 48.2 31.85 47.65 32.5 46.65 32.5 45.8 32.5 45.1 31.85 44.5 31.25 44.5 30.25 44.5 29.45 45.1 28.75 45.8 28.1 46.65 28.1 47.65 28.1 48.2 28.75 Z"/>
</g>

<path id="Layer0_0_1_STROKES" stroke="#2F2F2F" stroke-width="3" stroke-linejoin="round" stroke-linecap="round" fill="none" d="
M 56.6 23.7
L 55.3 23.7
Q 50.7 23.7 48.85 22.1 47.4 20.65 46.75 19.55
M 15.6 23.6
Q 21.15 23.8 23.3 22 24.75 20.55 25.4 19.45
M 30 55.25
Q 36.3 53.15 42 55.25"/>
</defs>

<g id="_____1">
<g transform="matrix( 1, 0, 0, 1, 0,0) ">
<use xlink:href="#Layer1_0_MEMBER_0_MEMBER_0_MEMBER_0_MEMBER_0_FILL"/>
</g>

<g transform="matrix( 1, 0, 0, 1, -41.25,0.9) ">
<use xlink:href="#Layer1_0_MEMBER_1_MEMBER_0_FILL"/>
</g>

<g transform="matrix( 1, 0, 0, 1, -41.25,0.9) ">
<use xlink:href="#Layer1_0_MEMBER_1_MEMBER_1_FILL"/>
</g>

<g transform="matrix( 1, 0, 0, 1, -41.25,0.9) ">
<use xlink:href="#Layer1_0_MEMBER_1_MEMBER_2_FILL"/>
</g>

<g transform="matrix( 1, 0, 0, 1, -41.25,0.9) ">
<use xlink:href="#Layer1_0_MEMBER_1_MEMBER_3_FILL"/>
</g>

<g transform="matrix( 1, 0, 0, 1, -41.25,0.9) ">
<use xlink:href="#Layer1_0_MEMBER_1_MEMBER_4_FILL"/>
</g>

<g transform="matrix( 1, 0, 0, 1, -41.25,0.9) ">
<use xlink:href="#Layer1_0_MEMBER_1_MEMBER_5_FILL"/>
</g>

<g transform="matrix( 1, 0, 0, 1, -41.25,0.9) ">
<use xlink:href="#Layer1_0_MEMBER_1_MEMBER_6_FILL"/>
</g>

<g transform="matrix( 1, 0, 0, 1, -41.25,0.9) ">
<use xlink:href="#Layer1_0_MEMBER_1_MEMBER_7_FILL"/>
</g>

<g transform="matrix( 1, 0, 0, 1, -41.25,0.9) ">
<use xlink:href="#Layer1_0_MEMBER_1_MEMBER_8_FILL"/>
</g>

<g transform="matrix( 1, 0, 0, 1, -41.25,0.9) ">
<use xlink:href="#Layer1_0_MEMBER_1_MEMBER_9_FILL"/>
</g>

<g transform="matrix( 1, 0, 0, 1, -41.25,0.9) ">
<use xlink:href="#Layer1_0_MEMBER_1_MEMBER_10_FILL"/>
</g>

<g transform="matrix( 1, 0, 0, 1, -41.25,0.9) ">
<use xlink:href="#Layer1_0_MEMBER_1_MEMBER_11_FILL"/>
</g>

<g transform="matrix( 1, 0, 0, 1, -41.25,0.9) ">
<use xlink:href="#Layer1_0_MEMBER_1_MEMBER_12_FILL"/>
</g>

<g transform="matrix( 1, 0, 0, 1, -41.25,0.9) ">
<use xlink:href="#Layer1_0_MEMBER_1_MEMBER_13_FILL"/>
</g>

<g transform="matrix( 1, 0, 0, 1, -41.25,0.9) ">
<use xlink:href="#Layer1_0_MEMBER_1_MEMBER_14_FILL"/>
</g>

<g transform="matrix( 1, 0, 0, 1, -41.25,0.9) ">
<use xlink:href="#Layer1_0_MEMBER_1_MEMBER_15_FILL"/>
</g>

<g transform="matrix( 1, 0, 0, 1, -41.25,0.9) ">
<use xlink:href="#Layer1_0_MEMBER_1_MEMBER_16_FILL"/>
</g>

<g transform="matrix( 1, 0, 0, 1, -41.25,0.9) ">
<use xlink:href="#Layer1_0_MEMBER_1_MEMBER_17_FILL"/>
</g>

<g transform="matrix( 1, 0, 0, 1, -41.25,0.9) ">
<use xlink:href="#Layer1_0_MEMBER_1_MEMBER_18_FILL"/>
</g>

<g transform="matrix( 1, 0, 0, 1, -41.25,0.9) ">
<use xlink:href="#Layer1_0_MEMBER_1_MEMBER_19_FILL"/>
</g>

<g transform="matrix( 1, 0, 0, 1, -41.25,0.9) ">
<use xlink:href="#Layer1_0_MEMBER_1_MEMBER_20_FILL"/>
</g>

<g transform="matrix( 1, 0, 0, 1, -41.25,0.9) ">
<use xlink:href="#Layer1_0_MEMBER_1_MEMBER_21_FILL"/>
</g>

<g transform="matrix( 1, 0, 0, 1, 0.95,0.9) ">
<use xlink:href="#Layer1_0_MEMBER_2_MEMBER_0_FILL"/>
</g>

<g transform="matrix( 1, 0, 0, 1, 0.95,0.9) ">
<use xlink:href="#Layer1_0_MEMBER_2_MEMBER_1_FILL"/>
</g>

<g transform="matrix( 1, 0, 0, 1, 0.95,0.9) ">
<use xlink:href="#Layer1_0_MEMBER_2_MEMBER_2_FILL"/>
</g>

<g transform="matrix( 1, 0, 0, 1, 0.95,0.9) ">
<use xlink:href="#Layer1_0_MEMBER_2_MEMBER_3_FILL"/>
</g>

<g transform="matrix( 1, 0, 0, 1, 0.95,0.9) ">
<use xlink:href="#Layer1_0_MEMBER_2_MEMBER_4_FILL"/>
</g>

<g transform="matrix( 1, 0, 0, 1, 0.95,0.9) ">
<use xlink:href="#Layer1_0_MEMBER_2_MEMBER_5_FILL"/>
</g>

<g transform="matrix( 1, 0, 0, 1, 0.95,0.9) ">
<use xlink:href="#Layer1_0_MEMBER_2_MEMBER_6_FILL"/>
</g>

<g transform="matrix( 1, 0, 0, 1, 0.95,0.9) ">
<use xlink:href="#Layer1_0_MEMBER_2_MEMBER_7_FILL"/>
</g>

<g transform="matrix( 1, 0, 0, 1, 0.95,0.9) ">
<use xlink:href="#Layer1_0_MEMBER_2_MEMBER_8_FILL"/>
</g>

<g transform="matrix( 1, 0, 0, 1, 0.95,0.9) ">
<use xlink:href="#Layer1_0_MEMBER_2_MEMBER_9_FILL"/>
</g>

<g transform="matrix( 1, 0, 0, 1, 0.95,0.9) ">
<use xlink:href="#Layer1_0_MEMBER_2_MEMBER_10_FILL"/>
</g>

<g transform="matrix( 1, 0, 0, 1, 0.95,0.9) ">
<use xlink:href="#Layer1_0_MEMBER_2_MEMBER_11_FILL"/>
</g>

<g transform="matrix( 1, 0, 0, 1, 0.95,0.9) ">
<use xlink:href="#Layer1_0_MEMBER_2_MEMBER_12_FILL"/>
</g>

<g transform="matrix( 1, 0, 0, 1, 0.95,0.9) ">
<use xlink:href="#Layer1_0_MEMBER_2_MEMBER_13_FILL"/>
</g>

<g transform="matrix( 1, 0, 0, 1, 0.95,0.9) ">
<use xlink:href="#Layer1_0_MEMBER_2_MEMBER_14_FILL"/>
</g>

<g transform="matrix( 1, 0, 0, 1, 0.95,0.9) ">
<use xlink:href="#Layer1_0_MEMBER_2_MEMBER_15_FILL"/>
</g>

<g transform="matrix( 1, 0, 0, 1, 0.95,0.9) ">
<use xlink:href="#Layer1_0_MEMBER_2_MEMBER_16_FILL"/>
</g>

<g transform="matrix( 1, 0, 0, 1, 0.95,0.9) ">
<use xlink:href="#Layer1_0_MEMBER_2_MEMBER_17_FILL"/>
</g>

<g transform="matrix( 1, 0, 0, 1, 0.95,0.9) ">
<use xlink:href="#Layer1_0_MEMBER_2_MEMBER_18_FILL"/>
</g>

<g transform="matrix( 1, 0, 0, 1, 0.95,0.9) ">
<use xlink:href="#Layer1_0_MEMBER_2_MEMBER_19_FILL"/>
</g>

<g transform="matrix( 1, 0, 0, 1, 0.95,0.9) ">
<use xlink:href="#Layer1_0_MEMBER_2_MEMBER_20_FILL"/>
</g>

<g transform="matrix( 1, 0, 0, 1, 0.95,0.9) ">
<use xlink:href="#Layer1_0_MEMBER_2_MEMBER_21_FILL"/>
</g>
</g>

<g id="Camada_2">
<g transform="matrix( 1, 0, 0, 1, 0,0) ">
<use xlink:href="#Layer0_0_FILL"/>

<use xlink:href="#Layer0_0_1_STROKES"/>
</g>
</g>
</svg>
