<svg xmlns="http://www.w3.org/2000/svg" xmlns:xlink="http://www.w3.org/1999/xlink" preserveAspectRatio="none" viewBox="0 0 72 72"><defs><linearGradient id="a" x1="36" x2="36" y1="40.987" y2="12.812" gradientUnits="userSpaceOnUse" spreadMethod="pad"><stop offset="0%" stop-color="#FCC21B"/><stop offset="100%" stop-color="#ED6C30"/></linearGradient><path id="b" fill="url(#a)" d="M36 5.6q-22.2 0-30.95 20.5Q.25 37.35.25 52.45q0 5.8 10.45 9.9 10.5 4.1 25.3 4.1t25.25-4.1q10.45-4.1 10.45-9.9 0-15.1-4.8-26.35Q58.2 5.6 36 5.6z"/><g id="c"><path fill="#ED6C30" d="M39.7 39.3h-1.75q-1.05-.05-1.75-.05h-.35q-.7 0-1.75.05h-1.75q-8.3.6-9.55 11.05.1 2.65 2.7 2.7 5.25-.55 10.5-.55t10.55.55q2.6-.05 2.65-2.7Q48 39.9 39.7 39.3z"/><path fill="#2F2F2F" d="M17.6 27.25q-.25 3.2.85 4.95 1.15 1.95 3.4 2.2 2.25.3 4.05-.85 1.8-1.2 2.35-3.5t-1.75-7.3q-4.05 3.05-8.9 4.5m26.2 2.8q.55 2.3 2.35 3.5 1.8 1.15 4.05.85 2.25-.25 3.4-2.2 1.1-1.75.8-4.95-4.8-1.45-8.85-4.5-2.3 5-1.75 7.3z"/></g><path id="d" fill="#40C0E7" d="M99.65 85.4q2.75.25 4.35-2.05 1.3-2 1.3-4.8.05-5.3-1.8-10.8-1.6-4.9-2.55-5-1.05-.1-3.7 4.5-3 5.2-3.4 9.8-.25 3.55 1.3 5.85t4.5 2.5z"/><path id="e" fill="#40C0E7" d="M99.65 85.4q2.75.25 4.35-2.05 1.3-2 1.3-4.8.05-5.3-1.8-10.8-1.6-4.9-2.55-5-1.05-.1-3.7 4.5-3 5.2-3.4 9.8-.25 3.55 1.3 5.85t4.5 2.5z"/><path id="f" fill="#40C0E7" d="M99.65 85.4q2.75.25 4.35-2.05 1.3-2 1.3-4.8.05-5.3-1.8-10.8-1.6-4.9-2.55-5-1.05-.1-3.7 4.5-3 5.2-3.4 9.8-.25 3.55 1.3 5.85t4.5 2.5z"/></defs><use xlink:href="#b"/><use xlink:href="#c"/><use transform="matrix(-.50262 0 0 .50262 115.35 4)" xlink:href="#d"/><use transform="matrix(-.5625 0 0 .5625 115.7 11.5)" xlink:href="#e"/><use transform="matrix(-.44302 0 0 .44302 104.5 -3.9)" xlink:href="#f"/></svg>