<svg xmlns="http://www.w3.org/2000/svg" xmlns:xlink="http://www.w3.org/1999/xlink" preserveAspectRatio="none" viewBox="0 0 72 72"><defs><path id="a" fill="#FCC21B" d="M127.65 93.35q0-27-8.5-47.05-15.6-36.65-55.3-36.65Q24.2 9.65 8.6 46.3.1 66.35.1 93.35q0 10.4 18.7 17.7 18.65 7.35 45.05 7.35 26.45 0 45.1-7.35 18.7-7.3 18.7-17.7z"/><path id="c" fill="#2F2F2F" d="M19 31.7q.04.094.05.2.25 2.25 1.75 3.75 1.5 1.45 3.4 1.25 1.85-.15 3.05-1.9 1.15-1.7.9-3.95-.2-2.25-1.7-3.75-.82-.82-1.75-1.2-2.668 1.803-5.7 5.6z"/><path id="d" fill="#2F2F2F" d="M52.95 28.9q-.12-1.049-.5-1.95-3.938.756-7.9-.85-.93 1.632-.75 3.65.25 2.25 1.7 3.7 1.5 1.5 3.4 1.3 1.85-.2 3.05-1.9 1.2-1.7 1-3.95z"/><path id="b" fill="none" stroke="#2F2F2F" stroke-linecap="round" stroke-linejoin="round" stroke-width="3" d="M46.45 23.45q2.15 1.35 7.5 1.8M16.2 27.1q2.284-3.468 5.7-5.25"/><path id="e" fill="none" stroke="#2F2F2F" stroke-linecap="round" stroke-linejoin="round" stroke-width="3" d="M18.1 45.3q0 2.2 3.05 3.85 3 1.6 5.05-.85l1.7-1.9q1.85-1.85 4.05-.5l3.2 2.75q2.9 2.05 4.95-.4l2.5-3.15q1.7-1.85 3.9-.15l2.6 3.75q2.45 1.9 5 .1 1.85-1.4 3-4.3"/></defs><use transform="scale(.5625)" xlink:href="#a"/><use xlink:href="#b"/><use xlink:href="#c"/><use transform="rotate(5 32.817 28.972)" xlink:href="#d"/><g><use xlink:href="#e"/></g></svg>