<svg xmlns="http://www.w3.org/2000/svg" xmlns:xlink="http://www.w3.org/1999/xlink" preserveAspectRatio="none" viewBox="0 0 72 72"><defs><path id="a" fill="#4FC3F7" d="M127.55 96.25q0-26.85-8.5-46.85Q103.55 12.85 64 12.85T8.9 49.4Q.4 69.4.4 96.25.4 106.6 19 113.9q18.65 7.3 45 7.3t44.95-7.3q18.6-7.3 18.6-17.65z"/><path id="b" fill="#2F2F2F" d="M36 56.5q0 4 2.35 6.8 2.3 2.8 5.6 2.8 3.25 0 5.6-2.8 2.3-2.85 2.3-6.8 0-4-2.3-6.85-2.35-2.8-5.6-2.8-3.3 0-5.6 2.8Q36 52.5 36 56.5z"/><path id="c" fill="#2F2F2F" d="M91.9 56.5q0-4-2.3-6.85-2.3-2.8-5.6-2.8-3.25 0-5.6 2.8-2.3 2.85-2.3 6.85 0 3.95 2.3 6.8 2.35 2.8 5.6 2.8 3.3 0 5.6-2.8t2.3-6.8z"/><path id="d" fill="#E3F2FD" d="M61.3 46.8q0-3.25-2.3-5.55-2.35-2.35-5.55-2.35h-34.9q-3.25 0-5.55 2.35-2.3 2.3-2.3 5.55t2.3 5.55q2.3 2.3 5.55 2.3h34.9q3.2 0 5.55-2.3 2.3-2.3 2.3-5.55z"/><path id="e" fill="#2F2F2F" d="M104.85 97.5q4.15-4.15 4.15-9.9t-4.15-9.85q-4.1-4.15-9.85-4.15H33q-5.8 0-9.9 4.15-4.1 4.1-4.1 9.85 0 5.8 4.1 9.9 4.1 4.1 9.9 4.1h62q5.75 0 9.85-4.1m-2.8-16.95Q105 83.5 105 87.6q0 4.15-2.95 7.1-2.9 2.9-7.05 2.9H33q-4.15 0-7.1-2.9-2.9-2.95-2.9-7.1 0-4.15 2.9-7.05 2.95-2.95 7.1-2.95h62q4.15 0 7.05 2.95z"/><path id="f" fill="#2F2F2F" d="M50.55 75.2H47.4v25h3.15v-25z"/><path id="g" fill="#2F2F2F" d="M35.55 75.2H32.4v25h3.15v-25z"/><path id="h" fill="#2F2F2F" d="M95.55 75.2H92.4v25h3.15v-25z"/><path id="i" fill="#2F2F2F" d="M80.55 75.2H77.4v25h3.15v-25z"/><path id="j" fill="#2F2F2F" d="M65.55 75.2H62.4v25h3.15v-25z"/><path id="k" fill="#2F2F2F" d="M107.5 89.2v-3.15H20.45v3.15h87.05z"/><path id="m" fill="#BBDEFB" d="M8.3 36.65q-.009-1.026-.05-2.25-.026-4.674-2.4-11-2.216 3.726-3.2 7.9-.974 4.171-1.55 8.3l5.55 20.1Q7.879 48.175 8.3 36.65m62.65 3.25q-3.75-.716-6.4.15-1.487.93-1.25 3 .886 7.557 2.45 24.9 6.185-19.255 5.2-28.05M58.7 12.8q-1.308-1.199-3.1-2.6-1.73-1.416-2.65-1.95-.933-.47-2.4-.7.6 1.3 3 8.35.95 2.8 3.85 16.8 6.266-14.971 4.55-16.1-1.886-2.602-3.25-3.8z"/><path id="n" fill="#E3F2FD" d="M46.55 4.15q-1.064-.538-2.4-.95-1.741-.544-3.95-.9-2.848-.415-6.5-.5-8.545-.19-14 1.65-5.414 1.88-9.5 7.45-4.033 5.57-3.35 10.55 7.187-5.276 15.9-8.35 8.765-3.069 13.85-3.1 1.253.022 2.65-.2 4.262-.541 9.85-2.85-.874-2.027-2.55-2.8z"/><path id="l" fill="none" stroke="#2F2F2F" stroke-linecap="round" stroke-linejoin="round" stroke-width="3" d="M54.05 21.85l-1.15-.1q-4-.35-5.5-1.85-1.15-1.4-1.65-2.45m-27.45 4.4q4.9-.2 6.65-1.95 1.15-1.4 1.65-2.45"/></defs><use transform="translate(0 -2.5) scale(.5625)" xlink:href="#a"/><use transform="translate(0 -2.5) scale(.5625)" xlink:href="#b"/><use transform="translate(0 -2.5) scale(.5625)" xlink:href="#c"/><use xlink:href="#d"/><use transform="translate(0 -2.5) scale(.5625)" xlink:href="#e"/><use transform="matrix(.56242 0 0 .56242 0 -2.5)" xlink:href="#f"/><use transform="matrix(.56242 0 0 .56242 0 -2.5)" xlink:href="#g"/><use transform="matrix(.56242 0 0 .56242 0 -2.5)" xlink:href="#h"/><use transform="matrix(.56242 0 0 .56242 0 -2.5)" xlink:href="#i"/><use transform="matrix(.56242 0 0 .56242 0 -2.5)" xlink:href="#j"/><use transform="matrix(.56242 0 0 .56242 0 -2.5)" xlink:href="#k"/><g><use xlink:href="#l"/></g><g><use xlink:href="#m"/></g><g><use xlink:href="#n"/></g></svg>