<svg xmlns="http://www.w3.org/2000/svg" xmlns:xlink="http://www.w3.org/1999/xlink" preserveAspectRatio="none" viewBox="0 0 72 72"><defs><filter id="j" width="140%" height="140%" x="-20%" y="-20%" color-interpolation-filters="sRGB"><feColorMatrix in="SourceGraphic" result="result1" values="1 0 0 0 0 0 1 0 0 0 0 0 1 0 0 0 0 0 0.6 0"/></filter><path id="a" fill="#FE9040" d="M56.5 95.7q-.15.5-.5 1.75-.15.75-1.2 4.5-.75 2.7-1.45 3.95-.8 1.35-2.55 1.6-.8.1-3.15-.05-3.45-.3-5.15-.4-2.95-.2-5.15.05-1.05.1-2.15.45-1.75.55-1.75 1.3 0 .55.9.85.5.15 1.35.3.35.1 2.1.35 1.3.2 1.5.5.3.7-1.6 2.25-1.2 1.1-1.3 1.2-.9.95-.65 1.5.35.85 3.25.2.65-.15 2.2-.6 1.35-.3 1.95-.15.7.25-.55 2.1-1.3 1.9-.95 2.15.65.5 2.25.1 1.35-.35 2.1-.85 2.5-1.55 3.4-2.2 1.1-.8 2.5-2.1 1.9-1.65 2.8-2.5 1.55-1.45 2.35-2.85.8-1.3 1.2-3.35.35-2.35.6-3.5.95-3.05 1.35-4.55.7-2.65.1-2.75-2.8-.6-3.3-.3-.2.15-.5 1.05z"/><path id="b" fill="#FE9040" d="M81.35 96.35q-.05.5-.15 1.85-.1 2-.35 4.6-.35 3.1-.75 4.2-.5 1.45-2.2 2.05-.65.2-3.1.5-3.4.35-5.15.55-3 .35-5.05 1-1 .3-2 .85-1.65.85-1.5 1.6.1.55 1.05.65.5.05 1.35.05.2 0 2.15-.05 1.3-.05 1.55.25.3.4-.15 1.15-.25.4-1 1.35-.85 1.1-1.05 1.4-.7 1.1-.35 1.6.35.55 1.6.2.2-.05 1.65-.6.55-.25 2-.95 1.3-.6 1.9-.55.75.15-.15 2.15-.95 2.1-.55 2.3.75.35 2.25-.3 1.25-.6 1.85-1.2 2.2-2 3-2.8.95-1 2.05-2.55 1.55-1.95 2.3-2.95 1.25-1.75 1.8-3.25.5-1.4.5-3.5-.05-2.4 0-3.6.35-3.1.45-4.65.25-2.75-.35-2.75-2.9-.1-3.3.3-.2.2-.3 1.1z"/><path id="c" fill="#A7300F" d="M60.45 96.55q.3-1.5-.15-1.6-2.7-.6-3.3-.3-.2.15-.5 1.05-.15.5-.5 1.75l-.1.45q1.9 0 2.9.7.6.45.75 1.2.7-2.35.9-3.25z"/><path id="d" fill="#A7300F" d="M81.2 98.15l-.05.8q1.7-.1 2.7.25.55.2 1.2 1.1.3-3.05.35-3.65.05-1.75-.45-1.7-2.9-.1-3.3.3-.2.2-.3 1.1-.05.5-.15 1.8z"/><path id="e" fill="#727F48" d="M49.4 42.7l.15-.85q.45-2.3 4.7-12.7Q58 20 58.05 15.4q.05-5-4.55-8.8-5.45-4.45-12.95-1.15-6.95 3.1-7.8 10.15-.4 3.55.55 6.45 1.4 3.75 4.2 5.15 1.3.65 4.05.9 1.35.15.95 1.15-.35.85-1.6 1.9-4.15 3.45-7.7 7.25 8.75 1.6 16.2 4.3z"/><path id="f" fill="#FFC148" d="M37.5 22.4l-22.55 2.5q3.1 1.5 7.05 1.8 2 .15 6 0 4.3-.1 6.6 0 1.6.1 1.9 0 .75-.2 1-1.45.25-1.1.3-1.5.05-.65-.3-1.35z"/><path id="g" fill="#333" d="M42.95 11.65q-1.1 0-1.85.75-.8.8-.8 1.9 0 1.1.8 1.85.75.8 1.85.8t1.85-.8q.8-.75.8-1.85t-.8-1.9q-.75-.75-1.85-.75z"/><path id="h" fill="#FFF" d="M42.45 13q-.6 0-.6.65t.6.65q.65 0 .65-.65t-.65-.65z"/><path id="i" fill="#7D7D7D" d="M115.25 82.35q-.25-.3-2.75-1.7-7.55-4.45-17.55-11.15-1.5-1-12.05-8.25-9.75-7.3-18.7-10.35-6-2.05-10.2-1.9-1.95.1-2.9-.3-1.3-.45-1.7-1.8-6.85-2.3-19.75-4.5-8.35 10.4-8.75 20.05-.2 4.55 2.25 9.85 2.75 5.8 7.9 10.7Q43.8 95.1 65.2 96.4q20.1 1.25 34.8-3.8 7.4-2.5 13.95-7.25 2.4-1.7 1.3-3z"/><path id="k" fill="#7D7D7D" d="M88.4 7.25q-.25-.3-2.75-1.7l-9-5.55q1 1.2 1.45 2.7.95 2.95-1.9 4.65-3.3 2.05-12.5 4.45-15 3.9-31.2 2.9Q12.8 13.55 0 3.2q5.5 7.3 14.45 11.95 10.35 5.35 23.9 6.2 20.15 1.2 34.8-3.8 7.25-2.5 13.95-7.25 2.4-1.75 1.3-3.05z"/><path id="l" fill="#FEF3CD" d="M49.4 46.9q-.5-1.55 0-4.2-7.05-2.55-16.2-4.35-2.1 2.25-3.55 4.05 12.9 2.2 19.75 4.5z"/><path id="m" fill="#FE9040" d="M29.25 24.95l4.95-.1q.75.05 2 .1.9.1 1.25.6.3-1.55.35-1.55.1-.95-.3-1.6l-8.25 2.55z"/><path id="n" fill="#FFC148" d="M38.05 20.35q-2.65-2.65-3.65-4.7-.3-.7-.7-1.1-.9-.8-1.65.75-1.25 2.65-3.35 4.4-3.05 2.55-7.3 2.4-5.45-.1-6.95.05-2.05.25-2.15 1.35-.05 1.2 3 1.85 2.9.65 6 .35 2-.2 7.6-.75 5.2-.65 8.1-1.8 1.4-.55 1.55-1.5.1-.75-.5-1.3z"/><path id="o" fill="#885C52" d="M96 78.85q-10-5-13.05-6.9-3-1.85-9.75-5.7-8.5-4.85-9.15-5.2-4.05-2.35-8.7-2.5-5.55-.1-7.75 3.65-2.75 4.85-.85 9.8 2.3 6 11.15 10.1 8.75 4.1 20.2 5.3 8.55.95 22 .45 3-.2 4.4-1.6 1.25-1.25.45-2.45-.5-.75-8.95-4.95z"/><path id="p" fill="#BB917A" d="M94.85 77.35q-10.05-6.4-11.9-7.55-3-1.85-9.75-5.7-8.75-4.95-9.15-5.2-4.05-2.35-8.7-2.5-5.55-.15-7.75 3.6-2.75 4.85-.85 9.85 2.3 6 11.15 10.1 8.65 4 20.4 5.1 7.9.7 22.2.25 2.7.15 4-.5 1.45-.7-.5-1.8-1.6-.85-9.15-5.65z"/><path id="q" fill="#727F48" d="M15.25.1q-.2-.3-1.9 1.15-2.2 1.85-4 2.35-1.3.4-2.9.55-2.05.25-3.4-.1-1-.35-1.55-.45-1-.2-1.15.35l-.3 1.1q-.1.65.2 1.1.7.95 4.5.75 3.25-.05 5.4-1.05Q12.3 4.9 14.1 2.7 15.7.65 15.25.1z"/></defs><use transform="scale(.5625)" xlink:href="#a"/><use transform="scale(.5625)" xlink:href="#b"/><use transform="scale(.5625)" xlink:href="#c"/><use transform="scale(.5625)" xlink:href="#d"/><use transform="scale(.5625)" xlink:href="#e"/><use transform="scale(.5625)" xlink:href="#f"/><use transform="scale(.5625)" xlink:href="#g"/><use transform="scale(.5625)" xlink:href="#h"/><use transform="scale(.5625)" xlink:href="#i"/><use filter="url(#j)" transform="translate(15.1 42.2) scale(.5625)" xlink:href="#k"/><use transform="scale(.5625)" xlink:href="#l"/><use transform="scale(.5625)" xlink:href="#m"/><use transform="scale(.5625)" xlink:href="#n"/><use transform="scale(.5625)" xlink:href="#o"/><use transform="scale(.5625)" xlink:href="#p"/><use filter="url(#j)" transform="translate(21.6 11.3) scale(.5625)" xlink:href="#q"/></svg>