<svg xmlns="http://www.w3.org/2000/svg" xmlns:xlink="http://www.w3.org/1999/xlink" preserveAspectRatio="none" viewBox="0 0 72 72"><defs><path id="a" fill="#CC9970" d="M63.95 10.35q-.403-3.968-2.15-4.5-8.317-1.96-16.1 0-2.755.929-2.95 5.35l-.45 18.45q.224 7.378-8.85 14.05l-7.2 6.3q-5.612 4.621-10.2 4.7-4.552.077-6 .3-1.434.236-2.15.6-.672.348-1.35.6-.666.304-2.15.25-1.487-.004-1.85 1.65-.368 1.713 1.15 3.05-.046 1.888 2.35 3.4.406 1.492 3.15 1.4v.15q.534 1.459 3.5.95.312 1.581 2.5 1.85.879-.077 1.9-.45 1.501-.432 3.55-.1.361.102.75.15 4.432.102 9.35-1.2 4.623-1.397 8.75-3.6 7.091-3.8 15.6-4.2 3.49-.195 6.8-1.15 6.39-1.263 7.75-7.2.649-4.505-1.65-8-3.138-4.5-3.25-13.7l-.8-19.1z"/><path id="c" fill="#99674F" d="M20.05 63.55q-.108-.154-.3-.2-4.505-.813-7.45 3.4-.028.062-.05.1-.054.106-.05.2.215-.007.45-.05.041.287.15.55.201-.062.3-.25 2.555-3.638 6.45-2.95.204.028.35-.1.204-.108.25-.3.028-.204-.1-.4M3.3 60.75q.178.195.35.35 0 .25.05.45.005.046 0 .1.056-.013.1-.05.208-.01.3-.2 1.054-1.591 3.35-2.5.217-.055.3-.25.092-.186 0-.4-.055-.166-.25-.25-.186-.092-.4-.05-2.59 1.017-3.8 2.8m12.45.5q.208-.048.3-.25.128-.15.05-.35-.01-.208-.2-.35-.15-.09-.35-.05-5.12 1.168-6.85 5.55v.05q.006.05 0 .1.194.005.4 0l.05.1q.095.22.25.4.195-.083.25-.3 1.534-3.87 6.1-4.9m-5.1-.5q.227-.032.35-.2.127-.168.1-.4-.031-.177-.2-.3-.168-.127-.4-.1-2.786.328-4.9 4.5l.4.25q.07.28.25.5.16-.058.25-.25 1.808-3.631 4.15-4z"/><path id="b" fill="none" stroke="#99674F" stroke-linecap="round" stroke-linejoin="round" stroke-width="2" d="M55.65 51.8q7.9-5.2 4.15-11.7"/></defs><use xlink:href="#a"/><use xlink:href="#b"/><use xlink:href="#c"/></svg>