
<svg xmlns="http://www.w3.org/2000/svg" version="1.1" xmlns:xlink="http://www.w3.org/1999/xlink" preserveAspectRatio="none" x="0px" y="0px" width="72px" height="72px" viewBox="0 0 72 72">
<defs>
<g id="Layer0_1_FILL">
<path fill="#FFA000" stroke="none" d="
M 8.65 56.3
L 8.6 56.2 8.6 56.3 8.65 56.3 Z"/>

<path fill="#EF6C00" stroke="none" d="
M 43.85 38.05
Q 43.9 37.95 43.95 37.9 44.05 37.9 44.2 37.9 44.4 37.95 44.55 38.2 48.6 46.45 56.65 52.2 59.6 54.35 62.15 55.6 62.8 55.9 63.5 56.15
L 63.9 53.45 63.9 53.35 64.4 49.95 64.9 50.15
Q 65.5 50.45 65.95 50.8 66.7 51.35 67 51.7
L 67 37.8
Q 66.55 35.35 65.55 32.95 57.1 17.7 40.65 15.9 40.6 15.9 40.55 15.9
L 40.5 15.9
Q 38.4 15.7 36.2 15.7 34 15.7 31.95 15.9
L 31.8 15.9
Q 31.75 15.9 31.7 15.9 15.4 17.7 6.9 32.95 6.85 33.05 6.75 33.2 5.35 36.8 5.05 40.4
L 5.05 51.7
Q 5.45 51.35 6.15 50.85 6.6 50.45 7.25 50.15
L 7.7 49.95 8.25 53.65 8.25 53.85 8.6 56.2 8.65 56.3
Q 9.3 56.15 10 56.05 12.1 55.6 14.2 55.05
L 26.55 50.15 31.35 47.45
Q 31.75 47.15 32.15 46.9 38.85 42.75 43.85 38.05 Z"/>
</g>

<path id="Layer0_0_1_STROKES" stroke="#2F2F2F" stroke-width="3" stroke-linejoin="round" stroke-linecap="round" fill="none" d="
M 3.5 3.5
L 68.5 3.5 68.5 68.5 3.5 68.5 3.5 3.5 Z"/>

<path id="Layer0_1_1_STROKES" stroke="#E75625" stroke-width="0.1" stroke-linejoin="round" stroke-linecap="round" fill="none" d="
M 10.878652954101561 54.48608093261719
L 10.924459075927736 54.57769317626953"/>
</defs>

<g id="Camada_1">
<g transform="matrix( 1, 0, 0, 1, 0,0) ">
<use xlink:href="#Layer0_0_1_STROKES"/>
</g>

<g transform="matrix( 0.9161224365234375, 0, 0, 0.9161224365234375, 3,3) ">
<use xlink:href="#Layer0_1_FILL"/>

<use xlink:href="#Layer0_1_1_STROKES" transform="matrix( 1.091552734375, 0, 0, 1.091552734375, -3.25,-3.25) "/>
</g>
</g>
</svg>
