<svg xmlns="http://www.w3.org/2000/svg" xmlns:xlink="http://www.w3.org/1999/xlink" preserveAspectRatio="none" viewBox="0 0 72 72"><defs><path id="b" fill="#E59600" d="M106.9 66.05h-3.6v20.3q4.75 0 7.85-2.4 3.6-2.8 3.6-8.05 0-5.3-3.9-8.1l-3.95-1.75z"/><path id="c" fill="#E59600" d="M24.7 66.05h-3.65l-3.9 1.75q-3.95 2.8-3.95 8.1 0 5.25 3.6 8.05 3.1 2.4 7.9 2.4v-20.3z"/><path id="d" fill="#FCC21B" d="M106.75 73.8q0-30.45-8.65-45.45Q87.85 10.6 64 10.6q-23.9 0-34.15 17.75-8.65 15-8.65 45.45 0 25.9 14.6 38.45Q47.05 122 64 122q16.8 0 28.1-9.65 14.65-12.55 14.65-38.55z"/><path id="a" fill="none" stroke="#2F2F2F" stroke-linecap="round" stroke-linejoin="round" stroke-width="3" d="M68.5 68.5h-65v-65h65v65z"/></defs><use xlink:href="#a"/><use transform="matrix(.4926 0 0 .4926 4.5 2.1)" xlink:href="#b"/><use transform="matrix(.4926 0 0 .4926 4.5 2.1)" xlink:href="#c"/><use transform="matrix(.49268 0 0 .49268 4.5 3.35)" xlink:href="#d"/></svg>