
<svg xmlns="http://www.w3.org/2000/svg" version="1.1" xmlns:xlink="http://www.w3.org/1999/xlink" preserveAspectRatio="none" x="0px" y="0px" width="72px" height="72px" viewBox="0 0 72 72">
<defs>
<g id="Layer0_1_MEMBER_0_FILL">
<path fill="#FFA000" stroke="none" d="
M 64.85 22.55
Q 64.55 22.3 64.25 22.05 64.95 20.95 64.95 19.5 64.95 17.45 63.55 16 62.35 14.85 60.7 14.65 60.8 14.25 60.8 13.8 60.8 11.75 59.4 10.3 57.95 8.9 55.9 8.9 55.2 8.9 54.6 9.1 54.25 7.95 53.4 7.05 51.95 5.65 49.9 5.65 48.7 5.65 47.7 6.15 47.45 5.65 47 5.2 45.55 3.8 43.5 3.8 41.5 3.8 40.05 5.2 39.9 5.35 39.75 5.55 39.6 5.35 39.45 5.2 38 3.8 36 3.8 33.9822265625 3.8171875 32.55 5.2 32.4 5.35 32.25 5.55 32.1 5.35 31.95 5.2 30.5 3.8 28.5 3.8 26.45 3.8 25 5.2 24.55 5.65 24.3 6.15 23.3 5.65 22.1 5.65 20.05 5.65 18.6 7.05 17.75 7.95 17.4 9.1 16.8 8.9 16.1 8.9 14.05 8.9 12.6 10.3 11.2 11.75 11.2 13.8 11.2 14.25 11.3 14.65 9.65 14.85 8.45 16 7.05 17.45 7.05 19.5 7.05 20.95 7.75 22.05 7.45 22.3 7.15 22.55 5.75 24 5.75 26.05 5.75 27.9 6.9 29.25 6.8 29.3 6.75 29.35 5.35 30.8 5.35 32.85 5.35 34.9 6.75 36.3 7.2 36.75 7.7 37.05 11.8169921875 39.7806640625 11.9 44.7 14.65078125 43.74921875 15.4 43 16.85 41.6 16.85 39.55 16.85 39 16.75 38.5 17.7 38.15 18.5 37.35 19.95 35.95 19.95 33.9 19.95 33.8 19.95 33.7 21.25 33.4 22.3 32.35 23 31.7 23.35 30.9 23.75 30.95 24.2 30.95 26.2 30.95 27.65 29.5 29.1 30.95 31.15 30.95 32.5 30.95 33.6 30.3 34.65 30.95 36 30.95 37.35 30.95 38.4 30.3 39.5 30.95 40.85 30.95 42.9 30.95 44.35 29.5 45.8 30.95 47.8 30.95 48.25 30.95 48.65 30.9 49 31.7 49.7 32.35 50.75 33.4 52.05 33.7 52.05 33.8 52.05 33.9 52.05 35.95 53.5 37.35 54.3 38.15 55.25 38.5 55.15 39 55.15 39.55 55.15 41.6 56.6 43 57.35 43.75 60.1 44.7 60.2 39.8 64.3 37.05 64.8 36.75 65.25 36.3 66.65 34.9 66.65 32.85 66.65 30.8 65.25 29.35 65.2 29.3 65.1 29.25 66.25 27.9 66.25 26.05 66.25 24 64.85 22.55 Z"/>
</g>

<path id="Layer0_0_1_STROKES" stroke="#2F2F2F" stroke-width="3" stroke-linejoin="round" stroke-linecap="round" fill="none" d="
M 3.5 3.5
L 68.5 3.5 68.5 68.5 3.5 68.5 3.5 3.5 Z"/>
</defs>

<g id="Camada_1">
<g transform="matrix( 1, 0, 0, 1, 0,0) ">
<use xlink:href="#Layer0_0_1_STROKES"/>
</g>

<g transform="matrix( 1, 0, 0, 1, 0,11.75) ">
<use xlink:href="#Layer0_1_MEMBER_0_FILL"/>
</g>
</g>
</svg>
