<svg xmlns="http://www.w3.org/2000/svg" xmlns:xlink="http://www.w3.org/1999/xlink" preserveAspectRatio="none" viewBox="0 0 72 72"><defs><path id="b" fill="#E0E0E0" d="M43.15 37.85q.05-.1.1-.15h.25q.2.05.3.3 3.7 7.55 11.1 12.8 2.7 2 5.05 3.15l1.2.5.4-2.5v-.05l.45-3.15.45.2q.55.25.95.6.7.5 1 .8v-12.7q-.45-2.25-1.35-4.45-7.75-14-22.8-15.65H40.1q-1.9-.15-3.95-.15-2 0-3.9.15h-.2Q17.1 19.2 9.3 33.2q0 .1-.1.2-1.3 3.3-1.55 6.6v10.35q.35-.3 1-.75.4-.4 1-.65l.4-.2.5 3.4v.2l.35 2.15v.1q.6-.15 1.25-.25 1.95-.4 3.85-.9l11.3-4.5 4.4-2.5q.4-.25.75-.5 6.15-3.8 10.7-8.1z"/><path id="a" fill="none" stroke="#2F2F2F" stroke-linecap="round" stroke-linejoin="round" stroke-width="3" d="M3.5 3.5h65v65h-65v-65z"/><path id="c" fill="none" stroke="#E75625" stroke-linecap="round" stroke-linejoin="round" stroke-width=".1" d="M10.9 54.5v.1"/></defs><use xlink:href="#a"/><g><use xlink:href="#b"/><use xlink:href="#c"/></g></svg>