
<svg xmlns="http://www.w3.org/2000/svg" version="1.1" xmlns:xlink="http://www.w3.org/1999/xlink" preserveAspectRatio="none" x="0px" y="0px" width="72px" height="72px" viewBox="0 0 72 72">
<defs>
<g id="Layer0_0_MEMBER_0_MEMBER_0_MEMBER_0_FILL">
<path fill="#563E37" stroke="none" d="
M 106.9 66.05
L 103.3 66.05 103.3 86.35
Q 108.05 86.35 111.15 83.95 114.75 81.15 114.75 75.9 114.75 70.6 110.85 67.8
L 106.9 66.05 Z"/>
</g>

<g id="Layer0_0_MEMBER_0_MEMBER_0_MEMBER_1_FILL">
<path fill="#563E37" stroke="none" d="
M 24.7 66.05
L 21.05 66.05 17.15 67.8
Q 13.2 70.6 13.2 75.9 13.2 81.15 16.8 83.95 19.9 86.35 24.7 86.35
L 24.7 66.05 Z"/>
</g>

<g id="Layer0_0_MEMBER_0_MEMBER_1_FILL">
<path fill="#4C3734" stroke="none" d="
M 28.6 53.7
Q 28.45 54.05 28.8 54.65 29.5 55.7 31.2 56.6 33.4 57.75 36 57.75 38.65 57.75 40.85 56.6 42.55 55.7 43.25 54.65 43.6 54.1 43.45 53.7 43.3 53.35 42.7 53.35
L 29.4 53.35
Q 28.8 53.35 28.6 53.7 Z"/>
</g>

<g id="Layer0_0_MEMBER_0_MEMBER_2_FILL">
<path fill="#8E726A" stroke="none" d="
M 58.8 39.1
Q 58.8 22.85 54.2 14.85 48.7 5.4 36 5.4 23.25 5.4 17.8 14.85 13.2 22.85 13.2 39.1 13.2 52.9 21 59.6 27 64.75 36 64.75 44.95 64.75 51 59.65 58.8 52.95 58.8 39.1 Z"/>
</g>

<g id="Layer0_0_MEMBER_0_MEMBER_3_MEMBER_0_FILL">
<path fill="#232020" stroke="none" d="
M 56.4 35.75
L 56.75 33.15 51.6 33.15
Q 52.1 45.5 47.55 49.9 42.9 54.45 32.35 51.3
L 32.35 69.45
Q 33.7 68.9 38.75 67.9 43.8 66.9 46.75 65.65 53 63.1 55.4 59 57 56.15 56.9 52.15 56.8 49.65 56.3 46.4 55.85 43.65 55.95 40.8 56 38.55 56.4 35.75 Z"/>
</g>

<g id="Layer0_0_MEMBER_0_MEMBER_3_MEMBER_1_FILL">
<path fill="#232020" stroke="none" d="
M 56.4 35.75
L 56.75 33.15 51.6 33.15
Q 52.1 45.5 47.55 49.9 42.9 54.45 32.35 51.3
L 32.35 69.45
Q 33.7 68.9 38.75 67.9 43.8 66.9 46.75 65.65 53 63.1 55.4 59 57 56.15 56.9 52.15 56.8 49.65 56.3 46.4 55.85 43.65 55.95 40.8 56 38.55 56.4 35.75 Z"/>
</g>

<g id="Layer0_0_MEMBER_0_MEMBER_4_MEMBER_0_FILL">
<path fill="#232020" stroke="none" d="
M 31 93.1
Q 27.7 94.8 26.45 95.1 24.1 95.7 25 97.3 25.85 98.9 29.15 100.45 37.6 104.4 47.85 102.55 54.7 101.35 57 96.1 57.7 94.5 57.85 92.65
L 57.9 91.15
Q 46.3 87.5 37.2 90.45 34.65 91.25 31 93.1 Z"/>
</g>

<g id="Layer0_0_MEMBER_0_MEMBER_4_MEMBER_1_FILL">
<path fill="#232020" stroke="none" d="
M 88.7 95.1
Q 87.45 94.8 84.1 93.1 80.5 91.25 77.9 90.45 68.8 87.5 57.2 91.15
L 57.25 92.65
Q 57.4 94.5 58.15 96.1 60.45 101.35 67.3 102.55 77.55 104.4 86 100.45 89.25 98.9 90.15 97.3 91.05 95.7 88.7 95.1 Z"/>
</g>

<g id="Layer0_0_MEMBER_0_MEMBER_5_FILL">
<path fill="#846358" stroke="none" d="
M 29.4 53.35
Q 28.8 53.35 28.6 53.7 28.45 54.05 28.8 54.65 29.5 55.7 31.2 56.6 33.4 57.75 36 57.75 38.65 57.75 40.85 56.6 42.55 55.7 43.25 54.65 43.6 54.1 43.45 53.7 43.3 53.35 42.7 53.35
L 29.4 53.35 Z"/>
</g>

<g id="Layer0_0_MEMBER_0_MEMBER_6_FILL">
<path fill="#563E37" stroke="none" d="
M 57.55 85.65
Q 54.95 85.65 51.85 84.8 51.25 84.6 50.95 85.05 50.7 85.45 50.95 85.9 51.6 87 53.2 88.05 55.25 89.3 57.55 89.3 59.85 89.3 61.9 88.05 63.5 87 64.15 85.9 64.4 85.45 64.15 85.05 63.9 84.65 63.25 84.8 60.15 85.65 57.55 85.65 Z"/>
</g>

<g id="Layer0_0_MEMBER_0_MEMBER_7_FILL">
<path fill="#444444" stroke="none" d="
M 38.65 66
Q 36.35 66 34.75 67.95 33.15 69.85 33.15 72.6 33.15 75.3 34.75 77.25 36.35 79.15 38.65 79.15 40.9 79.15 42.5 77.25 44.1 75.3 44.1 72.6 44.1 69.85 42.5 67.9 40.9 65.95 38.65 66 Z"/>
</g>

<g id="Layer0_0_MEMBER_0_MEMBER_8_FILL">
<path fill="#444444" stroke="none" d="
M 72.6 67.9
Q 71 69.85 71 72.6 71 75.3 72.6 77.25 74.2 79.15 76.5 79.15 78.75 79.15 80.35 77.25 81.95 75.3 81.95 72.6 81.95 69.85 80.35 67.95 78.75 66 76.5 66 74.2 65.95 72.6 67.9 Z"/>
</g>

<g id="Layer0_0_MEMBER_0_MEMBER_9_FILL">
<path fill="#232020" stroke="none" d="
M 61.95 22.55
Q 61.95 22.2 61.95 21.8 61.55 15.9 56.55 11.55 49.75 5.55 36.55 5.35
L 35.55 5.35
Q 22.3 5.55 15.55 11.55 10.5 15.9 10.2 21.8 10.15 22.2 10.15 22.55
L 10.15 36.35
Q 10.5 36.05 11.05 35.65 11.4 35.3 11.8 35.15
L 12.3 41.65
Q 18.75 33 20.3 23.7 24.6 26.55 28.15 27.75 31.7 28.9 35.55 28.85
L 36.55 28.85
Q 42.9 28.8 48.2 28.2
L 52.05 27.8
Q 52.15 27.8 52.25 27.85
L 59.75 41.55 60.3 35.25
Q 60.65 35.3 61.05 35.6 61.65 36.05 61.95 36.35
L 61.95 22.55 Z"/>
</g>
</defs>

<g id="Layer_1">
<g transform="matrix( 0.53289794921875, 0, 0, 0.53289794921875, 1.9,-0.7) ">
<use xlink:href="#Layer0_0_MEMBER_0_MEMBER_0_MEMBER_0_FILL"/>
</g>

<g transform="matrix( 0.53289794921875, 0, 0, 0.53289794921875, 1.9,-0.7) ">
<use xlink:href="#Layer0_0_MEMBER_0_MEMBER_0_MEMBER_1_FILL"/>
</g>

<g transform="matrix( 1, 0, 0, 1, 0,0) ">
<use xlink:href="#Layer0_0_MEMBER_0_MEMBER_1_FILL"/>
</g>

<g transform="matrix( 1, 0, 0, 1, 0,0) ">
<use xlink:href="#Layer0_0_MEMBER_0_MEMBER_2_FILL"/>
</g>

<g transform="matrix( 1.014251708984375, 0, 0, 1, 3.2,0) ">
<use xlink:href="#Layer0_0_MEMBER_0_MEMBER_3_MEMBER_0_FILL"/>
</g>

<g transform="matrix( -1.014251708984375, 0, 0, 1, 68.8,0) ">
<use xlink:href="#Layer0_0_MEMBER_0_MEMBER_3_MEMBER_1_FILL"/>
</g>

<g transform="matrix( 0.5624847412109375, 0, 0, 0.5624847412109375, 3.65,0) ">
<use xlink:href="#Layer0_0_MEMBER_0_MEMBER_4_MEMBER_0_FILL"/>
</g>

<g transform="matrix( 0.5624847412109375, 0, 0, 0.5624847412109375, 3.65,0) ">
<use xlink:href="#Layer0_0_MEMBER_0_MEMBER_4_MEMBER_1_FILL"/>
</g>

<g transform="matrix( 1, 0, 0, 1, 0,0) ">
<use xlink:href="#Layer0_0_MEMBER_0_MEMBER_5_FILL"/>
</g>

<g transform="matrix( 0.5625, 0, 0, 0.5625, 3.65,0) ">
<use xlink:href="#Layer0_0_MEMBER_0_MEMBER_6_FILL"/>
</g>

<g transform="matrix( 0.5625, 0, 0, 0.5625, 3.65,0) ">
<use xlink:href="#Layer0_0_MEMBER_0_MEMBER_7_FILL"/>
</g>

<g transform="matrix( 0.5625, 0, 0, 0.5625, 3.65,0) ">
<use xlink:href="#Layer0_0_MEMBER_0_MEMBER_8_FILL"/>
</g>

<g transform="matrix( 1, 0, 0, 1, 0,0) ">
<use xlink:href="#Layer0_0_MEMBER_0_MEMBER_9_FILL"/>
</g>
</g>
</svg>
