<svg xmlns="http://www.w3.org/2000/svg" xmlns:xlink="http://www.w3.org/1999/xlink" preserveAspectRatio="none" viewBox="0 0 72 72"><defs><path id="a" fill="#E59600" d="M106.9 66.05h-3.6v20.3q4.75 0 7.85-2.4 3.6-2.8 3.6-8.05 0-5.3-3.9-8.1l-3.95-1.75z"/><path id="b" fill="#E59600" d="M24.7 66.05h-3.65l-3.9 1.75q-3.95 2.8-3.95 8.1 0 5.25 3.6 8.05 3.1 2.4 7.9 2.4v-20.3z"/><path id="c" fill="#4C3734" d="M28.6 53.7q-.15.35.2.95.7 1.05 2.4 1.95 2.2 1.15 4.8 1.15 2.65 0 4.85-1.15 1.7-.9 2.4-1.95.35-.55.2-.95-.15-.35-.75-.35H29.4q-.6 0-.8.35z"/><path id="d" fill="#FCC21B" d="M58.8 39.1q0-16.25-4.6-24.25Q48.7 5.4 36 5.4q-12.75 0-18.2 9.45-4.6 8-4.6 24.25 0 13.8 7.8 20.5 6 5.15 15 5.15 8.95 0 15-5.1 7.8-6.7 7.8-20.55z"/><path id="e" fill="#FFA000" d="M56.4 35.75l.35-2.6H51.6q.5 12.35-4.05 16.75-4.65 4.55-15.2 1.4v18.15q1.35-.55 6.4-1.55 5.05-1 8-2.25Q53 63.1 55.4 59q1.6-2.85 1.5-6.85-.1-2.5-.6-5.75-.45-2.75-.35-5.6.05-2.25.45-5.05z"/><path id="f" fill="#FFA000" d="M56.4 35.75l.35-2.6H51.6q.5 12.35-4.05 16.75-4.65 4.55-15.2 1.4v18.15q1.35-.55 6.4-1.55 5.05-1 8-2.25Q53 63.1 55.4 59q1.6-2.85 1.5-6.85-.1-2.5-.6-5.75-.45-2.75-.35-5.6.05-2.25.45-5.05z"/><path id="g" fill="#FFA000" d="M31 93.1q-3.3 1.7-4.55 2-2.35.6-1.45 2.2.85 1.6 4.15 3.15 8.45 3.95 18.7 2.1 6.85-1.2 9.15-6.45.7-1.6.85-3.45l.05-1.5q-11.6-3.65-20.7-.7-2.55.8-6.2 2.65z"/><path id="h" fill="#FFA000" d="M88.7 95.1q-1.25-.3-4.6-2-3.6-1.85-6.2-2.65-9.1-2.95-20.7.7l.05 1.5q.15 1.85.9 3.45 2.3 5.25 9.15 6.45 10.25 1.85 18.7-2.1 3.25-1.55 4.15-3.15.9-1.6-1.45-2.2z"/><path id="i" fill="#846358" d="M29.4 53.35q-.6 0-.8.35-.15.35.2.95.7 1.05 2.4 1.95 2.2 1.15 4.8 1.15 2.65 0 4.85-1.15 1.7-.9 2.4-1.95.35-.55.2-.95-.15-.35-.75-.35H29.4z"/><path id="j" fill="#E59600" d="M57.55 85.65q-2.6 0-5.7-.85-.6-.2-.9.25-.25.4 0 .85.65 1.1 2.25 2.15 2.05 1.25 4.35 1.25t4.35-1.25q1.6-1.05 2.25-2.15.25-.45 0-.85-.25-.4-.9-.25-3.1.85-5.7.85z"/><path id="k" fill="#444" d="M38.65 66q-2.3 0-3.9 1.95-1.6 1.9-1.6 4.65 0 2.7 1.6 4.65 1.6 1.9 3.9 1.9 2.25 0 3.85-1.9 1.6-1.95 1.6-4.65 0-2.75-1.6-4.7-1.6-1.95-3.85-1.9z"/><path id="l" fill="#444" d="M72.6 67.9Q71 69.85 71 72.6q0 2.7 1.6 4.65 1.6 1.9 3.9 1.9 2.25 0 3.85-1.9 1.6-1.95 1.6-4.65 0-2.75-1.6-4.65Q78.75 66 76.5 66q-2.3-.05-3.9 1.9z"/><path id="m" fill="#FFA000" d="M61.95 22.55v-.75q-.4-5.9-5.4-10.25-6.8-6-20-6.2h-1q-13.25.2-20 6.2Q10.5 15.9 10.2 21.8q-.05.4-.05.75v13.8q.35-.3.9-.7.35-.35.75-.5l.5 6.5q6.45-8.65 8-17.95 4.3 2.85 7.85 4.05 3.55 1.15 7.4 1.1h1q6.35-.05 11.65-.65l3.85-.4q.1 0 .2.05l7.5 13.7.55-6.3q.35.05.75.35.6.45.9.75v-13.8z"/></defs><use transform="matrix(.5329 0 0 .5329 1.9 -.7)" xlink:href="#a"/><use transform="matrix(.5329 0 0 .5329 1.9 -.7)" xlink:href="#b"/><use xlink:href="#c"/><use xlink:href="#d"/><use transform="matrix(1.01425 0 0 1 3.2 0)" xlink:href="#e"/><use transform="matrix(-1.01425 0 0 1 68.8 0)" xlink:href="#f"/><use transform="matrix(.56248 0 0 .56248 3.65 0)" xlink:href="#g"/><use transform="matrix(.56248 0 0 .56248 3.65 0)" xlink:href="#h"/><use xlink:href="#i"/><use transform="translate(3.65) scale(.5625)" xlink:href="#j"/><use transform="translate(3.65) scale(.5625)" xlink:href="#k"/><use transform="translate(3.65) scale(.5625)" xlink:href="#l"/><use xlink:href="#m"/></svg>