
<svg xmlns="http://www.w3.org/2000/svg" version="1.1" xmlns:xlink="http://www.w3.org/1999/xlink" preserveAspectRatio="none" x="0px" y="0px" width="72px" height="72px" viewBox="0 0 72 72">
<defs>
<g id="Layer0_0_MEMBER_0_MEMBER_0_FILL">
<path fill="#7A4C32" stroke="none" d="
M 106.9 66.05
L 103.3 66.05 103.3 86.35
Q 108.05 86.35 111.15 83.95 114.75 81.15 114.75 75.9 114.75 70.6 110.85 67.8
L 106.9 66.05 Z"/>
</g>

<g id="Layer0_0_MEMBER_0_MEMBER_1_FILL">
<path fill="#7A4C32" stroke="none" d="
M 24.7 66.05
L 21.05 66.05 17.15 67.8
Q 13.2 70.6 13.2 75.9 13.2 81.15 16.8 83.95 19.9 86.35 24.7 86.35
L 24.7 66.05 Z"/>
</g>

<g id="Layer0_0_MEMBER_1_FILL">
<path fill="#AD6F43" stroke="none" d="
M 59.95 41.3
Q 59.95 25.15 54.95 17.35 49.25 8.4 36 8.4 22.75 8.4 16.9 17.45 11.8 25.4 11.8 41.5 11.8 55 20.5 62.6 27.5 68.7 36 68.7 44.45 68.7 51.35 62.5 59.95 54.8 59.95 41.3 Z"/>
</g>

<g id="Layer0_0_MEMBER_2_FILL">
<path fill="#E1F5FE" stroke="none" d="
M 40.15 72.35
Q 38.45 74.35 38.45 77.2 38.45 80.1 40.15 82.1 41.8 84.1 44.2 84.1 46.55 84.1 48.25 82.1 49.9 80.05 49.9 77.2 49.9 74.35 48.25 72.35 46.55 70.3 44.2 70.3 41.8 70.3 40.15 72.35 Z"/>
</g>

<g id="Layer0_0_MEMBER_3_FILL">
<path fill="#E1F5FE" stroke="none" d="
M 87.85 72.35
Q 86.15 70.3 83.8 70.3 81.4 70.3 79.75 72.35 78.05 74.35 78.05 77.2 78.05 80.05 79.75 82.1 81.4 84.1 83.8 84.1 86.15 84.1 87.85 82.1 89.5 80.1 89.5 77.2 89.5 74.35 87.85 72.35 Z"/>
</g>

<g id="Layer0_0_MEMBER_4_FILL">
<path fill="#E1F5FE" stroke="none" d="
M 63.95 108.75
Q 68.85 108.75 72.95 106.6 76.15 104.9 77.45 102.9 78.15 101.85 77.8 101.2 77.45 100.55 76.35 100.55
L 51.6 100.55
Q 50.5 100.55 50.15 101.2 49.8 101.85 50.5 102.9 51.8 104.9 55 106.6 59.1 108.75 63.95 108.75 Z"/>
</g>

<g id="Layer0_0_MEMBER_5_FILL">
<path fill="#E1F5FE" stroke="none" d="
M 58 90
Q 57.35 89.85 57.1 90.3 56.8 90.7 57.05 91.2 57.75 92.35 59.45 93.4 61.65 94.75 64 94.75 66.35 94.75 68.5 93.4 70.2 92.35 70.9 91.2 71.15 90.7 70.9 90.3 70.6 89.85 69.95 90 66.8 90.9 64 90.9 61.15 90.9 58 90 Z"/>
</g>

<g id="Layer0_0_MEMBER_6_FILL">
<path fill="#444444" stroke="none" d="
M 40.15 72.35
Q 38.45 74.35 38.45 77.2 38.45 80.1 40.15 82.1 41.8 84.1 44.2 84.1 46.55 84.1 48.25 82.1 49.9 80.05 49.9 77.2 49.9 74.35 48.25 72.35 46.55 70.3 44.2 70.3 41.8 70.3 40.15 72.35 Z"/>
</g>

<g id="Layer0_0_MEMBER_7_FILL">
<path fill="#444444" stroke="none" d="
M 87.85 72.35
Q 86.15 70.3 83.8 70.3 81.4 70.3 79.75 72.35 78.05 74.35 78.05 77.2 78.05 80.05 79.75 82.1 81.4 84.1 83.8 84.1 86.15 84.1 87.85 82.1 89.5 80.1 89.5 77.2 89.5 74.35 87.85 72.35 Z"/>
</g>

<g id="Layer0_0_MEMBER_8_FILL">
<path fill="#513F35" stroke="none" d="
M 63.95 108.75
Q 68.85 108.75 72.95 106.6 76.15 104.9 77.45 102.9 78.15 101.85 77.8 101.2 77.45 100.55 76.35 100.55
L 51.6 100.55
Q 50.5 100.55 50.15 101.2 49.8 101.85 50.5 102.9 51.8 104.9 55 106.6 59.1 108.75 63.95 108.75 Z"/>
</g>

<g id="Layer0_0_MEMBER_9_FILL">
<path fill="#7A4C32" stroke="none" d="
M 39.9 50.8
Q 39.7 50.55 39.35 50.6 37.55 51.15 36 51.15 34.4 51.15 32.6 50.6 32.25 50.55 32.1 50.8 31.95 51 32.1 51.3 32.5 51.95 33.45 52.55 34.7 53.3 36 53.3 37.3 53.3 38.55 52.55 39.5 51.95 39.9 51.3 40 51 39.9 50.8 Z"/>
</g>

<g id="Layer0_0_MEMBER_13_MEMBER_0_FILL">
<path fill="#E0E0E0" stroke="none" d="
M 41.85 24.65
Q 43.5 23.5 44.55 24.3 44.9 24.75 45.3 25.2 51.7 32.9 61.05 37.6
L 61.5 37.8
Q 62 38.05 62.4 38.35 63.05 38.85 63.35 39.15
L 63.35 26.9
Q 62.95 24.75 62.05 22.6 54.6 9.15 40.1 7.6 40.05 7.6 40 7.6
L 39.95 7.6
Q 38.1 7.4 36.15 7.4 34.2 7.4 32.4 7.6
L 32.3 7.6
Q 32.25 7.6 32.2 7.6 17.8 9.15 10.3 22.6 10.25 22.7 10.2 22.85 8.95 26 8.7 29.2
L 8.7 39.15
Q 9.05 38.85 9.65 38.4 10.05 38.05 10.6 37.8
L 11 37.6
Q 30.7 34.1 41.85 24.65 Z"/>
</g>

<path id="Layer0_0_MEMBER_10_MEMBER_0_1_STROKES" stroke="#7A4C32" stroke-opacity="0.4980392156862745" stroke-width="1.5" stroke-linejoin="round" stroke-linecap="round" fill="none" d="
M 27.893727111816407 29.899951171875003
Q 35.85288619995117 27.987503051757812 43.75579681396484 29.899951171875003"/>

<path id="Layer0_0_MEMBER_11_MEMBER_0_1_STROKES" stroke="#7A4C32" stroke-opacity="0.4980392156862745" stroke-width="1.5" stroke-linejoin="round" stroke-linecap="round" fill="none" d="
M 26.993727111816405 35.034323883056636
Q 35.824737548828125 32.92500610351562 44.6276237487793 35.034323883056636"/>

<path id="Layer0_0_MEMBER_12_MEMBER_0_MEMBER_0_1_STROKES" stroke="#7A4C32" stroke-opacity="0.4980392156862745" stroke-width="1.5" stroke-linejoin="round" stroke-linecap="round" fill="none" d="
M 28.34945068359375 52.09368133544922
Q 27.168296813964844 52.712380981445314 25.846529388427737 54.118516540527345 23.20299453735352 56.874542236328125 22.44368133544922 60.67110824584961"/>

<path id="Layer0_0_MEMBER_12_MEMBER_0_MEMBER_1_1_STROKES" stroke="#7A4C32" stroke-opacity="0.4980392156862745" stroke-width="1.5" stroke-linejoin="round" stroke-linecap="round" fill="none" d="
M 28.955769348144532 47.143681335449216
Q 28.5901741027832 47.84674911499023 27.746492767333983 48.54981689453125 26.115375518798828 49.92782974243164 23.89368133544922 49.92782974243164"/>

<path id="Layer0_0_MEMBER_12_MEMBER_1_MEMBER_0_1_STROKES" stroke="#7A4C32" stroke-opacity="0.4980392156862745" stroke-width="1.5" stroke-linejoin="round" stroke-linecap="round" fill="none" d="
M 43.09368133544922 52.09368133544922
Q 44.274835205078126 52.712380981445314 45.59660263061524 54.118516540527345 48.24013748168945 56.874542236328125 48.99945068359375 60.67110824584961"/>

<path id="Layer0_0_MEMBER_12_MEMBER_1_MEMBER_1_1_STROKES" stroke="#7A4C32" stroke-opacity="0.4980392156862745" stroke-width="1.5" stroke-linejoin="round" stroke-linecap="round" fill="none" d="
M 42.54368133544922 47.143681335449216
Q 42.90927658081055 47.84674911499023 43.72483520507813 48.54981689453125 45.38407516479492 49.92782974243164 47.605769348144534 49.92782974243164"/>
</defs>

<g id="Layer_1">
<g transform="matrix( 0.5624542236328125, 0, 0, 0.5624542236328125, 0,0) ">
<use xlink:href="#Layer0_0_MEMBER_0_MEMBER_0_FILL"/>
</g>

<g transform="matrix( 0.5624542236328125, 0, 0, 0.5624542236328125, 0,0) ">
<use xlink:href="#Layer0_0_MEMBER_0_MEMBER_1_FILL"/>
</g>

<g transform="matrix( 1, 0, 0, 1, 0,0) ">
<use xlink:href="#Layer0_0_MEMBER_1_FILL"/>
</g>

<g transform="matrix( 0.5624847412109375, 0, 0, 0.5624847412109375, 0,0) ">
<use xlink:href="#Layer0_0_MEMBER_2_FILL"/>
</g>

<g transform="matrix( 0.5624847412109375, 0, 0, 0.5624847412109375, 0,0) ">
<use xlink:href="#Layer0_0_MEMBER_3_FILL"/>
</g>

<g transform="matrix( 0.5624847412109375, 0, 0, 0.5624847412109375, 0,0) ">
<use xlink:href="#Layer0_0_MEMBER_4_FILL"/>
</g>

<g transform="matrix( 0.5624847412109375, 0, 0, 0.5624847412109375, 0,0) ">
<use xlink:href="#Layer0_0_MEMBER_5_FILL"/>
</g>

<g transform="matrix( 0.5624847412109375, 0, 0, 0.5624847412109375, 0,0) ">
<use xlink:href="#Layer0_0_MEMBER_6_FILL"/>
</g>

<g transform="matrix( 0.5624847412109375, 0, 0, 0.5624847412109375, 0,0) ">
<use xlink:href="#Layer0_0_MEMBER_7_FILL"/>
</g>

<g transform="matrix( 0.5624847412109375, 0, 0, 0.5624847412109375, 0,0) ">
<use xlink:href="#Layer0_0_MEMBER_8_FILL"/>
</g>

<g transform="matrix( 1, 0, 0, 1, 0,0) ">
<use xlink:href="#Layer0_0_MEMBER_9_FILL"/>
</g>

<g transform="matrix( 0.5624847412109375, 0, 0, 0.5624847412109375, 27.05,28.1) ">
<use xlink:href="#Layer0_0_MEMBER_10_MEMBER_0_1_STROKES" transform="matrix( 1.7778167724609375, 0, 0, 1.7778167724609375, -48.05,-49.95) "/>
</g>

<g transform="matrix( 0.5624847412109375, 0, 0, 0.5624847412109375, 26.15,33.15) ">
<use xlink:href="#Layer0_0_MEMBER_11_MEMBER_0_1_STROKES" transform="matrix( 1.7778167724609375, 0, 0, 1.7778167724609375, -46.45,-58.9) "/>
</g>

<g transform="matrix( 0.5624542236328125, 0, 0, 0.5624542236328125, 21.6,51.25) ">
<use xlink:href="#Layer0_0_MEMBER_12_MEMBER_0_MEMBER_0_1_STROKES" transform="matrix( 1.7779083251953125, 0, 0, 1.7779083251953125, -38.4,-91.1) "/>
</g>

<g transform="matrix( 0.5624542236328125, 0, 0, 0.5624542236328125, 23.05,46.3) ">
<use xlink:href="#Layer0_0_MEMBER_12_MEMBER_0_MEMBER_1_1_STROKES" transform="matrix( 1.7779083251953125, 0, 0, 1.7779083251953125, -40.95,-82.3) "/>
</g>

<g transform="matrix( 0.5624542236328125, 0, 0, 0.5624542236328125, 42.25,51.25) ">
<use xlink:href="#Layer0_0_MEMBER_12_MEMBER_1_MEMBER_0_1_STROKES" transform="matrix( 1.7779083251953125, 0, 0, 1.7779083251953125, -75.1,-91.1) "/>
</g>

<g transform="matrix( 0.5624542236328125, 0, 0, 0.5624542236328125, 41.7,46.3) ">
<use xlink:href="#Layer0_0_MEMBER_12_MEMBER_1_MEMBER_1_1_STROKES" transform="matrix( 1.7779083251953125, 0, 0, 1.7779083251953125, -74.1,-82.3) "/>
</g>

<g transform="matrix( 1, 0, 0, 1, 0,0) ">
<use xlink:href="#Layer0_0_MEMBER_13_MEMBER_0_FILL"/>
</g>
</g>
</svg>
