<svg xmlns="http://www.w3.org/2000/svg" xmlns:xlink="http://www.w3.org/1999/xlink" preserveAspectRatio="none" viewBox="0 0 72 72"><defs><path id="a" fill="#FCC21B" d="M127.75 93.45q0-27.05-8.55-47.15Q103.6 9.5 63.75 9.5q-39.8 0-55.4 36.8Q-.2 66.4-.2 93.45q0 10.4 18.7 17.75 18.75 7.35 45.25 7.35 26.55 0 45.3-7.35 18.7-7.35 18.7-17.75z"/><path id="b" fill="#FCC21B" d="M105.85 92.95q6.85-2.45 9.95-9 3.1-6.5.6-13.3-2.5-6.8-9.1-9.8-6.65-3.05-13.5-.6-6.85 2.45-9.9 9-3.1 6.55-.6 13.3 2.45 6.8 9.1 9.8 6.6 3.05 13.45.6z"/><path id="c" fill="#FCC01C" d="M105.6 92.25q6.55-2.3 9.55-8.6 2.95-6.25.55-12.75-2.4-6.5-8.75-9.4-6.35-2.95-12.9-.55-6.6 2.35-9.55 8.65-2.95 6.25-.55 12.75 2.4 6.5 8.75 9.4 6.3 2.9 12.9.5z"/><path id="d" fill="#FCBE1C" d="M105.35 91.6q6.3-2.25 9.15-8.25 2.8-5.95.55-12.2-2.3-6.2-8.35-9-6.1-2.8-12.4-.55-6.3 2.25-9.1 8.25-2.85 6-.55 12.25 2.3 6.2 8.35 8.95 6.05 2.8 12.35.55z"/><path id="e" fill="#FBBB1D" d="M105.1 90.95q6.05-2.15 8.75-7.9t.5-11.7q-2.2-5.95-8-8.6-5.8-2.65-11.8-.5-6.05 2.15-8.75 7.9t-.5 11.7q2.2 5.9 8 8.6 5.8 2.65 11.8.5z"/><path id="f" fill="#FBB91E" d="M104.9 90.25q5.7-2 8.3-7.5 2.55-5.45.5-11.15-2.1-5.65-7.65-8.2-5.5-2.5-11.25-.45t-8.3 7.55q-2.6 5.45-.5 11.1 2.05 5.65 7.6 8.2 5.5 2.5 11.3.45z"/><path id="g" fill="#FBB71E" d="M104.65 89.6q5.45-1.95 7.9-7.15t.45-10.6q-2-5.4-7.25-7.8-5.25-2.45-10.7-.45-5.45 1.95-7.95 7.15-2.45 5.2-.45 10.6 2 5.4 7.25 7.8 5.25 2.4 10.75.45z"/><path id="h" fill="#FBB51F" d="M104.4 88.95q5.2-1.85 7.5-6.8 2.35-4.9.45-10.05-1.9-5.15-6.9-7.45t-10.15-.4q-5.2 1.9-7.5 6.8-2.35 4.95-.45 10.05 1.85 5.15 6.9 7.45 4.95 2.3 10.15.4z"/><path id="i" fill="#FAB220" d="M104.15 88.3q4.9-1.75 7.1-6.45 2.2-4.65.4-9.5-1.75-4.85-6.5-7-4.7-2.2-9.6-.45-4.9 1.75-7.1 6.45-2.2 4.65-.45 9.5 1.8 4.85 6.5 7.05 4.75 2.15 9.65.4z"/><path id="j" fill="#FAB020" d="M103.9 87.6q4.6-1.65 6.7-6.05 2.1-4.4.4-8.95-1.7-4.55-6.15-6.65-4.5-2.05-9.1-.35-4.6 1.65-6.7 6.05-2.05 4.4-.4 8.95 1.7 4.55 6.15 6.6t9.1.4z"/><path id="k" fill="#FAAE21" d="M103.65 86.95q4.3-1.6 6.25-5.7 1.95-4.15.4-8.4-1.55-4.25-5.75-6.2-4.2-1.95-8.55-.4-4.35 1.6-6.3 5.7-1.9 4.15-.35 8.45 1.6 4.3 5.75 6.2 4.2 1.9 8.55.35z"/><path id="l" fill="#FAAC22" d="M103.4 86.3q4.05-1.45 5.9-5.35 1.8-3.85.35-7.9-1.5-4-5.4-5.8-3.95-1.8-8-.35-4.05 1.45-5.9 5.35-1.8 3.9-.35 7.9 1.5 4 5.45 5.8 3.9 1.8 7.95.35z"/><path id="m" fill="#F9A922" d="M103.15 85.6q3.8-1.35 5.5-4.95 1.7-3.6.3-7.35-1.35-3.75-5-5.4-3.65-1.7-7.45-.35-3.8 1.4-5.5 5-1.7 3.6-.3 7.35 1.4 3.75 5.05 5.4 3.6 1.7 7.4.3z"/><path id="n" fill="#F9A723" d="M102.9 84.95q3.5-1.3 5.1-4.6 1.55-3.3.3-6.8-1.25-3.45-4.65-5-3.4-1.55-6.9-.3-3.5 1.3-5.1 4.6-1.55 3.35-.3 6.8 1.3 3.45 4.65 5 3.4 1.6 6.9.3z"/><path id="o" fill="#F9A524" d="M102.65 84.3q3.2-1.15 4.65-4.25 1.45-3.05.3-6.25t-4.25-4.6q-3.1-1.45-6.35-.3-3.2 1.15-4.65 4.25-1.45 3.05-.3 6.25t4.25 4.65q3.15 1.4 6.35.25z"/><path id="p" fill="#F9A324" d="M102.4 83.6q2.95-1.05 4.3-3.85 1.35-2.8.25-5.7-1.1-2.9-3.95-4.25-2.8-1.3-5.75-.2-2.95 1.05-4.3 3.85-1.3 2.8-.25 5.7 1.1 2.95 3.95 4.25 2.85 1.3 5.75.2z"/><path id="q" fill="#F8A025" d="M102.15 82.95q2.7-.95 3.9-3.5 1.2-2.5.25-5.15-.95-2.65-3.55-3.85-2.6-1.15-5.25-.2t-3.85 3.5q-1.2 2.55-.25 5.15 1 2.65 3.55 3.85 2.55 1.2 5.2.2z"/><path id="r" fill="#F89E26" d="M101.9 82.3q2.4-.85 3.5-3.15 1.05-2.25.2-4.65-.85-2.35-3.15-3.4-2.35-1.05-4.7-.2-2.4.85-3.5 3.15-1.05 2.25-.2 4.6.85 2.35 3.2 3.45 2.3 1.05 4.65.2z"/><path id="s" fill="#F89C26" d="M101.7 81.6q2.1-.75 3.05-2.75.95-2 .15-4.1-.75-2.05-2.75-3-2.05-.95-4.15-.2-2.15.8-3.1 2.8-.95 2-.15 4.1.75 2.05 2.8 3 2.05.95 4.15.15z"/><path id="t" fill="#F89A27" d="M101.45 80.95q1.85-.65 2.65-2.35.85-1.75.15-3.6-.7-1.8-2.45-2.6-1.75-.8-3.6-.15-1.8.65-2.65 2.4-.8 1.75-.15 3.55.7 1.8 2.45 2.6 1.75.8 3.6.15z"/><path id="u" fill="#F79728" d="M101.2 80.3q1.55-.55 2.25-2.05.65-1.45.1-3t-2.05-2.2q-1.5-.7-3.05-.15-1.55.55-2.2 2.05-.7 1.45-.15 3 .55 1.55 2.05 2.25 1.5.65 3.05.1z"/><path id="v" fill="#F79528" d="M100.95 79.65q1.3-.5 1.85-1.7.55-1.15.1-2.45-.5-1.25-1.7-1.85-1.2-.55-2.5-.1-1.25.5-1.85 1.7-.55 1.2-.1 2.45.5 1.25 1.7 1.85 1.2.55 2.5.1z"/><path id="w" fill="#F79329" d="M100.7 78.95q1-.35 1.45-1.3.45-.9.1-1.9-.4-1-1.35-1.4-.95-.45-1.95-.1t-1.4 1.3q-.45.95-.1 1.9.35 1 1.3 1.45 1 .45 1.95.05z"/><path id="x" fill="#FCC21B" d="M33.9 60.15q-6.6-3-13.45-.55t-9.95 9q-3.1 6.55-.6 13.3 2.5 6.8 9.15 9.8 6.6 3.05 13.45.55 6.8-2.45 9.9-8.95 3.1-6.55.6-13.3-2.5-6.8-9.1-9.85z"/><path id="y" fill="#FCC01C" d="M33.6 60.8q-6.35-2.9-12.9-.55-6.6 2.35-9.55 8.65-2.95 6.25-.55 12.75 2.35 6.5 8.7 9.4 6.35 2.9 12.95.55 6.55-2.35 9.5-8.6 2.95-6.3.55-12.8-2.35-6.5-8.7-9.4z"/><path id="z" fill="#FCBE1C" d="M33.3 61.45q-6.1-2.8-12.4-.5-6.3 2.25-9.1 8.25-2.85 6-.55 12.2 2.3 6.2 8.35 9 6.1 2.8 12.4.55 6.25-2.25 9.1-8.25 2.85-6 .55-12.2-2.3-6.25-8.35-9.05z"/><path id="A" fill="#FBBB1D" d="M31.75 90.25q6-2.15 8.7-7.9 2.75-5.7.55-11.65t-8-8.6q-5.8-2.65-11.85-.5-6 2.2-8.7 7.9-2.7 5.75-.5 11.65 2.2 5.95 7.95 8.6 5.8 2.7 11.85.5z"/><path id="B" fill="#FBB91E" d="M31.5 89.6q5.75-2.05 8.3-7.5 2.55-5.5.5-11.15-2.1-5.65-7.65-8.2-5.5-2.55-11.25-.5t-8.3 7.55q-2.55 5.45-.5 11.1 2.1 5.7 7.65 8.25 5.5 2.5 11.25.45z"/><path id="C" fill="#FBB71E" d="M31.25 88.95q5.45-1.95 7.9-7.15 2.45-5.25.5-10.6-2-5.4-7.25-7.8-5.25-2.45-10.75-.5-5.45 2-7.9 7.2t-.45 10.55q2 5.4 7.25 7.85 5.25 2.4 10.7.45z"/><path id="D" fill="#FBB51F" d="M31 88.3q5.15-1.85 7.5-6.8 2.35-4.95.45-10.05Q37.1 66.3 32.1 64t-10.2-.4q-5.2 1.9-7.5 6.8t-.45 10.05q1.85 5.1 6.9 7.4 4.95 2.3 10.15.45z"/><path id="E" fill="#FAB220" d="M30.75 87.6q4.9-1.75 7.1-6.45 2.2-4.65.45-9.45-1.8-4.85-6.55-7-4.7-2.2-9.6-.45-4.9 1.75-7.1 6.45-2.2 4.65-.4 9.5 1.75 4.85 6.5 7 4.7 2.15 9.6.4z"/><path id="F" fill="#FAB020" d="M30.5 86.95q4.6-1.65 6.7-6.05 2.1-4.4.4-8.95-1.7-4.55-6.15-6.65-4.45-2.05-9.05-.4-4.6 1.7-6.7 6.1-2.1 4.4-.4 8.95 1.7 4.55 6.15 6.6t9.05.4z"/><path id="G" fill="#FAAE21" d="M30.25 86.3q4.35-1.55 6.3-5.7 2-4.15.4-8.45-1.6-4.3-5.8-6.2-4.2-1.9-8.5-.35-4.35 1.55-6.3 5.7-1.95 4.1-.4 8.4 1.6 4.3 5.8 6.25 4.15 1.9 8.5.35z"/><path id="H" fill="#FAAC22" d="M30 85.6q4.1-1.4 5.9-5.3 1.85-3.9.35-7.9-1.45-4-5.4-5.8-3.9-1.8-7.95-.35-4.1 1.45-5.9 5.35-1.85 3.85-.35 7.85 1.45 4 5.4 5.8 3.9 1.8 7.95.35z"/><path id="I" fill="#F9A922" d="M29.75 84.95q3.8-1.35 5.5-4.95 1.7-3.65.35-7.35-1.4-3.75-5.05-5.4-3.65-1.7-7.45-.35-3.75 1.4-5.45 5-1.7 3.6-.35 7.3 1.4 3.75 5.05 5.45 3.65 1.65 7.4.3z"/><path id="J" fill="#F9A723" d="M29.5 84.3q3.5-1.25 5.1-4.6 1.6-3.35.3-6.8-1.25-3.5-4.65-5.05-3.35-1.55-6.9-.3-3.5 1.3-5.05 4.6Q16.75 75.5 18 79q1.25 3.45 4.65 5 3.35 1.55 6.85.3z"/><path id="K" fill="#F9A524" d="M29.3 83.6q3.2-1.1 4.65-4.2 1.45-3.1.3-6.3-1.2-3.2-4.3-4.6-3.1-1.4-6.35-.25-3.2 1.15-4.65 4.25-1.45 3.05-.3 6.25 1.2 3.2 4.3 4.6 3.1 1.4 6.35.25z"/><path id="L" fill="#F9A324" d="M29.05 82.95Q32 81.9 33.3 79.1q1.35-2.8.25-5.7-1.05-2.9-3.9-4.25-2.85-1.3-5.8-.25-2.95 1.1-4.25 3.9-1.35 2.8-.25 5.7 1.05 2.9 3.9 4.2 2.85 1.3 5.8.25z"/><path id="M" fill="#F8A025" d="M28.8 82.3q2.65-.95 3.85-3.5 1.25-2.6.25-5.2-.95-2.6-3.55-3.8-2.6-1.2-5.25-.25t-3.85 3.55q-1.2 2.5-.25 5.15 1 2.6 3.55 3.8 2.6 1.2 5.25.25z"/><path id="N" fill="#F89E26" d="M28.55 81.6q2.4-.8 3.5-3.1 1.05-2.3.15-4.65-.85-2.35-3.15-3.4-2.3-1.05-4.7-.2-2.4.85-3.45 3.15-1.1 2.25-.2 4.6.85 2.35 3.15 3.4 2.3 1.05 4.7.2z"/><path id="O" fill="#F89C26" d="M28.3 80.95q2.1-.75 3.05-2.75.95-2.05.2-4.1-.8-2.05-2.8-3-2.05-.95-4.15-.2-2.1.75-3.05 2.75-.95 2.05-.2 4.1.8 2.1 2.8 3.05 2.05.95 4.15.15z"/><path id="P" fill="#F89A27" d="M28.05 80.3q1.85-.65 2.65-2.4.85-1.75.15-3.55-.65-1.8-2.45-2.6-1.75-.85-3.55-.2-1.85.7-2.65 2.4-.85 1.75-.2 3.55.65 1.85 2.45 2.65 1.75.8 3.6.15z"/><path id="Q" fill="#F79728" d="M27.8 79.65q1.55-.55 2.25-2.05.7-1.5.15-3-.55-1.55-2.05-2.2-1.5-.7-3.05-.15-1.55.55-2.25 2.05-.7 1.45-.15 3 .55 1.55 2.05 2.2 1.5.7 3.05.15z"/><path id="R" fill="#F79528" d="M27.55 78.95q1.3-.45 1.85-1.65.6-1.2.1-2.45-.45-1.25-1.65-1.85-1.2-.55-2.5-.1-1.3.45-1.85 1.65-.6 1.25-.15 2.5.5 1.25 1.7 1.8 1.25.6 2.5.1z"/><path id="S" fill="#F79329" d="M27.35 78.3q1-.35 1.45-1.3.45-1 .05-1.95-.35-.95-1.3-1.4-.95-.45-1.95-.1t-1.45 1.35q-.45.9-.1 1.9.4.95 1.35 1.4.95.45 1.95.1z"/><path id="T" fill="#2F2F2F" d="M85.5 87.95q4.45-3.1 6.65-6.5.7-1.15.4-2.45-.3-1.3-1.4-2-1.1-.7-2.45-.4-1.3.3-2 1.4-1.75 2.6-5.3 5-7.05 4.65-17 4.65-10.3 0-17.9-4.05-2.4-1.3-4.3-2.9-.95-.8-1.5-1.45-.85-1.05-2.2-1.2-1.3-.15-2.35.7-1 .85-1.15 2.2-.15 1.3.7 2.35.6.75 1.85 1.9 2.3 2 5.25 3.65Q52 94.1 64.4 94.1q12.3 0 21.1-6.15z"/><path id="U" fill="#2F2F2F" d="M57.8 32.35q-.6-1.15-1.85-2.35-2.45-2.3-5.85-2.6-3.45-.3-6.2 1.55-2.15 1.95-2.2 2-.4.55-.3 1.15.15.65.6 1.05.55.35 1.2.25.6-.1.95-.65l1.5-1.25q1.85-1.25 4.2-1.05 2.3.2 3.95 1.7.8.8 1.2 1.55.35.75 1.25.85.45 0 .8-.1.6-.3.8-.9.2-.65-.05-1.2z"/><path id="V" fill="#2F2F2F" d="M17.15 33.75q.4-.8 1.2-1.6 1.65-1.5 3.95-1.7 2.3-.2 4.15 1 1 .65 1.5 1.35.5.7 1.4.6.4 0 .75-.25.5-.4.65-1 .05-.6-.3-1.15-.8-1.1-2.2-2-2.75-1.9-6.2-1.6-3.45.3-5.9 2.65-1.2 1.15-1.8 2.35-.25.6-.05 1.15.2.6.8.9.55.25 1.15.05.6-.2.9-.75z"/></defs><use transform="rotate(.078) scale(.56247)" xlink:href="#a"/><use transform="scale(.56245)" xlink:href="#b"/><use transform="scale(.56245)" xlink:href="#c"/><use transform="scale(.56245)" xlink:href="#d"/><use transform="scale(.56245)" xlink:href="#e"/><use transform="scale(.56245)" xlink:href="#f"/><use transform="scale(.56245)" xlink:href="#g"/><use transform="scale(.56245)" xlink:href="#h"/><use transform="scale(.56245)" xlink:href="#i"/><use transform="scale(.56245)" xlink:href="#j"/><use transform="scale(.56245)" xlink:href="#k"/><use transform="scale(.56245)" xlink:href="#l"/><use transform="scale(.56245)" xlink:href="#m"/><use transform="scale(.56245)" xlink:href="#n"/><use transform="scale(.56245)" xlink:href="#o"/><use transform="scale(.56245)" xlink:href="#p"/><use transform="scale(.56245)" xlink:href="#q"/><use transform="scale(.56245)" xlink:href="#r"/><use transform="scale(.56245)" xlink:href="#s"/><use transform="scale(.56245)" xlink:href="#t"/><use transform="scale(.56245)" xlink:href="#u"/><use transform="scale(.56245)" xlink:href="#v"/><use transform="scale(.56245)" xlink:href="#w"/><use transform="scale(.56245)" xlink:href="#x"/><use transform="scale(.56245)" xlink:href="#y"/><use transform="scale(.56245)" xlink:href="#z"/><use transform="scale(.56245)" xlink:href="#A"/><use transform="scale(.56245)" xlink:href="#B"/><use transform="scale(.56245)" xlink:href="#C"/><use transform="scale(.56245)" xlink:href="#D"/><use transform="scale(.56245)" xlink:href="#E"/><use transform="scale(.56245)" xlink:href="#F"/><use transform="scale(.56245)" xlink:href="#G"/><use transform="scale(.56245)" xlink:href="#H"/><use transform="scale(.56245)" xlink:href="#I"/><use transform="scale(.56245)" xlink:href="#J"/><use transform="scale(.56245)" xlink:href="#K"/><use transform="scale(.56245)" xlink:href="#L"/><use transform="scale(.56245)" xlink:href="#M"/><use transform="scale(.56245)" xlink:href="#N"/><use transform="scale(.56245)" xlink:href="#O"/><use transform="scale(.56245)" xlink:href="#P"/><use transform="scale(.56245)" xlink:href="#Q"/><use transform="scale(.56245)" xlink:href="#R"/><use transform="scale(.56245)" xlink:href="#S"/><use transform="matrix(.41675 0 0 .47069 9.3 6.3)" xlink:href="#T"/><use xlink:href="#U"/><use xlink:href="#V"/></svg>