<svg xmlns="http://www.w3.org/2000/svg" xmlns:xlink="http://www.w3.org/1999/xlink" preserveAspectRatio="none" viewBox="0 0 72 72"><defs><path id="a" fill="#B39DDB" d="M72 6.75Q72 4 70 2t-4.75-2H6.75Q3.95 0 2 2 0 4 0 6.75v58.5q0 2.8 2 4.8Q3.95 72 6.75 72h58.5Q68 72 70 70.05q2-2 2-4.8V6.75z"/><path id="b" fill="#7E57C2" d="M72 6.75q0-2.8-2-4.75L1.95 70.05Q3.9 72 6.75 72h58.5Q68 72 70 70.05q2-2 2-4.8V6.75z"/><path id="c" fill="#9575CD" d="M63 16.25q0-2.8-1.95-4.75-2-2-4.8-2h-40.6q-2.75 0-4.75 2-2 1.95-2 4.75V56.8q0 2.8 2 4.8 2 1.95 4.75 1.95h40.6q2.8 0 4.8-1.95 1.95-2 1.95-4.8V16.25z"/><path id="d" fill="#FFF" d="M90.5 7.5q0 11-7.75 18.75Q74.95 34 64 34q-11 0-18.75-7.75-7.8-7.75-7.8-18.75h-17.7q0 10.65 4.85 20.1 4.65 9.1 12.9 15.3-8.25 6.2-12.9 15.3-4.85 9.45-4.85 20.1 0 18.3 12.95 31.3 12.95 12.95 31.3 12.95 18.3 0 31.3-12.95 12.95-13 12.95-31.3 0-10.65-4.85-20.1-4.7-9.1-12.95-15.3 8.25-6.2 12.95-15.3 4.85-9.45 4.85-20.1H90.5m0 70.8q0 10.95-7.75 18.75-7.8 7.75-18.75 7.75-11 0-18.75-7.75-7.8-7.8-7.8-18.75 0-11 7.8-18.75Q53 51.75 64 51.75q10.95 0 18.75 7.8Q90.5 67.3 90.5 78.3z"/></defs><use xlink:href="#a"/><use xlink:href="#b"/><use xlink:href="#c"/><g transform="matrix(.3531 0 0 .35289 13.45 13.05)"><use xlink:href="#d"/></g></svg>