<svg xmlns="http://www.w3.org/2000/svg" xmlns:xlink="http://www.w3.org/1999/xlink" preserveAspectRatio="none" viewBox="0 0 72 72"><defs><path id="a" fill="#B39DDB" d="M72 6.75Q72 4 70 2t-4.75-2H6.75Q3.95 0 2 2 0 4 0 6.75v58.5q0 2.8 2 4.8Q3.95 72 6.75 72h58.5Q68 72 70 70.05q2-2 2-4.8V6.75z"/><path id="b" fill="#7E57C2" d="M72 6.75q0-2.8-2-4.75L1.95 70.05Q3.9 72 6.75 72h58.5Q68 72 70 70.05q2-2 2-4.8V6.75z"/><path id="c" fill="#9575CD" d="M63 16.25q0-2.8-1.95-4.75-2-2-4.8-2h-40.6q-2.75 0-4.75 2-2 1.95-2 4.75V56.8q0 2.8 2 4.8 2 1.95 4.75 1.95h40.6q2.8 0 4.8-1.95 1.95-2 1.95-4.8V16.25z"/><path id="d" fill="#FFF" d="M110.5 68.75L85 82.2 71.55 68.75 46.1 82.2 32.6 68.75 9.75 80.8V100L29.5 89.65l13.45 13.4 25.45-13.4 13.5 13.4 25.45-13.4 10.85 10.8v-24l-7.7-7.7z"/><path id="e" fill="#FFF" d="M118.2 32.65L110.5 25 85 38.4 71.55 25 46.1 38.4 32.6 25 9.75 37v19.25l19.75-10.4 13.45 13.4 25.45-13.4L81.9 59.3l25.45-13.45 10.85 10.8v-24z"/></defs><use xlink:href="#a"/><use xlink:href="#b"/><use xlink:href="#c"/><g transform="matrix(.37436 0 0 .37473 12.05 12.05)"><use xlink:href="#d"/></g><g transform="matrix(.37436 0 0 .37473 12.05 12.05)"><use xlink:href="#e"/></g></svg>