<svg xmlns="http://www.w3.org/2000/svg" xmlns:xlink="http://www.w3.org/1999/xlink" preserveAspectRatio="none" viewBox="0 0 72 72"><defs><path id="a" fill="#855C52" d="M95 88.9q-9.8-9.45-13.9-13.2-3.75-3.45-13.25-10.05-2.25-1.6-3.8-3.2L37.6 36.2l-8.8 8.75L55.1 71.4q2 2.1 3.2 3.85 6.3 9.05 10.05 13.2 3.6 3.95 13.15 13.9 9.95 10.3 13.4 13.6l2.8 2.65q1.3 1.2 3.05 1.2 1.75 0 2.95-1.2l7.55-7.5q1.2-1.25 1.2-3t-1.25-3.05l-2.6-2.75q-3.25-3.35-13.6-13.4z"/><path id="b" fill="#855C52" d="M18.4 19.35q-2.55 0-4.4 1.85-1.8 1.8-1.8 4.4 0 2.55 1.8 4.35l4.05 4.1q1.85 1.85 4.4 1.85 2.6 0 4.4-1.85h.05q1.85-1.85 1.8-4.4 0-2.6-1.85-4.4L22.8 21.2q-1.85-1.85-4.4-1.85z"/><path id="c" fill="#B0BEC5" d="M53.1 31.55q2.05-2.05 2.05-5t-2.05-5L42.55 11q-2.05-2.05-5-2.05t-5 2.05L3.65 39.9Q1.6 42 1.6 44.95q0 2.9 2.05 5l10.55 10.5q2.05 2.1 5 2.1t5-2.1l28.9-28.9z"/><path id="d" fill="#855C52" d="M99.65 44.5l-8.75-8.75L64.45 62q-1.6 1.7-3.85 3.2-9.75 6.9-13.2 10.1-3.95 3.6-13.9 13.15-10.3 9.95-13.6 13.4l-2.65 2.8q-1.2 1.3-1.2 3.05 0 1.75 1.2 2.95l7.5 7.5q1.25 1.25 3 1.2 1.75 0 3.05-1.2l2.75-2.65q3.4-3.25 13.4-13.6 9.45-9.8 13.2-13.9 3.6-3.95 10.05-13.2 1.35-2 3.2-3.85L99.65 44.5z"/><path id="e" fill="#2F2F2F" d="M75.75 71.4l-1.6-1.2-.75.8q-1.6 1.55-3.2 3.8-3.1 4.5-6.15 8.45.23.318 1.1 1.4l10.6-13.25z"/><path id="f" fill="#855C52" d="M114.15 20.95q-1.8-1.85-4.35-1.85-2.6 0-4.4 1.85L101.3 25q-1.85 1.8-1.85 4.4 0 2.55 1.85 4.4 1.85 1.85 4.4 1.85 2.6 0 4.4-1.85l4.05-4.1q1.85-1.8 1.85-4.35 0-2.6-1.85-4.4z"/><path id="g" fill="#B0BEC5" d="M126.1 46.05q.55-1.95 0-3.9-.5-1.9-1.95-3.35L94.9 9.5q-1.25-1.25-3.1-1.25-1.8 0-3.05 1.25l-14.4 14.4Q73.1 25.2 73.1 27t1.25 3.05l40.45 40.5q1.25 1.2 2.9.8 1.65-.45 2.1-2.1l6.3-23.2z"/><path id="h" fill="#2F2F2F" d="M64.2 62.45l-1.8-1.7-9.85 8.15 1.3 1.3q.082-.096.65-.45.61-.365 1.3-.95.691-.528.95-.8l7.45-5.55z"/></defs><use transform="scale(.5625)" xlink:href="#a"/><use transform="scale(.5625)" xlink:href="#b"/><use transform="scale(.5625)" xlink:href="#c"/><use transform="scale(.5625)" xlink:href="#d"/><use transform="scale(.5625)" xlink:href="#e"/><use transform="scale(.5625)" xlink:href="#f"/><use transform="scale(.5625)" xlink:href="#g"/><use transform="scale(.5625)" xlink:href="#h"/></svg>