<svg xmlns="http://www.w3.org/2000/svg" xmlns:xlink="http://www.w3.org/1999/xlink" preserveAspectRatio="none" viewBox="0 0 72 72"><defs><path id="a" fill="#B39DDB" d="M72 6.75Q72 4 70 2t-4.75-2H6.75Q3.95 0 2 2 0 4 0 6.75v58.5q0 2.8 2 4.8Q3.95 72 6.75 72h58.5Q68 72 70 70.05q2-2 2-4.8V6.75z"/><path id="b" fill="#7E57C2" d="M72 6.75q0-2.8-2-4.75L1.95 70.05Q3.9 72 6.75 72h58.5Q68 72 70 70.05q2-2 2-4.8V6.75z"/><path id="c" fill="#9575CD" d="M63 16.25q0-2.8-1.95-4.75-2-2-4.8-2h-40.6q-2.75 0-4.75 2-2 1.95-2 4.75V56.8q0 2.8 2 4.8 2 1.95 4.75 1.95h40.6q2.8 0 4.8-1.95 1.95-2 1.95-4.8V16.25z"/><path id="d" fill="#FFF" d="M120.8 44.9q-2-4.65-5.7-8.2l-12.4 12.9q2.15 2.05 2.15 5.1 0 2.95-2.1 5.05-2.1 2.1-5 2.1-3.05 0-5-.55V11.4h-17.9v45.1l-21.9-5.7V11.4h-17.9v35.05q-3.1-.3-5.45-.1-10.15.25-17.25 7.5Q5.2 61.15 5.2 71.3q0 5.15 1.95 9.8 2 4.65 5.7 8.2L25.3 76.4q-2.2-2.1-2.2-5.1 0-2.9 2.1-5 2.05-2.05 5-2.05h1.75q1.95.05 3.1.4V92.1q0 11.95 8.45 20.4 8.5 8.45 20.4 8.45 11.95 0 20.4-8.45t8.45-20.4V79.5q1.65.25 3.45.25 1.05 0 2.15-.1 10.15-.2 17.25-7.5 7.15-7.25 7.15-17.45 0-5.15-1.95-9.8M74.85 75v17.1q0 4.55-3.2 7.75-3.25 3.2-7.75 3.2-4.55 0-7.75-3.2t-3.2-7.75V69.35L74.85 75z"/></defs><use xlink:href="#a"/><use xlink:href="#b"/><use xlink:href="#c"/><g transform="matrix(.34538 0 0 .3455 13.9 13.15)"><use xlink:href="#d"/></g></svg>