<svg xmlns="http://www.w3.org/2000/svg" xmlns:xlink="http://www.w3.org/1999/xlink" preserveAspectRatio="none" viewBox="0 0 72 72"><defs><path id="a" fill="#E53935" d="M96.4 17.45q-1.5 0-2.5 1.05L64 48.4 34.05 18.5q-1-1.05-2.5-1.05t-2.5 1.05l-10.6 10.6q-1.05 1-1.05 2.5t1.05 2.5L48.35 64l-29.9 29.95q-1.05 1-1.05 2.5 0 1.45 1.05 2.5l10.6 10.6q1 1.05 2.5 1.05t2.5-1.05L64 79.65l29.9 29.9q1 1.05 2.5 1.05t2.5-1.05l10.6-10.6q1.05-1.05 1.05-2.5 0-1.5-1.05-2.55L79.6 64l29.9-29.9q1.05-1 1.05-2.5 0-1.45-1.05-2.5L98.9 18.5q-1-1.05-2.5-1.05z"/></defs><use transform="matrix(.66985 0 0 .66985 -6.85 -6.9)" xlink:href="#a"/></svg>