
<svg xmlns="http://www.w3.org/2000/svg" version="1.1" xmlns:xlink="http://www.w3.org/1999/xlink" preserveAspectRatio="none" x="0px" y="0px" width="72px" height="72px" viewBox="0 0 72 72">
<defs>
<g id="Layer0_0_FILL">
<path fill="#CFD8DC" stroke="none" d="
M 61.5 15.3
L 61.55 14.75
Q 61.55 14.5 61.4 14.05 61.1 13 59.6 11.75 57.7 10.2 54.7 9 51.45 7.7 47.35 7 43.45 6.25 38.25 6.1 33.05 5.9 28.1 6.6 25.7 6.85 22.85 7.55 20.2 8.1 17.65 9.15 14.8 10.2 13 11.6 11.9 12.4 11.35 13.25
L 10.85 14.4 10.85 15.05 11 15.65 11.45 16.5
Q 11.55 16.55 11.6 16.65 12.2 17.35 13.15 18 14.9 19.25 17.8 20.25 22.45 21.85 28.2 22.5 30.9 22.75 33.35 22.85
L 38.25 22.85
Q 43.25 22.7 47.25 22.1 51.45 21.4 54.6 20.35 57.65 19.25 59.55 17.9 60.05 17.5 60.45 17.15 61.15 16.35 61.4 15.7
L 61.5 15.35 61.5 15.3 Z"/>

<path fill="#B0BEC5" stroke="none" d="
M 63.35 19.2
Q 62.7 20 61.75 20.7 60.7 21.5 59.4 22.3 57.9 23.2 55.9 24 52.35 25.45 48 26.25 43.25 27.2 38.4 27.35
L 33.15 27.35
Q 30.25 27.15 27.65 26.9 24.8 26.5 22 25.85 19.05 25.2 16.35 24.1 14.3 23.3 12.7 22.4 11.7 21.85 10.8 21.15 9.6 20.25 8.8 19.25 9 20.2 9.15 21.3 10.4 27.95 12.15 37.95
L 16.3 60.35
Q 16.3 61.3 16.75 62.15 17.25 63.15 17.8 63.7 18.75 64.7 20.3 65.6 22.4 66.75 25.55 67.6 28.15 68.25 30.85 68.55 32.65 68.75 33.5 68.8 34.45 68.85 34.9 68.85
L 36.25 68.9
Q 42.05 68.8 46.8 67.6 50.05 66.75 52.05 65.6 53.65 64.65 54.6 63.7 55.25 63.05 55.65 62.15 56.1 61.25 56.15 60.3
L 63.35 19.2 Z"/>
</g>

<g id="Layer0_0_MEMBER_0_FILL">
<path fill="#B0BEC5" stroke="none" d="
M 56.85 19.45
Q 58 20.4 58.35 21.2 58.4 21.05 58.45 20.95
L 58.55 20.65 58.55 20.6 58.6 20.1
Q 58.6 19.9 58.45 19.5 58.2 18.55 56.85 17.45 55.2 16.1 52.55 15.05 49.65 13.9 46.05 13.25 42.6 12.6 38 12.45 33.4 12.3 29 12.9 26.9 13.15 24.35 13.75 22 14.25 19.75 15.15 17.25 16.1 15.65 17.35 14.7 18.05 14.2 18.8
L 14 19.15 13.75 19.8 13.75 20.4 14 21.15 14.2 20.8
Q 14.7 20.05 15.65 19.35 17.25 18.1 19.75 17.15 22 16.25 24.35 15.75 26.9 15.15 29 14.9 33.4 14.3 38 14.45 42.6 14.6 46.05 15.25 49.65 15.9 52.55 17.05 55.2 18.1 56.85 19.45 Z"/>
</g>

<g id="Layer0_0_MEMBER_2_FILL">
<path fill="#78909C" stroke="none" d="
M 61.6 20.3
L 61.55 20.2 61.55 19.75
Q 61.55 19.65 61.45 19.25 61.4 19 61.35 18.9
L 61.25 18.5
Q 60.65 16.8 58.65 15.2 56.6 13.65 53.5 12.55 50.55 11.45 46.5 10.75 42.3 10.1 38.05 9.95 32.9 9.8 28.65 10.25 23 10.9 18.7 12.4 15.75 13.45 13.8 14.8 12.45 15.75 11.6 16.9 11.45 17.1 11.15 17.6 10.8 18.25 10.75 18.4
L 10.6 18.85 10.4 20.1 10.4 20.35 10.45 20.45 10.45 20.7
Q 10.45 20.95 10.5 21.2
L 10.6 21.65 11.1 22.9
Q 11.45 23.55 11.55 23.6 11.7 23.85 11.95 24.1 12.65 25 13.7 25.8 14.5 26.4 15.4 26.9 16.8 27.7 18.6 28.4 21 29.35 23.6 29.95 26.1 30.5 28.6 30.85 30.9 31.1 33.45 31.25
L 38.1 31.25
Q 42.4 31.15 46.6 30.3 50.45 29.6 53.6 28.3 55.35 27.6 56.7 26.8 57.85 26.1 58.75 25.4 59.6 24.75 60.2 24.05 61 23 61.3 21.95
L 61.4 21.6 61.6 20.3
M 58.45 19.5
Q 58.6 19.9 58.6 20.1
L 58.55 20.6 58.55 20.65 58.45 20.95
Q 58.25 21.55 57.6 22.25 57.25 22.55 56.8 22.9 55.15 24.1 52.45 25.05 49.65 26 45.95 26.6 42.4 27.15 38 27.3
L 33.65 27.3
Q 31.5 27.2 29.1 26.95 24 26.4 19.9 25 17.35 24.1 15.8 23 14.95 22.4 14.4 21.8 14.35 21.7 14.3 21.65
L 14.05 21.25 13.9 20.9 13.75 20.4 13.75 19.8 14 19.15 14.2 18.8
Q 14.7 18.05 15.65 17.35 17.25 16.1 19.75 15.15 22 14.25 24.35 13.75 26.9 13.15 29 12.9 33.4 12.3 38 12.45 42.6 12.6 46.05 13.25 49.65 13.9 52.55 15.05 55.2 16.1 56.85 17.45 58.2 18.55 58.45 19.5 Z"/>
</g>

<path id="Layer0_0_MEMBER_1_1_STROKES" stroke="#CFD8DC" stroke-width="4" stroke-linejoin="round" stroke-linecap="square" fill="none" d="
M 6.95 14.55
L 4.1 14.55
Q 4.45 45.55 36.45 45.6 67.55 45.6 67.9 14.55
L 65.15 14.55"/>
</defs>

<g transform="matrix( 1, 0, 0, 1, 0,-0.05) ">
<use xlink:href="#Layer0_0_FILL"/>
</g>

<g transform="matrix( 1.13079833984375, 0, 0, 1.13079833984375, -4.7,-8.05) ">
<use xlink:href="#Layer0_0_MEMBER_0_FILL"/>
</g>

<g transform="matrix( 1, 0, 0, 1, 0,-0.05) ">
<use xlink:href="#Layer0_0_MEMBER_1_1_STROKES"/>
</g>

<g transform="matrix( 1.13079833984375, 0, 0, 1.13079833984375, -4.7,-8.05) ">
<use xlink:href="#Layer0_0_MEMBER_2_FILL"/>
</g>
</svg>
