
<svg xmlns="http://www.w3.org/2000/svg" version="1.1" xmlns:xlink="http://www.w3.org/1999/xlink" preserveAspectRatio="none" x="0px" y="0px" width="72px" height="72px" viewBox="0 0 72 72">
<defs>
<g id="Layer0_0_MEMBER_0_FILL">
<path fill="#B99379" stroke="none" d="
M 50.3 48.9
Q 50.3 39.65 43.75 33.1 37.2 26.55 27.95 26.55 18.7 26.55 12.15 33.1 5.6 39.65 5.6 48.9 5.6 58.15 12.15 64.7 18.7 71.25 27.95 71.25 37.2 71.25 43.75 64.7 50.3 58.15 50.3 48.9 Z"/>
</g>

<g id="Layer0_0_MEMBER_1_FILL">
<path fill="#865C51" stroke="none" d="
M 101.3 87.15
Q 105.55 82.9 105.55 76.9 105.55 70.85 101.3 66.6 97 62.35 91 62.35 84.95 62.35 80.7 66.6 76.45 70.85 76.45 76.9 76.45 82.9 80.7 87.15 84.95 91.45 91 91.45 97 91.45 101.3 87.15 Z"/>
</g>

<g id="Layer0_0_MEMBER_2_FILL">
<path fill="#865C51" stroke="none" d="
M 101.3 87.15
Q 105.55 82.9 105.55 76.9 105.55 70.85 101.3 66.6 97 62.35 91 62.35 84.95 62.35 80.7 66.6 76.45 70.85 76.45 76.9 76.45 82.9 80.7 87.15 84.95 91.45 91 91.45 97 91.45 101.3 87.15 Z"/>
</g>

<g id="Layer0_0_MEMBER_3_FILL">
<path fill="#865C51" stroke="none" d="
M 101.3 87.15
Q 105.55 82.9 105.55 76.9 105.55 70.85 101.3 66.6 97 62.35 91 62.35 84.95 62.35 80.7 66.6 76.45 70.85 76.45 76.9 76.45 82.9 80.7 87.15 84.95 91.45 91 91.45 97 91.45 101.3 87.15 Z"/>
</g>

<g id="Layer0_0_MEMBER_4_FILL">
<path fill="#865C51" stroke="none" d="
M 101.3 87.15
Q 105.55 82.9 105.55 76.9 105.55 70.85 101.3 66.6 97 62.35 91 62.35 84.95 62.35 80.7 66.6 76.45 70.85 76.45 76.9 76.45 82.9 80.7 87.15 84.95 91.45 91 91.45 97 91.45 101.3 87.15 Z"/>
</g>

<g id="Layer0_0_MEMBER_5_FILL">
<path fill="#865C51" stroke="none" d="
M 101.3 87.15
Q 105.55 82.9 105.55 76.9 105.55 70.85 101.3 66.6 97 62.35 91 62.35 84.95 62.35 80.7 66.6 76.45 70.85 76.45 76.9 76.45 82.9 80.7 87.15 84.95 91.45 91 91.45 97 91.45 101.3 87.15 Z"/>
</g>

<g id="Layer0_0_MEMBER_6_FILL">
<path fill="#865C51" stroke="none" d="
M 101.3 87.15
Q 105.55 82.9 105.55 76.9 105.55 70.85 101.3 66.6 97 62.35 91 62.35 84.95 62.35 80.7 66.6 76.45 70.85 76.45 76.9 76.45 82.9 80.7 87.15 84.95 91.45 91 91.45 97 91.45 101.3 87.15 Z"/>
</g>

<g id="Layer0_0_MEMBER_7_FILL">
<path fill="#865C51" stroke="none" d="
M 101.3 87.15
Q 105.55 82.9 105.55 76.9 105.55 70.85 101.3 66.6 97 62.35 91 62.35 84.95 62.35 80.7 66.6 76.45 70.85 76.45 76.9 76.45 82.9 80.7 87.15 84.95 91.45 91 91.45 97 91.45 101.3 87.15 Z"/>
</g>

<g id="Layer0_0_MEMBER_8_FILL">
<path fill="#865C51" stroke="none" d="
M 101.3 87.15
Q 105.55 82.9 105.55 76.9 105.55 70.85 101.3 66.6 97 62.35 91 62.35 84.95 62.35 80.7 66.6 76.45 70.85 76.45 76.9 76.45 82.9 80.7 87.15 84.95 91.45 91 91.45 97 91.45 101.3 87.15 Z"/>
</g>
</defs>

<g transform="matrix( 1.565948486328125, 0, 0, 1.5670623779296875, -7.75,-40.6) ">
<use xlink:href="#Layer0_0_MEMBER_0_FILL"/>
</g>

<g transform="matrix( 0.446624755859375, 0, 0, 0.446929931640625, -6.15,1.65) ">
<use xlink:href="#Layer0_0_MEMBER_1_FILL"/>
</g>

<g transform="matrix( 0.48968505859375, 0, 0, 0.4900360107421875, -17.55,19.35) ">
<use xlink:href="#Layer0_0_MEMBER_2_FILL"/>
</g>

<g transform="matrix( 0.4197235107421875, 0, 0, 0.420013427734375, 17.3,0.7) ">
<use xlink:href="#Layer0_0_MEMBER_3_FILL"/>
</g>

<g transform="matrix( 0.27978515625, 0, 0, 0.279998779296875, -10.45,22) ">
<use xlink:href="#Layer0_0_MEMBER_4_FILL"/>
</g>

<g transform="matrix( 0.277923583984375, 0, 0, 0.2781219482421875, 21,-3.45) ">
<use xlink:href="#Layer0_0_MEMBER_5_FILL"/>
</g>

<g transform="matrix( 0.408966064453125, 0, 0, 0.40924072265625, -14.7,-14.95) ">
<use xlink:href="#Layer0_0_MEMBER_6_FILL"/>
</g>

<g transform="matrix( 0.277923583984375, 0, 0, 0.2781219482421875, 21.2,-3.4) ">
<use xlink:href="#Layer0_0_MEMBER_7_FILL"/>
</g>

<g transform="matrix( 0.4197235107421875, 0, 0, 0.420013427734375, 14.8,23.2) ">
<use xlink:href="#Layer0_0_MEMBER_8_FILL"/>
</g>
</svg>
