
<svg xmlns="http://www.w3.org/2000/svg" version="1.1" xmlns:xlink="http://www.w3.org/1999/xlink" preserveAspectRatio="none" x="0px" y="0px" width="72px" height="72px" viewBox="0 0 72 72">
<defs>
<g id="Layer1_0_MEMBER_0_MEMBER_0_FILL">
<path fill="#007DB6" stroke="none" d="
M 72 6.75
Q 72 4 70 2 68 0 65.25 0
L 6.75 0
Q 3.95 0 2 2 0 4 0 6.75
L 0 65.25
Q 0 68.05 2 70.05 3.95 72 6.75 72
L 65.25 72
Q 68 72 70 70.05 72 68.05 72 65.25
L 72 6.75 Z"/>
</g>

<g id="Layer1_0_MEMBER_0_MEMBER_1_MEMBER_0_FILL">
<path fill="#004D80" stroke="none" d="
M 72 6.75
Q 72 3.95 70 2
L 1.95 70.05
Q 3.9 72 6.75 72
L 65.25 72
Q 68 72 70 70.05 72 68.05 72 65.25
L 72 6.75 Z"/>
</g>

<g id="Layer1_0_MEMBER_0_MEMBER_2_FILL">
<path fill="#006CA2" stroke="none" d="
M 63 16.25
Q 63 13.45 61.05 11.5 59.05 9.5 56.25 9.5
L 15.65 9.5
Q 12.9 9.5 10.9 11.5 8.9 13.45 8.9 16.25
L 8.9 56.8
Q 8.9 59.6 10.9 61.6 12.9 63.55 15.65 63.55
L 56.25 63.55
Q 59.05 63.55 61.05 61.6 63 59.6 63 56.8
L 63 16.25 Z"/>
</g>

<g id="Layer0_0_FILL">
<path fill="#FFFFFF" stroke="none" d="
M 101 43.35
Q 100.65 43 100.25 43
L 90.3 43 92.15 30.1
Q 92.25 29.6 91.9 29.25 91.6 28.85 91.1 28.85
L 75.85 28.85
Q 74.95 28.75 74.75 29.75
L 72.9 42.95 60.7 42.9 62.55 30
Q 62.65 29.55 62.3 29.15 61.95 28.8 61.5 28.8
L 46.25 28.75
Q 45.3 28.75 45.2 29.7
L 43.25 42.9 32.95 42.85
Q 32.5 42.85 32.2 43.2 31.9 43.5 31.9 43.95
L 31.85 56.2
Q 31.85 56.65 32.2 57 32.5 57.3 32.95 57.3
L 41.2 57.3 39.25 70.85 27.8 70.85
Q 27.35 70.85 27.05 71.15 26.75 71.45 26.75 71.9
L 26.7 84.15
Q 26.7 84.6 27 84.95 27.3 85.25 27.75 85.25
L 37.15 85.25 35 100.05
Q 34.95 100.6 35.25 100.9 35.55 101.3 36.05 101.3
L 51.3 101.35
Q 52.25 101.35 52.4 100.4
L 54.55 85.3 66.75 85.3 64.65 100.15
Q 64.55 100.65 64.9 101 65.2 101.35 65.7 101.35
L 80.95 101.4
Q 81.9 101.4 82 100.45
L 84.2 85.35 95.05 85.4
Q 95.5 85.4 95.85 85.1 96.15 84.75 96.15 84.3
L 96.15 72.05
Q 96.15 71.6 95.85 71.3 95.5 70.95 95.1 70.95
L 86.25 70.95 88.2 57.4 100.2 57.4
Q 100.65 57.4 100.95 57.1 101.25 56.8 101.25 56.35
L 101.3 44.1
Q 101.3 43.65 101 43.35
M 58.6 57.35
L 70.8 57.35 68.85 70.9 56.65 70.9 58.6 57.35 Z"/>
</g>
</defs>

<g id="Layer_1">
<g transform="matrix( 1, 0, 0, 1, 0,0) ">
<use xlink:href="#Layer1_0_MEMBER_0_MEMBER_0_FILL"/>
</g>

<g transform="matrix( 1, 0, 0, 1, 0,0) ">
<use xlink:href="#Layer1_0_MEMBER_0_MEMBER_1_MEMBER_0_FILL"/>
</g>

<g transform="matrix( 1, 0, 0, 1, 0,0) ">
<use xlink:href="#Layer1_0_MEMBER_0_MEMBER_2_FILL"/>
</g>
</g>

<g transform="matrix( 0.5442352294921875, 0, 0, 0.5443878173828125, 1.15,0.6) ">
<use xlink:href="#Layer0_0_FILL"/>
</g>
</svg>
