
<svg xmlns="http://www.w3.org/2000/svg" version="1.1" xmlns:xlink="http://www.w3.org/1999/xlink" preserveAspectRatio="none" x="0px" y="0px" width="72px" height="72px" viewBox="0 0 72 72">
<defs>
<g id="Layer1_0_MEMBER_0_MEMBER_0_FILL">
<path fill="#007DB6" stroke="none" d="
M 72 6.75
Q 72 4 70 2 68 0 65.25 0
L 6.75 0
Q 3.95 0 2 2 0 4 0 6.75
L 0 65.25
Q 0 68.05 2 70.05 3.95 72 6.75 72
L 65.25 72
Q 68 72 70 70.05 72 68.05 72 65.25
L 72 6.75 Z"/>
</g>

<g id="Layer1_0_MEMBER_0_MEMBER_1_MEMBER_0_FILL">
<path fill="#004D80" stroke="none" d="
M 72 6.75
Q 72 3.95 70 2
L 1.95 70.05
Q 3.9 72 6.75 72
L 65.25 72
Q 68 72 70 70.05 72 68.05 72 65.25
L 72 6.75 Z"/>
</g>

<g id="Layer1_0_MEMBER_0_MEMBER_2_FILL">
<path fill="#006CA2" stroke="none" d="
M 63 16.25
Q 63 13.45 61.05 11.5 59.05 9.5 56.25 9.5
L 15.65 9.5
Q 12.9 9.5 10.9 11.5 8.9 13.45 8.9 16.25
L 8.9 56.8
Q 8.9 59.6 10.9 61.6 12.9 63.55 15.65 63.55
L 56.25 63.55
Q 59.05 63.55 61.05 61.6 63 59.6 63 56.8
L 63 16.25 Z"/>
</g>

<g id="Layer0_0_FILL">
<path fill="#FFFFFF" stroke="none" d="
M 84.95 41.8
L 83.05 43.05 66.75 55.9
Q 70.6 38.75 71.75 35.25 72.35 33.3 71.5 31.8 70.55 30.25 68.5 29.85 66.5 29.5 63.2 29.4 59.25 29.35 56.6 29.85 54.15 30.4 53.95 33.05 53.9 34.4 54.3 35.65
L 59.05 55.9 43.75 43.5
Q 42.7 42.45 41.3 41.8 38.55 40.5 37 42.45 35.35 44.55 33.6 48.1 32.15 51.15 31.6 53.05 31.05 55.05 32 56.45 32.95 57.75 34.95 58.35 36.85 58.95 45.2 61.3 53.95 63.7 56.5 64.35
L 36.4 70.6 33.8 71.8
Q 31.35 73.45 32.15 75.85 33 78.35 35.1 81.75 36.75 84.45 38.15 86.1 39.55 87.7 41.35 87.7 43.1 87.65 44.45 86.15 45.45 85.05 50.05 80.45 54.85 75.6 58.05 72.55 53.8 91 53.6 91.55 53 93.5 53.85 95 54.75 96.55 56.85 96.95 58.9 97.35 62.15 97.4 66.1 97.5 68.75 96.95 71.2 96.45 71.4 93.85
L 71.1 91.3 66.7 72.6
Q 68.9 74.65 75.2 80.55 80.65 85.6 81.45 86.5 82.8 88 84.55 88.05 86.35 88.05 87.75 86.45 89.1 85 90.85 82.1 92.9 78.75 93.75 76.2 94.6 73.8 92.05 72.2
L 89.3 71.05 69.25 64.35
Q 77 62 90.4 58.35 92.6 57.75 93.4 56.85 94.4 55.75 93.95 53.85 93.55 52.05 91.85 48.55 90 44.65 88.35 42.45 87.1 40.85 84.95 41.8 Z"/>
</g>
</defs>

<g id="Layer_1">
<g transform="matrix( 1, 0, 0, 1, 0,0) ">
<use xlink:href="#Layer1_0_MEMBER_0_MEMBER_0_FILL"/>
</g>

<g transform="matrix( 1, 0, 0, 1, 0,0) ">
<use xlink:href="#Layer1_0_MEMBER_0_MEMBER_1_MEMBER_0_FILL"/>
</g>

<g transform="matrix( 1, 0, 0, 1, 0,0) ">
<use xlink:href="#Layer1_0_MEMBER_0_MEMBER_2_FILL"/>
</g>
</g>

<g transform="matrix( 0.5972900390625, 0, 0, 0.5970611572265625, -1.45,-1.85) ">
<use xlink:href="#Layer0_0_FILL"/>
</g>
</svg>
