
<svg xmlns="http://www.w3.org/2000/svg" version="1.1" xmlns:xlink="http://www.w3.org/1999/xlink" preserveAspectRatio="none" x="0px" y="0px" width="72px" height="72px" viewBox="0 0 72 72">
<defs>
<g id="Layer2_0_MEMBER_0_MEMBER_0_FILL">
<path fill="#007DB6" stroke="none" d="
M 72 6.75
Q 72 4 70 2 68 0 65.25 0
L 6.75 0
Q 3.95 0 2 2 0 4 0 6.75
L 0 65.25
Q 0 68.05 2 70.05 3.95 72 6.75 72
L 65.25 72
Q 68 72 70 70.05 72 68.05 72 65.25
L 72 6.75 Z"/>
</g>

<g id="Layer2_0_MEMBER_0_MEMBER_1_MEMBER_0_FILL">
<path fill="#004D80" stroke="none" d="
M 72 6.75
Q 72 3.95 70 2
L 1.95 70.05
Q 3.9 72 6.75 72
L 65.25 72
Q 68 72 70 70.05 72 68.05 72 65.25
L 72 6.75 Z"/>
</g>

<g id="Layer2_0_MEMBER_0_MEMBER_2_FILL">
<path fill="#006CA2" stroke="none" d="
M 63 16.25
Q 63 13.45 61.05 11.5 59.05 9.5 56.25 9.5
L 15.65 9.5
Q 12.9 9.5 10.9 11.5 8.9 13.45 8.9 16.25
L 8.9 56.8
Q 8.9 59.6 10.9 61.6 12.9 63.55 15.65 63.55
L 56.25 63.55
Q 59.05 63.55 61.05 61.6 63 59.6 63 56.8
L 63 16.25 Z"/>
</g>

<g id="Layer0_0_FILL">
<path fill="#FFFFFF" stroke="none" d="
M 46.35 46.5
Q 46.75 46.85 47.3 46.65
L 54.8 44.5 54.8 85.7 49.05 85.7
Q 48.55 85.7 48.25 86.05 47.9 86.35 47.9 86.85
L 47.9 100.9
Q 47.9 101.4 48.25 101.7 48.55 102.05 49.05 102.05
L 78.95 102.05
Q 79.4 102.05 79.75 101.7 80.05 101.4 80.05 100.9
L 80.05 86.85
Q 80.05 86.35 79.75 86.05 79.4 85.7 78.95 85.7
L 73.15 85.7 73.15 25.4
Q 73.15 24.8 72.75 24.5 72.3 24.15 71.8 24.3
L 46.75 29.7
Q 45.9 29.85 45.9 30.75
L 45.9 45.6
Q 45.9 46.15 46.35 46.5 Z"/>
</g>
</defs>

<g id="Layer_1">
<g transform="matrix( 1, 0, 0, 1, 0,0) ">
<use xlink:href="#Layer2_0_MEMBER_0_MEMBER_0_FILL"/>
</g>

<g transform="matrix( 1, 0, 0, 1, 0,0) ">
<use xlink:href="#Layer2_0_MEMBER_0_MEMBER_1_MEMBER_0_FILL"/>
</g>

<g transform="matrix( 1, 0, 0, 1, 0,0) ">
<use xlink:href="#Layer2_0_MEMBER_0_MEMBER_2_FILL"/>
</g>
</g>

<g transform="matrix( 0.5212249755859375, 0, 0, 0.5218505859375, 3.2,3.05) ">
<use xlink:href="#Layer0_0_FILL"/>
</g>
</svg>
