
<svg xmlns="http://www.w3.org/2000/svg" version="1.1" xmlns:xlink="http://www.w3.org/1999/xlink" preserveAspectRatio="none" x="0px" y="0px" width="72px" height="72px" viewBox="0 0 72 72">
<defs>
<g id="Layer1_0_MEMBER_0_MEMBER_0_FILL">
<path fill="#007DB6" stroke="none" d="
M 72 6.75
Q 72 4 70 2 68 0 65.25 0
L 6.75 0
Q 3.95 0 2 2 0 4 0 6.75
L 0 65.25
Q 0 68.05 2 70.05 3.95 72 6.75 72
L 65.25 72
Q 68 72 70 70.05 72 68.05 72 65.25
L 72 6.75 Z"/>
</g>

<g id="Layer1_0_MEMBER_0_MEMBER_1_MEMBER_0_FILL">
<path fill="#004D80" stroke="none" d="
M 72 6.75
Q 72 3.95 70 2
L 1.95 70.05
Q 3.9 72 6.75 72
L 65.25 72
Q 68 72 70 70.05 72 68.05 72 65.25
L 72 6.75 Z"/>
</g>

<g id="Layer1_0_MEMBER_0_MEMBER_2_FILL">
<path fill="#006CA2" stroke="none" d="
M 63 16.25
Q 63 13.45 61.05 11.5 59.05 9.5 56.25 9.5
L 15.65 9.5
Q 12.9 9.5 10.9 11.5 8.9 13.45 8.9 16.25
L 8.9 56.8
Q 8.9 59.6 10.9 61.6 12.9 63.55 15.65 63.55
L 56.25 63.55
Q 59.05 63.55 61.05 61.6 63 59.6 63 56.8
L 63 16.25 Z"/>
</g>

<g id="Layer0_0_MEMBER_0_FILL">
<path fill="#FFFFFF" stroke="none" d="
M 93 49.45
Q 93 38.7 85 31.45 76.75 24 63.85 24 50.95 24 42.7 31.45 34.75 38.7 34.75 49.45 34.75 60.2 42.7 67.4 50.95 74.8 63.85 74.8 76.75 74.8 85 67.4 93 60.2 93 49.45
M 54.5 40.75
Q 58.1 37.2 63.85 37.2 69.55 37.2 73.2 40.75 76.75 44.25 76.75 49.4 76.75 54.6 73.2 58.1 69.55 61.65 63.85 61.65 58.15 61.65 54.5 58.05 50.95 54.55 50.95 49.4 50.95 44.25 54.5 40.75 Z"/>
</g>

<g id="Layer0_0_MEMBER_1_FILL">
<path fill="#FFFFFF" stroke="none" d="
M 81.4 85.85
Q 86.9 78.4 89.65 71 93.5 60.65 92.9 48.75 92.3 36.9 79.5 29.6 75.5 27.3 70.8 25.75
L 66.85 24.65 83.3 41.75 76.85 51.4
Q 75.9 65.75 68.7 76 63.5 83.4 55.4 89.2 51.4 92.1 48.4 93.55
L 57.2 104.95
Q 60.65 103.7 65.4 100.65 74.95 94.6 81.4 85.85 Z"/>
</g>
</defs>

<g id="Layer_1">
<g transform="matrix( 1, 0, 0, 1, 0,0) ">
<use xlink:href="#Layer1_0_MEMBER_0_MEMBER_0_FILL"/>
</g>

<g transform="matrix( 1, 0, 0, 1, 0,0) ">
<use xlink:href="#Layer1_0_MEMBER_0_MEMBER_1_MEMBER_0_FILL"/>
</g>

<g transform="matrix( 1, 0, 0, 1, 0,0) ">
<use xlink:href="#Layer1_0_MEMBER_0_MEMBER_2_FILL"/>
</g>
</g>

<g transform="matrix( 0.50128173828125, 0, 0, 0.5015411376953125, 4,3.65) ">
<use xlink:href="#Layer0_0_MEMBER_0_FILL"/>
</g>

<g transform="matrix( 0.50128173828125, 0, 0, 0.5015411376953125, 4,3.65) ">
<use xlink:href="#Layer0_0_MEMBER_1_FILL"/>
</g>
</svg>
