
<svg xmlns="http://www.w3.org/2000/svg" version="1.1" xmlns:xlink="http://www.w3.org/1999/xlink" preserveAspectRatio="none" x="0px" y="0px" width="72px" height="72px" viewBox="0 0 72 72">
<defs>
<g id="Layer0_0_MEMBER_0_MEMBER_0_MEMBER_0_MEMBER_0_FILL">
<path fill="#F79329" stroke="none" d="
M 105.9 95.35
L 91.55 50.4 69.55 90.65 105.9 95.35 Z"/>
</g>

<g id="Layer0_0_MEMBER_0_MEMBER_0_MEMBER_0_MEMBER_1_FILL">
<path fill="#F79329" stroke="none" d="
M 107.1 95.35
Q 107.1 94.9 106.9 94.65
L 92.65 50.05
Q 92.4 49.25 91.65 49.25 90.95 49.15 90.5 49.85
L 68.5 90.05
Q 68.2 90.55 68.45 91.15 68.8 91.7 69.35 91.8
L 105.75 96.5 105.95 96.5
Q 106.45 96.5 106.75 96.15 107.1 95.85 107.1 95.35
M 91.25 53.4
L 104.2 93.95 71.4 89.7 91.25 53.4 Z"/>
</g>

<g id="Layer0_0_MEMBER_0_MEMBER_0_MEMBER_1_MEMBER_0_FILL">
<path fill="#F79329" stroke="none" d="
M 36.4 50.4
L 22.05 95.35 58.45 90.65 36.4 50.4 Z"/>
</g>

<g id="Layer0_0_MEMBER_0_MEMBER_0_MEMBER_1_MEMBER_1_FILL">
<path fill="#F79329" stroke="none" d="
M 22.05 96.5
L 22.2 96.55 58.55 91.8
Q 59.25 91.7 59.45 91.2 59.8 90.6 59.45 90.1
L 37.45 49.85
Q 37.05 49.2 36.3 49.25 35.45 49.35 35.3 50.05
L 20.95 95
Q 20.7 95.55 21.15 96.1 21.55 96.5 22.05 96.5
M 23.75 93.95
L 36.7 53.4 56.55 89.7 23.75 93.95 Z"/>
</g>

<g id="Layer0_0_MEMBER_0_MEMBER_0_MEMBER_2_MEMBER_0_FILL">
<path fill="#FCC21B" stroke="none" d="
M 38.55 38.8
Q 40.15 37.2 40.15 34.95 40.15 32.65 38.55 31.1 37 29.5 34.7 29.5 32.45 29.5 30.85 31.1 29.25 32.65 29.25 34.95 29.25 37.2 30.85 38.8 32.45 40.4 34.7 40.4 37 40.4 38.55 38.8 Z"/>
</g>

<g id="Layer0_0_MEMBER_0_MEMBER_0_MEMBER_2_MEMBER_1_FILL">
<path fill="#FCC21B" stroke="none" d="
M 39.4 30.25
Q 37.45 28.3 34.7 28.3 31.95 28.3 30 30.25 28.05 32.2 28.05 34.95 28.05 37.7 30 39.6 31.95 41.55 34.7 41.55 37.45 41.55 39.4 39.6 41.35 37.7 41.35 34.95 41.35 32.2 39.4 30.25
M 30.4 34.95
Q 30.4 33.15 31.65 31.9 32.95 30.65 34.7 30.65 36.45 30.65 37.75 31.9 39 33.15 39 34.95 39 36.7 37.75 37.95 36.45 39.2 34.7 39.2 32.95 39.2 31.65 37.95 30.4 36.7 30.4 34.95 Z"/>
</g>

<g id="Layer0_0_MEMBER_0_MEMBER_0_MEMBER_3_MEMBER_0_FILL">
<path fill="#FCC21B" stroke="none" d="
M 97.3 31.3
Q 95.8 29.6 93.55 29.5 91.3 29.35 89.6 30.85 87.9 32.35 87.8 34.6 87.65 36.9 89.15 38.55 90.65 40.25 92.9 40.4 95.15 40.5 96.85 39 98.55 37.5 98.7 35.25 98.8 33 97.3 31.3 Z"/>
</g>

<g id="Layer0_0_MEMBER_0_MEMBER_0_MEMBER_3_MEMBER_1_FILL">
<path fill="#FCC21B" stroke="none" d="
M 93.65 28.3
L 93.25 28.3
Q 90.6 28.3 88.7 30.1 86.75 31.95 86.6 34.55 86.45 37.25 88.3 39.35 90.1 41.4 92.85 41.55
L 93.25 41.55
Q 95.85 41.55 97.8 39.75 99.7 37.95 99.85 35.35 100.05 32.6 98.2 30.55 96.4 28.5 93.65 28.3
M 96.45 32.1
Q 97.6 33.4 97.5 35.2 97.4 36.9 96.15 38.05 94.95 39.2 93.25 39.2
L 93 39.2
Q 91.2 39.1 90.05 37.75 88.85 36.5 88.95 34.7 89.05 32.95 90.3 31.8 91.6 30.65 93.45 30.65 95.25 30.75 96.45 32.1 Z"/>
</g>

<g id="Layer0_0_MEMBER_0_MEMBER_1_MEMBER_0_MEMBER_0_MEMBER_0_FILL">
<path fill="#FCC21B" stroke="none" d="
M 118.2 53.7
L 87.25 82.75 65.15 49.75
Q 64.8 49.25 64.15 49.25 63.5 49.25 63.2 49.75
L 41 82.75 10.05 53.65
Q 9.45 53.15 8.75 53.45 8.05 53.75 8.05 54.55
L 9.35 102.05
Q 9.35 109.8 25.2 115.15 41.05 120.5 64.1 120.5 87.1 120.5 103 115.15 118.9 109.85 118.9 102.1
L 120.15 54.55
Q 120.15 53.8 119.5 53.45 118.75 53.15 118.2 53.7 Z"/>
</g>

<g id="_ndice_svg_Layer_1__Clip_Group__1_0_Layer2_0_FILL">
<path fill="#D7598B" stroke="none" d="
M 110.95 47.65
L 111.45 28.85
Q 108.5619140625 28.912109375 106.4 31.45 104.05 34.1 103.95 38.05 103.85 41.95 105.95 44.75 108.0091796875 47.4794921875 110.95 47.65 Z"/>
</g>

<g id="_ndice_svg_Layer_1__Clip_Group__0_Layer2_0_FILL">
<path fill="#D7598B" stroke="none" d="
M 5.75 31.45
Q 3.5767578125 28.898828125 0.65 28.85
L 1.15 47.65
Q 4.0912109375 47.4791015625 6.15 44.75 8.3 41.95 8.2 38.05 8.05 34.1 5.75 31.45 Z"/>
</g>

<g id="Layer0_0_MEMBER_0_MEMBER_1_MEMBER_1_FILL">
<path fill="#F79329" stroke="none" d="
M 69.75 23
Q 67.4 20.6 64 20.6 60.6 20.6 58.2 23 55.8 25.4 55.8 28.8 55.8 32.2 58.2 34.55 60.6 36.95 64 36.95 67.4 36.95 69.75 34.55 72.15 32.2 72.15 28.8 72.15 25.4 69.75 23 Z"/>
</g>

<g id="Layer0_0_MEMBER_0_MEMBER_1_MEMBER_2_FILL">
<path fill="#F79329" stroke="none" d="
M 11.5 39.5
Q 13.4 37.6 13.4 34.95 13.4 32.25 11.55 30.35 9.65 28.45 6.95 28.45 4.25 28.45 2.35 30.35 0.45 32.25 0.45 34.95 0.45 37.6 2.35 39.5 4.25 41.4 6.95 41.4 9.6 41.4 11.5 39.5 Z"/>
</g>

<g id="Layer0_0_MEMBER_0_MEMBER_1_MEMBER_3_FILL">
<path fill="#F79329" stroke="none" d="
M 125.6 39.5
Q 127.5 37.6 127.5 34.95 127.5 32.25 125.6 30.35 123.7 28.45 121 28.45 118.3 28.45 116.4 30.35 114.5 32.25 114.5 34.95 114.5 37.6 116.4 39.5 118.3 41.4 121 41.4 123.7 41.4 125.6 39.5 Z"/>
</g>

<g id="Layer0_0_MEMBER_0_MEMBER_1_MEMBER_4_FILL">
<path fill="#F79329" stroke="none" d="
M 69.75 23
Q 67.4 20.6 64 20.6 60.6 20.6 58.2 23 55.8 25.4 55.8 28.8 55.8 32.2 58.2 34.55 60.6 36.95 64 36.95 67.4 36.95 69.75 34.55 72.15 32.2 72.15 28.8 72.15 25.4 69.75 23 Z"/>
</g>

<g id="Layer0_0_MEMBER_0_MEMBER_1_MEMBER_5_FILL">
<path fill="#F79329" stroke="none" d="
M 11.5 39.5
Q 13.4 37.6 13.4 34.95 13.4 32.25 11.55 30.35 9.65 28.45 6.95 28.45 4.25 28.45 2.35 30.35 0.45 32.25 0.45 34.95 0.45 37.6 2.35 39.5 4.25 41.4 6.95 41.4 9.6 41.4 11.5 39.5 Z"/>
</g>

<g id="Layer0_0_MEMBER_0_MEMBER_1_MEMBER_6_FILL">
<path fill="#F79329" stroke="none" d="
M 125.6 39.5
Q 127.5 37.6 127.5 34.95 127.5 32.25 125.6 30.35 123.7 28.45 121 28.45 118.3 28.45 116.4 30.35 114.5 32.25 114.5 34.95 114.5 37.6 116.4 39.5 118.3 41.4 121 41.4 123.7 41.4 125.6 39.5 Z"/>
</g>

<g id="Layer0_0_MEMBER_0_MEMBER_2_FILL">
<path fill="#D7598B" stroke="none" d="
M 58 89.45
Q 55.45 92.4 55.45 96.6 55.45 100.75 58 103.75 60.55 106.7 64.1 106.7 67.7 106.7 70.25 103.75 72.8 100.75 72.8 96.6 72.8 92.4 70.25 89.45 67.7 86.45 64.1 86.45 60.55 86.45 58 89.45 Z"/>
</g>

<g id="Layer0_0_MEMBER_1_MEMBER_0_FILL">
<path fill="#ED6C30" stroke="none" d="
M 85.95 97.05
Q 84.2 97 82.9 98.35 81.6 99.7 81.5 101.75 81.4 103.75 82.55 105.3 83.7 106.8 85.45 106.85 87.2 106.95 88.5 105.55 89.8 104.15 89.9 102.15 90 100.15 88.85 98.65 87.7 97.15 85.95 97.05 Z"/>
</g>

<g id="Layer0_0_MEMBER_1_MEMBER_1_FILL">
<path fill="#ED6C30" stroke="none" d="
M 100.2 95.4
Q 98.9 96.75 98.8 98.75 98.7 100.75 99.85 102.3 101 103.8 102.75 103.85 104.45 103.95 105.8 102.6 107.1 101.25 107.2 99.2 107.3 97.15 106.15 95.7 105 94.2 103.25 94.1 101.5 94.05 100.2 95.4 Z"/>
</g>

<g id="Layer0_0_MEMBER_2_MEMBER_0_FILL">
<path fill="#ED6C30" stroke="none" d="
M 45.35 98.35
Q 44.05 97 42.3 97.05 40.55 97.15 39.4 98.65 38.25 100.15 38.35 102.15 38.45 104.2 39.75 105.55 41.05 106.95 42.8 106.85 44.55 106.8 45.65 105.3 46.8 103.8 46.7 101.75 46.65 99.75 45.35 98.35 Z"/>
</g>

<g id="Layer0_0_MEMBER_2_MEMBER_1_FILL">
<path fill="#ED6C30" stroke="none" d="
M 28 95.35
Q 26.65 94 24.95 94.1 23.25 94.2 22.1 95.7 20.95 97.15 21 99.2 21.1 101.2 22.4 102.6 23.7 103.95 25.45 103.85 27.2 103.8 28.35 102.3 29.5 100.75 29.4 98.75 29.3 96.7 28 95.35 Z"/>
</g>
</defs>

<g id="Layer_1">
<g transform="matrix( 0.5625, 0, 0, 0.5625, 0,-6.35) ">
<use xlink:href="#Layer0_0_MEMBER_0_MEMBER_0_MEMBER_0_MEMBER_0_FILL"/>
</g>

<g transform="matrix( 0.5625, 0, 0, 0.5625, 0,-6.35) ">
<use xlink:href="#Layer0_0_MEMBER_0_MEMBER_0_MEMBER_0_MEMBER_1_FILL"/>
</g>

<g transform="matrix( 0.5625, 0, 0, 0.5625, 0,-6.35) ">
<use xlink:href="#Layer0_0_MEMBER_0_MEMBER_0_MEMBER_1_MEMBER_0_FILL"/>
</g>

<g transform="matrix( 0.5625, 0, 0, 0.5625, 0,-6.35) ">
<use xlink:href="#Layer0_0_MEMBER_0_MEMBER_0_MEMBER_1_MEMBER_1_FILL"/>
</g>

<g transform="matrix( 0.5625, 0, 0, 0.5625, 0,-1.3) ">
<use xlink:href="#Layer0_0_MEMBER_0_MEMBER_0_MEMBER_2_MEMBER_0_FILL"/>
</g>

<g transform="matrix( 0.5625, 0, 0, 0.5625, 0,-1.3) ">
<use xlink:href="#Layer0_0_MEMBER_0_MEMBER_0_MEMBER_2_MEMBER_1_FILL"/>
</g>

<g transform="matrix( 0.5625, 0, 0, 0.5625, 0,-1.3) ">
<use xlink:href="#Layer0_0_MEMBER_0_MEMBER_0_MEMBER_3_MEMBER_0_FILL"/>
</g>

<g transform="matrix( 0.5625, 0, 0, 0.5625, 0,-1.3) ">
<use xlink:href="#Layer0_0_MEMBER_0_MEMBER_0_MEMBER_3_MEMBER_1_FILL"/>
</g>

<g transform="matrix( 0.5625, 0, 0, 0.5625, 0,-6.35) ">
<use xlink:href="#Layer0_0_MEMBER_0_MEMBER_1_MEMBER_0_MEMBER_0_MEMBER_0_FILL"/>
</g>

<g transform="matrix( 0.5625, 0, 0, 0.5625, 4.5,21.3) ">
<g id="Camada_1"/>

<g id="Camada_3">
<g transform="matrix( 1, 0, 0, 1, 0,0) ">
<use xlink:href="#_ndice_svg_Layer_1__Clip_Group__1_0_Layer2_0_FILL"/>
</g>
</g>

<g id="Camada_4"/>
</g>

<g transform="matrix( 0.5625, 0, 0, 0.5625, 4.5,21.3) ">
<g transform="matrix( 1, 0, 0, 1, 0,0) ">
<use xlink:href="#_ndice_svg_Layer_1__Clip_Group__0_Layer2_0_FILL"/>
</g>
</g>

<g transform="matrix( 0.5625, 0, 0, 0.5625, 0,2) ">
<use xlink:href="#Layer0_0_MEMBER_0_MEMBER_1_MEMBER_1_FILL"/>
</g>

<g transform="matrix( 0.5625, 0, 0, 0.5625, 0,2) ">
<use xlink:href="#Layer0_0_MEMBER_0_MEMBER_1_MEMBER_2_FILL"/>
</g>

<g transform="matrix( 0.5625, 0, 0, 0.5625, 0,2) ">
<use xlink:href="#Layer0_0_MEMBER_0_MEMBER_1_MEMBER_3_FILL"/>
</g>

<g transform="matrix( 0.5625, 0, 0, 0.5625, 0,2) ">
<use xlink:href="#Layer0_0_MEMBER_0_MEMBER_1_MEMBER_4_FILL"/>
</g>

<g transform="matrix( 0.5625, 0, 0, 0.5625, 0,2) ">
<use xlink:href="#Layer0_0_MEMBER_0_MEMBER_1_MEMBER_5_FILL"/>
</g>

<g transform="matrix( 0.5625, 0, 0, 0.5625, 0,2) ">
<use xlink:href="#Layer0_0_MEMBER_0_MEMBER_1_MEMBER_6_FILL"/>
</g>

<g transform="matrix( 0.5625, 0, 0, 0.5625, 0,-6.35) ">
<use xlink:href="#Layer0_0_MEMBER_0_MEMBER_2_FILL"/>
</g>

<g transform="matrix( 0.5625, 0, 0, 0.5625, 0,-6.35) ">
<use xlink:href="#Layer0_0_MEMBER_1_MEMBER_0_FILL"/>
</g>

<g transform="matrix( 0.5625, 0, 0, 0.5625, 0,-6.35) ">
<use xlink:href="#Layer0_0_MEMBER_1_MEMBER_1_FILL"/>
</g>

<g transform="matrix( 0.5625, 0, 0, 0.5625, 0,-6.35) ">
<use xlink:href="#Layer0_0_MEMBER_2_MEMBER_0_FILL"/>
</g>

<g transform="matrix( 0.5625, 0, 0, 0.5625, 0,-6.35) ">
<use xlink:href="#Layer0_0_MEMBER_2_MEMBER_1_FILL"/>
</g>
</g>
</svg>
