
<svg xmlns="http://www.w3.org/2000/svg" version="1.1" xmlns:xlink="http://www.w3.org/1999/xlink" preserveAspectRatio="none" x="0px" y="0px" width="72px" height="72px" viewBox="0 0 72 72">
<defs>
<g id="Layer0_0_MEMBER_0_MEMBER_0_FILL">
<path fill="#FCC21B" stroke="none" d="
M 24.4 63.2
L 24.7 59.1 14.9 61.25 14.25 63
Q 12.25 68.35 9.3 72.95
L 2.85 82.95
Q 2.15 84 2.35 85.35 2.55 86.75 3.5 87.55 4.7 88.45 6.25 88.25 7.85 88.05 8.65 86.8
L 24.4 63.2 Z"/>
</g>

<g id="Layer0_0_MEMBER_0_MEMBER_1_FILL">
<path fill="#B1C937" stroke="none" d="
M 35.95 71
L 35.95 49.85
Q 29.3 49.85 25.35 50.9 20.1 52.3 17.55 55.2 15.6 57.35 13.7 62.55
L 35.95 71 Z"/>
</g>

<g id="Layer0_0_MEMBER_1_MEMBER_0_FILL">
<path fill="#FCC21B" stroke="none" d="
M 57 61.25
L 47.2 59.1 47.5 63.2 63.25 86.8
Q 64.05 88.05 65.7 88.25 67.25 88.45 68.4 87.55 69.4 86.75 69.55 85.35 69.75 84 69.05 82.95
L 62.6 72.95
Q 59.65 68.35 57.65 63
L 57 61.25 Z"/>
</g>

<g id="Layer0_0_MEMBER_1_MEMBER_1_FILL">
<path fill="#B1C937" stroke="none" d="
M 35.95 49.85
L 35.95 71 58.2 62.55
Q 56.3 57.35 54.35 55.2 51.8 52.3 46.55 50.9 42.65 49.85 35.95 49.85 Z"/>
</g>

<g id="Layer0_0_MEMBER_2_FILL">
<path fill="#616161" stroke="none" d="
M 32.85 81.95
L 22.1 81.95 22.1 127.65 32.85 127.65 32.85 81.95 Z"/>
</g>

<g id="Layer0_0_MEMBER_3_FILL">
<path fill="#444444" stroke="none" d="
M 34.25 128
L 34.25 124.5
Q 34.25 122.85 33.1 121.7 31.9 120.5 30.25 120.5
L 24.75 120.5
Q 23.05 120.5 21.9 121.7 20.75 122.85 20.75 124.5
L 20.75 128 34.25 128 Z"/>
</g>

<g id="Layer0_0_MEMBER_4_FILL">
<path fill="#616161" stroke="none" d="
M 49.7 81.9
L 39 81.9 39 127.65 49.7 127.65 49.7 81.9 Z"/>
</g>

<g id="Layer0_0_MEMBER_5_FILL">
<path fill="#444444" stroke="none" d="
M 47.1 120.5
L 41.6 120.5
Q 39.95 120.5 38.8 121.7 37.6 122.85 37.6 124.5
L 37.6 128 51.1 128 51.1 124.5
Q 51.1 122.85 49.95 121.7 48.75 120.5 47.1 120.5 Z"/>
</g>

<g id="Layer0_0_MEMBER_6_FILL">
<path fill="#E59600" stroke="none" d="
M 35.95 57.5
Q 38.15 57.5 39.7 55.95 41.25 54.4 41.25 52.2
L 41.25 47.7 30.65 47.7 30.65 52.2
Q 30.65 54.4 32.2 55.95 33.75 57.5 35.95 57.5 Z"/>
</g>

<g id="Layer0_0_MEMBER_7_FILL">
<path fill="#E59600" stroke="none" d="
M 18.05 29.4
Q 19.05 29.6 20.2 29.6 22.1 29.6 23.2 29.1
L 23.2 26.2
Q 23.2 25.6 22.85 25.15 22.45 24.65 21.9 24.65
L 18.55 24.65
Q 18 24.65 17.6 25.15 17.25 25.65 17.25 26.25
L 17.25 29.15 18.05 29.4 Z"/>
</g>

<g id="Layer0_0_MEMBER_8_FILL">
<path fill="#616161" stroke="none" d="
M 28 46.1
L 12.45 46.1 12.45 54.8 18.5 54.8 18.5 54.3
Q 18.5 53.75 18.85 53.4 19.25 53 19.85 53
L 20.6 53
Q 21.2 53 21.55 53.4 21.95 53.8 21.95 54.3
L 21.95 54.8 28 54.8 28 46.1 Z"/>
</g>

<g id="Layer0_0_MEMBER_9_FILL">
<path fill="#B1C937" stroke="none" d="
M 28 48.05
L 28 35.15 20.2 35.15 20.2 48.05 28 48.05 Z"/>
</g>

<g id="Layer0_0_MEMBER_10_FILL">
<path fill="#B1C937" stroke="none" d="
M 12.45 35.1
L 12.45 46.05 20.2 46.05 20.2 35.1 12.45 35.1 Z"/>
</g>

<g id="Layer0_0_MEMBER_11_MEMBER_0_MEMBER_0_FILL">
<path fill="#E59600" stroke="none" d="
M 106.9 66.05
L 103.3 66.05 103.3 86.35
Q 108.05 86.35 111.15 83.95 114.75 81.15 114.75 75.9 114.75 70.6 110.85 67.8
L 106.9 66.05 Z"/>
</g>

<g id="Layer0_0_MEMBER_11_MEMBER_0_MEMBER_1_FILL">
<path fill="#E59600" stroke="none" d="
M 24.7 66.05
L 21.05 66.05 17.15 67.8
Q 13.2 70.6 13.2 75.9 13.2 81.15 16.8 83.95 19.9 86.35 24.7 86.35
L 24.7 66.05 Z"/>
</g>

<g id="Layer0_0_MEMBER_11_MEMBER_1_FILL">
<path fill="#FCC21B" stroke="none" d="
M 106.75 73.8
Q 106.75 43.35 98.1 28.35 87.85 10.6 64 10.6 40.1 10.6 29.85 28.35 21.2 43.35 21.2 73.8 21.2 99.7 35.8 112.25 47.05 122 64 122 80.8 122 92.1 112.35 106.75 99.8 106.75 73.8 Z"/>
</g>

<g id="Layer0_0_MEMBER_11_MEMBER_2_FILL">
<path fill="#444444" stroke="none" d="
M 40.15 72.35
Q 38.45 74.35 38.45 77.2 38.45 80.1 40.15 82.1 41.8 84.1 44.2 84.1 46.55 84.1 48.25 82.1 49.9 80.05 49.9 77.2 49.9 74.35 48.25 72.35 46.55 70.3 44.2 70.3 41.8 70.3 40.15 72.35 Z"/>
</g>

<g id="Layer0_0_MEMBER_11_MEMBER_3_FILL">
<path fill="#444444" stroke="none" d="
M 87.85 72.35
Q 86.15 70.3 83.8 70.3 81.4 70.3 79.75 72.35 78.05 74.35 78.05 77.2 78.05 80.05 79.75 82.1 81.4 84.1 83.8 84.1 86.15 84.1 87.85 82.1 89.5 80.1 89.5 77.2 89.5 74.35 87.85 72.35 Z"/>
</g>

<g id="Layer0_0_MEMBER_11_MEMBER_4_FILL">
<path fill="#513F35" stroke="none" d="
M 63.95 108.75
Q 68.85 108.75 72.95 106.6 76.15 104.9 77.45 102.9 78.15 101.85 77.8 101.2 77.45 100.55 76.35 100.55
L 51.6 100.55
Q 50.5 100.55 50.15 101.2 49.8 101.85 50.5 102.9 51.8 104.9 55 106.6 59.1 108.75 63.95 108.75 Z"/>
</g>

<g id="Layer0_0_MEMBER_11_MEMBER_5_FILL">
<path fill="#E59600" stroke="none" d="
M 58 90
Q 57.35 89.85 57.1 90.3 56.8 90.7 57.05 91.2 57.75 92.35 59.45 93.4 61.65 94.75 64 94.75 66.35 94.75 68.5 93.4 70.2 92.35 70.9 91.2 71.15 90.7 70.9 90.3 70.6 89.85 69.95 90 66.8 90.9 64 90.9 61.15 90.9 58 90 Z"/>
</g>

<g id="Layer0_0_MEMBER_11_MEMBER_6_FILL">
<path fill="#FFA000" stroke="none" d="
M 57.2 19.2
Q 56.85 14.4 52.8 10.8 47.2 5.95 36.4 5.75
L 35.6 5.75
Q 24.75 5.95 19.2 10.8 15.1 14.4 14.85 19.2 14.8 19.55 14.8 19.85
L 14.8 31.1
Q 15.05 30.9 15.55 30.55 15.85 30.25 16.25 30.05
L 16.6 29.9 17.4 35.3
Q 21.85 28.35 23.1 20.75 26.6 23.1 29.55 24.05 32.45 25.05 35.6 25
L 36.4 25
Q 41.6 24.95 45.95 24.45
L 49.1 24.1
Q 49.2 24.1 49.25 24.2
L 54.6 35.3 55.4 29.9 55.75 30.05
Q 56.15 30.25 56.45 30.5 56.95 30.9 57.2 31.1
L 57.2 19.85
Q 57.2 19.55 57.2 19.2 Z"/>
</g>

<g id="Layer0_1_MEMBER_0_MEMBER_0_FILL">
<path fill="#FCC21B" stroke="none" d="
M 24.4 63.2
L 24.7 59.1 14.9 61.25 14.25 63
Q 12.25 68.35 9.3 72.95
L 2.85 82.95
Q 2.15 84 2.35 85.35 2.55 86.75 3.5 87.55 4.7 88.45 6.25 88.25 7.85 88.05 8.65 86.8
L 24.4 63.2 Z"/>
</g>

<g id="Layer0_1_MEMBER_0_MEMBER_1_FILL">
<path fill="#00ACC1" stroke="none" d="
M 35.95 71
L 35.95 49.85
Q 29.3 49.85 25.35 50.9 20.1 52.3 17.55 55.2 15.6 57.35 13.7 62.55
L 35.95 71 Z"/>
</g>

<g id="Layer0_1_MEMBER_1_MEMBER_0_FILL">
<path fill="#FCC21B" stroke="none" d="
M 57 61.25
L 47.2 59.1 47.5 63.2 63.25 86.8
Q 64.05 88.05 65.7 88.25 67.25 88.45 68.4 87.55 69.4 86.75 69.55 85.35 69.75 84 69.05 82.95
L 62.6 72.95
Q 59.65 68.35 57.65 63
L 57 61.25 Z"/>
</g>

<g id="Layer0_1_MEMBER_1_MEMBER_1_FILL">
<path fill="#00ACC1" stroke="none" d="
M 35.95 49.85
L 35.95 71 58.2 62.55
Q 56.3 57.35 54.35 55.2 51.8 52.3 46.55 50.9 42.65 49.85 35.95 49.85 Z"/>
</g>

<g id="Layer0_1_MEMBER_2_FILL">
<path fill="#616161" stroke="none" d="
M 32.85 81.95
L 22.1 81.95 22.1 127.65 32.85 127.65 32.85 81.95 Z"/>
</g>

<g id="Layer0_1_MEMBER_3_FILL">
<path fill="#444444" stroke="none" d="
M 34.25 128
L 34.25 124.5
Q 34.25 122.85 33.1 121.7 31.9 120.5 30.25 120.5
L 24.75 120.5
Q 23.05 120.5 21.9 121.7 20.75 122.85 20.75 124.5
L 20.75 128 34.25 128 Z"/>
</g>

<g id="Layer0_1_MEMBER_4_FILL">
<path fill="#616161" stroke="none" d="
M 49.7 81.9
L 39 81.9 39 127.65 49.7 127.65 49.7 81.9 Z"/>
</g>

<g id="Layer0_1_MEMBER_5_FILL">
<path fill="#444444" stroke="none" d="
M 47.1 120.5
L 41.6 120.5
Q 39.95 120.5 38.8 121.7 37.6 122.85 37.6 124.5
L 37.6 128 51.1 128 51.1 124.5
Q 51.1 122.85 49.95 121.7 48.75 120.5 47.1 120.5 Z"/>
</g>

<g id="Layer0_1_MEMBER_6_FILL">
<path fill="#E59600" stroke="none" d="
M 35.95 57.5
Q 38.15 57.5 39.7 55.95 41.25 54.4 41.25 52.2
L 41.25 47.7 30.65 47.7 30.65 52.2
Q 30.65 54.4 32.2 55.95 33.75 57.5 35.95 57.5 Z"/>
</g>

<g id="Layer0_1_MEMBER_7_FILL">
<path fill="#E59600" stroke="none" d="
M 18.05 29.4
Q 19.05 29.6 20.2 29.6 22.1 29.6 23.2 29.1
L 23.2 26.2
Q 23.2 25.6 22.85 25.15 22.45 24.65 21.9 24.65
L 18.55 24.65
Q 18 24.65 17.6 25.15 17.25 25.65 17.25 26.25
L 17.25 29.15 18.05 29.4 Z"/>
</g>

<g id="Layer0_1_MEMBER_8_FILL">
<path fill="#616161" stroke="none" d="
M 28 46.1
L 12.45 46.1 12.45 54.8 18.5 54.8 18.5 54.3
Q 18.5 53.75 18.85 53.4 19.25 53 19.85 53
L 20.6 53
Q 21.2 53 21.55 53.4 21.95 53.8 21.95 54.3
L 21.95 54.8 28 54.8 28 46.1 Z"/>
</g>

<g id="Layer0_1_MEMBER_9_FILL">
<path fill="#00ACC1" stroke="none" d="
M 28 48.05
L 28 35.15 20.2 35.15 20.2 48.05 28 48.05 Z"/>
</g>

<g id="Layer0_1_MEMBER_10_FILL">
<path fill="#00ACC1" stroke="none" d="
M 12.45 35.1
L 12.45 46.05 20.2 46.05 20.2 35.1 12.45 35.1 Z"/>
</g>

<g id="Layer0_1_MEMBER_11_MEMBER_0_MEMBER_0_FILL">
<path fill="#E59600" stroke="none" d="
M 106.9 66.05
L 103.3 66.05 103.3 86.35
Q 108.05 86.35 111.15 83.95 114.75 81.15 114.75 75.9 114.75 70.6 110.85 67.8
L 106.9 66.05 Z"/>
</g>

<g id="Layer0_1_MEMBER_11_MEMBER_0_MEMBER_1_FILL">
<path fill="#E59600" stroke="none" d="
M 24.7 66.05
L 21.05 66.05 17.15 67.8
Q 13.2 70.6 13.2 75.9 13.2 81.15 16.8 83.95 19.9 86.35 24.7 86.35
L 24.7 66.05 Z"/>
</g>

<g id="Layer0_1_MEMBER_11_MEMBER_1_FILL">
<path fill="#FCC21B" stroke="none" d="
M 106.75 73.8
Q 106.75 43.35 98.1 28.35 87.85 10.6 64 10.6 40.1 10.6 29.85 28.35 21.2 43.35 21.2 73.8 21.2 99.7 35.8 112.25 47.05 122 64 122 80.8 122 92.1 112.35 106.75 99.8 106.75 73.8 Z"/>
</g>

<g id="Layer0_1_MEMBER_11_MEMBER_2_FILL">
<path fill="#444444" stroke="none" d="
M 40.15 72.35
Q 38.45 74.35 38.45 77.2 38.45 80.1 40.15 82.1 41.8 84.1 44.2 84.1 46.55 84.1 48.25 82.1 49.9 80.05 49.9 77.2 49.9 74.35 48.25 72.35 46.55 70.3 44.2 70.3 41.8 70.3 40.15 72.35 Z"/>
</g>

<g id="Layer0_1_MEMBER_11_MEMBER_3_FILL">
<path fill="#444444" stroke="none" d="
M 87.85 72.35
Q 86.15 70.3 83.8 70.3 81.4 70.3 79.75 72.35 78.05 74.35 78.05 77.2 78.05 80.05 79.75 82.1 81.4 84.1 83.8 84.1 86.15 84.1 87.85 82.1 89.5 80.1 89.5 77.2 89.5 74.35 87.85 72.35 Z"/>
</g>

<g id="Layer0_1_MEMBER_11_MEMBER_4_FILL">
<path fill="#513F35" stroke="none" d="
M 63.95 108.75
Q 68.85 108.75 72.95 106.6 76.15 104.9 77.45 102.9 78.15 101.85 77.8 101.2 77.45 100.55 76.35 100.55
L 51.6 100.55
Q 50.5 100.55 50.15 101.2 49.8 101.85 50.5 102.9 51.8 104.9 55 106.6 59.1 108.75 63.95 108.75 Z"/>
</g>

<g id="Layer0_1_MEMBER_11_MEMBER_5_FILL">
<path fill="#E59600" stroke="none" d="
M 58 90
Q 57.35 89.85 57.1 90.3 56.8 90.7 57.05 91.2 57.75 92.35 59.45 93.4 61.65 94.75 64 94.75 66.35 94.75 68.5 93.4 70.2 92.35 70.9 91.2 71.15 90.7 70.9 90.3 70.6 89.85 69.95 90 66.8 90.9 64 90.9 61.15 90.9 58 90 Z"/>
</g>

<g id="Layer0_1_MEMBER_11_MEMBER_6_FILL">
<path fill="#FFA000" stroke="none" d="
M 57.2 19.2
Q 56.85 14.4 52.8 10.8 47.2 5.95 36.4 5.75
L 35.6 5.75
Q 24.75 5.95 19.2 10.8 15.1 14.4 14.85 19.2 14.8 19.55 14.8 19.85
L 14.8 31.1
Q 15.05 30.9 15.55 30.55 15.85 30.25 16.25 30.05
L 16.6 29.9 17.4 35.3
Q 21.85 28.35 23.1 20.75 26.6 23.1 29.55 24.05 32.45 25.05 35.6 25
L 36.4 25
Q 41.6 24.95 45.95 24.45
L 49.1 24.1
Q 49.2 24.1 49.25 24.2
L 54.6 35.3 55.4 29.9 55.75 30.05
Q 56.15 30.25 56.45 30.5 56.95 30.9 57.2 31.1
L 57.2 19.85
Q 57.2 19.55 57.2 19.2 Z"/>
</g>
</defs>

<g id="Layer_1">
<g transform="matrix( 0.5625, 0, 0, 0.5625, 31.55,0.05) ">
<use xlink:href="#Layer0_0_MEMBER_0_MEMBER_0_FILL"/>
</g>

<g transform="matrix( 0.5625, 0, 0, 0.5625, 31.55,0.05) ">
<use xlink:href="#Layer0_0_MEMBER_0_MEMBER_1_FILL"/>
</g>

<g transform="matrix( 0.5625, 0, 0, 0.5625, 31.55,0.05) ">
<use xlink:href="#Layer0_0_MEMBER_1_MEMBER_0_FILL"/>
</g>

<g transform="matrix( 0.5625, 0, 0, 0.5625, 31.55,0.05) ">
<use xlink:href="#Layer0_0_MEMBER_1_MEMBER_1_FILL"/>
</g>

<g transform="matrix( 0.5625, 0, 0, 0.563446044921875, 31.55,0) ">
<use xlink:href="#Layer0_0_MEMBER_2_FILL"/>
</g>

<g transform="matrix( 0.5625, 0, 0, 0.5625, 31.55,0.05) ">
<use xlink:href="#Layer0_0_MEMBER_3_FILL"/>
</g>

<g transform="matrix( 0.5625, 0, 0, 0.5625, 31.55,0.1) ">
<use xlink:href="#Layer0_0_MEMBER_4_FILL"/>
</g>

<g transform="matrix( 0.5625, 0, 0, 0.5625, 31.55,0.05) ">
<use xlink:href="#Layer0_0_MEMBER_5_FILL"/>
</g>

<g transform="matrix( 0.5625, 0, 0, 0.5625, 31.55,0.05) ">
<use xlink:href="#Layer0_0_MEMBER_6_FILL"/>
</g>

<g transform="matrix( 1, 0, 0, 1, 31.55,0.05) ">
<use xlink:href="#Layer0_0_MEMBER_7_FILL"/>
</g>

<g transform="matrix( 1, 0, 0, 1, 31.55,0.05) ">
<use xlink:href="#Layer0_0_MEMBER_8_FILL"/>
</g>

<g transform="matrix( 1, 0, 0, 1, 31.55,0.05) ">
<use xlink:href="#Layer0_0_MEMBER_9_FILL"/>
</g>

<g transform="matrix( 1, 0, 0, 1.182647705078125, 31.55,-6.35) ">
<use xlink:href="#Layer0_0_MEMBER_10_FILL"/>
</g>

<g transform="matrix( 0.2090301513671875, 0, 0, 0.20880126953125, 38.2,2.55) ">
<use xlink:href="#Layer0_0_MEMBER_11_MEMBER_0_MEMBER_0_FILL"/>
</g>

<g transform="matrix( 0.2090301513671875, 0, 0, 0.20880126953125, 38.2,2.55) ">
<use xlink:href="#Layer0_0_MEMBER_11_MEMBER_0_MEMBER_1_FILL"/>
</g>

<g transform="matrix( 0.20916748046875, 0, 0, 0.2089385986328125, 38.2,2.75) ">
<use xlink:href="#Layer0_0_MEMBER_11_MEMBER_1_FILL"/>
</g>

<g transform="matrix( 0.20916748046875, 0, 0, 0.2089385986328125, 38.4,2.75) ">
<use xlink:href="#Layer0_0_MEMBER_11_MEMBER_2_FILL"/>
</g>

<g transform="matrix( 0.20916748046875, 0, 0, 0.2089385986328125, 38.4,2.75) ">
<use xlink:href="#Layer0_0_MEMBER_11_MEMBER_3_FILL"/>
</g>

<g transform="matrix( 0.20916748046875, 0, 0, 0.2089385986328125, 38.4,2.75) ">
<use xlink:href="#Layer0_0_MEMBER_11_MEMBER_4_FILL"/>
</g>

<g transform="matrix( 0.20916748046875, 0, 0, 0.2089385986328125, 38.4,2.75) ">
<use xlink:href="#Layer0_0_MEMBER_11_MEMBER_5_FILL"/>
</g>

<g transform="matrix( 0.4796295166015625, 0, 0, 0.4793701171875, 34.3,2.2) ">
<use xlink:href="#Layer0_0_MEMBER_11_MEMBER_6_FILL"/>
</g>

<g transform="matrix( 0.5625, 0, 0, 0.5625, 0,0.05) ">
<use xlink:href="#Layer0_1_MEMBER_0_MEMBER_0_FILL"/>
</g>

<g transform="matrix( 0.5625, 0, 0, 0.5625, 0,0.05) ">
<use xlink:href="#Layer0_1_MEMBER_0_MEMBER_1_FILL"/>
</g>

<g transform="matrix( 0.5625, 0, 0, 0.5625, 0,0.05) ">
<use xlink:href="#Layer0_1_MEMBER_1_MEMBER_0_FILL"/>
</g>

<g transform="matrix( 0.5625, 0, 0, 0.5625, 0,0.05) ">
<use xlink:href="#Layer0_1_MEMBER_1_MEMBER_1_FILL"/>
</g>

<g transform="matrix( 0.5625, 0, 0, 0.563446044921875, 0,0) ">
<use xlink:href="#Layer0_1_MEMBER_2_FILL"/>
</g>

<g transform="matrix( 0.5625, 0, 0, 0.5625, 0,0.05) ">
<use xlink:href="#Layer0_1_MEMBER_3_FILL"/>
</g>

<g transform="matrix( 0.5625, 0, 0, 0.5625, 0,0.1) ">
<use xlink:href="#Layer0_1_MEMBER_4_FILL"/>
</g>

<g transform="matrix( 0.5625, 0, 0, 0.5625, 0,0.05) ">
<use xlink:href="#Layer0_1_MEMBER_5_FILL"/>
</g>

<g transform="matrix( 0.5625, 0, 0, 0.5625, 0,0.05) ">
<use xlink:href="#Layer0_1_MEMBER_6_FILL"/>
</g>

<g transform="matrix( 1, 0, 0, 1, 0,0.05) ">
<use xlink:href="#Layer0_1_MEMBER_7_FILL"/>
</g>

<g transform="matrix( 1, 0, 0, 1, 0,0.05) ">
<use xlink:href="#Layer0_1_MEMBER_8_FILL"/>
</g>

<g transform="matrix( 1, 0, 0, 1, 0,0.05) ">
<use xlink:href="#Layer0_1_MEMBER_9_FILL"/>
</g>

<g transform="matrix( 1, 0, 0, 1.182647705078125, 0,-6.35) ">
<use xlink:href="#Layer0_1_MEMBER_10_FILL"/>
</g>

<g transform="matrix( 0.2090301513671875, 0, 0, 0.20880126953125, 6.65,2.55) ">
<use xlink:href="#Layer0_1_MEMBER_11_MEMBER_0_MEMBER_0_FILL"/>
</g>

<g transform="matrix( 0.2090301513671875, 0, 0, 0.20880126953125, 6.65,2.55) ">
<use xlink:href="#Layer0_1_MEMBER_11_MEMBER_0_MEMBER_1_FILL"/>
</g>

<g transform="matrix( 0.20916748046875, 0, 0, 0.2089385986328125, 6.65,2.75) ">
<use xlink:href="#Layer0_1_MEMBER_11_MEMBER_1_FILL"/>
</g>

<g transform="matrix( 0.20916748046875, 0, 0, 0.2089385986328125, 6.85,2.75) ">
<use xlink:href="#Layer0_1_MEMBER_11_MEMBER_2_FILL"/>
</g>

<g transform="matrix( 0.20916748046875, 0, 0, 0.2089385986328125, 6.85,2.75) ">
<use xlink:href="#Layer0_1_MEMBER_11_MEMBER_3_FILL"/>
</g>

<g transform="matrix( 0.20916748046875, 0, 0, 0.2089385986328125, 6.85,2.75) ">
<use xlink:href="#Layer0_1_MEMBER_11_MEMBER_4_FILL"/>
</g>

<g transform="matrix( 0.20916748046875, 0, 0, 0.2089385986328125, 6.85,2.75) ">
<use xlink:href="#Layer0_1_MEMBER_11_MEMBER_5_FILL"/>
</g>

<g transform="matrix( 0.4796295166015625, 0, 0, 0.4793701171875, 2.75,2.2) ">
<use xlink:href="#Layer0_1_MEMBER_11_MEMBER_6_FILL"/>
</g>
</g>
</svg>
