
<svg xmlns="http://www.w3.org/2000/svg" version="1.1" xmlns:xlink="http://www.w3.org/1999/xlink" preserveAspectRatio="none" x="0px" y="0px" width="72px" height="72px" viewBox="0 0 72 72">
<defs>
<g id="Layer0_0_MEMBER_0_FILL">
<path fill="#424242" stroke="none" d="
M 32.55 100.7
Q 18.75 106.85 18.75 118.1
L 18.75 128 105.9 128 105.9 118.1
Q 105.9 107.35 92.45 101 80.3 95.25 62.65 95.25 44.55 95.3 32.55 100.7 Z"/>
</g>

<g id="Layer0_0_MEMBER_1_FILL">
<path fill="#E59900" stroke="none" d="
M 40.15 50.75
L 29.95 50.75 29.95 56.15
Q 29.95 58 31.3 59.3 32.7 60.6 34.6 60.6
L 35.5 60.6
Q 37.45 60.6 38.8 59.3 40.15 58 40.15 56.15
L 40.15 50.75 Z"/>
</g>

<g id="Layer0_0_MEMBER_2_MEMBER_0_MEMBER_0_FILL">
<path fill="#E59600" stroke="none" d="
M 106.9 66.05
L 103.3 66.05 103.3 86.35
Q 108.05 86.35 111.15 83.95 114.75 81.15 114.75 75.9 114.75 70.6 110.85 67.8
L 106.9 66.05 Z"/>
</g>

<g id="Layer0_0_MEMBER_2_MEMBER_0_MEMBER_1_FILL">
<path fill="#E59600" stroke="none" d="
M 24.7 66.05
L 21.05 66.05 17.15 67.8
Q 13.2 70.6 13.2 75.9 13.2 81.15 16.8 83.95 19.9 86.35 24.7 86.35
L 24.7 66.05 Z"/>
</g>

<g id="Layer0_0_MEMBER_2_MEMBER_1_FILL">
<path fill="#FCC21B" stroke="none" d="
M 106.75 73.8
Q 106.75 43.35 98.1 28.35 87.85 10.6 64 10.6 40.1 10.6 29.85 28.35 21.2 43.35 21.2 73.8 21.2 99.7 35.8 112.25 47.05 122 64 122 80.8 122 92.1 112.35 106.75 99.8 106.75 73.8 Z"/>
</g>

<g id="Layer0_0_MEMBER_2_MEMBER_2_FILL">
<path fill="#444444" stroke="none" d="
M 40.15 72.35
Q 38.45 74.35 38.45 77.2 38.45 80.1 40.15 82.1 41.8 84.1 44.2 84.1 46.55 84.1 48.25 82.1 49.9 80.05 49.9 77.2 49.9 74.35 48.25 72.35 46.55 70.3 44.2 70.3 41.8 70.3 40.15 72.35 Z"/>
</g>

<g id="Layer0_0_MEMBER_2_MEMBER_3_FILL">
<path fill="#444444" stroke="none" d="
M 87.85 72.35
Q 86.15 70.3 83.8 70.3 81.4 70.3 79.75 72.35 78.05 74.35 78.05 77.2 78.05 80.05 79.75 82.1 81.4 84.1 83.8 84.1 86.15 84.1 87.85 82.1 89.5 80.1 89.5 77.2 89.5 74.35 87.85 72.35 Z"/>
</g>

<g id="Layer0_0_MEMBER_2_MEMBER_4_FILL">
<path fill="#513F35" stroke="none" d="
M 63.95 108.75
Q 68.85 108.75 72.95 106.6 76.15 104.9 77.45 102.9 78.15 101.85 77.8 101.2 77.45 100.55 76.35 100.55
L 51.6 100.55
Q 50.5 100.55 50.15 101.2 49.8 101.85 50.5 102.9 51.8 104.9 55 106.6 59.1 108.75 63.95 108.75 Z"/>
</g>

<g id="Layer0_0_MEMBER_2_MEMBER_5_FILL">
<path fill="#E59600" stroke="none" d="
M 58 90
Q 57.35 89.85 57.1 90.3 56.8 90.7 57.05 91.2 57.75 92.35 59.45 93.4 61.65 94.75 64 94.75 66.35 94.75 68.5 93.4 70.2 92.35 70.9 91.2 71.15 90.7 70.9 90.3 70.6 89.85 69.95 90 66.8 90.9 64 90.9 61.15 90.9 58 90 Z"/>
</g>

<g id="Layer0_0_MEMBER_2_MEMBER_6_FILL">
<path fill="#FFA000" stroke="none" d="
M 63.35 24.5
Q 63.35 24.1 63.35 23.7 62.95 17.45 57.7 12.85 50.5 6.55 36.55 6.35
L 35.5 6.35
Q 21.55 6.55 14.4 12.85 9.1 17.45 8.75 23.7 8.7 24.1 8.7 24.5
L 8.7 39.05
Q 9.05 38.75 9.65 38.3 10.05 37.95 10.6 37.7
L 11 37.5 12.05 44.45
Q 17.8 35.5 19.4 25.7 23.95 28.7 27.7 29.95 31.45 31.2 35.5 31.15
L 36.55 31.15
Q 43.25 31.1 48.85 30.45
L 52.95 30
Q 53.05 30 53.15 30.1
L 60 44.45 61.05 37.5 61.5 37.7
Q 62 37.95 62.4 38.25 63.05 38.75 63.35 39.05
L 63.35 24.5 Z"/>
</g>

<g id="Layer0_0_MEMBER_3_FILL">
<path fill="#424242" stroke="none" d="
M 52.45 128
L 72.15 128 72.15 95.7 62.3 107.7 52.45 95.7 52.45 128 Z"/>
</g>

<g id="Layer0_0_MEMBER_4_MEMBER_0_MEMBER_0_FILL">
<path fill="#262626" stroke="none" d="
M 92.25 15.3
L 112.8 11.8 112.75 9.25 62.65 16.5 62.6 16.5 12.5 9.25 12.45 11.8 32.5 15.3 30.8 20.15
Q 36 22.45 42.55 24.3 53.05 27.3 62.6 27.55 78 27.15 93.95 20.15
L 92.25 15.3 Z"/>
</g>

<g id="Layer0_0_MEMBER_4_MEMBER_0_MEMBER_1_FILL">
<path fill="#424143" stroke="none" d="
M 62.6 16.5
L 62.65 16.5 112.75 9.25 62.75 0.05 62.6 0.1 62.45 0.05 12.5 9.25 62.6 16.5 Z"/>
</g>

<g id="Layer0_0_MEMBER_4_MEMBER_1_MEMBER_0_MEMBER_0_MEMBER_0_FILL">
<path fill="#FBC11B" stroke="none" d="
M 114.95 46.5
Q 114.45 45.95 113.65 45.95 112.9 45.95 112.4 46.5 111.85 47 111.85 47.75
L 111.85 55.6
Q 111.85 56.35 112.4 56.9 112.9 57.4 113.65 57.4 114.45 57.4 114.95 56.9 115.5 56.35 115.5 55.6
L 115.5 47.75
Q 115.5 47 114.95 46.5 Z"/>
</g>

<g id="Layer0_0_MEMBER_4_MEMBER_1_MEMBER_0_MEMBER_0_MEMBER_1_FILL">
<path fill="#FBC11B" stroke="none" d="
M 111.35 46.5
Q 110.8 45.95 110.05 45.95 109.25 45.95 108.75 46.5 108.2 47 108.2 47.75
L 108.2 55.6
Q 108.2 56.35 108.75 56.9 109.3 57.4 110.05 57.4 110.8 57.4 111.35 56.9 111.85 56.35 111.85 55.6
L 111.85 47.75
Q 111.85 47 111.35 46.5 Z"/>
</g>

<g id="Layer0_0_MEMBER_4_MEMBER_1_MEMBER_0_MEMBER_0_MEMBER_2_FILL">
<path fill="#E49500" stroke="none" d="
M 112.5 46.5
Q 111.95 45.95 111.2 45.95 110.45 45.95 109.95 46.5 109.4 47 109.4 47.75
L 109.4 55.6
Q 109.4 56.35 109.95 56.9 110.45 57.4 111.2 57.4 111.95 57.4 112.5 56.9 113 56.35 113 55.6
L 113 47.75
Q 113 47 112.5 46.5 Z"/>
</g>

<g id="Layer0_0_MEMBER_4_MEMBER_1_MEMBER_0_MEMBER_0_MEMBER_3_FILL">
<path fill="#E49500" stroke="none" d="
M 113.9 46.5
Q 113.35 45.95 112.6 45.95 111.8 45.95 111.3 46.5 110.75 47 110.75 47.75
L 110.75 55.6
Q 110.75 56.35 111.3 56.9 111.85 57.4 112.6 57.4 113.35 57.4 113.9 56.9 114.4 56.35 114.4 55.6
L 114.4 47.75
Q 114.4 47 113.9 46.5 Z"/>
</g>

<g id="Layer0_0_MEMBER_4_MEMBER_1_MEMBER_0_MEMBER_0_MEMBER_4_FILL">
<path fill="#FBC11B" stroke="none" d="
M 113.15 46.5
Q 112.6 45.95 111.85 45.95 111.1 45.95 110.6 46.5 110.05 47 110.05 47.75
L 110.05 57.25
Q 110.05 58 110.6 58.55 111.1 59.1 111.85 59.1 112.6 59.1 113.15 58.55 113.65 58 113.65 57.25
L 113.65 47.75
Q 113.65 47 113.15 46.5 Z"/>
</g>

<g id="Layer0_0_MEMBER_4_MEMBER_1_MEMBER_0_MEMBER_1_FILL">
<path fill="#E49500" stroke="none" d="
M 111.85 43.35
Q 111 43.35 110.4 43.95 109.8 44.55 109.8 45.4 109.8 46.25 110.4 46.85 111 47.45 111.85 47.45 112.7 47.45 113.3 46.85 113.9 46.25 113.9 45.4 113.9 44.55 113.3 43.95 112.7 43.35 111.85 43.35 Z"/>
</g>

<g id="Layer0_0_MEMBER_4_MEMBER_1_MEMBER_0_MEMBER_2_FILL">
<path fill="#FBC11B" stroke="none" d="
M 111.85 42.8
Q 111 42.8 110.4 43.4 109.8 44 109.8 44.85 109.8 45.7 110.4 46.35 111 46.95 111.85 46.95 112.7 46.95 113.3 46.35 113.9 45.7 113.9 44.85 113.9 44 113.3 43.4 112.7 42.8 111.85 42.8 Z"/>
</g>

<g id="Layer0_0_MEMBER_4_MEMBER_1_MEMBER_1_FILL">
<path fill="#262626" stroke="none" d="
M 112.75 9.45
L 110.95 9.45 110.95 44.45 111 44.45
Q 111 44.8 111.25 45 111.5 45.25 111.85 45.25 112.65 45.25 112.75 44.45
L 112.75 9.45 Z"/>
</g>
</defs>

<g id="Layer_1">
<g transform="matrix( 0.5625, 0, 0, 0.5625, 0,0) ">
<use xlink:href="#Layer0_0_MEMBER_0_FILL"/>
</g>

<g transform="matrix( 1, 0, 0, 1, 0,0) ">
<use xlink:href="#Layer0_0_MEMBER_1_FILL"/>
</g>

<g transform="matrix( 0.4207000732421875, 0, 0, 0.4205474853515625, 8.2,1.8) ">
<use xlink:href="#Layer0_0_MEMBER_2_MEMBER_0_MEMBER_0_FILL"/>
</g>

<g transform="matrix( 0.4207000732421875, 0, 0, 0.4205474853515625, 8.2,1.8) ">
<use xlink:href="#Layer0_0_MEMBER_2_MEMBER_0_MEMBER_1_FILL"/>
</g>

<g transform="matrix( 0.4208221435546875, 0, 0, 0.420684814453125, 8.2,2.3) ">
<use xlink:href="#Layer0_0_MEMBER_2_MEMBER_1_FILL"/>
</g>

<g transform="matrix( 0.4208221435546875, 0, 0, 0.420684814453125, 8.2,2.3) ">
<use xlink:href="#Layer0_0_MEMBER_2_MEMBER_2_FILL"/>
</g>

<g transform="matrix( 0.4208221435546875, 0, 0, 0.420684814453125, 8.2,2.3) ">
<use xlink:href="#Layer0_0_MEMBER_2_MEMBER_3_FILL"/>
</g>

<g transform="matrix( 0.4208221435546875, 0, 0, 0.420684814453125, 8.2,2.3) ">
<use xlink:href="#Layer0_0_MEMBER_2_MEMBER_4_FILL"/>
</g>

<g transform="matrix( 0.4208221435546875, 0, 0, 0.420684814453125, 8.2,2.3) ">
<use xlink:href="#Layer0_0_MEMBER_2_MEMBER_5_FILL"/>
</g>

<g transform="matrix( 0.748138427734375, 0, 0, 0.747894287109375, 8.2,2) ">
<use xlink:href="#Layer0_0_MEMBER_2_MEMBER_6_FILL"/>
</g>

<g transform="matrix( 0.5625, 0, 0, 0.5625, 0,0) ">
<use xlink:href="#Layer0_0_MEMBER_3_FILL"/>
</g>

<g transform="matrix( 0.562469482421875, 0, 0, 0.562469482421875, 0,2) ">
<use xlink:href="#Layer0_0_MEMBER_4_MEMBER_0_MEMBER_0_FILL"/>
</g>

<g transform="matrix( 0.562469482421875, 0, 0, 0.562469482421875, 0,2) ">
<use xlink:href="#Layer0_0_MEMBER_4_MEMBER_0_MEMBER_1_FILL"/>
</g>

<g transform="matrix( 0.56243896484375, 0, 0, 0.56243896484375, 0,2) ">
<use xlink:href="#Layer0_0_MEMBER_4_MEMBER_1_MEMBER_0_MEMBER_0_MEMBER_0_FILL"/>
</g>

<g transform="matrix( 0.56243896484375, 0, 0, 0.56243896484375, 0,2) ">
<use xlink:href="#Layer0_0_MEMBER_4_MEMBER_1_MEMBER_0_MEMBER_0_MEMBER_1_FILL"/>
</g>

<g transform="matrix( 0.56243896484375, 0, 0, 0.56243896484375, 0,2) ">
<use xlink:href="#Layer0_0_MEMBER_4_MEMBER_1_MEMBER_0_MEMBER_0_MEMBER_2_FILL"/>
</g>

<g transform="matrix( 0.56243896484375, 0, 0, 0.56243896484375, 0,2) ">
<use xlink:href="#Layer0_0_MEMBER_4_MEMBER_1_MEMBER_0_MEMBER_0_MEMBER_3_FILL"/>
</g>

<g transform="matrix( 0.56243896484375, 0, 0, 0.56243896484375, 0,2) ">
<use xlink:href="#Layer0_0_MEMBER_4_MEMBER_1_MEMBER_0_MEMBER_0_MEMBER_4_FILL"/>
</g>

<g transform="matrix( 0.5624542236328125, 0, 0, 0.5624542236328125, 0,2) ">
<use xlink:href="#Layer0_0_MEMBER_4_MEMBER_1_MEMBER_0_MEMBER_1_FILL"/>
</g>

<g transform="matrix( 0.5624542236328125, 0, 0, 0.5624542236328125, 0,2) ">
<use xlink:href="#Layer0_0_MEMBER_4_MEMBER_1_MEMBER_0_MEMBER_2_FILL"/>
</g>

<g transform="matrix( 0.562469482421875, 0, 0, 0.562469482421875, 0,2) ">
<use xlink:href="#Layer0_0_MEMBER_4_MEMBER_1_MEMBER_1_FILL"/>
</g>
</g>
</svg>
