
<svg xmlns="http://www.w3.org/2000/svg" version="1.1" xmlns:xlink="http://www.w3.org/1999/xlink" preserveAspectRatio="none" x="0px" y="0px" width="72px" height="72px" viewBox="0 0 72 72">
<defs>
<g id="Layer0_0_MEMBER_0_FILL">
<path fill="#2A56C6" stroke="none" d="
M 17.5 118.45
L 17.5 128 111.35 128 111.35 118.45
Q 111.35 107.6 96.7 101.15 83.45 95.35 64.4 95.35 44.95 95.4 32.2 100.85 17.5 107.05 17.5 118.45 Z"/>
</g>

<g id="Layer0_0_MEMBER_1_FILL">
<path fill="#004373" stroke="none" d="
M 53.95 95.85
L 49.95 96.35 55.95 128 64.5 128 64.5 95.3
Q 59.05 95.3 53.95 95.85 Z"/>
</g>

<g id="Layer0_0_MEMBER_2_FILL">
<path fill="#004373" stroke="none" d="
M 78.2 96.35
Q 72.45 95.3 64.05 95.3
L 64.05 128 72.7 128 78.2 96.35 Z"/>
</g>

<g id="Layer0_0_MEMBER_3_FILL">
<path fill="#E59900" stroke="none" d="
M 35.5 60.5
L 36.45 60.5
Q 38.35 60.5 39.75 59.2 41.1 57.9 41.1 56.1
L 41.1 50.7 30.9 50.7 30.9 56.1
Q 30.9 57.9 32.25 59.2 33.6 60.5 35.5 60.5 Z"/>
</g>

<g id="Layer0_0_MEMBER_4_FILL">
<path fill="#FFCC00" stroke="none" d="
M 67.15 114.1
L 68.85 106.6 59.75 106.6 61.5 114.1 67.15 114.1 Z"/>
</g>

<g id="Layer0_0_MEMBER_5_FILL">
<path fill="#FFCC00" stroke="none" d="
M 59.95 128
L 68.65 128 67.15 114.1 61.5 114.1 59.95 128 Z"/>
</g>

<g id="Layer0_0_MEMBER_6_MEMBER_0_MEMBER_0_MEMBER_0_FILL">
<path fill="#E59600" stroke="none" d="
M 106.9 66.05
L 103.3 66.05 103.3 86.35
Q 108.05 86.35 111.15 83.95 114.75 81.15 114.75 75.9 114.75 70.6 110.85 67.8
L 106.9 66.05 Z"/>
</g>

<g id="Layer0_0_MEMBER_6_MEMBER_0_MEMBER_0_MEMBER_1_FILL">
<path fill="#E59600" stroke="none" d="
M 24.7 66.05
L 21.05 66.05 17.15 67.8
Q 13.2 70.6 13.2 75.9 13.2 81.15 16.8 83.95 19.9 86.35 24.7 86.35
L 24.7 66.05 Z"/>
</g>

<g id="Layer0_0_MEMBER_6_MEMBER_0_MEMBER_1_FILL">
<path fill="#FCC21B" stroke="none" d="
M 106.75 73.8
Q 106.75 43.35 98.1 28.35 87.85 10.6 64 10.6 40.1 10.6 29.85 28.35 21.2 43.35 21.2 73.8 21.2 99.7 35.8 112.25 47.05 122 64 122 80.8 122 92.1 112.35 106.75 99.8 106.75 73.8 Z"/>
</g>

<g id="Layer0_0_MEMBER_6_MEMBER_0_MEMBER_2_FILL">
<path fill="#FFA000" stroke="none" d="
M 57.2 19.2
Q 56.85 14.4 52.8 10.8 47.2 5.95 36.4 5.75
L 35.6 5.75
Q 24.75 5.95 19.2 10.8 15.1 14.4 14.85 19.2 14.8 19.55 14.8 19.85
L 14.8 31.1
Q 15.05 30.9 15.55 30.55 15.85 30.25 16.25 30.05
L 16.6 29.9 17.4 35.3
Q 21.85 28.35 23.1 20.75 26.6 23.1 29.55 24.05 32.45 25.05 35.6 25
L 36.4 25
Q 41.6 24.95 45.95 24.45
L 49.1 24.1
Q 49.2 24.1 49.25 24.2
L 54.6 35.3 55.4 29.9 55.75 30.05
Q 56.15 30.25 56.45 30.5 56.95 30.9 57.2 31.1
L 57.2 19.85
Q 57.2 19.55 57.2 19.2 Z"/>
</g>

<g id="Layer0_0_MEMBER_6_MEMBER_1_FILL">
<path fill="#4C3734" stroke="none" d="
M 53.8 79.7
Q 54.8 81.25 57.2 82.55 60.35 84.2 64.05 84.2 67.75 84.2 70.9 82.55 73.3 81.25 74.3 79.7 74.8 78.95 74.55 78.4 74.3 77.9 73.5 77.9
L 54.6 77.9
Q 53.8 77.9 53.55 78.4 53.25 78.95 53.8 79.7 Z"/>
</g>

<g id="Layer0_0_MEMBER_6_MEMBER_2_FILL">
<path fill="#513F35" stroke="none" d="
M 53.8 79.7
Q 54.8 81.25 57.2 82.55 60.35 84.2 64.05 84.2 67.75 84.2 70.9 82.55 73.3 81.25 74.3 79.7 74.8 78.95 74.55 78.4 74.3 77.9 73.5 77.9
L 54.6 77.9
Q 53.8 77.9 53.55 78.4 53.25 78.95 53.8 79.7 Z"/>
</g>

<g id="Layer0_0_MEMBER_6_MEMBER_3_FILL">
<path fill="#E59600" stroke="none" d="
M 69.3 70.75
Q 69.5 70.4 69.3 70.1 69.1 69.75 68.6 69.9 66.3 70.55 64.05 70.55 61.8 70.55 59.5 69.9 59 69.75 58.75 70.1 58.55 70.4 58.75 70.75 59.3 71.65 60.6 72.45 62.25 73.45 64.05 73.45 65.85 73.45 67.5 72.45 68.8 71.65 69.3 70.75 Z"/>
</g>

<g id="Layer0_0_MEMBER_6_MEMBER_4_FILL">
<path fill="#444444" stroke="none" d="
M 52.05 63.85
Q 53.3 62.35 53.3 60.15 53.3 57.95 52.05 56.4 50.75 54.85 48.95 54.85 47.15 54.85 45.9 56.4 44.6 57.95 44.6 60.15 44.6 62.35 45.9 63.85 47.15 65.4 48.95 65.4 50.75 65.4 52.05 63.85 Z"/>
</g>

<g id="Layer0_0_MEMBER_6_MEMBER_5_FILL">
<path fill="#444444" stroke="none" d="
M 82.25 63.85
Q 83.5 62.35 83.5 60.15 83.5 57.95 82.25 56.4 80.95 54.85 79.15 54.85 77.3 54.85 76.05 56.4 74.75 57.95 74.75 60.15 74.75 62.35 76.05 63.85 77.3 65.4 79.15 65.4 80.95 65.4 82.25 63.85 Z"/>
</g>

<g id="Layer0_0_MEMBER_6_MEMBER_6_MEMBER_0_FILL">
<path fill="#262626" stroke="none" d="
M 91.9 48.3
Q 97.45 45.8 99.6 43.3 95.35 42.45 88.8 41.6 75.65 39.85 64 39.75 52.3 39.85 39.15 41.6 32.6 42.45 28.35 43.3
L 30.15 44.85
Q 32.6 46.75 36.05 48.3 47.15 53.35 64 53.45 80.8 53.35 91.9 48.3 Z"/>
</g>

<g id="Layer0_0_MEMBER_6_MEMBER_6_MEMBER_1_FILL">
<path fill="#2A56C6" stroke="none" d="
M 81.6 37.8
Q 90.4 38.6 93.1 39.35 98.45 40.8 101.25 46.45 103.3 43.4 104.95 38.95 106.55 34.7 106.05 30.2 105.5 25.65 103 22.4 99.9 18.4 95.9 15.55 89.35 10.8 80.2 8.2 72.05 5.9 64.3 5.9
L 63.6 5.9
Q 55.9 5.9 47.75 8.2 38.6 10.8 32.05 15.55 28.05 18.4 24.95 22.4 22.4 25.6 21.9 30.2 21.4 34.7 23 38.95 24.65 43.45 26.65 46.5 29.5 40.85 34.8 39.35 37.5 38.6 46.3 37.8 54.45 37.1 63.95 36.65 73.25 37.05 81.6 37.8 Z"/>
</g>

<g id="Layer0_0_MEMBER_6_MEMBER_6_MEMBER_2_FILL">
<path fill="#3B78E7" stroke="none" d="
M 54.85 18.4
Q 52.8 17.2 49.4 15.95 42.65 13.45 36 13.45 29.35 13.45 22.55 15.95 19.2 17.2 17.15 18.4
L 16.25 24.35
Q 18.5 23.85 22.1 23.35 29.3 22.35 35.95 22.35 42.65 22.35 49.85 23.35 53.45 23.85 55.75 24.35
L 54.85 18.4 Z"/>
</g>

<g id="Layer0_0_MEMBER_6_MEMBER_6_MEMBER_3_FILL">
<path fill="#F7CB4D" stroke="none" d="
M 68.05 18.45
Q 66.45 18.45 64.95 16.2 64.6 15.75 64.1 15.75 63.6 15.75 63.25 16.2 61.75 18.45 60.25 18.45 58.35 18.45 57.35 16.95 57.1 16.55 56.7 16.55 56.4 16.55 56.05 16.9
L 55.75 17.35
Q 55.1 18.15 55.6 19.15 56.25 20.4 56.25 21.95
L 56.25 25.7
Q 56.25 28 58.85 31 61.55 34.15 64.15 34.15 66.7 34.15 69.45 31 72 28 72 25.7
L 72 21.9
Q 72 20.55 72.65 19.15 73.15 18.15 72.5 17.35
L 72.2 16.9
Q 71.95 16.55 71.55 16.55 71.15 16.55 70.9 16.95 70 18.45 68.05 18.45 Z"/>
</g>

<g id="Layer0_0_MEMBER_7_FILL">
<path fill="#004373" stroke="none" d="
M 33.3 98.45
Q 29.1 98.45 23 97.05 22.1 96.85 21.3 97.3 20.5 97.75 20.3 98.6
L 19.6 101.25
Q 19.35 102.1 19.9 102.9 20.45 103.75 21.45 103.95 28.45 105.55 33.3 105.55 38.15 105.55 45.15 103.95 46.15 103.75 46.7 102.9 47.25 102.1 47 101.25
L 46.3 98.6
Q 46.05 97.75 45.25 97.3 44.5 96.85 43.6 97.05 37.5 98.45 33.3 98.45 Z"/>
</g>

<g id="Layer0_0_MEMBER_8_FILL">
<path fill="#004373" stroke="none" d="
M 83.15 97.3
Q 82.35 97.75 82.15 98.6
L 81.4 101.25
Q 81.15 102.1 81.7 102.9 82.25 103.75 83.25 103.95 90.3 105.55 95.15 105.55 99.95 105.55 107 103.95 108 103.75 108.55 102.9 109.1 102.1 108.85 101.25
L 108.1 98.6
Q 107.9 97.75 107.1 97.3 106.35 96.85 105.45 97.05 99.35 98.45 95.15 98.45 90.9 98.45 84.8 97.05 83.95 96.85 83.15 97.3 Z"/>
</g>

<g id="Layer0_0_MEMBER_9_FILL">
<path fill="#3B78E7" stroke="none" d="
M 78.3 96.35
Q 75.25 95.9 73.25 95.7 73.25 96.9 72.35 98.75 71.35 100.75 69.85 102.5 67.7 104.95 64.2 106.45
L 77.45 117.55 78.3 96.35 Z"/>
</g>

<g id="Layer0_0_MEMBER_10_FILL">
<path fill="#3B78E7" stroke="none" d="
M 55.25 95.7
L 50.15 96.35 50.75 117.55 64.3 106.45
Q 60.75 104.95 58.65 102.5 57.15 100.75 56.15 98.75 55.25 96.9 55.25 95.7 Z"/>
</g>
</defs>

<g id="Layer_1">
<g transform="matrix( 0.5625, 0, 0, 0.5625, 0,0) ">
<use xlink:href="#Layer0_0_MEMBER_0_FILL"/>
</g>

<g transform="matrix( 0.5625, 0, 0, 0.5625, 0,0) ">
<use xlink:href="#Layer0_0_MEMBER_1_FILL"/>
</g>

<g transform="matrix( 0.5625, 0, 0, 0.5625, 0,0) ">
<use xlink:href="#Layer0_0_MEMBER_2_FILL"/>
</g>

<g transform="matrix( 1, 0, 0, 1, 0,0) ">
<use xlink:href="#Layer0_0_MEMBER_3_FILL"/>
</g>

<g transform="matrix( 0.5625, 0, 0, 0.5625, 0,0) ">
<use xlink:href="#Layer0_0_MEMBER_4_FILL"/>
</g>

<g transform="matrix( 0.5625, 0, 0, 0.5625, 0,0) ">
<use xlink:href="#Layer0_0_MEMBER_5_FILL"/>
</g>

<g transform="matrix( 0.432464599609375, 0, 0, 0.43267822265625, 8.35,0.85) ">
<use xlink:href="#Layer0_0_MEMBER_6_MEMBER_0_MEMBER_0_MEMBER_0_FILL"/>
</g>

<g transform="matrix( 0.432464599609375, 0, 0, 0.43267822265625, 8.35,0.85) ">
<use xlink:href="#Layer0_0_MEMBER_6_MEMBER_0_MEMBER_0_MEMBER_1_FILL"/>
</g>

<g transform="matrix( 0.4327545166015625, 0, 0, 0.4329071044921875, 8.35,1.2) ">
<use xlink:href="#Layer0_0_MEMBER_6_MEMBER_0_MEMBER_1_FILL"/>
</g>

<g transform="matrix( 0.992156982421875, 0, 0, 0.993133544921875, 0.35,0.1) ">
<use xlink:href="#Layer0_0_MEMBER_6_MEMBER_0_MEMBER_2_FILL"/>
</g>

<g transform="matrix( 0.5625, 0, 0, 0.5625, 0,0) ">
<use xlink:href="#Layer0_0_MEMBER_6_MEMBER_1_FILL"/>
</g>

<g transform="matrix( 0.5625, 0, 0, 0.5625, 0,0) ">
<use xlink:href="#Layer0_0_MEMBER_6_MEMBER_2_FILL"/>
</g>

<g transform="matrix( 0.5625, 0, 0, 0.5625, 0,0) ">
<use xlink:href="#Layer0_0_MEMBER_6_MEMBER_3_FILL"/>
</g>

<g transform="matrix( 0.5625, 0, 0, 0.5625, 0,0) ">
<use xlink:href="#Layer0_0_MEMBER_6_MEMBER_4_FILL"/>
</g>

<g transform="matrix( 0.5625, 0, 0, 0.5625, 0,0) ">
<use xlink:href="#Layer0_0_MEMBER_6_MEMBER_5_FILL"/>
</g>

<g transform="matrix( 0.5625, 0, 0, 0.5625, 0,-0.05) ">
<use xlink:href="#Layer0_0_MEMBER_6_MEMBER_6_MEMBER_0_FILL"/>
</g>

<g transform="matrix( 0.5625, 0, 0, 0.5625, 0,0) ">
<use xlink:href="#Layer0_0_MEMBER_6_MEMBER_6_MEMBER_1_FILL"/>
</g>

<g transform="matrix( 1, 0, 0, 1, 0,0) ">
<use xlink:href="#Layer0_0_MEMBER_6_MEMBER_6_MEMBER_2_FILL"/>
</g>

<g transform="matrix( 0.5625, 0, 0, 0.5625, 0,0) ">
<use xlink:href="#Layer0_0_MEMBER_6_MEMBER_6_MEMBER_3_FILL"/>
</g>

<g transform="matrix( 0.5625, 0, 0, 0.5625, 0,0) ">
<use xlink:href="#Layer0_0_MEMBER_7_FILL"/>
</g>

<g transform="matrix( 0.5625, 0, 0, 0.5625, 0,0) ">
<use xlink:href="#Layer0_0_MEMBER_8_FILL"/>
</g>

<g transform="matrix( 0.5625, 0, 0, 0.5625, -0.1,-0.05) ">
<use xlink:href="#Layer0_0_MEMBER_9_FILL"/>
</g>

<g transform="matrix( 0.5625, 0, 0, 0.5625, -0.1,-0.05) ">
<use xlink:href="#Layer0_0_MEMBER_10_FILL"/>
</g>
</g>
</svg>
