
<svg xmlns="http://www.w3.org/2000/svg" version="1.1" xmlns:xlink="http://www.w3.org/1999/xlink" preserveAspectRatio="none" x="0px" y="0px" width="72px" height="72px" viewBox="0 0 72 72">
<defs>
<g id="Layer0_0_MEMBER_0_FILL">
<path fill="#FFA000" stroke="none" d="
M 103.7 69.2
Q 104.3 55.5 104.3 45.1
L 20.3 45.4
Q 20.3 56.85 21.1 71.1 22.75 99.6 26.8 113.55
L 99.45 113.25
Q 102.5 96.6 103.7 69.2 Z"/>
</g>

<g id="Layer0_0_MEMBER_1_FILL">
<path fill="#424242" stroke="none" d="
M 32.55 100.7
Q 18.75 106.85 18.75 118.1
L 18.75 128 105.9 128 105.9 118.1
Q 105.9 107.35 92.45 101 80.3 95.25 62.65 95.25 44.55 95.3 32.55 100.7 Z"/>
</g>

<g id="Layer0_0_MEMBER_2_MEMBER_0_FILL">
<path fill="#FFA000" stroke="none" d="
M 104.3 46.15
Q 104.3 29.75 92 18.2 79.7 6.65 62.3 6.65 44.9 6.65 32.6 18.2 20.3 29.75 20.3 46.15 20.3 62.5 32.6 74.1 44.9 85.65 62.3 85.65 79.7 85.65 92 74.1 104.3 62.5 104.3 46.15 Z"/>
</g>

<g id="Layer0_0_MEMBER_3_FILL">
<path fill="#E59900" stroke="none" d="
M 40.15 50.75
L 29.95 50.75 29.95 56.15
Q 29.95 58 31.3 59.3 32.7 60.6 34.6 60.6
L 35.5 60.6
Q 37.45 60.6 38.8 59.3 40.15 58 40.15 56.15
L 40.15 50.75 Z"/>
</g>

<g id="Layer0_0_MEMBER_4_MEMBER_0_FILL">
<path fill="#FCC21B" stroke="none" d="
M 46.2 48.5
Q 52.35 43.25 52.35 33.2 52.35 20.9 48.8 14.8 44.7 7.65 35.05 7.65 25.4 7.65 21.25 14.8 17.75 20.9 17.75 33.2 17.75 43.25 23.95 48.5 28.75 52.65 35.05 52.65 41.35 52.65 46.2 48.5 Z"/>
</g>

<g id="Layer0_0_MEMBER_4_MEMBER_1_FILL">
<path fill="#444444" stroke="none" d="
M 53.2 78.15
Q 52.35 78.15 52.1 78.65 51.85 79.15 52.35 79.9 53.35 81.4 55.75 82.65 58.8 84.25 62.4 84.25 66.05 84.25 69.1 82.65 71.45 81.4 72.45 79.9 72.95 79.15 72.7 78.65 72.45 78.15 71.65 78.15
L 53.2 78.15 Z"/>
</g>

<g id="Layer0_0_MEMBER_4_MEMBER_2_MEMBER_0_FILL">
<path fill="#444444" stroke="none" d="
M 51.9 60.75
Q 51.9 58.6 50.65 57.1 49.4 55.6 47.65 55.6 45.9 55.6 44.6 57.1 43.35 58.6 43.35 60.75 43.35 62.9 44.6 64.4 45.9 65.9 47.65 65.9 49.4 65.9 50.65 64.4 51.9 62.9 51.9 60.75 Z"/>
</g>

<g id="Layer0_0_MEMBER_4_MEMBER_2_MEMBER_1_FILL">
<path fill="#444444" stroke="none" d="
M 74.15 57.1
Q 72.9 58.6 72.9 60.75 72.9 62.9 74.15 64.4 75.4 65.9 77.15 65.9 78.9 65.9 80.2 64.4 81.45 62.9 81.45 60.75 81.45 58.6 80.2 57.1 78.9 55.6 77.15 55.6 75.4 55.6 74.15 57.1 Z"/>
</g>

<g id="Layer0_0_MEMBER_4_MEMBER_3_FILL">
<path fill="#E59600" stroke="none" d="
M 67.5 70.5
Q 67.3 70.15 66.8 70.3 64.55 70.95 62.35 70.95 60.15 70.95 57.9 70.3 57.45 70.15 57.2 70.5 57 70.85 57.2 71.15 57.7 72 58.95 72.8 60.55 73.8 62.35 73.8 64.15 73.8 65.75 72.8 67 72 67.5 71.15 67.7 70.8 67.5 70.5 Z"/>
</g>

<g id="Layer0_0_MEMBER_5_FILL">
<path fill="#FFA000" stroke="none" d="
M 94.8 26.6
Q 92.4 21.75 87.15 16.9 76.6 7.2 62.3 7.2 47.95 7.2 37.45 16.7 32.2 21.4 29.8 26.15
L 29.8 55.8
Q 43.95 53.4 57.6 44.9 65.4 40 71.25 34.45 71.5 34.25 71.8 34.3 72.1 34.35 72.2 34.65 76.9 44.3 86.35 51 91.05 54.35 94.8 55.8
L 94.8 26.6 Z"/>
</g>

<g id="Layer0_0_MEMBER_6_MEMBER_0_MEMBER_3_FILL">
<path fill="#262626" stroke="none" d="
M 92.25 15.3
L 112.8 11.8 112.75 9.25 62.65 16.5 62.6 16.5 12.5 9.25 12.45 11.8 32.5 15.3 30.8 20.15
Q 36 22.45 42.55 24.3 53.05 27.3 62.6 27.55 78 27.15 93.95 20.15
L 92.25 15.3 Z"/>
</g>

<g id="Layer0_0_MEMBER_6_MEMBER_0_MEMBER_5_FILL">
<path fill="#424143" stroke="none" d="
M 62.6 16.5
L 62.65 16.5 112.75 9.25 62.75 0.05 62.6 0.1 62.45 0.05 12.5 9.25 62.6 16.5 Z"/>
</g>

<g id="Layer0_0_MEMBER_6_MEMBER_1_MEMBER_0_MEMBER_0_MEMBER_0_FILL">
<path fill="#FBC11B" stroke="none" d="
M 114.95 46.5
Q 114.45 45.95 113.65 45.95 112.9 45.95 112.4 46.5 111.85 47 111.85 47.75
L 111.85 55.6
Q 111.85 56.35 112.4 56.9 112.9 57.4 113.65 57.4 114.45 57.4 114.95 56.9 115.5 56.35 115.5 55.6
L 115.5 47.75
Q 115.5 47 114.95 46.5 Z"/>
</g>

<g id="Layer0_0_MEMBER_6_MEMBER_1_MEMBER_0_MEMBER_0_MEMBER_1_FILL">
<path fill="#FBC11B" stroke="none" d="
M 111.35 46.5
Q 110.8 45.95 110.05 45.95 109.25 45.95 108.75 46.5 108.2 47 108.2 47.75
L 108.2 55.6
Q 108.2 56.35 108.75 56.9 109.3 57.4 110.05 57.4 110.8 57.4 111.35 56.9 111.85 56.35 111.85 55.6
L 111.85 47.75
Q 111.85 47 111.35 46.5 Z"/>
</g>

<g id="Layer0_0_MEMBER_6_MEMBER_1_MEMBER_0_MEMBER_0_MEMBER_2_FILL">
<path fill="#E49500" stroke="none" d="
M 112.5 46.5
Q 111.95 45.95 111.2 45.95 110.45 45.95 109.95 46.5 109.4 47 109.4 47.75
L 109.4 55.6
Q 109.4 56.35 109.95 56.9 110.45 57.4 111.2 57.4 111.95 57.4 112.5 56.9 113 56.35 113 55.6
L 113 47.75
Q 113 47 112.5 46.5 Z"/>
</g>

<g id="Layer0_0_MEMBER_6_MEMBER_1_MEMBER_0_MEMBER_0_MEMBER_3_FILL">
<path fill="#E49500" stroke="none" d="
M 113.9 46.5
Q 113.35 45.95 112.6 45.95 111.8 45.95 111.3 46.5 110.75 47 110.75 47.75
L 110.75 55.6
Q 110.75 56.35 111.3 56.9 111.85 57.4 112.6 57.4 113.35 57.4 113.9 56.9 114.4 56.35 114.4 55.6
L 114.4 47.75
Q 114.4 47 113.9 46.5 Z"/>
</g>

<g id="Layer0_0_MEMBER_6_MEMBER_1_MEMBER_0_MEMBER_0_MEMBER_4_FILL">
<path fill="#FBC11B" stroke="none" d="
M 113.15 46.5
Q 112.6 45.95 111.85 45.95 111.1 45.95 110.6 46.5 110.05 47 110.05 47.75
L 110.05 57.25
Q 110.05 58 110.6 58.55 111.1 59.1 111.85 59.1 112.6 59.1 113.15 58.55 113.65 58 113.65 57.25
L 113.65 47.75
Q 113.65 47 113.15 46.5 Z"/>
</g>

<g id="Layer0_0_MEMBER_6_MEMBER_1_MEMBER_0_MEMBER_1_FILL">
<path fill="#E49500" stroke="none" d="
M 111.85 43.35
Q 111 43.35 110.4 43.95 109.8 44.55 109.8 45.4 109.8 46.25 110.4 46.85 111 47.45 111.85 47.45 112.7 47.45 113.3 46.85 113.9 46.25 113.9 45.4 113.9 44.55 113.3 43.95 112.7 43.35 111.85 43.35 Z"/>
</g>

<g id="Layer0_0_MEMBER_6_MEMBER_1_MEMBER_0_MEMBER_2_FILL">
<path fill="#FBC11B" stroke="none" d="
M 111.85 42.8
Q 111 42.8 110.4 43.4 109.8 44 109.8 44.85 109.8 45.7 110.4 46.35 111 46.95 111.85 46.95 112.7 46.95 113.3 46.35 113.9 45.7 113.9 44.85 113.9 44 113.3 43.4 112.7 42.8 111.85 42.8 Z"/>
</g>

<g id="Layer0_0_MEMBER_6_MEMBER_1_MEMBER_1_FILL">
<path fill="#262626" stroke="none" d="
M 110.95 9.45
L 110.95 44.45 111 44.45
Q 111 44.8 111.25 45 111.5 45.25 111.85 45.25 112.65 45.25 112.75 44.45
L 112.75 9.45 110.95 9.45 Z"/>
</g>

<g id="Layer0_0_MEMBER_7_FILL">
<path fill="#424242" stroke="none" d="
M 52.45 128
L 72.15 128 72.15 95.7 62.3 107.7 52.45 95.7 52.45 128 Z"/>
</g>
</defs>

<g id="Layer_1">
<g transform="matrix( 0.5624847412109375, 0, 0, 0.5624847412109375, 0,0) ">
<use xlink:href="#Layer0_0_MEMBER_0_FILL"/>
</g>

<g transform="matrix( 0.5624847412109375, 0, 0, 0.5624847412109375, 0,0) ">
<use xlink:href="#Layer0_0_MEMBER_1_FILL"/>
</g>

<g transform="matrix( 0.5624847412109375, 0, 0, 0.5624847412109375, 0,0) ">
<use xlink:href="#Layer0_0_MEMBER_2_MEMBER_0_FILL"/>
</g>

<g transform="matrix( 1, 0, 0, 1, 0,0) ">
<use xlink:href="#Layer0_0_MEMBER_3_FILL"/>
</g>

<g transform="matrix( 1, 0, 0, 1, 0,0) ">
<use xlink:href="#Layer0_0_MEMBER_4_MEMBER_0_FILL"/>
</g>

<g transform="matrix( 0.5624847412109375, 0, 0, 0.5624847412109375, 0,0) ">
<use xlink:href="#Layer0_0_MEMBER_4_MEMBER_1_FILL"/>
</g>

<g transform="matrix( 0.5624847412109375, 0, 0, 0.5624847412109375, 0,0) ">
<use xlink:href="#Layer0_0_MEMBER_4_MEMBER_2_MEMBER_0_FILL"/>
</g>

<g transform="matrix( 0.5624847412109375, 0, 0, 0.5624847412109375, 0,0) ">
<use xlink:href="#Layer0_0_MEMBER_4_MEMBER_2_MEMBER_1_FILL"/>
</g>

<g transform="matrix( 0.5624847412109375, 0, 0, 0.5624847412109375, 0,0) ">
<use xlink:href="#Layer0_0_MEMBER_4_MEMBER_3_FILL"/>
</g>

<g transform="matrix( 0.5624847412109375, 0, 0, 0.5624847412109375, 0,0) ">
<use xlink:href="#Layer0_0_MEMBER_5_FILL"/>
</g>

<g transform="matrix( 0.5624847412109375, 0, 0, 0.5624847412109375, 0,0) ">
<use xlink:href="#Layer0_0_MEMBER_6_MEMBER_0_MEMBER_3_FILL"/>
</g>

<g transform="matrix( 0.5624847412109375, 0, 0, 0.5624847412109375, 0,0) ">
<use xlink:href="#Layer0_0_MEMBER_6_MEMBER_0_MEMBER_5_FILL"/>
</g>

<g transform="matrix( 0.5624847412109375, 0, 0, 0.5624847412109375, 0,0) ">
<use xlink:href="#Layer0_0_MEMBER_6_MEMBER_1_MEMBER_0_MEMBER_0_MEMBER_0_FILL"/>
</g>

<g transform="matrix( 0.5624847412109375, 0, 0, 0.5624847412109375, 0,0) ">
<use xlink:href="#Layer0_0_MEMBER_6_MEMBER_1_MEMBER_0_MEMBER_0_MEMBER_1_FILL"/>
</g>

<g transform="matrix( 0.5624847412109375, 0, 0, 0.5624847412109375, 0,0) ">
<use xlink:href="#Layer0_0_MEMBER_6_MEMBER_1_MEMBER_0_MEMBER_0_MEMBER_2_FILL"/>
</g>

<g transform="matrix( 0.5624847412109375, 0, 0, 0.5624847412109375, 0,0) ">
<use xlink:href="#Layer0_0_MEMBER_6_MEMBER_1_MEMBER_0_MEMBER_0_MEMBER_3_FILL"/>
</g>

<g transform="matrix( 0.5624847412109375, 0, 0, 0.5624847412109375, 0,0) ">
<use xlink:href="#Layer0_0_MEMBER_6_MEMBER_1_MEMBER_0_MEMBER_0_MEMBER_4_FILL"/>
</g>

<g transform="matrix( 0.5624847412109375, 0, 0, 0.5624847412109375, 0,0) ">
<use xlink:href="#Layer0_0_MEMBER_6_MEMBER_1_MEMBER_0_MEMBER_1_FILL"/>
</g>

<g transform="matrix( 0.5624847412109375, 0, 0, 0.5624847412109375, 0,0) ">
<use xlink:href="#Layer0_0_MEMBER_6_MEMBER_1_MEMBER_0_MEMBER_2_FILL"/>
</g>

<g transform="matrix( 0.5624847412109375, 0, 0, 0.5624847412109375, 0,0) ">
<use xlink:href="#Layer0_0_MEMBER_6_MEMBER_1_MEMBER_1_FILL"/>
</g>

<g transform="matrix( 0.5624847412109375, 0, 0, 0.5624847412109375, 0,0) ">
<use xlink:href="#Layer0_0_MEMBER_7_FILL"/>
</g>
</g>
</svg>
