
<svg xmlns="http://www.w3.org/2000/svg" version="1.1" xmlns:xlink="http://www.w3.org/1999/xlink" preserveAspectRatio="none" x="0px" y="0px" width="72px" height="72px" viewBox="0 0 72 72">
<defs>
<g id="Layer1_0_FILL">
<path fill="#E0E0E0" stroke="none" d="
M 56.1 12.5
Q 53.1 7.45 48 4.3 43.15 1.3 37.7 0.8 36.85 0.7 36 0.7 35.15 0.7 34.3 0.8 28.85 1.3 24 4.3 18.9 7.45 15.9 12.5 10.8 21 10.4 31.8
L 10.4 61
Q 10.2595703125 64.4810546875 12.3 64.75 14.359765625 65.290625 16.35 63.25 19.2451171875 60.2798828125 22.8 60 26.3490234375 59.7294921875 29.2 62.65 31.546484375 65.0412109375 35.6 64.95 35.8095703125 64.9826171875 36 65 40.5751953125 64.9201171875 42.8 62.65 45.65 59.75 49.2 60 52.75 60.3 55.65 63.25 57.65 65.3 59.7 64.8 61.75 64.5 61.6 61
L 61.6 31.8
Q 61.2 21 56.1 12.5 Z"/>
</g>

<g id="Layer1_1_MEMBER_0_FILL">
<path fill="#2F2F2F" stroke="none" d="
M 55.15 46.15
Q 56.1 42.85 54.45 41.75 53.35 41 51.6 41.15 51.4 41.2 48.6 41.75 42.9 42.9 36.2 42.9 29.45 42.9 23.8 41.75 21 41.2 20.8 41.15 19.05 41 17.9 41.75 16.3 42.85 17.25 46.15 18.2 49.45 20.8 52.2 23.2 54.65 26.2 56.2 30.75 58.6 36.2 58.6 41.65 58.6 46.2 56.2 49.2 54.65 51.55 52.2 54.2 49.45 55.15 46.15 Z"/>
</g>

<g id="Layer1_1_MEMBER_1_MEMBER_0_FILL">
<path fill="#2F2F2F" stroke="none" d="
M 47.8 48.6
Q 45.35 45.75 42 45.8 38.65 45.85 36.25 48.7 33.9 51.6 33.95 55.6 34 59.6 36.4 62.45 38.85 65.25 42.2 65.2 45.55 65.2 47.9 62.35 50.25 59.5 50.25 55.45 50.2 51.4 47.8 48.6 Z"/>
</g>

<g id="Layer1_1_MEMBER_1_MEMBER_1_FILL">
<path fill="#2F2F2F" stroke="none" d="
M 92 48.65
Q 89.65 45.8 86.25 45.8 82.9 45.85 80.5 48.7 78.15 51.55 78.15 55.55 78.15 59.55 80.55 62.4 82.9 65.2 86.3 65.2 89.65 65.2 92.05 62.35 94.4 59.5 94.4 55.5 94.4 51.5 92 48.65 Z"/>
</g>

<g id="Layer1_1_MEMBER_2_FILL">
<path fill="#D7598B" stroke="none" d="
M 69 73.15
Q 70.7 64.1 71.3 63.4 66.15 64.2 60.85 64.2 55.55 64.2 50.4 63.4 51 64.1 52.7 73.15 52.9 74.2 53.1 75.1 53.9 77.4 55.05 78.75 56.05 79.95 57.35 80.35 58.8 80.85 60.85 80.85 62.9 80.85 64.35 80.35 65.65 79.95 66.65 78.75 67.8 77.4 68.6 75.1 68.8 74.2 69 73.15 Z"/>
</g>

<g id="Layer1_2_MEMBER_0_FILL">
<path fill="#E0E0E0" stroke="none" d="
M 13.55 34.95
Q 11.05 28.7 10.7 28.15 8.6 24.55 5.4 25.05 1.35 25.7 0.95 32.75 0.6 38.2 2.15 43.35 5.85 55.7 16.95 62 20.55 64.05 24.3 65.05 27.35 65.9 27.55 65.55 28 64.95 28.25 54.5 28.55 43.85 27.6 43.9 22.85 43.35 19.25 41.25 15.1 38.85 13.55 34.95 Z"/>
</g>

<g id="Layer1_2_MEMBER_1_FILL">
<path fill="#E0E0E0" stroke="none" d="
M 127.05 32.75
Q 126.6 25.7 122.55 25.05 119.35 24.55 117.25 28.15 116.9 28.7 114.4 34.95 112.85 38.85 108.75 41.25 105.1 43.35 100.35 43.9 99.4 43.85 99.7 54.5 100 64.9 100.4 65.55 100.6 65.9 103.65 65.05 107.4 64.05 111 62 122.1 55.7 125.8 43.35 127.35 38.2 127.05 32.75 Z"/>
</g>

<path id="Layer1_1_MEMBER_3_1_STROKES" stroke="#2F2F2F" stroke-width="2" stroke-linejoin="round" stroke-linecap="round" fill="none" d="
M 36 36.65
L 36 47.15"/>
</defs>

<g id="Layer_1">
<g transform="matrix( 1, 0, 0, 1, 0,3.15) ">
<use xlink:href="#Layer1_0_FILL"/>
</g>

<g transform="matrix( 0.7538604736328125, 0, 0, 0.7538604736328125, 8.7,2.95) ">
<use xlink:href="#Layer1_1_MEMBER_0_FILL"/>
</g>

<g transform="matrix( 0.4239959716796875, 0, 0, 0.5015411376953125, 8.7,-2.45) ">
<use xlink:href="#Layer1_1_MEMBER_1_MEMBER_0_FILL"/>
</g>

<g transform="matrix( 0.4239959716796875, 0, 0, 0.5015411376953125, 8.7,-2.45) ">
<use xlink:href="#Layer1_1_MEMBER_1_MEMBER_1_FILL"/>
</g>

<g transform="matrix( 0.7538604736328125, 0, 0, 0.7538604736328125, -9.9,-9.4) ">
<use xlink:href="#Layer1_1_MEMBER_2_FILL"/>
</g>

<g transform="matrix( 1, 0, 0, 0.9199981689453125, 0,3.4) ">
<use xlink:href="#Layer1_1_MEMBER_3_1_STROKES"/>
</g>

<g transform="matrix( 0.5625, 0, 0, 0.5625, 0,3.15) ">
<use xlink:href="#Layer1_2_MEMBER_0_FILL"/>
</g>

<g transform="matrix( 0.5625, 0, 0, 0.5625, 0,3.15) ">
<use xlink:href="#Layer1_2_MEMBER_1_FILL"/>
</g>
</g>
</svg>
