
<svg xmlns="http://www.w3.org/2000/svg" version="1.1" xmlns:xlink="http://www.w3.org/1999/xlink" preserveAspectRatio="none" x="0px" y="0px" width="72px" height="72px" viewBox="0 0 72 72">
<defs>
<g id="Layer1_0_FILL">
<path fill="#ED6C30" stroke="none" d="
M 55.2 3.9
Q 54.95 -0.05 49.6 0.9 39.25 2.6 28.8 2.55 16.8 2.5 5.75 0.55 2.25 -0.25 2.2 4.3 0.9 36.8 4.1 60.65 5.25 69.2 11.65 70.45 17 71.65 28.85 71.65 40.65 71.65 46.05 70.45 52.4 69.2 53.55 60.65 56.75 36.6 55.2 3.9 Z"/>
</g>

<g id="Layer1_1_FILL">
<path fill="#2F2F2F" stroke="none" d="
M 49.85 51.05
Q 56.76796875 48.6009765625 52.55 39.05 46.7333984375 46.117578125 35.4 46.3 42.9818359375 53.5541015625 49.85 51.05
M 27.45 46.3
Q 17.109765625 46.276171875 7.95 39.45 6.0685546875 47.7208984375 9.65 51.4 12.321875 54.210546875 17.05 52.35 22.1623046875 50.1796875 27.45 46.3 Z"/>
</g>

<g id="Layer1_2_MEMBER_0_FILL">
<path fill="#FFFFFF" stroke="none" d="
M 47.5 18.3
Q 47.3 14.8 44.8 13.05 42.3 11.3 39 12.3 35.65 13.3 33.45 16.5 31.2 19.65 31.4 23.1 31.6 26.6 34.1 28.35 36.6 30.1 39.9 29.1 43.25 28.05 45.5 24.9 47.7 21.7 47.5 18.3 Z"/>
</g>

<g id="Layer1_2_MEMBER_1_FILL">
<path fill="#FFFFFF" stroke="none" d="
M 23.7 16.55
Q 21.45 13.35 18.1 12.3 14.8 11.35 12.3 13.05 9.8 14.85 9.6 18.3 9.4 21.8 11.6 24.95 13.85 28.15 17.15 29.1 20.45 30.15 22.95 28.35 25.45 26.6 25.65 23.15 25.9 19.7 23.7 16.55 Z"/>
</g>

<g id="Layer1_2_MEMBER_2_FILL">
<path fill="#2F2F2F" stroke="none" d="
M -14.1 32.75
Q -13.4 32.05 -13.4 31.05 -13.4 30.05 -14.1 29.35 -14.8 28.65 -15.8 28.65 -16.8 28.65 -17.5 29.35 -18.2 30.05 -18.2 31.05 -18.2 32.05 -17.5 32.75 -16.8 33.45 -15.8 33.45 -14.8 33.45 -14.1 32.75 Z"/>
</g>

<g id="Layer1_2_MEMBER_3_FILL">
<path fill="#2F2F2F" stroke="none" d="
M 39.1 30.1
Q 40.1 29 40.1 27.45 40.1 25.9 39.1 24.8 38.1 23.7 36.7 23.7 35.25 23.7 34.25 24.8 33.25 25.9 33.25 27.45 33.25 29 34.25 30.1 35.25 31.2 36.7 31.2 38.1 31.2 39.1 30.1 Z"/>
</g>

<g id="Layer1_4_FILL">
<path fill="#E64A19" stroke="none" d="
M 65.3 39.65
Q 65.3 39.6 65.3 39.55 65.3 39.5 65.3 39.45 65.05 34.15 59.05 33.5
L 28.4 33.5
Q 21.75 33.5 21.6 39.45 21.4 45.7 28.25 45.6
L 59.05 45.6
Q 65.05 44.95 65.3 39.65 Z"/>
</g>

<path id="Layer1_1_1_STROKES" stroke="#2F2F2F" stroke-width="2" stroke-linejoin="round" stroke-linecap="round" fill="none" d="
M 27.45 46.3
Q 22.1623046875 50.1796875 17.075 52.35 12.321875 54.210546875 9.65 51.4 6.0685546875 47.7208984375 7.95 39.45 17.109765625 46.276171875 27.45 46.3 Z
M 35.4 46.3
Q 42.9818359375 53.5541015625 49.875 51.075 56.76796875 48.6009765625 52.55 39.05 46.7333984375 46.117578125 35.4 46.3 Z"/>

<path id="Layer1_2_1_STROKES" stroke="#2F2F2F" stroke-width="4" stroke-linejoin="round" stroke-linecap="round" fill="none" d="
M 16.95 9.6
Q 21.05 14.05 26.45 17.25
M 45.35 9.6
Q 41.45 14.05 36.8 17.4"/>

<path id="Layer1_3_1_STROKES" stroke="#FCC21B" stroke-width="5" stroke-linejoin="round" stroke-linecap="round" fill="none" d="
M 41.2 55.85
Q 40.40703125 51.5341796875 37.05 49.95 33.85 48.45 31 48.45 27.1 48.45 23.9 49.95 20.5431640625 51.5341796875 19.75 55.85"/>
</defs>

<g id="Camada_1">
<g transform="matrix( 1, 0, 0, 1, 0,0) ">
<use xlink:href="#Layer1_0_FILL"/>
</g>

<g transform="matrix( 1, 0, 0, 1, 0,0) ">
<use xlink:href="#Layer1_1_FILL"/>

<use xlink:href="#Layer1_1_1_STROKES"/>
</g>

<g transform="matrix( 1, 0, 0, 1, 0,0) ">
<use xlink:href="#Layer1_2_1_STROKES"/>
</g>

<g transform="matrix( 1.0337371826171875, 0, 0, 1.0956573486328125, 3.2,1.9) ">
<use xlink:href="#Layer1_2_MEMBER_0_FILL"/>
</g>

<g transform="matrix( 1.0956573486328125, 0, 0, 1.0956573486328125, -0.85,1.9) ">
<use xlink:href="#Layer1_2_MEMBER_1_FILL"/>
</g>

<g transform="matrix( 1.5722808837890625, 0, 0, 1.7152252197265625, 47.2,-25.6) ">
<use xlink:href="#Layer1_2_MEMBER_2_FILL"/>
</g>

<g transform="matrix( 1.0337371826171875, 0, 0, 1.0956573486328125, 3.2,-2.45) ">
<use xlink:href="#Layer1_2_MEMBER_3_FILL"/>
</g>

<g transform="matrix( 1, 0, 0, 1, 0.2,3.2) ">
<use xlink:href="#Layer1_3_1_STROKES"/>
</g>

<g transform="matrix( 1.0956573486328125, 0, 0, 1.0956573486328125, -1.3,-4.45) ">
<use xlink:href="#Layer1_4_FILL"/>
</g>
</g>

<g id="Camada_2"/>
</svg>
