
<svg xmlns="http://www.w3.org/2000/svg" version="1.1" xmlns:xlink="http://www.w3.org/1999/xlink" preserveAspectRatio="none" x="0px" y="0px" width="72px" height="72px" viewBox="0 0 72 72">
<defs>
<g id="Layer0_0_MEMBER_0_FILL">
<path fill="#ED6C30" stroke="none" d="
M 86.75 40.2
Q 88.65 30.4 87.4 22.05 85.9 12.2 80.1 5.65 75.45 0.35 72.85 0.25 71.95 0.2 72.35 1.15 72.4 1.25 73.25 2.5 74.4 4.15 75.25 6.25 79.2 16.45 71.8 27.05 68.65 31.55 56.35 43.05 49.55 49.4 44.35 57.75 44.2 58 43.55 59.05 42.9 59.9 42.3 59.7 41.6 59.45 41.2 57.85 40.85 56.15 40.65 55.65 39.5 52.25 37.55 50.25 35.5 48 32.95 46.8 30.2 45.5 27.35 45.7
L 26.25 45.9
Q 24.8 46.25 24.5 46.4 23.4 46.85 23.8 47.7 24 48.15 24.6 48.3 24.95 48.4 25.65 48.55 35.35 51.5 32.5 66.85 31.3 73.25 27.55 85.7 25.1 96.7 28.1 104.85 32.3 116.35 43.9 122.9 55.35 129.3 67.55 127.35 75.35 126.1 80.9 123.1 88.5 119.05 93 114.25 99.4 107.45 100.65 98 101.3 93.4 100.1 87.7 99.5 84.85 97.3 77.7 90.95 57.05 102.25 52.75 102.5 52.65 103.25 52.45 103.9 52.2 104.1 51.85 105.4 49.95 98.55 51.2 91.4 52.75 89 58.55 87.85 62 86.85 63.7 85.05 66.8 82.55 65.75 80.4 64.85 80.9 60.55 81.2 58.45 82.25 55.5 83.5 52.25 84 50.6 85.8 45.05 86.75 40.2 Z"/>
</g>

<g id="Layer0_0_MEMBER_1_FILL">
<path fill="#FCC21B" stroke="none" d="
M 65.7 71
Q 66.15 72.5 65.8 74.05 65 77.25 62.55 80.35 61.3 81.95 57.45 85.8 53.05 90.2 51.2 92.8 48.25 97 47.6 101.4 46.3 109.9 51.8 116.25 57.75 123.1 67.35 121.4 73.85 120.25 78.35 115.45 83.2 110.2 82.05 103.9 81.75 102.55 80.6 100.55 79.15 98.05 78.05 98.3 77.95 98.75 78.1 99.5 78.3 100.35 78.3 100.65 78.3 101.35 77.8 102.45 76.95 104.2 75.2 105.5 73.55 106.75 71.7 107 69.6 107.3 68.1 106.1 65.65 104 66.7 99.9 67.2 98.1 69.2 94.4 71.1 90.95 71.5 88.7 72.45 83.6 71.35 78.65 70.2 73.35 67 69.75 65.95 68.55 65.85 68.5 65 67.75 65.05 68.8 65.1 69.6 65.7 71 Z"/>
</g>
</defs>

<g id="Layer_1">
<g transform="matrix( 0.5625, 0, 0, 0.5625, 0,0) ">
<use xlink:href="#Layer0_0_MEMBER_0_FILL"/>
</g>

<g transform="matrix( 0.7012786865234375, 0, 0, 0.7012786865234375, -8.95,-15.95) ">
<use xlink:href="#Layer0_0_MEMBER_1_FILL"/>
</g>
</g>
</svg>
