
<svg xmlns="http://www.w3.org/2000/svg" version="1.1" xmlns:xlink="http://www.w3.org/1999/xlink" preserveAspectRatio="none" x="0px" y="0px" width="72px" height="72px" viewBox="0 0 72 72">
<defs>
<g id="Layer3_0_MEMBER_0_FILL">
<path fill="#ECEFF1" stroke="none" d="
M 68.45 36
Q 68.45 22.6 58.95 13.1 49.4 3.55 36 3.55 22.55 3.55 13.05 13.1 3.5 22.6 3.5 36.05 3.5 49.45 13.05 59 22.55 68.5 36 68.5 49.4 68.5 58.95 58.95 68.45 49.45 68.45 36 Z"/>
</g>

<g id="Layer3_0_MEMBER_1_FILL">
<path fill="#BDBDBD" stroke="none" d="
M 71.95 36
Q 71.95 21.15 61.4 10.65 50.85 0.1 36 0.1 21.1 0.1 10.6 10.65 0.05 21.15 0.05 36 0.05 50.9 10.6 61.45 21.1 71.95 36 71.95 50.85 71.95 61.4 61.45 71.95 50.9 71.95 36
M 58.95 13.1
Q 68.45 22.6 68.45 36 68.45 49.45 58.95 58.95 49.4 68.5 36 68.5 22.55 68.5 13.05 59 3.5 49.45 3.5 36.05 3.5 22.6 13.05 13.1 22.55 3.55 36 3.55 49.4 3.55 58.95 13.1 Z"/>
</g>

<g id="Layer3_0_MEMBER_2_FILL">
<path fill="#CFD8DC" stroke="none" d="
M 116.5 61.45
Q 115.45 60.35 113.9 60.35 112.4 60.35 111.35 61.45 110.25 62.5 110.25 64.05 110.25 65.55 111.35 66.65 112.4 67.7 113.9 67.7 115.45 67.7 116.5 66.65 117.6 65.55 117.6 64.05 117.6 62.5 116.5 61.45 Z"/>
</g>

<g id="Layer3_0_MEMBER_3_FILL">
<path fill="#CFD8DC" stroke="none" d="
M 106.25 42.6
Q 107.75 43 109.05 42.25 110.35 41.5 110.75 40.05 111.15 38.55 110.4 37.2 109.65 35.9 108.2 35.5 106.7 35.1 105.35 35.85 104.05 36.65 103.65 38.1 103.25 39.6 104 40.9 104.8 42.2 106.25 42.6 Z"/>
</g>

<g id="Layer3_0_MEMBER_4_FILL">
<path fill="#CFD8DC" stroke="none" d="
M 92.5 19.85
Q 92.1 18.35 90.8 17.6 89.45 16.8 88 17.2 86.5 17.6 85.75 18.95 85 20.25 85.4 21.75 85.8 23.2 87.1 24 88.4 24.75 89.9 24.35 91.35 23.95 92.15 22.65 92.9 21.3 92.5 19.85 Z"/>
</g>

<g id="Layer3_0_MEMBER_5_FILL">
<path fill="#CFD8DC" stroke="none" d="
M 40.85 23.95
Q 42.15 23.2 42.55 21.75 42.95 20.25 42.2 18.95 41.4 17.65 39.95 17.25 38.45 16.85 37.15 17.6 35.85 18.35 35.45 19.8 35.05 21.3 35.8 22.6 36.6 23.95 38.05 24.35 39.55 24.75 40.85 23.95 Z"/>
</g>

<g id="Layer3_0_MEMBER_6_FILL">
<path fill="#CFD8DC" stroke="none" d="
M 17.55 37.2
Q 16.75 38.55 17.2 40.05 17.6 41.5 18.9 42.25 20.2 43 21.7 42.6 23.15 42.2 23.9 40.9 24.7 39.6 24.3 38.1 23.9 36.65 22.55 35.85 21.25 35.1 19.75 35.5 18.3 35.9 17.55 37.2 Z"/>
</g>

<g id="Layer3_0_MEMBER_7_FILL">
<path fill="#CFD8DC" stroke="none" d="
M 16.65 61.45
Q 15.6 60.35 14.05 60.35 12.5 60.35 11.45 61.45 10.35 62.5 10.35 64 10.35 65.55 11.45 66.6 12.5 67.7 14.05 67.7 15.55 67.7 16.65 66.6 17.7 65.55 17.7 64 17.7 62.5 16.65 61.45 Z"/>
</g>

<g id="Layer3_0_MEMBER_8_FILL">
<path fill="#CFD8DC" stroke="none" d="
M 21.7 85.45
Q 20.2 85.05 18.9 85.8 17.55 86.55 17.15 88.05 16.75 89.5 17.55 90.85 18.3 92.15 19.75 92.55 21.25 92.95 22.55 92.2 23.9 91.4 24.3 89.95 24.7 88.45 23.95 87.15 23.15 85.85 21.7 85.45 Z"/>
</g>

<g id="Layer3_0_MEMBER_9_FILL">
<path fill="#CFD8DC" stroke="none" d="
M 42.55 106.3
Q 42.15 104.85 40.85 104.1 39.5 103.3 38.05 103.7 36.6 104.1 35.8 105.45 35.05 106.75 35.45 108.25 35.85 109.7 37.15 110.45 38.45 111.2 39.95 110.8 41.4 110.4 42.2 109.1 42.95 107.8 42.55 106.3 Z"/>
</g>

<g id="Layer3_0_MEMBER_10_FILL">
<path fill="#CFD8DC" stroke="none" d="
M 66.55 111.35
Q 65.5 110.25 63.95 110.25 62.45 110.25 61.4 111.35 60.3 112.45 60.3 113.95 60.3 115.5 61.4 116.55 62.45 117.65 63.95 117.65 65.5 117.65 66.55 116.55 67.65 115.5 67.65 113.95 67.65 112.45 66.55 111.35 Z"/>
</g>

<g id="Layer3_0_MEMBER_11_FILL">
<path fill="#CFD8DC" stroke="none" d="
M 89.9 103.75
Q 88.4 103.3 87.1 104.1 85.8 104.85 85.4 106.3 85 107.8 85.75 109.1 86.55 110.4 88 110.85 89.5 111.25 90.8 110.45 92.1 109.7 92.5 108.25 92.9 106.75 92.15 105.45 91.35 104.15 89.9 103.75 Z"/>
</g>

<g id="Layer3_0_MEMBER_12_FILL">
<path fill="#CFD8DC" stroke="none" d="
M 104 87.15
Q 103.25 88.45 103.65 89.95 104.05 91.4 105.35 92.2 106.7 92.95 108.2 92.55 109.65 92.15 110.4 90.85 111.15 89.55 110.75 88.05 110.35 86.6 109.05 85.8 107.75 85.05 106.25 85.45 104.8 85.85 104 87.15 Z"/>
</g>

<g id="Layer3_0_MEMBER_13_FILL">
<path fill="#CFD8DC" stroke="none" d="
M 66.55 111.35
Q 65.5 110.25 63.95 110.25 62.45 110.25 61.4 111.35 60.3 112.45 60.3 113.95 60.3 115.5 61.4 116.55 62.45 117.65 63.95 117.65 65.5 117.65 66.55 116.55 67.65 115.5 67.65 113.95 67.65 112.45 66.55 111.35 Z"/>
</g>

<g id="Layer0_0_FILL">
<path fill="#2F2F2F" stroke="none" d="
M 32.1 32.05
Q 30.5 33.7 30.5 36 30.5 38.25 32.1 39.85 33.75 41.5 36 41.5 38.3 41.5 39.9 39.85 41.5 38.25 41.5 36 41.5 33.7 39.9 32.05 38.3 30.5 36 30.5 33.75 30.5 32.1 32.05
M 33.25 36
Q 33.25 34.85 34.05 34.05 34.9 33.25 36 33.25 37.15 33.25 37.95 34.05 38.75 34.85 38.75 36 38.75 37.15 37.95 37.95 37.15 38.75 36 38.75 34.9 38.75 34.05 37.95 33.25 37.15 33.25 36 Z"/>

<path fill="#ECEFF1" stroke="none" d="
M 34.05 34.05
Q 33.25 34.85 33.25 36 33.25 37.15 34.05 37.95 34.9 38.75 36 38.75 37.15 38.75 37.95 37.95 38.75 37.15 38.75 36 38.75 34.85 37.95 34.05 37.15 33.25 36 33.25 34.9 33.25 34.05 34.05 Z"/>
</g>

<path id="Layer2_0_1_STROKES" stroke="#2F2F2F" stroke-width="5" stroke-linejoin="round" stroke-linecap="round" fill="none" d="
M 19.24752197265625 40.550939941406256
L 36.6308837890625 35.891821289062506"/>

<path id="Layer1_0_1_STROKES" stroke="#2F2F2F" stroke-width="5" stroke-linejoin="round" stroke-linecap="round" fill="none" d="
M 36 64
L 36 36"/>
</defs>

<g id="Layer_1">
<g transform="matrix( 1, 0, 0, 1, 0,0) ">
<use xlink:href="#Layer3_0_MEMBER_0_FILL"/>
</g>

<g transform="matrix( 1, 0, 0, 1, 0,0) ">
<use xlink:href="#Layer3_0_MEMBER_1_FILL"/>
</g>

<g transform="matrix( 0.5625, 0, 0, 0.5625, 0,0) ">
<use xlink:href="#Layer3_0_MEMBER_2_FILL"/>
</g>

<g transform="matrix( 0.5625, 0, 0, 0.5625, 0,0) ">
<use xlink:href="#Layer3_0_MEMBER_3_FILL"/>
</g>

<g transform="matrix( 0.5625, 0, 0, 0.5625, 0,0) ">
<use xlink:href="#Layer3_0_MEMBER_4_FILL"/>
</g>

<g transform="matrix( 0.5625, 0, 0, 0.5625, 0,0) ">
<use xlink:href="#Layer3_0_MEMBER_5_FILL"/>
</g>

<g transform="matrix( 0.5625, 0, 0, 0.5625, 0,0) ">
<use xlink:href="#Layer3_0_MEMBER_6_FILL"/>
</g>

<g transform="matrix( 0.5625, 0, 0, 0.5625, 0,0) ">
<use xlink:href="#Layer3_0_MEMBER_7_FILL"/>
</g>

<g transform="matrix( 0.5625, 0, 0, 0.5625, 0,0) ">
<use xlink:href="#Layer3_0_MEMBER_8_FILL"/>
</g>

<g transform="matrix( 0.5625, 0, 0, 0.5625, 0,0) ">
<use xlink:href="#Layer3_0_MEMBER_9_FILL"/>
</g>

<g transform="matrix( 0.5625, 0, 0, 0.5625, 0,0) ">
<use xlink:href="#Layer3_0_MEMBER_10_FILL"/>
</g>

<g transform="matrix( 0.5625, 0, 0, 0.5625, 0,0) ">
<use xlink:href="#Layer3_0_MEMBER_11_FILL"/>
</g>

<g transform="matrix( 0.5625, 0, 0, 0.5625, 0,0) ">
<use xlink:href="#Layer3_0_MEMBER_12_FILL"/>
</g>

<g transform="matrix( -0.5625, 0, 0, -0.5625, 71.95,72.05) ">
<use xlink:href="#Layer3_0_MEMBER_13_FILL"/>
</g>
</g>

<g transform="matrix( -0.2588653564453125, -0.9657745361328125, 0.6208343505859375, -0.1663970947265625, 23.6,76.65) ">
<use xlink:href="#Layer2_0_1_STROKES" transform="matrix( -0.2589111328125, 1.5027618408203125, -0.966033935546875, -0.402801513671875, 80.15,-4.55) "/>
</g>

<g transform="matrix( -1, 0, 0, -1, 72,72) ">
<use xlink:href="#Layer1_0_1_STROKES" transform="matrix( -1, 0, 0, -1, 72,72) "/>
</g>

<g transform="matrix( 1, 0, 0, 1, 0,0) ">
<use xlink:href="#Layer0_0_FILL"/>
</g>
</svg>
