
<svg xmlns="http://www.w3.org/2000/svg" version="1.1" xmlns:xlink="http://www.w3.org/1999/xlink" preserveAspectRatio="none" x="0px" y="0px" width="72px" height="72px" viewBox="0 0 72 72">
<defs>
<g id="Layer0_0_MEMBER_0_MEMBER_0_FILL">
<path fill="#444444" stroke="none" d="
M 70.5 32.8
Q 67.5 30.5 63.9 30.5
L 54.3 30.5
Q 50.8 30.5 48.8 32.8 46.85 35.05 47.35 38.4 48.35 45.1 46.65 55.5 45.6 62.05 42.9 72.55 42.9 75.25 59.2 74.75 75.5 74.2 75.5 71.5 77.15 65 76.3 55 75.95 50.9 74.05 38.4 73.55 35.15 70.5 32.8 Z"/>
</g>

<g id="Layer0_0_MEMBER_0_MEMBER_1_MEMBER_0_FILL">
<path fill="#FCC21B" stroke="none" d="
M 16.95 33.8
L 15.6 34.35
Q 14.65 34.8 14.25 35.8 13.9 36.75 14.3 37.7
L 14.35 37.85
Q 14.8 38.8 15.8 39.15 16.75 39.55 17.7 39.1
L 19.05 38.5
Q 20 38.1 20.4 37.1 20.75 36.1 20.35 35.15
L 20.3 35.05
Q 19.85 34.1 18.85 33.7 17.9 33.35 16.95 33.8 Z"/>
</g>

<g id="Layer0_0_MEMBER_0_MEMBER_1_MEMBER_1_FILL">
<path fill="#444444" stroke="none" d="
M 29.65 61.45
L 36.05 63.2 41.45 47 34.1 45.05 29.65 61.45 Z"/>
</g>

<g id="Layer0_0_MEMBER_0_MEMBER_1_MEMBER_2_FILL">
<path fill="#444444" stroke="none" d="
M 57.75 33.7
Q 56.6 31.85 54.45 31.45 52.35 31 50.55 32.2
L 35.7 42.7 39.9 49.1 56.3 40.95
Q 58.1 39.75 58.55 37.65 58.95 35.5 57.75 33.7 Z"/>
</g>

<g id="Layer0_0_MEMBER_0_MEMBER_1_MEMBER_3_FILL">
<path fill="#444444" stroke="none" d="
M 41.55 46.7
Q 41.85 45.15 41 43.8 40.15 42.5 38.6 42.15 37 41.85 35.7 42.7 34.4 43.6 34.05 45.15 33.75 46.7 34.6 48 35.5 49.35 37.05 49.65 38.6 49.95 39.9 49.1 41.2 48.25 41.55 46.7 Z"/>
</g>

<g id="Layer0_0_MEMBER_0_MEMBER_1_MEMBER_4_FILL">
<path fill="#E0E0E0" stroke="none" d="
M 36.05 63.2
L 38.65 57.05 30.8 55.25 29.65 61.45 36.05 63.2 Z"/>
</g>

<g id="Layer0_0_MEMBER_0_MEMBER_2_MEMBER_0_FILL">
<path fill="#444444" stroke="none" d="
M 89.9 11
L 84.15 26.2 91.55 28.1 96.3 12.7 89.9 11 Z"/>
</g>

<g id="Layer0_0_MEMBER_0_MEMBER_2_MEMBER_1_FILL">
<path fill="#444444" stroke="none" d="
M 89.2 31.65
L 86.3 24.6 68.8 30.15
Q 66.8 31 65.95 32.95 65.15 34.95 65.95 36.95 66.8 38.95 68.8 39.8 70.8 40.6 72.8 39.8
L 89.2 31.65 Z"/>
</g>

<g id="Layer0_0_MEMBER_0_MEMBER_2_MEMBER_2_FILL">
<path fill="#444444" stroke="none" d="
M 86.3 24.6
Q 84.85 25.2 84.2 26.65 83.6 28.1 84.2 29.55 84.8 31 86.25 31.65 87.75 32.25 89.2 31.65 90.65 31.05 91.25 29.6 91.85 28.1 91.25 26.65 90.65 25.2 89.2 24.6 87.75 24 86.3 24.6 Z"/>
</g>

<g id="Layer0_0_MEMBER_0_MEMBER_2_MEMBER_3_FILL">
<path fill="#E0E0E0" stroke="none" d="
M 89.9 11
L 87.1 17.1 94.9 18.9 96.3 12.65 89.9 11 Z"/>
</g>

<g id="Layer0_0_MEMBER_0_MEMBER_2_MEMBER_4_FILL">
<path fill="#FCC21B" stroke="none" d="
M 57.85 2.5
Q 57.7 2.05 57.25 2.1
L 52.25 3.1
Q 51.45 3.25 50.9 4.15 50.25 5.1 50.55 6.1 51.1 7.85 53 7.95 53.7 8 55.7 7.25 56.1 7.1 56.1 6.7 56.1 6.55 56 6.35 55.9 6.15 55.9 6.1 56 5.7 55.95 5.45 55.7 5 55.7 4.85 55.85 4.45 55.8 4.3 55.8 4.15 55.6 3.9 55.5 3.7 55.7 3.65
L 57.45 3.1
Q 58 2.95 57.85 2.5 Z"/>
</g>

<g id="Layer0_0_MEMBER_0_MEMBER_3_MEMBER_0_MEMBER_0_FILL">
<path fill="#444444" stroke="none" d="
M 56.5 65.55
Q 53.45 64.75 50.8 66.4 48.1 68 47.35 71.05
L 42.9 97.65 53.4 100.3 62.05 74.75
Q 62.8 71.7 61.2 69 59.55 66.3 56.5 65.55 Z"/>
</g>

<g id="Layer0_0_MEMBER_0_MEMBER_3_MEMBER_0_MEMBER_1_FILL">
<path fill="#444444" stroke="none" d="
M 47.45 93.3
Q 45.25 93.6 43.9 95.4 42.55 97.2 42.85 99.4 43.15 101.6 44.95 103 46.75 104.35 48.95 104 51.2 103.7 52.55 101.9 53.9 100.1 53.55 97.9 53.25 95.65 51.45 94.3 49.65 92.95 47.45 93.3 Z"/>
</g>

<g id="Layer0_0_MEMBER_0_MEMBER_3_MEMBER_0_MEMBER_2_FILL">
<path fill="#E0E0E0" stroke="none" d="
M 41.15 123.8
L 44.55 117.25 36.25 113.5 33.45 120.35 41.15 123.8 Z"/>
</g>

<g id="Layer0_0_MEMBER_0_MEMBER_3_MEMBER_0_MEMBER_3_FILL">
<path fill="#444444" stroke="none" d="
M 45.2 118.2
L 53.05 101 43.2 96.6 35.05 113.5 45.2 118.2 Z"/>
</g>

<g id="Layer0_0_MEMBER_0_MEMBER_3_MEMBER_1_FILL">
<path fill="#000000" stroke="none" d="
M 47.15 121.9
Q 45.65 120.4 43.5 120.4
L 33.4 120.4 33.45 128 48.7 128 48.7 125.6
Q 48.7 123.45 47.15 121.9 Z"/>
</g>

<g id="Layer0_0_MEMBER_0_MEMBER_4_MEMBER_0_MEMBER_0_FILL">
<path fill="#444444" stroke="none" d="
M 61.3 67.5
Q 58.55 69.1 57.7 72.1 56.85 75.1 58.4 77.85
L 73.45 100.25 82.9 94.95 71.65 70.45
Q 70.1 67.7 67.05 66.8 64.05 65.95 61.3 67.5 Z"/>
</g>

<g id="Layer0_0_MEMBER_0_MEMBER_4_MEMBER_0_MEMBER_1_FILL">
<path fill="#444444" stroke="none" d="
M 83.4 96.65
Q 83.15 94.45 81.4 93.05 79.65 91.65 77.4 91.9 75.2 92.15 73.8 93.9 72.4 95.65 72.65 97.9 72.9 100.1 74.65 101.5 76.4 102.9 78.65 102.65 80.85 102.4 82.25 100.65 83.65 98.9 83.4 96.65 Z"/>
</g>

<g id="Layer0_0_MEMBER_0_MEMBER_4_MEMBER_0_MEMBER_2_FILL">
<path fill="#E0E0E0" stroke="none" d="
M 82.2 123.2
L 90.15 120.4 88.15 113.3 79.55 116.3 82.2 123.2 Z"/>
</g>

<g id="Layer0_0_MEMBER_0_MEMBER_4_MEMBER_0_MEMBER_3_FILL">
<path fill="#444444" stroke="none" d="
M 72.95 99.2
L 79.1 117 88.9 113.5 83.15 95.65 72.95 99.2 Z"/>
</g>

<g id="Layer0_0_MEMBER_0_MEMBER_4_MEMBER_1_FILL">
<path fill="#000000" stroke="none" d="
M 81.15 120.4
L 81.2 128 96.45 128 96.45 125.6
Q 96.45 123.45 94.9 121.9 93.4 120.4 91.2 120.4
L 81.15 120.4 Z"/>
</g>

<g id="Layer0_0_MEMBER_0_MEMBER_5_FILL">
<path fill="#00E676" stroke="none" d="
M 59.9 29.5
L 55.35 31.35 53.1 34.8 53.1 38.35 61.4 61.15 65.55 52.9 69.05 41.6 67.9 31.95 65.15 29.5 59.9 29.5 Z"/>
</g>

<g id="Layer0_0_MEMBER_0_MEMBER_6_FILL">
<path fill="#757575" stroke="none" d="
M 55.55 31.25
L 59.6 30.05 59.3 25.2
Q 56.6 25.2 54.35 25.65 52.4 26.7 49.6 30.35 48.2 32.2 47.15 33.8
L 51.6 36.05
Q 51.05 36.35 50.45 36.75 49.25 37.5 48.9 38 50.05 44.15 55.4 54.2 58.1 59.2 60.55 63
L 62.2 62.95
Q 61.55 56.8 57.95 46.2 54.55 36.35 54.6 35.35 54.65 33.7 55.1 32.3
L 55.55 31.25 Z"/>
</g>

<g id="Layer0_0_MEMBER_0_MEMBER_7_FILL">
<path fill="#757575" stroke="none" d="
M 66.8 24.6
Q 65.75 24.55 63.95 24.65 62.4 24.75 61.8 24.85
L 62.15 29.9 65.95 30.2 66.65 31.25
Q 67.45 32.65 67.65 34.3 67.9 36.4 65.25 47.2 62.6 57.75 60.6 63
L 62.2 62.95
Q 68.3 58.55 71.65 46.95 73.35 41.15 73.8 36.2
L 70.9 34.6 74.75 31.7
Q 73.6 30.25 72 28.6 68.85 25.4 66.8 24.6 Z"/>
</g>

<g id="Layer0_0_MEMBER_0_MEMBER_8_MEMBER_0_FILL">
<path fill="#E59900" stroke="none" d="
M 34.5 19.8
Q 35.45 19.7 36.05 19 36.6 18.3 36.55 17.4
L 36.35 15.45 31.9 15.9 32.1 17.8
Q 32.2 18.7 32.9 19.3 33.6 19.9 34.5 19.8 Z"/>
</g>

<g id="Layer0_0_MEMBER_0_MEMBER_8_MEMBER_1_MEMBER_0_MEMBER_0_FILL">
<path fill="#E59600" stroke="none" d="
M 69.9 16.65
L 69.05 16.75 69.45 21.5
Q 70.55 21.4 71.25 20.75 72.05 20.05 71.95 18.8 71.85 17.55 70.85 17
L 69.9 16.65 Z"/>
</g>

<g id="Layer0_0_MEMBER_0_MEMBER_8_MEMBER_1_MEMBER_0_MEMBER_1_FILL">
<path fill="#E59600" stroke="none" d="
M 50.5 18.4
L 49.65 18.5
Q 49.2 18.6 48.75 19 47.9 19.7 48 20.95 48.1 22.2 49.05 22.75 49.85 23.3 50.95 23.15
L 50.5 18.4 Z"/>
</g>

<g id="Layer0_0_MEMBER_0_MEMBER_8_MEMBER_1_MEMBER_1_FILL">
<path fill="#FBC11B" stroke="none" d="
M 67 7.95
Q 64.25 3.95 58.6 4.5 53 5 50.95 9.4 49.25 13.1 49.85 20.3 50.4 26.4 54.1 29.05 57 31.1 60.95 30.75 64.95 30.35 67.4 27.9 70.55 24.65 70 18.5 69.4 11.35 67 7.95 Z"/>
</g>

<g id="Layer0_0_MEMBER_0_MEMBER_8_MEMBER_1_MEMBER_2_FILL">
<path fill="#444444" stroke="none" d="
M 63.45 25.4
L 57.6 25.95
Q 57 26.05 57.4 26.55 57.75 27 58.55 27.35 59.55 27.75 60.7 27.65 61.85 27.5 62.75 26.9 63.45 26.45 63.75 25.95 64.05 25.4 63.45 25.4 Z"/>
</g>

<g id="Layer0_0_MEMBER_0_MEMBER_8_MEMBER_1_MEMBER_3_FILL">
<path fill="#444444" stroke="none" d="
M 56.7 20.5
Q 56.65 19.8 56.2 19.4 55.75 18.95 55.2 19 54.65 19.05 54.3 19.55 53.95 20.1 54 20.75 54.05 21.4 54.5 21.85 54.95 22.3 55.5 22.25 56.05 22.2 56.4 21.7 56.75 21.2 56.7 20.5 Z"/>
</g>

<g id="Layer0_0_MEMBER_0_MEMBER_8_MEMBER_1_MEMBER_4_FILL">
<path fill="#444444" stroke="none" d="
M 63.6 18.7
Q 63.25 19.25 63.3 19.9 63.4 20.6 63.8 21 64.25 21.45 64.8 21.4 65.35 21.35 65.7 20.85 66.1 20.35 66 19.65 65.95 19 65.5 18.55 65.05 18.1 64.5 18.15 64 18.2 63.6 18.7 Z"/>
</g>

<g id="Layer0_0_MEMBER_0_MEMBER_8_MEMBER_1_MEMBER_5_FILL">
<path fill="#E59600" stroke="none" d="
M 61.9 23.15
Q 61.85 23.05 61.7 23.1 60.7 23.4 60.3 23.4 59.6 23.5 58.85 23.35 58.5 23.25 58.65 23.65 59.25 24.4 60.35 24.35 60.95 24.3 61.4 23.95 61.8 23.65 61.9 23.35 62 23.25 61.9 23.15 Z"/>
</g>

<g id="Layer0_0_MEMBER_0_MEMBER_8_MEMBER_1_MEMBER_6_FILL">
<path fill="#FFA000" stroke="none" d="
M 33.05 1.9
L 32.8 1.9
Q 29.55 2.25 28 4.15 26.8 5.65 26.95 7.5
L 27.25 10.9 27.45 10.7 27.75 10.5 28.15 12.1 29.45 8.6 29.5 8.55 30.5 8.6
Q 31.7 8.6 33.4 8.45
L 33.65 8.45 37.45 7.85 37.5 7.9 39.45 11.1 39.55 9.4 39.9 9.6 40.1 9.75 39.85 6.35
Q 39.65 4.45 38.2 3.25 36.35 1.65 33.05 1.9 Z"/>
</g>
</defs>

<g id="Layer_1">
<g transform="matrix( 0.5625, 0, 0, 0.5625, 0,0) ">
<use xlink:href="#Layer0_0_MEMBER_0_MEMBER_0_FILL"/>
</g>

<g transform="matrix( 1, 0, 0, 1, 0,0) ">
<use xlink:href="#Layer0_0_MEMBER_0_MEMBER_1_MEMBER_0_FILL"/>
</g>

<g transform="matrix( 0.5625, 0, 0, 0.5625, 0,0) ">
<use xlink:href="#Layer0_0_MEMBER_0_MEMBER_1_MEMBER_1_FILL"/>
</g>

<g transform="matrix( 0.5625, 0, 0, 0.5625, 0,0) ">
<use xlink:href="#Layer0_0_MEMBER_0_MEMBER_1_MEMBER_2_FILL"/>
</g>

<g transform="matrix( 0.5625, 0, 0, 0.5625, 0,0) ">
<use xlink:href="#Layer0_0_MEMBER_0_MEMBER_1_MEMBER_3_FILL"/>
</g>

<g transform="matrix( 0.5625, 0, 0, 0.5625, 0,0) ">
<use xlink:href="#Layer0_0_MEMBER_0_MEMBER_1_MEMBER_4_FILL"/>
</g>

<g transform="matrix( 0.5625, 0, 0, 0.5625, 0,0) ">
<use xlink:href="#Layer0_0_MEMBER_0_MEMBER_2_MEMBER_0_FILL"/>
</g>

<g transform="matrix( 0.5625, 0, 0, 0.5625, 0,0) ">
<use xlink:href="#Layer0_0_MEMBER_0_MEMBER_2_MEMBER_1_FILL"/>
</g>

<g transform="matrix( 0.5625, 0, 0, 0.5625, 0,0) ">
<use xlink:href="#Layer0_0_MEMBER_0_MEMBER_2_MEMBER_2_FILL"/>
</g>

<g transform="matrix( 0.5625, 0, 0, 0.5625, 0,0) ">
<use xlink:href="#Layer0_0_MEMBER_0_MEMBER_2_MEMBER_3_FILL"/>
</g>

<g transform="matrix( 1, 0, 0, 1, 0,0) ">
<use xlink:href="#Layer0_0_MEMBER_0_MEMBER_2_MEMBER_4_FILL"/>
</g>

<g transform="matrix( 0.5625, 0, 0, 0.5625, 0,0) ">
<use xlink:href="#Layer0_0_MEMBER_0_MEMBER_3_MEMBER_0_MEMBER_0_FILL"/>
</g>

<g transform="matrix( 0.5625, 0, 0, 0.5625, 0,0) ">
<use xlink:href="#Layer0_0_MEMBER_0_MEMBER_3_MEMBER_0_MEMBER_1_FILL"/>
</g>

<g transform="matrix( 0.5625, 0, 0, 0.5625, 0,0) ">
<use xlink:href="#Layer0_0_MEMBER_0_MEMBER_3_MEMBER_0_MEMBER_2_FILL"/>
</g>

<g transform="matrix( 0.5625, 0, 0, 0.5625, 0,0) ">
<use xlink:href="#Layer0_0_MEMBER_0_MEMBER_3_MEMBER_0_MEMBER_3_FILL"/>
</g>

<g transform="matrix( 0.5625, 0, 0, 0.5625, 0,0) ">
<use xlink:href="#Layer0_0_MEMBER_0_MEMBER_3_MEMBER_1_FILL"/>
</g>

<g transform="matrix( 0.5625, 0, 0, 0.5625, 0,0) ">
<use xlink:href="#Layer0_0_MEMBER_0_MEMBER_4_MEMBER_0_MEMBER_0_FILL"/>
</g>

<g transform="matrix( 0.5625, 0, 0, 0.5625, 0,0) ">
<use xlink:href="#Layer0_0_MEMBER_0_MEMBER_4_MEMBER_0_MEMBER_1_FILL"/>
</g>

<g transform="matrix( 0.5625, 0, 0, 0.5625, 0,0) ">
<use xlink:href="#Layer0_0_MEMBER_0_MEMBER_4_MEMBER_0_MEMBER_2_FILL"/>
</g>

<g transform="matrix( 0.5625, 0, 0, 0.5625, 0,0) ">
<use xlink:href="#Layer0_0_MEMBER_0_MEMBER_4_MEMBER_0_MEMBER_3_FILL"/>
</g>

<g transform="matrix( 0.5625, 0, 0, 0.5625, 0,0) ">
<use xlink:href="#Layer0_0_MEMBER_0_MEMBER_4_MEMBER_1_FILL"/>
</g>

<g transform="matrix( 0.5625, 0, 0, 0.5625, 0,0) ">
<use xlink:href="#Layer0_0_MEMBER_0_MEMBER_5_FILL"/>
</g>

<g transform="matrix( 0.5625, 0, 0, 0.5625, 0,0) ">
<use xlink:href="#Layer0_0_MEMBER_0_MEMBER_6_FILL"/>
</g>

<g transform="matrix( 0.5625, 0, 0, 0.5625, 0,0) ">
<use xlink:href="#Layer0_0_MEMBER_0_MEMBER_7_FILL"/>
</g>

<g transform="matrix( 1, 0, 0, 1, 0,0) ">
<use xlink:href="#Layer0_0_MEMBER_0_MEMBER_8_MEMBER_0_FILL"/>
</g>

<g transform="matrix( 0.5625, 0, 0, 0.5625, 0,-0.05) ">
<use xlink:href="#Layer0_0_MEMBER_0_MEMBER_8_MEMBER_1_MEMBER_0_MEMBER_0_FILL"/>
</g>

<g transform="matrix( 0.5625, 0, 0, 0.5625, 0,-0.05) ">
<use xlink:href="#Layer0_0_MEMBER_0_MEMBER_8_MEMBER_1_MEMBER_0_MEMBER_1_FILL"/>
</g>

<g transform="matrix( 0.5625, 0, 0, 0.5625, 0,0) ">
<use xlink:href="#Layer0_0_MEMBER_0_MEMBER_8_MEMBER_1_MEMBER_1_FILL"/>
</g>

<g transform="matrix( 0.5625, 0, 0, 0.5625, 0,0) ">
<use xlink:href="#Layer0_0_MEMBER_0_MEMBER_8_MEMBER_1_MEMBER_2_FILL"/>
</g>

<g transform="matrix( 0.5625, 0, 0, 0.5625, 0,0) ">
<use xlink:href="#Layer0_0_MEMBER_0_MEMBER_8_MEMBER_1_MEMBER_3_FILL"/>
</g>

<g transform="matrix( 0.5625, 0, 0, 0.5625, 0,0) ">
<use xlink:href="#Layer0_0_MEMBER_0_MEMBER_8_MEMBER_1_MEMBER_4_FILL"/>
</g>

<g transform="matrix( 0.5625, 0, 0, 0.5625, 0,0) ">
<use xlink:href="#Layer0_0_MEMBER_0_MEMBER_8_MEMBER_1_MEMBER_5_FILL"/>
</g>

<g transform="matrix( 1, 0, 0, 1, 0,0) ">
<use xlink:href="#Layer0_0_MEMBER_0_MEMBER_8_MEMBER_1_MEMBER_6_FILL"/>
</g>
</g>
</svg>
