
<svg xmlns="http://www.w3.org/2000/svg" version="1.1" xmlns:xlink="http://www.w3.org/1999/xlink" preserveAspectRatio="none" x="0px" y="0px" width="72px" height="72px" viewBox="0 0 72 72">
<defs>
<g id="Layer1_0_FILL">
<path fill="#FCC21B" stroke="none" d="
M 127.55 92.35
Q 127.55 65.35 119.05 45.3 103.45 8.65 63.75 8.65 24.1 8.65 8.5 45.3 0 65.35 0 92.35 0 102.75 18.7 110.05 37.35 117.4 63.75 117.4 90.2 117.4 108.85 110.05 127.55 102.75 127.55 92.35 Z"/>
</g>

<g id="Layer1_1_MEMBER_0_MEMBER_0_FILL">
<path fill="#FCC21B" stroke="none" d="
M 109.5 94.95
Q 116.65 92.35 119.85 85.6 123.05 78.8 120.45 71.75 117.85 64.75 111 61.6 104.1 58.4 97 61 89.9 63.55 86.7 70.35 83.5 77.1 86.05 84.15 88.7 91.15 95.55 94.35 102.4 97.5 109.5 94.95 Z"/>
</g>

<g id="Layer1_1_MEMBER_0_MEMBER_1_FILL">
<path fill="#FCC01C" stroke="none" d="
M 109.3 94.3
Q 116.15 91.8 119.2 85.3 122.3 78.8 119.8 72 117.35 65.25 110.7 62.2 104.1 59.15 97.25 61.6 90.4 64.1 87.3 70.6 84.25 77.15 86.75 83.9 89.25 90.7 95.85 93.75 102.45 96.8 109.3 94.3 Z"/>
</g>

<g id="Layer1_1_MEMBER_0_MEMBER_2_FILL">
<path fill="#FCBE1C" stroke="none" d="
M 109.05 93.65
Q 115.6 91.3 118.6 85 121.55 78.75 119.15 72.25 116.75 65.75 110.4 62.8 104.05 59.9 97.5 62.25 90.9 64.65 87.95 70.9 84.95 77.2 87.35 83.7 89.75 90.2 96.1 93.1 102.45 96 109.05 93.65 Z"/>
</g>

<g id="Layer1_1_MEMBER_0_MEMBER_3_FILL">
<path fill="#FBBB1D" stroke="none" d="
M 108.8 93
Q 115.15 90.75 117.95 84.75 120.8 78.7 118.5 72.45 116.2 66.2 110.1 63.4 104 60.6 97.7 62.9 91.35 65.2 88.55 71.2 85.7 77.2 88 83.45 90.3 89.7 96.4 92.5 102.45 95.3 108.8 93 Z"/>
</g>

<g id="Layer1_1_MEMBER_0_MEMBER_4_FILL">
<path fill="#FBB91E" stroke="none" d="
M 108.6 92.4
Q 114.65 90.25 117.35 84.45 120.1 78.7 117.9 72.7 115.7 66.75 109.85 64.05 104 61.35 97.95 63.5 91.9 65.7 89.2 71.5 86.5 77.25 88.65 83.2 90.85 89.2 96.7 91.9 102.55 94.6 108.6 92.4 Z"/>
</g>

<g id="Layer1_1_MEMBER_0_MEMBER_5_FILL">
<path fill="#FBB71E" stroke="none" d="
M 108.35 91.75
Q 114.15 89.7 116.75 84.15 119.35 78.65 117.25 72.95 115.1 67.2 109.55 64.65 104 62.1 98.2 64.15 92.4 66.25 89.8 71.75 87.2 77.25 89.3 83 91.4 88.7 96.95 91.3 102.55 93.85 108.35 91.75 Z"/>
</g>

<g id="Layer1_1_MEMBER_0_MEMBER_6_FILL">
<path fill="#FBB51F" stroke="none" d="
M 108.1 91.1
Q 113.6 89.15 116.1 83.9 118.6 78.65 116.6 73.15 114.6 67.7 109.25 65.25 103.9 62.8 98.4 64.8 92.9 66.8 90.4 72.05 87.95 77.3 89.95 82.75 91.95 88.2 97.25 90.65 102.6 93.1 108.1 91.1 Z"/>
</g>

<g id="Layer1_1_MEMBER_0_MEMBER_7_FILL">
<path fill="#FAB220" stroke="none" d="
M 107.9 90.5
Q 113.15 88.6 115.5 83.6 117.85 78.6 115.95 73.4 114.05 68.2 108.95 65.9 103.9 63.55 98.65 65.45 93.4 67.35 91.05 72.35 88.7 77.3 90.6 82.5 92.45 87.7 97.55 90.05 102.6 92.4 107.9 90.5 Z"/>
</g>

<g id="Layer1_1_MEMBER_0_MEMBER_8_FILL">
<path fill="#FAB020" stroke="none" d="
M 107.65 89.85
Q 112.65 88.05 114.9 83.3 117.15 78.55 115.3 73.6 113.45 68.7 108.65 66.5 103.85 64.3 98.85 66.05 93.9 67.85 91.65 72.6 89.4 77.4 91.2 82.3 93.05 87.2 97.85 89.45 102.65 91.65 107.65 89.85 Z"/>
</g>

<g id="Layer1_1_MEMBER_0_MEMBER_9_FILL">
<path fill="#FAAE21" stroke="none" d="
M 107.4 89.2
Q 112.15 87.5 114.25 83.05 116.4 78.55 114.65 73.85 112.95 69.2 108.4 67.1 103.85 65 99.1 66.7 94.4 68.4 92.25 72.9 90.15 77.4 91.85 82.05 93.6 86.75 98.15 88.85 102.7 90.95 107.4 89.2 Z"/>
</g>

<g id="Layer1_1_MEMBER_0_MEMBER_10_FILL">
<path fill="#FAAC22" stroke="none" d="
M 107.15 88.6
Q 111.6 87 113.6 82.75 115.6 78.5 114 74.1 112.4 69.7 108.1 67.7 103.8 65.75 99.35 67.35 94.9 68.95 92.9 73.2 90.9 77.4 92.5 81.85 94.1 86.25 98.4 88.2 102.7 90.2 107.15 88.6 Z"/>
</g>

<g id="Layer1_1_MEMBER_0_MEMBER_11_FILL">
<path fill="#F9A922" stroke="none" d="
M 106.95 87.95
Q 111.15 86.45 113.05 82.45 114.9 78.45 113.4 74.3 111.85 70.2 107.8 68.3 103.75 66.45 99.6 67.95 95.4 69.45 93.5 73.45 91.6 77.5 93.15 81.6 94.65 85.75 98.7 87.6 102.75 89.45 106.95 87.95 Z"/>
</g>

<g id="Layer1_1_MEMBER_0_MEMBER_12_FILL">
<path fill="#F9A723" stroke="none" d="
M 106.7 87.3
Q 110.65 85.9 112.4 82.15 114.2 78.4 112.75 74.55 111.35 70.7 107.55 68.95 103.75 67.2 99.8 68.6 95.9 70.05 94.15 73.75 92.4 77.5 93.8 81.35 95.2 85.25 99 87 102.8 88.75 106.7 87.3 Z"/>
</g>

<g id="Layer1_1_MEMBER_0_MEMBER_13_FILL">
<path fill="#F9A524" stroke="none" d="
M 106.5 86.7
Q 110.15 85.4 111.8 81.9 113.4 78.4 112.1 74.75 110.75 71.15 107.2 69.5 103.7 67.9 100.05 69.2 96.4 70.55 94.75 74.05 93.1 77.55 94.4 81.15 95.75 84.75 99.3 86.4 102.85 88 106.5 86.7 Z"/>
</g>

<g id="Layer1_1_MEMBER_0_MEMBER_14_FILL">
<path fill="#F9A324" stroke="none" d="
M 106.25 86.05
Q 109.65 84.85 111.15 81.6 112.7 78.35 111.45 75 110.2 71.65 106.95 70.15 103.7 68.65 100.3 69.85 96.9 71.1 95.35 74.35 93.85 77.55 95.05 80.9 96.3 84.25 99.55 85.75 102.85 87.25 106.25 86.05 Z"/>
</g>

<g id="Layer1_1_MEMBER_0_MEMBER_15_FILL">
<path fill="#F8A025" stroke="none" d="
M 106 85.4
Q 109.1 84.3 110.5 81.3 111.95 78.35 110.8 75.25 109.7 72.2 106.65 70.8 103.6 69.4 100.5 70.5 97.4 71.65 96 74.6 94.6 77.6 95.7 80.7 96.85 83.8 99.9 85.15 102.9 86.55 106 85.4 Z"/>
</g>

<g id="Layer1_1_MEMBER_0_MEMBER_16_FILL">
<path fill="#F89E26" stroke="none" d="
M 105.8 84.75
Q 108.65 83.75 109.95 81 111.2 78.3 110.15 75.45 109.15 72.65 106.35 71.35 103.6 70.1 100.75 71.15 97.9 72.15 96.6 74.9 95.35 77.65 96.35 80.45 97.4 83.25 100.15 84.55 102.9 85.8 105.8 84.75 Z"/>
</g>

<g id="Layer1_1_MEMBER_0_MEMBER_17_FILL">
<path fill="#F89C26" stroke="none" d="
M 105.55 84.15
Q 108.15 83.2 109.3 80.75 110.5 78.25 109.55 75.7 108.6 73.15 106.1 72 103.6 70.85 101 71.75 98.4 72.7 97.2 75.15 96.05 77.65 97 80.2 97.95 82.8 100.45 83.95 102.95 85.1 105.55 84.15 Z"/>
</g>

<g id="Layer1_1_MEMBER_0_MEMBER_18_FILL">
<path fill="#F89A27" stroke="none" d="
M 105.3 83.5
Q 107.6 82.7 108.7 80.45 109.75 78.25 108.9 75.95 108.05 73.65 105.8 72.6 103.55 71.55 101.2 72.4 98.85 73.25 97.85 75.45 96.8 77.7 97.65 80 98.5 82.3 100.75 83.35 103 84.35 105.3 83.5 Z"/>
</g>

<g id="Layer1_1_MEMBER_0_MEMBER_19_FILL">
<path fill="#F79728" stroke="none" d="
M 105.05 82.85
Q 107.1 82.15 108.05 80.15 109 78.2 108.25 76.15 107.5 74.1 105.5 73.2 103.5 72.3 101.45 73.05 99.4 73.8 98.45 75.75 97.55 77.7 98.3 79.75 99.05 81.8 101 82.7 103 83.6 105.05 82.85 Z"/>
</g>

<g id="Layer1_1_MEMBER_0_MEMBER_20_FILL">
<path fill="#F79528" stroke="none" d="
M 104.85 82.25
Q 106.65 81.6 107.45 79.9 108.25 78.15 107.6 76.4 106.95 74.65 105.25 73.85 103.5 73 101.7 73.65 99.9 74.35 99.1 76.05 98.3 77.75 98.95 79.5 99.6 81.3 101.3 82.1 103.05 82.9 104.85 82.25 Z"/>
</g>

<g id="Layer1_1_MEMBER_0_MEMBER_21_FILL">
<path fill="#F79329" stroke="none" d="
M 104.6 81.6
Q 106.15 81.05 106.85 79.6 107.5 78.15 106.95 76.6 106.4 75.1 104.9 74.4 103.45 73.75 101.9 74.3 100.35 74.85 99.7 76.3 99 77.75 99.55 79.3 100.1 80.8 101.6 81.5 103.05 82.15 104.6 81.6 Z"/>
</g>

<g id="Layer1_1_MEMBER_1_MEMBER_0_FILL">
<path fill="#FCC21B" stroke="none" d="
M 33 61.6
Q 26.1 58.4 19 61 11.9 63.55 8.7 70.35 5.5 77.1 8.1 84.15 10.7 91.15 17.55 94.35 24.4 97.5 31.5 94.95 38.65 92.35 41.85 85.6 45.05 78.8 42.45 71.75 39.85 64.75 33 61.6 Z"/>
</g>

<g id="Layer1_1_MEMBER_1_MEMBER_1_FILL">
<path fill="#FCC01C" stroke="none" d="
M 32.7 62.2
Q 26.1 59.15 19.25 61.6 12.4 64.1 9.3 70.6 6.25 77.15 8.75 83.9 11.25 90.7 17.85 93.75 24.45 96.8 31.3 94.3 38.15 91.8 41.2 85.3 44.3 78.8 41.8 72 39.35 65.25 32.7 62.2 Z"/>
</g>

<g id="Layer1_1_MEMBER_1_MEMBER_2_FILL">
<path fill="#FCBE1C" stroke="none" d="
M 32.4 62.8
Q 26.05 59.9 19.5 62.25 12.9 64.65 9.95 70.9 6.95 77.2 9.35 83.7 11.75 90.2 18.1 93.1 24.45 96 31.05 93.65 37.6 91.3 40.6 85 43.55 78.75 41.15 72.25 38.75 65.75 32.4 62.8 Z"/>
</g>

<g id="Layer1_1_MEMBER_1_MEMBER_3_FILL">
<path fill="#FBBB1D" stroke="none" d="
M 30.8 93
Q 37.15 90.75 39.95 84.75 42.8 78.7 40.5 72.45 38.2 66.2 32.1 63.4 26 60.6 19.7 62.9 13.4 65.2 10.55 71.2 7.7 77.25 10 83.45 12.3 89.7 18.4 92.5 24.5 95.3 30.8 93 Z"/>
</g>

<g id="Layer1_1_MEMBER_1_MEMBER_4_FILL">
<path fill="#FBB91E" stroke="none" d="
M 30.6 92.4
Q 36.65 90.25 39.35 84.45 42.1 78.7 39.9 72.7 37.7 66.75 31.85 64.05 26 61.35 19.95 63.5 13.9 65.7 11.2 71.5 8.5 77.25 10.65 83.2 12.85 89.2 18.7 91.9 24.55 94.6 30.6 92.4 Z"/>
</g>

<g id="Layer1_1_MEMBER_1_MEMBER_5_FILL">
<path fill="#FBB71E" stroke="none" d="
M 30.35 91.75
Q 36.15 89.7 38.75 84.15 41.35 78.65 39.25 72.95 37.1 67.2 31.55 64.65 26 62.1 20.2 64.15 14.4 66.25 11.8 71.75 9.2 77.25 11.3 83 13.4 88.7 18.95 91.3 24.55 93.85 30.35 91.75 Z"/>
</g>

<g id="Layer1_1_MEMBER_1_MEMBER_6_FILL">
<path fill="#FBB51F" stroke="none" d="
M 30.1 91.1
Q 35.6 89.15 38.1 83.9 40.6 78.65 38.6 73.15 36.6 67.7 31.25 65.25 25.9 62.8 20.4 64.8 14.9 66.8 12.4 72.05 9.95 77.3 11.95 82.75 13.95 88.2 19.25 90.65 24.6 93.1 30.1 91.1 Z"/>
</g>

<g id="Layer1_1_MEMBER_1_MEMBER_7_FILL">
<path fill="#FAB220" stroke="none" d="
M 29.85 90.5
Q 35.15 88.6 37.5 83.6 39.85 78.6 37.95 73.4 36.05 68.2 30.95 65.9 25.9 63.55 20.65 65.45 15.4 67.35 13.05 72.35 10.7 77.3 12.6 82.5 14.45 87.7 19.55 90.05 24.6 92.4 29.85 90.5 Z"/>
</g>

<g id="Layer1_1_MEMBER_1_MEMBER_8_FILL">
<path fill="#FAB020" stroke="none" d="
M 29.65 89.85
Q 34.65 88.05 36.9 83.3 39.15 78.55 37.3 73.6 35.5 68.7 30.65 66.5 25.85 64.3 20.85 66.05 15.9 67.85 13.65 72.6 11.4 77.4 13.2 82.3 15.05 87.2 19.85 89.45 24.65 91.65 29.65 89.85 Z"/>
</g>

<g id="Layer1_1_MEMBER_1_MEMBER_9_FILL">
<path fill="#FAAE21" stroke="none" d="
M 29.4 89.2
Q 34.15 87.5 36.25 83.05 38.4 78.55 36.7 73.85 35 69.2 30.4 67.1 25.85 65 21.1 66.7 16.4 68.4 14.25 72.9 12.15 77.4 13.85 82.05 15.6 86.75 20.15 88.85 24.7 90.95 29.4 89.2 Z"/>
</g>

<g id="Layer1_1_MEMBER_1_MEMBER_10_FILL">
<path fill="#FAAC22" stroke="none" d="
M 29.2 88.6
Q 33.65 87 35.65 82.75 37.65 78.5 36 74.1 34.4 69.7 30.1 67.7 25.8 65.75 21.35 67.35 16.9 68.9 14.9 73.2 12.9 77.4 14.5 81.85 16.1 86.25 20.45 88.2 24.75 90.2 29.2 88.6 Z"/>
</g>

<g id="Layer1_1_MEMBER_1_MEMBER_11_FILL">
<path fill="#F9A922" stroke="none" d="
M 28.95 87.95
Q 33.1 86.45 35 82.45 36.9 78.45 35.4 74.3 33.85 70.2 29.8 68.3 25.75 66.45 21.6 67.95 17.4 69.45 15.5 73.45 13.6 77.5 15.15 81.6 16.65 85.75 20.7 87.6 24.75 89.45 28.95 87.95 Z"/>
</g>

<g id="Layer1_1_MEMBER_1_MEMBER_12_FILL">
<path fill="#F9A723" stroke="none" d="
M 28.7 87.3
Q 32.65 85.9 34.4 82.15 36.2 78.4 34.75 74.55 33.35 70.7 29.55 68.95 25.75 67.2 21.85 68.6 17.9 70.05 16.15 73.75 14.4 77.5 15.8 81.35 17.2 85.25 21 87 24.8 88.75 28.7 87.3 Z"/>
</g>

<g id="Layer1_1_MEMBER_1_MEMBER_13_FILL">
<path fill="#F9A524" stroke="none" d="
M 28.5 86.7
Q 32.15 85.4 33.8 81.9 35.4 78.4 34.1 74.75 32.75 71.15 29.2 69.5 25.7 67.9 22.05 69.2 18.4 70.55 16.75 74.05 15.1 77.55 16.45 81.15 17.75 84.75 21.3 86.4 24.85 88 28.5 86.7 Z"/>
</g>

<g id="Layer1_1_MEMBER_1_MEMBER_14_FILL">
<path fill="#F9A324" stroke="none" d="
M 28.25 86.05
Q 31.65 84.85 33.15 81.6 34.7 78.35 33.45 75 32.2 71.65 28.95 70.15 25.7 68.65 22.3 69.85 18.9 71.1 17.4 74.35 15.85 77.55 17.1 80.9 18.3 84.25 21.55 85.75 24.85 87.25 28.25 86.05 Z"/>
</g>

<g id="Layer1_1_MEMBER_1_MEMBER_15_FILL">
<path fill="#F8A025" stroke="none" d="
M 28 85.4
Q 31.15 84.3 32.55 81.3 33.95 78.35 32.8 75.25 31.65 72.15 28.65 70.8 25.65 69.4 22.5 70.5 19.4 71.65 18 74.6 16.6 77.6 17.7 80.7 18.85 83.8 21.9 85.15 24.9 86.55 28 85.4 Z"/>
</g>

<g id="Layer1_1_MEMBER_1_MEMBER_16_FILL">
<path fill="#F89E26" stroke="none" d="
M 27.75 84.75
Q 30.65 83.75 31.9 81 33.2 78.3 32.15 75.45 31.1 72.65 28.35 71.35 25.6 70.1 22.75 71.15 19.9 72.15 18.6 74.9 17.35 77.65 18.35 80.45 19.4 83.25 22.15 84.55 24.9 85.8 27.75 84.75 Z"/>
</g>

<g id="Layer1_1_MEMBER_1_MEMBER_17_FILL">
<path fill="#F89C26" stroke="none" d="
M 27.55 84.15
Q 30.15 83.2 31.3 80.75 32.5 78.25 31.55 75.7 30.6 73.15 28.1 72 25.6 70.85 23 71.75 20.4 72.7 19.2 75.15 18.05 77.65 19 80.2 19.95 82.8 22.45 83.95 24.95 85.1 27.55 84.15 Z"/>
</g>

<g id="Layer1_1_MEMBER_1_MEMBER_18_FILL">
<path fill="#F89A27" stroke="none" d="
M 27.3 83.5
Q 29.65 82.7 30.65 80.45 31.7 78.25 30.85 75.95 30.05 73.65 27.8 72.6 25.55 71.55 23.2 72.4 20.85 73.25 19.85 75.45 18.8 77.7 19.65 80 20.5 82.3 22.75 83.35 25 84.35 27.3 83.5 Z"/>
</g>

<g id="Layer1_1_MEMBER_1_MEMBER_19_FILL">
<path fill="#F79728" stroke="none" d="
M 27.1 82.85
Q 29.15 82.15 30.05 80.15 31 78.15 30.25 76.15 29.5 74.1 27.5 73.2 25.5 72.3 23.45 73.05 21.4 73.8 20.45 75.75 19.55 77.7 20.3 79.75 21.05 81.8 23.05 82.7 25.05 83.6 27.1 82.85 Z"/>
</g>

<g id="Layer1_1_MEMBER_1_MEMBER_20_FILL">
<path fill="#F79528" stroke="none" d="
M 26.85 82.25
Q 28.65 81.6 29.45 79.9 30.25 78.15 29.6 76.4 28.95 74.65 27.25 73.85 25.5 73 23.7 73.65 21.9 74.35 21.1 76.05 20.3 77.75 20.95 79.5 21.6 81.3 23.3 82.1 25.05 82.9 26.85 82.25 Z"/>
</g>

<g id="Layer1_1_MEMBER_1_MEMBER_21_FILL">
<path fill="#F79329" stroke="none" d="
M 26.6 81.6
Q 28.15 81.05 28.85 79.6 29.5 78.15 28.95 76.6 28.4 75.1 26.9 74.4 25.45 73.75 23.9 74.3 22.35 74.85 21.7 76.3 21 77.75 21.55 79.3 22.1 80.8 23.6 81.5 25.05 82.15 26.6 81.6 Z"/>
</g>

<g id="Layer1_2_FILL">
<path fill="#D7598B" stroke="none" d="
M 52.1 31.4
Q 48.7 29.5 45.05 30.55 42.55 31.25 40.8 33.1 39.05 34.85 38.45 37.25 36.65 35.55 34.25 34.9 31.8 34.3 29.4 34.95 25.65 36.05 23.7 39.35 21.8 42.7 22.8 46.45 24.7 53.25 34.55 58.2 39.55 60.7 44.6 61.95
L 45.15 61.95
Q 45.4 61.9 45.8 61.6 49.5 57.9 52.5 53.15 58.4 43.8 56.55 37 55.55 33.35 52.1 31.4 Z"/>
</g>

<g id="Layer1_3_FILL">
<path fill="#D7598B" stroke="none" d="
M 52.1 31.4
Q 48.7 29.5 45.05 30.55 42.55 31.25 40.8 33.1 39.05 34.85 38.45 37.25 36.65 35.55 34.25 34.9 31.8 34.3 29.4 34.95 25.65 36.05 23.7 39.35 21.8 42.7 22.8 46.45 24.7 53.25 34.55 58.2 39.55 60.7 44.6 61.95
L 45.15 61.95
Q 45.4 61.9 45.8 61.6 49.5 57.9 52.5 53.15 58.4 43.8 56.55 37 55.55 33.35 52.1 31.4 Z"/>
</g>

<g id="Layer0_0_FILL">
<path fill="#ED6C30" stroke="none" d="
M 97.65 76.15
Q 99.35 70.25 96.45 68.3 94.45 66.95 91.35 67.25 91 67.3 86 68.3 75.95 70.35 64 70.35 52 70.35 41.95 68.3 36.95 67.3 36.6 67.25 33.5 66.95 31.5 68.3 28.6 70.25 30.3 76.15 32 82 36.65 86.85 40.85 91.2 46.2 94 54.3 98.25 64 98.25 73.65 98.25 81.75 94 87.1 91.2 91.3 86.85 96 82 97.65 76.15 Z"/>
</g>
</defs>

<g id="Layer_1">
<g transform="matrix( 0.5625, 0, 0, 0.5625, 0,0) ">
<use xlink:href="#Layer1_0_FILL"/>
</g>

<g transform="matrix( 0.5625, 0, 0, 0.5625, 0,0) ">
<use xlink:href="#Layer1_1_MEMBER_0_MEMBER_0_FILL"/>
</g>

<g transform="matrix( 0.5625, 0, 0, 0.5625, 0,0) ">
<use xlink:href="#Layer1_1_MEMBER_0_MEMBER_1_FILL"/>
</g>

<g transform="matrix( 0.5625, 0, 0, 0.5625, 0,0) ">
<use xlink:href="#Layer1_1_MEMBER_0_MEMBER_2_FILL"/>
</g>

<g transform="matrix( 0.5625, 0, 0, 0.5625, 0,0) ">
<use xlink:href="#Layer1_1_MEMBER_0_MEMBER_3_FILL"/>
</g>

<g transform="matrix( 0.5625, 0, 0, 0.5625, 0,0) ">
<use xlink:href="#Layer1_1_MEMBER_0_MEMBER_4_FILL"/>
</g>

<g transform="matrix( 0.5625, 0, 0, 0.5625, 0,0) ">
<use xlink:href="#Layer1_1_MEMBER_0_MEMBER_5_FILL"/>
</g>

<g transform="matrix( 0.5625, 0, 0, 0.5625, 0,0) ">
<use xlink:href="#Layer1_1_MEMBER_0_MEMBER_6_FILL"/>
</g>

<g transform="matrix( 0.5625, 0, 0, 0.5625, 0,0) ">
<use xlink:href="#Layer1_1_MEMBER_0_MEMBER_7_FILL"/>
</g>

<g transform="matrix( 0.5625, 0, 0, 0.5625, 0,0) ">
<use xlink:href="#Layer1_1_MEMBER_0_MEMBER_8_FILL"/>
</g>

<g transform="matrix( 0.5625, 0, 0, 0.5625, 0,0) ">
<use xlink:href="#Layer1_1_MEMBER_0_MEMBER_9_FILL"/>
</g>

<g transform="matrix( 0.5625, 0, 0, 0.5625, 0,0) ">
<use xlink:href="#Layer1_1_MEMBER_0_MEMBER_10_FILL"/>
</g>

<g transform="matrix( 0.5625, 0, 0, 0.5625, 0,0) ">
<use xlink:href="#Layer1_1_MEMBER_0_MEMBER_11_FILL"/>
</g>

<g transform="matrix( 0.5625, 0, 0, 0.5625, 0,0) ">
<use xlink:href="#Layer1_1_MEMBER_0_MEMBER_12_FILL"/>
</g>

<g transform="matrix( 0.5625, 0, 0, 0.5625, 0,0) ">
<use xlink:href="#Layer1_1_MEMBER_0_MEMBER_13_FILL"/>
</g>

<g transform="matrix( 0.5625, 0, 0, 0.5625, 0,0) ">
<use xlink:href="#Layer1_1_MEMBER_0_MEMBER_14_FILL"/>
</g>

<g transform="matrix( 0.5625, 0, 0, 0.5625, 0,0) ">
<use xlink:href="#Layer1_1_MEMBER_0_MEMBER_15_FILL"/>
</g>

<g transform="matrix( 0.5625, 0, 0, 0.5625, 0,0) ">
<use xlink:href="#Layer1_1_MEMBER_0_MEMBER_16_FILL"/>
</g>

<g transform="matrix( 0.5625, 0, 0, 0.5625, 0,0) ">
<use xlink:href="#Layer1_1_MEMBER_0_MEMBER_17_FILL"/>
</g>

<g transform="matrix( 0.5625, 0, 0, 0.5625, 0,0) ">
<use xlink:href="#Layer1_1_MEMBER_0_MEMBER_18_FILL"/>
</g>

<g transform="matrix( 0.5625, 0, 0, 0.5625, 0,0) ">
<use xlink:href="#Layer1_1_MEMBER_0_MEMBER_19_FILL"/>
</g>

<g transform="matrix( 0.5625, 0, 0, 0.5625, 0,0) ">
<use xlink:href="#Layer1_1_MEMBER_0_MEMBER_20_FILL"/>
</g>

<g transform="matrix( 0.5625, 0, 0, 0.5625, 0,0) ">
<use xlink:href="#Layer1_1_MEMBER_0_MEMBER_21_FILL"/>
</g>

<g transform="matrix( 0.5625, 0, 0, 0.5625, 0,0) ">
<use xlink:href="#Layer1_1_MEMBER_1_MEMBER_0_FILL"/>
</g>

<g transform="matrix( 0.5625, 0, 0, 0.5625, 0,0) ">
<use xlink:href="#Layer1_1_MEMBER_1_MEMBER_1_FILL"/>
</g>

<g transform="matrix( 0.5625, 0, 0, 0.5625, 0,0) ">
<use xlink:href="#Layer1_1_MEMBER_1_MEMBER_2_FILL"/>
</g>

<g transform="matrix( 0.5625, 0, 0, 0.5625, 0,0) ">
<use xlink:href="#Layer1_1_MEMBER_1_MEMBER_3_FILL"/>
</g>

<g transform="matrix( 0.5625, 0, 0, 0.5625, 0,0) ">
<use xlink:href="#Layer1_1_MEMBER_1_MEMBER_4_FILL"/>
</g>

<g transform="matrix( 0.5625, 0, 0, 0.5625, 0,0) ">
<use xlink:href="#Layer1_1_MEMBER_1_MEMBER_5_FILL"/>
</g>

<g transform="matrix( 0.5625, 0, 0, 0.5625, 0,0) ">
<use xlink:href="#Layer1_1_MEMBER_1_MEMBER_6_FILL"/>
</g>

<g transform="matrix( 0.5625, 0, 0, 0.5625, 0,0) ">
<use xlink:href="#Layer1_1_MEMBER_1_MEMBER_7_FILL"/>
</g>

<g transform="matrix( 0.5625, 0, 0, 0.5625, 0,0) ">
<use xlink:href="#Layer1_1_MEMBER_1_MEMBER_8_FILL"/>
</g>

<g transform="matrix( 0.5625, 0, 0, 0.5625, 0,0) ">
<use xlink:href="#Layer1_1_MEMBER_1_MEMBER_9_FILL"/>
</g>

<g transform="matrix( 0.5625, 0, 0, 0.5625, 0,0) ">
<use xlink:href="#Layer1_1_MEMBER_1_MEMBER_10_FILL"/>
</g>

<g transform="matrix( 0.5625, 0, 0, 0.5625, 0,0) ">
<use xlink:href="#Layer1_1_MEMBER_1_MEMBER_11_FILL"/>
</g>

<g transform="matrix( 0.5625, 0, 0, 0.5625, 0,0) ">
<use xlink:href="#Layer1_1_MEMBER_1_MEMBER_12_FILL"/>
</g>

<g transform="matrix( 0.5625, 0, 0, 0.5625, 0,0) ">
<use xlink:href="#Layer1_1_MEMBER_1_MEMBER_13_FILL"/>
</g>

<g transform="matrix( 0.5625, 0, 0, 0.5625, 0,0) ">
<use xlink:href="#Layer1_1_MEMBER_1_MEMBER_14_FILL"/>
</g>

<g transform="matrix( 0.5625, 0, 0, 0.5625, 0,0) ">
<use xlink:href="#Layer1_1_MEMBER_1_MEMBER_15_FILL"/>
</g>

<g transform="matrix( 0.5625, 0, 0, 0.5625, 0,0) ">
<use xlink:href="#Layer1_1_MEMBER_1_MEMBER_16_FILL"/>
</g>

<g transform="matrix( 0.5625, 0, 0, 0.5625, 0,0) ">
<use xlink:href="#Layer1_1_MEMBER_1_MEMBER_17_FILL"/>
</g>

<g transform="matrix( 0.5625, 0, 0, 0.5625, 0,0) ">
<use xlink:href="#Layer1_1_MEMBER_1_MEMBER_18_FILL"/>
</g>

<g transform="matrix( 0.5625, 0, 0, 0.5625, 0,0) ">
<use xlink:href="#Layer1_1_MEMBER_1_MEMBER_19_FILL"/>
</g>

<g transform="matrix( 0.5625, 0, 0, 0.5625, 0,0) ">
<use xlink:href="#Layer1_1_MEMBER_1_MEMBER_20_FILL"/>
</g>

<g transform="matrix( 0.5625, 0, 0, 0.5625, 0,0) ">
<use xlink:href="#Layer1_1_MEMBER_1_MEMBER_21_FILL"/>
</g>

<g transform="matrix( 0.6479339599609375, 0, 0, 0.6479339599609375, -4.1,-2.4) ">
<use xlink:href="#Layer1_2_FILL"/>
</g>

<g transform="matrix( -0.6479339599609375, 0, 0, 0.6479339599609375, 76.15,-2.4) ">
<use xlink:href="#Layer1_3_FILL"/>
</g>
</g>

<g transform="matrix( 0.4570465087890625, 0, 0, 0.4757537841796875, 6.7,9.75) ">
<use xlink:href="#Layer0_0_FILL"/>
</g>
</svg>
