
<svg xmlns="http://www.w3.org/2000/svg" version="1.1" xmlns:xlink="http://www.w3.org/1999/xlink" preserveAspectRatio="none" x="0px" y="0px" width="72px" height="72px" viewBox="0 0 72 72">
<defs>
<g id="Layer0_0_FILL">
<path fill="#FCC21B" stroke="none" d="
M 127.55 92.35
Q 127.55 65.35 119.05 45.3 103.45 8.65 63.75 8.65 24.1 8.65 8.5 45.3 0 65.35 0 92.35 0 102.75 18.7 110.05 37.35 117.4 63.75 117.4 90.2 117.4 108.85 110.05 127.55 102.75 127.55 92.35 Z"/>
</g>

<g id="Layer0_2_MEMBER_0_FILL">
<path fill="#2F2F2F" stroke="none" d="
M 96.1 47.4
Q 95.1 46.95 94.05 47.4
L 77.55 54.95
Q 76.45 55.5 75.35 55.45 73.9 55.45 73.2 54.65
L 72.25 53.1
Q 72.05 52.7 71.6 52.5 71.1 52.25 70.7 52.45 69.5 52.95 69.75 55.8 70.05 58.05 71 59.9 72 61.8 73.35 63.15 75.25 65 78.15 66 81.15 67.05 84.3 66.85 86.9 66.7 89.35 65.7 95.45 63.2 97.4 57.7 99 53.2 97.5 48.9 97.1 47.8 96.1 47.4 Z"/>
</g>

<g id="Layer0_2_MEMBER_1_FILL">
<path fill="#2F2F2F" stroke="none" d="
M 33.7 47.4
Q 32.7 46.95 31.65 47.4 30.55 47.8 30.25 48.9 28.75 53.2 30.35 57.7 32.25 63.2 38.35 65.7 40.8 66.7 43.4 66.85 46.55 67.05 49.6 66 52.5 65 54.4 63.15 55.75 61.8 56.75 59.9 57.7 58 57.95 55.8 58.1 55.1 57.95 54.1 57.75 52.75 57.05 52.45 56.6 52.25 56.15 52.5 55.7 52.7 55.5 53.1
L 54.55 54.65
Q 53.85 55.45 52.4 55.45 51.7 55.5 50.9 55.2
L 50.2 54.95 33.7 47.4 Z"/>
</g>

<path id="Layer0_1_1_STROKES" stroke="#2F2F2F" stroke-width="3" stroke-linejoin="miter" stroke-linecap="round" stroke-miterlimit="10" fill="none" d="
M 21.7 50.35
Q 27.3 44.5 35.9 44.5 44.45 44.5 50.05 50.35"/>
</defs>

<g id="Layer_1">
<g transform="matrix( 0.5625, 0, 0, 0.5625, 0,0) ">
<use xlink:href="#Layer0_0_FILL"/>
</g>

<g transform="matrix( 1, 0, 0, 1, 0,0) ">
<use xlink:href="#Layer0_1_1_STROKES"/>
</g>

<g transform="matrix( 0.5625, 0, 0, 0.5625, 0,0) ">
<use xlink:href="#Layer0_2_MEMBER_0_FILL"/>
</g>

<g transform="matrix( 0.5625, 0, 0, 0.5625, 0,0) ">
<use xlink:href="#Layer0_2_MEMBER_1_FILL"/>
</g>
</g>
</svg>
