
<svg xmlns="http://www.w3.org/2000/svg" version="1.1" xmlns:xlink="http://www.w3.org/1999/xlink" preserveAspectRatio="none" x="0px" y="0px" width="72px" height="72px" viewBox="0 0 72 72">
<defs>
<g id="Layer0_0_MEMBER_0_FILL">
<path fill="#FFA000" stroke="none" d="
M 105.4 69.2
Q 106 55.5 106 45.1
L 22 45.4
Q 22 56.85 22.8 71.1 24.45 99.6 28.5 113.55
L 101.1 113.25
Q 104.15 96.6 105.4 69.2 Z"/>
</g>

<g id="Layer0_0_MEMBER_1_MEMBER_0_FILL">
<path fill="#FFA000" stroke="none" d="
M 106 46.15
Q 106 29.8 93.7 18.2 81.4 6.65 64 6.65 46.55 6.65 34.3 18.2 22 29.75 22 46.15 22 62.5 34.3 74.1 46.6 85.65 64 85.65 81.35 85.65 93.7 74.1 106 62.5 106 46.15 Z"/>
</g>

<g id="Layer0_0_MEMBER_2_FILL">
<path fill="#7E57C2" stroke="none" d="
M 34.2 100.7
Q 20.4 106.85 20.4 118.1
L 20.4 128 107.55 128 107.55 118.1
Q 107.55 107.35 94.1 101 81.95 95.25 64.3 95.25 46.25 95.3 34.2 100.7 Z"/>
</g>

<g id="Layer0_0_MEMBER_3_FILL">
<path fill="#E59900" stroke="none" d="
M 73 90.25
L 54.85 90.25 54.85 99.85
Q 54.85 103.1 57.25 105.4 59.7 107.7 63.1 107.7
L 64.75 107.7
Q 68.15 107.7 70.6 105.4 73 103.1 73 99.85
L 73 90.25 Z"/>
</g>

<g id="Layer0_0_MEMBER_4_FILL">
<path fill="#FCC21B" stroke="none" d="
M 83.65 86.25
Q 94.6 76.85 94.6 59 94.6 37.15 88.35 26.35 81 13.6 63.85 13.6 46.7 13.6 39.35 26.35 33.15 37.15 33.15 59 33.15 76.85 44.1 86.25 52.65 93.6 63.85 93.6 75.1 93.6 83.65 86.25 Z"/>
</g>

<g id="Layer0_0_MEMBER_5_FILL">
<path fill="#FFA000" stroke="none" d="
M 96.55 26.6
Q 94.15 21.75 88.9 16.9 78.4 7.2 64.1 7.2 49.8 7.2 39.3 16.7 34.05 21.4 31.65 26.15
L 31.65 55.8
Q 45.75 53.4 59.4 44.9 67.2 40 73.05 34.45 73.3 34.25 73.6 34.3 73.9 34.35 74 34.65 78.7 44.3 88.1 51 92.8 54.35 96.55 55.8
L 96.55 26.6 Z"/>
</g>

<g id="Layer0_0_MEMBER_6_FILL">
<path fill="#E59600" stroke="none" d="
M 69.2 68.9
Q 69 68.55 68.55 68.7 66.05 69.4 64.05 69.4 62.1 69.4 59.6 68.7 59.15 68.55 58.95 68.9 58.75 69.25 58.9 69.6 59.4 70.45 60.65 71.25 62.3 72.25 64.05 72.25 65.85 72.25 67.5 71.25 68.75 70.45 69.25 69.6 69.4 69.25 69.2 68.9 Z"/>
</g>

<g id="Layer0_0_MEMBER_7_FILL">
<path fill="#E59900" stroke="none" d="
M 54.35 83.45
Q 54.25 83.95 56.9 81.8 60.65 78.75 63.8 78.75 63.899609375 78.75 64 78.75 64.1 78.75 64.2 78.75 67.35 78.75 71.1 81.8 73.75 83.95 73.65 83.45 73.15 81.4 70.75 78.95 67.7 75.8 64.25 75.8 64.1 75.8 64 75.8 63.8751953125 75.8 63.75 75.8 60.3 75.8 57.25 78.95 54.85 81.4 54.35 83.45 Z"/>
</g>

<g id="Layer0_0_MEMBER_8_MEMBER_0_FILL">
<path fill="#444444" stroke="none" d="
M 83.2 60.05
Q 83.2 57.95 81.95 56.45 80.7 54.9 78.95 54.9 77.2 54.9 75.95 56.4 74.7 57.9 74.7 60.05 74.7 62.2 75.95 63.7 77.2 65.2 78.95 65.2 80.7 65.2 81.95 63.7 83.2 62.2 83.2 60.05 Z"/>
</g>

<g id="Layer0_0_MEMBER_8_MEMBER_1_FILL">
<path fill="#444444" stroke="none" d="
M 53.35 60.05
Q 53.35 57.95 52.1 56.45 50.85 54.9 49.1 54.9 47.35 54.9 46.1 56.4 44.85 57.9 44.85 60.05 44.85 62.2 46.1 63.7 47.35 65.2 49.1 65.2 50.85 65.2 52.1 63.7 53.35 62.2 53.35 60.05 Z"/>
</g>

<g id="Layer0_0_MEMBER_9_FILL">
<path fill="#FCC21B" stroke="none" d="
M 87.95 66.8
L 87.95 63.7 41.95 63.7 41.95 66.8 87.95 66.8 Z"/>
</g>

<g id="Layer0_0_MEMBER_10_FILL">
<path fill="#000000" fill-opacity="0.25882352941176473" stroke="none" d="
M 54.35 83.45
Q 54.25 83.95 56.9 81.8 60.65 78.75 63.8 78.75 63.899609375 78.75 64 78.75 64.1 78.75 64.2 78.75 67.35 78.75 71.1 81.8 73.75 83.95 73.65 83.45 73.15 81.4 70.75 78.95 67.7 75.8 64.25 75.8 64.1 75.8 64 75.8 63.8751953125 75.8 63.75 75.8 60.3 75.8 57.25 78.95 54.85 81.4 54.35 83.45 Z"/>
</g>
</defs>

<g id="Layer_1">
<g transform="matrix( 0.5625, 0, 0, 0.5625, 0,0) ">
<use xlink:href="#Layer0_0_MEMBER_0_FILL"/>
</g>

<g transform="matrix( 0.5625, 0, 0, 0.5625, 0,0) ">
<use xlink:href="#Layer0_0_MEMBER_1_MEMBER_0_FILL"/>
</g>

<g transform="matrix( 0.5625, 0, 0, 0.5625, 0,0) ">
<use xlink:href="#Layer0_0_MEMBER_2_FILL"/>
</g>

<g transform="matrix( 0.5625, 0, 0, 0.5625, 0,0) ">
<use xlink:href="#Layer0_0_MEMBER_3_FILL"/>
</g>

<g transform="matrix( 0.5625, 0, 0, 0.5625, 0,0) ">
<use xlink:href="#Layer0_0_MEMBER_4_FILL"/>
</g>

<g transform="matrix( 0.5625, 0, 0, 0.5625, 0,0) ">
<use xlink:href="#Layer0_0_MEMBER_5_FILL"/>
</g>

<g transform="matrix( 0.5625, 0, 0, 0.5625, 0,0) ">
<use xlink:href="#Layer0_0_MEMBER_6_FILL"/>
</g>

<g transform="matrix( 0.5625, 0, 0, 0.5625, 0,0) ">
<use xlink:href="#Layer0_0_MEMBER_7_FILL"/>
</g>

<g transform="matrix( 0.5625, 0, 0, -0.5625, 0,67.85) ">
<use xlink:href="#Layer0_0_MEMBER_8_MEMBER_0_FILL"/>
</g>

<g transform="matrix( 0.5625, 0, 0, -0.5625, 0,67.85) ">
<use xlink:href="#Layer0_0_MEMBER_8_MEMBER_1_FILL"/>
</g>

<g transform="matrix( 0.5625, 0, 0, -0.5625, 0,67.85) ">
<use xlink:href="#Layer0_0_MEMBER_9_FILL"/>
</g>

<g transform="matrix( 0.5625, 0, 0, 0.5625, 0,0) ">
<use xlink:href="#Layer0_0_MEMBER_10_FILL"/>
</g>
</g>
</svg>
