
<svg xmlns="http://www.w3.org/2000/svg" version="1.1" xmlns:xlink="http://www.w3.org/1999/xlink" preserveAspectRatio="none" x="0px" y="0px" width="72px" height="72px" viewBox="0 0 72 72">
<defs>
<g id="Layer0_0_FILL">
<path fill="#FCC21B" stroke="none" d="
M 127.8 93.45
Q 127.8 66.4 119.25 46.3 103.6 9.5 63.75 9.5 23.95 9.5 8.35 46.3 -0.2 66.4 -0.2 93.45 -0.2 103.85 18.55 111.2 37.25 118.5 63.75 118.5 90.25 118.5 109 111.2 127.8 103.85 127.8 93.45 Z"/>
</g>

<g id="Layer0_1_FILL">
<path fill="#2F2F2F" stroke="none" d="
M 51.55 88.2
Q 50.35 88.2 49.5 89.2 48.65 90.15 48.65 91.5 48.65 92.9 49.5 93.85 50.4 94.85 51.55 94.85
L 75.55 94.85
Q 76.75 94.85 77.65 93.85 78.5 92.9 78.5 91.5 78.5 90.15 77.65 89.2 76.75 88.2 75.55 88.2
L 51.55 88.2 Z"/>
</g>

<g id="Layer0_2_MEMBER_0_MEMBER_0_FILL">
<path fill="#FFFFFF" stroke="none" d="
M 52.3 47.3
Q 47.45 42.5 40.55 42.5 33.7 42.5 28.8 47.3 23.95 52.05 23.95 58.8 23.95 65.6 28.8 70.35 33.7 75.1 40.55 75.1 47.45 75.1 52.3 70.35 57.15 65.6 57.15 58.8 57.15 52.05 52.3 47.3 Z"/>
</g>

<g id="Layer0_2_MEMBER_0_MEMBER_1_FILL">
<path fill="#2F2F2F" stroke="none" d="
M 50.7 24
Q 49.95 23.85 49.15 23.85 45.3 23.85 42.55 26.55 42.6 28.3 43.8 29.55 45.1 30.85 46.95 30.85 48.8 30.85 50.1 29.55 51.4 28.25 51.4 26.4 51.4 25.05 50.7 24 Z"/>
</g>

<g id="Layer0_2_MEMBER_1_MEMBER_0_FILL">
<path fill="#FFFFFF" stroke="none" d="
M 52.3 47.3
Q 47.45 42.5 40.55 42.5 33.7 42.5 28.8 47.3 23.95 52.05 23.95 58.8 23.95 65.6 28.8 70.35 33.7 75.1 40.55 75.1 47.45 75.1 52.3 70.35 57.15 65.6 57.15 58.8 57.15 52.05 52.3 47.3 Z"/>
</g>

<g id="Layer0_2_MEMBER_1_MEMBER_1_FILL">
<path fill="#2F2F2F" stroke="none" d="
M 24.35 24
Q 23.6 23.85 22.8 23.85 18.95 23.85 16.2 26.55 16.25 28.3 17.45 29.55 18.75 30.85 20.6 30.85 22.45 30.85 23.75 29.55 25.05 28.25 25.05 26.4 25.05 25.05 24.35 24 Z"/>
</g>
</defs>

<g id="Layer_1">
<g transform="matrix( 0.5625, 0, 0, 0.5625, 0,0) ">
<use xlink:href="#Layer0_0_FILL"/>
</g>

<g transform="matrix( 0.5625, 0, 0, 0.5625, 0,0) ">
<use xlink:href="#Layer0_1_FILL"/>
</g>

<g transform="matrix( 0.5625, 0, 0, 0.5625, 26.35,0) ">
<use xlink:href="#Layer0_2_MEMBER_0_MEMBER_0_FILL"/>
</g>

<g transform="matrix( 1, 0, 0, 1, 0,0) ">
<use xlink:href="#Layer0_2_MEMBER_0_MEMBER_1_FILL"/>
</g>

<g transform="matrix( 0.5625, 0, 0, 0.5625, 0,0) ">
<use xlink:href="#Layer0_2_MEMBER_1_MEMBER_0_FILL"/>
</g>

<g transform="matrix( 1, 0, 0, 1, 0,0) ">
<use xlink:href="#Layer0_2_MEMBER_1_MEMBER_1_FILL"/>
</g>
</g>
</svg>
