
<svg xmlns="http://www.w3.org/2000/svg" version="1.1" xmlns:xlink="http://www.w3.org/1999/xlink" preserveAspectRatio="none" x="0px" y="0px" width="72px" height="72px" viewBox="0 0 72 72">
<defs>
<g id="Layer0_0_MEMBER_0_FILL">
<path fill="#FFA000" stroke="none" d="
M 106 46.15
Q 106 29.8 93.7 18.2 81.4 6.65 64 6.65 46.6 6.65 34.3 18.2 22 29.75 22 46.15 22 62.5 34.3 74.1 46.6 85.65 64 85.65 81.35 85.65 93.7 74.1 106 62.5 106 46.15 Z"/>
</g>

<g id="Layer0_0_MEMBER_1_FILL">
<path fill="#FFA000" stroke="none" d="
M 59.3 38.95
Q 59.65 31.2 59.65 25.35
L 12.4 25.55
Q 12.4 32 12.85 40 13.75 56.05 16.05 63.85
L 56.85 63.7
Q 58.6 54.35 59.3 38.95 Z"/>
</g>

<g id="Layer0_0_MEMBER_2_FILL">
<path fill="#7E57C2" stroke="none" d="
M 92.8 92.55
Q 90.95 97.4 82.1 96.75 70.45 95.05 63.85 95.25
L 63.85 108.8 101.65 108.8 101.65 95.25 96.5 81.4 92.8 92.55 Z"/>
</g>

<g id="Layer0_0_MEMBER_3_FILL">
<path fill="#7E57C2" stroke="none" d="
M 31.25 81.4
L 26.1 95.25 26.1 108.8 63.85 108.8 63.85 95.25
Q 59.95 95.1 54.25 95.75 45.95 96.75 45.65 96.75 36.8 97.4 34.95 92.55
L 31.25 81.4 Z"/>
</g>

<g id="Layer0_0_MEMBER_4_FILL">
<path fill="#7E57C2" stroke="none" d="
M 34.2 100.7
Q 20.4 106.85 20.4 118.1
L 20.4 128 107.55 128 107.55 118.1
Q 107.55 107.35 94.1 101 81.95 95.25 64.3 95.25 46.25 95.3 34.2 100.7 Z"/>
</g>

<g id="Layer0_0_MEMBER_5_FILL">
<path fill="#E59900" stroke="none" d="
M 73 90.25
L 54.85 90.25 54.85 99.85
Q 54.85 103.1 57.25 105.4 59.7 107.7 63.1 107.7
L 64.75 107.7
Q 68.15 107.7 70.6 105.4 73 103.1 73 99.85
L 73 90.25 Z"/>
</g>

<g id="Layer0_0_MEMBER_6_FILL">
<path fill="#FCC21B" stroke="none" d="
M 83.65 86.25
Q 94.6 76.85 94.6 59 94.6 37.15 88.35 26.35 81 13.6 63.85 13.6 46.7 13.6 39.35 26.35 33.15 37.15 33.15 59 33.15 76.85 44.1 86.25 52.65 93.6 63.85 93.6 75.1 93.6 83.65 86.25 Z"/>
</g>

<g id="Layer0_0_MEMBER_7_FILL">
<path fill="#513F35" stroke="none" d="
M 54.75 78.15
Q 53.95 78.15 53.7 78.65 53.45 79.15 53.95 79.9 54.9 81.4 57.3 82.65 60.35 84.25 64 84.25 67.6 84.25 70.65 82.65 73.05 81.35 74 79.9 74.5 79.15 74.25 78.65 74 78.15 73.2 78.15
L 54.75 78.15 Z"/>
</g>

<g id="Layer0_0_MEMBER_8_FILL">
<path fill="#E59600" stroke="none" d="
M 63.9 73.8
Q 65.7 73.8 67.3 72.8 68.55 72 69.05 71.15 69.25 70.8 69.05 70.5 68.85 70.15 68.4 70.3 66.1 70.95 63.9 70.95 61.75 70.95 59.45 70.3 59 70.15 58.75 70.5 58.55 70.85 58.75 71.15 59.25 72 60.5 72.8 62.1 73.8 63.9 73.8 Z"/>
</g>

<g id="Layer0_0_MEMBER_9_FILL">
<path fill="#FFA000" stroke="none" d="
M 96.55 26.6
Q 94.2 21.75 88.95 16.9 78.45 7.2 64.1 7.2 49.8 7.2 38.35 16.7 32.6 21.4 29.75 26.15
L 29.75 56
Q 45.05 53.6 59.2 45 67.05 40.2 73.05 34.45 73.3 34.25 73.6 34.3 73.9 34.35 74 34.65 78.7 44.3 89 51 94.15 54.35 98.35 55.8
L 96.55 26.6 Z"/>
</g>

<g id="Layer0_0_MEMBER_10_FILL">
<path fill="#FCC21B" stroke="none" d="
M 97.15 14.5
Q 93.35 10.25 85.15 7.15 79.55 5 76.65 4.3 73.85 3.65 70.55 3.6 67.5 3.6 68.05 5.2 68.7 7.4 72 7.6 74.65 7.8 77.05 8.85 78.25 9.35 81.95 11.4 82.85 11.85 84.4 14.4 86 17.15 86.85 17.75 88.8 19.15 90.55 21.7 93.1 25.4 93.9 30.1 94.2 31.9 98.85 30.85 103.6 29.8 103.65 26.9 103.65 25.5 102.15 22.2 100.2 17.85 97.15 14.5 Z"/>
</g>

<g id="Layer0_0_MEMBER_11_FILL">
<path fill="#7E57C2" stroke="none" d="
M 90 21.55
Q 88.4 22.4 89 24.45
L 98.15 57.3
Q 99.25 61.25 98.6 64.75
L 85.15 128 109.2 128
Q 111.7248046875 121.815625 113.7 111.65
L 123.1 64.65 123.1 64.55
Q 123.4 60.55 121.4 56.25
L 102.8 17.2
Q 102.45 16.4 101.6 16.05 100.7 15.65 99.9 16.05
L 90 21.55 Z"/>
</g>

<g id="Layer0_0_MEMBER_12_FILL">
<path fill="#FCC21B" stroke="none" d="
M 51.1 4.3
Q 48.15 5 42.55 7.15 34.45 10.2 30.6 14.5 27.55 17.9 25.6 22.2 24.05 25.55 24.1 26.9 24.15 29.8 28.9 30.85 33.55 31.9 33.85 30.1 34.65 25.4 37.15 21.7 38.9 19.1 40.85 17.75 41.75 17.15 43.35 14.4 44.9 11.85 45.8 11.4 49.35 9.4 50.65 8.85 53.1 7.8 55.75 7.6 58.95 7.4 59.7 5.2 60.15 3.6 57.15 3.6 53.85 3.65 51.1 4.3 Z"/>
</g>

<g id="Layer0_0_MEMBER_13_FILL">
<path fill="#7E57C2" stroke="none" d="
M 38.75 24.45
Q 39.25 22.4 37.7 21.55
L 27.85 16.05
Q 27.05 15.65 26.15 16.05 25.25 16.4 24.95 17.2
L 6.35 56.25
Q 4.3 60.5 4.6 64.55
L 4.6 64.65 14 111.65
Q 15.9751953125 121.815625 18.5 128
L 42.6 128 29.1 64.75
Q 28.45 61.2 29.6 57.3
L 38.75 24.45 Z"/>
</g>

<g id="Layer0_0_MEMBER_14_MEMBER_0_FILL">
<path fill="#444444" stroke="none" d="
M 52.25 64.4
Q 53.5 62.9 53.5 60.75 53.5 58.6 52.25 57.1 50.95 55.6 49.2 55.6 47.45 55.6 46.2 57.1 44.95 58.6 44.95 60.75 44.95 62.9 46.2 64.4 47.45 65.9 49.2 65.9 50.95 65.9 52.25 64.4 Z"/>
</g>

<g id="Layer0_0_MEMBER_14_MEMBER_1_FILL">
<path fill="#444444" stroke="none" d="
M 81.75 64.4
Q 83 62.9 83 60.75 83 58.6 81.75 57.1 80.5 55.6 78.75 55.6 77 55.6 75.7 57.1 74.45 58.6 74.45 60.75 74.45 62.9 75.7 64.4 76.95 65.9 78.75 65.9 80.5 65.9 81.75 64.4 Z"/>
</g>
</defs>

<g id="Layer_1">
<g transform="matrix( 0.5625, 0, 0, 0.5625, 0,0) ">
<use xlink:href="#Layer0_0_MEMBER_0_FILL"/>
</g>

<g transform="matrix( 1, 0, 0, 1, 0,0) ">
<use xlink:href="#Layer0_0_MEMBER_1_FILL"/>
</g>

<g transform="matrix( 0.5625, 0, 0, 0.5625, 0,0) ">
<use xlink:href="#Layer0_0_MEMBER_2_FILL"/>
</g>

<g transform="matrix( 0.5625, 0, 0, 0.5625, 0,0) ">
<use xlink:href="#Layer0_0_MEMBER_3_FILL"/>
</g>

<g transform="matrix( 0.5625, 0, 0, 0.5625, 0,0) ">
<use xlink:href="#Layer0_0_MEMBER_4_FILL"/>
</g>

<g transform="matrix( 0.5625, 0, 0, 0.5625, 0,0) ">
<use xlink:href="#Layer0_0_MEMBER_5_FILL"/>
</g>

<g transform="matrix( 0.5625, 0, 0, 0.5625, 0,0) ">
<use xlink:href="#Layer0_0_MEMBER_6_FILL"/>
</g>

<g transform="matrix( 0.5625, 0, 0, 0.5625, 0,0) ">
<use xlink:href="#Layer0_0_MEMBER_7_FILL"/>
</g>

<g transform="matrix( 0.5625, 0, 0, 0.5625, 0,0) ">
<use xlink:href="#Layer0_0_MEMBER_8_FILL"/>
</g>

<g transform="matrix( 0.5625, 0, 0, 0.5625, 0,0) ">
<use xlink:href="#Layer0_0_MEMBER_9_FILL"/>
</g>

<g transform="matrix( 0.5625, 0, 0, 0.5625, 0,0) ">
<use xlink:href="#Layer0_0_MEMBER_10_FILL"/>
</g>

<g transform="matrix( 0.5625, 0, 0, 0.5625, 0,0) ">
<use xlink:href="#Layer0_0_MEMBER_11_FILL"/>
</g>

<g transform="matrix( 0.5625, 0, 0, 0.5625, 0,0) ">
<use xlink:href="#Layer0_0_MEMBER_12_FILL"/>
</g>

<g transform="matrix( 0.5625, 0, 0, 0.5625, 0,0) ">
<use xlink:href="#Layer0_0_MEMBER_13_FILL"/>
</g>

<g transform="matrix( 0.5625, 0, 0, 0.5625, 0,0) ">
<use xlink:href="#Layer0_0_MEMBER_14_MEMBER_0_FILL"/>
</g>

<g transform="matrix( 0.5625, 0, 0, 0.5625, 0,0) ">
<use xlink:href="#Layer0_0_MEMBER_14_MEMBER_1_FILL"/>
</g>
</g>
</svg>
