
<svg xmlns="http://www.w3.org/2000/svg" version="1.1" xmlns:xlink="http://www.w3.org/1999/xlink" preserveAspectRatio="none" x="0px" y="0px" width="72px" height="72px" viewBox="0 0 72 72">
<defs>
<g id="Layer0_0_MEMBER_0_MEMBER_0_FILL">
<path fill="#FFA000" stroke="none" d="
M 93.7 86.95
Q 106 76.35 106 61.3 106 46.25 93.7 35.65 81.35 25 64 25 46.6 25 34.3 35.65 22 46.25 22 61.3 22 76.35 34.3 86.95 46.6 97.6 64 97.6 81.35 97.6 93.7 86.95 Z"/>
</g>

<g id="Layer0_0_MEMBER_1_FILL">
<path fill="#FFA000" stroke="none" d="
M 105.4 82.45
L 106 60.3 22 60.65 22.8 84.25
Q 24.45 110.4 28.5 123.2
L 101.1 122.95
Q 104.15 107.65 105.4 82.45 Z"/>
</g>

<g id="Layer0_0_MEMBER_2_FILL">
<path fill="#7E57C2" stroke="none" d="
M 113.05 95.95
Q 104.15 86.75 85.1 82.75 74.8 80.55 64.5 80.3
L 63.95 80.3
Q 53.6 80.55 43.3 82.75 24.3 86.75 15.4 95.95 8.65 102.9 7.8 110.65 7.2 116.4 9.5 119.75 12 123.3 18.4 126 21.55 127.35 24.25 128
L 104.15 128 110.05 126
Q 116.4 123.3 118.9 119.75 121.25 116.45 120.6 110.65 119.75 102.9 113.05 95.95 Z"/>
</g>

<g id="Layer0_0_MEMBER_3_FILL">
<path fill="#000000" fill-opacity="0.2" stroke="none" d="
M 57.55 2.25
Q 52.7 0.7 45.45 0.2 41.5 -0.1 37.25 0 24.75 -0.25 17 2.25 7.5 5.35 2.8 9.7 0.45 11.85 0 13.4
L 23.7 31.05 50.9 31.05 74.55 13.4
Q 74.1 11.85 71.75 9.65 67.05 5.3 57.55 2.25 Z"/>
</g>

<g id="Layer0_0_MEMBER_4_FILL">
<path fill="#E59900" stroke="none" d="
M 72.65 90.95
L 55.2 90.95 55.2 100.2
Q 55.2 103.3 57.55 105.55 59.85 107.75 63.15 107.75
L 64.75 107.75
Q 68 107.75 70.35 105.55 72.65 103.3 72.65 100.2
L 72.65 90.95 Z"/>
</g>

<g id="Layer0_0_MEMBER_5_FILL">
<path fill="#FCC21B" stroke="none" d="
M 83.65 98.15
Q 94.6 89.5 94.6 73.1 94.6 53.05 88.35 43.1 81 31.4 63.85 31.4 46.7 31.4 39.35 43.1 33.15 53.05 33.15 73.1 33.15 89.5 44.1 98.15 52.65 104.9 63.85 104.9 75.1 104.9 83.65 98.15 Z"/>
</g>

<g id="Layer0_0_MEMBER_6_FILL">
<path fill="#FFA000" stroke="none" d="
M 96.55 43.35
Q 94.15 38.9 88.9 34.45 78.4 25.5 64.1 25.5 49.8 25.5 39.3 34.25 34.05 38.6 31.65 42.95
L 31.65 70.2
Q 45.75 67.95 59.4 60.15 67.25 55.65 73.05 50.55 73.3 50.35 73.6 50.45 73.9 50.5 74 50.75 78.7 59.6 88.1 65.8 92.8 68.9 96.55 70.2
L 96.55 43.35 Z"/>
</g>

<g id="Layer0_0_MEMBER_7_FILL">
<path fill="#444444" stroke="none" d="
M 54 77.9
Q 54 75.85 52.8 74.4 51.65 72.95 49.95 72.95 48.25 72.95 47.05 74.4 45.85 75.85 45.85 77.9 45.85 79.95 47.05 81.4 48.25 82.85 49.95 82.85 51.65 82.85 52.8 81.4 54 79.95 54 77.9 Z"/>
</g>

<g id="Layer0_0_MEMBER_8_FILL">
<path fill="#444444" stroke="none" d="
M 82.4 77.9
Q 82.4 75.85 81.2 74.4 80 72.95 78.3 72.95 76.6 72.95 75.4 74.4 74.2 75.85 74.2 77.9 74.2 79.95 75.4 81.4 76.6 82.85 78.3 82.85 80 82.85 81.2 81.4 82.4 79.95 82.4 77.9 Z"/>
</g>

<g id="Layer0_0_MEMBER_9_FILL">
<path fill="#E59600" stroke="none" d="
M 59.85 89
Q 59.4 88.85 59.2 89.2 59 89.5 59.15 89.85 59.65 90.65 60.9 91.4 62.45 92.35 64.1 92.35 65.8 92.35 67.35 91.4 68.6 90.65 69.05 89.85 69.25 89.5 69.05 89.2 68.85 88.85 68.4 89 66.25 89.65 64.1 89.65 62 89.65 59.85 89 Z"/>
</g>

<g id="Layer0_0_MEMBER_11_MEMBER_0_MEMBER_0_FILL">
<path fill="#FCC21B" stroke="none" d="
M 61.05 128
Q 62.05 128 62.75 127.3 63.45 126.6 63.45 125.6 63.45 124.8 62.95 124.15 62.45 123.5 61.65 123.3 59.1 122.65 53.45 120.85 46.05 118.4 45.8 118.35 44 117.8 42.25 117.8
L 36.9 117.45 33.75 128 61.05 128 Z"/>
</g>

<g id="Layer0_0_MEMBER_11_MEMBER_1_MEMBER_0_FILL">
<path fill="#FCC21B" stroke="none" d="
M 65.2 127.3
Q 65.9 128 66.9 128
L 94.25 128 91.1 117.45 85.75 117.8
Q 83.95 117.8 82.15 118.35 70.6 122.2 66.3 123.3 65.5 123.5 65 124.15 64.5 124.8 64.5 125.6 64.5 126.6 65.2 127.3 Z"/>
</g>

<g id="Layer0_0_MEMBER_12_MEMBER_0_FILL">
<path fill="#7E57C2" stroke="none" d="
M 23.85 104.05
L 24.25 128 34.25 128 39.5 116.4
Q 39.75 115.75 39.55 115.1 39.35 114.4 38.8 114
L 23.85 104.05 Z"/>
</g>

<g id="Layer0_0_MEMBER_12_MEMBER_1_FILL">
<path fill="#7E57C2" stroke="none" d="
M 104.15 128
L 104.9 103.45 89.15 114
Q 88.6 114.4 88.4 115.1 88.2 115.75 88.5 116.4
L 93.7 128 104.15 128 Z"/>
</g>

<path id="Layer0_0_MEMBER_10_MEMBER_0_1_STROKES" stroke="#444444" stroke-width="2" stroke-linejoin="miter" stroke-linecap="round" stroke-miterlimit="10" fill="none" d="
M 29.559375 10.6875
L 28.040625000000002 5.0062500000000005"/>

<path id="Layer0_0_MEMBER_10_MEMBER_1_1_STROKES" stroke="#444444" stroke-width="2" stroke-linejoin="miter" stroke-linecap="round" stroke-miterlimit="10" fill="none" d="
M 21.178124999999998 14.878124999999999
L 17.015625 10.715625000000001"/>

<path id="Layer0_0_MEMBER_10_MEMBER_2_1_STROKES" stroke="#444444" stroke-width="2" stroke-linejoin="miter" stroke-linecap="round" stroke-miterlimit="10" fill="none" d="
M 50.793749999999996 14.878124999999999
L 54.928125 10.715625000000001"/>

<path id="Layer0_0_MEMBER_10_MEMBER_3_1_STROKES" stroke="#444444" stroke-width="2" stroke-linejoin="miter" stroke-linecap="round" stroke-miterlimit="10" fill="none" d="
M 42.4125 10.6875
L 43.93125 5.0062500000000005"/>
</defs>

<g id="Layer_1">
<g transform="matrix( 0.5625, 0, 0, 0.5625, 0,0) ">
<use xlink:href="#Layer0_0_MEMBER_0_MEMBER_0_FILL"/>
</g>

<g transform="matrix( 0.5625, 0, 0, 0.5625, 0,0) ">
<use xlink:href="#Layer0_0_MEMBER_1_FILL"/>
</g>

<g transform="matrix( 0.5625, 0, 0, 0.5625, 0,0) ">
<use xlink:href="#Layer0_0_MEMBER_2_FILL"/>
</g>

<g transform="matrix( 0.5625, 0, 0, 0.5625, 15,54.5) ">
<use xlink:href="#Layer0_0_MEMBER_3_FILL"/>
</g>

<g transform="matrix( 0.5625, 0, 0, 0.5625, 0,0) ">
<use xlink:href="#Layer0_0_MEMBER_4_FILL"/>
</g>

<g transform="matrix( 0.5625, 0, 0, 0.5625, 0,0) ">
<use xlink:href="#Layer0_0_MEMBER_5_FILL"/>
</g>

<g transform="matrix( 0.5625, 0, 0, 0.5625, 0,0) ">
<use xlink:href="#Layer0_0_MEMBER_6_FILL"/>
</g>

<g transform="matrix( 0.5625, 0, 0, 0.5625, 0,0) ">
<use xlink:href="#Layer0_0_MEMBER_7_FILL"/>
</g>

<g transform="matrix( 0.5625, 0, 0, 0.5625, 0,0) ">
<use xlink:href="#Layer0_0_MEMBER_8_FILL"/>
</g>

<g transform="matrix( 0.5625, 0, 0, 0.5625, 0,0) ">
<use xlink:href="#Layer0_0_MEMBER_9_FILL"/>
</g>

<g transform="matrix( 0.5625, 0, 0, 0.5625, 0,0) ">
<use xlink:href="#Layer0_0_MEMBER_10_MEMBER_0_1_STROKES" transform="matrix( 1.77777099609375, 0, 0, 1.77777099609375, 0,0) "/>
</g>

<g transform="matrix( 0.5625, 0, 0, 0.5625, 0,0) ">
<use xlink:href="#Layer0_0_MEMBER_10_MEMBER_1_1_STROKES" transform="matrix( 1.77777099609375, 0, 0, 1.77777099609375, 0,0) "/>
</g>

<g transform="matrix( 0.5625, 0, 0, 0.5625, 0,0) ">
<use xlink:href="#Layer0_0_MEMBER_10_MEMBER_2_1_STROKES" transform="matrix( 1.77777099609375, 0, 0, 1.77777099609375, 0,0) "/>
</g>

<g transform="matrix( 0.5625, 0, 0, 0.5625, 0,0) ">
<use xlink:href="#Layer0_0_MEMBER_10_MEMBER_3_1_STROKES" transform="matrix( 1.77777099609375, 0, 0, 1.77777099609375, 0,0) "/>
</g>

<g transform="matrix( 0.5625, 0, 0, 0.5625, 0,0) ">
<use xlink:href="#Layer0_0_MEMBER_11_MEMBER_0_MEMBER_0_FILL"/>
</g>

<g transform="matrix( 0.5625, 0, 0, 0.5625, 0,0) ">
<use xlink:href="#Layer0_0_MEMBER_11_MEMBER_1_MEMBER_0_FILL"/>
</g>

<g transform="matrix( 0.5625, 0, 0, 0.5625, 0,0) ">
<use xlink:href="#Layer0_0_MEMBER_12_MEMBER_0_FILL"/>
</g>

<g transform="matrix( 0.5625, 0, 0, 0.5625, 0,0) ">
<use xlink:href="#Layer0_0_MEMBER_12_MEMBER_1_FILL"/>
</g>
</g>
</svg>
