
<svg xmlns="http://www.w3.org/2000/svg" version="1.1" xmlns:xlink="http://www.w3.org/1999/xlink" preserveAspectRatio="none" x="0px" y="0px" width="72px" height="72px" viewBox="0 0 72 72">
<defs>
<g id="Layer0_0_MEMBER_0_FILL">
<path fill="#ED6C30" stroke="none" d="
M 14.6 48.6
Q 18.20234375 43.741015625 21.8 46 16.398046875 42.0986328125 11 49.4 7.341796875 54.222265625 7.1 60.9 7.1453125 61.39921875 7.15 61.8 7.260546875 62.7341796875 7.6 63.3 8.2474609375 64.151953125 9.85 64.3 10.18984375 64.3 10.5 64.3 17.2908203125 64.1181640625 22.15 60.45 29.896875 54.709765625 24.15 48.2 27.5505859375 52.4814453125 22.4 56.3 19 58.85 14.3 59 14.05 59 13.8 59 12.7 58.9 12.25 58.35 12 57.9 11.95 57.3 11.95 56.95 11.95 56.6 12.1 51.95 14.6 48.6 Z"/>

<path fill="#F79329" stroke="none" d="
M 23.2 47.15
Q 22.50234375 46.4443359375 21.8 46 18.20234375 43.741015625 14.6 48.6 12.1 51.95 11.95 56.6 11.95 56.95 11.95 57.3 12 57.9 12.25 58.35 12.7 58.9 13.8 59 14.05 59 14.3 59 19 58.85 22.4 56.3 27.5505859375 52.4814453125 24.15 48.2 23.759765625 47.69296875 23.2 47.15 Z"/>
</g>

<g id="Layer0_0_MEMBER_1_MEMBER_0_FILL">
<path fill="#40C0E7" stroke="none" d="
M 60.45 85.05
Q 59.75 85.35 58.65 86.5 58.05 86.85 56.75 87.25 56.35 87.5 55.6 88.15 55.3 88.35 54.6 88.6 53.6 89.2 53.3 89.5 52.65 90.15 52.9 90.9
L 52.9 90.95 52.65 91.15
Q 52.35 91.4 51.7 91.7 49.65 92.9 50.1 94.05
L 50.5 95.3
Q 51.5 99.1 54.6 108.45 55.3 110.55 57.35 117.95
L 58.45 122.25
Q 58.7 123.25 59.5 122.9 59.9 122.7 60.85 121.85 61.65 121.15 63.45 120.05 65.65 118.6 67.2 117.2 67.95 116.55 68.5 115.75 68.55 115.7 68.55 115.05
L 68.75 114.9
Q 69.5 114.3 70.1 113.55 70.2 113.4 70.2 113.1 70.2 112.75 70.25 112.65 70.4 112.15 70.4 111.7
L 70.15 109.2
Q 69.45 101.95 69.1 98.15 68.45 91.3 68.35 86.3
L 68.35 84.25
Q 68.4 83.25 68.4 82.55 68.35 81.3 68 81 67.75 80.85 67 81.6 66.05 82.6 64.85 83.25
L 64.1 83.55
Q 61.7 84.5 60.45 85.05 Z"/>
</g>

<g id="Layer0_0_MEMBER_1_MEMBER_1_FILL">
<path fill="#40C0E7" stroke="none" d="
M 66.9 118.8
Q 69.6 116.15 71.35 114.4 74.5 111.1 75.9 109.25 77 107.75 77.2 107 77.5 105.95 76.7 104.85 76.1 104 74.75 104.3 73.5 104.6 72 105.75 67.5 109.15 61.85 114.3 61.5 114.6 58.35 117.75 53.15 123.15 55.45 125.35 56.55 126.4 58.2 125.8 59.15 125.45 60.75 124.25 63.8 121.85 66.9 118.8 Z"/>
</g>

<g id="Layer0_0_MEMBER_2_MEMBER_0_FILL">
<path fill="#40C0E7" stroke="none" d="
M 40.25 58.65
Q 35.2 58.55 28.4 57.95 20.9 57.2 17.3 56.9
L 14.8 56.65
Q 14.45 56.65 13.9 56.8 13.25 56.75 12.95 56.95 12.3 57.45 11.65 58.3
L 11.5 58.5
Q 11 58.4 10.75 58.55 9.95 59.15 9.35 59.85 8.1 61.15 6.5 63.6 5.4 65.4 4.7 66.2 3.8 67.1 3.6 67.55 3.25 68.35 4.3 68.6
L 8.55 69.7
Q 16.05 71.75 18.1 72.45 20.25 73.15 24.6 74.6 28.4 75.85 31.2 76.55
L 32.45 76.95
Q 33.15 77.25 33.85 76.65 34.15 76.4 34.8 75.4 35.1 74.7 35.35 74.4
L 35.55 74.15 35.6 74.15
Q 36.35 74.4 37 73.75 37.3 73.45 37.9 72.45
L 38.4 71.45
Q 39 70.7 39.25 70.25 39.45 69.95 39.65 69.35 39.9 68.65 40.05 68.4 40.2 68.1 40.8 67.5 41.3 66.95 41.45 66.55 42.4 64.1 42.95 62.9 43.15 62.7 43.15 62.55
L 43.3 62.15
Q 43.95 60.9 44.9 60.05 45.75 59.4 45.5 59.05 45.2 58.7 43.95 58.65 42.6 58.7 42.3 58.7
L 40.25 58.65 Z"/>
</g>

<g id="Layer0_0_MEMBER_2_MEMBER_1_FILL">
<path fill="#40C0E7" stroke="none" d="
M 22.2 52.35
Q 22.5 50.9 21.65 50.35 20.55 49.6 19.5 49.85 18.7 50.05 17.25 51.15 15.1 52.75 7.7 60.15 4.65 63.25 2.25 66.3 1.1 67.85 0.75 68.85 0.15 70.55 1.15 71.65 3.3 73.95 8.75 68.7
L 12.2 65.25
Q 17.1 59.8 20.75 55.05 21.9 53.5 22.2 52.35 Z"/>
</g>

<g id="Layer0_0_MEMBER_3_MEMBER_0_FILL">
<path fill="#ED6C30" stroke="none" d="
M 124.4 9.7
Q 128.3 6.4 127.25 4.75 126.95 4.2 126 4.05 125.1 3.95 124.35 4.25 123.6 4.55 122.7 5.4 121.65 6.4 121.15 6.85 119.65 8.2 117.75 9.7 116.7 10.75 116.15 11.25
L 105.25 21
Q 104.3 21.85 104.15 23.05 104 24.2 104.75 24.95 105.45 25.7 106.65 25.6 107.85 25.5 108.8 24.65 110.35 23.2 117.75 16.05 123 10.9 124.4 9.7 Z"/>
</g>

<g id="Layer0_0_MEMBER_3_MEMBER_1_MEMBER_0_FILL">
<path fill="#E0E0E0" stroke="none" d="
M 107.4 10.05
Q 102.25 10.1 95.25 11.6 89.8 12.95 83.8 15.35 78.95 17.5 75 19.65 72.4 21.15 68.8 23.55 63.7 27.15 60 30.45 41.15 47.1 29 73.55
L 28.65 74.3
Q 27.75 77.3 29.3 81.35 31 85.55 34.75 89.4 38.5 93.2 42.7 94.95 46.8 96.65 49.8 95.85
L 51.1 95.45
Q 52.4 94.75 54.7 93.85 57.55 92.7 58.3 92.35 76.15 84.1 89.35 72.9 104.05 60.5 112.05 45.1 114.2 41.15 115.75 36.5 118.9 27.05 118.45 18.9 118.35 16.6 117.4 14.65 116.45 12.5 114.75 11.6 112.3 9.95 107.4 10.05 Z"/>
</g>

<g id="Layer0_0_MEMBER_3_MEMBER_2_MEMBER_0_FILL">
<path fill="#2F2F2F" stroke="none" d="
M 90.2 33.6
Q 88.1 33.55 86.55 35 85 36.45 84.9 38.6 84.85 40.7 86.3 42.25 87.75 43.8 89.9 43.9 92 43.95 93.55 42.5 95.1 41.05 95.2 38.9 95.25 36.8 93.8 35.2 92.35 33.65 90.2 33.6 Z"/>
</g>

<g id="Layer0_0_MEMBER_3_MEMBER_2_MEMBER_1_FILL">
<path fill="#40C0E7" stroke="none" d="
M 93 34.25
Q 89.8 30.85 85.1 30.7 80.45 30.6 77.05 33.8 73.65 37 73.45 41.7 73.35 46.3 76.5 49.75 79.7 53.15 84.4 53.35 89.05 53.45 92.45 50.3 95.85 47.1 96.05 42.35 96.2 37.75 93 34.25 Z"/>
</g>

<g id="Layer0_0_MEMBER_3_MEMBER_3_FILL">
<path fill="#ED6C30" stroke="none" d="
M 66 17.35
Q 66.8 13.8 66.65 10.55 66.55 9.25 66.05 8.15 65.5 6.95 64.55 6.45 63.15 5.55 60.4 5.6 57.5 5.6 53.6 6.45 53.55 6.45 53.55 6.5 53.85 7.15 54.2 7.75 54.55 8.35 54.85 8.9 55.25 9.6 56.05 10.5 56.5 11 57.4 12 58.6 13.5 61.35 15.35 63.4 16.7 64.3 17 65.05 17.25 66 17.35 Z"/>
</g>

<g id="Layer0_0_MEMBER_4_FILL">
<path fill="#40C0E7" stroke="none" d="
M 33.05 87.95
Q 32.7 88.25 29.55 91.4 24.35 96.8 26.65 99 28.4 100.7 32 97.9 35 95.5 38.1 92.45 45 85.75 47.1 82.9 48.2 81.4 48.4 80.65 48.7 79.6 47.95 78.5 47.3 77.65 45.95 77.95 44.95 78.15 43.2 79.4 38.05 83.25 33.05 87.95 Z"/>
</g>
</defs>

<g id="Layer_1">
<g transform="matrix( 1.284271240234375, 0, 0, 1.284271240234375, -6.3,-14.2) ">
<use xlink:href="#Layer0_0_MEMBER_0_FILL"/>
</g>

<g transform="matrix( 0.5625, 0, 0, 0.5625, -2.1,-1.25) ">
<use xlink:href="#Layer0_0_MEMBER_1_MEMBER_0_FILL"/>
</g>

<g transform="matrix( 0.5625, 0, 0, 0.5625, -2.1,-1.25) ">
<use xlink:href="#Layer0_0_MEMBER_1_MEMBER_1_FILL"/>
</g>

<g transform="matrix( 0.5625, 0, 0, 0.5625, 1.2,2.05) ">
<use xlink:href="#Layer0_0_MEMBER_2_MEMBER_0_FILL"/>
</g>

<g transform="matrix( 0.5625, 0, 0, 0.5625, 1.2,2.05) ">
<use xlink:href="#Layer0_0_MEMBER_2_MEMBER_1_FILL"/>
</g>

<g transform="matrix( 0.5625, 0, 0, 0.5625, -1.2,0.1) ">
<use xlink:href="#Layer0_0_MEMBER_3_MEMBER_0_FILL"/>
</g>

<g transform="matrix( 0.5625, 0, 0, 0.5625, -0.45,0.4) ">
<use xlink:href="#Layer0_0_MEMBER_3_MEMBER_1_MEMBER_0_FILL"/>
</g>

<g transform="matrix( 1.7202606201171875, 0, 0, 1.7202606201171875, -111.1,-39.2) ">
<use xlink:href="#Layer0_0_MEMBER_3_MEMBER_2_MEMBER_0_FILL"/>
</g>

<g transform="matrix( 0.5625, 0, 0, 0.5625, -3.8,3.75) ">
<use xlink:href="#Layer0_0_MEMBER_3_MEMBER_2_MEMBER_1_FILL"/>
</g>

<g transform="matrix( 1, 0, 0, 1, -0.45,0.4) ">
<use xlink:href="#Layer0_0_MEMBER_3_MEMBER_3_FILL"/>
</g>

<g transform="matrix( 0.5625, 0, 0, 0.5625, -0.45,0.4) ">
<use xlink:href="#Layer0_0_MEMBER_4_FILL"/>
</g>
</g>
</svg>
