
<svg xmlns="http://www.w3.org/2000/svg" version="1.1" xmlns:xlink="http://www.w3.org/1999/xlink" preserveAspectRatio="none" x="0px" y="0px" width="72px" height="72px" viewBox="0 0 72 72">
<defs>
<g id="Layer0_0_MEMBER_0_FILL">
<path fill="#2F2F2F" stroke="none" d="
M 26.15 97.2
Q 22.05 93.1 16.25 93.1 10.5 93.1 6.35 97.2 2.25 101.35 2.25 107.1 2.25 112.9 6.35 117 10.45 121.1 16.25 121.1 22.05 121.1 26.15 117 30.25 112.9 30.25 107.1 30.25 101.3 26.15 97.2 Z"/>
</g>

<g id="Layer0_0_MEMBER_1_FILL">
<path fill="#65878D" stroke="none" d="
M 24 107.1
Q 24 103.9 21.75 101.7 19.5 99.45 16.25 99.45 13.05 99.45 10.8 101.7 8.55 103.9 8.55 107.1 8.55 110.3 10.8 112.55 13.05 114.8 16.25 114.8 19.5 114.8 21.75 112.55 24 110.3 24 107.1 Z"/>
</g>

<g id="Layer0_0_MEMBER_2_FILL">
<path fill="#2F2F2F" stroke="none" d="
M 121.3 97.2
Q 117.2 93.1 111.4 93.1 105.6 93.1 101.5 97.2 97.4 101.3 97.4 107.1 97.4 112.9 101.5 117 105.6 121.1 111.4 121.1 117.2 121.1 121.3 117 125.4 112.9 125.4 107.1 125.4 101.35 121.3 97.2 Z"/>
</g>

<g id="Layer0_0_MEMBER_3_FILL">
<path fill="#65878D" stroke="none" d="
M 116.8 101.7
Q 114.6 99.45 111.4 99.45 108.2 99.45 105.95 101.7 103.7 103.9 103.7 107.1 103.7 110.35 105.95 112.55 108.2 114.8 111.4 114.8 114.6 114.8 116.8 112.55 119.05 110.3 119.05 107.1 119.05 103.9 116.8 101.7 Z"/>
</g>

<g id="Layer0_0_MEMBER_4_FILL">
<path fill="#ED6C30" stroke="none" d="
M 76.9 98.95
L 39.5 98.95
Q 38.7 98.95 38.1 99.55 37.5 100.15 37.5 100.95
L 37.5 103.1
Q 37.5 103.95 38.1 104.5 38.7 105.1 39.5 105.1
L 77 105.1
Q 77.8 105.1 78.4 104.5 79 103.9 79 103.1
L 79 100.95
Q 78.95 100.1 78.35 99.55 77.7 98.95 76.9 98.95 Z"/>
</g>

<g id="Layer0_0_MEMBER_5_MEMBER_0_FILL">
<path fill="#FCC21B" stroke="none" d="
M 36.55 104.4
Q 35.3 104.4 34.4 105.25 33.5 106.1 33.5 107.3 33.5 108.5 34.4 109.35 35.3 110.2 36.55 110.2
L 110.5 110.2
Q 111.75 110.2 112.65 109.35 113.55 108.5 113.55 107.3 113.55 106.1 112.65 105.25 111.75 104.4 110.5 104.4
L 36.55 104.4 Z"/>
</g>

<g id="Layer0_0_MEMBER_5_MEMBER_1_FILL">
<path fill="#FCC21B" stroke="none" d="
M 34.05 109.85
Q 35.05 110.85 36.55 110.85
L 110.5 110.85
Q 112 110.85 113.05 109.85 114.05 108.9 114.05 107.45 114.05 106 113 105 111.95 104 110.5 104
L 36.55 104
Q 35.05 104 34.05 105 33 106 33 107.45 33 108.9 34.05 109.85
M 34.75 105.7
Q 35.55 105 36.55 105
L 110.5 105
Q 111.55 105 112.3 105.7 113.05 106.45 113.05 107.45 113.05 108.45 112.3 109.15 111.55 109.85 110.5 109.85
L 36.55 109.85
Q 35.5 109.85 34.75 109.15 34 108.45 34 107.45 34 106.45 34.75 105.7 Z"/>
</g>

<g id="Layer0_0_MEMBER_6_FILL">
<path fill="#2F2F2F" stroke="none" d="
M 23.3 77.7
L 18.7 77 13.8 106.5
Q 13.65 107.5 14.25 108.3 14.8 109.05 15.7 109.2 16.65 109.35 17.45 108.8 18.25 108.2 18.4 107.3
L 23.3 77.7 Z"/>
</g>

<g id="Layer0_0_MEMBER_7_MEMBER_0_FILL">
<path fill="#FCC21B" stroke="none" d="
M 33.4 90.6
Q 26.8 83.6 17.25 82.85
L 16.75 82.85
Q 15.5 82.95 14.65 83.85 13.8 84.8 13.8 86.05 13.8 87.4 14.75 88.35 15.7 89.25 17 89.25
L 17.1 89.25
Q 24 89.8 28.7 94.8 33.45 99.85 33.5 106.85
L 33.5 107
Q 33.5 108.35 34.45 109.3 35.35 110.2 36.7 110.2 37.85 110.2 38.75 109.45 39.65 108.75 39.9 107.6
L 40 107.6 40 107.1
Q 40 97.6 33.4 90.6 Z"/>
</g>

<g id="Layer0_0_MEMBER_7_MEMBER_1_FILL">
<path fill="#FCC21B" stroke="none" d="
M 14.2 83.7
Q 13.35 84.7 13.35 86 13.35 87.25 14.15 88.25 14.9 89.2 16.1 89.6
L 16.35 89.6 17 89.7
Q 23.7 90.2 28.3 95.15 32.8 100 33 106.8
L 33 107
Q 33 108.5 34.1 109.6 35.2 110.7 36.7 110.7 37.95 110.7 38.9 109.95 39.85 109.25 40.2 108.1
L 40.4 108.1 40.4 107.1
Q 40.4 97.35 33.75 90.15 27.05 83 17.3 82.3
L 16.35 82.35 16.35 82.45
Q 15.05 82.7 14.2 83.7
M 17 83.45
L 17.25 83.45
Q 26.6 84.15 33 90.95 39.4 97.8 39.4 107.2 39.4 108.25 38.6 109.05 37.8 109.8 36.7 109.8 35.6 109.8 34.8 109 34 108.25 34 107.1
L 34 106.95
Q 33.95 99.85 29.05 94.65 24.15 89.45 17.1 88.85
L 17 88.85
Q 15.9 88.85 15.1 88.05 14.3 87.3 14.3 86.15 14.3 85.05 15.1 84.25 15.9 83.45 17 83.45 Z"/>
</g>

<g id="Layer0_0_MEMBER_8_FILL">
<path fill="#FCC21B" stroke="none" d="
M 110.3 90.7
Q 114.85 90.55 118.3 91.6 120.05 92 120.9 91.75 121.85 91.45 122.4 90.1 123 88.75 122.55 87.35 122.05 85.9 120.8 85.3 117.05 83.5 110.3 83.5 100.9 83.85 94.45 90.5 88 97.15 88 106.6
L 88 107.6 94.8 107.6 94.8 106.6
Q 94.8 100.05 99.35 95.45 103.8 90.95 110.3 90.7 Z"/>
</g>

<g id="Layer0_0_MEMBER_9_MEMBER_0_FILL">
<path fill="#2F2F2F" stroke="none" d="
M 34.7 11.5
Q 34.85 10.55 34.25 9.75 33.7 8.95 32.7 8.85 31.7 8.6 30.9 9.15 30.15 9.7 30 10.7
L 21.4 62.15 26.1 62.75 34.7 11.5 Z"/>
</g>

<g id="Layer0_0_MEMBER_10_MEMBER_0_FILL">
<path fill="#FCC21B" stroke="none" d="
M 29.25 48.8
L 22.65 47.7 22.25 47.7
Q 21.35 47.7 20.65 48.3 19.95 48.9 19.75 49.8
L 13.85 85.2
Q 13.7 86.25 14.35 87.1 14.95 88 16 88.1
L 22.6 89.35 23 89.35
Q 23.9 89.35 24.6 88.75 25.3 88.1 25.35 87.1
L 31.25 51.7
Q 31.4 50.5 30.85 49.8 30.25 48.95 29.25 48.8 Z"/>
</g>

<g id="Layer0_0_MEMBER_10_MEMBER_1_FILL">
<path fill="#FCC21B" stroke="none" d="
M 22.75 47.3
L 22.25 47.3
Q 21.15 47.3 20.3 48.05 19.5 48.75 19.25 49.8
L 13.35 85.2
Q 13.15 86.4 13.85 87.45 14.6 88.5 15.85 88.7
L 22.5 89.8 23 89.8
Q 24.1 89.8 24.95 89.1 25.75 88.35 26 87.3
L 31.85 51.9
Q 32.1 50.7 31.4 49.65 30.65 48.65 29.35 48.4
L 22.75 47.3
M 21 48.8
Q 21.55 48.3 22.25 48.3
L 22.55 48.3 29.15 49.4
Q 30 49.55 30.45 50.2 30.9 50.9 30.75 51.7
L 25 87.1
Q 24.6 88.8 23 88.8
L 22.7 88.8 16.1 87.7
Q 15.3 87.55 14.8 86.9 14.35 86.25 14.5 85.4
L 20.25 50
Q 20.45 49.25 21 48.8 Z"/>
</g>

<g id="Layer0_0_MEMBER_11_FILL">
<path fill="#FCC21B" stroke="none" d="
M 44.45 8.25
Q 44.4 10.05 45.75 11.4 47.05 12.7 48.9 12.75
L 54.6 12.75 54.6 3.75 48.9 3.75
Q 47.05 3.7 45.8 5.05 44.45 6.35 44.45 8.25
M 72.95 12.7
Q 74.8 12.7 76.1 11.35 77.4 10.05 77.45 8.15 77.45 6.35 76.1 5.05 74.85 3.7 72.95 3.7
L 67.3 3.7 67.3 12.7 72.95 12.7 Z"/>

<path fill="#2F2F2F" stroke="none" d="
M 67.3 12.7
L 67.3 3.7 54.6 3.75 54.6 12.75 67.3 12.7 Z"/>
</g>
</defs>

<g id="Layer_1">
<g transform="matrix( 0.5625, 0, 0, 0.5625, 0,0) ">
<use xlink:href="#Layer0_0_MEMBER_0_FILL"/>
</g>

<g transform="matrix( 0.5625, 0, 0, 0.5625, 0,0) ">
<use xlink:href="#Layer0_0_MEMBER_1_FILL"/>
</g>

<g transform="matrix( 0.5625, 0, 0, 0.5625, 0,0) ">
<use xlink:href="#Layer0_0_MEMBER_2_FILL"/>
</g>

<g transform="matrix( 0.5625, 0, 0, 0.5625, 0,0) ">
<use xlink:href="#Layer0_0_MEMBER_3_FILL"/>
</g>

<g transform="matrix( 0.5625, 0, 0, 0.5625, 0,0) ">
<use xlink:href="#Layer0_0_MEMBER_4_FILL"/>
</g>

<g transform="matrix( 0.5625, 0, 0, 0.5625, 0,0) ">
<use xlink:href="#Layer0_0_MEMBER_5_MEMBER_0_FILL"/>
</g>

<g transform="matrix( 0.5625, 0, 0, 0.5625, 0,0) ">
<use xlink:href="#Layer0_0_MEMBER_5_MEMBER_1_FILL"/>
</g>

<g transform="matrix( 0.5625, 0, 0, 0.5625, 0,0) ">
<use xlink:href="#Layer0_0_MEMBER_6_FILL"/>
</g>

<g transform="matrix( 0.5625, 0, 0, 0.5625, 0,0) ">
<use xlink:href="#Layer0_0_MEMBER_7_MEMBER_0_FILL"/>
</g>

<g transform="matrix( 0.5625, 0, 0, 0.5625, 0,0) ">
<use xlink:href="#Layer0_0_MEMBER_7_MEMBER_1_FILL"/>
</g>

<g transform="matrix( 0.5625, 0, 0, 0.5625, 0,0) ">
<use xlink:href="#Layer0_0_MEMBER_8_FILL"/>
</g>

<g transform="matrix( 0.5625, 0, 0, 0.5625, -0.05,0.35) ">
<use xlink:href="#Layer0_0_MEMBER_9_MEMBER_0_FILL"/>
</g>

<g transform="matrix( 0.5625, 0, 0, 0.5625, 0,0) ">
<use xlink:href="#Layer0_0_MEMBER_10_MEMBER_0_FILL"/>
</g>

<g transform="matrix( 0.5625, 0, 0, 0.5625, 0,0) ">
<use xlink:href="#Layer0_0_MEMBER_10_MEMBER_1_FILL"/>
</g>

<g transform="matrix( 0.7140960693359375, 0.1259002685546875, -0.1259002685546875, 0.7140960693359375, -24.25,-7.25) ">
<use xlink:href="#Layer0_0_MEMBER_11_FILL"/>
</g>
</g>
</svg>
