
<svg xmlns="http://www.w3.org/2000/svg" version="1.1" xmlns:xlink="http://www.w3.org/1999/xlink" preserveAspectRatio="none" x="0px" y="0px" width="72px" height="72px" viewBox="0 0 72 72">
<defs>
<g id="Layer0_0_FILL">
<path fill="#FCC21B" stroke="none" d="
M 127.95 93.45
Q 127.95 66.4 119.4 46.3 103.8 9.5 64 9.5 24.15 9.5 8.55 46.3 0 66.4 0 93.45 0 103.85 18.75 111.2 37.45 118.55 64 118.55 90.5 118.55 109.2 111.2 127.95 103.85 127.95 93.45 Z"/>
</g>

<g id="Layer0_1_FILL">
<path fill="#2F2F2F" stroke="none" d="
M 113.2 43.7
Q 96.15 40.7 83.8 42.4 83.75 42.4 74.3 44.05 68.7 45 64 45.1 59.3 45 53.7 44.05 44.2 42.4 44.15 42.4 31.8 40.7 14.75 43.7 13.4 43.95 13.1 44.25 12.7 44.55 12.5 45.85 12.3 47.45 12.3 50.7 12.25 51.75 12.55 52.15 12.8 52.5 13.95 53.1 15.05 53.65 15.3 54.1 15.75 54.8 15.75 56.6 15.75 68.8 21.05 74.5 25.55 79.4 34.25 79.75 42.5 80.05 49.05 75.7 55.4 71.45 58.3 64.05 60.4 58.55 61.55 56.4 62.9 53.85 64 53.7 65.05 53.8 66.4 56.4 67.55 58.55 69.65 64.05 72.55 71.45 78.95 75.7 85.45 80.05 93.75 79.75 102.45 79.4 106.95 74.5 112.2 68.8 112.2 56.6 112.2 54.8 112.65 54.1 112.9 53.65 114 53.1 115.15 52.5 115.4 52.15 115.7 51.75 115.65 50.7 115.65 47.45 115.45 45.85 115.25 44.55 114.85 44.25 114.55 43.95 113.2 43.7
M 90.8 46.3
Q 96.45 46.1 102.6 47.35 105.75 48 106.65 49.7 107.6 51.4 107.5 56.25 107.35 64.55 104.45 68.9 101.05 74 93.55 74.3 84.1 74.65 78.95 68.35 76.1 64.85 72.95 55.75 72.15 53.45 72.9 52.15 73.75 50.65 77.05 49.15 82.75 46.65 90.8 46.3
M 25.35 47.35
Q 31.5 46.1 37.15 46.3 45.2 46.65 50.9 49.15 54.2 50.65 55.05 52.15 55.8 53.45 55 55.75 51.85 64.85 49 68.35 43.85 74.65 34.4 74.3 26.9 74 23.5 68.9 20.6 64.55 20.45 56.25 20.35 51.35 21.3 49.65 22.2 48 25.35 47.35 Z"/>
</g>

<g id="Layer0_2_MEMBER_0_FILL">
<path fill="#ED6C30" stroke="none" d="
M 91.75 84
Q 89.55 81.75 82.15 83 70.1 85.05 64 85.05 57.85 85.05 45.85 83 38.4 81.75 36.2 84 35.45 84.8 35.3 86.25 35.15 87.8 35.85 88.9 38.45 92.9 45.45 96.3 53.95 100.45 63.95 100.6 74 100.45 82.5 96.3 89.5 92.9 92.05 88.9 92.8 87.8 92.65 86.25 92.5 84.8 91.75 84 Z"/>
</g>

<g id="Layer0_2_MEMBER_1_FILL">
<path fill="#FFFFFF" stroke="none" d="
M 35.95 47.8
Q 33.6 47.8 29.75 47.3
L 29.75 50.3
Q 29.75 51.1 30.25 51.65 30.75 52.25 31.55 52.35
L 33.55 52.65
Q 34.5 52.8 35.25 52.15 35.9390625 51.559375 35.95 50.6 35.96171875 51.559375 36.7 52.15 37.4 52.8 38.35 52.65
L 40.35 52.35
Q 41.15 52.25 41.65 51.65 42.2 51.1 42.2 50.3
L 42.2 47.3
Q 38.3 47.8 35.95 47.8 Z"/>
</g>

<g id="Layer0_3_MEMBER_0_FILL">
<path fill="#2F2F2F" stroke="none" d="
M 33.75 58.4
Q 33.8 62.4 36.2 65.25 38.65 68.05 42 68 45.35 68 47.7 65.15 50.05 62.25 50 58.25 49.95 54.25 47.55 51.4 45.15 48.55 41.8 48.6 38.45 48.65 36.05 51.5 33.7 54.4 33.75 58.4 Z"/>
</g>

<g id="Layer0_3_MEMBER_1_FILL">
<path fill="#2F2F2F" stroke="none" d="
M 86.1 68
Q 89.45 68 91.8 65.15 94.2 62.3 94.2 58.3 94.15 54.3 91.8 51.45 89.4 48.6 86.05 48.65 82.7 48.65 80.3 51.5 77.9 54.35 77.9 58.35 77.95 62.35 80.35 65.2 82.75 68.05 86.1 68 Z"/>
</g>
</defs>

<g id="Layer_1">
<g transform="matrix( 0.5625, 0, 0, 0.5625, 0,0) ">
<use xlink:href="#Layer0_0_FILL"/>
</g>

<g transform="matrix( 0.5625, 0, 0, 0.5625, 0,0) ">
<use xlink:href="#Layer0_1_FILL"/>
</g>

<g transform="matrix( 0.5625, 0, 0, 0.5625, 0,0) ">
<use xlink:href="#Layer0_2_MEMBER_0_FILL"/>
</g>

<g transform="matrix( 1, 0, 0, 1, 0,0) ">
<use xlink:href="#Layer0_2_MEMBER_1_FILL"/>
</g>

<g transform="matrix( 0.5625, 0, 0, 0.5625, 0,0) ">
<use xlink:href="#Layer0_3_MEMBER_0_FILL"/>
</g>

<g transform="matrix( 0.5625, 0, 0, 0.5625, 0,0) ">
<use xlink:href="#Layer0_3_MEMBER_1_FILL"/>
</g>
</g>
</svg>
