
<svg xmlns="http://www.w3.org/2000/svg" version="1.1" xmlns:xlink="http://www.w3.org/1999/xlink" preserveAspectRatio="none" x="0px" y="0px" width="72px" height="72px" viewBox="0 0 72 72">
<defs>
<linearGradient id="Gradient_1" gradientUnits="userSpaceOnUse" x1="33.6" y1="34.7875" x2="33.6" y2="5.712499999999999" spreadMethod="pad">
<stop  offset="0%" stop-color="#FCC21B"/>

<stop  offset="100%" stop-color="#E75625"/>
</linearGradient>

<g id="Layer3_0_FILL">
<path fill="url(#Gradient_1)" stroke="none" d="
M 35.85 4.85
Q 13.55 4.85 4.8 25.5 0 36.75 0 51.95 0 57.8 10.5 61.9 21 66.05 35.85 66.05 50.75 66.05 61.25 61.9 71.75 57.8 71.75 51.95 71.75 36.75 66.95 25.5 58.2 4.85 35.85 4.85 Z"/>
</g>

<g id="Layer2_0_FILL">
<path fill="#2F2F2F" stroke="none" d="
M 48 41.05
Q 47.85 41 47.75 41
L 24.1 41.55
Q 23.6 41.55 22.3 41.6 20.65 41.7 18.85 43.55 16.95 45.4 17 48.15 17.1 50.85 18.9 52.7 20.7 54.4 22.4 54.4 23.6 54.4 24.4 54.4 24.7 54.4 24.9 54.35
L 47.8 53.85
Q 48.65 53.9 50.35 53.8 52.05 53.75 53.8 51.95 55.45 50.05 55.45 47.3 55.4 44.55 53.45 42.8 51.5 41 49.9 41 48.6 41 48 41.05
M 49.65 42.6
L 50.45 42.6 50.1 45 51.5 44.95 51.5 45.7 49.95 45.75 49.65 47.65 51.2 47.55 51.25 48.3 49.55 48.4 49.15 50.8 48.35 50.8 48.75 48.4 47.15 48.5 46.8 50.85 46 50.85 46.3 48.5 44.85 48.55 44.85 47.8 46.4 47.7 46.75 45.9 45.2 45.95 45.2 45.2 46.8 45.1 47.2 42.7 48 42.65 47.65 45.1 49.25 45 49.65 42.6
M 41.75 42.8
Q 42.85 42.75 43.45 43.25 44.1 43.75 44.15 44.7 44.15 45.1 44.05 45.4 43.95 45.75 43.75 46.05 43.5 46.35 42.85 46.9 42.35 47.4 42.15 47.7 42.05 48.05 42.05 48.55
L 42.05 48.75 41.25 48.8 41.25 48.5
Q 41.2 47.8 41.4 47.35 41.6 46.95 42.1 46.5 42.7 46 42.85 45.75 43.05 45.5 43.15 45.3 43.2 45.05 43.2 44.75 43.2 44.2 42.8 43.95 42.45 43.65 41.75 43.7 41.3 43.7 40.9 43.8 40.5 43.95 40 44.2
L 39.55 43.4
Q 40.6 42.85 41.75 42.8
M 27.5 45.85
Q 28.05 44.7 29.1 44.05 30.25 43.35 31.65 43.35 32.8 43.3 33.8 43.75 34.7 44.15 35.3 45.1 35.8 46 35.85 47.25 35.9 48 35.7 48.65 35.45 49.3 35 49.7 34.6 50.1 34 50.1 33.5 50.1 33.25 49.85 32.85 49.65 32.75 49.15
L 32.7 49.2
Q 32.55 49.65 32.15 49.95 31.7 50.2 31.15 50.25 30.3 50.3 29.8 49.7 29.3 49.15 29.25 48.15 29.25 47.4 29.5 46.85 29.8 46.25 30.3 45.9 30.9 45.55 31.6 45.5 31.95 45.5 32.45 45.6 32.95 45.6 33.35 45.75
L 33.3 48.5
Q 33.35 49.45 34.05 49.4 34.6 49.4 34.85 48.8 35.1 48.2 35.05 47.25 35.05 46.25 34.6 45.5 34.15 44.75 33.45 44.4 32.65 44 31.65 44.05 30.45 44.1 29.55 44.65 28.7 45.2 28.25 46.15 27.75 47.1 27.8 48.4 27.9 50.05 28.8 50.9 29.7 51.8 31.4 51.7 32.6 51.65 33.85 51.15
L 33.85 51.95
Q 32.75 52.4 31.45 52.45 29.4 52.55 28.25 51.5 27.1 50.45 27 48.45 26.95 47 27.5 45.85
M 37.3 43.05
L 38.5 43 38.45 48.9 37.75 48.9 37.3 43.05
M 37.7 51.15
Q 37.45 50.95 37.45 50.6 37.4 50.25 37.65 50.05 37.8 49.8 38.15 49.8 38.5 49.8 38.65 50.05 38.85 50.15 38.9 50.5 38.95 50.85 38.7 51.15 38.55 51.35 38.15 51.35 37.85 51.35 37.7 51.15
M 41.3 51.05
Q 41.05 50.85 41.05 50.45 41 49.7 41.7 49.65 42.1 49.65 42.2 49.85 42.45 50.05 42.45 50.45 42.45 50.8 42.3 51 42.1 51.2 41.75 51.25 41.45 51.25 41.3 51.05
M 22.5 43.15
L 23.2 43.1 23.25 44.15
Q 24.3 44.1 25.3 44.5
L 25 45.3
Q 24.1 44.95 23.3 44.95
L 23.4 47.3
Q 24.3 47.55 24.75 47.75 25.2 48.05 25.4 48.4 25.6 48.7 25.65 49.2 25.65 49.95 25.15 50.45 24.6 51 23.55 51.15
L 23.6 52.4 22.85 52.45 22.8 51.25
Q 22.2 51.25 21.6 51.2 21 51.1 20.6 50.95
L 20.6 50.05
Q 21 50.2 21.65 50.35 22.25 50.45 22.8 50.45
L 22.7 48.05
Q 21.55 47.7 21 47.3 20.55 46.8 20.5 46.05 20.45 45.3 21 44.8 21.6 44.3 22.5 44.15
L 22.5 43.15
M 24.35 48.7
Q 24.05 48.45 23.4 48.25
L 23.55 50.35
Q 24.65 50.1 24.65 49.3 24.6 48.9 24.35 48.7
M 21.75 45.35
Q 21.55 45.6 21.55 46 21.55 46.4 21.75 46.65 22.05 46.85 22.65 47.05
L 22.55 44.95
Q 22.05 45.05 21.75 45.35
M 32.45 46.35
Q 32.05 46.2 31.6 46.25 30.9 46.25 30.5 46.8 30.1 47.3 30.15 48.15 30.25 49.6 31.3 49.5 32.4 49.45 32.45 47.75
L 32.45 46.35
M 47.55 45.85
L 47.2 47.7 48.85 47.65 49.15 45.75 47.55 45.85 Z"/>

<path fill="#FFFFFF" stroke="none" d="
M 23.2 43.1
L 22.5 43.15 22.5 44.15
Q 21.6 44.3 21 44.8 20.45 45.3 20.5 46.05 20.55 46.8 21 47.3 21.55 47.7 22.7 48.05
L 22.8 50.45
Q 22.25 50.45 21.65 50.35 21 50.2 20.6 50.05
L 20.6 50.95
Q 21 51.1 21.6 51.2 22.2 51.25 22.8 51.25
L 22.85 52.45 23.6 52.4 23.55 51.15
Q 24.6 51 25.15 50.45 25.65 49.95 25.65 49.2 25.6 48.7 25.4 48.4 25.2 48.05 24.75 47.75 24.3 47.55 23.4 47.3
L 23.3 44.95
Q 24.1 44.95 25 45.3
L 25.3 44.5
Q 24.3 44.1 23.25 44.15
L 23.2 43.1
M 21.55 46
Q 21.55 45.6 21.75 45.35 22.05 45.05 22.55 44.95
L 22.65 47.05
Q 22.05 46.85 21.75 46.65 21.55 46.4 21.55 46
M 23.4 48.25
Q 24.05 48.45 24.35 48.7 24.6 48.9 24.65 49.3 24.65 50.1 23.55 50.35
L 23.4 48.25
M 41.05 50.45
Q 41.05 50.85 41.3 51.05 41.45 51.25 41.75 51.25 42.1 51.2 42.3 51 42.45 50.8 42.45 50.45 42.45 50.05 42.2 49.85 42.1 49.65 41.7 49.65 41 49.7 41.05 50.45
M 37.45 50.6
Q 37.45 50.95 37.7 51.15 37.85 51.35 38.15 51.35 38.55 51.35 38.7 51.15 38.95 50.85 38.9 50.5 38.85 50.15 38.65 50.05 38.5 49.8 38.15 49.8 37.8 49.8 37.65 50.05 37.4 50.25 37.45 50.6
M 38.5 43
L 37.3 43.05 37.75 48.9 38.45 48.9 38.5 43
M 29.1 44.05
Q 28.05 44.7 27.5 45.85 26.95 47 27 48.45 27.1 50.45 28.25 51.5 29.4 52.55 31.45 52.45 32.75 52.4 33.85 51.95
L 33.85 51.15
Q 32.6 51.65 31.4 51.7 29.7 51.8 28.8 50.9 27.9 50.05 27.8 48.4 27.75 47.1 28.25 46.15 28.7 45.2 29.55 44.65 30.45 44.1 31.65 44.05 32.65 44 33.45 44.4 34.15 44.75 34.6 45.5 35.05 46.25 35.05 47.25 35.1 48.2 34.85 48.8 34.6 49.4 34.05 49.4 33.35 49.45 33.3 48.5
L 33.35 45.75
Q 32.95 45.6 32.45 45.6 31.95 45.5 31.6 45.5 30.9 45.55 30.3 45.9 29.8 46.25 29.5 46.85 29.25 47.4 29.25 48.15 29.3 49.15 29.8 49.7 30.3 50.3 31.15 50.25 31.7 50.2 32.15 49.95 32.55 49.65 32.7 49.2
L 32.75 49.15
Q 32.85 49.65 33.25 49.85 33.5 50.1 34 50.1 34.6 50.1 35 49.7 35.45 49.3 35.7 48.65 35.9 48 35.85 47.25 35.8 46 35.3 45.1 34.7 44.15 33.8 43.75 32.8 43.3 31.65 43.35 30.25 43.35 29.1 44.05
M 31.6 46.25
Q 32.05 46.2 32.45 46.35
L 32.45 47.75
Q 32.4 49.45 31.3 49.5 30.25 49.6 30.15 48.15 30.1 47.3 30.5 46.8 30.9 46.25 31.6 46.25
M 43.45 43.25
Q 42.85 42.75 41.75 42.8 40.6 42.85 39.55 43.4
L 40 44.2
Q 40.5 43.95 40.9 43.8 41.3 43.7 41.75 43.7 42.45 43.65 42.8 43.95 43.2 44.2 43.2 44.75 43.2 45.05 43.15 45.3 43.05 45.5 42.85 45.75 42.7 46 42.1 46.5 41.6 46.95 41.4 47.35 41.2 47.8 41.25 48.5
L 41.25 48.8 42.05 48.75 42.05 48.55
Q 42.05 48.05 42.15 47.7 42.35 47.4 42.85 46.9 43.5 46.35 43.75 46.05 43.95 45.75 44.05 45.4 44.15 45.1 44.15 44.7 44.1 43.75 43.45 43.25
M 50.45 42.6
L 49.65 42.6 49.25 45 47.65 45.1 48 42.65 47.2 42.7 46.8 45.1 45.2 45.2 45.2 45.95 46.75 45.9 46.4 47.7 44.85 47.8 44.85 48.55 46.3 48.5 46 50.85 46.8 50.85 47.15 48.5 48.75 48.4 48.35 50.8 49.15 50.8 49.55 48.4 51.25 48.3 51.2 47.55 49.65 47.65 49.95 45.75 51.5 45.7 51.5 44.95 50.1 45 50.45 42.6
M 47.2 47.7
L 47.55 45.85 49.15 45.75 48.85 47.65 47.2 47.7 Z"/>
</g>

<g id="Layer0_0_MEMBER_0_FILL">
<path fill="#2F2F2F" stroke="none" d="
M 57.2 30.9
Q 56.5 30.6 55.75 30.9
L 44.05 36.25
Q 43.3 36.65 42.5 36.6 41.45 36.6 40.95 36.05 40.9 35.95 40.3 34.95 39.9 34.2 39.2 34.45 38.7 34.7 38.6 35.65 38.5 36.3 38.55 36.85 38.75 38.45 39.4 39.75 40.2 41.3 41.1 42.05 42.45 43.4 44.5 44.1 46.6 44.8 48.85 44.7 50.65 44.65 52.45 43.9 56.75 42.1 58.15 38.2 59.25 35 58.2 31.95 57.95 31.2 57.2 30.9 Z"/>
</g>

<g id="Layer0_0_MEMBER_1_FILL">
<path fill="#2F2F2F" stroke="none" d="
M 13.25 31.95
Q 12.15 35 13.3 38.2 14.7 42.1 19 43.9 20.8 44.65 22.55 44.7 24.8 44.8 26.95 44.1 29.05 43.35 30.35 42.05 31.4 41 32 39.75 32.65 38.45 32.9 36.85 32.95 36.3 32.9 35.65 32.75 34.7 32.25 34.45 31.55 34.2 31.15 34.95 30.95 35.3 30.5 36.05 29.95 36.6 28.95 36.6 28.45 36.65 27.9 36.45
L 15.7 30.9
Q 14.95 30.6 14.2 30.9 13.5 31.2 13.25 31.95 Z"/>
</g>

<path id="Layer2_0_1_STROKES" stroke="#2F2F2F" stroke-width="1" stroke-linejoin="round" stroke-linecap="round" fill="none" d="
M 24.1 41.55
L 47.75 41
Q 47.85 41 48 41.05 48.6 41 49.9 41 51.5 41 53.45 42.8 55.4 44.55 55.45 47.3 55.45 50.05 53.8 51.95 52.05 53.75 50.35 53.8 48.65 53.9 47.8 53.85
L 24.9 54.35
Q 24.7 54.4 24.4 54.4 23.6 54.4 22.4 54.4 20.7 54.4 18.9 52.7 17.1 50.85 17 48.15 16.95 45.4 18.85 43.55 20.65 41.7 22.3 41.6 23.6 41.55 24.1 41.55 Z"/>
</defs>

<g id="Layer_1">
<g transform="matrix( 1, 0, 0, 1, 0,0) ">
<use xlink:href="#Layer3_0_FILL"/>
</g>
</g>

<g id="Layer_2">
<g transform="matrix( 1, 0, 0, 1, 0,0) ">
<use xlink:href="#Layer2_0_FILL"/>

<use xlink:href="#Layer2_0_1_STROKES"/>
</g>
</g>

<g id="_____1"/>

<g transform="matrix( 0.91302490234375, 0, 0, 0.91302490234375, 3.15,-4.05) ">
<use xlink:href="#Layer0_0_MEMBER_0_FILL"/>
</g>

<g transform="matrix( 0.91302490234375, 0, 0, 0.91302490234375, 3.15,-4.05) ">
<use xlink:href="#Layer0_0_MEMBER_1_FILL"/>
</g>
</svg>
