
<svg xmlns="http://www.w3.org/2000/svg" version="1.1" xmlns:xlink="http://www.w3.org/1999/xlink" preserveAspectRatio="none" x="0px" y="0px" width="72px" height="72px" viewBox="0 0 72 72">
<defs>
<g id="Layer0_0_FILL">
<path fill="#FCC21B" stroke="none" d="
M 127.85 93.4
Q 127.85 66.4 119.35 46.3 103.75 9.6 64 9.6 24.25 9.6 8.65 46.3 0.1 66.4 0.1 93.4 0.1 103.8 18.8 111.1 37.5 118.45 64 118.45 90.45 118.45 109.15 111.1 127.85 103.8 127.85 93.4 Z"/>
</g>

<g id="Layer0_1_MEMBER_0_FILL">
<path fill="#2F2F2F" stroke="none" d="
M 50 49
Q 49.95 45 47.55 42.2 45.15 39.35 41.8 39.4 38.4 39.45 36.05 42.3 33.7 45.15 33.75 49.2 33.8 53.2 36.2 56 38.6 58.85 41.95 58.8 45.35 58.75 47.7 55.9 50.05 53.05 50 49 Z"/>
</g>

<g id="Layer0_1_MEMBER_1_FILL">
<path fill="#2F2F2F" stroke="none" d="
M 91.75 42.25
Q 89.4 39.4 86.05 39.4 82.65 39.4 80.3 42.25 77.9 45.1 77.9 49.15 77.9 53.15 80.3 56 82.7 58.8 86.05 58.8 89.45 58.8 91.8 55.95 94.2 53.1 94.15 49.1 94.15 45.05 91.75 42.25 Z"/>
</g>

<g id="Layer0_3_MEMBER_0_MEMBER_0_FILL">
<path fill="#F57C00" stroke="none" d="
M 111 85.05
Q 115.5 85.2 118.9 82.45 122.9 79.2 122.4 73.7 121.95 68 117.95 65.3 114.8 63.15 110.4 63.35 101.1 63.75 89.2 64.7 68.9 66.3 67.95 66.35 64.65 66.6 62.5 68.85 60.25 71.2 60.1 74.85 59.95 78.7 62.3 81.25 64.65 83.8 68.45 83.9
L 111 85.05 Z"/>
</g>

<g id="An_1F925_svg_Layer_1__Clip_Group__0_Layer1_0_FILL">
<path fill="#FFAB00" stroke="none" d="
M 61.3 22.75
Q 66 22.65 69.4 19.65 70.62578125 18.562109375 71.4 17.25 70.8466796875 11.896484375 67 9.3 63.85 7.15 59.45 7.35 50.15 7.75 38.25 8.7 17.95 10.3 17 10.35 13.7 10.6 11.55 12.85 9.3 15.2 9.15 18.85 9.04921875 21.436328125 10.05 23.4 26.4521484375 23.1875 61.3 22.75 Z"/>
</g>

<path id="Layer0_2_1_STROKES" stroke="#2F2F2F" stroke-width="4" stroke-linejoin="round" stroke-linecap="round" fill="none" d="
M 29.446875000000002 54.84375
Q 32.456250000000004 53.296875 36 53.296875 39.543749999999996 53.296875 42.525 54.84375"/>
</defs>

<g id="Layer_1">
<g transform="matrix( 0.5625, 0, 0, 0.5625, 0,0) ">
<use xlink:href="#Layer0_0_FILL"/>
</g>

<g transform="matrix( 0.5625, 0, 0, 0.5625, 0,0) ">
<use xlink:href="#Layer0_1_MEMBER_0_FILL"/>
</g>

<g transform="matrix( 0.5625, 0, 0, 0.5625, 0,0) ">
<use xlink:href="#Layer0_1_MEMBER_1_FILL"/>
</g>

<g transform="matrix( 0.5625, 0, 0, 0.5625, 0,0) ">
<use xlink:href="#Layer0_2_1_STROKES" transform="matrix( 1.77777099609375, 0, 0, 1.77777099609375, 0,0) "/>
</g>

<g transform="matrix( 0.5625, 0, 0, 0.5625, 0,0) ">
<use xlink:href="#Layer0_3_MEMBER_0_MEMBER_0_FILL"/>
</g>

<g transform="matrix( 0.5625, 0, 0, 0.5625, 28.65,31.5) ">
<g id="Camada_1"/>

<g id="Layer_2">
<g transform="matrix( 1, 0, 0, 1, 0,0) ">
<use xlink:href="#An_1F925_svg_Layer_1__Clip_Group__0_Layer1_0_FILL"/>
</g>
</g>

<g id="Camada_4"/>
</g>
</g>
</svg>
