
<svg xmlns="http://www.w3.org/2000/svg" version="1.1" xmlns:xlink="http://www.w3.org/1999/xlink" preserveAspectRatio="none" x="0px" y="0px" width="72px" height="72px" viewBox="0 0 72 72">
<defs>
<g id="Layer0_0_FILL">
<path fill="#FCC21B" stroke="none" d="
M 127.75 92.35
Q 127.75 65.35 119.25 45.35 103.65 8.7 64 8.7 24.3 8.65 8.7 45.3 0.2 65.35 0.2 92.35 0.2 102.75 18.9 110.05 37.55 117.4 64 117.4 90.4 117.4 109.1 110.05 127.75 102.75 127.75 92.35 Z"/>
</g>

<g id="Layer0_1_MEMBER_0_FILL">
<path fill="#FCC21B" stroke="none" d="
M 83.9 94.95
Q 106.5 91.3 116.7 81.5 126.9 71.75 118.7 61.6 110.4 51.5 88.55 46.95 66.65 42.4 44.05 46.1 21.45 49.75 11.25 59.55 1.1 69.3 9.3 79.45 17.5 89.6 39.35 94.1 61.2 98.65 83.9 94.95 Z"/>
</g>

<g id="Layer0_1_MEMBER_1_FILL">
<path fill="#FCC01C" stroke="none" d="
M 83.15 94.05
Q 104.9 90.55 114.75 81.1 124.55 71.7 116.65 61.95 108.7 52.2 87.65 47.8 66.6 43.45 44.8 47 23 50.55 13.2 59.95 3.45 69.35 11.35 79.1 19.25 88.85 40.3 93.2 61.25 97.6 83.15 94.05 Z"/>
</g>

<g id="Layer0_1_MEMBER_2_FILL">
<path fill="#FCBE1C" stroke="none" d="
M 82.4 93.15
Q 103.3 89.75 112.75 80.7 122.2 71.65 114.6 62.3 106.95 52.9 86.7 48.7 66.5 44.5 45.55 47.9 24.6 51.35 15.2 60.4 5.75 69.4 13.35 78.75 21 88.15 41.2 92.35 61.4 96.55 82.4 93.15 Z"/>
</g>

<g id="Layer0_1_MEMBER_3_FILL">
<path fill="#FBBB1D" stroke="none" d="
M 81.65 92.2
Q 101.75 88.95 110.8 80.25 119.85 71.6 112.55 62.6 105.25 53.6 85.8 49.55 66.4 45.55 46.3 48.8 26.2 52.1 17.15 60.8 8.1 69.45 15.4 78.45 22.7 87.45 42.1 91.5 61.5 95.5 81.65 92.2 Z"/>
</g>

<g id="Layer0_1_MEMBER_4_FILL">
<path fill="#FBB91E" stroke="none" d="
M 108.85 79.85
Q 117.5 71.55 110.5 62.95 103.5 54.35 84.9 50.45 66.3 46.6 47.05 49.75 27.8 52.9 19.15 61.2 10.45 69.5 17.45 78.1 24.45 86.75 43.05 90.6 61.6 94.45 80.9 91.3 100.15 88.2 108.85 79.85 Z"/>
</g>

<g id="Layer0_1_MEMBER_5_FILL">
<path fill="#FBB71E" stroke="none" d="
M 106.85 79.45
Q 115.15 71.5 108.45 63.3 101.75 55.05 83.95 51.35 66.2 47.65 47.8 50.65 29.35 53.65 21.1 61.6 12.8 69.55 19.5 77.75 26.2 86 43.95 89.7 61.7 93.4 80.15 90.4 98.55 87.4 106.85 79.45 Z"/>
</g>

<g id="Layer0_1_MEMBER_6_FILL">
<path fill="#FBB51F" stroke="none" d="
M 104.85 79.05
Q 112.8 71.45 106.45 63.6 100.05 55.75 83.05 52.2 66.1 48.7 48.55 51.55 30.95 54.45 23.05 62 15.2 69.6 21.55 77.45 27.95 85.3 44.9 88.8 61.85 92.35 79.4 89.45 96.95 86.65 104.85 79.05 Z"/>
</g>

<g id="Layer0_1_MEMBER_7_FILL">
<path fill="#FAB220" stroke="none" d="
M 102.9 78.65
Q 110.45 71.4 104.4 63.95 98.3 56.45 82.15 53.1 66 49.75 49.3 52.5 32.55 55.2 25.05 62.4 17.5 69.65 23.6 77.1 29.65 84.6 45.8 87.95 61.9 91.3 78.65 88.55 95.35 85.85 102.9 78.65 Z"/>
</g>

<g id="Layer0_1_MEMBER_8_FILL">
<path fill="#FAB020" stroke="none" d="
M 100.9 78.2
Q 108.1 71.35 102.3 64.3 96.55 57.2 81.2 54 65.9 50.8 50 53.4 34.15 56 27 62.85 19.85 69.7 25.65 76.75 31.4 83.85 46.7 87.05 62 90.25 77.9 87.65 93.75 85.05 100.9 78.2 Z"/>
</g>

<g id="Layer0_1_MEMBER_9_FILL">
<path fill="#FAAE21" stroke="none" d="
M 98.95 77.8
Q 105.75 71.3 100.3 64.6 94.85 57.9 80.3 54.9 65.8 51.85 50.75 54.3 35.7 56.8 28.95 63.25 22.25 69.75 27.7 76.45 33.2 83.15 47.65 86.2 62.1 89.2 77.15 86.75 92.2 84.3 98.95 77.8 Z"/>
</g>

<g id="Layer0_1_MEMBER_10_FILL">
<path fill="#FAAC22" stroke="none" d="
M 97 77.4
Q 103.4 71.3 98.25 64.95 93.1 58.6 79.4 55.75 65.7 52.9 51.5 55.2 37.3 57.55 30.95 63.65 24.6 69.75 29.75 76.1 34.9 82.45 48.55 85.3 62.25 88.15 76.45 85.85 90.6 83.55 97 77.4 Z"/>
</g>

<g id="Layer0_1_MEMBER_11_FILL">
<path fill="#F9A922" stroke="none" d="
M 95.05 77
Q 101.05 71.25 96.2 65.3 91.35 59.3 78.45 56.65 65.6 53.95 52.25 56.15 38.9 58.3 32.9 64.1 26.9 69.8 31.75 75.75 36.65 81.7 49.5 84.4 62.35 87.1 75.7 84.9 89 82.75 95.05 77 Z"/>
</g>

<g id="Layer0_1_MEMBER_12_FILL">
<path fill="#F9A723" stroke="none" d="
M 93.05 76.6
Q 98.7 71.2 94.15 65.6 89.6 60 77.55 57.5 65.5 55 53 57.05 40.5 59.1 34.9 64.45 29.25 69.85 33.8 75.45 38.35 81.05 50.4 83.55 62.4 86.05 74.95 84 87.4 82 93.05 76.6 Z"/>
</g>

<g id="Layer0_1_MEMBER_13_FILL">
<path fill="#F9A524" stroke="none" d="
M 91.1 76.15
Q 96.35 71.15 92.1 65.95 87.85 60.75 76.6 58.4 65.4 56.05 53.75 57.95 42.1 59.85 36.85 64.9 31.65 69.9 35.85 75.1 40.1 80.3 51.3 82.65 62.55 85 74.2 83.1 85.85 81.2 91.1 76.15 Z"/>
</g>

<g id="Layer0_1_MEMBER_14_FILL">
<path fill="#F9A324" stroke="none" d="
M 89.1 75.75
Q 94 71.1 90.05 66.3 86.1 61.45 75.7 59.3 65.3 57.1 54.5 58.85 43.7 60.65 38.85 65.3 34 69.95 37.9 74.75 41.85 79.6 52.25 81.75 62.65 83.95 73.45 82.2 84.25 80.45 89.1 75.75 Z"/>
</g>

<g id="Layer0_1_MEMBER_15_FILL">
<path fill="#F8A025" stroke="none" d="
M 87.1 75.35
Q 91.6 71.05 88 66.6 84.35 62.15 74.8 60.2 65.2 58.2 55.25 59.8 45.3 61.4 40.8 65.7 36.35 70 39.95 74.45 43.55 78.9 53.15 80.85 62.75 82.85 72.7 81.25 82.65 79.65 87.1 75.35 Z"/>
</g>

<g id="Layer0_1_MEMBER_16_FILL">
<path fill="#F89E26" stroke="none" d="
M 85.15 74.95
Q 89.25 71 85.95 66.95 82.6 62.85 73.85 61.05 65.1 59.25 55.95 60.7 46.85 62.2 42.75 66.15 38.7 70.05 42 74.1 45.3 78.2 54.05 80 62.8 81.8 71.95 80.35 81.05 78.85 85.15 74.95 Z"/>
</g>

<g id="Layer0_1_MEMBER_17_FILL">
<path fill="#F89C26" stroke="none" d="
M 83.2 74.55
Q 86.9 70.95 83.9 67.25 80.9 63.55 72.95 61.9 64.95 60.25 56.7 61.6 48.45 62.95 44.75 66.5 41.05 70.05 44.05 73.75 47.05 77.45 55 79.1 62.95 80.75 71.25 79.45 79.45 78.1 83.2 74.55 Z"/>
</g>

<g id="Layer0_1_MEMBER_18_FILL">
<path fill="#F89A27" stroke="none" d="
M 81.25 74.1
Q 84.55 70.9 81.9 67.6 79.2 64.3 72.05 62.8 64.85 61.3 57.45 62.5 50.05 63.75 46.75 66.95 43.4 70.1 46.1 73.45 48.8 76.75 55.95 78.25 63.05 79.7 70.5 78.5 77.9 77.3 81.25 74.1 Z"/>
</g>

<g id="Layer0_1_MEMBER_19_FILL">
<path fill="#F79728" stroke="none" d="
M 69.75 77.6
Q 76.3 76.55 79.25 73.7 82.2 70.9 79.85 67.95 77.45 65.05 71.1 63.7 64.75 62.4 58.2 63.45 51.65 64.55 48.7 67.35 45.75 70.2 48.15 73.1 50.5 76 56.85 77.35 63.2 78.65 69.75 77.6 Z"/>
</g>

<g id="Layer0_1_MEMBER_20_FILL">
<path fill="#F79528" stroke="none" d="
M 69 76.7
Q 74.7 75.75 77.3 73.3 79.85 70.85 77.75 68.25 75.7 65.7 70.15 64.55 64.65 63.4 58.95 64.35 53.25 65.3 50.65 67.75 48.1 70.2 50.15 72.75 52.25 75.35 57.75 76.5 63.25 77.65 69 76.7 Z"/>
</g>

<g id="Layer0_1_MEMBER_21_FILL">
<path fill="#F79329" stroke="none" d="
M 68.25 75.75
Q 73.1 74.95 75.3 72.85 77.5 70.8 75.75 68.6 73.95 66.45 69.25 65.45 64.55 64.45 59.7 65.25 54.8 66.1 52.65 68.2 50.45 70.3 52.2 72.45 53.95 74.65 58.65 75.6 63.4 76.55 68.25 75.75 Z"/>
</g>

<g id="Layer0_2_MEMBER_0_FILL">
<path fill="#2F2F2F" stroke="none" d="
M 99.9 49.25
Q 99.65 48.15 98.7 47.6 97.8 47 96.75 47.25 94.25 47.7 88.95 49.6 80.55 52.65 75.2 56.5 74.5 57.05 74.25 57.9 73.95 58.75 74.3 59.55 74.65 60.4 75.4 60.85 76.15 61.35 77.05 61.25 77.1 61.25 83.4 61.1 90.75 61.25 95.8 63
L 96.45 63.15
Q 97.35 63.25 98.1 62.75 98.85 62.25 99.15 61.4 99.55 60.35 99.05 59.35 98.55 58.4 97.5 58.05 92.65 56.35 87.05 56 92.75 53.6 97.9 52.4 99 52.15 99.55 51.2 100.15 50.3 99.9 49.25 Z"/>
</g>

<g id="Layer0_2_MEMBER_1_FILL">
<path fill="#2F2F2F" stroke="none" d="
M 30.1 47.6
Q 29.15 48.15 28.9 49.25 28.7 50.3 29.25 51.2 29.8 52.15 30.85 52.4 31.2 52.4 34.2 53.3 38.15 54.5 41.7 56 36.1 56.35 31.25 58.05 30.2 58.4 29.75 59.35 29.25 60.35 29.6 61.4 29.9 62.25 30.7 62.75 31.45 63.25 32.35 63.15
L 33 63
Q 38.05 61.25 45.4 61.1 49.05 61 51.75 61.25 53.75 61.4 54.5 59.55 54.85 58.75 54.6 57.9 54.3 57.05 53.6 56.5 48.2 52.65 39.85 49.6 34.55 47.7 32.05 47.25 31 47 30.1 47.6 Z"/>
</g>

<g id="Layer0_3_FILL">
<path fill="#2F2F2F" stroke="none" d="
M 90.75 92.2
Q 91.65 93.05 92.9 93.05 94.15 93.05 95 92.2 95.85 91.3 95.85 90.05 95.85 88.8 95 87.95 88.2 81.15 77.8 83.45 68.4 85.55 60.2 93.7 59.35 94.55 59.35 95.8 59.35 97.05 60.2 97.9 61.05 98.8 62.3 98.8 63.55 98.8 64.45 97.9 70.75 91.6 78 89.65 86 87.45 90.75 92.2 Z"/>
</g>

<g id="Layer0_4_MEMBER_0_MEMBER_0_FILL">
<path fill="#BDBDBD" stroke="none" d="
M 37.95 34.65
Q 36.1197265625 32.9384765625 31.6 34.85 23.389453125 38.329296875 21 39 19.9365234375 39.291015625 8.05 41.6 -0.109765625 43.166796875 0.25 45.15 0.4599609375 46.6486328125 1.8 48.2 3.402734375 49.9990234375 3.65 50.45 4.2486328125 51.68984375 4.25 53.65 4.2478515625 56.184375 4.5 56.9 5.0498046875 58.4513671875 6.4 59.95 7.9123046875 61.6837890625 8 61.65 7.9955078125 61.799609375 8.05 61.9 8.8130859375 63.0671875 9.1 66 9.4267578125 69.0203125 10.7 70.25 11.830078125 71.612890625 18.5 67.3 24.7416015625 63.274609375 28.05 59.5 33.269921875 53.4689453125 36.75 45.9 40.798828125 37.0630859375 37.95 34.65 Z"/>
</g>

<g id="Layer0_4_MEMBER_0_MEMBER_1_FILL">
<path fill="#EEEEEE" stroke="none" d="
M 21.3 40.45
Q 19.9455078125 40.8203125 8.35 43.1 1.928515625 44.3115234375 1.75 44.95 1.93984375 46.0666015625 2.95 47.25 4.746875 49.2529296875 5 49.8 5.7533203125 51.2693359375 5.75 53.65 5.75234375 55.7958984375 5.95 56.4
L 5.95 56.4
Q 6.3998046875 57.69765625 7.55 59 8.720703125 60.3392578125 9.15 60.95 9.2765625 61.002734375 9.35 61.1 10.275390625 62.4138671875 10.6 65.85 10.8345703125 68.125390625 11.65 69.1 11.718359375 69.147265625 11.75 69.15 12.3125 69.5076171875 17.7 66.05 23.7166015625 62.15078125 26.95 58.55 32.009765625 52.66171875 35.4 45.3 38.83125 37.8005859375 37 35.8
L 36.95 35.75
Q 35.5826171875 34.775 32.2 36.2 23.870703125 39.741015625 21.45 40.45 21.3755859375 40.4724609375 21.3 40.45 Z"/>
</g>

<g id="Layer0_4_MEMBER_1_FILL">
<path fill="#BDBDBD" stroke="none" d="
M 28 42.85
Q 27.7 42.7 26.95 43.1 24.75 44.5 18.9 47.35 14.15 49.65 10.95 50.45 10.45 50.55 10.3 50.95 10.2 51.35 11.05 51.3 13.1 51.2 15.25 50.55 16.95 50.05 19.2 49 21.2 48.1 23.45 46.7 25.95 45.15 27.7 43.55 28.3 43 28 42.85 Z"/>
</g>

<g id="Layer0_4_MEMBER_2_FILL">
<path fill="#BDBDBD" stroke="none" d="
M 28.25 49
Q 27.95 48.95 27.4 49.45 25.55 51.35 21.15 55.05 17.45 58.2 14.8 59.65 14.35 59.85 14.3 60.2 14.3 60.6 15.1 60.4 16.9 59.9 18.65 58.8 19.95 57.95 21.85 56.5 23.45 55.2 25.05 53.45 26.95 51.45 28.15 49.7 28.55 49.05 28.25 49 Z"/>
</g>
</defs>

<g id="Layer_1">
<g transform="matrix( 0.5625, 0, 0, 0.5625, 0,0) ">
<use xlink:href="#Layer0_0_FILL"/>
</g>

<g transform="matrix( 0.5624542236328125, 0, 0, 0.5624542236328125, 0,0) ">
<use xlink:href="#Layer0_1_MEMBER_0_FILL"/>
</g>

<g transform="matrix( 0.5624542236328125, 0, 0, 0.5624542236328125, 0,0) ">
<use xlink:href="#Layer0_1_MEMBER_1_FILL"/>
</g>

<g transform="matrix( 0.5624542236328125, 0, 0, 0.5624542236328125, 0,0) ">
<use xlink:href="#Layer0_1_MEMBER_2_FILL"/>
</g>

<g transform="matrix( 0.5624542236328125, 0, 0, 0.5624542236328125, 0,0) ">
<use xlink:href="#Layer0_1_MEMBER_3_FILL"/>
</g>

<g transform="matrix( 0.5624542236328125, 0, 0, 0.5624542236328125, 0,0) ">
<use xlink:href="#Layer0_1_MEMBER_4_FILL"/>
</g>

<g transform="matrix( 0.5624542236328125, 0, 0, 0.5624542236328125, 0,0) ">
<use xlink:href="#Layer0_1_MEMBER_5_FILL"/>
</g>

<g transform="matrix( 0.5624542236328125, 0, 0, 0.5624542236328125, 0,0) ">
<use xlink:href="#Layer0_1_MEMBER_6_FILL"/>
</g>

<g transform="matrix( 0.5624542236328125, 0, 0, 0.5624542236328125, 0,0) ">
<use xlink:href="#Layer0_1_MEMBER_7_FILL"/>
</g>

<g transform="matrix( 0.5624542236328125, 0, 0, 0.5624542236328125, 0,0) ">
<use xlink:href="#Layer0_1_MEMBER_8_FILL"/>
</g>

<g transform="matrix( 0.5624542236328125, 0, 0, 0.5624542236328125, 0,0) ">
<use xlink:href="#Layer0_1_MEMBER_9_FILL"/>
</g>

<g transform="matrix( 0.5624542236328125, 0, 0, 0.5624542236328125, 0,0) ">
<use xlink:href="#Layer0_1_MEMBER_10_FILL"/>
</g>

<g transform="matrix( 0.5624542236328125, 0, 0, 0.5624542236328125, 0,0) ">
<use xlink:href="#Layer0_1_MEMBER_11_FILL"/>
</g>

<g transform="matrix( 0.5624542236328125, 0, 0, 0.5624542236328125, 0,0) ">
<use xlink:href="#Layer0_1_MEMBER_12_FILL"/>
</g>

<g transform="matrix( 0.5624542236328125, 0, 0, 0.5624542236328125, 0,0) ">
<use xlink:href="#Layer0_1_MEMBER_13_FILL"/>
</g>

<g transform="matrix( 0.5624542236328125, 0, 0, 0.5624542236328125, 0,0) ">
<use xlink:href="#Layer0_1_MEMBER_14_FILL"/>
</g>

<g transform="matrix( 0.5624542236328125, 0, 0, 0.5624542236328125, 0,0) ">
<use xlink:href="#Layer0_1_MEMBER_15_FILL"/>
</g>

<g transform="matrix( 0.5624542236328125, 0, 0, 0.5624542236328125, 0,0) ">
<use xlink:href="#Layer0_1_MEMBER_16_FILL"/>
</g>

<g transform="matrix( 0.5624542236328125, 0, 0, 0.5624542236328125, 0,0) ">
<use xlink:href="#Layer0_1_MEMBER_17_FILL"/>
</g>

<g transform="matrix( 0.5624542236328125, 0, 0, 0.5624542236328125, 0,0) ">
<use xlink:href="#Layer0_1_MEMBER_18_FILL"/>
</g>

<g transform="matrix( 0.5624542236328125, 0, 0, 0.5624542236328125, 0,0) ">
<use xlink:href="#Layer0_1_MEMBER_19_FILL"/>
</g>

<g transform="matrix( 0.5624542236328125, 0, 0, 0.5624542236328125, 0,0) ">
<use xlink:href="#Layer0_1_MEMBER_20_FILL"/>
</g>

<g transform="matrix( 0.5624542236328125, 0, 0, 0.5624542236328125, 0,0) ">
<use xlink:href="#Layer0_1_MEMBER_21_FILL"/>
</g>

<g transform="matrix( 0.5625, 0, 0, 0.5625, 0,0) ">
<use xlink:href="#Layer0_2_MEMBER_0_FILL"/>
</g>

<g transform="matrix( 0.5625, 0, 0, 0.5625, 0,0) ">
<use xlink:href="#Layer0_2_MEMBER_1_FILL"/>
</g>

<g transform="matrix( 0.5625, 0, 0, 0.5625, 0,0) ">
<use xlink:href="#Layer0_3_FILL"/>
</g>

<g transform="matrix( 1, 0, 0, 1, 0,0) ">
<use xlink:href="#Layer0_4_MEMBER_0_MEMBER_0_FILL"/>
</g>

<g transform="matrix( 1, 0, 0, 1, 0,0) ">
<use xlink:href="#Layer0_4_MEMBER_0_MEMBER_1_FILL"/>
</g>

<g transform="matrix( 1, 0, 0, 1, 0,0) ">
<use xlink:href="#Layer0_4_MEMBER_1_FILL"/>
</g>

<g transform="matrix( 1, 0, 0, 1, 0,0) ">
<use xlink:href="#Layer0_4_MEMBER_2_FILL"/>
</g>
</g>
</svg>
