
<svg xmlns="http://www.w3.org/2000/svg" version="1.1" xmlns:xlink="http://www.w3.org/1999/xlink" preserveAspectRatio="none" x="0px" y="0px" width="72px" height="72px" viewBox="0 0 72 72">
<defs>
<g id="Layer0_0_MEMBER_0_MEMBER_0_MEMBER_0_FILL">
<path fill="#F1A336" stroke="none" d="
M 127.6 42.3
Q 128.4 37.35 127.55 33.55 126.7 29.5 122.95 27.1 119.3 24.7 114.8 25.05 104.8 25.9 95.65 36.25 83.8 49.75 53.45 90.85 26.7 127.1 13.4 146.6 6.6 156.45 4.45 160.55 0.35 168.35 0 175.35 -0.4 183.55 5.35 187 11.15 190.5 19.7 186.95 25.9 183.95 32.75 176.85 37.2 172.15 43.2 164.25 62.9 137.5 84.35 107.9 114.4 66.3 124.55 51 126.8 47.6 127.6 42.3 Z"/>
</g>

<g id="Layer0_0_MEMBER_0_MEMBER_1_FILL">
<path fill="#FBC21A" stroke="none" d="
M 35.95 123.05
Q 34.15 124.2 33.45 130.3 32.65 137.15 34.9 142.15 36.2 145 38.45 152.7 39.8 157.5 40.9 156.75 42.65 155.6 43.35 149.45 44.15 142.55 41.9 137.55 40.6 134.65 38.4 127.05 37 122.35 35.95 123.05 Z"/>
</g>

<g id="Layer0_0_MEMBER_0_MEMBER_2_FILL">
<path fill="#FBC21A" stroke="none" d="
M 49.55 108.8
Q 48.75 115.65 51 120.65 52.3 123.55 54.5 131.15 55.9 135.9 56.95 135.2 58.75 134 59.45 127.9 60.2 121.05 57.95 116.05 56.7 113.25 54.45 105.55 53.1 100.75 52 101.45 50.25 102.65 49.55 108.8 Z"/>
</g>

<g id="Layer0_0_MEMBER_0_MEMBER_3_FILL">
<path fill="#FBC21A" stroke="none" d="
M 70.55 83.95
Q 69.15 79.2 68.1 79.9 66.3 81.1 65.6 87.2 64.85 94.1 67.1 99.1 68.4 102 70.6 109.65 71.95 114.4 73.05 113.7 74.85 112.5 75.55 106.35 76.35 99.5 74.05 94.5 72.75 91.6 70.55 83.95 Z"/>
</g>

<g id="Layer0_0_MEMBER_0_MEMBER_4_FILL">
<path fill="#FBC21A" stroke="none" d="
M 84.2 58.35
Q 82.4 59.55 81.7 65.65 80.9 72.55 83.15 77.55 84.45 80.4 86.7 88.05 88.05 92.85 89.15 92.1 90.9 90.95 91.6 84.8 92.4 77.95 90.15 72.95 88.85 70.05 86.65 62.4 85.25 57.65 84.2 58.35 Z"/>
</g>

<g id="Layer0_0_MEMBER_0_MEMBER_5_FILL">
<path fill="#FBC21A" stroke="none" d="
M 102.75 40.85
Q 101.35 36.05 100.25 36.75 98.5 37.95 97.8 44.1 97 50.95 99.25 55.95 100.55 58.85 102.75 66.5 104.15 71.25 105.2 70.55 107 69.35 107.7 63.25 108.5 56.35 106.25 51.35 104.95 48.5 102.75 40.85 Z"/>
</g>

<g id="Layer0_0_MEMBER_0_MEMBER_6_FILL">
<path fill="#FBC21A" stroke="none" d="
M 35.95 123.05
Q 34.15 124.2 33.45 130.3 32.65 137.15 34.9 142.15 36.2 145 38.45 152.7 39.8 157.5 40.9 156.75 42.65 155.6 43.35 149.45 44.15 142.55 41.9 137.55 40.6 134.65 38.4 127.05 37 122.35 35.95 123.05 Z"/>
</g>
</defs>

<g id="Layer_1">
<g transform="matrix( 0.4250640869140625, 0.0749359130859375, -0.0749359130859375, 0.4250640869140625, 16.75,-14.05) ">
<use xlink:href="#Layer0_0_MEMBER_0_MEMBER_0_MEMBER_0_FILL"/>
</g>

<g transform="matrix( 0.4250640869140625, 0.0749359130859375, -0.0749359130859375, 0.4250640869140625, 16.75,-14.05) ">
<use xlink:href="#Layer0_0_MEMBER_0_MEMBER_1_FILL"/>
</g>

<g transform="matrix( 0.4250640869140625, 0.0749359130859375, -0.0749359130859375, 0.4250640869140625, 16.75,-14.05) ">
<use xlink:href="#Layer0_0_MEMBER_0_MEMBER_2_FILL"/>
</g>

<g transform="matrix( 0.4250640869140625, 0.0749359130859375, -0.0749359130859375, 0.4250640869140625, 16.75,-14.05) ">
<use xlink:href="#Layer0_0_MEMBER_0_MEMBER_3_FILL"/>
</g>

<g transform="matrix( 0.4250640869140625, 0.0749359130859375, -0.0749359130859375, 0.4250640869140625, 16.75,-14.05) ">
<use xlink:href="#Layer0_0_MEMBER_0_MEMBER_4_FILL"/>
</g>

<g transform="matrix( 0.4250640869140625, 0.0749359130859375, -0.0749359130859375, 0.4250640869140625, 16.75,-14.05) ">
<use xlink:href="#Layer0_0_MEMBER_0_MEMBER_5_FILL"/>
</g>

<g transform="matrix( 0.4250640869140625, 0.0749359130859375, -0.0749359130859375, 0.4250640869140625, 8.35,-6.1) ">
<use xlink:href="#Layer0_0_MEMBER_0_MEMBER_6_FILL"/>
</g>
</g>
</svg>
