
<svg xmlns="http://www.w3.org/2000/svg" version="1.1" xmlns:xlink="http://www.w3.org/1999/xlink" preserveAspectRatio="none" x="0px" y="0px" width="72px" height="72px" viewBox="0 0 72 72">
<defs>
<g id="Layer2_0_FILL">
<path fill="#FCC21B" stroke="none" d="
M 127.85 93.4
Q 127.85 66.4 119.35 46.3 103.75 9.6 64 9.6 24.25 9.6 8.65 46.3 0.1 66.4 0.1 93.4 0.1 103.8 18.8 111.1 37.5 118.45 64 118.45 90.45 118.45 109.15 111.1 127.85 103.8 127.85 93.4 Z"/>
</g>

<g id="Layer2_1_FILL">
<path fill="#2F2F2F" stroke="none" d="
M 96.15 40.45
Q 95.3 41.8 93.7 43 90.6 45.35 86.45 45.35 82.35 45.35 79.2 42.95 76.85 40.55 76.75 40.4 76 39.1 74.45 39.1 73.65 39.1 73.05 39.5 72.1 40.05 71.8 41.15 71.5 42.25 72.05 43.2 72.15 43.35 75.65 47.1 80.35 50.8 86.45 50.8 92.6 50.8 97.25 47.1 99.6 45.25 100.85 43.2 101.4 42.25 101.1 41.15 100.85 40.05 99.85 39.5 98.9 38.95 97.8 39.2 96.7 39.5 96.15 40.45 Z"/>
</g>

<g id="Layer2_2_FILL">
<path fill="#2F2F2F" stroke="none" d="
M 52.3 47.1
Q 54.65 45.25 55.85 43.2 56.45 42.25 56.15 41.15 55.9 40.05 54.9 39.5 53.95 38.9 52.85 39.2 51.75 39.45 51.2 40.45 50.45 41.7 48.85 42.9 45.7 45.35 41.5 45.35 37.35 45.35 34.25 43 31.9 40.55 31.85 40.45 31 39.1 29.45 39.1 28.7 39.1 28.1 39.5 27.15 40.05 26.85 41.15 26.55 42.25 27.1 43.2 27.2 43.35 30.7 47.1 35.35 50.8 41.5 50.8 47.6 50.8 52.3 47.1 Z"/>
</g>

<g id="Layer2_3_FILL">
<path fill="#ED6C30" stroke="none" d="
M 36 35.35
Q 30.65 35.35 25.95 40.6 21.05 46.05 20.1 53.15 19.05 60.45 23.9 62.8 28.7 65.1 36.6 64.95 44.5 64.7 48.75 62.25 52.95 59.75 52.05 52.95 51.05 46.05 46.05 40.6 41.4 35.35 36 35.35 Z"/>
</g>

<g id="Layer1_0_MEMBER_0_FILL">
<path fill="#FCC21B" stroke="none" d="
M 7.75 47.55
Q 5.45 45.6 3.9 47.25 2.4 48.95 4.4 50.65 8.5283203125 53.9984375 10.6 55.25
L 4.75 51.9
Q 2.55 51 1.8 52.95 1.05 54.95 3.65 56.25 4 56.45 6.95 57.8 9.75 59.15 9.75 59.3 9.75 59.4 5 57.15 2.85 56.45 2.2 58.2 1.5 59.95 3.55 61.15 5.65 62.1 11.05 65.4 16.15 68.1 19.35 67.5 25.3 65.9 26.75 60.65 27.8 56.75 26.25 52.85 25.55 51.2 24.15 49.55 23.1 48.35 22.35 47.85 21.05 46.8 19.8 47.8 18.6 48.8 19.2 50.25 20.3 52.85 20.25 52.9 17.3 49.6 15.95 48.1 13.65 45.55 12.5 44.75 10.25 43.05 8.8 44.65 7.45 46.2 8.7 47.55 13.5 52.25 13.65 52.35 14.95 53.55 7.75 47.55 Z"/>
</g>

<g id="Layer1_0_MEMBER_1_FILL">
<path fill="#2F2F2F" stroke="none" d="
M 4.9 45.7
Q 3.8 45.85 3.1 46.6 2.4 47.4 2.4 48.55 2.45 49.75 3.25 50.8 1.4 51.15 0.8 52.7 0.4 53.65 0.8 54.75 1.25 55.85 2.3 56.6 1.45 57.3 1.2 57.85 0.8 58.95 1.25 60.1 1.75 61.3 3 62.05
L 3.1 62.15
Q 4.2 62.6 6.5 64 9.4 65.75 10.55 66.35 15.95 69.2 19.5 68.6
L 19.6 68.6
Q 26.05 66.85 27.7 61.05 28.9 56.85 27.2 52.55 26.5 50.95 24.95 49 23.8 47.7 23 47.15 22.1 46.5 21 46.5 19.95 46.55 19.2 47.15 18.3 47.85 18.15 49.05 14.5 45 13.15 44 11.75 42.8 10.2 42.9 8.9 42.95 8 43.95 7.25 44.85 7.1 46.1 6 45.55 4.9 45.7
M 6.85 48.3
L 6.85 48.25 6.95 48.35
Q 6.9138671875 48.318359375 6.85 48.3 6.99765625 48.4357421875 7.35 48.7
L 12.5 52.95
Q 12.9 53.25 13.1 53.35
L 13.45 53.45 13.7 53.45 14.1 53.35 14.5 52.95 14.65 52.5 14.65 52.25 14.6 52.05 14.5 51.85 11.75 49.2
Q 10.55 48 10.1 47.6
L 9.3 46.8
Q 9.05 46.6 9.1 46.1 9.15 45.6 9.4 45.25 9.8 44.9 10.3 44.9 11 44.9 11.9 45.55 13.25 46.55 19.45 53.6 20.05 54.2 20.65 53.8 21.1 53.6 21.25 53
L 21.25 52.7
Q 21.25 52.45 21.1 52.3
L 20.1 50
Q 19.8 49.1 20.4 48.7 21 48.2 21.7 48.75
L 21.75 48.8
Q 22.3 49.05 23.3 50.3 24.6 51.75 25.25 53.3 26.6 56.85 25.7 60.5 24.35 65.1 19.05 66.65 16.25 67.1 11.45 64.6 10.45 64.05 7.5 62.3 5.244140625 60.9560546875 4 60.4 2.75 59.6 3.05 58.65 3.45 57.8 4.6 58.2
L 4.75 58.25 6.95 59.3
Q 8.15 59.9 8.6 60.05
L 9.15 60.25
Q 9.2 60.35 9.35 60.35
L 9.65 60.4
Q 9.85 60.4 10.1 60.25 10.7 59.95 10.7 59.35 10.7 58.9 10.5 58.7 10.35 58.55 10.3 58.55
L 10.05 58.35 9.35 57.95 4.1 55.5
Q 2.3 54.6 2.75 53.45 3.05 52.45 4.35 52.9
L 10.45 56.35
Q 10.85 56.55 11.2 56.4 11.6 56.3 11.8 55.9 11.95 55.55 11.85 55.15 11.75 54.75 11.4 54.55 10.55 54.05 8.1 52.2 5.95 50.6 5.05 49.85 3.85 48.85 4.6 47.95 5.3330078125 46.9724609375 6.85 48.3 Z"/>
</g>
</defs>

<g id="Layer_1">
<g transform="matrix( 0.5625, 0, 0, 0.5625, 0,0) ">
<use xlink:href="#Layer2_0_FILL"/>
</g>

<g transform="matrix( 0.5433197021484375, 0.14556884765625, 0.14556884765625, -0.5433197021484375, -3.8,37.15) ">
<use xlink:href="#Layer2_1_FILL"/>
</g>

<g transform="matrix( 0.5433197021484375, -0.14556884765625, -0.14556884765625, -0.5433197021484375, 6.3,55.8) ">
<use xlink:href="#Layer2_2_FILL"/>
</g>

<g transform="matrix( 1, 0, 0, 0.9054107666015625, 0,1.75) ">
<use xlink:href="#Layer2_3_FILL"/>
</g>
</g>

<g id="_____1">
<g transform="matrix( -1.182952880859375, 0, 0, 1.1817626953125, 44.6,-15.75) ">
<use xlink:href="#Layer1_0_MEMBER_0_FILL"/>
</g>

<g transform="matrix( -1.182952880859375, 0, 0, 1.1817626953125, 44.6,-15.75) ">
<use xlink:href="#Layer1_0_MEMBER_1_FILL"/>
</g>
</g>

<g id="Camada_3"/>
</svg>
