
<svg xmlns="http://www.w3.org/2000/svg" version="1.1" xmlns:xlink="http://www.w3.org/1999/xlink" preserveAspectRatio="none" x="0px" y="0px" width="72px" height="72px" viewBox="0 0 72 72">
<defs>
<filter id="Filter_1" x="-20%" y="-20%" width="140%" height="140%" color-interpolation-filters="sRGB">
<feColorMatrix in="SourceGraphic" type="matrix" values="1 0 0 0 0 0 1 0 0 0 0 0 1 0 0 0 0 0 0.6 0" result="result1"/>
</filter>

<g id="Layer0_0_MEMBER_0_FILL">
<path fill="#FE9040" stroke="none" d="
M 56.5 95.7
Q 56.35 96.2 56 97.45 55.85 98.2 54.8 101.95 54.05 104.65 53.35 105.9 52.55 107.25 50.8 107.5 50 107.6 47.65 107.45 44.2 107.15 42.5 107.05 39.55 106.85 37.35 107.1 36.3 107.2 35.2 107.55 33.45 108.1 33.45 108.85 33.45 109.4 34.35 109.7 34.85 109.85 35.7 110 36.05 110.1 37.8 110.35 39.1 110.55 39.3 110.85 39.6 111.55 37.7 113.1 36.5 114.2 36.4 114.3 35.5 115.25 35.75 115.8 36.1 116.65 39 116 39.65 115.85 41.2 115.4 42.55 115.1 43.15 115.25 43.85 115.5 42.6 117.35 41.3 119.25 41.65 119.5 42.3 120 43.9 119.6 45.25 119.25 46 118.75 48.5 117.2 49.4 116.55 50.5 115.75 51.9 114.45 53.8 112.8 54.7 111.95 56.25 110.5 57.05 109.1 57.85 107.8 58.25 105.75 58.6 103.4 58.85 102.25 59.8 99.2 60.2 97.7 60.9 95.05 60.3 94.95 57.5 94.35 57 94.65 56.8 94.8 56.5 95.7 Z"/>
</g>

<g id="Layer0_0_MEMBER_1_FILL">
<path fill="#FE9040" stroke="none" d="
M 81.35 96.35
Q 81.3 96.85 81.2 98.2 81.1 100.2 80.85 102.8 80.5 105.9 80.1 107 79.6 108.45 77.9 109.05 77.25 109.25 74.8 109.55 71.4 109.9 69.65 110.1 66.65 110.45 64.6 111.1 63.6 111.4 62.6 111.95 60.95 112.8 61.1 113.55 61.2 114.1 62.15 114.2 62.65 114.25 63.5 114.25 63.7 114.25 65.65 114.2 66.95 114.15 67.2 114.45 67.5 114.85 67.05 115.6 66.8 116 66.05 116.95 65.2 118.05 65 118.35 64.3 119.45 64.65 119.95 65 120.5 66.25 120.15 66.45 120.1 67.9 119.55 68.45 119.3 69.9 118.6 71.2 118 71.8 118.05 72.55 118.2 71.65 120.2 70.7 122.3 71.1 122.5 71.85 122.85 73.35 122.2 74.6 121.6 75.2 121 77.4 119 78.2 118.2 79.15 117.2 80.25 115.65 81.8 113.7 82.55 112.7 83.8 110.95 84.35 109.45 84.85 108.05 84.85 105.95 84.8 103.55 84.85 102.35 85.2 99.25 85.3 97.7 85.55 94.95 84.95 94.95 82.05 94.85 81.65 95.25 81.45 95.45 81.35 96.35 Z"/>
</g>

<g id="Layer0_1_MEMBER_0_FILL">
<path fill="#A7300F" stroke="none" d="
M 60.45 96.55
Q 60.75 95.05 60.3 94.95 57.6 94.35 57 94.65 56.8 94.8 56.5 95.7 56.35 96.2 56 97.45
L 55.9 97.9
Q 57.8 97.9 58.8 98.6 59.4 99.05 59.55 99.8 60.25 97.45 60.45 96.55 Z"/>
</g>

<g id="Layer0_1_MEMBER_1_FILL">
<path fill="#A7300F" stroke="none" d="
M 81.2 98.15
L 81.15 98.95
Q 82.85 98.85 83.85 99.2 84.4 99.4 85.05 100.3 85.35 97.25 85.4 96.65 85.45 94.9 84.95 94.95 82.05 94.85 81.65 95.25 81.45 95.45 81.35 96.35 81.3 96.85 81.2 98.15 Z"/>
</g>

<g id="Layer0_2_FILL">
<path fill="#727F48" stroke="none" d="
M 49.4 42.7
L 49.55 41.85
Q 50 39.55 54.25 29.15 58 20 58.05 15.4 58.1 10.4 53.5 6.6 48.05 2.15 40.55 5.45 33.6 8.55 32.75 15.6 32.35 19.15 33.3 22.05 34.7 25.8 37.5 27.2 38.8 27.85 41.55 28.1 42.9 28.25 42.5 29.25 42.15 30.1 40.9 31.15 36.75 34.6 33.2 38.4 41.95 40 49.4 42.7 Z"/>
</g>

<g id="Layer0_3_FILL">
<path fill="#FFC148" stroke="none" d="
M 37.5 22.4
L 14.95 24.9
Q 18.05 26.4 22 26.7 24 26.85 28 26.7 32.3 26.6 34.6 26.7 36.2 26.8 36.5 26.7 37.25 26.5 37.5 25.25 37.75 24.15 37.8 23.75 37.85 23.1 37.5 22.4 Z"/>
</g>

<g id="Layer0_4_MEMBER_0_FILL">
<path fill="#333333" stroke="none" d="
M 42.95 11.65
Q 41.85 11.65 41.1 12.4 40.3 13.2 40.3 14.3 40.3 15.4 41.1 16.15 41.85 16.95 42.95 16.95 44.05 16.95 44.8 16.15 45.6 15.4 45.6 14.3 45.6 13.2 44.8 12.4 44.05 11.65 42.95 11.65 Z"/>
</g>

<g id="Layer0_4_MEMBER_1_FILL">
<path fill="#FFFFFF" stroke="none" d="
M 42.45 13
Q 41.85 13 41.85 13.65 41.85 14.3 42.45 14.3 43.1 14.3 43.1 13.65 43.1 13 42.45 13 Z"/>
</g>

<g id="Layer0_5_FILL">
<path fill="#7D7D7D" stroke="none" d="
M 115.25 82.35
Q 115 82.05 112.5 80.65 104.95 76.2 94.95 69.5 93.45 68.5 82.9 61.25 73.15 53.95 64.2 50.9 58.2 48.85 54 49 52.05 49.1 51.1 48.7 49.8 48.25 49.4 46.9 42.55 44.6 29.65 42.4 21.3 52.8 20.9 62.45 20.7 67 23.15 72.3 25.9 78.1 31.05 83 43.8 95.1 65.2 96.4 85.3 97.65 100 92.6 107.4 90.1 113.95 85.35 116.35 83.65 115.25 82.35 Z"/>
</g>

<g id="An_1F986_SVG_Layer_1__Path__6_0_Layer0_0_FILL">
<path fill="#7D7D7D" stroke="none" d="
M 88.4 7.25
Q 88.15 6.95 85.65 5.55
L 76.65 0
Q 77.65 1.2 78.1 2.7 79.05 5.65 76.2 7.35 72.9 9.4 63.7 11.8 48.7 15.7 32.5 14.7 12.8 13.55 0 3.2 5.5 10.5 14.45 15.15 24.8 20.5 38.35 21.35 58.5 22.55 73.15 17.55 80.4 15.05 87.1 10.3 89.5 8.55 88.4 7.25 Z"/>
</g>

<g id="Layer0_7_FILL">
<path fill="#FEF3CD" stroke="none" d="
M 49.4 46.9
Q 48.9 45.35 49.4 42.7 42.35 40.15 33.2 38.35 31.1 40.6 29.65 42.4 42.55 44.6 49.4 46.9 Z"/>
</g>

<g id="Layer0_8_FILL">
<path fill="#FE9040" stroke="none" d="
M 29.25 24.95
L 34.2 24.85
Q 34.95 24.9 36.2 24.95 37.1 25.05 37.45 25.55 37.75 24 37.8 24 37.9 23.05 37.5 22.4
L 29.25 24.95 Z"/>
</g>

<g id="Layer0_9_FILL">
<path fill="#FFC148" stroke="none" d="
M 38.05 20.35
Q 35.4 17.7 34.4 15.65 34.1 14.95 33.7 14.55 32.8 13.75 32.05 15.3 30.8 17.95 28.7 19.7 25.65 22.25 21.4 22.1 15.95 22 14.45 22.15 12.4 22.4 12.3 23.5 12.25 24.7 15.3 25.35 18.2 26 21.3 25.7 23.3 25.5 28.9 24.95 34.1 24.3 37 23.15 38.4 22.6 38.55 21.65 38.65 20.9 38.05 20.35 Z"/>
</g>

<g id="Layer0_10_FILL">
<path fill="#885C52" stroke="none" d="
M 96 78.85
Q 86 73.85 82.95 71.95 79.95 70.1 73.2 66.25 64.7 61.4 64.05 61.05 60 58.7 55.35 58.55 49.8 58.45 47.6 62.2 44.85 67.05 46.75 72 49.05 78 57.9 82.1 66.65 86.2 78.1 87.4 86.65 88.35 100.1 87.85 103.1 87.65 104.5 86.25 105.75 85 104.95 83.8 104.45 83.05 96 78.85 Z"/>
</g>

<g id="Layer0_11_FILL">
<path fill="#BB917A" stroke="none" d="
M 94.85 77.35
Q 84.8 70.95 82.95 69.8 79.95 67.95 73.2 64.1 64.45 59.15 64.05 58.9 60 56.55 55.35 56.4 49.8 56.25 47.6 60 44.85 64.85 46.75 69.85 49.05 75.85 57.9 79.95 66.55 83.95 78.3 85.05 86.2 85.75 100.5 85.3 103.2 85.45 104.5 84.8 105.95 84.1 104 83 102.4 82.15 94.85 77.35 Z"/>
</g>

<g id="An_1F986_SVG_Layer_1__Path__0_Layer0_0_FILL">
<path fill="#727F48" stroke="none" d="
M 15.25 0.1
Q 15.05 -0.2 13.35 1.25 11.15 3.1 9.35 3.6 8.05 4 6.45 4.15 4.4 4.4 3.05 4.05 2.05 3.7 1.5 3.6 0.5 3.4 0.35 3.95
L 0.05 5.05
Q -0.05 5.7 0.25 6.15 0.95 7.1 4.75 6.9 8 6.85 10.15 5.85 12.3 4.9 14.1 2.7 15.7 0.65 15.25 0.1 Z"/>
</g>
</defs>

<g id="Layer_1">
<g transform="matrix( 0.5625, 0, 0, 0.5625, 0,0) ">
<use xlink:href="#Layer0_0_MEMBER_0_FILL"/>
</g>

<g transform="matrix( 0.5625, 0, 0, 0.5625, 0,0) ">
<use xlink:href="#Layer0_0_MEMBER_1_FILL"/>
</g>

<g transform="matrix( 0.5625, 0, 0, 0.5625, 0,0) ">
<use xlink:href="#Layer0_1_MEMBER_0_FILL"/>
</g>

<g transform="matrix( 0.5625, 0, 0, 0.5625, 0,0) ">
<use xlink:href="#Layer0_1_MEMBER_1_FILL"/>
</g>

<g transform="matrix( 0.5625, 0, 0, 0.5625, 0,0) ">
<use xlink:href="#Layer0_2_FILL"/>
</g>

<g transform="matrix( 0.5625, 0, 0, 0.5625, 0,0) ">
<use xlink:href="#Layer0_3_FILL"/>
</g>

<g transform="matrix( 0.5625, 0, 0, 0.5625, 0,0) ">
<use xlink:href="#Layer0_4_MEMBER_0_FILL"/>
</g>

<g transform="matrix( 0.5625, 0, 0, 0.5625, 0,0) ">
<use xlink:href="#Layer0_4_MEMBER_1_FILL"/>
</g>

<g transform="matrix( 0.5625, 0, 0, 0.5625, 0,0) ">
<use xlink:href="#Layer0_5_FILL"/>
</g>

<g transform="matrix( 0.5625, 0, 0, 0.5625, 15.1,42.2) ">
<g id="Camada_1">
<g transform="matrix( 1, 0, 0, 1, 0,0) ">
<use filter="url(#Filter_1)" xlink:href="#An_1F986_SVG_Layer_1__Path__6_0_Layer0_0_FILL"/>
</g>
</g>
</g>

<g transform="matrix( 0.5625, 0, 0, 0.5625, 0,0) ">
<use xlink:href="#Layer0_7_FILL"/>
</g>

<g transform="matrix( 0.5625, 0, 0, 0.5625, 0,0) ">
<use xlink:href="#Layer0_8_FILL"/>
</g>

<g transform="matrix( 0.5625, 0, 0, 0.5625, 0,0) ">
<use xlink:href="#Layer0_9_FILL"/>
</g>

<g transform="matrix( 0.5625, 0, 0, 0.5625, 0,0) ">
<use xlink:href="#Layer0_10_FILL"/>
</g>

<g transform="matrix( 0.5625, 0, 0, 0.5625, 0,0) ">
<use xlink:href="#Layer0_11_FILL"/>
</g>

<g transform="matrix( 0.5625, 0, 0, 0.5625, 21.6,11.3) ">
<g transform="matrix( 1, 0, 0, 1, 0,0) ">
<use filter="url(#Filter_1)" xlink:href="#An_1F986_SVG_Layer_1__Path__0_Layer0_0_FILL"/>
</g>
</g>
</g>
</svg>
