
<svg xmlns="http://www.w3.org/2000/svg" version="1.1" xmlns:xlink="http://www.w3.org/1999/xlink" preserveAspectRatio="none" x="0px" y="0px" width="72px" height="72px" viewBox="0 0 72 72">
<defs>
<g id="Layer0_0_FILL">
<path fill="#2F2F2F" stroke="none" d="
M 64.9 21.9
Q 65.25 21.55 65.25 21.05 65.2 20.55 64.85 20.15
L 59.8 15.1
Q 59.45 14.75 58.9 14.75 58.4 14.75 58.05 15.1
L 28.85 44.55
Q 28.5 44.9 28 44.9 27.5 44.9 27.1 44.55
L 13.9 31.45
Q 13.55 31.1 13.05 31.1 12.55 31.1 12.15 31.45
L 7.1 36.5
Q 6.7 36.85 6.7 37.4 6.7 37.9 7.1 38.25
L 27.15 58.2
Q 27.55 58.6 28.05 58.6 28.55 58.6 28.9 58.2
L 64.9 21.9 Z"/>
</g>

<path id="Layer0_0_1_STROKES" stroke="#2F2F2F" stroke-width="2" stroke-linejoin="miter" stroke-linecap="butt" stroke-miterlimit="10" fill="none" d="
M 27.15 58.2
L 7.1 38.25
Q 6.7 37.9 6.7 37.4 6.7 36.85 7.1 36.5
L 12.15 31.45
Q 12.55 31.1 13.05 31.1 13.55 31.1 13.9 31.45
L 27.1 44.55
Q 27.5 44.9 28 44.9 28.5 44.9 28.85 44.55
L 58.05 15.1
Q 58.4 14.75 58.9 14.75 59.45 14.75 59.8 15.1
L 64.85 20.15
Q 65.2 20.55 65.25 21.05 65.25 21.55 64.9 21.9
L 28.9 58.2
Q 28.55 58.6 28.05 58.6 27.55 58.6 27.15 58.2 Z"/>
</defs>

<g id="Layer_1">
<g transform="matrix( 1, 0, 0, 1, 0,0) ">
<use xlink:href="#Layer0_0_FILL"/>

<use xlink:href="#Layer0_0_1_STROKES"/>
</g>
</g>
</svg>
