
<svg xmlns="http://www.w3.org/2000/svg" version="1.1" xmlns:xlink="http://www.w3.org/1999/xlink" preserveAspectRatio="none" x="0px" y="0px" width="72px" height="72px" viewBox="0 0 72 72">
<defs>
<g id="Layer2_0_MEMBER_0_MEMBER_0_FILL">
<path fill="#B39DDB" stroke="none" d="
M 72 6.75
Q 72 4 70 2 68 0 65.25 0
L 6.75 0
Q 3.95 0 2 2 0 4 0 6.75
L 0 65.25
Q 0 68.05 2 70.05 3.95 72 6.75 72
L 65.25 72
Q 68 72 70 70.05 72 68.05 72 65.25
L 72 6.75 Z"/>
</g>

<g id="Layer2_0_MEMBER_0_MEMBER_1_MEMBER_0_FILL">
<path fill="#7E57C2" stroke="none" d="
M 72 6.75
Q 72 3.95 70 2
L 1.95 70.05
Q 3.9 72 6.75 72
L 65.25 72
Q 68 72 70 70.05 72 68.05 72 65.25
L 72 6.75 Z"/>
</g>

<g id="Layer2_0_MEMBER_0_MEMBER_2_FILL">
<path fill="#9575CD" stroke="none" d="
M 63 16.25
Q 63 13.45 61.05 11.5 59.05 9.5 56.25 9.5
L 15.65 9.5
Q 12.9 9.5 10.9 11.5 8.9 13.45 8.9 16.25
L 8.9 56.8
Q 8.9 59.6 10.9 61.6 12.9 63.55 15.65 63.55
L 56.25 63.55
Q 59.05 63.55 61.05 61.6 63 59.6 63 56.8
L 63 16.25 Z"/>
</g>

<g id="Layer0_0_FILL">
<path fill="#FFFFFF" stroke="none" d="
M 150.6 33.35
Q 150 32.75 149.2 32.75
L 121.2 32.75 121.2 2.75
Q 121.2 1.95 120.6 1.35 120 0.75 119.2 0.75
L 108.2 0.75
Q 107.4 0.75 106.8 1.35 106.2 1.95 106.2 2.75
L 106.2 32.75 79.2 32.75
Q 78.35 32.75 77.75 33.35 77.2 33.95 77.2 34.75
L 77.2 45.75
Q 77.2 46.6 77.75 47.15 78.35 47.75 79.2 47.75
L 106.2 47.75 106.2 122.75
Q 106.2 123.6 106.8 124.15 107.4 124.75 108.2 124.75
L 119.2 124.75
Q 120 124.75 120.6 124.15 121.2 123.55 121.2 122.75
L 121.2 47.75 149.2 47.75
Q 150 47.75 150.6 47.15 151.2 46.55 151.2 45.75
L 151.2 34.75
Q 151.2 33.95 150.6 33.35 Z"/>
</g>
</defs>

<g id="Layer_1">
<g transform="matrix( 1, 0, 0, 1, 0,0) ">
<use xlink:href="#Layer2_0_MEMBER_0_MEMBER_0_FILL"/>
</g>

<g transform="matrix( 1, 0, 0, 1, 0,0) ">
<use xlink:href="#Layer2_0_MEMBER_0_MEMBER_1_MEMBER_0_FILL"/>
</g>

<g transform="matrix( 1, 0, 0, 1, 0,0) ">
<use xlink:href="#Layer2_0_MEMBER_0_MEMBER_2_FILL"/>
</g>
</g>

<g transform="matrix( 0.3594512939453125, 0, 0, 0.3592681884765625, -5.05,13.5) ">
<use xlink:href="#Layer0_0_FILL"/>
</g>
</svg>
