
<svg xmlns="http://www.w3.org/2000/svg" version="1.1" xmlns:xlink="http://www.w3.org/1999/xlink" preserveAspectRatio="none" x="0px" y="0px" width="72px" height="72px" viewBox="0 0 72 72">
<defs>
<g id="Layer1_0_MEMBER_0_MEMBER_0_FILL">
<path fill="#007DB6" stroke="none" d="
M 72 6.75
Q 72 4 70 2 68 0 65.25 0
L 6.75 0
Q 3.95 0 2 2 0 4 0 6.75
L 0 65.25
Q 0 68.05 2 70.05 3.95 72 6.75 72
L 65.25 72
Q 68 72 70 70.05 72 68.05 72 65.25
L 72 6.75 Z"/>
</g>

<g id="Layer1_0_MEMBER_0_MEMBER_1_MEMBER_0_FILL">
<path fill="#004D80" stroke="none" d="
M 72 6.75
Q 72 3.95 70 2
L 1.95 70.05
Q 3.9 72 6.75 72
L 65.25 72
Q 68 72 70 70.05 72 68.05 72 65.25
L 72 6.75 Z"/>
</g>

<g id="Layer1_0_MEMBER_0_MEMBER_2_FILL">
<path fill="#006CA2" stroke="none" d="
M 63 16.25
Q 63 13.45 61.05 11.5 59.05 9.5 56.25 9.5
L 15.65 9.5
Q 12.9 9.5 10.9 11.5 8.9 13.45 8.9 16.25
L 8.9 56.8
Q 8.9 59.6 10.9 61.6 12.9 63.55 15.65 63.55
L 56.25 63.55
Q 59.05 63.55 61.05 61.6 63 59.6 63 56.8
L 63 16.25 Z"/>
</g>

<g id="Layer0_0_FILL">
<path fill="#FFFFFF" stroke="none" d="
M 93.65 73.75
Q 93.35 73.45 92.9 73.45
L 80.05 73.45 80.05 26.4 79.95 25.95 79.95 25.9 79.6 25.55 79.5 25.5
Q 79.3 25.35 79 25.35
L 62.6 25.35
Q 62.4 25.35 62.15 25.5
L 62 25.55 61.7 25.85 30.5 73.95 30.5 74 30.35 74.45 30.35 87.7
Q 30.35 88.15 30.65 88.5 31 88.8 31.4 88.8
L 61.5 88.8 61.5 101.95
Q 61.5 102.4 61.85 102.75 62.15 103.05 62.6 103.05
L 79 103.05
Q 79.4 103.05 79.75 102.75 80.05 102.4 80.05 101.95
L 80.05 88.75 92.9 88.75
Q 93.35 88.75 93.65 88.45 93.95 88.15 93.95 87.7
L 93.95 74.5
Q 94 74.1 93.65 73.75
M 49.8 73.45
L 61.5 55.35 61.5 73.45 49.8 73.45 Z"/>
</g>
</defs>

<g id="Layer_1">
<g transform="matrix( 1, 0, 0, 1, 0,0) ">
<use xlink:href="#Layer1_0_MEMBER_0_MEMBER_0_FILL"/>
</g>

<g transform="matrix( 1, 0, 0, 1, 0,0) ">
<use xlink:href="#Layer1_0_MEMBER_0_MEMBER_1_MEMBER_0_FILL"/>
</g>

<g transform="matrix( 1, 0, 0, 1, 0,0) ">
<use xlink:href="#Layer1_0_MEMBER_0_MEMBER_2_FILL"/>
</g>
</g>

<g transform="matrix( 0.522796630859375, 0, 0, 0.52252197265625, 3.55,2.45) ">
<use xlink:href="#Layer0_0_FILL"/>
</g>
</svg>
