
<svg xmlns="http://www.w3.org/2000/svg" version="1.1" xmlns:xlink="http://www.w3.org/1999/xlink" preserveAspectRatio="none" x="0px" y="0px" width="72px" height="72px" viewBox="0 0 72 72">
<defs>
<g id="Layer1_0_MEMBER_0_MEMBER_0_FILL">
<path fill="#007DB6" stroke="none" d="
M 72 6.75
Q 72 4 70 2 68 0 65.25 0
L 6.75 0
Q 3.95 0 2 2 0 4 0 6.75
L 0 65.25
Q 0 68.05 2 70.05 3.95 72 6.75 72
L 65.25 72
Q 68 72 70 70.05 72 68.05 72 65.25
L 72 6.75 Z"/>
</g>

<g id="Layer1_0_MEMBER_0_MEMBER_1_MEMBER_0_FILL">
<path fill="#004D80" stroke="none" d="
M 72 6.75
Q 72 3.95 70 2
L 1.95 70.05
Q 3.9 72 6.75 72
L 65.25 72
Q 68 72 70 70.05 72 68.05 72 65.25
L 72 6.75 Z"/>
</g>

<g id="Layer1_0_MEMBER_0_MEMBER_2_FILL">
<path fill="#006CA2" stroke="none" d="
M 63 16.25
Q 63 13.45 61.05 11.5 59.05 9.5 56.25 9.5
L 15.65 9.5
Q 12.9 9.5 10.9 11.5 8.9 13.45 8.9 16.25
L 8.9 56.8
Q 8.9 59.6 10.9 61.6 12.9 63.55 15.65 63.55
L 56.25 63.55
Q 59.05 63.55 61.05 61.6 63 59.6 63 56.8
L 63 16.25 Z"/>
</g>

<g id="Layer0_0_FILL">
<path fill="#FFFFFF" stroke="none" d="
M 87.7 25.15
Q 87.35 24.85 86.9 24.85
L 44.2 24.85 43.65 25 43.45 25.15 43.35 25.3 43.2 25.45 43.1 25.85 39.25 68.95
Q 39.25 69.6 39.65 69.85 39.9 70.1 40.35 70.1
L 40.6 70.1 40.85 70
Q 47.5 69.2 52.45 69.2 65.3 69.2 69.15 73.45 70.85 75.3 70.55 78.1 70.15 82.1 66.4 83.9 63.6 85.25 59.05 85.25 54.3 85.25 49.1 83.8 44.4 82.5 41.45 80.65 41.05 80.35 40.5 80.55 40.05 80.7 39.9 81.2
L 35.75 94.1
Q 35.5 94.9 36.2 95.3 36.45 95.45 44.3 99.35 53.6 103.2 61.8 103.2 65.85 103.2 69.55 102.2 74.05 100.95 77.9 98.7 83.4 95.45 86.6 90.65 89.1 86.9 89.9 82.5 90.7 78.1 89.75 73.6 88.7 68.65 85.7 64.45 82.7 60.2 78.1 57.25 70.95 53.1 59.7 52.5
L 60.75 40.45 86.9 40.45
Q 87.35 40.45 87.7 40.15 88 39.8 88 39.35
L 88 25.9
Q 88 25.45 87.7 25.15 Z"/>
</g>
</defs>

<g id="Layer_1">
<g transform="matrix( 1, 0, 0, 1, 0,0) ">
<use xlink:href="#Layer1_0_MEMBER_0_MEMBER_0_FILL"/>
</g>

<g transform="matrix( 1, 0, 0, 1, 0,0) ">
<use xlink:href="#Layer1_0_MEMBER_0_MEMBER_1_MEMBER_0_FILL"/>
</g>

<g transform="matrix( 1, 0, 0, 1, 0,0) ">
<use xlink:href="#Layer1_0_MEMBER_0_MEMBER_2_FILL"/>
</g>
</g>

<g transform="matrix( 0.5178680419921875, 0, 0, 0.5181884765625, 3.4,2.8) ">
<use xlink:href="#Layer0_0_FILL"/>
</g>
</svg>
