
<svg xmlns="http://www.w3.org/2000/svg" version="1.1" xmlns:xlink="http://www.w3.org/1999/xlink" preserveAspectRatio="none" x="0px" y="0px" width="72px" height="72px" viewBox="0 0 72 72">
<defs>
<g id="Layer2_0_MEMBER_0_MEMBER_0_FILL">
<path fill="#007DB6" stroke="none" d="
M 72 6.75
Q 72 4 70 2 68 0 65.25 0
L 6.75 0
Q 3.95 0 2 2 0 4 0 6.75
L 0 65.25
Q 0 68.05 2 70.05 3.95 72 6.75 72
L 65.25 72
Q 68 72 70 70.05 72 68.05 72 65.25
L 72 6.75 Z"/>
</g>

<g id="Layer2_0_MEMBER_0_MEMBER_1_MEMBER_0_FILL">
<path fill="#004D80" stroke="none" d="
M 72 6.75
Q 72 3.95 70 2
L 1.95 70.05
Q 3.9 72 6.75 72
L 65.25 72
Q 68 72 70 70.05 72 68.05 72 65.25
L 72 6.75 Z"/>
</g>

<g id="Layer2_0_MEMBER_0_MEMBER_2_FILL">
<path fill="#006CA2" stroke="none" d="
M 63 16.25
Q 63 13.45 61.05 11.5 59.05 9.5 56.25 9.5
L 15.65 9.5
Q 12.9 9.5 10.9 11.5 8.9 13.45 8.9 16.25
L 8.9 56.8
Q 8.9 59.6 10.9 61.6 12.9 63.55 15.65 63.55
L 56.25 63.55
Q 59.05 63.55 61.05 61.6 63 59.6 63 56.8
L 63 16.25 Z"/>
</g>

<g id="Layer0_0_FILL">
<path fill="#FFFFFF" stroke="none" d="
M 93.75 78.6
Q 93.75 67.1 85.2 59.65 76.7 52.15 63.6 52.15 60.4 52.15 57.2 52.7 61.4 45.4 68.25 39.1 71.65 35.95 74.3 34.25 74.7 33.95 74.8 33.5 74.8 32.95 74.5 32.65
L 64.45 22.35
Q 63.85 21.85 63.2 22.15 59.55 24.05 55.15 27.65 46.45 34.85 41 44.4 36.7 51.9 34.75 59.3 32 69.8 33.55 81.25
L 33.9 83.55 34.5 85.9
Q 37.05 94.55 44.85 99.75 52.8 105 63.6 105 76.7 105 85.25 97.55 93.75 90.1 93.75 78.6
M 63.6 67.4
Q 68.75 67.4 72.1 70.55 75.45 73.75 75.45 78.6 75.45 83.45 72.1 86.6 68.75 89.8 63.6 89.8 58.45 89.8 55.1 86.6 51.75 83.45 51.75 78.6 51.75 73.7 55.1 70.55 58.45 67.4 63.6 67.4 Z"/>
</g>
</defs>

<g id="Layer_1">
<g transform="matrix( 1, 0, 0, 1, 0,0) ">
<use xlink:href="#Layer2_0_MEMBER_0_MEMBER_0_FILL"/>
</g>

<g transform="matrix( 1, 0, 0, 1, 0,0) ">
<use xlink:href="#Layer2_0_MEMBER_0_MEMBER_1_MEMBER_0_FILL"/>
</g>

<g transform="matrix( 1, 0, 0, 1, 0,0) ">
<use xlink:href="#Layer2_0_MEMBER_0_MEMBER_2_FILL"/>
</g>
</g>

<g transform="matrix( 0.4897003173828125, 0, 0, 0.4894561767578125, 5,4.9) ">
<use xlink:href="#Layer0_0_FILL"/>
</g>
</svg>
