
<svg xmlns="http://www.w3.org/2000/svg" version="1.1" xmlns:xlink="http://www.w3.org/1999/xlink" preserveAspectRatio="none" x="0px" y="0px" width="72px" height="72px" viewBox="0 0 72 72">
<defs>
<g id="Layer2_0_MEMBER_0_MEMBER_0_FILL">
<path fill="#007DB6" stroke="none" d="
M 72 6.75
Q 72 4 70 2 68 0 65.25 0
L 6.75 0
Q 3.95 0 2 2 0 4 0 6.75
L 0 65.25
Q 0 68.05 2 70.05 3.95 72 6.75 72
L 65.25 72
Q 68 72 70 70.05 72 68.05 72 65.25
L 72 6.75 Z"/>
</g>

<g id="Layer2_0_MEMBER_0_MEMBER_1_MEMBER_0_FILL">
<path fill="#004D80" stroke="none" d="
M 72 6.75
Q 72 3.95 70 2
L 1.95 70.05
Q 3.9 72 6.75 72
L 65.25 72
Q 68 72 70 70.05 72 68.05 72 65.25
L 72 6.75 Z"/>
</g>

<g id="Layer2_0_MEMBER_0_MEMBER_2_FILL">
<path fill="#006CA2" stroke="none" d="
M 63 16.25
Q 63 13.45 61.05 11.5 59.05 9.5 56.25 9.5
L 15.65 9.5
Q 12.9 9.5 10.9 11.5 8.9 13.45 8.9 16.25
L 8.9 56.8
Q 8.9 59.6 10.9 61.6 12.9 63.55 15.65 63.55
L 56.25 63.55
Q 59.05 63.55 61.05 61.6 63 59.6 63 56.8
L 63 16.25 Z"/>
</g>

<g id="Layer0_0_FILL">
<path fill="#FFFFFF" stroke="none" d="
M 88.5 69.45
Q 86.1 64.65 81.65 61.25 84.75 58.3 86.45 54.4 88.15 50.4 88.15 45.9 88.15 36.15 80.95 29.85 73.7 23.5 62.6 23.5 51.45 23.5 44.25 29.85 37.05 36.15 37.05 45.9 37.05 55.05 43.55 61.25 39.1 64.65 36.7 69.45 34.2 74.4 34.2 80.15 34.2 90.95 42.25 98 50.25 105 62.6 105 74.95 105 82.95 98 91 90.95 91 80.15 91 74.4 88.5 69.45
M 69.8 39.1
Q 72.65 41.8 72.65 45.9 72.65 49.8 70.05 52.45 67.45 55.05 63.35 55.3
L 62.6 55.25 61.85 55.3
Q 57.75 55.05 55.2 52.45 52.55 49.8 52.55 45.9 52.55 41.8 55.4 39.1 58.25 36.4 62.6 36.4 66.95 36.4 69.8 39.1
M 62.6 69.6
Q 67.45 69.6 70.6 72.6 73.75 75.6 73.75 80.15 73.75 84.7 70.6 87.7 67.45 90.65 62.6 90.65 57.75 90.65 54.6 87.7 51.45 84.7 51.45 80.15 51.45 75.6 54.6 72.6 57.75 69.6 62.6 69.6 Z"/>
</g>
</defs>

<g id="Layer_1">
<g transform="matrix( 1, 0, 0, 1, 0,0) ">
<use xlink:href="#Layer2_0_MEMBER_0_MEMBER_0_FILL"/>
</g>

<g transform="matrix( 1, 0, 0, 1, 0,0) ">
<use xlink:href="#Layer2_0_MEMBER_0_MEMBER_1_MEMBER_0_FILL"/>
</g>

<g transform="matrix( 1, 0, 0, 1, 0,0) ">
<use xlink:href="#Layer2_0_MEMBER_0_MEMBER_2_FILL"/>
</g>
</g>

<g transform="matrix( 0.49822998046875, 0, 0, 0.4981536865234375, 4.8,4) ">
<use xlink:href="#Layer0_0_FILL"/>
</g>
</svg>
