
<svg xmlns="http://www.w3.org/2000/svg" version="1.1" xmlns:xlink="http://www.w3.org/1999/xlink" preserveAspectRatio="none" x="0px" y="0px" width="72px" height="72px" viewBox="0 0 72 72">
<defs>
<g id="Layer1_0_MEMBER_0_MEMBER_0_FILL">
<path fill="#EF5250" stroke="none" d="
M 70 2
Q 68 0 65.25 0
L 6.75 0
Q 3.95 0 2 2 0 4 0 6.75
L 0 65.25
Q 0 68.05 2 70.05 3.95 72 6.75 72
L 65.25 72
Q 68 72 70 70.05 72 68.05 72 65.25
L 72 6.75
Q 72 4 70 2 Z"/>
</g>

<g id="Layer1_0_MEMBER_0_MEMBER_1_MEMBER_0_FILL">
<path fill="#C62728" stroke="none" d="
M 72 6.75
Q 72 3.95 70 2
L 1.95 70.05
Q 3.9 72 6.75 72
L 65.25 72
Q 68 72 70 70.05 72 68.05 72 65.25
L 72 6.75 Z"/>
</g>

<g id="Layer1_0_MEMBER_0_MEMBER_2_FILL">
<path fill="#E53835" stroke="none" d="
M 61.05 11.5
Q 59.05 9.5 56.25 9.5
L 15.65 9.5
Q 12.9 9.5 10.9 11.5 8.9 13.45 8.9 16.25
L 8.9 56.8
Q 8.9 59.6 10.9 61.6 12.9 63.55 15.65 63.55
L 56.25 63.55
Q 59.05 63.55 61.05 61.6 63 59.6 63 56.8
L 63 16.25
Q 63 13.45 61.05 11.5 Z"/>
</g>

<g id="Layer0_0_FILL">
<path fill="#FFFFFF" stroke="none" d="
M 97.55 43.35
Q 97.55 32 88.6 23.95 79.7 15.9 67.05 15.9
L 32.55 15.9
Q 31.7 15.9 31.1 16.5 30.5 17.1 30.5 17.95
L 30.5 109.95
Q 30.5 110.8 31.1 111.4 31.7 112 32.55 112
L 71.4 112
Q 84 112 92.95 103.95 101.9 95.9 101.9 84.55 101.9 77.8 98.4 71.85 95.05 66.1 89.2 62.25 93.15 58.45 95.3 53.7 97.55 48.7 97.55 43.35
M 52.9 34.3
L 65.65 34.3
Q 69.5 34.3 72.2 37.15 74.9 40 74.9 44 74.9 48 72.2 50.9 69.45 53.75 65.65 53.75
L 52.9 53.75
Q 52.6 53.75 52.5 53.45
L 52.45 53.25 52.45 34.75 52.5 34.6
Q 52.6 34.3 52.9 34.3
M 66.4 71.75
L 66.8 71.8
Q 70.95 72 73.85 75.25 76.75 78.5 76.75 83 76.7 87.55 73.8 90.8 70.95 94.05 66.8 94.2
L 66.4 94.25 53 94.25 52.9 94.2
Q 52.5 94.1 52.5 93.8
L 52.5 72.25
Q 52.5 71.9 52.9 71.8
L 53 71.75 66.4 71.75 Z"/>
</g>
</defs>

<g id="Layer_1">
<g transform="matrix( 1, 0, 0, 1, 0,0) ">
<use xlink:href="#Layer1_0_MEMBER_0_MEMBER_0_FILL"/>
</g>

<g transform="matrix( 1, 0, 0, 1, 0,0) ">
<use xlink:href="#Layer1_0_MEMBER_0_MEMBER_1_MEMBER_0_FILL"/>
</g>

<g transform="matrix( 1, 0, 0, 1, 0,0) ">
<use xlink:href="#Layer1_0_MEMBER_0_MEMBER_2_FILL"/>
</g>
</g>

<g transform="matrix( 0.422271728515625, 0, 0, 0.4224700927734375, 8,9) ">
<use xlink:href="#Layer0_0_FILL"/>
</g>
</svg>
