
<svg xmlns="http://www.w3.org/2000/svg" version="1.1" xmlns:xlink="http://www.w3.org/1999/xlink" preserveAspectRatio="none" x="0px" y="0px" width="72px" height="72px" viewBox="0 0 72 72">
<defs>
<g id="Layer1_0_MEMBER_0_MEMBER_0_FILL">
<path fill="#B39DDB" stroke="none" d="
M 72 6.75
Q 72 4 70 2 68 0 65.25 0
L 6.75 0
Q 3.95 0 2 2 0 4 0 6.75
L 0 65.25
Q 0 68.05 2 70.05 3.95 72 6.75 72
L 65.25 72
Q 68 72 70 70.05 72 68.05 72 65.25
L 72 6.75 Z"/>
</g>

<g id="Layer1_0_MEMBER_0_MEMBER_1_MEMBER_0_FILL">
<path fill="#7E57C2" stroke="none" d="
M 72 6.75
Q 72 3.95 70 2
L 1.95 70.05
Q 3.9 72 6.75 72
L 65.25 72
Q 68 72 70 70.05 72 68.05 72 65.25
L 72 6.75 Z"/>
</g>

<g id="Layer1_0_MEMBER_0_MEMBER_2_FILL">
<path fill="#9575CD" stroke="none" d="
M 63 16.25
Q 63 13.45 61.05 11.5 59.05 9.5 56.25 9.5
L 15.65 9.5
Q 12.9 9.5 10.9 11.5 8.9 13.45 8.9 16.25
L 8.9 56.8
Q 8.9 59.6 10.9 61.6 12.9 63.55 15.65 63.55
L 56.25 63.55
Q 59.05 63.55 61.05 61.6 63 59.6 63 56.8
L 63 16.25 Z"/>
</g>

<g id="Layer0_0_MEMBER_0_MEMBER_0_FILL">
<path fill="#FFFFFF" stroke="none" d="
M 104.5 38.05
Q 106.8 38.05 108.05 36.1 108.95 34.65 108.55 32.95 108.15 31.3 106.7 30.4
L 75.45 11.2
Q 70.6 8.2 63.85 8.2 57.15 8.2 52.25 11.2
L 21 30.4
Q 19.55 31.3 19.15 32.95 18.75 34.65 19.65 36.1 20.55 37.55 22.2 37.95 23.9 38.35 25.35 37.45
L 56.6 18.25
Q 59.55 16.45 63.85 16.45 68.2 16.45 71.1 18.25
L 102.35 37.45
Q 103.4 38.05 104.5 38.05 Z"/>
</g>

<g id="Layer0_0_MEMBER_0_MEMBER_1_FILL">
<path fill="#FFFFFF" stroke="none" d="
M 83.6 93.7
Q 85.65 93.2 86.95 91.35 88.25 89.45 88 87.3 86.45 79.05 85.25 74.6 83.6 68.65 80.95 62.35 79.85 59.3 77.2 57.3 74.35 55.2 71.6 55.9
L 66.9 57.1
Q 63.8 57.9 62.65 61.3 61.65 64.25 62.45 67.45 63.8 72.55 64.95 79 66.5 87.5 67.6 92.4 68.05 94.55 69.55 95.65 71.15 96.8 73.15 96.3
L 83.6 93.7 Z"/>
</g>

<g id="Layer0_0_MEMBER_0_MEMBER_2_FILL">
<path fill="#FFFFFF" stroke="none" d="
M 69.75 64.95
L 65.65 57.6 48.75 66.9
Q 47.25 67.75 46.75 69.45 46.3 71.1 47.1 72.65 47.95 74.2 49.65 74.7 51.3 75.15 52.85 74.3
L 69.75 64.95 Z"/>
</g>

<g id="Layer0_0_MEMBER_0_MEMBER_3_FILL">
<path fill="#FFFFFF" stroke="none" d="
M 36.65 58.25
Q 36.5 60 37.6 61.35
L 47.55 73.35 54.1 67.9 44.15 55.95
Q 43.05 54.6 41.3 54.45 39.55 54.3 38.15 55.4 36.8 56.55 36.65 58.25 Z"/>
</g>

<g id="Layer0_0_MEMBER_0_MEMBER_4_FILL">
<path fill="#FFFFFF" stroke="none" d="
M 56.15 117.6
Q 57.55 119.05 59.55 119.05
L 85.85 119.05
Q 87.85 119.05 89.25 117.6 90.7 116.2 90.7 114.2 90.7 112.2 89.25 110.75 87.85 109.3 85.8 109.3
L 59.55 109.3
Q 57.55 109.3 56.1 110.75 54.7 112.15 54.7 114.2 54.7 116.2 56.15 117.6 Z"/>
</g>

<g id="Layer0_0_MEMBER_0_MEMBER_5_FILL">
<path fill="#FFFFFF" stroke="none" d="
M 85.75 89.4
Q 83.45 87.8 82.4 86.9 80.9 85.6 78.9 85.8 76.85 85.95 75.55 87.5
L 67.8 93.25 55.8 111.05
Q 54.5 112.6 54.7 114.6 54.85 116.65 56.4 117.9 57.95 119.2 60 119.05 61.95 118.85 63.25 117.3
L 86.25 92.2
Q 87.35 90.9 85.75 89.4 Z"/>
</g>

<g id="Layer0_0_MEMBER_0_MEMBER_6_FILL">
<path fill="#FFFFFF" stroke="none" d="
M 64.1 30.9
Q 59.3 30.9 55.95 34.3 52.55 37.65 52.55 42.45 52.55 47.25 55.95 50.65 59.3 54.05 64.1 54.05 68.9 54.05 72.3 50.65 75.7 47.25 75.7 42.45 75.7 37.65 72.3 34.3 68.9 30.9 64.1 30.9 Z"/>
</g>
</defs>

<g id="Layer_1">
<g transform="matrix( 1, 0, 0, 1, 0,0) ">
<use xlink:href="#Layer1_0_MEMBER_0_MEMBER_0_FILL"/>
</g>

<g transform="matrix( 1, 0, 0, 1, 0,0) ">
<use xlink:href="#Layer1_0_MEMBER_0_MEMBER_1_MEMBER_0_FILL"/>
</g>

<g transform="matrix( 1, 0, 0, 1, 0,0) ">
<use xlink:href="#Layer1_0_MEMBER_0_MEMBER_2_FILL"/>
</g>
</g>

<g transform="matrix( 0.4024810791015625, 0, 0, 0.401885986328125, 10.3,10.45) ">
<use xlink:href="#Layer0_0_MEMBER_0_MEMBER_0_FILL"/>
</g>

<g transform="matrix( 0.4024810791015625, 0, 0, 0.401885986328125, 10.3,10.45) ">
<use xlink:href="#Layer0_0_MEMBER_0_MEMBER_1_FILL"/>
</g>

<g transform="matrix( 0.4024810791015625, 0, 0, 0.401885986328125, 10.3,10.45) ">
<use xlink:href="#Layer0_0_MEMBER_0_MEMBER_2_FILL"/>
</g>

<g transform="matrix( 0.4024810791015625, 0, 0, 0.401885986328125, 10.3,10.45) ">
<use xlink:href="#Layer0_0_MEMBER_0_MEMBER_3_FILL"/>
</g>

<g transform="matrix( 0.4024810791015625, 0, 0, 0.401885986328125, 10.3,10.45) ">
<use xlink:href="#Layer0_0_MEMBER_0_MEMBER_4_FILL"/>
</g>

<g transform="matrix( 0.4024810791015625, 0, 0, 0.401885986328125, 10.3,10.45) ">
<use xlink:href="#Layer0_0_MEMBER_0_MEMBER_5_FILL"/>
</g>

<g transform="matrix( 0.4024810791015625, 0, 0, 0.401885986328125, 10.3,10.45) ">
<use xlink:href="#Layer0_0_MEMBER_0_MEMBER_6_FILL"/>
</g>
</svg>
