
<svg xmlns="http://www.w3.org/2000/svg" version="1.1" xmlns:xlink="http://www.w3.org/1999/xlink" preserveAspectRatio="none" x="0px" y="0px" width="72px" height="72px" viewBox="0 0 72 72">
<defs>
<g id="Layer1_0_MEMBER_0_MEMBER_0_FILL">
<path fill="#007DB6" stroke="none" d="
M 72 6.75
Q 72 4 70 2 68 0 65.25 0
L 6.75 0
Q 3.95 0 2 2 0 4 0 6.75
L 0 65.25
Q 0 68.05 2 70.05 3.95 72 6.75 72
L 65.25 72
Q 68 72 70 70.05 72 68.05 72 65.25
L 72 6.75 Z"/>
</g>

<g id="Layer1_0_MEMBER_0_MEMBER_1_MEMBER_0_FILL">
<path fill="#004D80" stroke="none" d="
M 72 6.75
Q 72 3.95 70 2
L 1.95 70.05
Q 3.9 72 6.75 72
L 65.25 72
Q 68 72 70 70.05 72 68.05 72 65.25
L 72 6.75 Z"/>
</g>

<g id="Layer1_0_MEMBER_0_MEMBER_2_FILL">
<path fill="#006CA2" stroke="none" d="
M 63 16.25
Q 63 13.45 61.05 11.5 59.05 9.5 56.25 9.5
L 15.65 9.5
Q 12.9 9.5 10.9 11.5 8.9 13.45 8.9 16.25
L 8.9 56.8
Q 8.9 59.6 10.9 61.6 12.9 63.55 15.65 63.55
L 56.25 63.55
Q 59.05 63.55 61.05 61.6 63 59.6 63 56.8
L 63 16.25 Z"/>
</g>

<g id="Layer1_1_MEMBER_0_FILL">
<path fill="#FFFFFF" stroke="none" d="
M 64.9 21.9
Q 65.25 21.55 65.25 21.05 65.2 20.55 64.85 20.15
L 59.8 15.1
Q 59.45 14.75 58.9 14.75 58.4 14.75 58.05 15.1
L 28.85 44.55
Q 28.5 44.9 28 44.9 27.5 44.9 27.1 44.55
L 13.9 31.45
Q 13.55 31.1 13.05 31.1 12.55 31.1 12.15 31.45
L 7.1 36.5
Q 6.7 36.85 6.7 37.4 6.7 37.9 7.1 38.25
L 27.15 58.2
Q 27.55 58.6 28.05 58.6 28.55 58.6 28.9 58.2
L 64.9 21.9 Z"/>
</g>

<path id="Layer1_1_MEMBER_0_1_STROKES" stroke="#FFFFFF" stroke-width="2" stroke-linejoin="miter" stroke-linecap="butt" stroke-miterlimit="10" fill="none" d="
M 29.876364135742186 50.89818725585938
L 15.973284912109374 37.06749420166015
Q 15.695916748046876 36.824850463867186 15.695916748046876 36.478216552734374 15.695916748046876 36.096919250488284 15.973284912109374 35.85427551269531
L 19.475057983398436 32.35327301025391
Q 19.752426147460938 32.11062927246094 20.099136352539062 32.11062927246094 20.445846557617188 32.11062927246094 20.688543701171874 32.35327301025391
L 29.841693115234378 41.435081481933594
Q 30.119061279296876 41.67772521972656 30.465771484375 41.67772521972656 30.812481689453126 41.67772521972656 31.055178833007815 41.435081481933594
L 51.30305480957031 21.01834411621094
Q 51.545751953125006 20.77570037841797 51.89246215820313 20.77570037841797 52.27384338378907 20.77570037841797 52.51654052734375 21.01834411621094
L 56.018313598632815 24.519346618652342
Q 56.26101074218751 24.796653747558594 56.29568176269531 25.143287658691406 56.29568176269531 25.48992156982422 56.05298461914063 25.732565307617186
L 31.089849853515624 50.89818725585938
Q 30.847152709960938 51.17549438476563 30.500442504882812 51.17549438476563 30.153732299804688 51.17549438476563 29.876364135742186 50.89818725585938 Z"/>
</defs>

<g id="Layer_1">
<g transform="matrix( 1, 0, 0, 1, 0,0) ">
<use xlink:href="#Layer1_0_MEMBER_0_MEMBER_0_FILL"/>
</g>

<g transform="matrix( 1, 0, 0, 1, 0,0) ">
<use xlink:href="#Layer1_0_MEMBER_0_MEMBER_1_MEMBER_0_FILL"/>
</g>

<g transform="matrix( 1, 0, 0, 1, 0,0) ">
<use xlink:href="#Layer1_0_MEMBER_0_MEMBER_2_FILL"/>
</g>

<g transform="matrix( 0.69342041015625, 0, 0, 0.693267822265625, 11.05,10.55) ">
<use xlink:href="#Layer1_1_MEMBER_0_FILL"/>

<use xlink:href="#Layer1_1_MEMBER_0_1_STROKES" transform="matrix( 1.4421234130859375, 0, 0, 1.44244384765625, -15.9,-15.2) "/>
</g>
</g>
</svg>
