
<svg xmlns="http://www.w3.org/2000/svg" version="1.1" xmlns:xlink="http://www.w3.org/1999/xlink" preserveAspectRatio="none" x="0px" y="0px" width="72px" height="72px" viewBox="0 0 72 72">
<defs>
<g id="Layer1_0_MEMBER_0_MEMBER_0_FILL">
<path fill="#B39DDB" stroke="none" d="
M 72 6.75
Q 72 4 70 2 68 0 65.25 0
L 6.75 0
Q 3.95 0 2 2 0 4 0 6.75
L 0 65.25
Q 0 68.05 2 70.05 3.95 72 6.75 72
L 65.25 72
Q 68 72 70 70.05 72 68.05 72 65.25
L 72 6.75 Z"/>
</g>

<g id="Layer1_0_MEMBER_0_MEMBER_1_MEMBER_0_FILL">
<path fill="#7E57C2" stroke="none" d="
M 72 6.75
Q 72 3.95 70 2
L 1.95 70.05
Q 3.9 72 6.75 72
L 65.25 72
Q 68 72 70 70.05 72 68.05 72 65.25
L 72 6.75 Z"/>
</g>

<g id="Layer1_0_MEMBER_0_MEMBER_2_FILL">
<path fill="#9575CD" stroke="none" d="
M 63 16.25
Q 63 13.45 61.05 11.5 59.05 9.5 56.25 9.5
L 15.65 9.5
Q 12.9 9.5 10.9 11.5 8.9 13.45 8.9 16.25
L 8.9 56.8
Q 8.9 59.6 10.9 61.6 12.9 63.55 15.65 63.55
L 56.25 63.55
Q 59.05 63.55 61.05 61.6 63 59.6 63 56.8
L 63 16.25 Z"/>
</g>

<g id="Layer0_0_FILL">
<path fill="#FFFFFF" stroke="none" d="
M 90.5 7.5
Q 90.5 18.5 82.75 26.25 74.95 34 64 34 53 34 45.25 26.25 37.45 18.5 37.45 7.5
L 19.75 7.5
Q 19.75 18.15 24.6 27.6 29.25 36.7 37.5 42.9 29.25 49.1 24.6 58.2 19.75 67.65 19.75 78.3 19.75 96.6 32.7 109.6 45.65 122.55 64 122.55 82.3 122.55 95.3 109.6 108.25 96.6 108.25 78.3 108.25 67.65 103.4 58.2 98.7 49.1 90.45 42.9 98.7 36.7 103.4 27.6 108.25 18.15 108.25 7.5
L 90.5 7.5
M 90.5 78.3
Q 90.5 89.25 82.75 97.05 74.95 104.8 64 104.8 53 104.8 45.25 97.05 37.45 89.25 37.45 78.3 37.45 67.3 45.25 59.55 53 51.75 64 51.75 74.95 51.75 82.75 59.55 90.5 67.3 90.5 78.3 Z"/>
</g>
</defs>

<g id="Layer_1">
<g transform="matrix( 1, 0, 0, 1, 0,0) ">
<use xlink:href="#Layer1_0_MEMBER_0_MEMBER_0_FILL"/>
</g>

<g transform="matrix( 1, 0, 0, 1, 0,0) ">
<use xlink:href="#Layer1_0_MEMBER_0_MEMBER_1_MEMBER_0_FILL"/>
</g>

<g transform="matrix( 1, 0, 0, 1, 0,0) ">
<use xlink:href="#Layer1_0_MEMBER_0_MEMBER_2_FILL"/>
</g>
</g>

<g transform="matrix( 0.3531036376953125, 0, 0, 0.3528900146484375, 13.45,13.05) ">
<use xlink:href="#Layer0_0_FILL"/>
</g>
</svg>
