
<svg xmlns="http://www.w3.org/2000/svg" version="1.1" xmlns:xlink="http://www.w3.org/1999/xlink" preserveAspectRatio="none" x="0px" y="0px" width="72px" height="72px" viewBox="0 0 72 72">
<defs>
<g id="Layer1_0_MEMBER_0_MEMBER_0_FILL">
<path fill="#B39DDB" stroke="none" d="
M 72 6.75
Q 72 4 70 2 68 0 65.25 0
L 6.75 0
Q 3.95 0 2 2 0 4 0 6.75
L 0 65.25
Q 0 68.05 2 70.05 3.95 72 6.75 72
L 65.25 72
Q 68 72 70 70.05 72 68.05 72 65.25
L 72 6.75 Z"/>
</g>

<g id="Layer1_0_MEMBER_0_MEMBER_1_MEMBER_0_FILL">
<path fill="#7E57C2" stroke="none" d="
M 72 6.75
Q 72 3.95 70 2
L 1.95 70.05
Q 3.9 72 6.75 72
L 65.25 72
Q 68 72 70 70.05 72 68.05 72 65.25
L 72 6.75 Z"/>
</g>

<g id="Layer1_0_MEMBER_0_MEMBER_2_FILL">
<path fill="#9575CD" stroke="none" d="
M 63 16.25
Q 63 13.45 61.05 11.5 59.05 9.5 56.25 9.5
L 15.65 9.5
Q 12.9 9.5 10.9 11.5 8.9 13.45 8.9 16.25
L 8.9 56.8
Q 8.9 59.6 10.9 61.6 12.9 63.55 15.65 63.55
L 56.25 63.55
Q 59.05 63.55 61.05 61.6 63 59.6 63 56.8
L 63 16.25 Z"/>
</g>

<g id="Layer0_0_MEMBER_0_FILL">
<path fill="#FFFFFF" stroke="none" d="
M 48.4 28.9
Q 43.95 28.9 40.8 32.05 37.65 35.2 37.65 39.65 37.65 42.4 39 44.8 40.25 47.15 42.4 48.6 39.25 49.45 36.05 49.45 30.35 49.45 24.3 47.6 19.4 45.8 19.35 45.75
L 16.3 51.95
Q 16.95 52.25 18.05 52.7 20.05 53.5 22.3 54.2 29.3 56.3 36.05 56.3 45.15 56.3 51.9 51.9 59.15 47.1 59.15 39.65 59.15 35.2 56 32.05 52.85 28.9 48.4 28.9
M 45.65 36.9
Q 46.8 35.75 48.4 35.75 50 35.75 51.15 36.9 52.3 38.05 52.3 39.65 52.3 41.25 51.15 42.4 50 43.55 48.4 43.55 46.8 43.55 45.65 42.4 44.55 41.25 44.55 39.65 44.55 38.05 45.65 36.9 Z"/>
</g>

<g id="Layer0_0_MEMBER_1_FILL">
<path fill="#FFFFFF" stroke="none" d="
M 115.05 27.6
Q 108.75 24.5 99.55 21.7 81.4 16.2 63.95 16.2 40.45 16.2 23.05 27.6 4.2 40 4.2 59.25 4.2 70.75 12.35 78.95 20.5 87.1 32 87.1 43.5 87.1 51.65 78.95 59.8 70.75 59.8 59.25 59.8 52.2 56.45 46 53.15 39.95 47.5 36.15 55.75 33.95 63.95 33.95 78.65 33.95 94.3 38.7 102.15 41.05 107.15 43.5
L 115.05 27.6
M 39.15 66.4
Q 36.15 69.35 32 69.35 27.85 69.35 24.9 66.4 21.95 63.4 21.95 59.25 21.95 55.1 24.9 52.15 27.85 49.2 32 49.2 36.15 49.2 39.15 52.15 42.1 55.1 42.1 59.25 42.1 63.4 39.15 66.4 Z"/>
</g>
</defs>

<g id="Layer_1">
<g transform="matrix( 1, 0, 0, 1, 0,0) ">
<use xlink:href="#Layer1_0_MEMBER_0_MEMBER_0_FILL"/>
</g>

<g transform="matrix( 1, 0, 0, 1, 0,0) ">
<use xlink:href="#Layer1_0_MEMBER_0_MEMBER_1_MEMBER_0_FILL"/>
</g>

<g transform="matrix( 1, 0, 0, 1, 0,0) ">
<use xlink:href="#Layer1_0_MEMBER_0_MEMBER_2_FILL"/>
</g>
</g>

<g transform="matrix( 0.8789215087890625, 0, 0, 0.8780670166015625, 4.35,4.4) ">
<use xlink:href="#Layer0_0_MEMBER_0_FILL"/>
</g>

<g transform="matrix( 0.339996337890625, 0, 0, 0.3396759033203125, 14.25,12.65) ">
<use xlink:href="#Layer0_0_MEMBER_1_FILL"/>
</g>
</svg>
