
<svg xmlns="http://www.w3.org/2000/svg" version="1.1" xmlns:xlink="http://www.w3.org/1999/xlink" preserveAspectRatio="none" x="0px" y="0px" width="72px" height="72px" viewBox="0 0 72 72">
<defs>
<g id="Layer2_0_MEMBER_0_MEMBER_0_FILL">
<path fill="#B39DDB" stroke="none" d="
M 72 6.75
Q 72 4 70 2 68 0 65.25 0
L 6.75 0
Q 3.95 0 2 2 0 4 0 6.75
L 0 65.25
Q 0 68.05 2 70.05 3.95 72 6.75 72
L 65.25 72
Q 68 72 70 70.05 72 68.05 72 65.25
L 72 6.75 Z"/>
</g>

<g id="Layer2_0_MEMBER_0_MEMBER_1_MEMBER_0_FILL">
<path fill="#7E57C2" stroke="none" d="
M 72 6.75
Q 72 3.95 70 2
L 1.95 70.05
Q 3.9 72 6.75 72
L 65.25 72
Q 68 72 70 70.05 72 68.05 72 65.25
L 72 6.75 Z"/>
</g>

<g id="Layer2_0_MEMBER_0_MEMBER_2_FILL">
<path fill="#9575CD" stroke="none" d="
M 63 16.25
Q 63 13.45 61.05 11.5 59.05 9.5 56.25 9.5
L 15.65 9.5
Q 12.9 9.5 10.9 11.5 8.9 13.45 8.9 16.25
L 8.9 56.8
Q 8.9 59.6 10.9 61.6 12.9 63.55 15.65 63.55
L 56.25 63.55
Q 59.05 63.55 61.05 61.6 63 59.6 63 56.8
L 63 16.25 Z"/>
</g>

<g id="Layer0_0_FILL">
<path fill="#FFFFFF" stroke="none" d="
M 83.15 24.1
Q 89.35 29.25 89.35 39.15 89.35 44.3 88.1 49.6 86.9 54.95 84 62.3 79.9 72.8 78.45 84.6 77.35 93.5 78 99.95 79.15 111.3 86.75 118.65 94.35 126 104.9 126 113.2 126 119.95 121.45
L 110.05 106.7
Q 107.7 108.3 104.9 108.3 100.95 108.3 98.35 105.05 96.05 102.25 95.65 98.2 95.2 93.45 96.1 86.5 97.25 77.15 100.55 68.75 104.05 59.85 105.55 52.9 107.1 46 107.1 39.15 107.1 22.75 96.7 12.4 86.3 2 69.9 2 54.55 2 43.65 12.9 32.75 23.75 32.75 39.05 32.75 45.2 34.8 52.55 23.7 52.65 15.85 60.5 8 68.4 8 79.5 8 90.65 15.9 98.55 23.8 106.45 34.95 106.45 46.1 106.45 53.95 98.55 61.85 90.65 61.85 79.5 61.85 67.65 55.15 55.7 52.25 50.6 51.1 44.45 50.5 39.25 50.5 39.15 50.5 31.15 56.2 25.45 61.9 19.75 69.9 19.75 77.95 19.75 83.15 24.1
M 28.45 73
Q 31.15 70.3 34.95 70.3 38.75 70.3 41.4 73 44.1 75.7 44.1 79.5 44.15 83.3 41.45 86 38.75 88.7 34.95 88.7 31.15 88.7 28.45 86 25.75 83.3 25.75 79.5 25.75 75.7 28.45 73 Z"/>
</g>
</defs>

<g id="Layer_1">
<g transform="matrix( 1, 0, 0, 1, 0,0) ">
<use xlink:href="#Layer2_0_MEMBER_0_MEMBER_0_FILL"/>
</g>

<g transform="matrix( 1, 0, 0, 1, 0,0) ">
<use xlink:href="#Layer2_0_MEMBER_0_MEMBER_1_MEMBER_0_FILL"/>
</g>

<g transform="matrix( 1, 0, 0, 1, 0,0) ">
<use xlink:href="#Layer2_0_MEMBER_0_MEMBER_2_FILL"/>
</g>
</g>

<g transform="matrix( 0.3273773193359375, 0, 0, 0.327423095703125, 15.1,15.05) ">
<use xlink:href="#Layer0_0_FILL"/>
</g>
</svg>
