
<svg xmlns="http://www.w3.org/2000/svg" version="1.1" xmlns:xlink="http://www.w3.org/1999/xlink" preserveAspectRatio="none" x="0px" y="0px" width="72px" height="72px" viewBox="0 0 72 72">
<defs>
<g id="Layer1_0_MEMBER_0_MEMBER_0_FILL">
<path fill="#B39DDB" stroke="none" d="
M 72 6.75
Q 72 4 70 2 68 0 65.25 0
L 6.75 0
Q 3.95 0 2 2 0 4 0 6.75
L 0 65.25
Q 0 68.05 2 70.05 3.95 72 6.75 72
L 65.25 72
Q 68 72 70 70.05 72 68.05 72 65.25
L 72 6.75 Z"/>
</g>

<g id="Layer1_0_MEMBER_0_MEMBER_1_MEMBER_0_FILL">
<path fill="#7E57C2" stroke="none" d="
M 72 6.75
Q 72 3.95 70 2
L 1.95 70.05
Q 3.9 72 6.75 72
L 65.25 72
Q 68 72 70 70.05 72 68.05 72 65.25
L 72 6.75 Z"/>
</g>

<g id="Layer1_0_MEMBER_0_MEMBER_2_FILL">
<path fill="#9575CD" stroke="none" d="
M 63 16.25
Q 63 13.45 61.05 11.5 59.05 9.5 56.25 9.5
L 15.65 9.5
Q 12.9 9.5 10.9 11.5 8.9 13.45 8.9 16.25
L 8.9 56.8
Q 8.9 59.6 10.9 61.6 12.9 63.55 15.65 63.55
L 56.25 63.55
Q 59.05 63.55 61.05 61.6 63 59.6 63 56.8
L 63 16.25 Z"/>
</g>

<g id="Layer0_0_FILL">
<path fill="#FFFFFF" stroke="none" d="
M 87.65 86.15
Q 85.5 84 85.5 80.95
L 85.5 30.4
Q 85.5 20.05 78.15 12.7 70.8 5.35 60.45 5.35 55.9 5.35 51.7 6.95 47.55 8.5 44.25 11.3 37.2 5.35 28.05 5.35 17.7 5.35 10.35 12.7 3 20.05 3 30.4
L 3 84.45 20.75 84.45 20.75 30.4
Q 20.75 27.35 22.9 25.2 25 23.05 28.05 23.05 31.1 23.05 33.25 25.2 35.4 27.35 35.4 30.4
L 35.4 84.45 53.15 84.45 53.15 30.4
Q 53.15 27.35 55.3 25.2 57.45 23.05 60.45 23.05 63.5 23.05 65.65 25.2 67.8 27.35 67.8 30.4
L 67.8 80.95
Q 67.8 91.35 75.15 98.7 82.5 106.05 92.85 106.05
L 99.45 106.05 99.45 122.7 125 97.15 99.4 71.6 99.4 88.3 92.85 88.3
Q 89.8 88.3 87.65 86.15 Z"/>
</g>
</defs>

<g id="Layer_1">
<g transform="matrix( 1, 0, 0, 1, 0,0) ">
<use xlink:href="#Layer1_0_MEMBER_0_MEMBER_0_FILL"/>
</g>

<g transform="matrix( 1, 0, 0, 1, 0,0) ">
<use xlink:href="#Layer1_0_MEMBER_0_MEMBER_1_MEMBER_0_FILL"/>
</g>

<g transform="matrix( 1, 0, 0, 1, 0,0) ">
<use xlink:href="#Layer1_0_MEMBER_0_MEMBER_2_FILL"/>
</g>
</g>

<g transform="matrix( 0.332794189453125, 0, 0, 0.332763671875, 14.7,14.7) ">
<use xlink:href="#Layer0_0_FILL"/>
</g>
</svg>
