
<svg xmlns="http://www.w3.org/2000/svg" version="1.1" xmlns:xlink="http://www.w3.org/1999/xlink" preserveAspectRatio="none" x="0px" y="0px" width="72px" height="72px" viewBox="0 0 72 72">
<defs>
<g id="Layer1_0_MEMBER_0_MEMBER_0_FILL">
<path fill="#B39DDB" stroke="none" d="
M 72 6.75
Q 72 4 70 2 68 0 65.25 0
L 6.75 0
Q 3.95 0 2 2 0 4 0 6.75
L 0 65.25
Q 0 68.05 2 70.05 3.95 72 6.75 72
L 65.25 72
Q 68 72 70 70.05 72 68.05 72 65.25
L 72 6.75 Z"/>
</g>

<g id="Layer1_0_MEMBER_0_MEMBER_1_MEMBER_0_FILL">
<path fill="#7E57C2" stroke="none" d="
M 72 6.75
Q 72 3.95 70 2
L 1.95 70.05
Q 3.9 72 6.75 72
L 65.25 72
Q 68 72 70 70.05 72 68.05 72 65.25
L 72 6.75 Z"/>
</g>

<g id="Layer1_0_MEMBER_0_MEMBER_2_FILL">
<path fill="#9575CD" stroke="none" d="
M 63 16.25
Q 63 13.45 61.05 11.5 59.05 9.5 56.25 9.5
L 15.65 9.5
Q 12.9 9.5 10.9 11.5 8.9 13.45 8.9 16.25
L 8.9 56.8
Q 8.9 59.6 10.9 61.6 12.9 63.55 15.65 63.55
L 56.25 63.55
Q 59.05 63.55 61.05 61.6 63 59.6 63 56.8
L 63 16.25 Z"/>
</g>

<g id="Layer0_0_FILL">
<path fill="#FFFFFF" stroke="none" d="
M 112.6 60.45
Q 104 51.85 91.85 51.85 85.2 51.85 79.1 54.85
L 79.1 37.85
Q 79.1 25.6 70.4 16.9 61.75 8.2 49.5 8.2 43.3 8.2 37.7 10.7 32.25 13.05 28.15 17.35 24 13.05 18.6 10.7 12.95 8.2 6.8 8.2
L 6.8 24.75
Q 12.2 24.75 16.05 28.6 19.85 32.45 19.85 37.85
L 19.85 81.2 36.4 81.2 36.4 37.85
Q 36.4 32.45 40.25 28.6 44.1 24.75 49.5 24.75 54.9 24.75 58.75 28.6 62.55 32.45 62.55 37.85
L 62.55 92.2
Q 62.55 97.6 58.75 101.45 54.9 105.25 49.5 105.25
L 49.5 121.85
Q 57.95 121.85 65.1 117.35 72.05 113 75.8 105.7 83.1 110.5 91.85 110.5 104 110.5 112.6 101.9 121.2 93.3 121.2 81.2 121.15 69.05 112.6 60.45
M 100.85 90.2
Q 97.15 93.95 91.85 93.95 86.55 93.95 82.85 90.2 79.1 86.5 79.1 81.2 79.1 75.9 82.85 72.2 86.55 68.45 91.85 68.45 97.15 68.45 100.85 72.2 104.6 75.9 104.6 81.2 104.6 86.5 100.85 90.2 Z"/>
</g>
</defs>

<g id="Layer_1">
<g transform="matrix( 1, 0, 0, 1, 0,0) ">
<use xlink:href="#Layer1_0_MEMBER_0_MEMBER_0_FILL"/>
</g>

<g transform="matrix( 1, 0, 0, 1, 0,0) ">
<use xlink:href="#Layer1_0_MEMBER_0_MEMBER_1_MEMBER_0_FILL"/>
</g>

<g transform="matrix( 1, 0, 0, 1, 0,0) ">
<use xlink:href="#Layer1_0_MEMBER_0_MEMBER_2_FILL"/>
</g>
</g>

<g transform="matrix( 0.354888916015625, 0, 0, 0.3550262451171875, 13.3,12.95) ">
<use xlink:href="#Layer0_0_FILL"/>
</g>
</svg>
