
<svg xmlns="http://www.w3.org/2000/svg" version="1.1" xmlns:xlink="http://www.w3.org/1999/xlink" preserveAspectRatio="none" x="0px" y="0px" width="72px" height="72px" viewBox="0 0 72 72">
<defs>
<g id="Layer0_0_MEMBER_0_FILL">
<path fill="#E53935" stroke="none" d="
M 47.2 5.05
Q 44.4 5.9 41.15 7.95 34.75 12.05 31.15 18.65 24 31.95 30.2 52.35 35.25 68.8 33.8 80.75 33.1 86.75 31.3 89.5 30.7 90.35 31.35 91.15 31.8 91.7 32.5 91.7
L 33 91.6
Q 39 89.2 43.7 82.35 53.05 68.7 47.3 46.25 42 25.55 44.55 14.55 45.8 9.05 48.2 7.65 48.7 7.45 48.9 6.9 49.1 6.4 48.9 5.9 48.7 5.4 48.2 5.15 47.75 4.9 47.2 5.05 Z"/>
</g>

<g id="Layer0_0_MEMBER_1_FILL">
<path fill="#E53935" stroke="none" d="
M 67.05 7.95
Q 60.65 12.05 57.05 18.65 49.9 32 56.1 52.35 61.15 68.8 59.7 80.75 58.95 86.75 57.2 89.5 56.6 90.4 57.25 91.15 57.65 91.7 58.35 91.7
L 58.85 91.6
Q 64.85 89.2 69.55 82.35 78.95 68.7 73.2 46.25 67.9 25.55 70.45 14.55 71.7 9.05 74.05 7.65 74.55 7.45 74.8 6.9 75 6.4 74.75 5.9 74.55 5.4 74.05 5.15 73.6 4.9 73.05 5.05 70.3 5.9 67.05 7.95 Z"/>
</g>

<g id="Layer0_0_MEMBER_2_FILL">
<path fill="#E53935" stroke="none" d="
M 92.9 7.95
Q 86.5 12.05 82.9 18.65 75.75 31.95 81.95 52.35 87 68.75 85.55 80.7 84.85 86.7 83.05 89.5 82.45 90.35 83.1 91.15 83.55 91.7 84.25 91.7
L 84.75 91.6
Q 90.75 89.2 95.45 82.35 104.85 68.7 99.1 46.25 93.8 25.55 96.3 14.55 97.6 9.05 99.95 7.65 100.45 7.45 100.65 6.9 100.85 6.4 100.65 5.9 100.45 5.4 99.95 5.15 99.5 4.9 98.95 5.05 96.15 5.9 92.9 7.95 Z"/>
</g>

<g id="Layer0_0_MEMBER_3_FILL">
<path fill="#E53935" stroke="none" d="
M 114.4 76.3
Q 114.4 88.8 99.65 97.65 84.85 106.5 64 106.5 43.1 106.5 28.35 97.65 13.55 88.8 13.55 76.3 13.55 70.95 17 65.4 18.85 62.45 17.1 61.1 15.4 59.7 13.15 61.55 7.1 66.45 3.9 72.2 0.6 78.15 0.6 84.5 0.6 100.5 19.15 111.75 37.7 123.05 64 123.05 90.25 123.05 108.8 111.75 127.35 100.5 127.35 84.5 127.35 78.15 124.05 72.2 120.85 66.45 114.8 61.55 112.6 59.7 110.85 61.1 109.1 62.45 110.95 65.4 114.4 70.95 114.4 76.3 Z"/>
</g>
</defs>

<g id="Layer_1">
<g transform="matrix( 0.5625, 0, 0, 0.5625, 0,0) ">
<use xlink:href="#Layer0_0_MEMBER_0_FILL"/>
</g>

<g transform="matrix( 0.5625, 0, 0, 0.5625, 0,0) ">
<use xlink:href="#Layer0_0_MEMBER_1_FILL"/>
</g>

<g transform="matrix( 0.5625, 0, 0, 0.5625, 0,0) ">
<use xlink:href="#Layer0_0_MEMBER_2_FILL"/>
</g>

<g transform="matrix( 0.5625, 0, 0, 0.5625, 0,0) ">
<use xlink:href="#Layer0_0_MEMBER_3_FILL"/>
</g>
</g>
</svg>
