
<svg xmlns="http://www.w3.org/2000/svg" version="1.1" xmlns:xlink="http://www.w3.org/1999/xlink" preserveAspectRatio="none" x="0px" y="0px" width="72px" height="72px" viewBox="0 0 72 72">
<defs>
<g id="Layer1_0_MEMBER_0_MEMBER_0_FILL">
<path fill="#007DB6" stroke="none" d="
M 72 6.75
Q 72 4 70 2 68 0 65.25 0
L 6.75 0
Q 3.95 0 2 2 0 4 0 6.75
L 0 65.25
Q 0 68.05 2 70.05 3.95 72 6.75 72
L 65.25 72
Q 68 72 70 70.05 72 68.05 72 65.25
L 72 6.75 Z"/>
</g>

<g id="Layer1_0_MEMBER_0_MEMBER_1_MEMBER_0_FILL">
<path fill="#004D80" stroke="none" d="
M 72 6.75
Q 72 3.95 70 2
L 1.95 70.05
Q 3.9 72 6.75 72
L 65.25 72
Q 68 72 70 70.05 72 68.05 72 65.25
L 72 6.75 Z"/>
</g>

<g id="Layer1_0_MEMBER_0_MEMBER_2_FILL">
<path fill="#006CA2" stroke="none" d="
M 63 16.25
Q 63 13.45 61.05 11.5 59.05 9.5 56.25 9.5
L 15.65 9.5
Q 12.9 9.5 10.9 11.5 8.9 13.45 8.9 16.25
L 8.9 56.8
Q 8.9 59.6 10.9 61.6 12.9 63.55 15.65 63.55
L 56.25 63.55
Q 59.05 63.55 61.05 61.6 63 59.6 63 56.8
L 63 16.25 Z"/>
</g>

<g id="Layer0_0_MEMBER_0_FILL">
<path fill="#FFFFFF" stroke="none" d="
M 49.9 34.3
Q 49.1 33.3 47.35 33.4
L 39.5 33.85 43.3 29.75
Q 44.6 28.35 44.7 26.6 44.75 24.9 43.1 24.2
L 33.15 18.25
Q 32.25 17.7 31.2 17.65 30.3 17.8 29.45 18.55
L 24.15 23.3
Q 23.45 23.9 23.5 25.15 23.6 26.35 24.5 27.05 25.85 28.15 27.6 26.7
L 31.6 23.05 34.95 25.1 29.15 31.75 41.4 38.6 45.25 38.4 44.55 48.5
Q 44.7 50.5 47.05 50.5 49.35 50.5 49.45 48.2
L 50.3 36.85
Q 50.65 35.3 49.9 34.3 Z"/>
</g>

<g id="Layer0_0_MEMBER_1_FILL">
<path fill="#FFFFFF" stroke="none" d="
M 23 43.95
Q 23 41.25 24.6 39.2
L 21.45 36.05
Q 18.6 39.4 18.6 43.95 18.6 49.1 22.25 52.7 25.8 56.3 30.95 56.3 35.5 56.3 38.85 53.45
L 35.75 50.35
Q 33.65 51.9 30.95 51.9 27.65 51.9 25.35 49.6 23.75 48 23.25 46 23 45 23 43.95
M 38.65 34.3
Q 35.4 31.65 30.95 31.65 26.5 31.65 23.25 34.3 23.2 34.35 23.15 34.4
L 26.3 37.55
Q 28.3 36.05 30.95 36.05 34.25 36.05 36.55 38.35 38.9 40.65 38.9 43.95 38.9 45 38.65 46 38.3 47.45 37.4 48.65
L 40.55 51.8
Q 43.3 48.5 43.3 43.95 43.3 38.85 39.7 35.25 39.2 34.75 38.65 34.3 Z"/>
</g>

<g id="Layer0_0_MEMBER_2_FILL">
<path fill="#FFFFFF" stroke="none" d="
M 45.2 23.95
Q 46.9 23.95 48.1 22.7 49.3 21.55 49.3 19.8 49.3 18.1 48.1 16.9 46.9 15.7 45.2 15.7 43.5 15.7 42.25 16.9 41.05 18.1 41.05 19.8 41.05 21.55 42.25 22.7 43.5 23.95 45.2 23.95 Z"/>
</g>

<path id="Layer0_0_MEMBER_1_1_STROKES" stroke="#006CA2" stroke-width="1.25" stroke-linejoin="round" stroke-linecap="round" fill="none" d="
M 43.3 43.95
Q 43.3 48.5 40.55 51.8
L 37.4 48.65
Q 38.3 47.45 38.65 46 38.9 45 38.9 43.95 38.9 40.65 36.55 38.35 34.25 36.05 30.95 36.05 28.3 36.05 26.3 37.55
L 23.15 34.4
Q 23.2 34.35 23.25 34.3 26.5 31.65 30.95 31.65 35.4 31.65 38.65 34.3 39.2 34.75 39.7 35.25 43.3 38.85 43.3 43.95 Z
M 22.25 52.7
Q 25.8 56.3 30.95 56.3 35.5 56.3 38.85 53.45
L 35.75 50.35
Q 33.65 51.9 30.95 51.9 27.65 51.9 25.35 49.6 23.75 48 23.25 46 23 45 23 43.95 23 41.25 24.6 39.2
L 21.45 36.05
Q 18.6 39.4 18.6 43.95 18.6 49.1 22.25 52.7 Z"/>
</defs>

<g id="Layer_1">
<g transform="matrix( 1, 0, 0, 1, 0,0) ">
<use xlink:href="#Layer1_0_MEMBER_0_MEMBER_0_FILL"/>
</g>

<g transform="matrix( 1, 0, 0, 1, 0,0) ">
<use xlink:href="#Layer1_0_MEMBER_0_MEMBER_1_MEMBER_0_FILL"/>
</g>

<g transform="matrix( 1, 0, 0, 1, 0,0) ">
<use xlink:href="#Layer1_0_MEMBER_0_MEMBER_2_FILL"/>
</g>
</g>

<g transform="matrix( 0.9848175048828125, 0.1736297607421875, -0.1736297607421875, 0.9848175048828125, 8.2,-5.9) ">
<use xlink:href="#Layer0_0_MEMBER_0_FILL"/>
</g>

<g transform="matrix( 1, 0, 0, 1, 0.1,-1.15) ">
<use xlink:href="#Layer0_0_MEMBER_1_FILL"/>

<use xlink:href="#Layer0_0_MEMBER_1_1_STROKES"/>
</g>

<g transform="matrix( 0.9848175048828125, 0.1736297607421875, -0.1736297607421875, 0.9848175048828125, 8.2,-5.9) ">
<use xlink:href="#Layer0_0_MEMBER_2_FILL"/>
</g>
</svg>
