
<svg xmlns="http://www.w3.org/2000/svg" version="1.1" xmlns:xlink="http://www.w3.org/1999/xlink" preserveAspectRatio="none" x="0px" y="0px" width="72px" height="72px" viewBox="0 0 72 72">
<defs>
<g id="Layer2_0_MEMBER_0_MEMBER_0_FILL">
<path fill="#B39DDB" stroke="none" d="
M 72 6.75
Q 72 4 70 2 68 0 65.25 0
L 6.75 0
Q 3.95 0 2 2 0 4 0 6.75
L 0 65.25
Q 0 68.05 2 70.05 3.95 72 6.75 72
L 65.25 72
Q 68 72 70 70.05 72 68.05 72 65.25
L 72 6.75 Z"/>
</g>

<g id="Layer2_0_MEMBER_0_MEMBER_1_MEMBER_0_FILL">
<path fill="#7E57C2" stroke="none" d="
M 72 6.75
Q 72 3.95 70 2
L 1.95 70.05
Q 3.9 72 6.75 72
L 65.25 72
Q 68 72 70 70.05 72 68.05 72 65.25
L 72 6.75 Z"/>
</g>

<g id="Layer2_0_MEMBER_0_MEMBER_2_FILL">
<path fill="#9575CD" stroke="none" d="
M 63 16.25
Q 63 13.45 61.05 11.5 59.05 9.5 56.25 9.5
L 15.65 9.5
Q 12.9 9.5 10.9 11.5 8.9 13.45 8.9 16.25
L 8.9 56.8
Q 8.9 59.6 10.9 61.6 12.9 63.55 15.65 63.55
L 56.25 63.55
Q 59.05 63.55 61.05 61.6 63 59.6 63 56.8
L 63 16.25 Z"/>
</g>

<g id="Layer0_0_MEMBER_0_FILL">
<path fill="#FFFFFF" stroke="none" d="
M 89.3 64
Q 89.3 39 82.8 20.7 75.6 0.45 64 0.45 52.3 0.45 45.15 20.7 38.65 38.95 38.65 64 38.65 89.1 45.15 107.35 52.3 127.6 64 127.6 75.6 127.6 82.8 107.35 89.3 89.05 89.3 64
M 64 8.45
Q 70.05 8.45 75.35 23.35 81.3 40 81.3 64 81.3 88.05 75.35 104.7 70.05 119.6 64 119.6 57.95 119.6 52.6 104.7 46.65 88.05 46.65 64 46.65 39.95 52.6 23.35 57.95 8.45 64 8.45 Z"/>
</g>

<g id="Layer0_0_MEMBER_1_FILL">
<path fill="#FFFFFF" stroke="none" d="
M 120.3 42.1
Q 121.45 36.5 119 32.25 113.2 22.15 92.1 26.05 73 29.6 51.3 42.1 40.7 48.2 31.8 55.25 22.95 62.35 16.9 69.45 9.15 78.55 7.65 85.95 6.45 91.55 8.95 95.8 13.1 103.05 25.65 103.05 35.9 103.05 49.95 98.25 63.35 93.65 76.65 85.95 87.3 79.85 96.15 72.8 105 65.7 111 58.6 118.75 49.5 120.3 42.1
M 102.25 32.95
Q 110.15 32.95 112.1 36.25 113.5 38.65 111.55 43.3 109.65 47.9 104.95 53.45 99.35 60.05 91.05 66.65 82.7 73.25 72.65 79.05 51.85 91.05 34.45 94.2 18.9 97.05 15.85 91.8 14.45 89.35 16.4 84.75 18.3 80.15 23 74.6 28.6 68 36.9 61.4 45.25 54.85 55.3 49 69.3 40.95 82.4 36.7 93.95 32.95 102.25 32.95 Z"/>
</g>

<g id="Layer0_0_MEMBER_2_FILL">
<path fill="#FFFFFF" stroke="none" d="
M 119 95.8
Q 121.45 91.55 120.3 85.95 118.75 78.55 111 69.45 105 62.35 96.15 55.3 87.25 48.2 76.65 42.1 54.95 29.6 35.85 26.05 14.75 22.15 8.95 32.25 6.5 36.5 7.65 42.1 9.2 49.5 16.9 58.6 22.95 65.75 31.8 72.8 40.7 79.85 51.3 85.95 64.6 93.65 78 98.25 92.05 103.05 102.3 103.05 114.85 103.05 119 95.8
M 91.05 61.4
Q 99.4 68 104.95 74.6 109.65 80.15 111.55 84.75 113.5 89.35 112.1 91.8 109.05 97.05 93.5 94.2 76.1 91.05 55.3 79.05 45.25 73.25 36.9 66.65 28.6 60.05 23 53.45 18.3 47.9 16.4 43.3 14.45 38.65 15.85 36.25 17.8 32.95 25.7 32.95 34.05 32.95 45.6 36.7 58.65 40.95 72.65 49 82.7 54.85 91.05 61.4 Z"/>
</g>

<g id="Layer0_0_MEMBER_3_FILL">
<path fill="#FFFFFF" stroke="none" d="
M 64 56.1
Q 60.7 56.1 58.4 58.4 56.05 60.75 56.05 64 56.05 67.3 58.4 69.65 60.7 71.95 64 71.95 67.25 71.95 69.6 69.65 71.9 67.3 71.9 64 71.9 60.75 69.6 58.4 67.25 56.1 64 56.1 Z"/>
</g>
</defs>

<g id="Layer_1">
<g transform="matrix( 1, 0, 0, 1, 0,0) ">
<use xlink:href="#Layer2_0_MEMBER_0_MEMBER_0_FILL"/>
</g>

<g transform="matrix( 1, 0, 0, 1, 0,0) ">
<use xlink:href="#Layer2_0_MEMBER_0_MEMBER_1_MEMBER_0_FILL"/>
</g>

<g transform="matrix( 1, 0, 0, 1, 0,0) ">
<use xlink:href="#Layer2_0_MEMBER_0_MEMBER_2_FILL"/>
</g>
</g>

<g transform="matrix( 0.3192291259765625, 0, 0, 0.319305419921875, 15.6,15.55) ">
<use xlink:href="#Layer0_0_MEMBER_0_FILL"/>
</g>

<g transform="matrix( 0.3192291259765625, 0, 0, 0.319305419921875, 15.6,15.55) ">
<use xlink:href="#Layer0_0_MEMBER_1_FILL"/>
</g>

<g transform="matrix( 0.3192291259765625, 0, 0, 0.319305419921875, 15.6,15.55) ">
<use xlink:href="#Layer0_0_MEMBER_2_FILL"/>
</g>

<g transform="matrix( 0.3192291259765625, 0, 0, 0.319305419921875, 15.6,15.55) ">
<use xlink:href="#Layer0_0_MEMBER_3_FILL"/>
</g>
</svg>
