
<svg xmlns="http://www.w3.org/2000/svg" version="1.1" xmlns:xlink="http://www.w3.org/1999/xlink" preserveAspectRatio="none" x="0px" y="0px" width="72px" height="72px" viewBox="0 0 72 72">
<defs>
<g id="Layer0_0_MEMBER_0_MEMBER_0_FILL">
<path fill="#B39DDB" stroke="none" d="
M 72 6.75
Q 72 4 70 2 68 0 65.25 0
L 6.75 0
Q 3.95 0 2 2 0 4 0 6.75
L 0 65.25
Q 0 68.05 2 70.05 3.95 72 6.75 72
L 65.25 72
Q 68 72 70 70.05 72 68.05 72 65.25
L 72 6.75 Z"/>
</g>

<g id="Layer0_0_MEMBER_0_MEMBER_1_MEMBER_0_FILL">
<path fill="#7E57C2" stroke="none" d="
M 72 6.75
Q 72 3.95 70 2
L 1.95 70.05
Q 3.9 72 6.75 72
L 65.25 72
Q 68 72 70 70.05 72 68.05 72 65.25
L 72 6.75 Z"/>
</g>

<g id="Layer0_0_MEMBER_0_MEMBER_2_FILL">
<path fill="#9575CD" stroke="none" d="
M 63 16.25
Q 63 13.45 61.05 11.5 59.05 9.5 56.25 9.5
L 15.65 9.5
Q 12.9 9.5 10.9 11.5 8.9 13.45 8.9 16.25
L 8.9 56.8
Q 8.9 59.6 10.9 61.6 12.9 63.55 15.65 63.55
L 56.25 63.55
Q 59.05 63.55 61.05 61.6 63 59.6 63 56.8
L 63 16.25 Z"/>
</g>

<g id="Layer0_1_MEMBER_0_MEMBER_0_MEMBER_0_FILL">
<path fill="#FFFFFF" stroke="none" d="
M 71.9 83.7
L 55.05 83.7 55.05 124.05 71.9 124.05 71.9 83.7 Z"/>
</g>

<g id="Layer0_1_MEMBER_0_MEMBER_0_MEMBER_1_FILL">
<path fill="#FFFFFF" stroke="none" d="
M 83.65 111.55
L 83.65 94.7 43.3 94.7 43.3 111.55 83.65 111.55 Z"/>
</g>

<g id="Layer0_1_MEMBER_1_MEMBER_0_MEMBER_0_FILL">
<path fill="#FFFFFF" stroke="none" d="
M 46.75 39.8
Q 51.25 35.3 51.25 29 51.25 22.6 46.75 18.15 42.3 13.65 35.9 13.65 29.55 13.65 25.05 18.15 20.6 22.6 20.6 29 20.6 35.3 25.05 39.8 29.55 44.3 35.9 44.3 42.3 44.3 46.75 39.8
M 42.3 22.6
Q 44.95 25.25 44.95 29 44.95 32.7 42.3 35.35 39.65 38 35.9 38 32.15 38 29.55 35.35 26.9 32.7 26.9 29 26.9 25.25 29.55 22.6 32.2 19.95 35.9 19.95 39.65 19.95 42.3 22.6 Z"/>
</g>

<g id="Layer0_1_MEMBER_1_MEMBER_0_MEMBER_1_MEMBER_0_MEMBER_0_MEMBER_0_FILL">
<path fill="#FFFFFF" stroke="none" d="
M 119.15 9.05
L 102.75 9.05 102.75 50.3 119.15 50.3 119.15 9.05 Z"/>
</g>

<g id="Layer0_1_MEMBER_1_MEMBER_0_MEMBER_1_MEMBER_0_MEMBER_0_MEMBER_1_FILL">
<path fill="#FFFFFF" stroke="none" d="
M 119.25 25.45
L 119.25 9.05 78 9.05 78 25.45 119.25 25.45 Z"/>
</g>

<g id="Layer0_1_MEMBER_1_MEMBER_0_MEMBER_1_MEMBER_0_MEMBER_0_MEMBER_2_FILL">
<path fill="#FFFFFF" stroke="none" d="
M 110.35 29.45
L 98.75 17.85 67.25 49.35 78.85 60.95 110.35 29.45 Z"/>
</g>

<g id="Layer0_1_MEMBER_1_MEMBER_0_MEMBER_2_MEMBER_0_FILL">
<path fill="#FFFFFF" stroke="none" d="
M 119.15 9.05
L 102.75 9.05 102.75 50.3 119.15 50.3 119.15 9.05 Z"/>
</g>

<g id="Layer0_1_MEMBER_1_MEMBER_0_MEMBER_2_MEMBER_1_FILL">
<path fill="#FFFFFF" stroke="none" d="
M 119.25 25.45
L 119.25 9.05 78 9.05 78 25.45 119.25 25.45 Z"/>
</g>

<g id="Layer0_1_MEMBER_1_MEMBER_0_MEMBER_2_MEMBER_2_FILL">
<path fill="#FFFFFF" stroke="none" d="
M 17.2 5.85
L 12.85 10.2 24.7 22 29.05 17.65 17.2 5.85 Z"/>
</g>

<g id="Layer0_1_MEMBER_1_MEMBER_0_MEMBER_2_MEMBER_3_FILL">
<path fill="#FFFFFF" stroke="none" d="
M 119.15 9.05
L 102.75 9.05 102.75 50.3 119.15 50.3 119.15 9.05 Z"/>
</g>
</defs>

<g transform="matrix( 1, 0, 0, 1, 0,0) ">
<use xlink:href="#Layer0_0_MEMBER_0_MEMBER_0_FILL"/>
</g>

<g transform="matrix( 1, 0, 0, 1, 0,0) ">
<use xlink:href="#Layer0_0_MEMBER_0_MEMBER_1_MEMBER_0_FILL"/>
</g>

<g transform="matrix( 1, 0, 0, 1, 0,0) ">
<use xlink:href="#Layer0_0_MEMBER_0_MEMBER_2_FILL"/>
</g>

<g transform="matrix( 0.2985382080078125, 0, 0, 0.298309326171875, 17.05,21.3) ">
<use xlink:href="#Layer0_1_MEMBER_0_MEMBER_0_MEMBER_0_FILL"/>
</g>

<g transform="matrix( 0.2985382080078125, 0, 0, 0.298309326171875, 17.05,21.3) ">
<use xlink:href="#Layer0_1_MEMBER_0_MEMBER_0_MEMBER_1_FILL"/>
</g>

<g transform="matrix( 0.7971649169921875, 0, 0, 0.7981414794921875, 7.35,11.75) ">
<use xlink:href="#Layer0_1_MEMBER_1_MEMBER_0_MEMBER_0_FILL"/>
</g>

<g transform="matrix( 0.299224853515625, 0, 0, 0.2993011474609375, 21.45,11.05) ">
<use xlink:href="#Layer0_1_MEMBER_1_MEMBER_0_MEMBER_1_MEMBER_0_MEMBER_0_MEMBER_0_FILL"/>
</g>

<g transform="matrix( 0.299224853515625, 0, 0, 0.2993011474609375, 21.45,11.05) ">
<use xlink:href="#Layer0_1_MEMBER_1_MEMBER_0_MEMBER_1_MEMBER_0_MEMBER_0_MEMBER_1_FILL"/>
</g>

<g transform="matrix( 0.299224853515625, 0, 0, 0.2993011474609375, 21.45,11.05) ">
<use xlink:href="#Layer0_1_MEMBER_1_MEMBER_0_MEMBER_1_MEMBER_0_MEMBER_0_MEMBER_2_FILL"/>
</g>

<g transform="matrix( -0.2992401123046875, 0, 0, 0.29931640625, 50.55,11.05) ">
<use xlink:href="#Layer0_1_MEMBER_1_MEMBER_0_MEMBER_2_MEMBER_0_FILL"/>
</g>

<g transform="matrix( -0.2992401123046875, 0, 0, 0.29931640625, 50.55,11.05) ">
<use xlink:href="#Layer0_1_MEMBER_1_MEMBER_0_MEMBER_2_MEMBER_1_FILL"/>
</g>

<g transform="matrix( 0.7979278564453125, 0, 0, 0.799102783203125, 7.25,11.75) ">
<use xlink:href="#Layer0_1_MEMBER_1_MEMBER_0_MEMBER_2_MEMBER_2_FILL"/>
</g>

<g transform="matrix( 0.2115478515625, 0.2118682861328125, 0.2112884521484375, -0.2116241455078125, -4.3,7.1) ">
<use xlink:href="#Layer0_1_MEMBER_1_MEMBER_0_MEMBER_2_MEMBER_3_FILL"/>
</g>
</svg>
