
<svg xmlns="http://www.w3.org/2000/svg" version="1.1" xmlns:xlink="http://www.w3.org/1999/xlink" preserveAspectRatio="none" x="0px" y="0px" width="72px" height="72px" viewBox="0 0 72 72">
<defs>
<g id="Layer0_0_FILL">
<path fill="#2F2F2F" stroke="none" d="
M 96.4 17.45
Q 94.9 17.45 93.9 18.5
L 64 48.4 34.05 18.5
Q 33.05 17.45 31.55 17.45 30.05 17.45 29.05 18.5
L 18.45 29.1
Q 17.4 30.1 17.4 31.6 17.4 33.1 18.45 34.1
L 48.35 64 18.45 93.95
Q 17.4 94.95 17.4 96.45 17.4 97.9 18.45 98.95
L 29.05 109.55
Q 30.05 110.6 31.55 110.6 33.05 110.6 34.05 109.55
L 64 79.65 93.9 109.55
Q 94.9 110.6 96.4 110.6 97.9 110.6 98.9 109.55
L 109.5 98.95
Q 110.55 97.9 110.55 96.45 110.55 94.95 109.5 93.9
L 79.6 64 109.5 34.1
Q 110.55 33.1 110.55 31.6 110.55 30.15 109.5 29.1
L 98.9 18.5
Q 97.9 17.45 96.4 17.45 Z"/>
</g>
</defs>

<g id="Layer_1">
<g transform="matrix( 0.6698455810546875, 0, 0, 0.6698455810546875, -6.85,-6.9) ">
<use xlink:href="#Layer0_0_FILL"/>
</g>
</g>
</svg>
