
<svg xmlns="http://www.w3.org/2000/svg" version="1.1" xmlns:xlink="http://www.w3.org/1999/xlink" preserveAspectRatio="none" x="0px" y="0px" width="72px" height="72px" viewBox="0 0 72 72">
<defs>
<g id="Layer0_0_MEMBER_0_MEMBER_0_FILL">
<path fill="#8BC34A" stroke="none" d="
M 72 6.75
Q 72 4 70 2 68 0 65.25 0
L 6.75 0
Q 3.95 0 2 2 0 4 0 6.75
L 0 65.25
Q 0 68.05 2 70.05 3.95 72 6.75 72
L 65.25 72
Q 68 72 70 70.05 72 68.05 72 65.25
L 72 6.75 Z"/>
</g>

<g id="Layer0_0_MEMBER_0_MEMBER_1_MEMBER_0_FILL">
<path fill="#689F38" stroke="none" d="
M 72 6.75
Q 72 3.95 70 2
L 1.95 70.05
Q 3.9 72 6.75 72
L 65.25 72
Q 68 72 70 70.05 72 68.05 72 65.25
L 72 6.75 Z"/>
</g>

<g id="Layer0_0_MEMBER_0_MEMBER_2_FILL">
<path fill="#7CB342" stroke="none" d="
M 63 16.25
Q 63 13.45 61.05 11.5 59.05 9.5 56.25 9.5
L 15.65 9.5
Q 12.9 9.5 10.9 11.5 8.9 13.45 8.9 16.25
L 8.9 56.8
Q 8.9 59.6 10.9 61.6 12.9 63.55 15.65 63.55
L 56.25 63.55
Q 59.05 63.55 61.05 61.6 63 59.6 63 56.8
L 63 16.25 Z"/>
</g>

<g id="Layer0_1_FILL">
<path fill="#FFFFFF" stroke="none" d="
M 109.5 34.15
Q 110.55 33.1 110.55 31.65 110.55 30.15 109.5 29.1
L 98.9 18.5
Q 97.9 17.45 96.4 17.45 94.9 17.45 93.9 18.5
L 64 48.4 34.05 18.5
Q 33.05 17.45 31.55 17.45 30.05 17.45 29.05 18.5
L 18.45 29.1
Q 17.4 30.1 17.4 31.6 17.4 33.1 18.45 34.1
L 48.35 64 18.45 93.95
Q 17.4 94.95 17.4 96.45 17.4 97.95 18.45 98.95
L 29.05 109.55
Q 30.05 110.6 31.55 110.6 33.05 110.6 34.05 109.55
L 64 79.65 93.9 109.55
Q 94.9 110.6 96.4 110.6 97.9 110.6 98.9 109.55
L 109.5 98.95
Q 110.55 97.95 110.55 96.45 110.55 94.95 109.5 93.95
L 79.6 64 109.5 34.15 Z"/>
</g>
</defs>

<g id="Layer_1">
<g transform="matrix( 1, 0, 0, 1, 0,0) ">
<use xlink:href="#Layer0_0_MEMBER_0_MEMBER_0_FILL"/>
</g>

<g transform="matrix( 1, 0, 0, 1, 0,0) ">
<use xlink:href="#Layer0_0_MEMBER_0_MEMBER_1_MEMBER_0_FILL"/>
</g>

<g transform="matrix( 1, 0, 0, 1, 0,0) ">
<use xlink:href="#Layer0_0_MEMBER_0_MEMBER_2_FILL"/>
</g>

<g transform="matrix( 0.43585205078125, 0, 0, 0.43585205078125, 8.1,8.1) ">
<use xlink:href="#Layer0_1_FILL"/>
</g>
</g>
</svg>
