
<svg xmlns="http://www.w3.org/2000/svg" version="1.1" xmlns:xlink="http://www.w3.org/1999/xlink" preserveAspectRatio="none" x="0px" y="0px" width="72px" height="72px" viewBox="0 0 72 72">
<defs>
<g id="Layer0_0_FILL">
<path fill="#CFD8DC" stroke="none" d="
M 60.35 96.3
Q 57.55 96.3 54.9 97 52.35 97.7 50.5 99.25 48.65 100.8 47.6 103.35 46.55 105.9 46.55 109.55 46.55 113.05 47.6 115.5 48.65 118 50.5 119.65 52.4 121.3 54.9 122 57.45 122.75 60.3 122.75 63.05 122.75 65.5 122 68 121.25 69.8 119.65 71.7 117.95 72.8 115.5 73.85 113.05 73.85 109.55 73.85 105.9 72.8 103.35 71.7 100.85 69.8 99.25 67.9 97.65 65.5 97 62.95 96.3 60.35 96.3
M 93.1 49.45
Q 95.15 46.3 96.35 42.3 97.45 38.55 97.45 33.55 97.45 26.85 95.05 21.65 92.7 16.4 88.25 12.8 83.85 9.15 77.45 7.2 71 5.3 63.15 5.3 58.85 5.3 54.55 6.1 50.1 6.85 45.95 8.25 41.25 9.75 37.8 11.35 33.85 13.1 30.55 15.05
L 38.45 32.25
Q 44.9 29 51.25 26.7 57.5 24.45 62.8 24.45 68.95 24.45 71.95 27.3 74.95 30.25 74.95 34.65 74.95 37.55 74.35 39.7 73.65 41.9 72.3 43.85 70.8 45.95 68.65 47.85 66.2 50.05 63.1 52.45 59.2 55.55 56.75 58.15 54.25 60.75 52.4 63.85 50.8 66.7 49.95 70 49.1 73.3 49.1 77.2
L 49.1 82.95 69.65 82.95 69.65 78.3
Q 69.65 75.95 70.05 73.95 70.5 72.15 71.65 70.4 72.95 68.6 74.9 66.8 76.95 64.9 80.25 62.35 84.7 58.75 87.75 55.85 91 52.75 93.1 49.45 Z"/>
</g>
</defs>

<g id="Layer_1">
<g transform="matrix( 0.5625, 0, 0, 0.5625, 0,0) ">
<use xlink:href="#Layer0_0_FILL"/>
</g>
</g>
</svg>
