
<svg xmlns="http://www.w3.org/2000/svg" version="1.1" xmlns:xlink="http://www.w3.org/1999/xlink" preserveAspectRatio="none" x="0px" y="0px" width="128px" height="128px" viewBox="0 0 128 128">
<defs>
<g id="Layer0_0_MEMBER_0_FILL">
<path fill="#E53935" stroke="none" d="
M 50.1 6.3
Q 49.7 6.6 49.8 7
L 54.4 73.15
Q 54.4 73.55 54.75 73.8 55.1 74.1 55.55 74.1
L 72.4 74.1
Q 72.9 74.1 73.25 73.8 73.55 73.55 73.6 73.15
L 78.2 7
Q 78.2 6.5 77.85 6.3 77.5 5.95 77 5.95
L 50.95 5.95
Q 50.45 5.95 50.1 6.3 Z"/>
</g>

<g id="Layer0_0_MEMBER_1_FILL">
<path fill="#E53935" stroke="none" d="
M 73.6 98.6
Q 71.8 97.1 69.3 96.3 66.75 95.6 64.1 95.6 61.35 95.6 58.7 96.3 56.15 97.05 54.3 98.6 52.4 100.15 51.35 102.65 50.3 105.2 50.3 108.85 50.3 112.25 51.4 114.85 52.45 117.3 54.3 118.95 56.2 120.6 58.7 121.35 61.25 122.1 64.1 122.1 66.85 122.1 69.3 121.35 71.7 120.6 73.6 118.95 75.5 117.35 76.55 114.85 77.65 112.45 77.65 108.85 77.65 105.15 76.55 102.65 75.5 100.15 73.6 98.6 Z"/>
</g>
</defs>

<g id="Layer_1">
<g transform="matrix( 1, 0, 0, 1.1173858642578125, 0,-0.7) ">
<use xlink:href="#Layer0_0_MEMBER_0_FILL"/>
</g>

<g transform="matrix( 1, 0, 0, 1, 0,0) ">
<use xlink:href="#Layer0_0_MEMBER_1_FILL"/>
</g>
</g>
</svg>
