
<svg xmlns="http://www.w3.org/2000/svg" version="1.1" xmlns:xlink="http://www.w3.org/1999/xlink" preserveAspectRatio="none" x="0px" y="0px" width="72px" height="72px" viewBox="0 0 72 72">
<defs>
<g id="Layer0_0_MEMBER_0_FILL">
<path fill="#BA68C8" stroke="none" d="
M 95.7 64.65
Q 88.1 61.75 85.3 60.3 75.15 55.3 65.1 38.95 59.7 30.1 56.55 22.3
L 16.95 24.35 21.45 52.8
Q 22.85 68.65 31.95 86.15 48.1 117.1 77.75 122.65 80.35 123.1 82.9 123.4 90.95 124.2 98.1 122.8 106.1 121.15 112.2 116.9 119.5 111.55 122.35 102.4 125.15 93.1 121.8 85 117.65 75.15 106.25 69.25 102.6 67.35 95.7 64.65 Z"/>
</g>

<g id="Layer0_0_MEMBER_1_FILL">
<path fill="#BDCF46" stroke="none" d="
M 124.55 12.35
Q 124.2 10.7 122.25 9.25 121.15 8.4 118.75 7.2
L 118.4 7.05 118.15 6.9
Q 117.65 6.65 117.45 6.65 117.1 6.65 116.65 6.85
L 116.35 6.9
Q 115.7 7.1 115.35 7.4 113.35 9.15 111.2 9.2
L 109.85 9.2
Q 107.65 9.2 105.45 9.05 102.45 8.85 100.95 8.85 96.75 8.85 93.4 10
L 90.75 11
Q 86 12.85 83.65 13.35 82.15 13.65 80.75 13.65 78.9 13.65 75.1 12.8
L 73.65 12.45 72.9 12.4
Q 71.7 12.4 71.15 13.3 70.65 14.05 70.75 15.3 70.8 16.4 71.25 17.4 73.2 21.85 80 24.75 84.25 26.65 88.8 26.65 90.95 26.65 92.95 26.2
L 95.35 25.75
Q 96.35 25.5 96.75 25.5
L 97.1 25.55
Q 97.3 25.7 97 26.55 96.7 27.15 96.45 27.45
L 96.05 28.15
Q 95.75 28.6 95.35 29.85
L 95.1 30.55
Q 93.6 34.6 95.05 40 95.6 42.05 96.5 43.4
L 96.85 43.95
Q 97.95 45.75 98.75 46.25 99.75 47 100.75 47 101.65 47 102.55 46.4 103 46.1 104.05 45.15 105.35 43.9 107.65 40.55
L 108.1 39.8
Q 109.65 37.4 110.8 36.65 111.4 40.2 114.05 49.8 115.8 53.85 118.7 56.05 121.55 58.2 125.1 58.2
L 126.05 58.2
Q 126.95 58.2 127.3 57.75 127.7 57.35 127.55 56.6 127.5 56.15 126.9 55.35
L 126.65 54.95
Q 124.9 51.8 124.95 47.7 124.95 45.25 125.95 40.05 126.9 34.9 126.95 32.3 127.05 27.95 125.35 24.5
L 124.2 22.6
Q 122.35 19.85 122.45 18.45 122.5 17.65 123.45 16.15 124.9 13.95 124.55 12.35 Z"/>
</g>
</defs>

<g id="Layer_1">
<g transform="matrix( 0.5625, 0, 0, 0.5625, -2,-0.2) ">
<use xlink:href="#Layer0_0_MEMBER_0_FILL"/>
</g>

<g transform="matrix( -0.4294891357421875, -0.115081787109375, -0.115081787109375, 0.4294891357421875, 65.85,13.35) ">
<use xlink:href="#Layer0_0_MEMBER_1_FILL"/>
</g>
</g>
</svg>
