
<svg xmlns="http://www.w3.org/2000/svg" version="1.1" xmlns:xlink="http://www.w3.org/1999/xlink" preserveAspectRatio="none" x="0px" y="0px" width="72px" height="72px" viewBox="0 0 72 72">
<defs>
<g id="Layer0_0_MEMBER_0_FILL">
<path fill="#E49800" stroke="none" d="
M 73.05 90.1
L 54.9 90.1 54.9 99.7
Q 54.9 102.95 57.3 105.25 59.75 107.55 63.15 107.55
L 64.8 107.55
Q 68.2 107.55 70.65 105.25 73.05 102.95 73.05 99.7
L 73.05 90.1 Z"/>
</g>

<g id="Layer0_0_MEMBER_1_FILL">
<path fill="#004373" stroke="none" d="
M 53.95 95.85
L 49.95 96.35 55.95 128 64.5 128 64.5 95.3
Q 59.05 95.3 53.95 95.85 Z"/>
</g>

<g id="Layer0_0_MEMBER_2_FILL">
<path fill="#FFA000" stroke="none" d="
M 102.55 69.2
Q 103.1 55.5 103.1 45.1
L 24.35 45.4
Q 24.35 56.85 25.1 71.1 26.65 99.6 30.5 113.55
L 98.5 113.25
Q 101.4 96.6 102.55 69.2 Z"/>
</g>

<g id="Layer0_0_MEMBER_3_FILL">
<path fill="#004373" stroke="none" d="
M 78.2 96.35
Q 72.45 95.3 64.05 95.3
L 64.05 128 72.7 128 78.2 96.35 Z"/>
</g>

<g id="Layer0_0_MEMBER_4_FILL">
<path fill="#2A56C6" stroke="none" d="
M 32.2 100.85
Q 17.5 107.05 17.5 118.45
L 17.5 128 111.35 128 111.35 118.45
Q 111.35 107.6 96.7 101.15 83.45 95.35 64.4 95.35 44.95 95.4 32.2 100.85 Z"/>
</g>

<g id="Layer0_0_MEMBER_5_FILL">
<path fill="#004373" stroke="none" d="
M 53.95 95.85
L 49.95 96.35 55.95 128 64.5 128 64.5 95.3
Q 59.05 95.3 53.95 95.85 Z"/>
</g>

<g id="Layer0_0_MEMBER_6_FILL">
<path fill="#004373" stroke="none" d="
M 78.2 96.35
Q 72.45 95.3 64.05 95.3
L 64.05 128 72.7 128 78.2 96.35 Z"/>
</g>

<g id="Layer0_0_MEMBER_7_FILL">
<path fill="#E59900" stroke="none" d="
M 36.4 60.6
Q 38.35 60.6 39.7 59.3 41.05 58 41.05 56.15
L 41.05 50.75 30.85 50.75 30.85 56.15
Q 30.85 58 32.2 59.3 33.6 60.6 35.5 60.6
L 36.4 60.6 Z"/>
</g>

<g id="Layer0_0_MEMBER_8_FILL">
<path fill="#FFCC00" stroke="none" d="
M 67.15 114.1
L 68.85 106.6 59.75 106.6 61.5 114.1 67.15 114.1 Z"/>
</g>

<g id="Layer0_0_MEMBER_9_FILL">
<path fill="#FFCC00" stroke="none" d="
M 61.5 114.1
L 59.95 128 68.65 128 67.15 114.1 61.5 114.1 Z"/>
</g>

<g id="Layer0_0_MEMBER_10_FILL">
<path fill="#004373" stroke="none" d="
M 33.3 98.45
Q 29.1 98.45 23 97.05 22.1 96.85 21.3 97.3 20.5 97.75 20.3 98.6
L 19.6 101.25
Q 19.35 102.1 19.9 102.9 20.45 103.75 21.45 103.95 28.45 105.55 33.3 105.55 38.15 105.55 45.15 103.95 46.15 103.75 46.7 102.9 47.25 102.1 47 101.25
L 46.3 98.6
Q 46.05 97.75 45.25 97.3 44.5 96.85 43.6 97.05 37.5 98.45 33.3 98.45 Z"/>
</g>

<g id="Layer0_0_MEMBER_11_FILL">
<path fill="#004373" stroke="none" d="
M 83.15 97.3
Q 82.35 97.75 82.15 98.6
L 81.4 101.25
Q 81.15 102.1 81.7 102.9 82.25 103.75 83.25 103.95 90.3 105.55 95.15 105.55 99.95 105.55 107 103.95 108 103.75 108.55 102.9 109.1 102.1 108.85 101.25
L 108.1 98.6
Q 107.9 97.75 107.1 97.3 106.35 96.85 105.45 97.05 99.35 98.45 95.15 98.45 90.9 98.45 84.8 97.05 83.95 96.85 83.15 97.3 Z"/>
</g>

<g id="Layer0_0_MEMBER_12_FILL">
<path fill="#3B78E7" stroke="none" d="
M 78.3 96.35
Q 75.25 95.9 73.25 95.7 73.25 96.9 72.35 98.75 71.35 100.75 69.85 102.5 67.7 104.95 64.2 106.45
L 77.45 117.55 78.3 96.35 Z"/>
</g>

<g id="Layer0_0_MEMBER_13_FILL">
<path fill="#3B78E7" stroke="none" d="
M 55.25 95.7
L 50.15 96.35 50.75 117.55 64.3 106.45
Q 60.75 104.95 58.65 102.5 57.15 100.75 56.15 98.75 55.25 96.9 55.25 95.7 Z"/>
</g>

<g id="Layer0_0_MEMBER_14_MEMBER_0_FILL">
<path fill="#FFA000" stroke="none" d="
M 103.1 46.15
Q 103.1 29.8 91.55 18.2 80.05 6.65 63.75 6.65 47.45 6.65 35.9 18.2 24.35 29.75 24.35 46.15 24.35 62.5 35.9 74.1 47.45 85.65 63.75 85.65 80.05 85.65 91.55 74.1 103.1 62.5 103.1 46.15 Z"/>
</g>

<g id="Layer0_0_MEMBER_15_FILL">
<path fill="#FCC21B" stroke="none" d="
M 47.05 48.5
Q 53.2 43.25 53.2 33.2 53.2 20.9 49.7 14.8 45.55 7.65 35.9 7.65 26.25 7.65 22.15 14.8 18.65 20.9 18.65 33.2 18.65 43.25 24.8 48.5 29.6 52.65 35.9 52.65 42.25 52.65 47.05 48.5 Z"/>
</g>

<g id="Layer0_0_MEMBER_16_FILL">
<path fill="#444444" stroke="none" d="
M 54.75 78.15
Q 53.95 78.15 53.7 78.65 53.45 79.15 53.95 79.9 54.9 81.4 57.3 82.65 60.35 84.25 64 84.25 67.6 84.25 70.65 82.65 73.05 81.35 74 79.9 74.5 79.15 74.25 78.65 74 78.15 73.2 78.15
L 54.75 78.15 Z"/>
</g>

<g id="Layer0_0_MEMBER_17_MEMBER_0_FILL">
<path fill="#444444" stroke="none" d="
M 53.5 60.75
Q 53.5 58.6 52.25 57.1 50.95 55.6 49.2 55.6 47.45 55.6 46.2 57.1 44.95 58.6 44.95 60.75 44.95 62.9 46.2 64.4 47.45 65.9 49.2 65.9 50.95 65.9 52.25 64.4 53.5 62.9 53.5 60.75 Z"/>
</g>

<g id="Layer0_0_MEMBER_17_MEMBER_1_FILL">
<path fill="#444444" stroke="none" d="
M 83 60.75
Q 83 58.6 81.75 57.1 80.5 55.6 78.75 55.6 77 55.6 75.7 57.1 74.45 58.6 74.45 60.75 74.45 62.9 75.7 64.4 76.95 65.9 78.75 65.9 80.5 65.9 81.75 64.4 83 62.9 83 60.75 Z"/>
</g>

<g id="Layer0_0_MEMBER_18_FILL">
<path fill="#E59600" stroke="none" d="
M 38.85 39.65
Q 38.75 39.45 38.5 39.55 37.2 39.9 35.95 39.9 34.75 39.9 33.45 39.55 33.2 39.45 33.05 39.65 32.95 39.85 33.05 40 33.35 40.5 34.05 40.95 34.95 41.5 35.95 41.5 36.95 41.5 37.85 40.95 38.55 40.5 38.85 40 38.95 39.85 38.85 39.65 Z"/>
</g>

<g id="Layer0_0_MEMBER_19_FILL">
<path fill="#FFA000" stroke="none" d="
M 54.3 14.95
Q 52.95 12.25 50 9.5 44.1 4.05 36.05 4.05 28 4.05 22.1 9.4 19.15 12.05 17.8 14.7
L 17.8 31.4
Q 25.75 30.05 33.4 25.25 37.8 22.5 41.1 19.4 41.25 19.25 41.4 19.3 41.55 19.3 41.65 19.5 44.25 24.9 49.55 28.7 52.2 30.55 54.3 31.4
L 54.3 14.95 Z"/>
</g>

<g id="Layer0_1_MEMBER_0_MEMBER_0_FILL">
<path fill="#262626" stroke="none" d="
M 101.1 43.15
Q 96.7 42.3 89.9 41.45 76.25 39.7 64.1 39.65 52 39.7 38.35 41.45 31.5 42.3 27.1 43.15
L 28.95 44.7
Q 31.5 46.6 35.1 48.15 46.65 53.2 64.1 53.3 81.55 53.2 93.1 48.15 98.85 45.65 101.1 43.15 Z"/>
</g>

<g id="Layer0_1_MEMBER_0_MEMBER_1_FILL">
<path fill="#2A56C6" stroke="none" d="
M 107.7 30.2
Q 107.15 25.65 104.55 22.4 101.35 18.45 97.15 15.55 90.35 10.8 80.85 8.2 72.4 5.9 64.35 5.9
L 63.6 5.9
Q 55.6 5.9 47.1 8.2 37.6 10.8 30.8 15.55 26.6 18.45 23.4 22.4 20.8 25.6 20.25 30.2 19.75 34.7 21.4 38.95 23.15 43.45 25.2 46.5 28.1 40.8 33.7 39.35 36.45 38.6 45.65 37.8 54.05 37.1 63.95 36.65 73.65 37.05 82.3 37.8 91.45 38.6 94.25 39.35 99.85 40.8 102.7 46.45 104.8 43.4 106.55 38.95 108.2 34.7 107.7 30.2 Z"/>
</g>

<g id="Layer0_1_MEMBER_0_MEMBER_2_FILL">
<path fill="#3B78E7" stroke="none" d="
M 100.5 43.3
L 98.8 32.75
Q 95 30.55 88.75 28.35 76.3 23.95 64 23.9 51.65 23.95 39.15 28.35 32.95 30.55 29.15 32.75
L 27.5 43.3
Q 31.65 42.5 38.3 41.7 51.55 40.1 63.85 40.1 78.5 40.1 90.95 41.7 97.2 42.5 100.5 43.3 Z"/>
</g>

<g id="Layer0_1_MEMBER_0_MEMBER_3_FILL">
<path fill="#F7CB4D" stroke="none" d="
M 64.1 15.75
Q 63.55 15.75 63.2 16.2 61.7 18.45 60.05 18.45 58.1 18.45 57.1 16.95 56.85 16.55 56.4 16.55 56 16.55 55.75 16.9
L 55.45 17.35
Q 54.75 18.2 55.25 19.15 55.95 20.45 55.95 21.95
L 55.95 25.7
Q 55.95 27.95 58.65 31 61.5 34.15 64.15 34.15 66.8 34.15 69.65 31 72.3 28 72.3 25.7
L 72.3 21.9
Q 72.3 20.45 73 19.15 73.5 18.15 72.85 17.35
L 72.5 16.9
Q 72.25 16.55 71.85 16.55 71.4 16.55 71.15 16.95 70.25 18.45 68.2 18.45 66.6 18.45 64.95 16.2 64.6 15.75 64.1 15.75 Z"/>
</g>
</defs>

<g id="Layer_1">
<g transform="matrix( 0.5625, 0, 0, 0.5625, 0,0) ">
<use xlink:href="#Layer0_0_MEMBER_0_FILL"/>
</g>

<g transform="matrix( 0.5625, 0, 0, 0.5625, 0,0) ">
<use xlink:href="#Layer0_0_MEMBER_1_FILL"/>
</g>

<g transform="matrix( 0.5625, 0, 0, 0.5625, 0,0) ">
<use xlink:href="#Layer0_0_MEMBER_2_FILL"/>
</g>

<g transform="matrix( 0.5625, 0, 0, 0.5625, 0,0) ">
<use xlink:href="#Layer0_0_MEMBER_3_FILL"/>
</g>

<g transform="matrix( 0.5625, 0, 0, 0.5625, 0,0) ">
<use xlink:href="#Layer0_0_MEMBER_4_FILL"/>
</g>

<g transform="matrix( 0.5625, 0, 0, 0.5625, 0,0) ">
<use xlink:href="#Layer0_0_MEMBER_5_FILL"/>
</g>

<g transform="matrix( 0.5625, 0, 0, 0.5625, 0,0) ">
<use xlink:href="#Layer0_0_MEMBER_6_FILL"/>
</g>

<g transform="matrix( 1, 0, 0, 1, 0,0) ">
<use xlink:href="#Layer0_0_MEMBER_7_FILL"/>
</g>

<g transform="matrix( 0.5625, 0, 0, 0.5625, 0,0) ">
<use xlink:href="#Layer0_0_MEMBER_8_FILL"/>
</g>

<g transform="matrix( 0.5625, 0, 0, 0.5625, 0,0) ">
<use xlink:href="#Layer0_0_MEMBER_9_FILL"/>
</g>

<g transform="matrix( 0.5625, 0, 0, 0.5625, 0,0) ">
<use xlink:href="#Layer0_0_MEMBER_10_FILL"/>
</g>

<g transform="matrix( 0.5625, 0, 0, 0.5625, 0,0) ">
<use xlink:href="#Layer0_0_MEMBER_11_FILL"/>
</g>

<g transform="matrix( 0.5625, 0, 0, 0.5625, -0.1,-0.05) ">
<use xlink:href="#Layer0_0_MEMBER_12_FILL"/>
</g>

<g transform="matrix( 0.5625, 0, 0, 0.5625, -0.1,-0.05) ">
<use xlink:href="#Layer0_0_MEMBER_13_FILL"/>
</g>

<g transform="matrix( 0.5625, 0, 0, 0.5625, 0,0) ">
<use xlink:href="#Layer0_0_MEMBER_14_MEMBER_0_FILL"/>
</g>

<g transform="matrix( 1, 0, 0, 1, 0,0) ">
<use xlink:href="#Layer0_0_MEMBER_15_FILL"/>
</g>

<g transform="matrix( 0.5625, 0, 0, 0.5625, 0,0) ">
<use xlink:href="#Layer0_0_MEMBER_16_FILL"/>
</g>

<g transform="matrix( 0.5625, 0, 0, 0.5625, 0,0) ">
<use xlink:href="#Layer0_0_MEMBER_17_MEMBER_0_FILL"/>
</g>

<g transform="matrix( 0.5625, 0, 0, 0.5625, 0,0) ">
<use xlink:href="#Layer0_0_MEMBER_17_MEMBER_1_FILL"/>
</g>

<g transform="matrix( 1, 0, 0, 1, 0,0) ">
<use xlink:href="#Layer0_0_MEMBER_18_FILL"/>
</g>

<g transform="matrix( 1, 0, 0, 1, 0,0) ">
<use xlink:href="#Layer0_0_MEMBER_19_FILL"/>
</g>

<g transform="matrix( 0.5625, 0, 0, 0.5625, 0,0) ">
<use xlink:href="#Layer0_1_MEMBER_0_MEMBER_0_FILL"/>
</g>

<g transform="matrix( 0.5625, 0, 0, 0.5625, 0,0) ">
<use xlink:href="#Layer0_1_MEMBER_0_MEMBER_1_FILL"/>
</g>

<g transform="matrix( 0.5625, 0, 0, 0.5625, 0,0) ">
<use xlink:href="#Layer0_1_MEMBER_0_MEMBER_2_FILL"/>
</g>

<g transform="matrix( 0.5625, 0, 0, 0.5625, 0,0) ">
<use xlink:href="#Layer0_1_MEMBER_0_MEMBER_3_FILL"/>
</g>
</g>
</svg>
