
<svg xmlns="http://www.w3.org/2000/svg" version="1.1" xmlns:xlink="http://www.w3.org/1999/xlink" preserveAspectRatio="none" x="0px" y="0px" width="72px" height="72px" viewBox="0 0 72 72">
<defs>
<g id="Layer0_0_MEMBER_0_MEMBER_0_MEMBER_0_FILL">
<path fill="#444444" stroke="none" d="
M 62.95 118.75
L 52.9 105.95
Q 51.45 107.1 51.1 109 50.7 110.95 51.8 112.3 54.1 115.2 55.3 116.4 57.25 118.45 58.8 119 60.05 119.45 61.35 119.3 62.4 119.2 62.95 118.75 Z"/>
</g>

<g id="Layer0_0_MEMBER_0_MEMBER_0_MEMBER_1_FILL">
<path fill="#444444" stroke="none" d="
M 52.9 105.95
L 62.95 118.75
Q 63.5 118.3 63.85 117.3 64.3 116.15 64.15 114.8 64 113.1 62.5 110.75 61.55 109.2 59.3 106.4 58.25 105.05 56.25 104.95 54.3 104.85 52.9 105.95 Z"/>
</g>

<g id="Layer0_0_MEMBER_0_MEMBER_1_FILL">
<path fill="#FBC11B" stroke="none" d="
M 47.85 94.9
Q 45.9 94.9 44.55 96.25 43.2 97.65 43.2 99.55 43.2 101.45 44.55 102.85 45.9 104.2 47.85 104.2 49.75 104.2 51.15 102.85 52.5 101.45 52.5 99.55 52.5 97.65 51.15 96.25 49.75 94.9 47.85 94.9 Z"/>
</g>

<g id="Layer0_0_MEMBER_0_MEMBER_2_FILL">
<path fill="#FCC21B" stroke="none" d="
M 52.05 97.65
L 44.65 80.65 34.25 85.4 43.65 101.6 52.05 97.65 Z"/>
</g>

<g id="Layer0_0_MEMBER_0_MEMBER_3_FILL">
<path fill="#FCC21B" stroke="none" d="
M 55.1 113.75
L 60 109.95 51.65 96.7 44.3 102.55 55.1 113.75 Z"/>
</g>

<g id="Layer0_0_MEMBER_0_MEMBER_4_MEMBER_0_FILL">
<path fill="#FCC21B" stroke="none" d="
M 33.5 80.6
L 22.8 80.6 26.4 124 34.7 124 33.5 80.6 Z"/>
</g>

<g id="Layer0_0_MEMBER_0_MEMBER_4_MEMBER_1_FILL">
<path fill="#444444" stroke="none" d="
M 35.8 124.35
L 35.8 122.5
Q 35.8 120.8 34.65 119.65 33.45 118.5 31.8 118.5
L 29 118.5
Q 27.35 118.5 26.2 119.65 25 120.8 25 122.5
L 25 124.35 35.8 124.35 Z"/>
</g>

<g id="Layer0_0_MEMBER_0_MEMBER_5_FILL">
<path fill="#FFA000" stroke="none" d="
M 51.45 42.35
L 51.7 31.45 17 31.45 17.35 43.1
Q 18 55.95 19.7 62 20.85 66.1 22.2 67.35 23.9 68.9 26.65 66.8
L 42.05 66.65
Q 44.9 68.85 47.05 67.25 49 65.8 49.7 61.9 50.95 54.65 51.45 42.35 Z"/>
</g>

<g id="Layer0_0_MEMBER_0_MEMBER_6_FILL">
<path fill="#FBC11B" stroke="none" d="
M 6.5 72
Q 6.3 73.3 7.1 74.3 7.9 75.35 9.2 75.5 10.5 75.7 11.5 74.9 12.55 74.1 12.7 72.8 12.9 71.5 12.1 70.5 11.3 69.45 10 69.3 8.75 69.1 7.7 69.9 6.65 70.7 6.5 72 Z"/>
</g>

<g id="Layer0_0_MEMBER_0_MEMBER_7_FILL">
<path fill="#FCC21B" stroke="none" d="
M 20.15 61.25
Q 17.75 57.95 17.45 58.25 13.55 62.25 7.25 70.3
L 12 74.45 13.15 73.2
Q 14.6 71.65 18.7 68
L 22.5 64.6
Q 21.35 62.9 20.15 61.25 Z"/>
</g>

<g id="Layer0_0_MEMBER_0_MEMBER_8_FILL">
<path fill="#444444" stroke="none" d="
M 34.4 72.4
L 34.4 54
Q 30 54 25.15 54.9 22.05 55.55 19.75 56.65 17.3 57.85 14.8 59.95
L 22.35 67.8 34.4 72.4 Z"/>
</g>

<g id="Layer0_0_MEMBER_0_MEMBER_9_FILL">
<path fill="#FCC21B" stroke="none" d="
M 22.5 81.95
Q 22.45 80.8 21.65 80
L 15.3 73.5
Q 13.65 71.85 11.9 69.6
L 7.25 74.5
Q 13.05 80.4 17.45 84.2 18.4 85.15 19.7 85.1 21.05 85 21.85 84 22.55 83.1 22.5 81.95 Z"/>
</g>

<g id="Layer0_0_MEMBER_0_MEMBER_10_FILL">
<path fill="#FBC11B" stroke="none" d="
M 58.75 69.3
Q 57.45 69.45 56.65 70.5 55.85 71.5 56.05 72.8 56.2 74.1 57.25 74.9 58.25 75.7 59.55 75.5 60.85 75.35 61.65 74.3 62.45 73.25 62.25 72 62.1 70.7 61.05 69.9 60 69.1 58.75 69.3 Z"/>
</g>

<g id="Layer0_0_MEMBER_0_MEMBER_11_FILL">
<path fill="#FCC21B" stroke="none" d="
M 51.3 58.25
Q 51 57.95 48.6 61.25 47.4 62.9 46.25 64.6
L 50.05 68
Q 54.15 71.65 55.6 73.2
L 56.75 74.45 61.5 70.3
Q 55.15 62.25 51.3 58.25 Z"/>
</g>

<g id="Layer0_0_MEMBER_0_MEMBER_12_FILL">
<path fill="#444444" stroke="none" d="
M 34.4 54
L 34.4 72.4 46.4 67.8 54 59.95
Q 51.45 57.8 49.05 56.65 46.75 55.55 43.6 54.9 38.75 54 34.4 54 Z"/>
</g>

<g id="Layer0_0_MEMBER_0_MEMBER_13_FILL">
<path fill="#FCC21B" stroke="none" d="
M 47.1 80
Q 46.3 80.8 46.25 81.95 46.2 83.1 46.9 84 47.75 85 49.05 85.1 50.35 85.15 51.3 84.2 55.7 80.4 61.5 74.5
L 56.85 69.6
Q 55.1 71.85 53.45 73.5
L 47.1 80 Z"/>
</g>

<g id="Layer0_0_MEMBER_0_MEMBER_14_FILL">
<path fill="#444444" stroke="none" d="
M 31.45 59.25
L 31.45 73.45 36.2 73.45 36.2 59.25 31.45 59.25 Z"/>
</g>

<g id="Layer0_0_MEMBER_0_MEMBER_15_FILL">
<path fill="#444444" stroke="none" d="
M 36.75 82.95
L 36.75 64.95 22.35 64.95 22.35 82.95 36.75 82.95 Z"/>
</g>

<g id="Layer0_0_MEMBER_0_MEMBER_16_FILL">
<path fill="#444444" stroke="none" d="
M 34.35 64.95
L 34.35 82.95 46.35 82.95 46.35 64.95 34.35 64.95 Z"/>
</g>

<g id="Layer0_0_MEMBER_0_MEMBER_17_FILL">
<path fill="#FCC21B" stroke="none" d="
M 26.75 62.3
Q 29.9 64.6 34.4 64.6 38.85 64.6 42 62.3 45.15 60 45.15 56.75
L 45.1 56
Q 44.55 55.75 43.6 55.5 40.15 54.6 34.4 54.6 28.6 54.6 25.15 55.5 24.2 55.75 23.65 56
L 23.6 56.75
Q 23.6 60 26.75 62.3 Z"/>
</g>

<g id="Layer0_0_MEMBER_0_MEMBER_18_MEMBER_0_FILL">
<path fill="#FBC11B" stroke="none" d="
M 34.4 60.25
Q 36.4 60.25 37.7 59.05 39 57.8 39 55.85
L 39 51.25 29.75 51.25 29.75 55.85
Q 29.75 57.8 31.1 59.05 32.4 60.25 34.4 60.25 Z"/>
</g>

<g id="Layer0_0_MEMBER_0_MEMBER_18_MEMBER_1_FILL">
<path fill="#E7A13D" stroke="none" d="
M 37 48.8
L 31.8 48.8
Q 30.9 48.8 30.3 49.6 29.75 50.35 29.75 51.3
L 29.75 55.8 31 56.15
Q 32.6 56.45 34.4 56.45 37.2 56.45 39 55.75
L 39 51.2
Q 39 50.25 38.45 49.55 37.85 48.8 37 48.8 Z"/>
</g>

<g id="Layer0_0_MEMBER_0_MEMBER_19_FILL">
<path fill="#E59900" stroke="none" d="
M 34.4 60.65
Q 36.35 60.65 37.75 59.3 39.1 57.9 39.1 55.95
L 39.1 51.95 29.7 51.95 29.7 55.95
Q 29.7 57.9 31.1 59.3 32.45 60.65 34.4 60.65 Z"/>
</g>

<g id="Layer0_0_MEMBER_0_MEMBER_20_FILL">
<path fill="#FFA000" stroke="none" d="
M 46.65 42.4
Q 51.75 37.8 51.75 31.35 51.75 24.9 46.65 20.35 41.55 15.8 34.4 15.8 27.2 15.8 22.15 20.35 17.05 24.9 17.05 31.35 17.05 37.8 22.15 42.4 27.2 46.95 34.4 46.95 41.55 46.95 46.65 42.4 Z"/>
</g>

<g id="Layer0_0_MEMBER_0_MEMBER_21_FILL">
<path fill="#FCC21B" stroke="none" d="
M 25.3 14.15
Q 23.5 11 19.3 11 15.1 11 13.3 14.15 11.75 16.8 11.75 22.15 11.75 26.55 14.45 28.9 16.5 30.7 19.3 30.7 22.05 30.7 24.15 28.9 26.85 26.55 26.85 22.15 26.85 16.8 25.3 14.15 Z"/>
</g>

<g id="Layer0_0_MEMBER_0_MEMBER_22_FILL">
<path fill="#444444" stroke="none" d="
M 29.8 39.85
Q 29.8 38.9 29.25 38.25 28.7 37.6 27.95 37.6 27.15 37.6 26.6 38.25 26.05 38.9 26.05 39.85 26.05 40.8 26.6 41.45 27.15 42.1 27.95 42.1 28.7 42.1 29.25 41.45 29.8 40.8 29.8 39.85 Z"/>
</g>

<g id="Layer0_0_MEMBER_0_MEMBER_23_FILL">
<path fill="#444444" stroke="none" d="
M 42.2 38.25
Q 41.65 37.6 40.85 37.6 40.05 37.6 39.55 38.25 39 38.9 39 39.85 39 40.8 39.55 41.45 40.1 42.1 40.85 42.1 41.65 42.1 42.2 41.45 42.75 40.8 42.75 39.85 42.75 38.9 42.2 38.25 Z"/>
</g>

<g id="Layer0_0_MEMBER_0_MEMBER_24_FILL">
<path fill="#FFA000" stroke="none" d="
M 45.05 35.9
Q 47.1 37.35 48.75 38
L 48.75 25.2
Q 47.7 23.1 45.4 20.95 40.85 16.7 34.55 16.7 28.25 16.7 23.65 20.85 21.35 22.95 20.3 25
L 20.3 38
Q 26.5 36.95 32.5 33.2 35.95 31.05 38.45 28.65 38.7 28.4 38.9 28.7 40.95 32.9 45.05 35.9 Z"/>
</g>

<g id="Layer0_0_MEMBER_0_MEMBER_25_FILL">
<path fill="#513F35" stroke="none" d="
M 38.9 47.7
Q 38.8 47.5 38.45 47.5
L 30.35 47.5
Q 30 47.5 29.9 47.7 29.8 47.9 30 48.25 30.4 48.9 31.45 49.5 32.8 50.2 34.4 50.2 36 50.2 37.3 49.5 38.35 48.95 38.8 48.25 39 47.9 38.9 47.7 Z"/>
</g>

<g id="Layer0_0_MEMBER_0_MEMBER_26_FILL">
<path fill="#E59600" stroke="none" d="
M 34.4 44.6
Q 33.5 44.6 32.45 44.3 32.25 44.25 32.15 44.4 32.05 44.55 32.15 44.7 32.35 45.05 32.9 45.4 33.65 45.85 34.4 45.85 35.15 45.85 35.9 45.4 36.45 45.05 36.65 44.7 36.75 44.55 36.65 44.4 36.55 44.25 36.35 44.3 35.3 44.6 34.4 44.6 Z"/>
</g>

<g id="Layer0_0_MEMBER_0_MEMBER_27_MEMBER_0_MEMBER_0_FILL">
<path fill="#2F2F2F" stroke="none" d="
M 30.9 12
Q 30.9 8.55 29.3 5.25 27.75 2.1 26.45 2.1 25.1 2.1 23.6 5.1 22 8.35 22 12 22 15.8 23.6 19 25.1 21.9 26.45 21.9 27.7 21.9 29.2 19 30.9 15.75 30.9 12 Z"/>
</g>

<g id="Layer0_0_MEMBER_0_MEMBER_27_MEMBER_0_MEMBER_1_FILL">
<path fill="#FF7CE5" stroke="none" d="
M 28.2 10
L 26.45 6.85
Q 25.3 8.1 24.7 10 23.5 13.85 26.45 17.3 29.35 13.85 28.2 10 Z"/>
</g>

<g id="Layer0_0_MEMBER_0_MEMBER_27_MEMBER_1_MEMBER_0_FILL">
<path fill="#2F2F2F" stroke="none" d="
M 45.2 5.1
Q 43.7 2.1 42.3 2.1 41.05 2.1 39.5 5.25 37.85 8.6 37.85 12 37.85 15.75 39.55 19 41.05 21.9 42.3 21.9 43.7 21.9 45.2 19 46.8 15.85 46.8 12 46.8 8.35 45.2 5.1 Z"/>
</g>

<g id="Layer0_0_MEMBER_0_MEMBER_27_MEMBER_1_MEMBER_1_FILL">
<path fill="#FF7CE5" stroke="none" d="
M 42.3 6.85
Q 41.15 8.1 40.55 10 39.4 13.85 42.3 17.3 45.25 13.85 44.05 10
L 42.3 6.85 Z"/>
</g>

<g id="Layer0_0_MEMBER_0_MEMBER_27_MEMBER_2_FILL">
<path fill="#2F2F2F" stroke="none" d="
M 47.65 26.25
Q 47.85 26.05 47.7 25.85 42.35 19.15 34.4 19.3 26.25 19.15 21.1 25.85 20.95 26.05 21.1 26.25 21.3 26.4 21.5 26.3 25.65 23.85 27.9 23.1 30.25 22.35 34.4 22.2 38.5 22.35 40.85 23.1 43.15 23.85 47.3 26.3 47.5 26.4 47.65 26.25 Z"/>
</g>

<g id="Layer0_0_MEMBER_0_MEMBER_28_FILL">
<path fill="#FCC21B" stroke="none" d="
M 57.35 108.5
Q 56.1 108.5 55.15 109.4 54.25 110.35 54.25 111.6 54.25 112.9 55.15 113.8 56.1 114.7 57.35 114.7 58.65 114.7 59.55 113.8 60.45 112.9 60.45 111.6 60.45 110.35 59.55 109.4 58.65 108.5 57.35 108.5 Z"/>
</g>

<g id="Layer0_0_MEMBER_1_FILL">
<path fill="#444444" stroke="none" d="
M 35.35 91.1
Q 37.4 91.1 39.7 88.8
L 46.35 82.95 22.35 82.95 29.9 88.6
Q 30.45 89.15 32.1 90 34.1 91.1 35.3 91.1
L 35.35 91.1 Z"/>
</g>

<g id="Layer0_0_MEMBER_2_FILL">
<path fill="#444444" stroke="none" d="
M 22.35 82.95
L 23.8 83.7 44.65 83.7 46.35 82.95 45.15 81.85 23.3 82.05 22.35 82.95 Z"/>
</g>

<g id="Layer0_1_MEMBER_0_MEMBER_0_MEMBER_0_FILL">
<path fill="#444444" stroke="none" d="
M 62.95 118.75
L 52.9 105.95
Q 51.45 107.1 51.1 109 50.7 110.95 51.8 112.3 54.1 115.2 55.3 116.4 57.25 118.45 58.8 119 60.05 119.45 61.35 119.3 62.4 119.2 62.95 118.75 Z"/>
</g>

<g id="Layer0_1_MEMBER_0_MEMBER_0_MEMBER_1_FILL">
<path fill="#444444" stroke="none" d="
M 52.9 105.95
L 62.95 118.75
Q 63.5 118.3 63.85 117.3 64.3 116.15 64.15 114.8 64 113.1 62.5 110.75 61.55 109.2 59.3 106.4 58.25 105.05 56.25 104.95 54.3 104.85 52.9 105.95 Z"/>
</g>

<g id="Layer0_1_MEMBER_0_MEMBER_1_FILL">
<path fill="#FBC11B" stroke="none" d="
M 47.85 94.9
Q 45.9 94.9 44.55 96.25 43.2 97.65 43.2 99.55 43.2 101.45 44.55 102.85 45.9 104.2 47.85 104.2 49.75 104.2 51.15 102.85 52.5 101.45 52.5 99.55 52.5 97.65 51.15 96.25 49.75 94.9 47.85 94.9 Z"/>
</g>

<g id="Layer0_1_MEMBER_0_MEMBER_2_FILL">
<path fill="#FCC21B" stroke="none" d="
M 52.05 97.65
L 44.65 80.65 34.25 85.4 43.65 101.6 52.05 97.65 Z"/>
</g>

<g id="Layer0_1_MEMBER_0_MEMBER_3_FILL">
<path fill="#FCC21B" stroke="none" d="
M 55.1 113.75
L 60 109.95 51.65 96.7 44.3 102.55 55.1 113.75 Z"/>
</g>

<g id="Layer0_1_MEMBER_0_MEMBER_4_MEMBER_0_FILL">
<path fill="#FCC21B" stroke="none" d="
M 33.5 80.6
L 22.8 80.6 26.4 124 34.7 124 33.5 80.6 Z"/>
</g>

<g id="Layer0_1_MEMBER_0_MEMBER_4_MEMBER_1_FILL">
<path fill="#444444" stroke="none" d="
M 35.8 124.35
L 35.8 122.5
Q 35.8 120.8 34.65 119.65 33.45 118.5 31.8 118.5
L 29 118.5
Q 27.35 118.5 26.2 119.65 25 120.8 25 122.5
L 25 124.35 35.8 124.35 Z"/>
</g>

<g id="Layer0_1_MEMBER_0_MEMBER_5_FILL">
<path fill="#FFA000" stroke="none" d="
M 51.45 42.35
L 51.7 31.45 17 31.45 17.35 43.1
Q 18 55.95 19.7 62 20.85 66.1 22.2 67.35 23.9 68.9 26.65 66.8
L 42.05 66.65
Q 44.9 68.85 47.05 67.25 49 65.8 49.7 61.9 50.95 54.65 51.45 42.35 Z"/>
</g>

<g id="Layer0_1_MEMBER_0_MEMBER_6_FILL">
<path fill="#FBC11B" stroke="none" d="
M 6.5 72
Q 6.3 73.3 7.1 74.3 7.9 75.35 9.2 75.5 10.5 75.7 11.5 74.9 12.55 74.1 12.7 72.8 12.9 71.5 12.1 70.5 11.3 69.45 10 69.3 8.75 69.1 7.7 69.9 6.65 70.7 6.5 72 Z"/>
</g>

<g id="Layer0_1_MEMBER_0_MEMBER_7_FILL">
<path fill="#FCC21B" stroke="none" d="
M 20.15 61.25
Q 17.75 57.95 17.45 58.25 13.55 62.25 7.25 70.3
L 12 74.45 13.15 73.2
Q 14.6 71.65 18.7 68
L 22.5 64.6
Q 21.35 62.9 20.15 61.25 Z"/>
</g>

<g id="Layer0_1_MEMBER_0_MEMBER_8_FILL">
<path fill="#444444" stroke="none" d="
M 34.4 72.4
L 34.4 54
Q 30 54 25.15 54.9 22.05 55.55 19.75 56.65 17.3 57.85 14.8 59.95
L 22.35 67.8 34.4 72.4 Z"/>
</g>

<g id="Layer0_1_MEMBER_0_MEMBER_9_FILL">
<path fill="#FCC21B" stroke="none" d="
M 22.5 81.95
Q 22.45 80.8 21.65 80
L 15.3 73.5
Q 13.65 71.85 11.9 69.6
L 7.25 74.5
Q 13.05 80.4 17.45 84.2 18.4 85.15 19.7 85.1 21.05 85 21.85 84 22.55 83.1 22.5 81.95 Z"/>
</g>

<g id="Layer0_1_MEMBER_0_MEMBER_10_FILL">
<path fill="#FBC11B" stroke="none" d="
M 58.75 69.3
Q 57.45 69.45 56.65 70.5 55.85 71.5 56.05 72.8 56.2 74.1 57.25 74.9 58.25 75.7 59.55 75.5 60.85 75.35 61.65 74.3 62.45 73.25 62.25 72 62.1 70.7 61.05 69.9 60 69.1 58.75 69.3 Z"/>
</g>

<g id="Layer0_1_MEMBER_0_MEMBER_11_FILL">
<path fill="#FCC21B" stroke="none" d="
M 51.3 58.25
Q 51 57.95 48.6 61.25 47.4 62.9 46.25 64.6
L 50.05 68
Q 54.15 71.65 55.6 73.2
L 56.75 74.45 61.5 70.3
Q 55.15 62.25 51.3 58.25 Z"/>
</g>

<g id="Layer0_1_MEMBER_0_MEMBER_12_FILL">
<path fill="#444444" stroke="none" d="
M 34.4 54
L 34.4 72.4 46.4 67.8 54 59.95
Q 51.45 57.8 49.05 56.65 46.75 55.55 43.6 54.9 38.75 54 34.4 54 Z"/>
</g>

<g id="Layer0_1_MEMBER_0_MEMBER_13_FILL">
<path fill="#FCC21B" stroke="none" d="
M 47.1 80
Q 46.3 80.8 46.25 81.95 46.2 83.1 46.9 84 47.75 85 49.05 85.1 50.35 85.15 51.3 84.2 55.7 80.4 61.5 74.5
L 56.85 69.6
Q 55.1 71.85 53.45 73.5
L 47.1 80 Z"/>
</g>

<g id="Layer0_1_MEMBER_0_MEMBER_14_FILL">
<path fill="#444444" stroke="none" d="
M 31.45 59.25
L 31.45 73.45 36.2 73.45 36.2 59.25 31.45 59.25 Z"/>
</g>

<g id="Layer0_1_MEMBER_0_MEMBER_15_FILL">
<path fill="#444444" stroke="none" d="
M 36.75 82.95
L 36.75 64.95 22.35 64.95 22.35 82.95 36.75 82.95 Z"/>
</g>

<g id="Layer0_1_MEMBER_0_MEMBER_16_FILL">
<path fill="#444444" stroke="none" d="
M 34.35 64.95
L 34.35 82.95 46.35 82.95 46.35 64.95 34.35 64.95 Z"/>
</g>

<g id="Layer0_1_MEMBER_0_MEMBER_17_FILL">
<path fill="#FCC21B" stroke="none" d="
M 26.75 62.3
Q 29.9 64.6 34.4 64.6 38.85 64.6 42 62.3 45.15 60 45.15 56.75
L 45.1 56
Q 44.55 55.75 43.6 55.5 40.15 54.6 34.4 54.6 28.6 54.6 25.15 55.5 24.2 55.75 23.65 56
L 23.6 56.75
Q 23.6 60 26.75 62.3 Z"/>
</g>

<g id="Layer0_1_MEMBER_0_MEMBER_18_MEMBER_0_FILL">
<path fill="#FBC11B" stroke="none" d="
M 34.4 60.25
Q 36.4 60.25 37.7 59.05 39 57.8 39 55.85
L 39 51.25 29.75 51.25 29.75 55.85
Q 29.75 57.8 31.1 59.05 32.4 60.25 34.4 60.25 Z"/>
</g>

<g id="Layer0_1_MEMBER_0_MEMBER_18_MEMBER_1_FILL">
<path fill="#E7A13D" stroke="none" d="
M 37 48.8
L 31.8 48.8
Q 30.9 48.8 30.3 49.6 29.75 50.35 29.75 51.3
L 29.75 55.8 31 56.15
Q 32.6 56.45 34.4 56.45 37.2 56.45 39 55.75
L 39 51.2
Q 39 50.25 38.45 49.55 37.85 48.8 37 48.8 Z"/>
</g>

<g id="Layer0_1_MEMBER_0_MEMBER_19_FILL">
<path fill="#E59900" stroke="none" d="
M 34.4 60.65
Q 36.35 60.65 37.75 59.3 39.1 57.9 39.1 55.95
L 39.1 51.95 29.7 51.95 29.7 55.95
Q 29.7 57.9 31.1 59.3 32.45 60.65 34.4 60.65 Z"/>
</g>

<g id="Layer0_1_MEMBER_0_MEMBER_20_FILL">
<path fill="#FFA000" stroke="none" d="
M 46.65 42.4
Q 51.75 37.8 51.75 31.35 51.75 24.9 46.65 20.35 41.55 15.8 34.4 15.8 27.2 15.8 22.15 20.35 17.05 24.9 17.05 31.35 17.05 37.8 22.15 42.4 27.2 46.95 34.4 46.95 41.55 46.95 46.65 42.4 Z"/>
</g>

<g id="Layer0_1_MEMBER_0_MEMBER_21_FILL">
<path fill="#FCC21B" stroke="none" d="
M 25.3 14.15
Q 23.5 11 19.3 11 15.1 11 13.3 14.15 11.75 16.8 11.75 22.15 11.75 26.55 14.45 28.9 16.5 30.7 19.3 30.7 22.05 30.7 24.15 28.9 26.85 26.55 26.85 22.15 26.85 16.8 25.3 14.15 Z"/>
</g>

<g id="Layer0_1_MEMBER_0_MEMBER_22_FILL">
<path fill="#444444" stroke="none" d="
M 29.8 39.85
Q 29.8 38.9 29.25 38.25 28.7 37.6 27.95 37.6 27.15 37.6 26.6 38.25 26.05 38.9 26.05 39.85 26.05 40.8 26.6 41.45 27.15 42.1 27.95 42.1 28.7 42.1 29.25 41.45 29.8 40.8 29.8 39.85 Z"/>
</g>

<g id="Layer0_1_MEMBER_0_MEMBER_23_FILL">
<path fill="#444444" stroke="none" d="
M 42.2 38.25
Q 41.65 37.6 40.85 37.6 40.05 37.6 39.55 38.25 39 38.9 39 39.85 39 40.8 39.55 41.45 40.1 42.1 40.85 42.1 41.65 42.1 42.2 41.45 42.75 40.8 42.75 39.85 42.75 38.9 42.2 38.25 Z"/>
</g>

<g id="Layer0_1_MEMBER_0_MEMBER_24_FILL">
<path fill="#FFA000" stroke="none" d="
M 45.05 35.9
Q 47.1 37.35 48.75 38
L 48.75 25.2
Q 47.7 23.1 45.4 20.95 40.85 16.7 34.55 16.7 28.25 16.7 23.65 20.85 21.35 22.95 20.3 25
L 20.3 38
Q 26.5 36.95 32.5 33.2 35.95 31.05 38.45 28.65 38.7 28.4 38.9 28.7 40.95 32.9 45.05 35.9 Z"/>
</g>

<g id="Layer0_1_MEMBER_0_MEMBER_25_FILL">
<path fill="#513F35" stroke="none" d="
M 38.9 47.7
Q 38.8 47.5 38.45 47.5
L 30.35 47.5
Q 30 47.5 29.9 47.7 29.8 47.9 30 48.25 30.4 48.9 31.45 49.5 32.8 50.2 34.4 50.2 36 50.2 37.3 49.5 38.35 48.95 38.8 48.25 39 47.9 38.9 47.7 Z"/>
</g>

<g id="Layer0_1_MEMBER_0_MEMBER_26_FILL">
<path fill="#E59600" stroke="none" d="
M 34.4 44.6
Q 33.5 44.6 32.45 44.3 32.25 44.25 32.15 44.4 32.05 44.55 32.15 44.7 32.35 45.05 32.9 45.4 33.65 45.85 34.4 45.85 35.15 45.85 35.9 45.4 36.45 45.05 36.65 44.7 36.75 44.55 36.65 44.4 36.55 44.25 36.35 44.3 35.3 44.6 34.4 44.6 Z"/>
</g>

<g id="Layer0_1_MEMBER_0_MEMBER_27_MEMBER_0_MEMBER_0_FILL">
<path fill="#2F2F2F" stroke="none" d="
M 30.9 12
Q 30.9 8.55 29.3 5.25 27.75 2.1 26.45 2.1 25.1 2.1 23.6 5.1 22 8.35 22 12 22 15.8 23.6 19 25.1 21.9 26.45 21.9 27.7 21.9 29.2 19 30.9 15.75 30.9 12 Z"/>
</g>

<g id="Layer0_1_MEMBER_0_MEMBER_27_MEMBER_0_MEMBER_1_FILL">
<path fill="#FF7CE5" stroke="none" d="
M 28.2 10
L 26.45 6.85
Q 25.3 8.1 24.7 10 23.5 13.85 26.45 17.3 29.35 13.85 28.2 10 Z"/>
</g>

<g id="Layer0_1_MEMBER_0_MEMBER_27_MEMBER_1_MEMBER_0_FILL">
<path fill="#2F2F2F" stroke="none" d="
M 45.2 5.1
Q 43.7 2.1 42.3 2.1 41.05 2.1 39.5 5.25 37.85 8.6 37.85 12 37.85 15.75 39.55 19 41.05 21.9 42.3 21.9 43.7 21.9 45.2 19 46.8 15.85 46.8 12 46.8 8.35 45.2 5.1 Z"/>
</g>

<g id="Layer0_1_MEMBER_0_MEMBER_27_MEMBER_1_MEMBER_1_FILL">
<path fill="#FF7CE5" stroke="none" d="
M 42.3 6.85
Q 41.15 8.1 40.55 10 39.4 13.85 42.3 17.3 45.25 13.85 44.05 10
L 42.3 6.85 Z"/>
</g>

<g id="Layer0_1_MEMBER_0_MEMBER_27_MEMBER_2_FILL">
<path fill="#2F2F2F" stroke="none" d="
M 47.65 26.25
Q 47.85 26.05 47.7 25.85 42.35 19.15 34.4 19.3 26.25 19.15 21.1 25.85 20.95 26.05 21.1 26.25 21.3 26.4 21.5 26.3 25.65 23.85 27.9 23.1 30.25 22.35 34.4 22.2 38.5 22.35 40.85 23.1 43.15 23.85 47.3 26.3 47.5 26.4 47.65 26.25 Z"/>
</g>

<g id="Layer0_1_MEMBER_0_MEMBER_28_FILL">
<path fill="#FCC21B" stroke="none" d="
M 57.35 108.5
Q 56.1 108.5 55.15 109.4 54.25 110.35 54.25 111.6 54.25 112.9 55.15 113.8 56.1 114.7 57.35 114.7 58.65 114.7 59.55 113.8 60.45 112.9 60.45 111.6 60.45 110.35 59.55 109.4 58.65 108.5 57.35 108.5 Z"/>
</g>

<g id="Layer0_1_MEMBER_1_FILL">
<path fill="#444444" stroke="none" d="
M 35.35 91.1
Q 37.4 91.1 39.7 88.8
L 46.35 82.95 22.35 82.95 29.9 88.6
Q 30.45 89.15 32.1 90 34.1 91.1 35.3 91.1
L 35.35 91.1 Z"/>
</g>

<g id="Layer0_1_MEMBER_2_FILL">
<path fill="#444444" stroke="none" d="
M 22.35 82.95
L 23.8 83.7 44.65 83.7 46.35 82.95 45.15 81.85 23.3 82.05 22.35 82.95 Z"/>
</g>
</defs>

<g id="Layer_1">
<g transform="matrix( 0.5624542236328125, 0, 0, 0.5624542236328125, -0.05,0) ">
<use xlink:href="#Layer0_0_MEMBER_0_MEMBER_0_MEMBER_0_FILL"/>
</g>

<g transform="matrix( 0.5624542236328125, 0, 0, 0.5624542236328125, -0.05,0) ">
<use xlink:href="#Layer0_0_MEMBER_0_MEMBER_0_MEMBER_1_FILL"/>
</g>

<g transform="matrix( 0.5625, 0, 0, 0.5625, -0.05,0) ">
<use xlink:href="#Layer0_0_MEMBER_0_MEMBER_1_FILL"/>
</g>

<g transform="matrix( 0.5625, 0, 0, 0.5625, -0.05,0) ">
<use xlink:href="#Layer0_0_MEMBER_0_MEMBER_2_FILL"/>
</g>

<g transform="matrix( 0.5625, 0, 0, 0.5625, -0.05,0) ">
<use xlink:href="#Layer0_0_MEMBER_0_MEMBER_3_FILL"/>
</g>

<g transform="matrix( 0.5624542236328125, 0, 0, 0.5624542236328125, -0.05,0) ">
<use xlink:href="#Layer0_0_MEMBER_0_MEMBER_4_MEMBER_0_FILL"/>
</g>

<g transform="matrix( 0.5624542236328125, 0, 0, 0.5624542236328125, -0.05,0) ">
<use xlink:href="#Layer0_0_MEMBER_0_MEMBER_4_MEMBER_1_FILL"/>
</g>

<g transform="matrix( 0.5625, 0, 0, 0.5625, -0.05,0) ">
<use xlink:href="#Layer0_0_MEMBER_0_MEMBER_5_FILL"/>
</g>

<g transform="matrix( 0.5625, 0, 0, 0.5625, -0.05,0) ">
<use xlink:href="#Layer0_0_MEMBER_0_MEMBER_6_FILL"/>
</g>

<g transform="matrix( 0.5625, 0, 0, 0.5625, -0.05,0) ">
<use xlink:href="#Layer0_0_MEMBER_0_MEMBER_7_FILL"/>
</g>

<g transform="matrix( 0.5625, 0, 0, 0.5625, -0.05,0) ">
<use xlink:href="#Layer0_0_MEMBER_0_MEMBER_8_FILL"/>
</g>

<g transform="matrix( 0.5625, 0, 0, 0.5625, -0.05,0) ">
<use xlink:href="#Layer0_0_MEMBER_0_MEMBER_9_FILL"/>
</g>

<g transform="matrix( 0.5625, 0, 0, 0.5625, -0.05,0) ">
<use xlink:href="#Layer0_0_MEMBER_0_MEMBER_10_FILL"/>
</g>

<g transform="matrix( 0.5625, 0, 0, 0.5625, -0.05,0) ">
<use xlink:href="#Layer0_0_MEMBER_0_MEMBER_11_FILL"/>
</g>

<g transform="matrix( 0.5625, 0, 0, 0.5625, -0.05,0) ">
<use xlink:href="#Layer0_0_MEMBER_0_MEMBER_12_FILL"/>
</g>

<g transform="matrix( 0.5625, 0, 0, 0.5625, -0.05,0) ">
<use xlink:href="#Layer0_0_MEMBER_0_MEMBER_13_FILL"/>
</g>

<g transform="matrix( 0.5625, 0, 0, 0.5625, -0.05,0) ">
<use xlink:href="#Layer0_0_MEMBER_0_MEMBER_14_FILL"/>
</g>

<g transform="matrix( 0.5625, 0, 0, 0.5625, -0.05,0) ">
<use xlink:href="#Layer0_0_MEMBER_0_MEMBER_15_FILL"/>
</g>

<g transform="matrix( 0.5625, 0, 0, 0.5625, -0.05,0) ">
<use xlink:href="#Layer0_0_MEMBER_0_MEMBER_16_FILL"/>
</g>

<g transform="matrix( 0.5625, 0, 0, 0.5625, -0.05,0) ">
<use xlink:href="#Layer0_0_MEMBER_0_MEMBER_17_FILL"/>
</g>

<g transform="matrix( 0.5624542236328125, 0, 0, 0.5624542236328125, -0.05,0) ">
<use xlink:href="#Layer0_0_MEMBER_0_MEMBER_18_MEMBER_0_FILL"/>
</g>

<g transform="matrix( 0.5624542236328125, 0, 0, 0.5624542236328125, -0.05,0) ">
<use xlink:href="#Layer0_0_MEMBER_0_MEMBER_18_MEMBER_1_FILL"/>
</g>

<g transform="matrix( 0.5625, 0, 0, 0.5625, -0.05,0) ">
<use xlink:href="#Layer0_0_MEMBER_0_MEMBER_19_FILL"/>
</g>

<g transform="matrix( 0.5625, 0, 0, 0.5625, -0.05,0) ">
<use xlink:href="#Layer0_0_MEMBER_0_MEMBER_20_FILL"/>
</g>

<g transform="matrix( 1, 0, 0, 1, 0,0) ">
<use xlink:href="#Layer0_0_MEMBER_0_MEMBER_21_FILL"/>
</g>

<g transform="matrix( 0.5625, 0, 0, 0.5625, -0.05,0) ">
<use xlink:href="#Layer0_0_MEMBER_0_MEMBER_22_FILL"/>
</g>

<g transform="matrix( 0.5625, 0, 0, 0.5625, -0.05,0) ">
<use xlink:href="#Layer0_0_MEMBER_0_MEMBER_23_FILL"/>
</g>

<g transform="matrix( 0.5625, 0, 0, 0.5625, -0.05,0) ">
<use xlink:href="#Layer0_0_MEMBER_0_MEMBER_24_FILL"/>
</g>

<g transform="matrix( 0.5625, 0, 0, 0.5625, -0.05,0) ">
<use xlink:href="#Layer0_0_MEMBER_0_MEMBER_25_FILL"/>
</g>

<g transform="matrix( 0.5625, 0, 0, 0.5625, -0.05,0) ">
<use xlink:href="#Layer0_0_MEMBER_0_MEMBER_26_FILL"/>
</g>

<g transform="matrix( 0.562408447265625, 0, 0, 0.562408447265625, -0.05,0) ">
<use xlink:href="#Layer0_0_MEMBER_0_MEMBER_27_MEMBER_0_MEMBER_0_FILL"/>
</g>

<g transform="matrix( 0.562408447265625, 0, 0, 0.562408447265625, -0.05,0) ">
<use xlink:href="#Layer0_0_MEMBER_0_MEMBER_27_MEMBER_0_MEMBER_1_FILL"/>
</g>

<g transform="matrix( 0.562408447265625, 0, 0, 0.562408447265625, -0.05,0) ">
<use xlink:href="#Layer0_0_MEMBER_0_MEMBER_27_MEMBER_1_MEMBER_0_FILL"/>
</g>

<g transform="matrix( 0.562408447265625, 0, 0, 0.562408447265625, -0.05,0) ">
<use xlink:href="#Layer0_0_MEMBER_0_MEMBER_27_MEMBER_1_MEMBER_1_FILL"/>
</g>

<g transform="matrix( 0.5624542236328125, 0, 0, 0.5624542236328125, -0.05,0) ">
<use xlink:href="#Layer0_0_MEMBER_0_MEMBER_27_MEMBER_2_FILL"/>
</g>

<g transform="matrix( 0.5625, 0, 0, 0.5625, -0.05,0) ">
<use xlink:href="#Layer0_0_MEMBER_0_MEMBER_28_FILL"/>
</g>

<g transform="matrix( 0.5625, 0, 0, 0.5625, -0.05,0) ">
<use xlink:href="#Layer0_0_MEMBER_1_FILL"/>
</g>

<g transform="matrix( 0.5625, 0, 0, 0.5625, -0.05,0) ">
<use xlink:href="#Layer0_0_MEMBER_2_FILL"/>
</g>

<g transform="matrix( 0.562469482421875, 0, 0, 0.562469482421875, 32.3,0) ">
<use xlink:href="#Layer0_1_MEMBER_0_MEMBER_0_MEMBER_0_FILL"/>
</g>

<g transform="matrix( 0.562469482421875, 0, 0, 0.562469482421875, 32.3,0) ">
<use xlink:href="#Layer0_1_MEMBER_0_MEMBER_0_MEMBER_1_FILL"/>
</g>

<g transform="matrix( 0.5625, 0, 0, 0.5625, 32.3,0) ">
<use xlink:href="#Layer0_1_MEMBER_0_MEMBER_1_FILL"/>
</g>

<g transform="matrix( 0.5625, 0, 0, 0.5625, 32.3,0) ">
<use xlink:href="#Layer0_1_MEMBER_0_MEMBER_2_FILL"/>
</g>

<g transform="matrix( 0.5625, 0, 0, 0.5625, 32.3,0) ">
<use xlink:href="#Layer0_1_MEMBER_0_MEMBER_3_FILL"/>
</g>

<g transform="matrix( 0.562469482421875, 0, 0, 0.562469482421875, 32.3,0) ">
<use xlink:href="#Layer0_1_MEMBER_0_MEMBER_4_MEMBER_0_FILL"/>
</g>

<g transform="matrix( 0.562469482421875, 0, 0, 0.562469482421875, 32.3,0) ">
<use xlink:href="#Layer0_1_MEMBER_0_MEMBER_4_MEMBER_1_FILL"/>
</g>

<g transform="matrix( 0.5625, 0, 0, 0.5625, 32.3,0) ">
<use xlink:href="#Layer0_1_MEMBER_0_MEMBER_5_FILL"/>
</g>

<g transform="matrix( 0.5625, 0, 0, 0.5625, 32.3,0) ">
<use xlink:href="#Layer0_1_MEMBER_0_MEMBER_6_FILL"/>
</g>

<g transform="matrix( 0.5625, 0, 0, 0.5625, 32.3,0) ">
<use xlink:href="#Layer0_1_MEMBER_0_MEMBER_7_FILL"/>
</g>

<g transform="matrix( 0.5625, 0, 0, 0.5625, 32.3,0) ">
<use xlink:href="#Layer0_1_MEMBER_0_MEMBER_8_FILL"/>
</g>

<g transform="matrix( 0.5625, 0, 0, 0.5625, 32.3,0) ">
<use xlink:href="#Layer0_1_MEMBER_0_MEMBER_9_FILL"/>
</g>

<g transform="matrix( 0.5625, 0, 0, 0.5625, 32.3,0) ">
<use xlink:href="#Layer0_1_MEMBER_0_MEMBER_10_FILL"/>
</g>

<g transform="matrix( 0.5625, 0, 0, 0.5625, 32.3,0) ">
<use xlink:href="#Layer0_1_MEMBER_0_MEMBER_11_FILL"/>
</g>

<g transform="matrix( 0.5625, 0, 0, 0.5625, 32.3,0) ">
<use xlink:href="#Layer0_1_MEMBER_0_MEMBER_12_FILL"/>
</g>

<g transform="matrix( 0.5625, 0, 0, 0.5625, 32.3,0) ">
<use xlink:href="#Layer0_1_MEMBER_0_MEMBER_13_FILL"/>
</g>

<g transform="matrix( 0.5625, 0, 0, 0.5625, 32.3,0) ">
<use xlink:href="#Layer0_1_MEMBER_0_MEMBER_14_FILL"/>
</g>

<g transform="matrix( 0.5625, 0, 0, 0.5625, 32.3,0) ">
<use xlink:href="#Layer0_1_MEMBER_0_MEMBER_15_FILL"/>
</g>

<g transform="matrix( 0.5625, 0, 0, 0.5625, 32.3,0) ">
<use xlink:href="#Layer0_1_MEMBER_0_MEMBER_16_FILL"/>
</g>

<g transform="matrix( 0.5625, 0, 0, 0.5625, 32.3,0) ">
<use xlink:href="#Layer0_1_MEMBER_0_MEMBER_17_FILL"/>
</g>

<g transform="matrix( 0.562469482421875, 0, 0, 0.562469482421875, 32.3,0) ">
<use xlink:href="#Layer0_1_MEMBER_0_MEMBER_18_MEMBER_0_FILL"/>
</g>

<g transform="matrix( 0.562469482421875, 0, 0, 0.562469482421875, 32.3,0) ">
<use xlink:href="#Layer0_1_MEMBER_0_MEMBER_18_MEMBER_1_FILL"/>
</g>

<g transform="matrix( 0.5625, 0, 0, 0.5625, 32.3,0) ">
<use xlink:href="#Layer0_1_MEMBER_0_MEMBER_19_FILL"/>
</g>

<g transform="matrix( 0.5625, 0, 0, 0.5625, 32.3,0) ">
<use xlink:href="#Layer0_1_MEMBER_0_MEMBER_20_FILL"/>
</g>

<g transform="matrix( 1, 0, 0, 1, 32.35,0) ">
<use xlink:href="#Layer0_1_MEMBER_0_MEMBER_21_FILL"/>
</g>

<g transform="matrix( 0.5625, 0, 0, 0.5625, 32.3,0) ">
<use xlink:href="#Layer0_1_MEMBER_0_MEMBER_22_FILL"/>
</g>

<g transform="matrix( 0.5625, 0, 0, 0.5625, 32.3,0) ">
<use xlink:href="#Layer0_1_MEMBER_0_MEMBER_23_FILL"/>
</g>

<g transform="matrix( 0.5625, 0, 0, 0.5625, 32.3,0) ">
<use xlink:href="#Layer0_1_MEMBER_0_MEMBER_24_FILL"/>
</g>

<g transform="matrix( 0.5625, 0, 0, 0.5625, 32.3,0) ">
<use xlink:href="#Layer0_1_MEMBER_0_MEMBER_25_FILL"/>
</g>

<g transform="matrix( 0.5625, 0, 0, 0.5625, 32.3,0) ">
<use xlink:href="#Layer0_1_MEMBER_0_MEMBER_26_FILL"/>
</g>

<g transform="matrix( 0.56243896484375, 0, 0, 0.56243896484375, 32.3,0) ">
<use xlink:href="#Layer0_1_MEMBER_0_MEMBER_27_MEMBER_0_MEMBER_0_FILL"/>
</g>

<g transform="matrix( 0.56243896484375, 0, 0, 0.56243896484375, 32.3,0) ">
<use xlink:href="#Layer0_1_MEMBER_0_MEMBER_27_MEMBER_0_MEMBER_1_FILL"/>
</g>

<g transform="matrix( 0.56243896484375, 0, 0, 0.56243896484375, 32.3,0) ">
<use xlink:href="#Layer0_1_MEMBER_0_MEMBER_27_MEMBER_1_MEMBER_0_FILL"/>
</g>

<g transform="matrix( 0.56243896484375, 0, 0, 0.56243896484375, 32.3,0) ">
<use xlink:href="#Layer0_1_MEMBER_0_MEMBER_27_MEMBER_1_MEMBER_1_FILL"/>
</g>

<g transform="matrix( 0.562469482421875, 0, 0, 0.562469482421875, 32.3,0) ">
<use xlink:href="#Layer0_1_MEMBER_0_MEMBER_27_MEMBER_2_FILL"/>
</g>

<g transform="matrix( 0.5625, 0, 0, 0.5625, 32.3,0) ">
<use xlink:href="#Layer0_1_MEMBER_0_MEMBER_28_FILL"/>
</g>

<g transform="matrix( 0.5625, 0, 0, 0.5625, 32.3,0) ">
<use xlink:href="#Layer0_1_MEMBER_1_FILL"/>
</g>

<g transform="matrix( 0.5625, 0, 0, 0.5625, 32.3,0) ">
<use xlink:href="#Layer0_1_MEMBER_2_FILL"/>
</g>
</g>
</svg>
