
<svg xmlns="http://www.w3.org/2000/svg" version="1.1" xmlns:xlink="http://www.w3.org/1999/xlink" preserveAspectRatio="none" x="0px" y="0px" width="72px" height="72px" viewBox="0 0 72 72">
<defs>
<g id="Layer0_0_MEMBER_0_MEMBER_0_FILL">
<path fill="#FFA000" stroke="none" d="
M 110.9 36.8
Q 111.2 29.95 111.2 24.7
L 72.65 24.7
Q 72.65 30.5 73 37.65 73.75 51.95 75.6 58.65 76.9 63.25 78.35 64.6 80.25 66.3 83.35 64
L 100.45 63.85
Q 103.6 66.25 106 64.5 108.2 62.9 108.95 58.5 110.35 50.45 110.9 36.8 Z"/>
</g>

<g id="Layer0_0_MEMBER_1_MEMBER_0_FILL">
<path fill="#FFA000" stroke="none" d="
M 91.9 42
Q 99.9 42 105.55 36.95 111.2 31.85 111.2 24.7 111.2 17.5 105.55 12.45 99.9 7.35 91.9 7.35 83.9 7.35 78.3 12.45 72.65 17.5 72.65 24.7 72.65 31.85 78.3 36.95 83.9 42 91.9 42 Z"/>
</g>

<g id="Layer0_0_MEMBER_2_FILL">
<path fill="#FCC21B" stroke="none" d="
M 112.7 61.65
L 103.3 59.3 103.6 63.4 119.35 87
Q 120.2 88.2 121.65 88.45 123.1 88.65 124.2 87.75 125.2 86.95 125.35 85.7 125.55 84.4 124.85 83.35
L 118.3 73.35
Q 115.3 68.6 113.35 63.4
L 112.7 61.65 Z"/>
</g>

<g id="Layer0_0_MEMBER_3_FILL">
<path fill="#FCC21B" stroke="none" d="
M 80.65 59.1
L 71.25 61.45 70.6 63.2
Q 68.65 68.4 65.65 73.15
L 59.1 83.15
Q 58.4 84.2 58.6 85.45 58.75 86.7 59.75 87.55 60.9 88.45 62.35 88.25 63.8 88 64.6 86.8
L 80.35 63.2 80.65 59.1 Z"/>
</g>

<g id="Layer0_0_MEMBER_4_FILL">
<path fill="#E53935" stroke="none" d="
M 91.9 70.3
L 91.9 49.85
Q 85.55 49.85 81.65 50.85 76.65 52.2 74.15 55 72.3 57.1 70.4 62.1
L 91.9 70.3 Z"/>
</g>

<g id="Layer0_0_MEMBER_5_FILL">
<path fill="#E53935" stroke="none" d="
M 88.65 55.7
L 88.65 71.45 93.95 71.45 93.95 55.7 88.65 55.7 Z"/>
</g>

<g id="Layer0_0_MEMBER_6_FILL">
<path fill="#E53935" stroke="none" d="
M 90.8 79.4
L 90.8 62 78.55 62 78.55 79.4 90.8 79.4 Z"/>
</g>

<g id="Layer0_0_MEMBER_7_FILL">
<path fill="#E53935" stroke="none" d="
M 91.9 96.95
L 91.9 77.45 78.6 77.45 70.4 96.95 91.9 96.95 Z"/>
</g>

<g id="Layer0_0_MEMBER_8_MEMBER_0_FILL">
<path fill="#FCC21B" stroke="none" d="
M 54 71.8
L 59.2 71.8 59.2 54.55 54 54.55 54 71.8 Z"/>
</g>

<g id="Layer0_0_MEMBER_8_MEMBER_1_FILL">
<path fill="#FCC21B" stroke="none" d="
M 49.4 71.8
L 49.4 54.55 44.2 54.55 44.2 71.8 49.4 71.8 Z"/>
</g>

<g id="Layer0_0_MEMBER_9_FILL">
<path fill="#444444" stroke="none" d="
M 78.2 122.7
Q 77.05 123.85 77.05 125.5
L 77.05 128 89.05 128 89.05 125.5
Q 89.05 123.85 87.9 122.7 86.7 121.5 85.05 121.5
L 81.05 121.5
Q 79.35 121.5 78.2 122.7 Z"/>
</g>

<g id="Layer0_0_MEMBER_10_FILL">
<path fill="#E53935" stroke="none" d="
M 91.9 49.85
L 91.9 70.3 113.4 62.1
Q 111.55 57.1 109.7 55 107.2 52.2 102.15 50.85 98.25 49.85 91.9 49.85 Z"/>
</g>

<g id="Layer0_0_MEMBER_11_FILL">
<path fill="#E53935" stroke="none" d="
M 105.2 79.4
L 105.2 62 91.9 62 91.9 79.4 105.2 79.4 Z"/>
</g>

<g id="Layer0_0_MEMBER_12_FILL">
<path fill="#E53935" stroke="none" d="
M 105.2 77.45
L 91.9 77.45 91.9 96.95 113.4 96.95 105.2 77.45 Z"/>
</g>

<g id="Layer0_0_MEMBER_13_FILL">
<path fill="#444444" stroke="none" d="
M 94.75 125.5
L 94.75 128 106.75 128 106.75 125.5
Q 106.75 123.85 105.6 122.7 104.45 121.5 102.75 121.5
L 98.75 121.5
Q 97.1 121.5 95.95 122.7 94.75 123.85 94.75 125.5 Z"/>
</g>

<g id="Layer0_0_MEMBER_14_FILL">
<path fill="#E59600" stroke="none" d="
M 97 46.75
L 86.8 46.75 86.8 51.9
Q 86.8 54.1 88.25 55.45 89.65 56.8 91.9 56.8 94.15 56.8 95.55 55.45 97 54.05 97 51.9
L 97 46.75 Z"/>
</g>

<g id="Layer0_0_MEMBER_15_FILL">
<path fill="#E59600" stroke="none" d="
M 54.55 29.15
L 54.6 29.15 54.6 26.3
Q 54.6 25.7 54.25 25.25 53.85 24.8 53.35 24.8
L 50.05 24.8
Q 49.55 24.8 49.15 25.3 48.85 25.75 48.85 26.35
L 48.85 29.2 49.6 29.4
Q 50.6 29.6 51.7 29.6 53.45 29.6 54.55 29.15 Z"/>
</g>

<g id="Layer0_0_MEMBER_16_FILL">
<path fill="#E53935" stroke="none" d="
M 89.85 76.45
L 89.85 96.95 93.95 96.95 93.95 76.45 89.85 76.45 Z"/>
</g>

<g id="Layer0_0_MEMBER_17_MEMBER_0_FILL">
<path fill="#CC2828" stroke="none" d="
M 91.9 77.5
L 91.9 71.45 78.6 71.45 78.6 77.5 91.9 77.5 Z"/>
</g>

<g id="Layer0_0_MEMBER_17_MEMBER_1_FILL">
<path fill="#CC2828" stroke="none" d="
M 105.2 77.5
L 105.2 71.45 91.9 71.45 91.9 77.5 105.2 77.5 Z"/>
</g>

<g id="Layer0_0_MEMBER_17_MEMBER_2_FILL">
<path fill="#CC2828" stroke="none" d="
M 89.85 71.45
L 89.85 77.5 93.95 77.5 93.95 71.45 89.85 71.45 Z"/>
</g>

<g id="Layer0_0_MEMBER_18_MEMBER_0_FILL">
<path fill="#FCC21B" stroke="none" d="
M 103.8 17.75
Q 100.25 11.55 91.9 11.55 83.55 11.55 80 17.75 76.95 23 76.95 33.6 76.95 42.3 82.25 46.9 86.4 50.45 91.9 50.45 97.35 50.45 101.55 46.85 106.85 42.3 106.85 33.6 106.85 23 103.8 17.75 Z"/>
</g>

<g id="Layer0_0_MEMBER_19_MEMBER_0_FILL">
<path fill="#FFA000" stroke="none" d="
M 96.4 21.65
Q 96.7 21.35 96.9 21.75 99.2 26.45 103.75 29.7 106.05 31.35 107.9 32.05
L 107.9 17.85
Q 106.75 15.5 104.2 13.15 99.05 8.4 92.05 8.4 85.1 8.4 79.95 13 78.35 14.45 77.15 16.15
L 76.25 17.6 76.25 32.05
Q 83.1 30.9 89.8 26.75 93.65 24.35 96.4 21.65 Z"/>
</g>

<g id="Layer0_0_MEMBER_20_FILL">
<path fill="#444444" stroke="none" d="
M 86.9 34.5
Q 86.9 33.45 86.3 32.75 85.7 32 84.85 32 84 32 83.4 32.75 82.8 33.45 82.8 34.5 82.8 35.5 83.4 36.25 84 36.95 84.85 36.95 85.7 36.95 86.3 36.25 86.9 35.5 86.9 34.5 Z"/>
</g>

<g id="Layer0_0_MEMBER_21_FILL">
<path fill="#444444" stroke="none" d="
M 97.5 32.75
Q 96.9 33.45 96.9 34.5 96.9 35.5 97.5 36.25 98.1 36.95 98.95 36.95 99.8 36.95 100.4 36.25 101 35.5 101 34.5 101 33.45 100.4 32.75 99.8 32 98.95 32 98.1 32 97.5 32.75 Z"/>
</g>

<g id="Layer0_0_MEMBER_22_FILL">
<path fill="#4C3734" stroke="none" d="
M 87.1 43.65
Q 87.55 44.35 88.7 44.95 90.15 45.75 91.9 45.75 93.65 45.75 95.1 45 96.25 44.35 96.7 43.65 96.95 43.3 96.8 43.05 96.7 42.8 96.3 42.8
L 87.5 42.8
Q 87.1 42.8 87 43.05 86.85 43.3 87.1 43.65 Z"/>
</g>

<g id="Layer0_0_MEMBER_23_FILL">
<path fill="#E48C15" stroke="none" d="
M 89.4 39.75
Q 89.65 40.15 90.25 40.55 91.05 41 91.9 41 92.75 41 93.5 40.55 94.15 40.15 94.35 39.75 94.45 39.6 94.35 39.45 94.25 39.3 94.05 39.35 92.95 39.65 91.9 39.65 90.9 39.65 89.75 39.35 89.55 39.3 89.45 39.45 89.3 39.6 89.4 39.75 Z"/>
</g>

<g id="Layer0_1_MEMBER_0_MEMBER_0_FILL">
<path fill="#FF0000" stroke="none" d="
M 110.9 36.8
Q 111.2 29.95 111.2 24.7
L 72.65 24.7
Q 72.65 30.5 73 37.65 73.75 51.95 75.6 58.65 76.9 63.25 78.35 64.6 80.25 66.3 83.35 64
L 100.45 63.85
Q 103.6 66.25 106 64.5 108.2 62.9 108.95 58.5 110.35 50.45 110.9 36.8 Z"/>
</g>

<g id="Layer0_1_MEMBER_1_MEMBER_0_FILL">
<path fill="#FF0000" stroke="none" d="
M 91.9 42
Q 99.9 42 105.55 36.95 111.2 31.85 111.2 24.7 111.2 17.5 105.55 12.45 99.9 7.35 91.9 7.35 83.9 7.35 78.3 12.45 72.65 17.5 72.65 24.7 72.65 31.85 78.3 36.95 83.9 42 91.9 42 Z"/>
</g>

<g id="Layer0_1_MEMBER_2_FILL">
<path fill="#FFFF00" stroke="none" d="
M 112.7 61.65
L 103.3 59.3 103.6 63.4 119.35 87
Q 120.2 88.2 121.65 88.45 123.1 88.65 124.2 87.75 125.2 86.95 125.35 85.7 125.55 84.4 124.85 83.35
L 118.3 73.35
Q 115.3 68.6 113.35 63.4
L 112.7 61.65 Z"/>
</g>

<g id="Layer0_1_MEMBER_3_FILL">
<path fill="#FFFF00" stroke="none" d="
M 80.65 59.1
L 71.25 61.45 70.6 63.2
Q 68.65 68.4 65.65 73.15
L 59.1 83.15
Q 58.4 84.2 58.6 85.45 58.75 86.7 59.75 87.55 60.9 88.45 62.35 88.25 63.8 88 64.6 86.8
L 80.35 63.2 80.65 59.1 Z"/>
</g>

<g id="Layer0_1_MEMBER_4_FILL">
<path fill="#7E57C2" stroke="none" d="
M 91.9 70.3
L 91.9 49.85
Q 85.55 49.85 81.65 50.85 76.65 52.2 74.15 55 72.3 57.1 70.4 62.1
L 91.9 70.3 Z"/>
</g>

<g id="Layer0_1_MEMBER_5_FILL">
<path fill="#7E57C2" stroke="none" d="
M 88.65 55.7
L 88.65 71.45 93.95 71.45 93.95 55.7 88.65 55.7 Z"/>
</g>

<g id="Layer0_1_MEMBER_6_FILL">
<path fill="#7E57C2" stroke="none" d="
M 90.8 79.4
L 90.8 62 78.55 62 78.55 79.4 90.8 79.4 Z"/>
</g>

<g id="Layer0_1_MEMBER_7_FILL">
<path fill="#7E57C2" stroke="none" d="
M 91.9 96.95
L 91.9 77.45 78.6 77.45 70.4 96.95 91.9 96.95 Z"/>
</g>

<g id="Layer0_1_MEMBER_8_MEMBER_0_FILL">
<path fill="#FFFF00" stroke="none" d="
M 54 71.8
L 59.2 71.8 59.2 54.55 54 54.55 54 71.8 Z"/>
</g>

<g id="Layer0_1_MEMBER_8_MEMBER_1_FILL">
<path fill="#FFFF00" stroke="none" d="
M 49.4 71.8
L 49.4 54.55 44.2 54.55 44.2 71.8 49.4 71.8 Z"/>
</g>

<g id="Layer0_1_MEMBER_9_FILL">
<path fill="#444444" stroke="none" d="
M 78.2 122.7
Q 77.05 123.85 77.05 125.5
L 77.05 128 89.05 128 89.05 125.5
Q 89.05 123.85 87.9 122.7 86.7 121.5 85.05 121.5
L 81.05 121.5
Q 79.35 121.5 78.2 122.7 Z"/>
</g>

<g id="Layer0_1_MEMBER_10_FILL">
<path fill="#7E57C2" stroke="none" d="
M 91.9 49.85
L 91.9 70.3 113.4 62.1
Q 111.55 57.1 109.7 55 107.2 52.2 102.15 50.85 98.25 49.85 91.9 49.85 Z"/>
</g>

<g id="Layer0_1_MEMBER_11_FILL">
<path fill="#7E57C2" stroke="none" d="
M 105.2 79.4
L 105.2 62 91.9 62 91.9 79.4 105.2 79.4 Z"/>
</g>

<g id="Layer0_1_MEMBER_12_FILL">
<path fill="#7E57C2" stroke="none" d="
M 105.2 77.45
L 91.9 77.45 91.9 96.95 113.4 96.95 105.2 77.45 Z"/>
</g>

<g id="Layer0_1_MEMBER_13_FILL">
<path fill="#444444" stroke="none" d="
M 94.75 125.5
L 94.75 128 106.75 128 106.75 125.5
Q 106.75 123.85 105.6 122.7 104.45 121.5 102.75 121.5
L 98.75 121.5
Q 97.1 121.5 95.95 122.7 94.75 123.85 94.75 125.5 Z"/>
</g>

<g id="Layer0_1_MEMBER_14_FILL">
<path fill="#00FF00" stroke="none" d="
M 97 46.75
L 86.8 46.75 86.8 51.9
Q 86.8 54.1 88.25 55.45 89.65 56.8 91.9 56.8 94.15 56.8 95.55 55.45 97 54.05 97 51.9
L 97 46.75 Z"/>
</g>

<g id="Layer0_1_MEMBER_15_FILL">
<path fill="#00FF00" stroke="none" d="
M 54.55 29.15
L 54.6 29.15 54.6 26.3
Q 54.6 25.7 54.25 25.25 53.85 24.8 53.35 24.8
L 50.05 24.8
Q 49.55 24.8 49.15 25.3 48.85 25.75 48.85 26.35
L 48.85 29.2 49.6 29.4
Q 50.6 29.6 51.7 29.6 53.45 29.6 54.55 29.15 Z"/>
</g>

<g id="Layer0_1_MEMBER_16_FILL">
<path fill="#7E57C2" stroke="none" d="
M 89.85 76.45
L 89.85 96.95 93.95 96.95 93.95 76.45 89.85 76.45 Z"/>
</g>

<g id="Layer0_1_MEMBER_17_MEMBER_0_FILL">
<path fill="#6443A8" stroke="none" d="
M 91.9 77.5
L 91.9 71.45 78.6 71.45 78.6 77.5 91.9 77.5 Z"/>
</g>

<g id="Layer0_1_MEMBER_17_MEMBER_1_FILL">
<path fill="#6443A8" stroke="none" d="
M 105.2 77.5
L 105.2 71.45 91.9 71.45 91.9 77.5 105.2 77.5 Z"/>
</g>

<g id="Layer0_1_MEMBER_17_MEMBER_2_FILL">
<path fill="#6443A8" stroke="none" d="
M 89.85 71.45
L 89.85 77.5 93.95 77.5 93.95 71.45 89.85 71.45 Z"/>
</g>

<g id="Layer0_1_MEMBER_18_MEMBER_0_FILL">
<path fill="#FFFF00" stroke="none" d="
M 103.8 17.75
Q 100.25 11.55 91.9 11.55 83.55 11.55 80 17.75 76.95 23 76.95 33.6 76.95 42.3 82.25 46.9 86.4 50.45 91.9 50.45 97.35 50.45 101.55 46.85 106.85 42.3 106.85 33.6 106.85 23 103.8 17.75 Z"/>
</g>

<g id="Layer0_1_MEMBER_19_MEMBER_0_FILL">
<path fill="#FF0000" stroke="none" d="
M 96.4 21.65
Q 96.7 21.35 96.9 21.75 99.2 26.45 103.75 29.7 106.05 31.35 107.9 32.05
L 107.9 17.85
Q 106.75 15.5 104.2 13.15 99.05 8.4 92.05 8.4 85.1 8.4 79.95 13 78.35 14.45 77.15 16.15
L 76.25 17.6 76.25 32.05
Q 83.1 30.9 89.8 26.75 93.65 24.35 96.4 21.65 Z"/>
</g>

<g id="Layer0_1_MEMBER_20_FILL">
<path fill="#444444" stroke="none" d="
M 86.9 34.5
Q 86.9 33.45 86.3 32.75 85.7 32 84.85 32 84 32 83.4 32.75 82.8 33.45 82.8 34.5 82.8 35.5 83.4 36.25 84 36.95 84.85 36.95 85.7 36.95 86.3 36.25 86.9 35.5 86.9 34.5 Z"/>
</g>

<g id="Layer0_1_MEMBER_21_FILL">
<path fill="#444444" stroke="none" d="
M 97.5 32.75
Q 96.9 33.45 96.9 34.5 96.9 35.5 97.5 36.25 98.1 36.95 98.95 36.95 99.8 36.95 100.4 36.25 101 35.5 101 34.5 101 33.45 100.4 32.75 99.8 32 98.95 32 98.1 32 97.5 32.75 Z"/>
</g>

<g id="Layer0_1_MEMBER_22_FILL">
<path fill="#4C3734" stroke="none" d="
M 87.1 43.65
Q 87.55 44.35 88.7 44.95 90.15 45.75 91.9 45.75 93.65 45.75 95.1 45 96.25 44.35 96.7 43.65 96.95 43.3 96.8 43.05 96.7 42.8 96.3 42.8
L 87.5 42.8
Q 87.1 42.8 87 43.05 86.85 43.3 87.1 43.65 Z"/>
</g>

<g id="Layer0_1_MEMBER_23_FILL">
<path fill="#0000FF" stroke="none" d="
M 89.4 39.75
Q 89.65 40.15 90.25 40.55 91.05 41 91.9 41 92.75 41 93.5 40.55 94.15 40.15 94.35 39.75 94.45 39.6 94.35 39.45 94.25 39.3 94.05 39.35 92.95 39.65 91.9 39.65 90.9 39.65 89.75 39.35 89.55 39.3 89.45 39.45 89.3 39.6 89.4 39.75 Z"/>
</g>
</defs>

<g id="Layer_1">
<g transform="matrix( 0.5625, 0, 0, 0.5625, -31.45,0) ">
<use xlink:href="#Layer0_0_MEMBER_0_MEMBER_0_FILL"/>
</g>

<g transform="matrix( 0.5625, 0, 0, 0.5625, -31.45,0) ">
<use xlink:href="#Layer0_0_MEMBER_1_MEMBER_0_FILL"/>
</g>

<g transform="matrix( 0.5625, 0, 0, 0.5625, -31.45,0) ">
<use xlink:href="#Layer0_0_MEMBER_2_FILL"/>
</g>

<g transform="matrix( 0.5625, 0, 0, 0.5625, -31.45,0) ">
<use xlink:href="#Layer0_0_MEMBER_3_FILL"/>
</g>

<g transform="matrix( 0.5625, 0, 0, 0.5625, -31.45,0) ">
<use xlink:href="#Layer0_0_MEMBER_4_FILL"/>
</g>

<g transform="matrix( 0.5625, 0, 0, 0.5625, -31.45,0) ">
<use xlink:href="#Layer0_0_MEMBER_5_FILL"/>
</g>

<g transform="matrix( 0.5625, 0, 0, 0.5625, -31.45,0) ">
<use xlink:href="#Layer0_0_MEMBER_6_FILL"/>
</g>

<g transform="matrix( 0.5625, 0, 0, 0.5625, -31.45,0) ">
<use xlink:href="#Layer0_0_MEMBER_7_FILL"/>
</g>

<g transform="matrix( 1, 0, 0, 1, -31.45,0) ">
<use xlink:href="#Layer0_0_MEMBER_8_MEMBER_0_FILL"/>
</g>

<g transform="matrix( 1, 0, 0, 1, -31.45,0) ">
<use xlink:href="#Layer0_0_MEMBER_8_MEMBER_1_FILL"/>
</g>

<g transform="matrix( 0.5625, 0, 0, 0.5625, -31.45,0) ">
<use xlink:href="#Layer0_0_MEMBER_9_FILL"/>
</g>

<g transform="matrix( 0.5625, 0, 0, 0.5625, -31.45,0) ">
<use xlink:href="#Layer0_0_MEMBER_10_FILL"/>
</g>

<g transform="matrix( 0.5625, 0, 0, 0.5625, -31.45,0) ">
<use xlink:href="#Layer0_0_MEMBER_11_FILL"/>
</g>

<g transform="matrix( 0.5625, 0, 0, 0.5625, -31.45,0) ">
<use xlink:href="#Layer0_0_MEMBER_12_FILL"/>
</g>

<g transform="matrix( 0.5625, 0, 0, 0.5625, -31.45,0) ">
<use xlink:href="#Layer0_0_MEMBER_13_FILL"/>
</g>

<g transform="matrix( 0.5625, 0, 0, 0.5625, -31.45,0) ">
<use xlink:href="#Layer0_0_MEMBER_14_FILL"/>
</g>

<g transform="matrix( 1, 0, 0, 1, -31.45,0) ">
<use xlink:href="#Layer0_0_MEMBER_15_FILL"/>
</g>

<g transform="matrix( 0.5625, 0, 0, 0.5625, -31.45,0) ">
<use xlink:href="#Layer0_0_MEMBER_16_FILL"/>
</g>

<g transform="matrix( 0.5625, 0, 0, 0.5625, -31.45,0) ">
<use xlink:href="#Layer0_0_MEMBER_17_MEMBER_0_FILL"/>
</g>

<g transform="matrix( 0.5625, 0, 0, 0.5625, -31.45,0) ">
<use xlink:href="#Layer0_0_MEMBER_17_MEMBER_1_FILL"/>
</g>

<g transform="matrix( 0.5625, 0, 0, 0.5625, -31.45,0) ">
<use xlink:href="#Layer0_0_MEMBER_17_MEMBER_2_FILL"/>
</g>

<g transform="matrix( 0.56243896484375, 0, 0, 0.56243896484375, -31.45,0) ">
<use xlink:href="#Layer0_0_MEMBER_18_MEMBER_0_FILL"/>
</g>

<g transform="matrix( 0.5625, 0, 0, 0.5625, -31.45,0) ">
<use xlink:href="#Layer0_0_MEMBER_19_MEMBER_0_FILL"/>
</g>

<g transform="matrix( 0.5625, 0, 0, 0.5625, -31.45,0) ">
<use xlink:href="#Layer0_0_MEMBER_20_FILL"/>
</g>

<g transform="matrix( 0.5625, 0, 0, 0.5625, -31.45,0) ">
<use xlink:href="#Layer0_0_MEMBER_21_FILL"/>
</g>

<g transform="matrix( 0.5625, 0, 0, 0.5625, -31.45,0) ">
<use xlink:href="#Layer0_0_MEMBER_22_FILL"/>
</g>

<g transform="matrix( 0.5625, 0, 0, 0.5625, -31.45,0) ">
<use xlink:href="#Layer0_0_MEMBER_23_FILL"/>
</g>

<g transform="matrix( 0.5625, 0, 0, 0.5625, 0,0) ">
<use xlink:href="#Layer0_1_MEMBER_0_MEMBER_0_FILL"/>
</g>

<g transform="matrix( 0.5625, 0, 0, 0.5625, 0,0) ">
<use xlink:href="#Layer0_1_MEMBER_1_MEMBER_0_FILL"/>
</g>

<g transform="matrix( 0.5625, 0, 0, 0.5625, 0,0) ">
<use xlink:href="#Layer0_1_MEMBER_2_FILL"/>
</g>

<g transform="matrix( 0.5625, 0, 0, 0.5625, 0,0) ">
<use xlink:href="#Layer0_1_MEMBER_3_FILL"/>
</g>

<g transform="matrix( 0.5625, 0, 0, 0.5625, 0,0) ">
<use xlink:href="#Layer0_1_MEMBER_4_FILL"/>
</g>

<g transform="matrix( 0.5625, 0, 0, 0.5625, 0,0) ">
<use xlink:href="#Layer0_1_MEMBER_5_FILL"/>
</g>

<g transform="matrix( 0.5625, 0, 0, 0.5625, 0,0) ">
<use xlink:href="#Layer0_1_MEMBER_6_FILL"/>
</g>

<g transform="matrix( 0.5625, 0, 0, 0.5625, 0,0) ">
<use xlink:href="#Layer0_1_MEMBER_7_FILL"/>
</g>

<g transform="matrix( 1, 0, 0, 1, 0,0) ">
<use xlink:href="#Layer0_1_MEMBER_8_MEMBER_0_FILL"/>
</g>

<g transform="matrix( 1, 0, 0, 1, 0,0) ">
<use xlink:href="#Layer0_1_MEMBER_8_MEMBER_1_FILL"/>
</g>

<g transform="matrix( 0.5625, 0, 0, 0.5625, 0,0) ">
<use xlink:href="#Layer0_1_MEMBER_9_FILL"/>
</g>

<g transform="matrix( 0.5625, 0, 0, 0.5625, 0,0) ">
<use xlink:href="#Layer0_1_MEMBER_10_FILL"/>
</g>

<g transform="matrix( 0.5625, 0, 0, 0.5625, 0,0) ">
<use xlink:href="#Layer0_1_MEMBER_11_FILL"/>
</g>

<g transform="matrix( 0.5625, 0, 0, 0.5625, 0,0) ">
<use xlink:href="#Layer0_1_MEMBER_12_FILL"/>
</g>

<g transform="matrix( 0.5625, 0, 0, 0.5625, 0,0) ">
<use xlink:href="#Layer0_1_MEMBER_13_FILL"/>
</g>

<g transform="matrix( 0.5625, 0, 0, 0.5625, 0,0) ">
<use xlink:href="#Layer0_1_MEMBER_14_FILL"/>
</g>

<g transform="matrix( 1, 0, 0, 1, 0,0) ">
<use xlink:href="#Layer0_1_MEMBER_15_FILL"/>
</g>

<g transform="matrix( 0.5625, 0, 0, 0.5625, 0,0) ">
<use xlink:href="#Layer0_1_MEMBER_16_FILL"/>
</g>

<g transform="matrix( 0.5625, 0, 0, 0.5625, 0,0) ">
<use xlink:href="#Layer0_1_MEMBER_17_MEMBER_0_FILL"/>
</g>

<g transform="matrix( 0.5625, 0, 0, 0.5625, 0,0) ">
<use xlink:href="#Layer0_1_MEMBER_17_MEMBER_1_FILL"/>
</g>

<g transform="matrix( 0.5625, 0, 0, 0.5625, 0,0) ">
<use xlink:href="#Layer0_1_MEMBER_17_MEMBER_2_FILL"/>
</g>

<g transform="matrix( 0.562469482421875, 0, 0, 0.562469482421875, 0,0) ">
<use xlink:href="#Layer0_1_MEMBER_18_MEMBER_0_FILL"/>
</g>

<g transform="matrix( 0.5625, 0, 0, 0.5625, 0,0) ">
<use xlink:href="#Layer0_1_MEMBER_19_MEMBER_0_FILL"/>
</g>

<g transform="matrix( 0.5625, 0, 0, 0.5625, 0,0) ">
<use xlink:href="#Layer0_1_MEMBER_20_FILL"/>
</g>

<g transform="matrix( 0.5625, 0, 0, 0.5625, 0,0) ">
<use xlink:href="#Layer0_1_MEMBER_21_FILL"/>
</g>

<g transform="matrix( 0.5625, 0, 0, 0.5625, 0,0) ">
<use xlink:href="#Layer0_1_MEMBER_22_FILL"/>
</g>

<g transform="matrix( 0.5625, 0, 0, 0.5625, 0,0) ">
<use xlink:href="#Layer0_1_MEMBER_23_FILL"/>
</g>
</g>
</svg>
