
<svg xmlns="http://www.w3.org/2000/svg" version="1.1" xmlns:xlink="http://www.w3.org/1999/xlink" preserveAspectRatio="none" x="0px" y="0px" width="72px" height="72px" viewBox="0 0 72 72">
<defs>
<g id="Layer0_0_MEMBER_0_MEMBER_0_FILL">
<path fill="#00ACC1" stroke="none" d="
M 6.2 74.65
Q 0 80.35 0 88.45
L 0 128.5 64 128.55 64 88.45
Q 64 79.65 57.7 73.7 51.9 68.3 42.5 66.65 31.85 64.8 20.85 67.45 11.75 69.6 6.2 74.65 Z"/>
</g>

<g id="Layer0_0_MEMBER_1_FILL">
<path fill="#FCC21B" stroke="none" d="
M 8.15 97.15
L 0 97.15 0 128.5 8.15 128.5 8.15 97.15 Z"/>
</g>

<g id="Layer0_0_MEMBER_2_FILL">
<path fill="#E59900" stroke="none" d="
M 33.45 74.15
Q 36.35 74.15 38.4 72.1 40.45 70.05 40.45 67.15
L 40.45 60.75 26.45 60.75 26.45 67.15
Q 26.45 70.05 28.5 72.1 30.55 74.15 33.45 74.15 Z"/>
</g>

<g id="Layer0_0_MEMBER_3_FILL">
<path fill="#FCC21B" stroke="none" d="
M 8.15 97.15
L 0 97.15 0 128.5 8.15 128.5 8.15 97.15 Z"/>
</g>

<g id="Layer0_0_MEMBER_4_MEMBER_0_MEMBER_0_FILL">
<path fill="#E59600" stroke="none" d="
M 106.9 66.05
L 103.3 66.05 103.3 86.35
Q 108.05 86.35 111.15 83.95 114.75 81.15 114.75 75.9 114.75 70.6 110.85 67.8
L 106.9 66.05 Z"/>
</g>

<g id="Layer0_0_MEMBER_4_MEMBER_0_MEMBER_1_FILL">
<path fill="#E59600" stroke="none" d="
M 24.7 66.05
L 21.05 66.05 17.15 67.8
Q 13.2 70.6 13.2 75.9 13.2 81.15 16.8 83.95 19.9 86.35 24.7 86.35
L 24.7 66.05 Z"/>
</g>

<g id="Layer0_0_MEMBER_4_MEMBER_1_FILL">
<path fill="#FCC21B" stroke="none" d="
M 106.75 73.8
Q 106.75 43.35 98.1 28.35 87.85 10.6 64 10.6 40.1 10.6 29.85 28.35 21.2 43.35 21.2 73.8 21.2 99.7 35.8 112.25 47.05 122 64 122 80.8 122 92.1 112.35 106.75 99.8 106.75 73.8 Z"/>
</g>

<g id="Layer0_0_MEMBER_4_MEMBER_2_FILL">
<path fill="#444444" stroke="none" d="
M 40.15 72.35
Q 38.45 74.35 38.45 77.2 38.45 80.1 40.15 82.1 41.8 84.1 44.2 84.1 46.55 84.1 48.25 82.1 49.9 80.05 49.9 77.2 49.9 74.35 48.25 72.35 46.55 70.3 44.2 70.3 41.8 70.3 40.15 72.35 Z"/>
</g>

<g id="Layer0_0_MEMBER_4_MEMBER_3_FILL">
<path fill="#444444" stroke="none" d="
M 87.85 72.35
Q 86.15 70.3 83.8 70.3 81.4 70.3 79.75 72.35 78.05 74.35 78.05 77.2 78.05 80.05 79.75 82.1 81.4 84.1 83.8 84.1 86.15 84.1 87.85 82.1 89.5 80.1 89.5 77.2 89.5 74.35 87.85 72.35 Z"/>
</g>

<g id="Layer0_0_MEMBER_4_MEMBER_4_FILL">
<path fill="#513F35" stroke="none" d="
M 63.95 108.75
Q 68.85 108.75 72.95 106.6 76.15 104.9 77.45 102.9 78.15 101.85 77.8 101.2 77.45 100.55 76.35 100.55
L 51.6 100.55
Q 50.5 100.55 50.15 101.2 49.8 101.85 50.5 102.9 51.8 104.9 55 106.6 59.1 108.75 63.95 108.75 Z"/>
</g>

<g id="Layer0_0_MEMBER_4_MEMBER_5_FILL">
<path fill="#E59600" stroke="none" d="
M 58 90
Q 57.35 89.85 57.1 90.3 56.8 90.7 57.05 91.2 57.75 92.35 59.45 93.4 61.65 94.75 64 94.75 66.35 94.75 68.5 93.4 70.2 92.35 70.9 91.2 71.15 90.7 70.9 90.3 70.6 89.85 69.95 90 66.8 90.9 64 90.9 61.15 90.9 58 90 Z"/>
</g>

<g id="Layer0_0_MEMBER_4_MEMBER_6_FILL">
<path fill="#FFA000" stroke="none" d="
M 63.35 24.5
Q 63.35 24.1 63.35 23.7 62.95 17.45 57.7 12.85 50.5 6.55 36.55 6.35
L 35.5 6.35
Q 21.55 6.55 14.4 12.85 9.1 17.45 8.75 23.7 8.7 24.1 8.7 24.5
L 8.7 39.05
Q 9.05 38.75 9.65 38.3 10.05 37.95 10.6 37.7
L 11 37.5 12.05 44.45
Q 17.8 35.5 19.4 25.7 23.95 28.7 27.7 29.95 31.45 31.2 35.5 31.15
L 36.55 31.15
Q 43.25 31.1 48.85 30.45
L 52.95 30
Q 53.05 30 53.15 30.1
L 60 44.45 61.05 37.5 61.5 37.7
Q 62 37.95 62.4 38.25 63.05 38.75 63.35 39.05
L 63.35 24.5 Z"/>
</g>

<g id="Layer0_1_MEMBER_0_FILL">
<path fill="#D8BEFF" stroke="none" d="
M 60.9 129.1
Q 61.2 129.1 60.85 122.2
L 60.85 121.95
Q 60.85 115.4 53.95 111.55 48.75 108.6 43.75 108.6
L 34.2 108.6
Q 29.2 108.6 24 111.55 17.05 115.4 17.05 121.95 16.75 129.1 17.05 129.1
L 60.9 129.1 Z"/>
</g>

<g id="Layer0_1_MEMBER_1_FILL">
<path fill="#E59600" stroke="none" d="
M 42.5 115.1
Q 43.75 113.8 43.75 112.05
L 43.75 109.65 34.2 109.65 34.2 112.05
Q 34.2 113.8 35.45 115.1 36.75 116.35 38.5 116.35
L 39.45 116.35
Q 41.2 116.35 42.5 115.1 Z"/>
</g>

<g id="Layer0_1_MEMBER_2_MEMBER_0_FILL">
<path fill="#FFA000" stroke="none" d="
M 102.5 91.65
Q 118.5 76.9 118.5 56.1 118.5 35.25 102.5 20.55 86.55 5.8 64 5.8 41.4 5.8 25.45 20.55 9.5 35.25 9.5 56.1 9.5 76.9 25.45 91.65 41.45 106.4 64 106.4 86.55 106.4 102.5 91.65 Z"/>
</g>

<g id="Layer0_1_MEMBER_2_MEMBER_1_MEMBER_0_FILL">
<path fill="#E59600" stroke="none" d="
M 108.6 69.8
L 104.8 69.8 104.8 91.2
Q 109.85 91.2 113.1 88.65 116.9 85.7 116.9 80.2 116.9 74.6 112.75 71.65
L 108.6 69.8 Z"/>
</g>

<g id="Layer0_1_MEMBER_2_MEMBER_1_MEMBER_1_FILL">
<path fill="#E59600" stroke="none" d="
M 23.15 69.8
L 19.35 69.8 15.2 71.65
Q 11.05 74.6 11.05 80.2 11.05 85.7 14.85 88.65 18.1 91.2 23.15 91.2
L 23.15 69.8 Z"/>
</g>

<g id="Layer0_1_MEMBER_2_MEMBER_2_MEMBER_0_MEMBER_0_FILL">
<path fill="#FFA000" stroke="none" d="
M 63.35 59.8
Q 63.05 57.9 62.15 56.3 60.3 53.1 56.1 52.9 52.55 52.75 50.1 55.25 47.55 57.85 48.3 61.25 49.3 65.65 53.9 67.45 58.1 69.1 62.4 67.7 63.5 67.35 64.6 66.55 66.1 65.4 65.75 64.5 65.6 64.25 65.05 64 64.4 63.75 64.25 63.6 63.7 63.15 63.55 61.8 63.45 60.3 63.35 59.8 Z"/>
</g>

<g id="Layer0_1_MEMBER_2_MEMBER_2_MEMBER_1_MEMBER_0_FILL">
<path fill="#FFA000" stroke="none" d="
M 39.2 98.45
Q 34.9 94 28.55 94.1 21.1 94.25 17.75 99.95 16.2 102.5 15.5 106.1 15.35 107 15.1 109.7 14.75 112.1 13.75 112.85 13.5 113.05 12.35 113.55 11.4 113.95 11.15 114.45 10.35 116.05 13.05 118.05 15.05 119.6 16.9 120.15 24.55 122.75 32.05 119.95 40.3 116.9 42.2 109.15 43.65 103.05 39.2 98.45 Z"/>
</g>

<g id="Layer0_1_MEMBER_2_MEMBER_3_MEMBER_0_FILL">
<path fill="#FCC21B" stroke="none" d="
M 95.55 43
Q 90.2 36.3 81.05 32.7 72.95 29.5 64 29.5 55.05 29.5 46.9 32.7 37.75 36.3 32.4 43 21.15 57 21.2 80 21.25 90.05 24.05 97.2 27.1 104.9 33.9 110.55 47.15 121.65 63.35 121.65 71.6 121.65 79.55 118.9 87.95 115.95 94.05 110.6 100.75 104.7 103.8 97.15 106.7 89.9 106.75 80 106.8 57 95.55 43 Z"/>
</g>

<g id="Layer0_1_MEMBER_2_MEMBER_4_FILL">
<path fill="#E59600" stroke="none" d="
M 57.75 89.65
Q 57.1 89.45 56.75 89.95 56.45 90.4 56.75 90.9 57.45 92.1 59.25 93.2 61.5 94.6 64 94.6 66.45 94.6 68.75 93.2 70.5 92.1 71.2 90.9 71.5 90.4 71.2 89.95 70.9 89.45 70.25 89.65 67.05 90.6 64 90.6 60.95 90.6 57.75 89.65 Z"/>
</g>

<g id="Layer0_1_MEMBER_2_MEMBER_5_FILL">
<path fill="#513F35" stroke="none" d="
M 64 108.45
Q 69.05 108.45 73.35 106.15 76.65 104.4 78.05 102.3 78.8 101.25 78.4 100.55 78.05 99.85 76.9 99.85
L 51.05 99.85
Q 49.9 99.85 49.55 100.55 49.2 101.25 49.9 102.3 51.25 104.4 54.6 106.15 58.9 108.45 64 108.45 Z"/>
</g>

<g id="Layer0_1_MEMBER_2_MEMBER_6_FILL">
<path fill="#FFA000" stroke="none" d="
M 111.55 67.65
L 116.45 52.6 111.75 35.85 76.2 12.15 51.55 12.15 16 35.85 11.35 52.6 16.25 67.65 19.7 74.35
Q 32.65 71.4 46.3 63.1 58.15 55.9 63.25 49.55 63.5 49.25 63.9 49.25 64.3 49.25 64.5 49.55 69.65 55.95 81.3 63.05 94.8 71.3 108.1 74.35
L 111.55 67.65 Z"/>
</g>

<g id="Layer0_1_MEMBER_2_MEMBER_7_MEMBER_0_FILL">
<path fill="#444444" stroke="none" d="
M 40.15 72.35
Q 38.45 74.35 38.45 77.2 38.45 80.1 40.15 82.1 41.8 84.1 44.2 84.1 46.55 84.1 48.25 82.1 49.9 80.05 49.9 77.2 49.9 74.35 48.25 72.35 46.55 70.3 44.2 70.3 41.8 70.3 40.15 72.35 Z"/>
</g>

<g id="Layer0_1_MEMBER_2_MEMBER_7_MEMBER_1_FILL">
<path fill="#444444" stroke="none" d="
M 87.85 72.35
Q 86.15 70.3 83.8 70.3 81.4 70.3 79.75 72.35 78.05 74.35 78.05 77.2 78.05 80.05 79.75 82.1 81.4 84.1 83.8 84.1 86.15 84.1 87.85 82.1 89.5 80.1 89.5 77.2 89.5 74.35 87.85 72.35 Z"/>
</g>
</defs>

<g id="Layer_1">
<g transform="matrix( 0.5625, 0, 0, 0.5625, 18,-0.3) ">
<use xlink:href="#Layer0_0_MEMBER_0_MEMBER_0_FILL"/>
</g>

<g transform="matrix( 0.5625, 0, 0, 0.5625, 49.5,-0.3) ">
<use xlink:href="#Layer0_0_MEMBER_1_FILL"/>
</g>

<g transform="matrix( 0.5625, 0, 0, 0.5625, 17.85,-0.3) ">
<use xlink:href="#Layer0_0_MEMBER_2_FILL"/>
</g>

<g transform="matrix( 0.5625, 0, 0, 0.5625, 17.9,-0.3) ">
<use xlink:href="#Layer0_0_MEMBER_3_FILL"/>
</g>

<g transform="matrix( 0.2759857177734375, 0, 0, 0.27532958984375, 19,2.25) ">
<use xlink:href="#Layer0_0_MEMBER_4_MEMBER_0_MEMBER_0_FILL"/>
</g>

<g transform="matrix( 0.2759857177734375, 0, 0, 0.27532958984375, 19,2.25) ">
<use xlink:href="#Layer0_0_MEMBER_4_MEMBER_0_MEMBER_1_FILL"/>
</g>

<g transform="matrix( 0.2760772705078125, 0, 0, 0.275421142578125, 19,2.5) ">
<use xlink:href="#Layer0_0_MEMBER_4_MEMBER_1_FILL"/>
</g>

<g transform="matrix( 0.2760772705078125, 0, 0, 0.275421142578125, 19,2.5) ">
<use xlink:href="#Layer0_0_MEMBER_4_MEMBER_2_FILL"/>
</g>

<g transform="matrix( 0.2760772705078125, 0, 0, 0.275421142578125, 19,2.5) ">
<use xlink:href="#Layer0_0_MEMBER_4_MEMBER_3_FILL"/>
</g>

<g transform="matrix( 0.2760772705078125, 0, 0, 0.275421142578125, 19,2.5) ">
<use xlink:href="#Layer0_0_MEMBER_4_MEMBER_4_FILL"/>
</g>

<g transform="matrix( 0.2760772705078125, 0, 0, 0.275421142578125, 19,2.5) ">
<use xlink:href="#Layer0_0_MEMBER_4_MEMBER_5_FILL"/>
</g>

<g transform="matrix( 0.490814208984375, 0, 0, 0.4896392822265625, 19,2.3) ">
<use xlink:href="#Layer0_0_MEMBER_4_MEMBER_6_FILL"/>
</g>

<g transform="matrix( 0.5463714599609375, 0, 0, 0.5463714599609375, 14.75,1.45) ">
<use xlink:href="#Layer0_1_MEMBER_0_FILL"/>
</g>

<g transform="matrix( 0.5463714599609375, 0, 0, 0.5463714599609375, 14.75,1.45) ">
<use xlink:href="#Layer0_1_MEMBER_1_FILL"/>
</g>

<g transform="matrix( 0.20758056640625, 0, 0, 0.2075042724609375, 22.8,36.5) ">
<use xlink:href="#Layer0_1_MEMBER_2_MEMBER_0_FILL"/>
</g>

<g transform="matrix( 0.20751953125, 0, 0, 0.2074432373046875, 22.8,36.5) ">
<use xlink:href="#Layer0_1_MEMBER_2_MEMBER_1_MEMBER_0_FILL"/>
</g>

<g transform="matrix( 0.20751953125, 0, 0, 0.2074432373046875, 22.8,36.5) ">
<use xlink:href="#Layer0_1_MEMBER_2_MEMBER_1_MEMBER_1_FILL"/>
</g>

<g transform="matrix( 0.3690338134765625, 0, 0, 0.368865966796875, 22.8,36.5) ">
<use xlink:href="#Layer0_1_MEMBER_2_MEMBER_2_MEMBER_0_MEMBER_0_FILL"/>
</g>

<g transform="matrix( 0.207489013671875, 0, 0, 0.2074127197265625, 22.8,36.5) ">
<use xlink:href="#Layer0_1_MEMBER_2_MEMBER_2_MEMBER_1_MEMBER_0_FILL"/>
</g>

<g transform="matrix( 0.20751953125, 0, 0, 0.2074432373046875, 22.8,36.5) ">
<use xlink:href="#Layer0_1_MEMBER_2_MEMBER_3_MEMBER_0_FILL"/>
</g>

<g transform="matrix( 0.20758056640625, 0, 0, 0.2075042724609375, 22.8,36.5) ">
<use xlink:href="#Layer0_1_MEMBER_2_MEMBER_4_FILL"/>
</g>

<g transform="matrix( 0.20758056640625, 0, 0, 0.2075042724609375, 22.8,36.5) ">
<use xlink:href="#Layer0_1_MEMBER_2_MEMBER_5_FILL"/>
</g>

<g transform="matrix( 0.20758056640625, 0, 0, 0.2075042724609375, 22.8,36.5) ">
<use xlink:href="#Layer0_1_MEMBER_2_MEMBER_6_FILL"/>
</g>

<g transform="matrix( 0.2075347900390625, 0, 0, 0.20745849609375, 22.65,37.05) ">
<use xlink:href="#Layer0_1_MEMBER_2_MEMBER_7_MEMBER_0_FILL"/>
</g>

<g transform="matrix( 0.2075347900390625, 0, 0, 0.20745849609375, 22.65,37.05) ">
<use xlink:href="#Layer0_1_MEMBER_2_MEMBER_7_MEMBER_1_FILL"/>
</g>
</g>
</svg>
