
<svg xmlns="http://www.w3.org/2000/svg" version="1.1" xmlns:xlink="http://www.w3.org/1999/xlink" preserveAspectRatio="none" x="0px" y="0px" width="72px" height="72px" viewBox="0 0 72 72">
<defs>
<g id="Layer0_0_MEMBER_0_FILL">
<path fill="#00ACC1" stroke="none" d="
M 34.2 100.7
Q 20.4 106.85 20.4 118.1
L 20.4 128 107.55 128 107.55 118.1
Q 107.55 107.35 94.1 101 81.95 95.25 64.3 95.25 46.25 95.3 34.2 100.7 Z"/>
</g>

<g id="Layer0_0_MEMBER_1_FILL">
<path fill="#E59900" stroke="none" d="
M 73 90.25
L 54.85 90.25 54.85 99.85
Q 54.85 103.1 57.25 105.4 59.7 107.7 63.1 107.7
L 64.75 107.7
Q 68.15 107.7 70.6 105.4 73 103.1 73 99.85
L 73 90.25 Z"/>
</g>

<g id="Layer0_0_MEMBER_2_MEMBER_0_MEMBER_0_FILL">
<path fill="#E59600" stroke="none" d="
M 106.9 66.05
L 103.3 66.05 103.3 86.35
Q 108.05 86.35 111.15 83.95 114.75 81.15 114.75 75.9 114.75 70.6 110.85 67.8
L 106.9 66.05 Z"/>
</g>

<g id="Layer0_0_MEMBER_2_MEMBER_0_MEMBER_1_FILL">
<path fill="#E59600" stroke="none" d="
M 24.7 66.05
L 21.05 66.05 17.15 67.8
Q 13.2 70.6 13.2 75.9 13.2 81.15 16.8 83.95 19.9 86.35 24.7 86.35
L 24.7 66.05 Z"/>
</g>

<g id="Layer0_0_MEMBER_2_MEMBER_1_FILL">
<path fill="#FCC21B" stroke="none" d="
M 106.75 73.8
Q 106.75 43.35 98.1 28.35 87.85 10.6 64 10.6 40.1 10.6 29.85 28.35 21.2 43.35 21.2 73.8 21.2 99.7 35.8 112.25 47.05 122 64 122 80.8 122 92.1 112.35 106.75 99.8 106.75 73.8 Z"/>
</g>

<g id="Layer0_0_MEMBER_2_MEMBER_2_FILL">
<path fill="#FFA000" stroke="none" d="
M 57.2 19.2
Q 56.85 14.4 52.8 10.8 47.2 5.95 36.4 5.75
L 35.6 5.75
Q 24.75 5.95 19.2 10.8 15.1 14.4 14.85 19.2 14.8 19.55 14.8 19.85
L 14.8 31.1
Q 15.05 30.9 15.55 30.55 15.85 30.25 16.25 30.05
L 16.6 29.9 17.4 35.3
Q 21.85 28.35 23.1 20.75 26.6 23.1 29.55 24.05 32.45 25.05 35.6 25
L 36.4 25
Q 41.6 24.95 45.95 24.45
L 49.1 24.1
Q 49.2 24.1 49.25 24.2
L 54.6 35.3 55.4 29.9 55.75 30.05
Q 56.15 30.25 56.45 30.5 56.95 30.9 57.2 31.1
L 57.2 19.85
Q 57.2 19.55 57.2 19.2 Z"/>
</g>

<g id="Layer0_0_MEMBER_3_FILL">
<path fill="#E59900" stroke="none" d="
M 54.35 83.45
Q 54.25 83.95 56.9 81.8 60.65 78.75 63.8 78.75 63.899609375 78.75 64 78.75 64.1 78.75 64.2 78.75 67.35 78.75 71.1 81.8 73.75 83.95 73.65 83.45 73.15 81.4 70.75 78.95 67.7 75.8 64.25 75.8 64.1 75.8 64 75.8 63.8751953125 75.8 63.75 75.8 60.3 75.8 57.25 78.95 54.85 81.4 54.35 83.45 Z"/>
</g>

<g id="Layer0_0_MEMBER_4_FILL">
<path fill="#E59600" stroke="none" d="
M 69.05 70.5
Q 68.85 70.15 68.4 70.3 66.1 70.95 63.9 70.95 61.75 70.95 59.45 70.3 59 70.15 58.75 70.5 58.55 70.85 58.75 71.15 59.25 72 60.5 72.8 62.1 73.8 63.9 73.8 65.7 73.8 67.3 72.8 68.55 72 69.05 71.15 69.25 70.8 69.05 70.5 Z"/>
</g>

<g id="Layer0_0_MEMBER_5_MEMBER_0_FILL">
<path fill="#444444" stroke="none" d="
M 53.5 60.75
Q 53.5 58.6 52.25 57.1 50.95 55.6 49.2 55.6 47.45 55.6 46.2 57.1 44.95 58.6 44.95 60.75 44.95 62.9 46.2 64.4 47.45 65.9 49.2 65.9 50.95 65.9 52.25 64.4 53.5 62.9 53.5 60.75 Z"/>
</g>

<g id="Layer0_0_MEMBER_5_MEMBER_1_FILL">
<path fill="#444444" stroke="none" d="
M 83 60.75
Q 83 58.6 81.75 57.1 80.5 55.6 78.75 55.6 77 55.6 75.7 57.1 74.45 58.6 74.45 60.75 74.45 62.9 75.7 64.4 76.95 65.9 78.75 65.9 80.5 65.9 81.75 64.4 83 62.9 83 60.75 Z"/>
</g>

<g id="Layer0_0_MEMBER_6_FILL">
<path fill="#FCC21B" stroke="none" d="
M 87.95 66.8
L 87.95 63.7 41.95 63.7 41.95 66.8 87.95 66.8 Z"/>
</g>

<g id="Layer0_0_MEMBER_7_FILL">
<path fill="#000000" fill-opacity="0.25882352941176473" stroke="none" d="
M 54.35 83.45
Q 54.25 83.95 56.9 81.8 60.65 78.75 63.8 78.75 63.899609375 78.75 64 78.75 64.1 78.75 64.2 78.75 67.35 78.75 71.1 81.8 73.75 83.95 73.65 83.45 73.15 81.4 70.75 78.95 67.7 75.8 64.25 75.8 64.1 75.8 64 75.8 63.8751953125 75.8 63.75 75.8 60.3 75.8 57.25 78.95 54.85 81.4 54.35 83.45 Z"/>
</g>
</defs>

<g id="Layer_1">
<g transform="matrix( 0.5624847412109375, 0, 0, 0.5624847412109375, 0,0) ">
<use xlink:href="#Layer0_0_MEMBER_0_FILL"/>
</g>

<g transform="matrix( 0.5624847412109375, 0, 0, 0.5624847412109375, 0,0) ">
<use xlink:href="#Layer0_0_MEMBER_1_FILL"/>
</g>

<g transform="matrix( 0.404388427734375, 0, 0, 0.4043731689453125, 10.05,2.65) ">
<use xlink:href="#Layer0_0_MEMBER_2_MEMBER_0_MEMBER_0_FILL"/>
</g>

<g transform="matrix( 0.404388427734375, 0, 0, 0.4043731689453125, 10.05,2.65) ">
<use xlink:href="#Layer0_0_MEMBER_2_MEMBER_0_MEMBER_1_FILL"/>
</g>

<g transform="matrix( 0.4046783447265625, 0, 0, 0.40460205078125, 10.05,3) ">
<use xlink:href="#Layer0_0_MEMBER_2_MEMBER_1_FILL"/>
</g>

<g transform="matrix( 0.927764892578125, 0, 0, 0.92822265625, 2.55,2) ">
<use xlink:href="#Layer0_0_MEMBER_2_MEMBER_2_FILL"/>
</g>

<g transform="matrix( 0.5624847412109375, 0, 0, 0.5624847412109375, 0,0) ">
<use xlink:href="#Layer0_0_MEMBER_3_FILL"/>
</g>

<g transform="matrix( 0.53265380859375, 0, 0, 0.53289794921875, 1.95,2.35) ">
<use xlink:href="#Layer0_0_MEMBER_4_FILL"/>
</g>

<g transform="matrix( 0.5325927734375, 0, 0, 0.5328521728515625, 1.95,2.35) ">
<use xlink:href="#Layer0_0_MEMBER_5_MEMBER_0_FILL"/>
</g>

<g transform="matrix( 0.5325927734375, 0, 0, 0.5328521728515625, 1.95,2.35) ">
<use xlink:href="#Layer0_0_MEMBER_5_MEMBER_1_FILL"/>
</g>

<g transform="matrix( 0.5624847412109375, 0, 0, -0.5624847412109375, -0.5,68.8) ">
<use xlink:href="#Layer0_0_MEMBER_6_FILL"/>
</g>

<g transform="matrix( 0.5625, 0, 0, 0.5625, 0,0) ">
<use xlink:href="#Layer0_0_MEMBER_7_FILL"/>
</g>
</g>
</svg>
