
<svg xmlns="http://www.w3.org/2000/svg" version="1.1" xmlns:xlink="http://www.w3.org/1999/xlink" preserveAspectRatio="none" x="0px" y="0px" width="72px" height="72px" viewBox="0 0 72 72">
<defs>
<g id="Layer0_0_MEMBER_0_FILL">
<path fill="#FFA000" stroke="none" d="
M 104.05 70.9
Q 104.65 56.5 104.65 45.5
L 23.65 45.5
Q 23.65 57.7 24.45 72.7 26 102.75 29.9 116.9 30.858203125 120.334765625 31.85 122.9
L 98.2 122.9
Q 99.31796875 120.194921875 99.95 116.6 102.9 99.7 104.05 70.9 Z"/>
</g>

<g id="Layer0_0_MEMBER_1_FILL">
<path fill="#444444" stroke="none" d="
M 52.25 68.9
Q 53.5 67.4 53.5 65.2 53.5 63 52.25 61.45 50.95 59.9 49.15 59.9 47.35 59.9 46.1 61.45 44.8 63 44.8 65.2 44.8 67.4 46.1 68.9 47.35 70.45 49.15 70.45 50.95 70.45 52.25 68.9 Z"/>
</g>

<g id="Layer0_0_MEMBER_2_FILL">
<path fill="#444444" stroke="none" d="
M 82.5 68.9
Q 83.75 67.4 83.75 65.2 83.75 63 82.5 61.45 81.2 59.9 79.4 59.9 77.55 59.9 76.3 61.45 75 63 75 65.2 75 67.4 76.3 68.9 77.55 70.45 79.4 70.45 81.2 70.45 82.5 68.9 Z"/>
</g>

<g id="Layer0_0_MEMBER_3_FILL">
<path fill="#FFA000" stroke="none" d="
M 104.8 45.25
Q 104.8 30.15 92.95 19.5 81.05 8.85 64.25 8.85 47.5 8.85 35.6 19.5 23.75 30.2 23.75 45.25 23.75 60.35 35.6 71.05 47.5 81.7 64.25 81.7 81.05 81.7 92.95 71.05 104.8 60.35 104.8 45.25 Z"/>
</g>

<g id="Layer0_0_MEMBER_4_FILL">
<path fill="#7E57C2" stroke="none" d="
M 64 84.55
Q 51.55 84.55 47.25 85.35 16 91.25 16 113.7
L 16 128.05 112 128.05 112 113.7
Q 112 91.25 80.7 85.35 76.45 84.55 64 84.55 Z"/>
</g>

<g id="Layer0_0_MEMBER_5_FILL">
<path fill="#E59900" stroke="none" d="
M 31.9 57.4
Q 33.7 59.25 36.3 59.25 38.85 59.25 40.6 57.4 42.4 55.6 42.4 53
L 42.4 47.65 30.15 47.65 30.15 53
Q 30.15 55.6 31.9 57.4 Z"/>
</g>

<g id="Layer0_0_MEMBER_6_FILL">
<path fill="#FCC21B" stroke="none" d="
M 84.5 91.95
Q 95.7 82.3 95.7 64.05 95.7 41.75 89.3 30.7 81.75 17.65 64.25 17.65 46.75 17.65 39.2 30.7 32.85 41.7 32.85 64.05 32.85 82.3 44 91.95 52.75 99.45 64.25 99.45 75.75 99.45 84.5 91.95 Z"/>
</g>

<g id="Layer0_0_MEMBER_7_FILL">
<path fill="#FFA000" stroke="none" d="
M 97.85 30.9
Q 95.4 25.95 90.05 20.95 79.3 11 64.6 11 49.95 11 39.2 20.7 33.8 25.55 31.35 30.4
L 31.35 60.75
Q 45.8 58.3 59.8 49.6 68 44.5 73.75 38.9 74 38.7 74.3 38.75 74.6 38.8 74.75 39.1 79.6 49 89.2 55.9 94 59.35 97.85 60.8
L 97.85 30.9 Z"/>
</g>

<g id="Layer0_0_MEMBER_8_FILL">
<path fill="#513F35" stroke="none" d="
M 56.1 88.25
Q 56.35 88.75 56.95 88.55 60.35 87.45 64.35 87.5 68.25 87.5 71.6 88.55 72.2 88.75 72.45 88.25 72.65 87.75 72.25 87.15 71.45 85.95 69.55 84.95 67.1 83.65 64.25 83.65 61.4 83.65 58.95 84.95 57.05 85.95 56.25 87.15 55.9 87.8 56.1 88.25 Z"/>
</g>

<g id="Layer0_0_MEMBER_9_FILL">
<path fill="#E59600" stroke="none" d="
M 59.7 75.5
Q 59.2 75.4 59 75.75 58.8 76.05 59 76.4 59.5 77.3 60.8 78.1 62.45 79.1 64.25 79.1 66.1 79.1 67.75 78.1 69.05 77.3 69.55 76.4 69.75 76.05 69.55 75.75 69.3 75.4 68.8 75.5 66.55 76.2 64.25 76.2 61.95 76.2 59.7 75.5 Z"/>
</g>

<g id="Layer0_0_MEMBER_10_FILL">
<path fill="#444444" stroke="none" d="
M 45 63.6
Q 44.8 64.5 44.8 65.05 44.75 67.25 46 68.85 47.25 70.45 49.05 70.45 50.85 70.45 52.15 68.9 53.45 67.3 53.5 65.1 53.6 62.35 51.85 60.8 50.15 62.3 48.05 62.95 46.5 63.45 45 63.6 Z"/>
</g>

<g id="Layer0_0_MEMBER_11_FILL">
<path fill="#444444" stroke="none" d="
M 83.75 65.05
Q 83.65 64.05 83.5 63.6 82 63.45 80.45 62.95 78.35 62.3 76.65 60.8 74.95 62.35 75 65.1 75.05 67.3 76.35 68.9 77.65 70.45 79.5 70.45 81.3 70.45 82.55 68.85 83.8 67.25 83.75 65.05 Z"/>
</g>
</defs>

<g id="Layer_1">
<g transform="matrix( 0.5625, 0, 0, 0.5625, 0,-0.05) ">
<use xlink:href="#Layer0_0_MEMBER_0_FILL"/>
</g>

<g transform="matrix( 0.5625, 0, 0, 0.5625, 0,-0.05) ">
<use xlink:href="#Layer0_0_MEMBER_1_FILL"/>
</g>

<g transform="matrix( 0.5625, 0, 0, 0.5625, 0,-0.05) ">
<use xlink:href="#Layer0_0_MEMBER_2_FILL"/>
</g>

<g transform="matrix( 0.5625, 0, 0, 0.5625, 0,-0.05) ">
<use xlink:href="#Layer0_0_MEMBER_3_FILL"/>
</g>

<g transform="matrix( 0.5625, 0, 0, 0.5625, 0,-0.05) ">
<use xlink:href="#Layer0_0_MEMBER_4_FILL"/>
</g>

<g transform="matrix( 1, 0, 0, 1, 0,-0.05) ">
<use xlink:href="#Layer0_0_MEMBER_5_FILL"/>
</g>

<g transform="matrix( 0.5625, 0, 0, 0.5625, 0,-0.05) ">
<use xlink:href="#Layer0_0_MEMBER_6_FILL"/>
</g>

<g transform="matrix( 0.5625, 0, 0, 0.5625, 0,-0.05) ">
<use xlink:href="#Layer0_0_MEMBER_7_FILL"/>
</g>

<g transform="matrix( 0.5625, 0, 0, 0.5625, 0,-0.05) ">
<use xlink:href="#Layer0_0_MEMBER_8_FILL"/>
</g>

<g transform="matrix( 0.5625, 0, 0, 0.5625, 0,-0.05) ">
<use xlink:href="#Layer0_0_MEMBER_9_FILL"/>
</g>

<g transform="matrix( 0.5625, 0, 0, 0.5625, 0,-0.05) ">
<use xlink:href="#Layer0_0_MEMBER_10_FILL"/>
</g>

<g transform="matrix( 0.5625, 0, 0, 0.5625, 0,-0.05) ">
<use xlink:href="#Layer0_0_MEMBER_11_FILL"/>
</g>
</g>
</svg>
