
<svg xmlns="http://www.w3.org/2000/svg" version="1.1" xmlns:xlink="http://www.w3.org/1999/xlink" preserveAspectRatio="none" x="0px" y="0px" width="72px" height="72px" viewBox="0 0 72 72">
<defs>
<g id="Layer0_0_MEMBER_0_FILL">
<path fill="#00ACC1" stroke="none" d="
M 36.3 45.15
L 35.95 45.15
Q 30.15 45.3 24.35 46.55 13.65 48.8 8.65 53.95 4.85 57.9 4.4 62.25 4.05 65.5 5.35 67.35 6.75 69.35 10.35 70.9 12.1 71.65 13.65 72
L 58.6 72 61.9 70.9
Q 65.5 69.35 66.9 67.35 68.2 65.5 67.85 62.25 67.35 57.9 63.6 53.95 58.6 48.8 47.85 46.55 42.1 45.3 36.3 45.15 Z"/>
</g>

<g id="Layer0_0_MEMBER_1_FILL">
<path fill="#000000" fill-opacity="0.2" stroke="none" d="
M 57.55 2.25
Q 52.7 0.7 45.45 0.2 41.5 -0.1 37.25 0 24.75 -0.25 17 2.25 7.5 5.35 2.8 9.7 0.45 11.85 0 13.4
L 23.7 31.05 50.9 31.05 74.55 13.4
Q 74.1 11.85 71.75 9.65 67.05 5.3 57.55 2.25 Z"/>
</g>

<g id="Layer0_0_MEMBER_2_FILL">
<path fill="#E59900" stroke="none" d="
M 72.65 90.95
L 55.2 90.95 55.2 100.2
Q 55.2 103.3 57.55 105.55 59.85 107.75 63.15 107.75
L 64.75 107.75
Q 68 107.75 70.35 105.55 72.65 103.3 72.65 100.2
L 72.65 90.95 Z"/>
</g>

<g id="Layer0_0_MEMBER_3_MEMBER_0_MEMBER_0_FILL">
<path fill="#E59600" stroke="none" d="
M 94.85 68
L 92.25 68 92.25 82.5
Q 95.7 82.5 97.9 80.8 100.45 78.8 100.45 75.05 100.45 71.25 97.65 69.25
L 94.85 68 Z"/>
</g>

<g id="Layer0_0_MEMBER_3_MEMBER_0_MEMBER_1_FILL">
<path fill="#E59600" stroke="none" d="
M 36 68
L 33.4 68 30.6 69.25
Q 27.75 71.25 27.75 75.05 27.75 78.8 30.3 80.8 32.55 82.5 36 82.5
L 36 68 Z"/>
</g>

<g id="Layer0_0_MEMBER_3_MEMBER_1_FILL">
<path fill="#FCC21B" stroke="none" d="
M 84.25 95.8
Q 94.75 87.5 94.75 70.2 94.75 50 88.55 40.05 81.2 28.25 64.1 28.25 47 28.25 39.65 40.05 33.45 50 33.45 70.2 33.45 87.4 43.9 95.75 52 102.2 64.1 102.2 76.15 102.2 84.25 95.8 Z"/>
</g>

<g id="Layer0_0_MEMBER_3_MEMBER_2_FILL">
<path fill="#444444" stroke="none" d="
M 54 77.9
Q 54 75.85 52.8 74.4 51.65 72.95 49.95 72.95 48.25 72.95 47.05 74.4 45.85 75.85 45.85 77.9 45.85 79.95 47.05 81.4 48.25 82.85 49.95 82.85 51.65 82.85 52.8 81.4 54 79.95 54 77.9 Z"/>
</g>

<g id="Layer0_0_MEMBER_3_MEMBER_3_FILL">
<path fill="#444444" stroke="none" d="
M 82.4 77.9
Q 82.4 75.85 81.2 74.4 80 72.95 78.3 72.95 76.6 72.95 75.4 74.4 74.2 75.85 74.2 77.9 74.2 79.95 75.4 81.4 76.6 82.85 78.3 82.85 80 82.85 81.2 81.4 82.4 79.95 82.4 77.9 Z"/>
</g>

<g id="Layer0_0_MEMBER_3_MEMBER_4_FILL">
<path fill="#E59600" stroke="none" d="
M 59.85 89
Q 59.4 88.85 59.2 89.2 59 89.5 59.15 89.85 59.65 90.65 60.9 91.4 62.45 92.35 64.1 92.35 65.8 92.35 67.35 91.4 68.6 90.65 69.05 89.85 69.25 89.5 69.05 89.2 68.85 88.85 68.4 89 66.25 89.65 64.1 89.65 62 89.65 59.85 89 Z"/>
</g>

<g id="Layer0_0_MEMBER_3_MEMBER_5_FILL">
<path fill="#FFA000" stroke="none" d="
M 55.55 29.2
Q 55.55 28.95 55.55 28.65 55.25 24.2013671875 50.8 19.8 46.4 15.3955078125 36.1 15.4 25.8 15.404296875 21.35 19.8 16.95 24.1984375 16.7 28.65 16.7 28.95 16.7 29.2
L 16.7 39.55
Q 16.95 39.35 17.35 39 17.65 38.75 18.05 38.6
L 18.3 38.45 19.05 43.4
Q 23.15 37.05 24.3 30.05 27.55 32.2 30.2 33.1 32.85 33.95 35.75 33.95
L 36.5 33.95
Q 41.25 33.9 45.25 33.45
L 48.15 33.1
Q 48.2 33.1 48.3 33.2
L 53.15 43.4 53.9 38.45 54.2 38.6
Q 54.6 38.75 54.85 39 55.3 39.35 55.55 39.55
L 55.55 29.2 Z"/>
</g>

<g id="Layer0_0_MEMBER_5_MEMBER_0_MEMBER_0_FILL">
<path fill="#FCC21B" stroke="none" d="
M 61.05 128
Q 62.05 128 62.75 127.3 63.45 126.6 63.45 125.6 63.45 124.8 62.95 124.15 62.45 123.5 61.65 123.3 59.1 122.65 53.45 120.85 46.05 118.4 45.8 118.35 44 117.8 42.25 117.8
L 36.9 117.45 33.75 128 61.05 128 Z"/>
</g>

<g id="Layer0_0_MEMBER_5_MEMBER_1_MEMBER_0_FILL">
<path fill="#FCC21B" stroke="none" d="
M 65.2 127.3
Q 65.9 128 66.9 128
L 94.25 128 91.1 117.45 85.75 117.8
Q 83.95 117.8 82.15 118.35 70.6 122.2 66.3 123.3 65.5 123.5 65 124.15 64.5 124.8 64.5 125.6 64.5 126.6 65.2 127.3 Z"/>
</g>

<g id="Layer0_0_MEMBER_6_MEMBER_0_FILL">
<path fill="#00ACC1" stroke="none" d="
M 27.2 106.25
L 24.25 128 34.25 128 39.5 116.4
Q 39.8 115.75 39.6 115.05 39.4 114.4 38.8 114
L 27.2 106.25 Z"/>
</g>

<g id="Layer0_0_MEMBER_6_MEMBER_1_FILL">
<path fill="#00ACC1" stroke="none" d="
M 104.15 128
L 100.75 106.25 89.15 114
Q 88.6 114.4 88.4 115.05 88.2 115.75 88.5 116.4
L 93.7 128 104.15 128 Z"/>
</g>

<path id="Layer0_0_MEMBER_4_MEMBER_0_1_STROKES" stroke="#444444" stroke-width="2" stroke-linejoin="miter" stroke-linecap="round" stroke-miterlimit="10" fill="none" d="
M 29.559375 10.6875
L 28.040625000000002 5.0062500000000005"/>

<path id="Layer0_0_MEMBER_4_MEMBER_1_1_STROKES" stroke="#444444" stroke-width="2" stroke-linejoin="miter" stroke-linecap="round" stroke-miterlimit="10" fill="none" d="
M 21.178124999999998 14.878124999999999
L 17.015625 10.715625000000001"/>

<path id="Layer0_0_MEMBER_4_MEMBER_2_1_STROKES" stroke="#444444" stroke-width="2" stroke-linejoin="miter" stroke-linecap="round" stroke-miterlimit="10" fill="none" d="
M 50.793749999999996 14.878124999999999
L 54.928125 10.715625000000001"/>

<path id="Layer0_0_MEMBER_4_MEMBER_3_1_STROKES" stroke="#444444" stroke-width="2" stroke-linejoin="miter" stroke-linecap="round" stroke-miterlimit="10" fill="none" d="
M 42.4125 10.6875
L 43.93125 5.0062500000000005"/>
</defs>

<g id="Layer_1">
<g transform="matrix( 1, 0, 0, 1, 0,0) ">
<use xlink:href="#Layer0_0_MEMBER_0_FILL"/>
</g>

<g transform="matrix( 0.5625, 0, 0, 0.5625, 15,54.5) ">
<use xlink:href="#Layer0_0_MEMBER_1_FILL"/>
</g>

<g transform="matrix( 0.5625, 0, 0, 0.5625, 0,0) ">
<use xlink:href="#Layer0_0_MEMBER_2_FILL"/>
</g>

<g transform="matrix( 0.5625, 0, 0, 0.5625, 0,0) ">
<use xlink:href="#Layer0_0_MEMBER_3_MEMBER_0_MEMBER_0_FILL"/>
</g>

<g transform="matrix( 0.5625, 0, 0, 0.5625, 0,0) ">
<use xlink:href="#Layer0_0_MEMBER_3_MEMBER_0_MEMBER_1_FILL"/>
</g>

<g transform="matrix( 0.5625, 0, 0, 0.5625, 0,0) ">
<use xlink:href="#Layer0_0_MEMBER_3_MEMBER_1_FILL"/>
</g>

<g transform="matrix( 0.5625, 0, 0, 0.5625, 0,0) ">
<use xlink:href="#Layer0_0_MEMBER_3_MEMBER_2_FILL"/>
</g>

<g transform="matrix( 0.5625, 0, 0, 0.5625, 0,0) ">
<use xlink:href="#Layer0_0_MEMBER_3_MEMBER_3_FILL"/>
</g>

<g transform="matrix( 0.5625, 0, 0, 0.5625, 0,0) ">
<use xlink:href="#Layer0_0_MEMBER_3_MEMBER_4_FILL"/>
</g>

<g transform="matrix( 1, 0, 0, 1, 0,0) ">
<use xlink:href="#Layer0_0_MEMBER_3_MEMBER_5_FILL"/>
</g>

<g transform="matrix( 0.5625, 0, 0, 0.5625, 0,0) ">
<use xlink:href="#Layer0_0_MEMBER_4_MEMBER_0_1_STROKES" transform="matrix( 1.77777099609375, 0, 0, 1.77777099609375, 0,0) "/>
</g>

<g transform="matrix( 0.5625, 0, 0, 0.5625, 0,0) ">
<use xlink:href="#Layer0_0_MEMBER_4_MEMBER_1_1_STROKES" transform="matrix( 1.77777099609375, 0, 0, 1.77777099609375, 0,0) "/>
</g>

<g transform="matrix( 0.5625, 0, 0, 0.5625, 0,0) ">
<use xlink:href="#Layer0_0_MEMBER_4_MEMBER_2_1_STROKES" transform="matrix( 1.77777099609375, 0, 0, 1.77777099609375, 0,0) "/>
</g>

<g transform="matrix( 0.5625, 0, 0, 0.5625, 0,0) ">
<use xlink:href="#Layer0_0_MEMBER_4_MEMBER_3_1_STROKES" transform="matrix( 1.77777099609375, 0, 0, 1.77777099609375, 0,0) "/>
</g>

<g transform="matrix( 0.5625, 0, 0, 0.5625, 0,0) ">
<use xlink:href="#Layer0_0_MEMBER_5_MEMBER_0_MEMBER_0_FILL"/>
</g>

<g transform="matrix( 0.5625, 0, 0, 0.5625, 0,0) ">
<use xlink:href="#Layer0_0_MEMBER_5_MEMBER_1_MEMBER_0_FILL"/>
</g>

<g transform="matrix( 0.5625, 0, 0, 0.5625, 0,0) ">
<use xlink:href="#Layer0_0_MEMBER_6_MEMBER_0_FILL"/>
</g>

<g transform="matrix( 0.5625, 0, 0, 0.5625, 0,0) ">
<use xlink:href="#Layer0_0_MEMBER_6_MEMBER_1_FILL"/>
</g>
</g>
</svg>
