
<svg xmlns="http://www.w3.org/2000/svg" version="1.1" xmlns:xlink="http://www.w3.org/1999/xlink" preserveAspectRatio="none" x="0px" y="0px" width="72px" height="72px" viewBox="0 0 72 72">
<defs>
<g id="Layer0_0_MEMBER_0_FILL">
<path fill="#00ACC1" stroke="none" d="
M 36 47.5
Q 29 47.5 26.6 47.95 9 51.3 9 63.9
L 9 72 63 72 63 63.9
Q 63 51.3 45.4 47.95 43 47.5 36 47.5 Z"/>
</g>

<g id="Layer0_0_MEMBER_1_FILL">
<path fill="#E59900" stroke="none" d="
M 30.15 53
Q 30.15 55.6 31.9 57.4 33.7 59.25 36.3 59.25 38.85 59.25 40.6 57.4 42.4 55.6 42.4 53
L 42.4 47.65 30.15 47.65 30.15 53 Z"/>
</g>

<g id="Layer0_0_MEMBER_2_MEMBER_0_MEMBER_0_FILL">
<path fill="#E59600" stroke="none" d="
M 106.9 66.05
L 103.3 66.05 103.3 86.35
Q 108.05 86.35 111.15 83.95 114.75 81.15 114.75 75.9 114.75 70.6 110.85 67.8
L 106.9 66.05 Z"/>
</g>

<g id="Layer0_0_MEMBER_2_MEMBER_0_MEMBER_1_FILL">
<path fill="#E59600" stroke="none" d="
M 24.7 66.05
L 21.05 66.05 17.15 67.8
Q 13.2 70.6 13.2 75.9 13.2 81.15 16.8 83.95 19.9 86.35 24.7 86.35
L 24.7 66.05 Z"/>
</g>

<g id="Layer0_0_MEMBER_2_MEMBER_1_FILL">
<path fill="#FCC21B" stroke="none" d="
M 106.75 73.8
Q 106.75 43.35 98.1 28.35 87.85 10.6 64 10.6 40.1 10.6 29.85 28.35 21.2 43.35 21.2 73.8 21.2 99.7 35.8 112.25 47.05 122 64 122 80.8 122 92.1 112.35 106.75 99.8 106.75 73.8 Z"/>
</g>

<g id="Layer0_0_MEMBER_2_MEMBER_2_FILL">
<path fill="#FFA000" stroke="none" d="
M 57.2 19.2
Q 56.85 14.4 52.8 10.8 47.2 5.95 36.4 5.75
L 35.6 5.75
Q 24.75 5.95 19.2 10.8 15.1 14.4 14.85 19.2 14.8 19.55 14.8 19.85
L 14.8 31.1
Q 15.05 30.9 15.55 30.55 15.85 30.25 16.25 30.05
L 16.6 29.9 17.4 35.3
Q 21.85 28.35 23.1 20.75 26.6 23.1 29.55 24.05 32.45 25.05 35.6 25
L 36.4 25
Q 41.6 24.95 45.95 24.45
L 49.1 24.1
Q 49.2 24.1 49.25 24.2
L 54.6 35.3 55.4 29.9 55.75 30.05
Q 56.15 30.25 56.45 30.5 56.95 30.9 57.2 31.1
L 57.2 19.85
Q 57.2 19.55 57.2 19.2 Z"/>
</g>

<g id="Layer0_0_MEMBER_3_FILL">
<path fill="#444444" stroke="none" d="
M 44.8 65.05
Q 44.75 67.25 46 68.85 47.25 70.45 49.05 70.45 50.85 70.45 52.15 68.9 53.45 67.3 53.5 65.1 53.6 62.35 51.85 60.8 50.15 62.3 48.05 62.95 46.5 63.45 45 63.6 44.8 64.5 44.8 65.05 Z"/>
</g>

<g id="Layer0_0_MEMBER_4_FILL">
<path fill="#444444" stroke="none" d="
M 82.55 68.85
Q 83.8 67.25 83.75 65.05 83.65 64.05 83.5 63.6 82 63.45 80.45 62.95 78.35 62.3 76.65 60.8 74.95 62.35 75 65.1 75.05 67.3 76.35 68.9 77.65 70.45 79.5 70.45 81.3 70.45 82.55 68.85 Z"/>
</g>

<g id="Layer0_0_MEMBER_5_FILL">
<path fill="#513F35" stroke="none" d="
M 56.1 88.25
Q 56.35 88.75 56.95 88.55 60.35 87.45 64.35 87.5 68.25 87.5 71.6 88.55 72.2 88.75 72.45 88.25 72.65 87.75 72.25 87.15 71.45 85.95 69.55 84.95 67.1 83.65 64.25 83.65 61.4 83.65 58.95 84.95 57.05 85.95 56.25 87.15 55.9 87.8 56.1 88.25 Z"/>
</g>

<g id="Layer0_0_MEMBER_6_FILL">
<path fill="#E59600" stroke="none" d="
M 59.7 75.5
Q 59.2 75.4 59 75.75 58.8 76.05 59 76.4 59.5 77.3 60.8 78.1 62.45 79.1 64.25 79.1 66.1 79.1 67.75 78.1 69.05 77.3 69.55 76.4 69.75 76.05 69.55 75.75 69.3 75.4 68.8 75.5 66.55 76.2 64.25 76.2 61.95 76.2 59.7 75.5 Z"/>
</g>
</defs>

<g id="Layer_1">
<g transform="matrix( 1, 0, 0, 1, 0,0) ">
<use xlink:href="#Layer0_0_MEMBER_0_FILL"/>
</g>

<g transform="matrix( 1, 0, 0, 1, 0,-0.05) ">
<use xlink:href="#Layer0_0_MEMBER_1_FILL"/>
</g>

<g transform="matrix( 0.427154541015625, 0, 0, 0.42694091796875, 8.85,3.25) ">
<use xlink:href="#Layer0_0_MEMBER_2_MEMBER_0_MEMBER_0_FILL"/>
</g>

<g transform="matrix( 0.427154541015625, 0, 0, 0.42694091796875, 8.85,3.25) ">
<use xlink:href="#Layer0_0_MEMBER_2_MEMBER_0_MEMBER_1_FILL"/>
</g>

<g transform="matrix( 0.4273529052734375, 0, 0, 0.4270782470703125, 8.85,3.6) ">
<use xlink:href="#Layer0_0_MEMBER_2_MEMBER_1_FILL"/>
</g>

<g transform="matrix( 0.9797515869140625, 0, 0, 0.9797515869140625, 0.95,2.5) ">
<use xlink:href="#Layer0_0_MEMBER_2_MEMBER_2_FILL"/>
</g>

<g transform="matrix( 0.5625, 0, 0, 0.5625, 0,-0.05) ">
<use xlink:href="#Layer0_0_MEMBER_3_FILL"/>
</g>

<g transform="matrix( 0.5625, 0, 0, 0.5625, 0,-0.05) ">
<use xlink:href="#Layer0_0_MEMBER_4_FILL"/>
</g>

<g transform="matrix( 0.5625, 0, 0, 0.5625, 0,-0.05) ">
<use xlink:href="#Layer0_0_MEMBER_5_FILL"/>
</g>

<g transform="matrix( 0.5625, 0, 0, 0.5625, 0,-0.05) ">
<use xlink:href="#Layer0_0_MEMBER_6_FILL"/>
</g>
</g>
</svg>
