
<svg xmlns="http://www.w3.org/2000/svg" version="1.1" xmlns:xlink="http://www.w3.org/1999/xlink" preserveAspectRatio="none" x="0px" y="0px" width="72px" height="72px" viewBox="0 0 72 72">
<defs>
<g id="Layer0_0_FILL">
<path fill="#FFA000" stroke="none" d="
M 105.4 69.2
Q 106 55.5 106 45.1
L 22 45.4
Q 22 56.85 22.8 71.1 24.45 99.6 28.5 113.55
L 101.1 113.25
Q 104.15 96.6 105.4 69.2 Z"/>
</g>

<g id="Layer0_1_FILL">
<path fill="#7E57C2" stroke="none" d="
M 11.5 66.45
L 11.5 72 36.15 72 36.15 53.6
Q 26 53.6 19.25 56.65 11.5 60.1 11.5 66.45 Z"/>
</g>

<g id="Layer0_2_FILL">
<path fill="#7E57C2" stroke="none" d="
M 36.15 53.6
L 36.15 72 60.5 72 60.5 66.45
Q 60.5 60.4 52.95 56.8 46.1 53.6 36.15 53.6 Z"/>
</g>

<g id="Layer0_3_MEMBER_0_FILL">
<path fill="#FFA000" stroke="none" d="
M 106 46.15
Q 106 29.8 93.7 18.2 81.4 6.65 64 6.65 46.6 6.65 34.3 18.2 22 29.75 22 46.15 22 62.5 34.3 74.1 46.6 85.65 64 85.65 81.35 85.65 93.7 74.1 106 62.5 106 46.15 Z"/>
</g>

<g id="Layer0_4_FILL">
<path fill="#E59600" stroke="none" d="
M 73 90.25
L 54.85 90.25 54.85 99.85
Q 54.85 103.1 57.25 105.4 59.7 107.7 63.1 107.7
L 64.75 107.7
Q 68.15 107.7 70.6 105.4 73 103.1 73 99.85
L 73 90.25 Z"/>
</g>

<g id="Layer0_5_FILL">
<path fill="#FCC21B" stroke="none" d="
M 83.65 86.25
Q 94.6 76.85 94.6 59 94.6 37.15 88.35 26.35 81 13.6 63.85 13.6 46.7 13.6 39.35 26.35 33.15 37.15 33.15 59 33.15 76.85 44.1 86.25 52.65 93.6 63.85 93.6 75.1 93.6 83.65 86.25 Z"/>
</g>

<g id="Layer0_6_FILL">
<path fill="#444444" stroke="none" d="
M 56 60.75
Q 56.95 58.75 56.2 58.5 55.95 58.4 55.3 58.85 54.2 59.65 53.9 59.8 51.6 61.05 49 60.8 46.95 60.65 44.95 59.5 44.05 59 43.85 59.9 43.65 60.8 45.25 62.35 46.85 63.95 49.1 64.25 50.75 64.5 52.3 64 54.75 63.2 56 60.75 Z"/>
</g>

<g id="Layer0_7_FILL">
<path fill="#444444" stroke="none" d="
M 82.3 62.3
Q 83.9 60.75 83.7 59.8 83.5 58.95 82.6 59.45 80.65 60.6 78.55 60.8 77.4 60.9 76 60.6 74.65 60.35 73.65 59.8 73.3 59.65 72.25 58.9 71.6 58.4 71.3 58.55 70.6 58.8 71.55 60.75 72.75 63.2 75.25 64 76.85 64.5 78.5 64.2 80.7 63.9 82.3 62.3 Z"/>
</g>

<g id="Layer0_8_FILL">
<path fill="#FFA000" stroke="none" d="
M 96.55 26.6
Q 94.15 21.75 88.9 16.9 78.4 7.2 64.1 7.2 49.8 7.2 39.3 16.7 34.05 21.4 31.65 26.15
L 31.65 55.8
Q 45.75 53.4 59.4 44.9 67.2 40 73.05 34.45 73.3 34.25 73.6 34.3 73.9 34.35 74 34.65 78.7 44.3 88.1 51 92.8 54.35 96.55 55.8
L 96.55 26.6 Z"/>
</g>

<g id="Layer0_9_FILL">
<path fill="#E49500" stroke="none" d="
M 69.05 69.6
Q 69.2 69.25 69 68.9 68.8 68.55 68.3 68.7 65.9 69.4 63.85 69.4 61.9 69.4 59.4 68.7 58.95 68.55 58.7 68.9 58.5 69.25 58.7 69.6 59.2 70.45 60.45 71.25 62.1 72.25 63.85 72.25 65.6 72.25 67.25 71.25 68.55 70.45 69.05 69.6 Z"/>
</g>

<g id="Layer0_10_FILL">
<path fill="#513F35" stroke="none" d="
M 56.85 80.55
Q 53.9 81.05 53.9 81.8 53.9 83 63.85 83 73.8 83 73.8 81.8 73.8 81 70.9 80.55 68.15 80.1 63.85 80.1 59.65 80.1 56.85 80.55 Z"/>
</g>

<g id="Layer0_11_FILL">
<path fill="#000000" fill-opacity="0.5372549019607843" stroke="none" d="
M 39.4 62.75
Q 39.05 63.25 39.25 63.85
L 42.25 71.95 43.95 71.95 40.35 62.25
Q 39.75 62.25 39.4 62.75 Z"/>
</g>

<g id="Layer0_12_MEMBER_0_FILL">
<path fill="#E59600" stroke="none" d="
M 55.5 32.8
Q 53.9076171875 33.300390625 53.55 34.9 53.2859375 36.160546875 54 38.25 54.2177734375 38.903125 54.95 41.05 54.23203125 39.5017578125 54 39.05 52.1158203125 35.508984375 49.7 36.75
L 49.75 36.7
Q 48.3595703125 37.3033203125 48.2 38.8 48.052734375 39.94453125 48.85 41.75
L 50.6 45.75
Q 50.502734375 45.5658203125 50.4 45.4 49.3271484375 43.8408203125 48.5 43.5 47.4322265625 42.92265625 46.1 43.75 46.0392578125 43.790234375 46 43.85 44.8111328125 44.710546875 44.9 46.1 44.9201171875 47.00078125 45.75 48.55 45.7775390625 48.5984375 45.8 48.65 46.20234375 49.4701171875 48.25 53.45 50.46015625 57.877734375 51.1 59.65 51.1337890625 59.7302734375 51.2 59.8
L 52.25 62.05
Q 53.6736328125 65.1896484375 56.8 69.15 58.402734375 71.157421875 59.7 72.5
L 59.65 72.5
Q 59.913671875 72.7482421875 60.25 72.8 60.5796875 72.8525390625 60.85 72.7
L 60.9 72.7 74.5 65.35 74.5 65.3
Q 74.820703125 65.14609375 74.95 64.8 75.0798828125 64.45 74.95 64.1 74.1017578125 61.7994140625 74.15 59.8
L 74.5 58.05 75.65 55.5 78.75 51.85 78.8 51.85
Q 78.8265625 51.8271484375 78.85 51.8 80.0705078125 50.09296875 79.55 48.85 79.569140625 48.8076171875 79.55 48.75 79.0931640625 47.36328125 77.35 47.2
L 77.25 47.2
Q 74.5068359375 47.0955078125 72.95 48.65 72.1330078125 49.4505859375 70.9 51.55 70.8513671875 51.5685546875 70.8 51.55
L 70.8 51.55
Q 70.4431640625 51.3236328125 70.05 50.55 69.3732421875 49.2951171875 68.9 47.45 68.912109375 47.3796875 68.9 47.3
L 66.9 36.65
Q 66.6341796875 34.95 65.7 34.1
L 65.7 34.15 65.7 34.1
Q 64.702734375 33.06796875 63.25 33.3 61.8390625 33.4703125 61.2 35.2 60.7517578125 36.4064453125 60.95 37.55 60.9609375 37.6021484375 60.95 37.65 61.0380859375 37.9814453125 61.45 40.9 61.461328125 40.991015625 61.45 41.05 60.7279296875 38.9794921875 59.75 36.15 59.73125 36.1015625 59.7 36.05 59.06640625 34.147265625 58.15 33.35
L 58.2 33.35
Q 57.0080078125 32.286328125 55.5 32.8 Z"/>
</g>

<g id="Layer0_12_MEMBER_1_FILL">
<path fill="#FCC21B" stroke="none" d="
M 58.8 36.5
Q 57.7 33.1 55.8 33.75 53.75 34.4 54.95 37.95 55.4 39.3 58.05 47.15 57.95 47.9 57.4 47.9
L 56.85 47.7
Q 53.65 40.55 53.1 39.5 51.75 36.95 50.15 37.65 48.45 38.35 49.75 41.35
L 53.4 49.65
Q 53.55 50.6 52.95 50.75
L 52.35 50.7
Q 50.65 47.7 49.55 45.95 48.7 44.7 48.1 44.4 47.45 44.1 46.65 44.6 45.85 45.15 45.9 46.05 45.95 46.8 46.65 48.1 46.9 48.65 49.15 53 51.4 57.5 52.05 59.3
L 53.15 61.65
Q 54.55 64.7 57.6 68.55 59.15 70.5 60.4 71.8
L 74 64.45
Q 73.05 61.85 73.15 59.6
L 73.5 57.85 74.8 54.95 78.05 51.2
Q 78.95 49.95 78.6 49.1 78.3 48.3 77.25 48.2 74.95 48.1 73.65 49.35 72.85 50.15 71.6 52.3 70.3 53.25 69.15 51 68.4 49.6 67.9 47.5
L 65.9 36.85
Q 65.7 35.5 65 34.85 64.35 34.15 63.4 34.3 62.55 34.45 62.15 35.55 61.8 36.5 61.95 37.4 62 37.6 62.45 40.75 62.8 43.55 63.2 45.5 63.25 45.8 63.2 45.9 62.9 46.3 62.5 46.15
L 62.15 45.9
Q 61.15 43.3 58.8 36.5 Z"/>
</g>

<g id="Layer0_13_MEMBER_0_MEMBER_0_FILL">
<path fill="#7E57C2" stroke="none" d="
M 76.15 64.8
Q 76 64.1 75.4 63.7 74.8 63.3 74.1 63.4
L 58.1 69.7
Q 57.4 69.8 56.95 70.35 56.55 70.9 56.6 71.6
L 78.2 128 107.5 128 76.15 64.8 Z"/>
</g>
</defs>

<g id="Layer_1">
<g transform="matrix( 0.5625, 0, 0, 0.5625, 0,0) ">
<use xlink:href="#Layer0_0_FILL"/>
</g>

<g transform="matrix( 1, 0, 0, 1, 0.2,0) ">
<use xlink:href="#Layer0_1_FILL"/>
</g>

<g transform="matrix( 1, 0, 0, 1, -0.2,0) ">
<use xlink:href="#Layer0_2_FILL"/>
</g>

<g transform="matrix( 0.5625, 0, 0, 0.5625, 0,0) ">
<use xlink:href="#Layer0_3_MEMBER_0_FILL"/>
</g>

<g transform="matrix( 0.5625, 0, 0, 0.5625, 0,0) ">
<use xlink:href="#Layer0_4_FILL"/>
</g>

<g transform="matrix( 0.5625, 0, 0, 0.5625, 0,0) ">
<use xlink:href="#Layer0_5_FILL"/>
</g>

<g transform="matrix( 0.5625, 0, 0, 0.5625, 0,0) ">
<use xlink:href="#Layer0_6_FILL"/>
</g>

<g transform="matrix( 0.5625, 0, 0, 0.5625, 0,0) ">
<use xlink:href="#Layer0_7_FILL"/>
</g>

<g transform="matrix( 0.5625, 0, 0, 0.5625, 0,0) ">
<use xlink:href="#Layer0_8_FILL"/>
</g>

<g transform="matrix( 0.5625, 0, 0, 0.5625, 0,0) ">
<use xlink:href="#Layer0_9_FILL"/>
</g>

<g transform="matrix( 0.5625, 0, 0, 0.5625, 0,0) ">
<use xlink:href="#Layer0_10_FILL"/>
</g>

<g transform="matrix( 1, 0, 0, 1, 0,0) ">
<use xlink:href="#Layer0_11_FILL"/>
</g>

<g transform="matrix( 0.5625, 0, 0, 0.5625, -0.2,0.4) ">
<use xlink:href="#Layer0_12_MEMBER_0_FILL"/>
</g>

<g transform="matrix( 0.5625, 0, 0, 0.5625, 0,0) ">
<use xlink:href="#Layer0_12_MEMBER_1_FILL"/>
</g>

<g transform="matrix( 0.5625, 0, 0, 0.5625, 0,0) ">
<use xlink:href="#Layer0_13_MEMBER_0_MEMBER_0_FILL"/>
</g>
</g>
</svg>
