
<svg xmlns="http://www.w3.org/2000/svg" version="1.1" xmlns:xlink="http://www.w3.org/1999/xlink" preserveAspectRatio="none" x="0px" y="0px" width="72px" height="72px" viewBox="0 0 72 72">
<defs>
<g id="Layer0_0_MEMBER_0_FILL">
<path fill="#C4A66A" stroke="none" d="
M 38.25 47.7
L 0 43.25 0 44 37.9 49.8 38.25 47.7 Z"/>
</g>

<g id="Layer0_0_MEMBER_1_FILL">
<path fill="#CFD8DC" stroke="none" d="
M 102.15 36.4
L 101 46.2 119.45 51.65 121.15 43.95 102.15 36.4 Z"/>
</g>

<g id="Layer0_0_MEMBER_2_MEMBER_0_FILL">
<path fill="#FCC21B" stroke="none" d="
M 93.9 30.2
L 84.25 31.4 83.85 38.05 92.4 39.75 93.9 30.2 Z"/>
</g>

<g id="Layer0_0_MEMBER_2_MEMBER_1_FILL">
<path fill="#FCC21B" stroke="none" d="
M 55.05 9.8
Q 55.3 8.15 54.4 6.75 53.6 5.35 52 4.85
L 50.35 4.35
Q 48.5 3.85 46.5 4.9 44.45 6.1 44.3 8.05
L 43.75 9.55
Q 42.85 12.25 43.3 15.05 43.45 16 44.15 16.75 44.8 17.5 45.8 17.8 48.9 18.55 52.1 18.4
L 52.65 18.35 54.25 15.25 55.05 9.8 Z"/>
</g>

<g id="Layer0_0_MEMBER_2_MEMBER_2_FILL">
<path fill="#312D2D" stroke="none" d="
M 55.45 6.45
Q 53.95 4.4 51.4 4.15 49.95 4 49.15 4 46.3 4.05 44.8 6.45
L 44.05 8.2
Q 45.8326171875 8.783984375 47 8.35 48.4 10.4 49.5 12.65 50.15 13.85 51.35 14.3
L 52.15 12.6 52.6 12.85
Q 53 13.05 53.2 13.45 53.4 13.85 53.3 14.3
L 52.55 18.6 53.45 17.8 54.4 16.15
Q 55.45 14.35 56.3 11.05 56.9 8.55 55.45 6.45 Z"/>
</g>

<g id="Layer0_0_MEMBER_2_MEMBER_3_FILL">
<path fill="#444444" stroke="none" d="
M 85.35 21.8
Q 85.45 21.25 85.15 20.8 84.9 20.35 84.4 20.3 83.95 20.25 83.55 20.6 83.2 20.95 83.1 21.5 83.05 22.05 83.3 22.5 83.55 22.95 84.05 23 84.5 23.1 84.9 22.7 85.3 22.35 85.35 21.8 Z"/>
</g>

<g id="Layer0_0_MEMBER_2_MEMBER_4_FILL">
<path fill="#444444" stroke="none" d="
M 79.45 20.4
Q 79.55 19.85 79.25 19.4 79 19 78.5 18.9 78.05 18.85 77.65 19.2 77.3 19.55 77.2 20.1 77.15 20.65 77.4 21.1 77.65 21.6 78.15 21.65 78.6 21.7 79 21.35 79.4 20.95 79.45 20.4 Z"/>
</g>

<g id="Layer0_0_MEMBER_3_FILL">
<path fill="#9B7A26" stroke="none" d="
M 42 48.9
Q 42.35 46.45 41.95 44.55 41.55 42.7 40.7 42.6 39.85 42.5 39 44.15 38.15 45.85 37.8 48.35 37.45 50.9 37.85 52.7 38.2 54.55 39.1 54.65 39.95 54.8 40.8 53.1 41.65 51.4 42 48.9 Z"/>
</g>

<g id="Layer0_0_MEMBER_4_FILL">
<path fill="#CFD8DC" stroke="none" d="
M 75.95 69
L 59 94.7 67.8 99.45 86.75 79.5 75.95 69 Z"/>
</g>

<g id="Layer0_0_MEMBER_5_FILL">
<path fill="#CFD8DC" stroke="none" d="
M 70.1 97.6
L 58.5 97.85 62.9 121.6 70.4 121.6 70.1 97.6 Z"/>
</g>

<g id="Layer0_0_MEMBER_6_FILL">
<path fill="#CFD8DC" stroke="none" d="
M 101.15 69.95
L 87.8 75.75 95.75 100.1 106.6 98.65 101.15 69.95 Z"/>
</g>

<g id="Layer0_0_MEMBER_7_FILL">
<path fill="#CFD8DC" stroke="none" d="
M 95.75 100.1
L 100.05 119.95 107.5 119.95 106.6 98.65 95.75 100.1 Z"/>
</g>

<g id="Layer0_0_MEMBER_8_FILL">
<path fill="#CFD8DC" stroke="none" d="
M 80.6 44.7
L 72.9 39.5 62 58.2 68.2 62.55 80.6 44.7 Z"/>
</g>

<g id="Layer0_0_MEMBER_9_FILL">
<path fill="#B0BEC5" stroke="none" d="
M 104.85 40.7
Q 105.05 39.15 104.1 37.85 103.2 36.6 101.65 36.3
L 95.15 35 79.75 36.45 75 38.05
Q 73.45 38.55 72.65 39.9 71.8 41.3 72.05 42.9
L 75.95 69 86.5 80
Q 87.3 80.85 88.45 80.85 89.6 80.9 90.4 80.1
L 101.15 69.95 104.85 40.7 Z"/>
</g>

<g id="Layer0_0_MEMBER_10_FILL">
<path fill="#CFD8DC" stroke="none" d="
M 60.65 92.55
Q 58.75 94.05 58.45 96.45 58.2 98.85 59.65 100.75 61.15 102.65 63.55 102.9 66 103.2 67.85 101.7 69.75 100.25 70.05 97.85 70.35 95.45 68.85 93.55 67.35 91.65 64.95 91.35 62.55 91.05 60.65 92.55 Z"/>
</g>

<g id="Layer0_0_MEMBER_11_FILL">
<path fill="#CFD8DC" stroke="none" d="
M 60.9 60.75
Q 60.8 62.35 61.85 63.55 62.9 64.75 64.5 64.8 66.1 64.9 67.3 63.8 68.5 62.75 68.55 61.15 68.65 59.55 67.55 58.4 66.5 57.2 64.9 57.1 63.35 57.05 62.15 58.1 61 59.2 60.9 60.75 Z"/>
</g>

<g id="Layer0_0_MEMBER_12_FILL">
<path fill="#CFD8DC" stroke="none" d="
M 123.8 48.7
Q 124.2 47.15 123.35 45.8 122.55 44.45 121 44.05 119.45 43.7 118.1 44.5 116.75 45.3 116.35 46.85 115.95 48.4 116.75 49.8 117.55 51.15 119.15 51.5 120.7 51.9 122.05 51.1 123.4 50.3 123.8 48.7 Z"/>
</g>

<g id="Layer0_0_MEMBER_13_FILL">
<path fill="#CFD8DC" stroke="none" d="
M 45.45 53.9
L 63.25 64.5 67.3 58.1 49.5 47.5 45.45 53.9 Z"/>
</g>

<g id="Layer0_0_MEMBER_14_FILL">
<path fill="#CFD8DC" stroke="none" d="
M 123.85 48.4
L 126.45 28 120.05 27.8 116.2 47.25 123.85 48.4 Z"/>
</g>

<g id="Layer0_0_MEMBER_15_MEMBER_0_FILL">
<path fill="#37474F" fill-opacity="0.9490196078431372" stroke="none" d="
M 13.7 2.4
Q 12.4 0.45 10.75 0 8.95 0.15 6.9 1.1 2.8 2.95 1.5 6.8 -0.5 12.85 0.15 17.85 1 24.45 6.55 25.6 7.95 25.35 9.65 23.8 13 20.7 14.5 14.1 16.3 6.4 13.7 2.4 Z"/>
</g>

<g id="Layer0_0_MEMBER_15_MEMBER_1_FILL">
<path fill="#78909C" stroke="none" d="
M 85.5 6.45
L 87.05 7.9
Q 88.65 10 88.75 13.3 89.1 22.95 85 28.4 83.45 30.5 81.3 31.3
L 79.4 31.65 81.45 32.7
Q 84.15 33.8 87.25 34 91.8 32.65 94.35 29.45 96.95 26.2 97.8 20.85 98.7 15.4 97.5 11.55
L 96.1 8.85
Q 94.05 7.4 91.9 6.8 89.7 6.25 87.4 6.3
L 85.5 6.45 Z"/>
</g>

<g id="Layer0_0_MEMBER_15_MEMBER_2_FILL">
<path fill="#CFD8DC" stroke="none" d="
M 95.85 25.15
L 88.8 25.15
Q 88.25 26.7 87.15 28.4 85.05 31.7 82.5 32.2 81.7 32.35 80.5 32
L 79.4 31.65 79.75 36.45 77.85 37.1 80.1 37.7
Q 83 38.4 85.2 40.35 86.85 41.85 88.8 41.6 92.45 41.3 94.15 37.75 95.75 34.55 95.95 29.5
L 95.85 25.15 Z"/>
</g>

<g id="Layer0_0_MEMBER_15_MEMBER_3_FILL">
<path fill="#B0BEC5" stroke="none" d="
M 90.25 20.85
L 87.4 28.05 93.3 28.05
Q 94.45 28.05 95.35 27.4 96.3 26.75 96.65 25.7 97.15 24.35 97.55 22.45
L 97.8 20.85 90.25 20.85 Z"/>
</g>

<g id="Layer0_0_MEMBER_15_MEMBER_4_FILL">
<path fill="#B0BEC5" stroke="none" d="
M 86.75 28.4
Q 84.4 31.65 82.75 31.75 81.05 31.9 80.05 31.8
L 79.4 31.65 79.55 33.8 81.35 34.65
Q 83.55 35.45 85.25 35.25 87.45 35 89.2 32.55 91.1 29.9 92.05 25.15
L 88.8 25.15
Q 87.95 26.75 86.75 28.4 Z"/>
</g>

<g id="Layer0_0_MEMBER_15_MEMBER_5_FILL">
<path fill="#CFD8DC" stroke="none" d="
M 85.5 6.45
L 86.5 7.45
Q 87.55 8.85 88 10.7 88.95 15.05 87.95 20.65 87.35 24 85.45 27.15 83.8 29.95 82.45 30.65 81.5 31.1 80.05 31.2
L 78.8 31.15 78.8 31.9 79.5 32.85 81.45 32.9
Q 83.65 32.75 85 31.55 86.85 29.85 88 27.7 89.5 25 90.25 20.85 91.65 13.6 89.95 9.1 89.35 7.55 88.3 6.8
L 87.4 6.3 85.5 6.45 Z"/>
</g>

<g id="Layer0_0_MEMBER_16_FILL">
<path fill="#CFD8DC" stroke="none" d="
M 44.75 45.35
Q 42.9 45.2 41.45 46.4 40.05 47.6 39.9 49.5
L 39.85 50.15
Q 39.75 52 40.95 53.4 42.15 54.8 44 54.95
L 45.5 55.05
Q 47.4 55.2 48.8 54 50.2 52.75 50.3 50.9
L 50.35 50.25
Q 50.5 48.4 49.3 47 48.05 45.55 46.2 45.45
L 44.75 45.35 Z"/>
</g>

<g id="Layer0_0_MEMBER_17_FILL">
<path fill="#CFD8DC" stroke="none" d="
M 127.1 20.75
Q 125.95 19.25 124.1 19 122.25 18.8 120.8 19.9 119.3 21.05 119.05 22.9
L 118.75 25.75
Q 118.5 27.6 119.65 29.05 120.8 30.55 122.65 30.75 124.5 31 125.95 29.85 127.45 28.7 127.65 26.85
L 128 24.05
Q 128.25 22.2 127.1 20.75 Z"/>
</g>

<g id="Layer0_0_MEMBER_18_FILL">
<path fill="#C4A66A" stroke="none" d="
M 49.55 49.25
Q 49.25 49.2 49 49.4 48.75 49.65 48.7 50 48.6 50.85 49.2 51
L 51.5 51.55
Q 51.85 51.65 52.2 51.45 52.5 51.2 52.55 50.8 52.65 50.35 52.45 50 52.3 49.65 51.9 49.55
L 49.55 49.25 Z"/>
</g>

<g id="Layer0_0_MEMBER_19_FILL">
<path fill="#B0BEC5" stroke="none" d="
M 44.7 45.35
Q 43.45 45.25 42.45 45.8 42.5 45.85 43.25 45.75 44.05 45.8 44.55 46.25 44.9 46.55 44.9 47 44.9 47.5 45.25 47.9 45.45 48.15 46.1 48.05 46.85 47.9 47.4 48.25 47.75 48.5 47.85 48.9
L 47.9 49.85
Q 47.9 50 48.4 50.35 48.8 50.6 48.65 51.25 48.5 52.05 47.8 53.3 48.2 53.9 49 53.5 50.25 52.35 50.3 50.9
L 50.35 50.25
Q 50.5 48.4 49.3 47 48.05 45.6 46.2 45.45
L 44.7 45.35 Z"/>
</g>

<g id="Layer0_0_MEMBER_20_FILL">
<path fill="#B0BEC5" stroke="none" d="
M 70.4 121.4
L 62.9 121.4 55.25 123.4
Q 53.7 123.85 53.2 125.4 52.85 126.4 53.45 127.2 54.05 128 55.1 128
L 70.4 128 70.4 121.4 Z"/>
</g>

<g id="Layer0_0_MEMBER_21_FILL">
<path fill="#B0BEC5" stroke="none" d="
M 100 119.5
L 99.45 121.05
Q 98.9 122.8 98.75 123.65
L 98.75 123.85
Q 98.55 124.9 99.25 126.35 100.05 128 101.25 128
L 110.65 128
Q 111.15 128 111.55 127.1 111.9 126.35 111.9 125.65
L 111.9 125.4
Q 111.9 124.75 111.5 124.2
L 107.35 119.5 100 119.5 Z"/>
</g>
</defs>

<g id="Layer_1">
<g transform="matrix( 0.5625, 0, 0, 0.5625, 0,0) ">
<use xlink:href="#Layer0_0_MEMBER_0_FILL"/>
</g>

<g transform="matrix( 0.5625, 0, 0, 0.5625, 0,0) ">
<use xlink:href="#Layer0_0_MEMBER_1_FILL"/>
</g>

<g transform="matrix( 0.5625, 0, 0, 0.5625, 0,0) ">
<use xlink:href="#Layer0_0_MEMBER_2_MEMBER_0_FILL"/>
</g>

<g transform="matrix( 1, 0, 0, 1, 0,0) ">
<use xlink:href="#Layer0_0_MEMBER_2_MEMBER_1_FILL"/>
</g>

<g transform="matrix( 1, 0, 0, 1, 0,0) ">
<use xlink:href="#Layer0_0_MEMBER_2_MEMBER_2_FILL"/>
</g>

<g transform="matrix( 0.5625, 0, 0, 0.5625, 0,0) ">
<use xlink:href="#Layer0_0_MEMBER_2_MEMBER_3_FILL"/>
</g>

<g transform="matrix( 0.5625, 0, 0, 0.5625, 0,0) ">
<use xlink:href="#Layer0_0_MEMBER_2_MEMBER_4_FILL"/>
</g>

<g transform="matrix( 0.5625, 0, 0, 0.5625, 0,0) ">
<use xlink:href="#Layer0_0_MEMBER_3_FILL"/>
</g>

<g transform="matrix( 0.5625, 0, 0, 0.5625, 0,0) ">
<use xlink:href="#Layer0_0_MEMBER_4_FILL"/>
</g>

<g transform="matrix( 0.5625, 0, 0, 0.5625, 0,0) ">
<use xlink:href="#Layer0_0_MEMBER_5_FILL"/>
</g>

<g transform="matrix( 0.5625, 0, 0, 0.5625, 0,0) ">
<use xlink:href="#Layer0_0_MEMBER_6_FILL"/>
</g>

<g transform="matrix( 0.5625, 0, 0, 0.5625, 0,0) ">
<use xlink:href="#Layer0_0_MEMBER_7_FILL"/>
</g>

<g transform="matrix( 0.5625, 0, 0, 0.5625, 0,0) ">
<use xlink:href="#Layer0_0_MEMBER_8_FILL"/>
</g>

<g transform="matrix( 0.5625, 0, 0, 0.5625, 0,0) ">
<use xlink:href="#Layer0_0_MEMBER_9_FILL"/>
</g>

<g transform="matrix( 0.5625, 0, 0, 0.5625, 0,0) ">
<use xlink:href="#Layer0_0_MEMBER_10_FILL"/>
</g>

<g transform="matrix( 0.5625, 0, 0, 0.5625, 0,0) ">
<use xlink:href="#Layer0_0_MEMBER_11_FILL"/>
</g>

<g transform="matrix( 0.5625, 0, 0, 0.5625, 0,0) ">
<use xlink:href="#Layer0_0_MEMBER_12_FILL"/>
</g>

<g transform="matrix( 0.5625, 0, 0, 0.5625, 0,0) ">
<use xlink:href="#Layer0_0_MEMBER_13_FILL"/>
</g>

<g transform="matrix( 0.5625, 0, 0, 0.5625, 0,0) ">
<use xlink:href="#Layer0_0_MEMBER_14_FILL"/>
</g>

<g transform="matrix( 0.5625, 0, 0, 0.5625, 42.15,3.7) ">
<use xlink:href="#Layer0_0_MEMBER_15_MEMBER_0_FILL"/>
</g>

<g transform="matrix( 0.5625, 0, 0, 0.5625, 0,0) ">
<use xlink:href="#Layer0_0_MEMBER_15_MEMBER_1_FILL"/>
</g>

<g transform="matrix( 0.5625, 0, 0, 0.5625, 0,0) ">
<use xlink:href="#Layer0_0_MEMBER_15_MEMBER_2_FILL"/>
</g>

<g transform="matrix( 0.5625, 0, 0, 0.5625, 0,0) ">
<use xlink:href="#Layer0_0_MEMBER_15_MEMBER_3_FILL"/>
</g>

<g transform="matrix( 0.5625, 0, 0, 0.5625, 0,0) ">
<use xlink:href="#Layer0_0_MEMBER_15_MEMBER_4_FILL"/>
</g>

<g transform="matrix( 0.5625, 0, 0, 0.5625, 0,0) ">
<use xlink:href="#Layer0_0_MEMBER_15_MEMBER_5_FILL"/>
</g>

<g transform="matrix( 0.5625, 0, 0, 0.5625, 0,0) ">
<use xlink:href="#Layer0_0_MEMBER_16_FILL"/>
</g>

<g transform="matrix( 0.5625, 0, 0, 0.5625, -0.05,0) ">
<use xlink:href="#Layer0_0_MEMBER_17_FILL"/>
</g>

<g transform="matrix( 0.5625, 0, 0, 0.5625, 0,0) ">
<use xlink:href="#Layer0_0_MEMBER_18_FILL"/>
</g>

<g transform="matrix( 0.5625, 0, 0, 0.5625, 0,0) ">
<use xlink:href="#Layer0_0_MEMBER_19_FILL"/>
</g>

<g transform="matrix( 0.5625, 0, 0, 0.5625, 0,0) ">
<use xlink:href="#Layer0_0_MEMBER_20_FILL"/>
</g>

<g transform="matrix( 0.5625, 0, 0, 0.5625, 0,0) ">
<use xlink:href="#Layer0_0_MEMBER_21_FILL"/>
</g>
</g>
</svg>
