
<svg xmlns="http://www.w3.org/2000/svg" version="1.1" xmlns:xlink="http://www.w3.org/1999/xlink" preserveAspectRatio="none" x="0px" y="0px" width="72px" height="72px" viewBox="0 0 72 72">
<defs>
<filter id="Filter_1" x="-20%" y="-20%" width="140%" height="140%" color-interpolation-filters="sRGB">
<feColorMatrix in="SourceGraphic" type="matrix" values="1 0 0 0 0 0 1 0 0 0 0 0 1 0 0 0 0 0 0.5 0" result="result1"/>
</filter>

<g id="Layer0_0_MEMBER_0_FILL">
<path fill="#BDBDBD" stroke="none" d="
M 81.55 28.1
Q 88.9 23.6 88.9 17.25 88.9 10.9 81.55 6.4 74.2 1.9 63.8 1.9 53.4 1.9 46.1 6.4 38.75 10.9 38.75 17.25 38.75 23.6 46.1 28.1 53.4 32.6 63.8 32.6 74.2 32.6 81.55 28.1 Z"/>
</g>

<g id="Layer0_0_MEMBER_1_MEMBER_0_FILL">
<path fill="#E49500" stroke="none" d="
M 106.9 66.05
L 103.3 66.05 103.3 86.35
Q 108.05 86.35 111.15 83.95 114.75 81.15 114.75 75.9 114.75 70.6 110.85 67.8
L 106.9 66.05 Z"/>
</g>

<g id="Layer0_0_MEMBER_1_MEMBER_1_FILL">
<path fill="#E49500" stroke="none" d="
M 24.7 66.05
L 21.05 66.05 17.15 67.8
Q 13.2 70.6 13.2 75.9 13.2 81.15 16.8 83.95 19.9 86.35 24.7 86.35
L 24.7 66.05 Z"/>
</g>

<g id="Layer0_0_MEMBER_2_FILL">
<path fill="#E1F5FE" stroke="none" d="
M 106.6 73.45
Q 106.6 44.75 97.7 30.85 87.55 14.9 64 14.9 40.45 14.9 30.05 31 21 45.15 21 73.8 21 97.8 36.45 111.3 48.85 122.15 64 122.15 79 122.15 91.3 111.15 106.6 97.45 106.6 73.45 Z"/>
</g>

<g id="Layer0_0_MEMBER_3_FILL">
<path fill="#E1F5FE" stroke="none" d="
M 40.15 72.35
Q 38.45 74.35 38.45 77.2 38.45 80.1 40.15 82.1 41.8 84.1 44.2 84.1 46.55 84.1 48.25 82.1 49.9 80.05 49.9 77.2 49.9 74.35 48.25 72.35 46.55 70.3 44.2 70.3 41.8 70.3 40.15 72.35 Z"/>
</g>

<g id="Layer0_0_MEMBER_4_FILL">
<path fill="#E1F5FE" stroke="none" d="
M 87.85 72.35
Q 86.15 70.3 83.8 70.3 81.4 70.3 79.75 72.35 78.05 74.35 78.05 77.2 78.05 80.05 79.75 82.1 81.4 84.1 83.8 84.1 86.15 84.1 87.85 82.1 89.5 80.1 89.5 77.2 89.5 74.35 87.85 72.35 Z"/>
</g>

<g id="Layer0_0_MEMBER_5_FILL">
<path fill="#E1F5FE" stroke="none" d="
M 77.8 101.2
Q 77.45 100.55 76.35 100.55
L 51.6 100.55
Q 50.5 100.55 50.15 101.2 49.8 101.85 50.5 102.9 51.8 104.9 55 106.6 59.1 108.75 63.95 108.75 68.85 108.75 72.95 106.6 76.15 104.9 77.45 102.9 78.15 101.85 77.8 101.2 Z"/>
</g>

<g id="Layer0_0_MEMBER_6_FILL">
<path fill="#E1F5FE" stroke="none" d="
M 58 90
Q 57.35 89.85 57.1 90.3 56.8 90.7 57.05 91.2 57.75 92.35 59.45 93.4 61.65 94.75 64 94.75 66.35 94.75 68.5 93.4 70.2 92.35 70.9 91.2 71.15 90.7 70.9 90.3 70.6 89.85 69.95 90 66.8 90.9 64 90.9 61.15 90.9 58 90 Z"/>
</g>

<g id="Layer0_0_MEMBER_7_FILL">
<path fill="#FBC11B" stroke="none" d="
M 106.6 73.45
Q 106.6 44.75 97.7 30.85 87.55 14.9 64 14.9 40.45 14.9 30.05 31 21 45.15 21 73.8 21 97.8 36.45 111.3 48.85 122.15 64 122.15 79 122.15 91.3 111.15 106.6 97.45 106.6 73.45 Z"/>
</g>

<g id="Layer0_0_MEMBER_8_FILL">
<path fill="#444444" stroke="none" d="
M 40.15 72.35
Q 38.45 74.35 38.45 77.2 38.45 80.1 40.15 82.1 41.8 84.1 44.2 84.1 46.55 84.1 48.25 82.1 49.9 80.05 49.9 77.2 49.9 74.35 48.25 72.35 46.55 70.3 44.2 70.3 41.8 70.3 40.15 72.35 Z"/>
</g>

<g id="Layer0_0_MEMBER_9_FILL">
<path fill="#444444" stroke="none" d="
M 87.85 72.35
Q 86.15 70.3 83.8 70.3 81.4 70.3 79.75 72.35 78.05 74.35 78.05 77.2 78.05 80.05 79.75 82.1 81.4 84.1 83.8 84.1 86.15 84.1 87.85 82.1 89.5 80.1 89.5 77.2 89.5 74.35 87.85 72.35 Z"/>
</g>

<g id="Layer0_0_MEMBER_10_FILL">
<path fill="#513F35" stroke="none" d="
M 77.8 101.2
Q 77.45 100.55 76.35 100.55
L 51.6 100.55
Q 50.5 100.55 50.15 101.2 49.8 101.85 50.5 102.9 51.8 104.9 55 106.6 59.1 108.75 63.95 108.75 68.85 108.75 72.95 106.6 76.15 104.9 77.45 102.9 78.15 101.85 77.8 101.2 Z"/>
</g>

<g id="Layer0_0_MEMBER_11_FILL">
<path fill="#E49500" stroke="none" d="
M 58 90
Q 57.35 89.85 57.1 90.3 56.8 90.7 57.05 91.2 57.75 92.35 59.45 93.4 61.65 94.75 64 94.75 66.35 94.75 68.5 93.4 70.2 92.35 70.9 91.2 71.15 90.7 70.9 90.3 70.6 89.85 69.95 90 66.8 90.9 64 90.9 61.15 90.9 58 90 Z"/>
</g>

<g id="Layer0_0_MEMBER_12_FILL">
<path fill="#E0E0E0" stroke="none" d="
M 42.75 45.6
Q 44.4 45.1 48.95 43.95 53.45 42.75 56.3 41.4 65 37.3 65 29.6
L 65 13.6
Q 65 10 60.5 9 56.4 8.1 49.95 9.65 43.45 11.15 37.45 14.45 30.95 18 27.35 22.35 20.25 30.95 18.15 45.25 16.15 58.7 19.1 72.3 19.35 73.5 20.6 73.5 21.85 73.45 22.05 72.25 23.85 63.1 28.9 56.05 34.6 48.15 42.75 45.6 Z"/>
</g>

<g id="Layer0_0_MEMBER_13_FILL">
<path fill="#E0E0E0" stroke="none" d="
M 100.6 22.35
Q 97 18 90.5 14.45 84.5 11.15 78.05 9.65 71.55 8.1 67.45 9 63 10 63 13.6
L 63 29.6
Q 63 37.3 71.65 41.4 76.4 43.6 85.25 45.6 93.35 48.15 99.05 56.05 104.1 63.1 105.9 72.25 106.15 73.45 107.35 73.5 108.6 73.5 108.85 72.3 111.8 58.7 109.85 45.25 107.7 30.95 100.6 22.35 Z"/>
</g>

<path id="An_1F475_SVG_Layer_1__Group__2_0_Layer0_0_MEMBER_0_1_STROKES" stroke="#E49500" stroke-width="3" stroke-linejoin="round" stroke-linecap="round" fill="none" d="
M 1.5 3.2
Q 15.65 -0.2 29.7 3.2"/>

<path id="An_1F475_SVG_Layer_1__Group__1_0_Layer0_0_MEMBER_0_1_STROKES" stroke="#E49500" stroke-width="3" stroke-linejoin="round" stroke-linecap="round" fill="none" d="
M 1.5 3.35
Q 17.2 -0.4 32.85 3.35"/>

<path id="An_1F475_SVG_Layer_1__Path__1_0_Layer0_0_1_STROKES" stroke="#E49500" stroke-width="3" stroke-linejoin="round" stroke-linecap="round" fill="none" d="
M 12 1.5
Q 9.9 2.6 7.55 5.1 2.85 10 1.5 16.75"/>

<path id="An_1F475_SVG_Layer_1__Path__0_Layer0_0_1_STROKES" stroke="#E49500" stroke-width="3" stroke-linejoin="round" stroke-linecap="round" fill="none" d="
M 10.5 1.5
Q 9.85 2.75 8.35 4 5.45 6.45 1.5 6.45"/>

<path id="An_1F475_SVG_Layer_1__Path__1_0_0_Layer0_0_1_STROKES" stroke="#E49500" stroke-width="3" stroke-linejoin="round" stroke-linecap="round" fill="none" d="
M 1.5 1.5
Q 3.6 2.6 5.95 5.1 10.65 10 12 16.75"/>

<path id="An_1F475_SVG_Layer_1__Path__0_0_Layer0_0_1_STROKES" stroke="#E49500" stroke-width="3" stroke-linejoin="round" stroke-linecap="round" fill="none" d="
M 1.5 1.5
Q 2.15 2.75 3.6 4 6.55 6.45 10.5 6.45"/>
</defs>

<g id="Layer_1">
<g transform="matrix( 0.5625, 0, 0, 0.5625, 0,0) ">
<use xlink:href="#Layer0_0_MEMBER_0_FILL"/>
</g>

<g transform="matrix( 0.5625, 0, 0, 0.5625, 0,0) ">
<use xlink:href="#Layer0_0_MEMBER_1_MEMBER_0_FILL"/>
</g>

<g transform="matrix( 0.5625, 0, 0, 0.5625, 0,0) ">
<use xlink:href="#Layer0_0_MEMBER_1_MEMBER_1_FILL"/>
</g>

<g transform="matrix( 0.5625, 0, 0, 0.5625, 0,0) ">
<use xlink:href="#Layer0_0_MEMBER_2_FILL"/>
</g>

<g transform="matrix( 0.5625, 0, 0, 0.5625, 0,0) ">
<use xlink:href="#Layer0_0_MEMBER_3_FILL"/>
</g>

<g transform="matrix( 0.5625, 0, 0, 0.5625, 0,0) ">
<use xlink:href="#Layer0_0_MEMBER_4_FILL"/>
</g>

<g transform="matrix( 0.5625, 0, 0, 0.5625, 0,0) ">
<use xlink:href="#Layer0_0_MEMBER_5_FILL"/>
</g>

<g transform="matrix( 0.5625, 0, 0, 0.5625, 0,0) ">
<use xlink:href="#Layer0_0_MEMBER_6_FILL"/>
</g>

<g transform="matrix( 0.5625, 0, 0, 0.5625, 0,0) ">
<use xlink:href="#Layer0_0_MEMBER_7_FILL"/>
</g>

<g transform="matrix( 0.5625, 0, 0, 0.5625, 0,0) ">
<use xlink:href="#Layer0_0_MEMBER_8_FILL"/>
</g>

<g transform="matrix( 0.5625, 0, 0, 0.5625, 0,0) ">
<use xlink:href="#Layer0_0_MEMBER_9_FILL"/>
</g>

<g transform="matrix( 0.5625, 0, 0, 0.5625, 0,0) ">
<use xlink:href="#Layer0_0_MEMBER_10_FILL"/>
</g>

<g transform="matrix( 0.5625, 0, 0, 0.5625, 0,0) ">
<use xlink:href="#Layer0_0_MEMBER_11_FILL"/>
</g>

<g transform="matrix( 0.5625, 0, 0, 0.5625, 0,0) ">
<use xlink:href="#Layer0_0_MEMBER_12_FILL"/>
</g>

<g transform="matrix( 0.5625, 0, 0, 0.5625, 0,0) ">
<use xlink:href="#Layer0_0_MEMBER_13_FILL"/>
</g>

<g transform="matrix( 0.5625, 0, 0, 0.5625, 27.1,28.15) ">
<g id="Camada_1">
<g transform="matrix( 1, 0, 0, 1, 0,0) ">
<use filter="url(#Filter_1)" xlink:href="#An_1F475_SVG_Layer_1__Group__2_0_Layer0_0_MEMBER_0_1_STROKES"/>
</g>
</g>
</g>

<g transform="matrix( 0.5625, 0, 0, 0.5625, 26.2,33.2) ">
<g transform="matrix( 1, 0, 0, 1, 0,0) ">
<use filter="url(#Filter_1)" xlink:href="#An_1F475_SVG_Layer_1__Group__1_0_Layer0_0_MEMBER_0_1_STROKES"/>
</g>
</g>

<g transform="matrix( 0.5625, 0, 0, 0.5625, 21.75,51.4) ">
<g transform="matrix( 1, 0, 0, 1, 0,0) ">
<use filter="url(#Filter_1)" xlink:href="#An_1F475_SVG_Layer_1__Path__1_0_Layer0_0_1_STROKES"/>
</g>
</g>

<g transform="matrix( 0.5625, 0, 0, 0.5625, 23.2,46.45) ">
<g transform="matrix( 1, 0, 0, 1, 0,0) ">
<use filter="url(#Filter_1)" xlink:href="#An_1F475_SVG_Layer_1__Path__0_Layer0_0_1_STROKES"/>
</g>
</g>

<g transform="matrix( 0.5625, 0, 0, 0.5625, 42.4,51.4) ">
<g transform="matrix( 1, 0, 0, 1, 0,0) ">
<use filter="url(#Filter_1)" xlink:href="#An_1F475_SVG_Layer_1__Path__1_0_0_Layer0_0_1_STROKES"/>
</g>
</g>

<g transform="matrix( 0.5625, 0, 0, 0.5625, 41.85,46.45) ">
<g transform="matrix( 1, 0, 0, 1, 0,0) ">
<use filter="url(#Filter_1)" xlink:href="#An_1F475_SVG_Layer_1__Path__0_0_Layer0_0_1_STROKES"/>
</g>
</g>
</g>
</svg>
