
<svg xmlns="http://www.w3.org/2000/svg" version="1.1" xmlns:xlink="http://www.w3.org/1999/xlink" preserveAspectRatio="none" x="0px" y="0px" width="128px" height="128px" viewBox="0 0 128 128">
<defs>
<filter id="Filter_1" x="-20%" y="-20%" width="140%" height="140%" color-interpolation-filters="sRGB">
<feColorMatrix in="SourceGraphic" type="matrix" values="1 0 0 0 0 0 1 0 0 0 0 0 1 0 0 0 0 0 0.5 0" result="result1"/>
</filter>

<g id="Layer0_0_MEMBER_0_MEMBER_0_MEMBER_0_FILL">
<path fill="#E49500" stroke="none" d="
M 106.9 66.05
L 103.3 66.05 103.3 86.35
Q 108.05 86.35 111.15 83.95 114.75 81.15 114.75 75.9 114.75 70.6 110.85 67.8
L 106.9 66.05 Z"/>
</g>

<g id="Layer0_0_MEMBER_0_MEMBER_1_MEMBER_0_FILL">
<path fill="#E49500" stroke="none" d="
M 24.7 66.05
L 21.05 66.05 17.15 67.8
Q 13.2 70.6 13.2 75.9 13.2 81.15 16.8 83.95 19.9 86.35 24.7 86.35
L 24.7 66.05 Z"/>
</g>

<g id="Layer0_0_MEMBER_1_MEMBER_0_FILL">
<path fill="#E0E0E0" stroke="none" d="
M 51.9 49.3
Q 51.9 38.55 47.85 31.95 43.3 24.6 34.9 24.6 24.8 24.6 18.85 28.55 11.5 33.4 10.85 44 10.1 56 15.95 64.75 21.75 73.45 30.6 73.45 39.4 73.45 45.65 66.4 51.9 59.3 51.9 49.3 Z"/>
</g>

<g id="Layer0_0_MEMBER_1_MEMBER_1_FILL">
<path fill="#E0E0E0" stroke="none" d="
M 117.1 43.95
Q 116.5 33.35 109.15 28.5 103.2 24.6 93.05 24.6 84.7 24.6 80.15 31.95 76.05 38.6 76.05 49.3 76.05 59.3 82.3 66.4 88.55 73.45 97.35 73.45 106.2 73.45 112.05 64.7 117.85 56 117.1 43.95 Z"/>
</g>

<g id="Layer0_0_MEMBER_2_FILL">
<path fill="#FBC11B" stroke="none" d="
M 27.1 29.3
Q 18.7 43.65 21.2 73.8 23.5 101.6 37.05 113.3 47.1 121.95 64 121.95
L 64 12.35
Q 37 12.35 27.1 29.3 Z"/>
</g>

<g id="Layer0_0_MEMBER_3_FILL">
<path fill="#FBC11B" stroke="none" d="
M 106.75 73.8
Q 109.25 43.65 100.85 29.3 90.9 12.35 64 12.35
L 64 121.95
Q 80.85 121.95 90.9 113.3 104.45 101.6 106.75 73.8 Z"/>
</g>

<g id="Layer0_0_MEMBER_4_MEMBER_0_FILL">
<path fill="#444444" stroke="none" d="
M 40.15 72.35
Q 38.45 74.35 38.45 77.2 38.45 80.1 40.15 82.1 41.8 84.1 44.2 84.1 46.55 84.1 48.25 82.1 49.9 80.05 49.9 77.2 49.9 74.35 48.25 72.35 46.55 70.3 44.2 70.3 41.8 70.3 40.15 72.35 Z"/>
</g>

<g id="Layer0_0_MEMBER_5_MEMBER_0_FILL">
<path fill="#444444" stroke="none" d="
M 87.85 72.35
Q 86.15 70.3 83.8 70.3 81.4 70.3 79.75 72.35 78.05 74.35 78.05 77.2 78.05 80.05 79.75 82.1 81.4 84.1 83.8 84.1 86.15 84.1 87.85 82.1 89.5 80.1 89.5 77.2 89.5 74.35 87.85 72.35 Z"/>
</g>

<g id="Layer0_0_MEMBER_6_MEMBER_0_FILL">
<path fill="#513F35" stroke="none" d="
M 77.8 101.2
Q 77.45 100.55 76.35 100.55
L 51.6 100.55
Q 50.5 100.55 50.15 101.2 49.8 101.85 50.5 102.9 51.8 104.9 55 106.6 59.1 108.75 63.95 108.75 68.85 108.75 72.95 106.6 76.15 104.9 77.45 102.9 78.15 101.85 77.8 101.2 Z"/>
</g>

<g id="Layer0_0_MEMBER_7_MEMBER_0_FILL">
<path fill="#E49500" stroke="none" d="
M 58 90
Q 57.35 89.85 57.1 90.3 56.8 90.7 57.05 91.2 57.75 92.35 59.45 93.4 61.65 94.75 64 94.75 66.35 94.75 68.5 93.4 70.2 92.35 70.9 91.2 71.15 90.7 70.9 90.3 70.6 89.85 69.95 90 66.8 90.9 64 90.9 61.15 90.9 58 90 Z"/>
</g>

<g id="An_1F474_SVG_Layer_1__Group__2_0_Layer0_0_MEMBER_0_FILL">
<path fill="#E49500" stroke="none" d="
M 37.05 5.1
L 37.4 5.15
Q 38.55 5.15 38.9 4 39 3.35 38.7 2.85 38.35 2.3 37.75 2.15 19.5 -2.2 1.15 2.15 0.55 2.3 0.25 2.85 -0.1 3.35 0.05 4 0.2 4.6 0.75 4.95 1.25 5.25 1.85 5.1 19.6 0.85 37.05 5.1 Z"/>
</g>

<g id="An_1F474_SVG_Layer_1__Group__1_0_Layer0_0_MEMBER_0_FILL">
<path fill="#E49500" stroke="none" d="
M 41.45 5.35
Q 42.55 5.35 42.9 4.2 43.05 3.6 42.75 3.1 42.4 2.55 41.8 2.4 21.5 -2.5 1.15 2.4 0.55 2.55 0.25 3.1 -0.1 3.6 0.05 4.2 0.15 4.8 0.7 5.15 1.25 5.45 1.85 5.3 21.45 0.65 41.1 5.3
L 41.45 5.35 Z"/>
</g>

<g id="An_1F474_SVG_Layer_1__Group__1_0_0_Layer0_0_MEMBER_0_FILL">
<path fill="#E49500" stroke="none" d="
M 12.75 2.85
Q 13.3 2.55 13.5 1.95 13.65 1.35 13.35 0.8 13.1 0.25 12.5 0.1 11.85 -0.1 11.35 0.2 8.9 1.55 6.4 4.15 1.45 9.35 0.05 16.5 -0.05 17.1 0.3 17.6 0.6 18.15 1.25 18.25
L 1.55 18.3
Q 2.75 18.3 3 17.05 4.25 10.8 8.6 6.25 10.75 3.95 12.75 2.85 Z"/>
</g>

<g id="An_1F474_SVG_Layer_1__Group__0_Layer0_0_MEMBER_0_FILL">
<path fill="#E49500" stroke="none" d="
M 11.8 2.2
Q 12.1 1.65 11.9 1.05 11.75 0.45 11.2 0.15 10.65 -0.15 10.05 0.05 9.45 0.2 9.15 0.75 8.6 1.85 7.35 2.85 4.85 4.95 1.5 4.95 0.85 4.95 0.45 5.4 0 5.8 0 6.45 0 7.05 0.45 7.5 0.85 7.95 1.5 7.95 5.95 7.95 9.25 5.15 10.95 3.75 11.8 2.2 Z"/>
</g>

<g id="An_1F474_SVG_Layer_1__Group__1_1_0_Layer0_0_MEMBER_0_FILL">
<path fill="#E49500" stroke="none" d="
M 7.1 4.15
Q 4.65 1.55 2.2 0.2 1.65 -0.1 1.05 0.1 0.45 0.25 0.15 0.8 -0.15 1.35 0.05 1.95 0.2 2.55 0.75 2.85 2.75 3.95 4.9 6.2 9.25 10.8 10.5 17.05 10.6 17.6 11.05 17.95 11.45 18.3 12 18.3
L 12.3 18.25
Q 12.9 18.15 13.25 17.6 13.6 17.1 13.45 16.5 12.05 9.35 7.1 4.15 Z"/>
</g>

<g id="An_1F474_SVG_Layer_1__Group__0_0_Layer0_0_MEMBER_0_FILL">
<path fill="#E49500" stroke="none" d="
M 10.5 7.95
Q 11.15 7.95 11.55 7.5 12 7.05 12 6.45 12 5.8 11.55 5.4 11.15 4.95 10.5 4.95 7.15 4.95 4.7 2.95 3.45 1.9 2.8 0.75 2.5 0.2 1.9 0.05 1.3 -0.15 0.8 0.15 0.25 0.45 0.05 1.05 -0.1 1.65 0.15 2.2 1.05 3.75 2.7 5.15 6 7.95 10.5 7.95 Z"/>
</g>
</defs>

<g id="Layer_1">
<g transform="matrix( 1, 0, 0, 1, 0,0) ">
<use xlink:href="#Layer0_0_MEMBER_0_MEMBER_0_MEMBER_0_FILL"/>
</g>

<g transform="matrix( 1, 0, 0, 1, 0,0) ">
<use xlink:href="#Layer0_0_MEMBER_0_MEMBER_1_MEMBER_0_FILL"/>
</g>

<g transform="matrix( 1, 0, 0, 1, 0,0) ">
<use xlink:href="#Layer0_0_MEMBER_1_MEMBER_0_FILL"/>
</g>

<g transform="matrix( 1, 0, 0, 1, 0,0) ">
<use xlink:href="#Layer0_0_MEMBER_1_MEMBER_1_FILL"/>
</g>

<g transform="matrix( 1, 0, 0, 1, 0,0) ">
<use xlink:href="#Layer0_0_MEMBER_2_FILL"/>
</g>

<g transform="matrix( 1, 0, 0, 1, 0,0) ">
<use xlink:href="#Layer0_0_MEMBER_3_FILL"/>
</g>

<g transform="matrix( 1, 0, 0, 1, 0,0) ">
<use xlink:href="#Layer0_0_MEMBER_4_MEMBER_0_FILL"/>
</g>

<g transform="matrix( 1, 0, 0, 1, 0,0) ">
<use xlink:href="#Layer0_0_MEMBER_5_MEMBER_0_FILL"/>
</g>

<g transform="matrix( 1, 0, 0, 1, 0,0) ">
<use xlink:href="#Layer0_0_MEMBER_6_MEMBER_0_FILL"/>
</g>

<g transform="matrix( 1, 0, 0, 1, 0,0) ">
<use xlink:href="#Layer0_0_MEMBER_7_MEMBER_0_FILL"/>
</g>

<g transform="matrix( 1, 0, 0, 1, 44.35,47.6) ">
<g id="Camada_1">
<g transform="matrix( 1, 0, 0, 1, 0,0) ">
<use filter="url(#Filter_1)" xlink:href="#An_1F474_SVG_Layer_1__Group__2_0_Layer0_0_MEMBER_0_FILL"/>
</g>
</g>
</g>

<g transform="matrix( 1, 0, 0, 1, 42.35,56.55) ">
<g transform="matrix( 1, 0, 0, 1, 0,0) ">
<use filter="url(#Filter_1)" xlink:href="#An_1F474_SVG_Layer_1__Group__1_0_Layer0_0_MEMBER_0_FILL"/>
</g>
</g>

<g transform="matrix( 1, 0, 0, 1, 38.7,91.4) ">
<g transform="matrix( 1, 0, 0, 1, 0,0) ">
<use filter="url(#Filter_1)" xlink:href="#An_1F474_SVG_Layer_1__Group__1_0_0_Layer0_0_MEMBER_0_FILL"/>
</g>
</g>

<g transform="matrix( 1, 0, 0, 1, 41.25,82.65) ">
<g transform="matrix( 1, 0, 0, 1, 0,0) ">
<use filter="url(#Filter_1)" xlink:href="#An_1F474_SVG_Layer_1__Group__0_Layer0_0_MEMBER_0_FILL"/>
</g>
</g>

<g transform="matrix( 1, 0, 0, 1, 75.4,91.4) ">
<g transform="matrix( 1, 0, 0, 1, 0,0) ">
<use filter="url(#Filter_1)" xlink:href="#An_1F474_SVG_Layer_1__Group__1_1_0_Layer0_0_MEMBER_0_FILL"/>
</g>
</g>

<g transform="matrix( 1, 0, 0, 1, 74.4,82.65) ">
<g transform="matrix( 1, 0, 0, 1, 0,0) ">
<use filter="url(#Filter_1)" xlink:href="#An_1F474_SVG_Layer_1__Group__0_0_Layer0_0_MEMBER_0_FILL"/>
</g>
</g>
</g>
</svg>
