
<svg xmlns="http://www.w3.org/2000/svg" version="1.1" xmlns:xlink="http://www.w3.org/1999/xlink" preserveAspectRatio="none" x="0px" y="0px" width="72px" height="72px" viewBox="0 0 72 72">
<defs>
<g id="Layer0_0_MEMBER_0_MEMBER_0_FILL">
<path fill="#6D4C41" stroke="none" d="
M 106.75 47
Q 102.9 38.4 97.1 30.85 82.1 11.05 65.05 11.05 40.75 11.05 27.4 29.8 22.35 36.9 19.65 45.8 17.35 53.35 17.35 59.75
L 17.35 71.6
Q 17.9 71 18.95 70.2 19.65 69.65 20.5 69.2
L 21.25 68.85 23.05 80.8 34.8 56.25
Q 34.95 56 35.2 56
L 42.2 56.8
Q 64.65 59.3 87 56.65
L 92.15 56
Q 92.5 56 92.55 56.25
L 105.35 80.9 107.05 69.15 108.3 69.55
Q 109.45 70.1 110.5 71
L 110.7 59.75
Q 110.3 54.85 106.75 47 Z"/>
</g>

<g id="Layer0_0_MEMBER_0_MEMBER_1_MEMBER_0_FILL">
<path fill="#E59600" stroke="none" d="
M 105.55 68.3
L 102.05 68.3 102.05 87.85
Q 106.65 87.85 109.65 85.55 113.1 82.85 113.1 77.8 113.1 72.7 109.35 70
L 105.55 68.3 Z"/>
</g>

<g id="Layer0_0_MEMBER_0_MEMBER_1_MEMBER_1_FILL">
<path fill="#E59600" stroke="none" d="
M 26.2 68.3
L 22.75 68.3 18.95 70
Q 15.15 72.7 15.15 77.8 15.15 82.85 18.6 85.55 21.6 87.85 26.2 87.85
L 26.2 68.3 Z"/>
</g>

<g id="Layer0_0_MEMBER_0_MEMBER_2_FILL">
<path fill="#FCC21B" stroke="none" d="
M 105.4 75.75
Q 105.4 46.4 97.05 31.9 87.15 14.75 64.15 14.75 41.1 14.75 31.2 31.9 22.85 46.4 22.85 75.75 22.85 100.75 36.9 112.85 47.8 122.25 64.15 122.25 80.35 122.25 91.25 112.95 105.4 100.85 105.4 75.75 Z"/>
</g>

<g id="Layer0_0_MEMBER_0_MEMBER_3_FILL">
<path fill="#4C3734" stroke="none" d="
M 64.15 108.25
Q 68.8 108.25 72.7 106.15 75.75 104.55 77 102.65 77.65 101.65 77.3 101 77 100.35 75.95 100.35
L 52.3 100.35
Q 51.25 100.35 50.95 101 50.6 101.65 51.25 102.65 52.5 104.55 55.55 106.15 59.5 108.25 64.15 108.25 Z"/>
</g>

<g id="Layer0_0_MEMBER_0_MEMBER_4_FILL">
<path fill="#513F35" stroke="none" d="
M 64.15 108.25
Q 68.8 108.25 72.7 106.15 75.75 104.55 77 102.65 77.65 101.65 77.3 101 77 100.35 75.95 100.35
L 52.3 100.35
Q 51.25 100.35 50.95 101 50.6 101.65 51.25 102.65 52.5 104.55 55.55 106.15 59.5 108.25 64.15 108.25 Z"/>
</g>

<g id="Layer0_0_MEMBER_0_MEMBER_5_FILL">
<path fill="#E59600" stroke="none" d="
M 58.45 90.3
Q 57.8 90.15 57.55 90.6 57.3 91 57.55 91.45 58.2 92.55 59.8 93.55 61.9 94.8 64.15 94.8 66.4 94.8 68.5 93.55 70.1 92.55 70.75 91.45 71 91 70.75 90.6 70.45 90.15 69.85 90.3 67 91.15 64.15 91.15 61.3 91.15 58.45 90.3 Z"/>
</g>

<g id="Layer0_0_MEMBER_0_MEMBER_6_FILL">
<path fill="#444444" stroke="none" d="
M 50.7 78.1
Q 50.7 75.35 49.1 73.45 47.5 71.5 45.2 71.5 42.95 71.5 41.35 73.45 39.75 75.35 39.75 78.1 39.75 80.8 41.35 82.75 42.95 84.65 45.2 84.65 47.5 84.65 49.1 82.75 50.7 80.8 50.7 78.1 Z"/>
</g>

<g id="Layer0_0_MEMBER_0_MEMBER_7_FILL">
<path fill="#444444" stroke="none" d="
M 86.9 73.45
Q 85.3 71.5 83.05 71.5 80.75 71.5 79.15 73.45 77.55 75.35 77.55 78.1 77.55 80.8 79.15 82.75 80.75 84.65 83.05 84.65 85.3 84.65 86.9 82.75 88.5 80.8 88.5 78.1 88.5 75.35 86.9 73.45 Z"/>
</g>

<g id="Layer0_0_MEMBER_0_MEMBER_8_FILL">
<path fill="#FFA000" stroke="none" d="
M 52.05 31.75
L 59.3 43.95 60.15 37.65
Q 61.2 30.05 58.8 22.45 54.05 7.25 36.7 7.25 19.4 7.25 13.75 21.85 10.95 29.1 11.6 36.35
L 12.85 43.95 20.6 31.45
Q 31.75 32.3 43 32.1 48.65 32 52.05 31.75 Z"/>
</g>

<g id="Layer0_0_MEMBER_0_MEMBER_9_FILL">
<path fill="#E75625" stroke="none" d="
M 110.7 53.9
L 110.8 53.9
Q 110 38.3 100.25 25.4 87.45 8.45 64.85 8
L 63 8
Q 40.4 8.45 27.6 25.4 17.9 38.3 17.1 53.9
L 17.2 53.9
Q 63.9 46.95 110.7 53.9 Z"/>
</g>

<g id="Layer0_0_MEMBER_0_MEMBER_10_FILL">
<path fill="#8BC34A" stroke="none" d="
M 85.75 53.05
Q 85.45 41.8 82.6 30.55 76.85 8 63.95 8 51.05 8 45.3 30.55 42.45 41.8 42.15 53.05
L 48.65 52.25
Q 56.6 51.4 63.95 51.4 71.3 51.4 79.25 52.25 83.25 52.65 85.75 53.05 Z"/>
</g>

<g id="Layer0_0_MEMBER_0_MEMBER_11_FILL">
<path fill="#444444" stroke="none" d="
M 110.8 64.25
Q 112.1 64.6 112.95 63.95 113.85 63.25 113.8 61.95
L 113.7 57.25
Q 113.65 56 112.8 54.95 111.9 53.85 110.7 53.5 87.6 47.3 63.95 47.3 40.25 47.3 17.15 53.5 15.95 53.85 15.1 54.95 14.25 56 14.2 57.25
L 14.1 61.95
Q 14.05 63.25 14.95 63.95 15.8 64.6 17.05 64.25 40.05 58.05 63.95 58.05 87.8 58.05 110.8 64.25 Z"/>
</g>

<g id="Layer0_0_MEMBER_0_MEMBER_12_FILL">
<path fill="#444444" stroke="none" d="
M 113.8 62.1
L 110.55 63.8 110.5 68.5
Q 112.6 68 113.3 66.2 113.8 64.95 113.8 62.1 Z"/>
</g>

<g id="Layer0_0_MEMBER_0_MEMBER_13_FILL">
<path fill="#444444" stroke="none" d="
M 17.35 63.8
L 14.1 62.1
Q 14.1 64.95 14.6 66.2 15.3 68.05 17.35 68.5
L 17.35 63.8 Z"/>
</g>

<g id="Layer0_0_MEMBER_0_MEMBER_14_FILL">
<path fill="#FBB817" stroke="none" d="
M 63.95 26.7
Q 60.65 26.7 58.35 29 56 31.35 56 34.6 56 37.9 58.35 40.25 60.65 42.55 63.95 42.55 67.2 42.55 69.55 40.25 71.85 37.9 71.85 34.6 71.85 31.35 69.55 29 67.2 26.7 63.95 26.7 Z"/>
</g>
</defs>

<g id="Layer_1">
<g transform="matrix( 0.5625, 0, 0, 0.5625, 0,0) ">
<use xlink:href="#Layer0_0_MEMBER_0_MEMBER_0_FILL"/>
</g>

<g transform="matrix( 0.5624847412109375, 0, 0, 0.5624847412109375, 0,0) ">
<use xlink:href="#Layer0_0_MEMBER_0_MEMBER_1_MEMBER_0_FILL"/>
</g>

<g transform="matrix( 0.5624847412109375, 0, 0, 0.5624847412109375, 0,0) ">
<use xlink:href="#Layer0_0_MEMBER_0_MEMBER_1_MEMBER_1_FILL"/>
</g>

<g transform="matrix( 0.5625, 0, 0, 0.5625, 0,0) ">
<use xlink:href="#Layer0_0_MEMBER_0_MEMBER_2_FILL"/>
</g>

<g transform="matrix( 0.5625, 0, 0, 0.5625, 0,0) ">
<use xlink:href="#Layer0_0_MEMBER_0_MEMBER_3_FILL"/>
</g>

<g transform="matrix( 0.5625, 0, 0, 0.5625, 0,0) ">
<use xlink:href="#Layer0_0_MEMBER_0_MEMBER_4_FILL"/>
</g>

<g transform="matrix( 0.5625, 0, 0, 0.5625, 0,0) ">
<use xlink:href="#Layer0_0_MEMBER_0_MEMBER_5_FILL"/>
</g>

<g transform="matrix( 0.5625, 0, 0, 0.5625, 0,0) ">
<use xlink:href="#Layer0_0_MEMBER_0_MEMBER_6_FILL"/>
</g>

<g transform="matrix( 0.5625, 0, 0, 0.5625, 0,0) ">
<use xlink:href="#Layer0_0_MEMBER_0_MEMBER_7_FILL"/>
</g>

<g transform="matrix( 1, 0, 0, 1, 0,0) ">
<use xlink:href="#Layer0_0_MEMBER_0_MEMBER_8_FILL"/>
</g>

<g transform="matrix( 0.5625, 0, 0, 0.5625, 0,0) ">
<use xlink:href="#Layer0_0_MEMBER_0_MEMBER_9_FILL"/>
</g>

<g transform="matrix( 0.5625, 0, 0, 0.5625, 0,0) ">
<use xlink:href="#Layer0_0_MEMBER_0_MEMBER_10_FILL"/>
</g>

<g transform="matrix( 0.5625, 0, 0, 0.5625, 0,0) ">
<use xlink:href="#Layer0_0_MEMBER_0_MEMBER_11_FILL"/>
</g>

<g transform="matrix( 0.5625, 0, 0, 0.5625, 0,0) ">
<use xlink:href="#Layer0_0_MEMBER_0_MEMBER_12_FILL"/>
</g>

<g transform="matrix( 0.5625, 0, 0, 0.5625, 0,0) ">
<use xlink:href="#Layer0_0_MEMBER_0_MEMBER_13_FILL"/>
</g>

<g transform="matrix( 0.3560028076171875, 0, 0, 0.3560028076171875, 13.2,17.3) ">
<use xlink:href="#Layer0_0_MEMBER_0_MEMBER_14_FILL"/>
</g>
</g>
</svg>
