
<svg xmlns="http://www.w3.org/2000/svg" version="1.1" xmlns:xlink="http://www.w3.org/1999/xlink" preserveAspectRatio="none" x="0px" y="0px" width="72px" height="72px" viewBox="0 0 72 72">
<defs>
<g id="Layer0_0_MEMBER_0_MEMBER_0_MEMBER_0_FILL">
<path fill="#020202" stroke="none" d="
M 63 72
L 63 71.65
Q 63 59 45.4 55.7 45.25 55.7 45.05 55.65 47.35 57.2 49.65 60.05 51.15 61.9 52.05 63.45
L 48.4 66.2 52.7 69.05 51.45 72 63 72
M 21.75 60.05
Q 23.95 57.3 26.25 55.8 9 59.15 9 71.65
L 9 72 19.95 72 18.75 69.05 23.05 66.2 19.4 63.45
Q 20.3 61.9 21.75 60.05 Z"/>

<path fill="#FFFFFF" stroke="none" d="
M 29.8 56.4
L 28.55 57.8
Q 27.3 59.7 27.25 62.1 27.15 65.3 28.75 72
L 42.65 72
Q 44.3 65.3 44.2 62.1 44.15 59.7 42.9 57.8
L 41.65 56.4 35.7 55.25 29.8 56.4 Z"/>

<path fill="#444444" stroke="none" d="
M 39.1 54.35
Q 36.75 54.2 35.7 54.25 34.7 54.2 32.3 54.35 29.4 54.5 27.8 54.85 27.05 55.25 26.25 55.8 23.95 57.3 21.75 60.05 20.3 61.9 19.4 63.45
L 23.05 66.2 18.75 69.05 19.95 72 28.75 72
Q 27.15 65.3 27.25 62.1 27.3 59.7 28.55 57.8
L 29.8 56.4 35.7 55.25 41.65 56.4 42.9 57.8
Q 44.15 59.7 44.2 62.1 44.3 65.3 42.65 72
L 51.45 72 52.7 69.05 48.4 66.2 52.05 63.45
Q 51.15 61.9 49.65 60.05 47.35 57.2 45.05 55.65 44.35 55.15 43.6 54.85 42.05 54.5 39.1 54.35 Z"/>
</g>

<g id="Layer0_0_MEMBER_0_MEMBER_0_MEMBER_0_MEMBER_0_FILL">
<path fill="#E39700" stroke="none" d="
M 35.7 62.6
Q 38.25 62.6 39.95 60.8 41.65 59 41.65 56.4
L 41.65 51.15 29.8 51.15 29.8 56.4
Q 29.8 59 31.45 60.8 33.15 62.6 35.7 62.6 Z"/>
</g>

<g id="Layer0_0_MEMBER_0_MEMBER_0_MEMBER_0_MEMBER_1_MEMBER_0_MEMBER_0_FILL">
<path fill="#E59600" stroke="none" d="
M 106.9 66.05
L 103.3 66.05 103.3 86.35
Q 108.05 86.35 111.15 83.95 114.75 81.15 114.75 75.9 114.75 70.6 110.85 67.8
L 106.9 66.05 Z"/>
</g>

<g id="Layer0_0_MEMBER_0_MEMBER_0_MEMBER_0_MEMBER_1_MEMBER_0_MEMBER_1_FILL">
<path fill="#E59600" stroke="none" d="
M 24.7 66.05
L 21.05 66.05 17.15 67.8
Q 13.2 70.6 13.2 75.9 13.2 81.15 16.8 83.95 19.9 86.35 24.7 86.35
L 24.7 66.05 Z"/>
</g>

<g id="Layer0_0_MEMBER_0_MEMBER_0_MEMBER_0_MEMBER_1_MEMBER_1_FILL">
<path fill="#FCC21B" stroke="none" d="
M 106.75 73.8
Q 106.75 43.35 98.1 28.35 87.85 10.6 64 10.6 40.1 10.6 29.85 28.35 21.2 43.35 21.2 73.8 21.2 99.7 35.8 112.25 47.05 122 64 122 80.8 122 92.1 112.35 106.75 99.8 106.75 73.8 Z"/>
</g>

<g id="Layer0_0_MEMBER_0_MEMBER_0_MEMBER_0_MEMBER_1_MEMBER_2_FILL">
<path fill="#444444" stroke="none" d="
M 40.15 72.35
Q 38.45 74.35 38.45 77.2 38.45 80.1 40.15 82.1 41.8 84.1 44.2 84.1 46.55 84.1 48.25 82.1 49.9 80.05 49.9 77.2 49.9 74.35 48.25 72.35 46.55 70.3 44.2 70.3 41.8 70.3 40.15 72.35 Z"/>
</g>

<g id="Layer0_0_MEMBER_0_MEMBER_0_MEMBER_0_MEMBER_1_MEMBER_3_FILL">
<path fill="#444444" stroke="none" d="
M 87.85 72.35
Q 86.15 70.3 83.8 70.3 81.4 70.3 79.75 72.35 78.05 74.35 78.05 77.2 78.05 80.05 79.75 82.1 81.4 84.1 83.8 84.1 86.15 84.1 87.85 82.1 89.5 80.1 89.5 77.2 89.5 74.35 87.85 72.35 Z"/>
</g>

<g id="Layer0_0_MEMBER_0_MEMBER_0_MEMBER_0_MEMBER_1_MEMBER_4_FILL">
<path fill="#513F35" stroke="none" d="
M 63.95 108.75
Q 68.85 108.75 72.95 106.6 76.15 104.9 77.45 102.9 78.15 101.85 77.8 101.2 77.45 100.55 76.35 100.55
L 51.6 100.55
Q 50.5 100.55 50.15 101.2 49.8 101.85 50.5 102.9 51.8 104.9 55 106.6 59.1 108.75 63.95 108.75 Z"/>
</g>

<g id="Layer0_0_MEMBER_0_MEMBER_0_MEMBER_0_MEMBER_1_MEMBER_5_FILL">
<path fill="#E59600" stroke="none" d="
M 58 90
Q 57.35 89.85 57.1 90.3 56.8 90.7 57.05 91.2 57.75 92.35 59.45 93.4 61.65 94.75 64 94.75 66.35 94.75 68.5 93.4 70.2 92.35 70.9 91.2 71.15 90.7 70.9 90.3 70.6 89.85 69.95 90 66.8 90.9 64 90.9 61.15 90.9 58 90 Z"/>
</g>

<g id="Layer0_0_MEMBER_0_MEMBER_0_MEMBER_0_MEMBER_1_MEMBER_6_FILL">
<path fill="#FFA000" stroke="none" d="
M 57.2 19.2
Q 56.85 14.4 52.8 10.8 47.2 5.95 36.4 5.75
L 35.6 5.75
Q 24.75 5.95 19.2 10.8 15.1 14.4 14.85 19.2 14.8 19.55 14.8 19.85
L 14.8 31.1
Q 15.05 30.9 15.55 30.55 15.85 30.25 16.25 30.05
L 16.6 29.9 17.4 35.3
Q 21.85 28.35 23.1 20.75 26.6 23.1 29.55 24.05 32.45 25.05 35.6 25
L 36.4 25
Q 41.6 24.95 45.95 24.45
L 49.1 24.1
Q 49.2 24.1 49.25 24.2
L 54.6 35.3 55.4 29.9 55.75 30.05
Q 56.15 30.25 56.45 30.5 56.95 30.9 57.2 31.1
L 57.2 19.85
Q 57.2 19.55 57.2 19.2 Z"/>
</g>

<g id="Layer0_0_MEMBER_0_MEMBER_0_MEMBER_1_MEMBER_0_MEMBER_0_MEMBER_0_FILL">
<path fill="#000000" stroke="none" d="
M 75.95 110.55
Q 76.1 107.85 76.05 106.9 75.95 105.25 74.95 104.85 73.7 104.4 72.15 105.05 71.4 105.3 69.85 106.3 68.35 107.25 65.35 109.1 64.6 109.5 64.5 110.6 64.35 111.65 64.8 112.35 65.45 113.35 69.45 115 70.4 115.4 72.4 116.3 74.15 116.9 75.25 116.4 76.05 116.05 76.1 114.55 75.95 112.25 75.95 110.55 Z"/>
</g>

<g id="Layer0_0_MEMBER_0_MEMBER_0_MEMBER_1_MEMBER_0_MEMBER_0_MEMBER_1_FILL">
<path fill="#444444" stroke="none" d="
M 73.25 108.85
Q 73.25 108.65 72.1 108.75 70.9 108.85 69.35 109.2 65.45 110 65.55 110.4 65.65 110.85 69.45 110.05 73.35 109.25 73.25 108.85 Z"/>
</g>

<g id="Layer0_0_MEMBER_0_MEMBER_0_MEMBER_1_MEMBER_0_MEMBER_0_MEMBER_2_FILL">
<path fill="#444444" stroke="none" d="
M 73.3 112.8
Q 73.3 112.4 69.45 111.85 67.85 111.6 66.7 111.55 65.55 111.5 65.55 111.7 65.45 112.15 69.35 112.7 73.2 113.25 73.3 112.8 Z"/>
</g>

<g id="Layer0_0_MEMBER_0_MEMBER_0_MEMBER_1_MEMBER_0_MEMBER_1_MEMBER_0_FILL">
<path fill="#000000" stroke="none" d="
M 62.5 110.6
Q 62.35 109.5 61.6 109.1 58.6 107.25 57.1 106.3 55.55 105.3 54.8 105.05 53.25 104.4 52 104.85 51 105.25 50.9 106.9 50.85 107.85 51 110.55 51 112.25 50.85 114.55 50.9 116.05 51.7 116.4 52.8 116.9 54.55 116.3 55.55 115.95 57.55 115 61.55 113.3 62.2 112.35 62.6 111.65 62.5 110.6 Z"/>
</g>

<g id="Layer0_0_MEMBER_0_MEMBER_0_MEMBER_1_MEMBER_0_MEMBER_1_MEMBER_1_FILL">
<path fill="#444444" stroke="none" d="
M 57.6 109.2
Q 53.8 108.4 53.7 108.85 53.6 109.25 57.5 110.05 61.3 110.85 61.4 110.4 61.5 110 57.6 109.2 Z"/>
</g>

<g id="Layer0_0_MEMBER_0_MEMBER_0_MEMBER_1_MEMBER_0_MEMBER_1_MEMBER_2_FILL">
<path fill="#444444" stroke="none" d="
M 57.5 111.85
Q 53.65 112.4 53.65 112.8 53.75 113.25 57.6 112.7 61.45 112.15 61.45 111.7 61.4 111.5 60.25 111.55 59.1 111.6 57.5 111.85 Z"/>
</g>

<g id="Layer0_0_MEMBER_0_MEMBER_0_MEMBER_1_MEMBER_1_FILL">
<path fill="#000000" stroke="none" d="
M 66.9 111.15
Q 66.9 109.55 66.1 108.65 65.25 107.6 63.5 107.65 60.05 107.65 60.05 111.15 60.05 112.55 61.05 113.4 62 114.2 63.5 114.2 64.95 114.2 65.9 113.4 66.9 112.55 66.9 111.15 Z"/>
</g>

<g id="Layer0_0_MEMBER_0_MEMBER_1_FILL">
<path fill="#444444" stroke="none" d="
M 63.5 117.25
Q 62.85 117.25 62.35 117.75 61.9 118.2 61.9 118.85 61.9 119.55 62.35 120 62.85 120.45 63.5 120.45 64.15 120.45 64.6 120 65.05 119.5 65.05 118.85 65.05 118.2 64.6 117.75 64.15 117.25 63.5 117.25 Z"/>
</g>

<g id="Layer0_0_MEMBER_0_MEMBER_2_FILL">
<path fill="#444444" stroke="none" d="
M 63.5 122.75
Q 62.85 122.75 62.35 123.2 61.9 123.7 61.9 124.35 61.9 125 62.35 125.45 62.85 125.9 63.5 125.9 64.15 125.9 64.6 125.45 65.05 125 65.05 124.35 65.05 123.7 64.6 123.2 64.15 122.75 63.5 122.75 Z"/>
</g>
</defs>

<g id="Layer_1">
<g transform="matrix( 1, 0, 0, 1, 0,0) ">
<use xlink:href="#Layer0_0_MEMBER_0_MEMBER_0_MEMBER_0_FILL"/>
</g>

<g transform="matrix( 1, 0, 0, 1, 0,0) ">
<use xlink:href="#Layer0_0_MEMBER_0_MEMBER_0_MEMBER_0_MEMBER_0_FILL"/>
</g>

<g transform="matrix( 0.43609619140625, 0, 0, 0.43585205078125, 8.05,0.8) ">
<use xlink:href="#Layer0_0_MEMBER_0_MEMBER_0_MEMBER_0_MEMBER_1_MEMBER_0_MEMBER_0_FILL"/>
</g>

<g transform="matrix( 0.43609619140625, 0, 0, 0.43585205078125, 8.05,0.8) ">
<use xlink:href="#Layer0_0_MEMBER_0_MEMBER_0_MEMBER_0_MEMBER_1_MEMBER_0_MEMBER_1_FILL"/>
</g>

<g transform="matrix( 0.4362030029296875, 0, 0, 0.435943603515625, 8.05,1.15) ">
<use xlink:href="#Layer0_0_MEMBER_0_MEMBER_0_MEMBER_0_MEMBER_1_MEMBER_1_FILL"/>
</g>

<g transform="matrix( 0.4362030029296875, 0, 0, 0.435943603515625, 8.05,1.15) ">
<use xlink:href="#Layer0_0_MEMBER_0_MEMBER_0_MEMBER_0_MEMBER_1_MEMBER_2_FILL"/>
</g>

<g transform="matrix( 0.4362030029296875, 0, 0, 0.435943603515625, 8.05,1.15) ">
<use xlink:href="#Layer0_0_MEMBER_0_MEMBER_0_MEMBER_0_MEMBER_1_MEMBER_3_FILL"/>
</g>

<g transform="matrix( 0.4362030029296875, 0, 0, 0.435943603515625, 8.05,1.15) ">
<use xlink:href="#Layer0_0_MEMBER_0_MEMBER_0_MEMBER_0_MEMBER_1_MEMBER_4_FILL"/>
</g>

<g transform="matrix( 0.4362030029296875, 0, 0, 0.435943603515625, 8.05,1.15) ">
<use xlink:href="#Layer0_0_MEMBER_0_MEMBER_0_MEMBER_0_MEMBER_1_MEMBER_5_FILL"/>
</g>

<g transform="matrix( 1, 0, 0, 1, 0,0) ">
<use xlink:href="#Layer0_0_MEMBER_0_MEMBER_0_MEMBER_0_MEMBER_1_MEMBER_6_FILL"/>
</g>

<g transform="matrix( 0.562469482421875, 0, 0, 0.562469482421875, 0,0.1) ">
<use xlink:href="#Layer0_0_MEMBER_0_MEMBER_0_MEMBER_1_MEMBER_0_MEMBER_0_MEMBER_0_FILL"/>
</g>

<g transform="matrix( 0.562469482421875, 0, 0, 0.562469482421875, 0,0.1) ">
<use xlink:href="#Layer0_0_MEMBER_0_MEMBER_0_MEMBER_1_MEMBER_0_MEMBER_0_MEMBER_1_FILL"/>
</g>

<g transform="matrix( 0.562469482421875, 0, 0, 0.562469482421875, 0,0.1) ">
<use xlink:href="#Layer0_0_MEMBER_0_MEMBER_0_MEMBER_1_MEMBER_0_MEMBER_0_MEMBER_2_FILL"/>
</g>

<g transform="matrix( 0.562469482421875, 0, 0, 0.562469482421875, 0,0.1) ">
<use xlink:href="#Layer0_0_MEMBER_0_MEMBER_0_MEMBER_1_MEMBER_0_MEMBER_1_MEMBER_0_FILL"/>
</g>

<g transform="matrix( 0.562469482421875, 0, 0, 0.562469482421875, 0,0.1) ">
<use xlink:href="#Layer0_0_MEMBER_0_MEMBER_0_MEMBER_1_MEMBER_0_MEMBER_1_MEMBER_1_FILL"/>
</g>

<g transform="matrix( 0.562469482421875, 0, 0, 0.562469482421875, 0,0.1) ">
<use xlink:href="#Layer0_0_MEMBER_0_MEMBER_0_MEMBER_1_MEMBER_0_MEMBER_1_MEMBER_2_FILL"/>
</g>

<g transform="matrix( 0.5625, 0, 0, 0.5625, 0,0.1) ">
<use xlink:href="#Layer0_0_MEMBER_0_MEMBER_0_MEMBER_1_MEMBER_1_FILL"/>
</g>

<g transform="matrix( 0.5625, 0, 0, 0.5625, 0,0) ">
<use xlink:href="#Layer0_0_MEMBER_0_MEMBER_1_FILL"/>
</g>

<g transform="matrix( 0.5625, 0, 0, 0.5625, 0,0) ">
<use xlink:href="#Layer0_0_MEMBER_0_MEMBER_2_FILL"/>
</g>
</g>
</svg>
