
<svg xmlns="http://www.w3.org/2000/svg" version="1.1" xmlns:xlink="http://www.w3.org/1999/xlink" preserveAspectRatio="none" x="0px" y="0px" width="72px" height="72px" viewBox="0 0 72 72">
<defs>
<g id="Layer0_0_MEMBER_0_FILL">
<path fill="#F9C035" stroke="none" d="
M 57.5 44.15
Q 52.9 40.3 48.95 42.95 45.95 22.5 45.6 3.75
L 26.45 3.75
Q 26.1 22.5 23.1 42.95 19.15 40.3 14.55 44.15 10.1 48 9.15 57.45 8.55 64.1 15.55 65.35 17.65 65.7 21.4 65.65 25.35 65.55 26.25 65.7 29.3 66.1 31.35 67.45 32.9 68.45 36.05 68.5 39.15 68.45 40.7 67.45 42.75 66.1 45.8 65.7 46.7 65.55 50.65 65.65 54.4 65.7 56.5 65.35 63.5 64.1 62.9 57.45 61.95 48 57.5 44.15 Z"/>
</g>

<g id="Layer0_0_MEMBER_1_MEMBER_0_FILL">
<path fill="#E28C25" stroke="none" d="
M 45.4 107.9
Q 53.4 109.25 54.6 109.1 58.9 108.6 53.9 102.25 48.35 95.3 41.2 98.55 38.95 99.55 36.85 101.5 35.75 102.45 35.15 103.2 34.05 106.3 34.2 107.3 34.3 108.2 35.7 108.1 36.55 108.05 39.45 107.65 42.55 107.4 45.4 107.9 Z"/>
</g>

<g id="Layer0_0_MEMBER_1_MEMBER_1_FILL">
<path fill="#E28C25" stroke="none" d="
M 52.85 60.35
Q 52.95 59.8 52.3 58.05 50.95 56.35 48.9 55.45 44.9 53.6 41.75 57.5 38.95 61.1 41.4 61.35 42.1 61.45 46.55 60.7 48.15 60.4 49.9 60.55 50.8 60.65 52 60.8 52.8 60.85 52.85 60.35 Z"/>
</g>
</defs>

<g id="Layer_1">
<g transform="matrix( 1, 0, 0, 1, 0,-0.1) ">
<use xlink:href="#Layer0_0_MEMBER_0_FILL"/>
</g>

<g transform="matrix( 0.6706695556640625, 0.0586395263671875, -0.0586395263671875, 0.6706695556640625, -6.15,-13.15) ">
<use xlink:href="#Layer0_0_MEMBER_1_MEMBER_0_FILL"/>
</g>

<g transform="matrix( 1.192352294921875, -0.10430908203125, 0.10430908203125, 1.192352294921875, -7.6,-5.65) ">
<use xlink:href="#Layer0_0_MEMBER_1_MEMBER_1_FILL"/>
</g>
</g>
</svg>
