
<svg xmlns="http://www.w3.org/2000/svg" version="1.1" xmlns:xlink="http://www.w3.org/1999/xlink" preserveAspectRatio="none" x="0px" y="0px" width="72px" height="72px" viewBox="0 0 72 72">
<defs>
<g id="Layer0_0_MEMBER_0_FILL">
<path fill="#F9C035" stroke="none" d="
M 105 48.6
Q 106.4 29.75 93.7 17.25 81.75 5.5 62.8 4.15 44.75 2.85 33.6 14.9 22.55 26.8 22.85 46.55 22.95 53 25.3 57.9 26.9 61.3 30.6 65.55 35.2 70.8 36.45 72.7 39.5 77.25 40.6 82.7 40.9 84.2 39.5 91.55 37.7 100.95 37.3 105.4 35.45 123.85 45.95 124 74.85 124.45 82.65 109.8 84.9 105.65 86.7 96.85 88.5 88.25 90.35 84.95 99 69.7 99.65 68.3 104.3 58.5 105 48.6 Z"/>
</g>

<g id="Layer0_0_MEMBER_1_FILL">
<path fill="#E28C25" stroke="none" d="
M 96.9 47.35
Q 97.9 33.2 88.4 23.85 79.45 15 65.2 14 56.9 13.4 49.2 18.25 41.9 22.85 37.1 30.95 36.65 31.75 37.4 32.25 38.15 32.8 38.75 32.1 43.95 26.1 50.75 22.9 57.75 19.6 64.6 20.1 77.65 21.05 84.65 27.85 92.2 35.15 91.25 48.1 90.75 54.8 87.3 61.75 85.3 65.8 80.6 73.4 79.25 75.75 78.5 85.25 77.65 95.75 75.7 101.1 75.4 101.95 76.25 102.35 77.05 102.75 77.5 101.95 80.55 96.8 82.55 86.95 84.55 77 85.9 74.6 92.35 63.25 92.9 62.1 96.35 54.8 96.9 47.35 Z"/>
</g>

<g id="Layer0_0_MEMBER_2_FILL">
<path fill="#E28C25" stroke="none" d="
M 58.85 65.45
Q 56.65 56.85 49.65 54.15 42.5 51.35 39.7 58.65 37.45 64.55 42.7 68.05 44.1 69 46.95 70.45 49.15 71.75 49.55 72.9 50.55 75.95 49.4 86.15 49.3 86.9 50 87.2 50.65 87.5 51.15 86.95 55 82.3 57.1 77.7 60.25 70.9 58.85 65.45 Z"/>
</g>

<g id="Layer0_0_MEMBER_3_FILL">
<path fill="#E28C25" stroke="none" d="
M 52.75 39.6
Q 52.45 40.5 53.25 40.85 60.75 44.05 65.25 48.85 71.1 55.1 71.1 63.5 71.1 64.45 72 64.5 72.9 64.55 73.1 63.65 74.65 55.25 71.1 49.35 66.55 41.8 53.9 38.95 53.05 38.75 52.75 39.6 Z"/>
</g>
</defs>

<g id="Layer_1">
<g transform="matrix( 0.5625, 0, 0, 0.5625, 0,0) ">
<use xlink:href="#Layer0_0_MEMBER_0_FILL"/>
</g>

<g transform="matrix( 0.5625, 0, 0, 0.5625, 0,0) ">
<use xlink:href="#Layer0_0_MEMBER_1_FILL"/>
</g>

<g transform="matrix( 0.5625, 0, 0, 0.5625, 0,0) ">
<use xlink:href="#Layer0_0_MEMBER_2_FILL"/>
</g>

<g transform="matrix( 0.5625, 0, 0, 0.5625, 0,0) ">
<use xlink:href="#Layer0_0_MEMBER_3_FILL"/>
</g>
</g>
</svg>
