
<svg xmlns="http://www.w3.org/2000/svg" version="1.1" xmlns:xlink="http://www.w3.org/1999/xlink" preserveAspectRatio="none" x="0px" y="0px" width="72px" height="72px" viewBox="0 0 72 72">
<defs>
<g id="Layer0_0_FILL">
<path fill="#D65770" stroke="none" d="
M 29.75 55.55
Q 29.55 55.65 29.35 55.75 31.12421875 57.7638671875 35.8 59.25 40.3 66.3 49.3 65.3 56.2080078125 64.553125 59.1 58.8 60.118359375 56.869140625 60.65 54.35 57.4 54.1 55.7 52.6 50.1 52.3 44.85 50.5 36.4 55 29.75 55.55 Z"/>

<path fill="#FFB0B0" stroke="none" d="
M 55 11.4
Q 50.45 6.95 44.05 8.65 36.75 4.65 26.35 8.65 22.5 8.15 20.8 9.95 15.45 10.15 10.1 14.8 7.2 15.7 5.85 19.55 4.1 20.65 3.1 25.1 1.5 26.6 1.45 30.3 -0.2 38.25 3.1 41.85 4.8 46.8 10.9 47.05 12.3 48.95 14.65 49.05 15.2 52.1 17.25 54 23.15 58.5 29.35 55.75 29.55 55.65 29.75 55.55 36.4 55 44.85 50.5 50.1 52.3 55.7 52.6 57.4 54.1 60.65 54.35 64.15 55.95 65.75 52.15 67.6 50.45 68.65 48.45 70.15 45.35 69.75 41.6 72.6 34.4 69.75 30.85 70.4 28.2 68.45 26.95 67.75 20.8 62 18 60.2 13.35 55 11.4
M 53.6 18.7
L 54.65 15.8 53.6 18.7
Q 58.3 19.35 58.45 25.8 58.3 19.35 53.6 18.7 51.9 18.45 49.55 19 51.9 18.45 53.6 18.7
M 40.6 24.2
Q 40.75 14.8 47.2 11.65 40.75 14.8 40.6 24.2
M 56.75 37.95
Q 56 36.4 56.75 34.4 56 36.4 56.75 37.95 59.15 38.25 61.15 42.05 62.35 44.3 62.25 48.45 62.35 44.3 61.15 42.05 59.15 38.25 56.75 37.95 52.25 38.75 51.15 42.4 46.1 39.25 43.2 39.95 42.1 42.45 39.8 42.8 37.4 43.1 36.5 41.35 34.7 43.4 32.15 44.55 29.05 45.95 25 43.7 23.7 46.2 20.2 46.9 23.7 46.2 25 43.7 29.05 45.95 32.15 44.55 34.7 43.4 36.5 41.35 37.4 43.1 39.8 42.8 42.1 42.45 43.2 39.95 46.1 39.25 51.15 42.4 52.25 38.75 56.75 37.95
M 48.6 32.45
Q 49.5 28.55 53.85 27.75 60.55 26.65 64.15 31.35 66.5 34.6 66 40.3 65.85 42 66.95 43.25 65.85 42 66 40.3 66.5 34.6 64.15 31.35 60.55 26.65 53.85 27.75 49.5 28.55 48.6 32.45 43.5 30.75 39.25 32.7 36.45 33.95 29.9 37.85 29.35 36.2 26.2 36.4 21.85 36.75 18.75 39.65 17.35 41.1 16.4 43 17.35 41.1 18.75 39.65 21.85 36.75 26.2 36.4 29.35 36.2 29.9 37.85 36.45 33.95 39.25 32.7 43.5 30.75 48.6 32.45
M 23.15 17
Q 27.3 9.5 35.55 11.95 27.3 9.5 23.15 17 19 11.75 13.6 15.5 19 11.75 23.15 17
M 7.05 41.15
Q 8.8 45.7 13.25 44.85 8.8 45.7 7.05 41.15
M 8.4 28.65
Q 8.2 22.5 11.4 16.65 8.2 22.5 8.4 28.65
M 17.45 36.95
Q 12.65 32.75 15.75 19.3 12.65 32.75 17.45 36.95
M 27.35 17.8
Q 23.95 28.7 26.35 34.15 23.95 28.7 27.35 17.8
M 35.5 13.75
Q 32.25 21.85 32.65 27.5 32.25 21.85 35.5 13.75
M 26.25 50.55
Q 29.65 49.45 32.5 50.2 34.35 49.1 36.5 47.95 39 48.3 40.6 49.25 39 48.3 36.5 47.95 34.35 49.1 32.5 50.2 29.65 49.45 26.25 50.55 Z"/>
</g>

<g id="Layer0_1_FILL">
<path fill="#F46485" stroke="none" d="
M 8.95 69.4
Q 15.85 68.65 18.8 62.95 10.5 60.5 5.1 62.05 -0.35 63.6 -4.55 63.35 -0.05 70.4 8.95 69.4 Z"/>
</g>

<path id="Layer0_0_1_STROKES" stroke="#F48F9D" stroke-width="1.5" stroke-linejoin="round" stroke-linecap="round" fill="none" d="
M 49.55 19
Q 51.9 18.45 53.6 18.7
L 54.65 15.8
M 40.6 24.2
Q 40.75 14.8 47.2 11.65
M 20.2 46.9
Q 23.7 46.2 25 43.7 29.05 45.95 32.15 44.55 34.7 43.4 36.5 41.35 37.4 43.1 39.8 42.8 42.1 42.45 43.2 39.95 46.1 39.25 51.15 42.4 52.25 38.75 56.75 37.95 56 36.4 56.75 34.4
M 16.4 43
Q 17.35 41.1 18.75 39.65 21.85 36.75 26.2 36.4 29.35 36.2 29.9 37.85 36.45 33.95 39.25 32.7 43.5 30.75 48.6 32.45 49.5 28.55 53.85 27.75 60.55 26.65 64.15 31.35 66.5 34.6 66 40.3 65.85 42 66.95 43.25
M 56.75 37.95
Q 59.15 38.25 61.15 42.05 62.35 44.3 62.25 48.45
M 53.6 18.7
Q 58.3 19.35 58.45 25.8
M 13.6 15.5
Q 19 11.75 23.15 17 27.3 9.5 35.55 11.95
M 7.05 41.15
Q 8.8 45.7 13.25 44.85
M 8.4 28.65
Q 8.2 22.5 11.4 16.65
M 17.45 36.95
Q 12.65 32.75 15.75 19.3
M 27.35 17.8
Q 23.95 28.7 26.35 34.15
M 35.5 13.75
Q 32.25 21.85 32.65 27.5
M 26.25 50.55
Q 29.65 49.45 32.5 50.2 34.35 49.1 36.5 47.95 39 48.3 40.6 49.25"/>
</defs>

<g id="Camada_2">
<g transform="matrix( 1, 0, 0, 1, 0,0) ">
<use xlink:href="#Layer0_0_FILL"/>

<use xlink:href="#Layer0_0_1_STROKES"/>
</g>

<g transform="matrix( 1, 0, 0, 1, 40.35,-4.1) ">
<use xlink:href="#Layer0_1_FILL"/>
</g>
</g>
</svg>
