<svg xmlns="http://www.w3.org/2000/svg" xmlns:xlink="http://www.w3.org/1999/xlink" preserveAspectRatio="none" viewBox="0 0 72 72"><defs><path fill="#007DB6" d="M72 6.75Q72 4 70 2t-4.75-2H6.75Q3.95 0 2 2 0 4 0 6.75v58.5q0 2.8 2 4.8Q3.95 72 6.75 72h58.5Q68 72 70 70.05q2-2 2-4.8V6.75z" id="a"/><path fill="#004D80" d="M72 6.75q0-2.8-2-4.75L1.95 70.05Q3.9 72 6.75 72h58.5Q68 72 70 70.05q2-2 2-4.8V6.75z" id="b"/><path fill="#006CA2" d="M63 16.25q0-2.8-1.95-4.75-2-2-4.8-2h-40.6q-2.75 0-4.75 2-2 1.95-2 4.75V56.8q0 2.8 2 4.8 2 1.95 4.75 1.95h40.6q2.8 0 4.8-1.95 1.95-2 1.95-4.8V16.25z" id="c"/><path fill="#FFFFFF" d="M101 43.35q-.35-.35-.75-.35H90.3l1.85-12.9q.1-.5-.25-.85-.3-.4-.8-.4H75.85q-.9-.1-1.1.9l-1.85 13.2-12.2-.05L62.55 30q.1-.45-.25-.85-.35-.35-.8-.35l-15.25-.05q-.95 0-1.05.95l-1.95 13.2-10.3-.05q-.45 0-.75.35-.3.3-.3.75l-.05 12.25q0 .45.35.8.3.3.75.3h8.25l-1.95 13.55H27.8q-.45 0-.75.3t-.3.75l-.05 12.25q0 .45.3.8.3.3.75.3h9.4L35 100.05q-.05.55.25.85.3.4.8.4l15.25.05q.95 0 1.1-.95l2.15-15.1h12.2l-2.1 14.85q-.1.5.25.85.3.35.8.35l15.25.05q.95 0 1.05-.95l2.2-15.1 10.85.05q.45 0 .8-.3.3-.35.3-.8V72.05q0-.45-.3-.75-.35-.35-.75-.35h-8.85L88.2 57.4h12q.45 0 .75-.3t.3-.75l.05-12.25q0-.45-.3-.75m-42.4 14h12.2L68.85 70.9h-12.2l1.95-13.55z" id="d"/></defs><use xlink:href="#a"/><use xlink:href="#b"/><use xlink:href="#c"/><g transform="matrix(.54424 0 0 .54439 1.15 .6)"><use xlink:href="#d"/></g></svg>