<svg xmlns="http://www.w3.org/2000/svg" xmlns:xlink="http://www.w3.org/1999/xlink" preserveAspectRatio="none" viewBox="0 0 72 72"><defs><path fill="#007DB6" d="M72 6.75Q72 4 70 2t-4.75-2H6.75Q3.95 0 2 2 0 4 0 6.75v58.5q0 2.8 2 4.8Q3.95 72 6.75 72h58.5Q68 72 70 70.05q2-2 2-4.8V6.75z" id="a"/><path fill="#004D80" d="M72 6.75q0-2.8-2-4.75L1.95 70.05Q3.9 72 6.75 72h58.5Q68 72 70 70.05q2-2 2-4.8V6.75z" id="b"/><path fill="#006CA2" d="M63 16.25q0-2.8-1.95-4.75-2-2-4.8-2h-40.6q-2.75 0-4.75 2-2 1.95-2 4.75V56.8q0 2.8 2 4.8 2 1.95 4.75 1.95h40.6q2.8 0 4.8-1.95 1.95-2 1.95-4.8V16.25z" id="c"/><path fill="#FFFFFF" d="M84.95 41.8l-1.9 1.25-16.3 12.85q3.85-17.15 5-20.65.6-1.95-.25-3.45-.95-1.55-3-1.95-2-.35-5.3-.45-3.95-.05-6.6.45-2.45.55-2.65 3.2-.05 1.35.35 2.6l4.75 20.25-15.3-12.4q-1.05-1.05-2.45-1.7-2.75-1.3-4.3.65-1.65 2.1-3.4 5.65-1.45 3.05-2 4.95-.55 2 .4 3.4.95 1.3 2.95 1.9 1.9.6 10.25 2.95 8.75 2.4 11.3 3.05L36.4 70.6l-2.6 1.2q-2.45 1.65-1.65 4.05.85 2.5 2.95 5.9 1.65 2.7 3.05 4.35 1.4 1.6 3.2 1.6 1.75-.05 3.1-1.55 1-1.1 5.6-5.7 4.8-4.85 8-7.9-4.25 18.45-4.45 19-.6 1.95.25 3.45.9 1.55 3 1.95 2.05.4 5.3.45 3.95.1 6.6-.45 2.45-.5 2.65-3.1l-.3-2.55-4.4-18.7q2.2 2.05 8.5 7.95 5.45 5.05 6.25 5.95 1.35 1.5 3.1 1.55 1.8 0 3.2-1.6 1.35-1.45 3.1-4.35 2.05-3.35 2.9-5.9.85-2.4-1.7-4l-2.75-1.15-20.05-6.7Q77 62 90.4 58.35q2.2-.6 3-1.5 1-1.1.55-3-.4-1.8-2.1-5.3-1.85-3.9-3.5-6.1-1.25-1.6-3.4-.65z" id="d"/></defs><use xlink:href="#a"/><use xlink:href="#b"/><use xlink:href="#c"/><g transform="matrix(.59729 0 0 .59706 -1.45 -1.85)"><use xlink:href="#d"/></g></svg>