<svg xmlns="http://www.w3.org/2000/svg" xmlns:xlink="http://www.w3.org/1999/xlink" preserveAspectRatio="none" viewBox="0 0 72 72"><defs><path fill="#EF5250" d="M72 6.75Q72 4 70 2t-4.75-2H6.75Q3.95 0 2 2 0 4 0 6.75v58.5q0 2.8 2 4.8Q3.95 72 6.75 72h58.5Q68 72 70 70.05q2-2 2-4.8V6.75z" id="a"/><path fill="#C62728" d="M72 6.75q0-2.8-2-4.75L1.95 70.05Q3.9 72 6.75 72h58.5Q68 72 70 70.05q2-2 2-4.8V6.75z" id="b"/><path fill="#E53835" d="M63 16.25q0-2.8-1.95-4.75-2-2-4.8-2h-40.6q-2.75 0-4.75 2-2 1.95-2 4.75V56.8q0 2.8 2 4.8 2 1.95 4.75 1.95h40.6q2.8 0 4.8-1.95 1.95-2 1.95-4.8V16.25z" id="c"/><path fill="#FFFFFF" d="M-117.2-6.9q-1.45 0-1.95 1.3l-34.25 91.1q-.35 1.05.25 1.9.6.85 1.7.85H-129q1.45 0 1.95-1.4l5.15-15.65h30.65l5.2 15.65q.4 1.4 1.95 1.4h22.45q1.1 0 1.65-.85.65-.9.25-1.9L-94-5.6q-.5-1.3-1.9-1.3h-21.3m19.55 58.75h-17.8l8.85-26.8 8.95 26.8z" id="d"/></defs><use xlink:href="#a"/><use xlink:href="#b"/><use xlink:href="#c"/><g transform="matrix(.4268 0 0 .4267 81.45 18.65)"><use xlink:href="#d"/></g></svg>