<svg xmlns="http://www.w3.org/2000/svg" xmlns:xlink="http://www.w3.org/1999/xlink" preserveAspectRatio="none" viewBox="0 0 72 72"><defs><path fill="#EF5250" d="M72 6.75Q72 4 70 2t-4.75-2H6.75Q3.95 0 2 2 0 4 0 6.75v58.5q0 2.8 2 4.8Q3.95 72 6.75 72h58.5Q68 72 70 70.05q2-2 2-4.8V6.75z" id="a"/><path fill="#C62728" d="M72 6.75q0-2.8-2-4.75L1.95 70.05Q3.9 72 6.75 72h58.5Q68 72 70 70.05q2-2 2-4.8V6.75z" id="b"/><path fill="#E53835" d="M63 16.25q0-2.8-1.95-4.75-2-2-4.8-2h-40.6q-2.75 0-4.75 2-2 1.95-2 4.75V56.8q0 2.8 2 4.8 2 1.95 4.75 1.95h40.6q2.8 0 4.8-1.95 1.95-2 1.95-4.8V16.25z" id="c"/><path fill="#FFFFFF" d="M97.55 43.35q0-11.35-8.95-19.4-8.9-8.05-21.55-8.05h-34.5q-.85 0-1.45.6t-.6 1.45v92q0 .85.6 1.45t1.45.6H71.4q12.6 0 21.55-8.05 8.95-8.05 8.95-19.4 0-6.75-3.5-12.7-3.35-5.75-9.2-9.6 3.95-3.8 6.1-8.55 2.25-5 2.25-10.35m-25.35-6.2Q74.9 40 74.9 44q0 4-2.7 6.9-2.75 2.85-6.55 2.85H52.9q-.3 0-.4-.3l-.05-.2v-18.5l.05-.15q.1-.3.4-.3h12.75q3.85 0 6.55 2.85m-5.8 34.6l.4.05q4.15.2 7.05 3.45 2.9 3.25 2.9 7.75-.05 4.55-2.95 7.8-2.85 3.25-7 3.4l-.4.05H53l-.1-.05q-.4-.1-.4-.4V72.25q0-.35.4-.45l.1-.05h13.4z" id="d"/><path fill="#FFFFFF" d="M-117.2-6.9q-1.45 0-1.95 1.3l-34.25 91.1q-.35 1.05.25 1.9.6.85 1.7.85H-129q1.45 0 1.95-1.4l5.15-15.65h30.65l5.2 15.65q.4 1.4 1.95 1.4h22.45q1.1 0 1.65-.85.65-.9.25-1.9L-94-5.6q-.5-1.3-1.9-1.3h-21.3m19.55 58.75h-17.8l8.85-26.8 8.95 26.8z" id="e"/></defs><use xlink:href="#a"/><use xlink:href="#b"/><use xlink:href="#c"/><g transform="matrix(.27792 0 0 .27672 31.6 18.3)"><use xlink:href="#d"/></g><g transform="matrix(.28093 0 0 .27948 55.25 24.65)"><use xlink:href="#e"/></g></svg>