<svg xmlns="http://www.w3.org/2000/svg" xmlns:xlink="http://www.w3.org/1999/xlink" preserveAspectRatio="none" viewBox="0 0 72 72"><defs><path fill="#BE2006" d="M81.25 18.75Q91.3 26.55 96.5 34.5q2.4 3.65 4.05 7.1 1.3 2.85 2.65 6.75 2.25 6.55 3.35 13.85.5 3.65.6 5.95h8.35q.35-5.55-.85-13.65-2.45-16.15-10.35-28.65Q95.9 12.5 77.35 7.9q-5.8-1.45-11.9-1.85l-4.95-.1q11.35 5.5 20.75 12.8z" id="a"/><path fill="#CFD8DC" d="M111.35 65.95q-4.45 0-7.65 3.15-3.15 3.2-3.15 7.65t3.15 7.65q3.2 3.15 7.65 3.15T119 84.4q3.15-3.2 3.15-7.65T119 69.1q-3.2-3.15-7.65-3.15z" id="b"/><path fill="#99674F" d="M98.95 62.8H95.5v19.55q4.6 0 7.6-2.3 3.45-2.7 3.45-7.75 0-5.1-3.8-7.8l-3.8-1.7z" id="c"/><path fill="#99674F" d="M19.65 62.8h-3.5l-3.8 1.7q-3.8 2.7-3.8 7.8 0 5.05 3.45 7.75 3 2.3 7.65 2.3V62.8z" id="d"/><path fill="#6D4C41" d="M48.4 28.65l7.2 12.2.8-6.3q1.1-7.6-1.25-15.2Q50.35 4.15 33 4.15q-17.35 0-22.95 14.6-2.8 7.25-2.1 14.5l1.2 7.6L16.9 28.4q11.1.8 22.4.65 5.65-.15 9.1-.4z" id="e"/><path fill="#CC9970" d="M55.6 39.5q0-16.5-4.7-24.65Q45.35 5.2 32.35 5.2q-12.9 0-18.5 9.65Q9.15 23 9.15 39.5q0 14.1 7.9 20.9 6.15 5.25 15.3 5.25t15.3-5.2q7.95-6.8 7.95-20.95z" id="f"/><path fill="#E0E0E0" d="M30.6 88.75q-8.05-7.85-7.2-29.85H13l1.25 4.4q1.3 5.2 1.4 9.25.15 5.05-.65 9.95-.9 5.75-1 10.2-.25 7.05 2.7 12.15 4.25 7.3 15.35 11.9 5.2 2.15 14.2 3.95 8.95 1.8 11.3 2.8V91.2q-18.7 5.65-26.95-2.45z" id="g"/><path fill="#E0E0E0" d="M91.7 58.9q.9 21.95-7.15 29.85-8.25 8.05-27 2.45v32.3q2.4-1 11.3-2.8 9-1.8 14.25-3.95 11.1-4.55 15.35-11.9 2.9-5.05 2.7-12.15-.15-4.4-1.05-10.2-.8-4.9-.65-9.95.1-4.05 1.4-9.25l1.3-4.4H91.7z" id="h"/><path fill="#E0E0E0" d="M26.45 95.1q-2.35.6-1.45 2.2.85 1.6 4.15 3.15 8.45 3.95 18.7 2.1 6.85-1.2 9.15-6.45.7-1.6.85-3.45l.05-1.5q-11.6-3.65-20.7-.7-2.55.8-6.2 2.65-3.3 1.7-4.55 2z" id="i"/><path fill="#E0E0E0" d="M90.15 97.3q.9-1.6-1.45-2.2-1.25-.3-4.6-2-3.6-1.85-6.2-2.65-9.1-2.95-20.7.7l.05 1.5q.15 1.85.9 3.45 2.3 5.25 9.15 6.45 10.25 1.85 18.7-2.1 3.25-1.55 4.15-3.15z" id="j"/><path fill="#DD2C00" d="M101.9 44.4Q99.8 28.6 91.5 19 80.2 5.95 58.65 5.95q-22.25 0-34.25 13.2-8.75 9.65-11.4 25.2 22-4.75 44.45-4.7 22.45 0 44.45 4.75z" id="k"/><path fill="#F5F5F5" d="M59.7 35.5q.1-.95.1-1l-.05-7.4q-.05-.65-.5-1.25-.5-.6-1.15-.75-12.75-2.8-25.8-2.8T6.55 25.1q-.7.15-1.2.75-.45.6-.5 1.25l-.05 7.4.1 1.05q.3 1.15 1.05 1.65.75-1.05 2.3-1.6 11.85-2.45 24.05-2.45 12.2 0 24.05 2.45 1.55.55 2.35 1.45.75-.45 1-1.55z" id="l"/><path fill="#CFD8DC" d="M91.15 7.7q.05 1.7.15 3.8.05 1.4-.1 2.3-.25 1.75-2.15 2.7-1.75.85-3.95.55-14.9-2.4-22.1-3.4-12.45-1.7-22.15-.95-5.4.45-17.4 2.8-11.35 2.25-17.4 2.6-2.25.15-4-1.1Q.975 16.271.6 15.5l-.05 6.25.2 1.85q.5 2.05 1.85 2.9 1.35-1.8 4.05-2.85 21.1-4.35 42.8-4.35 21.7 0 42.75 4.35 2.75 1.05 4.15 2.65 1.3-.8 1.75-2.75.2-1.75.2-1.8L98.2 8.6q-.05-1.2-.9-2.25t-2.05-1.3q-3.792-.845-7.6-1.55.966.333 1.9 1.15Q91.1 6 91.15 7.7z" id="m"/><path fill="#513F35" d="M70.75 95.5q-.3-.65-1.35-.65H45.75q-1.05 0-1.4.65-.3.6.35 1.65 1.25 1.9 4.3 3.5 3.9 2.05 8.55 2.05t8.55-2.05q3.05-1.6 4.3-3.5.65-1 .35-1.65z" id="n"/><path fill="#99674F" d="M57.55 85.65q-2.6 0-5.7-.85-.6-.2-.9.25-.25.4 0 .85.65 1.1 2.25 2.15 2.05 1.25 4.35 1.25t4.35-1.25q1.6-1.05 2.25-2.15.25-.45 0-.85-.25-.4-.9-.25-3.1.85-5.7.85z" id="o"/><path fill="#444444" d="M38.65 66q-2.3 0-3.9 1.95-1.6 1.9-1.6 4.65 0 2.7 1.6 4.65 1.6 1.9 3.9 1.9 2.25 0 3.85-1.9 1.6-1.95 1.6-4.65 0-2.75-1.6-4.7-1.6-1.95-3.85-1.9z" id="p"/><path fill="#444444" d="M72.6 67.9Q71 69.85 71 72.6q0 2.7 1.6 4.65 1.6 1.9 3.9 1.9 2.25 0 3.85-1.9 1.6-1.95 1.6-4.65 0-2.75-1.6-4.65Q78.75 66 76.5 66q-2.3-.05-3.9 1.9z" id="q"/><path fill="#513F35" d="M70.75 95.5q-.3-.65-1.35-.65H45.75q-1.05 0-1.4.65-.3.6.35 1.65 1.25 1.9 4.3 3.5 3.9 2.05 8.55 2.05t8.55-2.05q3.05-1.6 4.3-3.5.65-1 .35-1.65z" id="r"/></defs><use xlink:href="#a" transform="scale(.5625)"/><use xlink:href="#b" transform="scale(.5625)"/><use xlink:href="#c" transform="matrix(.56248 0 0 .56248 0 -.15)"/><use xlink:href="#d" transform="matrix(.56248 0 0 .56248 0 -.15)"/><use xlink:href="#e"/><use xlink:href="#f"/><use xlink:href="#g" transform="scale(.56248)"/><use xlink:href="#h" transform="scale(.56248)"/><use xlink:href="#i" transform="scale(.56248)"/><use xlink:href="#j" transform="scale(.56248)"/><use xlink:href="#k" transform="scale(.5625)"/><use xlink:href="#l"/><use xlink:href="#m" transform="translate(4.5 22.3) scale(.5625)"/><use xlink:href="#n" transform="scale(.5625)"/><use xlink:href="#o" transform="scale(.5625)"/><g transform="scale(.5625)"><use xlink:href="#p"/></g><g transform="scale(.5625)"><use xlink:href="#q"/></g><g transform="scale(.5625)"><use xlink:href="#r"/></g></svg>