<svg xmlns="http://www.w3.org/2000/svg" xmlns:xlink="http://www.w3.org/1999/xlink" preserveAspectRatio="none" viewBox="0 0 72 72"><defs><path fill="#37B4E2" d="M98.95 56.85q-1.75-.3-2.8-.05h-.1q-1 .05-1.65.75-.7.7-.65 1.65l.4 38.1q-3.55-2.2-8.35-1.95-3.85.2-7.45 1.85-3.7 1.7-5.95 4.4-1.85 2.2-2.55 4.35-1 3.05-.4 5.45.6 2.65 2.2 4.7 1.65 2.15 4 3.35 1.4.75 2.75 1.1 3.7.95 7.8-.4 3.7-1.25 6.8-4.05 2.45-2.15 4.05-5 1.8-3.2 1.85-6.15l.05-.35-.3-29.8 1.05-.05q2.7 0 4.9.4 5.25 1.05 8.15 4 2.35 2.35 3.35 3.1 1.95 1.5 4.05 1.85 1.1.2 2.45-.1 1.45-.4 2.05-1.2.85-1.2-.4-2.15-1.65-.95-2.15-1.45-.95-1.05-1.4-3.85-1.15-6.8-5.65-10.95-6.2-5.7-16.1-7.55z" id="a"/><path fill="#37B4E2" d="M35 83.1q.75 0 1.05.05 2.55.15 4.85.8 5.1 1.4 7.85 4.6 2.15 2.6 3.05 3.4 1.8 1.6 3.9 2.15 1.1.3 2.45.05 1.5-.25 2.15-1 .95-1.1-.2-2.15-1.6-1.1-2.05-1.65-.85-1.1-1.1-3.9-.55-6.9-4.75-11.35-5.75-6.3-15.45-8.85-1.55-.45-2.8-.25h-.05q-.95-.05-1.7.6t-.85 1.6l-2.6 38q-3.35-2.5-8.15-2.65-3.85-.1-7.6 1.25-3.8 1.45-6.3 3.95-2.1 2.2-2.85 4.1-1.2 2.9-.85 5.4.4 2.65 1.8 4.9 1.5 2.3 3.75 3.65 1.15.7 2.65 1.3 3.6 1.2 7.8.2 3.8-.95 7.15-3.45 2.6-1.95 4.4-4.65 2.05-3.1 2.3-6l.1-.35L35 83.1z" id="b"/><path fill="#37B4E2" d="M82.65 18.9q5.25 1.05 8.15 4.1 2.15 2.3 3.2 3.15 1.95 1.5 4.05 1.95 1.1.25 2.45-.1 1.5-.35 2.1-1.15.85-1.15-.4-2.15-1.65-1-2.1-1.5-.9-1-1.35-3.85-1-6.85-5.4-11.05-6.15-5.85-16-7.85-1.4-.35-2.8-.1h-.05q-1 0-1.7.7t-.7 1.65l-.25 38.1q-3.55-2.25-8.3-2.1-3.85.1-7.5 1.7-3.7 1.6-6.05 4.3-1.8 2.05-2.6 4.3-1.05 3-.55 5.45.6 2.65 2.15 4.75 1.65 2.2 3.95 3.4 1.6.85 2.75 1.15 3.65 1.05 7.8-.25 3.7-1.2 6.9-3.9 2.45-2.15 4.1-4.95 1.9-3.2 1.95-6.1l.05-.3.25-29.85 1.05-.05q2.35 0 4.85.55z" id="c"/></defs><use xlink:href="#a" transform="translate(1.05 -29.8) scale(.5625)"/><use xlink:href="#b" transform="translate(-.8 -24.75) scale(.5625)"/><use xlink:href="#c" transform="translate(-11.3 34.25) scale(.5625)"/></svg>