<svg xmlns="http://www.w3.org/2000/svg" xmlns:xlink="http://www.w3.org/1999/xlink" preserveAspectRatio="none" viewBox="0 0 72 72"><defs><path fill="#2F2F2F" d="M56.45 43.55q0-6.45-5.8-11-5.8-4.5-14.1-4.5-8.25 0-14 4.5-5.9 4.55-5.9 11 0 6.4 5.9 10.95 5.8 4.55 14 4.55 8.3 0 14.1-4.55 5.8-4.55 5.8-10.95z" id="a"/><path fill="#B0BEC5" d="M111.4 84.2q.35-.55.25-1.2-.1-.65-.6-1.05-.5-.35-1.15-.3l-6.5 1.05-.1 3.2 7.05-1.1q.65-.05 1.05-.6z" id="b"/><path fill="#B0BEC5" d="M100.4 96.8l-.55-.05-1.2 2.85 8 2.65.45.05q1.1 0 1.5-1.1.2-.65-.1-1.2-.3-.6-.9-.8l-7.2-2.4z" id="c"/><path fill="#B0BEC5" d="M111.25 91.65q-.35-.55-1-.65l-7.4-1.4-1.25 2.95.5.15 7.9 1.45q1.25 0 1.5-1.3.1-.65-.25-1.2z" id="d"/><path fill="#E0E0E0" d="M46.2 21.2q-1.3 1.45-2 3.25-.1.25-.2.55-.35-.2-1.25-.35-.55-.1-1.6-.45l-2.35-.4q-1.6-.1-2.75-.1-1.25 0-2.85.1l-2.35.4q-1.05.35-1.6.45-.92.163-1.3.3-.06-.241-.15-.5-.7-1.8-2-3.25-1.3-1.5-3-2.35-4.2-2.15-8.75-1.05-4.7 1.1-6.95 5.1Q4.8 27 6.3 32q1.45 5 5.55 7.05 1.684.86 3.25 1.2.017.07 0 .15.05.2-.4 1.6-.6 1.8-.85 3.3-.35 2.35.05 4.8.45 2.4 1.6 4.6.8 1.5 1.85 2.75 1.15 1.45 2.55 2.45 2.95 2.15 7.4 3.4 4.2 1.15 8.7 1.2 4.5-.05 8.7-1.2 4.45-1.25 7.4-3.4 1.4-1 2.55-2.45 1.05-1.25 1.85-2.75 1.15-2.2 1.6-4.6.4-2.45.05-4.8-.25-1.5-.85-3.3-.45-1.4-.4-1.6 0-.1-.05-.15 1.6-.35 3.3-1.2Q64.25 37 65.7 32q1.5-5-.8-9.1-2.25-4-6.95-5.1-4.55-1.1-8.75 1.05-1.7.85-3 2.35z" id="e"/><path fill="#F2BA94" d="M21.8 20.1q-.09-.365-.2-.75-.9-2.75-2.65-4.3Q16.6 13.1 13 13.4q-3.2.25-5.55 2.7H7.4Q4.95 18.65 5 21.85q.1 4.3 3.95 6.95 2.174 1.496 4.45 1.65l.4-.7q3.539-6.34 8-9.65m45.7 1.75q.1-3.2-2.35-5.75-2.45-2.45-5.6-2.7-3.65-.3-5.95 1.65-1.8 1.55-2.65 4.3-.18.56-.3 1.1 4.194 3.287 7.55 9.3.213.375.4.75 2.55-.036 5-1.7 3.85-2.65 3.9-6.95z" id="f"/><path fill="#FFFFFF" d="M39.3 55q.1-.55 0-.75-.1-.25-.5-.15-.6.1-1.3-.2-.55-.4-.75-.5-.5-.2-.85.05-.25.1-.65.45-.45.2-.75.25-.6 0-.8.05-.4.05-.35.5 0 .8.3 2.05.1.5.3.85.3 1.35 2.2 1.35 2.35 0 2.6-1.35.1-.35.25-.7.05-.35.3-1.9z" id="g"/><path fill="#2F2F2F" d="M55.4 94.35q-1.05-.6-1.65-.35-.5.3-.55.85-.05.5.25 1 .7 1.2 2.5 2.05 2.6 1.15 5 .65 1.15-.2 2.15-1 .95-.75 2.5-.2.85.3 2.5 1Q70.75 99 73 98q1.15-.45 2.15-1.3 1.3-1.15 1.15-2.1-.2-1.05-1.15-1-.4.05-1 .45l-.95.55q-2.8 1.45-5.45.25-.8-.35-1.1-.95-.2-.4-.4-1.35l-.15-1.2q.1-1 .05-1.3h-1.9q-1.1.15-1.6.2H62q.05 2.95.05 3.25-.15 1.1-1.1 1.6-.8.45-1.95.4-1.5-.05-3.6-1.15z" id="h"/><path fill="#2F2F2F" d="M44.8 74.05q-1.9 0-3.3 1.65-1.35 1.7-1.35 4 0 2.35 1.35 4 1.4 1.65 3.3 1.65 1.95 0 3.35-1.65 1.35-1.65 1.35-4t-1.35-4q-1.4-1.65-3.35-1.65z" id="i"/><path fill="#2F2F2F" d="M87 75.7q-1.4-1.65-3.3-1.65-1.95 0-3.3 1.65-1.4 1.65-1.4 4t1.4 4q1.35 1.65 3.3 1.65 1.9 0 3.3-1.65 1.35-1.65 1.35-4 0-2.3-1.35-4z" id="j"/><path fill="#2F2F2F" d="M60.55 82.25Q59 84.1 59 86.7t1.55 4.45q1.5 1.85 3.7 1.85t3.7-1.85q1.55-1.85 1.55-4.45t-1.55-4.5q-1.5-1.85-3.7-1.85-2.2.05-3.7 1.9z" id="k"/><path fill="#B0BEC5" d="M16.9 81.95q-.5.4-.6 1.05-.05.65.3 1.2.4.55 1 .6l7.05 1.1-.1-3.2-6.5-1.05q-.65-.05-1.15.3z" id="l"/><path fill="#B0BEC5" d="M28.1 96.75l-.55.05-7.15 2.4q-.65.2-.9.8-.3.55-.1 1.2.35 1.1 1.45 1.1l.45-.05 8-2.65-1.2-2.85z" id="m"/><path fill="#B0BEC5" d="M17.7 91q-.65.1-1 .65t-.25 1.2q.1.55.55.95.4.35.95.35l7.9-1.45.5-.15-1.25-2.95-7.4 1.4z" id="n"/></defs><use xlink:href="#a" transform="translate(-.05 -.1)"/><use xlink:href="#b" transform="matrix(.64139 0 0 .64139 -5.05 -10.7)"/><use xlink:href="#c" transform="matrix(.64139 0 0 .64139 -5.05 -10.7)"/><use xlink:href="#d" transform="matrix(.64139 0 0 .64139 -5.05 -10.7)"/><use xlink:href="#e" transform="matrix(1.14026 0 0 1.14026 -5.05 -10.7)"/><use xlink:href="#f" transform="translate(-.05 -.1)"/><use xlink:href="#g" transform="matrix(1.14026 0 0 1.14026 -5.05 -10.7)"/><use xlink:href="#h" transform="matrix(.64139 0 0 .64139 -5.05 -10.7)"/><use xlink:href="#i" transform="matrix(.71947 0 0 .71947 -7.75 -16.95)"/><use xlink:href="#j" transform="matrix(.71947 0 0 .71947 -12.3 -16.95)"/><use xlink:href="#k" transform="matrix(.75133 0 0 .50394 -12.05 1.15)"/><use xlink:href="#l" transform="matrix(.64139 0 0 .64139 -5.05 -10.7)"/><use xlink:href="#m" transform="matrix(.64139 0 0 .64139 -5.05 -10.7)"/><use xlink:href="#n" transform="matrix(.64139 0 0 .64139 -5.05 -10.7)"/></svg>