<svg xmlns="http://www.w3.org/2000/svg" xmlns:xlink="http://www.w3.org/1999/xlink" preserveAspectRatio="none" viewBox="0 0 72 72"><defs><path fill="#FADCBC" d="M102.6 39.25q-3.95 2.95-5.25 7.05-1.25 4.05.25 8.7l5.1 13.4q.55 1.15-.5 2.05-1.05.95-2 .2-2.55-2.05-7.85-7.35l-4.85-4.9q-2-1.85-14.45-14.25-12-11.9-12.7-12.5Q58 29.5 55.6 28.9q-2.65-.7-4.6.8-2.25 1.7-2.5 3.95-.35 2.4 1.7 4.95L73 62.3q1 1 .2 1.95-.75.9-1.8-.05L42.75 34.95Q40.6 32.7 37.7 32.4q-2.9-.35-4.85 1.5-1.9 1.85-1.8 4.5.1 2.7 2.2 5 .9.95 27.95 29.05 1.15 1.15.2 2-.75.85-1.75-.2L35.4 49.55q-2.2-2.15-4.5-2.6-2.6-.5-4.6 1.35-2 1.9-2.05 4.55-.05 2.85 2.15 4.95l25.4 26.25q.2 0 .35.6.15.7-.4 1.25-.95.9-1.95-.15-4.1-4.25-8.35-8.6-8.5-8.75-9.15-9.2-4.3-3.15-7.85.6-3.8 3.95.65 9.25 26.5 27.45 28 28.85l6.8 6.15q7.7 6.7 12.15 9.3 3.75 2.25 6.8 3.25 4.5 1.45 8.55 1.4 4.7 0 9.2-1.75 4.25-1.65 8.3-4.7l3.55-2.9q1.75-1.5 3.3-3.15 3-3.1 5.7-6.8 2.45-3.5 4.15-7.2 1.7-3.75 2.35-7.15.65-3.1.5-6.35-.05-1.7-.75-4.75-.6-1.95-1.05-2.85l-.5-1-14.35-37.5q-.55-1.6-2.15-2-1.65-.45-3.05.6z" id="a"/><path fill="#FADCBC" d="M82.85 45.75q-.6 1.25-1.8.95-3.1-.85-10.1-3.65L64.6 40.4q-2.7-1-18.85-7.5Q30 26.55 29.2 26.25q-3-1.05-5.45-.65-2.7.4-3.95 2.55-1.4 2.4-.8 4.6.65 2.35 3.5 3.85l30.25 12.95q1.3.55.95 1.75-.35 1.15-1.7.7L14.25 36.2q-2.85-1.25-5.65-.45-2.8.8-3.9 3.3-1.05 2.45.1 4.85 1.15 2.45 4 3.7Q35.55 59 45.85 63.5q1.45.6.95 1.8l-.35.45q-.5.4-1.35.05L13.15 52.45Q10.3 51.3 8 51.8q-2.6.55-3.7 3.05t-.15 5q1.05 2.6 3.9 3.7l33.65 14.3.5.45q.45.55.15 1.25-.35.8-1.15.8l-.7-.15q-5.45-2.3-11.05-4.7-11.2-4.7-12-4.9-5.2-1.15-7 3.6-2 5.15 4.2 8.3 35.1 14.95 37 15.7l8.7 3q9.7 3.15 14.8 3.85 4.6.6 7.5.35 4.55-.35 8.4-2.05 4.2-1.8 7.8-5.2 3.2-3 5.85-7.55l2.1-4.05q.85-1.6 1.85-4.2 1.55-3.95 2.6-8.45.95-4.4 1-8.3.15-3.7-.6-7.5-.6-3-2-6-.75-1.7-2.55-4.1-1.25-1.55-2.1-2.25l-.8-.7-27.85-28.9q-1.1-1.25-2.75-1-1.65.2-2.55 1.7-2.5 4.25-2.05 8.55.4 4.2 3.6 7.85l9.9 10.4q.9.85.35 2.1z" id="b"/><path fill="#DBA689" d="M98.25 46.85q.9-2.85 3.55-6.05 1.25-1.5 1.9-2.05-14.1 5.1-5.75 24.05.65 1.5 1.7 3.45.6 1.25.1 1.5-.9.55-2.45-.65-1.55-1.5-2-1.9-14.7-15-24.2-25.2-9.15-9.85-13.3-12.05-4.9-2.6-9.2 1.3-3.15 2.85-1.8 6.95-8.85-9.1-15.15-3.05-2.4 2.2-2.45 5.4-.05 3.4 2.55 6.5-.85-.15-2.35-.05-3.05.2-5.35 2.45-3.15 3.05-1.35 7.95 1.25 3.4 3.95 6.3l2.5 2.65q-2.05-.1-3.3.3-1.35.5-2.85 1.95-3.6 3.45-2.3 8.65 1.1 4.4 4.9 7.85 7.55 6.9 24.45 23 15.5 13.65 28.05 19.05 1 .4-1.5-1.6-2.15-1.75-3.95-3-9.45-6.7-14.95-11.5-1.6-1.45-13.05-12.3Q26.5 79.4 24.7 76.95q-3.15-4.15.45-7.6 3.5-3.45 6.85-.75 1 .75 11.05 9.65 9.7 8.45 10 8.05l.95-.75q.55-.5.2-.8-6.3-5.5-9.15-8.5l-17-17.45q-2.65-2.7-2.8-5.35-.2-2.35 1.5-3.95 1.55-1.55 3.85-1.55 2.5.05 4.4 1.95 26.9 25.55 27.55 25 .4-.25.7-.65.55-.75-.1-1.35L35.75 46q-5.5-5.4-2.35-9.75 1.2-1.65 3.15-2.1 2-.5 3.35.65 6.85 5.75 19.45 18.45 5.05 5.1 12.8 11.9.95.9 1.3-.45.3-1.4-1-2.75-16.5-16-16.5-16.05-3.2-3.2-4.7-4.9-.85-1-1.15-1.7-2.2-4.55 1.25-7.85 3.55-3.35 7.7 1 3.7 3.85 17.3 17.35 3.8 3.8 11.15 11.6 6.45 6.55 6.85 6.9 5 4.3 7.3 2.6 1.75-1.25 1.3-3-.95-2.15-1.55-3.45-2.15-5.1-3.05-9.4-1.05-5.1-.1-8.2z" id="c"/><path id="d" stroke="#444444" stroke-width="2" stroke-linejoin="miter" stroke-linecap="round" stroke-miterlimit="10" fill="none" d="M56.953 1.772l-3.6 11.306"/><path id="e" stroke="#444444" stroke-width="2" stroke-linejoin="miter" stroke-linecap="round" stroke-miterlimit="10" fill="none" d="M23.878 12.797L17.86 5.625"/><path id="f" stroke="#444444" stroke-width="2" stroke-linejoin="miter" stroke-linecap="round" stroke-miterlimit="10" fill="none" d="M29.672 1.772L28.35 12.206"/><path id="g" stroke="#444444" stroke-width="2" stroke-linejoin="miter" stroke-linecap="round" stroke-miterlimit="10" fill="none" d="M63.366 12.037l-6.947 5.57"/></defs><use xlink:href="#a" transform="scale(.5625)"/><use xlink:href="#b" transform="scale(.5625)"/><use xlink:href="#c" transform="scale(.5625)"/><use xlink:href="#d"/><use xlink:href="#e"/><use xlink:href="#f"/><use xlink:href="#g"/></svg>