<svg xmlns="http://www.w3.org/2000/svg" xmlns:xlink="http://www.w3.org/1999/xlink" preserveAspectRatio="none" viewBox="0 0 72 72"><defs><path fill="#8E726A" d="M83 40.95q6.45-15.05 6.2-21.1-.35-8-1.7-11.15Q84.6 2 76 2q-4.95 0-7.85 5.95-.1.15-5.4 15.1-2.25 6.35-5.55 11.9-4.55 7.7-10.3 12.2-2.7 2.15-13.55 6.2-12.25 4.55-16.6 7Q12.6 62.7 11.9 71.9q-.4 4.95-.05 12.85-.25 9.9.9 14.65 1.55 6.35 6.2 8.25 2 .8 5.25 3.8 1.85 1.7 5.65 5.35 7.25 6.35 23.15 8.25 9.15 1.1 23.5.65 2.7-.05 9.1-.1 5.8-.1 9.25-.65 9.75-1.55 9.95-8.05.1-3.15-1.85-4.8-2-1.65-6.4-2l-13.9-.65 1.1-1.8q5 .4 11.2.6 6.2.2 8.3 0 3.45-.25 5.9-2 3.15-2.2 3.2-6 .1-3.5-2.5-5.8-2.65-2.35-7.35-2.6l-9.35-.35.2-.35.4-1.1q2.8-.05 7.95-.5 4.25-.35 5.25-.3 4.4.25 7.1-2.5 2.65-2.75 2.1-6.85-.6-4.5-4.25-6.6-3.4-2-8.5-1.4-.65.1-4.15.15-3.5.1-4.7.25l1.9-2.1q2.4-.35 7.7-.75 4.7-.5 6.6-3.3 1.6-2.35 1.05-6.15-.65-4.45-4.35-5.9-1.8-.7-7.8-1.15-3.65-.3-8.95-.1-7.2.25-11.25 1.4-1.35-.4-.15-4.25.7-2.15 3.7-9.05z" id="a"/><path fill="#563E37" d="M103.4 71.9l2.25-.15q-.95-.45-1-1.3l.15-1.1q-6 .5-15.3 1.75-16.5 2.15-17.35-4.8-.7-5.55 1.9-8.45 1.3-1.55 3.55-2.75 1.1-.6 1.95-.9-.35-.1-.6-.35l-.2-.8q-5.75.7-9.15 4.05-3.5 3.3-3.2 7.9.25 3.35 1.15 5.3 1.05 2.15 3.1 3.15l-1.4 1.5q-1.35 2.3-1.25 6 .05 3.75 2.45 6.55 1.2 1.4 2.5 2.15-2.55-.05-5.2 2-3.2 2.5-3.2 6.3 0 3.4 1.6 6.15 1.45 2.5 3.55 3.5-1.65.35-3.1 2.1-1.8 2.25-1.8 5.6 0 5 3.25 7.85 2.55 2.25 6.35 2.7 2.85.35 9.85 0 6.3-.3 9.55-.75.9-.15-5.35-.5-8.75-.5-13.55-1.15-2.05-.25-3.8-1.85-1.95-1.75-2.25-4.05-.2-1.05.1-2.45.6-2.7 3.05-4.25l1.8-.7q2.7-.7 7.45-.65h2.3q.7.05 12.95.6 1.9.15 3.55.55-.35-.35-.3-1.15.15-1.2 1.1-1.2l-8.3-.45q-15.3-.95-16.6-1.45-1.6-.4-3.15-1.6-3.2-2.45-3.2-6.5-.1-1.4.9-2.8 1.9-2.85 7.2-3l11.05-.45q12.1-.25 17.4.45-.3-.55-.35-1.25-.1-1.4 1.15-2.05l-23.2.6q-5.9.15-8.8-2.5-2.05-1.8-2.3-4.6l-.1-1.75q0-3.5 3.05-4.95 2-.9 7.95-1.7 13.95-1.85 19.85-2.4z" id="b"/><path fill="#563E37" d="M65.8 92.15q7.85-11.15 5.3-24.6l-3.35.95.5 3q.35 3.8-.3 7.6-2.05 12.2-13.4 20l-1.05.9q-.85 1.1-.15 1.8l.8.4q1.2.05 3.3-1.55 4.45-2.9 8.35-8.5z" id="c"/></defs><use xlink:href="#a" transform="scale(.5625)"/><use xlink:href="#b" transform="scale(.5625)"/><use xlink:href="#c" transform="scale(.5625)"/></svg>