<svg xmlns="http://www.w3.org/2000/svg" xmlns:xlink="http://www.w3.org/1999/xlink" preserveAspectRatio="none" viewBox="0 0 72 72"><defs><path fill="#F79329" d="M105.9 95.35L91.55 50.4l-22 40.25 36.35 4.7z" id="a"/><path fill="#F79329" d="M107.1 95.35q0-.45-.2-.7l-14.25-44.6q-.25-.8-1-.8-.7-.1-1.15.6l-22 40.2q-.3.5-.05 1.1.35.55.9.65l36.4 4.7h.2q.5 0 .8-.35.35-.3.35-.8M91.25 53.4l12.95 40.55-32.8-4.25 19.85-36.3z" id="b"/><path fill="#F79329" d="M36.4 50.4L22.05 95.35l36.4-4.7L36.4 50.4z" id="c"/><path fill="#F79329" d="M22.05 96.5l.15.05 36.35-4.75q.7-.1.9-.6.35-.6 0-1.1l-22-40.25q-.4-.65-1.15-.6-.85.1-1 .8L20.95 95q-.25.55.2 1.1.4.4.9.4m1.7-2.55L36.7 53.4l19.85 36.3-32.8 4.25z" id="d"/><path fill="#FCC21B" d="M38.55 38.8q1.6-1.6 1.6-3.85 0-2.3-1.6-3.85-1.55-1.6-3.85-1.6-2.25 0-3.85 1.6-1.6 1.55-1.6 3.85 0 2.25 1.6 3.85t3.85 1.6q2.3 0 3.85-1.6z" id="e"/><path fill="#FCC21B" d="M39.4 30.25q-1.95-1.95-4.7-1.95T30 30.25q-1.95 1.95-1.95 4.7T30 39.6q1.95 1.95 4.7 1.95t4.7-1.95q1.95-1.9 1.95-4.65 0-2.75-1.95-4.7m-9 4.7q0-1.8 1.25-3.05 1.3-1.25 3.05-1.25 1.75 0 3.05 1.25Q39 33.15 39 34.95q0 1.75-1.25 3-1.3 1.25-3.05 1.25-1.75 0-3.05-1.25-1.25-1.25-1.25-3z" id="f"/><path fill="#FCC21B" d="M97.3 31.3q-1.5-1.7-3.75-1.8-2.25-.15-3.95 1.35-1.7 1.5-1.8 3.75-.15 2.3 1.35 3.95 1.5 1.7 3.75 1.85 2.25.1 3.95-1.4 1.7-1.5 1.85-3.75.1-2.25-1.4-3.95z" id="g"/><path fill="#FCC21B" d="M93.65 28.3h-.4q-2.65 0-4.55 1.8-1.95 1.85-2.1 4.45-.15 2.7 1.7 4.8 1.8 2.05 4.55 2.2h.4q2.6 0 4.55-1.8 1.9-1.8 2.05-4.4.2-2.75-1.65-4.8-1.8-2.05-4.55-2.25m2.8 3.8q1.15 1.3 1.05 3.1-.1 1.7-1.35 2.85-1.2 1.15-2.9 1.15H93q-1.8-.1-2.95-1.45-1.2-1.25-1.1-3.05.1-1.75 1.35-2.9 1.3-1.15 3.15-1.15 1.8.1 3 1.45z" id="h"/><path fill="#FCC21B" d="M118.2 53.7L87.25 82.75l-22.1-33q-.35-.5-1-.5t-.95.5l-22.2 33-30.95-29.1q-.6-.5-1.3-.2-.7.3-.7 1.1l1.3 47.5q0 7.75 15.85 13.1t38.9 5.35q23 0 38.9-5.35 15.9-5.3 15.9-13.05l1.25-47.55q0-.75-.65-1.1-.75-.3-1.3.25z" id="i"/><path fill="#D7598B" d="M110.95 47.65l.5-18.8q-2.888.062-5.05 2.6-2.35 2.65-2.45 6.6-.1 3.9 2 6.7 2.06 2.73 5 2.9z" id="j"/><path fill="#D7598B" d="M5.75 31.45q-2.173-2.551-5.1-2.6l.5 18.8q2.941-.17 5-2.9 2.15-2.8 2.05-6.7-.15-3.95-2.45-6.6z" id="k"/><path fill="#F79329" d="M69.75 23Q67.4 20.6 64 20.6T58.2 23q-2.4 2.4-2.4 5.8t2.4 5.75q2.4 2.4 5.8 2.4t5.75-2.4q2.4-2.35 2.4-5.75t-2.4-5.8z" id="l"/><path fill="#F79329" d="M11.5 39.5q1.9-1.9 1.9-4.55 0-2.7-1.85-4.6-1.9-1.9-4.6-1.9-2.7 0-4.6 1.9-1.9 1.9-1.9 4.6 0 2.65 1.9 4.55t4.6 1.9q2.65 0 4.55-1.9z" id="m"/><path fill="#F79329" d="M125.6 39.5q1.9-1.9 1.9-4.55 0-2.7-1.9-4.6-1.9-1.9-4.6-1.9-2.7 0-4.6 1.9-1.9 1.9-1.9 4.6 0 2.65 1.9 4.55t4.6 1.9q2.7 0 4.6-1.9z" id="n"/><path fill="#F79329" d="M69.75 23Q67.4 20.6 64 20.6T58.2 23q-2.4 2.4-2.4 5.8t2.4 5.75q2.4 2.4 5.8 2.4t5.75-2.4q2.4-2.35 2.4-5.75t-2.4-5.8z" id="o"/><path fill="#F79329" d="M11.5 39.5q1.9-1.9 1.9-4.55 0-2.7-1.85-4.6-1.9-1.9-4.6-1.9-2.7 0-4.6 1.9-1.9 1.9-1.9 4.6 0 2.65 1.9 4.55t4.6 1.9q2.65 0 4.55-1.9z" id="p"/><path fill="#F79329" d="M125.6 39.5q1.9-1.9 1.9-4.55 0-2.7-1.9-4.6-1.9-1.9-4.6-1.9-2.7 0-4.6 1.9-1.9 1.9-1.9 4.6 0 2.65 1.9 4.55t4.6 1.9q2.7 0 4.6-1.9z" id="q"/><path fill="#D7598B" d="M58 89.45q-2.55 2.95-2.55 7.15 0 4.15 2.55 7.15 2.55 2.95 6.1 2.95 3.6 0 6.15-2.95 2.55-3 2.55-7.15 0-4.2-2.55-7.15-2.55-3-6.15-3-3.55 0-6.1 3z" id="r"/><path fill="#ED6C30" d="M85.95 97.05q-1.75-.05-3.05 1.3-1.3 1.35-1.4 3.4-.1 2 1.05 3.55 1.15 1.5 2.9 1.55 1.75.1 3.05-1.3 1.3-1.4 1.4-3.4.1-2-1.05-3.5-1.15-1.5-2.9-1.6z" id="s"/><path fill="#ED6C30" d="M100.2 95.4q-1.3 1.35-1.4 3.35-.1 2 1.05 3.55 1.15 1.5 2.9 1.55 1.7.1 3.05-1.25 1.3-1.35 1.4-3.4.1-2.05-1.05-3.5-1.15-1.5-2.9-1.6-1.75-.05-3.05 1.3z" id="t"/><path fill="#ED6C30" d="M45.35 98.35q-1.3-1.35-3.05-1.3-1.75.1-2.9 1.6t-1.05 3.5q.1 2.05 1.4 3.4 1.3 1.4 3.05 1.3 1.75-.05 2.85-1.55 1.15-1.5 1.05-3.55-.05-2-1.35-3.4z" id="u"/><path fill="#ED6C30" d="M28 95.35Q26.65 94 24.95 94.1q-1.7.1-2.85 1.6-1.15 1.45-1.1 3.5.1 2 1.4 3.4 1.3 1.35 3.05 1.25 1.75-.05 2.9-1.55 1.15-1.55 1.05-3.55-.1-2.05-1.4-3.4z" id="v"/></defs><use xlink:href="#a" transform="translate(0 -6.35) scale(.5625)"/><use xlink:href="#b" transform="translate(0 -6.35) scale(.5625)"/><use xlink:href="#c" transform="translate(0 -6.35) scale(.5625)"/><use xlink:href="#d" transform="translate(0 -6.35) scale(.5625)"/><use xlink:href="#e" transform="translate(0 -1.3) scale(.5625)"/><use xlink:href="#f" transform="translate(0 -1.3) scale(.5625)"/><use xlink:href="#g" transform="translate(0 -1.3) scale(.5625)"/><use xlink:href="#h" transform="translate(0 -1.3) scale(.5625)"/><use xlink:href="#i" transform="translate(0 -6.35) scale(.5625)"/><use xlink:href="#j" transform="translate(4.5 21.3) scale(.5625)"/><use xlink:href="#k" transform="translate(4.5 21.3) scale(.5625)"/><use xlink:href="#l" transform="translate(0 2) scale(.5625)"/><use xlink:href="#m" transform="translate(0 2) scale(.5625)"/><use xlink:href="#n" transform="translate(0 2) scale(.5625)"/><use xlink:href="#o" transform="translate(0 2) scale(.5625)"/><use xlink:href="#p" transform="translate(0 2) scale(.5625)"/><use xlink:href="#q" transform="translate(0 2) scale(.5625)"/><use xlink:href="#r" transform="translate(0 -6.35) scale(.5625)"/><use xlink:href="#s" transform="translate(0 -6.35) scale(.5625)"/><use xlink:href="#t" transform="translate(0 -6.35) scale(.5625)"/><g transform="translate(0 -6.35) scale(.5625)"><use xlink:href="#u"/></g><g transform="translate(0 -6.35) scale(.5625)"><use xlink:href="#v"/></g></svg>