<svg xmlns="http://www.w3.org/2000/svg" xmlns:xlink="http://www.w3.org/1999/xlink" preserveAspectRatio="none" viewBox="0 0 72 72"><defs><path fill="#F79329" d="M61.35 25.8l-5.25.2-.15 2.05q-.75 2.3-3.55 2.3l5.2 2.3 2.05-1.25q2-2 1.7-5.6z" id="a"/><path fill="#F79329" d="M73.6 26l-5.25-.2q-.3 3.6 1.7 5.6 1 1 2.05 1.25l5.2-2.3q-2.75 0-3.5-2.3L73.6 26z" id="b"/><path fill="#FCC21B" d="M55.7 23.1q-.163-.081-.35-.15-1.334-.665-2.85-1.2-3.4-1.2-9.1-1.7l-6.05-.35q-3.25-.05-7.85.25-1.2.15-5.95.85-2.15.4-3.85.9-2.741.86-5.15 2.4-2.893 1.833-5.3 4.65-1.05 1.2-2.2 3.4-.5.85-.6 2.15-.1 1.55.8 1.75.35.05.65-.15.097-.097.4-.45h.05q1.05-1.6 1.7-2.35.8-1.05 2-2.2 2.5-2.5 4.85-3.55 2.6-1.15 5.25-1.75 2.55-.6 5.9-.8 3.15-.15 5.9-.15h4.1q2.75 0 5.85.15 3.35.2 5.95.8 2.85.65 5.2 1.75 2.4 1.05 4.9 3.55 1.15 1.15 2 2.2.6.75 1.7 2.35.217.253.35.35.058.072.1.1.25.2.6.15.95-.2.85-1.75-.15-1.25-.6-2.15-1.15-2.2-2.2-3.4-1.05-1.2-1.85-2-2.5-2.25-5.2-3.65z" id="c"/><path fill="#E53935" d="M55.05 23q-2.35-1.2-5.2-1.9-2.6-.65-5.95-.9-3.1-.15-5.85-.15h-4.1q-2.75 0-5.9.15-3.35.25-5.9.9-2.65.65-5.25 1.9-2.35 1.2-4.85 3.95-1.2 1.25-2 2.4-.65.85-1.7 2.6V32q-.15.3-.3.55-1.45 2.95-1.7 3.95-1.2 4.1-1.6 7.55-.15 1.7-.15 3.3 0 2.05.3 3.85.6 3.55 2.6 6.45 1.7 2.45 4.15 4.25 2.35 1.7 5.45 2.6 2.4.75 5.8 1.05 5.2.55 9.7.6l3.35-.1q1.45.05 3 .05 4.55 0 10.05-.45 3.4-.25 5.85-1.05 3.1-.85 5.5-2.55 2.55-1.9 4.1-4.15 2-2.95 2.65-6.45.3-1.85.35-3.9-.05-1.6-.2-3.3-.4-3.05-1.5-7.35-.8-2.45-1.75-4.5-.15-.15-.35-.45-1.1-1.75-1.7-2.6-.85-1.15-2-2.4-2.5-2.75-4.9-3.95z" id="d"/><path fill="#FCC21B" d="M32.05 5.9q-1.95 0-3.35 1.4-1.35 1.35-1.35 3.3 0 1.95 1.35 3.3 1.4 1.4 3.35 1.4 1.95 0 3.3-1.4 1.4-1.35 1.4-3.3 0-1.95-1.4-3.3-1.35-1.4-3.3-1.4z" id="e"/><path fill="#F79329" d="M11.9 2.05l-.1-.1-.1.1q-2.05 2-2.05 4.9 0 2.9 2.05 4.9l.1.1.1-.1q2.05-2 2.05-4.9 0-2.9-2.05-4.9z" id="f"/><path fill="#FCC21B" d="M70.8 14q-2.9 0-4.9 2.05-2.05 2-2.05 4.9 0 2.9 2.05 4.9 2 2.05 4.9 2.05 2.9 0 4.95-2.05 2.05-2 2.05-4.9 0-2.9-2.05-4.9Q73.7 14 70.8 14z" id="g"/><path fill="#FFFFFF" d="M71.1 18.85q0-.9-.65-1.55-.6-.65-1.55-.65-.9 0-1.5.65-.65.65-.65 1.55t.65 1.55q.6.65 1.5.65.95 0 1.55-.65.65-.65.65-1.55z" id="h"/><path fill="#FFFFFF" d="M58.25 18.85q0-.9-.65-1.55t-1.55-.65q-.95 0-1.55.65-.65.65-.65 1.55t.65 1.55q.6.65 1.55.65.9 0 1.55-.65t.65-1.55z" id="i"/></defs><use xlink:href="#a" transform="translate(-7.3 -3.55) scale(.67575)"/><use xlink:href="#b" transform="translate(-7.3 -3.55) scale(.67575)"/><use xlink:href="#c" transform="translate(0 -3.2)"/><use xlink:href="#d"/><use xlink:href="#e"/><use xlink:href="#f" transform="translate(27.3 5.9) scale(.67575)"/><use xlink:href="#g" transform="translate(-7.3 -3.55) scale(.67575)"/><g transform="translate(-7.3 -3.55) scale(.67575)"><use xlink:href="#h"/></g><g transform="translate(-7.3 -3.55) scale(.67575)"><use xlink:href="#i"/></g></svg>