<svg xmlns="http://www.w3.org/2000/svg" xmlns:xlink="http://www.w3.org/1999/xlink" preserveAspectRatio="none" viewBox="0 0 72 72"><defs><path fill="#444444" d="M62.95 118.75l-10.05-12.8q-1.45 1.15-1.8 3.05-.4 1.95.7 3.3 2.3 2.9 3.5 4.1 1.95 2.05 3.5 2.6 1.25.45 2.55.3 1.05-.1 1.6-.55z" id="a"/><path fill="#444444" d="M52.9 105.95l10.05 12.8q.55-.45.9-1.45.45-1.15.3-2.5-.15-1.7-1.65-4.05-.95-1.55-3.2-4.35-1.05-1.35-3.05-1.45-1.95-.1-3.35 1z" id="b"/><path fill="#FBC11B" d="M47.85 94.9q-1.95 0-3.3 1.35-1.35 1.4-1.35 3.3t1.35 3.3q1.35 1.35 3.3 1.35 1.9 0 3.3-1.35 1.35-1.4 1.35-3.3t-1.35-3.3q-1.4-1.35-3.3-1.35z" id="c"/><path fill="#E0BB95" d="M52.05 97.65l-7.4-17-10.4 4.75 9.4 16.2 8.4-3.95z" id="d"/><path fill="#E0BB95" d="M55.1 113.75l4.9-3.8-8.35-13.25-7.35 5.85 10.8 11.2z" id="e"/><path fill="#E0BB95" d="M33.5 80.6H22.8l3.6 43.4h8.3l-1.2-43.4z" id="f"/><path fill="#444444" d="M35.8 124.35v-1.85q0-1.7-1.15-2.85-1.2-1.15-2.85-1.15H29q-1.65 0-2.8 1.15-1.2 1.15-1.2 2.85v1.85h10.8z" id="g"/><path fill="#FBC11B" d="M6.5 72q-.2 1.3.6 2.3.8 1.05 2.1 1.2 1.3.2 2.3-.6 1.05-.8 1.2-2.1.2-1.3-.6-2.3-.8-1.05-2.1-1.2-1.25-.2-2.3.6-1.05.8-1.2 2.1z" id="h"/><path fill="#E0BB95" d="M20.15 61.25q-2.4-3.3-2.7-3-3.9 4-10.2 12.05L12 74.45l1.15-1.25q1.45-1.55 5.55-5.2l3.8-3.4q-1.15-1.7-2.35-3.35z" id="i"/><path fill="#444444" d="M34.4 72.4V54q-4.4 0-9.25.9-3.1.65-5.4 1.75-2.45 1.2-4.95 3.3l7.55 7.85 12.05 4.6z" id="j"/><path fill="#E0BB95" d="M22.5 81.95q-.05-1.15-.85-1.95l-6.35-6.5q-1.65-1.65-3.4-3.9l-4.65 4.9q5.8 5.9 10.2 9.7.95.95 2.25.9 1.35-.1 2.15-1.1.7-.9.65-2.05z" id="k"/><path fill="#FBC11B" d="M58.75 69.3q-1.3.15-2.1 1.2-.8 1-.6 2.3.15 1.3 1.2 2.1 1 .8 2.3.6 1.3-.15 2.1-1.2t.6-2.3q-.15-1.3-1.2-2.1t-2.3-.6z" id="l"/><path fill="#E0BB95" d="M51.3 58.25q-.3-.3-2.7 3-1.2 1.65-2.35 3.35l3.8 3.4q4.1 3.65 5.55 5.2l1.15 1.25 4.75-4.15q-6.35-8.05-10.2-12.05z" id="m"/><path fill="#444444" d="M34.4 54v18.4l12-4.6 7.6-7.85q-2.55-2.15-4.95-3.3-2.3-1.1-5.45-1.75-4.85-.9-9.2-.9z" id="n"/><path fill="#E0BB95" d="M47.1 80q-.8.8-.85 1.95-.05 1.15.65 2.05.85 1 2.15 1.1 1.3.05 2.25-.9 4.4-3.8 10.2-9.7l-4.65-4.9q-1.75 2.25-3.4 3.9L47.1 80z" id="o"/><path fill="#444444" d="M31.45 59.25v14.2h4.75v-14.2h-4.75z" id="p"/><path fill="#444444" d="M36.75 82.95v-18h-14.4v18h14.4z" id="q"/><path fill="#444444" d="M34.35 64.95v18h12v-18h-12z" id="r"/><path fill="#E0BB95" d="M26.75 62.3q3.15 2.3 7.65 2.3 4.45 0 7.6-2.3 3.15-2.3 3.15-5.55L45.1 56q-.55-.25-1.5-.5-3.45-.9-9.2-.9-5.8 0-9.25.9-.95.25-1.5.5l-.05.75q0 3.25 3.15 5.55z" id="s"/><path fill="#FBC11B" d="M34.4 60.25q2 0 3.3-1.2 1.3-1.25 1.3-3.2v-4.6h-9.25v4.6q0 1.95 1.35 3.2 1.3 1.2 3.3 1.2z" id="t"/><path fill="#E7A13D" d="M37 48.8h-5.2q-.9 0-1.5.8-.55.75-.55 1.7v4.5l1.25.35q1.6.3 3.4.3 2.8 0 4.6-.7V51.2q0-.95-.55-1.65-.6-.75-1.45-.75z" id="u"/><path fill="#C48E6A" d="M34.4 60.65q1.95 0 3.35-1.35 1.35-1.4 1.35-3.35v-4h-9.4v4q0 1.95 1.4 3.35 1.35 1.35 3.3 1.35z" id="v"/><path fill="#BFA055" d="M45.05 35.9q2.05 1.45 3.7 2.1V25.2q-1.05-2.1-3.35-4.25-4.55-4.25-10.85-4.25t-10.9 4.15q-2.3 2.1-3.35 4.15v13q6.2-1.05 12.2-4.8 3.45-2.15 5.95-4.55.25-.25.45.05 2.05 4.2 6.15 7.2z" id="w"/><path fill="#E0BB95" d="M57.35 108.5q-1.25 0-2.2.9-.9.95-.9 2.2 0 1.3.9 2.2.95.9 2.2.9 1.3 0 2.2-.9.9-.9.9-2.2 0-1.25-.9-2.2-.9-.9-2.2-.9z" id="x"/><path fill="#C48E6A" d="M106.9 66.05h-3.6v20.3q4.75 0 7.85-2.4 3.6-2.8 3.6-8.05 0-5.3-3.9-8.1l-3.95-1.75z" id="y"/><path fill="#C48E6A" d="M24.7 66.05h-3.65l-3.9 1.75q-3.95 2.8-3.95 8.1 0 5.25 3.6 8.05 3.1 2.4 7.9 2.4v-20.3z" id="z"/><path fill="#E0BB95" d="M106.75 73.8q0-30.45-8.65-45.45Q87.85 10.6 64 10.6q-23.9 0-34.15 17.75-8.65 15-8.65 45.45 0 25.9 14.6 38.45Q47.05 122 64 122q16.8 0 28.1-9.65 14.65-12.55 14.65-38.55z" id="A"/><path fill="#444444" d="M40.15 72.35q-1.7 2-1.7 4.85 0 2.9 1.7 4.9 1.65 2 4.05 2 2.35 0 4.05-2 1.65-2.05 1.65-4.9 0-2.85-1.65-4.85-1.7-2.05-4.05-2.05-2.4 0-4.05 2.05z" id="B"/><path fill="#444444" d="M87.85 72.35q-1.7-2.05-4.05-2.05-2.4 0-4.05 2.05-1.7 2-1.7 4.85 0 2.85 1.7 4.9 1.65 2 4.05 2 2.35 0 4.05-2 1.65-2 1.65-4.9 0-2.85-1.65-4.85z" id="C"/><path fill="#513F35" d="M63.95 108.75q4.9 0 9-2.15 3.2-1.7 4.5-3.7.7-1.05.35-1.7-.35-.65-1.45-.65H51.6q-1.1 0-1.45.65-.35.65.35 1.7 1.3 2 4.5 3.7 4.1 2.15 8.95 2.15z" id="D"/><path fill="#C48E6A" d="M58 90q-.65-.15-.9.3-.3.4-.05.9.7 1.15 2.4 2.2 2.2 1.35 4.55 1.35 2.35 0 4.5-1.35 1.7-1.05 2.4-2.2.25-.5 0-.9-.3-.45-.95-.3-3.15.9-5.95.9-2.85 0-6-.9z" id="E"/><path fill="#BFA055" d="M63.35 24.5v-.8q-.4-6.25-5.65-10.85-7.2-6.3-21.15-6.5H35.5q-13.95.2-21.1 6.5-5.3 4.6-5.65 10.85-.05.4-.05.8v14.55q.35-.3.95-.75.4-.35.95-.6l.4-.2 1.05 6.95Q17.8 35.5 19.4 25.7q4.55 3 8.3 4.25 3.75 1.25 7.8 1.2h1.05q6.7-.05 12.3-.7l4.1-.45q.1 0 .2.1L60 44.45l1.05-6.95.45.2q.5.25.9.55.65.5.95.8V24.5z" id="F"/><path fill="#2F2F2F" d="M30.9 12q0-3.45-1.6-6.75-1.55-3.15-2.85-3.15-1.35 0-2.85 3Q22 8.35 22 12q0 3.8 1.6 7 1.5 2.9 2.85 2.9 1.25 0 2.75-2.9 1.7-3.25 1.7-7z" id="G"/><path fill="#FF7CE5" d="M28.2 10l-1.75-3.15Q25.3 8.1 24.7 10q-1.2 3.85 1.75 7.3 2.9-3.45 1.75-7.3z" id="H"/><path fill="#2F2F2F" d="M45.2 5.1q-1.5-3-2.9-3-1.25 0-2.8 3.15Q37.85 8.6 37.85 12q0 3.75 1.7 7 1.5 2.9 2.75 2.9 1.4 0 2.9-2.9 1.6-3.15 1.6-7 0-3.65-1.6-6.9z" id="I"/><path fill="#FF7CE5" d="M42.3 6.85Q41.15 8.1 40.55 10q-1.15 3.85 1.75 7.3 2.95-3.45 1.75-7.3L42.3 6.85z" id="J"/><path fill="#2F2F2F" d="M47.65 26.25q.2-.2.05-.4-5.35-6.7-13.3-6.55-8.15-.15-13.3 6.55-.15.2 0 .4.2.15.4.05 4.15-2.45 6.4-3.2 2.35-.75 6.5-.9 4.1.15 6.45.9 2.3.75 6.45 3.2.2.1.35-.05z" id="K"/><path fill="#444444" d="M26 46.65H12.5l4.25 3.2q.275.236.9.6l1.55.85q.396-.919 1.8-.4l1.3-.95 3.7-3.3z" id="L"/><path fill="#444444" d="M25.35 46.05l-12.3.1-.55.5.85.45h11.7l.95-.45-.65-.6z" id="M"/><path fill="#444444" d="M13.55 55.25h5.5l.5-4.75-7.05-3.85q.04 4.3 1.05 8.6z" id="N"/><path fill="#444444" d="M22.8 54.3l4.8-3q-.897-2.167-1.6-4.65l-5.5 3.6 2.3 4.05z" id="O"/><path fill="#444444" d="M62.95 118.75l-10.05-12.8q-1.45 1.15-1.8 3.05-.4 1.95.7 3.3 2.3 2.9 3.5 4.1 1.95 2.05 3.5 2.6 1.25.45 2.55.3 1.05-.1 1.6-.55z" id="P"/><path fill="#444444" d="M52.9 105.95l10.05 12.8q.55-.45.9-1.45.45-1.15.3-2.5-.15-1.7-1.65-4.05-.95-1.55-3.2-4.35-1.05-1.35-3.05-1.45-1.95-.1-3.35 1z" id="Q"/><path fill="#FBC11B" d="M47.85 94.9q-1.95 0-3.3 1.35-1.35 1.4-1.35 3.3t1.35 3.3q1.35 1.35 3.3 1.35 1.9 0 3.3-1.35 1.35-1.4 1.35-3.3t-1.35-3.3q-1.4-1.35-3.3-1.35z" id="R"/><path fill="#E0BB95" d="M52.05 97.65l-7.4-17-10.4 4.75 9.4 16.2 8.4-3.95z" id="S"/><path fill="#E0BB95" d="M55.1 113.75l4.9-3.8-8.35-13.25-7.35 5.85 10.8 11.2z" id="T"/><path fill="#E0BB95" d="M33.5 80.6H22.8l3.6 43.4h8.3l-1.2-43.4z" id="U"/><path fill="#444444" d="M35.8 124.35v-1.85q0-1.7-1.15-2.85-1.2-1.15-2.85-1.15H29q-1.65 0-2.8 1.15-1.2 1.15-1.2 2.85v1.85h10.8z" id="V"/><path fill="#FBC11B" d="M6.5 72q-.2 1.3.6 2.3.8 1.05 2.1 1.2 1.3.2 2.3-.6 1.05-.8 1.2-2.1.2-1.3-.6-2.3-.8-1.05-2.1-1.2-1.25-.2-2.3.6-1.05.8-1.2 2.1z" id="W"/><path fill="#E0BB95" d="M20.15 61.25q-2.4-3.3-2.7-3-3.9 4-10.2 12.05L12 74.45l1.15-1.25q1.45-1.55 5.55-5.2l3.8-3.4q-1.15-1.7-2.35-3.35z" id="X"/><path fill="#444444" d="M34.4 72.4V54q-4.4 0-9.25.9-3.1.65-5.4 1.75-2.45 1.2-4.95 3.3l7.55 7.85 12.05 4.6z" id="Y"/><path fill="#E0BB95" d="M22.5 81.95q-.05-1.15-.85-1.95l-6.35-6.5q-1.65-1.65-3.4-3.9l-4.65 4.9q5.8 5.9 10.2 9.7.95.95 2.25.9 1.35-.1 2.15-1.1.7-.9.65-2.05z" id="Z"/><path fill="#FBC11B" d="M58.75 69.3q-1.3.15-2.1 1.2-.8 1-.6 2.3.15 1.3 1.2 2.1 1 .8 2.3.6 1.3-.15 2.1-1.2t.6-2.3q-.15-1.3-1.2-2.1t-2.3-.6z" id="aa"/><path fill="#E0BB95" d="M51.3 58.25q-.3-.3-2.7 3-1.2 1.65-2.35 3.35l3.8 3.4q4.1 3.65 5.55 5.2l1.15 1.25 4.75-4.15q-6.35-8.05-10.2-12.05z" id="ab"/><path fill="#444444" d="M34.4 54v18.4l12-4.6 7.6-7.85q-2.55-2.15-4.95-3.3-2.3-1.1-5.45-1.75-4.85-.9-9.2-.9z" id="ac"/><path fill="#E0BB95" d="M47.1 80q-.8.8-.85 1.95-.05 1.15.65 2.05.85 1 2.15 1.1 1.3.05 2.25-.9 4.4-3.8 10.2-9.7l-4.65-4.9q-1.75 2.25-3.4 3.9L47.1 80z" id="ad"/><path fill="#444444" d="M31.45 59.25v14.2h4.75v-14.2h-4.75z" id="ae"/><path fill="#444444" d="M36.75 82.95v-18h-14.4v18h14.4z" id="af"/><path fill="#444444" d="M34.35 64.95v18h12v-18h-12z" id="ag"/><path fill="#E0BB95" d="M26.75 62.3q3.15 2.3 7.65 2.3 4.45 0 7.6-2.3 3.15-2.3 3.15-5.55L45.1 56q-.55-.25-1.5-.5-3.45-.9-9.2-.9-5.8 0-9.25.9-.95.25-1.5.5l-.05.75q0 3.25 3.15 5.55z" id="ah"/><path fill="#FBC11B" d="M34.4 60.25q2 0 3.3-1.2 1.3-1.25 1.3-3.2v-4.6h-9.25v4.6q0 1.95 1.35 3.2 1.3 1.2 3.3 1.2z" id="ai"/><path fill="#E7A13D" d="M37 48.8h-5.2q-.9 0-1.5.8-.55.75-.55 1.7v4.5l1.25.35q1.6.3 3.4.3 2.8 0 4.6-.7V51.2q0-.95-.55-1.65-.6-.75-1.45-.75z" id="aj"/><path fill="#C48E6A" d="M34.4 60.65q1.95 0 3.35-1.35 1.35-1.4 1.35-3.35v-4h-9.4v4q0 1.95 1.4 3.35 1.35 1.35 3.3 1.35z" id="ak"/><path fill="#BFA055" d="M45.05 35.9q2.05 1.45 3.7 2.1V25.2q-1.05-2.1-3.35-4.25-4.55-4.25-10.85-4.25t-10.9 4.15q-2.3 2.1-3.35 4.15v13q6.2-1.05 12.2-4.8 3.45-2.15 5.95-4.55.25-.25.45.05 2.05 4.2 6.15 7.2z" id="al"/><path fill="#E0BB95" d="M57.35 108.5q-1.25 0-2.2.9-.9.95-.9 2.2 0 1.3.9 2.2.95.9 2.2.9 1.3 0 2.2-.9.9-.9.9-2.2 0-1.25-.9-2.2-.9-.9-2.2-.9z" id="am"/><path fill="#C48E6A" d="M106.9 66.05h-3.6v20.3q4.75 0 7.85-2.4 3.6-2.8 3.6-8.05 0-5.3-3.9-8.1l-3.95-1.75z" id="an"/><path fill="#C48E6A" d="M24.7 66.05h-3.65l-3.9 1.75q-3.95 2.8-3.95 8.1 0 5.25 3.6 8.05 3.1 2.4 7.9 2.4v-20.3z" id="ao"/><path fill="#E0BB95" d="M106.75 73.8q0-30.45-8.65-45.45Q87.85 10.6 64 10.6q-23.9 0-34.15 17.75-8.65 15-8.65 45.45 0 25.9 14.6 38.45Q47.05 122 64 122q16.8 0 28.1-9.65 14.65-12.55 14.65-38.55z" id="ap"/><path fill="#444444" d="M40.15 72.35q-1.7 2-1.7 4.85 0 2.9 1.7 4.9 1.65 2 4.05 2 2.35 0 4.05-2 1.65-2.05 1.65-4.9 0-2.85-1.65-4.85-1.7-2.05-4.05-2.05-2.4 0-4.05 2.05z" id="aq"/><path fill="#444444" d="M87.85 72.35q-1.7-2.05-4.05-2.05-2.4 0-4.05 2.05-1.7 2-1.7 4.85 0 2.85 1.7 4.9 1.65 2 4.05 2 2.35 0 4.05-2 1.65-2 1.65-4.9 0-2.85-1.65-4.85z" id="ar"/><path fill="#513F35" d="M63.95 108.75q4.9 0 9-2.15 3.2-1.7 4.5-3.7.7-1.05.35-1.7-.35-.65-1.45-.65H51.6q-1.1 0-1.45.65-.35.65.35 1.7 1.3 2 4.5 3.7 4.1 2.15 8.95 2.15z" id="as"/><path fill="#C48E6A" d="M58 90q-.65-.15-.9.3-.3.4-.05.9.7 1.15 2.4 2.2 2.2 1.35 4.55 1.35 2.35 0 4.5-1.35 1.7-1.05 2.4-2.2.25-.5 0-.9-.3-.45-.95-.3-3.15.9-5.95.9-2.85 0-6-.9z" id="at"/><path fill="#BFA055" d="M63.35 24.5v-.8q-.4-6.25-5.65-10.85-7.2-6.3-21.15-6.5H35.5q-13.95.2-21.1 6.5-5.3 4.6-5.65 10.85-.05.4-.05.8v14.55q.35-.3.95-.75.4-.35.95-.6l.4-.2 1.05 6.95Q17.8 35.5 19.4 25.7q4.55 3 8.3 4.25 3.75 1.25 7.8 1.2h1.05q6.7-.05 12.3-.7l4.1-.45q.1 0 .2.1L60 44.45l1.05-6.95.45.2q.5.25.9.55.65.5.95.8V24.5z" id="au"/><path fill="#2F2F2F" d="M30.9 12q0-3.45-1.6-6.75-1.55-3.15-2.85-3.15-1.35 0-2.85 3Q22 8.35 22 12q0 3.8 1.6 7 1.5 2.9 2.85 2.9 1.25 0 2.75-2.9 1.7-3.25 1.7-7z" id="av"/><path fill="#FF7CE5" d="M28.2 10l-1.75-3.15Q25.3 8.1 24.7 10q-1.2 3.85 1.75 7.3 2.9-3.45 1.75-7.3z" id="aw"/><path fill="#2F2F2F" d="M45.2 5.1q-1.5-3-2.9-3-1.25 0-2.8 3.15Q37.85 8.6 37.85 12q0 3.75 1.7 7 1.5 2.9 2.75 2.9 1.4 0 2.9-2.9 1.6-3.15 1.6-7 0-3.65-1.6-6.9z" id="ax"/><path fill="#FF7CE5" d="M42.3 6.85Q41.15 8.1 40.55 10q-1.15 3.85 1.75 7.3 2.95-3.45 1.75-7.3L42.3 6.85z" id="ay"/><path fill="#2F2F2F" d="M47.65 26.25q.2-.2.05-.4-5.35-6.7-13.3-6.55-8.15-.15-13.3 6.55-.15.2 0 .4.2.15.4.05 4.15-2.45 6.4-3.2 2.35-.75 6.5-.9 4.1.15 6.45.9 2.3.75 6.45 3.2.2.1.35-.05z" id="az"/><path fill="#444444" d="M26 46.65H12.5l4.25 3.2q.275.236.9.6l1.55.85q.396-.919 1.8-.4l1.3-.95 3.7-3.3z" id="aA"/><path fill="#444444" d="M25.35 46.05l-12.3.1-.55.5.85.45h11.7l.95-.45-.65-.6z" id="aB"/><path fill="#444444" d="M13.55 55.25h5.5l.5-4.75-7.05-3.85q.04 4.3 1.05 8.6z" id="aC"/><path fill="#444444" d="M22.8 54.3l4.8-3q-.897-2.167-1.6-4.65l-5.5 3.6 2.3 4.05z" id="aD"/></defs><use xlink:href="#a" transform="matrix(.56245 0 0 .56245 32.3 0)"/><use xlink:href="#b" transform="matrix(.56245 0 0 .56245 32.3 0)"/><use xlink:href="#c" transform="translate(32.3) scale(.5625)"/><use xlink:href="#d" transform="translate(32.3) scale(.5625)"/><use xlink:href="#e" transform="translate(32.3) scale(.5625)"/><use xlink:href="#f" transform="matrix(.56245 0 0 .56245 32.3 0)"/><use xlink:href="#g" transform="matrix(.56245 0 0 .56245 32.3 0)"/><use xlink:href="#h" transform="translate(32.3) scale(.5625)"/><use xlink:href="#i" transform="translate(32.3) scale(.5625)"/><use xlink:href="#j" transform="translate(32.3) scale(.5625)"/><use xlink:href="#k" transform="translate(32.3) scale(.5625)"/><use xlink:href="#l" transform="translate(32.3) scale(.5625)"/><use xlink:href="#m" transform="translate(32.3) scale(.5625)"/><use xlink:href="#n" transform="translate(32.3) scale(.5625)"/><use xlink:href="#o" transform="translate(32.3) scale(.5625)"/><use xlink:href="#p" transform="translate(32.3) scale(.5625)"/><use xlink:href="#q" transform="translate(32.3) scale(.5625)"/><use xlink:href="#r" transform="translate(32.3) scale(.5625)"/><use xlink:href="#s" transform="translate(32.3) scale(.5625)"/><use xlink:href="#t" transform="matrix(.56245 0 0 .56245 32.3 0)"/><use xlink:href="#u" transform="matrix(.56245 0 0 .56245 32.3 0)"/><use xlink:href="#v" transform="translate(32.3) scale(.5625)"/><use xlink:href="#w" transform="translate(32.3) scale(.5625)"/><use xlink:href="#x" transform="translate(32.3) scale(.5625)"/><use xlink:href="#y" transform="translate(39.9 8.05) scale(.18376)"/><use xlink:href="#z" transform="translate(39.9 8.05) scale(.18376)"/><use xlink:href="#A" transform="matrix(.18384 0 0 .18384 39.9 8.2)"/><use xlink:href="#B" transform="matrix(.18384 0 0 .18384 39.9 8.2)"/><use xlink:href="#C" transform="matrix(.18384 0 0 .18384 39.9 8.2)"/><use xlink:href="#D" transform="matrix(.18384 0 0 .18384 39.9 8.2)"/><use xlink:href="#E" transform="matrix(.18384 0 0 .18384 39.9 8.2)"/><use xlink:href="#F" transform="matrix(.32687 0 0 .32687 39.9 8.05)"/><use xlink:href="#G" transform="matrix(.5624 0 0 .5624 32.3 0)"/><use xlink:href="#H" transform="matrix(.5624 0 0 .5624 32.3 0)"/><use xlink:href="#I" transform="matrix(.5624 0 0 .5624 32.3 0)"/><use xlink:href="#J" transform="matrix(.5624 0 0 .5624 32.3 0)"/><use xlink:href="#K" transform="matrix(.56245 0 0 .56245 32.3 0)"/><use xlink:href="#L" transform="translate(32.35)"/><use xlink:href="#M" transform="translate(32.35)"/><use xlink:href="#N" transform="translate(32.35)"/><use xlink:href="#O" transform="translate(32.35)"/><use xlink:href="#P" transform="matrix(.56247 0 0 .56247 -.05 0)"/><use xlink:href="#Q" transform="matrix(.56247 0 0 .56247 -.05 0)"/><use xlink:href="#R" transform="translate(-.05) scale(.5625)"/><use xlink:href="#S" transform="translate(-.05) scale(.5625)"/><use xlink:href="#T" transform="translate(-.05) scale(.5625)"/><use xlink:href="#U" transform="matrix(.56247 0 0 .56247 -.05 0)"/><use xlink:href="#V" transform="matrix(.56247 0 0 .56247 -.05 0)"/><use xlink:href="#W" transform="translate(-.05) scale(.5625)"/><use xlink:href="#X" transform="translate(-.05) scale(.5625)"/><use xlink:href="#Y" transform="translate(-.05) scale(.5625)"/><use xlink:href="#Z" transform="translate(-.05) scale(.5625)"/><use xlink:href="#aa" transform="translate(-.05) scale(.5625)"/><use xlink:href="#ab" transform="translate(-.05) scale(.5625)"/><use xlink:href="#ac" transform="translate(-.05) scale(.5625)"/><use xlink:href="#ad" transform="translate(-.05) scale(.5625)"/><use xlink:href="#ae" transform="translate(-.05) scale(.5625)"/><use xlink:href="#af" transform="translate(-.05) scale(.5625)"/><use xlink:href="#ag" transform="translate(-.05) scale(.5625)"/><use xlink:href="#ah" transform="translate(-.05) scale(.5625)"/><use xlink:href="#ai" transform="matrix(.56247 0 0 .56247 -.05 0)"/><use xlink:href="#aj" transform="matrix(.56247 0 0 .56247 -.05 0)"/><use xlink:href="#ak" transform="translate(-.05) scale(.5625)"/><use xlink:href="#al" transform="translate(-.05) scale(.5625)"/><use xlink:href="#am" transform="translate(-.05) scale(.5625)"/><use xlink:href="#an" transform="matrix(.1838 0 0 .1838 7.55 8.05)"/><use xlink:href="#ao" transform="matrix(.1838 0 0 .1838 7.55 8.05)"/><use xlink:href="#ap" transform="matrix(.18385 0 0 .18385 7.55 8.2)"/><use xlink:href="#aq" transform="matrix(.18385 0 0 .18385 7.55 8.2)"/><use xlink:href="#ar" transform="matrix(.18385 0 0 .18385 7.55 8.2)"/><use xlink:href="#as" transform="matrix(.18385 0 0 .18385 7.55 8.2)"/><use xlink:href="#at" transform="matrix(.18385 0 0 .18385 7.55 8.2)"/><use xlink:href="#au" transform="matrix(.32689 0 0 .32689 7.55 8.05)"/><use xlink:href="#av" transform="matrix(.56244 0 0 .56244 -.05 0)"/><use xlink:href="#aw" transform="matrix(.56244 0 0 .56244 -.05 0)"/><use xlink:href="#ax" transform="matrix(.56244 0 0 .56244 -.05 0)"/><use xlink:href="#ay" transform="matrix(.56244 0 0 .56244 -.05 0)"/><use xlink:href="#az" transform="matrix(.56247 0 0 .56247 -.05 0)"/><use xlink:href="#aA"/><use xlink:href="#aB"/><use xlink:href="#aC"/><use xlink:href="#aD"/></svg>