<svg xmlns="http://www.w3.org/2000/svg" xmlns:xlink="http://www.w3.org/1999/xlink" preserveAspectRatio="none" viewBox="0 0 72 72"><defs><path fill="#BFA055" d="M120.05 46.85q.35-9.15.35-16.15H68.8q0 7.75.5 17.35 1 19.1 3.5 28.1 1.65 6.1 3.65 7.9Q79 86.4 83.1 83.3l22.9-.2q4.2 3.2 7.45.85 2.9-2.15 3.95-8 1.9-10.8 2.65-29.1z" id="a"/><path fill="#7E57C2" d="M107.1 67.45q-11.2-2.7-22.05-.8-9.35 1.6-15 7.05Q64 79.6 64 88.45v40.1l64-.05V88.45q0-8.1-6.25-13.8-5.5-5.05-14.65-7.2z" id="b"/><path fill="#E0BB95" d="M128.1 97.15h-8v31.35h8V97.15z" id="c"/><path fill="#C48E6A" d="M94.65 74.15q2.9 0 4.95-2.05 2.05-2.05 2.05-4.95v-6h-14v6q0 2.9 2.05 4.95 2.05 2.05 4.95 2.05z" id="d"/><path fill="#BFA055" d="M112.9 46.95q7.55-6.8 7.55-16.4 0-9.6-7.55-16.4-7.55-6.8-18.25-6.8t-18.25 6.8q-7.55 6.8-7.55 16.4 0 9.6 7.55 16.4 7.55 6.8 18.25 6.8t18.25-6.8z" id="e"/><path fill="#E0BB95" d="M110.6 21.25q-4.8-8.3-15.95-8.3-11.15 0-15.95 8.3-4.05 7.05-4.05 21.25 0 11.6 7.1 17.75 5.6 4.8 12.9 4.8 7.35 0 12.9-4.8 7.1-6.1 7.1-17.75 0-14.2-4.05-21.25z" id="f"/><path fill="#BFA055" d="M100.7 26.5q.35-.35.65.1 3.05 6.3 9.2 10.7 3.05 2.2 5.5 3.15V21.4q-1.55-3.15-5-6.35-6.85-6.35-16.2-6.35t-16.2 6.2q-2.1 1.9-3.75 4.2l-1.2 1.95v19.4q9.2-1.6 18.15-7.15 5.05-3.2 8.85-6.8z" id="g"/><path fill="#4C3734" d="M100.65 54.55h-12q-.55 0-.7.3-.2.35.15.85.65 1 2.2 1.8 2 1.05 4.35 1.05 2.35 0 4.35-1.05 1.55-.8 2.2-1.8.35-.5.15-.85-.15-.3-.7-.3z" id="h"/><path fill="#C48E6A" d="M98 49.95q-.15-.2-.45-.15-1.5.45-2.9.45t-2.9-.45q-.3-.05-.45.15-.15.2 0 .45.3.55 1.15 1.05 1.05.65 2.2.65 1.15 0 2.2-.65.8-.5 1.15-1.05.1-.25 0-.45z" id="i"/><path fill="#E0BB95" d="M128.1 97.15h-8v31.35h8V97.15z" id="j"/><path fill="#444444" d="M87.8 43.2q0-1.4-.8-2.35-.8-1-1.95-1t-2 1q-.8.95-.8 2.35 0 1.4.8 2.35.85 1 2 1t1.95-1q.8-.95.8-2.35z" id="k"/><path fill="#444444" d="M102.3 40.85q-.8.95-.8 2.35 0 1.4.8 2.35.8 1 1.95 1t2-1q.8-.95.8-2.35 0-1.4-.8-2.35-.85-1-2-1t-1.95 1z" id="l"/><path fill="#D8BEFF" d="M60.9 129.1q.3 0-.05-6.9v-.25q0-6.55-6.9-10.4-5.2-2.95-10.2-2.95H34.2q-5 0-10.2 2.95-6.95 3.85-6.95 10.4-.3 7.15 0 7.15H60.9z" id="m"/><path fill="#C48E6A" d="M42.5 115.1q1.25-1.3 1.25-3.05v-2.4H34.2v2.4q0 1.75 1.25 3.05 1.3 1.25 3.05 1.25h.95q1.75 0 3.05-1.25z" id="n"/><path fill="#BFA055" d="M102.5 91.65q16-14.75 16-35.55 0-20.85-16-35.55Q86.55 5.8 64 5.8q-22.6 0-38.55 14.75Q9.5 35.25 9.5 56.1q0 20.8 15.95 35.55 16 14.75 38.55 14.75 22.55 0 38.5-14.75z" id="o"/><path fill="#C48E6A" d="M108.6 69.8h-3.8v21.4q5.05 0 8.3-2.55 3.8-2.95 3.8-8.45 0-5.6-4.15-8.55l-4.15-1.85z" id="p"/><path fill="#C48E6A" d="M23.15 69.8h-3.8l-4.15 1.85q-4.15 2.95-4.15 8.55 0 5.5 3.8 8.45 3.25 2.55 8.3 2.55V69.8z" id="q"/><path fill="#BFA055" d="M63.35 59.8q-.3-1.9-1.2-3.5-1.85-3.2-6.05-3.4-3.55-.15-6 2.35-2.55 2.6-1.8 6 1 4.4 5.6 6.2 4.2 1.65 8.5.25 1.1-.35 2.2-1.15 1.5-1.15 1.15-2.05-.15-.25-.7-.5-.65-.25-.8-.4-.55-.45-.7-1.8-.1-1.5-.2-2z" id="r"/><path fill="#BFA055" d="M39.2 98.45Q34.9 94 28.55 94.1q-7.45.15-10.8 5.85-1.55 2.55-2.25 6.15-.15.9-.4 3.6-.35 2.4-1.35 3.15-.25.2-1.4.7-.95.4-1.2.9-.8 1.6 1.9 3.6 2 1.55 3.85 2.1 7.65 2.6 15.15-.2 8.25-3.05 10.15-10.8 1.45-6.1-3-10.7z" id="s"/><path fill="#E0BB95" d="M95.55 43q-5.35-6.7-14.5-10.3-8.1-3.2-17.05-3.2-8.95 0-17.1 3.2-9.15 3.6-14.5 10.3-11.25 14-11.2 37 .05 10.05 2.85 17.2 3.05 7.7 9.85 13.35 13.25 11.1 29.45 11.1 8.25 0 16.2-2.75 8.4-2.95 14.5-8.3 6.7-5.9 9.75-13.45 2.9-7.25 2.95-17.15.05-23-11.2-37z" id="t"/><path fill="#C48E6A" d="M57.75 89.65q-.65-.2-1 .3-.3.45 0 .95.7 1.2 2.5 2.3 2.25 1.4 4.75 1.4 2.45 0 4.75-1.4 1.75-1.1 2.45-2.3.3-.5 0-.95-.3-.5-.95-.3-3.2.95-6.25.95t-6.25-.95z" id="u"/><path fill="#513F35" d="M64 108.45q5.05 0 9.35-2.3 3.3-1.75 4.7-3.85.75-1.05.35-1.75-.35-.7-1.5-.7H51.05q-1.15 0-1.5.7-.35.7.35 1.75 1.35 2.1 4.7 3.85 4.3 2.3 9.4 2.3z" id="v"/><path fill="#BFA055" d="M111.55 67.65l4.9-15.05-4.7-16.75-35.55-23.7H51.55L16 35.85 11.35 52.6l4.9 15.05 3.45 6.7Q32.65 71.4 46.3 63.1q11.85-7.2 16.95-13.55.25-.3.65-.3t.6.3q5.15 6.4 16.8 13.5 13.5 8.25 26.8 11.3l3.45-6.7z" id="w"/><path fill="#444444" d="M40.15 72.35q-1.7 2-1.7 4.85 0 2.9 1.7 4.9 1.65 2 4.05 2 2.35 0 4.05-2 1.65-2.05 1.65-4.9 0-2.85-1.65-4.85-1.7-2.05-4.05-2.05-2.4 0-4.05 2.05z" id="x"/><path fill="#444444" d="M87.85 72.35q-1.7-2.05-4.05-2.05-2.4 0-4.05 2.05-1.7 2-1.7 4.85 0 2.85 1.7 4.9 1.65 2 4.05 2 2.35 0 4.05-2 1.65-2 1.65-4.9 0-2.85-1.65-4.85z" id="y"/><path fill="#D8BEFF" d="M60.9 129.1q.3 0-.05-6.9v-.25q0-6.55-6.9-10.4-5.2-2.95-10.2-2.95H34.2q-5 0-10.2 2.95-6.95 3.85-6.95 10.4-.3 7.15 0 7.15H60.9z" id="z"/><path fill="#C48E6A" d="M42.5 115.1q1.25-1.3 1.25-3.05v-2.4H34.2v2.4q0 1.75 1.25 3.05 1.3 1.25 3.05 1.25h.95q1.75 0 3.05-1.25z" id="A"/><path fill="#BFA055" d="M102.5 91.65q16-14.75 16-35.55 0-20.85-16-35.55Q86.55 5.8 64 5.8q-22.6 0-38.55 14.75Q9.5 35.25 9.5 56.1q0 20.8 15.95 35.55 16 14.75 38.55 14.75 22.55 0 38.5-14.75z" id="B"/><path fill="#C48E6A" d="M108.6 69.8h-3.8v21.4q5.05 0 8.3-2.55 3.8-2.95 3.8-8.45 0-5.6-4.15-8.55l-4.15-1.85z" id="C"/><path fill="#C48E6A" d="M23.15 69.8h-3.8l-4.15 1.85q-4.15 2.95-4.15 8.55 0 5.5 3.8 8.45 3.25 2.55 8.3 2.55V69.8z" id="D"/><path fill="#BFA055" d="M63.35 59.8q-.3-1.9-1.2-3.5-1.85-3.2-6.05-3.4-3.55-.15-6 2.35-2.55 2.6-1.8 6 1 4.4 5.6 6.2 4.2 1.65 8.5.25 1.1-.35 2.2-1.15 1.5-1.15 1.15-2.05-.15-.25-.7-.5-.65-.25-.8-.4-.55-.45-.7-1.8-.1-1.5-.2-2z" id="E"/><path fill="#BFA055" d="M39.2 98.45Q34.9 94 28.55 94.1q-7.45.15-10.8 5.85-1.55 2.55-2.25 6.15-.15.9-.4 3.6-.35 2.4-1.35 3.15-.25.2-1.4.7-.95.4-1.2.9-.8 1.6 1.9 3.6 2 1.55 3.85 2.1 7.65 2.6 15.15-.2 8.25-3.05 10.15-10.8 1.45-6.1-3-10.7z" id="F"/><path fill="#E0BB95" d="M95.55 43q-5.35-6.7-14.5-10.3-8.1-3.2-17.05-3.2-8.95 0-17.1 3.2-9.15 3.6-14.5 10.3-11.25 14-11.2 37 .05 10.05 2.85 17.2 3.05 7.7 9.85 13.35 13.25 11.1 29.45 11.1 8.25 0 16.2-2.75 8.4-2.95 14.5-8.3 6.7-5.9 9.75-13.45 2.9-7.25 2.95-17.15.05-23-11.2-37z" id="G"/><path fill="#C48E6A" d="M57.75 89.65q-.65-.2-1 .3-.3.45 0 .95.7 1.2 2.5 2.3 2.25 1.4 4.75 1.4 2.45 0 4.75-1.4 1.75-1.1 2.45-2.3.3-.5 0-.95-.3-.5-.95-.3-3.2.95-6.25.95t-6.25-.95z" id="H"/><path fill="#513F35" d="M64 108.45q5.05 0 9.35-2.3 3.3-1.75 4.7-3.85.75-1.05.35-1.75-.35-.7-1.5-.7H51.05q-1.15 0-1.5.7-.35.7.35 1.75 1.35 2.1 4.7 3.85 4.3 2.3 9.4 2.3z" id="I"/><path fill="#BFA055" d="M111.55 67.65l4.9-15.05-4.7-16.75-35.55-23.7H51.55L16 35.85 11.35 52.6l4.9 15.05 3.45 6.7Q32.65 71.4 46.3 63.1q11.85-7.2 16.95-13.55.25-.3.65-.3t.6.3q5.15 6.4 16.8 13.5 13.5 8.25 26.8 11.3l3.45-6.7z" id="J"/><path fill="#444444" d="M40.15 72.35q-1.7 2-1.7 4.85 0 2.9 1.7 4.9 1.65 2 4.05 2 2.35 0 4.05-2 1.65-2.05 1.65-4.9 0-2.85-1.65-4.85-1.7-2.05-4.05-2.05-2.4 0-4.05 2.05z" id="K"/><path fill="#444444" d="M87.85 72.35q-1.7-2.05-4.05-2.05-2.4 0-4.05 2.05-1.7 2-1.7 4.85 0 2.85 1.7 4.9 1.65 2 4.05 2 2.35 0 4.05-2 1.65-2 1.65-4.9 0-2.85-1.65-4.85z" id="L"/></defs><use xlink:href="#a" transform="translate(-17.2 -.3) scale(.5625)"/><use xlink:href="#b" transform="translate(-18 -.3) scale(.5625)"/><use xlink:href="#c" transform="translate(-18 -.3) scale(.5625)"/><use xlink:href="#d" transform="translate(-17.25 -.3) scale(.5625)"/><use xlink:href="#e" transform="translate(-17.25 -.3) scale(.5625)"/><use xlink:href="#f" transform="translate(-17.25 -.3) scale(.5625)"/><use xlink:href="#g" transform="translate(-17.35 -.3) scale(.5625)"/><use xlink:href="#h" transform="translate(-17.2 -.3) scale(.5625)"/><use xlink:href="#i" transform="translate(-17.2 -.3) scale(.5625)"/><use xlink:href="#j" transform="translate(-49.6 -.3) scale(.5625)"/><use xlink:href="#k" transform="translate(-17.2 -.3) scale(.5625)"/><use xlink:href="#l" transform="translate(-17.2 -.3) scale(.5625)"/><use xlink:href="#m" transform="translate(1.3 1.45) scale(.54637)"/><use xlink:href="#n" transform="translate(1.3 1.45) scale(.54637)"/><use xlink:href="#o" transform="matrix(.20757 0 0 .20749 9.35 36.5)"/><use xlink:href="#p" transform="matrix(.20749 0 0 .20741 9.35 36.5)"/><use xlink:href="#q" transform="matrix(.20749 0 0 .20741 9.35 36.5)"/><use xlink:href="#r" transform="matrix(.36899 0 0 .36882 9.35 36.5)"/><use xlink:href="#s" transform="matrix(.20744 0 0 .20737 9.35 36.5)"/><use xlink:href="#t" transform="matrix(.20749 0 0 .20741 9.35 36.5)"/><use xlink:href="#u" transform="matrix(.20757 0 0 .20749 9.35 36.5)"/><use xlink:href="#v" transform="matrix(.20757 0 0 .20749 9.35 36.5)"/><use xlink:href="#w" transform="matrix(.20757 0 0 .20749 9.35 36.5)"/><use xlink:href="#x" transform="matrix(.2075 0 0 .20743 9.15 37.05)"/><use xlink:href="#y" transform="matrix(.2075 0 0 .20743 9.15 37.05)"/><use xlink:href="#z" transform="translate(28.15 1.45) scale(.54637)"/><use xlink:href="#A" transform="translate(28.15 1.45) scale(.54637)"/><use xlink:href="#B" transform="matrix(.20755 0 0 .20747 36.2 36.5)"/><use xlink:href="#C" transform="matrix(.20746 0 0 .20738 36.2 36.5)"/><use xlink:href="#D" transform="matrix(.20746 0 0 .20738 36.2 36.5)"/><use xlink:href="#E" transform="matrix(.36894 0 0 .36877 36.2 36.5)"/><use xlink:href="#F" transform="matrix(.2074 0 0 .20732 36.2 36.5)"/><use xlink:href="#G" transform="matrix(.20746 0 0 .20738 36.2 36.5)"/><use xlink:href="#H" transform="matrix(.20755 0 0 .20747 36.2 36.5)"/><use xlink:href="#I" transform="matrix(.20755 0 0 .20747 36.2 36.5)"/><use xlink:href="#J" transform="matrix(.20755 0 0 .20747 36.2 36.5)"/><use xlink:href="#K" transform="matrix(.20747 0 0 .2074 35.95 37.05)"/><use xlink:href="#L" transform="matrix(.20747 0 0 .2074 35.95 37.05)"/></svg>