<svg xmlns="http://www.w3.org/2000/svg" xmlns:xlink="http://www.w3.org/1999/xlink" preserveAspectRatio="none" viewBox="0 0 72 72"><defs><path fill="#CC9970" d="M24.4 63.2l.3-4.1-9.8 2.15-.65 1.75q-2 5.35-4.95 9.95l-6.45 10q-.7 1.05-.5 2.4.2 1.4 1.15 2.2 1.2.9 2.75.7 1.6-.2 2.4-1.45L24.4 63.2z" id="a"/><path fill="#00ACC1" d="M35.95 71V49.85q-6.65 0-10.6 1.05-5.25 1.4-7.8 4.3-1.95 2.15-3.85 7.35L35.95 71z" id="b"/><path fill="#CC9970" d="M57 61.25l-9.8-2.15.3 4.1 15.75 23.6q.8 1.25 2.45 1.45 1.55.2 2.7-.7 1-.8 1.15-2.2.2-1.35-.5-2.4l-6.45-10q-2.95-4.6-4.95-9.95L57 61.25z" id="c"/><path fill="#00ACC1" d="M35.95 49.85V71l22.25-8.45q-1.9-5.2-3.85-7.35-2.55-2.9-7.8-4.3-3.9-1.05-10.6-1.05z" id="d"/><path fill="#616161" d="M32.85 81.95H22.1v45.7h10.75v-45.7z" id="e"/><path fill="#444444" d="M34.25 128v-3.5q0-1.65-1.15-2.8-1.2-1.2-2.85-1.2h-5.5q-1.7 0-2.85 1.2-1.15 1.15-1.15 2.8v3.5h13.5z" id="f"/><path fill="#616161" d="M49.7 81.9H39v45.75h10.7V81.9z" id="g"/><path fill="#444444" d="M47.1 120.5h-5.5q-1.65 0-2.8 1.2-1.2 1.15-1.2 2.8v3.5h13.5v-3.5q0-1.65-1.15-2.8-1.2-1.2-2.85-1.2z" id="h"/><path fill="#99674F" d="M35.95 57.5q2.2 0 3.75-1.55 1.55-1.55 1.55-3.75v-4.5h-10.6v4.5q0 2.2 1.55 3.75 1.55 1.55 3.75 1.55z" id="i"/><path fill="#99674F" d="M18.05 29.4q1 .2 2.15.2 1.9 0 3-.5v-2.9q0-.6-.35-1.05-.4-.5-.95-.5h-3.35q-.55 0-.95.5-.35.5-.35 1.1v2.9l.8.25z" id="j"/><path fill="#616161" d="M28 46.1H12.45v8.7h6.05v-.5q0-.55.35-.9.4-.4 1-.4h.75q.6 0 .95.4.4.4.4.9v.5H28v-8.7z" id="k"/><path fill="#00ACC1" d="M28 48.05v-12.9h-7.8v12.9H28z" id="l"/><path fill="#00ACC1" d="M12.45 35.1v10.95h7.75V35.1h-7.75z" id="m"/><path fill="#99674F" d="M106.9 66.05h-3.6v20.3q4.75 0 7.85-2.4 3.6-2.8 3.6-8.05 0-5.3-3.9-8.1l-3.95-1.75z" id="n"/><path fill="#99674F" d="M24.7 66.05h-3.65l-3.9 1.75q-3.95 2.8-3.95 8.1 0 5.25 3.6 8.05 3.1 2.4 7.9 2.4v-20.3z" id="o"/><path fill="#CC9970" d="M106.75 73.8q0-30.45-8.65-45.45Q87.85 10.6 64 10.6q-23.9 0-34.15 17.75-8.65 15-8.65 45.45 0 25.9 14.6 38.45Q47.05 122 64 122q16.8 0 28.1-9.65 14.65-12.55 14.65-38.55z" id="p"/><path fill="#444444" d="M40.15 72.35q-1.7 2-1.7 4.85 0 2.9 1.7 4.9 1.65 2 4.05 2 2.35 0 4.05-2 1.65-2.05 1.65-4.9 0-2.85-1.65-4.85-1.7-2.05-4.05-2.05-2.4 0-4.05 2.05z" id="q"/><path fill="#444444" d="M87.85 72.35q-1.7-2.05-4.05-2.05-2.4 0-4.05 2.05-1.7 2-1.7 4.85 0 2.85 1.7 4.9 1.65 2 4.05 2 2.35 0 4.05-2 1.65-2 1.65-4.9 0-2.85-1.65-4.85z" id="r"/><path fill="#513F35" d="M63.95 108.75q4.9 0 9-2.15 3.2-1.7 4.5-3.7.7-1.05.35-1.7-.35-.65-1.45-.65H51.6q-1.1 0-1.45.65-.35.65.35 1.7 1.3 2 4.5 3.7 4.1 2.15 8.95 2.15z" id="s"/><path fill="#99674F" d="M58 90q-.65-.15-.9.3-.3.4-.05.9.7 1.15 2.4 2.2 2.2 1.35 4.55 1.35 2.35 0 4.5-1.35 1.7-1.05 2.4-2.2.25-.5 0-.9-.3-.45-.95-.3-3.15.9-5.95.9-2.85 0-6-.9z" id="t"/><path fill="#6D4C41" d="M57.2 19.2q-.35-4.8-4.4-8.4-5.6-4.85-16.4-5.05h-.8q-10.85.2-16.4 5.05-4.1 3.6-4.35 8.4-.05.35-.05.65V31.1q.25-.2.75-.55.3-.3.7-.5l.35-.15.8 5.4q4.45-6.95 5.7-14.55 3.5 2.35 6.45 3.3 2.9 1 6.05.95h.8q5.2-.05 9.55-.55l3.15-.35q.1 0 .15.1l5.35 11.1.8-5.4.35.15q.4.2.7.45l.75.6V19.85v-.65z" id="u"/><path fill="#AD6F43" d="M24.4 63.2l.3-4.1-9.8 2.15-.65 1.75q-2 5.35-4.95 9.95l-6.45 10q-.7 1.05-.5 2.4.2 1.4 1.15 2.2 1.2.9 2.75.7 1.6-.2 2.4-1.45L24.4 63.2z" id="v"/><path fill="#B1C937" d="M35.95 71V49.85q-6.65 0-10.6 1.05-5.25 1.4-7.8 4.3-1.95 2.15-3.85 7.35L35.95 71z" id="w"/><path fill="#AD6F43" d="M57 61.25l-9.8-2.15.3 4.1 15.75 23.6q.8 1.25 2.45 1.45 1.55.2 2.7-.7 1-.8 1.15-2.2.2-1.35-.5-2.4l-6.45-10q-2.95-4.6-4.95-9.95L57 61.25z" id="x"/><path fill="#B1C937" d="M35.95 49.85V71l22.25-8.45q-1.9-5.2-3.85-7.35-2.55-2.9-7.8-4.3-3.9-1.05-10.6-1.05z" id="y"/><path fill="#616161" d="M32.85 81.95H22.1v45.7h10.75v-45.7z" id="z"/><path fill="#444444" d="M34.25 128v-3.5q0-1.65-1.15-2.8-1.2-1.2-2.85-1.2h-5.5q-1.7 0-2.85 1.2-1.15 1.15-1.15 2.8v3.5h13.5z" id="A"/><path fill="#616161" d="M49.7 81.9H39v45.75h10.7V81.9z" id="B"/><path fill="#444444" d="M47.1 120.5h-5.5q-1.65 0-2.8 1.2-1.2 1.15-1.2 2.8v3.5h13.5v-3.5q0-1.65-1.15-2.8-1.2-1.2-2.85-1.2z" id="C"/><path fill="#7A4C32" d="M51.7 32.35q1.25 0 2.15-.9.85-.85.85-2.1v-2.5h-5.95v2.5q0 1.25.85 2.1.9.9 2.1.9z" id="D"/><path fill="#7A4C32" d="M18.05 29.4q1 .2 2.15.2 1.9 0 3-.5v-2.9q0-.6-.35-1.05-.4-.5-.95-.5h-3.35q-.55 0-.95.5-.35.5-.35 1.1v2.9l.8.25z" id="E"/><path fill="#616161" d="M28 46.1H12.45v8.7h6.05v-.5q0-.55.35-.9.4-.4 1-.4h.75q.6 0 .95.4.4.4.4.9v.5H28v-8.7z" id="F"/><path fill="#B1C937" d="M28 48.05v-12.9h-7.8v12.9H28z" id="G"/><path fill="#B1C937" d="M12.45 35.1v10.95h7.75V35.1h-7.75z" id="H"/><path fill="#7A4C32" d="M106.9 66.05h-3.6v20.3q4.75 0 7.85-2.4 3.6-2.8 3.6-8.05 0-5.3-3.9-8.1l-3.95-1.75z" id="I"/><path fill="#7A4C32" d="M24.7 66.05h-3.65l-3.9 1.75q-3.95 2.8-3.95 8.1 0 5.25 3.6 8.05 3.1 2.4 7.9 2.4v-20.3z" id="J"/><path fill="#AD6F43" d="M106.75 73.8q0-30.45-8.65-45.45Q87.85 10.6 64 10.6q-23.9 0-34.15 17.75-8.65 15-8.65 45.45 0 25.9 14.6 38.45Q47.05 122 64 122q16.8 0 28.1-9.65 14.65-12.55 14.65-38.55z" id="K"/><path fill="#444444" d="M40.15 72.35q-1.7 2-1.7 4.85 0 2.9 1.7 4.9 1.65 2 4.05 2 2.35 0 4.05-2 1.65-2.05 1.65-4.9 0-2.85-1.65-4.85-1.7-2.05-4.05-2.05-2.4 0-4.05 2.05z" id="L"/><path fill="#444444" d="M87.85 72.35q-1.7-2.05-4.05-2.05-2.4 0-4.05 2.05-1.7 2-1.7 4.85 0 2.85 1.7 4.9 1.65 2 4.05 2 2.35 0 4.05-2 1.65-2 1.65-4.9 0-2.85-1.65-4.85z" id="M"/><path fill="#513F35" d="M63.95 108.75q4.9 0 9-2.15 3.2-1.7 4.5-3.7.7-1.05.35-1.7-.35-.65-1.45-.65H51.6q-1.1 0-1.45.65-.35.65.35 1.7 1.3 2 4.5 3.7 4.1 2.15 8.95 2.15z" id="N"/><path fill="#7A4C32" d="M58 90q-.65-.15-.9.3-.3.4-.05.9.7 1.15 2.4 2.2 2.2 1.35 4.55 1.35 2.35 0 4.5-1.35 1.7-1.05 2.4-2.2.25-.5 0-.9-.3-.45-.95-.3-3.15.9-5.95.9-2.85 0-6-.9z" id="O"/><path fill="#47352D" d="M61.7 11.65v-.3q-.2-2.3-2.15-4Q56.9 5 51.7 4.9h-.4q-5.2.1-7.85 2.45-1.95 1.7-2.1 4v5.7q.1-.1.35-.25.15-.15.35-.25l.15-.05.4 2.55q2.15-3.3 2.75-6.95 1.65 1.1 3.05 1.6 1.4.45 2.9.45h.4q2.5-.05 4.6-.3l1.5-.15q.05 0 .05.05l2.6 5.3.35-2.55.2.05q.2.1.35.2.2.2.35.3v-5.4z" id="P"/></defs><use xlink:href="#a" transform="translate(0 .05) scale(.5625)"/><use xlink:href="#b" transform="translate(0 .05) scale(.5625)"/><use xlink:href="#c" transform="translate(0 .05) scale(.5625)"/><use xlink:href="#d" transform="translate(0 .05) scale(.5625)"/><use xlink:href="#e" transform="scale(.5625 .56345)"/><use xlink:href="#f" transform="translate(0 .05) scale(.5625)"/><use xlink:href="#g" transform="translate(0 .1) scale(.5625)"/><use xlink:href="#h" transform="translate(0 .05) scale(.5625)"/><use xlink:href="#i" transform="translate(0 .05) scale(.5625)"/><use xlink:href="#j" transform="translate(0 .05)"/><use xlink:href="#k" transform="translate(0 .05)"/><use xlink:href="#l" transform="translate(0 .05)"/><use xlink:href="#m" transform="matrix(1 0 0 1.18265 0 -6.35)"/><use xlink:href="#n" transform="matrix(.20901 0 0 .20879 6.65 2.55)"/><use xlink:href="#o" transform="matrix(.20901 0 0 .20879 6.65 2.55)"/><use xlink:href="#p" transform="matrix(.20917 0 0 .20894 6.65 2.75)"/><use xlink:href="#q" transform="matrix(.20917 0 0 .20894 6.85 2.75)"/><use xlink:href="#r" transform="matrix(.20917 0 0 .20894 6.85 2.75)"/><use xlink:href="#s" transform="matrix(.20917 0 0 .20894 6.85 2.75)"/><use xlink:href="#t" transform="matrix(.20917 0 0 .20894 6.85 2.75)"/><use xlink:href="#u" transform="matrix(.47963 0 0 .47937 2.75 2.2)"/><use xlink:href="#v" transform="translate(31.55 .05) scale(.5625)"/><use xlink:href="#w" transform="translate(31.55 .05) scale(.5625)"/><use xlink:href="#x" transform="translate(31.55 .05) scale(.5625)"/><use xlink:href="#y" transform="translate(31.55 .05) scale(.5625)"/><use xlink:href="#z" transform="matrix(.5625 0 0 .56345 31.55 0)"/><use xlink:href="#A" transform="translate(31.55 .05) scale(.5625)"/><use xlink:href="#B" transform="translate(31.55 .1) scale(.5625)"/><use xlink:href="#C" transform="translate(31.55 .05) scale(.5625)"/><use xlink:href="#D" transform="translate(.05 .05)"/><use xlink:href="#E" transform="translate(31.55 .05)"/><use xlink:href="#F" transform="translate(31.55 .05)"/><use xlink:href="#G" transform="translate(31.55 .05)"/><use xlink:href="#H" transform="matrix(1 0 0 1.18265 31.55 -6.35)"/><use xlink:href="#I" transform="matrix(.20903 0 0 .2088 38.2 2.55)"/><use xlink:href="#J" transform="matrix(.20903 0 0 .2088 38.2 2.55)"/><use xlink:href="#K" transform="matrix(.20917 0 0 .20894 38.2 2.75)"/><use xlink:href="#L" transform="matrix(.20917 0 0 .20894 38.45 2.75)"/><use xlink:href="#M" transform="matrix(.20917 0 0 .20894 38.45 2.75)"/><use xlink:href="#N" transform="matrix(.20917 0 0 .20894 38.45 2.75)"/><use xlink:href="#O" transform="matrix(.20917 0 0 .20894 38.45 2.75)"/><use xlink:href="#P" transform="translate(.05 .05)"/></svg>