<svg xmlns="http://www.w3.org/2000/svg" xmlns:xlink="http://www.w3.org/1999/xlink" preserveAspectRatio="none" viewBox="0 0 72 72"><defs><path fill="#312D2D" d="M55.2 48.15q-1.2.2-2.1 1.1-1.15 1.15-1.15 2.75t1.15 2.75l.45.4q.225.175.45.3-.45.25-.9.7-.45.45-.7.95-.25-.05-.5-.05-1.6 0-2.75 1.15-.033.033-.1.05-.647.725-.9 1.6-.25.2-.45.4-1.15 1.15-1.15 2.75t1.15 2.75q1.15 1.15 2.75 1.15t2.75-1.15q.6-.6.85-1.3.8.4 1.75.4 1.6 0 2.75-1.15l.3-.3q.4.05.85.05 1.6 0 2.75-1.15.9-.9 1.1-2.05.75-.3 1.4-.95 1.15-1.15 1.15-2.75 0-1.2-.65-2.1.45-.3.8-.65 1.15-1.15 1.15-2.75 0-1.45-.95-2.55.45-.25.85-.65 1.15-1.15 1.15-2.75 0-1.2-.65-2.15.65-.948.65-2.15 0-1.6-1.15-2.75t-2.75-1.15q-1.6 0-2.75 1.15-.55.55-.85 1.25-1.55 0-2.7 1.15-1.15 1.15-1.15 2.75 0 .3.05.65-.5.25-.9.65-1.15 1.15-1.15 2.75 0 .45.1.9M4.75 38.05Q3.6 39.2 3.6 40.8q0 1.202.65 2.15-.65.948-.65 2.15 0 1.6 1.15 2.75.4.4.85.65-.95 1.094-.95 2.55 0 1.6 1.15 2.75.37.37.75.6-.6.96-.6 2.15 0 1.6 1.15 2.75.633.633 1.4.9.197 1.197 1.1 2.1 1.15 1.15 2.75 1.15.44 0 .85-.1.136.186.3.35 1.15 1.15 2.75 1.15.94 0 1.7-.4.31.71.9 1.3Q20 66.9 21.6 66.9t2.75-1.15Q25.5 64.6 25.5 63t-1.15-2.75q-.216-.216-.45-.4-.263-.913-1-1.65-1.15-1.15-2.75-1.15h-.5q-.267-.467-.7-.9-.427-.427-.95-.7.52-.27.95-.7Q20.1 53.6 20.1 52t-1.15-2.75q-.9-.9-2.1-1.1.1-.45.1-.9 0-1.6-1.15-2.75-.4-.4-.9-.65.05-.35.05-.65 0-1.6-1.15-2.75t-2.7-1.15q-.3-.7-.85-1.25Q9.1 36.9 7.5 36.9t-2.75 1.15z" id="a"/><path fill="#FADCBC" d="M106.75 73.45q0-28.7-8.9-42.6Q87.7 14.9 64.15 14.9q-23.55 0-33.9 16.1-9.05 14.15-9.05 42.8 0 24 15.45 37.5 12.35 10.85 27.5 10.85 15.05 0 27.35-11 15.25-13.7 15.25-37.7z" id="b"/><path fill="#444444" d="M40.15 72.35q-1.7 2-1.7 4.85 0 2.9 1.7 4.9 1.65 2 4.05 2 2.35 0 4.05-2 1.65-2.05 1.65-4.9 0-2.85-1.65-4.85-1.7-2.05-4.05-2.05-2.4 0-4.05 2.05z" id="c"/><path fill="#444444" d="M87.85 72.35q-1.7-2.05-4.05-2.05-2.4 0-4.05 2.05-1.7 2-1.7 4.85 0 2.85 1.7 4.9 1.65 2 4.05 2 2.35 0 4.05-2 1.65-2 1.65-4.9 0-2.85-1.65-4.85z" id="d"/><path fill="#513F35" d="M63.95 108.75q4.9 0 9-2.15 3.2-1.7 4.5-3.7.7-1.05.35-1.7-.35-.65-1.45-.65H51.6q-1.1 0-1.45.65-.35.65.35 1.7 1.3 2 4.5 3.7 4.1 2.15 8.95 2.15z" id="e"/><path fill="#DBA689" d="M58 90q-.65-.15-.9.3-.3.4-.05.9.7 1.15 2.4 2.2 2.2 1.35 4.55 1.35 2.35 0 4.5-1.35 1.7-1.05 2.4-2.2.25-.5 0-.9-.3-.45-.95-.3-3.15.9-5.95.9-2.85 0-6-.9z" id="f"/><path fill="#312D2D" d="M64.1 16.65q0-1.6-1.15-2.75-1.1-1.1-2.6-1.15v-.05q0-1.6-1.15-2.75T56.45 8.8h-.35Q56 7.5 55 6.5q-1.15-1.15-2.75-1.15-.8 0-1.5.3-.3-.85-.95-1.5Q48.65 3 47.05 3q-1.45 0-2.5.95-.2-.3-.45-.55-1.15-1.15-2.75-1.15-1.4 0-2.45.9-.05-.1-.1-.15-1.15-1.15-2.75-1.15T33.3 3q-.05.05-.1.15-1.05-.9-2.45-.9-1.6 0-2.75 1.15-.25.25-.45.55Q26.5 3 25.05 3q-1.6 0-2.75 1.15-.65.65-.95 1.5-.7-.3-1.5-.3-1.6 0-2.75 1.15-1 1-1.1 2.3h-.35q-1.6 0-2.75 1.15t-1.15 2.75v.05q-1.5.05-2.6 1.15Q8 15.05 8 16.65q0 .55.15 1.05-.9.25-1.6.95Q5.4 19.8 5.4 21.4q0 .8.3 1.5-1 .25-1.75 1-1.15 1.15-1.15 2.75t1.15 2.75l.1.1q-.3.2-.6.5-.2.2-.4.45-.75 1-.75 2.3 0 1.6 1.15 2.75l.3.3q-.9 1.05-.9 2.45v.05q.05.425.1.8.137.675.5 1.25h8.6l.05-.1q.425.1.85.1 1.6 0 2.75-1.15 1.04-1.04 1.15-2.45 1.6 0 2.75-1.15 1.007-1.007 1.1-2.35.69.25 1.45.25 1.6 0 2.75-1.15 1.073-1.073 1.15-2.55.963.7 2.2.7 1.6 0 2.75-1.15.48-.48.75-1.05.859.5 1.9.5 1.36 0 2.4-.85 1.034.85 2.4.85 1.05 0 1.9-.45.25.5.75 1 1.15 1.15 2.75 1.15 1.25 0 2.2-.7.1 1.5 1.15 2.55 1.15 1.15 2.75 1.15.75 0 1.4-.25.15 1.35 1.15 2.35 1.15 1.15 2.75 1.15.1 1.4 1.15 2.45 1.15 1.15 2.75 1.15.419 0 .8-.1l.1.1h8.6q.375-.594.5-1.3.05-.387.1-.8 0-1.4-.9-2.45l.3-.3q1.15-1.15 1.15-2.75 0-1.3-.75-2.3-.2-.25-.4-.45-.3-.3-.6-.5l.1-.1q1.15-1.15 1.15-2.75t-1.15-2.75q-.75-.75-1.75-1 .3-.7.3-1.5 0-1.6-1.15-2.75-.7-.7-1.6-.95.15-.5.15-1.05z" id="g"/></defs><use xlink:href="#a"/><use xlink:href="#b" transform="translate(0 -.25) scale(.5625)"/><use xlink:href="#c" transform="matrix(.56244 0 0 .56244 0 -.25)"/><use xlink:href="#d" transform="matrix(.56244 0 0 .56244 0 -.25)"/><use xlink:href="#e" transform="matrix(.56244 0 0 .56244 0 -.25)"/><use xlink:href="#f" transform="matrix(.56244 0 0 .56244 0 -.25)"/><use xlink:href="#g"/></svg>