<svg xmlns="http://www.w3.org/2000/svg" xmlns:xlink="http://www.w3.org/1999/xlink" preserveAspectRatio="none" viewBox="0 0 72 72"><defs><path fill="#ED6C30" d="M55.2 3.9q-.25-3.95-5.6-3-10.35 1.7-20.8 1.65-12-.05-23.05-2-3.5-.8-3.55 3.75Q.9 36.8 4.1 60.65q1.15 8.55 7.55 9.8 5.35 1.2 17.2 1.2 11.8 0 17.2-1.2 6.35-1.25 7.5-9.8Q56.75 36.6 55.2 3.9z" id="a"/><path fill="#2F2F2F" d="M49.85 51.05q6.918-2.449 2.7-12-5.817 7.068-17.15 7.25 7.582 7.254 14.45 4.75m-22.4-4.75q-10.34-.024-19.5-6.85-1.881 8.27 1.7 11.95 2.672 2.81 7.4.95 5.112-2.17 10.4-6.05z" id="b"/><path fill="#FFFFFF" d="M47.5 18.3q-.2-3.5-2.7-5.25T39 12.3q-3.35 1-5.55 4.2-2.25 3.15-2.05 6.6.2 3.5 2.7 5.25t5.8.75q3.35-1.05 5.6-4.2 2.2-3.2 2-6.6z" id="e"/><path fill="#FFFFFF" d="M23.7 16.55q-2.25-3.2-5.6-4.25-3.3-.95-5.8.75-2.5 1.8-2.7 5.25-.2 3.5 2 6.65 2.25 3.2 5.55 4.15 3.3 1.05 5.8-.75 2.5-1.75 2.7-5.2.25-3.45-1.95-6.6z" id="f"/><path fill="#2F2F2F" d="M-14.1 32.75q.7-.7.7-1.7t-.7-1.7q-.7-.7-1.7-.7t-1.7.7q-.7.7-.7 1.7t.7 1.7q.7.7 1.7.7t1.7-.7z" id="g"/><path fill="#2F2F2F" d="M39.1 30.1q1-1.1 1-2.65 0-1.55-1-2.65-1-1.1-2.4-1.1-1.45 0-2.45 1.1-1 1.1-1 2.65 0 1.55 1 2.65 1 1.1 2.45 1.1 1.4 0 2.4-1.1z" id="h"/><path fill="#E64A19" d="M65.3 39.65v-.1-.1q-.25-5.3-6.25-5.95H28.4q-6.65 0-6.8 5.95-.2 6.25 6.65 6.15h30.8q6-.65 6.25-5.95z" id="j"/><path id="c" stroke="#2F2F2F" stroke-width="2" stroke-linejoin="round" stroke-linecap="round" fill="none" d="M27.45 46.3q-5.288 3.88-10.375 6.05-4.753 1.86-7.425-.95-3.581-3.68-1.7-11.95 9.16 6.826 19.5 6.85zm7.95 0q7.582 7.254 14.475 4.775 6.893-2.474 2.675-12.025-5.817 7.068-17.15 7.25z"/><path id="d" stroke="#2F2F2F" stroke-width="4" stroke-linejoin="round" stroke-linecap="round" fill="none" d="M16.95 9.6q4.1 4.45 9.5 7.65m18.9-7.65q-3.9 4.45-8.55 7.8"/><path id="i" stroke="#FCC21B" stroke-width="5" stroke-linejoin="round" stroke-linecap="round" fill="none" d="M41.2 55.85q-.793-4.316-4.15-5.9-3.2-1.5-6.05-1.5-3.9 0-7.1 1.5-3.357 1.584-4.15 5.9"/></defs><use xlink:href="#a"/><g><use xlink:href="#b"/><use xlink:href="#c"/></g><use xlink:href="#d"/><use xlink:href="#e" transform="matrix(1.03374 0 0 1.09566 3.2 1.9)"/><use xlink:href="#f" transform="matrix(1.09566 0 0 1.09566 -.85 1.9)"/><use xlink:href="#g" transform="matrix(1.57228 0 0 1.71523 47.2 -25.6)"/><use xlink:href="#h" transform="matrix(1.03374 0 0 1.09566 3.2 -2.45)"/><use xlink:href="#i" transform="translate(.2 3.2)"/><use xlink:href="#j" transform="matrix(1.09566 0 0 1.09566 -1.3 -4.45)"/></svg>