<svg xmlns="http://www.w3.org/2000/svg" xmlns:xlink="http://www.w3.org/1999/xlink" preserveAspectRatio="none" viewBox="0 0 72 72"><defs><path fill="#E0E0E0" d="M56.1 12.5q-3-5.05-8.1-8.2-4.85-3-10.3-3.5-.85-.1-1.7-.1t-1.7.1q-5.45.5-10.3 3.5-5.1 3.15-8.1 8.2-5.1 8.5-5.5 19.3V61q-.14 3.481 1.9 3.75 2.06.54 4.05-1.5 2.895-2.97 6.45-3.25 3.549-.27 6.4 2.65 2.346 2.391 6.4 2.3.21.033.4.05 4.575-.08 6.8-2.35 2.85-2.9 6.4-2.65 3.55.3 6.45 3.25 2 2.05 4.05 1.55 2.05-.3 1.9-3.8V31.8q-.4-10.8-5.5-19.3z" id="a"/><path fill="#2F2F2F" d="M55.15 46.15q.95-3.3-.7-4.4-1.1-.75-2.85-.6-.2.05-3 .6-5.7 1.15-12.4 1.15-6.75 0-12.4-1.15-2.8-.55-3-.6-1.75-.15-2.9.6-1.6 1.1-.65 4.4.95 3.3 3.55 6.05 2.4 2.45 5.4 4 4.55 2.4 10 2.4t10-2.4q3-1.55 5.35-4 2.65-2.75 3.6-6.05z" id="b"/><path fill="#2F2F2F" d="M47.8 48.6q-2.45-2.85-5.8-2.8-3.35.05-5.75 2.9-2.35 2.9-2.3 6.9.05 4 2.45 6.85 2.45 2.8 5.8 2.75 3.35 0 5.7-2.85t2.35-6.9q-.05-4.05-2.45-6.85z" id="c"/><path fill="#2F2F2F" d="M92 48.65q-2.35-2.85-5.75-2.85-3.35.05-5.75 2.9-2.35 2.85-2.35 6.85 0 4 2.4 6.85 2.35 2.8 5.75 2.8 3.35 0 5.75-2.85 2.35-2.85 2.35-6.85 0-4-2.4-6.85z" id="d"/><path fill="#D7598B" d="M69 73.15q1.7-9.05 2.3-9.75-5.15.8-10.45.8-5.3 0-10.45-.8.6.7 2.3 9.75.2 1.05.4 1.95.8 2.3 1.95 3.65 1 1.2 2.3 1.6 1.45.5 3.5.5t3.5-.5q1.3-.4 2.3-1.6 1.15-1.35 1.95-3.65.2-.9.4-1.95z" id="e"/><path fill="#E0E0E0" d="M13.55 34.95q-2.5-6.25-2.85-6.8-2.1-3.6-5.3-3.1-4.05.65-4.45 7.7-.35 5.45 1.2 10.6Q5.85 55.7 16.95 62q3.6 2.05 7.35 3.05 3.05.85 3.25.5.45-.6.7-11.05.3-10.65-.65-10.6-4.75-.55-8.35-2.65-4.15-2.4-5.7-6.3z" id="g"/><path fill="#E0E0E0" d="M127.05 32.75q-.45-7.05-4.5-7.7-3.2-.5-5.3 3.1-.35.55-2.85 6.8-1.55 3.9-5.65 6.3-3.65 2.1-8.4 2.65-.95-.05-.65 10.6.3 10.4.7 11.05.2.35 3.25-.5 3.75-1 7.35-3.05 11.1-6.3 14.8-18.65 1.55-5.15 1.25-10.6z" id="h"/><path id="f" stroke="#2F2F2F" stroke-width="2" stroke-linejoin="round" stroke-linecap="round" fill="none" d="M36 36.65v10.5"/></defs><use xlink:href="#a" transform="translate(0 3.15)"/><use xlink:href="#b" transform="translate(8.7 2.95) scale(.75386)"/><use xlink:href="#c" transform="matrix(.424 0 0 .50154 8.7 -2.45)"/><use xlink:href="#d" transform="matrix(.424 0 0 .50154 8.7 -2.45)"/><use xlink:href="#e" transform="translate(-9.9 -9.4) scale(.75386)"/><use xlink:href="#f" transform="matrix(1 0 0 .92 0 3.4)"/><use xlink:href="#g" transform="translate(0 3.15) scale(.5625)"/><use xlink:href="#h" transform="translate(0 3.15) scale(.5625)"/></svg>