<svg xmlns="http://www.w3.org/2000/svg" xmlns:xlink="http://www.w3.org/1999/xlink" preserveAspectRatio="none" viewBox="0 0 72 72"><defs><path fill="#BDBDBD" d="M66.65 40.5q3.75-7.05 2.1-16Q64.5 1.6 36 2.5q-28.55-.9-32.75 22-1.75 9 2.05 16.05Q15.7 60.2 36 70.85 56.25 60.2 66.65 40.5z" id="a"/><path fill="#2F2F2F" d="M25.25 28.05q-3.2-3-7.85-3.45-4.55-.4-6.75 2.2-2.25 2.6-1.35 7.3 1 4.8 4.5 7.5 3.65 2.8 8.95 3 4.85.15 6.35-1.65 1.65-1.85.8-6.4-1-5.15-4.65-8.5z" id="b"/><path fill="#2F2F2F" d="M49 44.6q5.3-.2 8.95-3 3.55-2.7 4.5-7.45.95-4.7-1.3-7.35-2.25-2.55-6.8-2.2-4.65.45-7.85 3.45-3.65 3.35-4.65 8.5-.85 4.55.8 6.4 1.5 1.8 6.35 1.65z" id="c"/><path fill="#2F2F2F" d="M28.6 54.6q3.5 2.05 7.4 2.05 3.9 0 7.4-2.05 1.5-.85 2.75-2.1.4-.55.4-1.15 0-.6-.45-1.15-.45-.45-1-.45t-1.05.5q-.85.85-2.15 1.65-2.8 1.55-5.9 1.55-3.1 0-5.9-1.55l-2.15-1.65q-.4-.5-1-.5t-1.05.45q-.45.55-.45 1.15 0 .6.4 1.15l2.75 2.1z" id="d"/></defs><use xlink:href="#a"/><use xlink:href="#b"/><use xlink:href="#c"/><use xlink:href="#d"/></svg>