<svg xmlns="http://www.w3.org/2000/svg" xmlns:xlink="http://www.w3.org/1999/xlink" preserveAspectRatio="none" viewBox="0 0 72 72"><defs><path fill="#E53935" d="M113.95 24.4q-6.45-4.75-18.1-8.75-12.65-4.3-24-4.95-13.2-.7-20.55 4.05-2.7 1.75-6.65 8.2-3.95 6.4-4.3 6.65-.35.25-7.8 1.4-7.45 1.2-10.1 3-7.2 4.9-11.65 17.4Q7 62.1 6.1 75.45q-.8 12.3 1.15 20.05 2 8.05 5.75 5.45 13.85-9.75 16.9-14.1 1.65-2.3 3.45-6.7Q35.75 74 37.7 69.3q1-2.3 5.5-5.6 5.2-3.9 10.25-4.9 2.45-.45 4.95-2.1 2.5-1.7 3.85-3.75 2.85-4.3 8.45-7.65 4.85-2.85 7.3-2.85 5.1 0 11.75.15 4.7.05 7.5-.6 5.15-1.15 19.5-10.2 3.85-2.4-2.8-7.4z" id="a"/><path fill="#E53935" d="M114.9 45q-9.9-.85-16.25.35-7.65 1.4-9.65 5.7-1.7 5.65-3.9 9.2-3.9 6.25-15.05 14.3-11.7 7.2-18.95 8.35-2.4.4-5.3.25-3.9-.2-4.7-.15-4.7.2-8.95 6.7-3.6 5.45-6.6 14.9-1.9 6 4.45 9.45 5.9 3.25 16.85 3.35 11 .15 22.5-2.85 12.45-3.25 21.3-9.15 8.85-5.9 16.65-16.15 7.2-9.5 11.25-19.65 4.1-10.15 3.4-16.85-.75-7.2-7.05-7.75z" id="b"/></defs><use xlink:href="#a" transform="scale(.5625)"/><use xlink:href="#b" transform="scale(.5625)"/></svg>