<svg xmlns="http://www.w3.org/2000/svg" xmlns:xlink="http://www.w3.org/1999/xlink" preserveAspectRatio="none" viewBox="0 0 72 72"><defs><path id="b" stroke="#2F2F2F" stroke-width="3" stroke-linejoin="miter" stroke-linecap="round" stroke-miterlimit="3" fill="none" d="M36 62.6v6.8m-10.25-.95V62.3m20.5 0v6.15"/><g id="a"><path fill="#ECEFF1" d="M68.2 31.95q0-14.45-8-22.4Q51.8 1.2 35.85 1.2 20.1 1.2 11.9 9.55q-7.95 7.95-7.95 22.4 0 15.85 9.45 22.9 2.05 1.6 4.7 2.75.25 8.8 5.25 11.45.95.55 2.4 1 3.55.85 10.25.85h.05q6.65 0 10.2-.85 1.5-.45 2.45-1 5-2.65 5.35-11.45 2.6-1.15 4.65-2.75 9.5-7.05 9.5-22.9M52.35 42q-4.55 0-7.8-2.15-3.55-2.35-4.2-6.3-.6-3.7 1.8-6.5t6.5-2.8q4.25 0 8.35 3.35 4 3.5 4 7.1 0 2.95-2.25 5.05Q56.3 42 52.35 42M13.3 39.75q-2.25-2.1-2.25-5.05 0-3.6 4.05-7.1 4.1-3.35 8.35-3.35 4 0 6.4 2.8 2.4 2.8 1.85 6.5-.6 3.95-4.15 6.3-3.3 2.15-7.8 2.15-4 0-6.45-2.25m22.75.5q1.3.05 1.85 1l5.05 9.9q.35.85-.25 1.5-.55.7-1.65.7H30.9q-1.05 0-1.65-.7-.65-.75-.15-1.5l5.1-9.95q.5-.95 1.85-.95z"/><path fill="#2F2F2F" d="M37.9 41.25q-.55-.95-1.85-1-1.35 0-1.85.95l-5.1 9.95q-.5.75.15 1.5.6.7 1.65.7h10.15q1.1 0 1.65-.7.6-.65.25-1.5l-5.05-9.9M11.05 34.7q0 2.95 2.25 5.05Q15.75 42 19.75 42q4.5 0 7.8-2.15 3.55-2.35 4.15-6.3.55-3.7-1.85-6.5-2.4-2.8-6.4-2.8-4.25 0-8.35 3.35-4.05 3.5-4.05 7.1m33.5 5.15Q47.8 42 52.35 42q3.95 0 6.4-2.25Q61 37.65 61 34.7q0-3.6-4-7.1-4.1-3.35-8.35-3.35-4.1 0-6.5 2.8-2.4 2.8-1.8 6.5.65 3.95 4.2 6.3z"/></g></defs><use xlink:href="#a"/><use xlink:href="#b"/></svg>