<svg xmlns="http://www.w3.org/2000/svg" xmlns:xlink="http://www.w3.org/1999/xlink" preserveAspectRatio="none" viewBox="0 0 72 72"><defs><path fill="#FFFFFF" d="M32.2 23.9q-.25-1.9-1.05-2.85-.35-.4-1.1-.9-.8-.55-1.1-.8-.45-.4-.9-1.15-.45-.8-.7-1.25-1.55-2.6-3.55-4.55-2.3-2.35-4.65-2.85-1.95-.3-4.15.45-2.6.95-4.45 2.85-1.95 1.95-2.6 4.5-.05.45-.25 1.3-.15.75-.4 1.25-.25.65-1.1 1.8-1.6 2.45-1.55 6.45 0 3.4 1.25 5.9.95 2.1 3.7 4.9 3.35 3.3 7.15 5.85 4.65 3.15 8.05 2.7 2.6-.4 4.55-2.7 1.8-2.15 2.2-5 .2-1.45.5-1.95.25-.45.8-.95.8-.65.95-.85 1.05-1.15 1-3.05-.05-1.6-.9-3.3-.45-.85-.65-1.3-.4-.8-.6-1.35-.1-.4-.45-3.15m-9.1 14.7q-.1.1-.35 0-1.9-1-2.6-1.7 1.45.35 3.3.7 0 .1-.2.8-.05.15-.15.2z" id="a"/><path fill="#B1C937" d="M64.05 12.15Q59 7.05 51.9 7.05q-5.3 0-9.6 2.95-4.25 2.85-6.2 7.65-2-4.8-6.25-7.65-4.3-2.95-9.6-2.95-7.1 0-12.1 5.1-5.05 5.1-5.05 12.3 0 8.9 5.5 15.65 3.35 4.1 12 10.25 5.55 3.95 8 6.15 4.15 3.65 6.2 7.5l.15.4q.3.7 1.1.7h.05q.65 0 1.1-.75.1-.15.1-.25 2.05-3.85 6.2-7.55 2.55-2.3 8.05-6.2Q60.2 44.2 63.5 40.1q5.55-6.75 5.55-15.65 0-7.2-5-12.3z" id="b"/></defs><use xlink:href="#a"/><use xlink:href="#b"/></svg>