<svg xmlns="http://www.w3.org/2000/svg" xmlns:xlink="http://www.w3.org/1999/xlink" preserveAspectRatio="none" viewBox="0 0 72 72"><defs><path fill="#E0BB95" d="M57.7 11.75q-.35-.55-.65-1.6-.4-1.35-.55-1.7-.85-2.3-1.35-3.1-.7-1.1-1-1.45-.55-.6-1.5-.9-1.75-.8-2.7-.9-3.2-.35-7.25 1.15-4.1 1.55-4.85 1.85-2.7 1.15-4.55 2.45-2.65 1.8-5.95 4.25Q25 13.4 24 14.4q-.05.05-.35.45-1.35.5-3.35 4.15-1.05 1.95-2.45 4.75-1.15 1.85-3.55 5.5-2 3.2-3.2 5.65-2.65 5.5-3.5 11.15-1 6.65.85 11.6.8 2.15 2.55 3.85 1.9 1.85 4.05 2.1 4 .45 4.85.55 2.7.45 4.8 1.15l3.3 1.2q1.9.65 3.35.9 1.75.4 4.2.4 1.4.05 4.2 0 1.55 0 2.9.15 1.7.25 3.2.3.2 0 1.45.05 1 .05 1.4.05l14.8.5q2.663-2.42 3.6-7.65.425-2.362.5-5.3.122-4.429-.5-8.3-1.004-6.197-3.95-10.9-.35-.65-1.1-1.25-2.5-2.05-7.25-2.65-3.65-.45-7.9 0-5.8.6-10.5 5.1-.55.5-1.5 1.55-1 1.1-1.5 1.6-.15.1-1.15 1.25-.7.85-1.3 1.1-1.05.55-1.45.05-.35-.4-.35-1.55 0-2 .35-4.6.35-3 .55-4.55L30.7 28q.1-1.1.5-1.4.45-.35 1.55-.4 4.9-.15 7.95-1.1 1.25-.4 3.8-1.25 2.25-.65 3.95-.65.75 0 2 .45 1.3.4 1.9.45 2.2.2 3.85-.35 1.55-.55 2.35-1 1.5-.8 1.9-1.65.25-.6.1-1.7-.3-1.15-.35-1.6-.1-.75-.75-1.4-.8-.85-1-1.35-.25-.5-.3-1.7-.1-1.1-.45-1.6z" id="a"/><path fill="#C48E6A" d="M100.55 12.35q-1.95-4.9-5.5-6.95-2.9-1.7-7.4-1.75 3.2.4 4.6 1.45.85.6 1.9 3.3 1.35 3.45 1.5 3.7.5.95 1.4 3.25.6 1.7 1.05 3.3 1.1 2.9 2.25 7.2.1.2.1.6l-.15.6q-.35.6-1.1.95-.75.25-1.45.2-.9-.1-1.35-.75-.5-.65-1.25-2.5-.7-1.65-.95-2.45l-2.45-6.25q-.5-.95-1.35-1.15-.5-.15-1.15.05-.7.2-1 .65-.3.5-.25 1.3.05.35.15.65l4.45 11.3q.45 1.45-1.1 2.15-.7.3-1.45.25-.9-.1-1.35-.7-.4-.55-2.65-5.7-2.2-5.25-2.35-5.6l-.05-.1q-.5-.95-1.35-1.15-.55-.15-1.2.05-.7.25-.95.7-.35.6-.3 1.35.05.35.15.6l5.1 11.35q.5 1.35-1.05 2.1-.65.3-1.4.3-.85-.05-1.35-.65-.45-.6-3.2-6l-2.7-5.25q-.6-.9-1.45-1.05-.55-.1-1.2.2-.65.3-.85.75-.2.5-.05 1.3.05.35.15.65l5.45 11q.7 1.4-.85 2.3-.65.35-1.4.4-.9.05-1.45-.55-.95-1.05-6.55-10.9-2.1 1.65-1.8 4.1.05.6 1.1 3.65.35 1.25.1 3.25-.3 2.5-1.6 3.6-1.55 1.45-4 1.45l-1.7-.2-.25-.1.05.05q-1.9-.25-3.45-.65-1.5-.3-2.7.55-1.25.85-1.4 2.4L48.3 80.6q-.05.65.55 2.15.55 1.45 1 2 1.7-3.1 2.45-4.15 1-1.4 3.3-3.75-.05 0 .4-7.7l1.85-19.9q7.95 1.2 16.15-.35 5.35-1.05 10.25-3.15Q87 47.55 91 47.7q5.45.15 12.7-2.85l.4-.2q4.35-1.95 5.55-6 .9-3.1-1.35-7.2-2.7-3.95-3.25-4.85-.95-4.3-1.45-5.9-.6-2.15-3.05-8.35m-9.5 27.05q-.5-.9-.45-1.9.05-1.2.95-1.85 1.35-1.05 10.15-5l.95-.45.75 1.35q.7 1.65.45 3.25-.05.7-.55 1.4-.85 1.25-2.4 1.85-5.2 2.2-5.85 2.35-2.95.8-4-1z" id="b"/><path fill="#C48E6A" d="M11.7 62.6q2.05 2.3 4.4 3.6 2.25 1.2 17.05 3 11.433 1.35 22.55 1.85.724.06 1.45.1 4.82-.034 7.4-3.55-15.578-.216-31.85-2.25-13.2-1.6-18-2.95-1.7-.5-4.25-3.15-2.2-2.4-2.6-3.6Q8.9 59.5 11.7 62.6z" id="c"/><path fill="#C48E6A" d="M110.15 90.05q-.9-.4-1.7.15-8.15 5.8-23.7 5.8-4.1 0-8.35-.4-3.35-.45-3.4-.45-.55-.1-1.05.15-.5.3-.75.8-.5 1.15.5 2 .2.15 6.5 3.8 7.75 3.55 15.45 3.55 3.2 0 5.8-.55 6.2-1.2 9.35-5.95 2.35-3.55 2.25-7.45 0-.95-.9-1.45z" id="d"/></defs><use xlink:href="#a" transform="translate(-1.4)"/><use xlink:href="#b" transform="translate(-1.4) scale(.5625)"/><use xlink:href="#c" transform="translate(-1.4)"/><use xlink:href="#d" transform="translate(-1.4) scale(.5625)"/></svg>