<svg xmlns="http://www.w3.org/2000/svg" xmlns:xlink="http://www.w3.org/1999/xlink" preserveAspectRatio="none" viewBox="0 0 72 72"><defs><path fill="#444444" d="M70.5 32.8q-3-2.3-6.6-2.3h-9.6q-3.5 0-5.5 2.3-1.95 2.25-1.45 5.6 1 6.7-.7 17.1-1.05 6.55-3.75 17.05 0 2.7 16.3 2.2 16.3-.55 16.3-3.25 1.65-6.5.8-16.5-.35-4.1-2.25-16.6-.5-3.25-3.55-5.6z" id="a"/><path fill="#8E726A" d="M16.95 33.8l-1.35.55q-.95.45-1.35 1.45-.35.95.05 1.9l.05.15q.45.95 1.45 1.3.95.4 1.9-.05l1.35-.6q.95-.4 1.35-1.4.35-1-.05-1.95l-.05-.1q-.45-.95-1.45-1.35-.95-.35-1.9.1z" id="b"/><path fill="#444444" d="M29.65 61.45l6.4 1.75 5.4-16.2-7.35-1.95-4.45 16.4z" id="c"/><path fill="#444444" d="M57.75 33.7q-1.15-1.85-3.3-2.25-2.1-.45-3.9.75L35.7 42.7l4.2 6.4 16.4-8.15q1.8-1.2 2.25-3.3.4-2.15-.8-3.95z" id="d"/><path fill="#444444" d="M41.55 46.7q.3-1.55-.55-2.9-.85-1.3-2.4-1.65-1.6-.3-2.9.55-1.3.9-1.65 2.45-.3 1.55.55 2.85.9 1.35 2.45 1.65 1.55.3 2.85-.55 1.3-.85 1.65-2.4z" id="e"/><path fill="#E0E0E0" d="M36.05 63.2l2.6-6.15-7.85-1.8-1.15 6.2 6.4 1.75z" id="f"/><path fill="#444444" d="M89.9 11l-5.75 15.2 7.4 1.9 4.75-15.4-6.4-1.7z" id="g"/><path fill="#444444" d="M89.2 31.65l-2.9-7.05-17.5 5.55q-2 .85-2.85 2.8-.8 2 0 4 .85 2 2.85 2.85 2 .8 4 0l16.4-8.15z" id="h"/><path fill="#444444" d="M86.3 24.6q-1.45.6-2.1 2.05-.6 1.45 0 2.9t2.05 2.1q1.5.6 2.95 0 1.45-.6 2.05-2.05.6-1.5 0-2.95-.6-1.45-2.05-2.05-1.45-.6-2.9 0z" id="i"/><path fill="#E0E0E0" d="M89.9 11l-2.8 6.1 7.8 1.8 1.4-6.25L89.9 11z" id="j"/><path fill="#8E726A" d="M57.85 2.5q-.15-.45-.6-.4l-5 1q-.8.15-1.35 1.05-.65.95-.35 1.95.55 1.75 2.45 1.85.7.05 2.7-.7.4-.15.4-.55 0-.15-.1-.35-.1-.2-.1-.25.1-.4.05-.65-.25-.45-.25-.6.15-.4.1-.55 0-.15-.2-.4-.1-.2.1-.25l1.75-.55q.55-.15.4-.6z" id="k"/><path fill="#444444" d="M56.5 65.55q-3.05-.8-5.7.85-2.7 1.6-3.45 4.65l-4.45 26.6 10.5 2.65 8.65-25.55q.75-3.05-.85-5.75-1.65-2.7-4.7-3.45z" id="l"/><path fill="#444444" d="M47.45 93.3q-2.2.3-3.55 2.1-1.35 1.8-1.05 4 .3 2.2 2.1 3.6 1.8 1.35 4 1 2.25-.3 3.6-2.1t1-4q-.3-2.25-2.1-3.6t-4-1z" id="m"/><path fill="#E0E0E0" d="M41.15 123.8l3.4-6.55-8.3-3.75-2.8 6.85 7.7 3.45z" id="n"/><path fill="#444444" d="M45.2 118.2l7.85-17.2-9.85-4.4-8.15 16.9 10.15 4.7z" id="o"/><path fill="#000000" d="M47.15 121.9q-1.5-1.5-3.65-1.5H33.4l.05 7.6H48.7v-2.4q0-2.15-1.55-3.7z" id="p"/><path fill="#444444" d="M61.3 67.5q-2.75 1.6-3.6 4.6-.85 3 .7 5.75l15.05 22.4 9.45-5.3-11.25-24.5q-1.55-2.75-4.6-3.65-3-.85-5.75.7z" id="q"/><path fill="#444444" d="M83.4 96.65q-.25-2.2-2-3.6t-4-1.15q-2.2.25-3.6 2t-1.15 4q.25 2.2 2 3.6t4 1.15q2.2-.25 3.6-2t1.15-4z" id="r"/><path fill="#E0E0E0" d="M82.2 123.2l7.95-2.8-2-7.1-8.6 3 2.65 6.9z" id="s"/><path fill="#444444" d="M72.95 99.2L79.1 117l9.8-3.5-5.75-17.85-10.2 3.55z" id="t"/><path fill="#000000" d="M81.15 120.4l.05 7.6h15.25v-2.4q0-2.15-1.55-3.7-1.5-1.5-3.7-1.5H81.15z" id="u"/><path fill="#00E676" d="M59.9 29.5l-4.55 1.85-2.25 3.45v3.55l8.3 22.8 4.15-8.25 3.5-11.3-1.15-9.65-2.75-2.45H59.9z" id="v"/><path fill="#757575" d="M55.55 31.25l4.05-1.2-.3-4.85q-2.7 0-4.95.45-1.95 1.05-4.75 4.7-1.4 1.85-2.45 3.45l4.45 2.25q-.55.3-1.15.7-1.2.75-1.55 1.25 1.15 6.15 6.5 16.2 2.7 5 5.15 8.8l1.65-.05q-.65-6.15-4.25-16.75-3.4-9.85-3.35-10.85.05-1.65.5-3.05l.45-1.05z" id="w"/><path fill="#757575" d="M66.8 24.6q-1.05-.05-2.85.05-1.55.1-2.15.2l.35 5.05 3.8.3.7 1.05q.8 1.4 1 3.05.25 2.1-2.4 12.9Q62.6 57.75 60.6 63l1.6-.05q6.1-4.4 9.45-16 1.7-5.8 2.15-10.75l-2.9-1.6 3.85-2.9Q73.6 30.25 72 28.6q-3.15-3.2-5.2-4z" id="x"/><path fill="#563E37" d="M34.5 19.8q.95-.1 1.55-.8.55-.7.5-1.6l-.2-1.95-4.45.45.2 1.9q.1.9.8 1.5.7.6 1.6.5z" id="y"/><path fill="#563E37" d="M69.9 16.65l-.85.1.4 4.75q1.1-.1 1.8-.75.8-.7.7-1.95-.1-1.25-1.1-1.8l-.95-.35z" id="z"/><path fill="#563E37" d="M50.5 18.4l-.85.1q-.45.1-.9.5-.85.7-.75 1.95.1 1.25 1.05 1.8.8.55 1.9.4l-.45-4.75z" id="A"/><path fill="#FBC11B" d="M67 7.95q-2.75-4-8.4-3.45-5.6.5-7.65 4.9-1.7 3.7-1.1 10.9.55 6.1 4.25 8.75 2.9 2.05 6.85 1.7 4-.4 6.45-2.85 3.15-3.25 2.6-9.4-.6-7.15-3-10.55z" id="B"/><path fill="#444444" d="M63.45 25.4l-5.85.55q-.6.1-.2.6.35.45 1.15.8 1 .4 2.15.3 1.15-.15 2.05-.75.7-.45 1-.95.3-.55-.3-.55z" id="C"/><path fill="#444444" d="M56.7 20.5q-.05-.7-.5-1.1-.45-.45-1-.4-.55.05-.9.55-.35.55-.3 1.2.05.65.5 1.1.45.45 1 .4.55-.05.9-.55t.3-1.2z" id="D"/><path fill="#444444" d="M63.6 18.7q-.35.55-.3 1.2.1.7.5 1.1.45.45 1 .4.55-.05.9-.55.4-.5.3-1.2-.05-.65-.5-1.1-.45-.45-1-.4-.5.05-.9.55z" id="E"/><path fill="#563E37" d="M61.9 23.15q-.05-.1-.2-.05-1 .3-1.4.3-.7.1-1.45-.05-.35-.1-.2.3.6.75 1.7.7.6-.05 1.05-.4.4-.3.5-.6.1-.1 0-.2z" id="F"/><path fill="#232020" d="M33.05 1.9h-.25q-3.25.35-4.8 2.25-1.2 1.5-1.05 3.35l.3 3.4.2-.2.3-.2.4 1.6 1.3-3.5.05-.05 1 .05q1.2 0 2.9-.15h.25l3.8-.6.05.05 1.95 3.2.1-1.7.35.2.2.15-.25-3.4q-.2-1.9-1.65-3.1-1.85-1.6-5.15-1.35z" id="G"/></defs><use xlink:href="#a" transform="scale(.5625)"/><use xlink:href="#b"/><use xlink:href="#c" transform="scale(.5625)"/><use xlink:href="#d" transform="scale(.5625)"/><use xlink:href="#e" transform="scale(.5625)"/><use xlink:href="#f" transform="scale(.5625)"/><use xlink:href="#g" transform="scale(.5625)"/><use xlink:href="#h" transform="scale(.5625)"/><use xlink:href="#i" transform="scale(.5625)"/><use xlink:href="#j" transform="scale(.5625)"/><use xlink:href="#k"/><use xlink:href="#l" transform="scale(.5625)"/><use xlink:href="#m" transform="scale(.5625)"/><use xlink:href="#n" transform="scale(.5625)"/><use xlink:href="#o" transform="scale(.5625)"/><use xlink:href="#p" transform="scale(.5625)"/><use xlink:href="#q" transform="scale(.5625)"/><use xlink:href="#r" transform="scale(.5625)"/><use xlink:href="#s" transform="scale(.5625)"/><use xlink:href="#t" transform="scale(.5625)"/><use xlink:href="#u" transform="scale(.5625)"/><use xlink:href="#v" transform="scale(.5625)"/><use xlink:href="#w" transform="scale(.5625)"/><use xlink:href="#x" transform="scale(.5625)"/><use xlink:href="#y"/><use xlink:href="#z" transform="translate(0 -.05) scale(.5625)"/><use xlink:href="#A" transform="translate(0 -.05) scale(.5625)"/><use xlink:href="#B" transform="scale(.5625)"/><use xlink:href="#C" transform="scale(.5625)"/><use xlink:href="#D" transform="scale(.5625)"/><use xlink:href="#E" transform="scale(.5625)"/><use xlink:href="#F" transform="scale(.5625)"/><use xlink:href="#G"/></svg>