<svg xmlns="http://www.w3.org/2000/svg" xmlns:xlink="http://www.w3.org/1999/xlink" preserveAspectRatio="none" viewBox="0 0 72 72"><defs><path fill="#AD6F43" d="M91.55 14.85q-1.55-3.15-5-3.7-3.3-.55-5.95 3.05-2.1 2.85-2.65 6.15-1.4 8.15-2.4 14.55-2 12.15-2.9 19.8-.2 1.15-.5 1.4-1.35.95-2.6 0l-.95-1.2q-.35-5.75-.5-22.25-.05-8.55-.1-19.15Q67.85.45 60.55.45q-4.35 0-6.2 3.7-1.7 3.35-1.6 10.2.85 24.55.75 39.3-1.4 2.5-3.3 1.8l-1.65-1.25q-.95-7.55-2.45-21.95-1.3-12.8-1.6-14.75-.9-5.35-2.8-7.65-1.95-2.45-5.4-2.15-3.6.3-4.95 3.35-1.35 3-.7 9.15 3.35 32.6 4 37.7-.75 3.45-2.95 3.3l-2.1-.85Q25.95 41.4 24.65 36.2q-1.4-5.4-3.3-7.25-1.9-1.85-5.25-.95-3.45 1-4.3 4.25-.65 2.65.2 8.1.35 2.2 3.15 19.95 2.75 18.15 3.05 25.45.55 13.2 5.8 23.8 5.1 10.25 12.05 13.15 10 4.15 21.7 3.65 12.5-.55 23-6.35 2.05-1.1 5.9-5.4 5-5.6 5.5-6.05 2.55-3 5-5.8 4.85-5.55 5.6-6.05 5.45-3.55 9.15-5.5 4.45-2.45 6.5-3.95 4.5-3.35 4.4-6.85-.1-3.2-3.7-4.6-4.05-1.55-7.9-1.55-4.45-.05-6.85 2l-11.8 10.2Q87 88.15 86.4 77.6q-.25-4.3.8-15.1 4.2-33.9 5.1-39.55.8-4.95-.75-8.1z" id="a"/><path fill="#7A4C32" d="M86.35 76.25Q86.3 75 86.4 72q-9.4.25-15.6 2.3-6.45 2.15-11.35 9.45-3.1 4.65-5.1 9.95-1.85 4.8-1.2 5.3 1.4 1.05 3.7-3.55Q60.9 87.4 62.5 85.1q2.9-4.15 9.05-6.8 7.1-3.05 14.8-2.05z" id="b"/></defs><use xlink:href="#a" transform="scale(.5625)"/><use xlink:href="#b" transform="scale(.5625)"/></svg>