<svg xmlns="http://www.w3.org/2000/svg" xmlns:xlink="http://www.w3.org/1999/xlink" preserveAspectRatio="none" viewBox="0 0 72 72"><defs><path fill="#FAC036" d="M98.75 63q-1-4.45-5-5.35-2.25-.5-4.95.15-1.9.45-2.95-.45-.5-.35-1.3-1.8-.35-.6-1.2-1.6-1.05-1.1-1.8-1.45-4.25-1.85-7.2-1-2.75.8-3.5.35-.9-.5-1.2-3.4-.2-1.85-.45-9.7-.4-12.3-.7-25.55-.35-7.45-2.35-10Q63.9.3 60.05.65 56.1 1 54.65 4.5 53 8.45 53.35 26.8q.35 20.5.2 21.65-.35 3-2.25 3.55l-1.85-.1q-3.2-.35-4.05-.3-2.45.2-4.55 2.1-3.6 3.25-3.85 9.95-.05 1.2.65 9.85.05.5-.1.9v.05q1.5 4.05 3.9 10.2 1.1 3.95-2.1 2.65-3.9-1.6-4.05-6.45l.65-4.55q.872-.29 1.45-1.5-.453.878-1.65 1.5-.95.55-1.7.65-1.1.15-2.45 1.85-.7.85-1.15 1.65Q28.7 83 28.9 85.1q.2 2.1 2.95 9.35 3.55 9.35 8.9 13.7 2.45 2.05 9.15 4.8 5.9 2.4 11.1 2.9 2.6.25 4.05 0 4.35.45 8.75-.4 2.2-.45 3.55-1 2.05-.8 8.35-1.85 6.15-1.85 10.05-7.85 2.55-3.95 3.4-20.7.8-15.6-.4-21.05z" id="a"/><path fill="#E48C15" d="M37.55 74.45l-.05.2-.05.1q-.6 1.25-1.5 1.55l-.65 4.5q.15 4.85 4.05 6.45 3.2 1.3 2.1-2.6-2.4-6.15-3.9-10.2z" id="b"/><path fill="#FAC036" d="M48.05 125.9q1.7 1.7 4.15 1.7h33.85q2.45 0 4.15-1.75 1.75-1.75 1.7-4.2l-.1-5.9q0-3.6 2.15-8l2.15-3.7-53.2 5.65 1.75 1.5q1.7 1.95 1.7 4.3v6.25q0 2.4 1.7 4.15z" id="c"/></defs><use xlink:href="#a" transform="scale(.5625)"/><use xlink:href="#b" transform="scale(.5625)"/><use xlink:href="#c" transform="scale(.5625)"/></svg>