<svg xmlns="http://www.w3.org/2000/svg" xmlns:xlink="http://www.w3.org/1999/xlink" preserveAspectRatio="none" viewBox="0 0 72 72"><defs><path fill="#F79329" d="M59.5 39.1q.2.3.5.3.2 0 .25-.05l9.45-4.15q.3-.15.35-.4.1-.25-.05-.5l-1.7-2.55q-.15-.3-.5-.3-.25 0-.4.15l-7.85 6.6q-.2.15-.25.4 0 .2.15.4l.05.1z" id="a"/><path fill="#F79329" d="M59.5 46.1q-.2.3.05.5l8.25 6.9q.15.1.25.1.2 0 .3-.15l2-3.05q.25-.35-.15-.55l-10.05-4.4q-.25 0-.35.15l-.3.5z" id="b"/><path fill="#F79329" d="M59.65 42.35q0 .55.5.6l10.45.75q.2 0 .4-.15.15-.2.15-.4v-2.9q0-.25-.2-.4-.2-.15-.4-.15h-.1L60.1 41.65q-.45.05-.45.55v.15z" id="c"/><path fill="#006CA0" d="M43.25 12l.65-.65q.9-.9.8-1.3-.05-.1-.5-.35-.5-.3-1.2-.45-1.8-.45-4.9-1l-2-.35q-2.1-.45-5.6-.6l-.1-.05q-1.85-.2-3.25-.2-3 0-6.05.65-3.65.8-6.25 2Q10 11.8 6.9 15.6 4.55 18.35 3.25 22 2 25.35 1.85 29q-.1 2.05.25 4.9.45 3.25 1.1 5.4 1.2 4.2 3.65 7.35Q9.5 50.1 13.9 53.1q2.45 1.65 4.5 2.6 2.15.95 4.05 2.15 3.65 2.3 4.5 4.2.7 1.4.45 2.65-.15.9-1 2.05-.9 1.25-1.75 2.05 1 .45 3.85.75 3.5.35 8.65.35h1.2q3.35-.05 6.1-.45 2.8-.35 3.25-.9 0-.35-.35-1.35l-.5-1.2q-.35-.85-.5-1.75-.15-1-.15-1.65 0-2.85 1.5-4.25.7-.7 1.95-1.15 1.3-.5 2.15-.7l1.9-.45q1-.3 1.35-.45.8-.35 1.15-.8.9-1.1.45-3.7l-.15-.65q-.25-.9-.3-1.4-.05-.8.35-1.4v-.05q.4-.55.45-.8l.2-.6.05-.4q-.75.2-1.3.3-1.85.4-2.75.6-1.2.2-2.15.2-.9 0-1.8-.25-.95-.25-1.35-.5-.7-.4-.85-1.05-.2-.95 1.1-2.05.95-.8 4.2-2.7l.95-.55q1.3-.7 1.8-1.05.75-.55.8-.9 0-.25-.2-.5l-.05-.1-.25-.3q-.35-.4-.45-.7-.3-.7.1-1.85.35-.85.9-1.5l.15-.2q0-.2-.85-1-.55-.45-.95-.6-1.2-.6-2.2-1.8-1.3-1.45-1.6-3.05v-4.5l-.1-.5q-.5-1.4-2.5-4.05-1.9-2.3-1.9-2.35l-1.95-2.2-.8-.65z" id="d"/></defs><use xlink:href="#a" transform="translate(0 .95)"/><use xlink:href="#b" transform="translate(0 .95)"/><use xlink:href="#c" transform="translate(0 .95)"/><use xlink:href="#d" transform="rotate(9.999 47.51 36.16)"/></svg>