<svg xmlns="http://www.w3.org/2000/svg" xmlns:xlink="http://www.w3.org/1999/xlink" preserveAspectRatio="none" viewBox="0 0 72 72"><defs><path fill="#FCC21B" d="M127.75 93.45q0-27.05-8.55-47.15Q103.6 9.5 63.75 9.5q-39.8 0-55.4 36.8Q-.2 66.4-.2 93.45q0 10.4 18.7 17.75 18.75 7.35 45.25 7.35 26.55 0 45.3-7.35 18.7-7.35 18.7-17.75z" id="a"/><path fill="#FCC21B" d="M116.4 70.65q-2.5-6.8-9.1-9.8-6.65-3.05-13.5-.6-6.85 2.45-9.9 9-3.1 6.55-.6 13.3 2.45 6.8 9.1 9.8 6.6 3.05 13.45.6 6.85-2.45 9.95-9 3.1-6.5.6-13.3z" id="b"/><path fill="#FCC01C" d="M115.7 70.9q-2.4-6.5-8.75-9.4-6.35-2.95-12.9-.55-6.6 2.35-9.55 8.65-2.95 6.25-.55 12.75 2.4 6.5 8.75 9.4 6.3 2.9 12.9.5 6.55-2.3 9.55-8.6 2.95-6.25.55-12.75z" id="c"/><path fill="#FCBE1C" d="M115.05 71.15q-2.3-6.2-8.35-9-6.1-2.8-12.4-.55-6.3 2.25-9.1 8.25-2.85 6-.55 12.25 2.3 6.2 8.35 8.95 6.05 2.8 12.35.55t9.15-8.25q2.8-5.95.55-12.2z" id="d"/><path fill="#FBBB1D" d="M114.35 71.35q-2.2-5.95-8-8.6-5.8-2.65-11.8-.5-6.05 2.15-8.75 7.9t-.5 11.7q2.2 5.9 8 8.6 5.8 2.65 11.8.5 6.05-2.15 8.75-7.9t.5-11.7z" id="e"/><path fill="#FBB91E" d="M113.7 71.6q-2.1-5.65-7.65-8.2-5.5-2.5-11.25-.45t-8.3 7.55q-2.6 5.45-.5 11.1 2.05 5.65 7.6 8.2 5.5 2.5 11.3.45 5.7-2 8.3-7.5 2.55-5.45.5-11.15z" id="f"/><path fill="#FBB71E" d="M113 71.85q-2-5.4-7.25-7.8-5.25-2.45-10.7-.45-5.45 1.95-7.95 7.15-2.45 5.2-.45 10.6 2 5.4 7.25 7.8 5.25 2.4 10.75.45 5.45-1.95 7.9-7.15t.45-10.6z" id="g"/><path fill="#FBB51F" d="M112.35 72.1q-1.9-5.15-6.9-7.45t-10.15-.4q-5.2 1.9-7.5 6.8-2.35 4.95-.45 10.05 1.85 5.15 6.9 7.45 4.95 2.3 10.15.4 5.2-1.85 7.5-6.8 2.35-4.9.45-10.05z" id="h"/><path fill="#FAB220" d="M111.65 72.35q-1.75-4.85-6.5-7-4.7-2.2-9.6-.45-4.9 1.75-7.1 6.45-2.2 4.65-.45 9.5 1.8 4.85 6.5 7.05 4.75 2.15 9.65.4t7.1-6.45q2.2-4.65.4-9.5z" id="i"/><path fill="#FAB020" d="M111 72.6q-1.7-4.55-6.15-6.65-4.5-2.05-9.1-.35-4.6 1.65-6.7 6.05-2.05 4.4-.4 8.95 1.7 4.55 6.15 6.6t9.1.4q4.6-1.65 6.7-6.05 2.1-4.4.4-8.95z" id="j"/><path fill="#FAAE21" d="M110.3 72.85q-1.55-4.25-5.75-6.2-4.2-1.95-8.55-.4-4.35 1.6-6.3 5.7-1.9 4.15-.35 8.45 1.6 4.3 5.75 6.2 4.2 1.9 8.55.35 4.3-1.6 6.25-5.7 1.95-4.15.4-8.4z" id="k"/><path fill="#FAAC22" d="M109.65 73.05q-1.5-4-5.4-5.8-3.95-1.8-8-.35-4.05 1.45-5.9 5.35-1.8 3.9-.35 7.9 1.5 4 5.45 5.8 3.9 1.8 7.95.35 4.05-1.45 5.9-5.35 1.8-3.85.35-7.9z" id="l"/><path fill="#F9A922" d="M108.95 73.3q-1.35-3.75-5-5.4-3.65-1.7-7.45-.35-3.8 1.4-5.5 5-1.7 3.6-.3 7.35 1.4 3.75 5.05 5.4 3.6 1.7 7.4.3 3.8-1.35 5.5-4.95 1.7-3.6.3-7.35z" id="m"/><path fill="#F9A723" d="M108.3 73.55q-1.25-3.45-4.65-5-3.4-1.55-6.9-.3-3.5 1.3-5.1 4.6-1.55 3.35-.3 6.8 1.3 3.45 4.65 5 3.4 1.6 6.9.3 3.5-1.3 5.1-4.6 1.55-3.3.3-6.8z" id="n"/><path fill="#F9A524" d="M107.6 73.8q-1.15-3.2-4.25-4.6-3.1-1.45-6.35-.3-3.2 1.15-4.65 4.25-1.45 3.05-.3 6.25t4.25 4.65q3.15 1.4 6.35.25 3.2-1.15 4.65-4.25 1.45-3.05.3-6.25z" id="o"/><path fill="#F9A324" d="M106.95 74.05q-1.1-2.9-3.95-4.25-2.8-1.3-5.75-.2-2.95 1.05-4.3 3.85-1.3 2.8-.25 5.7 1.1 2.95 3.95 4.25 2.85 1.3 5.75.2 2.95-1.05 4.3-3.85 1.35-2.8.25-5.7z" id="p"/><path fill="#F8A025" d="M97.5 70.25q-2.65.95-3.85 3.5-1.2 2.55-.25 5.15 1 2.65 3.55 3.85 2.55 1.2 5.2.2 2.7-.95 3.9-3.5 1.2-2.5.25-5.15-.95-2.65-3.55-3.85-2.6-1.15-5.25-.2z" id="q"/><path fill="#F89E26" d="M97.75 70.9q-2.4.85-3.5 3.15-1.05 2.25-.2 4.6.85 2.35 3.2 3.45 2.3 1.05 4.65.2 2.4-.85 3.5-3.15 1.05-2.25.2-4.65-.85-2.35-3.15-3.4-2.35-1.05-4.7-.2z" id="r"/><path fill="#F89C26" d="M94.75 78.45q.75 2.05 2.8 3 2.05.95 4.15.15 2.1-.75 3.05-2.75.95-2 .15-4.1-.75-2.05-2.75-3-2.05-.95-4.15-.2-2.15.8-3.1 2.8-.95 2-.15 4.1z" id="s"/><path fill="#F89A27" d="M95.4 78.2q.7 1.8 2.45 2.6 1.75.8 3.6.15t2.65-2.35q.85-1.75.15-3.6-.7-1.8-2.45-2.6-1.75-.8-3.6-.15-1.8.65-2.65 2.4-.8 1.75-.15 3.55z" id="t"/><path fill="#F79728" d="M98.15 80.2q1.5.65 3.05.1 1.55-.55 2.25-2.05.65-1.45.1-3t-2.05-2.2q-1.5-.7-3.05-.15-1.55.55-2.2 2.05-.7 1.45-.15 3 .55 1.55 2.05 2.25z" id="u"/><path fill="#F79528" d="M101.2 73.65q-1.2-.55-2.5-.1-1.25.5-1.85 1.7-.55 1.2-.1 2.45.5 1.25 1.7 1.85 1.2.55 2.5.1 1.3-.5 1.85-1.7.55-1.15.1-2.45-.5-1.25-1.7-1.85z" id="v"/><path fill="#F79329" d="M98.75 78.9q1 .45 1.95.05 1-.35 1.45-1.3.45-.9.1-1.9-.4-1-1.35-1.4-.95-.45-1.95-.1t-1.4 1.3q-.45.95-.1 1.9.35 1 1.3 1.45z" id="w"/><path fill="#FCC21B" d="M33.9 60.15q-6.6-3-13.45-.55t-9.95 9q-3.1 6.55-.6 13.3 2.5 6.8 9.15 9.8 6.6 3.05 13.45.55 6.8-2.45 9.9-8.95 3.1-6.55.6-13.3-2.5-6.8-9.1-9.85z" id="x"/><path fill="#FCC01C" d="M33.6 60.8q-6.35-2.9-12.9-.55-6.6 2.35-9.55 8.65-2.95 6.25-.55 12.75 2.35 6.5 8.7 9.4 6.35 2.9 12.95.55 6.55-2.35 9.5-8.6 2.95-6.3.55-12.8-2.35-6.5-8.7-9.4z" id="y"/><path fill="#FCBE1C" d="M33.3 61.45q-6.1-2.8-12.4-.5-6.3 2.25-9.1 8.25-2.85 6-.55 12.2 2.3 6.2 8.35 9 6.1 2.8 12.4.55 6.25-2.25 9.1-8.25 2.85-6 .55-12.2-2.3-6.25-8.35-9.05z" id="z"/><path fill="#FBBB1D" d="M33 62.1q-5.8-2.65-11.85-.5-6 2.2-8.7 7.9-2.7 5.75-.5 11.65 2.2 5.95 7.95 8.6 5.8 2.7 11.85.5 6-2.15 8.7-7.9 2.75-5.7.55-11.65t-8-8.6z" id="A"/><path fill="#FBB91E" d="M32.65 62.75q-5.5-2.55-11.25-.5t-8.3 7.55q-2.55 5.45-.5 11.1 2.1 5.7 7.65 8.25 5.5 2.5 11.25.45t8.3-7.5q2.55-5.5.5-11.15-2.1-5.65-7.65-8.2z" id="B"/><path fill="#FBB71E" d="M32.4 63.4q-5.25-2.45-10.75-.5-5.45 2-7.9 7.2t-.45 10.55q2 5.4 7.25 7.85 5.25 2.4 10.7.45 5.45-1.95 7.9-7.15 2.45-5.25.5-10.6-2-5.4-7.25-7.8z" id="C"/><path fill="#FBB51F" d="M32.1 64q-5-2.3-10.2-.4-5.2 1.9-7.5 6.8t-.45 10.05q1.85 5.1 6.9 7.4 4.95 2.3 10.15.45 5.15-1.85 7.5-6.8 2.35-4.95.45-10.05Q37.1 66.3 32.1 64z" id="D"/><path fill="#FAB220" d="M31.75 64.7q-4.7-2.2-9.6-.45-4.9 1.75-7.1 6.45-2.2 4.65-.4 9.5 1.75 4.85 6.5 7 4.7 2.15 9.6.4 4.9-1.75 7.1-6.45 2.2-4.65.45-9.45-1.8-4.85-6.55-7z" id="E"/><path fill="#FAB020" d="M31.45 65.3q-4.45-2.05-9.05-.4-4.6 1.7-6.7 6.1-2.1 4.4-.4 8.95 1.7 4.55 6.15 6.6t9.05.4q4.6-1.65 6.7-6.05 2.1-4.4.4-8.95-1.7-4.55-6.15-6.65z" id="F"/><path fill="#FAAE21" d="M31.15 65.95q-4.2-1.9-8.5-.35-4.35 1.55-6.3 5.7-1.95 4.1-.4 8.4 1.6 4.3 5.8 6.25 4.15 1.9 8.5.35 4.35-1.55 6.3-5.7 2-4.15.4-8.45-1.6-4.3-5.8-6.2z" id="G"/><path fill="#FAAC22" d="M30.85 66.6q-3.9-1.8-7.95-.35-4.1 1.45-5.9 5.35-1.85 3.85-.35 7.85 1.45 4 5.4 5.8 3.9 1.8 7.95.35 4.1-1.4 5.9-5.3 1.85-3.9.35-7.9-1.45-4-5.4-5.8z" id="H"/><path fill="#F9A922" d="M30.55 67.25q-3.65-1.7-7.45-.35-3.75 1.4-5.45 5-1.7 3.6-.35 7.3 1.4 3.75 5.05 5.45 3.65 1.65 7.4.3 3.8-1.35 5.5-4.95 1.7-3.65.35-7.35-1.4-3.75-5.05-5.4z" id="I"/><path fill="#F9A723" d="M30.25 67.85q-3.35-1.55-6.9-.3-3.5 1.3-5.05 4.6Q16.75 75.5 18 79q1.25 3.45 4.65 5 3.35 1.55 6.85.3 3.5-1.25 5.1-4.6 1.6-3.35.3-6.8-1.25-3.5-4.65-5.05z" id="J"/><path fill="#F9A524" d="M29.95 68.5q-3.1-1.4-6.35-.25-3.2 1.15-4.65 4.25-1.45 3.05-.3 6.25 1.2 3.2 4.3 4.6 3.1 1.4 6.35.25 3.2-1.1 4.65-4.2 1.45-3.1.3-6.3-1.2-3.2-4.3-4.6z" id="K"/><path fill="#F9A324" d="M29.65 69.15q-2.85-1.3-5.8-.25-2.95 1.1-4.25 3.9-1.35 2.8-.25 5.7 1.05 2.9 3.9 4.2 2.85 1.3 5.8.25Q32 81.9 33.3 79.1q1.35-2.8.25-5.7-1.05-2.9-3.9-4.25z" id="L"/><path fill="#F8A025" d="M24.1 69.55q-2.65.95-3.85 3.55-1.2 2.5-.25 5.15 1 2.6 3.55 3.8 2.6 1.2 5.25.25t3.85-3.5q1.25-2.6.25-5.2-.95-2.6-3.55-3.8-2.6-1.2-5.25-.25z" id="M"/><path fill="#F89E26" d="M24.35 70.25q-2.4.85-3.45 3.15-1.1 2.25-.2 4.6.85 2.35 3.15 3.4 2.3 1.05 4.7.2 2.4-.8 3.5-3.1 1.05-2.3.15-4.65-.85-2.35-3.15-3.4-2.3-1.05-4.7-.2z" id="N"/><path fill="#F89C26" d="M24.6 70.9q-2.1.75-3.05 2.75-.95 2.05-.2 4.1.8 2.1 2.8 3.05 2.05.95 4.15.15 2.1-.75 3.05-2.75.95-2.05.2-4.1-.8-2.05-2.8-3-2.05-.95-4.15-.2z" id="O"/><path fill="#F89A27" d="M24.85 71.55q-1.85.7-2.65 2.4-.85 1.75-.2 3.55.65 1.85 2.45 2.65 1.75.8 3.6.15t2.65-2.4q.85-1.75.15-3.55-.65-1.8-2.45-2.6-1.75-.85-3.55-.2z" id="P"/><path fill="#F79728" d="M28.15 72.4q-1.5-.7-3.05-.15-1.55.55-2.25 2.05-.7 1.45-.15 3 .55 1.55 2.05 2.2 1.5.7 3.05.15 1.55-.55 2.25-2.05.7-1.5.15-3-.55-1.55-2.05-2.2z" id="Q"/><path fill="#F79528" d="M27.85 73q-1.2-.55-2.5-.1-1.3.45-1.85 1.65-.6 1.25-.15 2.5.5 1.25 1.7 1.8 1.25.6 2.5.1 1.3-.45 1.85-1.65.6-1.2.1-2.45-.45-1.25-1.65-1.85z" id="R"/><path fill="#F79329" d="M27.55 73.65q-.95-.45-1.95-.1t-1.45 1.35q-.45.9-.1 1.9.4.95 1.35 1.4.95.45 1.95.1T28.8 77q.45-1 .05-1.95-.35-.95-1.3-1.4z" id="S"/><path fill="#2F2F2F" d="M28.25 67.45q1.1-.3 1.7-1.25.85-1.35 2.45-2.55 3.1-2.4 7.2-2.4 4.15 0 7.25 2.4 1.6 1.2 2.45 2.55.8 1.35 2.35 1.35.7 0 1.4-.4.95-.55 1.25-1.65.25-1.1-.3-2.05-1.25-2.1-3.6-3.95-4.65-3.7-10.8-3.7-6.1 0-10.75 3.7-2.35 1.85-3.6 3.95-.55.95-.3 2 .3 1.1 1.25 1.7 1 .55 2.05.3z" id="T"/><path fill="#2F2F2F" d="M102 67.15q.95-.55 1.25-1.65.25-1.15-.3-2.1-1.25-2.05-3.6-3.9-4.65-3.7-10.75-3.7-6.15 0-10.8 3.7-3.5 3.75-3.6 3.9-.55 1-.3 2.1.3 1.1 1.25 1.65 1 .55 2.1.3 1.1-.3 1.65-1.25l2.35-2.5q3.15-2.45 7.35-2.45 4.1 0 7.25 2.4 1.6 1.2 2.4 2.55.75 1.3 2.35 1.3.75 0 1.4-.35z" id="U"/><path fill="#2F2F2F" d="M86.7 78q-1.75 2.6-5.3 5-7.05 4.65-17 4.65-10.3 0-17.9-4.05-2.4-1.3-4.3-2.9-.95-.8-1.5-1.45-.85-1.05-2.2-1.2-1.3-.15-2.35.7-1 .85-1.15 2.2-.15 1.3.7 2.35.6.75 1.85 1.9 2.3 2 5.25 3.65Q52 94.1 64.4 94.1q12.3 0 21.1-6.15 4.45-3.1 6.65-6.5.7-1.15.4-2.45-.3-1.3-1.4-2-1.1-.7-2.45-.4-1.3.3-2 1.4z" id="V"/></defs><use xlink:href="#a" transform="scale(.5625)"/><use xlink:href="#b" transform="scale(.5625)"/><use xlink:href="#c" transform="scale(.5625)"/><use xlink:href="#d" transform="scale(.5625)"/><use xlink:href="#e" transform="scale(.5625)"/><use xlink:href="#f" transform="scale(.5625)"/><use xlink:href="#g" transform="scale(.5625)"/><use xlink:href="#h" transform="scale(.5625)"/><use xlink:href="#i" transform="scale(.5625)"/><use xlink:href="#j" transform="scale(.5625)"/><use xlink:href="#k" transform="scale(.5625)"/><use xlink:href="#l" transform="scale(.5625)"/><use xlink:href="#m" transform="scale(.5625)"/><use xlink:href="#n" transform="scale(.5625)"/><use xlink:href="#o" transform="scale(.5625)"/><use xlink:href="#p" transform="scale(.5625)"/><use xlink:href="#q" transform="scale(.5625)"/><use xlink:href="#r" transform="scale(.5625)"/><use xlink:href="#s" transform="scale(.5625)"/><use xlink:href="#t" transform="scale(.5625)"/><use xlink:href="#u" transform="scale(.5625)"/><use xlink:href="#v" transform="scale(.5625)"/><use xlink:href="#w" transform="scale(.5625)"/><use xlink:href="#x" transform="scale(.5625)"/><use xlink:href="#y" transform="scale(.5625)"/><use xlink:href="#z" transform="scale(.5625)"/><use xlink:href="#A" transform="scale(.5625)"/><use xlink:href="#B" transform="scale(.5625)"/><use xlink:href="#C" transform="scale(.5625)"/><use xlink:href="#D" transform="scale(.5625)"/><use xlink:href="#E" transform="scale(.5625)"/><use xlink:href="#F" transform="scale(.5625)"/><use xlink:href="#G" transform="scale(.5625)"/><use xlink:href="#H" transform="scale(.5625)"/><use xlink:href="#I" transform="scale(.5625)"/><use xlink:href="#J" transform="scale(.5625)"/><use xlink:href="#K" transform="scale(.5625)"/><use xlink:href="#L" transform="scale(.5625)"/><use xlink:href="#M" transform="scale(.5625)"/><use xlink:href="#N" transform="scale(.5625)"/><use xlink:href="#O" transform="scale(.5625)"/><use xlink:href="#P" transform="scale(.5625)"/><use xlink:href="#Q" transform="scale(.5625)"/><use xlink:href="#R" transform="scale(.5625)"/><use xlink:href="#S" transform="scale(.5625)"/><use xlink:href="#T" transform="scale(.5625)"/><use xlink:href="#U" transform="scale(.5625)"/><use xlink:href="#V" transform="scale(.5625)"/></svg>