<svg xmlns="http://www.w3.org/2000/svg" xmlns:xlink="http://www.w3.org/1999/xlink" preserveAspectRatio="none" viewBox="0 0 72 72"><defs><path fill="#FCC21B" d="M127.55 92.35q0-27-8.5-47.05-15.6-36.65-55.3-36.65Q24.1 8.65 8.5 45.3 0 65.35 0 92.35q0 10.4 18.7 17.7 18.65 7.35 45.05 7.35 26.45 0 45.1-7.35 18.7-7.3 18.7-17.7z" id="a"/><path fill="#FCC21B" d="M109.5 94.95q7.15-2.6 10.35-9.35 3.2-6.8.6-13.85-2.6-7-9.45-10.15-6.9-3.2-14-.6-7.1 2.55-10.3 9.35-3.2 6.75-.65 13.8 2.65 7 9.5 10.2 6.85 3.15 13.95.6z" id="b"/><path fill="#FCC01C" d="M109.3 94.3q6.85-2.5 9.9-9 3.1-6.5.6-13.3-2.45-6.75-9.1-9.8-6.6-3.05-13.45-.6-6.85 2.5-9.95 9-3.05 6.55-.55 13.3 2.5 6.8 9.1 9.85t13.45.55z" id="c"/><path fill="#FCBE1C" d="M109.05 93.65q6.55-2.35 9.55-8.65 2.95-6.25.55-12.75-2.4-6.5-8.75-9.45-6.35-2.9-12.9-.55-6.6 2.4-9.55 8.65-3 6.3-.6 12.8 2.4 6.5 8.75 9.4 6.35 2.9 12.95.55z" id="d"/><path fill="#FBBB1D" d="M108.8 93q6.35-2.25 9.15-8.25 2.85-6.05.55-12.3-2.3-6.25-8.4-9.05-6.1-2.8-12.4-.5-6.35 2.3-9.15 8.3-2.85 6-.55 12.25t8.4 9.05q6.05 2.8 12.4.5z" id="e"/><path fill="#FBB91E" d="M108.6 92.4q6.05-2.15 8.75-7.95 2.75-5.75.55-11.75-2.2-5.95-8.05-8.65-5.85-2.7-11.9-.55-6.05 2.2-8.75 8-2.7 5.75-.55 11.7 2.2 6 8.05 8.7 5.85 2.7 11.9.5z" id="f"/><path fill="#FBB71E" d="M108.35 91.75q5.8-2.05 8.4-7.6 2.6-5.5.5-11.2-2.15-5.75-7.7-8.3-5.55-2.55-11.35-.5-5.8 2.1-8.4 7.6-2.6 5.5-.5 11.25 2.1 5.7 7.65 8.3 5.6 2.55 11.4.45z" id="g"/><path fill="#FBB51F" d="M108.1 91.1q5.5-1.95 8-7.2t.5-10.75q-2-5.45-7.35-7.9T98.4 64.8q-5.5 2-8 7.25-2.45 5.25-.45 10.7 2 5.45 7.3 7.9 5.35 2.45 10.85.45z" id="h"/><path fill="#FAB220" d="M107.9 90.5q5.25-1.9 7.6-6.9 2.35-5 .45-10.2-1.9-5.2-7-7.5-5.05-2.35-10.3-.45-5.25 1.9-7.6 6.9-2.35 4.95-.45 10.15 1.85 5.2 6.95 7.55 5.05 2.35 10.35.45z" id="i"/><path fill="#FAB020" d="M107.65 89.85q5-1.8 7.25-6.55t.4-9.7q-1.85-4.9-6.65-7.1-4.8-2.2-9.8-.45-4.95 1.8-7.2 6.55-2.25 4.8-.45 9.7 1.85 4.9 6.65 7.15 4.8 2.2 9.8.4z" id="j"/><path fill="#FAAE21" d="M107.4 89.2q4.75-1.7 6.85-6.15 2.15-4.5.4-9.2-1.7-4.65-6.25-6.75-4.55-2.1-9.3-.4-4.7 1.7-6.85 6.2-2.1 4.5-.4 9.15 1.75 4.7 6.3 6.8 4.55 2.1 9.25.35z" id="k"/><path fill="#FAAC22" d="M107.15 88.6q4.45-1.6 6.45-5.85t.4-8.65q-1.6-4.4-5.9-6.4-4.3-1.95-8.75-.35T92.9 73.2q-2 4.2-.4 8.65 1.6 4.4 5.9 6.35 4.3 2 8.75.4z" id="l"/><path fill="#F9A922" d="M106.95 87.95q4.2-1.5 6.1-5.5 1.85-4 .35-8.15-1.55-4.1-5.6-6-4.05-1.85-8.2-.35-4.2 1.5-6.1 5.5-1.9 4.05-.35 8.15 1.5 4.15 5.55 6 4.05 1.85 8.25.35z" id="m"/><path fill="#F9A723" d="M106.7 87.3q3.95-1.4 5.7-5.15 1.8-3.75.35-7.6-1.4-3.85-5.2-5.6-3.8-1.75-7.75-.35-3.9 1.45-5.65 5.15-1.75 3.75-.35 7.6 1.4 3.9 5.2 5.65 3.8 1.75 7.7.3z" id="n"/><path fill="#F9A524" d="M106.5 86.7q3.65-1.3 5.3-4.8 1.6-3.5.3-7.15-1.35-3.6-4.9-5.25-3.5-1.6-7.15-.3-3.65 1.35-5.3 4.85-1.65 3.5-.35 7.1 1.35 3.6 4.9 5.25 3.55 1.6 7.2.3z" id="o"/><path fill="#F9A324" d="M106.25 86.05q3.4-1.2 4.9-4.45 1.55-3.25.3-6.6-1.25-3.35-4.5-4.85-3.25-1.5-6.65-.3-3.4 1.25-4.95 4.5-1.5 3.2-.3 6.55 1.25 3.35 4.5 4.85 3.3 1.5 6.7.3z" id="p"/><path fill="#F8A025" d="M106 85.4q3.1-1.1 4.5-4.1 1.45-2.95.3-6.05-1.1-3.05-4.15-4.45-3.05-1.4-6.15-.3-3.1 1.15-4.5 4.1-1.4 3-.3 6.1 1.15 3.1 4.2 4.45 3 1.4 6.1.25z" id="q"/><path fill="#F89E26" d="M105.8 84.75q2.85-1 4.15-3.75 1.25-2.7.2-5.55-1-2.8-3.8-4.1-2.75-1.25-5.6-.2-2.85 1-4.15 3.75-1.25 2.75-.25 5.55 1.05 2.8 3.8 4.1 2.75 1.25 5.65.2z" id="r"/><path fill="#F89C26" d="M105.55 84.15q2.6-.95 3.75-3.4 1.2-2.5.25-5.05T106.1 72q-2.5-1.15-5.1-.25-2.6.95-3.8 3.4-1.15 2.5-.2 5.05.95 2.6 3.45 3.75t5.1.2z" id="s"/><path fill="#F89A27" d="M105.3 83.5q2.3-.8 3.4-3.05 1.05-2.2.2-4.5-.85-2.3-3.1-3.35-2.25-1.05-4.6-.2-2.35.85-3.35 3.05-1.05 2.25-.2 4.55.85 2.3 3.1 3.35 2.25 1 4.55.15z" id="t"/><path fill="#F79728" d="M105.05 82.85q2.05-.7 3-2.7.95-1.95.2-4t-2.75-2.95q-2-.9-4.05-.15t-3 2.7q-.9 1.95-.15 4t2.7 2.95q2 .9 4.05.15z" id="u"/><path fill="#F79528" d="M104.85 82.25q1.8-.65 2.6-2.35.8-1.75.15-3.5t-2.35-2.55q-1.75-.85-3.55-.2-1.8.7-2.6 2.4t-.15 3.45q.65 1.8 2.35 2.6 1.75.8 3.55.15z" id="v"/><path fill="#F79329" d="M104.6 81.6q1.55-.55 2.25-2 .65-1.45.1-3-.55-1.5-2.05-2.2-1.45-.65-3-.1t-2.2 2q-.7 1.45-.15 3 .55 1.5 2.05 2.2 1.45.65 3 .1z" id="w"/><path fill="#FCC21B" d="M33 61.6q-6.9-3.2-14-.6-7.1 2.55-10.3 9.35-3.2 6.75-.6 13.8 2.6 7 9.45 10.2 6.85 3.15 13.95.6 7.15-2.6 10.35-9.35 3.2-6.8.6-13.85-2.6-7-9.45-10.15z" id="x"/><path fill="#FCC01C" d="M32.7 62.2q-6.6-3.05-13.45-.6-6.85 2.5-9.95 9-3.05 6.55-.55 13.3 2.5 6.8 9.1 9.85t13.45.55q6.85-2.5 9.9-9 3.1-6.5.6-13.3-2.45-6.75-9.1-9.8z" id="y"/><path fill="#FCBE1C" d="M32.4 62.8q-6.35-2.9-12.9-.55-6.6 2.4-9.55 8.65-3 6.3-.6 12.8 2.4 6.5 8.75 9.4 6.35 2.9 12.95.55Q37.6 91.3 40.6 85q2.95-6.25.55-12.75-2.4-6.5-8.75-9.45z" id="z"/><path fill="#FBBB1D" d="M30.8 93q6.35-2.25 9.15-8.25 2.85-6.05.55-12.3-2.3-6.25-8.4-9.05-6.1-2.8-12.4-.5-6.3 2.3-9.15 8.3Q7.7 77.25 10 83.45q2.3 6.25 8.4 9.05 6.1 2.8 12.4.5z" id="A"/><path fill="#FBB91E" d="M30.6 92.4q6.05-2.15 8.75-7.95 2.75-5.75.55-11.75-2.2-5.95-8.05-8.65-5.85-2.7-11.9-.55-6.05 2.2-8.75 8-2.7 5.75-.55 11.7 2.2 6 8.05 8.7 5.85 2.7 11.9.5z" id="B"/><path fill="#FBB71E" d="M30.35 91.75q5.8-2.05 8.4-7.6 2.6-5.5.5-11.2-2.15-5.75-7.7-8.3-5.55-2.55-11.35-.5-5.8 2.1-8.4 7.6-2.6 5.5-.5 11.25 2.1 5.7 7.65 8.3 5.6 2.55 11.4.45z" id="C"/><path fill="#FBB51F" d="M30.1 91.1q5.5-1.95 8-7.2t.5-10.75q-2-5.45-7.35-7.9T20.4 64.8q-5.5 2-8 7.25-2.45 5.25-.45 10.7 2 5.45 7.3 7.9 5.35 2.45 10.85.45z" id="D"/><path fill="#FAB220" d="M29.85 90.5q5.3-1.9 7.65-6.9 2.35-5 .45-10.2-1.9-5.2-7-7.5-5.05-2.35-10.3-.45-5.25 1.9-7.6 6.9-2.35 4.95-.45 10.15 1.85 5.2 6.95 7.55 5.05 2.35 10.3.45z" id="E"/><path fill="#FAB020" d="M29.65 89.85q5-1.8 7.25-6.55t.4-9.7q-1.8-4.9-6.65-7.1-4.8-2.2-9.8-.45-4.95 1.8-7.2 6.55-2.25 4.8-.45 9.7 1.85 4.9 6.65 7.15 4.8 2.2 9.8.4z" id="F"/><path fill="#FAAE21" d="M29.4 89.2q4.75-1.7 6.85-6.15 2.15-4.5.45-9.2-1.7-4.65-6.3-6.75-4.55-2.1-9.3-.4-4.7 1.7-6.85 6.2-2.1 4.5-.4 9.15 1.75 4.7 6.3 6.8 4.55 2.1 9.25.35z" id="G"/><path fill="#FAAC22" d="M29.2 88.6q4.45-1.6 6.45-5.85T36 74.1q-1.6-4.4-5.9-6.4-4.3-1.95-8.75-.35-4.45 1.55-6.45 5.85-2 4.2-.4 8.65 1.6 4.4 5.95 6.35 4.3 2 8.75.4z" id="H"/><path fill="#F9A922" d="M28.95 87.95q4.15-1.5 6.05-5.5 1.9-4 .4-8.15-1.55-4.1-5.6-6-4.05-1.85-8.2-.35-4.2 1.5-6.1 5.5-1.9 4.05-.35 8.15 1.5 4.15 5.55 6 4.05 1.85 8.25.35z" id="I"/><path fill="#F9A723" d="M28.7 87.3q3.95-1.4 5.7-5.15 1.8-3.75.35-7.6-1.4-3.85-5.2-5.6-3.8-1.75-7.7-.35-3.95 1.45-5.7 5.15-1.75 3.75-.35 7.6 1.4 3.9 5.2 5.65 3.8 1.75 7.7.3z" id="J"/><path fill="#F9A524" d="M28.5 86.7q3.65-1.3 5.3-4.8 1.6-3.5.3-7.15-1.35-3.6-4.9-5.25-3.5-1.6-7.15-.3-3.65 1.35-5.3 4.85-1.65 3.5-.3 7.1 1.3 3.6 4.85 5.25 3.55 1.6 7.2.3z" id="K"/><path fill="#F9A324" d="M28.25 86.05q3.4-1.2 4.9-4.45 1.55-3.25.3-6.6-1.25-3.35-4.5-4.85-3.25-1.5-6.65-.3-3.4 1.25-4.9 4.5-1.55 3.2-.3 6.55 1.2 3.35 4.45 4.85 3.3 1.5 6.7.3z" id="L"/><path fill="#F8A025" d="M28 85.4q3.15-1.1 4.55-4.1 1.4-2.95.25-6.05-1.15-3.1-4.15-4.45-3-1.4-6.15-.3-3.1 1.15-4.5 4.1-1.4 3-.3 6.1 1.15 3.1 4.2 4.45 3 1.4 6.1.25z" id="M"/><path fill="#F89E26" d="M27.75 84.75q2.9-1 4.15-3.75 1.3-2.7.25-5.55-1.05-2.8-3.8-4.1-2.75-1.25-5.6-.2-2.85 1-4.15 3.75-1.25 2.75-.25 5.55 1.05 2.8 3.8 4.1 2.75 1.25 5.6.2z" id="N"/><path fill="#F89C26" d="M27.55 84.15q2.6-.95 3.75-3.4 1.2-2.5.25-5.05T28.1 72q-2.5-1.15-5.1-.25-2.6.95-3.8 3.4-1.15 2.5-.2 5.05.95 2.6 3.45 3.75t5.1.2z" id="O"/><path fill="#F89A27" d="M27.3 83.5q2.35-.8 3.35-3.05 1.05-2.2.2-4.5-.8-2.3-3.05-3.35-2.25-1.05-4.6-.2-2.35.85-3.35 3.05-1.05 2.25-.2 4.55.85 2.3 3.1 3.35 2.25 1 4.55.15z" id="P"/><path fill="#F79728" d="M27.1 82.85q2.05-.7 2.95-2.7.95-2 .2-4-.75-2.05-2.75-2.95-2-.9-4.05-.15t-3 2.7q-.9 1.95-.15 4t2.75 2.95q2 .9 4.05.15z" id="Q"/><path fill="#F79528" d="M26.85 82.25q1.8-.65 2.6-2.35.8-1.75.15-3.5t-2.35-2.55q-1.75-.85-3.55-.2-1.8.7-2.6 2.4t-.15 3.45q.65 1.8 2.35 2.6 1.75.8 3.55.15z" id="R"/><path fill="#F79329" d="M26.6 81.6q1.55-.55 2.25-2 .65-1.45.1-3-.55-1.5-2.05-2.2-1.45-.65-3-.1t-2.2 2q-.7 1.45-.15 3 .55 1.5 2.05 2.2 1.45.65 3 .1z" id="S"/><path fill="#D7598B" d="M52.1 31.4q-3.4-1.9-7.05-.85-2.5.7-4.25 2.55-1.75 1.75-2.35 4.15-1.8-1.7-4.2-2.35-2.45-.6-4.85.05-3.75 1.1-5.7 4.4-1.9 3.35-.9 7.1 1.9 6.8 11.75 11.75 5 2.5 10.05 3.75h.55q.25-.05.65-.35 3.7-3.7 6.7-8.45Q58.4 43.8 56.55 37q-1-3.65-4.45-5.6z" id="T"/><path fill="#D7598B" d="M52.1 31.4q-3.4-1.9-7.05-.85-2.5.7-4.25 2.55-1.75 1.75-2.35 4.15-1.8-1.7-4.2-2.35-2.45-.6-4.85.05-3.75 1.1-5.7 4.4-1.9 3.35-.9 7.1 1.9 6.8 11.75 11.75 5 2.5 10.05 3.75h.55q.25-.05.65-.35 3.7-3.7 6.7-8.45Q58.4 43.8 56.55 37q-1-3.65-4.45-5.6z" id="U"/><path fill="#ED6C30" d="M97.65 76.15q1.7-5.9-1.2-7.85-2-1.35-5.1-1.05Q91 67.3 86 68.3q-10.05 2.05-22 2.05-12 0-22.05-2.05-5-1-5.35-1.05-3.1-.3-5.1 1.05-2.9 1.95-1.2 7.85Q32 82 36.65 86.85q4.2 4.35 9.55 7.15 8.1 4.25 17.8 4.25 9.65 0 17.75-4.25 5.35-2.8 9.55-7.15Q96 82 97.65 76.15z" id="V"/></defs><use xlink:href="#a" transform="scale(.5625)"/><use xlink:href="#b" transform="scale(.5625)"/><use xlink:href="#c" transform="scale(.5625)"/><use xlink:href="#d" transform="scale(.5625)"/><use xlink:href="#e" transform="scale(.5625)"/><use xlink:href="#f" transform="scale(.5625)"/><use xlink:href="#g" transform="scale(.5625)"/><use xlink:href="#h" transform="scale(.5625)"/><use xlink:href="#i" transform="scale(.5625)"/><use xlink:href="#j" transform="scale(.5625)"/><use xlink:href="#k" transform="scale(.5625)"/><use xlink:href="#l" transform="scale(.5625)"/><use xlink:href="#m" transform="scale(.5625)"/><use xlink:href="#n" transform="scale(.5625)"/><use xlink:href="#o" transform="scale(.5625)"/><use xlink:href="#p" transform="scale(.5625)"/><use xlink:href="#q" transform="scale(.5625)"/><use xlink:href="#r" transform="scale(.5625)"/><use xlink:href="#s" transform="scale(.5625)"/><use xlink:href="#t" transform="scale(.5625)"/><use xlink:href="#u" transform="scale(.5625)"/><use xlink:href="#v" transform="scale(.5625)"/><use xlink:href="#w" transform="scale(.5625)"/><use xlink:href="#x" transform="scale(.5625)"/><use xlink:href="#y" transform="scale(.5625)"/><use xlink:href="#z" transform="scale(.5625)"/><use xlink:href="#A" transform="scale(.5625)"/><use xlink:href="#B" transform="scale(.5625)"/><use xlink:href="#C" transform="scale(.5625)"/><use xlink:href="#D" transform="scale(.5625)"/><use xlink:href="#E" transform="scale(.5625)"/><use xlink:href="#F" transform="scale(.5625)"/><use xlink:href="#G" transform="scale(.5625)"/><use xlink:href="#H" transform="scale(.5625)"/><use xlink:href="#I" transform="scale(.5625)"/><use xlink:href="#J" transform="scale(.5625)"/><use xlink:href="#K" transform="scale(.5625)"/><use xlink:href="#L" transform="scale(.5625)"/><use xlink:href="#M" transform="scale(.5625)"/><use xlink:href="#N" transform="scale(.5625)"/><use xlink:href="#O" transform="scale(.5625)"/><use xlink:href="#P" transform="scale(.5625)"/><use xlink:href="#Q" transform="scale(.5625)"/><use xlink:href="#R" transform="scale(.5625)"/><use xlink:href="#S" transform="scale(.5625)"/><use xlink:href="#T" transform="matrix(.64793 0 0 .64793 -4.1 -2.4)"/><use xlink:href="#U" transform="matrix(-.64793 0 0 .64793 76.15 -2.4)"/><g transform="matrix(.45705 0 0 .47575 6.7 9.75)"><use xlink:href="#V"/></g></svg>