<svg xmlns="http://www.w3.org/2000/svg" xmlns:xlink="http://www.w3.org/1999/xlink" preserveAspectRatio="none" viewBox="0 0 72 72"><defs><path fill="#FCC21B" d="M63.75 16.95Q24.1 16.95 8.5 53.6 0 73.65 0 100.6q0 10.4 18.7 17.7 18.65 7.35 45.05 7.35 26.45 0 45.1-7.35 18.7-7.3 18.7-17.7 0-26.95-8.5-47-15.6-36.65-55.3-36.65z" id="a"/><path fill="#2F2F2F" d="M93.4 88.4q.7-1 .5-2.25-.15-1.25-1.15-1.95-1-.75-2.25-.55-1.25.2-1.95 1.2-4.35 6-10.75 9.3Q71.35 97.4 64 97.4q-7.4 0-13.8-3.25-6.45-3.3-10.8-9.3-.7-1-1.95-1.2-1.25-.15-2.25.55-1 .75-1.15 1.95-.2 1.25.5 2.25 5.2 7.15 12.9 11.1 7.7 3.9 16.55 3.9 8.85 0 16.5-3.9 7.75-3.95 12.9-11.1z" id="b"/><path fill="#2F2F2F" d="M31.95 73.85q.45-1.05 2.4-2.6 3.15-2.4 7.25-2.35 4.15 0 7.25 2.4 1.6 1.2 2.45 2.55.75 1.3 2.35 1.3.75 0 1.4-.35.95-.6 1.25-1.7.25-1.1-.3-2.05-1.25-2.05-3.6-3.9-4.65-3.7-10.8-3.7-6.1 0-10.75 3.7-2.35 1.85-3.6 3.9-.55 1-.3 2.05.3 1.1 1.25 1.65.95.6 2.05.3 1.1-.25 1.7-1.2z" id="c"/><path fill="#2F2F2F" d="M100 74.75q.95-.55 1.25-1.65.25-1.1-.3-2.05-1.25-2.05-3.6-3.95-4.65-3.7-10.75-3.7-6.15 0-10.8 3.7-2.35 1.9-3.6 3.95-.55 1-.3 2.05.3 1.1 1.25 1.65.95.6 2.1.3 1.1-.25 1.65-1.25.75-1.25 2.35-2.5 3.15-2.45 7.35-2.45 4.1 0 7.25 2.4 1.6 1.2 2.4 2.55.8 1.35 2.35 1.35.8 0 1.4-.4z" id="d"/><path fill="#40C0E7" d="M120.3 21q0-8.7-16.55-14.85T63.75 0Q40.35 0 23.8 6.15 7.25 12.3 7.25 21q0 8.75 16.55 14.85Q40.35 42 63.75 42q23.45 0 40-6.15Q120.3 29.75 120.3 21m-24.55-3.6q0 3.55-9.35 6-9.4 2.5-22.65 2.5-13.25 0-22.6-2.5-9.4-2.5-9.4-6 0-3.55 9.4-6.05 9.35-2.5 22.6-2.5 13.25 0 22.65 2.5 9.35 2.5 9.35 6.05z" id="e"/></defs><use xlink:href="#a" transform="scale(.5625)"/><use xlink:href="#b" transform="scale(.5625)"/><use xlink:href="#c" transform="scale(.5625)"/><use xlink:href="#d" transform="scale(.5625)"/><use xlink:href="#e" transform="scale(.5625)"/></svg>