<svg xmlns="http://www.w3.org/2000/svg" xmlns:xlink="http://www.w3.org/1999/xlink" preserveAspectRatio="none" viewBox="0 0 72 72"><defs><path fill="#FCC21B" d="M36 5.45q-22.35 0-31.1 20.6Q.1 37.3.1 52.5q0 5.85 10.55 9.95Q21.1 66.6 36 66.6q14.85 0 25.35-4.15 10.5-4.1 10.5-9.95 0-15.2-4.75-26.45Q58.3 5.45 36 5.45z" id="a"/><path fill="#2F2F2F" d="M86.4 86.65q.95-.95.9-2.3 0-1.35-.95-2.3-1-.95-2.3-.95-1.35.05-2.3 1-1.8 1.75-4.8 3.35-6 3.15-13.1 3.15-7.05 0-13.05-3.15-4.65-3.2-4.8-3.35-.95-.95-2.3-1-1.3 0-2.3.95-.95.95-1 2.3 0 1.3.95 2.3.2.15 6.1 4.35 7.55 4.1 16.4 4.1 8.85 0 16.45-4.1 3.85-2.1 6.1-4.35z" id="b"/><path fill="#2F2F2F" d="M96.15 52.4q-.85 1.35-2.45 2.55-3.1 2.4-7.25 2.4-4.1 0-7.25-2.4-2.35-2.45-2.45-2.6-.75-1.3-2.3-1.3-.7 0-1.4.4-.95.55-1.25 1.65-.3 1.1.25 2.05.1.15 3.6 3.95 4.7 3.7 10.8 3.7 6.15 0 10.8-3.7 2.35-1.85 3.6-3.95.55-.95.25-2.05-.25-1.05-1.25-1.65-.95-.55-2.05-.3-1.1.3-1.65 1.25z" id="d"/><path fill="#2F2F2F" d="M28.1 51.45q-.95.55-1.25 1.65-.3 1.1.25 2.05.1.2 3.6 3.95 4.65 3.7 10.8 3.7t10.8-3.7q2.85-2.25 3.55-3.95.6-.95.3-2.05-.25-1.1-1.25-1.65-.95-.6-2.05-.3-1.1.25-1.65 1.25-.75 1.25-2.35 2.5-3.15 2.45-7.35 2.45-4.15 0-7.25-2.4-2.35-2.45-2.4-2.55-.85-1.35-2.4-1.35-.65 0-1.35.4z" id="e"/><path id="c" stroke="#2F2F2F" stroke-width="3" stroke-linejoin="round" stroke-linecap="round" fill="none" d="M47.4 19.95q5.55-.3 8.9 5.5m-31.65-5.5q-5.569-.293-8.9 5.5"/></defs><use xlink:href="#a"/><use xlink:href="#b" transform="translate(.1 .95) scale(.5625)"/><use xlink:href="#c" transform="matrix(1 0 0 .69412 0 6.95)"/><use xlink:href="#d" transform="matrix(.56247 0 0 .56247 0 4.5)"/><use xlink:href="#e" transform="matrix(.56247 0 0 .56247 0 4.5)"/></svg>