<svg xmlns="http://www.w3.org/2000/svg" xmlns:xlink="http://www.w3.org/1999/xlink" preserveAspectRatio="none" viewBox="0 0 72 72"><defs><path fill="#FCC21B" d="M127.45 93.2q0-26.85-8.45-46.8Q103.5 9.9 64 9.9T9 46.4Q.5 66.35.5 93.2q0 10.35 18.6 17.65 18.55 7.3 44.9 7.3 26.25 0 44.85-7.3 18.6-7.35 18.6-17.65z" id="a"/><path fill="#2F2F2F" d="M89.65 84.75q1.25 0 2.1-.85.9-.9.9-2.15t-.85-2.1q-.9-.9-2.15-.9H38.3q-1.25 0-2.1.9-.9.85-.9 2.1t.9 2.15q.85.85 2.1.85h51.35z" id="b"/><path fill="#2F2F2F" d="M36.05 51.5q-2.35 2.9-2.3 6.9.05 4 2.45 6.85 2.45 2.8 5.8 2.75 3.35 0 5.7-2.85 2.35-2.9 2.3-6.9-.05-4-2.45-6.85-2.4-2.85-5.75-2.8-3.35.05-5.75 2.9z" id="c"/><path fill="#2F2F2F" d="M94.2 58.3q-.05-4-2.4-6.85-2.4-2.85-5.75-2.8-3.35 0-5.75 2.85t-2.4 6.85q.05 4 2.45 6.85 2.4 2.85 5.75 2.8 3.35 0 5.7-2.85 2.4-2.85 2.4-6.85z" id="d"/></defs><use xlink:href="#a" transform="scale(.5625)"/><use xlink:href="#b" transform="scale(.5625)"/><use xlink:href="#c" transform="matrix(.56247 0 0 .56247 .05 -2.85)"/><use xlink:href="#d" transform="matrix(.56247 0 0 .56247 .05 -2.85)"/></svg>