<svg xmlns="http://www.w3.org/2000/svg" xmlns:xlink="http://www.w3.org/1999/xlink" preserveAspectRatio="none" viewBox="0 0 72 72"><defs><path fill="#FCC21B" d="M127.65 93.35q0-27-8.5-47.05-15.6-36.65-55.3-36.65Q24.2 9.65 8.6 46.3.1 66.35.1 93.35q0 10.4 18.7 17.7 18.65 7.35 45.05 7.35 26.45 0 45.1-7.35 18.7-7.3 18.7-17.7z" id="a"/><path fill="#2F2F2F" d="M55.25 24.2q-.45-.4-1.1-.3-2 .3-4.4.95-4.9 1.25-8.1 3.2-.4.25-.6.7-.2.45-.05.95.15.45.55.8.4.3.9.3l3.6.2q4.1.45 6.85 1.7l.35.1q.5.05.9-.15.5-.25.7-.7.25-.55 0-1.15-.15-.6-.75-.85-2.75-1.2-5.75-1.6 3.3-1.1 6.25-1.5.6-.1 1-.6.35-.45.25-1.1-.1-.6-.6-.95z" id="b"/><path fill="#2F2F2F" d="M42.35 44.55q-.05-2-1.6-3.25-.8-.65-2.25-.9-1.35-.15-2.55.1-.9.25-1.5.65-.75.45-.65 1 .05.5.9.7.45.05 1.4.05 2.05 0 2.85.65.35.25.4 1.1.05.45-.4.95-.6.75-1.8 1.05-.6.15-1 .55-.4.5-.25 1.05.25.7 1.05.85l.3.1q2.4.45 2.75 1.6.1.25 0 .7-.1.4-.25.55-.65.8-1.6 1.2-.8.35-2.1.55-2.25.3-2.25 1.15.05.55.85.9.7.25 1.45.25 4.2 0 6-2.2 1.2-1.5.9-3.55-.3-1.5-2.2-2.7 1.6-1.5 1.55-3.1z" id="c"/><path fill="#2F2F2F" d="M19 30.35q0 2.25 1.35 3.85 1.4 1.6 3.25 1.55 1.9 0 3.25-1.6 1.3-1.65 1.25-3.9 0-2.25-1.35-3.85t-3.25-1.55q-1.85 0-3.2 1.6-1.35 1.65-1.3 3.9z" id="e"/><path fill="#FFFFFF" d="M32.2 23.9q-.3-1.9-1.1-2.85-.25-.3-1.1-.9l-1.05-.75q-.35-.3-.95-1.15L27.35 17q-1.6-2.7-3.6-4.6-2.3-2.35-4.65-2.8-1.85-.35-4.1.4-2.7 1-4.45 2.9-2 2-2.65 4.5l-.25 1.25q-.2.9-.35 1.25-.35.8-1.15 1.85-1.55 2.4-1.5 6.4 0 3.45 1.25 5.9.85 2 3.7 4.95 3.55 3.45 7.15 5.8 4.65 3.15 8 2.7 2.65-.4 4.6-2.7 1.8-2.05 2.15-5 .2-1.25.5-1.95.35-.5.8-.9.9-.75.95-.9 1.1-1.05 1-3.05 0-1.55-.85-3.25l-.65-1.35q-.45-.75-.6-1.35-.15-.35-.45-3.15m-9.1 14.7q-.15.15-.35 0-1.85-.9-2.65-1.65l3.35.65-.2.85-.15.15z" id="f"/><path fill="#FF3632" d="M69.05 24.5q0-7.2-5.05-12.35-5-5.1-12.15-5.1-5.2 0-9.6 2.95-4.25 2.9-6.2 7.7-1.95-4.85-6.25-7.7-4.3-2.95-9.6-2.95-7.05 0-12.1 5.1Q3.05 17.3 3.05 24.5q0 8.9 5.55 15.65 3.3 4.05 12 10.2 5.55 4 7.95 6.15 4.2 3.65 6.2 7.55l.15.4q.35.65 1.15.65h.05q.7 0 1.05-.7.1-.1.1-.25 2.15-4.05 6.25-7.6 2.55-2.3 8-6.2 8.7-6.15 12-10.2 5.55-6.75 5.55-15.65z" id="g"/><path id="d" stroke="#2F2F2F" stroke-width="3" stroke-linejoin="round" stroke-linecap="round" fill="none" d="M23.8 17.4q-5.2 1.15-8 5.55"/></defs><use xlink:href="#a" transform="translate(.1) scale(.5625)"/><use xlink:href="#b" transform="matrix(.99998 0 0 .99998 0 2)"/><use xlink:href="#c"/><use xlink:href="#d"/><use xlink:href="#e"/><use xlink:href="#f" transform="matrix(.32536 .15169 -.15176 .32549 50.75 33.25)"/><use xlink:href="#g" transform="matrix(.32536 .15169 -.15176 .32549 50.75 33.25)"/></svg>