<svg xmlns="http://www.w3.org/2000/svg" xmlns:xlink="http://www.w3.org/1999/xlink" preserveAspectRatio="none" viewBox="0 0 72 72"><defs><path fill="#FCC21B" d="M127.75 93.35q0-27-8.5-47.05Q103.65 9.65 64 9.65q-39.7 0-55.3 36.65Q.2 66.35.2 93.35q0 10.4 18.7 17.7 18.65 7.35 45.1 7.35 26.4 0 45.1-7.35 18.65-7.3 18.65-17.7z" id="a"/><path id="b" stroke="#2F2F2F" stroke-width="3" stroke-linejoin="round" stroke-linecap="round" fill="none" d="M52.55 46.75L49.1 50.5 42.5 43l-6.65 7.5-6.6-7.5-6.65 7.5-3.3-3.75"/><path id="c" stroke="#2F2F2F" stroke-width="3" stroke-linejoin="round" stroke-linecap="round" fill="none" d="M54.304 41.663q-5.347-3.457-11.754-5.624 6.407-2.305 11.754-5.624"/><path id="d" stroke="#2F2F2F" stroke-width="3" stroke-linejoin="round" stroke-linecap="round" fill="none" d="M17.75 30.415q5.353 3.337 11.754 5.624-6.413 2.187-11.754 5.624"/></defs><use xlink:href="#a" transform="scale(.5625)"/><use xlink:href="#b" transform="translate(0 3)"/><use xlink:href="#c" transform="matrix(1 0 0 1 .003 .038)"/><use xlink:href="#d" transform="matrix(1 0 0 1 .003 .038)"/></svg>