<svg xmlns="http://www.w3.org/2000/svg" xmlns:xlink="http://www.w3.org/1999/xlink" preserveAspectRatio="none" viewBox="0 0 72 72"><defs><path fill="#FCC21B" d="M127.75 93.35q0-27-8.5-47.05Q103.65 9.65 64 9.65q-39.7 0-55.3 36.65Q.2 66.35.2 93.35q0 10.4 18.7 17.7 18.65 7.35 45.1 7.35 26.4 0 45.1-7.35 18.65-7.3 18.65-17.7z" id="a"/><path fill="#2F2F2F" d="M47.8 45.7q-2.45-2.85-5.8-2.8-3.35.05-5.75 2.9-2.35 2.9-2.3 6.9.05 4 2.45 6.85 2.45 2.8 5.8 2.75 3.35-.05 5.7-2.9t2.35-6.85q-.05-4.05-2.45-6.85z" id="b"/><path fill="#2F2F2F" d="M92 45.75q-2.4-2.85-5.75-2.8-3.35 0-5.75 2.85-2.35 2.85-2.35 6.85 0 4 2.4 6.85 2.4 2.85 5.75 2.8 3.35 0 5.75-2.85 2.35-2.85 2.35-6.85 0-4-2.4-6.85z" id="c"/><path fill="#ED6C30" d="M45.05 47.5q-1.4-1.4-3.15-2.25-2.7-1.35-5.9-1.35-3.15 0-5.85 1.35-1.75.85-3.15 2.25-1.55 1.55-2.1 3.35-.55 1.9.4 2.5.65.45 1.7.35.105.004 2.45-1.05 2.334-1.006 6.3-1 4.015.006 6.6 1 2.645 1.046 2.7 1.05 1.05.1 1.7-.35.95-.6.4-2.5-.55-1.8-2.1-3.35z" id="d"/><path fill="#40C0E7" d="M20.35 36.75q-3.1 3.1-5.3 8.5-2.2 5.4 0 8.95 2.2 3.45 5.3 3.45 3.1 0 5.25-3.45 2.2-3.55 0-8.95-2.15-5.4-5.25-8.5z" id="e"/><path id="f" stroke="#2F2F2F" stroke-width="3" stroke-linejoin="round" stroke-linecap="round" fill="none" d="M49.45 20.25q4.8.55 7 5.5m-32.9-5.5q-4.85.55-7 5.5"/></defs><use xlink:href="#a" transform="scale(.5625)"/><use xlink:href="#b" transform="translate(-.1 2) scale(.5625)"/><use xlink:href="#c" transform="translate(-.1 2) scale(.5625)"/><g><use xlink:href="#d"/><use xlink:href="#e"/><use xlink:href="#f" transform="translate(-.5 1)"/></g></svg>