<svg xmlns="http://www.w3.org/2000/svg" xmlns:xlink="http://www.w3.org/1999/xlink" preserveAspectRatio="none" viewBox="0 0 72 72"><defs><path fill="#FCC21B" d="M127.85 93.45q0-27-8.5-47.1Q103.75 9.65 64 9.65T8.65 46.35Q.1 66.45.1 93.45q0 10.4 18.7 17.75 18.75 7.35 45.2 7.35 26.45 0 45.15-7.35t18.7-17.75z" id="a"/><path fill="#2F2F2F" d="M47.55 48.9q-2.4-2.85-5.75-2.8-3.35.05-5.75 2.9-2.35 2.9-2.3 6.9.05 4 2.45 6.85 2.4 2.8 5.75 2.75 3.35 0 5.75-2.85 2.35-2.9 2.3-6.9-.05-4-2.45-6.85z" id="b"/><path fill="#2F2F2F" d="M91.75 48.95q-2.35-2.85-5.7-2.8-3.35 0-5.75 2.85t-2.4 6.85q0 4 2.4 6.85 2.4 2.85 5.75 2.8 3.4 0 5.75-2.85 2.4-2.85 2.35-6.85 0-4-2.4-6.85z" id="c"/><path fill="#ED6C30" d="M85.65 92.6q-1.05-3.75-4.1-6.9-2.7-2.8-6.15-4.6-5.2-2.75-11.45-2.75-6.2 0-11.45 2.75-3.45 1.8-6.15 4.6-3 3.15-4.05 6.9-1.1 3.85.75 5.1 1.3.85 3.3.7.2-.05 3.4-.7 6.45-1.35 14.2-1.35 7.8 0 14.2 1.35 3.3.65 3.45.7 2 .15 3.3-.7 1.85-1.25.75-5.1z" id="d"/><path id="e" stroke="#2F2F2F" stroke-width="3" stroke-linejoin="round" stroke-linecap="round" fill="none" d="M47.165 20.15q5.937-.2 9.52 3.8m-31.716-3.8q-5.937-.2-9.521 3.8"/></defs><use xlink:href="#a" transform="scale(.5625)"/><use xlink:href="#b" transform="matrix(.56248 0 0 .56248 0 .9)"/><use xlink:href="#c" transform="matrix(.56248 0 0 .56248 0 .9)"/><use xlink:href="#d" transform="matrix(.54025 0 0 .58582 1.5 -2)"/><use xlink:href="#e" transform="matrix(.99999 0 0 1 -.01 0)"/></svg>