<svg xmlns="http://www.w3.org/2000/svg" xmlns:xlink="http://www.w3.org/1999/xlink" preserveAspectRatio="none" viewBox="0 0 72 72"><defs><path fill="#FCC21B" d="M127.75 93.35q0-27-8.5-47.05Q103.65 9.65 64 9.65q-39.7 0-55.3 36.65Q.2 66.35.2 93.35q0 10.4 18.7 17.7 18.65 7.35 45.1 7.35 26.4 0 45.1-7.35 18.65-7.3 18.65-17.7z" id="a"/><path fill="#FCC21B" d="M111 42.95q-6.85-3.15-14-.6-7.1 2.55-10.3 9.35-3.2 6.75-.65 13.8 2.65 7.05 9.5 10.2 6.8 3.15 13.95.6 7.1-2.55 10.35-9.35 3.2-6.8.6-13.8-2.6-7.05-9.45-10.2z" id="b"/><path fill="#FCC01C" d="M110.7 43.55q-6.6-3-13.45-.55-6.85 2.5-9.95 9-3.05 6.5-.55 13.3 2.5 6.75 9.1 9.8 6.6 3.05 13.45.55 6.85-2.45 9.9-8.95 3.1-6.55.6-13.35-2.45-6.75-9.1-9.8z" id="c"/><path fill="#FCBE1C" d="M110.4 44.2q-6.35-2.95-12.95-.6-6.55 2.4-9.55 8.7-2.95 6.25-.55 12.75 2.4 6.55 8.75 9.45 6.35 2.9 12.95.5 6.55-2.35 9.55-8.65 2.95-6.25.55-12.75-2.4-6.5-8.75-9.4z" id="d"/><path fill="#FBBB1D" d="M110.1 44.8q-6.1-2.85-12.4-.55-6.35 2.3-9.15 8.3-2.85 6-.55 12.25t8.4 9.05q6.05 2.8 12.4.55 6.35-2.3 9.15-8.3 2.85-6 .55-12.25t-8.4-9.05z" id="e"/><path fill="#FBB91E" d="M109.85 45.4q-5.85-2.65-11.9-.5-6.05 2.2-8.75 7.95t-.55 11.75q2.2 5.95 8.05 8.65 5.85 2.7 11.9.5 6.05-2.15 8.75-7.95 2.75-5.75.55-11.75-2.2-5.95-8.05-8.65z" id="f"/><path fill="#FBB71E" d="M109.55 46q-5.55-2.55-11.35-.5-5.8 2.1-8.4 7.65-2.6 5.5-.5 11.2 2.1 5.7 7.65 8.3 5.6 2.55 11.4.45 5.8-2.05 8.4-7.6 2.6-5.5.5-11.2-2.15-5.75-7.7-8.3z" id="g"/><path fill="#FBB51F" d="M109.25 46.6q-5.35-2.45-10.85-.45t-8 7.25q-2.45 5.25-.45 10.7 2 5.45 7.3 7.95 5.35 2.45 10.85.45t8-7.25q2.5-5.25.5-10.75-2-5.45-7.35-7.9z" id="h"/><path fill="#FAB220" d="M108.95 47.25q-5.05-2.35-10.3-.45-5.25 1.9-7.6 6.9-2.35 5-.45 10.2 1.9 5.2 6.95 7.5 5.05 2.35 10.35.45 5.25-1.85 7.6-6.9 2.35-5 .45-10.2-1.9-5.2-7-7.5z" id="i"/><path fill="#FAB020" d="M108.65 47.85q-4.8-2.2-9.8-.4-4.95 1.8-7.2 6.55t-.45 9.65q1.85 4.95 6.65 7.15 4.8 2.2 9.8.4 5-1.75 7.25-6.5 2.25-4.8.4-9.7-1.85-4.9-6.65-7.15z" id="j"/><path fill="#FAAE21" d="M108.4 48.45q-4.55-2.1-9.3-.4-4.7 1.7-6.85 6.2-2.1 4.5-.4 9.2 1.75 4.65 6.3 6.75 4.55 2.1 9.25.4 4.75-1.7 6.85-6.2 2.15-4.5.4-9.2-1.7-4.65-6.25-6.75z" id="k"/><path fill="#FAAC22" d="M108.1 49.1q-4.35-2-8.75-.4-4.45 1.6-6.45 5.85t-.4 8.65q1.6 4.4 5.9 6.4 4.35 1.95 8.75.35 4.45-1.6 6.45-5.85t.4-8.65q-1.6-4.4-5.9-6.35z" id="l"/><path fill="#F9A922" d="M106.95 69.3q4.2-1.5 6.1-5.5 1.85-3.95.35-8.1-1.55-4.15-5.6-6-4.05-1.9-8.2-.35-4.2 1.5-6.1 5.5-1.9 4-.35 8.1 1.5 4.15 5.55 6.05 4.05 1.85 8.25.3z" id="m"/><path fill="#F9A723" d="M106.7 68.7q3.95-1.4 5.7-5.2 1.8-3.75.35-7.6-1.4-3.85-5.2-5.6-3.8-1.75-7.75-.35-3.9 1.45-5.65 5.2-1.75 3.75-.35 7.6 1.4 3.85 5.2 5.6 3.8 1.75 7.7.35z" id="n"/><path fill="#F9A524" d="M106.5 68.05q3.65-1.3 5.3-4.8 1.6-3.5.3-7.1-1.35-3.65-4.9-5.25-3.5-1.6-7.15-.3-3.65 1.3-5.3 4.8t-.35 7.1q1.35 3.6 4.9 5.25 3.55 1.6 7.2.3z" id="o"/><path fill="#F9A324" d="M106.25 67.4q3.4-1.2 4.9-4.45 1.55-3.25.3-6.6-1.25-3.35-4.5-4.85-3.25-1.5-6.65-.3-3.4 1.25-4.95 4.5-1.5 3.2-.3 6.55 1.25 3.4 4.5 4.9 3.3 1.5 6.7.25z" id="p"/><path fill="#F8A025" d="M106 66.75q3.1-1.1 4.5-4.1 1.4-2.95.3-6.05-1.1-3.05-4.15-4.45-3.05-1.4-6.15-.3Q97.4 53 96 56q-1.4 2.95-.3 6.05 1.15 3.1 4.2 4.45 3 1.4 6.1.25z" id="q"/><path fill="#F89E26" d="M105.8 66.15q2.85-1.05 4.15-3.75 1.25-2.75.2-5.55-1-2.85-3.8-4.1-2.75-1.3-5.6-.25-2.85 1-4.15 3.75-1.25 2.75-.25 5.55 1.05 2.85 3.8 4.1 2.75 1.25 5.65.25z" id="r"/><path fill="#F89C26" d="M105.55 65.5q2.6-.95 3.75-3.4 1.2-2.45.25-5.05-.95-2.55-3.45-3.7-2.5-1.15-5.1-.2-2.6.95-3.8 3.4Q96.05 59 97 61.6q.95 2.55 3.45 3.7 2.5 1.15 5.1.2z" id="s"/><path fill="#F89A27" d="M105.3 64.85q2.3-.8 3.4-3.05 1.05-2.2.2-4.5-.85-2.3-3.1-3.35-2.3-1-4.6-.2-2.35.85-3.35 3.1-1.05 2.2-.2 4.5.85 2.3 3.1 3.35 2.25 1 4.55.15z" id="t"/><path fill="#F79728" d="M105.05 64.25q2.05-.75 3-2.7.95-2 .2-4-.75-2.05-2.75-3-2-.9-4.05-.15t-3 2.7q-.9 1.95-.15 4t2.7 2.95q2 .9 4.05.2z" id="u"/><path fill="#F79528" d="M104.85 63.6q1.8-.65 2.6-2.35.8-1.75.15-3.5t-2.35-2.55q-1.75-.8-3.55-.15-1.8.65-2.6 2.35-.8 1.7-.15 3.5.65 1.75 2.35 2.55 1.75.8 3.55.15z" id="v"/><path fill="#F79329" d="M104.6 62.95q1.55-.5 2.25-2 .65-1.45.1-2.95-.55-1.5-2.05-2.2-1.45-.65-3-.15-1.55.55-2.2 2.05-.7 1.45-.15 2.95.55 1.5 2.05 2.2 1.45.65 3 .1z" id="w"/><path fill="#FCC21B" d="M33 42.95q-6.85-3.15-14-.6-7.1 2.55-10.3 9.35-3.2 6.8-.6 13.8 2.6 7.05 9.45 10.2 6.8 3.15 13.95.6 7.1-2.55 10.35-9.35 3.2-6.8.6-13.8-2.6-7.05-9.45-10.2z" id="x"/><path fill="#FCC01C" d="M32.7 43.55q-6.6-3-13.45-.55-6.85 2.5-9.95 9-3.05 6.5-.55 13.3 2.5 6.75 9.1 9.8 6.6 3.05 13.45.55 6.85-2.45 9.9-8.95 3.1-6.55.6-13.35-2.45-6.75-9.1-9.8z" id="y"/><path fill="#FCBE1C" d="M32.4 44.2q-6.35-2.95-12.9-.6-6.6 2.4-9.55 8.7-3 6.25-.6 12.75 2.4 6.55 8.75 9.45 6.35 2.9 12.95.5 6.55-2.35 9.55-8.65 2.95-6.25.55-12.75-2.4-6.5-8.75-9.4z" id="z"/><path fill="#FBBB1D" d="M32.1 44.8q-6.1-2.85-12.4-.55-6.3 2.3-9.15 8.3Q7.7 58.6 10 64.8q2.3 6.25 8.4 9.05 6.1 2.8 12.4.55 6.35-2.3 9.15-8.3 2.85-6 .55-12.25t-8.4-9.05z" id="A"/><path fill="#FBB91E" d="M31.85 45.4q-5.85-2.65-11.9-.5-6.05 2.2-8.75 7.95t-.55 11.75q2.2 5.95 8.05 8.65 5.85 2.7 11.9.5 6.05-2.15 8.75-7.95 2.75-5.75.55-11.75-2.2-5.95-8.05-8.65z" id="B"/><path fill="#FBB71E" d="M31.55 46Q26 43.45 20.2 45.5q-5.8 2.1-8.4 7.65-2.6 5.5-.5 11.2 2.1 5.7 7.65 8.3 5.6 2.55 11.4.45 5.8-2.05 8.4-7.6 2.6-5.5.5-11.2-2.15-5.75-7.7-8.3z" id="C"/><path fill="#FBB51F" d="M31.25 46.6q-5.35-2.45-10.85-.45t-8 7.25q-2.45 5.25-.45 10.7 2 5.45 7.3 7.95 5.35 2.45 10.85.45t8-7.25q2.5-5.25.5-10.75-2-5.45-7.35-7.9z" id="D"/><path fill="#FAB220" d="M30.95 47.25q-5.05-2.35-10.3-.45-5.25 1.9-7.6 6.9-2.35 5-.45 10.2 1.85 5.15 6.95 7.5 5.05 2.35 10.3.45 5.3-1.85 7.65-6.9 2.35-5 .45-10.2-1.9-5.2-7-7.5z" id="E"/><path fill="#FAB020" d="M30.65 47.85q-4.8-2.2-9.8-.4-4.95 1.8-7.2 6.55t-.45 9.65q1.85 4.95 6.65 7.15 4.8 2.2 9.8.4 5-1.75 7.25-6.5 2.25-4.8.4-9.7-1.8-4.9-6.65-7.15z" id="F"/><path fill="#FAAE21" d="M30.4 48.45q-4.55-2.1-9.3-.4-4.7 1.7-6.85 6.2-2.1 4.5-.4 9.2 1.75 4.65 6.3 6.75 4.55 2.1 9.25.4 4.7-1.7 6.85-6.2 2.15-4.5.45-9.2-1.7-4.65-6.3-6.75z" id="G"/><path fill="#FAAC22" d="M30.1 49.1q-4.35-2-8.75-.4-4.45 1.6-6.45 5.85t-.4 8.65q1.6 4.4 5.95 6.4 4.3 1.95 8.75.35t6.45-5.85q2-4.25.35-8.65-1.6-4.4-5.9-6.35z" id="H"/><path fill="#F9A922" d="M28.95 69.3q4.15-1.5 6.05-5.5 1.9-4 .4-8.1-1.55-4.15-5.6-6-4.05-1.9-8.2-.35-4.2 1.5-6.1 5.5-1.9 4-.35 8.1 1.5 4.15 5.55 6.05 4.05 1.85 8.25.3z" id="I"/><path fill="#F9A723" d="M28.7 68.7q3.95-1.4 5.7-5.2 1.8-3.75.35-7.6-1.4-3.85-5.2-5.6-3.8-1.75-7.7-.35-3.95 1.45-5.7 5.2t-.35 7.6q1.4 3.85 5.2 5.6 3.8 1.75 7.7.35z" id="J"/><path fill="#F9A524" d="M28.5 68.05q3.65-1.3 5.3-4.8 1.6-3.5.3-7.1-1.35-3.65-4.9-5.25-3.5-1.6-7.15-.3-3.65 1.3-5.3 4.8t-.3 7.1q1.3 3.6 4.85 5.25 3.55 1.6 7.2.3z" id="K"/><path fill="#F9A324" d="M28.25 67.4q3.4-1.2 4.9-4.45 1.55-3.25.3-6.6-1.25-3.35-4.5-4.85-3.25-1.5-6.65-.3-3.4 1.25-4.9 4.5-1.55 3.2-.3 6.55 1.2 3.35 4.45 4.9 3.3 1.5 6.7.25z" id="L"/><path fill="#F8A025" d="M28 66.75q3.15-1.1 4.55-4.1 1.4-2.95.25-6.05-1.15-3.1-4.15-4.45-3-1.4-6.15-.3Q19.4 53 18 56q-1.4 2.95-.3 6.05 1.15 3.1 4.2 4.45 3 1.4 6.1.25z" id="M"/><path fill="#F89E26" d="M27.75 66.15q2.9-1.05 4.15-3.75 1.3-2.75.25-5.55-1.05-2.85-3.8-4.1-2.75-1.3-5.6-.25-2.85 1-4.15 3.75-1.25 2.75-.25 5.55 1.05 2.85 3.8 4.1 2.75 1.25 5.6.25z" id="N"/><path fill="#F89C26" d="M27.55 65.5q2.6-.95 3.75-3.4 1.2-2.45.25-5.05-.95-2.55-3.45-3.7-2.5-1.15-5.1-.2-2.6.95-3.8 3.4Q18.05 59 19 61.6q.95 2.55 3.45 3.7 2.5 1.15 5.1.2z" id="O"/><path fill="#F89A27" d="M27.3 64.85q2.35-.8 3.35-3.05 1.05-2.2.2-4.5-.8-2.3-3.05-3.35-2.25-1-4.6-.2-2.35.85-3.35 3.1-1.05 2.2-.2 4.5.85 2.3 3.1 3.35 2.25 1 4.55.15z" id="P"/><path fill="#F79728" d="M27.1 64.25q2.05-.75 2.95-2.7.95-2 .2-4-.75-2.05-2.75-3-2-.9-4.05-.15t-3 2.7q-.9 1.95-.15 4 .75 2 2.75 2.95 2 .9 4.05.2z" id="Q"/><path fill="#F79528" d="M26.85 63.6q1.8-.65 2.6-2.35.8-1.75.15-3.5t-2.35-2.55q-1.75-.8-3.55-.15-1.8.65-2.6 2.35-.8 1.7-.15 3.5.65 1.75 2.35 2.55 1.75.8 3.55.15z" id="R"/><path fill="#F79329" d="M26.6 62.95q1.55-.5 2.25-2 .65-1.45.1-2.95-.55-1.5-2.05-2.2-1.45-.65-3-.15-1.5.55-2.2 2.05-.7 1.45-.15 2.95.55 1.5 2.05 2.2 1.45.65 3 .1z" id="S"/><path fill="#FFFFFF" d="M25.6 72.75q-1.6-3.7-5.1-5.65-4.35-2.4-9.15-1.1-4.85 1.35-7.3 5.65Q2.5 74.4 2.5 77.5q0 3.05 1.45 5.7l-.25.35q-2.45 4.3-1.1 9.05 1.3 4.75 5.65 7.2 2.95 1.6 6.3 1.5 3.2-.1 6-1.8l.9.65q4.35 2.45 9.15 1.1 4.8-1.35 7.3-5.65 2.45-4.25 1.15-8.95-1.3-4.75-5.6-7.2 6.3-5.3 13.6-14.95 3.65-4.85 6.05-8.6-5.05 4.95-13.15 10.05-8.55 5.3-14.35 6.8z" id="T"/><path fill="#FFFFFF" d="M88.9 86.65q-1.3 4.7 1.15 8.95 2.5 4.3 7.3 5.65 4.8 1.35 9.15-1.1l.9-.65q2.8 1.7 6 1.8 3.35.1 6.3-1.5 4.35-2.45 5.65-7.2 1.35-4.75-1.1-9.05l-.25-.35q1.45-2.65 1.45-5.7 0-3.1-1.55-5.85-2.45-4.3-7.3-5.65-4.8-1.3-9.15 1.1-3.5 1.95-5.1 5.65-5.8-1.5-14.35-6.8-8.1-5.1-13.15-10.05l6.05 8.6q7.3 9.65 13.6 14.95-4.25 2.45-5.6 7.2z" id="U"/><path fill="#2F2F2F" d="M83.1 78.3q.8.85 1.9.85 1.15.05 2-.75.85-.75.85-1.9.05-1.1-.75-1.95-4.35-4.65-10.4-7.2Q70.65 64.8 64 64.8q-6.7 0-12.75 2.55t-10.4 7.2q-.8.85-.75 1.95.05 1.15.85 1.95.85.75 1.9.75 1.2 0 2-.9 3.6-3.8 8.6-5.9 5-2.1 10.55-2.1 5.5 0 10.5 2.1t8.6 5.9z" id="V"/><path id="W" stroke="#2F2F2F" stroke-width="3" stroke-linejoin="round" stroke-linecap="round" fill="none" d="M28.3 28.9q-4.55 2.95-9.5 0"/><path id="X" stroke="#2F2F2F" stroke-width="2" stroke-linejoin="round" stroke-linecap="round" fill="none" d="M28.15 23.75q-3.3-4.05-8.6-5.15"/><path id="Y" stroke="#2F2F2F" stroke-width="3" stroke-linejoin="round" stroke-linecap="round" fill="none" d="M43.75 28.9q4.55 2.95 9.5 0"/><path id="Z" stroke="#2F2F2F" stroke-width="2" stroke-linejoin="round" stroke-linecap="round" fill="none" d="M43.9 23.75q3.3-4.05 8.6-5.15"/></defs><use xlink:href="#a" transform="scale(.56248)"/><use xlink:href="#b" transform="scale(.56242)"/><use xlink:href="#c" transform="scale(.56242)"/><use xlink:href="#d" transform="scale(.56242)"/><use xlink:href="#e" transform="scale(.56242)"/><use xlink:href="#f" transform="scale(.56242)"/><use xlink:href="#g" transform="scale(.56242)"/><use xlink:href="#h" transform="scale(.56242)"/><use xlink:href="#i" transform="scale(.56242)"/><use xlink:href="#j" transform="scale(.56242)"/><use xlink:href="#k" transform="scale(.56242)"/><use xlink:href="#l" transform="scale(.56242)"/><use xlink:href="#m" transform="scale(.56242)"/><use xlink:href="#n" transform="scale(.56242)"/><use xlink:href="#o" transform="scale(.56242)"/><use xlink:href="#p" transform="scale(.56242)"/><use xlink:href="#q" transform="scale(.56242)"/><use xlink:href="#r" transform="scale(.56242)"/><use xlink:href="#s" transform="scale(.56242)"/><use xlink:href="#t" transform="scale(.56242)"/><use xlink:href="#u" transform="scale(.56242)"/><use xlink:href="#v" transform="scale(.56242)"/><use xlink:href="#w" transform="scale(.56242)"/><use xlink:href="#x" transform="scale(.56242)"/><use xlink:href="#y" transform="scale(.56242)"/><use xlink:href="#z" transform="scale(.56242)"/><use xlink:href="#A" transform="scale(.56242)"/><use xlink:href="#B" transform="scale(.56242)"/><use xlink:href="#C" transform="scale(.56242)"/><use xlink:href="#D" transform="scale(.56242)"/><use xlink:href="#E" transform="scale(.56242)"/><use xlink:href="#F" transform="scale(.56242)"/><use xlink:href="#G" transform="scale(.56242)"/><use xlink:href="#H" transform="scale(.56242)"/><use xlink:href="#I" transform="scale(.56242)"/><use xlink:href="#J" transform="scale(.56242)"/><use xlink:href="#K" transform="scale(.56242)"/><use xlink:href="#L" transform="scale(.56242)"/><use xlink:href="#M" transform="scale(.56242)"/><use xlink:href="#N" transform="scale(.56242)"/><use xlink:href="#O" transform="scale(.56242)"/><use xlink:href="#P" transform="scale(.56242)"/><use xlink:href="#Q" transform="scale(.56242)"/><use xlink:href="#R" transform="scale(.56242)"/><use xlink:href="#S" transform="scale(.56242)"/><use xlink:href="#T" transform="rotate(4.996 15.1 43.54) scale(.56247)"/><use xlink:href="#U" transform="rotate(-4.996 56.04 44.346) scale(.56247)"/><use xlink:href="#V" transform="scale(.56248)"/><g><use xlink:href="#W"/><use xlink:href="#X"/></g><g><use xlink:href="#Y"/><use xlink:href="#Z"/></g></svg>