<svg xmlns="http://www.w3.org/2000/svg" xmlns:xlink="http://www.w3.org/1999/xlink" preserveAspectRatio="none" viewBox="0 0 72 72"><defs><path fill="#FCC21B" d="M66.85 48q.563-3.917-.05-8.15-.85-5.1-3.85-9.65.75-7.8.55-13.6-.45-9.5-3.55-11.65-2.5-1.65-8.3 3.05-3.95 3.05-7.6 7.35l-1.85 2.2q-3.3-.5-6.2-.5-2.9 0-6.2.5l-1.85-2.2q-3.65-4.3-7.6-7.35-5.8-4.7-8.3-3.05Q8.95 7.1 8.5 16.6q-.2 5.8.55 13.6-3 4.55-3.85 9.65-.6 4.25-.1 8.2.1.45.15.95.45 2.35 1.3 4.6l.2.5q.5 1 1.05 1.95.05 0 .05.05v.05q1.75 2.65 4.45 4.7 5.15 3.8 12.55 5.45Q31 67.55 35.8 67.55h.4q4.8 0 10.95-1.25 7.4-1.65 12.55-5.45 2.676-2.053 4.4-4.75h.05q.01-.026 0-.05.614-.94 1.1-1.95l.2-.5q.845-2.256 1.25-4.65.108-.452.15-.95z" id="a"/><path fill="#FCD995" d="M-24.95 46.55q2.7-2.05 4.45-4.7v-.05q0-.05.05-.05.55-.95 1.05-1.95l.2-.5q.85-2.25 1.3-4.6.05-.5.15-.95-15.25-5.2-30.9-5.3-15.65.1-30.9 5.3.1.45.15.95.45 2.35 1.3 4.6l.2.5q.5 1 1.05 1.95.05 0 .05.05v.05q1.75 2.65 4.45 4.7 5.15 3.8 12.55 5.45 6.15 1.25 10.95 1.25h.4q4.8 0 10.95-1.25 7.4-1.65 12.55-5.45z" id="b"/><path fill="#FCD995" d="M13.35 7.35q-3.4 1.4-.85 19.35 5.7-4.75 13.1-8.25Q16.85 6.1 13.35 7.35m46.1 19.3Q62.045 8.757 58.6 7.3q-3.469-1.22-12.25 11.15 7.46 3.488 13.1 8.2z" id="c"/><path fill="#2F2F2F" d="M31 42.4q3.1.6 5.05 2.55 1.9-1.95 5-2.55-1-2.85-4.95-2.85-4.15 0-5.1 2.85z" id="e"/><path fill="#2F2F2F" d="M18.6 31.85q-1.35 1.5-1.35 3.6t1.35 3.6q1.3 1.45 3.15 1.45 1.9 0 3.2-1.45 1.3-1.5 1.3-3.6t-1.3-3.6q-1.3-1.45-3.2-1.45-1.85 0-3.15 1.45m28.45 7.2q1.35 1.45 3.2 1.45t3.2-1.45q1.3-1.5 1.3-3.6t-1.3-3.6q-1.35-1.5-3.2-1.5t-3.2 1.5q-1.35 1.5-1.35 3.6t1.35 3.6z" id="h"/><path fill="#2F2F2F" d="M46.65 47.85q-.6 0-1.05.45-3.25 3.1-7.75 4.3-4.5 1.2-9 0-.55-.2-1.1.2-.55.25-.75.9-.15.6.2 1.15.3.55.95.7 2.6.65 5.2.65 4 0 7.7-1.45 3.8-1.5 6.65-4.3.45-.45.45-1.05 0-.65-.4-1.05-.45-.45-1.1-.5z" id="k"/><path id="d" stroke="#2F2F2F" stroke-width="2" stroke-linejoin="round" stroke-linecap="round" fill="none" d="M58.15 43.1q5.85-1.05 11.75-.6M60.15 47q4.7.25 8.7 1.4m-12.4-8.85q6.5-2.85 14.4-3.3M14 43.1Q8.1 42 2.25 42.5m9.7 4.5q-4.7.3-8.75 1.4m12.4-8.85q-6.5-2.85-14.4-3.3"/><path id="f" stroke="#2F2F2F" stroke-width="1" stroke-linejoin="round" stroke-linecap="round" fill="none" d="M31 42.4q3.1.6 5.05 2.55 1.9-1.95 5-2.55-1-2.85-4.95-2.85-4.15 0-5.1 2.85z"/><path id="g" stroke="#2F2F2F" stroke-width="2" stroke-linejoin="round" stroke-linecap="round" fill="none" d="M36.05 44.95v8.55"/><path id="i" stroke="#2F2F2F" stroke-width="2" stroke-linejoin="round" stroke-linecap="round" fill="none" d="M45.44 30.625q3.07-3.892 8.704-4.48"/><path id="j" stroke="#2F2F2F" stroke-width="2" stroke-linejoin="round" stroke-linecap="round" fill="none" d="M26.666 30.586q-3.12-3.901-8.705-4.48"/></defs><use xlink:href="#a"/><use xlink:href="#b" transform="translate(84.65 14.3)"/><use xlink:href="#c"/><use xlink:href="#d"/><g><use xlink:href="#e"/><use xlink:href="#f"/><use xlink:href="#g"/></g><use xlink:href="#h"/><use xlink:href="#i" transform="matrix(1 0 0 1 -.009 .052)"/><use xlink:href="#j" transform="matrix(1 .00001 -.00001 1 .022 -.005)"/><use xlink:href="#k"/></svg>