<svg xmlns="http://www.w3.org/2000/svg" xmlns:xlink="http://www.w3.org/1999/xlink" preserveAspectRatio="none" viewBox="0 0 72 72"><defs><path fill="#00ACC1" d="M36.3 45.15h-.35q-5.8.15-11.6 1.4-10.7 2.25-15.7 7.4-3.8 3.95-4.25 8.3-.35 3.25.95 5.1 1.4 2 5 3.55 1.75.75 3.3 1.1H58.6l3.3-1.1q3.6-1.55 5-3.55 1.3-1.85.95-5.1-.5-4.35-4.25-8.3-5-5.15-15.75-7.4-5.75-1.25-11.55-1.4z" id="a"/><path fill="#000000" fill-opacity=".2" d="M57.55 2.25Q52.7.7 45.45.2q-3.95-.3-8.2-.2Q24.75-.25 17 2.25 7.5 5.35 2.8 9.7.45 11.85 0 13.4l23.7 17.65h27.2L74.55 13.4q-.45-1.55-2.8-3.75-4.7-4.35-14.2-7.4z" id="b"/><path fill="#563E37" d="M72.65 90.95H55.2v9.25q0 3.1 2.35 5.35 2.3 2.2 5.6 2.2h1.6q3.25 0 5.6-2.2 2.3-2.25 2.3-5.35v-9.25z" id="c"/><path fill="#563E37" d="M94.85 68h-2.6v14.5q3.45 0 5.65-1.7 2.55-2 2.55-5.75 0-3.8-2.8-5.8L94.85 68z" id="d"/><path fill="#563E37" d="M36 68h-2.6l-2.8 1.25q-2.85 2-2.85 5.8 0 3.75 2.55 5.75 2.25 1.7 5.7 1.7V68z" id="e"/><path fill="#8E726A" d="M84.25 95.8q10.5-8.3 10.5-25.6 0-20.2-6.2-30.15-7.35-11.8-24.45-11.8t-24.45 11.8q-6.2 9.95-6.2 30.15 0 17.2 10.45 25.55 8.1 6.45 20.2 6.45 12.05 0 20.15-6.4z" id="f"/><path fill="#444444" d="M54 77.9q0-2.05-1.2-3.5-1.15-1.45-2.85-1.45-1.7 0-2.9 1.45t-1.2 3.5q0 2.05 1.2 3.5 1.2 1.45 2.9 1.45t2.85-1.45q1.2-1.45 1.2-3.5z" id="g"/><path fill="#444444" d="M82.4 77.9q0-2.05-1.2-3.5-1.2-1.45-2.9-1.45t-2.9 1.45q-1.2 1.45-1.2 3.5t1.2 3.5q1.2 1.45 2.9 1.45t2.9-1.45q1.2-1.45 1.2-3.5z" id="h"/><path fill="#563E37" d="M59.85 89q-.45-.15-.65.2-.2.3-.05.65.5.8 1.75 1.55 1.55.95 3.2.95 1.7 0 3.25-.95 1.25-.75 1.7-1.55.2-.35 0-.65-.2-.35-.65-.2-2.15.65-4.3.65-2.1 0-4.25-.65z" id="i"/><path fill="#232020" d="M55.55 29.2v-.55q-.3-4.449-4.75-8.85-4.4-4.404-14.7-4.4-10.3.004-14.75 4.4-4.4 4.398-4.65 8.85v10.9q.25-.2.65-.55.3-.25.7-.4l.25-.15.75 4.95q4.1-6.35 5.25-13.35 3.25 2.15 5.9 3.05 2.65.85 5.55.85h.75q4.75-.05 8.75-.5l2.9-.35q.05 0 .15.1l4.85 10.2.75-4.95.3.15q.4.15.65.4.45.35.7.55V29.2z" id="j"/><path fill="#8E726A" d="M61.05 128q1 0 1.7-.7t.7-1.7q0-.8-.5-1.45-.5-.65-1.3-.85-2.55-.65-8.2-2.45-7.4-2.45-7.65-2.5-1.8-.55-3.55-.55l-5.35-.35L33.75 128h27.3z" id="o"/><path fill="#8E726A" d="M65.2 127.3q.7.7 1.7.7h27.35l-3.15-10.55-5.35.35q-1.8 0-3.6.55-11.55 3.85-15.85 4.95-.8.2-1.3.85-.5.65-.5 1.45 0 1 .7 1.7z" id="p"/><path fill="#00ACC1" d="M27.2 106.25L24.25 128h10l5.25-11.6q.3-.65.1-1.35-.2-.65-.8-1.05l-11.6-7.75z" id="q"/><path fill="#00ACC1" d="M104.15 128l-3.4-21.75-11.6 7.75q-.55.4-.75 1.05-.2.7.1 1.35l5.2 11.6h10.45z" id="r"/><path id="k" stroke="#444444" stroke-width="2" stroke-linejoin="miter" stroke-linecap="round" stroke-miterlimit="10" fill="none" d="M29.56 10.688l-1.52-5.682"/><path id="l" stroke="#444444" stroke-width="2" stroke-linejoin="miter" stroke-linecap="round" stroke-miterlimit="10" fill="none" d="M21.178 14.878l-4.162-4.162"/><path id="m" stroke="#444444" stroke-width="2" stroke-linejoin="miter" stroke-linecap="round" stroke-miterlimit="10" fill="none" d="M50.794 14.878l4.134-4.162"/><path id="n" stroke="#444444" stroke-width="2" stroke-linejoin="miter" stroke-linecap="round" stroke-miterlimit="10" fill="none" d="M42.413 10.688l1.518-5.682"/></defs><use xlink:href="#a"/><use xlink:href="#b" transform="translate(15 54.5) scale(.5625)"/><use xlink:href="#c" transform="scale(.5625)"/><use xlink:href="#d" transform="scale(.5625)"/><use xlink:href="#e" transform="scale(.5625)"/><use xlink:href="#f" transform="scale(.5625)"/><use xlink:href="#g" transform="scale(.5625)"/><use xlink:href="#h" transform="scale(.5625)"/><use xlink:href="#i" transform="scale(.5625)"/><use xlink:href="#j"/><use xlink:href="#k"/><use xlink:href="#l"/><use xlink:href="#m"/><use xlink:href="#n"/><use xlink:href="#o" transform="scale(.5625)"/><use xlink:href="#p" transform="scale(.5625)"/><use xlink:href="#q" transform="scale(.5625)"/><use xlink:href="#r" transform="scale(.5625)"/></svg>