<svg xmlns="http://www.w3.org/2000/svg" xmlns:xlink="http://www.w3.org/1999/xlink" preserveAspectRatio="none" viewBox="0 0 72 72"><defs><path fill="#FCC21B" d="M36 5.45q-22.3 0-31.05 20.6Q.15 37.3.15 52.5q0 5.85 10.55 9.95Q21.15 66.6 36 66.6q14.9 0 25.4-4.15 10.5-4.1 10.5-9.95 0-15.2-4.8-26.45Q58.35 5.45 36 5.45z" id="a"/><path fill="#2F2F2F" d="M46 43.7q-1.05.95-2.7 1.85-3.4 1.8-7.4 1.8-3.95 0-7.3-1.8-2.65-1.8-2.7-1.85-.55-.55-1.3-.6-.75 0-1.3.55t-.55 1.3q0 .75.5 1.3.1.1 3.45 2.45 4.25 2.3 9.2 2.3 5 0 9.25-2.3 2.2-1.2 3.45-2.45.55-.55.5-1.3 0-.75-.55-1.3t-1.25-.55q-.8.05-1.3.6z" id="b"/><path fill="#2F2F2F" d="M36.05 51.5q-2.35 2.9-2.3 6.9.05 4 2.45 6.85 2.45 2.8 5.8 2.75 3.35 0 5.7-2.85 2.35-2.9 2.3-6.9-.05-4-2.45-6.85-2.4-2.85-5.75-2.8-3.35.05-5.75 2.9z" id="c"/><path fill="#2F2F2F" d="M94.2 58.3q-.05-4-2.4-6.85-2.4-2.85-5.75-2.8-3.35 0-5.75 2.85t-2.4 6.85q.05 4 2.45 6.85 2.4 2.85 5.75 2.8 3.35 0 5.7-2.85 2.4-2.85 2.4-6.85z" id="d"/></defs><use xlink:href="#a" transform="rotate(180 36.025 36)"/><use xlink:href="#b" transform="rotate(180 35.975 36)"/><use xlink:href="#c" transform="matrix(-.56248 0 0 -.56248 72.05 74.5)"/><use xlink:href="#d" transform="matrix(-.56248 0 0 -.56248 72.05 74.5)"/></svg>