<svg xmlns="http://www.w3.org/2000/svg" xmlns:xlink="http://www.w3.org/1999/xlink" preserveAspectRatio="none" viewBox="0 0 72 72"><defs><path fill="#CC9970" d="M43.75 48.6q-.85-1.55-2.5-1.75-1.8-.25-3.05.7-1.3 1-1.55 3l-2.35 22.3q0 .9-.65 1-.65.15-.75-.8-.15-2-.5-14.25-.35-12.15-.3-13.1.05-1.95-.9-3.35-1.05-1.45-2.7-1.5-1.8-.05-2.95 1.05-1.15 1.1-1.2 3.1L24 72.3q0 .85-.95.95-.9 0-1-.8-.55-4.4-1.3-13.6-.7-7.75-.75-9.3-.05-1.95-1.1-3.3-1.1-1.4-2.75-1.35-1.85.1-2.9 1.2-1.1 1.15-1 3.15l1.2 24.15q.1.9-.95 1.2h-.05q-.5.1-.95-.15-.45-.25-.6-.75-2.55-10.6-3.05-13.4-.3-1.95-1.55-3.15-1.3-1.3-2.95-1-1.75.25-2.65 1.5-.95 1.3-.6 3.3.1.45 1.35 7.95 1.4 8.1 2.3 12 .45 1.65.7 4.05.55 5.75.9 8.4.75 10.9 6.1 15.7 4.6 4.15 13.7 4.55l12.5-.15q4.25-.15 8.45-4.15 3.25-3.1 3.9-5.2l10.8-25.65q.5-1-.1-1.95-.55-.95-1.7-1.1-3.25-.45-5.75.95-2.45 1.35-3.85 4.3l-3.75 8.7q-.25.8-1.15.75-.85 0-1.05-.8-.55-2.5-.55-7.35l.1-4.35q-.15-2.35.5-13.6.55-10.65.75-11.95.3-1.95-.5-3.45z" id="e"/><path fill="#CC9970" d="M41.05 121.55q.55-7.1 2.6-10.25-1.1 0-31.85-2.45 1.4.4 1.35 9.8 0 4.75-.3 9.35H40.9q-.15-2.9.15-6.45z" id="f"/><path fill="#99674F" d="M23.15 63.3l-.2.1q-.95.4-1.75.4l-7 .05q-3.5-.15-5.7-1.1-.3-.15-.6-.35-.45-.25-.85-.6.25.9.35 2.9 2.55 1.25 6.65 1.4l7.15-.05q1.1 0 2.25-.4.4-1.95 1.1-3.05l.05-.1-.25.25-1 .5q-.1.05-.2.05z" id="g"/><path fill="#CC9970" d="M43.75 48.6q-.85-1.55-2.5-1.75-1.8-.25-3.05.7-1.3 1-1.55 3l-2.35 22.3q0 .9-.65 1-.65.15-.75-.8-.15-2-.5-14.25-.35-12.15-.3-13.1.05-1.95-.9-3.35-1.05-1.45-2.7-1.5-1.8-.05-2.95 1.05-1.15 1.1-1.2 3.1L24 72.3q0 .85-.95.95-.9 0-1-.8-.55-4.4-1.3-13.6-.7-7.75-.75-9.3-.05-1.95-1.1-3.3-1.1-1.4-2.75-1.35-1.85.1-2.9 1.2-1.1 1.15-1 3.15l1.2 24.15q.1.9-.95 1.2h-.05q-.5.1-.95-.15-.45-.25-.6-.75-2.55-10.6-3.05-13.4-.3-1.95-1.55-3.15-1.3-1.3-2.95-1-1.75.25-2.65 1.5-.95 1.3-.6 3.3.1.45 1.35 7.95 1.4 8.1 2.3 12 .45 1.65.7 4.05.55 5.75.9 8.4.75 10.9 6.1 15.7 4.6 4.15 13.7 4.55l12.5-.15q4.25-.15 8.45-4.15 3.25-3.1 3.9-5.2l10.8-25.65q.5-1-.1-1.95-.55-.95-1.7-1.1-3.25-.45-5.75.95-2.45 1.35-3.85 4.3l-3.75 8.7q-.25.8-1.15.75-.85 0-1.05-.8-.55-2.5-.55-7.35l.1-4.35q-.15-2.35.5-13.6.55-10.65.75-11.95.3-1.95-.5-3.45z" id="h"/><path fill="#CC9970" d="M41.05 121.55q.55-7.1 2.6-10.25-1.1 0-31.85-2.45 1.4.4 1.35 9.8 0 4.75-.3 9.35H40.9q-.15-2.9.15-6.45z" id="i"/><path fill="#99674F" d="M64.1 62.4q-.3.2-.6.35-2.2.95-5.7 1.1l-7-.05q-.8 0-1.75-.4l-.2-.1q-.1 0-.2-.05l-1-.5-.2-.2v.05q.7 1.1 1.1 3.05 1.15.4 2.25.4l7.15.05q4.1-.15 6.65-1.4.1-2 .35-2.9-.4.35-.85.6z" id="j"/><path id="a" stroke="#444444" stroke-width="2" stroke-linejoin="miter" stroke-linecap="round" stroke-miterlimit="10" fill="none" d="M29.588 12.094l-2.335-8.69"/><path id="b" stroke="#444444" stroke-width="2" stroke-linejoin="miter" stroke-linecap="round" stroke-miterlimit="10" fill="none" d="M18.478 18.506l-6.356-6.356"/><path id="c" stroke="#444444" stroke-width="2" stroke-linejoin="miter" stroke-linecap="round" stroke-miterlimit="10" fill="none" d="M53.494 18.506l6.356-6.356"/><path id="d" stroke="#444444" stroke-width="2" stroke-linejoin="miter" stroke-linecap="round" stroke-miterlimit="10" fill="none" d="M42.384 12.094l2.335-8.69"/></defs><use xlink:href="#a"/><use xlink:href="#b"/><use xlink:href="#c"/><use xlink:href="#d"/><use xlink:href="#e" transform="scale(.56248)"/><use xlink:href="#f" transform="scale(.56248)"/><use xlink:href="#g"/><use xlink:href="#h" transform="matrix(-.56247 0 0 .56247 72 0)"/><use xlink:href="#i" transform="matrix(-.56247 0 0 .56247 72 0)"/><use xlink:href="#j"/></svg>