<svg xmlns="http://www.w3.org/2000/svg" xmlns:xlink="http://www.w3.org/1999/xlink" preserveAspectRatio="none" viewBox="0 0 72 72"><defs><path fill="#BFA055" d="M106 46.15q0-16.35-12.3-27.95Q81.4 6.65 64 6.65T34.3 18.2Q22 29.75 22 46.15 22 62.5 34.3 74.1 46.6 85.65 64 85.65q17.35 0 29.7-11.55Q106 62.5 106 46.15z" id="a"/><path fill="#BFA055" d="M59.3 38.95q.35-7.75.35-13.6l-47.25.2q0 6.45.45 14.45.9 16.05 3.2 23.85l40.8-.15q1.75-9.35 2.45-24.75z" id="b"/><path fill="#7E57C2" d="M92.8 92.55q-1.85 4.85-10.7 4.2-11.65-1.7-18.25-1.5v13.55h37.8V95.25L96.5 81.4l-3.7 11.15z" id="c"/><path fill="#7E57C2" d="M31.25 81.4L26.1 95.25v13.55h37.75V95.25q-3.9-.15-9.6.5-8.3 1-8.6 1-8.85.65-10.7-4.2l-3.7-11.15z" id="d"/><path fill="#7E57C2" d="M34.2 100.7q-13.8 6.15-13.8 17.4v9.9h87.15v-9.9q0-10.75-13.45-17.1-12.15-5.75-29.8-5.75-18.05.05-30.1 5.45z" id="e"/><path fill="#C48E6A" d="M73 90.25H54.85v9.6q0 3.25 2.4 5.55 2.45 2.3 5.85 2.3h1.65q3.4 0 5.85-2.3 2.4-2.3 2.4-5.55v-9.6z" id="f"/><path fill="#E0BB95" d="M83.65 86.25Q94.6 76.85 94.6 59q0-21.85-6.25-32.65Q81 13.6 63.85 13.6t-24.5 12.75q-6.2 10.8-6.2 32.65 0 17.85 10.95 27.25 8.55 7.35 19.75 7.35 11.25 0 19.8-7.35z" id="g"/><path fill="#513F35" d="M54.75 78.15q-.8 0-1.05.5t.25 1.25q.95 1.5 3.35 2.75 3.05 1.6 6.7 1.6 3.6 0 6.65-1.6 2.4-1.3 3.35-2.75.5-.75.25-1.25t-1.05-.5H54.75z" id="h"/><path fill="#C48E6A" d="M63.9 73.8q1.8 0 3.4-1 1.25-.8 1.75-1.65.2-.35 0-.65-.2-.35-.65-.2-2.3.65-4.5.65-2.15 0-4.45-.65-.45-.15-.7.2-.2.35 0 .65.5.85 1.75 1.65 1.6 1 3.4 1z" id="i"/><path fill="#BFA055" d="M96.55 26.6q-2.35-4.85-7.6-9.7-10.5-9.7-24.85-9.7-14.3 0-25.75 9.5-5.75 4.7-8.6 9.45V56q15.3-2.4 29.45-11 7.85-4.8 13.85-10.55.25-.2.55-.15.3.05.4.35Q78.7 44.3 89 51q5.15 3.35 9.35 4.8l-1.8-29.2z" id="j"/><path fill="#E0BB95" d="M97.15 14.5q-3.8-4.25-12-7.35-5.6-2.15-8.5-2.85-2.8-.65-6.1-.7-3.05 0-2.5 1.6.65 2.2 3.95 2.4 2.65.2 5.05 1.25 1.2.5 4.9 2.55.9.45 2.45 3 1.6 2.75 2.45 3.35 1.95 1.4 3.7 3.95 2.55 3.7 3.35 8.4.3 1.8 4.95.75 4.75-1.05 4.8-3.95 0-1.4-1.5-4.7-1.95-4.35-5-7.7z" id="k"/><path fill="#7E57C2" d="M90 21.55q-1.6.85-1 2.9l9.15 32.85q1.1 3.95.45 7.45L85.15 128h24.05q2.525-6.184 4.5-16.35l9.4-47v-.1q.3-4-1.7-8.3L102.8 17.2q-.35-.8-1.2-1.15-.9-.4-1.7 0l-9.9 5.5z" id="l"/><path fill="#E0BB95" d="M51.1 4.3q-2.95.7-8.55 2.85-8.1 3.05-11.95 7.35-3.05 3.4-5 7.7-1.55 3.35-1.5 4.7.05 2.9 4.8 3.95 4.65 1.05 4.95-.75.8-4.7 3.3-8.4 1.75-2.6 3.7-3.95.9-.6 2.5-3.35 1.55-2.55 2.45-3 3.55-2 4.85-2.55 2.45-1.05 5.1-1.25 3.2-.2 3.95-2.4.45-1.6-2.55-1.6-3.3.05-6.05.7z" id="m"/><path fill="#7E57C2" d="M38.75 24.45q.5-2.05-1.05-2.9l-9.85-5.5q-.8-.4-1.7 0-.9.35-1.2 1.15L6.35 56.25Q4.3 60.5 4.6 64.55v.1l9.4 47q1.975 10.166 4.5 16.35h24.1L29.1 64.75q-.65-3.55.5-7.45l9.15-32.85z" id="n"/><path fill="#444444" d="M52.25 64.4q1.25-1.5 1.25-3.65t-1.25-3.65q-1.3-1.5-3.05-1.5-1.75 0-3 1.5t-1.25 3.65q0 2.15 1.25 3.65t3 1.5q1.75 0 3.05-1.5z" id="o"/><path fill="#444444" d="M81.75 64.4Q83 62.9 83 60.75t-1.25-3.65q-1.25-1.5-3-1.5t-3.05 1.5q-1.25 1.5-1.25 3.65t1.25 3.65q1.25 1.5 3.05 1.5 1.75 0 3-1.5z" id="p"/></defs><use xlink:href="#a" transform="scale(.5625)"/><use xlink:href="#b"/><use xlink:href="#c" transform="scale(.5625)"/><use xlink:href="#d" transform="scale(.5625)"/><use xlink:href="#e" transform="scale(.5625)"/><use xlink:href="#f" transform="scale(.5625)"/><use xlink:href="#g" transform="scale(.5625)"/><use xlink:href="#h" transform="scale(.5625)"/><use xlink:href="#i" transform="scale(.5625)"/><use xlink:href="#j" transform="scale(.5625)"/><use xlink:href="#k" transform="scale(.5625)"/><use xlink:href="#l" transform="scale(.5625)"/><use xlink:href="#m" transform="scale(.5625)"/><use xlink:href="#n" transform="scale(.5625)"/><use xlink:href="#o" transform="scale(.5625)"/><use xlink:href="#p" transform="scale(.5625)"/></svg>