<svg xmlns="http://www.w3.org/2000/svg" xmlns:xlink="http://www.w3.org/1999/xlink" preserveAspectRatio="none" viewBox="0 0 72 72"><defs><path fill="#FCC21B" d="M66.85 48q.563-3.917-.05-8.15-.85-5.1-3.85-9.65.75-7.8.55-13.6-.45-9.5-3.55-11.65-2.5-1.65-8.3 3.05-3.95 3.05-7.6 7.35l-1.85 2.2q-3.3-.5-6.2-.5-2.9 0-6.2.5l-1.85-2.2q-3.65-4.3-7.6-7.35-5.8-4.7-8.3-3.05Q8.95 7.1 8.5 16.6q-.2 5.8.55 13.6-3 4.55-3.85 9.65-.6 4.25-.1 8.2.1.45.15.95.45 2.35 1.3 4.6l.2.5q.5 1 1.05 1.95.05 0 .05.05v.05q1.75 2.65 4.45 4.7 5.15 3.8 12.55 5.45Q31 67.55 35.8 67.55h.4q4.8 0 10.95-1.25 7.4-1.65 12.55-5.45 2.676-2.053 4.4-4.75h.05q.01-.026 0-.05.614-.94 1.1-1.95l.2-.5q.845-2.256 1.25-4.65.108-.452.15-.95z" id="a"/><path fill="#FCD995" d="M-24.95 46.55q2.7-2.05 4.45-4.7v-.05q0-.05.05-.05.55-.95 1.05-1.95l.2-.5q.85-2.25 1.3-4.6.05-.5.15-.95-15.25-5.2-30.9-5.3-15.65.1-30.9 5.3.1.45.15.95.45 2.35 1.3 4.6l.2.5q.5 1 1.05 1.95.05 0 .05.05v.05q1.75 2.65 4.45 4.7 5.15 3.8 12.55 5.45 6.15 1.25 10.95 1.25h.4q4.8 0 10.95-1.25 7.4-1.65 12.55-5.45z" id="b"/><path fill="#FCD995" d="M13.35 7.35q-3.4 1.4-.85 19.35 5.7-4.75 13.1-8.25Q16.85 6.1 13.35 7.35m46.1 19.3Q62.045 8.757 58.6 7.3q-3.469-1.22-12.25 11.15 7.46 3.488 13.1 8.2z" id="c"/><path fill="#E48C15" d="M21.35 47q-2.25-2.7-3.55-5-1.2-2.25-2.3-5.7-.35-1.25-1.15-1.95-.9-.85-2.2-.7-1.25.15-1.8.95-.8 1.1-.75 3.95.1 3.85.85 7.15.75 3.6 2.2 6.1 1.75 2.95 2.1 7.35.2 2.4.25 6.35.15 1.8 1.25 3.25 1.2 1.55 3.1 2.05 1.95.55 3.7-.25 1.75-.8 1.8-2.55l.35-7.9q.15-2.2-.25-4.85-.8-5.4-3.55-8.2l-.05-.05M61.7 34.6q-.55-.8-1.75-.95-1.3-.15-2.25.7-.8.7-1.2 1.95-1.05 3.45-2.25 5.7-1.25 2.3-3.55 5l-.05.05q-2.75 2.8-3.5 8.2-.4 2.65-.3 4.85l.35 7.9q.05 1.75 1.85 2.55 1.7.8 3.65.25 1.9-.5 3.1-2.05 1.1-1.45 1.25-3.25.1-3.95.25-6.35.4-4.4 2.1-7.35 1.4-2.5 2.2-6.1.75-3.35.85-7.15.05-2.85-.75-3.95z" id="e"/><path fill="#2F2F2F" d="M31.2 43.1q2.95.6 4.8 2.45 1.85-1.85 4.8-2.45-.95-2.7-4.75-2.7-3.95 0-4.85 2.7z" id="f"/><path fill="#FFFFFF" d="M101.35 47.05q.8-6.85-3.2-12.2Q94.2 29.5 87.8 28.8q-6.35-.7-11.45 3.65-5.05 4.35-5.8 11.15-.75 6.85 3.2 12.2 4 5.35 10.35 6.05 6.4.7 11.45-3.65 5.05-4.3 5.8-11.15z" id="i"/><path fill="#FFFFFF" d="M52.9 34.9q-3.4-5.35-8.95-6.05-5.45-.7-9.85 3.65-4.35 4.35-5 11.15-.65 6.85 2.75 12.2 3.45 5.35 8.9 6.05 5.55.7 9.9-3.65 4.35-4.3 5-11.15.7-6.85-2.75-12.2z" id="j"/><path fill="#ED6C30" d="M35.85 46.9q-2.75.05-4.35 1.5-1.9 1.75-1.9 5.1v3.6q0 3.35 1.9 5.1 1.6 1.5 4.35 1.55h.35q2.75-.05 4.35-1.55 1.9-1.75 1.9-5.1v-1.75-1.85q0-3.35-1.9-5.1-1.6-1.45-4.35-1.5h-.35z" id="k"/><path id="d" stroke="#2F2F2F" stroke-width="2" stroke-linejoin="round" stroke-linecap="round" fill="none" d="M58.15 43.1q5.85-1.05 11.75-.6M60.15 47q4.7.25 8.7 1.4m-12.4-8.85q6.5-2.85 14.4-3.3M14 43.1Q8.1 42 2.25 42.5m9.7 4.5q-4.7.3-8.75 1.4m12.4-8.85q-6.5-2.85-14.4-3.3"/><path id="g" stroke="#2F2F2F" stroke-width="1" stroke-linejoin="round" stroke-linecap="round" fill="none" d="M30.993 42.382q3.096.63 5.038 2.571 1.941-1.941 5.037-2.57-.997-2.834-4.985-2.834-4.145 0-5.09 2.833z"/><path id="h" stroke="#2F2F2F" stroke-width="2" stroke-linejoin="round" stroke-linecap="round" fill="none" d="M36.03 44.953v3.464"/></defs><use xlink:href="#a"/><use xlink:href="#b" transform="translate(84.65 14.3)"/><use xlink:href="#c"/><use xlink:href="#d"/><use xlink:href="#e" transform="matrix(1 0 0 .84984 0 7.9)"/><g transform="matrix(1.04947 0 0 1.04947 -1.75 -2.85)"><use xlink:href="#f"/><use xlink:href="#g" transform="translate(1.65 2.7) scale(.95285)"/><use xlink:href="#h" transform="translate(1.65 2.7) scale(.95285)"/></g><use xlink:href="#i" transform="matrix(.4152 -.15106 .1753 .48178 5.7 23.15)"/><use xlink:href="#j" transform="matrix(.48178 .1753 -.1753 .48178 10.15 3.05)"/><use xlink:href="#k"/></svg>