<svg xmlns="http://www.w3.org/2000/svg" xmlns:xlink="http://www.w3.org/1999/xlink" preserveAspectRatio="none" viewBox="0 0 72 72"><defs><path fill="#FCC21B" d="M127.8 93.45q0-27.05-8.55-47.15Q103.6 9.5 63.75 9.5q-39.8 0-55.4 36.8Q-.2 66.4-.2 93.45q0 10.4 18.75 17.75 18.7 7.3 45.2 7.3 26.5 0 45.25-7.3 18.8-7.35 18.8-17.75z" id="a"/><path fill="#2F2F2F" d="M51.55 88.2q-1.2 0-2.05 1-.85.95-.85 2.3 0 1.4.85 2.35.9 1 2.05 1h24q1.2 0 2.1-1 .85-.95.85-2.35 0-1.35-.85-2.3-.9-1-2.1-1h-24z" id="b"/><path fill="#FFFFFF" d="M52.3 47.3q-4.85-4.8-11.75-4.8-6.85 0-11.75 4.8-4.85 4.75-4.85 11.5 0 6.8 4.85 11.55 4.9 4.75 11.75 4.75 6.9 0 11.75-4.75t4.85-11.55q0-6.75-4.85-11.5z" id="c"/><path fill="#2F2F2F" d="M50.7 24q-.75-.15-1.55-.15-3.85 0-6.6 2.7.05 1.75 1.25 3 1.3 1.3 3.15 1.3 1.85 0 3.15-1.3 1.3-1.3 1.3-3.15 0-1.35-.7-2.4z" id="d"/><path fill="#FFFFFF" d="M52.3 47.3q-4.85-4.8-11.75-4.8-6.85 0-11.75 4.8-4.85 4.75-4.85 11.5 0 6.8 4.85 11.55 4.9 4.75 11.75 4.75 6.9 0 11.75-4.75t4.85-11.55q0-6.75-4.85-11.5z" id="e"/><path fill="#2F2F2F" d="M24.35 24q-.75-.15-1.55-.15-3.85 0-6.6 2.7.05 1.75 1.25 3 1.3 1.3 3.15 1.3 1.85 0 3.15-1.3 1.3-1.3 1.3-3.15 0-1.35-.7-2.4z" id="f"/></defs><use xlink:href="#a" transform="scale(.5625)"/><use xlink:href="#b" transform="scale(.5625)"/><use xlink:href="#c" transform="translate(26.35) scale(.5625)"/><use xlink:href="#d"/><use xlink:href="#e" transform="scale(.5625)"/><use xlink:href="#f"/></svg>