<svg xmlns="http://www.w3.org/2000/svg" xmlns:xlink="http://www.w3.org/1999/xlink" preserveAspectRatio="none" viewBox="0 0 72 72"><defs><path fill="#40C0E7" d="M60.45 85.05q-.7.3-1.8 1.45-.6.35-1.9.75-.4.25-1.15.9-.3.2-1 .45-1 .6-1.3.9-.65.65-.4 1.4v.05l-.25.2q-.3.25-.95.55-2.05 1.2-1.6 2.35l.4 1.25q1 3.8 4.1 13.15.7 2.1 2.75 9.5l1.1 4.3q.25 1 1.05.65.4-.2 1.35-1.05.8-.7 2.6-1.8 2.2-1.45 3.75-2.85.75-.65 1.3-1.45.05-.05.05-.7l.2-.15q.75-.6 1.35-1.35.1-.15.1-.45 0-.35.05-.45.15-.5.15-.95l-.25-2.5q-.7-7.25-1.05-11.05-.65-6.85-.75-11.85v-2.05q.05-1 .05-1.7-.05-1.25-.4-1.55-.25-.15-1 .6-.95 1-2.15 1.65l-.75.3q-2.4.95-3.65 1.5z" id="b"/><path fill="#40C0E7" d="M66.9 118.8q2.7-2.65 4.45-4.4 3.15-3.3 4.55-5.15 1.1-1.5 1.3-2.25.3-1.05-.5-2.15-.6-.85-1.95-.55-1.25.3-2.75 1.45-4.5 3.4-10.15 8.55-.35.3-3.5 3.45-5.2 5.4-2.9 7.6 1.1 1.05 2.75.45.95-.35 2.55-1.55 3.05-2.4 6.15-5.45z" id="c"/><path fill="#40C0E7" d="M40.25 58.65q-5.05-.1-11.85-.7-7.5-.75-11.1-1.05l-2.5-.25q-.35 0-.9.15-.65-.05-.95.15-.65.5-1.3 1.35l-.15.2q-.5-.1-.75.05-.8.6-1.4 1.3-1.25 1.3-2.85 3.75-1.1 1.8-1.8 2.6-.9.9-1.1 1.35-.35.8.7 1.05l4.25 1.1q7.5 2.05 9.55 2.75 2.15.7 6.5 2.15 3.8 1.25 6.6 1.95l1.25.4q.7.3 1.4-.3.3-.25.95-1.25.3-.7.55-1l.2-.25h.05q.75.25 1.4-.4.3-.3.9-1.3l.5-1q.6-.75.85-1.2.2-.3.4-.9.25-.7.4-.95.15-.3.75-.9.5-.55.65-.95.95-2.45 1.5-3.65.2-.2.2-.35l.15-.4q.65-1.25 1.6-2.1.85-.65.6-1-.3-.35-1.55-.4-1.35.05-1.65.05l-2.05-.05z" id="d"/><path fill="#40C0E7" d="M22.2 52.35q.3-1.45-.55-2-1.1-.75-2.15-.5-.8.2-2.25 1.3-2.15 1.6-9.55 9-3.05 3.1-5.45 6.15-1.15 1.55-1.5 2.55-.6 1.7.4 2.8 2.15 2.3 7.6-2.95l3.45-3.45q4.9-5.45 8.55-10.2 1.15-1.55 1.45-2.7z" id="e"/><path fill="#ED6C30" d="M124.4 9.7q3.9-3.3 2.85-4.95-.3-.55-1.25-.7-.9-.1-1.65.2-.75.3-1.65 1.15-1.05 1-1.55 1.45-1.5 1.35-3.4 2.85-1.05 1.05-1.6 1.55L105.25 21q-.95.85-1.1 2.05-.15 1.15.6 1.9.7.75 1.9.65 1.2-.1 2.15-.95 1.55-1.45 8.95-8.6Q123 10.9 124.4 9.7z" id="f"/><path fill="#E0E0E0" d="M107.4 10.05q-5.15.05-12.15 1.55-5.45 1.35-11.45 3.75-4.85 2.15-8.8 4.3-2.6 1.5-6.2 3.9-5.1 3.6-8.8 6.9-18.85 16.65-31 43.1l-.35.75q-.9 3 .65 7.05 1.7 4.2 5.45 8.05 3.75 3.8 7.95 5.55 4.1 1.7 7.1.9l1.3-.4q1.3-.7 3.6-1.6 2.85-1.15 3.6-1.5Q76.15 84.1 89.35 72.9q14.7-12.4 22.7-27.8 2.15-3.95 3.7-8.6 3.15-9.45 2.7-17.6-.1-2.3-1.05-4.25-.95-2.15-2.65-3.05-2.45-1.65-7.35-1.55z" id="g"/><path fill="#2F2F2F" d="M90.2 33.6q-2.1-.05-3.65 1.4-1.55 1.45-1.65 3.6-.05 2.1 1.4 3.65 1.45 1.55 3.6 1.65 2.1.05 3.65-1.4 1.55-1.45 1.65-3.6.05-2.1-1.4-3.7-1.45-1.55-3.6-1.6z" id="h"/><path fill="#40C0E7" d="M93 34.25q-3.2-3.4-7.9-3.55-4.65-.1-8.05 3.1-3.4 3.2-3.6 7.9-.1 4.6 3.05 8.05 3.2 3.4 7.9 3.6 4.65.1 8.05-3.05 3.4-3.2 3.6-7.95.15-4.6-3.05-8.1z" id="i"/><path fill="#ED6C30" d="M66 17.35q.8-3.55.65-6.8-.1-1.3-.6-2.4-.55-1.2-1.5-1.7-1.4-.9-4.15-.85-2.9 0-6.8.85-.05 0-.05.05.3.65.65 1.25.35.6.65 1.15.4.7 1.2 1.6L57.4 12q1.2 1.5 3.95 3.35Q63.4 16.7 64.3 17q.75.25 1.7.35z" id="j"/><path fill="#40C0E7" d="M33.05 87.95q-.35.3-3.5 3.45-5.2 5.4-2.9 7.6 1.75 1.7 5.35-1.1 3-2.4 6.1-5.45 6.9-6.7 9-9.55 1.1-1.5 1.3-2.25.3-1.05-.45-2.15-.65-.85-2-.55-1 .2-2.75 1.45-5.15 3.85-10.15 8.55z" id="k"/><g id="a"><path fill="#ED6C30" d="M14.6 48.6q3.602-4.859 7.2-2.6-5.402-3.901-10.8 3.4-3.658 4.822-3.9 11.5.045.5.05.9.11.934.45 1.5.647.852 2.25 1h.65q6.79-.182 11.65-3.85 7.747-5.74 2-12.25 3.4 4.281-1.75 8.1-3.4 2.55-8.1 2.7h-.5q-1.1-.1-1.55-.65-.25-.45-.3-1.05v-.7q.15-4.65 2.65-8z"/><path fill="#F79329" d="M23.2 47.15q-.698-.706-1.4-1.15-3.598-2.259-7.2 2.6-2.5 3.35-2.65 8v.7q.05.6.3 1.05.45.55 1.55.65h.5q4.7-.15 8.1-2.7 5.15-3.819 1.75-8.1-.39-.507-.95-1.05z"/></g></defs><use xlink:href="#a" transform="translate(-6.3 -14.2) scale(1.28427)"/><use xlink:href="#b" transform="translate(-2.1 -1.25) scale(.5625)"/><use xlink:href="#c" transform="translate(-2.1 -1.25) scale(.5625)"/><use xlink:href="#d" transform="translate(1.2 2.05) scale(.5625)"/><use xlink:href="#e" transform="translate(1.2 2.05) scale(.5625)"/><use xlink:href="#f" transform="translate(-1.2 .1) scale(.5625)"/><use xlink:href="#g" transform="translate(-.45 .4) scale(.5625)"/><use xlink:href="#h" transform="translate(-111.1 -39.2) scale(1.72026)"/><use xlink:href="#i" transform="translate(-3.8 3.75) scale(.5625)"/><use xlink:href="#j" transform="translate(-.45 .4)"/><use xlink:href="#k" transform="translate(-.45 .4) scale(.5625)"/></svg>