<svg xmlns="http://www.w3.org/2000/svg" xmlns:xlink="http://www.w3.org/1999/xlink" preserveAspectRatio="none" viewBox="0 0 72 72"><defs><path fill="#FCC21B" d="M125.9 66.2q.9-.9.9-2.15 0-1.3-.9-2.15L66.15 2.1q-.9-.9-2.15-.9-1.3 0-2.15.9L2.05 61.9q-.9.9-.9 2.1 0 1.2.9 2.2l59.8 59.75q.9.9 2.15.9t2.15-.9L125.9 66.2z" id="a"/><path fill="#444444" d="M52.6 58.5l-1.85-3.3L43 59.6q-.7.35-.95 1.15L40.5 66.7q-.2.75.15 1.45.4.7 1.15.9.8.2 1.45-.2.65-.4.9-1.15l1.4-5.2 7.05-4z" id="c"/><path fill="#444444" d="M52.85 68l-4.05 3.5 7.2 8.65q.55.65 1.45.75.85.05 1.55-.5.65-.55.75-1.4.05-.9-.5-1.55L52.85 68z" id="d"/><path fill="#444444" d="M59.75 78.75l-4.25.3.85 11.25q.05.85.7 1.45.7.6 1.55.5.85-.05 1.45-.75.6-.65.5-1.5l-.8-11.25z" id="e"/><path fill="#444444" d="M52.15 68.6l-5.1-1.5-2.3 11.8q-.2.85.3 1.6.5.7 1.4.85.85.15 1.6-.35.7-.5.85-1.35l3.25-11.05z" id="f"/><path fill="#444444" d="M48.8 79.9l-3.95-1.45L41 89.05q-.3.85.05 1.6.4.8 1.2 1.1.85.3 1.6-.05.8-.35 1.15-1.2l3.8-10.6z" id="g"/><path fill="#444444" d="M55.85 40.8q-2.6 0-4.4 1.85-1.85 1.8-1.85 4.4 0 2.6 1.85 4.4 1.8 1.8 4.4 1.8 2.55 0 4.4-1.8 1.8-1.8 1.8-4.4 0-2.6-1.8-4.4-1.85-1.85-4.4-1.85z" id="h"/><path fill="#444444" d="M54.1 54.85l-.65-.1q-1.6-.3-3 .6-1.35.95-1.65 2.55l-2.3 12.05q-.3 1.6.65 3 .95 1.35 2.55 1.65l.65.1q1.6.3 3-.6 1.35-.95 1.65-2.55l2.3-12.05q.3-1.6-.65-2.95t-2.55-1.7z" id="i"/><path fill="#444444" d="M54.1 63.1l-2.2 3.1 7.1 5.1q.65.45 1.4.3.8-.1 1.25-.75.45-.65.3-1.4-.1-.8-.75-1.25l-7.1-5.1z" id="j"/><path fill="#444444" d="M61.5 62q-.2.95.25 1.75t1.35 1q.9.25 1.7-.2.8-.45 1.05-1.35L67.5 57l8.35-5.1-2.2-3.9-9.2 5.55q-.8.5-1.05 1.45l-1.9 7z" id="k"/><path fill="#444444" d="M81.7 80.55q1 .1 1.8-.55.85-.65.95-1.7.1-1-.6-1.85l-7.6-11.15-4.8 4.15L80 79.65q.65.8 1.7.9z" id="l"/><path fill="#444444" d="M81.2 91.45q.8.7 1.85.6 1-.05 1.7-.85.7-.8.6-1.85l-.95-11.7-5 .35.95 11.7q.1 1.05.85 1.75z" id="m"/><path fill="#444444" d="M75.35 64.7L69 63.8l-2.45 13.1q-.2 1 .4 1.85.6.85 1.6 1.05 1 .2 1.85-.4.9-.55 1.1-1.6l3.85-13.1z" id="n"/><path fill="#444444" d="M71.45 77.9l-4.7-1.75L62.2 88.7q-.35 1 .1 1.9.45.95 1.4 1.3 1 .35 1.9-.1.95-.45 1.3-1.4l4.55-12.5z" id="o"/><path fill="#444444" d="M83.35 44.25q1.85-1.8 1.85-4.4 0-2.6-1.85-4.45-1.8-1.85-4.4-1.85-2.6 0-4.4 1.85-1.85 1.85-1.85 4.45t1.85 4.4q1.8 1.85 4.4 1.85 2.6 0 4.4-1.85z" id="p"/><path fill="#444444" d="M76.25 47.65q-1.7-.3-3.1.65-1.4.95-1.7 2.65L68.9 64.3q-.3 1.65.7 3.05.95 1.4 2.6 1.75l1.8.3q1.65.35 3.05-.65 1.4-.95 1.7-2.6L81.3 52.8q.3-1.7-.65-3.1-.95-1.4-2.6-1.7l-1.8-.35z" id="q"/><path fill="#444444" d="M84.05 67.4q.75.55 1.65.4.9-.15 1.45-.9.55-.75.4-1.65-.15-.95-.9-1.5l-8.4-6-2.6 3.65 8.4 6z" id="r"/><path fill="#444444" d="M47.1 42.45q.5 0 .85-.45.3-.45.1-.95L45.4 35.3q-.15-.35-.55-.35l-5.4-.15q-.45 0-.5.4l-3.4 6.55q-.2.5.1.9.3.45.85.45l10.6-.65z" id="s"/><path id="b" stroke="#444444" stroke-width="2" stroke-linejoin="miter" stroke-linecap="butt" stroke-miterlimit="10" fill="none" d="M65.419 37.688L37.688 65.447q-.704.703-1.688.703t-1.688-.703L6.553 37.687q-.703-.703-.703-1.659 0-.984.703-1.687l27.76-27.76q.703-.703 1.687-.703.956 0 1.66.703l27.759 27.731q.675.732.675 1.688 0 .984-.675 1.688z"/></defs><use xlink:href="#a" transform="scale(.5625)"/><use xlink:href="#b"/><use xlink:href="#c" transform="scale(.5625)"/><use xlink:href="#d" transform="scale(.5625)"/><use xlink:href="#e" transform="scale(.5625)"/><use xlink:href="#f" transform="scale(.5625)"/><use xlink:href="#g" transform="scale(.5625)"/><use xlink:href="#h" transform="scale(.5625)"/><use xlink:href="#i" transform="scale(.5625)"/><use xlink:href="#j" transform="scale(.5625)"/><use xlink:href="#k" transform="scale(.5625)"/><use xlink:href="#l" transform="scale(.5625)"/><use xlink:href="#m" transform="scale(.5625)"/><use xlink:href="#n" transform="scale(.5625)"/><use xlink:href="#o" transform="scale(.5625)"/><use xlink:href="#p" transform="scale(.5625)"/><use xlink:href="#q" transform="scale(.5625)"/><use xlink:href="#r" transform="scale(.5625)"/><use xlink:href="#s"/></svg>