<svg xmlns="http://www.w3.org/2000/svg" xmlns:xlink="http://www.w3.org/1999/xlink" preserveAspectRatio="none" viewBox="0 0 72 72"><defs><path fill="#2F2F2F" d="M26.15 97.2q-4.1-4.1-9.9-4.1-5.75 0-9.9 4.1-4.1 4.15-4.1 9.9 0 5.8 4.1 9.9 4.1 4.1 9.9 4.1 5.8 0 9.9-4.1 4.1-4.1 4.1-9.9 0-5.8-4.1-9.9z" id="a"/><path fill="#65878D" d="M24 107.1q0-3.2-2.25-5.4-2.25-2.25-5.5-2.25-3.2 0-5.45 2.25-2.25 2.2-2.25 5.4t2.25 5.45q2.25 2.25 5.45 2.25 3.25 0 5.5-2.25T24 107.1z" id="b"/><path fill="#2F2F2F" d="M121.3 97.2q-4.1-4.1-9.9-4.1-5.8 0-9.9 4.1-4.1 4.1-4.1 9.9 0 5.8 4.1 9.9 4.1 4.1 9.9 4.1 5.8 0 9.9-4.1 4.1-4.1 4.1-9.9 0-5.75-4.1-9.9z" id="c"/><path fill="#65878D" d="M116.8 101.7q-2.2-2.25-5.4-2.25t-5.45 2.25q-2.25 2.2-2.25 5.4 0 3.25 2.25 5.45 2.25 2.25 5.45 2.25t5.4-2.25q2.25-2.25 2.25-5.45t-2.25-5.4z" id="d"/><path fill="#ED6C30" d="M76.9 98.95H39.5q-.8 0-1.4.6-.6.6-.6 1.4v2.15q0 .85.6 1.4.6.6 1.4.6H77q.8 0 1.4-.6.6-.6.6-1.4v-2.15q-.05-.85-.65-1.4-.65-.6-1.45-.6z" id="e"/><path fill="#FCC21B" d="M36.55 104.4q-1.25 0-2.15.85-.9.85-.9 2.05 0 1.2.9 2.05.9.85 2.15.85h73.95q1.25 0 2.15-.85.9-.85.9-2.05 0-1.2-.9-2.05-.9-.85-2.15-.85H36.55z" id="f"/><path fill="#FCC21B" d="M34.05 109.85q1 1 2.5 1h73.95q1.5 0 2.55-1 1-.95 1-2.4T113 105q-1.05-1-2.5-1H36.55q-1.5 0-2.5 1-1.05 1-1.05 2.45 0 1.45 1.05 2.4m.7-4.15q.8-.7 1.8-.7h73.95q1.05 0 1.8.7.75.75.75 1.75t-.75 1.7q-.75.7-1.8.7H36.55q-1.05 0-1.8-.7t-.75-1.7q0-1 .75-1.75z" id="g"/><path fill="#2F2F2F" d="M23.3 77.7l-4.6-.7-4.9 29.5q-.15 1 .45 1.8.55.75 1.45.9.95.15 1.75-.4.8-.6.95-1.5l4.9-29.6z" id="h"/><path fill="#FCC21B" d="M33.4 90.6q-6.6-7-16.15-7.75h-.5q-1.25.1-2.1 1-.85.95-.85 2.2 0 1.35.95 2.3.95.9 2.25.9h.1q6.9.55 11.6 5.55 4.75 5.05 4.8 12.05v.15q0 1.35.95 2.3.9.9 2.25.9 1.15 0 2.05-.75.9-.7 1.15-1.85h.1v-.5q0-9.5-6.6-16.5z" id="i"/><path fill="#FCC21B" d="M14.2 83.7q-.85 1-.85 2.3 0 1.25.8 2.25.75.95 1.95 1.35h.25l.65.1q6.7.5 11.3 5.45Q32.8 100 33 106.8v.2q0 1.5 1.1 2.6t2.6 1.1q1.25 0 2.2-.75.95-.7 1.3-1.85h.2v-1q0-9.75-6.65-16.95Q27.05 83 17.3 82.3l-.95.05v.1q-1.3.25-2.15 1.25m2.8-.25h.25q9.35.7 15.75 7.5 6.4 6.85 6.4 16.25 0 1.05-.8 1.85-.8.75-1.9.75-1.1 0-1.9-.8-.8-.75-.8-1.9v-.15q-.05-7.1-4.95-12.3-4.9-5.2-11.95-5.8H17q-1.1 0-1.9-.8-.8-.75-.8-1.9 0-1.1.8-1.9.8-.8 1.9-.8z" id="j"/><path fill="#FCC21B" d="M110.3 90.7q4.55-.15 8 .9 1.75.4 2.6.15.95-.3 1.5-1.65.6-1.35.15-2.75-.5-1.45-1.75-2.05-3.75-1.8-10.5-1.8-9.4.35-15.85 7Q88 97.15 88 106.6v1h6.8v-1q0-6.55 4.55-11.15 4.45-4.5 10.95-4.75z" id="k"/><path fill="#2F2F2F" d="M34.7 11.5q.15-.95-.45-1.75-.55-.8-1.55-.9-1-.25-1.8.3-.75.55-.9 1.55l-8.6 51.45 4.7.6 8.6-51.25z" id="l"/><path fill="#FCC21B" d="M29.25 48.8l-6.6-1.1h-.4q-.9 0-1.6.6-.7.6-.9 1.5l-5.9 35.4q-.15 1.05.5 1.9.6.9 1.65 1l6.6 1.25h.4q.9 0 1.6-.6.7-.65.75-1.65l5.9-35.4q.15-1.2-.4-1.9-.6-.85-1.6-1z" id="m"/><path fill="#FCC21B" d="M22.75 47.3h-.5q-1.1 0-1.95.75-.8.7-1.05 1.75l-5.9 35.4q-.2 1.2.5 2.25.75 1.05 2 1.25l6.65 1.1h.5q1.1 0 1.95-.7.8-.75 1.05-1.8l5.85-35.4q.25-1.2-.45-2.25-.75-1-2.05-1.25l-6.6-1.1M21 48.8q.55-.5 1.25-.5h.3l6.6 1.1q.85.15 1.3.8.45.7.3 1.5L25 87.1q-.4 1.7-2 1.7h-.3l-6.6-1.1q-.8-.15-1.3-.8-.45-.65-.3-1.5L20.25 50q.2-.75.75-1.2z" id="n"/><g id="o"><path fill="#FCC21B" d="M44.45 8.25q-.05 1.8 1.3 3.15 1.3 1.3 3.15 1.35h5.7v-9h-5.7q-1.85-.05-3.1 1.3-1.35 1.3-1.35 3.2m28.5 4.45q1.85 0 3.15-1.35 1.3-1.3 1.35-3.2 0-1.8-1.35-3.1-1.25-1.35-3.15-1.35H67.3v9h5.65z"/><path fill="#2F2F2F" d="M67.3 12.7v-9l-12.7.05v9l12.7-.05z"/></g></defs><use xlink:href="#a" transform="scale(.5625)"/><use xlink:href="#b" transform="scale(.5625)"/><use xlink:href="#c" transform="scale(.5625)"/><use xlink:href="#d" transform="scale(.5625)"/><use xlink:href="#e" transform="scale(.5625)"/><use xlink:href="#f" transform="scale(.5625)"/><use xlink:href="#g" transform="scale(.5625)"/><use xlink:href="#h" transform="scale(.5625)"/><use xlink:href="#i" transform="scale(.5625)"/><use xlink:href="#j" transform="scale(.5625)"/><use xlink:href="#k" transform="scale(.5625)"/><use xlink:href="#l" transform="translate(-.05 .35) scale(.5625)"/><use xlink:href="#m" transform="scale(.5625)"/><use xlink:href="#n" transform="scale(.5625)"/><use xlink:href="#o" transform="rotate(9.999 29.313 -142.23) scale(.72511)"/></svg>