<svg xmlns="http://www.w3.org/2000/svg" xmlns:xlink="http://www.w3.org/1999/xlink" preserveAspectRatio="none" viewBox="0 0 72 72"><defs><path fill="#FCC21B" d="M127.8 93.35q0-26.95-8.55-47.05Q103.65 9.65 64 9.65T8.75 46.3Q.2 66.4.2 93.35q0 10.35 18.7 17.7 18.7 7.3 45.1 7.3 26.35 0 45.1-7.3 18.7-7.35 18.7-17.7z" id="a"/><path fill="#2F2F2F" d="M27.3 32.9q0-2.3-1.35-3.9-1.3-1.6-3.2-1.6-1.9 0-3.2 1.6-1.35 1.6-1.35 3.9 0 2.25 1.35 3.85t3.2 1.6q1.9 0 3.2-1.6 1.35-1.6 1.35-3.85z" id="c"/><path fill="#2F2F2F" d="M46.35 29Q45 30.6 45 32.9q0 2.25 1.35 3.85t3.2 1.6q1.9 0 3.2-1.6 1.35-1.6 1.35-3.85 0-2.3-1.35-3.9-1.3-1.6-3.2-1.6-1.9 0-3.2 1.6z" id="d"/><path fill="#FFFFFF" d="M57.4 12.95q-1.35-1.3-3.8-2.8-4.9-3-10.3-3.95-7.6-1.35-16.3.85-17.45 4.4-23.05 22.2L3 33q-1.05 4.9-1.85 10.9 7-6 17.5-12.9Q39.7 17.25 57.4 12.95z" id="e"/><path fill="#FFFFFF" d="M55.85 19.4q4.75.65 8.3 1.4-2.25-3.95-6.6-7.65l-3.85-2.9q-14.3-3.4-30.5 1.9-8.1 2.65-13.35 6-2.1 2.2-3.6 5.15-.75 1.5-1.05 2.55 8.1-2.35 14-3.8 10.85-2.65 20.75-3.5 6.3-.5 15.9.85z" id="g"/><path id="b" stroke="#2F2F2F" stroke-width="3" stroke-linejoin="round" stroke-linecap="round" fill="none" d="M54.8 21.75l-1.15-.1q-4-.35-5.5-1.85-1.15-1.4-1.65-2.45m-29.25 4.4q4.9-.2 6.65-1.95 1.15-1.4 1.65-2.45"/><path id="f" stroke="#78909C" stroke-width="2" stroke-linejoin="round" stroke-linecap="round" fill="none" d="M1.15 43.9q7-6 17.5-12.9Q39.7 17.25 57.4 12.95q-1.35-1.3-3.8-2.8-4.9-3-10.3-3.95-7.6-1.35-16.3.85-17.45 4.4-23.05 22.2L3 33q-1.05 4.9-1.85 10.9z"/><path id="h" stroke="#78909C" stroke-width="2" stroke-linejoin="round" stroke-linecap="round" fill="none" d="M9.85 18.15q5.25-3.35 13.35-6 16.2-5.3 30.5-1.9l3.85 2.9q4.35 3.7 6.6 7.65-3.55-.75-8.3-1.4-9.6-1.35-15.9-.85-9.9.85-20.75 3.5-5.9 1.45-14 3.8.3-1.05 1.05-2.55 1.5-2.95 3.6-5.15z"/><path id="i" stroke="#2F2F2F" stroke-width="3" stroke-linejoin="miter" stroke-linecap="round" stroke-miterlimit="10" fill="none" d="M27.55 47.8l1.9-.65q2.4-.7 4.9-.85 8.15-.4 14.6 4.9"/></defs><use xlink:href="#a" transform="scale(.5625)"/><use xlink:href="#b" transform="translate(0 3)"/><use xlink:href="#c" transform="matrix(1.0669 0 0 1.0669 .2 -2.9)"/><use xlink:href="#d" transform="matrix(1.0669 0 0 1.0669 -5.2 -2.9)"/><g><use xlink:href="#e"/><use xlink:href="#f"/></g><g><use xlink:href="#g"/><use xlink:href="#h"/></g><use xlink:href="#i" transform="translate(0 3)"/></svg>