<svg xmlns="http://www.w3.org/2000/svg" xmlns:xlink="http://www.w3.org/1999/xlink" preserveAspectRatio="none" viewBox="0 0 72 72"><defs><path fill="#E06055" d="M13.65 49.55q-3.85 0-6.6 5.1-2.7 5.1-2.7 12.25 0 7.2 2.7 12.3 2.75 5.05 6.6 5.05 3.85 0 6.6-5.05Q23 74.1 23 66.9q0-7.15-2.75-12.25t-6.6-5.1z" id="c"/><path fill="#E06055" d="M114.35 49.55q-3.85 0-6.6 5.1Q105 59.75 105 66.9q0 7.2 2.75 12.3 2.75 5.05 6.6 5.05 3.85 0 6.6-5.05 2.75-5.1 2.75-12.3 0-7.15-2.75-12.25t-6.6-5.1z" id="d"/><path fill="#78A3AD" d="M100.05 24.35q-3.25-3.1-7.6-3.1H35.7q-4.35 0-7.6 3.1L17.05 35.2q-3.25 3.1-3.25 7.75v54q0 4.5 3.25 7.75l11.05 10.8q3.2 3.1 7.6 3.1h56.75q4.4 0 7.6-3.1l11.05-10.8q3.25-3.15 3.25-7.75v-54q0-4.6-3.25-7.75l-11.05-10.85z" id="e"/><path fill="#546E7A" d="M40.25 41.3q-6.05 0-10.35 4.3-4.3 4.25-4.3 10.3 0 6.05 4.3 10.35t10.35 4.3q6.1 0 10.35-4.3Q54.9 62 54.9 55.9q0-6.05-4.3-10.3-4.3-4.3-10.35-4.3z" id="f"/><path fill="#FFFFFF" d="M22.9 30q-2.25 0-3.85 1.6t-1.6 3.85q0 2.25 1.6 3.85t3.85 1.6q2.25 0 3.85-1.6t1.6-3.85q0-2.25-1.6-3.85T22.9 30z" id="g"/><path fill="#546E7A" d="M97.25 45.6q-4.25-4.3-10.3-4.3-6.05 0-10.35 4.3-4.3 4.25-4.3 10.3 0 6.1 4.3 10.35 4.3 4.3 10.35 4.3t10.3-4.3q4.3-4.3 4.3-10.35t-4.3-10.3z" id="h"/><path fill="#FFFFFF" d="M54.85 35.45q0-2.35-1.7-4-1.65-1.7-4-1.7t-4 1.7q-1.65 1.65-1.65 4t1.65 4q1.65 1.65 4 1.65t4-1.65q1.7-1.65 1.7-4z" id="i"/><path fill="#E06055" d="M36.9 41q-.3-.7-1.05-.75-.8 0-1.1.7l-3 7.3q-.25.55.1 1.1.35.5.95.5h5.95q.65 0 .95-.5.35-.5.15-1.1L36.9 41z" id="j"/><path fill="#E06055" d="M39.95 7.65q0-1.65-1.15-2.8T36 3.7q-1.65 0-2.8 1.15t-1.15 2.8q0 1.65 1.15 2.8T36 11.6q1.65 0 2.8-1.15t1.15-2.8z" id="l"/><path id="a" stroke="#546E7A" stroke-width="4" stroke-linejoin="round" stroke-linecap="round" fill="none" d="M36 12.75q-2.117-.017-3.55-1.5Q31 9.8 31 7.7q0-2.15 1.45-3.6 1.45-1.45 3.6-1.45 2.1 0 3.55 1.45 1.5 1.45 1.5 3.6 0 2.1-1.5 3.55-1.45 1.5-3.55 1.5H36V11.6"/><path id="b" stroke="#546E7A" stroke-width="6" stroke-linejoin="round" stroke-linecap="round" fill="none" d="M36 12.75v7.35"/><g id="k"><path fill="#546E7A" d="M24.35 53.35q-2.2 0-3.9 1.4-1.8 1.7-1.8 3.75 0 2.2 1.8 3.8 1.7 1.5 3.9 1.5H47.6q2.25 0 4-1.5h.05q1.7-1.65 1.7-3.8 0-2.05-1.7-3.75h-.05q-1.7-1.4-4-1.4H24.35m10.4 2.6v5.15H31.6v-5.15h3.15m2.45 0h3.1v5.15h-3.1v-5.15m-13.6.2v4.9q-.8-.2-1.3-.75l-.05-.05q-.85-.75-.85-1.75t.85-1.65h.05q.55-.6 1.3-.7m5.6-.2v5.15H26v-5.15h3.2m13.6 5.15v-5.15h3.1v5.15h-3.1m6.95-.85q-.65.6-1.35.8v-4.9q.7.1 1.35.7.85.6.85 1.65 0 1.05-.85 1.75z"/><path fill="#FFFFFF" d="M48.4 61.05q.7-.2 1.35-.8.85-.7.85-1.75t-.85-1.65q-.65-.6-1.35-.7v4.9m-5.6-5.1v5.15h3.1v-5.15h-3.1M29.2 61.1v-5.15H26v5.15h3.2m-5.6-.05v-4.9q-.75.1-1.3.7h-.05q-.85.65-.85 1.65 0 1 .85 1.75l.05.05q.5.55 1.3.75m16.7-5.1h-3.1v5.15h3.1v-5.15m-5.55 5.15v-5.15H31.6v5.15h3.15z"/></g></defs><g><use xlink:href="#a"/><use xlink:href="#b"/></g><use xlink:href="#c" transform="matrix(.5625 0 0 .77307 0 -10.05)"/><use xlink:href="#d" transform="matrix(.5625 0 0 .77307 0 -10.05)"/><use xlink:href="#e" transform="translate(0 4) scale(.5625)"/><use xlink:href="#f" transform="translate(.25 4) scale(.5625)"/><use xlink:href="#g"/><use xlink:href="#h" transform="translate(.25 4) scale(.5625)"/><use xlink:href="#i"/><use xlink:href="#j" transform="matrix(1.253 0 0 1 -8.75 0)"/><use xlink:href="#k"/><use xlink:href="#l" transform="matrix(1.27849 0 0 1.27849 -10 -2.1)"/></svg>