<svg xmlns="http://www.w3.org/2000/svg" xmlns:xlink="http://www.w3.org/1999/xlink" preserveAspectRatio="none" viewBox="0 0 72 72"><defs><path fill="#FCC21B" d="M128 93.45q0-27.05-8.55-47.15Q103.8 9.5 64 9.5q-39.85 0-55.45 36.8Q0 66.4 0 93.45q0 10.4 18.75 17.75T64 118.55q26.55 0 45.25-7.35Q128 103.85 128 93.45z" id="a"/><path fill="#2F2F2F" d="M36.05 51.5q-2.35 2.9-2.3 6.9.05 4 2.45 6.85 2.45 2.8 5.8 2.75 3.35 0 5.7-2.85 2.35-2.9 2.3-6.9-.05-4-2.45-6.85-2.4-2.85-5.75-2.8-3.35.05-5.75 2.9z" id="b"/><path fill="#2F2F2F" d="M94.2 58.3q-.05-4-2.4-6.85-2.4-2.85-5.75-2.8-3.35 0-5.75 2.85t-2.4 6.85q.05 4 2.45 6.85 2.4 2.85 5.75 2.8 3.35 0 5.7-2.85 2.4-2.85 2.4-6.85z" id="c"/><path fill="#2F2F2F" d="M98.7 85.35Q97 84.1 95.1 83.9q-1.85-.25-2.8.65l-2.8 2.7q-.95.95-.65 2.7.3 1.75 1.7 3.3l15.95 18.2q1.45 1.6 3.6 1.7 2.2.05 3.85-1.5l4.9-4.65q1.65-1.6 1.6-3.6-.1-2.05-1.9-3.4L98.7 85.35m13.2 16.85q.8-.75 2-.75t2.1.7q.9.75.95 1.85.05 1.05-.8 1.85l-3.5 3.25q-.8.8-1.95.8t-2-.85q-.8-.8-.8-1.95 0-1.1.8-1.85l3.2-3.05z" id="d"/><path id="e" stroke="#2F2F2F" stroke-width="3" stroke-linejoin="round" stroke-linecap="round" fill="none" d="M52.05 49.35H20.4"/><path id="f" stroke="#2F2F2F" stroke-width="3" stroke-linejoin="round" stroke-linecap="round" fill="none" d="M28.35 41.75v7.15"/><path id="g" stroke="#2F2F2F" stroke-width="3" stroke-linejoin="round" stroke-linecap="round" fill="none" d="M36.3 45.75v7.15"/><path id="h" stroke="#2F2F2F" stroke-width="3" stroke-linejoin="round" stroke-linecap="round" fill="none" d="M20.39 43.26v7.115"/><path id="i" stroke="#2F2F2F" stroke-width="3" stroke-linejoin="round" stroke-linecap="round" fill="none" d="M44.269 43.26v7.115"/><path id="j" stroke="#2F2F2F" stroke-width="3" stroke-linejoin="round" stroke-linecap="round" fill="none" d="M52.256 43.26v4.837"/></defs><use xlink:href="#a" transform="scale(.5625)"/><use xlink:href="#b" transform="translate(0 -2.5) scale(.5625)"/><use xlink:href="#c" transform="translate(0 -2.5) scale(.5625)"/><use xlink:href="#d" transform="translate(0 -2.5) scale(.5625)"/><use xlink:href="#e" transform="translate(0 -2.5)"/><use xlink:href="#f" transform="translate(0 1.5)"/><use xlink:href="#g" transform="translate(0 -2.5)"/><use xlink:href="#h" transform="matrix(1 0 0 1 0 -.025)"/><use xlink:href="#i" transform="matrix(1 0 0 1 0 -.025)"/><use xlink:href="#j" transform="matrix(1 0 0 1 0 -.025)"/></svg>