<svg xmlns="http://www.w3.org/2000/svg" xmlns:xlink="http://www.w3.org/1999/xlink" preserveAspectRatio="none" viewBox="0 0 72 72"><defs><path fill="#E0BB95" d="M47.95 1.5Q46.7.1 44.4.1q-3.9 0-4.25 5.35-.2 3-2.05 24.55-.15.3-.4.4-.55.15-1.15-1-.55-1-1.6-1.65-1.35-.8-2.95-.6-2.1.35-2.85 1.4-.5.65-.95 2.9-.35 1.45-.65.8-1.2-2-1.45-2.25-.55-.6-1.6-1-1.25-.5-2.4-.3-1.55.25-2.8 1.45-1.3 1.2-1.6 2.8-.25 1.4-.95.9-.3-.2-1.2-1.45-.55-.75-1.75-1.05-1.35-.4-2.6.05-3.8 1.3-3.95 4.9-.05 1.5-.45 9.7-.1 8.4 1.6 13.25 1.7 5.1 7.2 8.8 6.05 4 13.55 4 9.35 0 15.9-5.6 4.1-3.5 5.6-7.85 6.25-11.7 9.45-12.45 2.897-2.058 7.5-2.6.751-.194 1-.8.638-1.534-.75-3.5-1.413-1.364-3.75-2.15h-.05q-4.458-1.327-9 1.1-4.493 2.476-5.7-3.4-.15-6.235-.15-16.85 0-12.55-.05-13.15-.15-2.1-1.2-3.3z" id="a"/><path fill="#E0BB95" d="M11.55 8.65q-1 1.3-1 3.1 0 2.1 1.1 9.85.95 6.7 1.6 10.25.8 4.45 1.1 9.15.15 2.3.15 3.8l11.85-3.5.05-8.1-.6.8q-.7.7-1.35.05-.55-.6-1.25-2.2-.7-1.7-1.05-3.55-.5-2.6-2.1-9.2-1.65-6.8-2-8.6-.4-1.95-1.65-2.85-1.15-.8-2.55-.5-1.35.35-2.3 1.5z" id="b"/><path fill="#C48E6A" d="M44.55 29.9q-.05.05-.05.1l-.35 13.2q-.397 2.56-2.7 3.4-2.305.892-4.55.05.191-7.45-.95-14.75 0-.25-.2-.4-.2 1.1-.75.3l-.2-.3h-.05q-.2.2-.2.45L34.9 40q.116 2.594-.4 5.2-.043.334-.15.65-.313.953-1.4 1.25l-1.15.2h-.2q-.55 0-.85-.1-1.2-.25-1.95-1.4-.8-1.05-1.45-2.8-.9-2.35-1.5-6.2-.25-1.25-.35-2.1l-.1-.8q-.05-.2-.2-.35-.25.65-.8.25l-.15-.15q-.1.15-.1.35l.05.85q0 .85.2 2.2.35 3.85 1.15 6.55.75 2.2 1.55 3.45.95 1.1 1.3 1.4.85.65 1.6.9.8.35 1.5.35l1.1-.05q.35-.1.75-.15l2.7-.8q3.463 1.127 6.3.2 3.67-1.15 4.2-4.65v-2.1V42l-.05-1.85q-.2-3.4-.25-4.15-.05-2.1-.25-4.1l-.2-1.85q0-.2-.05-.3-.05.05-.05.15-.15.3-.4.4-.35.1-.75-.4z" id="c"/></defs><use xlink:href="#a" transform="translate(.15)"/><use xlink:href="#b" transform="translate(-7.5)"/><use xlink:href="#c" transform="translate(-7.5)"/></svg>