<svg xmlns="http://www.w3.org/2000/svg" xmlns:xlink="http://www.w3.org/1999/xlink" preserveAspectRatio="none" viewBox="0 0 72 72"><defs><path fill="#FCC21B" d="M36 5.45q-22.35 0-31.1 20.6Q.1 37.3.1 52.5q0 5.85 10.55 9.95Q21.1 66.6 36 66.6q14.85 0 25.35-4.15 10.5-4.1 10.5-9.95 0-15.2-4.75-26.45Q58.3 5.45 36 5.45z" id="a"/><path fill="#2F2F2F" d="M86.4 86.65q.95-.95.9-2.3 0-1.35-.95-2.3-1-.95-2.3-.95-1.35.05-2.3 1-1.8 1.75-4.8 3.35-6 3.15-13.1 3.15-7.05 0-13.05-3.15-4.65-3.2-4.8-3.35-.95-.95-2.3-1-1.3 0-2.3.95-.95.95-1 2.3 0 1.3.95 2.3.2.15 6.1 4.35 7.55 4.1 16.4 4.1 8.85 0 16.45-4.1 3.85-2.1 6.1-4.35z" id="b"/><path fill="#2F2F2F" d="M54.1 34.5q.3.5.9.7.65.1 1.15-.2.55-.35.7-.9.2-.65-.15-1.15-.7-1.2-2-2.25-2.6-2.05-6.1-2.05-3.4 0-6.05 2.05-1.95 2.15-2.05 2.25-.3.5-.1 1.15.15.6.7.9.4.25.75.25.9 0 1.3-.75.05-.1 1.4-1.45 1.75-1.35 4.05-1.35 2.35 0 4.1 1.35.9.65 1.4 1.45z" id="d"/><path fill="#2F2F2F" d="M15.8 35.05q.4.25.75.25.9 0 1.35-.75.05-.1 1.35-1.45 1.75-1.35 4.1-1.35 2.35 0 4.15 1.35.9.7 1.3 1.45.3.55.95.7.6.15 1.15-.2.55-.3.7-.9.15-.65-.2-1.15-.4-1-2-2.25-2.6-2.05-6.05-2.05-3.45 0-6.1 2.05-1.95 2.1-2 2.25-.3.5-.15 1.15.15.6.7.9z" id="e"/><path fill="#ED6C30" d="M91.45 76.95q-1.95-1.6-8.55-.75-11 1.4-17 1.4-5.9 0-19.05-2.05-8.3-1.3-10.5.95-.7.7-.95 1.9-.2 1.1.05 2.15 1.75 7.3 10.15 11.75 8.25 4.4 19.8 4.4 11.85 0 19.25-4.65 6.9-4.35 8.15-11.5.35-2.2-1.35-3.6z" id="f"/><path fill="#40C0E7" d="M33.15 52.35q-.25.3-.35.75 5.255 1.048 11.1-.15 1.7 0 2.5-.65-.159-.925-.7-1.05-.544-.119-1.9.5-1.302.606-2.3.6-1.05 0-3.4-.3-2.25-.25-3.15-.25-1.25-.05-1.8.55z" id="g"/><path fill="#40C0E7" d="M36.8 52.95q2.05.4 2.8 1.2.85.9.85 3.1 0 .7-.05 2.2-.05 1.35.05 2.15.2 1 .85 1.45.55.3 1.2.2 1.1-.2 1.3-2.15 0-2.8.1-4.45.1-1.35 1.2-2.45 1.15-1.15 1.3-1.85l-9.6.6z" id="h"/><path id="c" stroke="#2F2F2F" stroke-width="3" stroke-linejoin="round" stroke-linecap="round" fill="none" d="M47.55 21.3q6.7-.75 11.1 2.95m-35.1-4.85q-6.088-.043-9.4 5.65"/></defs><use xlink:href="#a"/><use xlink:href="#b" transform="translate(181.25 -15.4) scale(.5625)"/><use xlink:href="#c"/><use xlink:href="#d" transform="rotate(9.999 48.9 32.294)"/><use xlink:href="#e" transform="rotate(-9.999 23.12 31.971)"/><g transform="matrix(.4635 0 0 .43608 6.3 11.2)"><use xlink:href="#f"/></g><g><use xlink:href="#g"/></g><g><use xlink:href="#h"/></g></svg>