<svg xmlns="http://www.w3.org/2000/svg" xmlns:xlink="http://www.w3.org/1999/xlink" preserveAspectRatio="none" viewBox="0 0 72 72"><defs><path fill="#FCC21B" d="M127.85 93.4q0-27-8.5-47.1Q103.75 9.6 64 9.6T8.65 46.3Q.1 66.4.1 93.4q0 10.4 18.7 17.7 18.7 7.35 45.2 7.35 26.45 0 45.15-7.35 18.7-7.3 18.7-17.7z" id="a"/><path fill="#2F2F2F" d="M50 49q-.05-4-2.45-6.8-2.4-2.85-5.75-2.8-3.4.05-5.75 2.9t-2.3 6.9q.05 4 2.45 6.8 2.4 2.85 5.75 2.8 3.4-.05 5.75-2.9T50 49z" id="b"/><path fill="#2F2F2F" d="M91.75 42.25q-2.35-2.85-5.7-2.85-3.4 0-5.75 2.85-2.4 2.85-2.4 6.9 0 4 2.4 6.85 2.4 2.8 5.75 2.8 3.4 0 5.75-2.85 2.4-2.85 2.35-6.85 0-4.05-2.4-6.85z" id="c"/><path fill="#F57C00" d="M111 85.05q4.5.15 7.9-2.6 4-3.25 3.5-8.75-.45-5.7-4.45-8.4-3.15-2.15-7.55-1.95-9.3.4-21.2 1.35-20.3 1.6-21.25 1.65-3.3.25-5.45 2.5-2.25 2.35-2.4 6-.15 3.85 2.2 6.4 2.35 2.55 6.15 2.65L111 85.05z" id="e"/><path fill="#FFAB00" d="M61.3 22.75q4.7-.1 8.1-3.1 1.226-1.088 2-2.4-.553-5.354-4.4-7.95-3.15-2.15-7.55-1.95-9.3.4-21.2 1.35-20.3 1.6-21.25 1.65-3.3.25-5.45 2.5-2.25 2.35-2.4 6-.1 2.586.9 4.55 16.402-.212 51.25-.65z" id="f"/><path id="d" stroke="#2F2F2F" stroke-width="4" stroke-linejoin="round" stroke-linecap="round" fill="none" d="M29.447 54.844q3.01-1.547 6.553-1.547 3.544 0 6.525 1.547"/></defs><use xlink:href="#a" transform="scale(.5625)"/><use xlink:href="#b" transform="scale(.5625)"/><use xlink:href="#c" transform="scale(.5625)"/><use xlink:href="#d"/><use xlink:href="#e" transform="scale(.5625)"/><use xlink:href="#f" transform="translate(28.65 31.5) scale(.5625)"/></svg>