<svg xmlns="http://www.w3.org/2000/svg" xmlns:xlink="http://www.w3.org/1999/xlink" preserveAspectRatio="none" viewBox="0 0 72 72"><defs><path fill="#C4A66A" d="M38.25 47.7L0 43.25V44l37.9 5.8.35-2.1z" id="a"/><path fill="#CFD8DC" d="M102.15 36.4L101 46.2l18.45 5.45 1.7-7.7-19-7.55z" id="b"/><path fill="#FCC21B" d="M93.9 30.2l-9.65 1.2-.4 6.65 8.55 1.7 1.5-9.55z" id="c"/><path fill="#FCC21B" d="M55.05 9.8q.25-1.65-.65-3.05-.8-1.4-2.4-1.9l-1.65-.5q-1.85-.5-3.85.55-2.05 1.2-2.2 3.15l-.55 1.5q-.9 2.7-.45 5.5.15.95.85 1.7.65.75 1.65 1.05 3.1.75 6.3.6l.55-.05 1.6-3.1.8-5.45z" id="d"/><path fill="#312D2D" d="M55.45 6.45q-1.5-2.05-4.05-2.3Q49.95 4 49.15 4q-2.85.05-4.35 2.45l-.75 1.75q1.783.584 2.95.15 1.4 2.05 2.5 4.3.65 1.2 1.85 1.65l.8-1.7.45.25q.4.2.6.6.2.4.1.85l-.75 4.3.9-.8.95-1.65q1.05-1.8 1.9-5.1.6-2.5-.85-4.6z" id="e"/><path fill="#444444" d="M85.35 21.8q.1-.55-.2-1-.25-.45-.75-.5-.45-.05-.85.3-.35.35-.45.9-.05.55.2 1 .25.45.75.5.45.1.85-.3.4-.35.45-.9z" id="f"/><path fill="#444444" d="M79.45 20.4q.1-.55-.2-1-.25-.4-.75-.5-.45-.05-.85.3-.35.35-.45.9-.05.55.2 1 .25.5.75.55.45.05.85-.3.4-.4.45-.95z" id="g"/><path fill="#9B7A26" d="M42 48.9q.35-2.45-.05-4.35-.4-1.85-1.25-1.95-.85-.1-1.7 1.55-.85 1.7-1.2 4.2-.35 2.55.05 4.35.35 1.85 1.25 1.95.85.15 1.7-1.55t1.2-4.2z" id="h"/><path fill="#CFD8DC" d="M75.95 69L59 94.7l8.8 4.75L86.75 79.5 75.95 69z" id="i"/><path fill="#CFD8DC" d="M70.1 97.6l-11.6.25 4.4 23.75h7.5l-.3-24z" id="j"/><path fill="#CFD8DC" d="M101.15 69.95l-13.35 5.8 7.95 24.35 10.85-1.45-5.45-28.7z" id="k"/><path fill="#CFD8DC" d="M95.75 100.1l4.3 19.85h7.45l-.9-21.3-10.85 1.45z" id="l"/><path fill="#CFD8DC" d="M80.6 44.7l-7.7-5.2L62 58.2l6.2 4.35L80.6 44.7z" id="m"/><path fill="#B0BEC5" d="M104.85 40.7q.2-1.55-.75-2.85-.9-1.25-2.45-1.55l-6.5-1.3-15.4 1.45-4.75 1.6q-1.55.5-2.35 1.85-.85 1.4-.6 3l3.9 26.1L86.5 80q.8.85 1.95.85 1.15.05 1.95-.75l10.75-10.15 3.7-29.25z" id="n"/><path fill="#CFD8DC" d="M60.65 92.55q-1.9 1.5-2.2 3.9-.25 2.4 1.2 4.3 1.5 1.9 3.9 2.15 2.45.3 4.3-1.2 1.9-1.45 2.2-3.85.3-2.4-1.2-4.3t-3.9-2.2q-2.4-.3-4.3 1.2z" id="o"/><path fill="#CFD8DC" d="M60.9 60.75q-.1 1.6.95 2.8 1.05 1.2 2.65 1.25 1.6.1 2.8-1 1.2-1.05 1.25-2.65.1-1.6-1-2.75-1.05-1.2-2.65-1.3-1.55-.05-2.75 1-1.15 1.1-1.25 2.65z" id="p"/><path fill="#CFD8DC" d="M123.8 48.7q.4-1.55-.45-2.9-.8-1.35-2.35-1.75-1.55-.35-2.9.45-1.35.8-1.75 2.35-.4 1.55.4 2.95.8 1.35 2.4 1.7 1.55.4 2.9-.4 1.35-.8 1.75-2.4z" id="q"/><path fill="#CFD8DC" d="M45.45 53.9l17.8 10.6 4.05-6.4-17.8-10.6-4.05 6.4z" id="r"/><path fill="#CFD8DC" d="M123.85 48.4l2.6-20.4-6.4-.2-3.85 19.45 7.65 1.15z" id="s"/><path fill="#37474F" fill-opacity=".949" d="M13.7 2.4Q12.4.45 10.75 0 8.95.15 6.9 1.1 2.8 2.95 1.5 6.8q-2 6.05-1.35 11.05.85 6.6 6.4 7.75 1.4-.25 3.1-1.8 3.35-3.1 4.85-9.7 1.8-7.7-.8-11.7z" id="t"/><path fill="#78909C" d="M85.5 6.45l1.55 1.45q1.6 2.1 1.7 5.4.35 9.65-3.75 15.1-1.55 2.1-3.7 2.9l-1.9.35 2.05 1.05q2.7 1.1 5.8 1.3 4.55-1.35 7.1-4.55 2.6-3.25 3.45-8.6.9-5.45-.3-9.3l-1.4-2.7Q94.05 7.4 91.9 6.8q-2.2-.55-4.5-.5l-1.9.15z" id="u"/><path fill="#CFD8DC" d="M95.85 25.15H88.8q-.55 1.55-1.65 3.25-2.1 3.3-4.65 3.8-.8.15-2-.2l-1.1-.35.35 4.8-1.9.65 2.25.6q2.9.7 5.1 2.65 1.65 1.5 3.6 1.25 3.65-.3 5.35-3.85 1.6-3.2 1.8-8.25l-.1-4.35z" id="v"/><path fill="#B0BEC5" d="M90.25 20.85l-2.85 7.2h5.9q1.15 0 2.05-.65.95-.65 1.3-1.7.5-1.35.9-3.25l.25-1.6h-7.55z" id="w"/><path fill="#B0BEC5" d="M86.75 28.4q-2.35 3.25-4 3.35-1.7.15-2.7.05l-.65-.15.15 2.15 1.8.85q2.2.8 3.9.6 2.2-.25 3.95-2.7 1.9-2.65 2.85-7.4H88.8q-.85 1.6-2.05 3.25z" id="x"/><path fill="#CFD8DC" d="M85.5 6.45l1 1q1.05 1.4 1.5 3.25.95 4.35-.05 9.95-.6 3.35-2.5 6.5-1.65 2.8-3 3.5-.95.45-2.4.55l-1.25-.05v.75l.7.95 1.95.05q2.2-.15 3.55-1.35 1.85-1.7 3-3.85 1.5-2.7 2.25-6.85 1.4-7.25-.3-11.75-.6-1.55-1.65-2.3l-.9-.5-1.9.15z" id="y"/><path fill="#CFD8DC" d="M44.75 45.35q-1.85-.15-3.3 1.05-1.4 1.2-1.55 3.1l-.05.65q-.1 1.85 1.1 3.25 1.2 1.4 3.05 1.55l1.5.1q1.9.15 3.3-1.05 1.4-1.25 1.5-3.1l.05-.65Q50.5 48.4 49.3 47q-1.25-1.45-3.1-1.55l-1.45-.1z" id="z"/><path fill="#CFD8DC" d="M127.1 20.75q-1.15-1.5-3-1.75-1.85-.2-3.3.9-1.5 1.15-1.75 3l-.3 2.85q-.25 1.85.9 3.3 1.15 1.5 3 1.7 1.85.25 3.3-.9 1.5-1.15 1.7-3l.35-2.8q.25-1.85-.9-3.3z" id="A"/><path fill="#C4A66A" d="M49.55 49.25q-.3-.05-.55.15-.25.25-.3.6-.1.85.5 1l2.3.55q.35.1.7-.1.3-.25.35-.65.1-.45-.1-.8-.15-.35-.55-.45l-2.35-.3z" id="B"/><path fill="#B0BEC5" d="M44.7 45.35q-1.25-.1-2.25.45.05.05.8-.05.8.05 1.3.5.35.3.35.75 0 .5.35.9.2.25.85.15.75-.15 1.3.2.35.25.45.65l.05.95q0 .15.5.5.4.25.25.9-.15.8-.85 2.05.4.6 1.2.2 1.25-1.15 1.3-2.6l.05-.65Q50.5 48.4 49.3 47q-1.25-1.4-3.1-1.55l-1.5-.1z" id="C"/><path fill="#B0BEC5" d="M70.4 121.4h-7.5l-7.65 2q-1.55.45-2.05 2-.35 1 .25 1.8t1.65.8h15.3v-6.6z" id="D"/><path fill="#B0BEC5" d="M100 119.5l-.55 1.55q-.55 1.75-.7 2.6v.2q-.2 1.05.5 2.5.8 1.65 2 1.65h9.4q.5 0 .9-.9.35-.75.35-1.45v-.25q0-.65-.4-1.2l-4.15-4.7H100z" id="E"/></defs><use xlink:href="#a" transform="scale(.5625)"/><use xlink:href="#b" transform="scale(.5625)"/><use xlink:href="#c" transform="scale(.5625)"/><use xlink:href="#d"/><use xlink:href="#e"/><use xlink:href="#f" transform="scale(.5625)"/><use xlink:href="#g" transform="scale(.5625)"/><use xlink:href="#h" transform="scale(.5625)"/><use xlink:href="#i" transform="scale(.5625)"/><use xlink:href="#j" transform="scale(.5625)"/><use xlink:href="#k" transform="scale(.5625)"/><use xlink:href="#l" transform="scale(.5625)"/><use xlink:href="#m" transform="scale(.5625)"/><use xlink:href="#n" transform="scale(.5625)"/><use xlink:href="#o" transform="scale(.5625)"/><use xlink:href="#p" transform="scale(.5625)"/><use xlink:href="#q" transform="scale(.5625)"/><use xlink:href="#r" transform="scale(.5625)"/><use xlink:href="#s" transform="scale(.5625)"/><use xlink:href="#t" transform="translate(42.15 3.7) scale(.5625)"/><use xlink:href="#u" transform="scale(.5625)"/><use xlink:href="#v" transform="scale(.5625)"/><use xlink:href="#w" transform="scale(.5625)"/><use xlink:href="#x" transform="scale(.5625)"/><use xlink:href="#y" transform="scale(.5625)"/><use xlink:href="#z" transform="scale(.5625)"/><use xlink:href="#A" transform="translate(-.05) scale(.5625)"/><use xlink:href="#B" transform="scale(.5625)"/><use xlink:href="#C" transform="scale(.5625)"/><use xlink:href="#D" transform="scale(.5625)"/><use xlink:href="#E" transform="scale(.5625)"/></svg>