<svg xmlns="http://www.w3.org/2000/svg" xmlns:xlink="http://www.w3.org/1999/xlink" preserveAspectRatio="none" viewBox="0 0 72 72"><defs><path fill="#E0BB95" d="M23.45 13.95q.5-3.15-2.15-3.7-2-.35-2.95 2.45-1.5 8.35-2.5 17-.55-.05-.55-.95l1-12.15q-.4-2.25-2.15-2.6-1.8-.35-2.95 2.45Q9.65 23.2 8.75 33.4q-.3-6.65-2.8-6.85-1.3-.1-2.35 1-1.2 1.6-1.55 5.95Q.8 48.8 6.35 57.05q1.9 3.2 6.15 3.7 4.4 1.05 9.6 1.05.65-.05 1.25 0 5.7.3 9.35-3.85 4.05-5.15 2.3-10.4-.8-2.4-.85-5.6l-.05-6.15q.55-6.65.95-10.6.5-5.25-1.55-5.65-1.8-.4-2.65 3.65L28.7 33.4q-.55 0-.55-.65 1.1-7.95 1.65-16.25.15-1.9-1.5-2.75-1.9-1.05-3.25 1.7Q24.2 17.5 22 32.2q-.55-.05-.5-.95l1.95-17.3z" id="a"/><path fill="#E0BB95" d="M50.65 10.25q-2.65.55-2.15 3.7l1.95 17.3q.05.9-.5.95-2.2-14.7-3.05-16.75-1.35-2.75-3.25-1.7-1.65.85-1.5 2.75.55 8.3 1.65 16.25 0 .65-.55.65L41.1 23.2q-.85-4.05-2.65-3.65-2.05.4-1.55 5.65.4 3.95.95 10.6l-.05 6.15q-.05 3.2-.85 5.6-1.75 5.25 2.3 10.4 3.65 4.15 9.35 3.85.6-.05 1.25 0 5.2 0 9.6-1.05 4.25-.5 6.15-3.7 5.55-8.25 4.3-23.55-.35-4.35-1.55-5.95-1.05-1.1-2.35-1-2.5.2-2.8 6.85-.9-10.2-2.45-16.95-1.15-2.8-2.95-2.45-1.75.35-2.15 2.6l1 12.15q0 .9-.55.95-1-8.65-2.5-17-.95-2.8-2.95-2.45z" id="c"/><path id="b" stroke="#C48E6A" stroke-width="1" stroke-linejoin="round" stroke-linecap="round" fill="none" d="M8.886 32.59q-.648 9.048 3.808 10.76 4.453 1.708 3.17 6.763"/><path id="d" stroke="#C48E6A" stroke-width="1" stroke-linejoin="round" stroke-linecap="round" fill="none" d="M63.014 32.59q.648 9.048-3.808 10.76-4.453 1.708-3.17 6.763"/></defs><use xlink:href="#a"/><use xlink:href="#b" transform="matrix(.99999 0 0 .99999 -.009 -.006)"/><use xlink:href="#c"/><use xlink:href="#d" transform="matrix(.99999 0 0 .99999 .005 -.006)"/></svg>