<svg xmlns="http://www.w3.org/2000/svg" xmlns:xlink="http://www.w3.org/1999/xlink" preserveAspectRatio="none" viewBox="0 0 72 72"><defs><path fill="#563E37" d="M35.7 62.6q2.55 0 4.25-1.8 1.7-1.8 1.7-4.4v-5.25H29.8v5.25q0 2.6 1.65 4.4 1.7 1.8 4.25 1.8z" id="b"/><path fill="#563E37" d="M106.9 66.05h-3.6v20.3q4.75 0 7.85-2.4 3.6-2.8 3.6-8.05 0-5.3-3.9-8.1l-3.95-1.75z" id="c"/><path fill="#563E37" d="M24.7 66.05h-3.65l-3.9 1.75q-3.95 2.8-3.95 8.1 0 5.25 3.6 8.05 3.1 2.4 7.9 2.4v-20.3z" id="d"/><path fill="#8E726A" d="M106.75 73.8q0-30.45-8.65-45.45Q87.85 10.6 64 10.6q-23.9 0-34.15 17.75-8.65 15-8.65 45.45 0 25.9 14.6 38.45Q47.05 122 64 122q16.8 0 28.1-9.65 14.65-12.55 14.65-38.55z" id="e"/><path fill="#444444" d="M40.15 72.35q-1.7 2-1.7 4.85 0 2.9 1.7 4.9 1.65 2 4.05 2 2.35 0 4.05-2 1.65-2.05 1.65-4.9 0-2.85-1.65-4.85-1.7-2.05-4.05-2.05-2.4 0-4.05 2.05z" id="f"/><path fill="#444444" d="M87.85 72.35q-1.7-2.05-4.05-2.05-2.4 0-4.05 2.05-1.7 2-1.7 4.85 0 2.85 1.7 4.9 1.65 2 4.05 2 2.35 0 4.05-2 1.65-2 1.65-4.9 0-2.85-1.65-4.85z" id="g"/><path fill="#513F35" d="M63.95 108.75q4.9 0 9-2.15 3.2-1.7 4.5-3.7.7-1.05.35-1.7-.35-.65-1.45-.65H51.6q-1.1 0-1.45.65-.35.65.35 1.7 1.3 2 4.5 3.7 4.1 2.15 8.95 2.15z" id="h"/><path fill="#563E37" d="M58 90q-.65-.15-.9.3-.3.4-.05.9.7 1.15 2.4 2.2 2.2 1.35 4.55 1.35 2.35 0 4.5-1.35 1.7-1.05 2.4-2.2.25-.5 0-.9-.3-.45-.95-.3-3.15.9-5.95.9-2.85 0-6-.9z" id="i"/><path fill="#232020" d="M57.2 19.2q-.35-4.8-4.4-8.4-5.6-4.85-16.4-5.05h-.8q-10.85.2-16.4 5.05-4.1 3.6-4.35 8.4-.05.35-.05.65V31.1q.25-.2.75-.55.3-.3.7-.5l.35-.15.8 5.4q4.45-6.95 5.7-14.55 3.5 2.35 6.45 3.3 2.9 1 6.05.95h.8q5.2-.05 9.55-.55l3.15-.35q.1 0 .15.1l5.35 11.1.8-5.4.35.15q.4.2.7.45l.75.6V19.85v-.65z" id="j"/><path fill="#020202" d="M75.95 110.55q.15-2.7.1-3.65-.1-1.65-1.1-2.05-1.25-.45-2.8.2-.75.25-2.3 1.25-1.5.95-4.5 2.8-.75.4-.85 1.5-.15 1.05.3 1.75.65 1 4.65 2.65.95.4 2.95 1.3 1.75.6 2.85.1.8-.35.85-1.85-.15-2.3-.15-4z" id="k"/><path fill="#444444" d="M73.25 108.85q0-.2-1.15-.1-1.2.1-2.75.45-3.9.8-3.8 1.2.1.45 3.9-.35 3.9-.8 3.8-1.2z" id="l"/><path fill="#444444" d="M73.3 112.8q0-.4-3.85-.95-1.6-.25-2.75-.3-1.15-.05-1.15.15-.1.45 3.8 1 3.85.55 3.95.1z" id="m"/><path fill="#020202" d="M62.5 110.6q-.15-1.1-.9-1.5-3-1.85-4.5-2.8-1.55-1-2.3-1.25-1.55-.65-2.8-.2-1 .4-1.1 2.05-.05.95.1 3.65 0 1.7-.15 4 .05 1.5.85 1.85 1.1.5 2.85-.1 1-.35 3-1.3 4-1.7 4.65-2.65.4-.7.3-1.75z" id="n"/><path fill="#444444" d="M57.6 109.2q-3.8-.8-3.9-.35-.1.4 3.8 1.2 3.8.8 3.9.35.1-.4-3.8-1.2z" id="o"/><path fill="#444444" d="M57.5 111.85q-3.85.55-3.85.95.1.45 3.95-.1t3.85-1q-.05-.2-1.2-.15-1.15.05-2.75.3z" id="p"/><path fill="#020202" d="M37.65 62.6q0-.9-.45-1.4-.5-.55-1.5-.55-1.9 0-1.9 1.95 0 .8.55 1.3.55.45 1.35.45.85 0 1.35-.45.6-.5.6-1.3z" id="q"/><path fill="#444444" d="M63.5 117.25q-.65 0-1.15.5-.45.45-.45 1.1 0 .7.45 1.15.5.45 1.15.45.65 0 1.1-.45.45-.5.45-1.15 0-.65-.45-1.1-.45-.5-1.1-.5z" id="r"/><path fill="#444444" d="M63.5 122.75q-.65 0-1.15.45-.45.5-.45 1.15 0 .65.45 1.1.5.45 1.15.45.65 0 1.1-.45.45-.45.45-1.1 0-.65-.45-1.15-.45-.45-1.1-.45z" id="s"/><g id="a"><path fill="#020202" d="M63 72v-.35Q63 59 45.4 55.7q-.15 0-.35-.05 2.3 1.55 4.6 4.4 1.5 1.85 2.4 3.4L48.4 66.2l4.3 2.85L51.45 72H63M21.75 60.05q2.2-2.75 4.5-4.25Q9 59.15 9 71.65V72h10.95l-1.2-2.95 4.3-2.85-3.65-2.75q.9-1.55 2.35-3.4z"/><path fill="#FFFFFF" d="M29.8 56.4l-1.25 1.4q-1.25 1.9-1.3 4.3-.1 3.2 1.5 9.9h13.9q1.65-6.7 1.55-9.9-.05-2.4-1.3-4.3l-1.25-1.4-5.95-1.15-5.9 1.15z"/><path fill="#444444" d="M39.1 54.35q-2.35-.15-3.4-.1-1-.05-3.4.1-2.9.15-4.5.5-.75.4-1.55.95-2.3 1.5-4.5 4.25-1.45 1.85-2.35 3.4l3.65 2.75-4.3 2.85 1.2 2.95h8.8q-1.6-6.7-1.5-9.9.05-2.4 1.3-4.3l1.25-1.4 5.9-1.15 5.95 1.15 1.25 1.4q1.25 1.9 1.3 4.3.1 3.2-1.55 9.9h8.8l1.25-2.95-4.3-2.85 3.65-2.75q-.9-1.55-2.4-3.4-2.3-2.85-4.6-4.4-.7-.5-1.45-.8-1.55-.35-4.5-.5z"/></g></defs><use xlink:href="#a"/><use xlink:href="#b"/><use xlink:href="#c" transform="matrix(.43608 0 0 .43584 8.05 .8)"/><use xlink:href="#d" transform="matrix(.43608 0 0 .43584 8.05 .8)"/><use xlink:href="#e" transform="matrix(.4362 0 0 .43594 8.05 1.15)"/><use xlink:href="#f" transform="matrix(.4362 0 0 .43594 8.05 1.15)"/><use xlink:href="#g" transform="matrix(.4362 0 0 .43594 8.05 1.15)"/><use xlink:href="#h" transform="matrix(.4362 0 0 .43594 8.05 1.15)"/><use xlink:href="#i" transform="matrix(.4362 0 0 .43594 8.05 1.15)"/><use xlink:href="#j"/><use xlink:href="#k" transform="matrix(.56247 0 0 .56247 0 .1)"/><use xlink:href="#l" transform="matrix(.56247 0 0 .56247 0 .1)"/><use xlink:href="#m" transform="matrix(.56247 0 0 .56247 0 .1)"/><use xlink:href="#n" transform="matrix(.56247 0 0 .56247 0 .1)"/><use xlink:href="#o" transform="matrix(.56247 0 0 .56247 0 .1)"/><use xlink:href="#p" transform="matrix(.56247 0 0 .56247 0 .1)"/><use xlink:href="#q"/><use xlink:href="#r" transform="scale(.5625)"/><use xlink:href="#s" transform="scale(.5625)"/></svg>