<svg xmlns="http://www.w3.org/2000/svg" xmlns:xlink="http://www.w3.org/1999/xlink" preserveAspectRatio="none" viewBox="0 0 72 72"><defs><path fill="#F1A336" d="M127.6 42.3q.8-4.95-.05-8.75-.85-4.05-4.6-6.45-3.65-2.4-8.15-2.05-10 .85-19.15 11.2-11.85 13.5-42.2 54.6Q26.7 127.1 13.4 146.6q-6.8 9.85-8.95 13.95-4.1 7.8-4.45 14.8-.4 8.2 5.35 11.65 5.8 3.5 14.35-.05 6.2-3 13.05-10.1 4.45-4.7 10.45-12.6 19.7-26.75 41.15-56.35 30.05-41.6 40.2-56.9 2.25-3.4 3.05-8.7z" id="a"/><path fill="#FBC21A" d="M35.95 123.05q-1.8 1.15-2.5 7.25-.8 6.85 1.45 11.85 1.3 2.85 3.55 10.55 1.35 4.8 2.45 4.05 1.75-1.15 2.45-7.3.8-6.9-1.45-11.9-1.3-2.9-3.5-10.5-1.4-4.7-2.45-4z" id="b"/><path fill="#FBC21A" d="M49.55 108.8q-.8 6.85 1.45 11.85 1.3 2.9 3.5 10.5 1.4 4.75 2.45 4.05 1.8-1.2 2.5-7.3.75-6.85-1.5-11.85-1.25-2.8-3.5-10.5-1.35-4.8-2.45-4.1-1.75 1.2-2.45 7.35z" id="c"/><path fill="#FBC21A" d="M70.55 83.95q-1.4-4.75-2.45-4.05-1.8 1.2-2.5 7.3-.75 6.9 1.5 11.9 1.3 2.9 3.5 10.55 1.35 4.75 2.45 4.05 1.8-1.2 2.5-7.35.8-6.85-1.5-11.85-1.3-2.9-3.5-10.55z" id="d"/><path fill="#FBC21A" d="M84.2 58.35q-1.8 1.2-2.5 7.3-.8 6.9 1.45 11.9 1.3 2.85 3.55 10.5 1.35 4.8 2.45 4.05 1.75-1.15 2.45-7.3.8-6.85-1.45-11.85-1.3-2.9-3.5-10.55-1.4-4.75-2.45-4.05z" id="e"/><path fill="#FBC21A" d="M102.75 40.85q-1.4-4.8-2.5-4.1-1.75 1.2-2.45 7.35-.8 6.85 1.45 11.85 1.3 2.9 3.5 10.55 1.4 4.75 2.45 4.05 1.8-1.2 2.5-7.3.8-6.9-1.45-11.9-1.3-2.85-3.5-10.5z" id="f"/><path fill="#FBC21A" d="M35.95 123.05q-1.8 1.15-2.5 7.25-.8 6.85 1.45 11.85 1.3 2.85 3.55 10.55 1.35 4.8 2.45 4.05 1.75-1.15 2.45-7.3.8-6.9-1.45-11.9-1.3-2.9-3.5-10.5-1.4-4.7-2.45-4z" id="g"/></defs><use xlink:href="#a" transform="rotate(9.999 88.688 88.719) scale(.43162)"/><use xlink:href="#b" transform="rotate(9.999 88.688 88.719) scale(.43162)"/><use xlink:href="#c" transform="rotate(9.999 88.688 88.719) scale(.43162)"/><use xlink:href="#d" transform="rotate(9.999 88.688 88.719) scale(.43162)"/><use xlink:href="#e" transform="rotate(9.999 88.688 88.719) scale(.43162)"/><use xlink:href="#f" transform="rotate(9.999 88.688 88.719) scale(.43162)"/><use xlink:href="#g" transform="rotate(9.999 39.044 44.679) scale(.43162)"/></svg>