<svg xmlns="http://www.w3.org/2000/svg" xmlns:xlink="http://www.w3.org/1999/xlink" preserveAspectRatio="none" viewBox="0 0 72 72"><defs><path id="a" stroke="#2F2F2F" stroke-width="3" stroke-linejoin="round" stroke-linecap="round" fill="none" d="M3.5 3.5h65v65h-65v-65z"/><path id="c" stroke="#E75625" stroke-width=".1" stroke-linejoin="round" stroke-linecap="round" fill="none" d="M10.879 54.486l.045.092"/><g id="b"><path fill="#FFA000" d="M8.65 56.3l-.05-.1v.1h.05z"/><path fill="#EF6C00" d="M43.85 38.05q.05-.1.1-.15h.25q.2.05.35.3 4.05 8.25 12.1 14 2.95 2.15 5.5 3.4.65.3 1.35.55l.4-2.7v-.1l.5-3.4.5.2q.6.3 1.05.65.75.55 1.05.9V37.8q-.45-2.45-1.45-4.85Q57.1 17.7 40.65 15.9H40.5q-2.1-.2-4.3-.2-2.2 0-4.25.2h-.25Q15.4 17.7 6.9 32.95q-.05.1-.15.25-1.4 3.6-1.7 7.2v11.3q.4-.35 1.1-.85.45-.4 1.1-.7l.45-.2.55 3.7v.2l.35 2.35.05.1q.65-.15 1.35-.25 2.1-.45 4.2-1l12.35-4.9 4.8-2.7q.4-.3.8-.55 6.7-4.15 11.7-8.85z"/></g></defs><use xlink:href="#a"/><g transform="translate(3 3) scale(.91612)"><use xlink:href="#b"/><use xlink:href="#c" transform="matrix(1.09155 0 0 1.09155 -3.25 -3.25)"/></g></svg>