<svg xmlns="http://www.w3.org/2000/svg" xmlns:xlink="http://www.w3.org/1999/xlink" preserveAspectRatio="none" viewBox="0 0 72 72"><defs><g id="a"><path fill="#CFD8DC" d="M52.8 52.85q.15.4.5.6 4.1 2.45 5.45 7.4v-1l1-.1q-.3-4.95-5.45-8-.35-.2-.75-.15-.4.15-.6.5-.2.35-.15.75m-32.4-34.4q.05-.4-.15-.75-3.05-5.15-8-5.45l-.1 1h-1q4.95 1.35 7.4 5.45.2.35.6.5.4.05.75-.15t.5-.6z"/><path fill="#ECEFF1" d="M57.65 42.45q-6.4 0-11.45-4.75-.6-.4-1.1-.95-1.8-1.7-3.6-3.45-.45-.45-.95-.9l-.35-.35q-.1-.15-.25-.25-.15-.2-.35-.35-.45-.5-.9-.95-1.75-1.8-3.45-3.6-.55-.5-.95-1.1-4.75-5.05-4.75-11.45v-.75q-.05-3.55-2.8-6.3-2.5-2.6-6.2-2.75-3.6-.05-6.1 2.35-.1.1-.15.2l-.2.2q-.05.05-.05.1l-.1.1q-1.35 1.8-1.7 4.75 4.95.3 8 5.45.2.35.15.75-.15.4-.5.6-.35.2-.75.15-.4-.15-.6-.5-2.45-4.1-7.4-5.45-3.05.05-4.2 1.2-2.45 2.45-2.4 6.1.2 3.7 2.9 6.2 2.6 2.7 6.15 2.75h.75q7.15 0 12.6 5.7v-.05q1.55 1.55 3.2 3.15.15.15.3.25.7.7 1.5 1.45 0 .05.05.05.3.3.6.65l.85.85q.1.15.25.3 1.6 1.65 3.15 3.2h-.05q5.7 5.45 5.7 12.6v.75q.05 3.55 2.75 6.15 2.5 2.7 6.2 2.9 3.65.05 6.1-2.4 1.15-1.15 1.2-4.2-1.35-4.95-5.45-7.4-.35-.2-.5-.6-.05-.4.15-.75t.6-.5q.4-.05.75.15 5.15 3.05 5.45 8 2.95-.35 4.75-1.7l.1-.1q.05 0 .1-.05l.2-.2q.1-.05.2-.15 2.4-2.5 2.35-6.1-.15-3.7-2.75-6.2-2.75-2.75-6.3-2.8h-.75z"/></g></defs><use xlink:href="#a"/></svg>