<svg xmlns="http://www.w3.org/2000/svg" xmlns:xlink="http://www.w3.org/1999/xlink" preserveAspectRatio="none" viewBox="0 0 72 72"><defs><path fill="#ECEFF1" d="M61.75 38.05q10.75-19.95.6-30.75-3.05-3.25-8.25-3.5-5.7.35-11.25 3.05Q39.55 8.1 36 8.1q-3.5 0-6.8-1.25Q23.7 4.15 18 3.8q-5.25.25-8.25 3.5-10.2 10.8.55 30.75-3.75 17.4.8 25.65 4.5 8.2 8.7 2.4L32.1 46q1.95-2.45 3.75-2.45h.35q1.85 0 3.75 2.45l12.3 20.1q4.2 5.8 8.7-2.4 4.55-8.25.8-25.65m-34.7-27.7q4.5 1.4 9 1.4t9-1.4q-4.5 1.4-9 1.4t-9-1.4z" id="a"/><path id="b" stroke="#CFD8DC" stroke-width="2" stroke-linejoin="round" stroke-linecap="round" fill="none" d="M27.05 10.35q4.5 1.4 9 1.4t9-1.4"/></defs><g><use xlink:href="#a"/><use xlink:href="#b"/></g></svg>