<svg xmlns="http://www.w3.org/2000/svg" xmlns:xlink="http://www.w3.org/1999/xlink" preserveAspectRatio="none" viewBox="0 0 72 72"><defs><path fill="#C48E6A" d="M106.9 66.05h-3.6v20.3q4.75 0 7.85-2.4 3.6-2.8 3.6-8.05 0-5.3-3.9-8.1l-3.95-1.75z" id="a"/><path fill="#C48E6A" d="M24.7 66.05h-3.65l-3.9 1.75q-3.95 2.8-3.95 8.1 0 5.25 3.6 8.05 3.1 2.4 7.9 2.4v-20.3z" id="b"/><path fill="#E0BB95" d="M106.75 73.8q0-30.45-8.65-45.45Q87.85 10.6 64 10.6q-23.9 0-34.15 17.75-8.65 15-8.65 45.45 0 25.9 14.6 38.45Q47.05 122 64 122q16.8 0 28.1-9.65 14.65-12.55 14.65-38.55z" id="c"/><path fill="#444444" d="M40.15 72.35q-1.7 2-1.7 4.85 0 2.9 1.7 4.9 1.65 2 4.05 2 2.35 0 4.05-2 1.65-2.05 1.65-4.9 0-2.85-1.65-4.85-1.7-2.05-4.05-2.05-2.4 0-4.05 2.05z" id="d"/><path fill="#444444" d="M87.85 72.35q-1.7-2.05-4.05-2.05-2.4 0-4.05 2.05-1.7 2-1.7 4.85 0 2.85 1.7 4.9 1.65 2 4.05 2 2.35 0 4.05-2 1.65-2 1.65-4.9 0-2.85-1.65-4.85z" id="e"/><path fill="#513F35" d="M63.95 108.75q4.9 0 9-2.15 3.2-1.7 4.5-3.7.7-1.05.35-1.7-.35-.65-1.45-.65H51.6q-1.1 0-1.45.65-.35.65.35 1.7 1.3 2 4.5 3.7 4.1 2.15 8.95 2.15z" id="f"/><path fill="#C48E6A" d="M58 90q-.65-.15-.9.3-.3.4-.05.9.7 1.15 2.4 2.2 2.2 1.35 4.55 1.35 2.35 0 4.5-1.35 1.7-1.05 2.4-2.2.25-.5 0-.9-.3-.45-.95-.3-3.15.9-5.95.9-2.85 0-6-.9z" id="g"/><path fill="#BFA055" d="M43 25.6h.2q.2.05.35.25 3.55 7.3 10.65 12.35 2.6 1.9 4.85 3l1.2.5.35-2.4v-.1l.45-3 .45.2q.5.25.9.55.65.5.95.8V25.5q-.397-2.167-1.3-4.3-7.457-13.437-21.95-15-.049-.009-.1-.05-.036.029-.1 0Q38.087 6 36.15 6q-1.934-.007-3.75.2h-.1q-.067-.006-.15 0Q17.782 7.738 10.3 21.15q-.068.146-.15.25-1.212 3.215-1.45 6.4v9.95q.35-.3.95-.75.4-.35.95-.6l.4-.2.5 3.3v.15l.3 2.15h.05l1.2-.2q1.85-.4 3.7-.9l10.9-4.3L31.9 34q.35-.25.7-.45 5.9-3.7 10.3-7.85l.1-.1z" id="h"/></defs><use xlink:href="#a" transform="matrix(.56247 0 0 .56247 0 -1.7)"/><use xlink:href="#b" transform="matrix(.56247 0 0 .56247 0 -1.7)"/><use xlink:href="#c" transform="translate(0 -.3) scale(.5625)"/><use xlink:href="#d" transform="translate(0 -.3) scale(.5625)"/><use xlink:href="#e" transform="translate(0 -.3) scale(.5625)"/><use xlink:href="#f" transform="translate(0 -.3) scale(.5625)"/><use xlink:href="#g" transform="translate(0 -.3) scale(.5625)"/><use xlink:href="#h" transform="translate(0 -.3)"/></svg>