<svg xmlns="http://www.w3.org/2000/svg" xmlns:xlink="http://www.w3.org/1999/xlink" preserveAspectRatio="none" viewBox="0 0 72 72"><defs><path fill="#F46485" d="M8.95 69.4q6.9-.75 9.85-6.45-8.3-2.45-13.7-.9-5.45 1.55-9.65 1.3 4.5 7.05 13.5 6.05z" id="c"/><path id="b" stroke="#F48F9D" stroke-width="1.5" stroke-linejoin="round" stroke-linecap="round" fill="none" d="M49.55 19q2.35-.55 4.05-.3l1.05-2.9M40.6 24.2q.15-9.4 6.6-12.55m-27 35.25q3.5-.7 4.8-3.2 4.05 2.25 7.15.85 2.55-1.15 4.35-3.2.9 1.75 3.3 1.45 2.3-.35 3.4-2.85 2.9-.7 7.95 2.45 1.1-3.65 5.6-4.45-.75-1.55 0-3.55M16.4 43q.95-1.9 2.35-3.35 3.1-2.9 7.45-3.25 3.15-.2 3.7 1.45 6.55-3.9 9.35-5.15 4.25-1.95 9.35-.25.9-3.9 5.25-4.7 6.7-1.1 10.3 3.6Q66.5 34.6 66 40.3q-.15 1.7.95 2.95m-10.2-5.3q2.4.3 4.4 4.1 1.2 2.25 1.1 6.4M53.6 18.7q4.7.65 4.85 7.1M13.6 15.5q5.4-3.75 9.55 1.5 4.15-7.5 12.4-5.05m-28.5 29.2q1.75 4.55 6.2 3.7M8.4 28.65q-.2-6.15 3-12m6.05 20.3q-4.8-4.2-1.7-17.65m11.6-1.5q-3.4 10.9-1 16.35m9.15-20.4q-3.25 8.1-2.85 13.75m-6.4 23.05q3.4-1.1 6.25-.35 1.85-1.1 4-2.25 2.5.35 4.1 1.3"/><g id="a"><path fill="#D65770" d="M29.75 55.55l-.4.2q1.774 2.014 6.45 3.5 4.5 7.05 13.5 6.05 6.908-.747 9.8-6.5 1.018-1.93 1.55-4.45-3.25-.25-4.95-1.75-5.6-.3-10.85-2.1-8.45 4.5-15.1 5.05z"/><path fill="#FFB0B0" d="M55 11.4q-4.55-4.45-10.95-2.75-7.3-4-17.7 0-3.85-.5-5.55 1.3-5.35.2-10.7 4.85-2.9.9-4.25 4.75-1.75 1.1-2.75 5.55-1.6 1.5-1.65 5.2Q-.2 38.25 3.1 41.85q1.7 4.95 7.8 5.2 1.4 1.9 3.75 2 .55 3.05 2.6 4.95 5.9 4.5 12.1 1.75l.4-.2q6.65-.55 15.1-5.05 5.25 1.8 10.85 2.1 1.7 1.5 4.95 1.75 3.5 1.6 5.1-2.2 1.85-1.7 2.9-3.7 1.5-3.1 1.1-6.85 2.85-7.2 0-10.75.65-2.65-1.3-3.9Q67.75 20.8 62 18q-1.8-4.65-7-6.6m-1.4 7.3l1.05-2.9-1.05 2.9q4.7.65 4.85 7.1-.15-6.45-4.85-7.1-1.7-.25-4.05.3 2.35-.55 4.05-.3m-13 5.5q.15-9.4 6.6-12.55-6.45 3.15-6.6 12.55m16.15 13.75q-.75-1.55 0-3.55-.75 2 0 3.55 2.4.3 4.4 4.1 1.2 2.25 1.1 6.4.1-4.15-1.1-6.4-2-3.8-4.4-4.1-4.5.8-5.6 4.45-5.05-3.15-7.95-2.45-1.1 2.5-3.4 2.85-2.4.3-3.3-1.45-1.8 2.05-4.35 3.2-3.1 1.4-7.15-.85-1.3 2.5-4.8 3.2 3.5-.7 4.8-3.2 4.05 2.25 7.15.85 2.55-1.15 4.35-3.2.9 1.75 3.3 1.45 2.3-.35 3.4-2.85 2.9-.7 7.95 2.45 1.1-3.65 5.6-4.45m-8.15-5.5q.9-3.9 5.25-4.7 6.7-1.1 10.3 3.6Q66.5 34.6 66 40.3q-.15 1.7.95 2.95Q65.85 42 66 40.3q.5-5.7-1.85-8.95-3.6-4.7-10.3-3.6-4.35.8-5.25 4.7-5.1-1.7-9.35.25-2.8 1.25-9.35 5.15-.55-1.65-3.7-1.45-4.35.35-7.45 3.25-1.4 1.45-2.35 3.35.95-1.9 2.35-3.35 3.1-2.9 7.45-3.25 3.15-.2 3.7 1.45 6.55-3.9 9.35-5.15 4.25-1.95 9.35-.25M23.15 17q4.15-7.5 12.4-5.05Q27.3 9.5 23.15 17 19 11.75 13.6 15.5q5.4-3.75 9.55 1.5M7.05 41.15q1.75 4.55 6.2 3.7-4.45.85-6.2-3.7m1.35-12.5q-.2-6.15 3-12-3.2 5.85-3 12m9.05 8.3q-4.8-4.2-1.7-17.65-3.1 13.45 1.7 17.65m9.9-19.15q-3.4 10.9-1 16.35-2.4-5.45 1-16.35m8.15-4.05q-3.25 8.1-2.85 13.75-.4-5.65 2.85-13.75m-9.25 36.8q3.4-1.1 6.25-.35 1.85-1.1 4-2.25 2.5.35 4.1 1.3-1.6-.95-4.1-1.3-2.15 1.15-4 2.25-2.85-.75-6.25.35z"/></g></defs><g><use xlink:href="#a"/><use xlink:href="#b"/></g><use xlink:href="#c" transform="translate(40.35 -4.1)"/></svg>