<svg xmlns="http://www.w3.org/2000/svg" xmlns:xlink="http://www.w3.org/1999/xlink" preserveAspectRatio="none" viewBox="0 0 72 72"><defs><path fill="#B39DDB" d="M72 6.75Q72 4 70 2t-4.75-2H6.75Q3.95 0 2 2 0 4 0 6.75v58.5q0 2.8 2 4.8Q3.95 72 6.75 72h58.5Q68 72 70 70.05q2-2 2-4.8V6.75z" id="a"/><path fill="#7E57C2" d="M72 6.75q0-2.8-2-4.75L1.95 70.05Q3.9 72 6.75 72h58.5Q68 72 70 70.05q2-2 2-4.8V6.75z" id="b"/><path fill="#9575CD" d="M63 16.25q0-2.8-1.95-4.75-2-2-4.8-2h-40.6q-2.75 0-4.75 2-2 1.95-2 4.75V56.8q0 2.8 2 4.8 2 1.95 4.75 1.95h40.6q2.8 0 4.8-1.95 1.95-2 1.95-4.8V16.25z" id="c"/><path id="d" stroke="#FFFFFF" stroke-width="5" stroke-linejoin="miter" stroke-linecap="butt" stroke-miterlimit="10" fill="none" d="M36.059 15.725q8.374 0 14.336 5.962 5.916 5.916 5.916 14.336 0 8.374-5.916 14.336-5.962 5.916-14.336 5.916-8.42 0-14.336-5.916-5.962-5.962-5.962-14.336 0-8.42 5.962-14.336 5.916-5.962 14.336-5.962z"/><path id="e" stroke="#FFFFFF" stroke-width="5" stroke-linejoin="round" stroke-linecap="round" fill="none" d="M36.063 15.765v40.55"/><path id="f" stroke="#FFFFFF" stroke-width="5" stroke-linejoin="round" stroke-linecap="round" fill="none" d="M36.022 36.022l14.332 14.35"/><path id="g" stroke="#FFFFFF" stroke-width="5" stroke-linejoin="round" stroke-linecap="round" fill="none" d="M21.672 50.372l14.35-14.35"/></defs><use xlink:href="#a"/><use xlink:href="#b"/><use xlink:href="#c"/><use xlink:href="#d" transform="matrix(1 0 0 1 .014 .024)"/><use xlink:href="#e" transform="matrix(1 0 0 1 .019 .019)"/><g transform="matrix(.34956 0 0 .34956 13.65 13.65)"><use xlink:href="#f" transform="matrix(2.8607 0 0 2.8607 -39 -39)"/></g><g transform="matrix(.34956 0 0 .34956 13.65 13.65)"><use xlink:href="#g" transform="matrix(2.8607 0 0 2.8607 -39 -39)"/></g></svg>