<svg xmlns="http://www.w3.org/2000/svg" xmlns:xlink="http://www.w3.org/1999/xlink" preserveAspectRatio="none" viewBox="0 0 72 72"><defs><path fill="#B39DDB" d="M72 6.75Q72 4 70 2t-4.75-2H6.75Q3.95 0 2 2 0 4 0 6.75v58.5q0 2.8 2 4.8Q3.95 72 6.75 72h58.5Q68 72 70 70.05q2-2 2-4.8V6.75z" id="a"/><path fill="#7E57C2" d="M72 6.75q0-2.8-2-4.75L1.95 70.05Q3.9 72 6.75 72h58.5Q68 72 70 70.05q2-2 2-4.8V6.75z" id="b"/><path fill="#9575CD" d="M63 16.25q0-2.8-1.95-4.75-2-2-4.8-2h-40.6q-2.75 0-4.75 2-2 1.95-2 4.75V56.8q0 2.8 2 4.8 2 1.95 4.75 1.95h40.6q2.8 0 4.8-1.95 1.95-2 1.95-4.8V16.25z" id="c"/><path fill="#FFFFFF" d="M60.3 31.55q-6.7-15.75-17.3-21-5.75-2.8-12-2.8-11 0-18.85 7.85Q4.3 23.45 4.3 34.45q0 11.05 7.85 18.85Q20 61.15 31 61.15q3.55 0 7-.9l-4.5-16.4q-1.35.3-2.6.3-4.05 0-6.85-2.85-2.85-2.85-2.85-6.85 0-4.05 2.85-6.9 2.85-2.8 6.85-2.8 2.55 0 4.4 1 4.3 2.2 8.25 10.4Q50.1 49.8 53.2 76q1.7 14.7 2.15 31.75.25 8.55.15 14.25l17 .45q.1-6.35-.15-15.2-.45-17.5-2.15-33-3.15-26.9-9.9-42.7z" id="d"/><path fill="#FFFFFF" d="M97.05 7.7q-6.15 0-11.9 2.8-10.6 5.25-17.35 21-6.75 15.8-9.9 42.7-1.8 15.45-2.3 33-.2 8.85-.1 15.25l17.15-.45q-.1-5.75.1-14.25.45-16.95 2.2-31.65 3.1-26.4 9.7-40.05 3.95-8.3 8.3-10.45 1.85-1 4.3-1 4.05 0 6.9 2.85 2.8 2.85 2.8 6.85 0 4.05-2.85 6.9-2.85 2.8-6.85 2.8-1.3 0-2.6-.3l-4.5 16.4q3.05.9 7 .9 11.05 0 18.85-7.8 7.8-7.75 7.8-18.8 0-11-7.85-18.85-7.85-7.85-18.9-7.85z" id="e"/></defs><use xlink:href="#a"/><use xlink:href="#b"/><use xlink:href="#c"/><g transform="matrix(.33975 0 0 .33986 14.25 13.9)"><use xlink:href="#d"/></g><g transform="matrix(.33975 0 0 .33986 14.25 13.9)"><use xlink:href="#e"/></g></svg>