<svg xmlns="http://www.w3.org/2000/svg" xmlns:xlink="http://www.w3.org/1999/xlink" preserveAspectRatio="none" viewBox="0 0 72 72"><defs><path fill="#B39DDB" d="M72 6.75Q72 4 70 2t-4.75-2H6.75Q3.95 0 2 2 0 4 0 6.75v58.5q0 2.8 2 4.8Q3.95 72 6.75 72h58.5Q68 72 70 70.05q2-2 2-4.8V6.75z" id="a"/><path fill="#7E57C2" d="M72 6.75q0-2.8-2-4.75L1.95 70.05Q3.9 72 6.75 72h58.5Q68 72 70 70.05q2-2 2-4.8V6.75z" id="b"/><path fill="#9575CD" d="M63 16.25q0-2.8-1.95-4.75-2-2-4.8-2h-40.6q-2.75 0-4.75 2-2 1.95-2 4.75V56.8q0 2.8 2 4.8 2 1.95 4.75 1.95h40.6q2.8 0 4.8-1.95 1.95-2 1.95-4.8V16.25z" id="c"/><path fill="#FFFFFF" d="M83.15 24.1q6.2 5.15 6.2 15.05 0 5.15-1.25 10.45-1.2 5.35-4.1 12.7-4.1 10.5-5.55 22.3-1.1 8.9-.45 15.35 1.15 11.35 8.75 18.7T104.9 126q8.3 0 15.05-4.55l-9.9-14.75q-2.35 1.6-5.15 1.6-3.95 0-6.55-3.25-2.3-2.8-2.7-6.85-.45-4.75.45-11.7 1.15-9.35 4.45-17.75 3.5-8.9 5-15.85 1.55-6.9 1.55-13.75 0-16.4-10.4-26.75Q86.3 2 69.9 2 54.55 2 43.65 12.9q-10.9 10.85-10.9 26.15 0 6.15 2.05 13.5-11.1.1-18.95 7.95Q8 68.4 8 79.5q0 11.15 7.9 19.05t19.05 7.9q11.15 0 19-7.9 7.9-7.9 7.9-19.05 0-11.85-6.7-23.8-2.9-5.1-4.05-11.25-.6-5.2-.6-5.3 0-8 5.7-13.7 5.7-5.7 13.7-5.7 8.05 0 13.25 4.35M28.45 73q2.7-2.7 6.5-2.7T41.4 73q2.7 2.7 2.7 6.5.05 3.8-2.65 6.5-2.7 2.7-6.5 2.7t-6.5-2.7q-2.7-2.7-2.7-6.5t2.7-6.5z" id="d"/></defs><use xlink:href="#a"/><use xlink:href="#b"/><use xlink:href="#c"/><g transform="matrix(.32738 0 0 .32742 15.1 15.05)"><use xlink:href="#d"/></g></svg>