<svg xmlns="http://www.w3.org/2000/svg" xmlns:xlink="http://www.w3.org/1999/xlink" preserveAspectRatio="none" viewBox="0 0 72 72"><defs><path fill="#B39DDB" d="M72 6.75Q72 4 70 2t-4.75-2H6.75Q3.95 0 2 2 0 4 0 6.75v58.5q0 2.8 2 4.8Q3.95 72 6.75 72h58.5Q68 72 70 70.05q2-2 2-4.8V6.75z" id="a"/><path fill="#7E57C2" d="M72 6.75q0-2.8-2-4.75L1.95 70.05Q3.9 72 6.75 72h58.5Q68 72 70 70.05q2-2 2-4.8V6.75z" id="b"/><path fill="#9575CD" d="M63 16.25q0-2.8-1.95-4.75-2-2-4.8-2h-40.6q-2.75 0-4.75 2-2 1.95-2 4.75V56.8q0 2.8 2 4.8 2 1.95 4.75 1.95h40.6q2.8 0 4.8-1.95 1.95-2 1.95-4.8V16.25z" id="c"/><path fill="#FFFFFF" d="M94.85 24.25q-3.3 0-6.7.95-.9-9.25-7.8-15.55Q73.35 3.3 64 3.3q-8.7 0-15.45 5.55Q41.8 3.3 33.15 3.3 23.1 3.3 16 10.45q-7.15 7.1-7.15 17.15v51.45H26.6V27.6q0-2.7 1.9-4.6 1.9-1.95 4.65-1.95 2.7 0 4.65 1.95 1.9 1.9 1.9 4.6v51.45h17.75V27.6q0-2.7 1.9-4.6 1.9-1.95 4.65-1.95 2.7 0 4.65 1.95 1.9 1.9 1.9 4.6v57.5q0 7.65.55 11.85Q60.5 103 45.75 107.9l5.6 16.85q15.25-5.05 26.6-11.35l1.2 1.35q9.35 9.35 28.6 9.35v-17.75q-10.05 0-14.65-3.05 26.05-21.05 26.05-54.75 0-10-7.1-17.15-7.15-7.15-17.2-7.15m-4.65 19.7Q92.1 42 94.8 42q2.75 0 4.65 1.95 1.95 1.9 1.95 4.65 0 9.65-2.45 17.25-3.15 9.85-10.7 17.9v-35.2q.05-2.7 1.95-4.6z" id="d"/></defs><use xlink:href="#a"/><use xlink:href="#b"/><use xlink:href="#c"/><g transform="matrix(.3341 0 0 .33429 14.65 14.6)"><use xlink:href="#d"/></g></svg>