<svg xmlns="http://www.w3.org/2000/svg" xmlns:xlink="http://www.w3.org/1999/xlink" preserveAspectRatio="none" viewBox="0 0 72 72"><defs><path fill="#B39DDB" d="M72 6.75Q72 4 70 2t-4.75-2H6.75Q3.95 0 2 2 0 4 0 6.75v58.5q0 2.8 2 4.8Q3.95 72 6.75 72h58.5Q68 72 70 70.05q2-2 2-4.8V6.75z" id="a"/><path fill="#7E57C2" d="M72 6.75q0-2.8-2-4.75L1.95 70.05Q3.9 72 6.75 72h58.5Q68 72 70 70.05q2-2 2-4.8V6.75z" id="b"/><path fill="#9575CD" d="M63 16.25q0-2.8-1.95-4.75-2-2-4.8-2h-40.6q-2.75 0-4.75 2-2 1.95-2 4.75V56.8q0 2.8 2 4.8 2 1.95 4.75 1.95h40.6q2.8 0 4.8-1.95 1.95-2 1.95-4.8V16.25z" id="c"/><path fill="#FFFFFF" d="M114.15 77.4H99.8q8.25-11.6 8.25-25.55 0-18.2-12.9-31.15Q82.25 7.8 64 7.8T32.8 20.7Q19.9 33.6 19.9 51.85q0 14.05 8.2 25.55H13.8v17.75h41.65v-18.4q-7.9-2.7-12.8-9.55-5-6.9-5-15.35 0-10.9 7.7-18.6Q53.1 25.5 64 25.5q10.85 0 18.6 7.75 7.7 7.7 7.7 18.6 0 8.45-4.95 15.35-4.95 6.85-12.85 9.55v18.4h41.65V77.4z" id="d"/><path fill="#FFFFFF" d="M13.8 102.5v17.75h100.35V102.5H13.8z" id="e"/></defs><use xlink:href="#a"/><use xlink:href="#b"/><use xlink:href="#c"/><g transform="matrix(.36122 0 0 .36105 12.9 12.9)"><use xlink:href="#d"/></g><g transform="matrix(.36122 0 0 .36105 12.9 12.9)"><use xlink:href="#e"/></g></svg>