<svg xmlns="http://www.w3.org/2000/svg" xmlns:xlink="http://www.w3.org/1999/xlink" preserveAspectRatio="none" viewBox="0 0 72 72"><defs><path fill="#B39DDB" d="M72 6.75Q72 4 70 2t-4.75-2H6.75Q3.95 0 2 2 0 4 0 6.75v58.5q0 2.8 2 4.8Q3.95 72 6.75 72h58.5Q68 72 70 70.05q2-2 2-4.8V6.75z" id="a"/><path fill="#7E57C2" d="M72 6.75q0-2.8-2-4.75L1.95 70.05Q3.9 72 6.75 72h58.5Q68 72 70 70.05q2-2 2-4.8V6.75z" id="b"/><path fill="#9575CD" d="M63 16.25q0-2.8-1.95-4.75-2-2-4.8-2h-40.6q-2.75 0-4.75 2-2 1.95-2 4.75V56.8q0 2.8 2 4.8 2 1.95 4.75 1.95h40.6q2.8 0 4.8-1.95 1.95-2 1.95-4.8V16.25z" id="c"/><path fill="#FFFFFF" d="M87.65 86.15Q85.5 84 85.5 80.95V30.4q0-10.35-7.35-17.7t-17.7-7.35q-4.55 0-8.75 1.6-4.15 1.55-7.45 4.35-7.05-5.95-16.2-5.95-10.35 0-17.7 7.35T3 30.4v54.05h17.75V30.4q0-3.05 2.15-5.2 2.1-2.15 5.15-2.15 3.05 0 5.2 2.15 2.15 2.15 2.15 5.2v54.05h17.75V30.4q0-3.05 2.15-5.2 2.15-2.15 5.15-2.15 3.05 0 5.2 2.15 2.15 2.15 2.15 5.2v50.55q0 10.4 7.35 17.75t17.7 7.35h6.6v16.65L125 97.15 99.4 71.6v16.7h-6.55q-3.05 0-5.2-2.15z" id="d"/></defs><use xlink:href="#a"/><use xlink:href="#b"/><use xlink:href="#c"/><g transform="matrix(.3328 0 0 .33276 14.7 14.7)"><use xlink:href="#d"/></g></svg>