<svg xmlns="http://www.w3.org/2000/svg" xmlns:xlink="http://www.w3.org/1999/xlink" preserveAspectRatio="none" viewBox="0 0 72 72"><defs><path fill="#B39DDB" d="M72 6.75Q72 4 70 2t-4.75-2H6.75Q3.95 0 2 2 0 4 0 6.75v58.5q0 2.8 2 4.8Q3.95 72 6.75 72h58.5Q68 72 70 70.05q2-2 2-4.8V6.75z" id="a"/><path fill="#7E57C2" d="M72 6.75q0-2.8-2-4.75L1.95 70.05Q3.9 72 6.75 72h58.5Q68 72 70 70.05q2-2 2-4.8V6.75z" id="b"/><path fill="#9575CD" d="M63 16.25q0-2.8-1.95-4.75-2-2-4.8-2h-40.6q-2.75 0-4.75 2-2 1.95-2 4.75V56.8q0 2.8 2 4.8 2 1.95 4.75 1.95h40.6q2.8 0 4.8-1.95 1.95-2 1.95-4.8V16.25z" id="c"/><path fill="#FFFFFF" d="M112.6 60.45q-8.6-8.6-20.75-8.6-6.65 0-12.75 3v-17q0-12.25-8.7-20.95-8.65-8.7-20.9-8.7-6.2 0-11.8 2.5-5.45 2.35-9.55 6.65-4.15-4.3-9.55-6.65-5.65-2.5-11.8-2.5v16.55q5.4 0 9.25 3.85 3.8 3.85 3.8 9.25V81.2H36.4V37.85q0-5.4 3.85-9.25 3.85-3.85 9.25-3.85t9.25 3.85q3.8 3.85 3.8 9.25V92.2q0 5.4-3.8 9.25-3.85 3.8-9.25 3.8v16.6q8.45 0 15.6-4.5 6.95-4.35 10.7-11.65 7.3 4.8 16.05 4.8 12.15 0 20.75-8.6t8.6-20.7q-.05-12.15-8.6-20.75M100.85 90.2q-3.7 3.75-9 3.75t-9-3.75q-3.75-3.7-3.75-9t3.75-9q3.7-3.75 9-3.75t9 3.75q3.75 3.7 3.75 9t-3.75 9z" id="d"/></defs><use xlink:href="#a"/><use xlink:href="#b"/><use xlink:href="#c"/><g transform="matrix(.35489 0 0 .35503 13.3 12.95)"><use xlink:href="#d"/></g></svg>