<svg xmlns="http://www.w3.org/2000/svg" xmlns:xlink="http://www.w3.org/1999/xlink" preserveAspectRatio="none" viewBox="0 0 72 72"><defs><path fill="#E53935" d="M47.2 5.05q-2.8.85-6.05 2.9-6.4 4.1-10 10.7-7.15 13.3-.95 33.7 5.05 16.45 3.6 28.4-.7 6-2.5 8.75-.6.85.05 1.65.45.55 1.15.55l.5-.1q6-2.4 10.7-9.25 9.35-13.65 3.6-36.1-5.3-20.7-2.75-31.7 1.25-5.5 3.65-6.9.5-.2.7-.75.2-.5 0-1t-.7-.75q-.45-.25-1-.1z" id="a"/><path fill="#E53935" d="M67.05 7.95q-6.4 4.1-10 10.7Q49.9 32 56.1 52.35q5.05 16.45 3.6 28.4-.75 6-2.5 8.75-.6.9.05 1.65.4.55 1.1.55l.5-.1q6-2.4 10.7-9.25 9.4-13.65 3.65-36.1-5.3-20.7-2.75-31.7 1.25-5.5 3.6-6.9.5-.2.75-.75.2-.5-.05-1-.2-.5-.7-.75-.45-.25-1-.1-2.75.85-6 2.9z" id="b"/><path fill="#E53935" d="M92.9 7.95q-6.4 4.1-10 10.7-7.15 13.3-.95 33.7 5.05 16.4 3.6 28.35-.7 6-2.5 8.8-.6.85.05 1.65.45.55 1.15.55l.5-.1q6-2.4 10.7-9.25 9.4-13.65 3.65-36.1-5.3-20.7-2.8-31.7 1.3-5.5 3.65-6.9.5-.2.7-.75.2-.5 0-1t-.7-.75q-.45-.25-1-.1-2.8.85-6.05 2.9z" id="c"/><path fill="#E53935" d="M114.4 76.3q0 12.5-14.75 21.35-14.8 8.85-35.65 8.85-20.9 0-35.65-8.85-14.8-8.85-14.8-21.35 0-5.35 3.45-10.9 1.85-2.95.1-4.3-1.7-1.4-3.95.45Q7.1 66.45 3.9 72.2.6 78.15.6 84.5q0 16 18.55 27.25 18.55 11.3 44.85 11.3 26.25 0 44.8-11.3 18.55-11.25 18.55-27.25 0-6.35-3.3-12.3-3.2-5.75-9.25-10.65-2.2-1.85-3.95-.45-1.75 1.35.1 4.3 3.45 5.55 3.45 10.9z" id="d"/></defs><use xlink:href="#a" transform="scale(.5625)"/><use xlink:href="#b" transform="scale(.5625)"/><use xlink:href="#c" transform="scale(.5625)"/><use xlink:href="#d" transform="scale(.5625)"/></svg>