<svg xmlns="http://www.w3.org/2000/svg" xmlns:xlink="http://www.w3.org/1999/xlink" preserveAspectRatio="none" viewBox="0 0 72 72"><defs><path fill="#B39DDB" d="M72 6.75Q72 4 70 2t-4.75-2H6.75Q3.95 0 2 2 0 4 0 6.75v58.5q0 2.8 2 4.8Q3.95 72 6.75 72h58.5Q68 72 70 70.05q2-2 2-4.8V6.75z" id="a"/><path fill="#7E57C2" d="M72 6.75q0-2.8-2-4.75L1.95 70.05Q3.9 72 6.75 72h58.5Q68 72 70 70.05q2-2 2-4.8V6.75z" id="b"/><path fill="#9575CD" d="M63 16.25q0-2.8-1.95-4.75-2-2-4.8-2h-40.6q-2.75 0-4.75 2-2 1.95-2 4.75V56.8q0 2.8 2 4.8 2 1.95 4.75 1.95h40.6q2.8 0 4.8-1.95 1.95-2 1.95-4.8V16.25z" id="c"/><path fill="#FFFFFF" d="M71.9 83.7H55.05v40.35H71.9V83.7z" id="d"/><path fill="#FFFFFF" d="M83.65 111.55V94.7H43.3v16.85h40.35z" id="e"/><path fill="#FFFFFF" d="M46.75 39.8q4.5-4.5 4.5-10.8 0-6.4-4.5-10.85-4.45-4.5-10.85-4.5-6.35 0-10.85 4.5Q20.6 22.6 20.6 29q0 6.3 4.45 10.8 4.5 4.5 10.85 4.5 6.4 0 10.85-4.5M42.3 22.6q2.65 2.65 2.65 6.4 0 3.7-2.65 6.35Q39.65 38 35.9 38q-3.75 0-6.35-2.65Q26.9 32.7 26.9 29q0-3.75 2.65-6.4 2.65-2.65 6.35-2.65 3.75 0 6.4 2.65z" id="f"/><path fill="#FFFFFF" d="M119.15 9.05h-16.4V50.3h16.4V9.05z" id="g"/><path fill="#FFFFFF" d="M119.25 25.45V9.05H78v16.4h41.25z" id="h"/><path fill="#FFFFFF" d="M110.35 29.45l-11.6-11.6-31.5 31.5 11.6 11.6 31.5-31.5z" id="i"/><path fill="#FFFFFF" d="M119.15 9.05h-16.4V50.3h16.4V9.05z" id="j"/><path fill="#FFFFFF" d="M119.25 25.45V9.05H78v16.4h41.25z" id="k"/><path fill="#FFFFFF" d="M17.2 5.85l-4.35 4.35L24.7 22l4.35-4.35L17.2 5.85z" id="l"/><path fill="#FFFFFF" d="M119.15 9.05h-16.4V50.3h16.4V9.05z" id="m"/></defs><use xlink:href="#a"/><use xlink:href="#b"/><use xlink:href="#c"/><use xlink:href="#d" transform="matrix(.29854 0 0 .2983 17.05 21.3)"/><use xlink:href="#e" transform="matrix(.29854 0 0 .2983 17.05 21.3)"/><use xlink:href="#f" transform="matrix(.79716 0 0 .79814 7.35 11.75)"/><use xlink:href="#g" transform="matrix(.29922 0 0 .2993 21.45 11.05)"/><use xlink:href="#h" transform="matrix(.29922 0 0 .2993 21.45 11.05)"/><use xlink:href="#i" transform="matrix(.29922 0 0 .2993 21.45 11.05)"/><use xlink:href="#j" transform="matrix(-.29924 0 0 .29932 50.55 11.05)"/><use xlink:href="#k" transform="matrix(-.29924 0 0 .29932 50.55 11.05)"/><use xlink:href="#l" transform="matrix(.79793 0 0 .7991 7.25 11.75)"/><use xlink:href="#m" transform="matrix(.21155 .21187 .21129 -.21162 -4.3 7.1)"/></svg>