<svg xmlns="http://www.w3.org/2000/svg" xmlns:xlink="http://www.w3.org/1999/xlink" preserveAspectRatio="none" viewBox="0 0 72 72"><defs><path fill="#CC9970" d="M86.45 15.35q-1.6-2.55-4.3-2.85-3-.35-4.95 1.2-2.1 1.7-2.45 5.25l.1 36.2q0 1.55-1.3 1.7-1.35.15-1.45-1.4l-.5-45.05q.05-3.4-2-5.9Q67.5 2 64.55 2 61.6 2 59.7 4.2q-1.95 2.25-2.05 5.7.15 32 .1 44.4 0 1.7-1.4 1.7-.3.05-.6-.15-.65-.35-.65-1.35l-.45-38.1q-.1-3.35-1.55-5.5-1.7-2.35-4.7-2.4-3.05-.05-5.15 2.05-2.2 2.2-2.05 5.55l.25 40.25-.2.65q-.4.7-1.25.7-.95 0-1.3-.8l-.15-.8q0-6.5-.1-13.2-.1-13.4-.25-14.3-1.2-5.75-6.7-5.5-6.1.3-6.6 7.9.2 42 .3 44.25l.75 10.1q1 11.2 2.55 16.65 1.4 4.95 2.95 7.75 2.35 4.45 5.7 7.65 3.65 3.4 8.7 5.6 4.75 2 10.15 2.6l5 .35q2.3.15 5.05.05 4.65-.15 9.7-1.1 4.85-.95 8.8-2.55 3.95-1.5 7.3-3.9 3-2.05 5.25-4.6 1.55-1.75 3-4.4 1.05-1.9 1.35-3.1l.35-1.1L108.35 90v.05q5.3-12.55 10.6-25.6.75-1.65-.2-3.2-.9-1.6-2.8-1.85-5.4-.7-9.6 1.65-4.1 2.25-6.4 7.05L93.8 82.65q-.45 1.3-2 1.3-1.5-.05-1.7-1.45-.45-3.55-.7-11.8l-.1-7.6q-.15-3.2-.65-22.3-.45-18.75-.5-19.65-.25-3.5-1.7-5.8z" id="a"/><path fill="#99674F" d="M89.4 74v-3.4q-13.5 1.25-21.95 11.75-4.2 5.25-5.75 10.25-.95 2.45-.55 3.6.2.55.55.65.9.45 1.65-.65l.6-1.25q4.3-12.9 15.3-18.2Q84.75 74.1 89.4 74z" id="b"/></defs><use xlink:href="#a" transform="scale(.5625)"/><use xlink:href="#b" transform="scale(.5625)"/></svg>