<svg xmlns="http://www.w3.org/2000/svg" xmlns:xlink="http://www.w3.org/1999/xlink" preserveAspectRatio="none" viewBox="0 0 72 72"><defs><path fill="#CC9970" d="M97.85 9.6q-.5-5.65-4.7-7Q87.4.75 83.55 5q-1.15 1.3-2 4.2-.5 1.85-1.5 6.7-.45 2.7-.95 4.7l-1.75 8.45q-3.45 16.5-4.2 19l-.25.8q-.85 2.8-1.6 4-1.05 1.65-2.75 1.95-1.7-.15-2.9-1.6-.85-1.1-2-3.75l-.35-.75q-.55-1.25-6.55-18.4l-4.3-12.65q-1.65-4.85-2.3-6.45-1.2-2.85-2.5-3.95-4.35-3.75-9.8-1.2-4 1.9-3.8 7.55.1 3.2 1.95 9.2l.4 1.45q1.85 6.2 5.95 18 3.8 10.9 4.6 12.65.95 2 3.05 8.45l1.95 5.05.1.15-1.35.75-3.4-9q-1.4-3.7-4.6-4.8-2.8-1-6.1.25-3.1 1.15-4 4.6-.75 2.85.2 5.65.8 2.4 4.8 10.4l-1.75.95-1.95-3.9q-3.35-6.25-9.6-3.65-2.75 1.2-3.35 4.9-.5 3.05.55 5.65.35 1 1.75 3.8l2.05 7.75q2.35 8.7 3.9 13.4l.25.7q.5 1.6 1 2.8 1.05 2.65 1.15 2.85 3.45 6.75 10 10.55 6.4 3.7 14.1 3.7.3 0 4.6.1 5.05-.05 9.75-1 14.85-3 22.2-13.55 1.65-2.35 2.55-5.35 1.3-4 1.65-10 .4-6.75-.7-11.3-1.9-7.65-10.2-11.9l1.3-6.65v-.05q.7-2.2.85-2.95l.45-2.3q1.35-6.7 2-8.8.6-1.85 3-13.05 2.65-12.25 3.65-18.65l.25-1.5q1.1-6.15.8-9.35z" id="a"/><path fill="#99674F" d="M48.1 41l.45-1.9q-3.75-1.65-7.95-2.5-1.55-.3-2.35-.45-1.45-.3-2.35-.3-3.85 0-6.3 1.45l-2.85-5.65q0 .6-.25.8-.35.2-.75-.05v.05q.55.7.85 1.5.6 1.5 1.7 4.45l-.35.45-.8 1.95q-.45 2.3 1.05 4.3l.65.65q1 .75 2.6 1.2.45 1.7-.45 2.95-.45.65-.95.9-1.9 1-3.85-.2l-1.6-1.35q-.55-.55-2.55-4.4l-2.55-5.3q0 .6-.3.8-.35.25-.75-.05l-.05.05q.38.43 1.05 1.7.67 1.32 2.45 5.15l.35.9q.9 1.95 1.1 3.15.1.6 0 .8-.3 1.4-1.75 2.05l-1.4.4q-1.55.15-3.05-1.15L15.95 52l-2.85-4.7 1.1 4.2q.8 1.6 1.9 2.7.55.6.95.8 2 1.35 4.25.9 1.15-.25 1.85-.75.7-.5 1.1-1.25l.3-.65q.25-.85.05-1.9 1.85 1.6 4.1 1.55 1.15-.05 1.9-.4 1.7-.9 2.3-2.65.35-1.2.2-2.55l1.2.15q3.6.3 4.9.7l1.85.8q1.9 1.15 2.1 2.65l-.05.7q-.15.9-.6 1.75l-.05.55q0 .6.45.7.25.1.8-.05.55-.2.9-.5.6-.55.9-1.8.1-.45.05-1.15-.15-1.45-1.3-2.7-.3-.35-.85-.8-1.05-.9-2.2-1.3-1.75-.6-2.4-.75-1.25-.3-3.4-.5-.85-.1-1.95-.35-2.25-.45-3.6-1.4-.4-.3-.7-.95-.5-1.25.3-2.65.1-.2.4-.5.6-.65 1.4-1.1 2.7-1.45 7.1-.85l3.35.8q3.85.95 6.4 2.25z" id="b"/></defs><use xlink:href="#a" transform="scale(.56248)"/><use xlink:href="#b"/></svg>