<svg xmlns="http://www.w3.org/2000/svg" xmlns:xlink="http://www.w3.org/1999/xlink" preserveAspectRatio="none" viewBox="0 0 72 72"><defs><path fill="#2F2F2F" d="M64.9 21.9q.35-.35.35-.85-.05-.5-.4-.9L59.8 15.1q-.35-.35-.9-.35-.5 0-.85.35l-29.2 29.45q-.35.35-.85.35t-.9-.35l-13.2-13.1q-.35-.35-.85-.35t-.9.35L7.1 36.5q-.4.35-.4.9 0 .5.4.85L27.15 58.2q.4.4.9.4t.85-.4l36-36.3z" id="a"/><path id="b" stroke="#2F2F2F" stroke-width="2" stroke-linejoin="miter" stroke-linecap="butt" stroke-miterlimit="10" fill="none" d="M27.15 58.2L7.1 38.25q-.4-.35-.4-.85 0-.55.4-.9l5.05-5.05q.4-.35.9-.35t.85.35l13.2 13.1q.4.35.9.35t.85-.35l29.2-29.45q.35-.35.85-.35.55 0 .9.35l5.05 5.05q.35.4.4.9 0 .5-.35.85l-36 36.3q-.35.4-.85.4t-.9-.4z"/></defs><g><use xlink:href="#a"/><use xlink:href="#b"/></g></svg>