<svg xmlns="http://www.w3.org/2000/svg" xmlns:xlink="http://www.w3.org/1999/xlink" preserveAspectRatio="none" viewBox="0 0 72 72"><defs><path fill="#F79329" d="M46.7 9.55L42.75.1 38.8 9.55q-2.05 4.8-6.75 11.1-9.3 12.5-22.65 20.5L3.25 44.8l6.15 3.7q13.3 8 22.65 20.5 4.7 6.3 6.75 11.1l3.9 9.45 4-9.45q2.05-4.8 6.7-11.1 9.3-12.5 22.65-20.5l6.15-3.7-6.15-3.65q-13.35-8-22.65-20.5-2.9-3.95-5.1-7.85-1.6-3.2-1.6-3.25M42.75 20.2q9.1 14.55 23.35 24.6-14.3 10.1-23.35 24.65Q33.75 55 19.4 44.8q14.3-10.1 23.35-24.6z" id="a"/><path fill="#F79329" d="M117.9 67.3q-8.35-4.1-14.2-10.55-4.15-5.6-4.2-5.65l-3.3-6.6-3.35 6.55q-1.3 2.45-4.2 5.7-5.85 6.4-14.2 10.55l-6.75 3.35L74.45 74q8.3 4.1 14.15 10.5 2.95 3.25 4.25 5.7l3.3 6.55 3.35-6.55q1.3-2.4 4.25-5.65 5.85-6.4 14.15-10.55l6.8-3.35-6.8-3.35m-34.25 3.35q7.4-4.8 12.5-11.25 5.05 6.4 12.55 11.25-7.25 4.65-12.55 11.2-5.15-6.5-12.5-11.2z" id="b"/><path fill="#F79329" d="M56.9 86.5q-4.65 6.4-11.2 10.45l-5.15 3.15 5.15 3.2q6.55 4.05 11.15 10.4 2.35 3.2 3.4 5.7l3.4 8.55 3.5-8.55q1.05-2.45 3.35-5.65 4.6-6.4 11.2-10.45l5.15-3.2-5.15-3.15Q75.1 92.9 70.5 86.5q-3.3-5.6-3.35-5.65l-3.4-8.55-3.5 8.55q0 .05-3.35 5.65m16.35 13.6q-5.7 4.55-9.55 10.35-4-5.9-9.6-10.35 5.45-4.25 9.6-10.3 4 5.95 9.55 10.3z" id="c"/><path fill="#FCC21B" d="M44.5 14.8q-.341.13-.55.45-5.867 10.224-15.2 17.35-.253.196-.35.5-.096.3 0 .6.098.304.35.5 9.382 7.176 15.2 17.35.207.32.55.45.35.125.7 0 .341-.13.5-.45 5.916-10.224 15.2-17.35.253-.197.35-.5.096-.3 0-.6-.097-.304-.35-.5-9.283-7.078-15.2-17.35-.157-.32-.5-.45-.35-.125-.7 0z" id="d"/><path fill="#FCC21B" d="M109.65 70.3q-.112-.307-.4-.5-7.363-4.754-12.35-11.05-.162-.213-.45-.3-.3-.092-.6 0-.288.087-.5.3-4.985 6.346-12.25 11.05-.29.195-.4.5-.113.349 0 .65.112.358.4.55 7.215 4.605 12.25 10.95.21.26.5.35.3.091.6 0 .287-.088.45-.35 5.231-6.394 12.35-10.95.287-.192.4-.55.114-.3 0-.65z" id="e"/><path fill="#FCC21B" d="M63.35 88.85q-.288.102-.5.35-4.04 5.942-9.4 10.1-.212.197-.3.5-.093.3 0 .6.087.29.3.45 5.508 4.378 9.4 10.15.21.286.5.4.35.109.65 0 .34-.114.5-.4 3.796-5.674 9.35-10.15.263-.162.35-.45.092-.3 0-.6-.087-.288-.35-.5-5.408-4.23-9.35-10.05-.161-.285-.5-.4-.3-.108-.65 0z" id="f"/></defs><use xlink:href="#a" transform="matrix(.66202 0 0 .7168 16.5 1.25)"/><use xlink:href="#b" transform="matrix(.49065 0 0 .5625 -26.45 16.35)"/><use xlink:href="#c" transform="translate(-21.65 -37.5) scale(.5625)"/><use xlink:href="#d"/><use xlink:href="#e" transform="matrix(.49065 0 0 .5625 -26.45 16.35)"/><use xlink:href="#f" transform="translate(-21.65 -37.5) scale(.5625)"/></svg>