
<svg xmlns="http://www.w3.org/2000/svg" version="1.1" xmlns:xlink="http://www.w3.org/1999/xlink" preserveAspectRatio="none" x="0px" y="0px" width="72px" height="72px" viewBox="0 0 72 72">
<defs>
<g id="Layer0_0_MEMBER_0_FILL">
<path fill="#FAC036" stroke="none" d="
M 61.3 21.2
L 61.05 19
Q 60.7 16.15 60.05 15.25 58.2 12.45 52.5 12.35 50.35 12.35 49.2 12.85 48.1 13.4 47.7 14.7 46.65 15.1 46 14.25 45.3 11.15 43.3 9.75 41.15 8.25 37.6 8.8 33.75 9.35 32.05 10.9 30.7 12.05 30.3 14.25
L 30.25 14.25
Q 30 14.6 29.6 14.85 28.85 15.35 28.2 14.9 27.75 13.6 26.6 13.1 25.35 12.55 23.05 12.75 17.65 13.35 15.75 16.7 14.95 18.05 14.45 22.1 13.95 22.35 13.55 22.05 12.65 20.65 10.25 20.65 7.4 20.65 5.1 24.05 3.15 26.9 2.95 29.3 2.75 31.2 3.4 37.35 4 43.1 4.55 45.7 5.1 48 7.5 49.3 9.9 50.55 12.2 49.7 14.3 48.95 14.85 48.05 15.75 46.65 14.75 43.6
L 14.65 43.1 15.45 43.25
Q 15.85 46.3 17 48 18.6 50.35 21.75 50.3 23.8 50.3 25.35 49.05 27.15 47.6 27.4 44.85
L 30 45.2 30.1 46.2
Q 30.3 48.8 33.1 50.25 35.3 51.4 38.05 51.4
L 35.8 52.15 32.9 51.75
Q 32.55 51.85 32.05 52.05 31 52.5 30.2 53.15 27.65 55.3 28.6 59 29.15 61.3 31.65 62.15 32.75 62.5 37.9 63.2 41.65 63.75 49.9 63.2 59.1 62.65 60.15 61.15 62.1 59.15 64.15 56.35 68.3 50.7 68.95 46.55 69.45 43.4 68.55 37.85 67.75 32.55 66.05 26.75 66 26.1 65.35 25.05 64.05 22.95 61.3 21.2 Z"/>
</g>

<g id="Layer0_0_MEMBER_1_FILL">
<path fill="#E48C15" stroke="none" d="
M 82.1 46.65
Q 81.95 45.35 81.8 44.35 81.5 42.4 80.85 41.25 80.05 39.8 79.4 40.45
L 78.9 41.4
Q 79.55 53.3 79.35 65.2 79.25 71.15 79.05 74.7 78.95 81.25 75.2 84.3 73.3 85.9 67.2 86.2 59.65 86.35 56.6 81.65 55.65 80.15 55.25 78.4
L 55.05 76.9
Q 54.65 74.5 54.35 69.4 53.7 59.2 54.05 45.65 54.05 44.9 53.8 44.25 53.35 43 52.25 43.7
L 51.7 45.65
Q 51.1 48.05 50.95 50.2
L 50.4 58.1
Q 50.1 67.9 51.05 77.55 50.55 81.5 47.9 83.6 45.65 85.35 42.65 85.35 37.05 85.4 34.75 80.6 32.25 71.9 32.4 53.4 32.5 52.45 32.45 51.55 32.35 49.8 31.55 50.25
L 30.9 51.2
Q 30.1 52.85 29.6 56.45
L 29.25 62.25
Q 29.1 69.65 30.15 77.7 30.75 83.75 27.8 84.65 25.15 85.4 22.4 84.35 19.65 83.35 18.1 81.1 19.65 83.95 21.8 85.7 24.75 88.1 28.45 87.95
L 30.5 87.5
Q 32.7 86.85 33.55 85.65 35.45 88.8 40.65 89.5 43.25 89.85 45.45 89.55 50.75 88.85 52.9 84.7
L 52.9 84.75
Q 55.35 89.05 61.55 90.5 64.6 91.25 67.2 91.1 77.8 91.1 81.05 85.25 82.45 87.8 85.6 89.25 87.2 89.95 88.5 90.15 94.4 90.75 98.7 87.25 100.85 85.5 101.85 83.6 105.35 76.95 105.55 63.45 105.7 55.55 104.6 43.85
L 101.8 41.85
Q 102.5 51.45 101.85 68.2 101.6 75.5 99.9 79.1 97.6 84 91.9 84.7 86.5 85.4 83.95 82.2 83.3 80.5 83.1 77.7
L 83 75.25
Q 83.2 63.7 82.7 54
L 82.1 46.65 Z"/>
</g>
</defs>

<g id="Layer_1">
<g transform="matrix( 1, 0, 0, 1, 0,0) ">
<use xlink:href="#Layer0_0_MEMBER_0_FILL"/>
</g>

<g transform="matrix( 0.6683349609375, 0, 0, 0.6683349609375, -6.75,-6.75) ">
<use xlink:href="#Layer0_0_MEMBER_1_FILL"/>
</g>
</g>
</svg>
