
<svg xmlns="http://www.w3.org/2000/svg" version="1.1" xmlns:xlink="http://www.w3.org/1999/xlink" preserveAspectRatio="none" x="0px" y="0px" width="72px" height="72px" viewBox="0 0 72 72">
<defs>
<g id="Layer1_0_FILL">
<path fill="#FAC036" stroke="none" d="
M 3.7 30.4
L 0 37.05 0 72 29.9 72 37.8 57.85
Q 38.90625 55.8755859375 38.25 53.7 37.6583984375 51.5150390625 35.65 50.4 33.6833984375 49.29375 31.5 49.9 30.2806640625 50.2734375 29.4 51.05
L 32.5 45.45
Q 33.60625 43.4755859375 32.95 41.3 32.3583984375 39.1150390625 30.35 38 28.3833984375 36.89375 26.2 37.5 25.0162109375 37.86328125 24.15 38.6
L 24.55 37.85
Q 25.65625 35.8755859375 25 33.7 24.4083984375 31.5150390625 22.4 30.4 20.4333984375 29.29375 18.25 29.9 16.0650390625 30.5494140625 14.95 32.5
L 13.8 34.6
Q 14.221484375 33.1384765625 13.75 31.6 13.1583984375 29.4150390625 11.15 28.3 9.1833984375 27.19375 7 27.8 4.8150390625 28.4494140625 3.7 30.4 Z"/>
</g>

<g id="Layer1_0_MEMBER_0_FILL">
<path fill="#2F2F2F" stroke="none" d="
M 55.45 36.45
Q 54.75 34.2 53.4 32.85 51.5 31.25 49.5 31.75 47.35 32.3 45.65 36.25 43.9 40.15 42.55 41.8 42.55 41.85 41.05 44.3 40.3 45.55 39.05 45.6 39.95 46.05 41.05 46.15 42.05 46.3 42.95 46.7 44.15 47.35 44.9 47.6 46.7 48.1 48.1 47.65 49.4 47.25 50.8 45.85 53.8 42.85 55.2 39.7 55.7 38.6 55.75 38 55.8 37.45 55.45 36.45 Z"/>
</g>

<g id="An_1F485_SVG_Layer_1__Clip_Group__5_0_Layer1_0_FILL">
<path fill="#F48120" stroke="none" d="
M 128 12.25
L 128 2.85 121.45 2.85 100.35 40.25
Q 100.15 40.65 101.3 41.7 102.45 42.7 104.3 43.75 106.15 44.8 107.65 45.25 109.15 45.75 109.35 45.35
L 128 12.25 Z"/>
</g>

<g id="Layer1_0_MEMBER_2_MEMBER_0_FILL">
<path fill="#D7598B" stroke="none" d="
M 87.75 65.6
Q 89.7 61.9 86.7 58.5 84.25 55.7 77.2 51.9
L 65.9 45.95
Q 65.3 46.25 64.35 47.05 62.55 48.75 61.1 51.45 59.75 54.05 59.35 56.55 59.15 57.8 59.25 58.5
L 70.5 64.5
Q 77.6 68.25 81.35 68.75 85.8 69.25 87.75 65.6 Z"/>
</g>

<g id="Layer1_0_MEMBER_3_MEMBER_0_FILL">
<path fill="#D7598B" stroke="none" d="
M 81.35 68.75
Q 85.8 69.25 87.75 65.6 89.7 61.9 86.7 58.5 84.25 55.7 77.2 51.9
L 65.9 45.95
Q 65.3 46.25 64.35 47.05 62.55 48.75 61.1 51.45 59.75 54.05 59.35 56.55 59.15 57.8 59.25 58.5
L 70.5 64.5
Q 77.6 68.25 81.35 68.75 Z"/>
</g>

<g id="Layer1_0_MEMBER_4_MEMBER_0_FILL">
<path fill="#D7598B" stroke="none" d="
M 81.35 68.75
Q 85.8 69.25 87.75 65.6 89.7 61.9 86.7 58.5 84.25 55.7 77.2 51.9
L 65.9 45.95
Q 65.3 46.25 64.35 47.05 62.55 48.75 61.1 51.45 59.75 54.05 59.35 56.55 59.15 57.8 59.25 58.5
L 70.5 64.5
Q 77.6 68.25 81.35 68.75 Z"/>
</g>

<g id="Layer1_0_MEMBER_5_MEMBER_0_FILL">
<path fill="#D7598B" stroke="none" d="
M 81.35 68.75
Q 85.8 69.25 87.75 65.6 89.7 61.9 86.7 58.5 84.25 55.7 77.2 51.9
L 65.9 45.95
Q 65.3 46.25 64.35 47.05 62.55 48.75 61.1 51.45 59.75 54.05 59.35 56.55 59.15 57.8 59.25 58.5
L 70.5 64.5
Q 77.6 68.25 81.35 68.75 Z"/>
</g>

<g id="Layer1_0_MEMBER_7_FILL">
<path fill="#D7598B" stroke="none" d="
M 41.05 46.95
Q 43.3 48.05 46.45 48.15 47.45 48.15 48.6 47.75 50.95 46.85 53.1 44 55.1 41.3 54.85 39.9 54.8 40.3 53.15 42.15 52.95 42.3 50.4 44.95 50.95 44.35 51.65 41.55 52.3 38.75 52.2 37.55 50.65 41.55 47.5 44.25 50.65 38.25 49.5 34.05 48 38.15 44.85 40.85 46.55 38.95 46.6 36.25 44.55 41.1 39.35 44.55 39 44.8 38 44.8 37.05 44.85 36.5 44.7 36.9 45.2 38.6 45.9 39.5 46.3 41.05 46.95 Z"/>
</g>

<path id="Layer1_0_MEMBER_6_1_STROKES" stroke="#E48C15" stroke-width="1" stroke-linejoin="round" stroke-linecap="round" fill="none" d="
M 30.15 50.15
L 18.4 69.85
M 13.8 34.5
L 0.6 57.85
M 24.4 38.25
L 9.15 63.775"/>
</defs>

<g id="Layer_1">
<g transform="matrix( 1, 0, 0, 1, 0,0) ">
<use xlink:href="#Layer1_0_FILL"/>
</g>

<g transform="matrix( 1, 0, 0, 1, 0,0) ">
<use xlink:href="#Layer1_0_MEMBER_0_FILL"/>
</g>

<g transform="matrix( 0.834228515625, 0, 0, 0.834228515625, -34.8,-2.3) ">
<g id="Camada_1"/>

<g id="MergedLayer_1">
<g transform="matrix( 1, 0, 0, 1, 0,0) ">
<use xlink:href="#An_1F485_SVG_Layer_1__Clip_Group__5_0_Layer1_0_FILL"/>
</g>
</g>

<g id="Camada_4"/>
</g>

<g transform="matrix( 0.024993896484375, -0.5618743896484375, 0.5618743896484375, 0.024993896484375, -1.05,94.35) ">
<use xlink:href="#Layer1_0_MEMBER_2_MEMBER_0_FILL"/>
</g>

<g transform="matrix( 0.0250091552734375, -0.5618438720703125, 0.5618438720703125, 0.0250091552734375, -6.4,81.95) ">
<use xlink:href="#Layer1_0_MEMBER_3_MEMBER_0_FILL"/>
</g>

<g transform="matrix( 0.0250091552734375, -0.5618438720703125, 0.5618438720703125, 0.0250091552734375, -14.35,74.35) ">
<use xlink:href="#Layer1_0_MEMBER_4_MEMBER_0_FILL"/>
</g>

<g transform="matrix( 0.0250091552734375, -0.5618438720703125, 0.5618438720703125, 0.0250091552734375, -25.6,72.25) ">
<use xlink:href="#Layer1_0_MEMBER_5_MEMBER_0_FILL"/>
</g>

<g transform="matrix( 1, 0, 0, 1, 0,0) ">
<use xlink:href="#Layer1_0_MEMBER_6_1_STROKES"/>
</g>

<g transform="matrix( 1, 0, 0, 1, 0,0) ">
<use xlink:href="#Layer1_0_MEMBER_7_FILL"/>
</g>
</g>

<g id="Camada_2"/>
</svg>
