
<svg xmlns="http://www.w3.org/2000/svg" version="1.1" xmlns:xlink="http://www.w3.org/1999/xlink" preserveAspectRatio="none" x="0px" y="0px" width="72px" height="72px" viewBox="0 0 72 72">
<defs>
<g id="Layer0_0_MEMBER_0_MEMBER_0_FILL">
<path fill="#F8BE36" stroke="none" d="
M 90.8 46.25
Q 90.7 40.3 90.3 37.35
L 90.1 35.9
Q 89.35 31.55 88.5 29.45 87.25 26.5 84.65 24.25 81.45 21.25 79.9 19.9 77.15 17.55 75.45 16.9 72.6 15.75 71.3 17.4 69.95 19.1 72.95 21.85 77.45 25.65 80.6 29.7 82.25 31.8 82.05 35.35 81.9 37.8 79.75 39.7 77.65 41.65 74.45 42.45 70.9 43.35 68.9 41.85 67.7 40.95 65.6 37.85 63.6 34.95 61.95 33.95 59.05 32.25 57 34.25 55.2 36 54.95 39.3 54.7 42.6 55.45 46 55.7 47.3 57.15 52 58.1 55 60.4 56.95 61.8 58.15 65.3 60.5 67.05 61.85 66.05 65.05 64.85 69 65.5 70.7 66.25 72.65 69.15 74.55 70.75 75.6 73.85 77.45 75.5 78.65 77.85 78.85 80.1 79 80.7 78.15 81.35 77.3 82.1 75.45 83 73.25 83.1 73.1 86.1 67.55 87.5 64.55 89.95 59.35 90.8 55.3 91.25 53.25 91.15 51 91.15 50.35 90.8 46.25 Z"/>
</g>

<g id="Layer0_0_MEMBER_0_MEMBER_1_FILL">
<path fill="#E28A15" stroke="none" d="
M 64.55 44.5
Q 63.95 44.35 63.3 43.9 63.25 43.85 62.25 43 60.75 41.75 59.1 41.1 58.8 41.25 59.15 42.35 59.5 43.3 59.9 43.8 62 46.25 64.2 47.9 64.35 48 64.55 44.5 Z"/>
</g>

<g id="Layer0_0_MEMBER_0_MEMBER_2_MEMBER_0_FILL">
<path fill="#757575" stroke="none" d="
M 82.2 46.7
Q 83.25 46.05 83.05 44.75
L 75.15 3.8
Q 75 3.1 74.45 2.65 73.9 2.2 73.25 2.25 72.65 2.25 72.2 2.55
L 60.75 10.2
Q 59.7 10.95 59.95 12.15
L 67.8 53.1
Q 68 54.15 68.95 54.55 69.9 54.9 70.75 54.35
L 82.2 46.7 Z"/>
</g>

<g id="Layer0_0_MEMBER_0_MEMBER_2_MEMBER_1_FILL">
<path fill="#757575" stroke="none" d="
M 73.25 6
L 73.25 2.25 70.3 2.25 70.3 6 73.25 6 Z"/>
</g>

<g id="Layer0_0_MEMBER_0_MEMBER_2_MEMBER_2_FILL">
<path fill="#757575" stroke="none" d="
M 69.75 54.7
L 69.75 50.95 66.75 50.95 66.75 54.7 69.75 54.7 Z"/>
</g>

<g id="Layer0_0_MEMBER_0_MEMBER_2_MEMBER_3_FILL">
<path fill="#B2B2B3" stroke="none" d="
M 57.85 10.2
Q 56.8 11 57.05 12.15
L 64.95 53.1
Q 65.15 54.15 66.1 54.55 67.05 54.9 67.9 54.35
L 79.35 46.7
Q 80.4 46 80.15 44.75
L 72.25 3.8
Q 72.05 2.8 71.1 2.4 70.15 2 69.3 2.55
L 57.85 10.2 Z"/>
</g>

<g id="Layer0_0_MEMBER_0_MEMBER_3_FILL">
<path fill="#651FFF" stroke="none" d="
M 82.5 80
Q 82.3 78.45 81.05 77.5
L 65.9 65.6
Q 65.05 64.9 63.95 65 62.85 65.15 62.15 66
L 39.25 94.9
Q 37.35 97.2 34.5 96.8
L 0 94.45 0 126.7 48.25 124.35
Q 51.65 124.35 53.6 121.6
L 81.8 82.8
Q 82.7 81.5 82.5 80 Z"/>
</g>

<g id="Layer0_0_MEMBER_0_MEMBER_4_FILL">
<path fill="#F8BE36" stroke="none" d="
M 86.65 41.7
Q 88.65 40.6 87.55 38.4 87 37.25 84.95 35.2 82.65 33 80.95 32 79.85 31.4 76 29.75 72.35 28.4 70.55 28.3 69.05 28.2 67.9 28.85 66.75 29.55 66.55 30.85 66.3 32.1 67.25 33.1 68.15 34.05 70.3 34.75 74.15 35.95 74.75 36.2 77.2 37.1 78.9 38.4 79.95 39.25 82.4 41.35 84.7 42.8 86.65 41.7 Z"/>
</g>

<g id="Layer0_0_MEMBER_0_MEMBER_5_FILL">
<path fill="#F8BE36" stroke="none" d="
M 85.3 43.6
Q 83.1 41.3 81.65 40.5 80.45 39.75 77.1 38.35 73.9 37.05 72.15 37 70.6 37 69.7 37.6 68.65 38.3 68.45 39.6 68.3 40.9 69.1 41.85 70.05 42.9 71.95 43.45 75.35 44.5 76.05 44.75 78.25 45.65 79.8 46.9 80.8 47.75 83 49.75 85.1 51.15 86.9 50.05 88.75 48.85 87.7 46.7 87.15 45.45 85.3 43.6 Z"/>
</g>

<g id="Layer0_0_MEMBER_0_MEMBER_6_FILL">
<path fill="#F8BE36" stroke="none" d="
M 56.6 36.85
Q 56.95 39 59.15 41.35 61.45 43.85 63.6 44.9 66.3 46.2 67.85 44.7 69.35 43.25 68.2 40.9 67.35 39.15 64.5 36.05 62.8 34.25 61.15 33.55 59.2 32.7 57.8 33.7 56.3 34.8 56.6 36.85 Z"/>
</g>

<g id="Layer0_0_MEMBER_0_MEMBER_7_FILL">
<path fill="#F8BE36" stroke="none" d="
M 90.4 38.15
L 90.1 35.9
Q 89.35 31.55 88.5 29.4 87.25 26.45 84.65 24.2 81.45 21.25 79.9 19.9 77.2 17.5 75.45 16.9 72.6 15.75 71.3 17.4 70.5 18.35 71.3 19.8 71.85 20.85 73 21.8 77.65 25.85 80.6 29.7 82.25 31.85 82.05 35
L 90.4 38.15 Z"/>
</g>

<g id="Layer0_0_MEMBER_0_MEMBER_8_FILL">
<path fill="#E28A15" stroke="none" d="
M 80.65 53.8
Q 79.65 53.3 78.9 53.05 77.65 52.6 76.5 53 75.55 53.3 74.25 54.2 73 55.1 72.3 55.3 71.65 55.5 70.55 55 69.45 54.5 69.1 54.4 69.1 55.5 69.7 56.3 70.35 57.2 71.45 57.2 73.3 57.2 75 55.95 75.4 55.7 76.05 55.1 76.65 54.7 77.2 54.55 78 54.35 78.95 54.5 79.45 54.6 80.65 54.85 81.1 54.9 82.35 54.55 81.65 54.3 80.65 53.8 Z"/>
</g>

<g id="Layer0_0_MEMBER_0_MEMBER_9_FILL">
<path fill="#F8BE36" stroke="none" d="
M 85.8 51.45
Q 85.8 50.45 85.25 50.4 84.45 50.05 82.9 49.15 81.35 48.2 80.6 47.85 78.45 46.9 76.7 47.1 75.8 47.25 74.4 48.05 71.85 49.6 71.1 50.4 70.1 51.45 69.55 52.65 68.75 54.3 69.45 55.1 70.05 55.8 71.2 55.8 72.75 55.8 74.55 54.35 75.7 53.45 77.05 53.15 78.55 52.85 79.7 53.5 80.05 53.7 80.65 54.15 81.25 54.55 81.7 54.65 82.4 54.85 83.45 54.45 84.4 54.05 85.05 53.25 85.75 52.4 85.8 51.45 Z"/>
</g>
</defs>

<g id="Layer_1">
<g transform="matrix( 0.5625, 0, 0, 0.5625, 0,0) ">
<use xlink:href="#Layer0_0_MEMBER_0_MEMBER_0_FILL"/>
</g>

<g transform="matrix( 0.5625, 0, 0, 0.5625, 0,0) ">
<use xlink:href="#Layer0_0_MEMBER_0_MEMBER_1_FILL"/>
</g>

<g transform="matrix( 0.5625, 0, 0, 0.5625, 0,0) ">
<use xlink:href="#Layer0_0_MEMBER_0_MEMBER_2_MEMBER_0_FILL"/>
</g>

<g transform="matrix( 0.5625, 0, 0, 0.5625, 0,0) ">
<use xlink:href="#Layer0_0_MEMBER_0_MEMBER_2_MEMBER_1_FILL"/>
</g>

<g transform="matrix( 0.5625, 0, 0, 0.5625, 0,0) ">
<use xlink:href="#Layer0_0_MEMBER_0_MEMBER_2_MEMBER_2_FILL"/>
</g>

<g transform="matrix( 0.5625, 0, 0, 0.5625, 0,0) ">
<use xlink:href="#Layer0_0_MEMBER_0_MEMBER_2_MEMBER_3_FILL"/>
</g>

<g transform="matrix( 0.5625, 0, 0, 0.5625, 0,0) ">
<use xlink:href="#Layer0_0_MEMBER_0_MEMBER_3_FILL"/>
</g>

<g transform="matrix( 0.5625, 0, 0, 0.5625, 0,0) ">
<use xlink:href="#Layer0_0_MEMBER_0_MEMBER_4_FILL"/>
</g>

<g transform="matrix( 0.5625, 0, 0, 0.5625, 0,0) ">
<use xlink:href="#Layer0_0_MEMBER_0_MEMBER_5_FILL"/>
</g>

<g transform="matrix( 0.5625, 0, 0, 0.5625, 0,0) ">
<use xlink:href="#Layer0_0_MEMBER_0_MEMBER_6_FILL"/>
</g>

<g transform="matrix( 0.5625, 0, 0, 0.5625, 0,0) ">
<use xlink:href="#Layer0_0_MEMBER_0_MEMBER_7_FILL"/>
</g>

<g transform="matrix( 0.5625, 0, 0, 0.5625, 0,0) ">
<use xlink:href="#Layer0_0_MEMBER_0_MEMBER_8_FILL"/>
</g>

<g transform="matrix( 0.5625, 0, 0, 0.5625, 0,0) ">
<use xlink:href="#Layer0_0_MEMBER_0_MEMBER_9_FILL"/>
</g>
</g>
</svg>
