
<svg xmlns="http://www.w3.org/2000/svg" version="1.1" xmlns:xlink="http://www.w3.org/1999/xlink" preserveAspectRatio="none" x="0px" y="0px" width="72px" height="72px" viewBox="0 0 72 72">
<defs>
<g id="Layer0_0_MEMBER_0_MEMBER_0_FILL">
<path fill="#2F2F2F" stroke="none" d="
M 108.95 87.3
L 108.95 46.75 17.4 46.75 17.4 87.3 108.95 87.3 Z"/>
</g>

<g id="Layer0_0_MEMBER_0_MEMBER_1_MEMBER_0_FILL">
<path fill="#006CA2" stroke="none" d="
M 108.95 65.75
L 90 74.25
Q 86.45 75.95 84.55 76.85 78.2 79.85 75.7 80.8 69.7 83.1 63.8 83.1 55.65 83.1 46.7 78.85 37.5 74.45 17.4 65.6
L 17.4 73.35
Q 17.4 76.8 16.75 85.25 16.6 92.9 18.95 97.3 21.55 102.2 27.8 104.15 39.15 107.65 55.35 107.95 67.4 108.15 83.45 106.55 95.15 105.35 100.45 103.1 108.8 99.55 108.95 91.85
L 108.95 65.75 Z"/>
</g>

<g id="Layer0_0_MEMBER_0_MEMBER_1_MEMBER_1_FILL">
<path fill="#006CA2" stroke="none" d="
M 126.05 44.95
Q 124.75 43.65 121.95 42.1 119.15 40.55 114.7 38.65 109.75 36.55 107.3 35.45
L 79.3 22.8
Q 74.15 20.45 70.9 19.4 66.2 17.9 62.25 17.9 58.8 17.9 55.45 19 48.05 21.6 38.7 25.85 35.65 27.25 22.4 33.6 10.15 39.45 8.3 40.3 7.9 40.5 5.9 41.6 2.8 43.55 1.4 45.6 0.95 46.15 0.55 47.1 -0.8 50.55 2.75 53.3 4.3 54.5 9.25 56.65
L 17.4 60.2
Q 35.75 68.1 48.85 74.35 56.75 78.1 63.8 78.1 68.85 78.1 73.9 76.2 76.55 75.15 80.95 73 86.05 70.55 87.95 69.7
L 122.35 54.25
Q 124.8 53.15 125.7 52.55 127.45 51.3 127.7 49.55 128.15 47.1 126.05 44.95 Z"/>
</g>

<g id="Layer0_0_MEMBER_1_FILL">
<path fill="#ED6C30" stroke="none" d="
M 121.5 110.45
Q 124.15 110.7 126.1 110.3 125.8 108.35 125.75 106.4
L 125.75 104.85 113.05 103.85
Q 112.7 104.75 112.65 106.95 116.2 110 121.5 110.45 Z"/>
</g>

<g id="Layer0_0_MEMBER_2_FILL">
<path fill="#F79329" stroke="none" d="
M 117.15 55.05
L 117.15 66.6 117.2 66.6 117.2 68.15
Q 117.25 70.35 117.1 81.4
L 117.1 95.95
Q 115.8 96.45 115.05 97.65 114.4 98.7 113.7 101.1 113.5 101.7 113.05 103.85
L 113.1 104.3
Q 113.25 104.8 113.75 105.05 117.2 106.5 122.5 105.95 123.55 105.85 124.35 105.6 125.55 105.2 125.75 104.85 125.85 104.65 125.8 104.05 125.75 103.45 125.75 103.3
L 125.55 101.25
Q 125.15 98.55 123.5 96.8 122.85 96.25 122.35 96.05
L 122.35 55.05 117.15 55.05 Z"/>
</g>

<g id="Layer0_0_MEMBER_3_FILL">
<path fill="#F79329" stroke="none" d="
M 121.95 123.75
Q 122 123.95 121.95 124.25 122 124.5 122.2 124.65 122.6 124.9 123.25 124.8 123.85 124.7 124.2 124.4 124.8 123.8 125.4 122.4 126.65 119.3 126.65 115.35 126.6 112.85 126.25 110.3
L 125.85 108.2
Q 123.35 109 119.25 108.75 116.2 108.55 114.1 107.75
L 112.65 106.95 111.9 111.15
Q 111.35 113.65 110.35 115.8 109.65 117.15 108.4 118.65 106.6 120.8 107.05 122.1 107.4 123.3 108.55 123.4 109 123.45 109.55 123 110.15 122.55 110.45 122.55 110.9 122.5 110.85 122.95 110.8 123.2 110.7 123.65 111.05 124.95 113.15 125.2 114 125.3 114.6 124.75 115.3 124.05 115.45 124.05 115.85 124.05 115.85 124.25
L 115.95 124.8
Q 116.75 126.2 119.6 125.4 120.1 125.25 120.35 124.9 120.7 124.4 120.9 124.1 121.8 122.85 121.95 123.75 Z"/>
</g>

<g id="Layer0_0_MEMBER_4_FILL">
<path fill="#F79329" stroke="none" d="
M 119.6 57.15
L 120.1 57.2
Q 120.9 57.2 121.55 56.7 122.15 56.25 122.35 55.45 122.55 54.5 122 53.75 121.5 52.95 120.6 52.75
L 63.9 40.4
Q 63 40.2 62.2 40.7 61.45 41.2 61.2 42.15 61 43.05 61.55 43.85 62.05 44.65 62.95 44.85
L 119.6 57.15 Z"/>
</g>
</defs>

<g id="Layer_1">
<g transform="matrix( 0.5625, 0, 0, 0.5625, 0,0) ">
<use xlink:href="#Layer0_0_MEMBER_0_MEMBER_0_FILL"/>
</g>

<g transform="matrix( 0.5625, 0, 0, 0.5625, 0,0) ">
<use xlink:href="#Layer0_0_MEMBER_0_MEMBER_1_MEMBER_0_FILL"/>
</g>

<g transform="matrix( 0.5625, 0, 0, 0.5625, 0,0) ">
<use xlink:href="#Layer0_0_MEMBER_0_MEMBER_1_MEMBER_1_FILL"/>
</g>

<g transform="matrix( 0.5625, 0, 0, 0.5625, 0,0) ">
<use xlink:href="#Layer0_0_MEMBER_1_FILL"/>
</g>

<g transform="matrix( 0.5625, 0, 0, 0.5625, 0,0) ">
<use xlink:href="#Layer0_0_MEMBER_2_FILL"/>
</g>

<g transform="matrix( 0.5625, 0, 0, 0.5625, 0,0) ">
<use xlink:href="#Layer0_0_MEMBER_3_FILL"/>
</g>

<g transform="matrix( 0.5625, 0, 0, 0.5625, 0,0) ">
<use xlink:href="#Layer0_0_MEMBER_4_FILL"/>
</g>
</g>
</svg>
