
<svg xmlns="http://www.w3.org/2000/svg" version="1.1" xmlns:xlink="http://www.w3.org/1999/xlink" preserveAspectRatio="none" x="0px" y="0px" width="72px" height="72px" viewBox="0 0 72 72">
<defs>
<g id="Layer2_0_FILL">
<path fill="#2F2F2F" stroke="none" d="
M 32.7 -3.85
Q 21.14453125 -20.7564453125 2.5 -21.3
L -0.7 -21.3
Q -19.34453125 -20.7564453125 -30.9 -3.85
L -30.9 -3.9
Q -31.48046875 -3.05 -32 -2.25
L -31.9 -2.35
Q -32.18125 -1.9251953125 -32.45 -1.5 -32.4361328125 -1.47265625 -32.45 -1.45 -33.561328125 0.5837890625 -34 2.85 -34.0033203125 3.02578125 -34 3.2 -34 3.35 -34 3.5 -34 3.65 -34 3.8 -34.0033203125 3.9740234375 -34 4.15 -33.561328125 6.4162109375 -32.45 8.45 -32.4361328125 8.4724609375 -32.45 8.5 -32.2109375 8.884375 -31.95 9.25 -31.464453125 10.071875 -30.9 10.85
L -30.9 10.8
Q -19.34453125 27.7564453125 -0.7 28.3
L 2.5 28.3
Q 21.14453125 27.7564453125 32.7 10.8
L 32.7 10.8
Q 33.2013671875 10.0875 33.7 9.35 33.78046875 9.2857421875 33.8 9.2 34.025 8.85 34.2 8.5 34.2361328125 8.4724609375 34.25 8.45 35.361328125 6.4162109375 35.75 4.15 35.803125 3.9740234375 35.8 3.8 35.8 3.65 35.8 3.5 35.8 3.35 35.8 3.2 35.803125 3.02578125 35.75 2.85 35.361328125 0.5837890625 34.25 -1.45 34.2361328125 -1.47265625 34.2 -1.5 34.025 -1.85 33.8 -2.2 33.78046875 -2.2857421875 33.7 -2.4 33.2013671875 -3.0875 32.7 -3.8
L 32.7 -3.85 Z"/>
</g>

<g id="Layer2_1_FILL">
<path fill="#FFFFFF" stroke="none" d="
M 66.15 42.2
Q 66.65 41.45 67.2 40.7 67.4 40.35 67.6 40 68.55 38.25 68.9 36.3 68.9 36.15 68.9 36 68.9 35.85 68.9 35.7 68.55 33.75 67.6 32 67.4 31.65 67.2 31.3 66.65 30.55 66.15 29.8 55.2 13.75 37.55 13.2
L 34.45 13.2
Q 16.8 13.75 5.85 29.8 5.3 30.55 4.85 31.3 4.6 31.65 4.4 32 3.45 33.75 3.1 35.7 3.1 35.85 3.1 36 3.1 36.15 3.1 36.3 3.45 38.25 4.4 40 4.6 40.35 4.85 40.7 5.3 41.45 5.85 42.2 16.8 58.25 34.45 58.8
L 37.55 58.8
Q 55.2 58.25 66.15 42.2 Z"/>
</g>

<g id="Layer1_0_FILL">
<path fill="#F08E46" stroke="none" d="
M 46.85 46.85
Q 51.3 42.35 51.3 36.05 51.3 29.7 46.85 25.2 42.35 20.75 36 20.75 29.7 20.75 25.2 25.2 20.7 29.7 20.7 36.05 20.7 42.35 25.2 46.85 29.7 51.35 36 51.35 42.35 51.35 46.85 46.85 Z"/>
</g>

<g id="Layer1_1_FILL">
<path fill="#2F2F2F" stroke="none" d="
M 48.85 36.05
Q 48.85 30.9 45.1 26.95 41.25 23.15 35.8 23.15 30.45 23.15 26.6 26.95 22.95 30.8 22.95 36.05 22.95 41.7 26.6 45.15 30.35 49.3 35.8 49.3 41.35 49.3 45.1 45.15 48.85 41.6 48.85 36.05
M 34.8 30.9
Q 34.8 32.95 33.6 34.25 32.35 35.45 30.45 35.45 28.75 35.45 27.2 34.25 26.1 32.85 26.1 30.9 26.1 29.5 27.2 27.9 28.75 26.65 30.45 26.65 32.35 26.65 33.6 27.9 34.8 29.4 34.8 30.9 Z"/>

<path fill="#FFFFFF" stroke="none" d="
M 33.6 34.25
Q 34.8 32.95 34.8 30.9 34.8 29.4 33.6 27.9 32.35 26.65 30.45 26.65 28.75 26.65 27.2 27.9 26.1 29.5 26.1 30.9 26.1 32.85 27.2 34.25 28.75 35.45 30.45 35.45 32.35 35.45 33.6 34.25 Z"/>
</g>
</defs>

<g id="Layer_1">
<g transform="matrix( 1, 0, 0, 1, 35.1,32.5) ">
<use xlink:href="#Layer2_0_FILL"/>
</g>

<g transform="matrix( 1, 0, 0, 1, 0,0) ">
<use xlink:href="#Layer2_1_FILL"/>
</g>
</g>

<g transform="matrix( 1.068634033203125, 0, 0, 1.068634033203125, -2.45,-2.45) ">
<use xlink:href="#Layer1_0_FILL"/>
</g>

<g transform="matrix( 1, 0, 0, 1, 0,0) ">
<use xlink:href="#Layer1_1_FILL"/>
</g>
</svg>
