
<svg xmlns="http://www.w3.org/2000/svg" version="1.1" xmlns:xlink="http://www.w3.org/1999/xlink" preserveAspectRatio="none" x="0px" y="0px" width="72px" height="72px" viewBox="0 0 72 72">
<defs>
<g id="Layer0_0_MEMBER_0_MEMBER_0_FILL">
<path fill="#FFFFFF" stroke="none" d="
M 9.05 13.65
Q 2.85 22.9 2.85 36 2.85 49.1 9.05 58.35 15.25 67.6 24 67.6 32.75 67.6 38.95 58.35 45.15 49.1 45.15 36 45.15 22.9 38.95 13.65 32.75 4.4 24 4.4 15.25 4.4 9.05 13.65 Z"/>
</g>

<g id="Layer0_0_MEMBER_0_MEMBER_1_FILL">
<path fill="#2F2F2F" stroke="none" d="
M 16.95 49.15
Q 20.75 49.15 23.45 45.3 26.15 41.45 26.15 36 26.15 30.55 23.45 26.65 20.75 22.8 16.95 22.8 13.1 22.8 10.4 26.65 7.75 30.55 7.75 36 7.75 41.45 10.4 45.3 13.1 49.15 16.95 49.15 Z"/>
</g>

<g id="Layer0_0_MEMBER_0_MEMBER_1_MEMBER_0_FILL">
<path fill="#FFFFFF" stroke="none" d="
M 41.55 29.2
Q 42.25 28.55 42.25 27.6 42.25 26.65 41.55 25.95 40.9 25.3 39.95 25.3 39 25.3 38.3 25.95 37.65 26.65 37.65 27.6 37.65 28.55 38.3 29.2 39 29.9 39.95 29.9 40.9 29.9 41.55 29.2 Z"/>
</g>

<g id="Layer0_0_MEMBER_1_MEMBER_0_FILL">
<path fill="#FFFFFF" stroke="none" d="
M 9.05 13.65
Q 2.85 22.9 2.85 36 2.85 49.1 9.05 58.35 15.25 67.6 24 67.6 32.75 67.6 38.95 58.35 45.15 49.1 45.15 36 45.15 22.9 38.95 13.65 32.75 4.4 24 4.4 15.25 4.4 9.05 13.65 Z"/>
</g>

<g id="Layer0_0_MEMBER_1_MEMBER_1_FILL">
<path fill="#2F2F2F" stroke="none" d="
M 16.95 49.15
Q 20.75 49.15 23.45 45.3 26.15 41.45 26.15 36 26.15 30.55 23.45 26.65 20.75 22.8 16.95 22.8 13.1 22.8 10.4 26.65 7.75 30.55 7.75 36 7.75 41.45 10.4 45.3 13.1 49.15 16.95 49.15 Z"/>
</g>

<g id="Layer0_0_MEMBER_1_MEMBER_1_MEMBER_0_FILL">
<path fill="#FFFFFF" stroke="none" d="
M 41.55 29.2
Q 42.25 28.55 42.25 27.6 42.25 26.65 41.55 25.95 40.9 25.3 39.95 25.3 39 25.3 38.3 25.95 37.65 26.65 37.65 27.6 37.65 28.55 38.3 29.2 39 29.9 39.95 29.9 40.9 29.9 41.55 29.2 Z"/>
</g>

<path id="Layer0_0_MEMBER_0_MEMBER_0_1_STROKES" stroke="#CFD8DC" stroke-width="2" stroke-linejoin="round" stroke-linecap="round" fill="none" d="
M 34.35130844116211 36.00802001953125
Q 34.35130844116211 46.163438415527345 29.544927215576177 53.334249114990236 24.738545989990236 60.50505981445312 17.9553466796875 60.50505981445312 11.172147369384765 60.50505981445312 6.365766143798829 53.334249114990236 1.5593849182128907 46.163438415527345 1.5593849182128907 36.00802001953125 1.5593849182128907 25.852601623535158 6.365766143798829 18.681790924072267 11.172147369384765 11.510980224609375 17.9553466796875 11.510980224609375 24.738545989990236 11.510980224609375 29.544927215576177 18.681790924072267 34.35130844116211 25.852601623535158 34.35130844116211 36.00802001953125 Z"/>

<path id="Layer0_0_MEMBER_1_MEMBER_0_1_STROKES" stroke="#CFD8DC" stroke-width="2" stroke-linejoin="round" stroke-linecap="round" fill="none" d="
M 70.50130844116211 36.00802001953125
Q 70.50130844116211 46.163438415527345 65.69492721557617 53.334249114990236 60.888545989990234 60.50505981445312 54.1053466796875 60.50505981445312 47.322147369384766 60.50505981445312 42.51576614379883 53.334249114990236 37.70938491821289 46.163438415527345 37.70938491821289 36.00802001953125 37.70938491821289 25.852601623535158 42.51576614379883 18.681790924072267 47.322147369384766 11.510980224609375 54.1053466796875 11.510980224609375 60.888545989990234 11.510980224609375 65.69492721557617 18.681790924072267 70.50130844116211 25.852601623535158 70.50130844116211 36.00802001953125 Z"/>
</defs>

<g id="Camada_1">
<g transform="matrix( 0.7752227783203125, 0, 0, 0.7752227783203125, -0.65,8.1) ">
<use xlink:href="#Layer0_0_MEMBER_0_MEMBER_0_FILL"/>

<use xlink:href="#Layer0_0_MEMBER_0_MEMBER_0_1_STROKES" transform="matrix( 1.289947509765625, 0, 0, 1.289947509765625, 0.8,-10.4) "/>
</g>

<g transform="matrix( 0.7752227783203125, 0, 0, 0.7752227783203125, -0.65,8.1) ">
<use xlink:href="#Layer0_0_MEMBER_0_MEMBER_1_FILL"/>
</g>

<g transform="matrix( 0.7752227783203125, 0, 0, 0.7752227783203125, -16.6,9.85) ">
<use xlink:href="#Layer0_0_MEMBER_0_MEMBER_1_MEMBER_0_FILL"/>
</g>

<g transform="matrix( 0.7752227783203125, 0, 0, 0.7752227783203125, 35.5,8.1) ">
<use xlink:href="#Layer0_0_MEMBER_1_MEMBER_0_FILL"/>

<use xlink:href="#Layer0_0_MEMBER_1_MEMBER_0_1_STROKES" transform="matrix( 1.289947509765625, 0, 0, 1.289947509765625, -45.75,-10.4) "/>
</g>

<g transform="matrix( 0.7752227783203125, 0, 0, 0.7752227783203125, 35.5,8.1) ">
<use xlink:href="#Layer0_0_MEMBER_1_MEMBER_1_FILL"/>
</g>

<g transform="matrix( 0.77520751953125, 0, 0, 0.77520751953125, 19.6,9.85) ">
<use xlink:href="#Layer0_0_MEMBER_1_MEMBER_1_MEMBER_0_FILL"/>
</g>
</g>
</svg>
