
<svg xmlns="http://www.w3.org/2000/svg" version="1.1" xmlns:xlink="http://www.w3.org/1999/xlink" preserveAspectRatio="none" x="0px" y="0px" width="72px" height="72px" viewBox="0 0 72 72">
<defs>
<g id="Layer0_0_MEMBER_0_MEMBER_0_MEMBER_0_MEMBER_0_FILL">
<path fill="#E0E0E0" stroke="none" d="
M 55.95 47.45
Q 53.95 46.2 51.8 46.7 49.65 47.2 48.3 49.1 47.75 49.95 46.15 53.1 44.3 56.7 43.6 57.85 42.8 59.2 39.95 62.65 38.05 64.95 38.25 66 38.45 67 39.05 67.65 39.8 68.45 41.35 69 43.25 69.55 45.8 69.35 48.6 69.1 49.8 68.1 50.3 67.55 49.8 66.7
L 49.2 65.95
Q 51.2 66.3 53.7 65.85 56.55 65.4 57.1 64.35 57.35 63.9 56.8 63.25 56.35 62.75 55.95 62.5 63.4 62.1 64.15 60.05 64.5 59 62.75 58.1 65.3 57.8 66.6 57.45 69.1 56.75 70.15 55.4 70.65 54.85 70.75 54.15 70.85 53.35 70.45 52.8 70.05 52.2 69.15 51.95 68.7 51.8 67.55 51.7 64.7 51.45 62.3 50.6 59.35 49.6 55.95 47.45 Z"/>
</g>

<g id="An_1F47C_SVG_Layer_1__Clip_Group__2_0_0_Layer1_0_FILL">
<path fill="#B0BEC5" stroke="none" d="
M 43.6 20.55
Q 43.719921875 20.535546875 43.85 20.5 43.76953125 20.484765625 43.7 20.45 39.65 20.45 33.85 19.15 30.1 18.3 28.05 17.6 28.8 18.25 31.6 19.5 33.8 20.5 35.35 21.05 40.428515625 22.7103515625 45.9 22.35 45.3244140625 21.4123046875 43.6 20.55 Z"/>
</g>

<g id="An_1F47C_SVG_Layer_1__Clip_Group__1_0_0_Layer1_0_FILL">
<path fill="#B0BEC5" stroke="none" d="
M 30.9 29.9
Q 31.4990234375 29.7916015625 32 29.65 32.40390625 29.5353515625 32.75 29.4 32.1234375 28.65625 31.5 28.3 31.86875 28.2791015625 32.2 28.25 32.087890625 28.1251953125 32.05 28.1 28.75 28.25 24.85 26.95 19.65 24.95 19.25 24.75 23.4 27.75 25.35 28.55 28.3447265625 29.65 30.9 29.9 Z"/>
</g>

<g id="An_1F47C_SVG_Layer_1__Clip_Group__0_0_Layer1_0_FILL">
<path fill="#B0BEC5" stroke="none" d="
M 19.5 34.4
Q 19.7302734375 34.439453125 19.95 34.45 19.895703125 34.373046875 19.85 34.3 15.85 33.65 11.05 32 14.05 34.1 15.55 34.6 18.788671875 35.6203125 20.6 35.85 20.58125 35.801953125 20.55 35.75
L 19.5 34.4 Z"/>
</g>

<g id="Layer0_0_MEMBER_0_MEMBER_1_MEMBER_0_MEMBER_0_FILL">
<path fill="#E0E0E0" stroke="none" d="
M 55.95 47.45
Q 53.95 46.2 51.8 46.7 49.65 47.2 48.3 49.1 47.75 49.95 46.15 53.1 44.3 56.7 43.6 57.85 42.8 59.2 39.95 62.65 38.05 64.95 38.25 66 38.45 67 39.05 67.65 39.8 68.45 41.35 69 43.25 69.55 45.8 69.35 48.6 69.1 49.8 68.1 50.3 67.55 49.8 66.7
L 49.2 65.95
Q 51.2 66.3 53.7 65.85 56.55 65.4 57.1 64.35 57.35 63.9 56.8 63.25 56.35 62.75 55.95 62.5 63.4 62.1 64.15 60.05 64.5 59 62.75 58.1 65.3 57.8 66.6 57.45 69.1 56.75 70.15 55.4 70.65 54.85 70.75 54.15 70.85 53.35 70.45 52.8 70.05 52.2 69.15 51.95 68.7 51.8 67.55 51.7 64.7 51.45 62.3 50.6 59.35 49.6 55.95 47.45 Z"/>
</g>

<g id="Layer0_0_MEMBER_1_MEMBER_0_MEMBER_0_MEMBER_0_FILL">
<path fill="#E49500" stroke="none" d="
M 111.4 66.55
L 107.35 66.55 107.35 89.3
Q 112.7 89.3 116.2 86.6 120.2 83.45 120.2 77.6 120.2 71.65 115.8 68.5 114.45 67.55 112.8 66.95
L 111.4 66.55 Z"/>
</g>

<g id="Layer0_0_MEMBER_1_MEMBER_0_MEMBER_0_MEMBER_1_FILL">
<path fill="#E49500" stroke="none" d="
M 20.6 66.55
L 16.55 66.55
Q 16 66.65 15.2 66.95 13.55 67.55 12.15 68.5 7.75 71.65 7.75 77.6 7.75 83.45 11.8 86.6 15.25 89.3 20.6 89.3
L 20.6 66.55 Z"/>
</g>

<g id="Layer0_0_MEMBER_1_MEMBER_0_MEMBER_1_FILL">
<path fill="#FBC11B" stroke="none" d="
M 104 32.55
Q 96.95 22.2 87.15 17.75 77.95 13.55 64 13.55 50.05 13.55 40.85 17.75 31 22.25 24 32.55 18.9 40.1 17.25 51.9 15.7 62.95 17.4 76.1 19.05 88.7 22.4 96.3 26.1 104.6 33.6 111.15 45.65 121.65 63.3 121.65
L 64.65 121.65
Q 82.3 121.65 94.35 111.15 101.85 104.6 105.55 96.3 108.9 88.7 110.5 76.1 112.2 62.95 110.7 51.9 109.1 40.1 104 32.55 Z"/>
</g>

<g id="Layer0_0_MEMBER_1_MEMBER_0_MEMBER_2_FILL">
<path fill="#513F35" stroke="none" d="
M 77 97.15
Q 76.65 96.5 75.55 96.5
L 52.4 96.5
Q 51.4 96.5 51.1 97.15 50.75 97.8 51.4 98.7 52.6 100.55 55.6 102.15 59.45 104.2 64.05 104.2 68.65 104.2 72.5 102.15 75.5 100.6 76.75 98.7 77.3 97.75 77 97.15 Z"/>
</g>

<g id="Layer0_0_MEMBER_1_MEMBER_0_MEMBER_3_FILL">
<path fill="#E49500" stroke="none" d="
M 58.75 90.2
Q 58.2 90.05 57.95 90.45 57.7 90.85 57.95 91.25 58.5 92.25 60 93.2 61.9 94.35 63.95 94.35 66 94.35 67.95 93.2 69.45 92.25 70 91.25 70.25 90.85 70 90.45 69.75 90.05 69.2 90.2 66.5 91 64 91 61.45 91 58.75 90.2 Z"/>
</g>

<g id="Layer0_0_MEMBER_1_MEMBER_0_MEMBER_4_FILL">
<path fill="#FFA000" stroke="none" d="
M 75.65 8.5
Q 68.8 4.35 61.4 5.55 56.05 6.45 51.7 9.9 48.05 12.85 47.3 15.45 52.95 14.05 59.2 13.7 63.95 13.4 67.15 15.75 70.5 18.2 70.3 22.15 69.95 29.8 62.5 30.75 55.9 31.6 51.4 27.65 50.9 27.2 50.3 27.55 49.7 27.85 49.75 28.5 50 31 51.55 33.35 53.3 36.1 56.5 38.1 59.25 39.8 63.7 39.95 68.35 40.1 72.65 38.35 83.5 34 83.5 22.05 83.5 13.2 75.65 8.5 Z"/>
</g>

<g id="Layer0_0_MEMBER_1_MEMBER_0_MEMBER_5_FILL">
<path fill="#444444" stroke="none" d="
M 40.15 72.35
Q 38.45 74.35 38.45 77.2 38.45 80.1 40.15 82.1 41.8 84.1 44.2 84.1 46.55 84.1 48.25 82.1 49.9 80.05 49.9 77.2 49.9 74.35 48.25 72.35 46.55 70.3 44.2 70.3 41.8 70.3 40.15 72.35 Z"/>
</g>

<g id="Layer0_0_MEMBER_1_MEMBER_0_MEMBER_6_FILL">
<path fill="#444444" stroke="none" d="
M 87.85 72.35
Q 86.15 70.3 83.8 70.3 81.4 70.3 79.75 72.35 78.05 74.35 78.05 77.2 78.05 80.05 79.75 82.1 81.4 84.1 83.8 84.1 86.15 84.1 87.85 82.1 89.5 80.1 89.5 77.2 89.5 74.35 87.85 72.35 Z"/>
</g>

<g id="Layer0_0_MEMBER_2_FILL">
<path fill="#40C0E7" stroke="none" d="
M 103.75 35.85
Q 120.3 29.75 120.3 21 120.3 12.3 103.75 6.15 87.2 0 63.75 0 40.35 0 23.8 6.15 7.25 12.3 7.25 21 7.25 29.75 23.8 35.85 40.35 42 63.75 42 87.2 42 103.75 35.85
M 86.4 11.35
Q 95.75 13.85 95.75 17.4 95.75 20.95 86.4 23.4 77 25.9 63.75 25.9 50.5 25.9 41.15 23.4 31.75 20.9 31.75 17.4 31.75 13.85 41.15 11.35 50.5 8.85 63.75 8.85 77 8.85 86.4 11.35 Z"/>
</g>

<g id="Layer0_0_MEMBER_3_FILL">
<path fill="#FFA000" stroke="none" d="
M 46.05 17.75
Q 46.05 13.25 42.05 10.85 39.8091796875 9.4734375 37.45 9.25
L 35.65 13.6
Q 36.8107421875 13.8830078125 37.7 14.55 39.4 15.8 39.3 17.8 39.15 21.7 35.35 22.2 32 22.6 29.7 20.6 29.45 20.35 29.15 20.55 28.8 20.7 28.85 21.05 29 22.3 29.75 23.5 30.65 24.9 32.3 25.95 33.7 26.8 35.95 26.85 38.35 26.95 40.5 26.05 46.05 23.85 46.05 17.75 Z"/>
</g>
</defs>

<g id="Layer_1">
<g transform="matrix( -1, 0, 0, 1, 72,-0.05) ">
<use xlink:href="#Layer0_0_MEMBER_0_MEMBER_0_MEMBER_0_MEMBER_0_FILL"/>
</g>

<g transform="matrix( -0.5625, 0, 0, 0.5625, 33.8,46.5) ">
<g id="Camada_1"/>

<g id="Camada_3">
<g transform="matrix( 1, 0, 0, 1, 0,0) ">
<use xlink:href="#An_1F47C_SVG_Layer_1__Clip_Group__2_0_0_Layer1_0_FILL"/>
</g>
</g>

<g id="Camada_4"/>
</g>

<g transform="matrix( -0.5625, 0, 0, 0.5625, 33.8,46.5) ">
<g transform="matrix( 1, 0, 0, 1, 0,0) ">
<use xlink:href="#An_1F47C_SVG_Layer_1__Clip_Group__1_0_0_Layer1_0_FILL"/>
</g>
</g>

<g transform="matrix( -0.5625, 0, 0, 0.5625, 33.8,46.5) ">
<g transform="matrix( 1, 0, 0, 1, 0,0) ">
<use xlink:href="#An_1F47C_SVG_Layer_1__Clip_Group__0_0_Layer1_0_FILL"/>
</g>
</g>

<g transform="matrix( 1, 0, 0, 1, 0,0) ">
<use xlink:href="#Layer0_0_MEMBER_0_MEMBER_1_MEMBER_0_MEMBER_0_FILL"/>
</g>

<g transform="matrix( 0.5625, 0, 0, 0.5625, 38.2,46.55) ">
<g transform="matrix( 1, 0, 0, 1, 0,0) ">
<use xlink:href="#An_1F47C_SVG_Layer_1__Clip_Group__2_0_0_Layer1_0_FILL"/>
</g>
</g>

<g transform="matrix( 0.5625, 0, 0, 0.5625, 38.2,46.55) ">
<g transform="matrix( 1, 0, 0, 1, 0,0) ">
<use xlink:href="#An_1F47C_SVG_Layer_1__Clip_Group__1_0_0_Layer1_0_FILL"/>
</g>
</g>

<g transform="matrix( 0.5625, 0, 0, 0.5625, 38.2,46.55) ">
<g transform="matrix( 1, 0, 0, 1, 0,0) ">
<use xlink:href="#An_1F47C_SVG_Layer_1__Clip_Group__0_0_Layer1_0_FILL"/>
</g>
</g>

<g transform="matrix( 0.509521484375, 0, 0, 0.509857177734375, 3.5,6.5) ">
<use xlink:href="#Layer0_0_MEMBER_1_MEMBER_0_MEMBER_0_MEMBER_0_FILL"/>
</g>

<g transform="matrix( 0.509521484375, 0, 0, 0.509857177734375, 3.5,6.5) ">
<use xlink:href="#Layer0_0_MEMBER_1_MEMBER_0_MEMBER_0_MEMBER_1_FILL"/>
</g>

<g transform="matrix( 0.509552001953125, 0, 0, 0.5099029541015625, 3.5,6.5) ">
<use xlink:href="#Layer0_0_MEMBER_1_MEMBER_0_MEMBER_1_FILL"/>
</g>

<g transform="matrix( 0.5625, 0, 0, 0.7158966064453125, 0.1,-12) ">
<use xlink:href="#Layer0_0_MEMBER_1_MEMBER_0_MEMBER_2_FILL"/>
</g>

<g transform="matrix( 0.509552001953125, 0, 0, 0.5099029541015625, 3.5,6.5) ">
<use xlink:href="#Layer0_0_MEMBER_1_MEMBER_0_MEMBER_3_FILL"/>
</g>

<g transform="matrix( 0.509552001953125, 0, 0, 0.5099029541015625, 3.5,6.5) ">
<use xlink:href="#Layer0_0_MEMBER_1_MEMBER_0_MEMBER_4_FILL"/>
</g>

<g transform="matrix( 0.509552001953125, 0, 0, 0.5099029541015625, 3.5,7.25) ">
<use xlink:href="#Layer0_0_MEMBER_1_MEMBER_0_MEMBER_5_FILL"/>
</g>

<g transform="matrix( 0.509552001953125, 0, 0, 0.5099029541015625, 3.5,7.25) ">
<use xlink:href="#Layer0_0_MEMBER_1_MEMBER_0_MEMBER_6_FILL"/>
</g>

<g transform="matrix( 0.4608001708984375, 0, 0, 0.4608001708984375, 6.55,2.65) ">
<use xlink:href="#Layer0_0_MEMBER_2_FILL"/>
</g>

<g transform="matrix( 1, 0, 0, 1, 0,0) ">
<use xlink:href="#Layer0_0_MEMBER_3_FILL"/>
</g>
</g>
</svg>
