
<svg xmlns="http://www.w3.org/2000/svg" version="1.1" xmlns:xlink="http://www.w3.org/1999/xlink" preserveAspectRatio="none" x="0px" y="0px" width="72px" height="72px" viewBox="0 0 72 72">
<defs>
<g id="Layer0_0_FILL">
<path fill="#B0BEC5" stroke="none" d="
M 66.65 40.5
Q 70.45 33.45 68.75 24.45 64.5 1.55 36 2.45 7.5 1.6 3.25 24.5 1.55 33.5 5.35 40.55 15.75 60.2 36 70.8 56.25 60.15 66.65 40.5 Z"/>
</g>

<g id="Layer0_1_FILL">
<path fill="#2F2F2F" stroke="none" d="
M 31 53.5
Q 22.9 52.8 18.95 57.35 14.95 62 16.6 70.35 18.3 78.95 24.6 83.65 31.15 88.6 40.5 89 49.05 89.3 51.8 86.1 54.7 82.75 53.2 74.7 51.5 65.65 44.95 59.6 39.05 54.2 31 53.5 Z"/>
</g>

<g id="Layer0_2_FILL">
<path fill="#2F2F2F" stroke="none" d="
M 103.1 83.65
Q 109.35 78.95 111.05 70.4 112.75 62 108.75 57.35 104.8 52.8 96.7 53.5 88.6 54.2 82.75 59.6 76.15 65.65 74.45 74.7 72.95 82.75 75.85 86.1 78.6 89.3 87.15 89 96.5 88.6 103.1 83.65 Z"/>
</g>

<g id="Layer0_3_FILL">
<path fill="#2F2F2F" stroke="none" d="
M 86.4 86.65
Q 87.35 85.7 87.3 84.35 87.3 83 86.35 82.05 85.35 81.1 84.05 81.1 82.7 81.15 81.75 82.1 79.95 83.85 76.95 85.45 70.95 88.6 63.85 88.6 56.8 88.6 50.8 85.45 46.15 82.25 46 82.1 45.05 81.15 43.7 81.1 42.4 81.1 41.4 82.05 40.45 83 40.4 84.35 40.4 85.65 41.35 86.65 41.55 86.8 47.45 91 55 95.1 63.85 95.1 72.7 95.1 80.3 91 84.15 88.9 86.4 86.65 Z"/>
</g>
</defs>

<g id="Layer_1">
<g transform="matrix( 1, 0, 0, 1, 0,0) ">
<use xlink:href="#Layer0_0_FILL"/>
</g>

<g transform="matrix( 0.5625, 0, 0, 0.5625, 0,-5.5) ">
<use xlink:href="#Layer0_1_FILL"/>
</g>

<g transform="matrix( 0.5625, 0, 0, 0.5625, 0,-5.5) ">
<use xlink:href="#Layer0_2_FILL"/>
</g>

<g transform="matrix( 0.449737548828125, 0, 0, 0.49053955078125, 7.3,9.95) ">
<use xlink:href="#Layer0_3_FILL"/>
</g>
</g>
</svg>
