
<svg xmlns="http://www.w3.org/2000/svg" version="1.1" xmlns:xlink="http://www.w3.org/1999/xlink" preserveAspectRatio="none" x="0px" y="0px" width="72px" height="72px" viewBox="0 0 72 72">
<defs>
<g id="Layer0_0_MEMBER_0_MEMBER_0_MEMBER_0_FILL">
<path fill="#E49500" stroke="none" d="
M 111.4 66.55
L 107.35 66.55 107.35 89.3
Q 112.7 89.3 116.2 86.6 120.2 83.45 120.2 77.6 120.2 71.65 115.8 68.5 114.45 67.55 112.8 66.95
L 111.4 66.55 Z"/>
</g>

<g id="Layer0_0_MEMBER_0_MEMBER_0_MEMBER_1_FILL">
<path fill="#E49500" stroke="none" d="
M 20.6 66.55
L 16.55 66.55
Q 16 66.65 15.2 66.95 13.55 67.55 12.15 68.5 7.75 71.65 7.75 77.6 7.75 83.45 11.8 86.6 15.25 89.3 20.6 89.3
L 20.6 66.55 Z"/>
</g>

<g id="Layer0_0_MEMBER_0_MEMBER_1_FILL">
<path fill="#FBC11B" stroke="none" d="
M 104 32.55
Q 96.95 22.2 87.15 17.75 77.95 13.55 64 13.55 50.05 13.55 40.85 17.75 31 22.25 24 32.55 18.9 40.1 17.25 51.9 15.7 62.95 17.4 76.1 19.05 88.7 22.4 96.3 26.1 104.6 33.6 111.15 45.65 121.65 63.3 121.65
L 64.65 121.65
Q 82.3 121.65 94.35 111.15 101.85 104.6 105.55 96.3 108.9 88.7 110.5 76.1 112.2 62.95 110.7 51.9 109.1 40.1 104 32.55 Z"/>
</g>

<g id="Layer0_0_MEMBER_0_MEMBER_2_FILL">
<path fill="#E49500" stroke="none" d="
M 58.75 90.2
Q 58.2 90.05 57.95 90.45 57.7 90.85 57.95 91.25 58.5 92.25 60 93.2 61.9 94.35 63.95 94.35 66 94.35 67.95 93.2 69.45 92.25 70 91.25 70.25 90.85 70 90.45 69.75 90.05 69.2 90.2 66.5 91 64 91 61.45 91 58.75 90.2 Z"/>
</g>

<g id="Layer0_0_MEMBER_0_MEMBER_3_FILL">
<path fill="#513F35" stroke="none" d="
M 64 106.65
Q 67.65 106.65 70.7 104.75 73.05 103.3 74.05 101.55 74.55 100.65 74.3 100.05 74.05 99.45 73.25 99.45
L 54.75 99.45
Q 53.95 99.45 53.7 100.05 53.45 100.65 53.95 101.55 54.95 103.3 57.3 104.75 60.35 106.65 64 106.65 Z"/>
</g>

<g id="Layer0_0_MEMBER_0_MEMBER_4_FILL">
<path fill="#FFA000" stroke="none" d="
M 75.65 8.5
Q 68.8 4.35 61.4 5.55 56.05 6.45 51.7 9.9 48.05 12.85 47.3 15.45 52.95 14.05 59.2 13.7 63.95 13.4 67.15 15.75 70.5 18.2 70.3 22.15 69.95 29.8 62.5 30.75 55.9 31.6 51.4 27.65 50.9 27.2 50.3 27.55 49.7 27.85 49.75 28.5 50 31 51.55 33.35 53.3 36.1 56.5 38.1 59.25 39.8 63.7 39.95 68.35 40.1 72.65 38.35 83.5 34 83.5 22.05 83.5 13.2 75.65 8.5 Z"/>
</g>

<g id="Layer0_0_MEMBER_0_MEMBER_5_FILL">
<path fill="#444444" stroke="none" d="
M 40.15 72.35
Q 38.45 74.35 38.45 77.2 38.45 80.1 40.15 82.1 41.8 84.1 44.2 84.1 46.55 84.1 48.25 82.1 49.9 80.05 49.9 77.2 49.9 74.35 48.25 72.35 46.55 70.3 44.2 70.3 41.8 70.3 40.15 72.35 Z"/>
</g>

<g id="Layer0_0_MEMBER_0_MEMBER_6_FILL">
<path fill="#444444" stroke="none" d="
M 87.85 72.35
Q 86.15 70.3 83.8 70.3 81.4 70.3 79.75 72.35 78.05 74.35 78.05 77.2 78.05 80.05 79.75 82.1 81.4 84.1 83.8 84.1 86.15 84.1 87.85 82.1 89.5 80.1 89.5 77.2 89.5 74.35 87.85 72.35 Z"/>
</g>
</defs>

<g id="Layer_1">
<g transform="matrix( 0.5624847412109375, 0, 0, 0.5624847412109375, 0,0) ">
<use xlink:href="#Layer0_0_MEMBER_0_MEMBER_0_MEMBER_0_FILL"/>
</g>

<g transform="matrix( 0.5624847412109375, 0, 0, 0.5624847412109375, 0,0) ">
<use xlink:href="#Layer0_0_MEMBER_0_MEMBER_0_MEMBER_1_FILL"/>
</g>

<g transform="matrix( 0.5625, 0, 0, 0.5625, 0,0) ">
<use xlink:href="#Layer0_0_MEMBER_0_MEMBER_1_FILL"/>
</g>

<g transform="matrix( 0.5625, 0, 0, 0.5625, 0,0) ">
<use xlink:href="#Layer0_0_MEMBER_0_MEMBER_2_FILL"/>
</g>

<g transform="matrix( 0.5625, 0, 0, 0.5625, 0,0) ">
<use xlink:href="#Layer0_0_MEMBER_0_MEMBER_3_FILL"/>
</g>

<g transform="matrix( 0.5625, 0, 0, 0.5625, 0,0) ">
<use xlink:href="#Layer0_0_MEMBER_0_MEMBER_4_FILL"/>
</g>

<g transform="matrix( 0.5625, 0, 0, 0.5625, 0,0.75) ">
<use xlink:href="#Layer0_0_MEMBER_0_MEMBER_5_FILL"/>
</g>

<g transform="matrix( 0.5625, 0, 0, 0.5625, 0,0.75) ">
<use xlink:href="#Layer0_0_MEMBER_0_MEMBER_6_FILL"/>
</g>
</g>
</svg>
