
<svg xmlns="http://www.w3.org/2000/svg" version="1.1" xmlns:xlink="http://www.w3.org/1999/xlink" preserveAspectRatio="none" x="0px" y="0px" width="72px" height="72px" viewBox="0 0 72 72">
<defs>
<g id="Layer0_0_FILL">
<path fill="#FCC21B" stroke="none" d="
M 127.55 92.35
Q 127.55 65.35 119.05 45.3 103.45 8.65 63.75 8.65 24.1 8.65 8.5 45.3 0 65.35 0 92.35 0 102.75 18.7 110.05 37.35 117.4 63.75 117.4 90.2 117.4 108.85 110.05 127.55 102.75 127.55 92.35 Z"/>
</g>

<g id="Layer0_1_FILL">
<path fill="#2F2F2F" stroke="none" d="
M 86.4 86.65
Q 87.35 85.7 87.3 84.35 87.3 83 86.35 82.05 85.35 81.1 84.05 81.1 82.7 81.15 81.75 82.1 79.95 83.85 76.95 85.45 70.95 88.6 63.85 88.6 56.8 88.6 50.8 85.45 46.15 82.25 46 82.1 45.05 81.15 43.7 81.1 42.4 81.1 41.4 82.05 40.45 83 40.4 84.35 40.4 85.65 41.35 86.65 41.55 86.8 47.45 91 55 95.1 63.85 95.1 72.7 95.1 80.3 91 84.15 88.9 86.4 86.65 Z"/>
</g>

<g id="Layer0_3_MEMBER_0_FILL">
<path fill="#2F2F2F" stroke="none" d="
M 117.9 42.8
Q 106.55 41.35 98.2 41.35 89.9 41.35 84.8 42.55 79.95 44.1 76.8 44.75 72.9 45.55 68.05 45.9
L 64 46.05
Q 57.4 46.05 51.15 44.7 46 43.2 43.1 42.55 38 41.35 29.75 41.35 21.4 41.35 10.05 42.8 4.4 43.55 0.4 44.25
L 0.4 52.75 2.25 53.4
Q 4.1 54.45 4.3 56.5 4.35 56.85 4.3 61.5 4.55 66.85 6.15 71.2 11.15 84.85 27.8 84.85 40.65 84.85 48.65 78.05 54.95 72.7 57.25 64.3 58.6 59.45 59.35 58 61 54.95 64 54.95 66.95 54.95 68.6 58 69.45 59.55 70.7 64.3 73.05 72.75 79.3 78.05 87.3 84.85 100.15 84.85 116.85 84.85 121.85 71.15 123.4 66.85 123.65 61.5 123.6 56.85 123.65 56.5 123.85 54.45 125.75 53.4 126.7 52.85 127.6 52.75
L 127.6 44.25
Q 123.55 43.55 117.9 42.8 Z"/>
</g>

<g id="Layer0_3_MEMBER_1_FILL">
<path fill="#707070" stroke="none" d="
M 97.25 45.45
Q 96.75 45.05 95.9 45.05 91.8 45.2 87.6 45.8
L 84.25 46.4
Q 77.6 47.8 75.35 51.85 73.75 54.75 74.35 59.35 76 71.95 84.4 77.85 84.95 78.25 85.55 78.2 86.35 78.1 86.75 77.1 90.15 60.85 97.5 47.2 97.9 46 97.25 45.45 Z"/>
</g>

<g id="Layer0_3_MEMBER_2_FILL">
<path fill="#707070" stroke="none" d="
M 32.3 45.5
Q 31.8 45.05 31.05 45.05 23.45 44.85 17.4 46.4 13.6 47.35 11.9 49.5 10.2 51.6 9.8 55.75 9.1 62.65 10.25 68.1 12.1 76.9 18.5 80.25 19.1 80.55 19.75 80.45 20.55 80.25 20.95 79.3 23.5 68.4 25.3 63.2 27.7 56.25 32.5 47.25 32.9 46.1 32.3 45.5 Z"/>
</g>
</defs>

<g id="Layer_1">
<g transform="matrix( 0.5625, 0, 0, 0.5625, 0,0) ">
<use xlink:href="#Layer0_0_FILL"/>
</g>

<g transform="matrix( 0.490020751953125, 0, 0, 0.42559814453125, 4.7,14.2) ">
<use xlink:href="#Layer0_1_FILL"/>
</g>

<g transform="matrix( 0.52728271484375, 0, 0, 0.52728271484375, 2.25,1.1) ">
<use xlink:href="#Layer0_3_MEMBER_0_FILL"/>
</g>

<g transform="matrix( 0.52728271484375, 0, 0, 0.52728271484375, 2.25,1.1) ">
<use xlink:href="#Layer0_3_MEMBER_1_FILL"/>
</g>

<g transform="matrix( 0.52728271484375, 0, 0, 0.52728271484375, 2.25,1.1) ">
<use xlink:href="#Layer0_3_MEMBER_2_FILL"/>
</g>
</g>
</svg>
