
<svg xmlns="http://www.w3.org/2000/svg" version="1.1" xmlns:xlink="http://www.w3.org/1999/xlink" preserveAspectRatio="none" x="0px" y="0px" width="72px" height="72px" viewBox="0 0 72 72">
<defs>
<g id="Layer0_0_FILL">
<path fill="#FCC21B" stroke="none" d="
M 127.2 93.45
Q 127.2 66.4 118.75 46.25 103.3 9.5 64 9.5 24.65 9.5 9.2 46.25 0.75 66.4 0.75 93.45 0.75 103.85 19.25 111.2 37.8 118.55 64 118.55 90.15 118.55 108.7 111.2 127.2 103.85 127.2 93.45 Z"/>
</g>

<g id="Layer0_1_FILL">
<path fill="#D7598B" stroke="none" d="
M 100.75 74.15
L 82.15 94
Q 85.35 93.9 88.6 95.8 90.2 96.7 94.15 99.8 101 105.25 106.15 103.75 109 103 111.4 100.4 113.7 97.95 114.45 94.9 116.45 87.4 110.25 80.05 107.85 77.15 105.05 75.45 102.35 73.85 100.75 74.15 Z"/>
</g>

<g id="Layer0_2_MEMBER_0_FILL">
<path fill="#2F2F2F" stroke="none" d="
M 87.5 91.7
Q 97.9 84.95 101.7 74.05 102.1 72.9 101.55 71.75 101 70.6 99.85 70.2 98.7 69.8 97.6 70.35 96.45 70.9 96.05 72.05 92.85 81.15 84 86.8 75.15 92.4 64 92.4 62.75 92.4 61.85 93.3 61 94.15 61 95.4 61 96.65 61.85 97.5 62.75 98.4 64 98.4 77.1 98.4 87.5 91.7 Z"/>
</g>

<g id="Layer0_2_MEMBER_1_FILL">
<path fill="#2F2F2F" stroke="none" d="
M 31.9 72.05
Q 31.5 70.9 30.35 70.35 29.25 69.8 28.05 70.2 26.9 70.6 26.35 71.75 25.85 72.85 26.25 74.05 30.1 84.95 40.5 91.7 50.9 98.4 64 98.4 65.25 98.4 66.1 97.5 67 96.65 67 95.4 67 94.15 66.1 93.3 65.25 92.4 64 92.4 52.8 92.4 43.95 86.8 35.1 81.2 31.9 72.05 Z"/>
</g>

<g id="Layer0_3_MEMBER_0_FILL">
<path fill="#2F2F2F" stroke="none" d="
M 51.3 48.95
Q 46.6 45.25 40.5 45.25 34.4 45.25 29.75 48.95 27.4 50.8 26.15 52.85 25.6 53.85 25.85 54.9 26.15 56 27.1 56.55 28.05 57.15 29.15 56.85 30.25 56.6 30.8 55.65 31.65 54.3 33.25 53.1 36.4 50.7 40.5 50.7 44.6 50.7 47.75 53.1 49.35 54.3 50.2 55.65 50.95 56.95 52.5 56.95 53.35 56.95 53.9 56.6 54.9 56.05 55.15 54.95 55.45 53.85 54.9 52.85 53.65 50.8 51.3 48.95 Z"/>
</g>

<g id="Layer0_3_MEMBER_1_FILL">
<path fill="#2F2F2F" stroke="none" d="
M 98.25 48.95
Q 93.6 45.25 87.45 45.25 81.35 45.25 76.7 48.95 73.2 52.7 73.1 52.85 72.5 53.8 72.8 54.9 73.05 56 74.05 56.55 75 57.15 76.1 56.85 77.2 56.6 77.75 55.6 77.8 55.6 80.1 53.15 83.25 50.7 87.45 50.7 91.6 50.7 94.7 53.1 96.3 54.3 97.1 55.6 98 56.95 99.5 56.95 100.25 56.95 100.85 56.55 101.85 56 102.1 54.9 102.4 53.8 101.8 52.85 100.6 50.8 98.25 48.95 Z"/>
</g>
</defs>

<g id="Layer_1">
<g transform="matrix( 0.5625, 0, 0, 0.5625, 0,0) ">
<use xlink:href="#Layer0_0_FILL"/>
</g>

<g transform="matrix( 0.5625, 0, 0, 0.5625, 0,0) ">
<use xlink:href="#Layer0_1_FILL"/>
</g>

<g transform="matrix( 0.5625, 0, 0, 0.5625, 0,0) ">
<use xlink:href="#Layer0_2_MEMBER_0_FILL"/>
</g>

<g transform="matrix( 0.5625, 0, 0, 0.5625, 0,0) ">
<use xlink:href="#Layer0_2_MEMBER_1_FILL"/>
</g>

<g transform="matrix( 0.5625, 0, 0, 0.5625, 0,0) ">
<use xlink:href="#Layer0_3_MEMBER_0_FILL"/>
</g>

<g transform="matrix( 0.5625, 0, 0, 0.5625, 0,0) ">
<use xlink:href="#Layer0_3_MEMBER_1_FILL"/>
</g>
</g>
</svg>
