
<svg xmlns="http://www.w3.org/2000/svg" version="1.1" xmlns:xlink="http://www.w3.org/1999/xlink" preserveAspectRatio="none" x="0px" y="0px" width="72px" height="72px" viewBox="0 0 72 72">
<defs>
<g id="Layer0_0_MEMBER_0_MEMBER_0_FILL">
<path fill="#BA68C8" stroke="none" d="
M 105.9 5.2
Q 104.5 3.8 102.35 3.1 99.6 2.2 98.45 3.75 97.85 4.6 98.35 6.65 98.6 7.75 99.15 9.65 99.9 14.8 98.4 20.35 96.85 26 93.55 29.9 92.25 31.45 88.3 34.55 84.95 37.2 83.9 40.2 82.3 44.75 85.85 49.8 88.25 53.2 92 55.1 96.15 57.2 99.95 56.35 104.4 55.4 108.1 51.5 111.45 48 113.1 43.3 116.65 32.75 114.15 21.25 112.05 11.25 105.9 5.2 Z"/>
</g>

<g id="Layer0_0_MEMBER_0_MEMBER_1_FILL">
<path fill="#BA68C8" stroke="none" d="
M 43 49
Q 46.6 43.85 45 39.35 43.85 36.25 40.55 33.7 36.7 30.7 35.3 29.1 32 25.15 30.5 19.55 29 13.95 29.75 8.8 30.3 6.9 30.55 5.8 31.05 3.75 30.45 2.95 29.3 1.35 26.6 2.25 24.35 3 23 4.4 16.9 10.4 14.75 20.45 12.25 31.9 15.8 42.45 17.45 47.15 20.8 50.7 24.5 54.55 28.95 55.55 32.75 56.4 36.9 54.3 40.6 52.4 43 49 Z"/>
</g>

<g id="Layer0_0_MEMBER_1_MEMBER_0_FILL">
<path fill="#BA68C8" stroke="none" d="
M 64.45 24.85
Q 27.3 24.85 12.7 59.15 4.75 77.9 4.75 103.2 4.75 112.9 22.25 119.75 39.75 126.6 64.45 126.6 89.15 126.6 106.65 119.75 124.15 112.9 124.15 103.2 124.15 77.95 116.15 59.15 101.6 24.85 64.45 24.85 Z"/>
</g>

<g id="Layer0_1_MEMBER_0_MEMBER_0_FILL">
<path fill="#2F2F2F" stroke="none" d="
M 28.6 49.1
Q 31.95 47.05 32.4 44.5
L 13.1 38.75
Q 12.5 42.05 14 45.25 16 49.5 21.15 50.55 25 51.35 28.6 49.1 Z"/>
</g>

<g id="An_1F608_svg_Layer_1__Clip_Group__0_Layer1_0_FILL">
<path fill="#FBB817" stroke="none" d="
M 24.75 13.1
Q 27.9103515625 10.871484375 28.55 8.45
L 6.9 2
Q 6.2880859375 5.0501953125 7.7 8.6 9.85 14.05 15.95 15.25 20.45 16.15 24.75 13.1 Z"/>
</g>

<g id="Layer0_2_MEMBER_0_MEMBER_0_FILL">
<path fill="#2F2F2F" stroke="none" d="
M 13.1 38.75
Q 12.5 42.05 14 45.25 16 49.5 21.15 50.55 25 51.35 28.6 49.1 31.95 47.05 32.4 44.5
L 13.1 38.75 Z"/>
</g>

<g id="Layer0_3_FILL">
<path fill="#2F2F2F" stroke="none" d="
M 86.45 98.8
Q 85.45 98.15 84.3 98.4 83.15 98.65 82.55 99.6 81.1 101.75 78.1 103.75 72.1 107.75 64.1 107.3 56.05 106.85 50.5 103.45 46.45 100.05 46.3 99.85 45.6 98.9 44.5 98.7 43.35 98.5 42.4 99.15 41.45 99.8 41.2 100.95 41 102.15 41.65 103.1 42.15 103.85 43 104.65 44.65 106.35 46.85 107.85 53.8 112.4 63.75 113
L 65.7 113.05
Q 74.95 113.05 81.9 108.05 85.4 105.5 87.25 102.7 87.9 101.75 87.7 100.6 87.45 99.45 86.45 98.8 Z"/>
</g>
</defs>

<g id="Layer_1">
<g transform="matrix( 0.5625, 0, 0, 0.5625, -0.25,0) ">
<use xlink:href="#Layer0_0_MEMBER_0_MEMBER_0_FILL"/>
</g>

<g transform="matrix( 0.5625, 0, 0, 0.5625, -0.25,0) ">
<use xlink:href="#Layer0_0_MEMBER_0_MEMBER_1_FILL"/>
</g>

<g transform="matrix( 0.5625, 0, 0, 0.5625, -0.25,0) ">
<use xlink:href="#Layer0_0_MEMBER_1_MEMBER_0_FILL"/>
</g>

<g transform="matrix( -0.9962005615234375, -0.087158203125, -0.087158203125, 0.9962005615234375, 75.85,2.1) ">
<use xlink:href="#Layer0_1_MEMBER_0_MEMBER_0_FILL"/>
</g>

<g transform="matrix( -0.5603485107421875, -0.0490264892578125, -0.0490264892578125, 0.5603485107421875, 59.6,39.55) ">
<g id="Camada_1"/>

<g transform="matrix( 1, 0, 0, 1, 0,0) ">
<use xlink:href="#An_1F608_svg_Layer_1__Clip_Group__0_Layer1_0_FILL"/>
</g>

<g id="Camada_4"/>
</g>

<g transform="matrix( 0.9962005615234375, -0.087158203125, 0.087158203125, 0.9962005615234375, -3.8,2.1) ">
<use xlink:href="#Layer0_2_MEMBER_0_MEMBER_0_FILL"/>
</g>

<g transform="matrix( 0.5603485107421875, -0.0490264892578125, 0.0490264892578125, 0.5603485107421875, 12.45,39.5) ">
<g transform="matrix( 1, 0, 0, 1, 0,0) ">
<use xlink:href="#An_1F608_svg_Layer_1__Clip_Group__0_Layer1_0_FILL"/>
</g>
</g>

<g transform="matrix( 0.5625, 0, 0, 0.5625, -0.25,0) ">
<use xlink:href="#Layer0_3_FILL"/>
</g>
</g>
</svg>
