
<svg xmlns="http://www.w3.org/2000/svg" version="1.1" xmlns:xlink="http://www.w3.org/1999/xlink" preserveAspectRatio="none" x="0px" y="0px" width="72px" height="72px" viewBox="0 0 72 72">
<defs>
<g id="Layer0_0_FILL">
<path fill="#FCC21B" stroke="none" d="
M 127.75 93.35
Q 127.75 66.35 119.25 46.35 103.65 9.7 64 9.7 24.3 9.65 8.7 46.3 0.2 66.35 0.2 93.35 0.2 103.75 18.9 111.05 37.55 118.4 64 118.4 90.4 118.4 109.1 111.05 127.75 103.75 127.75 93.35 Z"/>
</g>

<g id="Layer0_1_FILL">
<path fill="#2F2F2F" stroke="none" d="
M 96.15 52.4
Q 95.3 53.75 93.7 54.95 90.6 57.35 86.45 57.35 82.35 57.35 79.2 54.95 76.85 52.5 76.75 52.35 76 51.05 74.45 51.05 73.75 51.05 73.05 51.45 72.1 52 71.8 53.1 71.5 54.2 72.05 55.15 72.15 55.3 75.65 59.1 80.35 62.8 86.45 62.8 92.6 62.8 97.25 59.1 99.6 57.25 100.85 55.15 101.4 54.2 101.1 53.1 100.85 52.05 99.85 51.45 98.9 50.9 97.8 51.15 96.7 51.45 96.15 52.4 Z"/>
</g>

<g id="Layer0_2_FILL">
<path fill="#2F2F2F" stroke="none" d="
M 28.1 51.45
Q 27.15 52 26.85 53.1 26.55 54.2 27.1 55.15 27.2 55.35 30.7 59.1 35.35 62.8 41.5 62.8 47.65 62.8 52.3 59.1 55.15 56.85 55.85 55.15 56.45 54.2 56.15 53.1 55.9 52 54.9 51.45 53.95 50.85 52.85 51.15 51.75 51.4 51.2 52.4 50.45 53.65 48.85 54.9 45.7 57.35 41.5 57.35 37.35 57.35 34.25 54.95 31.9 52.5 31.85 52.4 31 51.05 29.45 51.05 28.8 51.05 28.1 51.45 Z"/>
</g>

<g id="Layer0_3_FILL">
<path fill="#2F2F2F" stroke="none" d="
M 48.55 47.85
Q 48.45 47.8 45.1 45.4 40.85 43.1 35.9 43.1 30.9 43.1 26.65 45.4 24.45 46.6 23.2 47.85 22.65 48.4 22.7 49.15 22.7 49.9 23.25 50.45 23.8 51 24.5 51 25.3 50.95 25.8 50.4 26.85 49.45 28.5 48.55 31.9 46.75 35.9 46.75 39.85 46.75 43.25 48.55 45.85 50.35 45.95 50.4 46.45 50.95 47.2 51 47.95 51 48.5 50.45 49.05 49.9 49.1 49.15 49.1 48.4 48.55 47.85 Z"/>
</g>
</defs>

<g id="Layer_1">
<g transform="matrix( 0.5625, 0, 0, 0.5625, 0,0) ">
<use xlink:href="#Layer0_0_FILL"/>
</g>

<g transform="matrix( 0.543304443359375, 0.14556884765625, -0.14556884765625, 0.543304443359375, 9.95,-6.95) ">
<use xlink:href="#Layer0_1_FILL"/>
</g>

<g transform="matrix( 0.543304443359375, -0.14556884765625, 0.14556884765625, 0.543304443359375, -7.45,11.6) ">
<use xlink:href="#Layer0_2_FILL"/>
</g>

<g transform="matrix( 1, 0, 0, 1, 0.1,2.15) ">
<use xlink:href="#Layer0_3_FILL"/>
</g>
</g>
</svg>
