
<svg xmlns="http://www.w3.org/2000/svg" version="1.1" xmlns:xlink="http://www.w3.org/1999/xlink" preserveAspectRatio="none" x="0px" y="0px" width="72px" height="72px" viewBox="0 0 72 72">
<defs>
<filter id="Filter_1" x="-20%" y="-20%" width="140%" height="140%" color-interpolation-filters="sRGB">
<feColorMatrix in="SourceGraphic" type="matrix" values="1 0 0 0 0 0 1 0 0 0 0 0 1 0 0 0 0 0 0.5 0" result="result1"/>
</filter>

<filter id="Filter_2" x="-20%" y="-20%" width="140%" height="140%" color-interpolation-filters="sRGB">
<feColorMatrix in="SourceGraphic" type="matrix" values="1 0 0 0 0 0 1 0 0 0 0 0 1 0 0 0 0 0 0.3 0" result="result1"/>
</filter>

<g id="Layer0_0_FILL">
<path fill="#FAC036" stroke="none" d="
M 88.8 16.1
Q 88.95 12.75 86.75 10.55 84.7 8.45 81.65 8.5 78.65 8.55 76.95 10.9 75.5 13.05 75.4 16.4
L 74.95 54.5
Q 74.95 55.5 74.35 55.85
L 73.7 56
Q 72.3 56 72.3 54.3 72.25 41.9 72.4 9.9 72.35 6.45 70.4 4.2 68.45 2 65.5 2 62.55 2 60.5 4.5 58.45 7 58.45 10.4
L 57.95 55.5
Q 57.85 57.05 56.5 56.85 55.2 56.7 55.2 55.15
L 55.3 18.95
Q 55 15.4 52.9 13.7 50.9 12.15 47.9 12.5 45.2 12.8 43.6 15.4 42.15 17.7 41.9 21.2 41.85 21.95 41.4 40.8 40.95 59.85 40.75 63.15
L 40.65 70.7
Q 40.4 79 39.95 82.55 39.75 83.9 38.25 83.95 36.7 83.95 36.25 82.65
L 36.55 61.55
Q 36.45 56 34.25 53.2 31.7 49.9 26.55 50.55 24.2 50.85 22.3 53.35 19.95 56.5 20.05 61.55
L 19.95 73.95
Q 20.1 87.75 21.05 94.75
L 21.9 98.4 24.65 104.2
Q 28.25 110.8 32.8 114.8 39.45 120.55 45.5 122.35 46.9 122.8 49.8 123.7 52.4 124.55 54.3 124.9 59.35 125.85 64 126 66.8 126.1 69.05 125.95
L 74.05 125.6
Q 79.55 124.95 84.2 123 89.25 120.8 92.9 117.4 96.35 114.1 98.65 109.75 100.15 106.9 101.55 102 103.1 96.55 104.1 85.35
L 104.85 75.25
Q 104.95 73 105.15 31 104.65 23.4 98.55 23.1 95.25 22.95 93.5 25.05 92.3 26.4 91.9 28.6 91.7 29.5 91.6 42.9 91.55 49.6 91.5 56.1 91.5 56.5 91.3 56.9 90.95 57.7 90.05 57.7 89.2 57.7 88.8 57
L 88.6 56.3 88.8 16.1 Z"/>
</g>

<g id="An_1F91A_SVG_Layer_1__Path__7_0_Layer0_0_FILL">
<path fill="#E48C15" stroke="none" d="
M 0.75 2
Q 0.25 3 0 4 0.2 4.5 0.65 5 1.6 6 3 6 4.4 6 5.35 5 5.8 4.5 6 4 5.75 3 5.25 2 4.25 0 3 0 1.75 0 0.75 2 Z"/>
</g>

<g id="An_1F91A_SVG_Layer_1__Path__6_0_Layer0_0_FILL">
<path fill="#E48C15" stroke="none" d="
M 0.75 2
Q 0.25 3 0 4 0.2 4.5 0.65 5 1.6 6 3 6 4.4 6 5.35 5 5.8 4.5 6 4 5.75 3 5.25 2 4.25 0 3 0 1.75 0 0.75 2 Z"/>
</g>

<g id="An_1F91A_SVG_Layer_1__Path__5_0_Layer0_0_FILL">
<path fill="#E48C15" stroke="none" d="
M 1 2.7
Q 0.35 4 0 5.35 0.25 6 0.9 6.7 2.15 8 4 8 5.9 8 7.15 6.7 7.75 6 8 5.35 7.7 4 7 2.7 5.7 0 4 0 2.35 0 1 2.7 Z"/>
</g>

<g id="An_1F91A_SVG_Layer_1__Path__4_0_Layer0_0_FILL">
<path fill="#E48C15" stroke="none" d="
M 0.9 2.35
Q 0.3 3.55 0 4.7 0.25 5.3 0.8 5.85 1.9 7 3.5 7 5.15 7 6.25 5.85 6.8 5.3 7 4.7 6.7 3.55 6.15 2.35 4.95 0 3.5 0 2.05 0 0.9 2.35 Z"/>
</g>

<g id="An_1F91A_SVG_Layer_1__Path__3_0_Layer0_0_FILL">
<path fill="#E48C15" stroke="none" d="
M 0.75 1
Q 0.25 1.5 0 2 0.75 3 3 3 5.25 3 6 2 5.75 1.5 5.25 1 4.25 0 3 0 1.75 0 0.75 1 Z"/>
</g>

<g id="An_1F91A_SVG_Layer_1__Path__2_0_Layer0_0_FILL">
<path fill="#E48C15" stroke="none" d="
M 0.75 1
Q 0.25 1.5 0 2 0.75 3 3 3 5.25 3 6 2 5.75 1.5 5.25 1 4.25 0 3 0 1.75 0 0.75 1 Z"/>
</g>

<g id="An_1F91A_SVG_Layer_1__Path__1_0_Layer0_0_FILL">
<path fill="#E48C15" stroke="none" d="
M 0.75 1
Q 0.25 1.5 0 2 0.75 3 3 3 5.25 3 6 2 5.75 1.5 5.25 1 4.25 0 3 0 1.75 0 0.75 1 Z"/>
</g>

<g id="An_1F91A_SVG_Layer_1__Path__0_Layer0_0_FILL">
<path fill="#E48C15" stroke="none" d="
M 0.75 1
Q 0.25 1.5 0 2 0.75 3 3 3 5.25 3 6 2 5.75 1.5 5.25 1 4.25 0 3 0 1.75 0 0.75 1 Z"/>
</g>
</defs>

<g id="Layer_1">
<g transform="matrix( 0.5625, 0, 0, 0.5625, 0,0) ">
<use xlink:href="#Layer0_0_FILL"/>
</g>

<g transform="matrix( 0.5625, 0, 0, 0.5625, 25.3,34.3) ">
<g id="Camada_1">
<g transform="matrix( 1, 0, 0, 1, 0,0) ">
<use filter="url(#Filter_1)" xlink:href="#An_1F91A_SVG_Layer_1__Path__7_0_Layer0_0_FILL"/>
</g>
</g>
</g>

<g transform="matrix( 0.5625, 0, 0, 0.5625, 53.45,36) ">
<g transform="matrix( 1, 0, 0, 1, 0,0) ">
<use filter="url(#Filter_1)" xlink:href="#An_1F91A_SVG_Layer_1__Path__6_0_Layer0_0_FILL"/>
</g>
</g>

<g transform="matrix( 0.5625, 0, 0, 0.5625, 34.3,32.6) ">
<g transform="matrix( 1, 0, 0, 1, 0,0) ">
<use filter="url(#Filter_1)" xlink:href="#An_1F91A_SVG_Layer_1__Path__5_0_Layer0_0_FILL"/>
</g>
</g>

<g transform="matrix( 0.5625, 0, 0, 0.5625, 43.9,33.75) ">
<g transform="matrix( 1, 0, 0, 1, 0,0) ">
<use filter="url(#Filter_1)" xlink:href="#An_1F91A_SVG_Layer_1__Path__4_0_Layer0_0_FILL"/>
</g>
</g>

<g transform="matrix( 0.5625, 0, 0, 0.5625, 54,24.15) ">
<g transform="matrix( 1, 0, 0, 1, 0,0) ">
<use filter="url(#Filter_2)" xlink:href="#An_1F91A_SVG_Layer_1__Path__3_0_Layer0_0_FILL"/>
</g>
</g>

<g transform="matrix( 0.5625, 0, 0, 0.5625, 44.45,20.25) ">
<g transform="matrix( 1, 0, 0, 1, 0,0) ">
<use filter="url(#Filter_2)" xlink:href="#An_1F91A_SVG_Layer_1__Path__2_0_Layer0_0_FILL"/>
</g>
</g>

<g transform="matrix( 0.5625, 0, 0, 0.5625, 34.9,19.65) ">
<g transform="matrix( 1, 0, 0, 1, 0,0) ">
<use filter="url(#Filter_2)" xlink:href="#An_1F91A_SVG_Layer_1__Path__1_0_Layer0_0_FILL"/>
</g>
</g>

<g transform="matrix( 0.5625, 0, 0, 0.5625, 25.3,22.5) ">
<g transform="matrix( 1, 0, 0, 1, 0,0) ">
<use filter="url(#Filter_2)" xlink:href="#An_1F91A_SVG_Layer_1__Path__0_Layer0_0_FILL"/>
</g>
</g>
</g>
</svg>
