
<svg xmlns="http://www.w3.org/2000/svg" version="1.1" xmlns:xlink="http://www.w3.org/1999/xlink" preserveAspectRatio="none" x="0px" y="0px" width="72px" height="72px" viewBox="0 0 72 72">
<defs>
<g id="Layer0_0_FILL">
<path fill="#FCC21B" stroke="none" d="
M 127.55 92.35
Q 127.55 65.4 119 45.3 103.4 8.65 63.75 8.65 24.1 8.65 8.55 45.3 0 65.4 0 92.35 0 102.7 18.7 110.05 37.4 117.35 63.75 117.35 90.2 117.35 108.85 110.05 127.55 102.7 127.55 92.35 Z"/>
</g>

<g id="Layer0_1_MEMBER_0_MEMBER_0_FILL">
<path fill="#FCC21B" stroke="none" d="
M 109.5 85.95
Q 116.65 83.35 119.85 76.55 123.05 69.8 120.4 62.8 117.85 55.8 111 52.6 104.15 49.45 97 52 89.9 54.6 86.7 61.4 83.5 68.15 86.05 75.1 88.65 82.15 95.5 85.35 102.35 88.5 109.5 85.95 Z"/>
</g>

<g id="Layer0_1_MEMBER_0_MEMBER_1_FILL">
<path fill="#FCC01C" stroke="none" d="
M 109.3 85.35
Q 116.1 82.85 119.2 76.3 122.25 69.75 119.8 63 117.25 56.25 110.65 53.25 104 50.2 97.2 52.65 90.4 55.15 87.3 61.65 84.25 68.2 86.7 74.95 89.25 81.75 95.85 84.8 102.5 87.85 109.3 85.35 Z"/>
</g>

<g id="Layer0_1_MEMBER_0_MEMBER_2_FILL">
<path fill="#FCBE1C" stroke="none" d="
M 109.05 84.6
Q 115.65 82.25 118.6 76 121.6 69.75 119.15 63.2 116.75 56.65 110.4 53.75 104.05 50.8 97.45 53.2 90.85 55.5 87.9 61.8 84.95 68.1 87.35 74.6 89.75 81.15 96.1 84.05 102.45 87 109.05 84.6 Z"/>
</g>

<g id="Layer0_1_MEMBER_0_MEMBER_3_FILL">
<path fill="#FBBB1D" stroke="none" d="
M 108.8 84
Q 115.15 81.75 118 75.75 120.8 69.75 118.5 63.45 116.15 57.2 110.05 54.4 103.95 51.6 97.65 53.85 91.35 56.2 88.55 62.2 85.7 68.2 88 74.45 90.3 80.75 96.4 83.5 102.5 86.25 108.8 84 Z"/>
</g>

<g id="Layer0_1_MEMBER_0_MEMBER_4_FILL">
<path fill="#FBB91E" stroke="none" d="
M 108.55 83.45
Q 114.6 81.25 117.35 75.45 120.1 69.65 117.9 63.75 115.75 57.75 109.9 55.05 104.05 52.35 98 54.55 91.9 56.7 89.2 62.5 86.45 68.25 88.65 74.25 90.8 80.25 96.65 82.95 102.5 85.65 108.55 83.45 Z"/>
</g>

<g id="Layer0_1_MEMBER_0_MEMBER_5_FILL">
<path fill="#FBB71E" stroke="none" d="
M 108.4 82.7
Q 114.15 80.7 116.75 75.15 119.35 69.6 117.3 63.9 115.1 58.2 109.55 55.6 103.95 53 98.2 55.1 92.4 57.2 89.8 62.7 87.2 68.2 89.3 73.9 91.45 79.65 97.05 82.25 102.6 84.8 108.4 82.7 Z"/>
</g>

<g id="Layer0_1_MEMBER_0_MEMBER_6_FILL">
<path fill="#FBB51F" stroke="none" d="
M 108.05 82.1
Q 113.65 80.15 116.15 74.9 118.6 69.6 116.55 64.1 114.55 58.65 109.2 56.2 103.85 53.75 98.35 55.7 92.8 57.75 90.3 63 87.85 68.25 89.85 73.7 91.85 79.15 97.2 81.6 102.5 84.05 108.05 82.1 Z"/>
</g>

<g id="Layer0_1_MEMBER_0_MEMBER_7_FILL">
<path fill="#FAB220" stroke="none" d="
M 107.9 81.5
Q 113.15 79.6 115.5 74.6 117.9 69.65 116 64.45 114.05 59.2 109 56.9 103.95 54.55 98.7 56.45 93.45 58.3 91.1 63.35 88.7 68.3 90.6 73.5 92.45 78.7 97.55 81.05 102.6 83.4 107.9 81.5 Z"/>
</g>

<g id="Layer0_1_MEMBER_0_MEMBER_8_FILL">
<path fill="#FAB020" stroke="none" d="
M 107.65 80.85
Q 112.6 79.05 114.85 74.3 117.1 69.6 115.35 64.65 113.55 59.7 108.75 57.5 103.9 55.25 98.95 57.05 93.95 58.85 91.7 63.6 89.45 68.3 91.25 73.25 93.05 78.2 97.85 80.45 102.65 82.65 107.65 80.85 Z"/>
</g>

<g id="Layer0_1_MEMBER_0_MEMBER_9_FILL">
<path fill="#FAAE21" stroke="none" d="
M 107.4 80.2
Q 112.1 78.5 114.25 74 116.4 69.45 114.7 64.8 113 60.1 108.4 58 103.85 55.85 99.1 57.6 94.35 59.35 92.25 63.9 90.1 68.4 91.8 73 93.5 77.7 98.05 79.85 102.65 81.95 107.4 80.2 Z"/>
</g>

<g id="Layer0_1_MEMBER_0_MEMBER_10_FILL">
<path fill="#FAAC22" stroke="none" d="
M 107.15 79.6
Q 111.6 78 113.6 73.75 115.6 69.55 114 65.25 112.35 60.85 108.05 58.85 103.75 56.85 99.3 58.45 94.85 60 92.85 64.25 90.85 68.5 92.5 72.95 94.1 77.25 98.4 79.2 102.75 81.2 107.15 79.6 Z"/>
</g>

<g id="Layer0_1_MEMBER_0_MEMBER_11_FILL">
<path fill="#F9A922" stroke="none" d="
M 107 78.95
Q 111.15 77.45 113.05 73.5 114.9 69.5 113.4 65.45 111.9 61.25 107.85 59.35 103.75 57.5 99.55 59 95.4 60.5 93.5 64.5 91.65 68.45 93.15 72.6 94.65 76.7 98.75 78.6 102.8 80.45 107 78.95 Z"/>
</g>

<g id="Layer0_1_MEMBER_0_MEMBER_12_FILL">
<path fill="#F9A723" stroke="none" d="
M 106.65 78.35
Q 110.65 76.95 112.4 73.2 114.15 69.45 112.65 65.65 111.25 61.75 107.45 60 103.65 58.25 99.75 59.65 95.85 61.05 94.1 64.8 92.35 68.55 93.75 72.45 95.2 76.25 99 78 102.8 79.75 106.65 78.35 Z"/>
</g>

<g id="Layer0_1_MEMBER_0_MEMBER_13_FILL">
<path fill="#F9A524" stroke="none" d="
M 106.5 77.7
Q 110.15 76.4 111.8 72.9 113.45 69.4 112.15 65.8 110.85 62.2 107.3 60.6 103.75 58.95 100.05 60.3 96.35 61.65 94.75 65.15 93.1 68.6 94.5 72.2 95.75 75.8 99.25 77.45 102.8 79.05 106.5 77.7 Z"/>
</g>

<g id="Layer0_1_MEMBER_0_MEMBER_14_FILL">
<path fill="#F9A324" stroke="none" d="
M 106.3 77
Q 109.65 75.85 111.15 72.6 112.65 69.4 111.5 66 110.2 62.75 106.95 61.25 103.65 59.75 100.3 60.95 96.95 62.1 95.4 65.35 93.9 68.55 95.1 71.95 96.4 75.25 99.65 76.75 102.95 78.2 106.3 77 Z"/>
</g>

<g id="Layer0_1_MEMBER_0_MEMBER_15_FILL">
<path fill="#F8A025" stroke="none" d="
M 106 76.45
Q 109.1 75.35 110.5 72.35 111.95 69.35 110.8 66.25 109.7 63.2 106.65 61.8 103.6 60.45 100.5 61.55 97.35 62.65 95.9 65.7 94.5 68.65 95.65 71.75 96.8 74.8 99.8 76.2 102.85 77.6 106 76.45 Z"/>
</g>

<g id="Layer0_1_MEMBER_0_MEMBER_16_FILL">
<path fill="#F89E26" stroke="none" d="
M 105.8 75.85
Q 108.6 74.8 109.9 72.05 111.2 69.3 110.2 66.5 109.15 63.7 106.4 62.45 103.65 61.15 100.8 62.25 97.95 63.25 96.65 65.95 95.35 68.65 96.4 71.5 97.45 74.35 100.2 75.6 102.95 76.9 105.8 75.85 Z"/>
</g>

<g id="Layer0_1_MEMBER_0_MEMBER_17_FILL">
<path fill="#F89C26" stroke="none" d="
M 105.55 75.1
Q 108.15 74.25 109.3 71.75 110.5 69.25 109.55 66.7 108.7 64.15 106.2 63.05 103.7 61.9 101.05 62.8 98.45 63.7 97.25 66.2 96.1 68.65 97.05 71.2 97.95 73.75 100.45 74.9 102.9 76 105.55 75.1 Z"/>
</g>

<g id="Layer0_1_MEMBER_0_MEMBER_18_FILL">
<path fill="#F89A27" stroke="none" d="
M 105.3 74.5
Q 107.6 73.7 108.7 71.5 109.75 69.25 108.9 66.95 108 64.7 105.75 63.65 103.5 62.65 101.2 63.45 98.9 64.25 97.85 66.5 96.75 68.7 97.6 71 98.5 73.25 100.75 74.3 103 75.3 105.3 74.5 Z"/>
</g>

<g id="Layer0_1_MEMBER_0_MEMBER_19_FILL">
<path fill="#F79728" stroke="none" d="
M 105.05 73.85
Q 107.15 73.15 108.1 71.2 109.05 69.25 108.25 67.15 107.5 65.15 105.5 64.2 103.5 63.3 101.45 64.05 99.35 64.8 98.45 66.75 97.5 68.7 98.25 70.75 99 72.8 101 73.7 102.95 74.6 105.05 73.85 Z"/>
</g>

<g id="Layer0_1_MEMBER_0_MEMBER_20_FILL">
<path fill="#F79528" stroke="none" d="
M 104.9 73.2
Q 106.7 72.65 107.5 70.9 108.3 69.15 107.7 67.4 107 65.65 105.3 64.85 103.6 64.05 101.8 64.7 100 65.3 99.15 67 98.3 68.7 99 70.5 99.7 72.25 101.4 73.05 103.1 73.85 104.9 73.2 Z"/>
</g>

<g id="Layer0_1_MEMBER_0_MEMBER_21_FILL">
<path fill="#F79329" stroke="none" d="
M 104.55 72.6
Q 106.1 72.05 106.8 70.55 107.45 69.1 106.9 67.6 106.4 66.1 104.9 65.45 103.4 64.75 101.9 65.3 100.4 65.9 99.75 67.35 99.05 68.8 99.55 70.3 100.05 71.8 101.55 72.45 103.05 73.15 104.55 72.6 Z"/>
</g>

<g id="Layer0_1_MEMBER_1_MEMBER_0_FILL">
<path fill="#FCC21B" stroke="none" d="
M 33 52.6
Q 26.15 49.45 19 52 11.9 54.6 8.7 61.4 5.5 68.15 8.1 75.1 10.65 82.15 17.5 85.35 24.35 88.5 31.5 85.95 38.65 83.35 41.85 76.55 45.05 69.8 42.4 62.8 39.85 55.8 33 52.6 Z"/>
</g>

<g id="Layer0_1_MEMBER_1_MEMBER_1_FILL">
<path fill="#FCC01C" stroke="none" d="
M 32.7 53.2
Q 26.05 50.15 19.15 52.65 12.35 55.15 9.25 61.65 6.2 68.2 8.65 74.95 11.2 81.75 17.8 84.8 24.45 87.85 31.25 85.35 38.1 82.85 41.15 76.3 44.25 69.75 41.75 63 39.3 56.25 32.7 53.2 Z"/>
</g>

<g id="Layer0_1_MEMBER_1_MEMBER_2_FILL">
<path fill="#FCBE1C" stroke="none" d="
M 32.45 53.75
Q 26.05 50.8 19.5 53.25 12.85 55.65 9.9 61.9 6.95 68.15 9.35 74.6 11.8 81.15 18.15 84.05 24.5 87 31.1 84.6 37.6 82.25 40.6 76.05 43.6 69.75 41.2 63.25 38.8 56.7 32.45 53.75 Z"/>
</g>

<g id="Layer0_1_MEMBER_1_MEMBER_3_FILL">
<path fill="#FBBB1D" stroke="none" d="
M 30.75 84
Q 37.1 81.75 39.95 75.75 42.8 69.75 40.5 63.45 38.2 57.2 32.1 54.4 26 51.6 19.7 53.85 13.4 56.2 10.55 62.2 7.7 68.2 10 74.45 12.3 80.7 18.35 83.5 24.4 86.25 30.75 84 Z"/>
</g>

<g id="Layer0_1_MEMBER_1_MEMBER_4_FILL">
<path fill="#FBB91E" stroke="none" d="
M 30.6 83.45
Q 36.65 81.25 39.35 75.45 42.05 69.65 39.9 63.75 37.75 57.75 31.9 55.05 26.1 52.4 20 54.55 13.95 56.7 11.25 62.5 8.5 68.25 10.7 74.25 12.9 80.25 18.7 82.95 24.5 85.65 30.6 83.45 Z"/>
</g>

<g id="Layer0_1_MEMBER_1_MEMBER_5_FILL">
<path fill="#FBB71E" stroke="none" d="
M 30.35 82.7
Q 36.1 80.7 38.75 75.15 41.35 69.6 39.25 63.9 37.1 58.2 31.5 55.6 25.9 53 20.15 55.1 14.35 57.2 11.75 62.7 9.15 68.2 11.25 73.9 13.4 79.65 19 82.25 24.6 84.8 30.35 82.7 Z"/>
</g>

<g id="Layer0_1_MEMBER_1_MEMBER_6_FILL">
<path fill="#FBB51F" stroke="none" d="
M 30.1 82.1
Q 35.65 80.15 38.15 74.9 40.6 69.65 38.7 64.1 36.7 58.65 31.3 56.2 25.95 53.75 20.5 55.7 14.95 57.75 12.45 63 10 68.25 12 73.7 13.95 79.15 19.25 81.6 24.55 84.05 30.1 82.1 Z"/>
</g>

<g id="Layer0_1_MEMBER_1_MEMBER_7_FILL">
<path fill="#FAB220" stroke="none" d="
M 29.85 81.5
Q 35.15 79.6 37.5 74.6 39.9 69.65 38 64.45 36.05 59.2 31 56.9 25.95 54.55 20.7 56.45 15.45 58.3 13.1 63.35 10.7 68.3 12.6 73.5 14.45 78.75 19.5 81.05 24.6 83.4 29.85 81.5 Z"/>
</g>

<g id="Layer0_1_MEMBER_1_MEMBER_8_FILL">
<path fill="#FAB020" stroke="none" d="
M 29.7 80.85
Q 34.6 79.05 36.85 74.3 39.15 69.55 37.4 64.65 35.6 59.7 30.8 57.5 25.95 55.25 21 57.05 16 58.85 13.75 63.6 11.5 68.3 13.3 73.25 15.1 78.2 19.9 80.45 24.7 82.65 29.7 80.85 Z"/>
</g>

<g id="Layer0_1_MEMBER_1_MEMBER_9_FILL">
<path fill="#FAAE21" stroke="none" d="
M 29.35 80.2
Q 34.1 78.5 36.25 74 38.4 69.45 36.65 64.8 34.95 60.1 30.35 58 25.8 55.85 21.05 57.6 16.3 59.35 14.2 63.9 12.05 68.4 13.75 73 15.45 77.7 20.05 79.85 24.6 81.95 29.35 80.2 Z"/>
</g>

<g id="Layer0_1_MEMBER_1_MEMBER_10_FILL">
<path fill="#FAAC22" stroke="none" d="
M 29.2 79.6
Q 33.6 78 35.6 73.75 37.65 69.5 36 65.25 34.35 60.85 30.05 58.85 25.75 56.85 21.3 58.45 16.85 60 14.85 64.25 12.85 68.5 14.5 72.95 16.15 77.25 20.45 79.2 24.8 81.2 29.2 79.6 Z"/>
</g>

<g id="Layer0_1_MEMBER_1_MEMBER_11_FILL">
<path fill="#F9A922" stroke="none" d="
M 29 78.95
Q 33.15 77.45 35.05 73.5 36.9 69.5 35.4 65.45 33.9 61.25 29.85 59.35 25.8 57.5 21.6 59 17.4 60.5 15.55 64.5 13.65 68.45 15.15 72.6 16.7 76.75 20.75 78.6 24.75 80.45 29 78.95 Z"/>
</g>

<g id="Layer0_1_MEMBER_1_MEMBER_12_FILL">
<path fill="#F9A723" stroke="none" d="
M 28.7 78.35
Q 32.65 76.95 34.45 73.2 36.2 69.45 34.7 65.65 33.3 61.75 29.5 60 25.7 58.25 21.8 59.65 17.9 61.05 16.15 64.8 14.4 68.55 15.8 72.45 17.25 76.25 21 78 24.8 79.75 28.7 78.35 Z"/>
</g>

<g id="Layer0_1_MEMBER_1_MEMBER_13_FILL">
<path fill="#F9A524" stroke="none" d="
M 28.5 77.7
Q 32.15 76.4 33.85 72.9 35.5 69.4 34.2 65.8 32.85 62.2 29.3 60.6 25.75 58.95 22.1 60.3 18.4 61.65 16.75 65.15 15.1 68.6 16.5 72.2 17.8 75.8 21.3 77.45 24.85 79.05 28.5 77.7 Z"/>
</g>

<g id="Layer0_1_MEMBER_1_MEMBER_14_FILL">
<path fill="#F9A324" stroke="none" d="
M 28.25 77
Q 31.6 75.85 33.15 72.6 34.65 69.4 33.5 66 32.2 62.75 28.9 61.25 25.6 59.75 22.25 60.95 18.9 62.1 17.35 65.35 15.85 68.55 17.05 71.95 18.35 75.25 21.6 76.75 24.9 78.2 28.25 77 Z"/>
</g>

<g id="Layer0_1_MEMBER_1_MEMBER_15_FILL">
<path fill="#F8A025" stroke="none" d="
M 28 76.45
Q 31.15 75.35 32.5 72.35 33.9 69.35 32.75 66.25 31.65 63.15 28.65 61.8 25.65 60.45 22.5 61.55 19.35 62.65 17.95 65.7 16.55 68.65 17.7 71.75 18.85 74.85 21.8 76.2 24.8 77.55 28 76.45 Z"/>
</g>

<g id="Layer0_1_MEMBER_1_MEMBER_16_FILL">
<path fill="#F89E26" stroke="none" d="
M 27.75 75.85
Q 30.65 74.8 31.9 72.05 33.2 69.3 32.15 66.5 31.1 63.7 28.35 62.45 25.6 61.15 22.75 62.25 19.95 63.25 18.65 65.95 17.35 68.65 18.35 71.5 19.4 74.3 22.15 75.6 24.95 76.9 27.75 75.85 Z"/>
</g>

<g id="Layer0_1_MEMBER_1_MEMBER_17_FILL">
<path fill="#F89C26" stroke="none" d="
M 27.6 75.1
Q 30.15 74.25 31.3 71.75 32.45 69.25 31.6 66.7 30.7 64.15 28.2 63.05 25.75 61.9 23.1 62.8 20.5 63.7 19.3 66.2 18.15 68.65 19.1 71.2 19.95 73.75 22.45 74.9 24.95 76 27.6 75.1 Z"/>
</g>

<g id="Layer0_1_MEMBER_1_MEMBER_18_FILL">
<path fill="#F89A27" stroke="none" d="
M 27.25 74.5
Q 29.6 73.7 30.65 71.5 31.7 69.25 30.85 66.95 29.95 64.7 27.7 63.65 25.45 62.65 23.15 63.45 20.85 64.25 19.8 66.5 18.7 68.7 19.55 71 20.45 73.25 22.7 74.3 24.95 75.3 27.25 74.5 Z"/>
</g>

<g id="Layer0_1_MEMBER_1_MEMBER_19_FILL">
<path fill="#F79728" stroke="none" d="
M 27.1 73.85
Q 29.1 73.15 30.05 71.2 31 69.25 30.25 67.15 29.5 65.15 27.5 64.2 25.55 63.3 23.5 64.05 21.4 64.8 20.45 66.75 19.5 68.7 20.25 70.75 21 72.8 23 73.7 25 74.6 27.1 73.85 Z"/>
</g>

<g id="Layer0_1_MEMBER_1_MEMBER_20_FILL">
<path fill="#F79528" stroke="none" d="
M 26.85 73.2
Q 28.65 72.65 29.45 70.9 30.3 69.15 29.65 67.4 28.95 65.65 27.25 64.85 25.55 64.05 23.75 64.7 21.95 65.3 21.15 67 20.35 68.7 21 70.5 21.65 72.25 23.35 73.05 25.1 73.85 26.85 73.2 Z"/>
</g>

<g id="Layer0_1_MEMBER_1_MEMBER_21_FILL">
<path fill="#F79329" stroke="none" d="
M 26.6 72.6
Q 28.15 72.05 28.85 70.55 29.5 69.1 28.85 67.6 28.35 66.1 26.85 65.45 25.35 64.75 23.85 65.3 22.35 65.9 21.7 67.35 21.05 68.8 21.6 70.3 22.1 71.8 23.6 72.45 25.1 73.15 26.6 72.6 Z"/>
</g>

<g id="Layer0_2_MEMBER_0_FILL">
<path fill="#2F2F2F" stroke="none" d="
M 48.6 44.1
Q 45.4 47.05 41.3 48 38.75 48.75 35.4 49.1 35 50.7 35 51.8 34.8 55.9 37.25 59 39.65 62.05 43.1 62.2 46.55 62.3 49.1 59.4 51.65 56.5 51.8 52.3 51.95 47.3 48.6 44.1 Z"/>
</g>

<g id="Layer0_2_MEMBER_1_FILL">
<path fill="#2F2F2F" stroke="none" d="
M 92.4 49.1
Q 89 48.75 86.5 48 82.45 47.05 79.15 44.1 75.8 47.3 76 52.3 76.1 56.5 78.65 59.4 81.2 62.3 84.65 62.2 88.2 62.05 90.6 59 92.95 55.95 92.8 51.8 92.8 50.7 92.4 49.1 Z"/>
</g>

<g id="Layer0_3_MEMBER_0_FILL">
<path fill="#2F2F2F" stroke="none" d="
M 125.4 46.45
L 124.55 45.5
Q 122.55 43.2 119.45 43.05 116.3 42.85 114 44.95
L 70.15 83.85
Q 67.8 85.85 67.65 89 67.45 92.15 69.55 94.45
L 70.4 95.35
Q 72.45 97.65 75.55 97.85 78.65 98 81 95.95
L 124.8 57
Q 127.1 55 127.3 51.9 127.45 48.75 125.4 46.45 Z"/>
</g>

<g id="Layer0_3_MEMBER_1_FILL">
<path fill="#FFFFFF" stroke="none" d="
M 121.15 48.6
Q 120 47.4 118.4 47.3 116.75 47.2 115.5 48.3
L 69 89.5
Q 67.75 90.65 67.65 92.3 67.55 93.95 68.65 95.2
L 69.5 96.1
Q 70.6 97.4 72.3 97.5 73.95 97.6 75.15 96.45
L 121.65 55.25
Q 122.9 54.1 123 52.45 123.1 50.8 122 49.5
L 121.15 48.6 Z"/>
</g>

<g id="Layer0_3_MEMBER_2_FILL">
<path fill="#ED6C30" stroke="none" d="
M 109.5 63.25
Q 110.6 62.3 110.7 60.8 110.8 59.3 109.8 58.15 108.85 57.05 107.35 56.95 105.85 56.85 104.7 57.85
L 70.8 87.95
Q 69.65 88.9 69.6 90.4 69.5 91.9 70.5 93 71.5 94.15 72.95 94.25 74.45 94.35 75.55 93.35
L 109.5 63.25 Z"/>
</g>

<g id="Layer0_4_FILL">
<path fill="#FCC21B" stroke="none" d="
M 89 89.1
L 89 87.1
Q 83.05 82.75 75.95 81.5
L 70 81.1 66 86.1 63 100.1 78 101.1 89 89.1 Z"/>
</g>

<path id="Layer0_3_MEMBER_3_1_STROKES" stroke="#2F2F2F" stroke-width="1.5" stroke-linejoin="miter" stroke-linecap="round" stroke-miterlimit="10" fill="none" d="
M 46.06875 42.581250000000004
L 48.0375 44.550000000000004"/>

<path id="Layer0_3_MEMBER_4_1_STROKES" stroke="#2F2F2F" stroke-width="1.5" stroke-linejoin="miter" stroke-linecap="round" stroke-miterlimit="10" fill="none" d="
M 51.215624999999996 38.025
L 53.184374999999996 39.99375"/>

<path id="Layer0_3_MEMBER_5_1_STROKES" stroke="#2F2F2F" stroke-width="1.5" stroke-linejoin="miter" stroke-linecap="round" stroke-miterlimit="10" fill="none" d="
M 56.53125 33.46875
L 58.5 35.4375"/>

<path id="Layer0_3_MEMBER_6_1_STROKES" stroke="#2F2F2F" stroke-width="1.5" stroke-linejoin="miter" stroke-linecap="round" stroke-miterlimit="10" fill="none" d="
M 62.240625 28.125
L 64.20937500000001 30.09375"/>

<path id="Layer0_5_1_STROKES" stroke="#2F2F2F" stroke-width="3" stroke-linejoin="round" stroke-linecap="round" fill="none" d="
M 24.75 49.8
L 27.55 48
Q 31.35 46.2 36.55 46.2 41.75 46.2 45.85 48.15 47.95 49.15 48.95 50.1"/>
</defs>

<g id="Layer_1">
<g transform="matrix( 0.5625, 0, 0, 0.5625, 0,0) ">
<use xlink:href="#Layer0_0_FILL"/>
</g>

<g transform="matrix( 0.5625, 0, 0, 0.5625, 0,0) ">
<use xlink:href="#Layer0_1_MEMBER_0_MEMBER_0_FILL"/>
</g>

<g transform="matrix( 0.5625, 0, 0, 0.5625, 0,0) ">
<use xlink:href="#Layer0_1_MEMBER_0_MEMBER_1_FILL"/>
</g>

<g transform="matrix( 0.5625, 0, 0, 0.5625, 0,0) ">
<use xlink:href="#Layer0_1_MEMBER_0_MEMBER_2_FILL"/>
</g>

<g transform="matrix( 0.5625, 0, 0, 0.5625, 0,0) ">
<use xlink:href="#Layer0_1_MEMBER_0_MEMBER_3_FILL"/>
</g>

<g transform="matrix( 0.5625, 0, 0, 0.5625, 0,0) ">
<use xlink:href="#Layer0_1_MEMBER_0_MEMBER_4_FILL"/>
</g>

<g transform="matrix( 0.5625, 0, 0, 0.5625, 0,0) ">
<use xlink:href="#Layer0_1_MEMBER_0_MEMBER_5_FILL"/>
</g>

<g transform="matrix( 0.5625, 0, 0, 0.5625, 0,0) ">
<use xlink:href="#Layer0_1_MEMBER_0_MEMBER_6_FILL"/>
</g>

<g transform="matrix( 0.5625, 0, 0, 0.5625, 0,0) ">
<use xlink:href="#Layer0_1_MEMBER_0_MEMBER_7_FILL"/>
</g>

<g transform="matrix( 0.5625, 0, 0, 0.5625, 0,0) ">
<use xlink:href="#Layer0_1_MEMBER_0_MEMBER_8_FILL"/>
</g>

<g transform="matrix( 0.5625, 0, 0, 0.5625, 0,0) ">
<use xlink:href="#Layer0_1_MEMBER_0_MEMBER_9_FILL"/>
</g>

<g transform="matrix( 0.5625, 0, 0, 0.5625, 0,0) ">
<use xlink:href="#Layer0_1_MEMBER_0_MEMBER_10_FILL"/>
</g>

<g transform="matrix( 0.5625, 0, 0, 0.5625, 0,0) ">
<use xlink:href="#Layer0_1_MEMBER_0_MEMBER_11_FILL"/>
</g>

<g transform="matrix( 0.5625, 0, 0, 0.5625, 0,0) ">
<use xlink:href="#Layer0_1_MEMBER_0_MEMBER_12_FILL"/>
</g>

<g transform="matrix( 0.5625, 0, 0, 0.5625, 0,0) ">
<use xlink:href="#Layer0_1_MEMBER_0_MEMBER_13_FILL"/>
</g>

<g transform="matrix( 0.5625, 0, 0, 0.5625, 0,0) ">
<use xlink:href="#Layer0_1_MEMBER_0_MEMBER_14_FILL"/>
</g>

<g transform="matrix( 0.5625, 0, 0, 0.5625, 0,0) ">
<use xlink:href="#Layer0_1_MEMBER_0_MEMBER_15_FILL"/>
</g>

<g transform="matrix( 0.5625, 0, 0, 0.5625, 0,0) ">
<use xlink:href="#Layer0_1_MEMBER_0_MEMBER_16_FILL"/>
</g>

<g transform="matrix( 0.5625, 0, 0, 0.5625, 0,0) ">
<use xlink:href="#Layer0_1_MEMBER_0_MEMBER_17_FILL"/>
</g>

<g transform="matrix( 0.5625, 0, 0, 0.5625, 0,0) ">
<use xlink:href="#Layer0_1_MEMBER_0_MEMBER_18_FILL"/>
</g>

<g transform="matrix( 0.5625, 0, 0, 0.5625, 0,0) ">
<use xlink:href="#Layer0_1_MEMBER_0_MEMBER_19_FILL"/>
</g>

<g transform="matrix( 0.5625, 0, 0, 0.5625, 0,0) ">
<use xlink:href="#Layer0_1_MEMBER_0_MEMBER_20_FILL"/>
</g>

<g transform="matrix( 0.5625, 0, 0, 0.5625, 0,0) ">
<use xlink:href="#Layer0_1_MEMBER_0_MEMBER_21_FILL"/>
</g>

<g transform="matrix( 0.5625, 0, 0, 0.5625, 0,0) ">
<use xlink:href="#Layer0_1_MEMBER_1_MEMBER_0_FILL"/>
</g>

<g transform="matrix( 0.5625, 0, 0, 0.5625, 0,0) ">
<use xlink:href="#Layer0_1_MEMBER_1_MEMBER_1_FILL"/>
</g>

<g transform="matrix( 0.5625, 0, 0, 0.5625, 0,0) ">
<use xlink:href="#Layer0_1_MEMBER_1_MEMBER_2_FILL"/>
</g>

<g transform="matrix( 0.5625, 0, 0, 0.5625, 0,0) ">
<use xlink:href="#Layer0_1_MEMBER_1_MEMBER_3_FILL"/>
</g>

<g transform="matrix( 0.5625, 0, 0, 0.5625, 0,0) ">
<use xlink:href="#Layer0_1_MEMBER_1_MEMBER_4_FILL"/>
</g>

<g transform="matrix( 0.5625, 0, 0, 0.5625, 0,0) ">
<use xlink:href="#Layer0_1_MEMBER_1_MEMBER_5_FILL"/>
</g>

<g transform="matrix( 0.5625, 0, 0, 0.5625, 0,0) ">
<use xlink:href="#Layer0_1_MEMBER_1_MEMBER_6_FILL"/>
</g>

<g transform="matrix( 0.5625, 0, 0, 0.5625, 0,0) ">
<use xlink:href="#Layer0_1_MEMBER_1_MEMBER_7_FILL"/>
</g>

<g transform="matrix( 0.5625, 0, 0, 0.5625, 0,0) ">
<use xlink:href="#Layer0_1_MEMBER_1_MEMBER_8_FILL"/>
</g>

<g transform="matrix( 0.5625, 0, 0, 0.5625, 0,0) ">
<use xlink:href="#Layer0_1_MEMBER_1_MEMBER_9_FILL"/>
</g>

<g transform="matrix( 0.5625, 0, 0, 0.5625, 0,0) ">
<use xlink:href="#Layer0_1_MEMBER_1_MEMBER_10_FILL"/>
</g>

<g transform="matrix( 0.5625, 0, 0, 0.5625, 0,0) ">
<use xlink:href="#Layer0_1_MEMBER_1_MEMBER_11_FILL"/>
</g>

<g transform="matrix( 0.5625, 0, 0, 0.5625, 0,0) ">
<use xlink:href="#Layer0_1_MEMBER_1_MEMBER_12_FILL"/>
</g>

<g transform="matrix( 0.5625, 0, 0, 0.5625, 0,0) ">
<use xlink:href="#Layer0_1_MEMBER_1_MEMBER_13_FILL"/>
</g>

<g transform="matrix( 0.5625, 0, 0, 0.5625, 0,0) ">
<use xlink:href="#Layer0_1_MEMBER_1_MEMBER_14_FILL"/>
</g>

<g transform="matrix( 0.5625, 0, 0, 0.5625, 0,0) ">
<use xlink:href="#Layer0_1_MEMBER_1_MEMBER_15_FILL"/>
</g>

<g transform="matrix( 0.5625, 0, 0, 0.5625, 0,0) ">
<use xlink:href="#Layer0_1_MEMBER_1_MEMBER_16_FILL"/>
</g>

<g transform="matrix( 0.5625, 0, 0, 0.5625, 0,0) ">
<use xlink:href="#Layer0_1_MEMBER_1_MEMBER_17_FILL"/>
</g>

<g transform="matrix( 0.5625, 0, 0, 0.5625, 0,0) ">
<use xlink:href="#Layer0_1_MEMBER_1_MEMBER_18_FILL"/>
</g>

<g transform="matrix( 0.5625, 0, 0, 0.5625, 0,0) ">
<use xlink:href="#Layer0_1_MEMBER_1_MEMBER_19_FILL"/>
</g>

<g transform="matrix( 0.5625, 0, 0, 0.5625, 0,0) ">
<use xlink:href="#Layer0_1_MEMBER_1_MEMBER_20_FILL"/>
</g>

<g transform="matrix( 0.5625, 0, 0, 0.5625, 0,0) ">
<use xlink:href="#Layer0_1_MEMBER_1_MEMBER_21_FILL"/>
</g>

<g transform="matrix( 0.5625, 0, 0, 0.5625, 0,0) ">
<use xlink:href="#Layer0_2_MEMBER_0_FILL"/>
</g>

<g transform="matrix( 0.5625, 0, 0, 0.5625, 0,0) ">
<use xlink:href="#Layer0_2_MEMBER_1_FILL"/>
</g>

<g transform="matrix( 0.5625, 0, 0, 0.5625, 0,0) ">
<use xlink:href="#Layer0_3_MEMBER_0_FILL"/>
</g>

<g transform="matrix( 0.5625, 0, 0, 0.5625, 0,0) ">
<use xlink:href="#Layer0_3_MEMBER_1_FILL"/>
</g>

<g transform="matrix( 0.5625, 0, 0, 0.5625, 0,0) ">
<use xlink:href="#Layer0_3_MEMBER_2_FILL"/>
</g>

<g transform="matrix( 0.5625, 0, 0, 0.5625, 0,0) ">
<use xlink:href="#Layer0_3_MEMBER_3_1_STROKES" transform="matrix( 1.77777099609375, 0, 0, 1.77777099609375, 0,0) "/>
</g>

<g transform="matrix( 0.5625, 0, 0, 0.5625, 0,0) ">
<use xlink:href="#Layer0_3_MEMBER_4_1_STROKES" transform="matrix( 1.77777099609375, 0, 0, 1.77777099609375, 0,0) "/>
</g>

<g transform="matrix( 0.5625, 0, 0, 0.5625, 0,0) ">
<use xlink:href="#Layer0_3_MEMBER_5_1_STROKES" transform="matrix( 1.77777099609375, 0, 0, 1.77777099609375, 0,0) "/>
</g>

<g transform="matrix( 0.5625, 0, 0, 0.5625, 0,0) ">
<use xlink:href="#Layer0_3_MEMBER_6_1_STROKES" transform="matrix( 1.77777099609375, 0, 0, 1.77777099609375, 0,0) "/>
</g>

<g transform="matrix( 0.5625, 0, 0, 0.5625, 0,0.2) ">
<use xlink:href="#Layer0_4_FILL"/>
</g>

<g transform="matrix( 1, 0, 0, 1, 0,0) ">
<use xlink:href="#Layer0_5_1_STROKES"/>
</g>
</g>
</svg>
