
<svg xmlns="http://www.w3.org/2000/svg" version="1.1" xmlns:xlink="http://www.w3.org/1999/xlink" preserveAspectRatio="none" x="0px" y="0px" width="72px" height="72px" viewBox="0 0 72 72">
<defs>
<g id="Layer2_0_MEMBER_0_MEMBER_0_MEMBER_0_MEMBER_0_FILL">
<path fill="#FCC21B" stroke="none" d="
M 36 5.6
Q 13.8 5.6 5.05 26.1 0.25 37.35 0.25 52.45 0.25 58.25 10.7 62.35 21.2 66.45 36 66.45 50.8 66.45 61.25 62.35 71.7 58.25 71.7 52.45 71.7 37.35 66.9 26.1 58.2 5.6 36 5.6 Z"/>
</g>

<g id="Layer1_0_MEMBER_0_FILL">
<path fill="#ED6C30" stroke="none" d="
M 51.45 43.3
Q 50.35 42.4 46.65 42.9 40.4 43.65 37.05 43.65 33.8 43.65 26.35 42.5 21.7 41.75 20.45 43.05 19.55 43.95 19.95 45.3 20.9 49.4 25.65 51.95 30.25 54.4 36.75 54.4 43.45 54.4 47.6 51.8 51.5 49.35 52.2 45.3 52.4 44.1 51.45 43.3 Z"/>
</g>

<g id="Layer0_0_FILL">
<path fill="#F78629" stroke="none" d="
M 33.6 17.8
Q 33.85 17.45 33.65 17.1 33.4 16.75 32.95 16.8
L 24.85 18.25 19.9 11.75
Q 19.6 11.4 19.2 11.5 18.8 11.65 18.75 12.1
L 17.7 20.2 9.9 22.95
Q 9.55 23.1 9.5 23.55 9.45 24 9.85 24.15
L 17.3 27.55 17.5 35.9
Q 17.45 36.3 17.9 36.45 18.05 36.6 18.3 36.5 18.45 36.5 18.6 36.3
L 24.2 30.2 32.1 32.65
Q 32.55 32.8 32.8 32.5 33.05 32.15 32.85 31.75
L 28.85 24.5 33.6 17.8
M 62.75 23.55
Q 62.7 23.1 62.35 22.95
L 54.55 20.2 53.5 12.1
Q 53.4 11.65 53 11.55 52.6 11.4 52.35 11.75
L 47.4 18.25 39.3 16.8
Q 38.85 16.75 38.6 17.1 38.35 17.45 38.65 17.8
L 43.4 24.5 39.4 31.75
Q 39.15 32.15 39.4 32.5 39.55 32.65 39.8 32.75 39.95 32.75 40.1 32.7
L 48 30.25 53.6 36.35
Q 53.95 36.65 54.3 36.45 54.75 36.3 54.75 35.9
L 54.95 27.55 62.4 24.15
Q 62.75 24 62.75 23.55 Z"/>
</g>
</defs>

<g id="_____1">
<g transform="matrix( 1, 0, 0, 1, 0,0) ">
<use xlink:href="#Layer2_0_MEMBER_0_MEMBER_0_MEMBER_0_MEMBER_0_FILL"/>
</g>
</g>

<g transform="matrix( 1.0030670166015625, 0, 0, 1.2950592041015625, 0.1,-16.7) ">
<use xlink:href="#Layer1_0_MEMBER_0_FILL"/>
</g>

<g transform="matrix( 1, 0, 0, 1, 0,0) ">
<use xlink:href="#Layer0_0_FILL"/>
</g>
</svg>
