
<svg xmlns="http://www.w3.org/2000/svg" version="1.1" xmlns:xlink="http://www.w3.org/1999/xlink" preserveAspectRatio="none" x="0px" y="0px" width="72px" height="72px" viewBox="0 0 72 72">
<defs>
<filter id="Filter_1" x="-20%" y="-20%" width="140%" height="140%" color-interpolation-filters="sRGB">
<feColorMatrix in="SourceGraphic" type="matrix" values="1 0 0 0 0 0 1 0 0 0 0 0 1 0 0 0 0 0 0.54 0" result="result1"/>
</filter>

<g id="Layer0_0_FILL">
<path fill="#FFA000" stroke="none" d="
M 95.7 71.75
L 94.2 51.65 30.25 57.95 33 79.35
Q 36.55 102.95 40.75 113.8 43.6 121.15 46.3 123.15 49.75 125.7 54.45 121.4
L 82.75 118.3
Q 88.35 121.75 92.05 118.45 95.45 115.45 96 108.1 97 94.55 95.7 71.75 Z"/>
</g>

<g id="Layer0_1_MEMBER_0_FILL">
<path fill="#651FFF" stroke="none" d="
M 77.85 86.25
Q 69.75 86.05 64 85.95
L 64 128 89.05 128 89.05 120.45
Q 94.85 128 100.85 128
L 103.8 128 103.8 116.85
Q 103.8 104.15 96.35 95.25 88.85 86.25 77.85 86.25 Z"/>
</g>

<g id="Layer0_1_MEMBER_1_MEMBER_0_MEMBER_0_FILL">
<path fill="#FBC11B" stroke="none" d="
M 102.5 73.1
Q 104.25 76.2 107.65 75.7 110.3 75.2 112.3 74.2 114.3 73.15 117.25 70.85 124.2 64.9 127.15 59.5 127.9 58.1 127.2 57.05 126.45 56.05 125.55 57.05 123.55 59.75 120 62.9 116.75 65.7 116.6 65.4 116.15 63.8 114.3 64.05 113 64.2 111.4 65.25 107.8 67.55 104.05 68.95 100.8 70.05 102.5 73.1 Z"/>
</g>

<g id="Layer0_1_MEMBER_1_MEMBER_0_MEMBER_1_FILL">
<path fill="#FBC11B" stroke="none" d="
M 109.65 71.6
L 104.1 68.95
Q 103.6 69.05 103.05 69.45 101.9 70.3 101.5 71.85 101.25 72.65 101.35 75.4
L 101.35 77.15 106.9 79.1 111.65 77.95
Q 111.9 77.05 112.35 75.95 113.3 73.75 114.5 72.85
L 109.65 71.6 Z"/>
</g>

<g id="Layer0_1_MEMBER_1_MEMBER_1_MEMBER_0_MEMBER_0_FILL">
<path fill="#651FFF" stroke="none" d="
M 56.25 42.2
Q 56 42.4 55.9 42.7
L 52.9 66.4
Q 52.55 68.6 54 70.3 55.5 72 57.75 72 60.5 72 62.4 70.05 64.35 68.1 64.25 65.35
L 64.15 43.15
Q 64.15 42.85 63.9 42.6 63.7 42.4 63.4 42.35
L 56.8 42
Q 56.5 41.95 56.25 42.2 Z"/>
</g>

<g id="An_1F937_SVG_Layer_1__Path__0_Layer0_0_FILL">
<path fill="#000000" stroke="none" d="
M 1.85 0
L 0 13.55 2.4 16.35 4.25 2.75 1.85 0 Z"/>
</g>

<g id="Layer0_2_FILL">
<path fill="#651FFF" stroke="none" d="
M 63.95 85.95
Q 52.5 86.25 50.1 86.25 39.15 86.25 31.6 95.25 24.15 104.15 24.15 116.85
L 24.15 128 27.15 128
Q 33.1 128 38.95 120.45
L 38.95 128 63.95 128 63.95 85.95 Z"/>
</g>

<g id="Layer0_3_FILL">
<path fill="#FFA000" stroke="none" d="
M 48.9 40.9
Q 53.65 35.65 53 28.95 52.35 22.25 46.65 18.05 40.9 13.85 33.45 14.55 26 15.3 21.2 20.55 16.4 25.8 17.05 32.5 17.7 39.2 23.45 43.4 29.15 47.6 36.6 46.9 44.05 46.15 48.9 40.9 Z"/>
</g>

<g id="Layer0_4_FILL">
<path fill="#E49800" stroke="none" d="
M 73.05 93.35
L 73.05 85.85 55.75 85.85 55.75 93.35
Q 55.75 96.95 58.25 99.55 60.8 102.1 64.4 102.1 68 102.1 70.55 99.55 73.05 97 73.05 93.35 Z"/>
</g>

<g id="Layer0_5_MEMBER_0_FILL">
<path fill="#FBC11B" stroke="none" d="
M 84.8 88.15
Q 92 78.95 89.2 64.75 85.8 47.4 79.15 39.75 71.25 30.8 57.65 33.45 44 36.15 40.15 47.45 36.9 57 40.3 74.4 43.15 88.6 53.3 94.35 61.25 98.85 70.2 97.1 79.15 95.35 84.8 88.15 Z"/>
</g>

<g id="Layer0_5_MEMBER_1_FILL">
<path fill="#FFA000" stroke="none" d="
M 82.9 59.35
Q 87.2 61.3 90.4 61.85
L 85.8 38.6
Q 83.15 35.1 78.2 32.1 68.3 26 56.9 28.25 45.45 30.5 38.6 39.7 35.15 44.3 34 48.45
L 38.65 72.1
Q 49.55 67.95 59.1 59 64.6 53.85 68.3 48.55 68.45 48.35 68.7 48.35 68.95 48.35 69.1 48.55 74.35 55.5 82.9 59.35 Z"/>
</g>

<g id="Layer0_5_MEMBER_2_FILL">
<path fill="#E49500" stroke="none" d="
M 70.1 77.25
Q 69.9 77 69.55 77.2 67.7 78.1 66.15 78.4 64.7 78.7 62.6 78.55 62.2 78.5 62.1 78.8 62 79.1 62.2 79.35 62.7 79.95 63.8 80.35 65.25 80.85 66.6 80.6 67.95 80.35 69.1 79.3 69.95 78.5 70.2 77.75 70.3 77.45 70.1 77.25 Z"/>
</g>

<g id="Layer0_5_MEMBER_3_FILL">
<path fill="#513F35" stroke="none" d="
M 71 87.6
Q 70.8 86.5 69.8 86.05 68.9 85.55 67.65 85.8 66.4 86.05 65.75 86.85 65.05 87.65 65.25 88.75 65.55 90.55 68.45 89.9 71.3 89.35 71 87.6 Z"/>
</g>

<g id="Layer0_5_MEMBER_4_FILL">
<path fill="#444444" stroke="none" d="
M 56.55 72.1
Q 56.25 70.4 55 69.4 53.8 68.4 52.35 68.65 50.95 68.95 50.2 70.35 49.45 71.75 49.8 73.45 50.15 75.15 51.35 76.15 52.6 77.15 54 76.85 55.4 76.6 56.15 75.2 56.9 73.8 56.55 72.1 Z"/>
</g>

<g id="Layer0_5_MEMBER_5_FILL">
<path fill="#444444" stroke="none" d="
M 73.7 65.7
Q 72.95 67.1 73.3 68.8 73.65 70.5 74.85 71.5 76.1 72.5 77.5 72.2 78.9 71.95 79.65 70.55 80.4 69.15 80.1 67.45 79.75 65.75 78.55 64.75 77.3 63.75 75.9 64 74.5 64.3 73.7 65.7 Z"/>
</g>

<g id="Layer0_6_MEMBER_0_MEMBER_0_FILL">
<path fill="#FBC11B" stroke="none" d="
M 25.45 73.1
Q 27.15 70.05 23.9 68.95 20.15 67.55 16.55 65.25 14.95 64.2 13.65 64.05 11.8 63.8 11.35 65.4 11.2 65.7 7.95 62.9 4.4 59.75 2.4 57.05 1.5 56.05 0.8 57.05 0.05 58.05 0.8 59.5 3.75 64.9 10.75 70.85 13.6 73.15 15.65 74.2 17.6 75.15 20.3 75.7 23.75 76.2 25.45 73.1 Z"/>
</g>

<g id="Layer0_6_MEMBER_0_MEMBER_1_FILL">
<path fill="#FBC11B" stroke="none" d="
M 24.9 69.45
L 23.85 68.95 18.35 71.6 13.45 72.85
Q 15.4 74.3 16.3 77.95
L 21.1 79.1 26.6 77.15 26.6 75.4
Q 26.7 72.65 26.45 71.85 26.05 70.3 24.9 69.45 Z"/>
</g>

<g id="Layer0_6_MEMBER_1_MEMBER_0_MEMBER_0_FILL">
<path fill="#651FFF" stroke="none" d="
M 28.45 75.9
Q 28.4 75.35 27.9 75 27.45 74.6 26.9 74.65
L 15.15 75.3
Q 14.6 75.35 14.25 75.75 13.85 76.15 13.85 76.7
L 13.55 116.15
Q 13.5 121.05 16.9 124.55 20.3 128 25.2 128 29.2 128 31.85 125 34.45 121.95 33.85 118
L 28.45 75.9 Z"/>
</g>

<g id="An_1F937_SVG_Layer_1__Path__0_0_Layer0_0_FILL">
<path fill="#000000" stroke="none" d="
M 4.3 13.55
L 2.4 0 0 2.75 1.85 16.35 4.3 13.55 Z"/>
</g>
</defs>

<g id="Layer_1">
<g transform="matrix( 0.5625, 0, 0, 0.5625, 0,0) ">
<use xlink:href="#Layer0_0_FILL"/>
</g>

<g transform="matrix( 0.5625, 0, 0, 0.5625, -0.05,0) ">
<use xlink:href="#Layer0_1_MEMBER_0_FILL"/>
</g>

<g transform="matrix( 0.5625, 0, 0, 0.5625, -0.05,0) ">
<use xlink:href="#Layer0_1_MEMBER_1_MEMBER_0_MEMBER_0_FILL"/>
</g>

<g transform="matrix( 0.5625, 0, 0, 0.5625, -0.05,0) ">
<use xlink:href="#Layer0_1_MEMBER_1_MEMBER_0_MEMBER_1_FILL"/>
</g>

<g transform="matrix( 1, 0, 0, 1, 0,0) ">
<use xlink:href="#Layer0_1_MEMBER_1_MEMBER_1_MEMBER_0_MEMBER_0_FILL"/>
</g>

<g transform="matrix( 0.5625, 0, 0, 0.5625, 52.15,52.5) ">
<g id="Camada_1">
<g transform="matrix( 1, 0, 0, 1, 0,0) ">
<use filter="url(#Filter_1)" xlink:href="#An_1F937_SVG_Layer_1__Path__0_Layer0_0_FILL"/>
</g>
</g>
</g>

<g transform="matrix( 0.5625, 0, 0, 0.5625, 0.05,0) ">
<use xlink:href="#Layer0_2_FILL"/>
</g>

<g transform="matrix( 1, 0, 0, 1, 0,0) ">
<use xlink:href="#Layer0_3_FILL"/>
</g>

<g transform="matrix( 0.5625, 0, 0, 0.5625, 0,0) ">
<use xlink:href="#Layer0_4_FILL"/>
</g>

<g transform="matrix( 0.5625, 0, 0, 0.5625, 0,0) ">
<use xlink:href="#Layer0_5_MEMBER_0_FILL"/>
</g>

<g transform="matrix( 0.5625, 0, 0, 0.5625, 0,0) ">
<use xlink:href="#Layer0_5_MEMBER_1_FILL"/>
</g>

<g transform="matrix( 0.5625, 0, 0, 0.5625, 0,0) ">
<use xlink:href="#Layer0_5_MEMBER_2_FILL"/>
</g>

<g transform="matrix( 0.5625, 0, 0, 0.5625, 0,0) ">
<use xlink:href="#Layer0_5_MEMBER_3_FILL"/>
</g>

<g transform="matrix( 0.5625, 0, 0, 0.5625, 0,0) ">
<use xlink:href="#Layer0_5_MEMBER_4_FILL"/>
</g>

<g transform="matrix( 0.5625, 0, 0, 0.5625, 0,0) ">
<use xlink:href="#Layer0_5_MEMBER_5_FILL"/>
</g>

<g transform="matrix( 0.5625, 0, 0, 0.5625, 0,0) ">
<use xlink:href="#Layer0_6_MEMBER_0_MEMBER_0_FILL"/>
</g>

<g transform="matrix( 0.5625, 0, 0, 0.5625, 0,0) ">
<use xlink:href="#Layer0_6_MEMBER_0_MEMBER_1_FILL"/>
</g>

<g transform="matrix( 0.5625, 0, 0, 0.5625, 0,0) ">
<use xlink:href="#Layer0_6_MEMBER_1_MEMBER_0_MEMBER_0_FILL"/>
</g>

<g transform="matrix( 0.5625, 0, 0, 0.5625, 17.35,52.5) ">
<g transform="matrix( 1, 0, 0, 1, 0,0) ">
<use filter="url(#Filter_1)" xlink:href="#An_1F937_SVG_Layer_1__Path__0_0_Layer0_0_FILL"/>
</g>
</g>
</g>
</svg>
