
<svg xmlns="http://www.w3.org/2000/svg" version="1.1" xmlns:xlink="http://www.w3.org/1999/xlink" preserveAspectRatio="none" x="0px" y="0px" width="72px" height="72px" viewBox="0 0 72 72">
<defs>
<g id="Layer0_0_MEMBER_0_FILL">
<path fill="#00ACC1" stroke="none" d="
M 58.35 72
L 58.35 65.75
Q 58.35 58.6 54.15 53.6 49.95 48.5 43.75 48.5 39.2 48.4 35.95 48.35
L 35.95 72 50.05 72 50.05 67.75
Q 53.3 72 56.7 72
L 58.35 72 Z"/>
</g>

<g id="Layer0_0_MEMBER_1_MEMBER_0_MEMBER_0_FILL">
<path fill="#FBC11B" stroke="none" d="
M 102.5 73.1
Q 104.25 76.2 107.65 75.7 110.3 75.2 112.3 74.2 114.3 73.15 117.25 70.85 124.2 64.9 127.15 59.5 127.9 58.1 127.2 57.05 126.45 56.05 125.55 57.05 123.55 59.75 120 62.9 116.75 65.7 116.6 65.4 116.15 63.8 114.3 64.05 113 64.2 111.4 65.25 107.8 67.55 104.05 68.95 100.8 70.05 102.5 73.1 Z"/>
</g>

<g id="Layer0_0_MEMBER_1_MEMBER_0_MEMBER_1_FILL">
<path fill="#FBC11B" stroke="none" d="
M 109.65 71.6
L 104.1 68.95
Q 103.6 69.05 103.05 69.45 101.9 70.3 101.5 71.85 101.25 72.65 101.35 75.4
L 101.35 77.15 106.9 79.1 111.65 77.95
Q 111.9 77.05 112.35 75.95 113.3 73.75 114.5 72.85
L 109.65 71.6 Z"/>
</g>

<g id="Layer0_0_MEMBER_1_MEMBER_1_MEMBER_0_MEMBER_0_FILL">
<path fill="#00ACC1" stroke="none" d="
M 100.05 75
Q 99.6 75.35 99.5 75.9
L 94.1 118
Q 93.5 121.95 96.1 125 98.75 128 102.75 128 107.65 128 111.05 124.55 114.45 121.05 114.35 116.15
L 114.1 76.7
Q 114.1 76.15 113.7 75.75 113.35 75.35 112.8 75.3
L 101.05 74.65
Q 100.5 74.6 100.05 75 Z"/>
</g>

<g id="Layer0_0_MEMBER_2_FILL">
<path fill="#000000" fill-opacity="0.5372549019607843" stroke="none" d="
M 0 13.55
L 2.4 16.35 4.25 2.75 1.85 0 0 13.55 Z"/>
</g>

<g id="Layer0_1_FILL">
<path fill="#00ACC1" stroke="none" d="
M 36 48.35
Q 29.6 48.5 28.25 48.5 22.05 48.5 17.85 53.6 13.65 58.6 13.65 65.75
L 13.65 72 15.3 72
Q 18.65 72 21.95 67.75
L 21.95 72 36 72 36 48.35 Z"/>
</g>

<g id="Layer0_2_FILL">
<path fill="#E49800" stroke="none" d="
M 73.05 93.35
L 73.05 85.85 55.75 85.85 55.75 93.35
Q 55.75 96.95 58.25 99.55 60.8 102.1 64.4 102.1 68 102.1 70.55 99.55 73.05 97 73.05 93.35 Z"/>
</g>

<g id="Layer0_3_MEMBER_0_MEMBER_0_FILL">
<path fill="#FBC11B" stroke="none" d="
M 25.45 73.1
Q 27.15 70.05 23.9 68.95 20.15 67.55 16.55 65.25 14.95 64.2 13.65 64.05 11.8 63.8 11.35 65.4 11.2 65.7 7.95 62.9 4.4 59.75 2.4 57.05 1.5 56.05 0.8 57.05 0.05 58.05 0.8 59.5 3.75 64.9 10.75 70.85 13.6 73.15 15.65 74.2 17.6 75.15 20.3 75.7 23.75 76.2 25.45 73.1 Z"/>
</g>

<g id="Layer0_3_MEMBER_0_MEMBER_1_FILL">
<path fill="#FBC11B" stroke="none" d="
M 24.9 69.45
L 23.85 68.95 18.35 71.6 13.45 72.85
Q 15.4 74.3 16.3 77.95
L 21.1 79.1 26.6 77.15 26.6 75.4
Q 26.7 72.65 26.45 71.85 26.05 70.3 24.9 69.45 Z"/>
</g>

<g id="Layer0_3_MEMBER_1_MEMBER_0_MEMBER_0_FILL">
<path fill="#00ACC1" stroke="none" d="
M 16 42.7
Q 16 42.4 15.7 42.2 15.45 41.95 15.15 42
L 8.5 42.35
Q 8.2 42.4 8 42.6 7.8 42.85 7.8 43.15
L 7.6 65.35
Q 7.6 68.1 9.5 70.05 11.4 72 14.2 72 16.45 72 17.9 70.3 19.4 68.6 19.05 66.4
L 16 42.7 Z"/>
</g>

<g id="Layer0_4_FILL">
<path fill="#000000" fill-opacity="0.5372549019607843" stroke="none" d="
M 4.3 13.55
L 2.4 0 0 2.75 1.85 16.35 4.3 13.55 Z"/>
</g>

<g id="Layer0_5_MEMBER_0_MEMBER_0_MEMBER_0_FILL">
<path fill="#E59600" stroke="none" d="
M 106.9 66.05
L 103.3 66.05 103.3 86.35
Q 108.05 86.35 111.15 83.95 114.75 81.15 114.75 75.9 114.75 70.6 110.85 67.8
L 106.9 66.05 Z"/>
</g>

<g id="Layer0_5_MEMBER_0_MEMBER_0_MEMBER_1_FILL">
<path fill="#E59600" stroke="none" d="
M 24.7 66.05
L 21.05 66.05 17.15 67.8
Q 13.2 70.6 13.2 75.9 13.2 81.15 16.8 83.95 19.9 86.35 24.7 86.35
L 24.7 66.05 Z"/>
</g>

<g id="Layer0_5_MEMBER_0_MEMBER_1_FILL">
<path fill="#FCC21B" stroke="none" d="
M 106.75 73.8
Q 106.75 43.35 98.1 28.35 87.85 10.6 64 10.6 40.1 10.6 29.85 28.35 21.2 43.35 21.2 73.8 21.2 99.7 35.8 112.25 47.05 122 64 122 80.8 122 92.1 112.35 106.75 99.8 106.75 73.8 Z"/>
</g>

<g id="Layer0_5_MEMBER_0_MEMBER_2_FILL">
<path fill="#FFA000" stroke="none" d="
M 63.35 24.5
Q 63.35 24.1 63.35 23.7 62.95 17.45 57.7 12.85 50.5 6.55 36.55 6.35
L 35.5 6.35
Q 21.55 6.55 14.4 12.85 9.1 17.45 8.75 23.7 8.7 24.1 8.7 24.5
L 8.7 39.05
Q 9.05 38.75 9.65 38.3 10.05 37.95 10.6 37.7
L 11 37.5 12.05 44.45
Q 17.8 35.5 19.4 25.7 23.95 28.7 27.7 29.95 31.45 31.2 35.5 31.15
L 36.55 31.15
Q 43.25 31.1 48.85 30.45
L 52.95 30
Q 53.05 30 53.15 30.1
L 60 44.45 61.05 37.5 61.5 37.7
Q 62 37.95 62.4 38.25 63.05 38.75 63.35 39.05
L 63.35 24.5 Z"/>
</g>

<g id="Layer0_6_MEMBER_0_FILL">
<path fill="#E49500" stroke="none" d="
M 70.1 77.25
Q 69.9 77 69.55 77.2 67.7 78.1 66.15 78.4 64.7 78.7 62.6 78.55 62.2 78.5 62.1 78.8 62 79.1 62.2 79.35 62.7 79.95 63.8 80.35 65.25 80.85 66.6 80.6 67.95 80.35 69.1 79.3 69.95 78.5 70.2 77.75 70.3 77.45 70.1 77.25 Z"/>
</g>

<g id="Layer0_6_MEMBER_1_FILL">
<path fill="#513F35" stroke="none" d="
M 71 87.6
Q 70.8 86.5 69.8 86.05 68.9 85.55 67.65 85.8 66.4 86.05 65.75 86.85 65.05 87.65 65.25 88.75 65.55 90.55 68.45 89.9 71.3 89.35 71 87.6 Z"/>
</g>

<g id="Layer0_6_MEMBER_2_FILL">
<path fill="#444444" stroke="none" d="
M 56.55 72.1
Q 56.25 70.4 55 69.4 53.8 68.4 52.35 68.65 50.95 68.95 50.2 70.35 49.45 71.75 49.8 73.45 50.15 75.15 51.35 76.15 52.6 77.15 54 76.85 55.4 76.6 56.15 75.2 56.9 73.8 56.55 72.1 Z"/>
</g>

<g id="Layer0_6_MEMBER_3_FILL">
<path fill="#444444" stroke="none" d="
M 73.7 65.7
Q 72.95 67.1 73.3 68.8 73.65 70.5 74.85 71.5 76.1 72.5 77.5 72.2 78.9 71.95 79.65 70.55 80.4 69.15 80.1 67.45 79.75 65.75 78.55 64.75 77.3 63.75 75.9 64 74.5 64.3 73.7 65.7 Z"/>
</g>
</defs>

<g id="Layer_1">
<g transform="matrix( 1, 0, 0, 1, 0,0) ">
<use xlink:href="#Layer0_0_MEMBER_0_FILL"/>
</g>

<g transform="matrix( 0.5625, 0, 0, 0.5625, -0.05,0) ">
<use xlink:href="#Layer0_0_MEMBER_1_MEMBER_0_MEMBER_0_FILL"/>
</g>

<g transform="matrix( 0.5625, 0, 0, 0.5625, -0.05,0) ">
<use xlink:href="#Layer0_0_MEMBER_1_MEMBER_0_MEMBER_1_FILL"/>
</g>

<g transform="matrix( 0.5625, 0, 0, 0.5625, -0.05,0) ">
<use xlink:href="#Layer0_0_MEMBER_1_MEMBER_1_MEMBER_0_MEMBER_0_FILL"/>
</g>

<g transform="matrix( 0.5625, 0, 0, 0.5625, 52.15,52.5) ">
<use xlink:href="#Layer0_0_MEMBER_2_FILL"/>
</g>

<g transform="matrix( 1, 0, 0, 1, 0,0) ">
<use xlink:href="#Layer0_1_FILL"/>
</g>

<g transform="matrix( 0.5625, 0, 0, 0.5625, 0,0) ">
<use xlink:href="#Layer0_2_FILL"/>
</g>

<g transform="matrix( 0.5625, 0, 0, 0.5625, 0,0) ">
<use xlink:href="#Layer0_3_MEMBER_0_MEMBER_0_FILL"/>
</g>

<g transform="matrix( 0.5625, 0, 0, 0.5625, 0,0) ">
<use xlink:href="#Layer0_3_MEMBER_0_MEMBER_1_FILL"/>
</g>

<g transform="matrix( 1, 0, 0, 1, 0,0) ">
<use xlink:href="#Layer0_3_MEMBER_1_MEMBER_0_MEMBER_0_FILL"/>
</g>

<g transform="matrix( 0.5625, 0, 0, 0.5625, 17.35,52.5) ">
<use xlink:href="#Layer0_4_FILL"/>
</g>

<g transform="matrix( 0.3465728759765625, -0.06109619140625, 0.06109619140625, 0.3465728759765625, 9.45,15.9) ">
<use xlink:href="#Layer0_5_MEMBER_0_MEMBER_0_MEMBER_0_FILL"/>
</g>

<g transform="matrix( 0.3465728759765625, -0.06109619140625, 0.06109619140625, 0.3465728759765625, 9.45,15.9) ">
<use xlink:href="#Layer0_5_MEMBER_0_MEMBER_0_MEMBER_1_FILL"/>
</g>

<g transform="matrix( 0.34661865234375, -0.0611114501953125, 0.0611114501953125, 0.34661865234375, 9.5,16.2) ">
<use xlink:href="#Layer0_5_MEMBER_0_MEMBER_1_FILL"/>
</g>

<g transform="matrix( 0.616302490234375, -0.1086273193359375, 0.1086273193359375, 0.616302490234375, 9.45,15.95) ">
<use xlink:href="#Layer0_5_MEMBER_0_MEMBER_2_FILL"/>
</g>

<g transform="matrix( 0.5625, 0, 0, 0.5625, 0,0) ">
<use xlink:href="#Layer0_6_MEMBER_0_FILL"/>
</g>

<g transform="matrix( 0.5625, 0, 0, 0.5625, 0,0) ">
<use xlink:href="#Layer0_6_MEMBER_1_FILL"/>
</g>

<g transform="matrix( 0.5625, 0, 0, 0.5625, 0,0) ">
<use xlink:href="#Layer0_6_MEMBER_2_FILL"/>
</g>

<g transform="matrix( 0.5625, 0, 0, 0.5625, 0,0) ">
<use xlink:href="#Layer0_6_MEMBER_3_FILL"/>
</g>
</g>
</svg>
