
<svg xmlns="http://www.w3.org/2000/svg" version="1.1" xmlns:xlink="http://www.w3.org/1999/xlink" preserveAspectRatio="none" x="0px" y="0px" width="72px" height="72px" viewBox="0 0 72 72">
<defs>
<g id="Layer0_0_FILL">
<path fill="#96D9F2" stroke="none" d="
M 6.5 23.5
L 6.5 46.05
Q 6.65 50.3 12.05 53.65
L 28.6 63.8
Q 32.3 66.15 36 66.75
L 36 30.55 8 16.95
Q 6.45 18.95 6.5 23.5 Z"/>

<path fill="#9EE4FF" stroke="none" d="
M 56.35 12.05
L 49.9 9.2
Q 41.15 5.25 36.15 5.25 30.85 5.25 22.15 9.2
L 15.65 12.05
Q 9.4 14.95 8 16.95
L 36 30.55
Q 52.85 26.15 64 16.95 62.65 14.95 56.35 12.05 Z"/>

<path fill="#82C3D8" stroke="none" d="
M 65.5 46.05
L 65.5 23.5
Q 65.6 18.95 64 16.95 52.85 26.15 36 30.55
L 36 66.75
Q 39.7 66.15 43.4 63.8
L 59.95 53.65
Q 65.35 50.3 65.5 46.05 Z"/>
</g>

<path id="Layer0_0_1_STROKES" stroke="#C6EFFF" stroke-width="3" stroke-linejoin="round" stroke-linecap="round" fill="none" d="
M 36 66.75
Q 39.7 66.15 43.4 63.8
L 59.95 53.65
Q 65.35 50.3 65.5 46.05
L 65.5 23.5
Q 65.6 18.95 64 16.95
M 36 66.75
Q 32.3 66.15 28.6 63.8
L 12.05 53.65
Q 6.65 50.3 6.5 46.05
L 6.5 23.5
Q 6.45 18.95 8 16.95 9.4 14.95 15.65 12.05
L 22.15 9.2
Q 30.85 5.25 36.15 5.25 41.15 5.25 49.9 9.2
L 56.35 12.05
Q 62.65 14.95 64 16.95"/>
</defs>

<g id="Camada_1">
<g transform="matrix( 1, 0, 0, 1, 0,0) ">
<use xlink:href="#Layer0_0_FILL"/>

<use xlink:href="#Layer0_0_1_STROKES"/>
</g>
</g>
</svg>
