
<svg xmlns="http://www.w3.org/2000/svg" version="1.1" xmlns:xlink="http://www.w3.org/1999/xlink" preserveAspectRatio="none" x="0px" y="0px" width="72px" height="72px" viewBox="0 0 72 72">
<defs>
<g id="Layer1_0_FILL">
<path fill="#FFFFFF" stroke="none" d="
M 32.2 23.9
Q 31.95 22 31.15 21.05 30.8 20.65 30.05 20.15 29.25 19.6 28.95 19.35 28.5 18.95 28.05 18.2 27.6 17.4 27.35 16.95 25.8 14.35 23.8 12.4 21.5 10.05 19.15 9.55 17.2 9.25 15 10 12.4 10.95 10.55 12.85 8.6 14.8 7.95 17.35 7.9 17.8 7.7 18.65 7.55 19.4 7.3 19.9 7.05 20.55 6.2 21.7 4.6 24.15 4.65 28.15 4.65 31.55 5.9 34.05 6.85 36.15 9.6 38.95 12.95 42.25 16.75 44.8 21.4 47.95 24.8 47.5 27.4 47.1 29.35 44.8 31.15 42.65 31.55 39.8 31.75 38.35 32.05 37.85 32.3 37.4 32.85 36.9 33.65 36.25 33.8 36.05 34.85 34.9 34.8 33 34.75 31.4 33.9 29.7 33.45 28.85 33.25 28.4 32.85 27.6 32.65 27.05 32.55 26.65 32.2 23.9
M 23.1 38.6
Q 23 38.7 22.75 38.6 20.85 37.6 20.15 36.9 21.6 37.25 23.45 37.6 23.45 37.7 23.25 38.4 23.2 38.55 23.1 38.6 Z"/>
</g>

<g id="Layer1_1_FILL">
<path fill="#A65C51" stroke="none" d="
M 110.6 27.85
Q 102.2 20.15 90.35 20.15 81.55 20.15 74.35 24.6 67.25 28.95 64 36.2 60.7 28.95 53.6 24.6 46.4 20.15 37.6 20.15 25.75 20.15 17.4 27.85 9 35.6 9 46.5 9 59.95 18.2 70.15 23.75 76.3 38.2 85.6 47.45 91.6 51.5 94.9 58.45 100.45 61.85 106.25
L 62.1 106.85
Q 62.65 107.9 63.95 107.9
L 64.05 107.9
Q 65.15 107.9 65.85 106.8 66 106.55 66 106.4 69.45 100.55 76.4 94.95 80.6 91.5 89.75 85.6 104.2 76.3 109.75 70.15 119 59.95 119 46.5 119 35.6 110.6 27.85 Z"/>
</g>
</defs>

<g id="Layer_1">
<g transform="matrix( 1, 0, 0, 1, 0,0) ">
<use xlink:href="#Layer1_0_FILL"/>
</g>

<g transform="matrix( 0.5997314453125, 0, 0, 0.6616973876953125, -2.3,-6.3) ">
<use xlink:href="#Layer1_1_FILL"/>
</g>
</g>

<g id="Camada_2"/>
</svg>
