
<svg xmlns="http://www.w3.org/2000/svg" version="1.1" xmlns:xlink="http://www.w3.org/1999/xlink" preserveAspectRatio="none" x="0px" y="0px" width="72px" height="72px" viewBox="0 0 72 72">
<defs>
<g id="Layer0_0_MEMBER_0_MEMBER_0_FILL">
<path fill="#FAC036" stroke="none" d="
M 88.35 70.65
L 88.25 63.1
Q 88.05 59.5 80.9 56.95
L 73.8 55.15
Q 73.85 56.65 72.5 56.85 71.15 57 71.05 55.45 67.5 54.55 63.9 55.15 56.75 56.4 56.7 64.15 56.7 65.85 55.35 65.85 54.1 65.95 54.1 64.35 54.1 62.35 53.85 57.65 53.6 52.25 53.6 52.1 53.5 48.75 52.05 46.6 50.35 44.25 47.35 44.2 44.3 44.15 42.25 46.25 40.05 48.45 40.2 51.8
L 40.35 66.2
Q 40.3 67.55 38.95 67.55 38.05 67.55 37.7 66.75
L 37.5 65.95
Q 37.4 55.6 37.15 54.2 36 48.45 30.45 48.7 24.4 49 23.9 56.55 23.85 57.6 23.95 65.6 24.05 73.35 24.15 75.25
L 24.9 85.3
Q 25.9 96.5 27.45 101.95 28.85 106.8 30.4 109.75 32.85 114.35 36.15 117.35 39.65 120.8 44.8 123 49.4 124.9 54.95 125.55
L 59.95 125.95
Q 62.25 126.1 65 126 69.75 125.85 74.7 124.9 79.55 123.95 83.5 122.35 87.35 120.8 90.85 118.45 93.75 116.45 96.05 113.8 97.3 112.5 99.1 109.45 100.1 107.4 100.4 106.35
L 100.8 105.25
Q 101.3 104 92.75 82.65 92.3 83.95 90.75 83.9 89.25 83.85 89.05 82.5 88.6 78.95 88.35 70.65 Z"/>
</g>

<g id="Layer0_0_MEMBER_0_MEMBER_1_FILL">
<path fill="#FAC036" stroke="none" d="
M 89.15 8.95
Q 89.05 5.3 85.35 4.15 80.95 2.8 78 5.65 76.528515625 7.121484375 74.4 11.1 72.9076171875 7.6767578125 72.7 7.4 70.15 3.6 65.65 4.7 60.85 5.9 60.6 10.9 60.45 13.4 61.8 18 62.5919921875 20.6396484375 65.25 31.1 64.9958984375 31.6443359375 64.75 32.2 56.7 50.6 56.75 53.2
L 56.75 64.1
Q 56.75 65.85 55.35 65.85 54.5 65.85 54.2 65.05
L 54.1 64.2
Q 50.9 66.6 47.85 69.45 41.8 75.15 42.75 77.3
L 41.05 78.35
Q 40.5 77.25 33.25 77.95 26 78.65 26.7 80.1
L 31.2 93.35
Q 33.95 101.95 35.65 106.55
L 35.95 107.3
Q 36.55 108.95 37.1 110.05 38.2 112.55 38.35 112.8 42.1 119.4 48.85 122.9 55.35 126.3 63.05 125.95 63.35 125.95 67.65 125.85 72.7 125.6 77.35 124.45 92.05 120.8 98.95 109.9 100.45 107.45 101.25 104.5 102.35 100.4 102.45 94.4 102.45 87.4 101.25 83.15 100 78.9 98.1 76.65 96.2 74.45 92.5 72.7
L 92.4 64.35
Q 92.25 61.4 89.95 54.85 86.3 45.05 83.55 37.1
L 81.9 32.3
Q 87.20078125 18.0896484375 88 15.2 89.25 10.65 89.15 8.95 Z"/>
</g>

<g id="Layer0_0_MEMBER_1_FILL">
<path fill="#E48C15" stroke="none" d="
M 65.25 31.1
L 62.25 37.95
Q 65.35 38.6 71.15 53.85 71.5 54.85 71.9 54.6 72.25 54.4 72 53.35 70.65 47.5 67.8 38.7
L 65.25 31.1 Z"/>
</g>

<g id="Layer0_0_MEMBER_2_FILL">
<path fill="#E48C15" stroke="none" d="
M 92.5 72.7
L 92.45 68.6
Q 90.5 67.8 87.55 66.9 81.7 65.05 77 64.35 74.25 63.9 72.8 63.7 70.2 63.3 68.65 63.35 64.8 63.55 61.65 64.75 57.55 66.25 55.05 69.3
L 53.8 72.8
Q 53.15 77 55.95 80.45
L 57.2 81.55
Q 59.05 82.75 61.95 83.45
L 63.45 83.75
Q 65.2 84.05 66.75 84.1 72.45 84.3 75.15 84.95
L 78.55 86.25
Q 82.05 88.1 82.5 90.75
L 82.45 92.05
Q 82.25 93.6 81.6 95.1
L 81.5 96.1
Q 81.5 97.2 82.3 97.4 82.8 97.55 83.75 97.2 84.7 96.85 85.35 96.2 86.4 95.25 86.7 93 86.95 92.15 86.75 90.9 86.35 88.35 84.2 86.2 83.65 85.6 82.65 84.85 80.7 83.35 78.65 82.75 75.35 81.75 74.4 81.55 72.35 81.15 68.5 80.95 67.05 80.9 65.1 80.55 61.25 79.9 58.85 78.35 58.05 77.8 57.55 76.7 56.5 74.5 57.8 71.95 58.55 70.4 60.8 69 65.4 66.15 73.2 66.95
L 80.05 68.55
Q 87.85 70.6 92.5 72.7 Z"/>
</g>

<g id="Layer0_0_MEMBER_3_MEMBER_0_FILL">
<path fill="#E48C15" stroke="none" d="
M 53.65 53
L 53.7 76.85 53.95 77.7
Q 54.4 78.5 55.35 78.5 56.3 78.5 56.6 77.65
L 56.7 76.8 56.7 53
Q 55.75 54.15 54.6 53.7
L 53.65 53 Z"/>
</g>

<g id="Layer0_0_MEMBER_3_MEMBER_1_FILL">
<path fill="#E48C15" stroke="none" d="
M 37.3 56.5
L 37.5 76.9 37.65 77.7
Q 38 78.5 38.95 78.5 39.9 78.5 40.4 77.65
L 40.7 76.75 40.3 56.5
Q 39.25 57.75 38.2 57.25
L 37.3 56.5 Z"/>
</g>

<g id="Layer0_0_MEMBER_3_MEMBER_2_FILL">
<path fill="#E48C15" stroke="none" d="
M 37.5 76.9
Q 37.5 80.05 39.1 82.65 41.6 86.7 47.1 86.7
L 47.25 86.7
Q 52.8 86.7 55.2 82.6 56.75 79.95 56.7 76.75 56.7 76.2 55.2 76.15 53.7 76.1 53.7 76.85 53.7 79.75 52.5 81.55 50.85 84 47.2 84.05 43.55 84 41.9 81.55 40.65 79.65 40.7 76.75 40.7 76.05 39.1 76.15 37.5 76.3 37.5 76.9 Z"/>
</g>

<g id="Layer0_0_MEMBER_3_MEMBER_3_FILL">
<path fill="#E48C15" stroke="none" d="
M 39.1 73.25
Q 37.5 73.2 37.5 73.95 37.55 76.85 36.4 78.65 34.8 81.1 31.15 81.15 27.45 81.1 25.65 78.6 24.4357421875 76.9521484375 24.2 74.6 24.4640625 78.1646484375 25.1 79.8 26.7 83.75 31.1 83.75
L 31.25 83.75
Q 36.75 83.75 39.15 79.7 40.7 77.1 40.7 73.85 40.7 73.25 39.1 73.25 Z"/>
</g>

<g id="Layer0_0_MEMBER_4_FILL">
<path fill="#E48C15" stroke="none" d="
M 82.8 29.95
L 82.7 29.55 75 10.15 74.95 10.15
Q 74.6919921875 10.65 74.4 11.2
L 81.95 32.35
Q 82.40859375 31.1095703125 82.8 29.95 Z"/>
</g>
</defs>

<g id="Layer_1">
<g transform="matrix( 0.5625, 0, 0, 0.5625, 0,0) ">
<use xlink:href="#Layer0_0_MEMBER_0_MEMBER_0_FILL"/>
</g>

<g transform="matrix( 0.5625, 0, 0, 0.5625, 0,0) ">
<use xlink:href="#Layer0_0_MEMBER_0_MEMBER_1_FILL"/>
</g>

<g transform="matrix( 0.5625, 0, 0, 0.5625, 0,0) ">
<use xlink:href="#Layer0_0_MEMBER_1_FILL"/>
</g>

<g transform="matrix( 0.5625, 0, 0, 0.5625, 0,0) ">
<use xlink:href="#Layer0_0_MEMBER_2_FILL"/>
</g>

<g transform="matrix( 0.5625, 0, 0, 0.5625, 0,0) ">
<use xlink:href="#Layer0_0_MEMBER_3_MEMBER_0_FILL"/>
</g>

<g transform="matrix( 0.5625, 0, 0, 0.5625, 0,0) ">
<use xlink:href="#Layer0_0_MEMBER_3_MEMBER_1_FILL"/>
</g>

<g transform="matrix( 0.5625, 0, 0, 0.5625, 0,0) ">
<use xlink:href="#Layer0_0_MEMBER_3_MEMBER_2_FILL"/>
</g>

<g transform="matrix( 0.5625, 0, 0, 0.5625, 0,0) ">
<use xlink:href="#Layer0_0_MEMBER_3_MEMBER_3_FILL"/>
</g>

<g transform="matrix( 0.5625, 0, 0, 0.5625, 0,0) ">
<use xlink:href="#Layer0_0_MEMBER_4_FILL"/>
</g>
</g>
</svg>
