
<svg xmlns="http://www.w3.org/2000/svg" version="1.1" xmlns:xlink="http://www.w3.org/1999/xlink" preserveAspectRatio="none" x="0px" y="0px" width="72px" height="72px" viewBox="0 0 72 72">
<defs>
<g id="Layer0_0_MEMBER_0_MEMBER_0_MEMBER_0_FILL">
<path fill="#F9C035" stroke="none" d="
M 28.3 15.1
Q 26.5 14.15 25.25 16.7 24.45 18.65 22.4 32.45 21.85 32.4 21.9 31.55
L 23.75 15.3
Q 24.2 12.35 21.75 11.85 19.85 11.5 18.95 14.15 17.55 21.95 16.6 30.1 16.1 30.05 16.1 29.2
L 17.05 17.8
Q 16.65 15.7 15 15.35 13.35 15 12.25 17.65 10.8 24 9.95 33.55 9.65 27.3 7.3 27.15 6.1 27.05 5.1 28.05 4.0025390625 29.542578125 3.6 33.65 2.51171875 47.9849609375 7.65 55.75 9.487109375 58.7708984375 13.45 59.25 17.5828125 60.2 22.5 60.2 23.103125 60.168359375 23.65 60.2 29.0083984375 60.4841796875 32.45 56.6 36.2732421875 51.725 34.6 46.85 33.86875 44.60625 33.8 41.6
L 33.75 35.8
Q 34.258984375 29.5662109375 34.6 25.85 35.101953125 20.9560546875 33.2 20.55 31.5 20.2 30.7 24
L 28.7 33.55
Q 28.15 33.55 28.15 32.95 29.2 25.5 29.7 17.7 29.85 15.9 28.3 15.1 Z"/>
</g>

<g id="Layer0_0_MEMBER_0_MEMBER_0_MEMBER_1_FILL">
<path fill="#F9C035" stroke="none" d="
M 23.75 15.3
Q 24.2 12.35 21.75 11.85 19.85 11.5 18.95 14.15 17.55 21.95 16.6 30.1 16.1 30.05 16.1 29.2
L 17.05 17.8
Q 16.65 15.7 15 15.35 13.35 15 12.25 17.65 10.8 24 9.95 33.55 9.65 27.3 7.3 27.15 6.1 27.05 5.1 28.05 4.0025390625 29.542578125 3.6 33.65 2.51171875 47.9849609375 7.65 55.75 9.487109375 58.7708984375 13.45 59.25 17.5828125 60.2 22.5 60.2 23.103125 60.168359375 23.65 60.2 29.0083984375 60.4841796875 32.45 56.6 36.2732421875 51.725 34.6 46.85 33.86875 44.60625 33.8 41.6
L 33.75 35.8
Q 34.258984375 29.5662109375 34.6 25.85 35.101953125 20.9560546875 33.2 20.55 31.5 20.2 30.7 24
L 28.7 33.55
Q 28.15 33.55 28.15 32.95 29.2 25.5 29.7 17.7 29.85 15.9 28.3 15.1 26.5 14.15 25.25 16.7 24.45 18.65 22.4 32.45 21.85 32.4 21.9 31.55
L 23.75 15.3 Z"/>
</g>

<path id="Layer0_0_MEMBER_0_MEMBER_0_MEMBER_0_MEMBER_0_1_STROKES" stroke="#E28C25" stroke-width="1" stroke-linejoin="round" stroke-linecap="round" fill="none" d="
M 8.986898040771484 32.59259033203124
Q 8.33834112584591 41.6415926516056 12.795427322387694 43.35235137939453 17.2483521014452 45.06102939844131 15.96476287841797 50.1171516418457"/>

<path id="Layer0_0_MEMBER_0_MEMBER_0_MEMBER_1_MEMBER_0_1_STROKES" stroke="#E28C25" stroke-width="1" stroke-linejoin="round" stroke-linecap="round" fill="none" d="
M 63.113101959228516 32.59259033203124
Q 63.761658874154094 41.6415926516056 59.304572677612306 43.35235137939453 54.8516478985548 45.06102939844131 56.13523712158203 50.1171516418457"/>
</defs>

<g id="Layer_1">
<g transform="matrix( 1.0653228759765625, 0, 0, 1.0653228759765625, -1.85,-2.35) ">
<use xlink:href="#Layer0_0_MEMBER_0_MEMBER_0_MEMBER_0_FILL"/>
</g>

<g transform="matrix( 1.0653228759765625, 0, 0, 1.0653228759765625, -1.4,-2.35) ">
<use xlink:href="#Layer0_0_MEMBER_0_MEMBER_0_MEMBER_0_MEMBER_0_1_STROKES" transform="matrix( 0.9386749267578125, 0, 0, 0.9386749267578125, 1.3,2.2) "/>
</g>

<g transform="matrix( -1.0653228759765625, 0, 0, 1.0653228759765625, 73.9,-2.35) ">
<use xlink:href="#Layer0_0_MEMBER_0_MEMBER_0_MEMBER_1_FILL"/>
</g>

<g transform="matrix( -1.0653228759765625, 0, 0, 1.0653228759765625, 73.5,-2.35) ">
<use xlink:href="#Layer0_0_MEMBER_0_MEMBER_0_MEMBER_1_MEMBER_0_1_STROKES" transform="matrix( -0.9386749267578125, 0, 0, 0.9386749267578125, 68.95,2.2) "/>
</g>
</g>
</svg>
