
<svg xmlns="http://www.w3.org/2000/svg" version="1.1" xmlns:xlink="http://www.w3.org/1999/xlink" preserveAspectRatio="none" x="0px" y="0px" width="72px" height="72px" viewBox="0 0 72 72">
<defs>
<g id="Layer0_0_FILL">
<path fill="#CFD8DC" stroke="none" d="
M 52.8 52.85
Q 52.95 53.25 53.3 53.45 57.4 55.9 58.75 60.85 58.75 60.35 58.75 59.85 59.25 59.8 59.75 59.75 59.45 54.8 54.3 51.75 53.95 51.55 53.55 51.6 53.15 51.75 52.95 52.1 52.75 52.45 52.8 52.85
M 20.4 18.45
Q 20.45 18.05 20.25 17.7 17.2 12.55 12.25 12.25 12.2 12.75 12.15 13.25 11.65 13.25 11.15 13.25 16.1 14.6 18.55 18.7 18.75 19.05 19.15 19.2 19.55 19.25 19.9 19.05 20.25 18.85 20.4 18.45 Z"/>

<path fill="#ECEFF1" stroke="none" d="
M 57.65 42.45
Q 51.25 42.45 46.2 37.7 45.6 37.3 45.1 36.75 43.3 35.05 41.5 33.3 41.05 32.85 40.55 32.4 40.4 32.25 40.2 32.05 40.1 31.9 39.95 31.8 39.8 31.6 39.6 31.45 39.15 30.95 38.7 30.5 36.95 28.7 35.25 26.9 34.7 26.4 34.3 25.8 29.55 20.75 29.55 14.35 29.55 14 29.55 13.6 29.5 10.05 26.75 7.3 24.25 4.7 20.55 4.55 16.95 4.5 14.45 6.9 14.35 7 14.3 7.1 14.2 7.2 14.1 7.3 14.05 7.35 14.05 7.4
L 13.95 7.5
Q 12.6 9.3 12.25 12.25 17.2 12.55 20.25 17.7 20.45 18.05 20.4 18.45 20.25 18.85 19.9 19.05 19.55 19.25 19.15 19.2 18.75 19.05 18.55 18.7 16.1 14.6 11.15 13.25 8.1 13.3 6.95 14.45 4.5 16.9 4.55 20.55 4.75 24.25 7.45 26.75 10.05 29.45 13.6 29.5 14 29.5 14.35 29.5 21.5 29.5 26.95 35.2
L 26.95 35.15
Q 28.5 36.7 30.15 38.3 30.3 38.45 30.45 38.55 31.15 39.25 31.95 40 31.95 40.05 32 40.05 32.3 40.35 32.6 40.7 33.05 41.15 33.45 41.55 33.55 41.7 33.7 41.85 35.3 43.5 36.85 45.05
L 36.8 45.05
Q 42.5 50.5 42.5 57.65 42.5 58 42.5 58.4 42.55 61.95 45.25 64.55 47.75 67.25 51.45 67.45 55.1 67.5 57.55 65.05 58.7 63.9 58.75 60.85 57.4 55.9 53.3 53.45 52.95 53.25 52.8 52.85 52.75 52.45 52.95 52.1 53.15 51.75 53.55 51.6 53.95 51.55 54.3 51.75 59.45 54.8 59.75 59.75 62.7 59.4 64.5 58.05
L 64.6 57.95
Q 64.65 57.95 64.7 57.9 64.8 57.8 64.9 57.7 65 57.65 65.1 57.55 67.5 55.05 67.45 51.45 67.3 47.75 64.7 45.25 61.95 42.5 58.4 42.45 58 42.45 57.65 42.45 Z"/>
</g>
</defs>

<g id="Camada_1">
<g transform="matrix( 1, 0, 0, 1, 0,0) ">
<use xlink:href="#Layer0_0_FILL"/>
</g>
</g>
</svg>
