
<svg xmlns="http://www.w3.org/2000/svg" version="1.1" xmlns:xlink="http://www.w3.org/1999/xlink" preserveAspectRatio="none" x="0px" y="0px" width="72px" height="72px" viewBox="0 0 72 72">
<defs>
<g id="Layer0_0_MEMBER_0_MEMBER_0_FILL">
<path fill="#FCC21B" stroke="none" d="
M 127.75 93.45
Q 127.75 66.4 119.2 46.3 103.6 9.5 63.75 9.5 23.95 9.5 8.35 46.3 -0.2 66.4 -0.2 93.45 -0.2 103.85 18.5 111.2 37.25 118.55 63.75 118.55 90.3 118.55 109.05 111.2 127.75 103.85 127.75 93.45 Z"/>
</g>

<g id="Layer0_0_MEMBER_0_MEMBER_1_MEMBER_0_FILL">
<path fill="#FCC21B" stroke="none" d="
M 116.4 70.65
Q 113.9 63.85 107.3 60.85 100.65 57.8 93.8 60.25 86.95 62.7 83.9 69.25 80.8 75.8 83.3 82.55 85.75 89.35 92.4 92.35 99 95.4 105.85 92.95 112.7 90.5 115.8 83.95 118.9 77.45 116.4 70.65 Z"/>
</g>

<g id="Layer0_0_MEMBER_0_MEMBER_1_MEMBER_1_FILL">
<path fill="#FCC01C" stroke="none" d="
M 115.7 70.9
Q 113.3 64.4 106.95 61.5 100.6 58.55 94.05 60.95 87.45 63.3 84.5 69.6 81.55 75.85 83.95 82.35 86.35 88.85 92.7 91.75 99 94.65 105.6 92.25 112.15 89.95 115.15 83.65 118.1 77.4 115.7 70.9 Z"/>
</g>

<g id="Layer0_0_MEMBER_0_MEMBER_1_MEMBER_2_FILL">
<path fill="#FCBE1C" stroke="none" d="
M 115.05 71.15
Q 112.75 64.95 106.7 62.15 100.6 59.35 94.3 61.6 88 63.85 85.2 69.85 82.35 75.85 84.65 82.1 86.95 88.3 93 91.05 99.05 93.85 105.35 91.6 111.65 89.35 114.5 83.35 117.3 77.4 115.05 71.15 Z"/>
</g>

<g id="Layer0_0_MEMBER_0_MEMBER_1_MEMBER_3_FILL">
<path fill="#FBBB1D" stroke="none" d="
M 114.35 71.35
Q 112.15 65.4 106.35 62.75 100.55 60.1 94.55 62.25 88.5 64.4 85.8 70.15 83.1 75.9 85.3 81.85 87.5 87.75 93.3 90.45 99.1 93.1 105.1 90.95 111.15 88.8 113.85 83.05 116.55 77.3 114.35 71.35 Z"/>
</g>

<g id="Layer0_0_MEMBER_0_MEMBER_1_MEMBER_4_FILL">
<path fill="#FBB91E" stroke="none" d="
M 113.7 71.6
Q 111.6 65.95 106.05 63.4 100.55 60.9 94.8 62.95 89.05 65 86.5 70.5 83.9 75.95 86 81.6 88.05 87.25 93.6 89.8 99.1 92.3 104.9 90.25 110.6 88.25 113.2 82.75 115.75 77.3 113.7 71.6 Z"/>
</g>

<g id="Layer0_0_MEMBER_0_MEMBER_1_MEMBER_5_FILL">
<path fill="#FBB71E" stroke="none" d="
M 113 71.85
Q 111 66.45 105.75 64.05 100.5 61.6 95.05 63.6 89.6 65.55 87.1 70.75 84.65 75.95 86.65 81.35 88.65 86.75 93.9 89.15 99.15 91.55 104.65 89.6 110.1 87.65 112.55 82.45 115 77.25 113 71.85 Z"/>
</g>

<g id="Layer0_0_MEMBER_0_MEMBER_1_MEMBER_6_FILL">
<path fill="#FBB51F" stroke="none" d="
M 112.35 72.1
Q 110.45 66.95 105.45 64.65 100.45 62.35 95.3 64.25 90.1 66.15 87.8 71.05 85.45 76 87.35 81.1 89.2 86.25 94.25 88.55 99.2 90.85 104.4 88.95 109.6 87.1 111.9 82.15 114.25 77.25 112.35 72.1 Z"/>
</g>

<g id="Layer0_0_MEMBER_0_MEMBER_1_MEMBER_7_FILL">
<path fill="#FAB220" stroke="none" d="
M 111.65 72.35
Q 109.9 67.5 105.15 65.35 100.45 63.15 95.55 64.9 90.65 66.65 88.45 71.35 86.25 76 88 80.85 89.8 85.7 94.5 87.9 99.25 90.05 104.15 88.3 109.05 86.55 111.25 81.85 113.45 77.2 111.65 72.35 Z"/>
</g>

<g id="Layer0_0_MEMBER_0_MEMBER_1_MEMBER_8_FILL">
<path fill="#FAB020" stroke="none" d="
M 111 72.6
Q 109.3 68.05 104.85 65.95 100.35 63.9 95.75 65.6 91.15 67.25 89.05 71.65 87 76.05 88.65 80.6 90.35 85.15 94.8 87.2 99.25 89.25 103.9 87.6 108.5 85.95 110.6 81.55 112.7 77.15 111 72.6 Z"/>
</g>

<g id="Layer0_0_MEMBER_0_MEMBER_1_MEMBER_9_FILL">
<path fill="#FAAE21" stroke="none" d="
M 110.3 72.85
Q 108.75 68.6 104.55 66.65 100.35 64.7 96 66.25 91.65 67.85 89.7 71.95 87.8 76.1 89.35 80.4 90.95 84.7 95.1 86.6 99.3 88.5 103.65 86.95 107.95 85.35 109.9 81.25 111.85 77.1 110.3 72.85 Z"/>
</g>

<g id="Layer0_0_MEMBER_0_MEMBER_1_MEMBER_10_FILL">
<path fill="#FAAC22" stroke="none" d="
M 109.65 73.05
Q 108.15 69.05 104.25 67.25 100.3 65.45 96.25 66.9 92.2 68.35 90.35 72.25 88.55 76.15 90 80.15 91.5 84.15 95.45 85.95 99.35 87.75 103.4 86.3 107.45 84.85 109.3 80.95 111.1 77.1 109.65 73.05 Z"/>
</g>

<g id="Layer0_0_MEMBER_0_MEMBER_1_MEMBER_11_FILL">
<path fill="#F9A922" stroke="none" d="
M 108.95 73.3
Q 107.6 69.55 103.95 67.9 100.3 66.2 96.5 67.55 92.7 68.95 91 72.55 89.3 76.15 90.7 79.9 92.1 83.65 95.75 85.3 99.35 87 103.15 85.6 106.95 84.25 108.65 80.65 110.35 77.05 108.95 73.3 Z"/>
</g>

<g id="Layer0_0_MEMBER_0_MEMBER_1_MEMBER_12_FILL">
<path fill="#F9A723" stroke="none" d="
M 108.3 73.55
Q 107.05 70.1 103.65 68.55 100.25 67 96.75 68.25 93.25 69.55 91.65 72.85 90.1 76.2 91.35 79.65 92.65 83.1 96 84.65 99.4 86.25 102.9 84.95 106.4 83.65 108 80.35 109.55 77.05 108.3 73.55 Z"/>
</g>

<g id="Layer0_0_MEMBER_0_MEMBER_1_MEMBER_13_FILL">
<path fill="#F9A524" stroke="none" d="
M 107.6 73.8
Q 106.45 70.6 103.35 69.2 100.25 67.75 97 68.9 93.8 70.05 92.35 73.15 90.9 76.2 92.05 79.4 93.2 82.6 96.3 84.05 99.45 85.45 102.65 84.3 105.85 83.15 107.3 80.05 108.75 77 107.6 73.8 Z"/>
</g>

<g id="Layer0_0_MEMBER_0_MEMBER_1_MEMBER_14_FILL">
<path fill="#F9A324" stroke="none" d="
M 106.95 74.05
Q 105.85 71.15 103 69.8 100.2 68.5 97.25 69.6 94.3 70.65 92.95 73.45 91.65 76.25 92.7 79.15 93.8 82.1 96.65 83.4 99.5 84.7 102.4 83.6 105.35 82.55 106.7 79.75 108.05 76.95 106.95 74.05 Z"/>
</g>

<g id="Layer0_0_MEMBER_0_MEMBER_1_MEMBER_15_FILL">
<path fill="#F8A025" stroke="none" d="
M 97.5 70.25
Q 94.85 71.2 93.65 73.75 92.45 76.3 93.4 78.9 94.4 81.55 96.95 82.75 99.5 83.95 102.15 82.95 104.85 82 106.05 79.45 107.25 76.95 106.3 74.3 105.35 71.65 102.75 70.45 100.15 69.3 97.5 70.25 Z"/>
</g>

<g id="Layer0_0_MEMBER_0_MEMBER_1_MEMBER_16_FILL">
<path fill="#F89E26" stroke="none" d="
M 97.75 70.9
Q 95.35 71.75 94.25 74.05 93.2 76.3 94.05 78.65 94.9 81 97.25 82.1 99.55 83.15 101.9 82.3 104.3 81.45 105.4 79.15 106.45 76.9 105.6 74.5 104.75 72.15 102.45 71.1 100.1 70.05 97.75 70.9 Z"/>
</g>

<g id="Layer0_0_MEMBER_0_MEMBER_1_MEMBER_17_FILL">
<path fill="#F89C26" stroke="none" d="
M 94.75 78.45
Q 95.5 80.5 97.55 81.45 99.6 82.4 101.7 81.6 103.8 80.85 104.75 78.85 105.7 76.85 104.9 74.75 104.15 72.7 102.15 71.75 100.1 70.8 98 71.55 95.85 72.35 94.9 74.35 93.95 76.35 94.75 78.45 Z"/>
</g>

<g id="Layer0_0_MEMBER_0_MEMBER_1_MEMBER_18_FILL">
<path fill="#F89A27" stroke="none" d="
M 95.4 78.2
Q 96.1 80 97.85 80.8 99.6 81.6 101.45 80.95 103.3 80.3 104.1 78.6 104.95 76.85 104.25 75 103.55 73.2 101.8 72.4 100.05 71.6 98.2 72.25 96.4 72.9 95.55 74.65 94.75 76.4 95.4 78.2 Z"/>
</g>

<g id="Layer0_0_MEMBER_0_MEMBER_1_MEMBER_19_FILL">
<path fill="#F79728" stroke="none" d="
M 98.15 80.2
Q 99.65 80.85 101.2 80.3 102.75 79.75 103.45 78.25 104.1 76.8 103.55 75.25 103 73.7 101.5 73.05 100 72.35 98.45 72.9 96.9 73.45 96.25 74.95 95.55 76.4 96.1 77.95 96.65 79.5 98.15 80.2 Z"/>
</g>

<g id="Layer0_0_MEMBER_0_MEMBER_1_MEMBER_20_FILL">
<path fill="#F79528" stroke="none" d="
M 101.2 73.65
Q 100 73.1 98.7 73.55 97.45 74.05 96.85 75.25 96.3 76.45 96.75 77.7 97.25 78.95 98.45 79.55 99.65 80.1 100.95 79.65 102.25 79.15 102.8 77.95 103.35 76.8 102.9 75.5 102.4 74.25 101.2 73.65 Z"/>
</g>

<g id="Layer0_0_MEMBER_0_MEMBER_1_MEMBER_21_FILL">
<path fill="#F79329" stroke="none" d="
M 98.75 78.9
Q 99.75 79.35 100.7 78.95 101.7 78.6 102.15 77.65 102.6 76.75 102.25 75.75 101.85 74.75 100.9 74.35 99.95 73.9 98.95 74.25 97.95 74.6 97.55 75.55 97.1 76.5 97.45 77.45 97.8 78.45 98.75 78.9 Z"/>
</g>

<g id="Layer0_0_MEMBER_0_MEMBER_2_MEMBER_0_FILL">
<path fill="#FCC21B" stroke="none" d="
M 33.9 60.15
Q 27.3 57.15 20.45 59.6 13.6 62.05 10.5 68.6 7.4 75.15 9.9 81.9 12.4 88.7 19.05 91.7 25.65 94.75 32.5 92.25 39.3 89.8 42.4 83.3 45.5 76.75 43 70 40.5 63.2 33.9 60.15 Z"/>
</g>

<g id="Layer0_0_MEMBER_0_MEMBER_2_MEMBER_1_FILL">
<path fill="#FCC01C" stroke="none" d="
M 33.6 60.8
Q 27.25 57.9 20.7 60.25 14.1 62.6 11.15 68.9 8.2 75.15 10.6 81.65 12.95 88.15 19.3 91.05 25.65 93.95 32.25 91.6 38.8 89.25 41.75 83 44.7 76.7 42.3 70.2 39.95 63.7 33.6 60.8 Z"/>
</g>

<g id="Layer0_0_MEMBER_0_MEMBER_2_MEMBER_2_FILL">
<path fill="#FCBE1C" stroke="none" d="
M 33.3 61.45
Q 27.2 58.65 20.9 60.95 14.6 63.2 11.8 69.2 8.95 75.2 11.25 81.4 13.55 87.6 19.6 90.4 25.7 93.2 32 90.95 38.25 88.7 41.1 82.7 43.95 76.7 41.65 70.5 39.35 64.25 33.3 61.45 Z"/>
</g>

<g id="Layer0_0_MEMBER_0_MEMBER_2_MEMBER_3_FILL">
<path fill="#FBBB1D" stroke="none" d="
M 33 62.1
Q 27.2 59.45 21.15 61.6 15.15 63.8 12.45 69.5 9.75 75.25 11.95 81.15 14.15 87.1 19.9 89.75 25.7 92.45 31.75 90.25 37.75 88.1 40.45 82.35 43.2 76.65 41 70.7 38.8 64.75 33 62.1 Z"/>
</g>

<g id="Layer0_0_MEMBER_0_MEMBER_2_MEMBER_4_FILL">
<path fill="#FBB91E" stroke="none" d="
M 32.65 62.75
Q 27.15 60.2 21.4 62.25 15.65 64.3 13.1 69.8 10.55 75.25 12.6 80.9 14.7 86.6 20.25 89.15 25.75 91.65 31.5 89.6 37.25 87.55 39.8 82.1 42.35 76.6 40.3 70.95 38.2 65.3 32.65 62.75 Z"/>
</g>

<g id="Layer0_0_MEMBER_0_MEMBER_2_MEMBER_5_FILL">
<path fill="#FBB71E" stroke="none" d="
M 32.4 63.4
Q 27.15 60.95 21.65 62.9 16.2 64.9 13.75 70.1 11.3 75.3 13.3 80.65 15.3 86.05 20.55 88.5 25.8 90.9 31.25 88.95 36.7 87 39.15 81.8 41.6 76.55 39.65 71.2 37.65 65.8 32.4 63.4 Z"/>
</g>

<g id="Layer0_0_MEMBER_0_MEMBER_2_MEMBER_6_FILL">
<path fill="#FBB51F" stroke="none" d="
M 32.1 64
Q 27.1 61.7 21.9 63.6 16.7 65.5 14.4 70.4 12.1 75.3 13.95 80.45 15.8 85.55 20.85 87.85 25.8 90.15 31 88.3 36.15 86.45 38.5 81.5 40.85 76.55 38.95 71.45 37.1 66.3 32.1 64 Z"/>
</g>

<g id="Layer0_0_MEMBER_0_MEMBER_2_MEMBER_7_FILL">
<path fill="#FAB220" stroke="none" d="
M 31.75 64.7
Q 27.05 62.5 22.15 64.25 17.25 66 15.05 70.7 12.85 75.35 14.65 80.2 16.4 85.05 21.15 87.2 25.85 89.35 30.75 87.6 35.65 85.85 37.85 81.15 40.05 76.5 38.3 71.7 36.5 66.85 31.75 64.7 Z"/>
</g>

<g id="Layer0_0_MEMBER_0_MEMBER_2_MEMBER_8_FILL">
<path fill="#FAB020" stroke="none" d="
M 31.45 65.3
Q 27 63.25 22.4 64.9 17.8 66.6 15.7 71 13.6 75.4 15.3 79.95 17 84.5 21.45 86.55 25.9 88.6 30.5 86.95 35.1 85.3 37.2 80.9 39.3 76.5 37.6 71.95 35.9 67.4 31.45 65.3 Z"/>
</g>

<g id="Layer0_0_MEMBER_0_MEMBER_2_MEMBER_9_FILL">
<path fill="#FAAE21" stroke="none" d="
M 31.15 65.95
Q 26.95 64.05 22.65 65.6 18.3 67.15 16.35 71.3 14.4 75.4 15.95 79.7 17.55 84 21.75 85.95 25.9 87.85 30.25 86.3 34.6 84.75 36.55 80.6 38.55 76.45 36.95 72.15 35.35 67.85 31.15 65.95 Z"/>
</g>

<g id="Layer0_0_MEMBER_0_MEMBER_2_MEMBER_10_FILL">
<path fill="#FAAC22" stroke="none" d="
M 30.85 66.6
Q 26.95 64.8 22.9 66.25 18.8 67.7 17 71.6 15.15 75.45 16.65 79.45 18.1 83.45 22.05 85.25 25.95 87.05 30 85.6 34.1 84.2 35.9 80.3 37.75 76.4 36.25 72.4 34.8 68.4 30.85 66.6 Z"/>
</g>

<g id="Layer0_0_MEMBER_0_MEMBER_2_MEMBER_11_FILL">
<path fill="#F9A922" stroke="none" d="
M 30.55 67.25
Q 26.9 65.55 23.1 66.9 19.35 68.3 17.65 71.9 15.95 75.5 17.3 79.2 18.7 82.95 22.35 84.65 26 86.3 29.75 84.95 33.55 83.6 35.25 80 36.95 76.35 35.6 72.65 34.2 68.9 30.55 67.25 Z"/>
</g>

<g id="Layer0_0_MEMBER_0_MEMBER_2_MEMBER_12_FILL">
<path fill="#F9A723" stroke="none" d="
M 30.25 67.85
Q 26.9 66.3 23.35 67.55 19.85 68.85 18.3 72.15 16.75 75.5 18 79 19.25 82.45 22.65 84 26 85.55 29.5 84.3 33 83.05 34.6 79.7 36.2 76.35 34.9 72.9 33.65 69.4 30.25 67.85 Z"/>
</g>

<g id="Layer0_0_MEMBER_0_MEMBER_2_MEMBER_13_FILL">
<path fill="#F9A524" stroke="none" d="
M 29.95 68.5
Q 26.85 67.1 23.6 68.25 20.4 69.4 18.95 72.5 17.5 75.55 18.65 78.75 19.85 81.95 22.95 83.35 26.05 84.75 29.3 83.6 32.5 82.5 33.95 79.4 35.4 76.3 34.25 73.1 33.05 69.9 29.95 68.5 Z"/>
</g>

<g id="Layer0_0_MEMBER_0_MEMBER_2_MEMBER_14_FILL">
<path fill="#F9A324" stroke="none" d="
M 29.65 69.15
Q 26.8 67.85 23.85 68.9 20.9 70 19.6 72.8 18.25 75.6 19.35 78.5 20.4 81.4 23.25 82.7 26.1 84 29.05 82.95 32 81.9 33.3 79.1 34.65 76.3 33.55 73.4 32.5 70.5 29.65 69.15 Z"/>
</g>

<g id="Layer0_0_MEMBER_0_MEMBER_2_MEMBER_15_FILL">
<path fill="#F8A025" stroke="none" d="
M 24.1 69.55
Q 21.45 70.5 20.25 73.1 19.05 75.6 20 78.25 21 80.85 23.55 82.05 26.15 83.25 28.8 82.3 31.45 81.35 32.65 78.8 33.9 76.2 32.9 73.6 31.95 71 29.35 69.8 26.75 68.6 24.1 69.55 Z"/>
</g>

<g id="Layer0_0_MEMBER_0_MEMBER_2_MEMBER_16_FILL">
<path fill="#F89E26" stroke="none" d="
M 24.35 70.25
Q 21.95 71.1 20.9 73.4 19.8 75.65 20.7 78 21.55 80.35 23.85 81.4 26.15 82.45 28.55 81.6 30.95 80.8 32.05 78.5 33.1 76.2 32.2 73.85 31.35 71.5 29.05 70.45 26.75 69.4 24.35 70.25 Z"/>
</g>

<g id="Layer0_0_MEMBER_0_MEMBER_2_MEMBER_17_FILL">
<path fill="#F89C26" stroke="none" d="
M 24.6 70.9
Q 22.5 71.65 21.55 73.65 20.6 75.7 21.35 77.75 22.15 79.85 24.15 80.8 26.2 81.75 28.3 80.95 30.4 80.2 31.35 78.2 32.3 76.15 31.55 74.1 30.75 72.05 28.75 71.1 26.7 70.15 24.6 70.9 Z"/>
</g>

<g id="Layer0_0_MEMBER_0_MEMBER_2_MEMBER_18_FILL">
<path fill="#F89A27" stroke="none" d="
M 24.85 71.55
Q 23 72.25 22.2 73.95 21.35 75.7 22 77.5 22.65 79.35 24.45 80.15 26.2 80.95 28.05 80.3 29.9 79.65 30.7 77.9 31.55 76.15 30.85 74.35 30.2 72.55 28.4 71.75 26.65 70.9 24.85 71.55 Z"/>
</g>

<g id="Layer0_0_MEMBER_0_MEMBER_2_MEMBER_19_FILL">
<path fill="#F79728" stroke="none" d="
M 28.15 72.4
Q 26.65 71.7 25.1 72.25 23.55 72.8 22.85 74.3 22.15 75.75 22.7 77.3 23.25 78.85 24.75 79.5 26.25 80.2 27.8 79.65 29.35 79.1 30.05 77.6 30.75 76.1 30.2 74.6 29.65 73.05 28.15 72.4 Z"/>
</g>

<g id="Layer0_0_MEMBER_0_MEMBER_2_MEMBER_20_FILL">
<path fill="#F79528" stroke="none" d="
M 27.85 73
Q 26.65 72.45 25.35 72.9 24.05 73.35 23.5 74.55 22.9 75.8 23.35 77.05 23.85 78.3 25.05 78.85 26.3 79.45 27.55 78.95 28.85 78.5 29.4 77.3 30 76.1 29.5 74.85 29.05 73.6 27.85 73 Z"/>
</g>

<g id="Layer0_0_MEMBER_0_MEMBER_2_MEMBER_21_FILL">
<path fill="#F79329" stroke="none" d="
M 27.55 73.65
Q 26.6 73.2 25.6 73.55 24.6 73.9 24.15 74.9 23.7 75.8 24.05 76.8 24.45 77.75 25.4 78.2 26.35 78.65 27.35 78.3 28.35 77.95 28.8 77 29.25 76 28.85 75.05 28.5 74.1 27.55 73.65 Z"/>
</g>

<g id="Layer0_0_MEMBER_0_MEMBER_3_FILL">
<path fill="#2F2F2F" stroke="none" d="
M 28.25 67.45
Q 29.35 67.15 29.95 66.2 30.8 64.85 32.4 63.65 35.5 61.25 39.6 61.25 43.75 61.25 46.85 63.65 48.45 64.85 49.3 66.2 50.1 67.55 51.65 67.55 52.35 67.55 53.05 67.15 54 66.6 54.3 65.5 54.55 64.4 54 63.45 52.75 61.35 50.4 59.5 45.75 55.8 39.6 55.8 33.5 55.8 28.85 59.5 26.5 61.35 25.25 63.45 24.7 64.4 24.95 65.45 25.25 66.55 26.2 67.15 27.2 67.7 28.25 67.45 Z"/>
</g>

<g id="Layer0_0_MEMBER_0_MEMBER_4_FILL">
<path fill="#2F2F2F" stroke="none" d="
M 102 67.15
Q 102.95 66.6 103.25 65.5 103.5 64.35 102.95 63.4 101.7 61.35 99.35 59.5 94.7 55.8 88.6 55.8 82.45 55.8 77.8 59.5 74.3 63.25 74.2 63.4 73.65 64.4 73.9 65.5 74.2 66.6 75.15 67.15 76.15 67.7 77.25 67.45 78.35 67.15 78.9 66.2
L 81.25 63.7
Q 84.4 61.25 88.6 61.25 92.7 61.25 95.85 63.65 97.45 64.85 98.25 66.2 99 67.5 100.6 67.5 101.35 67.5 102 67.15 Z"/>
</g>

<g id="Layer0_0_MEMBER_1_FILL">
<path fill="#2F2F2F" stroke="none" d="
M 86.7 78
Q 84.95 80.6 81.4 83 74.35 87.65 64.4 87.65 54.1 87.65 46.5 83.6 44.1 82.3 42.2 80.7 41.25 79.9 40.7 79.25 39.85 78.2 38.5 78.05 37.2 77.9 36.15 78.75 35.15 79.6 35 80.95 34.85 82.25 35.7 83.3 36.3 84.05 37.55 85.2 39.85 87.2 42.8 88.85 52 94.1 64.4 94.1 76.7 94.1 85.5 87.95 89.95 84.85 92.15 81.45 92.85 80.3 92.55 79 92.25 77.7 91.15 77 90.05 76.3 88.7 76.6 87.4 76.9 86.7 78 Z"/>
</g>
</defs>

<g id="Layer_1">
<g transform="matrix( 0.5625, 0, 0, 0.5625, 0,0) ">
<use xlink:href="#Layer0_0_MEMBER_0_MEMBER_0_FILL"/>
</g>

<g transform="matrix( 0.5625, 0, 0, 0.5625, 0,0) ">
<use xlink:href="#Layer0_0_MEMBER_0_MEMBER_1_MEMBER_0_FILL"/>
</g>

<g transform="matrix( 0.5625, 0, 0, 0.5625, 0,0) ">
<use xlink:href="#Layer0_0_MEMBER_0_MEMBER_1_MEMBER_1_FILL"/>
</g>

<g transform="matrix( 0.5625, 0, 0, 0.5625, 0,0) ">
<use xlink:href="#Layer0_0_MEMBER_0_MEMBER_1_MEMBER_2_FILL"/>
</g>

<g transform="matrix( 0.5625, 0, 0, 0.5625, 0,0) ">
<use xlink:href="#Layer0_0_MEMBER_0_MEMBER_1_MEMBER_3_FILL"/>
</g>

<g transform="matrix( 0.5625, 0, 0, 0.5625, 0,0) ">
<use xlink:href="#Layer0_0_MEMBER_0_MEMBER_1_MEMBER_4_FILL"/>
</g>

<g transform="matrix( 0.5625, 0, 0, 0.5625, 0,0) ">
<use xlink:href="#Layer0_0_MEMBER_0_MEMBER_1_MEMBER_5_FILL"/>
</g>

<g transform="matrix( 0.5625, 0, 0, 0.5625, 0,0) ">
<use xlink:href="#Layer0_0_MEMBER_0_MEMBER_1_MEMBER_6_FILL"/>
</g>

<g transform="matrix( 0.5625, 0, 0, 0.5625, 0,0) ">
<use xlink:href="#Layer0_0_MEMBER_0_MEMBER_1_MEMBER_7_FILL"/>
</g>

<g transform="matrix( 0.5625, 0, 0, 0.5625, 0,0) ">
<use xlink:href="#Layer0_0_MEMBER_0_MEMBER_1_MEMBER_8_FILL"/>
</g>

<g transform="matrix( 0.5625, 0, 0, 0.5625, 0,0) ">
<use xlink:href="#Layer0_0_MEMBER_0_MEMBER_1_MEMBER_9_FILL"/>
</g>

<g transform="matrix( 0.5625, 0, 0, 0.5625, 0,0) ">
<use xlink:href="#Layer0_0_MEMBER_0_MEMBER_1_MEMBER_10_FILL"/>
</g>

<g transform="matrix( 0.5625, 0, 0, 0.5625, 0,0) ">
<use xlink:href="#Layer0_0_MEMBER_0_MEMBER_1_MEMBER_11_FILL"/>
</g>

<g transform="matrix( 0.5625, 0, 0, 0.5625, 0,0) ">
<use xlink:href="#Layer0_0_MEMBER_0_MEMBER_1_MEMBER_12_FILL"/>
</g>

<g transform="matrix( 0.5625, 0, 0, 0.5625, 0,0) ">
<use xlink:href="#Layer0_0_MEMBER_0_MEMBER_1_MEMBER_13_FILL"/>
</g>

<g transform="matrix( 0.5625, 0, 0, 0.5625, 0,0) ">
<use xlink:href="#Layer0_0_MEMBER_0_MEMBER_1_MEMBER_14_FILL"/>
</g>

<g transform="matrix( 0.5625, 0, 0, 0.5625, 0,0) ">
<use xlink:href="#Layer0_0_MEMBER_0_MEMBER_1_MEMBER_15_FILL"/>
</g>

<g transform="matrix( 0.5625, 0, 0, 0.5625, 0,0) ">
<use xlink:href="#Layer0_0_MEMBER_0_MEMBER_1_MEMBER_16_FILL"/>
</g>

<g transform="matrix( 0.5625, 0, 0, 0.5625, 0,0) ">
<use xlink:href="#Layer0_0_MEMBER_0_MEMBER_1_MEMBER_17_FILL"/>
</g>

<g transform="matrix( 0.5625, 0, 0, 0.5625, 0,0) ">
<use xlink:href="#Layer0_0_MEMBER_0_MEMBER_1_MEMBER_18_FILL"/>
</g>

<g transform="matrix( 0.5625, 0, 0, 0.5625, 0,0) ">
<use xlink:href="#Layer0_0_MEMBER_0_MEMBER_1_MEMBER_19_FILL"/>
</g>

<g transform="matrix( 0.5625, 0, 0, 0.5625, 0,0) ">
<use xlink:href="#Layer0_0_MEMBER_0_MEMBER_1_MEMBER_20_FILL"/>
</g>

<g transform="matrix( 0.5625, 0, 0, 0.5625, 0,0) ">
<use xlink:href="#Layer0_0_MEMBER_0_MEMBER_1_MEMBER_21_FILL"/>
</g>

<g transform="matrix( 0.5625, 0, 0, 0.5625, 0,0) ">
<use xlink:href="#Layer0_0_MEMBER_0_MEMBER_2_MEMBER_0_FILL"/>
</g>

<g transform="matrix( 0.5625, 0, 0, 0.5625, 0,0) ">
<use xlink:href="#Layer0_0_MEMBER_0_MEMBER_2_MEMBER_1_FILL"/>
</g>

<g transform="matrix( 0.5625, 0, 0, 0.5625, 0,0) ">
<use xlink:href="#Layer0_0_MEMBER_0_MEMBER_2_MEMBER_2_FILL"/>
</g>

<g transform="matrix( 0.5625, 0, 0, 0.5625, 0,0) ">
<use xlink:href="#Layer0_0_MEMBER_0_MEMBER_2_MEMBER_3_FILL"/>
</g>

<g transform="matrix( 0.5625, 0, 0, 0.5625, 0,0) ">
<use xlink:href="#Layer0_0_MEMBER_0_MEMBER_2_MEMBER_4_FILL"/>
</g>

<g transform="matrix( 0.5625, 0, 0, 0.5625, 0,0) ">
<use xlink:href="#Layer0_0_MEMBER_0_MEMBER_2_MEMBER_5_FILL"/>
</g>

<g transform="matrix( 0.5625, 0, 0, 0.5625, 0,0) ">
<use xlink:href="#Layer0_0_MEMBER_0_MEMBER_2_MEMBER_6_FILL"/>
</g>

<g transform="matrix( 0.5625, 0, 0, 0.5625, 0,0) ">
<use xlink:href="#Layer0_0_MEMBER_0_MEMBER_2_MEMBER_7_FILL"/>
</g>

<g transform="matrix( 0.5625, 0, 0, 0.5625, 0,0) ">
<use xlink:href="#Layer0_0_MEMBER_0_MEMBER_2_MEMBER_8_FILL"/>
</g>

<g transform="matrix( 0.5625, 0, 0, 0.5625, 0,0) ">
<use xlink:href="#Layer0_0_MEMBER_0_MEMBER_2_MEMBER_9_FILL"/>
</g>

<g transform="matrix( 0.5625, 0, 0, 0.5625, 0,0) ">
<use xlink:href="#Layer0_0_MEMBER_0_MEMBER_2_MEMBER_10_FILL"/>
</g>

<g transform="matrix( 0.5625, 0, 0, 0.5625, 0,0) ">
<use xlink:href="#Layer0_0_MEMBER_0_MEMBER_2_MEMBER_11_FILL"/>
</g>

<g transform="matrix( 0.5625, 0, 0, 0.5625, 0,0) ">
<use xlink:href="#Layer0_0_MEMBER_0_MEMBER_2_MEMBER_12_FILL"/>
</g>

<g transform="matrix( 0.5625, 0, 0, 0.5625, 0,0) ">
<use xlink:href="#Layer0_0_MEMBER_0_MEMBER_2_MEMBER_13_FILL"/>
</g>

<g transform="matrix( 0.5625, 0, 0, 0.5625, 0,0) ">
<use xlink:href="#Layer0_0_MEMBER_0_MEMBER_2_MEMBER_14_FILL"/>
</g>

<g transform="matrix( 0.5625, 0, 0, 0.5625, 0,0) ">
<use xlink:href="#Layer0_0_MEMBER_0_MEMBER_2_MEMBER_15_FILL"/>
</g>

<g transform="matrix( 0.5625, 0, 0, 0.5625, 0,0) ">
<use xlink:href="#Layer0_0_MEMBER_0_MEMBER_2_MEMBER_16_FILL"/>
</g>

<g transform="matrix( 0.5625, 0, 0, 0.5625, 0,0) ">
<use xlink:href="#Layer0_0_MEMBER_0_MEMBER_2_MEMBER_17_FILL"/>
</g>

<g transform="matrix( 0.5625, 0, 0, 0.5625, 0,0) ">
<use xlink:href="#Layer0_0_MEMBER_0_MEMBER_2_MEMBER_18_FILL"/>
</g>

<g transform="matrix( 0.5625, 0, 0, 0.5625, 0,0) ">
<use xlink:href="#Layer0_0_MEMBER_0_MEMBER_2_MEMBER_19_FILL"/>
</g>

<g transform="matrix( 0.5625, 0, 0, 0.5625, 0,0) ">
<use xlink:href="#Layer0_0_MEMBER_0_MEMBER_2_MEMBER_20_FILL"/>
</g>

<g transform="matrix( 0.5625, 0, 0, 0.5625, 0,0) ">
<use xlink:href="#Layer0_0_MEMBER_0_MEMBER_2_MEMBER_21_FILL"/>
</g>

<g transform="matrix( 0.5625, 0, 0, 0.5625, 0,0) ">
<use xlink:href="#Layer0_0_MEMBER_0_MEMBER_3_FILL"/>
</g>

<g transform="matrix( 0.5625, 0, 0, 0.5625, 0,0) ">
<use xlink:href="#Layer0_0_MEMBER_0_MEMBER_4_FILL"/>
</g>

<g transform="matrix( 0.5625, 0, 0, 0.5625, 0,0) ">
<use xlink:href="#Layer0_0_MEMBER_1_FILL"/>
</g>
</g>
</svg>
