
<svg xmlns="http://www.w3.org/2000/svg" version="1.1" xmlns:xlink="http://www.w3.org/1999/xlink" preserveAspectRatio="none" x="0px" y="0px" width="72px" height="72px" viewBox="0 0 72 72">
<defs>
<g id="Layer1_0_FILL">
<path fill="#FCC21B" stroke="none" d="
M 35.9 5.45
Q 13.6 5.45 4.85 26.05 0.05 37.3 0.05 52.5 0.05 58.35 10.6 62.45 21.05 66.6 35.9 66.6 50.8 66.6 61.3 62.45 71.8 58.35 71.8 52.5 71.8 37.3 67 26.05 58.25 5.45 35.9 5.45 Z"/>
</g>

<g id="Layer0_0_FILL">
<path fill="#ED6C30" stroke="none" d="
M 54.95 43.95
Q 55.9 40.65 54.25 39.55 53.15 38.8 51.4 38.95 51.2 39 48.4 39.55 42.7 40.7 36 40.7 29.25 40.7 23.6 39.55 20.8 39 20.6 38.95 18.85 38.8 17.7 39.55 16.1 40.65 17.05 43.95 18 47.25 20.6 50 23 52.45 26 54 30.55 56.4 36 56.4 41.45 56.4 46 54 49 52.45 51.35 50 54 47.25 54.95 43.95 Z"/>
</g>

<g id="Layer0_1_MEMBER_0_FILL">
<path fill="#2F2F2F" stroke="none" d="
M 40.2 45.65
Q 36.85 45.65 34.45 48.5 32.1 51.35 32.1 55.45 32.1 59.5 34.45 62.35 36.85 65.2 40.2 65.2 43.55 65.2 45.95 62.35 48.3 59.5 48.3 55.45 48.3 51.35 45.95 48.5 43.6 45.65 40.2 45.65 Z"/>
</g>

<g id="Layer0_1_MEMBER_1_FILL">
<path fill="#2F2F2F" stroke="none" d="
M 99.2 48
Q 98.35 47.35 97.25 47.5 93.7 48.05 89.3 49.2 80.65 51.45 75 54.85 74.25 55.3 73.9 56.15 73.6 57 73.8 57.85 74.05 58.7 74.8 59.2 75.5 59.75 76.4 59.75 76.45 59.75 82.8 60.15 90.05 60.95 94.95 63.15 95.25 63.3 95.55 63.3 96.45 63.45 97.25 63.05 98.1 62.65 98.45 61.8 98.9 60.8 98.5 59.8 98.1 58.75 97.1 58.35 92.25 56.15 86.9 55.4 92.7 53.5 98 52.75 99.1 52.6 99.75 51.7 100.4 50.85 100.25 49.75 100.1 48.65 99.2 48 Z"/>
</g>

<path id="Layer1_1_1_STROKES" stroke="#2F2F2F" stroke-width="3" stroke-linejoin="round" stroke-linecap="round" fill="none" d="
M 21.25 18.7
Q 16.4904296875 20.2630859375 14.05 25.35"/>
</defs>

<g id="Layer_1">
<g transform="matrix( 1, 0, 0, 1, 0,0) ">
<use xlink:href="#Layer1_0_FILL"/>
</g>

<g transform="matrix( 1, 0, 0, 1, 1.5,0) ">
<use xlink:href="#Layer1_1_1_STROKES"/>
</g>
</g>

<g transform="matrix( 0.68609619140625, 0, 0, 0.5562744140625, 11.3,20.2) ">
<use xlink:href="#Layer0_0_FILL"/>
</g>

<g transform="matrix( 0.5571746826171875, 0, 0, 0.5587005615234375, 1.1,-0.1) ">
<use xlink:href="#Layer0_1_MEMBER_0_FILL"/>
</g>

<g transform="matrix( 0.5131378173828125, -0.0448760986328125, 0.048675537109375, 0.5565643310546875, 1.2,3.9) ">
<use xlink:href="#Layer0_1_MEMBER_1_FILL"/>
</g>
</svg>
