
<svg xmlns="http://www.w3.org/2000/svg" version="1.1" xmlns:xlink="http://www.w3.org/1999/xlink" preserveAspectRatio="none" x="0px" y="0px" width="72px" height="72px" viewBox="0 0 72 72">
<defs>
<g id="Layer0_0_FILL">
<path fill="#FCC21B" stroke="none" d="
M 35.85 4.85
Q 13.55 4.85 4.8 25.5 0 36.75 0 51.95 0 57.8 10.5 61.9 21 66.05 35.85 66.05 50.75 66.05 61.25 61.9 71.75 57.8 71.75 51.95 71.75 36.75 66.95 25.5 58.2 4.85 35.85 4.85 Z"/>
</g>

<g id="Layer0_1_FILL">
<path fill="#ED6C30" stroke="none" d="
M 54.95 43.95
Q 55.9 40.65 54.25 39.55 53.15 38.8 51.4 38.95 51.2 39 48.4 39.55 42.7 40.7 36 40.7 29.25 40.7 23.6 39.55 20.8 39 20.6 38.95 18.85 38.8 17.7 39.55 16.1 40.65 17.05 43.95 18 47.25 20.6 50 23 52.45 26 54 30.55 56.4 36 56.4 41.45 56.4 46 54 49 52.45 51.35 50 54 47.25 54.95 43.95 Z"/>
</g>

<g id="Layer0_2_MEMBER_0_FILL">
<path fill="#2F2F2F" stroke="none" d="
M 47.8 44.7
Q 45.35 41.85 42 41.9 38.65 41.95 36.25 44.8 33.9 47.7 33.95 51.7 34 55.7 36.4 58.55 38.85 61.35 42.2 61.3 45.55 61.25 47.9 58.4 50.25 55.55 50.25 51.55 50.2 47.5 47.8 44.7 Z"/>
</g>

<g id="Layer0_2_MEMBER_1_FILL">
<path fill="#2F2F2F" stroke="none" d="
M 45.3 32.9
Q 46.65 34.5 48.55 34.5 50.45 34.5 51.8 32.9 53.1 31.3 53.1 29.05 53.1 26.8 51.75 25.15 50.4 23.55 48.5 23.6 46.65 23.6 45.3 25.2 43.95 26.8 43.95 29.05 43.95 31.3 45.3 32.9 Z"/>
</g>
</defs>

<g id="Layer_1">
<g transform="matrix( 1, 0, 0, 1, 0,0) ">
<use xlink:href="#Layer0_0_FILL"/>
</g>

<g transform="matrix( 1, 0, 0, 1, 0,0) ">
<use xlink:href="#Layer0_1_FILL"/>
</g>

<g transform="matrix( 0.5625, 0, 0, 0.5625, 0,0) ">
<use xlink:href="#Layer0_2_MEMBER_0_FILL"/>
</g>

<g transform="matrix( 1, 0, 0, 1, 0,0) ">
<use xlink:href="#Layer0_2_MEMBER_1_FILL"/>
</g>
</g>
</svg>
