
<svg xmlns="http://www.w3.org/2000/svg" version="1.1" xmlns:xlink="http://www.w3.org/1999/xlink" preserveAspectRatio="none" x="0px" y="0px" width="72px" height="72px" viewBox="0 0 72 72">
<defs>
<g id="Layer0_0_FILL">
<path fill="#FCC21B" stroke="none" d="
M 127.45 93.2
Q 127.45 66.35 119 46.4 103.5 9.9 64 9.9 24.5 9.9 9 46.4 0.5 66.35 0.5 93.2 0.5 103.55 19.1 110.85 37.65 118.15 64 118.15 90.25 118.15 108.85 110.85 127.45 103.5 127.45 93.2 Z"/>
</g>

<g id="Layer0_1_FILL">
<path fill="#2F2F2F" stroke="none" d="
M 89.65 84.75
Q 90.9 84.75 91.75 83.9 92.65 83 92.65 81.75 92.65 80.5 91.8 79.65 90.9 78.75 89.65 78.75
L 38.3 78.75
Q 37.05 78.75 36.2 79.65 35.3 80.5 35.3 81.75 35.3 83 36.2 83.9 37.05 84.75 38.3 84.75
L 89.65 84.75 Z"/>
</g>

<g id="Layer0_2_MEMBER_0_FILL">
<path fill="#2F2F2F" stroke="none" d="
M 36.05 51.5
Q 33.7 54.4 33.75 58.4 33.8 62.4 36.2 65.25 38.65 68.05 42 68 45.35 68 47.7 65.15 50.05 62.25 50 58.25 49.95 54.25 47.55 51.4 45.15 48.55 41.8 48.6 38.45 48.65 36.05 51.5 Z"/>
</g>

<g id="Layer0_2_MEMBER_1_FILL">
<path fill="#2F2F2F" stroke="none" d="
M 94.2 58.3
Q 94.15 54.3 91.8 51.45 89.4 48.6 86.05 48.65 82.7 48.65 80.3 51.5 77.9 54.35 77.9 58.35 77.95 62.35 80.35 65.2 82.75 68.05 86.1 68 89.45 68 91.8 65.15 94.2 62.3 94.2 58.3 Z"/>
</g>
</defs>

<g id="Layer_1">
<g transform="matrix( 0.5625, 0, 0, 0.5625, 0,0) ">
<use xlink:href="#Layer0_0_FILL"/>
</g>

<g transform="matrix( 0.5625, 0, 0, 0.5625, 0,0) ">
<use xlink:href="#Layer0_1_FILL"/>
</g>

<g transform="matrix( 0.562469482421875, 0, 0, 0.562469482421875, 0.05,-2.85) ">
<use xlink:href="#Layer0_2_MEMBER_0_FILL"/>
</g>

<g transform="matrix( 0.562469482421875, 0, 0, 0.562469482421875, 0.05,-2.85) ">
<use xlink:href="#Layer0_2_MEMBER_1_FILL"/>
</g>
</g>
</svg>
