
<svg xmlns="http://www.w3.org/2000/svg" version="1.1" xmlns:xlink="http://www.w3.org/1999/xlink" preserveAspectRatio="none" x="0px" y="0px" width="72px" height="72px" viewBox="0 0 72 72">
<defs>
<g id="Layer1_0_FILL">
<path fill="#FCC21B" stroke="none" d="
M 36 5.35
Q 13.85 5.35 5.2 26 0.4 37.35 0.4 52.55 0.4 58.4 10.85 62.55 21.25 66.7 36 66.7 50.7 66.7 61.15 62.55 71.55 58.4 71.55 52.55 71.55 37.35 66.8 26 58.1 5.35 36 5.35 Z"/>
</g>

<g id="Layer1_1_FILL">
<path fill="#2F2F2F" stroke="none" d="
M 55.15 46.15
Q 56.1 42.85 54.45 41.75 53.35 41 51.6 41.15 51.4 41.2 48.6 41.75 42.9 42.9 36.2 42.9 29.45 42.9 23.8 41.75 21 41.2 20.8 41.15 19.05 41 17.9 41.75 16.3 42.85 17.25 46.15 18.2 49.45 20.8 52.2 23.2 54.65 26.2 56.2 30.75 58.6 36.2 58.6 41.65 58.6 46.2 56.2 49.2 54.65 51.55 52.2 54.2 49.45 55.15 46.15 Z"/>
</g>

<g id="Layer0_0_FILL">
<path fill="#D7598B" stroke="none" d="
M 36 47.65
Q 30.7 47.65 25.55 46.85 26.15 47.55 27.85 56.6 28.05 57.65 28.25 58.55 29.05 60.85 30.2 62.2 31.2 63.4 32.5 63.8 33.95 64.3 36 64.3 38.05 64.3 39.5 63.8 40.8 63.4 41.8 62.2 42.95 60.85 43.75 58.55 43.95 57.65 44.15 56.6 45.85 47.55 46.45 46.85 41.3 47.65 36 47.65
L 36 58.15 36 47.65 Z"/>
</g>

<g id="Layer0_1_MEMBER_0_MEMBER_0_FILL">
<path fill="#FFFFFF" stroke="none" d="
M 97.7 42.4
Q 93.75 37.05 87.35 36.35 80.95 35.65 75.9 39.95 70.85 44.3 70.1 51.15 69.35 58 73.3 63.3 77.3 68.65 83.65 69.35 90.05 70.05 95.1 65.75 100.15 61.4 100.9 54.55 101.7 47.75 97.7 42.4 Z"/>
</g>

<g id="Layer0_1_MEMBER_0_MEMBER_1_FILL">
<path fill="#2F2F2F" stroke="none" d="
M 90.7 48.45
Q 89 46.6 86.5 46.5 84 46.3 82.1 47.95 80.2 49.6 80.05 52.1 79.85 54.55 81.55 56.45 83.2 58.3 85.7 58.45 88.2 58.6 90.1 56.95 92 55.3 92.2 52.8 92.35 50.3 90.7 48.45 Z"/>
</g>

<g id="Layer0_1_MEMBER_1_FILL">
<path fill="#2F2F2F" stroke="none" d="
M 17.15 33.75
Q 17.55 32.95 18.35 32.15 20 30.65 22.3 30.45 24.6 30.25 26.45 31.45 27.45 32.1 27.95 32.8 28.45 33.5 29.35 33.4 29.75 33.4 30.1 33.15 30.6 32.75 30.75 32.15 30.8 31.55 30.45 31 29.65 29.9 28.25 29 25.5 27.1 22.05 27.4 18.6 27.7 16.15 30.05 14.95 31.2 14.35 32.4 14.1 33 14.3 33.55 14.5 34.15 15.1 34.45 15.65 34.7 16.25 34.5 16.85 34.3 17.15 33.75 Z"/>
</g>

<path id="Layer0_0_1_STROKES" stroke="#2F2F2F" stroke-width="2" stroke-linejoin="round" stroke-linecap="round" fill="none" d="
M 36 47.65
L 36 58.15"/>
</defs>

<g id="Layer_1">
<g transform="matrix( 1, 0, 0, 1, 0,0) ">
<use xlink:href="#Layer1_0_FILL"/>
</g>

<g transform="matrix( 1, 0, 0, 1, 0,0) ">
<use xlink:href="#Layer1_1_FILL"/>
</g>
</g>

<g id="Camada_3">
<g transform="matrix( 1, 0, 0, 1, 0,0) ">
<use xlink:href="#Layer0_0_FILL"/>

<use xlink:href="#Layer0_0_1_STROKES"/>
</g>

<g transform="matrix( -0.562469482421875, 0, 0, 0.562469482421875, 97.7,0.1) ">
<use xlink:href="#Layer0_1_MEMBER_0_MEMBER_0_FILL"/>
</g>

<g transform="matrix( -0.6421356201171875, 0, 0, 0.6421356201171875, 104.9,-4.05) ">
<use xlink:href="#Layer0_1_MEMBER_0_MEMBER_1_FILL"/>
</g>

<g transform="matrix( 0.9962005615234375, 0.087158203125, -0.087158203125, 0.9962005615234375, 2.4,-2.95) ">
<use xlink:href="#Layer0_1_MEMBER_1_FILL"/>
</g>
</g>
</svg>
