
<svg xmlns="http://www.w3.org/2000/svg" version="1.1" xmlns:xlink="http://www.w3.org/1999/xlink" preserveAspectRatio="none" x="0px" y="0px" width="72px" height="72px" viewBox="0 0 72 72">
<defs>
<g id="Layer0_0_FILL">
<path fill="#FCC21B" stroke="none" d="
M 127.45 93.2
Q 127.45 66.35 119 46.4 103.5 9.9 64 9.9 24.5 9.9 9 46.4 0.5 66.35 0.5 93.2 0.5 103.55 19.1 110.85 37.65 118.15 64 118.15 90.25 118.15 108.85 110.85 127.45 103.5 127.45 93.2 Z"/>
</g>

<g id="Layer0_1_MEMBER_0_MEMBER_1_FILL">
<path fill="#2F2F2F" stroke="none" d="
M 27.3 57.7
Q 28.15 58.6 29.4 58.6
L 41.2 58.6
Q 40.5 56.75 40.5 54.7 40.45 53.65 40.65 52.6
L 29.4 52.6
Q 28.15 52.6 27.3 53.5 26.4 54.35 26.4 55.6 26.4 56.85 27.3 57.7 Z"/>
</g>

<g id="Layer0_1_MEMBER_0_MEMBER_2_MEMBER_0_FILL">
<path fill="#2F2F2F" stroke="none" d="
M 55.55 57.95
Q 54.75 58.6 53.65 58.6
L 41.2 58.6
Q 42.2 61.2 44.2 62.75 46.25 64.35 48.7 64.3 51.7 64.25 53.95 61.95 56.15 59.7 56.6 56.25 56.35 57.25 55.55 57.95 Z"/>
</g>

<g id="Layer0_1_MEMBER_0_MEMBER_2_MEMBER_1_FILL">
<path fill="#2F2F2F" stroke="none" d="
M 55.55 57.95
Q 56.35 57.25 56.6 56.25
L 56.6 56.15 56.65 55.6
Q 56.65 54.35 55.75 53.5 54.9 52.6 53.65 52.6
L 40.65 52.6
Q 40.45 53.45 40.45 54.7 40.55 56.8 41.2 58.6
L 53.65 58.6
Q 54.75 58.6 55.55 57.95 Z"/>
</g>

<g id="Layer0_1_MEMBER_1_MEMBER_1_FILL">
<path fill="#2F2F2F" stroke="none" d="
M 85.35 54.7
Q 85.35 53.55 85.55 52.6
L 74.3 52.6
Q 73.05 52.6 72.15 53.5 71.3 54.35 71.3 55.6 71.3 56.85 72.15 57.7 73.05 58.6 74.3 58.6
L 86.1 58.6
Q 85.35 56.6 85.35 54.7 Z"/>
</g>

<g id="Layer0_1_MEMBER_1_MEMBER_2_MEMBER_0_FILL">
<path fill="#2F2F2F" stroke="none" d="
M 100.45 57.95
Q 99.65 58.6 98.55 58.6
L 86.1 58.6
Q 87.1 61.2 89.1 62.75 91.1 64.35 93.55 64.3 96.55 64.25 98.8 61.95 101 59.7 101.5 56.25 101.25 57.25 100.45 57.95 Z"/>
</g>

<g id="Layer0_1_MEMBER_1_MEMBER_2_MEMBER_1_FILL">
<path fill="#2F2F2F" stroke="none" d="
M 101.5 56.25
L 101.5 56.15 101.55 55.6
Q 101.55 54.35 100.65 53.5 99.8 52.6 98.55 52.6
L 85.55 52.6
Q 85.35 53.45 85.35 54.7 85.35 56.6 86.1 58.6
L 98.55 58.6
Q 99.65 58.6 100.45 57.95 101.25 57.25 101.5 56.25 Z"/>
</g>

<path id="Layer0_2_1_STROKES" stroke="#2F2F2F" stroke-width="3" stroke-linejoin="miter" stroke-linecap="round" stroke-miterlimit="10" fill="none" d="
M 26.45 47.9
Q 30.2 44.95 36.05 44.95 41.9 44.95 45.7 47.9"/>

<path id="Layer0_3_1_STROKES" stroke="#2F2F2F" stroke-width="3" stroke-linejoin="round" stroke-linecap="round" fill="none" d="
M 49.4 19.15
Q 54.95 18.95 58.3 22.95
M 24.65 19.15
Q 19.1 18.95 15.75 22.95"/>
</defs>

<g id="Layer_1">
<g transform="matrix( 0.5625, 0, 0, 0.5625, 0,0) ">
<use xlink:href="#Layer0_0_FILL"/>
</g>

<g transform="matrix( 0.5625, 0, 0, 0.5625, -0.45,0) ">
<use xlink:href="#Layer0_1_MEMBER_0_MEMBER_1_FILL"/>
</g>

<g transform="matrix( 0.5625, 0, 0, 0.5625, -0.45,0) ">
<use xlink:href="#Layer0_1_MEMBER_0_MEMBER_2_MEMBER_0_FILL"/>
</g>

<g transform="matrix( 0.5625, 0, 0, 0.5625, -0.45,0) ">
<use xlink:href="#Layer0_1_MEMBER_0_MEMBER_2_MEMBER_1_FILL"/>
</g>

<g transform="matrix( 0.5625, 0, 0, 0.5625, 0.55,0) ">
<use xlink:href="#Layer0_1_MEMBER_1_MEMBER_1_FILL"/>
</g>

<g transform="matrix( 0.5625, 0, 0, 0.5625, 0.55,0) ">
<use xlink:href="#Layer0_1_MEMBER_1_MEMBER_2_MEMBER_0_FILL"/>
</g>

<g transform="matrix( 0.5625, 0, 0, 0.5625, 0.55,0) ">
<use xlink:href="#Layer0_1_MEMBER_1_MEMBER_2_MEMBER_1_FILL"/>
</g>

<g transform="matrix( 1, 0, 0, 1, 0,0) ">
<use xlink:href="#Layer0_2_1_STROKES"/>
</g>

<g transform="matrix( 1, 0, 0, 1, -1,0) ">
<use xlink:href="#Layer0_3_1_STROKES"/>
</g>
</g>
</svg>
