
<svg xmlns="http://www.w3.org/2000/svg" version="1.1" xmlns:xlink="http://www.w3.org/1999/xlink" preserveAspectRatio="none" x="0px" y="0px" width="72px" height="72px" viewBox="0 0 72 72">
<defs>
<g id="Layer1_0_FILL">
<path fill="#FCC21B" stroke="none" d="
M 127.75 93.35
Q 127.75 66.35 119.25 46.3 103.65 9.65 64 9.65 24.3 9.65 8.7 46.3 0.2 66.35 0.2 93.35 0.2 103.75 18.9 111.05 37.55 118.4 64 118.4 90.4 118.4 109.1 111.05 127.75 103.75 127.75 93.35 Z"/>
</g>

<g id="Layer1_1_MEMBER_0_FILL">
<path fill="#2F2F2F" stroke="none" d="
M 47.8 45.7
Q 45.35 42.85 42 42.9 38.65 42.95 36.25 45.8 33.9 48.7 33.95 52.7 34 56.7 36.4 59.55 38.85 62.35 42.2 62.3 45.55 62.25 47.9 59.4 50.25 56.55 50.25 52.55 50.2 48.5 47.8 45.7 Z"/>
</g>

<g id="Layer1_1_MEMBER_1_FILL">
<path fill="#2F2F2F" stroke="none" d="
M 92 45.75
Q 89.6 42.9 86.25 42.95 82.9 42.95 80.5 45.8 78.15 48.65 78.15 52.65 78.15 56.65 80.55 59.5 82.95 62.35 86.3 62.3 89.65 62.3 92.05 59.45 94.4 56.6 94.4 52.6 94.4 48.6 92 45.75 Z"/>
</g>

<g id="Layer0_0_FILL">
<path fill="#ED6C30" stroke="none" d="
M 85.65 92.6
Q 84.6 88.85 81.55 85.7 78.85 82.9 75.4 81.1 70.2 78.35 63.95 78.35 57.75 78.35 52.5 81.1 49.05 82.9 46.35 85.7 43.35 88.85 42.3 92.6 41.2 96.45 43.05 97.7 44.35 98.55 46.35 98.4 46.55 98.35 49.75 97.7 56.2 96.35 63.95 96.35 71.75 96.35 78.15 97.7 81.45 98.35 81.6 98.4 83.6 98.55 84.9 97.7 86.75 96.45 85.65 92.6 Z"/>
</g>

<g id="Layer0_1_FILL">
<path fill="#FFFFFF" stroke="none" d="
M 48.95 44.1
Q 46.8 38.7 43.7 35.6 40.6 38.7 38.4 44.1 36.2 49.5 38.4 53.05 40.6 56.5 43.7 56.5 46.8 56.5 48.95 53.05 51.15 49.5 48.95 44.1 Z"/>
</g>

<path id="Layer0_2_1_STROKES" stroke="#2F2F2F" stroke-width="3" stroke-linejoin="round" stroke-linecap="round" fill="none" d="
M 46.8 20
Q 51.6 20.5 53.8 25
M 22.4 20
Q 17.55 20.5 15.4 25"/>
</defs>

<g id="Layer_1">
<g transform="matrix( 0.5625, 0, 0, 0.5625, 0,0) ">
<use xlink:href="#Layer1_0_FILL"/>
</g>

<g transform="matrix( 0.5625, 0, 0, 0.5625, -0.1,2) ">
<use xlink:href="#Layer1_1_MEMBER_0_FILL"/>
</g>

<g transform="matrix( 0.5625, 0, 0, 0.5625, -0.1,2) ">
<use xlink:href="#Layer1_1_MEMBER_1_FILL"/>
</g>
</g>

<g id="Camada_2">
<g transform="matrix( 0.5123138427734375, 0, 0, 0.489410400390625, 3.25,5.55) ">
<use xlink:href="#Layer0_0_FILL"/>
</g>

<g transform="matrix( 1, 0, 0, 1, -23.35,1.15) ">
<use xlink:href="#Layer0_1_FILL"/>
</g>

<g transform="matrix( 1, 0, 0, 1, 1.4,0) ">
<use xlink:href="#Layer0_2_1_STROKES"/>
</g>
</g>
</svg>
