
<svg xmlns="http://www.w3.org/2000/svg" version="1.1" xmlns:xlink="http://www.w3.org/1999/xlink" preserveAspectRatio="none" x="0px" y="0px" width="72px" height="72px" viewBox="0 0 72 72">
<defs>
<g id="Layer1_0_FILL">
<path fill="#FCC21B" stroke="none" d="
M 127.75 93.35
Q 127.75 66.35 119.25 46.3 103.65 9.65 64 9.65 24.3 9.65 8.7 46.3 0.2 66.35 0.2 93.35 0.2 103.75 18.9 111.05 37.55 118.4 64 118.4 90.4 118.4 109.1 111.05 127.75 103.75 127.75 93.35 Z"/>
</g>

<g id="Layer1_1_FILL">
<path fill="#FFFFFF" stroke="none" d="
M 17.6 35.85
Q 17.3 34.15 16.35 34.5 15.85 34.7 14.25 35.9 13.0318359375 36.9150390625 11.85 38.25 11.0189453125 39.2162109375 10.2 40.35 8.5 42.6 8.2 45.2 7.85 47.9 8.95 50.35 9.8 52 11.8 52.65 13.55 53.25 15.3 52.6 16.4 52.15 17.4 51.05 18.4 50 18.7 48.8 18.8 47.65 18.8 45.7 18.85 43.85 18.65 43.15 18.5 42.1 18.15 39.8 18.0275390625 38.93046875 17.9 38.25 17.6376953125 36.151953125 17.6 35.85 Z"/>
</g>

<g id="Layer1_2_MEMBER_0_FILL">
<path fill="#2F2F2F" stroke="none" d="
M 47.8 45.7
Q 45.35 42.85 42 42.9 38.65 42.95 36.25 45.8 33.9 48.7 33.95 52.7 34 56.7 36.4 59.55 38.85 62.35 42.2 62.3 45.55 62.25 47.9 59.4 50.25 56.55 50.25 52.55 50.2 48.5 47.8 45.7 Z"/>
</g>

<g id="Layer1_2_MEMBER_1_FILL">
<path fill="#2F2F2F" stroke="none" d="
M 92 45.75
Q 89.6 42.9 86.25 42.95 82.9 42.95 80.5 45.8 78.15 48.65 78.15 52.65 78.15 56.65 80.55 59.5 82.95 62.35 86.3 62.3 89.65 62.3 92.05 59.45 94.4 56.6 94.4 52.6 94.4 48.6 92 45.75 Z"/>
</g>

<g id="Layer0_0_FILL">
<path fill="#2F2F2F" stroke="none" d="
M 48.55 47.85
Q 48.45 47.8 45.1 45.4 40.85 43.1 35.9 43.1 30.9 43.1 26.65 45.4 24.45 46.6 23.2 47.85 22.65 48.4 22.7 49.15 22.7 49.9 23.25 50.45 23.8 51 24.5 51 25.3 50.95 25.8 50.4 26.85 49.45 28.5 48.55 31.9 46.75 35.9 46.75 39.85 46.75 43.25 48.55 45.85 50.35 45.95 50.4 46.45 50.95 47.2 51 47.95 51 48.5 50.45 49.05 49.9 49.1 49.15 49.1 48.4 48.55 47.85 Z"/>
</g>

<path id="Layer0_1_1_STROKES" stroke="#2F2F2F" stroke-width="3" stroke-linejoin="round" stroke-linecap="round" fill="none" d="
M 47.6 19
Q 54.8 19.7 58.05 25.85
M 24.4 19
Q 17.2 19.7 13.95 25.85"/>
</defs>

<g id="Layer_1">
<g transform="matrix( 0.5625, 0, 0, 0.5625, 0,0) ">
<use xlink:href="#Layer1_0_FILL"/>
</g>

<g transform="matrix( 1, 0, 0, 1, 0,0) ">
<use xlink:href="#Layer1_1_FILL"/>
</g>

<g transform="matrix( 0.5625, 0, 0, 0.5625, -0.1,1) ">
<use xlink:href="#Layer1_2_MEMBER_0_FILL"/>
</g>

<g transform="matrix( 0.5625, 0, 0, 0.5625, -0.1,1) ">
<use xlink:href="#Layer1_2_MEMBER_1_FILL"/>
</g>
</g>

<g id="Camada_2">
<g transform="matrix( 1, 0, 0, 1, 0.1,1.4) ">
<use xlink:href="#Layer0_0_FILL"/>
</g>

<g transform="matrix( 1, 0, 0, 1, 0,0) ">
<use xlink:href="#Layer0_1_1_STROKES"/>
</g>
</g>
</svg>
