
<svg xmlns="http://www.w3.org/2000/svg" version="1.1" xmlns:xlink="http://www.w3.org/1999/xlink" preserveAspectRatio="none" x="0px" y="0px" width="72px" height="72px" viewBox="0 0 72 72">
<defs>
<g id="Layer0_0_FILL">
<path fill="#FCC21B" stroke="none" d="
M 127.85 93.4
Q 127.85 66.4 119.35 46.3 103.75 9.6 64 9.6 24.25 9.6 8.65 46.3 0.1 66.4 0.1 93.4 0.1 103.8 18.8 111.1 37.5 118.45 64 118.45 90.45 118.45 109.15 111.1 127.85 103.8 127.85 93.4 Z"/>
</g>

<g id="Layer0_1_MEMBER_0_FILL">
<path fill="#2F2F2F" stroke="none" d="
M 96.15 40.45
Q 95.3 41.8 93.7 43 90.6 45.35 86.45 45.35 82.35 45.35 79.2 42.95 76.85 40.55 76.75 40.4 76 39.1 74.45 39.1 73.65 39.1 73.05 39.5 72.1 40.05 71.8 41.15 71.5 42.25 72.05 43.2 72.15 43.35 75.65 47.1 80.35 50.8 86.45 50.8 92.6 50.8 97.25 47.1 99.6 45.25 100.85 43.2 101.4 42.25 101.1 41.15 100.85 40.05 99.85 39.5 98.9 38.95 97.8 39.2 96.7 39.5 96.15 40.45 Z"/>
</g>

<g id="Layer0_1_MEMBER_1_FILL">
<path fill="#2F2F2F" stroke="none" d="
M 52.3 47.1
Q 54.65 45.25 55.85 43.2 56.45 42.25 56.15 41.15 55.9 40.05 54.9 39.5 53.95 38.9 52.85 39.2 51.75 39.45 51.2 40.45 50.45 41.7 48.85 42.9 45.7 45.35 41.5 45.35 37.35 45.35 34.25 43 31.9 40.55 31.85 40.45 31 39.1 29.45 39.1 28.7 39.1 28.1 39.5 27.15 40.05 26.85 41.15 26.55 42.25 27.1 43.2 27.2 43.35 30.7 47.1 35.35 50.8 41.5 50.8 47.6 50.8 52.3 47.1 Z"/>
</g>

<g id="Layer0_2_FILL">
<path fill="#ED6C30" stroke="none" d="
M 47.7 49.3
Q 45.95 47.55 43.65 46.45 40.2 44.7 36.05 44.7 31.95 44.7 28.5 46.45 26.2 47.55 24.45 49.3 22.45 51.3 21.75 53.65 21 56.05 22.25 56.85 23.1 57.4 24.45 57.3 24.55 57.25078125 27.75 56.8 30.95 56.3474609375 36.1 56.35 41.25 56.35234375 44.45 56.8 47.65 57.2490234375 47.75 57.3 49.1 57.4 49.95 56.85 51.15 56.05 50.45 53.65 49.75 51.3 47.7 49.3 Z"/>
</g>

<g id="Layer0_3_FILL">
<path fill="#FFFFFF" stroke="none" d="
M 61.15 48.5
Q 59.9 45.85 57 44.25 53.6 42.25 49.45 42.8 47.25 43.1 43.5 44.65 39.55 46.3 36.5 48.25 36.2 48.45 36.55 48.6 38.3 49.35 40 51.15 40.7 51.85 43 54.85 44.85 57.3 46.3 58.35 47.85 59.5 49.7 60.15 51.7 60.75 53.55 60.7 58.05 60.5 60.55 56.5 63.05 52.5 61.15 48.5 Z"/>
</g>

<path id="Layer0_4_1_STROKES" stroke="#2F2F2F" stroke-width="3" stroke-linejoin="round" stroke-linecap="round" fill="none" d="
M 49.4 24.2
Q 54.95 24 58.3 28
M 20.65 24.2
Q 15.1 24 11.75 28"/>
</defs>

<g id="Layer_1">
<g transform="matrix( 0.5625, 0, 0, 0.5625, 0,0) ">
<use xlink:href="#Layer0_0_FILL"/>
</g>

<g transform="matrix( 0.5625, 0, 0, 0.5625, 0,10) ">
<use xlink:href="#Layer0_1_MEMBER_0_FILL"/>
</g>

<g transform="matrix( 0.5625, 0, 0, 0.5625, 0,10) ">
<use xlink:href="#Layer0_1_MEMBER_1_FILL"/>
</g>

<g transform="matrix( 0.7581787109375, 0, 0, 1, 8.65,0) ">
<use xlink:href="#Layer0_2_FILL"/>
</g>

<g transform="matrix( 0.9453125, 0, 0, 0.9453125, 8.05,-1.8) ">
<use xlink:href="#Layer0_3_FILL"/>
</g>

<g transform="matrix( 1, 0, 0, 1, 1,0) ">
<use xlink:href="#Layer0_4_1_STROKES"/>
</g>
</g>
</svg>
