
<svg xmlns="http://www.w3.org/2000/svg" version="1.1" xmlns:xlink="http://www.w3.org/1999/xlink" preserveAspectRatio="none" x="0px" y="0px" width="72px" height="72px" viewBox="0 0 72 72">
<defs>
<g id="Layer0_0_FILL">
<path fill="#FCC21B" stroke="none" d="
M 128.1 93.45
Q 128.1 66.45 119.55 46.35 103.95 9.65 64.2 9.65 24.45 9.65 8.85 46.35 0.3 66.45 0.3 93.45 0.3 103.85 19 111.15 37.7 118.5 64.2 118.5 90.7 118.5 109.4 111.15 128.1 103.85 128.1 93.45 Z"/>
</g>

<g id="Layer0_1_FILL">
<path fill="#40C0E7" stroke="none" d="
M 109.25 17
L 101.45 17
Q 105.05 37.45 104.6 56.3 108.6 55.9 112.75 54.5 112.75 37.25 109.25 17 Z"/>
</g>

<g id="Layer0_2_FILL">
<path fill="#2F2F2F" stroke="none" d="
M 109.4 19.3
Q 110.25 20 110.75 20.75 111.1 21.25 111.7 21.4 112.3 21.55 112.85 21.25 113.45 20.9 113.55 20.3 113.75 19.75 113.4 19.2 112.7 18.05 111.4 17 108.75 14.85 105.35 14.85 101.85 14.85 99.3 17 97.95 18.05 97.25 19.2 96.95 19.8 97.05 20.4 97.25 20.9 97.8 21.25 98.15 21.5 98.55 21.45 99.45 21.5 99.9 20.75 100.35 20.05 101.3 19.3 103.05 17.95 105.35 17.95 107.65 17.95 109.4 19.3 Z"/>
</g>

<g id="Layer0_3_FILL">
<path fill="#ED6C30" stroke="none" d="
M 75.2 75.55
Q 71.1 69.1 64 69.1 56.85 69.1 52.8 75.55 49.2 81.2 49.2 89.3 49.2 96.6 53 100.45 56.8 104.3 64 104.3 71.15 104.3 74.95 100.45 78.75 96.6 78.75 89.3 78.75 81.2 75.2 75.55 Z"/>
</g>

<g id="Layer0_5_FILL">
<path fill="#40C0E7" stroke="none" d="
M 26.05 26.4
L 18.25 26.4
Q 14.75 46.65 14.75 63.9 18.9 65.3 22.9 65.7 22.45 46.85 26.05 26.4 Z"/>
</g>

<g id="Layer0_6_FILL">
<path fill="#2F2F2F" stroke="none" d="
M 16.7 30.15
Q 17.2 29.4 18.05 28.7 19.8 27.35 22.1 27.35 24.4 27.35 26.15 28.7 27.1 29.45 27.55 30.15 28 30.9 28.9 30.85 29.3 30.9 29.65 30.65 30.2 30.35 30.4 29.8 30.5 29.2 30.2 28.6 29.5 27.45 28.15 26.4 25.6 24.25 22.1 24.25 18.7 24.25 16.05 26.4 14.75 27.45 14.05 28.6 13.7 29.15 13.9 29.7 14 30.3 14.6 30.65 15.15 30.95 15.75 30.8 16.35 30.65 16.7 30.15 Z"/>
</g>

<path id="Layer0_4_1_STROKES" stroke="#2F2F2F" stroke-width="3" stroke-linejoin="round" stroke-linecap="round" fill="none" d="
M 58.740786743164065 21.3
L 57.44837036132812 21.2
Q 52.95300903320312 20.849999999999998 51.26724853515624 19.349999999999998 49.97483215332031 17.95 49.41291198730468 16.9
M 13.169061279296876 21.3
Q 18.675878906250002 21.099999999999998 20.64259948730469 19.349999999999998 21.935015869140624 17.95 22.49693603515625 16.9"/>
</defs>

<g id="Layer_1">
<g transform="matrix( 0.5625, 0, 0, 0.5625, -0.1,-0.05) ">
<use xlink:href="#Layer0_0_FILL"/>
</g>

<g transform="matrix( 1, 0, 0, 1, -55.45,9.4) ">
<use xlink:href="#Layer0_1_FILL"/>
</g>

<g transform="matrix( 1, 0, 0, 1, -55.45,9.4) ">
<use xlink:href="#Layer0_2_FILL"/>
</g>

<g transform="matrix( 0.55743408203125, 0, 0, 0.55743408203125, 0.25,-1.85) ">
<use xlink:href="#Layer0_3_FILL"/>
</g>

<g transform="matrix( 1.12384033203125, 0, 0, 1, -4.7,-3.8) ">
<use xlink:href="#Layer0_4_1_STROKES" transform="matrix( 0.889801025390625, 0, 0, 1, 4.15,3.8) "/>
</g>

<g transform="matrix( 1, 0, 0, 1, 0,0) ">
<use xlink:href="#Layer0_5_FILL"/>
</g>

<g transform="matrix( 1, 0, 0, 1, 0,0) ">
<use xlink:href="#Layer0_6_FILL"/>
</g>
</g>
</svg>
