
<svg xmlns="http://www.w3.org/2000/svg" version="1.1" xmlns:xlink="http://www.w3.org/1999/xlink" preserveAspectRatio="none" x="0px" y="0px" width="72px" height="72px" viewBox="0 0 72 72">
<defs>
<g id="Layer0_0_FILL">
<path fill="#40C0E7" stroke="none" d="
M 11.95 52.3
Q 2.05 55.55 2.05 60.1 2.05 64.55 11.95 67.7 21.95 70.95 36.05 70.95 50.15 70.95 60.1 67.7 70.05 64.55 70.05 60.1 70.05 55.55 60.1 52.3 50.15 49.15 36.05 49.15 21.95 49.15 11.95 52.3 Z"/>
</g>

<g id="Layer0_1_FILL">
<path fill="#FCC21B" stroke="none" d="
M 128.1 93.45
Q 128.1 66.45 119.55 46.35 103.95 9.65 64.2 9.65 24.45 9.65 8.85 46.35 0.3 66.45 0.3 93.45 0.3 103.85 19 111.15 37.7 118.5 64.2 118.5 90.7 118.5 109.4 111.15 128.1 103.85 128.1 93.45 Z"/>
</g>

<g id="Layer0_2_FILL">
<path fill="#ED6C30" stroke="none" d="
M 64 69.1
Q 56.85 69.1 52.8 75.55 49.2 81.2 49.2 89.3 49.2 96.6 53 100.45 56.8 104.3 64 104.3 71.15 104.3 74.95 100.45 78.75 96.6 78.75 89.3 78.75 81.2 75.2 75.55 71.1 69.1 64 69.1 Z"/>
</g>

<g id="Layer0_4_MEMBER_0_MEMBER_0_FILL">
<path fill="#40C0E7" stroke="none" d="
M 26.05 25.5
Q 25.9490234375 25.4458984375 25.8 25.45
L 18.7 25.45
Q 18.5169921875 25.4544921875 18.35 25.55 18.234375 25.681640625 18.2 25.85 14.1654296875 47.8056640625 15 66.45 15.006640625 66.667578125 15.15 66.8 15.29765625 66.94453125 15.5 66.95
L 22.4 66.95
Q 22.5591796875 66.94765625 22.65 66.85 22.8013671875 66.8123046875 22.85 66.7 22.93515625 66.5708984375 22.9 66.4 22.2796875 47.8720703125 26.3 26.05 26.3181640625 25.8955078125 26.25 25.75 26.195703125 25.609765625 26.05 25.5 Z"/>
</g>

<g id="Layer0_4_MEMBER_1_MEMBER_0_MEMBER_0_FILL">
<path fill="#2F2F2F" stroke="none" d="
M 17.15 33.75
Q 17.55 32.95 18.35 32.15 20 30.65 22.3 30.45 24.6 30.25 26.45 31.45 27.45 32.1 27.95 32.8 28.45 33.5 29.35 33.4 29.75 33.4 30.1 33.15 30.6 32.75 30.75 32.15 30.8 31.55 30.45 31 29.65 29.9 28.25 29 25.5 27.1 22.05 27.4 18.6 27.7 16.15 30.05 14.95 31.2 14.35 32.4 14.1 33 14.3 33.55 14.5 34.15 15.1 34.45 15.65 34.7 16.25 34.5 16.85 34.3 17.15 33.75 Z"/>
</g>

<g id="Layer0_4_MEMBER_2_MEMBER_0_FILL">
<path fill="#40C0E7" stroke="none" d="
M 53.6 25.55
Q 53.4828125 25.4544921875 53.3 25.45
L 46.2 25.45
Q 46.0509765625 25.4458984375 45.9 25.5 45.804296875 25.609765625 45.75 25.75 45.6818359375 25.8955078125 45.7 26.05 49.7203125 47.8720703125 49.05 66.4 49.0646484375 66.5708984375 49.1 66.7 49.1986328125 66.8123046875 49.3 66.85 49.4408203125 66.94765625 49.55 66.95
L 56.5 66.95
Q 56.70234375 66.94453125 56.85 66.8 56.9931640625 66.667578125 57 66.45 57.834375 47.8056640625 53.8 25.85 53.7654296875 25.681640625 53.6 25.55 Z"/>
</g>

<g id="Layer0_4_MEMBER_3_MEMBER_0_MEMBER_0_FILL">
<path fill="#2F2F2F" stroke="none" d="
M 17.15 33.75
Q 17.55 32.95 18.35 32.15 20 30.65 22.3 30.45 24.6 30.25 26.45 31.45 27.45 32.1 27.95 32.8 28.45 33.5 29.35 33.4 29.75 33.4 30.1 33.15 30.6 32.75 30.75 32.15 30.8 31.55 30.45 31 29.65 29.9 28.25 29 25.5 27.1 22.05 27.4 18.6 27.7 16.15 30.05 14.95 31.2 14.35 32.4 14.1 33 14.3 33.55 14.5 34.15 15.1 34.45 15.65 34.7 16.25 34.5 16.85 34.3 17.15 33.75 Z"/>
</g>

<path id="Layer0_3_1_STROKES" stroke="#2F2F2F" stroke-width="3" stroke-linejoin="round" stroke-linecap="round" fill="none" d="
M 58.740786743164065 19.150000000000002
L 57.44837036132812 19.05
Q 52.95300903320312 18.7 51.26724853515624 17.2 49.97483215332031 15.8 49.41291198730468 14.75
M 13.169061279296876 19.150000000000002
Q 18.675878906250002 18.95 20.64259948730469 17.2 21.935015869140624 15.8 22.49693603515625 14.75"/>
</defs>

<g id="Layer_1">
<g transform="matrix( 1, 0, 0, 1, -0.1,-2.2) ">
<use xlink:href="#Layer0_0_FILL"/>
</g>

<g transform="matrix( 0.5625, 0, 0, 0.5625, -0.1,-2.2) ">
<use xlink:href="#Layer0_1_FILL"/>
</g>

<g transform="matrix( 0.55743408203125, 0, 0, 0.55743408203125, 0.25,-4) ">
<use xlink:href="#Layer0_2_FILL"/>
</g>

<g transform="matrix( 1.12384033203125, 0, 0, 1, -4.7,-5.95) ">
<use xlink:href="#Layer0_3_1_STROKES" transform="matrix( 0.889801025390625, 0, 0, 1, 4.15,5.95) "/>
</g>

<g transform="matrix( 1, 0, 0, 1, -0.1,-2.2) ">
<use xlink:href="#Layer0_4_MEMBER_0_MEMBER_0_FILL"/>
</g>

<g transform="matrix( 1, 0, 0, 1, -0.05,-5.4) ">
<use xlink:href="#Layer0_4_MEMBER_1_MEMBER_0_MEMBER_0_FILL"/>
</g>

<g transform="matrix( 1, 0, 0, 1, -0.1,-2.2) ">
<use xlink:href="#Layer0_4_MEMBER_2_MEMBER_0_FILL"/>
</g>

<g transform="matrix( -1, 0, 0, 1, 71.85,-5.4) ">
<use xlink:href="#Layer0_4_MEMBER_3_MEMBER_0_MEMBER_0_FILL"/>
</g>
</g>
</svg>
