
<svg xmlns="http://www.w3.org/2000/svg" version="1.1" xmlns:xlink="http://www.w3.org/1999/xlink" preserveAspectRatio="none" x="0px" y="0px" width="72px" height="72px" viewBox="0 0 72 72">
<defs>
<g id="Layer1_0_FILL">
<path fill="#FCC21B" stroke="none" d="
M 127.75 93.35
Q 127.75 66.35 119.25 46.3 103.65 9.65 64 9.65 24.3 9.65 8.7 46.3 0.2 66.35 0.2 93.35 0.2 103.75 18.9 111.05 37.55 118.4 64 118.4 90.4 118.4 109.1 111.05 127.75 103.75 127.75 93.35 Z"/>
</g>

<g id="Layer1_1_MEMBER_0_FILL">
<path fill="#2F2F2F" stroke="none" d="
M 47.8 45.7
Q 45.35 42.85 42 42.9 38.65 42.95 36.25 45.8 33.9 48.7 33.95 52.7 34 56.7 36.4 59.55 38.85 62.35 42.2 62.3 45.55 62.25 47.9 59.4 50.25 56.55 50.25 52.55 50.2 48.5 47.8 45.7 Z"/>
</g>

<g id="Layer1_1_MEMBER_1_FILL">
<path fill="#2F2F2F" stroke="none" d="
M 92 45.75
Q 89.6 42.9 86.25 42.95 82.9 42.95 80.5 45.8 78.15 48.65 78.15 52.65 78.15 56.65 80.55 59.5 82.95 62.35 86.3 62.3 89.65 62.3 92.05 59.45 94.4 56.6 94.4 52.6 94.4 48.6 92 45.75 Z"/>
</g>

<g id="Layer0_0_FILL">
<path fill="#ED6C30" stroke="none" d="
M 45.05 47.5
Q 43.65 46.1 41.9 45.25 39.2 43.9 36 43.9 32.85 43.9 30.15 45.25 28.4 46.1 27 47.5 25.45 49.05 24.9 50.85 24.35 52.75 25.3 53.35 25.95 53.8 27 53.7 27.105078125 53.7037109375 29.45 52.65 31.784375 51.64375 35.75 51.65 39.7654296875 51.6560546875 42.35 52.65 44.9947265625 53.69609375 45.05 53.7 46.1 53.8 46.75 53.35 47.7 52.75 47.15 50.85 46.6 49.05 45.05 47.5 Z"/>
</g>

<g id="Layer0_1_FILL">
<path fill="#40C0E7" stroke="none" d="
M 20.35 36.75
Q 17.25 39.85 15.05 45.25 12.85 50.65 15.05 54.2 17.25 57.65 20.35 57.65 23.45 57.65 25.6 54.2 27.8 50.65 25.6 45.25 23.45 39.85 20.35 36.75 Z"/>
</g>

<path id="Layer0_2_1_STROKES" stroke="#2F2F2F" stroke-width="3" stroke-linejoin="round" stroke-linecap="round" fill="none" d="
M 49.45 20.25
Q 54.25 20.8 56.45 25.75
M 23.55 20.25
Q 18.7 20.8 16.55 25.75"/>
</defs>

<g id="Layer_1">
<g transform="matrix( 0.5625, 0, 0, 0.5625, 0,0) ">
<use xlink:href="#Layer1_0_FILL"/>
</g>

<g transform="matrix( 0.5625, 0, 0, 0.5625, -0.1,2) ">
<use xlink:href="#Layer1_1_MEMBER_0_FILL"/>
</g>

<g transform="matrix( 0.5625, 0, 0, 0.5625, -0.1,2) ">
<use xlink:href="#Layer1_1_MEMBER_1_FILL"/>
</g>
</g>

<g id="Camada_2">
<g transform="matrix( 1, 0, 0, 1, 0,0) ">
<use xlink:href="#Layer0_0_FILL"/>
</g>

<g transform="matrix( 1, 0, 0, 1, 0,0) ">
<use xlink:href="#Layer0_1_FILL"/>
</g>

<g transform="matrix( 1, 0, 0, 1, -0.5,1) ">
<use xlink:href="#Layer0_2_1_STROKES"/>
</g>
</g>
</svg>
