
<svg xmlns="http://www.w3.org/2000/svg" version="1.1" xmlns:xlink="http://www.w3.org/1999/xlink" preserveAspectRatio="none" x="0px" y="0px" width="72px" height="72px" viewBox="0 0 72 72">
<defs>
<g id="Layer0_0_FILL">
<path fill="#FCD995" stroke="none" d="
M 66.7 48.95
Q 66.8080078125 48.4984375 66.85 48 51.659375 42.829296875 36 42.7
L 36 42.75
Q 20.35 42.85 5.1 48.05 5.2 48.5 5.25 49 5.7 51.35 6.55 53.6 6.65 53.85 6.75 54.1 7.25 55.1 7.8 56.05 7.85 56.05 7.85 56.1
L 7.85 56.15
Q 9.6 58.8 12.3 60.85 17.45 64.65 24.85 66.3 31 67.55 35.8 67.55 35.9 67.55 36 67.55 36.1 67.55 36.2 67.55 41 67.55 47.15 66.3 54.55 64.65 59.7 60.85 62.376171875 58.7970703125 64.1 56.1
L 64.15 56.1
Q 64.159375 56.0740234375 64.15 56.05 64.7638671875 55.110546875 65.25 54.1 65.34921875 53.85078125 65.45 53.6 66.29453125 51.344140625 66.7 48.95
M 25.6 18.45
Q 16.85 6.1 13.35 7.35 9.95 8.75 12.5 26.7 18.2 21.95 25.6 18.45
M 58.6 7.3
Q 55.1310546875 6.0791015625 46.35 18.45 53.8107421875 21.937890625 59.45 26.65 62.0451171875 8.75703125 58.6 7.3 Z"/>

<path fill="#FCC21B" stroke="none" d="
M 44.05 15.35
L 42.2 17.55
Q 38.9 17.05 36 17.05 33.1 17.05 29.8 17.55
L 27.95 15.35
Q 24.3 11.05 20.35 8 14.55 3.3 12.05 4.95 8.95 7.1 8.5 16.6 8.3 22.4 9.05 30.2 6.05 34.75 5.2 39.85 4.6 44.1 5.1 48.05 20.35 42.85 36 42.75
L 36 42.7
Q 51.659375 42.829296875 66.85 48 67.4126953125 44.083203125 66.8 39.85 65.95 34.75 62.95 30.2 63.7 22.4 63.5 16.6 63.05 7.1 59.95 4.95 57.45 3.3 51.65 8 47.7 11.05 44.05 15.35
M 46.35 18.45
Q 55.1310546875 6.0791015625 58.6 7.3 62.0451171875 8.75703125 59.45 26.65 53.8107421875 21.937890625 46.35 18.45
M 13.35 7.35
Q 16.85 6.1 25.6 18.45 18.2 21.95 12.5 26.7 9.95 8.75 13.35 7.35 Z"/>
</g>

<g id="Layer0_2_FILL">
<path fill="#2F2F2F" stroke="none" d="
M 31.2 43.1
Q 34.15 43.7 36 45.55 37.85 43.7 40.8 43.1 39.85 40.4 36.05 40.4 32.1 40.4 31.2 43.1 Z"/>
</g>

<g id="Layer0_3_FILL">
<path fill="#2F2F2F" stroke="none" d="
M 18.6 31.85
Q 17.25 33.35 17.25 35.45 17.25 37.55 18.6 39.05 19.9 40.5 21.75 40.5 23.65 40.5 24.95 39.05 26.25 37.55 26.25 35.45 26.25 33.35 24.95 31.85 23.65 30.4 21.75 30.4 19.9 30.4 18.6 31.85
M 47.05 39.05
Q 48.4 40.5 50.25 40.5 52.1 40.5 53.45 39.05 54.75 37.55 54.75 35.45 54.75 33.35 53.45 31.85 52.1 30.35 50.25 30.35 48.4 30.35 47.05 31.85 45.7 33.35 45.7 35.45 45.7 37.55 47.05 39.05 Z"/>
</g>

<path id="Layer0_0_1_STROKES" stroke="#2F2F2F" stroke-width="1" stroke-linejoin="round" stroke-linecap="round" fill="none" d="
M 36 42.725
L 36 42.75"/>

<path id="Layer0_1_1_STROKES" stroke="#2F2F2F" stroke-width="2" stroke-linejoin="round" stroke-linecap="round" fill="none" d="
M 58.15 43.1
Q 64 42.05 69.9 42.5
M 60.15 47
Q 64.85 47.25 68.85 48.4
M 56.45 39.55
Q 62.95 36.7 70.85 36.25
M 14 43.1
Q 8.1 42 2.25 42.5
M 11.95 47
Q 7.25 47.3 3.2 48.4
M 15.6 39.55
Q 9.1 36.7 1.2 36.25"/>

<path id="Layer0_2_1_STROKES" stroke="#2F2F2F" stroke-width="1" stroke-linejoin="round" stroke-linecap="round" fill="none" d="
M 30.9934326171875 42.38211364746094
Q 34.08936614990234 43.01179504394531 36.0308837890625 44.953312683105466 37.97240142822266 43.01179504394531 41.0683349609375 42.38211364746094 40.07133941650391 39.548547363281244 36.08335723876953 39.548547363281244 31.937954711914067 39.548547363281244 30.9934326171875 42.38211364746094 Z"/>

<path id="Layer0_2_2_STROKES" stroke="#2F2F2F" stroke-width="2" stroke-linejoin="round" stroke-linecap="round" fill="none" d="
M 36.0308837890625 44.953312683105466
L 36.0308837890625 48.416560363769534"/>

<path id="Layer0_4_1_STROKES" stroke="#2F2F2F" stroke-width="3" stroke-linejoin="miter" stroke-linecap="round" stroke-miterlimit="10" fill="none" d="
M 25.94290618896484 54.278837585449224
Q 29.928172302246093 49.69192199707031 36.04840240478515 49.69192199707031 42.13304977416992 49.69192199707031 46.11831588745117 54.278837585449224"/>

<path id="Layer0_5_MEMBER_0_1_STROKES" stroke="#2F2F2F" stroke-width="2" stroke-linejoin="round" stroke-linecap="round" fill="none" d="
M 45.97546234130859 32.909844970703126
Q 49.37372589111328 29.299948120117186 55.037036132812496 29.205978393554688"/>

<path id="Layer0_5_MEMBER_1_1_STROKES" stroke="#2F2F2F" stroke-width="2" stroke-linejoin="round" stroke-linecap="round" fill="none" d="
M 26.00010070800781 32.89004821777344
Q 22.55197067260742 29.275743103027345 16.938384246826168 29.186137390136718"/>
</defs>

<g id="Layer_1">
<g transform="matrix( 1, 0, 0, 1, 0,0) ">
<use xlink:href="#Layer0_0_FILL"/>

<use xlink:href="#Layer0_0_1_STROKES"/>
</g>

<g transform="matrix( 1, 0, 0, 1, 0,0) ">
<use xlink:href="#Layer0_1_1_STROKES"/>
</g>

<g transform="matrix( 1.049468994140625, 0, 0, 1.049468994140625, -1.75,-2.85) ">
<use xlink:href="#Layer0_2_FILL"/>

<use xlink:href="#Layer0_2_1_STROKES" transform="matrix( 0.952850341796875, 0, 0, 0.952850341796875, 1.65,2.7) "/>

<use xlink:href="#Layer0_2_2_STROKES" transform="matrix( 0.952850341796875, 0, 0, 0.952850341796875, 1.65,2.7) "/>
</g>

<g transform="matrix( 1, 0, 0, 1, 0,0) ">
<use xlink:href="#Layer0_3_FILL"/>
</g>

<g transform="matrix( 0.7116546630859375, 0, 0, 0.784088134765625, 10.5,14.8) ">
<use xlink:href="#Layer0_4_1_STROKES" transform="matrix( 1.4051666259765625, 0, 0, 1.275360107421875, -14.75,-18.85) "/>
</g>

<g transform="matrix( 0.996185302734375, -0.087158203125, 0.087158203125, 0.996185302734375, -1.5,7.15) ">
<use xlink:href="#Layer0_5_MEMBER_0_1_STROKES" transform="matrix( 0.9962005615234375, 0.087158203125, -0.087158203125, 0.9962005615234375, 2.1,-6.95) "/>
</g>

<g transform="matrix( 0.9962005615234375, 0.087158203125, -0.087158203125, 0.9962005615234375, 1.7,0.85) ">
<use xlink:href="#Layer0_5_MEMBER_1_1_STROKES" transform="matrix( 0.996185302734375, -0.0871429443359375, 0.0871429443359375, 0.996185302734375, -1.75,-0.65) "/>
</g>
</g>
</svg>
