
<svg xmlns="http://www.w3.org/2000/svg" version="1.1" xmlns:xlink="http://www.w3.org/1999/xlink" preserveAspectRatio="none" x="0px" y="0px" width="72px" height="72px" viewBox="0 0 72 72">
<defs>
<g id="Layer1_0_FILL">
<path fill="#FCC21B" stroke="none" d="
M 44.05 15.35
L 42.2 17.55
Q 38.9 17.05 36 17.05 33.1 17.05 29.8 17.55
L 27.95 15.35
Q 24.3 11.05 20.35 8 14.55 3.3 12.05 4.95 8.95 7.1 8.5 16.6 8.3 22.4 9.05 30.2 6.05 34.75 5.2 39.85 4.6 44.1 5.1 48.05 5.2 48.5 5.25 49 5.7 51.35 6.55 53.6 6.65 53.85 6.75 54.1 7.25 55.1 7.8 56.05 7.85 56.05 7.85 56.1
L 7.85 56.15
Q 9.6 58.8 12.3 60.85 17.45 64.65 24.85 66.3 31 67.55 35.8 67.55 35.9 67.55 36 67.55 36.1 67.55 36.2 67.55 41 67.55 47.15 66.3 54.55 64.65 59.7 60.85 62.376171875 58.7970703125 64.1 56.1
L 64.15 56.1
Q 64.159375 56.0740234375 64.15 56.05 64.7638671875 55.110546875 65.25 54.1 65.34921875 53.85078125 65.45 53.6 66.29453125 51.344140625 66.7 48.95 66.8080078125 48.4984375 66.85 48 67.4126953125 44.083203125 66.8 39.85 65.95 34.75 62.95 30.2 63.7 22.4 63.5 16.6 63.05 7.1 59.95 4.95 57.45 3.3 51.65 8 47.7 11.05 44.05 15.35
M 46.35 18.45
Q 55.1310546875 6.0791015625 58.6 7.3 62.0451171875 8.75703125 59.45 26.65 53.8107421875 21.937890625 46.35 18.45
M 12.5 26.7
Q 9.95 8.75 13.35 7.35 16.85 6.1 25.6 18.45 18.2 21.95 12.5 26.7 Z"/>

<path fill="#FCD995" stroke="none" d="
M 13.35 7.35
Q 9.95 8.75 12.5 26.7 18.2 21.95 25.6 18.45 16.85 6.1 13.35 7.35
M 58.6 7.3
Q 55.1310546875 6.0791015625 46.35 18.45 53.8107421875 21.937890625 59.45 26.65 62.0451171875 8.75703125 58.6 7.3 Z"/>
</g>

<g id="Layer1_0_MEMBER_0_FILL">
<path fill="#FCD995" stroke="none" d="
M -24.95 46.55
Q -22.25 44.5 -20.5 41.85
L -20.5 41.8
Q -20.5 41.75 -20.45 41.75 -19.9 40.8 -19.4 39.8 -19.3 39.55 -19.2 39.3 -18.35 37.05 -17.9 34.7 -17.85 34.2 -17.75 33.75 -33 28.55 -48.65 28.45 -64.3 28.55 -79.55 33.75 -79.45 34.2 -79.4 34.7 -78.95 37.05 -78.1 39.3 -78 39.55 -77.9 39.8 -77.4 40.8 -76.85 41.75 -76.8 41.75 -76.8 41.8
L -76.8 41.85
Q -75.05 44.5 -72.35 46.55 -67.2 50.35 -59.8 52 -53.65 53.25 -48.85 53.25 -48.75 53.25 -48.65 53.25 -48.55 53.25 -48.45 53.25 -43.65 53.25 -37.5 52 -30.1 50.35 -24.95 46.55 Z"/>
</g>

<g id="Layer1_2_FILL">
<path fill="#2F2F2F" stroke="none" d="
M 31.2 43.1
Q 34.15 43.7 36 45.55 37.85 43.7 40.8 43.1 39.85 40.4 36.05 40.4 32.1 40.4 31.2 43.1 Z"/>
</g>

<g id="Layer1_3_FILL">
<path fill="#ED6C30" stroke="none" d="
M 52 47.75
Q 51.8 47.4 51.45 47.2 50.55 46.6 49.05 46.75 48.9 46.8 47.6 47 47.1 47.1 46.5 47.2 46.3755859375 47.223046875 46.25 47.25 41.505078125 48.1 36 48.1 30.512109375 48.1 25.85 47.25 25.678515625 47.2333984375 25.5 47.2 25 47.1 24.6 47.05
L 24.55 47.05
Q 23.05 46.8 22.95 46.75 21.45 46.6 20.5 47.2 20.15 47.4 19.95 47.8 19.35 48.75 19.95 50.6 20.75 53.1 22.95 55.2 25 57.1 27.55 58.3 31.4 60.15 36 60.15 40.6 60.15 44.45 58.3 47 57.1 49 55.2 51.25 53.1 52.05 50.6 52.65 48.7 52 47.75 Z"/>
</g>

<g id="Layer0_0_MEMBER_0_MEMBER_0_MEMBER_0_MEMBER_0_FILL">
<path fill="#2F2F2F" stroke="none" d="
M 16.75 26.95
Q 15.4 28.05 14.75 29.15 14.45 29.8 14.55 30.3 14.8 31 15.25 31.25 15.8 31.55 16.4 31.4 17.05 31.25 17.35 30.75 17.7 30.05 18.75 29.3 20.5 27.95 22.8 27.95 25.1 27.95 26.9 29.3 27.85 30 28.25 30.75 28.7 31.45 29.55 31.45 30.1 31.45 30.35 31.25 30.9 30.95 31.05 30.35 31.2 29.75 30.9 29.15 30.25 28.05 28.9 26.95 26.25 24.9 22.8 24.9 19.3 24.9 16.75 26.95 Z"/>
</g>

<g id="Layer0_0_MEMBER_1_MEMBER_0_MEMBER_0_MEMBER_0_FILL">
<path fill="#2F2F2F" stroke="none" d="
M 57.3 29.15
Q 56.65 28.05 55.3 26.95 52.75 24.9 49.2 24.9 45.7 24.9 43.15 26.95
L 41.15 29.15
Q 40.8 29.65 40.95 30.3 41.1 30.95 41.7 31.25 42.2 31.55 42.85 31.4 43.45 31.25 43.75 30.7
L 45.1 29.3
Q 46.85 27.95 49.2 27.95 51.6 27.95 53.3 29.3 54.25 30 54.65 30.7 55.2 31.45 56 31.45 56.5 31.45 56.75 31.25 57.3 31 57.45 30.3 57.6 29.7 57.3 29.15 Z"/>
</g>

<path id="Layer1_1_1_STROKES" stroke="#2F2F2F" stroke-width="2" stroke-linejoin="round" stroke-linecap="round" fill="none" d="
M 58.15 43.1
Q 64 42.05 69.9 42.5
M 60.15 47
Q 64.85 47.25 68.85 48.4
M 56.45 39.55
Q 62.95 36.7 70.85 36.25
M 14 43.1
Q 8.1 42 2.25 42.5
M 11.95 47
Q 7.25 47.3 3.2 48.4
M 15.6 39.55
Q 9.1 36.7 1.2 36.25"/>

<path id="Layer1_2_1_STROKES" stroke="#2F2F2F" stroke-width="1" stroke-linejoin="round" stroke-linecap="round" fill="none" d="
M 30.9934326171875 42.38211364746094
Q 34.08936614990234 43.01179504394531 36.0308837890625 44.953312683105466 37.97240142822266 43.01179504394531 41.0683349609375 42.38211364746094 40.07133941650391 39.548547363281244 36.08335723876953 39.548547363281244 31.937954711914067 39.548547363281244 30.9934326171875 42.38211364746094 Z"/>

<path id="Layer1_2_2_STROKES" stroke="#2F2F2F" stroke-width="2" stroke-linejoin="round" stroke-linecap="round" fill="none" d="
M 36.0308837890625 44.953312683105466
L 36.0308837890625 48.416560363769534"/>
</defs>

<g id="Layer_1">
<g transform="matrix( 1, 0, 0, 1, 0,0) ">
<use xlink:href="#Layer1_0_FILL"/>
</g>

<g transform="matrix( 1, 0, 0, 1, 84.65,14.3) ">
<use xlink:href="#Layer1_0_MEMBER_0_FILL"/>
</g>

<g transform="matrix( 1, 0, 0, 1, 0,0) ">
<use xlink:href="#Layer1_1_1_STROKES"/>
</g>

<g transform="matrix( 1.049468994140625, 0, 0, 1.049468994140625, -1.75,-2.85) ">
<use xlink:href="#Layer1_2_FILL"/>

<use xlink:href="#Layer1_2_1_STROKES" transform="matrix( 0.952850341796875, 0, 0, 0.952850341796875, 1.65,2.7) "/>

<use xlink:href="#Layer1_2_2_STROKES" transform="matrix( 0.952850341796875, 0, 0, 0.952850341796875, 1.65,2.7) "/>
</g>

<g transform="matrix( 0.88128662109375, 0, 0, 0.9216766357421875, 4.3,3.35) ">
<use xlink:href="#Layer1_3_FILL"/>
</g>
</g>

<g transform="matrix( 0.937164306640625, 0, 0, 0.937164306640625, 2.3,8.95) ">
<use xlink:href="#Layer0_0_MEMBER_0_MEMBER_0_MEMBER_0_MEMBER_0_FILL"/>
</g>

<g transform="matrix( 0.937164306640625, 0, 0, 0.937164306640625, 2.3,8.95) ">
<use xlink:href="#Layer0_0_MEMBER_1_MEMBER_0_MEMBER_0_MEMBER_0_FILL"/>
</g>
</svg>
