
<svg xmlns="http://www.w3.org/2000/svg" version="1.1" xmlns:xlink="http://www.w3.org/1999/xlink" preserveAspectRatio="none" x="0px" y="0px" width="72px" height="72px" viewBox="0 0 72 72">
<defs>
<g id="Layer2_0_FILL">
<path fill="#FCC21B" stroke="none" d="
M 127.2 93.45
Q 127.2 66.4 118.75 46.25 103.3 9.5 64 9.5 24.65 9.5 9.2 46.25 0.75 66.4 0.75 93.45 0.75 103.85 19.25 111.2 37.8 118.55 64 118.55 90.15 118.55 108.7 111.2 127.2 103.85 127.2 93.45 Z"/>
</g>

<g id="Layer2_1_FILL">
<path fill="#2F2F2F" stroke="none" d="
M 55.15 46.15
Q 56.1 42.85 54.45 41.75 53.35 41 51.6 41.15 51.4 41.2 48.6 41.75 42.9 42.9 36.2 42.9 29.45 42.9 23.8 41.75 21 41.2 20.8 41.15 19.05 41 17.9 41.75 16.3 42.85 17.25 46.15 18.2 49.45 20.8 52.2 23.2 54.65 26.2 56.2 30.75 58.6 36.2 58.6 41.65 58.6 46.2 56.2 49.2 54.65 51.55 52.2 54.2 49.45 55.15 46.15 Z"/>
</g>

<g id="Layer1_0_FILL">
<path fill="#7CB342" stroke="none" d="
M 36 47.65
Q 30.7 47.65 25.55 46.85 26.15 47.55 27.85 56.6 28.05 57.65 28.25 58.55 29.05 60.85 30.2 62.2 31.2 63.4 32.5 63.8 33.95 64.3 36 64.3 38.05 64.3 39.5 63.8 40.8 63.4 41.8 62.2 42.95 60.85 43.75 58.55 43.95 57.65 44.15 56.6 45.85 47.55 46.45 46.85 41.3 47.65 36 47.65 Z"/>
</g>

<g id="Layer0_0_FILL">
<path fill="#2F2F2F" stroke="none" d="
M 62.75 91.2
Q 62.3 91.7 62.3 92.35
L 62.3 93
Q 59.45 93.3 57.5 94.95 55.3 96.75 55.3 99 55.3 101.3 57.4 103 59.45 104.75 62.3 105.45
L 62.3 112.25
Q 60.75 111.95 59.7 110.75 59.05 110.1 58.7 109.05 58.35 107.65 56.9 107.65 55.95 107.65 55.35 108.4 54.8 109.15 55.1 110.05 55.75 111.8 57 113.05 59.2 115.25 62.2 115.55
L 62.2 116.15
Q 62.2 116.85 62.65 117.3 63.15 117.75 63.8 117.75 64.5 117.75 64.95 117.3 65.4 116.85 65.4 116.15
L 65.4 115.55
Q 68.45 115.25 70.5 113.35 72.8 111.35 72.8 108.65 72.95 106.6 70.55 104.85 68.1 103.1 65.5 102.65
L 65.5 96.35
Q 66.45 96.55 67.3 97.5 67.9 98.15 68.2 98.95 68.75 100 69.8 100
L 70 100
Q 71.05 100 71.6 99.1 72.15 98.15 71.65 97.2 71.15 96.05 70.15 95.2 68.1 93.3 65.5 93
L 65.5 92.35
Q 65.5 91.7 65.05 91.2 64.6 90.75 63.9 90.75 63.25 90.75 62.75 91.2
M 59.05 98.85
Q 59.05 97.85 60.05 97.15 60.9 96.45 62.25 96.15
L 62.25 101.95
Q 61.1 101.6 60.05 100.75 59.05 99.55 59.05 98.85
M 68 107.1
Q 69.05 107.75 69.05 108.7 69.05 109.75 68 110.9 66.95 111.8 65.5 112.1
L 65.5 105.9
Q 67.15 106.4 68 107.1 Z"/>
</g>

<g id="Layer0_1_MEMBER_0_FILL">
<path fill="#2F2F2F" stroke="none" d="
M 41.9 41.5
L 41.9 42.3
Q 38.85 42.6 36.5 44.4 34.05 46.4 34.05 49 34.05 51.4 36.5 53.5 38.6 55.45 42 56.2
L 42 63.9
Q 40.4 63.6 39.05 62.2 38.2 61.2 38 60.2 37.75 59.5 37.25 59.05 36.65 58.6 36 58.6 34.9 58.6 34.3 59.45 33.65 60.3 34 61.3 34.75 63.5 36.2 64.7 38.45 67.05 42.1 67.5
L 42.1 68.2
Q 42.1 68.95 42.65 69.5 43.15 70 43.9 70 44.65 70 45.2 69.5 45.7 68.95 45.7 68.2
L 45.7 67.5
Q 49.25 67 51.5 65.1 54 62.9 54 59.8 53.6 57.4 51.25 55.6 49.15 53.9 45.5 53.1
L 45.5 46
Q 46.55 46.4 47.5 47.3 48.15 48.15 48.55 48.9 49.05 50.1 50.35 50.1
L 50.55 50.1
Q 51.75 50.1 52.35 49.1 53 48.05 52.5 47 51.6 45.5 50.75 44.8 48.7 42.75 45.5 42.3
L 45.5 41.5
Q 45.5 40.75 45 40.25 44.45 39.75 43.7 39.75 42.95 39.75 42.45 40.25 41.9 40.75 41.9 41.5
M 38.4 48.95
Q 38.4 47.8 39.5 46.95 40.8 46.05 42 45.85
L 42 52.35
Q 40.65 51.95 39.5 50.95 38.4 50.05 38.4 48.95
M 48.25 58.1
Q 49.55 59 49.55 60 49.55 61.4 48.25 62.5 47.3 63.45 45.5 63.8
L 45.5 56.8
Q 47.35 57.35 48.25 58.1 Z"/>
</g>

<g id="Layer0_1_MEMBER_1_FILL">
<path fill="#2F2F2F" stroke="none" d="
M 85.75 42.3
L 85.75 41.5
Q 85.75 40.75 85.25 40.25 84.7 39.75 83.95 39.75 83.2 39.75 82.7 40.25 82.15 40.75 82.15 41.5
L 82.15 42.3
Q 79.1 42.6 76.75 44.4 74.35 46.35 74.35 49 74.35 51.4 76.75 53.5 78.8 55.4 82.25 56.2
L 82.25 63.9
Q 80.6 63.6 79.35 62.2 78.55 61.25 78.25 60.2 78 59.5 77.5 59.05 76.9 58.6 76.25 58.6 75.2 58.6 74.6 59.45 73.95 60.3 74.25 61.3 74.95 63.4 76.45 64.7 78.8 67.05 82.35 67.5
L 82.35 68.2
Q 82.35 68.95 82.9 69.5 83.4 70 84.15 70 84.9 70 85.45 69.5 85.95 68.95 85.95 68.2
L 85.95 67.5
Q 89.5 67 91.75 65.1 94.25 62.9 94.25 59.8 94.1 57.55 91.55 55.6 89.4 53.9 85.75 53.1
L 85.75 46
Q 86.75 46.35 87.75 47.3 88.55 48.3 88.85 48.9 89.35 50.1 90.65 50.1
L 90.85 50.1
Q 92.05 50.1 92.65 49.1 93.3 48.05 92.75 47 92 45.55 91.05 44.8 89 42.75 85.75 42.3
M 88.65 58.1
Q 90 59.15 90 60 90 61.4 88.65 62.5 87.6 63.5 85.85 63.8
L 85.85 56.8
Q 87.75 57.3 88.65 58.1
M 82.25 45.85
L 82.25 52.35
Q 80.9 51.95 79.75 50.95 78.65 49.95 78.65 48.95 78.65 47.8 79.75 46.95 81.05 46.05 82.25 45.85 Z"/>
</g>
</defs>

<g id="Layer_1">
<g transform="matrix( 0.5625, 0, 0, 0.5625, 0,0) ">
<use xlink:href="#Layer2_0_FILL"/>
</g>

<g transform="matrix( 1, 0, 0, 1, 0,0) ">
<use xlink:href="#Layer2_1_FILL"/>
</g>
</g>

<g id="Camada_3">
<g transform="matrix( 1, 0, 0, 1, 0,0) ">
<use xlink:href="#Layer1_0_FILL"/>
</g>
</g>

<g transform="matrix( 0.5609588623046875, 0, 0, 0.56072998046875, 0.15,-2.55) ">
<use xlink:href="#Layer0_0_FILL"/>
</g>

<g transform="matrix( 0.5609588623046875, 0, 0, 0.56072998046875, 0.1,-0.6) ">
<use xlink:href="#Layer0_1_MEMBER_0_FILL"/>
</g>

<g transform="matrix( 0.5609588623046875, 0, 0, 0.56072998046875, 0.1,-0.6) ">
<use xlink:href="#Layer0_1_MEMBER_1_FILL"/>
</g>
</svg>
