
<svg xmlns="http://www.w3.org/2000/svg" version="1.1" xmlns:xlink="http://www.w3.org/1999/xlink" preserveAspectRatio="none" x="0px" y="0px" width="72px" height="72px" viewBox="0 0 72 72">
<defs>
<g id="Layer2_0_MEMBER_0_MEMBER_0_MEMBER_0_MEMBER_0_MEMBER_0_FILL">
<path fill="#FCC21B" stroke="none" d="
M 36 5.6
Q 13.8 5.6 5.05 26.1 0.25 37.35 0.25 52.45 0.25 58.25 10.7 62.35 21.2 66.45 36 66.45 50.8 66.45 61.25 62.35 71.7 58.25 71.7 52.45 71.7 37.35 66.9 26.1 58.2 5.6 36 5.6 Z"/>
</g>

<g id="Symbol_1_0_Layer0_0_FILL">
<path fill="#FFFFFF" stroke="none" d="
M 11.1 11.1
Q 13 9.2 13 6.5 13 3.8 11.1 1.9 9.2 0 6.5 0 3.8 0 1.9 1.9 0 3.8 0 6.5 0 9.2 1.9 11.1 3.8 13 6.5 13 9.2 13 11.1 11.1
M 11.5 6.5
Q 11.5 7.85 10.55 8.8 9.6 9.75 8.25 9.75 7.7892578125 9.75 7.35 9.65 6.57578125 9.42578125 5.95 8.8 5 7.85 5 6.5 5 5.15 5.95 4.2 6.57578125 3.57421875 7.35 3.35 7.7892578125 3.25 8.25 3.25 9.6 3.25 10.55 4.2 11.5 5.15 11.5 6.5 Z"/>

<path fill="#2F2F2F" stroke="none" d="
M 10.55 8.8
Q 11.5 7.85 11.5 6.5 11.5 5.15 10.55 4.2 9.6 3.25 8.25 3.25 7.7892578125 3.25 7.35 3.35 6.57578125 3.57421875 5.95 4.2 5 5.15 5 6.5 5 7.85 5.95 8.8 6.57578125 9.42578125 7.35 9.65 7.7892578125 9.75 8.25 9.75 9.6 9.75 10.55 8.8 Z"/>
</g>

<g id="Layer2_0_MEMBER_2_FILL">
<path fill="#FFFFFF" stroke="none" d="
M 9.7 27.55
Q 8.55 31.7 10.7 35.4 12.85 39.1 17 40.2 21.15 41.35 24.9 39.2 28.55 37.05 29.7 32.9 30.8 28.75 28.65 25 26.5 21.35 22.35 20.2 18.2 19.1 14.45 21.2 10.8 23.4 9.7 27.55
M 17 33.7
Q 16.5 33.7 15.95 33.55 14.3 33.1 13.45 31.6 12.55 30.1 13.05 28.45 13.45 26.8 14.95 25.95 16.4 25.1 18.05 25.55 18.6 25.7 19.1 25.95 20 26.45 20.6 27.45 21.45 28.95 21 30.6 20.55 32.25 19.1 33.15 18.05 33.75 17 33.7 Z"/>

<path fill="#2F2F2F" stroke="none" d="
M 15.95 33.55
Q 16.5 33.7 17 33.7 18.05 33.75 19.1 33.15 20.55 32.25 21 30.6 21.45 28.95 20.6 27.45 20 26.45 19.1 25.95 18.6 25.7 18.05 25.55 16.4 25.1 14.95 25.95 13.45 26.8 13.05 28.45 12.55 30.1 13.45 31.6 14.3 33.1 15.95 33.55 Z"/>
</g>

<g id="Layer0_0_FILL">
<path fill="#ED6C30" stroke="none" d="
M 52.5 34.85
Q 50.9552734375 33.4888671875 45.4 36.45 39.8482421875 39.453515625 35.95 40.5 32.15 41.55 22.95 42.3 17.25 42.75 16.3 44.9 15.55 46.4 16.5 48.2 19.15 53.6 25.65 55.65 27.35 56.15 29.1 56.4 34 57.05 39.55 55.55 47.45 53.45 51.35 48.55 54.9517578125 43.8962890625 54.5 40.05 54.0447265625 36.2109375 52.5 34.85 Z"/>
</g>
</defs>

<g id="_____1">
<g transform="matrix( 0.95306396484375, -0.2553863525390625, 0.2553253173828125, 0.9534454345703125, -10.45,10.6) ">
<use xlink:href="#Layer2_0_MEMBER_0_MEMBER_0_MEMBER_0_MEMBER_0_MEMBER_0_FILL"/>
</g>

<g transform="matrix( 0.83880615234375, 0.5875396728515625, -0.5873260498046875, 0.8390960693359375, 41.5,15.25) ">
<g id="Layer_1">
<g transform="matrix( 1, 0, 0, 1, 0,0) ">
<use xlink:href="#Symbol_1_0_Layer0_0_FILL"/>
</g>
</g>
</g>

<g transform="matrix( 1, 0, 0, 1, 0,0) ">
<use xlink:href="#Layer2_0_MEMBER_2_FILL"/>
</g>
</g>

<g transform="matrix( 1, 0, 0, 1, 0,0) ">
<use xlink:href="#Layer0_0_FILL"/>
</g>
</svg>
