
<svg xmlns="http://www.w3.org/2000/svg" version="1.1" xmlns:xlink="http://www.w3.org/1999/xlink" preserveAspectRatio="none" x="0px" y="0px" width="72px" height="72px" viewBox="0 0 72 72">
<defs>
<g id="Layer1_0_MEMBER_0_MEMBER_0_MEMBER_0_MEMBER_0_FILL">
<path fill="#FCC21B" stroke="none" d="
M 36 5.6
Q 13.8 5.6 5.05 26.1 0.25 37.35 0.25 52.45 0.25 58.25 10.7 62.35 21.2 66.45 36 66.45 50.8 66.45 61.25 62.35 71.7 58.25 71.7 52.45 71.7 37.35 66.9 26.1 58.2 5.6 36 5.6 Z"/>
</g>

<g id="Layer0_1_FILL">
<path fill="#2F2F2F" stroke="none" d="
M 24.05 40.1
Q 25.95 40.05 27.3 38.45 28.6 36.85 28.55 34.6 28.5 32.3 27.15 30.75 25.8 29.15 23.9 29.2 22 29.25 20.7 30.85 19.35 32.5 19.4 34.75 19.45 37 20.8 38.55 22.15 40.15 24.05 40.1 Z"/>
</g>

<g id="Layer0_2_FILL">
<path fill="#2F2F2F" stroke="none" d="
M 46.4 38
Q 47.75 39.6 49.65 39.55 51.55 39.5 52.85 37.9 54.15 36.3 54.15 34.05 54.1 31.75 52.75 30.2 51.4 28.6 49.5 28.65 47.6 28.65 46.3 30.3 44.95 31.9 45 34.15 45.05 36.45 46.4 38 Z"/>
</g>

<path id="Layer0_0_1_STROKES" stroke="#2F2F2F" stroke-width="3" stroke-linejoin="round" stroke-linecap="round" fill="none" d="
M 42.35 22.5
Q 46.030078125 20.0212890625 49.4 19.375 52.769140625 18.7296875 56.45 22.2
M 17.5 25.45
Q 21.601953125 21.7228515625 29.8 25.85
M 26 46
L 46 46"/>
</defs>

<g id="_____1">
<g transform="matrix( 1, 0, 0, 1, 0,0) ">
<use xlink:href="#Layer1_0_MEMBER_0_MEMBER_0_MEMBER_0_MEMBER_0_FILL"/>
</g>
</g>

<g transform="matrix( 1, 0, 0, 1, 0,0) ">
<use xlink:href="#Layer0_0_1_STROKES"/>
</g>

<g transform="matrix( 1, 0, 0, 1, 0.1,-3.2) ">
<use xlink:href="#Layer0_1_FILL"/>
</g>

<g transform="matrix( 1, 0, 0, 1, 0.1,-2.65) ">
<use xlink:href="#Layer0_2_FILL"/>
</g>
</svg>
