
<svg xmlns="http://www.w3.org/2000/svg" version="1.1" xmlns:xlink="http://www.w3.org/1999/xlink" preserveAspectRatio="none" x="0px" y="0px" width="72px" height="72px" viewBox="0 0 72 72">
<defs>
<g id="Layer1_0_MEMBER_0_MEMBER_0_MEMBER_0_MEMBER_0_FILL">
<path fill="#FCC21B" stroke="none" d="
M 36 5.6
Q 13.8 5.6 5.05 26.1 0.25 37.35 0.25 52.45 0.25 58.25 10.7 62.35 21.2 66.45 36 66.45 50.8 66.45 61.25 62.35 71.7 58.25 71.7 52.45 71.7 37.35 66.9 26.1 58.2 5.6 36 5.6 Z"/>
</g>

<g id="Layer0_1_FILL">
<path fill="#2F2F2F" stroke="none" d="
M 24.05 40.1
Q 25.95 40.05 27.3 38.45 28.6 36.85 28.55 34.6 28.5 32.3 27.15 30.75 25.8 29.15 23.9 29.2 22 29.25 20.7 30.85 19.35 32.5 19.4 34.75 19.45 37 20.8 38.55 22.15 40.15 24.05 40.1 Z"/>
</g>

<g id="Layer0_2_FILL">
<path fill="#2F2F2F" stroke="none" d="
M 45.3 32.9
Q 46.65 34.5 48.55 34.5 50.45 34.5 51.8 32.9 53.1 31.3 53.1 29.05 53.1 26.8 51.75 25.15 50.4 23.55 48.5 23.6 46.65 23.6 45.3 25.2 43.95 26.8 43.95 29.05 43.95 31.3 45.3 32.9 Z"/>
</g>

<path id="Layer0_0_1_STROKES" stroke="#2F2F2F" stroke-width="3" stroke-linejoin="round" stroke-linecap="round" fill="none" d="
M 41.4 22.5
Q 44.977734375 19.7251953125 48.25 18.925 51.522265625 18.1248046875 55.5 22.2
M 16.55 25.45
Q 20.65 21.7 28.85 25.85
M 26 46
L 46 46"/>
</defs>

<g id="_____1">
<g transform="matrix( 1, 0, 0, 1, 0,0) ">
<use xlink:href="#Layer1_0_MEMBER_0_MEMBER_0_MEMBER_0_MEMBER_0_FILL"/>
</g>
</g>

<g transform="matrix( 1, 0, 0, 1, 0,0) ">
<use xlink:href="#Layer0_0_1_STROKES"/>
</g>

<g transform="matrix( 1, 0, 0, 1, -0.75,-3.2) ">
<use xlink:href="#Layer0_1_FILL"/>
</g>

<g transform="matrix( 1, 0, 0, 1.1953125, 0.15,-4.35) ">
<use xlink:href="#Layer0_2_FILL"/>
</g>
</svg>
