
<svg xmlns="http://www.w3.org/2000/svg" version="1.1" xmlns:xlink="http://www.w3.org/1999/xlink" preserveAspectRatio="none" x="0px" y="0px" width="72px" height="72px" viewBox="0 0 72 72">
<defs>
<g id="Layer1_0_FILL">
<path fill="#FCC21B" stroke="none" d="
M 127.65 93.35
Q 127.65 66.35 119.15 46.3 103.55 9.65 63.85 9.65 24.2 9.65 8.6 46.3 0.1 66.35 0.1 93.35 0.1 103.75 18.8 111.05 37.45 118.4 63.85 118.4 90.3 118.4 108.95 111.05 127.65 103.75 127.65 93.35 Z"/>
</g>

<g id="Layer0_0_FILL">
<path fill="#2F2F2F" stroke="none" d="
M 17.9 29.35
Q 18.55 30.4 18.55 31.45 18.55 33.7 19.9 35.3 21.3 36.9 23.2 36.85 25.05 36.85 26.4 35.25 27.7 33.6 27.7 31.35 27.65 29.1 26.3 27.5 23.6 29.5 17.9 29.35
M 52.75 31.2
Q 52.7 28.95 51.4 27.35 50.05 25.75 48.15 25.75 48 25.75 47.9 25.75 46.15 25.85 44.9 27.35 43.55 28.95 43.55 31.2 43.6 33.45 44.95 35.1 46.3 36.7 48.2 36.65 50.05 36.65 51.4 35.05 52.75 33.45 52.75 31.2 Z"/>
</g>

<path id="Layer0_0_1_STROKES" stroke="#2F2F2F" stroke-width="3" stroke-linejoin="round" stroke-linecap="round" fill="none" d="
M 22.05 43.65
Q 22.15 45.2 22.9 46.55 23.7 47.95 24.95 48.65 26.3 49.4 27.85 49.15 29.5 48.85 30.3 47.65 30.6 47.25 31.3 46.45 32 45.65 32.75 45.25 33.5 44.8 34.8 44.8 36.05 44.7 37.4 45.65 38.7 46.5 38.8 47.5 38.85 48.45 39.05 49.4 39.3 50.2 39.7 50.65 40.65 51.75 42.8 51.75 46.1 51.6 47.8 49 49.6 46.5 48.8 43.5
M 45.45 22.5
Q 51.4927734375 20.9134765625 54.1 25.9
M 17.9 29.35
Q 23.6 29.5 26.3 27.5 26.8 27.05 27.75 26.15"/>
</defs>

<g id="Layer_1">
<g transform="matrix( 0.5625, 0, 0, 0.5625, 0,0) ">
<use xlink:href="#Layer1_0_FILL"/>
</g>
</g>

<g id="Camada_2">
<g transform="matrix( 1, 0, 0, 1, 0,0) ">
<use xlink:href="#Layer0_0_FILL"/>

<use xlink:href="#Layer0_0_1_STROKES"/>
</g>
</g>
</svg>
