
<svg xmlns="http://www.w3.org/2000/svg" version="1.1" xmlns:xlink="http://www.w3.org/1999/xlink" preserveAspectRatio="none" x="0px" y="0px" width="72px" height="72px" viewBox="0 0 72 72">
<defs>
<g id="Layer3_0_FILL">
<path fill="#7FC4FF" stroke="none" d="
M 127.55 96.25
Q 127.55 69.4 119.05 49.4 103.55 12.85 64 12.85 24.45 12.85 8.9 49.4 0.4 69.4 0.4 96.25 0.4 106.6 19 113.9 37.65 121.2 64 121.2 90.35 121.2 108.95 113.9 127.55 106.6 127.55 96.25 Z"/>
</g>

<g id="Layer3_1_FILL">
<path fill="#2F2F2F" stroke="none" d="
M 38.35 49.65
Q 36 52.5 36 56.5 36 60.5 38.35 63.3 40.65 66.1 43.95 66.1 47.2 66.1 49.55 63.3 51.85 60.45 51.85 56.5 51.85 52.5 49.55 49.65 47.2 46.85 43.95 46.85 40.65 46.85 38.35 49.65 Z"/>
</g>

<g id="Layer3_2_FILL">
<path fill="#2F2F2F" stroke="none" d="
M 84 66.1
Q 87.3 66.1 89.6 63.3 91.9 60.5 91.9 56.5 91.9 52.5 89.6 49.65 87.3 46.85 84 46.85 80.75 46.85 78.4 49.65 76.1 52.5 76.1 56.5 76.1 60.45 78.4 63.3 80.75 66.1 84 66.1 Z"/>
</g>

<g id="Layer3_3_FILL">
<path fill="#E6E6FF" stroke="none" d="
M 61.3 46.8
Q 61.3 43.55 59 41.25 56.65 38.9 53.45 38.9
L 18.55 38.9
Q 15.3 38.9 13 41.25 10.7 43.55 10.7 46.8 10.7 50.05 13 52.35 15.3 54.65 18.55 54.65
L 53.45 54.65
Q 56.65 54.65 59 52.35 61.3 50.05 61.3 46.8 Z"/>
</g>

<g id="Layer3_4_FILL">
<path fill="#2F2F2F" stroke="none" d="
M 104.85 77.75
Q 100.75 73.6 95 73.6
L 33 73.6
Q 27.2 73.6 23.1 77.75 19 81.85 19 87.6 19 93.4 23.1 97.5 27.2 101.6 33 101.6
L 95 101.6
Q 100.75 101.6 104.85 97.5 109 93.35 109 87.6 109 81.85 104.85 77.75
M 102.05 94.7
Q 99.15 97.6 95 97.6
L 33 97.6
Q 28.85 97.6 25.9 94.7 23 91.75 23 87.6 23 83.45 25.9 80.55 28.85 77.6 33 77.6
L 95 77.6
Q 99.15 77.6 102.05 80.55 105 83.5 105 87.6 105 91.75 102.05 94.7 Z"/>
</g>

<g id="Layer3_5_MEMBER_0_FILL">
<path fill="#2F2F2F" stroke="none" d="
M 50.55 75.2
L 47.4 75.2 47.4 100.2 50.55 100.2 50.55 75.2 Z"/>
</g>

<g id="Layer3_5_MEMBER_1_FILL">
<path fill="#2F2F2F" stroke="none" d="
M 35.55 75.2
L 32.4 75.2 32.4 100.2 35.55 100.2 35.55 75.2 Z"/>
</g>

<g id="Layer3_5_MEMBER_2_FILL">
<path fill="#2F2F2F" stroke="none" d="
M 95.55 75.2
L 92.4 75.2 92.4 100.2 95.55 100.2 95.55 75.2 Z"/>
</g>

<g id="Layer3_5_MEMBER_3_FILL">
<path fill="#2F2F2F" stroke="none" d="
M 80.55 75.2
L 77.4 75.2 77.4 100.2 80.55 100.2 80.55 75.2 Z"/>
</g>

<g id="Layer3_5_MEMBER_4_FILL">
<path fill="#2F2F2F" stroke="none" d="
M 65.55 75.2
L 62.4 75.2 62.4 100.2 65.55 100.2 65.55 75.2 Z"/>
</g>

<g id="Layer3_5_MEMBER_5_FILL">
<path fill="#2F2F2F" stroke="none" d="
M 107.5 89.2
L 107.5 86.05 20.45 86.05 20.45 89.2 107.5 89.2 Z"/>
</g>

<g id="Layer1_0_FILL">
<path fill="#C5E8FF" stroke="none" d="
M 2.65 31.3
Q 1.67578125 35.47109375 1.1 39.6
L 6.65 59.7
Q 7.87890625 48.175 8.3 36.65 8.2912109375 35.623828125 8.25 34.4 8.2240234375 29.7255859375 5.85 23.4 3.6337890625 27.126171875 2.65 31.3
M 64.55 40.05
Q 63.062890625 40.9791015625 63.3 43.05 64.186328125 50.6068359375 65.75 67.95 71.934765625 48.69453125 70.95 39.9 67.199609375 39.1837890625 64.55 40.05
M 50.55 7.55
Q 51.15 8.85 53.55 15.9 54.5 18.7 57.4 32.7 63.66640625 17.72890625 61.95 16.6 60.0640625 13.9984375 58.7 12.8 57.3923828125 11.601171875 55.6 10.2 53.869921875 8.7841796875 52.95 8.25 52.0169921875 7.7791015625 50.55 7.55 Z"/>
</g>

<g id="Layer0_0_FILL">
<path fill="#EDEEFF" stroke="none" d="
M 49.1 6.95
Q 48.2263671875 4.92265625 46.55 4.15 45.486328125 3.6119140625 44.15 3.2 42.40859375 2.6556640625 40.2 2.3 37.35234375 1.88515625 33.7 1.8 25.1546875 1.609375 19.7 3.45 14.2859375 5.329296875 10.2 10.9 6.1669921875 16.469921875 6.85 21.45 14.03671875 16.1736328125 22.75 13.1 31.5150390625 10.0314453125 36.6 10 37.853125 10.022265625 39.25 9.8 43.5119140625 9.2587890625 49.1 6.95 Z"/>
</g>

<path id="Layer2_0_1_STROKES" stroke="#2F2F2F" stroke-width="3" stroke-linejoin="round" stroke-linecap="round" fill="none" d="
M 54.05 21.85
L 52.9 21.75
Q 48.9 21.4 47.4 19.9 46.25 18.5 45.75 17.45
M 18.3 21.85
Q 23.2 21.65 24.95 19.9 26.1 18.5 26.6 17.45"/>
</defs>

<g id="Layer_1">
<g transform="matrix( 0.5625, 0, 0, 0.5625, 0,-2.5) ">
<use xlink:href="#Layer3_0_FILL"/>
</g>

<g transform="matrix( 0.5625, 0, 0, 0.5625, 0,-2.5) ">
<use xlink:href="#Layer3_1_FILL"/>
</g>

<g transform="matrix( 0.5625, 0, 0, 0.5625, 0,-2.5) ">
<use xlink:href="#Layer3_2_FILL"/>
</g>

<g transform="matrix( 1, 0, 0, 1, 0,0) ">
<use xlink:href="#Layer3_3_FILL"/>
</g>

<g transform="matrix( 0.5625, 0, 0, 0.5625, 0,-2.5) ">
<use xlink:href="#Layer3_4_FILL"/>
</g>

<g transform="matrix( 0.56243896484375, 0, 0, 0.56243896484375, 0,-2.5) ">
<use xlink:href="#Layer3_5_MEMBER_0_FILL"/>
</g>

<g transform="matrix( 0.56243896484375, 0, 0, 0.56243896484375, 0,-2.5) ">
<use xlink:href="#Layer3_5_MEMBER_1_FILL"/>
</g>

<g transform="matrix( 0.56243896484375, 0, 0, 0.56243896484375, 0,-2.5) ">
<use xlink:href="#Layer3_5_MEMBER_2_FILL"/>
</g>

<g transform="matrix( 0.56243896484375, 0, 0, 0.56243896484375, 0,-2.5) ">
<use xlink:href="#Layer3_5_MEMBER_3_FILL"/>
</g>

<g transform="matrix( 0.56243896484375, 0, 0, 0.56243896484375, 0,-2.5) ">
<use xlink:href="#Layer3_5_MEMBER_4_FILL"/>
</g>

<g transform="matrix( 0.56243896484375, 0, 0, 0.56243896484375, 0,-2.5) ">
<use xlink:href="#Layer3_5_MEMBER_5_FILL"/>
</g>
</g>

<g id="Camada_2">
<g transform="matrix( 1, 0, 0, 1, 0,0) ">
<use xlink:href="#Layer2_0_1_STROKES"/>
</g>
</g>

<g id="Camada_3">
<g transform="matrix( 1, 0, 0, 1, 0,0) ">
<use xlink:href="#Layer1_0_FILL"/>
</g>
</g>

<g id="Camada_5">
<g transform="matrix( 1, 0, 0, 1, 0,0) ">
<use xlink:href="#Layer0_0_FILL"/>
</g>
</g>
</svg>
