
<svg xmlns="http://www.w3.org/2000/svg" version="1.1" xmlns:xlink="http://www.w3.org/1999/xlink" preserveAspectRatio="none" x="0px" y="0px" width="72px" height="72px" viewBox="0 0 72 72">
<defs>
<g id="Layer4_0_FILL">
<path fill="#FCC21B" stroke="none" d="
M 68.55 45.55
Q 72.7 32.3 69.6 21.8 66.45 11.3 56.9 6.6 43.1 -0.25 29.9 3.9 17.55 7.75 9.1 20 -0.95 34.8 0.55 57.9 0.95 63.6 11.15 67.6 21.5 71.65 36.1 71.65 50.65 71.65 60.9 67.6 71.05 63.6 71.6 57.9 71.7 56.65 69.35 53 67.25 49.75 68.55 45.55 Z"/>
</g>

<g id="Layer3_1_MEMBER_0_FILL">
<path fill="#2F2F2F" stroke="none" d="
M 17.45 22.65
Q 16.5 24.55 16.95 26.45 17.45 28.35 19 29.1 20.6 29.9 22.4 29.1 24.25 28.3 25.2 26.4 26.15 24.5 25.7 22.6 25.25 20.7 23.65 19.9 22.05 19.1 20.25 19.95 18.45 20.75 17.45 22.65 Z"/>
</g>

<g id="Layer3_1_MEMBER_1_FILL">
<path fill="#2F2F2F" stroke="none" d="
M 47.3 29.35
Q 47.75 27.2 46.8 25.4 45.85 23.65 44.05 23.25 42.25 22.9 40.65 24.15 39.1 25.4 38.6 27.55 38.15 29.7 39.1 31.45 40.05 33.25 41.85 33.6 43.65 34 45.25 32.75 46.8 31.5 47.3 29.35 Z"/>
</g>

<path id="Layer3_0_1_STROKES" stroke="#2F2F2F" stroke-width="3" stroke-linejoin="round" stroke-linecap="round" fill="none" d="
M 41 19.75
Q 52.1 13.9 55.15 22.4
M 15.75 18.3
Q 20.45 16.5 27.1 20.65"/>

<path id="Layer2_0_1_STROKES" stroke="#2F2F2F" stroke-width="3" stroke-linejoin="round" stroke-linecap="round" fill="none" d="
M 22.05 40.25
Q 32.65 40.1 40.05 44.9"/>

<path id="Layer1_0_1_STROKES" stroke="#626364" stroke-width="1" stroke-linejoin="round" stroke-linecap="round" fill="none" d="
M 54.7 30.2
Q 58.45 28.35 59 36.95 59.55 45.55 53.9 59 50.45 67.3 55.65 71.05"/>

<path id="Layer0_0_1_STROKES" stroke="#2F2F2F" stroke-width="1" stroke-linejoin="round" stroke-linecap="round" fill="none" d="
M 53.3 24.75
Q 54.7 26.9 54.7 29.6 54.7 29.7 54.7 29.8 54.65 32.55 53.1 34.75"/>

<path id="Layer0_0_2_STROKES" stroke="#2F2F2F" stroke-width="1.5" stroke-linejoin="round" stroke-linecap="round" fill="none" d="
M 54.3 24.65
Q 55.8 26.85 55.8 29.65 55.8 32.45 54.3 34.65"/>

<path id="Layer0_0_3_STROKES" stroke="#626364" stroke-width="1" stroke-linejoin="round" stroke-linecap="round" fill="none" d="
M 53.1 34.75
Q 52.6 35.4 52 36 49.35 38.7 45.6 38.7 41.85 38.7 39.15 36 36.5 33.35 36.5 29.6 36.5 25.85 39.15 23.15 41.85 20.5 45.6 20.5 49.35 20.5 52 23.15 52.75 23.9 53.3 24.75"/>
</defs>

<g transform="matrix( 1, 0, 0, 1, 0,0) ">
<use xlink:href="#Layer4_0_FILL"/>
</g>

<g transform="matrix( 1, 0, 0, 1, 0,0) ">
<use xlink:href="#Layer3_0_1_STROKES"/>
</g>

<g transform="matrix( 1.172637939453125, 0, 0, 1.172637939453125, -5.2,-3.65) ">
<use xlink:href="#Layer3_1_MEMBER_0_FILL"/>
</g>

<g transform="matrix( 1.172637939453125, 0, 0, 1.172637939453125, -5.2,-3.65) ">
<use xlink:href="#Layer3_1_MEMBER_1_FILL"/>
</g>

<g transform="matrix( 1, 0, 0, 1, 0,0) ">
<use xlink:href="#Layer2_0_1_STROKES"/>
</g>

<g transform="matrix( 1, 0, 0, 1, 0,0) ">
<use xlink:href="#Layer1_0_1_STROKES"/>
</g>

<g transform="matrix( 1, 0, 0, 1, 0,0) ">
<use xlink:href="#Layer0_0_1_STROKES"/>

<use xlink:href="#Layer0_0_2_STROKES"/>

<use xlink:href="#Layer0_0_3_STROKES"/>
</g>
</svg>
