
<svg xmlns="http://www.w3.org/2000/svg" version="1.1" xmlns:xlink="http://www.w3.org/1999/xlink" preserveAspectRatio="none" x="0px" y="0px" width="72px" height="72px" viewBox="0 0 72 72">
<defs>
<g id="Layer0_0_MEMBER_0_MEMBER_0_FILL">
<path fill="#C19048" stroke="none" d="
M 110.85 16.45
Q 104.25 11.85 95.05 9.65 83 6.85 73.6 7.8
L 70.4 8.25 70.35 8.25
Q 56.65 10.1 46.5 13.05 37.2 15.8 33.15 17.15 26.05 19.6 19.35 22.8
L 50.9 75.75
Q 50.05 86.55 50.05 94.85 50.05 99.65 50.25 100.45 50.9 103.5 54.05 103.7
L 68.2 104.7 77.25 119.9 118.9 107.75
Q 120.4 107.6 121.4 107.05 122.6 106.3 123.2 105.15 124.15 103.2 123.7 99.65 122.95 95.7 122.7 94 121.9 87.45 120.7 74.35 120.45 69.9 120.3 67.65 120.05 63.65 119.35 61 118.9 59.25 116.65 54.7 114.7 50.8 114.55 48.35 114.4 46.65 116.2 44.9 117.2 43.9 119.2 42.35 122.75 39.2 122.5 33.9 122.2 28.85 118.7 24 115.75 19.9 110.85 16.45 Z"/>
</g>

<g id="Layer0_0_MEMBER_0_MEMBER_1_FILL">
<path fill="#C19048" stroke="none" d="
M 120.8 21.3
Q 117.6 17.15 112.75 13.75 105.6 8.7 95.8 6.45 83.3 3.5 73.3 4.5
L 70.05 4.95 69.95 4.95
Q 55.95 6.85 45.6 9.85
L 45.3 9.95
Q 36.6 12.45 31.95 14.05 24.75 16.55 17.9 19.8 16.6 20.45 16.2 21.85 15.8 23.25 16.5 24.5
L 47.55 76.55
Q 46.75 86.15 46.75 94.85
L 46.75 96.1
Q 46.6 100.25 47.5 102.5 49.05 106.65 53.85 106.95
L 66.25 107.85 74.45 121.6
Q 75.4 123.2 77.25 123.2 77.75 123.2 78.2 123.05
L 119.55 110.95
Q 121.4 110.75 122.9 109.95
L 123 109.9
Q 125.1 108.7 126.15 106.6 127.25 104.4 127.15 101.25 127.05 99.35 126.4 96.05
L 126 93.6
Q 125.4 88.55 124.2 76.05
L 123.75 70
Q 123.45 63.5 122.55 60.15 122.05 58.05 120.05 54.1 117.95 49.9 117.8 48.15 117.95 47.55 120.2 45.8
L 121.4 44.8
Q 126.15 40.6 125.75 33.7 125.4 27.25 120.8 21.3
M 109 19.15
Q 112.55 21.6 115.1 24.65 118.95 29.3 119.2 34.05 119.35 37.85 117 39.9
L 116.1 40.65
Q 113.9 42.4 112.85 43.7 111.1 46.05 111.25 48.55 111.4 50.7 112.3 53.1 112.85 54.55 114.2 57.1 115.85 60.5 116.2 61.8 116.85 64.3 117.15 70.35 117.25 71.75 117.45 74.65
L 117.65 76.65
Q 118.6 87.8 119.45 94.45
L 119.95 97.35
Q 120.4 99.8 120.5 100.85 120.7 102.8 120.25 103.7 120.05 104 119.85 104.1
L 119.8 104.1
Q 119.4 104.4 118.5 104.45
L 78.8 116 71 103
Q 70.2 101.55 68.45 101.4
L 54.25 100.4 53.65 100.25
Q 53.3 99.85 53.3 96.3
L 53.35 94.85
Q 53.35 86.55 54.2 76.05 54.35 75.05 53.75 74.05
L 24.05 24.25
Q 29.55 21.8 35.55 19.8 39.5 18.5 47.15 16.25
L 47.45 16.2
Q 57 13.4 70.65 11.5
L 70.95 11.5 73.95 11.05
Q 82.9 10.2 94.3 12.85 102.85 14.9 109 19.15 Z"/>
</g>

<g id="Layer0_0_MEMBER_1_MEMBER_0_FILL">
<path fill="#F9F4D9" stroke="none" d="
M 67.2 29.1
Q 60.55 24.45 51.4 22.3 39.35 19.5 29.95 20.45 17.45 21.7 10.6 27.95 7.85 30.45 6.15 33.7 4.3 37.25 4.1 40.8 3.95 44.95 5.8 48 6.6 49.3 8.85 51.15 11.1 53 11.85 54.1 13.5 56.6 12.7 60.25 12.55 61.1 10.7 66.2 9.3 70.15 8.5 75.8 8.3 77.2 7.45 85.7 6.4 96.6 6.4 107.5 6.4 112.3 6.6 113.1 7.25 116.15 10.4 116.35 15.95 116.7 40.2 118.6 58.5 120.05 70 120.35 74.55 120.5 75.4 120.4 78.5 120 79.55 117.8 80.5 115.85 80.05 112.3 79.3 108.35 79.05 106.65 78.25 99.95 77.05 86.95 76.8 82.5 76.65 80.3 76.4 76.3 75.7 73.65 75.25 71.9 73 67.35 71 63.45 70.85 61 70.75 59.35 72.55 57.55 73.55 56.55 75.5 55 79.1 51.85 78.8 46.5 78.55 41.5 75.05 36.65 72.1 32.55 67.2 29.1 Z"/>
</g>

<g id="Layer0_0_MEMBER_1_MEMBER_1_FILL">
<path fill="#C19048" stroke="none" d="
M 43.75 32.3
Q 46.4 29.95 46.2 26.05 46 22.45 43.45 19.1 41.6 16.75 38.85 14.85 34.9 12.05 29.35 10.75 22.3 9.1 16.7 9.65 9 10.4 4.75 14.35 2.8 16.1 1.7 18.35 0.6 20.55 0.5 22.85 0.3 25.7 1.7 27.95 2.35 29 3.85 30.25 4.9 31.1 5.1 31.45 5.55 32.15 5.4 33.25 5.25 34.05 4.6 35.7
L 4.3 36.6
Q 3.5 38.8 3.05 41.65 2.8 43.35 2.5 46.7
L 2.35 48.05
Q 1.75 54.7 1.75 60.45
L 1.75 61.15
Q 1.65 63.5 2.15 64.75 3.05 67.1 5.75 67.3 9.2 67.45 18.35 68.25 32 69.35 39.3 69.55
L 41.3 69.65
Q 45.15 69.65 46.4 67.1 47.05 65.85 46.95 64.05 46.95 63.05 46.6 61.15
L 46.3 59.75
Q 46 56.95 45.3 49.85
L 45.05 46.5
Q 44.9 42.95 44.4 40.95 44.1 39.75 43 37.55 41.8 35.3 41.75 34.2 41.8 33.85 43.05 32.9
L 43.75 32.3
M 42.45 26.25
Q 42.6 28.4 41.25 29.55
L 40.75 30
Q 39.5 30.95 38.9 31.7 37.9 33 38 34.45 38.1 35.65 38.6 37 38.9 37.7 39.65 39.25 40.55 40.9 40.8 41.9 41.2 43.45 41.35 46.7
L 41.6 50.25
Q 42.25 57.3 42.65 60.25 42.65 60.6 42.9 61.9 43.15 63.3 43.25 63.85 43.35 64.95 43.1 65.45 42.8 65.95 41.3 65.95
L 39.45 65.85
Q 33.25 65.7 18.7 64.55 9.4 63.8 5.95 63.6
L 5.65 63.55
Q 5.45 63.3 5.45 61.3
L 5.45 60.45
Q 5.45 54.55 6 48.4
L 6.15 47.1
Q 6.45 44 6.7 42.35 7.1 39.75 7.75 37.9
L 8.05 37.05
Q 8.9 34.8 9.1 33.45 9.35 31.2 8.2 29.4 7.65 28.6 6.2 27.4 5.1 26.5 4.85 26.05 4.05 24.75 4.15 23.05 4.2 21.5 5.05 19.9 5.8 18.35 7.2 17.1 10.55 14 17 13.35 22.05 12.85 28.45 14.35 33.35 15.5 36.75 17.9 38.75 19.25 40.15 21 42.35 23.6 42.45 26.25 Z"/>
</g>

<g id="Layer0_0_MEMBER_2_MEMBER_0_FILL">
<path fill="#FFCC80" stroke="none" d="
M 81.35 28.6
L 82 29.65
Q 83.55 32 84.15 32.7 85.4 34.05 87.15 33.95 88.95 33.85 89.45 32.2 90.2 29.5 86.6 26.3 82.9 23.1 80.75 25.4 80 26.2 80.3 27.1 80.45 27.4 81.35 28.6 Z"/>
</g>

<g id="Layer0_0_MEMBER_2_MEMBER_1_FILL">
<path fill="#FFCC80" stroke="none" d="
M 93.65 26.2
L 94.3 27.2
Q 95.8 29.6 96.4 30.25 97.7 31.6 99.45 31.5 101.25 31.4 101.7 29.75 102.5 27.05 98.85 23.9 95.15 20.65 93 23 92.25 23.8 92.6 24.65 92.7 24.9 93.65 26.2 Z"/>
</g>

<g id="Layer0_0_MEMBER_2_MEMBER_2_FILL">
<path fill="#FFCC80" stroke="none" d="
M 103.85 23.8
L 104.5 24.8
Q 106 27.2 106.6 27.85 107.9 29.2 109.65 29.15 111.45 29.05 111.9 27.4 112.7 24.7 109.05 21.5 105.35 18.25 103.2 20.6 102.45 21.4 102.8 22.3 102.9 22.55 103.85 23.8 Z"/>
</g>

<g id="Layer0_0_MEMBER_3_MEMBER_0_FILL">
<path fill="#E2D9C3" stroke="none" d="
M 37.85 42.15
L 37.55 43.05
Q 36.95 44.85 36.8 45.8 36.65 47.2 37.55 48.2 38.45 49.2 39.7 48.65 41.7 47.8 41.75 44.1 41.85 40.35 39.4 40.25 38.6 40.2 38.25 40.8 38.15 40.95 37.85 42.15 Z"/>
</g>

<g id="Layer0_0_MEMBER_3_MEMBER_1_FILL">
<path fill="#E2D9C3" stroke="none" d="
M 26.75 78.75
L 27.7 79
Q 29.5 79.6 30.5 79.7 31.95 79.85 32.95 78.9 34 77.95 33.45 76.7 32.55 74.7 28.8 74.7 24.95 74.75 24.8 77.2 24.75 78.05 25.35 78.4 25.6 78.55 26.75 78.75 Z"/>
</g>

<g id="Layer0_0_MEMBER_3_MEMBER_2_FILL">
<path fill="#E2D9C3" stroke="none" d="
M 55.25 47.05
L 56.15 47.3
Q 58.5 47.95 58.95 48 60.4 48.15 61.4 47.2 62.5 46.25 61.9 45 61 43 57.25 43 53.4 43 53.25 45.5 53.2 46.35 53.85 46.65 54 46.75 55.25 47.05 Z"/>
</g>

<g id="Layer0_0_MEMBER_3_MEMBER_3_FILL">
<path fill="#E2D9C3" stroke="none" d="
M 56.75 82.5
L 57.15 83.25
Q 57.95 85 58.5 85.65 59.35 86.7 60.6 86.8 61.95 86.85 62.4 85.65 63.15 83.75 60.75 81.15 58.25 78.55 56.5 80.1 55.9 80.6 56.1 81.3 56.15 81.5 56.75 82.5 Z"/>
</g>

<g id="Layer0_0_MEMBER_3_MEMBER_4_FILL">
<path fill="#E2D9C3" stroke="none" d="
M 14.25 105.3
L 14.7 106.1
Q 15.65 108 16.05 108.55 16.9 109.65 18.25 109.7 19.6 109.8 20.1 108.55 20.85 106.6 18.35 103.95 15.85 101.25 14.05 102.8 13.45 103.35 13.6 104.05 13.65 104.25 14.25 105.3 Z"/>
</g>

<g id="Layer0_0_MEMBER_3_MEMBER_5_FILL">
<path fill="#E2D9C3" stroke="none" d="
M 48.7 109
Q 49 109.4 49.15 109.8 50.3 112 50.5 112.25 51.35 113.35 52.7 113.4 54.05 113.5 54.55 112.25 55.35 110.3 52.85 107.65 50.3 104.95 48.5 106.55 47.9 107.1 48.05 107.75 48.1 107.9 48.7 109 Z"/>
</g>

<g id="Layer0_0_MEMBER_3_MEMBER_6_FILL">
<path fill="#E2D9C3" stroke="none" d="
M 64.45 98.6
Q 63.75 98.25 63.2 98.65 63.05 98.8 62.25 99.75
L 61.7 100.4
Q 60.3 101.9 59.9 102.55 59.2 103.75 59.6 105 60 106.3 61.35 106.3 63.45 106.3 65 103.05 66.55 99.7 64.45 98.6 Z"/>
</g>

<g id="Layer0_0_MEMBER_3_MEMBER_7_FILL">
<path fill="#E2D9C3" stroke="none" d="
M 28.95 30.45
L 28.35 31.15
Q 26.8 33 26.6 33.3 25.85 34.45 26.25 35.7 26.7 37 28 37 30.1 37.05 31.7 33.75 33.25 30.45 31.15 29.35 30.4 28.95 29.85 29.4 29.65 29.55 28.95 30.45 Z"/>
</g>

<path id="Layer0_0_MEMBER_1_MEMBER_1_1_STROKES" stroke="#F9F4D9" stroke-width="1" stroke-linejoin="round" stroke-linecap="round" fill="none" d="
M 5.65 63.55
L 5.95 63.6
Q 9.4 63.8 18.7 64.55 33.25 65.7 39.45 65.85
L 41.3 65.95
Q 42.8 65.95 43.1 65.45 43.35 64.95 43.25 63.85 43.15 63.3 42.9 61.9 42.65 60.6 42.65 60.25 42.25 57.3 41.6 50.25
L 41.35 46.7
Q 41.2 43.45 40.8 41.9 40.55 40.9 39.65 39.25 38.9 37.7 38.6 37 38.1 35.65 38 34.45 37.9 33 38.9 31.7 39.5 30.95 40.75 30
L 41.25 29.55
Q 42.6 28.4 42.45 26.25 42.35 23.6 40.15 21 38.75 19.25 36.75 17.9 33.35 15.5 28.45 14.35 22.05 12.85 17 13.35 10.55 14 7.2 17.1 5.8 18.35 5.05 19.9 4.2 21.5 4.15 23.05 4.05 24.75 4.85 26.05 5.1 26.5 6.2 27.4 7.65 28.6 8.2 29.4 9.35 31.2 9.1 33.45 8.9 34.8 8.05 37.05
L 7.75 37.9
Q 7.1 39.75 6.7 42.35 6.45 44 6.15 47.1
L 6 48.4
Q 5.45 54.55 5.45 60.45
L 5.45 61.3
Q 5.45 63.3 5.65 63.55 Z"/>

<path id="Layer0_0_MEMBER_1_MEMBER_1_2_STROKES" stroke="#C19048" stroke-width="0.1" stroke-linejoin="round" stroke-linecap="round" fill="none" d="
M 41.3 69.65
L 39.3 69.55
Q 32 69.35 18.35 68.25 9.2 67.45 5.75 67.3 3.05 67.1 2.15 64.75 1.65 63.5 1.75 61.15
L 1.75 60.45
Q 1.75 54.7 2.35 48.05
L 2.5 46.7
Q 2.8 43.35 3.05 41.65 3.5 38.8 4.3 36.6
L 4.6 35.7
Q 5.25 34.05 5.4 33.25 5.55 32.15 5.1 31.45 4.9 31.1 3.85 30.25 2.35 29 1.7 27.95 0.3 25.7 0.5 22.85 0.6 20.55 1.7 18.35 2.8 16.1 4.75 14.35 9 10.4 16.7 9.65 22.3 9.1 29.35 10.75 34.9 12.05 38.85 14.85 41.6 16.75 43.45 19.1 46 22.45 46.2 26.05 46.4 29.95 43.75 32.3
L 43.05 32.9
Q 41.8 33.85 41.75 34.2 41.8 35.3 43 37.55 44.1 39.75 44.4 40.95 44.9 42.95 45.05 46.5
L 45.3 49.85
Q 46 56.95 46.3 59.75
L 46.6 61.15
Q 46.95 63.05 46.95 64.05 47.05 65.85 46.4 67.1 45.15 69.65 41.3 69.65 Z"/>
</defs>

<g id="Layer_1">
<g transform="matrix( 0.5625, 0, 0, 0.5625, 0,0) ">
<use xlink:href="#Layer0_0_MEMBER_0_MEMBER_0_FILL"/>
</g>

<g transform="matrix( 0.5625, 0, 0, 0.5625, 0,0) ">
<use xlink:href="#Layer0_0_MEMBER_0_MEMBER_1_FILL"/>
</g>

<g transform="matrix( 0.5625, 0, 0, 0.5625, 0,0) ">
<use xlink:href="#Layer0_0_MEMBER_1_MEMBER_0_FILL"/>
</g>

<g transform="matrix( 1, 0, 0, 1, 0,0) ">
<use xlink:href="#Layer0_0_MEMBER_1_MEMBER_1_FILL"/>

<use xlink:href="#Layer0_0_MEMBER_1_MEMBER_1_1_STROKES"/>

<use xlink:href="#Layer0_0_MEMBER_1_MEMBER_1_2_STROKES"/>
</g>

<g transform="matrix( 0.5625, 0, 0, 0.5625, 0,0) ">
<use xlink:href="#Layer0_0_MEMBER_2_MEMBER_0_FILL"/>
</g>

<g transform="matrix( 0.5625, 0, 0, 0.5625, 0,0) ">
<use xlink:href="#Layer0_0_MEMBER_2_MEMBER_1_FILL"/>
</g>

<g transform="matrix( 0.5625, 0, 0, 0.5625, 0,0) ">
<use xlink:href="#Layer0_0_MEMBER_2_MEMBER_2_FILL"/>
</g>

<g transform="matrix( 0.5625, 0, 0, 0.5625, 0,0) ">
<use xlink:href="#Layer0_0_MEMBER_3_MEMBER_0_FILL"/>
</g>

<g transform="matrix( 0.5625, 0, 0, 0.5625, 0,0) ">
<use xlink:href="#Layer0_0_MEMBER_3_MEMBER_1_FILL"/>
</g>

<g transform="matrix( 0.5625, 0, 0, 0.5625, 0,0) ">
<use xlink:href="#Layer0_0_MEMBER_3_MEMBER_2_FILL"/>
</g>

<g transform="matrix( 0.5625, 0, 0, 0.5625, 0,0) ">
<use xlink:href="#Layer0_0_MEMBER_3_MEMBER_3_FILL"/>
</g>

<g transform="matrix( 0.5625, 0, 0, 0.5625, 0,0) ">
<use xlink:href="#Layer0_0_MEMBER_3_MEMBER_4_FILL"/>
</g>

<g transform="matrix( 0.5625, 0, 0, 0.5625, 0,0) ">
<use xlink:href="#Layer0_0_MEMBER_3_MEMBER_5_FILL"/>
</g>

<g transform="matrix( 0.5625, 0, 0, 0.5625, 0,0) ">
<use xlink:href="#Layer0_0_MEMBER_3_MEMBER_6_FILL"/>
</g>

<g transform="matrix( 0.5625, 0, 0, 0.5625, 0,0) ">
<use xlink:href="#Layer0_0_MEMBER_3_MEMBER_7_FILL"/>
</g>
</g>
</svg>
