
<svg xmlns="http://www.w3.org/2000/svg" version="1.1" xmlns:xlink="http://www.w3.org/1999/xlink" preserveAspectRatio="none" x="0px" y="0px" width="72px" height="72px" viewBox="0 0 72 72">
<defs>
<g id="Layer1_0_FILL">
<path fill="#2F2F2F" stroke="none" d="
M 56.45 43.55
Q 56.45 37.1 50.65 32.55 44.85 28.05 36.55 28.05 28.3 28.05 22.55 32.55 16.65 37.1 16.65 43.55 16.65 49.95 22.55 54.5 28.35 59.05 36.55 59.05 44.85 59.05 50.65 54.5 56.45 49.95 56.45 43.55 Z"/>
</g>

<g id="Layer1_0_MEMBER_0_FILL">
<path fill="#B0BEC5" stroke="none" d="
M 111.4 84.2
Q 111.75 83.65 111.65 83 111.55 82.35 111.05 81.95 110.55 81.6 109.9 81.65
L 103.4 82.7 103.3 85.9 110.35 84.8
Q 111 84.75 111.4 84.2 Z"/>
</g>

<g id="Layer1_0_MEMBER_1_FILL">
<path fill="#B0BEC5" stroke="none" d="
M 100.4 96.8
L 99.85 96.75 98.65 99.6 106.65 102.25 107.1 102.3
Q 108.2 102.3 108.6 101.2 108.8 100.55 108.5 100 108.2 99.4 107.6 99.2
L 100.4 96.8 Z"/>
</g>

<g id="Layer1_0_MEMBER_2_FILL">
<path fill="#B0BEC5" stroke="none" d="
M 111.25 91.65
Q 110.9 91.1 110.25 91
L 102.85 89.6 101.6 92.55 102.1 92.7 110 94.15
Q 111.25 94.15 111.5 92.85 111.6 92.2 111.25 91.65 Z"/>
</g>

<g id="Layer1_0_MEMBER_3_MEMBER_0_FILL">
<path fill="#E0E0E0" stroke="none" d="
M 46.2 21.2
Q 44.9 22.65 44.2 24.45 44.1 24.7 44 25 43.65 24.8 42.75 24.65 42.2 24.55 41.15 24.2
L 38.8 23.8
Q 37.2 23.7 36.05 23.7 34.8 23.7 33.2 23.8
L 30.85 24.2
Q 29.8 24.55 29.25 24.65 28.330859375 24.8126953125 27.95 24.95 27.890625 24.708984375 27.8 24.45 27.1 22.65 25.8 21.2 24.5 19.7 22.8 18.85 18.6 16.7 14.05 17.8 9.35 18.9 7.1 22.9 4.8 27 6.3 32 7.75 37 11.85 39.05 13.5341796875 39.9107421875 15.1 40.25 15.1169921875 40.31953125 15.1 40.4 15.15 40.6 14.7 42 14.1 43.8 13.85 45.3 13.5 47.65 13.9 50.1 14.35 52.5 15.5 54.7 16.3 56.2 17.35 57.45 18.5 58.9 19.9 59.9 22.85 62.05 27.3 63.3 31.5 64.45 36 64.5 40.5 64.45 44.7 63.3 49.15 62.05 52.1 59.9 53.5 58.9 54.65 57.45 55.7 56.2 56.5 54.7 57.65 52.5 58.1 50.1 58.5 47.65 58.15 45.3 57.9 43.8 57.3 42 56.85 40.6 56.9 40.4 56.9 40.3 56.85 40.25 58.45 39.9 60.15 39.05 64.25 37 65.7 32 67.2 27 64.9 22.9 62.65 18.9 57.95 17.8 53.4 16.7 49.2 18.85 47.5 19.7 46.2 21.2 Z"/>
</g>

<g id="Layer1_0_MEMBER_3_MEMBER_1_FILL">
<path fill="#F2BA94" stroke="none" d="
M 21.8 20.1
Q 21.7099609375 19.7349609375 21.6 19.35 20.7 16.6 18.95 15.05 16.6 13.1 13 13.4 9.8 13.65 7.45 16.1
L 7.4 16.1
Q 4.95 18.65 5 21.85 5.1 26.15 8.95 28.8 11.123828125 30.2962890625 13.4 30.45 13.596484375 30.108984375 13.8 29.75 17.3388671875 23.409375 21.8 20.1
M 67.5 21.85
Q 67.6 18.65 65.15 16.1 62.7 13.65 59.55 13.4 55.9 13.1 53.6 15.05 51.8 16.6 50.95 19.35 50.7701171875 19.9099609375 50.65 20.45 54.8439453125 23.7369140625 58.2 29.75 58.4126953125 30.1251953125 58.6 30.5 61.1505859375 30.4642578125 63.6 28.8 67.45 26.15 67.5 21.85 Z"/>
</g>

<g id="Layer1_0_MEMBER_3_MEMBER_1_MEMBER_0_MEMBER_0_FILL">
<path fill="#FFFFFF" stroke="none" d="
M 39.3 55
Q 39.4 54.45 39.3 54.25 39.2 54 38.8 54.1 38.2 54.2 37.5 53.9 36.95 53.5 36.75 53.4 36.25 53.2 35.9 53.45 35.65 53.55 35.25 53.9 34.8 54.1 34.5 54.15 33.9 54.15 33.7 54.2 33.3 54.25 33.35 54.7 33.35 55.5 33.65 56.75 33.75 57.25 33.95 57.6 34.25 58.95 36.15 58.95 38.5 58.95 38.75 57.6 38.85 57.25 39 56.9 39.05 56.55 39.3 55 Z"/>
</g>

<g id="Layer1_0_MEMBER_3_MEMBER_1_MEMBER_0_MEMBER_1_FILL">
<path fill="#2F2F2F" stroke="none" d="
M 55.4 94.35
Q 54.35 93.75 53.75 94 53.25 94.3 53.2 94.85 53.15 95.35 53.45 95.85 54.15 97.05 55.95 97.9 58.55 99.05 60.95 98.55 62.1 98.35 63.1 97.55 64.05 96.8 65.6 97.35 66.45 97.65 68.1 98.35 70.75 99 73 98 74.15 97.55 75.15 96.7 76.45 95.55 76.3 94.6 76.1 93.55 75.15 93.6 74.75 93.65 74.15 94.05
L 73.2 94.6
Q 70.4 96.05 67.75 94.85 66.95 94.5 66.65 93.9 66.45 93.5 66.25 92.55
L 66.1 91.35
Q 66.2 90.35 66.15 90.05
L 64.25 90.05
Q 63.15 90.2 62.65 90.25
L 62 90.25
Q 62.05 93.2 62.05 93.5 61.9 94.6 60.95 95.1 60.15 95.55 59 95.5 57.5 95.45 55.4 94.35 Z"/>
</g>

<g id="Layer1_0_MEMBER_4_FILL">
<path fill="#2F2F2F" stroke="none" d="
M 44.8 74.05
Q 42.9 74.05 41.5 75.7 40.15 77.4 40.15 79.7 40.15 82.05 41.5 83.7 42.9 85.35 44.8 85.35 46.75 85.35 48.15 83.7 49.5 82.05 49.5 79.7 49.5 77.35 48.15 75.7 46.75 74.05 44.8 74.05 Z"/>
</g>

<g id="Layer1_0_MEMBER_5_FILL">
<path fill="#2F2F2F" stroke="none" d="
M 87 75.7
Q 85.6 74.05 83.7 74.05 81.75 74.05 80.4 75.7 79 77.35 79 79.7 79 82.05 80.4 83.7 81.75 85.35 83.7 85.35 85.6 85.35 87 83.7 88.35 82.05 88.35 79.7 88.35 77.4 87 75.7 Z"/>
</g>

<g id="Layer1_0_MEMBER_6_FILL">
<path fill="#2F2F2F" stroke="none" d="
M 60.55 82.25
Q 59 84.1 59 86.7 59 89.3 60.55 91.15 62.05 93 64.25 93 66.45 93 67.95 91.15 69.5 89.3 69.5 86.7 69.5 84.1 67.95 82.2 66.45 80.35 64.25 80.35 62.05 80.4 60.55 82.25 Z"/>
</g>

<g id="Layer1_0_MEMBER_7_FILL">
<path fill="#B0BEC5" stroke="none" d="
M 16.9 81.95
Q 16.4 82.35 16.3 83 16.25 83.65 16.6 84.2 17 84.75 17.6 84.8
L 24.65 85.9 24.55 82.7 18.05 81.65
Q 17.4 81.6 16.9 81.95 Z"/>
</g>

<g id="Layer1_0_MEMBER_8_FILL">
<path fill="#B0BEC5" stroke="none" d="
M 28.1 96.75
L 27.55 96.8 20.4 99.2
Q 19.75 99.4 19.5 100 19.2 100.55 19.4 101.2 19.75 102.3 20.85 102.3
L 21.3 102.25 29.3 99.6 28.1 96.75 Z"/>
</g>

<g id="Layer1_0_MEMBER_9_FILL">
<path fill="#B0BEC5" stroke="none" d="
M 17.7 91
Q 17.05 91.1 16.7 91.65 16.35 92.2 16.45 92.85 16.55 93.4 17 93.8 17.4 94.15 17.95 94.15
L 25.85 92.7 26.35 92.55 25.1 89.6 17.7 91 Z"/>
</g>
</defs>

<g id="Layer_1">
<g transform="matrix( 1, 0, 0, 1, -0.05,-0.1) ">
<use xlink:href="#Layer1_0_FILL"/>
</g>

<g transform="matrix( 0.641387939453125, 0, 0, 0.641387939453125, -5.05,-10.7) ">
<use xlink:href="#Layer1_0_MEMBER_0_FILL"/>
</g>

<g transform="matrix( 0.641387939453125, 0, 0, 0.641387939453125, -5.05,-10.7) ">
<use xlink:href="#Layer1_0_MEMBER_1_FILL"/>
</g>

<g transform="matrix( 0.641387939453125, 0, 0, 0.641387939453125, -5.05,-10.7) ">
<use xlink:href="#Layer1_0_MEMBER_2_FILL"/>
</g>

<g transform="matrix( 1.1402587890625, 0, 0, 1.1402587890625, -5.05,-10.7) ">
<use xlink:href="#Layer1_0_MEMBER_3_MEMBER_0_FILL"/>
</g>

<g transform="matrix( 1, 0, 0, 1, -0.05,-0.1) ">
<use xlink:href="#Layer1_0_MEMBER_3_MEMBER_1_FILL"/>
</g>

<g transform="matrix( 1.1402587890625, 0, 0, 1.1402587890625, -5.05,-10.7) ">
<use xlink:href="#Layer1_0_MEMBER_3_MEMBER_1_MEMBER_0_MEMBER_0_FILL"/>
</g>

<g transform="matrix( 0.641387939453125, 0, 0, 0.641387939453125, -5.05,-10.7) ">
<use xlink:href="#Layer1_0_MEMBER_3_MEMBER_1_MEMBER_0_MEMBER_1_FILL"/>
</g>

<g transform="matrix( 0.7194671630859375, 0, 0, 0.7194671630859375, -7.75,-16.95) ">
<use xlink:href="#Layer1_0_MEMBER_4_FILL"/>
</g>

<g transform="matrix( 0.7194671630859375, 0, 0, 0.7194671630859375, -12.3,-16.95) ">
<use xlink:href="#Layer1_0_MEMBER_5_FILL"/>
</g>

<g transform="matrix( 0.7513275146484375, 0, 0, 0.503936767578125, -12.05,1.15) ">
<use xlink:href="#Layer1_0_MEMBER_6_FILL"/>
</g>

<g transform="matrix( 0.641387939453125, 0, 0, 0.641387939453125, -5.05,-10.7) ">
<use xlink:href="#Layer1_0_MEMBER_7_FILL"/>
</g>

<g transform="matrix( 0.641387939453125, 0, 0, 0.641387939453125, -5.05,-10.7) ">
<use xlink:href="#Layer1_0_MEMBER_8_FILL"/>
</g>

<g transform="matrix( 0.641387939453125, 0, 0, 0.641387939453125, -5.05,-10.7) ">
<use xlink:href="#Layer1_0_MEMBER_9_FILL"/>
</g>
</g>
</svg>
