
<svg xmlns="http://www.w3.org/2000/svg" version="1.1" xmlns:xlink="http://www.w3.org/1999/xlink" preserveAspectRatio="none" x="0px" y="0px" width="72px" height="72px" viewBox="0 0 72 72">
<defs>
<g id="Layer0_0_MEMBER_0_FILL">
<path fill="#F79329" stroke="none" d="
M 61.35 25.8
L 56.1 26 55.95 28.05
Q 55.2 30.35 52.4 30.35
L 57.6 32.65 59.65 31.4
Q 61.65 29.4 61.35 25.8 Z"/>
</g>

<g id="Layer0_0_MEMBER_1_FILL">
<path fill="#F79329" stroke="none" d="
M 73.6 26
L 68.35 25.8
Q 68.05 29.4 70.05 31.4 71.05 32.4 72.1 32.65
L 77.3 30.35
Q 74.55 30.35 73.8 28.05
L 73.6 26 Z"/>
</g>

<g id="Layer0_0_MEMBER_2_MEMBER_0_FILL">
<path fill="#FCC21B" stroke="none" d="
M 55.7 23.1
Q 55.5375 23.01875 55.35 22.95 54.0158203125 22.2849609375 52.5 21.75 49.1 20.55 43.4 20.05
L 37.35 19.7
Q 34.1 19.65 29.5 19.95 28.3 20.1 23.55 20.8 21.4 21.2 19.7 21.7 16.958984375 22.5607421875 14.55 24.1 11.656640625 25.933203125 9.25 28.75 8.2 29.95 7.05 32.15 6.55 33 6.45 34.3 6.35 35.85 7.25 36.05 7.6 36.1 7.9 35.9 7.9970703125 35.8029296875 8.3 35.45
L 8.35 35.45
Q 9.4 33.85 10.05 33.1 10.85 32.05 12.05 30.9 14.55 28.4 16.9 27.35 19.5 26.2 22.15 25.6 24.7 25 28.05 24.8 31.2 24.65 33.95 24.65
L 38.05 24.65
Q 40.8 24.65 43.9 24.8 47.25 25 49.85 25.6 52.7 26.25 55.05 27.35 57.45 28.4 59.95 30.9 61.1 32.05 61.95 33.1 62.55 33.85 63.65 35.45 63.866796875 35.7029296875 64 35.8 64.0583984375 35.872265625 64.1 35.9 64.35 36.1 64.7 36.05 65.65 35.85 65.55 34.3 65.4 33.05 64.95 32.15 63.8 29.95 62.75 28.75 61.7 27.55 60.9 26.75 58.4 24.5 55.7 23.1 Z"/>
</g>

<g id="Layer0_0_MEMBER_2_MEMBER_1_FILL">
<path fill="#E53935" stroke="none" d="
M 55.05 23
Q 52.7 21.8 49.85 21.1 47.25 20.45 43.9 20.2 40.8 20.05 38.05 20.05
L 33.95 20.05
Q 31.2 20.05 28.05 20.2 24.7 20.45 22.15 21.1 19.5 21.75 16.9 23 14.55 24.2 12.05 26.95 10.85 28.2 10.05 29.35 9.4 30.2 8.35 31.95
L 8.35 32
Q 8.2 32.3 8.05 32.55 6.6 35.5 6.35 36.5 5.15 40.6 4.75 44.05 4.6 45.75 4.6 47.35 4.6 49.4 4.9 51.2 5.5 54.75 7.5 57.65 9.2 60.1 11.65 61.9 14 63.6 17.1 64.5 19.5 65.25 22.9 65.55 28.1 66.1 32.6 66.15 34.3 66.1 35.95 66.05 37.4 66.1 38.95 66.1 43.5 66.1 49 65.65 52.4 65.4 54.85 64.6 57.95 63.75 60.35 62.05 62.9 60.15 64.45 57.9 66.45 54.95 67.1 51.45 67.4 49.6 67.45 47.55 67.4 45.95 67.25 44.25 66.85 41.2 65.75 36.9 64.95 34.45 64 32.4 63.85 32.25 63.65 31.95 62.55 30.2 61.95 29.35 61.1 28.2 59.95 26.95 57.45 24.2 55.05 23 Z"/>
</g>

<g id="Layer0_0_MEMBER_3_MEMBER_0_MEMBER_0_FILL">
<path fill="#FCC21B" stroke="none" d="
M 32.05 5.9
Q 30.1 5.9 28.7 7.3 27.35 8.65 27.35 10.6 27.35 12.55 28.7 13.9 30.1 15.3 32.05 15.3 34 15.3 35.35 13.9 36.75 12.55 36.75 10.6 36.75 8.65 35.35 7.3 34 5.9 32.05 5.9 Z"/>
</g>

<g id="An_1F45B_SVG_Layer_1__Clip_Group__0_Layer2_0_FILL">
<path fill="#F79329" stroke="none" d="
M 11.9 2.05
Q 11.8509765625 1.999609375 11.8 1.95 11.750390625 1.999609375 11.7 2.05 9.65 4.05 9.65 6.95 9.65 9.85 11.7 11.85 11.750390625 11.900390625 11.8 11.95 11.8509765625 11.900390625 11.9 11.85 13.95 9.85 13.95 6.95 13.95 4.05 11.9 2.05 Z"/>
</g>

<g id="Layer0_0_MEMBER_4_FILL">
<path fill="#FCC21B" stroke="none" d="
M 70.8 14
Q 67.9 14 65.9 16.05 63.85 18.05 63.85 20.95 63.85 23.85 65.9 25.85 67.9 27.9 70.8 27.9 73.7 27.9 75.75 25.85 77.8 23.85 77.8 20.95 77.8 18.05 75.75 16.05 73.7 14 70.8 14 Z"/>
</g>

<g id="Layer0_0_MEMBER_5_FILL">
<path fill="#FFFFFF" stroke="none" d="
M 71.1 18.85
Q 71.1 17.95 70.45 17.3 69.85 16.65 68.9 16.65 68 16.65 67.4 17.3 66.75 17.95 66.75 18.85 66.75 19.75 67.4 20.4 68 21.05 68.9 21.05 69.85 21.05 70.45 20.4 71.1 19.75 71.1 18.85 Z"/>
</g>

<g id="Layer0_0_MEMBER_6_FILL">
<path fill="#FFFFFF" stroke="none" d="
M 58.25 18.85
Q 58.25 17.95 57.6 17.3 56.95 16.65 56.05 16.65 55.1 16.65 54.5 17.3 53.85 17.95 53.85 18.85 53.85 19.75 54.5 20.4 55.1 21.05 56.05 21.05 56.95 21.05 57.6 20.4 58.25 19.75 58.25 18.85 Z"/>
</g>
</defs>

<g id="Layer_1">
<g transform="matrix( 0.675750732421875, 0, 0, 0.675750732421875, -7.3,-3.55) ">
<use xlink:href="#Layer0_0_MEMBER_0_FILL"/>
</g>

<g transform="matrix( 0.675750732421875, 0, 0, 0.675750732421875, -7.3,-3.55) ">
<use xlink:href="#Layer0_0_MEMBER_1_FILL"/>
</g>

<g transform="matrix( 1, 0, 0, 1, 0,-3.2) ">
<use xlink:href="#Layer0_0_MEMBER_2_MEMBER_0_FILL"/>
</g>

<g transform="matrix( 1, 0, 0, 1, 0,0) ">
<use xlink:href="#Layer0_0_MEMBER_2_MEMBER_1_FILL"/>
</g>

<g transform="matrix( 1, 0, 0, 1, 0,0) ">
<use xlink:href="#Layer0_0_MEMBER_3_MEMBER_0_MEMBER_0_FILL"/>
</g>

<g transform="matrix( 0.675750732421875, 0, 0, 0.675750732421875, 27.3,5.9) ">
<g id="Camada_1"/>

<g transform="matrix( 1, 0, 0, 1, 0,0) ">
<use xlink:href="#An_1F45B_SVG_Layer_1__Clip_Group__0_Layer2_0_FILL"/>
</g>

<g id="Camada_4"/>
</g>

<g transform="matrix( 0.675750732421875, 0, 0, 0.675750732421875, -7.3,-3.55) ">
<use xlink:href="#Layer0_0_MEMBER_4_FILL"/>
</g>

<g transform="matrix( 0.675750732421875, 0, 0, 0.675750732421875, -7.3,-3.55) ">
<use xlink:href="#Layer0_0_MEMBER_5_FILL"/>
</g>

<g transform="matrix( 0.675750732421875, 0, 0, 0.675750732421875, -7.3,-3.55) ">
<use xlink:href="#Layer0_0_MEMBER_6_FILL"/>
</g>
</g>
</svg>
