
<svg xmlns="http://www.w3.org/2000/svg" version="1.1" xmlns:xlink="http://www.w3.org/1999/xlink" preserveAspectRatio="none" x="0px" y="0px" width="72px" height="72px" viewBox="0 0 72 72">
<defs>
<g id="Layer0_0_MEMBER_0_MEMBER_0_FILL">
<path fill="#E1F5FE" stroke="none" d="
M 42.3 29.85
L 44.15 1.8 1.65 10.5 42.3 29.85 Z"/>
</g>

<g id="Layer0_0_MEMBER_0_MEMBER_1_FILL">
<path fill="#81D4FA" stroke="none" d="
M 20.75 68.95
L 42.3 29.85 1.65 10.5 20.75 68.95 Z"/>
</g>

<g id="Layer0_0_MEMBER_0_MEMBER_2_FILL">
<path fill="#64B5F6" stroke="none" d="
M 20.75 68.95
L 64.3 63.75 42.3 29.85 20.75 68.95 Z"/>
</g>

<g id="Layer0_0_MEMBER_0_MEMBER_3_FILL">
<path fill="#0288D1" stroke="none" d="
M 126.2 83.85
L 98.15 85.7 117.5 126.35 126.2 83.85 Z"/>
</g>

<g id="Layer0_0_MEMBER_0_MEMBER_4_FILL">
<path fill="#81D4FA" stroke="none" d="
M 98.15 85.7
L 59.05 107.25 117.5 126.35 98.15 85.7 Z"/>
</g>

<g id="Layer0_0_MEMBER_0_MEMBER_5_FILL">
<path fill="#E1F5FE" stroke="none" d="
M 64.3 63.75
L 59.05 107.25 98.15 85.7 64.3 63.75 Z"/>
</g>

<g id="Layer0_0_MEMBER_0_MEMBER_6_FILL">
<path fill="#B2EBF2" stroke="none" d="
M 64.3 63.75
L 20.75 68.95 59.05 107.25 64.3 63.75 Z"/>
</g>

<g id="Layer0_0_MEMBER_0_MEMBER_7_FILL">
<path fill="#B3E5FC" stroke="none" d="
M 98.15 85.7
L 126.2 83.85 116.4 52.05 75.9 11.6 44.15 1.8 42.3 29.85 64.3 63.75 98.15 85.7 Z"/>
</g>

<g id="Layer0_0_MEMBER_0_MEMBER_8_FILL">
<path fill="#1E88E5" stroke="none" d="
M 20.75 68.95
L 1.65 10.5 2.2 125.8 20.75 68.95 Z"/>
</g>

<g id="Layer0_0_MEMBER_0_MEMBER_9_FILL">
<path fill="#B3E5FC" stroke="none" d="
M 59.05 107.25
L 2.2 125.8 117.5 126.35 59.05 107.25 Z"/>
</g>

<g id="Layer0_0_MEMBER_0_MEMBER_10_FILL">
<path fill="#E1F5FE" stroke="none" d="
M 2.2 125.8
L 59.05 107.25 20.75 68.95 2.2 125.8 Z"/>
</g>
</defs>

<g id="Layer_1">
<g transform="matrix( 0.30023193359375, -0.30023193359375, 0.30023193359375, 0.30023193359375, -2.45,27.1) ">
<use xlink:href="#Layer0_0_MEMBER_0_MEMBER_0_FILL"/>
</g>

<g transform="matrix( 0.30023193359375, -0.30023193359375, 0.30023193359375, 0.30023193359375, -2.45,27.1) ">
<use xlink:href="#Layer0_0_MEMBER_0_MEMBER_1_FILL"/>
</g>

<g transform="matrix( 0.30023193359375, -0.30023193359375, 0.30023193359375, 0.30023193359375, -2.45,27.1) ">
<use xlink:href="#Layer0_0_MEMBER_0_MEMBER_2_FILL"/>
</g>

<g transform="matrix( 0.30023193359375, -0.30023193359375, 0.30023193359375, 0.30023193359375, -2.45,27.1) ">
<use xlink:href="#Layer0_0_MEMBER_0_MEMBER_3_FILL"/>
</g>

<g transform="matrix( 0.30023193359375, -0.30023193359375, 0.30023193359375, 0.30023193359375, -2.45,27.1) ">
<use xlink:href="#Layer0_0_MEMBER_0_MEMBER_4_FILL"/>
</g>

<g transform="matrix( 0.30023193359375, -0.30023193359375, 0.30023193359375, 0.30023193359375, -2.45,27.1) ">
<use xlink:href="#Layer0_0_MEMBER_0_MEMBER_5_FILL"/>
</g>

<g transform="matrix( 0.30023193359375, -0.30023193359375, 0.30023193359375, 0.30023193359375, -2.45,27.1) ">
<use xlink:href="#Layer0_0_MEMBER_0_MEMBER_6_FILL"/>
</g>

<g transform="matrix( 0.30023193359375, -0.30023193359375, 0.30023193359375, 0.30023193359375, -2.45,27.1) ">
<use xlink:href="#Layer0_0_MEMBER_0_MEMBER_7_FILL"/>
</g>

<g transform="matrix( 0.30023193359375, -0.30023193359375, 0.30023193359375, 0.30023193359375, -2.45,27.1) ">
<use xlink:href="#Layer0_0_MEMBER_0_MEMBER_8_FILL"/>
</g>

<g transform="matrix( 0.30023193359375, -0.30023193359375, 0.30023193359375, 0.30023193359375, -2.45,27.1) ">
<use xlink:href="#Layer0_0_MEMBER_0_MEMBER_9_FILL"/>
</g>

<g transform="matrix( 0.30023193359375, -0.30023193359375, 0.30023193359375, 0.30023193359375, -2.45,27.1) ">
<use xlink:href="#Layer0_0_MEMBER_0_MEMBER_10_FILL"/>
</g>
</g>
</svg>
