
<svg xmlns="http://www.w3.org/2000/svg" version="1.1" xmlns:xlink="http://www.w3.org/1999/xlink" preserveAspectRatio="none" x="0px" y="0px" width="72px" height="72px" viewBox="0 0 72 72">
<defs>
<g id="Layer0_0_MEMBER_0_FILL">
<path fill="#40C0E7" stroke="none" d="
M 90.95 43.65
Q 95.2 39.3 96.8 33.35 98.45 27.4 97 21.45 95.65 15.85 91.95 11.8 88.25 7.75 82.8 5.95 80.7 5.2 77.55 4.6 74.7 4.1 71.45 4.1 61.85 4.1 52.85 9.15 43.85 14.15 36.6 23.6 34.2 26.75 31.95 30.45
L 31.85 30.6 31.75 30.7 26.85 39.05
Q 24.1 44.05 22.95 46.6 18.9 55.95 16.25 64.2
L 16.1 64.6
Q 14.9 68.5 14.6 70.4 14.1 73.85 15.4 75.7 16.15 76.65 17.85 76.65 19.45 76.65 21.8 75.75 25.55 74.15 32.25 69.65 37.25 66.3 39.4 65.1 46.25 61.25 57.6 57.5
L 66.9 55.1
Q 75.5 52.85 79.55 51.2 86.45 48.3 90.95 43.65 Z"/>
</g>

<g id="Layer0_0_MEMBER_1_FILL">
<path fill="#40C0E7" stroke="none" d="
M 107.15 92.2
Q 105.6 90.5 104.35 89.4 96.75 82.95 86.35 82.95 75.5 82.95 63.5 89.7
L 61.9 90.45
Q 53.1 94.9 45.3 102.4 42.75 104.85 41.6 106.3 39.75 108.7 39.55 110.75 39.45 112.1 39.9 112.4 40.75 113.35 43.95 113.35
L 46.6 113.25
Q 48.95 113.05 53.3 112.95
L 53.75 112.95
Q 55.05 113.05 55.45 113.05
L 56.5 113.05 56.85 113 57.15 113 61.4 113.35
Q 63.15 113.65 66.15 114.3 68.2 114.85 69.55 115.05
L 78.65 117.6
Q 83.1 118.85 85.15 119.3 89 120.1 92.15 120.1 95.3 120.1 98.15 119.35 102.45 118.2 105.75 115 109.05 111.8 110.35 107.5 111.6 103.45 110.8 99.4 109.95 95.45 107.15 92.2 Z"/>
</g>

<g id="Layer0_0_MEMBER_2_FILL">
<path fill="#40C0E7" stroke="none" d="
M 107.15 92.2
Q 105.6 90.5 104.35 89.4 96.75 82.95 86.35 82.95 75.5 82.95 63.5 89.7
L 61.9 90.45
Q 53.1 94.9 45.3 102.4 42.75 104.85 41.6 106.3 39.75 108.7 39.55 110.75 39.45 112.1 39.9 112.4 40.75 113.35 43.95 113.35
L 46.6 113.25
Q 48.95 113.05 53.3 112.95
L 53.75 112.95
Q 55.05 113.05 55.45 113.05
L 56.5 113.05 56.85 113 57.15 113 61.4 113.35
Q 63.15 113.65 66.15 114.3 68.2 114.85 69.55 115.05
L 78.65 117.6
Q 83.1 118.85 85.15 119.3 89 120.1 92.15 120.1 95.3 120.1 98.15 119.35 102.45 118.2 105.75 115 109.05 111.8 110.35 107.5 111.6 103.45 110.8 99.4 109.95 95.45 107.15 92.2 Z"/>
</g>
</defs>

<g id="Layer_1">
<g transform="matrix( 0.2423095703125, 0.4463043212890625, -0.4463043212890625, 0.2423095703125, 50.75,-15.35) ">
<use xlink:href="#Layer0_0_MEMBER_0_FILL"/>
</g>

<g transform="matrix( 0.0000457763671875, 0.6581268310546875, -0.6581268310546875, 0.0000457763671875, 83.85,-5.45) ">
<use xlink:href="#Layer0_0_MEMBER_1_FILL"/>
</g>

<g transform="matrix( 0.2301483154296875, 0.482513427734375, -0.482513427734375, 0.2301483154296875, 76.35,-9.8) ">
<use xlink:href="#Layer0_0_MEMBER_2_FILL"/>
</g>
</g>
</svg>
