
<svg xmlns="http://www.w3.org/2000/svg" version="1.1" xmlns:xlink="http://www.w3.org/1999/xlink" preserveAspectRatio="none" x="0px" y="0px" width="72px" height="72px" viewBox="0 0 72 72">
<defs>
<g id="Layer0_0_FILL">
<path fill="#B0BEC5" stroke="none" d="
M 101.85 19.95
Q 101.8 19.6 101.45 19.5 95.9 17.95 90.55 19.2 85 20.45 81 24.45 77 28.45 75.75 34 74.5 39.4 76.1 44.95 68.5 57.75 56.1 70 44.75 81.25 31.2 90.3 29.3 91.6 25.45 94 22.3 96.3 20.95 99.05 19.45 102.05 19.6 105.45 19.7 108.8 21.45 111.7 21.9 112.4 23.55 114.05 25.25 115.7 25.9 116.15 28.8 117.85 32.15 118 35.55 118.15 38.55 116.7 41.3 115.3 43.6 112.2 46.05 108.35 47.3 106.45 56.35 92.9 67.6 81.55 79.85 69.15 92.65 61.5 98.2 63.1 103.6 61.85 109.15 60.6 113.15 56.6 117.15 52.65 118.4 47.1 119.65 41.7 118.1 36.15 118 35.85 117.65 35.75 117.3 35.7 117.1 35.9
L 105.45 47.55
Q 104.95 48.1 104.15 48.1 103.35 48.1 102.8 47.55
L 90.05 34.8
Q 89.5 34.3 89.5 33.5 89.5 32.7 90.05 32.15
L 101.7 20.5
Q 101.95 20.25 101.85 19.95
M 38 104.85
Q 38 107 36.45 108.55 34.9 110.1 32.75 110.1 30.6 110.1 29 108.6 27.5 107 27.5 104.85 27.5 102.7 29.05 101.15 30.6 99.6 32.75 99.6 34.9 99.6 36.5 101.1 38 102.7 38 104.85 Z"/>
</g>

<g id="Layer0_1_MEMBER_0_FILL">
<path fill="#855C52" stroke="none" d="
M 95.35 88.75
Q 86.4 80.05 82.75 76.65 80.95 75 74.3 69.75 67.85 64.65 67.4 64.2
L 43.3 40.2 36.65 46.85 60.7 70.95
Q 61.05 71.35 66.2 77.85 71.45 84.45 73.1 86.25 76.25 89.65 85.2 98.85 94.15 108.15 97.4 111.3
L 99.95 113.7
Q 101.15 114.8 102.6 114.95 104.05 115.1 104.95 114.2
L 110.65 108.5
Q 111.55 107.6 111.4 106.15 111.25 104.7 110.15 103.5
L 107.75 101
Q 104.75 97.9 95.35 88.75 Z"/>
</g>

<g id="Layer0_1_MEMBER_1_MEMBER_0_FILL">
<path fill="#855C52" stroke="none" d="
M 47.15 44.05
L 40.55 37.5 33.95 44.1 40.5 50.7
Q 41.2 48.15 42.9 46.45 44.5 44.75 47.15 44.05 Z"/>
</g>

<g id="Layer0_2_FILL">
<path fill="#B0BEC5" stroke="none" d="
M 50.95 14.35
Q 48.6 13.7 41.05 15.2 37.55 15.9 35.3 17.4 34.5 18 32.6 19.85
L 16.25 36.15
Q 16 36.4 16 36.8 16 37.2 16.25 37.45
L 18.95 40.1
Q 19.35 40.5 19.2 41.1 19.05 41.65 18.5 41.85
L 17.65 42.1
Q 14.75 43 11.65 42.55 10.1 42.3 8.95 43.45
L 5.05 47.35
Q 4.75 47.65 4.75 48.05 4.75 48.45 5.05 48.75
L 20.4 64.1
Q 21.25 64.95 22.4 64.95 23.55 64.95 24.35 64.1
L 27 61.5
Q 28.1 60.4 27.85 58.8 27.4 55.85 28.3 52.75
L 28.55 51.95
Q 28.75 51.4 29.3 51.25 29.9 51.1 30.3 51.5
L 32.95 54.2
Q 33.65 54.8 34.25 54.2
L 51.2 37.25
Q 51.45 37 51.45 36.6 51.45 36.2 51.2 35.95
L 45.95 30.7
Q 43.45 28.25 43.05 27.1 41.75 23.5 44.7 20.45 45.95 19.15 49.8 16.8 51.75 15.65 51.95 15.15 52.15 14.65 50.95 14.35 Z"/>
</g>

<g id="Layer0_3_MEMBER_2_MEMBER_0_FILL">
<path fill="#B0BEC5" stroke="none" d="
M 9.15 22.2
Q 9.05 22.5 8.75 22.6
L 8.25 22.75
Q 6.5 23.3 4.6 23
L 13.5 31.9 13.65 32.25
Q 13.7 33.05 13.1 33.65
L 11.5 35.25
Q 11 35.75 10.35 35.75 9.671875 35.75 9.15 35.25
L 10.65 36.75
Q 10.8 36.9 11.1 36.9 11.3 36.9 11.5 36.75
L 13.8 34.4
Q 14.5 33.7 14.35 32.75 14.1 30.9 14.65 29.15
L 14.8 28.65
Q 14.9 28.35 15.25 28.25 15.5890625 28.153125 15.8 28.35
L 9.05 21.6 9.05 21.65
Q 9.25 21.85 9.15 22.2 Z"/>
</g>
</defs>

<g id="Layer_1">
<g transform="matrix( 0.60186767578125, 0, 0, 0.60186767578125, -2.4,-2.6) ">
<use xlink:href="#Layer0_0_FILL"/>
</g>

<g transform="matrix( 0.60186767578125, 0, 0, 0.60186767578125, -2.4,-2.6) ">
<use xlink:href="#Layer0_1_MEMBER_0_FILL"/>
</g>

<g transform="matrix( 0.60186767578125, 0, 0, 0.60186767578125, -2.4,-2.6) ">
<use xlink:href="#Layer0_1_MEMBER_1_MEMBER_0_FILL"/>
</g>

<g transform="matrix( 0.60186767578125, 0, 0, 0.60186767578125, -2.4,-2.6) ">
<use xlink:href="#Layer0_2_FILL"/>
</g>

<g transform="matrix( 1, 0, 0, 1, 0,0) ">
<use xlink:href="#Layer0_3_MEMBER_2_MEMBER_0_FILL"/>
</g>
</g>
</svg>
