
<svg xmlns="http://www.w3.org/2000/svg" version="1.1" xmlns:xlink="http://www.w3.org/1999/xlink" preserveAspectRatio="none" x="0px" y="0px" width="72px" height="72px" viewBox="0 0 72 72">
<defs>
<g id="Layer0_0_MEMBER_0_MEMBER_0_FILL">
<path fill="#FAC036" stroke="none" d="
M 44.95 11.2
Q 43.4 9.85 42.45 9.5 40.85 8.85 40.1 9.8 39.35 10.75 41.05 12.3 43.55 14.45 45.35 16.7 46.25 17.9 46.15 19.9 46.05 21.25 44.85 22.35 43.7 23.45 41.9 23.9 39.9 24.4 38.75 23.55 38.1 23.05 36.9 21.3 35.75 19.65 34.85 19.1 33.2 18.15 32.05 19.25 31.05 20.25 30.9 22.1 30.75 23.95 31.2 25.85 31.35 26.6 32.15 29.25 32.7 30.95 33.95 32.05 34.75 32.7 36.75 34.05 37.7 34.8 37.15 36.6 36.5 38.8 36.85 39.75 37.25 40.85 38.9 41.95 39.8 42.5 41.55 43.55 42.45 44.25 43.8 44.35 45.05 44.45 45.4 43.95 45.75 43.5 46.2 42.45 46.7 41.2 46.75 41.1 48.45 38 49.2 36.3 50.6 33.4 51.05 31.1 51.35 29.95 51.25 28.7 51.25 28.3 51.05 26 51 22.65 50.8 21
L 50.7 20.2
Q 50.25 17.75 49.8 16.55 49.1 14.9 47.6 13.65 45.8 11.95 44.95 11.2 Z"/>
</g>

<g id="Layer0_0_MEMBER_0_MEMBER_1_FILL">
<path fill="#E48C15" stroke="none" d="
M 64.55 44.5
Q 63.95 44.35 63.3 43.9 63.25 43.85 62.25 43 60.75 41.75 59.1 41.1 58.8 41.25 59.15 42.35 59.5 43.3 59.9 43.8 62 46.25 64.2 47.9 64.35 48 64.55 44.5 Z"/>
</g>

<g id="Layer0_0_MEMBER_0_MEMBER_2_MEMBER_0_FILL">
<path fill="#757575" stroke="none" d="
M 82.2 46.7
Q 83.25 46.05 83.05 44.75
L 75.15 3.8
Q 75 3.1 74.45 2.65 73.9 2.2 73.25 2.25 72.65 2.25 72.2 2.55
L 60.75 10.2
Q 59.7 10.95 59.95 12.15
L 67.8 53.1
Q 68 54.15 68.95 54.55 69.9 54.9 70.75 54.35
L 82.2 46.7 Z"/>
</g>

<g id="Layer0_0_MEMBER_0_MEMBER_2_MEMBER_1_FILL">
<path fill="#757575" stroke="none" d="
M 73.25 6
L 73.25 2.25 70.3 2.25 70.3 6 73.25 6 Z"/>
</g>

<g id="Layer0_0_MEMBER_0_MEMBER_2_MEMBER_2_FILL">
<path fill="#757575" stroke="none" d="
M 69.75 54.7
L 69.75 50.95 66.75 50.95 66.75 54.7 69.75 54.7 Z"/>
</g>

<g id="Layer0_0_MEMBER_0_MEMBER_2_MEMBER_3_FILL">
<path fill="#B2B2B3" stroke="none" d="
M 57.85 10.2
Q 56.8 11 57.05 12.15
L 64.95 53.1
Q 65.15 54.15 66.1 54.55 67.05 54.9 67.9 54.35
L 79.35 46.7
Q 80.4 46 80.15 44.75
L 72.25 3.8
Q 72.05 2.8 71.1 2.4 70.15 2 69.3 2.55
L 57.85 10.2 Z"/>
</g>

<g id="Layer0_0_MEMBER_0_MEMBER_3_FILL">
<path fill="#00ACC1" stroke="none" d="
M 82.5 80
Q 82.3 78.45 81.05 77.5
L 65.9 65.6
Q 65.05 64.9 63.95 65 62.85 65.15 62.15 66
L 39.25 94.9
Q 37.35 97.2 34.5 96.8
L 0 94.45 0 126.7 48.25 124.35
Q 51.65 124.35 53.6 121.6
L 81.8 82.8
Q 82.7 81.5 82.5 80 Z"/>
</g>

<g id="Layer0_0_MEMBER_0_MEMBER_4_FILL">
<path fill="#FAC036" stroke="none" d="
M 82.4 41.35
Q 84.7 42.8 86.65 41.7 88.65 40.6 87.55 38.4 87 37.25 84.95 35.2 82.65 33 80.95 32 79.85 31.4 76 29.75 72.35 28.4 70.55 28.3 69.05 28.2 67.9 28.85 66.75 29.55 66.55 30.85 66.3 32.1 67.25 33.1 68.15 34.05 70.3 34.75 74.15 35.95 74.75 36.2 77.2 37.1 78.9 38.4 79.95 39.25 82.4 41.35 Z"/>
</g>

<g id="Layer0_0_MEMBER_0_MEMBER_5_FILL">
<path fill="#FAC036" stroke="none" d="
M 87.7 46.7
Q 87.15 45.45 85.3 43.6 83.1 41.3 81.65 40.5 80.45 39.75 77.1 38.35 73.9 37.05 72.15 37 70.6 37 69.7 37.6 68.65 38.3 68.45 39.6 68.3 40.9 69.1 41.85 70.05 42.9 71.95 43.45 75.35 44.5 76.05 44.75 78.25 45.65 79.8 46.9 80.8 47.75 83 49.75 85.1 51.15 86.9 50.05 88.75 48.85 87.7 46.7 Z"/>
</g>

<g id="Layer0_0_MEMBER_0_MEMBER_6_FILL">
<path fill="#FAC036" stroke="none" d="
M 57.8 33.7
Q 56.3 34.8 56.6 36.85 56.95 39 59.15 41.35 61.45 43.85 63.6 44.9 66.3 46.2 67.85 44.7 69.35 43.25 68.2 40.9 67.35 39.15 64.5 36.05 62.8 34.25 61.15 33.55 59.2 32.7 57.8 33.7 Z"/>
</g>

<g id="Layer0_0_MEMBER_0_MEMBER_7_FILL">
<path fill="#FAC036" stroke="none" d="
M 88.5 29.4
Q 87.25 26.45 84.65 24.2 81.45 21.25 79.9 19.9 77.2 17.5 75.45 16.9 72.6 15.75 71.3 17.4 70.5 18.35 71.3 19.8 71.85 20.85 73 21.8 77.65 25.85 80.6 29.7 82.25 31.85 82.05 35
L 90.4 38.15 90.1 35.9
Q 89.35 31.55 88.5 29.4 Z"/>
</g>

<g id="Layer0_0_MEMBER_0_MEMBER_8_FILL">
<path fill="#E48C15" stroke="none" d="
M 45.35 30.25
Q 44.8 30 44.4 29.85 43.7 29.6 43.05 29.8 42.5 30 41.75 30.5 41.05 31 40.65 31.1 40.3 31.2 39.7 30.95 39.05 30.65 38.85 30.6 38.85 31.2 39.2 31.65 39.55 32.15 40.2 32.15 41.25 32.15 42.2 31.45 42.4 31.35 42.8 31 43.1 30.75 43.4 30.7 43.85 30.55 44.4 30.65 44.7 30.7 45.35 30.85 45.6 30.9 46.3 30.7 45.95 30.55 45.35 30.25 Z"/>
</g>

<g id="Layer0_0_MEMBER_0_MEMBER_9_FILL">
<path fill="#FAC036" stroke="none" d="
M 48.25 28.95
Q 48.25 28.4 47.95 28.35 47.5 28.15 46.65 27.65 45.75 27.1 45.35 26.9 44.15 26.4 43.15 26.5 42.65 26.6 41.85 27.05 40.4 27.9 40 28.35 39.45 28.95 39.1 29.6 38.65 30.55 39.05 31 39.4 31.4 40.05 31.4 40.9 31.4 41.95 30.55 42.6 30.05 43.35 29.9 44.2 29.75 44.85 30.1 45.05 30.2 45.35 30.45 45.7 30.7 45.95 30.75 46.35 30.85 46.95 30.65 47.45 30.4 47.85 29.95 48.25 29.45 48.25 28.95 Z"/>
</g>
</defs>

<g transform="matrix( 1, 0, 0, 1, 0,0) ">
<use xlink:href="#Layer0_0_MEMBER_0_MEMBER_0_FILL"/>
</g>

<g transform="matrix( 0.562469482421875, 0, 0, 0.562469482421875, 0,0) ">
<use xlink:href="#Layer0_0_MEMBER_0_MEMBER_1_FILL"/>
</g>

<g transform="matrix( 0.5624237060546875, 0, 0, 0.5624237060546875, 0,0) ">
<use xlink:href="#Layer0_0_MEMBER_0_MEMBER_2_MEMBER_0_FILL"/>
</g>

<g transform="matrix( 0.5624237060546875, 0, 0, 0.5624237060546875, 0,0) ">
<use xlink:href="#Layer0_0_MEMBER_0_MEMBER_2_MEMBER_1_FILL"/>
</g>

<g transform="matrix( 0.5624237060546875, 0, 0, 0.5624237060546875, 0,0) ">
<use xlink:href="#Layer0_0_MEMBER_0_MEMBER_2_MEMBER_2_FILL"/>
</g>

<g transform="matrix( 0.5624237060546875, 0, 0, 0.5624237060546875, 0,0) ">
<use xlink:href="#Layer0_0_MEMBER_0_MEMBER_2_MEMBER_3_FILL"/>
</g>

<g transform="matrix( 0.562469482421875, 0, 0, 0.562469482421875, 0,0) ">
<use xlink:href="#Layer0_0_MEMBER_0_MEMBER_3_FILL"/>
</g>

<g transform="matrix( 0.562469482421875, 0, 0, 0.562469482421875, 0,0) ">
<use xlink:href="#Layer0_0_MEMBER_0_MEMBER_4_FILL"/>
</g>

<g transform="matrix( 0.562469482421875, 0, 0, 0.562469482421875, 0,0) ">
<use xlink:href="#Layer0_0_MEMBER_0_MEMBER_5_FILL"/>
</g>

<g transform="matrix( 0.562469482421875, 0, 0, 0.562469482421875, 0,0) ">
<use xlink:href="#Layer0_0_MEMBER_0_MEMBER_6_FILL"/>
</g>

<g transform="matrix( 0.562469482421875, 0, 0, 0.562469482421875, 0,0) ">
<use xlink:href="#Layer0_0_MEMBER_0_MEMBER_7_FILL"/>
</g>

<g transform="matrix( 1, 0, 0, 1, 0,0) ">
<use xlink:href="#Layer0_0_MEMBER_0_MEMBER_8_FILL"/>
</g>

<g transform="matrix( 1, 0, 0, 1, 0,0) ">
<use xlink:href="#Layer0_0_MEMBER_0_MEMBER_9_FILL"/>
</g>
</svg>
