
<svg xmlns="http://www.w3.org/2000/svg" version="1.1" xmlns:xlink="http://www.w3.org/1999/xlink" preserveAspectRatio="none" x="0px" y="0px" width="72px" height="72px" viewBox="0 0 72 72">
<defs>
<g id="Layer0_0_MEMBER_0_FILL">
<path fill="#FBC21A" stroke="none" d="
M 114.05 48.4
Q 111.45 46.55 108.4 47
L 96.35 48.7 96.45 50.1
Q 96.45 54.1 93.6 56.95 90.75 59.8 86.7 59.8 83.05 59.8 80.3 57.4 77.6 55.05 77.1 51.45
L 40.15 56.75
Q 40.55 57.7 40.55 58.7 40.55 60.55 39.15 61.85 37.8 63.2 35.8 63.2 33.85 63.2 32.45 61.9 31.05 60.55 31.05 58.7
L 31.1 58.05 17.05 60.1
Q 14.45 60.45 12.7 62.4 10.9 64.35 10.8 66.95
L 11.25 101.35
Q 11.25 104.65 13.7 106.8 16.2 108.95 19.45 108.55
L 110.55 98.15
Q 113.35 97.8 115.2 95.7 117.05 93.6 117 90.8
L 117.2 54.15 117.1 53.2 117.1 53.15
Q 116.65 50.25 114.05 48.4
M 95.1 71.5
Q 97.3 69.35 100.35 69.35 103.45 69.35 105.6 71.5 107.75 73.7 107.75 76.75 107.75 79.85 105.6 82 103.45 84.15 100.35 84.15 97.3 84.15 95.1 82 92.95 79.85 92.95 76.75 92.95 73.7 95.1 71.5
M 27.8 78
Q 27.8 79.45 26.8 80.45 25.8 81.45 24.35 81.45 22.95 81.45 21.95 80.45 20.95 79.4 20.95 78 20.95 76.6 21.95 75.6 22.95 74.6 24.35 74.6 25.8 74.6 26.8 75.6 27.8 76.6 27.8 78
M 30.85 95.35
Q 30.85 92.7 32.7 90.8 34.6 88.95 37.25 88.95 39.9 88.95 41.75 90.8 43.6 92.7 43.6 95.35 43.6 98 41.75 99.85 39.9 101.7 37.25 101.7 34.6 101.7 32.7 99.85 30.85 98 30.85 95.35
M 63.7 65.55
Q 67 68.85 67 73.5 67 78.15 63.7 81.45 60.45 84.75 55.75 84.75 51.1 84.75 47.8 81.45 44.5 78.15 44.5 73.5 44.5 68.85 47.8 65.55 51.1 62.25 55.75 62.25 60.45 62.25 63.7 65.55
M 79.65 87.1
Q 79.65 89 78.35 90.3 77 91.65 75.1 91.65 73.25 91.65 71.9 90.3 70.55 89 70.55 87.1 70.55 85.2 71.9 83.85 73.2 82.5 75.1 82.5 77 82.5 78.35 83.85 79.65 85.2 79.65 87.1 Z"/>
</g>

<g id="Layer0_0_MEMBER_1_FILL">
<path fill="#FDE283" stroke="none" d="
M 64.65 23.7
Q 64.35 23.2 64.15 23 59.65 17.8 55.45 15.35 51.85 13.15 45.5 11.35 43.1 10.65 40.6 11.1 38.1 11.55 36.05 13.05
L 8.15 33 7.15 34
Q 6.1 35.4 6.05 37.65 6.15 36.15 7.1 35.1 8.15 34 9.6 33.8
L 17.5 32.65
Q 17.55 31.9 18.3 31.4 19.05 30.9 20.15 30.9 20.95 30.9 21.55 31.2 22.2 31.45 22.55 31.95
L 43.35 28.95 43.35 28.45
Q 43.35 26.65 45 25.35 46.65 24.1 48.9 24.1 50.75 24.1 52.3 25.05 53.8 26 54.15 27.4
L 61 26.45
Q 62.7 26.2 64.15 27.25 65.6 28.25 65.85 29.95 65.85 26.65 65.4 25.25 65.15 24.45 64.65 23.7
M 46.6 15.85
Q 47.4 16.45 47.4 17.25 47.4 18.05 46.6 18.65 45.8 19.25 44.7 19.25 43.55 19.25 42.75 18.65 41.95 18.05 41.95 17.25 41.95 16.45 42.75 15.85 43.55 15.25 44.7 15.25 45.8 15.25 46.6 15.85
M 28.8 21.05
Q 30 20.25 31.65 20.25 33.35 20.25 34.55 21.05 35.7 21.85 35.7 22.95 35.7 24.1 34.55 24.9 33.35 25.7 31.65 25.7 30 25.7 28.8 24.9 27.6 24.1 27.6 22.95 27.6 21.85 28.8 21.05 Z"/>
</g>

<g id="Layer0_0_MEMBER_2_FILL">
<path fill="#C47930" stroke="none" d="
M 100.35 69.35
Q 97.3 69.35 95.1 71.5 92.95 73.7 92.95 76.75 92.95 79.85 95.1 82 97.3 84.15 100.35 84.15 103.45 84.15 105.6 82 107.75 79.85 107.75 76.75 107.75 73.7 105.6 71.5 103.45 69.35 100.35 69.35 Z"/>
</g>

<g id="Layer0_0_MEMBER_3_FILL">
<path fill="#C47930" stroke="none" d="
M 96.3 48.75
L 96.15 48.75 77.1 51.5
Q 77.6 55.05 80.3 57.4 83.05 59.8 86.7 59.8 90.7 59.8 93.55 56.95 96.4 54.1 96.4 50.1 96.4 49.2 96.3 48.75 Z"/>
</g>

<g id="Layer0_0_MEMBER_4_FILL">
<path fill="#E5AB4C" stroke="none" d="
M 54.15 27.4
Q 53.8 26 52.3 25.05 50.75 24.1 48.9 24.1 46.65 24.1 45 25.35 43.35 26.65 43.35 28.45
L 43.35 28.95 54.15 27.4 Z"/>
</g>

<g id="Layer0_0_MEMBER_5_FILL">
<path fill="#E5AB4C" stroke="none" d="
M 82.85 33.15
Q 84.25 32.1 84.25 30.65 84.25 29.15 82.85 28.15 81.45 27.1 79.4 27.1 77.4 27.1 76 28.15 74.6 29.15 74.6 30.65 74.6 32.1 76 33.15 77.4 34.2 79.4 34.2 81.4 34.2 82.85 33.15 Z"/>
</g>

<g id="Layer0_0_MEMBER_6_FILL">
<path fill="#C47930" stroke="none" d="
M 75.1 82.5
Q 73.2 82.5 71.9 83.85 70.55 85.2 70.55 87.1 70.55 89 71.9 90.3 73.25 91.65 75.1 91.65 77 91.65 78.35 90.3 79.65 89 79.65 87.1 79.65 85.2 78.35 83.85 77 82.5 75.1 82.5 Z"/>
</g>

<g id="Layer0_0_MEMBER_7_FILL">
<path fill="#C47930" stroke="none" d="
M 55.75 62.25
Q 51.1 62.25 47.8 65.55 44.5 68.85 44.5 73.5 44.5 78.15 47.8 81.45 51.1 84.75 55.75 84.75 60.45 84.75 63.7 81.45 67 78.15 67 73.5 67 68.85 63.7 65.55 60.45 62.25 55.75 62.25 Z"/>
</g>

<g id="Layer0_0_MEMBER_8_FILL">
<path fill="#E5AB4C" stroke="none" d="
M 56.25 36
Q 53.3 36 51.15 37.4 49.05 38.8 49.05 40.8 49.05 42.8 51.15 44.25 53.3 45.65 56.25 45.65 59.25 45.65 61.4 44.25 63.5 42.8 63.5 40.8 63.5 38.8 61.4 37.4 59.25 36 56.25 36 Z"/>
</g>

<g id="Layer0_0_MEMBER_9_FILL">
<path fill="#C47930" stroke="none" d="
M 37.25 88.95
Q 34.6 88.95 32.7 90.8 30.85 92.7 30.85 95.35 30.85 98 32.7 99.85 34.6 101.7 37.25 101.7 39.9 101.7 41.75 99.85 43.6 98 43.6 95.35 43.6 92.7 41.75 90.8 39.9 88.95 37.25 88.95 Z"/>
</g>

<g id="Layer0_0_MEMBER_10_FILL">
<path fill="#C47930" stroke="none" d="
M 40.1 56.8
L 31.1 58.05 31.05 58.7
Q 31.05 60.55 32.45 61.85 33.85 63.2 35.8 63.2 37.8 63.2 39.15 61.9 40.55 60.6 40.55 58.7 40.55 57.7 40.15 56.75
L 40.1 56.8 Z"/>
</g>

<g id="Layer0_0_MEMBER_11_FILL">
<path fill="#E5AB4C" stroke="none" d="
M 40.1 56.8
Q 39.55 55.95 38.4 55.45 37.2 54.9 35.8 54.9 33.9 54.9 32.55 55.8 31.2 56.75 31.1 58.05
L 40.1 56.8 Z"/>
</g>

<g id="Layer0_0_MEMBER_12_FILL">
<path fill="#C47930" stroke="none" d="
M 24.4 74.6
Q 23 74.6 21.95 75.6 20.95 76.6 20.95 78 20.95 79.45 21.95 80.45 23 81.45 24.4 81.45 25.8 81.45 26.8 80.45 27.8 79.4 27.8 78 27.8 76.6 26.8 75.6 25.8 74.6 24.4 74.6 Z"/>
</g>
</defs>

<g id="Layer_1">
<g transform="matrix( 0.5625, 0, 0, 0.5625, 0,0) ">
<use xlink:href="#Layer0_0_MEMBER_0_FILL"/>
</g>

<g transform="matrix( 1, 0, 0, 1, 0,0) ">
<use xlink:href="#Layer0_0_MEMBER_1_FILL"/>
</g>

<g transform="matrix( 0.5625, 0, 0, 0.5625, 0,0) ">
<use xlink:href="#Layer0_0_MEMBER_2_FILL"/>
</g>

<g transform="matrix( 0.5625, 0, 0, 0.5625, 0,0) ">
<use xlink:href="#Layer0_0_MEMBER_3_FILL"/>
</g>

<g transform="matrix( 1, 0, 0, 1, 0,0) ">
<use xlink:href="#Layer0_0_MEMBER_4_FILL"/>
</g>

<g transform="matrix( 0.5625, 0, 0, 0.5625, 0,0) ">
<use xlink:href="#Layer0_0_MEMBER_5_FILL"/>
</g>

<g transform="matrix( 0.5625, 0, 0, 0.5625, 0,0) ">
<use xlink:href="#Layer0_0_MEMBER_6_FILL"/>
</g>

<g transform="matrix( 0.5625, 0, 0, 0.5625, 0,0) ">
<use xlink:href="#Layer0_0_MEMBER_7_FILL"/>
</g>

<g transform="matrix( 0.5625, 0, 0, 0.5625, 0,0) ">
<use xlink:href="#Layer0_0_MEMBER_8_FILL"/>
</g>

<g transform="matrix( 0.5625, 0, 0, 0.5625, 0,0) ">
<use xlink:href="#Layer0_0_MEMBER_9_FILL"/>
</g>

<g transform="matrix( 0.5625, 0, 0, 0.5625, 0,0) ">
<use xlink:href="#Layer0_0_MEMBER_10_FILL"/>
</g>

<g transform="matrix( 0.5625, 0, 0, 0.5625, 0,0) ">
<use xlink:href="#Layer0_0_MEMBER_11_FILL"/>
</g>

<g transform="matrix( 0.5625, 0, 0, 0.5625, 0,0) ">
<use xlink:href="#Layer0_0_MEMBER_12_FILL"/>
</g>
</g>
</svg>
