
<svg xmlns="http://www.w3.org/2000/svg" version="1.1" xmlns:xlink="http://www.w3.org/1999/xlink" preserveAspectRatio="none" x="0px" y="0px" width="72px" height="72px" viewBox="0 0 72 72">
<defs>
<g id="Layer0_0_MEMBER_0_MEMBER_0_MEMBER_0_FILL">
<path fill="#2F2F2F" stroke="none" d="
M 117.65 53.65
Q 116.4 53.5 115.4 54.25
L 98.6 67.2
Q 97.65 68 97.45 69.25 97.3 70.5 98.05 71.45 98.95 72.65 100.5 72.65 101.55 72.65 102.35 72
L 119.1 59.1
Q 120.1 58.3 120.25 57.05 120.45 55.8 119.65 54.8 118.9 53.85 117.65 53.65 Z"/>
</g>

<g id="Layer0_0_MEMBER_0_MEMBER_0_MEMBER_1_FILL">
<path fill="#2F2F2F" stroke="none" d="
M 109.5 54
Q 109.3 52.75 108.3 52.05 107.3 51.3 106.05 51.45 104.8 51.65 104.05 52.65 103.3 53.65 103.5 54.95
L 104.9 64.3
Q 105.1 65.45 105.95 66.15 106.8 66.9 107.9 66.9
L 108.35 66.85
Q 109.6 66.65 110.35 65.65 111.1 64.7 110.9 63.4
L 109.5 54 Z"/>
</g>

<g id="Layer0_0_MEMBER_0_MEMBER_1_MEMBER_0_FILL">
<path fill="#2F2F2F" stroke="none" d="
M 26.85 72
Q 28.2 72 29.1 70.95 29.95 70.05 29.9 68.8 29.8 67.55 28.9 66.7
L 12.2 51.8
Q 11.25 50.95 10 51.05 8.75 51.1 7.9 52.05 7.05 53 7.15 54.25 7.2 55.5 8.15 56.3
L 24.85 71.25
Q 25.7 72 26.85 72 Z"/>
</g>

<g id="Layer0_0_MEMBER_0_MEMBER_1_MEMBER_1_FILL">
<path fill="#2F2F2F" stroke="none" d="
M 21.6 65.05
Q 22.4 64.45 22.7 63.45
L 25.2 54.3
Q 25.55 53.1 24.9 52 24.3 50.9 23.1 50.55 21.9 50.2 20.8 50.85 19.7 51.45 19.35 52.7
L 16.85 61.8
Q 16.5 63.05 17.15 64.15 17.75 65.2 18.95 65.55
L 19.75 65.65
Q 20.75 65.65 21.6 65.05 Z"/>
</g>

<g id="Layer0_0_MEMBER_1_FILL">
<path fill="#E0E0E0" stroke="none" d="
M 48.75 37.05
Q 48.75 36.5 49.05 36.05
L 49.1 36
Q 52.35 31.8 52.35 26.55 52.35 19.95 47.45 15.3 42.65 10.7 36.05 10.7 29.3251953125 10.7197265625 24.55 15.3 19.65 19.95 19.65 26.55 19.65 31.8 22.9 36
L 22.95 36.05
Q 23.25 36.5 23.25 37.05 23.2 37.6 22.8 38
L 22.7 38.05 22.35 38.35 22.3 38.4
Q 20.4 39.8 18.75 41.85
L 17.85 43.05
Q 15.1 46.95 14.6 51.4 14.1 55.85 15.95 60 17.9 64.55 22.1 67.45 26.25 70.45 31.7 71.15 33.55 71.4 35.8 71.4 38.45 71.4 40.3 71.15 45.75 70.45 49.9 67.45 54.1 64.55 56.05 60 57.9 55.85 57.4 51.4 56.9 46.95 54.15 43.05
L 53.25 41.85
Q 51.6 39.8 49.7 38.4
L 49.65 38.35 49.3 38.05 49.2 38
Q 48.8 37.6 48.75 37.05 Z"/>
</g>

<g id="Layer0_0_MEMBER_2_MEMBER_0_FILL">
<path fill="#2F2F2F" stroke="none" d="
M 55.85 36.1
Q 55.95 33.75 54.65 32 53.3 30.25 51.3 30.2 49.3 30.15 47.85 31.75 46.4 33.35 46.3 35.75 46.25 38.1 47.55 39.85 48.9 41.6 50.9 41.65 52.85 41.75 54.3 40.1 55.8 38.45 55.85 36.1 Z"/>
</g>

<g id="Layer0_0_MEMBER_2_MEMBER_1_FILL">
<path fill="#2F2F2F" stroke="none" d="
M 71.3 32
Q 69.95 33.75 70.05 36.1 70.15 38.45 71.6 40.1 73.05 41.75 75 41.65 77 41.6 78.35 39.85 79.7 38.1 79.6 35.75 79.55 33.35 78.05 31.75 76.6 30.15 74.6 30.2 72.65 30.25 71.3 32 Z"/>
</g>

<g id="Layer0_0_MEMBER_3_FILL">
<path fill="#2F2F2F" stroke="none" d="
M 72.55 57.3
Q 72.35 56.6 71.95 56.2 71.45 55.7 70.8 55.8 70.5 55.9 69.65 56.3 68.05 57.05 66.8 57.25 65.15 57.45 64 57.4 62.9 57.45 61.2 57.25 59.95 57.05 58.4 56.3 57.55 55.9 57.2 55.8 56.6 55.7 56.1 56.2 55.7 56.6 55.5 57.3 55.3 57.9 55.4 58.45 55.7 59.3 56.75 59.85 56.8 59.9 58.6 60.55 59.5 60.95 60.9 61.15 62.6 61.45 64 61.45 65.45 61.45 67.15 61.15 68.5 60.95 69.4 60.55 71.25 59.9 71.25 59.85 72.35 59.3 72.6 58.45 72.75 57.9 72.55 57.3 Z"/>
</g>

<g id="Layer0_0_MEMBER_4_MEMBER_0_FILL">
<path fill="#2F2F2F" stroke="none" d="
M 116.3 86.25
Q 116.3 88.7 118 90.45 119.8 92.25 122.3 92.25 124.75 92.25 126.5 90.45 128.3 88.7 128.3 86.25 128.3 83.75 126.5 81.95 124.75 80.25 122.3 80.25 119.8 80.25 118 81.95 116.3 83.75 116.3 86.25 Z"/>
</g>

<g id="Layer0_0_MEMBER_4_MEMBER_1_FILL">
<path fill="#2F2F2F" stroke="none" d="
M 116.3 86.25
Q 116.3 88.7 118 90.45 119.8 92.25 122.3 92.25 124.75 92.25 126.5 90.45 128.3 88.7 128.3 86.25 128.3 83.75 126.5 81.95 124.75 80.25 122.3 80.25 119.8 80.25 118 81.95 116.3 83.75 116.3 86.25 Z"/>
</g>

<g id="Layer0_0_MEMBER_5_FILL">
<path fill="#F79329" stroke="none" d="
M 69.65 43.6
Q 66.2 41.65 63.1 41.15 60 40.6 59.65 43.25 59.6 43.4 59.6 43.6 59.6 43.8 59.65 43.95 60 46.6 63.1 46.05 66.2 45.55 69.65 43.6 Z"/>
</g>

<g id="Layer0_0_MEMBER_6_FILL">
<path fill="#2F2F2F" stroke="none" d="
M 48.6 2.4
Q 48.25 1.35 46.75 1.3 41.4 0.7 36.05 0.7 30.65 0.7 25.3 1.3 23.85 1.35 23.45 2.4 23.3 2.85 23.3 3.45
L 23.65 16.15 20.45 15.8
Q 19.3 15.75 19.35 17.25
L 19.45 19.95
Q 19.5 22.05 22.15 22.35 29.1 23.05 36.05 23 42.95 23.05 49.9 22.35 52.6 22.05 52.6 19.95
L 52.7 17.25
Q 52.75 15.75 51.65 15.8
L 48.45 16.15 48.75 3.45
Q 48.75 2.85 48.6 2.4 Z"/>
</g>

<g id="Layer0_0_MEMBER_6_MEMBER_0_FILL">
<path fill="#E53935" stroke="none" d="
M 48.45 16.4
L 48.5 14.55
Q 47.9734375 14.3279296875 47.35 14.4 41.5419921875 15.3494140625 36.05 15.35 30.5099609375 15.34921875 24.75 14.4 24.1455078125 14.32265625 23.6 14.55
L 23.65 16.4
Q 36.05 18.587109375 48.45 16.4 Z"/>
</g>

<g id="Layer0_1_MEMBER_0_MEMBER_0_FILL">
<path fill="#40C0E7" stroke="none" d="
M 121.7 10.75
Q 122.85 9.6 122.85 7.95 122.85 6.35 121.7 5.15 120.55 4 118.9 4 117.3 4 116.15 5.15 115 6.35 115 7.95 115 9.6 116.15 10.75 117.3 11.9 118.9 11.9 120.55 11.9 121.7 10.75 Z"/>
</g>

<g id="Layer0_1_MEMBER_0_MEMBER_1_FILL">
<path fill="#40C0E7" stroke="none" d="
M 101.9 7
Q 100.3 7 99.15 8.15 98 9.35 98 10.95 98 12.6 99.15 13.75 100.3 14.9 101.9 14.9 103.55 14.9 104.7 13.75 105.85 12.6 105.85 10.95 105.85 9.35 104.7 8.15 103.55 7 101.9 7 Z"/>
</g>

<g id="Layer0_1_MEMBER_0_MEMBER_2_FILL">
<path fill="#40C0E7" stroke="none" d="
M 111.9 18.15
Q 110.3 18.15 109.15 19.3 108 20.45 108 22.1 108 23.7 109.15 24.85 110.3 26 111.9 26 113.55 26 114.7 24.85 115.85 23.7 115.85 22.1 115.85 20.45 114.7 19.3 113.55 18.15 111.9 18.15 Z"/>
</g>

<g id="Layer0_1_MEMBER_0_MEMBER_3_FILL">
<path fill="#40C0E7" stroke="none" d="
M 121.7 36.25
Q 122.85 35.1 122.85 33.45 122.85 31.85 121.7 30.7 120.55 29.55 118.9 29.55 117.3 29.55 116.15 30.7 115 31.85 115 33.45 115 35.1 116.15 36.25 117.3 37.4 118.9 37.4 120.55 37.4 121.7 36.25 Z"/>
</g>

<g id="Layer0_1_MEMBER_0_MEMBER_4_FILL">
<path fill="#40C0E7" stroke="none" d="
M 110.05 39.15
Q 108.4 39.15 107.25 40.3 106.1 41.45 106.1 43.1 106.1 44.7 107.25 45.85 108.4 47 110.05 47 111.65 47 112.8 45.85 113.95 44.7 113.95 43.1 113.95 41.45 112.8 40.3 111.65 39.15 110.05 39.15 Z"/>
</g>

<g id="Layer0_1_MEMBER_1_MEMBER_0_FILL">
<path fill="#40C0E7" stroke="none" d="
M 121.7 10.75
Q 122.85 9.6 122.85 7.95 122.85 6.35 121.7 5.15 120.55 4 118.9 4 117.3 4 116.15 5.15 115 6.35 115 7.95 115 9.6 116.15 10.75 117.3 11.9 118.9 11.9 120.55 11.9 121.7 10.75 Z"/>
</g>

<g id="Layer0_1_MEMBER_1_MEMBER_1_FILL">
<path fill="#40C0E7" stroke="none" d="
M 101.9 7
Q 100.3 7 99.15 8.15 98 9.35 98 10.95 98 12.6 99.15 13.75 100.3 14.9 101.9 14.9 103.55 14.9 104.7 13.75 105.85 12.6 105.85 10.95 105.85 9.35 104.7 8.15 103.55 7 101.9 7 Z"/>
</g>

<g id="Layer0_1_MEMBER_1_MEMBER_2_FILL">
<path fill="#40C0E7" stroke="none" d="
M 111.9 18.15
Q 110.3 18.15 109.15 19.3 108 20.45 108 22.1 108 23.7 109.15 24.85 110.3 26 111.9 26 113.55 26 114.7 24.85 115.85 23.7 115.85 22.1 115.85 20.45 114.7 19.3 113.55 18.15 111.9 18.15 Z"/>
</g>

<g id="Layer0_1_MEMBER_1_MEMBER_3_FILL">
<path fill="#40C0E7" stroke="none" d="
M 121.7 36.25
Q 122.85 35.1 122.85 33.45 122.85 31.85 121.7 30.7 120.55 29.55 118.9 29.55 117.3 29.55 116.15 30.7 115 31.85 115 33.45 115 35.1 116.15 36.25 117.3 37.4 118.9 37.4 120.55 37.4 121.7 36.25 Z"/>
</g>

<g id="Layer0_1_MEMBER_1_MEMBER_4_FILL">
<path fill="#40C0E7" stroke="none" d="
M 110.05 39.15
Q 108.4 39.15 107.25 40.3 106.1 41.45 106.1 43.1 106.1 44.7 107.25 45.85 108.4 47 110.05 47 111.65 47 112.8 45.85 113.95 44.7 113.95 43.1 113.95 41.45 112.8 40.3 111.65 39.15 110.05 39.15 Z"/>
</g>
</defs>

<g id="Layer_1">
<g transform="matrix( 0.5068206787109375, 0, 0, 0.5068206787109375, 3.75,8) ">
<use xlink:href="#Layer0_0_MEMBER_0_MEMBER_0_MEMBER_0_FILL"/>
</g>

<g transform="matrix( 0.5068206787109375, 0, 0, 0.5068206787109375, 3.75,8) ">
<use xlink:href="#Layer0_0_MEMBER_0_MEMBER_0_MEMBER_1_FILL"/>
</g>

<g transform="matrix( 0.5068206787109375, 0, 0, 0.5068206787109375, 3.75,8.35) ">
<use xlink:href="#Layer0_0_MEMBER_0_MEMBER_1_MEMBER_0_FILL"/>
</g>

<g transform="matrix( 0.5068206787109375, 0, 0, 0.5068206787109375, 3.75,8.35) ">
<use xlink:href="#Layer0_0_MEMBER_0_MEMBER_1_MEMBER_1_FILL"/>
</g>

<g transform="matrix( 1, 0, 0, 1, 0,0) ">
<use xlink:href="#Layer0_0_MEMBER_1_FILL"/>
</g>

<g transform="matrix( 0.5068359375, 0, 0, 0.5068359375, 4.1,8.55) ">
<use xlink:href="#Layer0_0_MEMBER_2_MEMBER_0_FILL"/>
</g>

<g transform="matrix( 0.5068359375, 0, 0, 0.5068359375, 4.1,8.55) ">
<use xlink:href="#Layer0_0_MEMBER_2_MEMBER_1_FILL"/>
</g>

<g transform="matrix( 0.5625, 0, 0, 0.5625, 0.05,0) ">
<use xlink:href="#Layer0_0_MEMBER_3_FILL"/>
</g>

<g transform="matrix( 0.5068359375, 0, 0, 0.5068359375, -25.85,2.25) ">
<use xlink:href="#Layer0_0_MEMBER_4_MEMBER_0_FILL"/>
</g>

<g transform="matrix( 0.5068359375, 0, 0, 0.5068359375, -25.85,14) ">
<use xlink:href="#Layer0_0_MEMBER_4_MEMBER_1_FILL"/>
</g>

<g transform="matrix( 0.5068359375, 0, 0, 0.5068359375, 3.6,7) ">
<use xlink:href="#Layer0_0_MEMBER_5_FILL"/>
</g>

<g transform="matrix( 1, 0, 0, 1, 0,0) ">
<use xlink:href="#Layer0_0_MEMBER_6_FILL"/>
</g>

<g transform="matrix( 1, 0, 0, 1, 0,-0.25) ">
<use xlink:href="#Layer0_0_MEMBER_6_MEMBER_0_FILL"/>
</g>

<g transform="matrix( -0.5625, 0, 0, 0.5625, 71.7,0) ">
<use xlink:href="#Layer0_1_MEMBER_0_MEMBER_0_FILL"/>
</g>

<g transform="matrix( -0.5625, 0, 0, 0.5625, 71.7,0) ">
<use xlink:href="#Layer0_1_MEMBER_0_MEMBER_1_FILL"/>
</g>

<g transform="matrix( -0.5625, 0, 0, 0.5625, 71.7,0) ">
<use xlink:href="#Layer0_1_MEMBER_0_MEMBER_2_FILL"/>
</g>

<g transform="matrix( -0.5625, 0, 0, 0.5625, 71.7,0) ">
<use xlink:href="#Layer0_1_MEMBER_0_MEMBER_3_FILL"/>
</g>

<g transform="matrix( -0.5625, 0, 0, 0.5625, 71.7,0) ">
<use xlink:href="#Layer0_1_MEMBER_0_MEMBER_4_FILL"/>
</g>

<g transform="matrix( 0.5625, 0, 0, 0.5625, 0.35,0) ">
<use xlink:href="#Layer0_1_MEMBER_1_MEMBER_0_FILL"/>
</g>

<g transform="matrix( 0.5625, 0, 0, 0.5625, 0.35,0) ">
<use xlink:href="#Layer0_1_MEMBER_1_MEMBER_1_FILL"/>
</g>

<g transform="matrix( 0.5625, 0, 0, 0.5625, 0.35,0) ">
<use xlink:href="#Layer0_1_MEMBER_1_MEMBER_2_FILL"/>
</g>

<g transform="matrix( 0.5625, 0, 0, 0.5625, 0.35,0) ">
<use xlink:href="#Layer0_1_MEMBER_1_MEMBER_3_FILL"/>
</g>

<g transform="matrix( 0.5625, 0, 0, 0.5625, 0.35,0) ">
<use xlink:href="#Layer0_1_MEMBER_1_MEMBER_4_FILL"/>
</g>
</g>
</svg>
