
<svg xmlns="http://www.w3.org/2000/svg" version="1.1" xmlns:xlink="http://www.w3.org/1999/xlink" preserveAspectRatio="none" x="0px" y="0px" width="72px" height="72px" viewBox="0 0 72 72">
<defs>
<g id="Layer0_0_FILL">
<path fill="#855C52" stroke="none" d="
M 95 88.9
Q 85.2 79.45 81.1 75.7 77.35 72.25 67.85 65.65 65.6 64.05 64.05 62.45
L 37.6 36.2 28.8 44.95 55.1 71.4
Q 57.1 73.5 58.3 75.25 64.6 84.3 68.35 88.45 71.95 92.4 81.5 102.35 91.45 112.65 94.9 115.95
L 97.7 118.6
Q 99 119.8 100.75 119.8 102.5 119.8 103.7 118.6
L 111.25 111.1
Q 112.45 109.85 112.45 108.1 112.45 106.35 111.2 105.05
L 108.6 102.3
Q 105.35 98.95 95 88.9 Z"/>
</g>

<g id="Layer0_1_FILL">
<path fill="#855C52" stroke="none" d="
M 18.4 19.35
Q 15.85 19.35 14 21.2 12.2 23 12.2 25.6 12.2 28.15 14 29.95
L 18.05 34.05
Q 19.9 35.9 22.45 35.9 25.05 35.9 26.85 34.05
L 26.9 34.05
Q 28.75 32.2 28.7 29.65 28.7 27.05 26.85 25.25
L 22.8 21.2
Q 20.95 19.35 18.4 19.35 Z"/>
</g>

<g id="Layer0_2_FILL">
<path fill="#B0BEC5" stroke="none" d="
M 53.1 31.55
Q 55.15 29.5 55.15 26.55 55.15 23.6 53.1 21.55
L 42.55 11
Q 40.5 8.95 37.55 8.95 34.6 8.95 32.55 11
L 3.65 39.9
Q 1.6 42 1.6 44.95 1.6 47.85 3.65 49.95
L 14.2 60.45
Q 16.25 62.55 19.2 62.55 22.15 62.55 24.2 60.45
L 53.1 31.55 Z"/>
</g>

<g id="Layer0_3_FILL">
<path fill="#855C52" stroke="none" d="
M 99.65 44.5
L 90.9 35.75 64.45 62
Q 62.85 63.7 60.6 65.2 50.85 72.1 47.4 75.3 43.45 78.9 33.5 88.45 23.2 98.4 19.9 101.85
L 17.25 104.65
Q 16.05 105.95 16.05 107.7 16.05 109.45 17.25 110.65
L 24.75 118.15
Q 26 119.4 27.75 119.35 29.5 119.35 30.8 118.15
L 33.55 115.5
Q 36.95 112.25 46.95 101.9 56.4 92.1 60.15 88 63.75 84.05 70.2 74.8 71.55 72.8 73.4 70.95
L 99.65 44.5 Z"/>
</g>

<g id="Layer0_4_MEMBER_0_FILL">
<path fill="#2F2F2F" stroke="none" d="
M 75.75 71.4
L 74.15 70.2 73.4 71
Q 71.8 72.55 70.2 74.8 67.1 79.3 64.05 83.25 64.280859375 83.567578125 65.15 84.65
L 75.75 71.4 Z"/>
</g>

<g id="Layer0_5_FILL">
<path fill="#855C52" stroke="none" d="
M 114.15 20.95
Q 112.35 19.1 109.8 19.1 107.2 19.1 105.4 20.95
L 101.3 25
Q 99.45 26.8 99.45 29.4 99.45 31.95 101.3 33.8 103.15 35.65 105.7 35.65 108.3 35.65 110.1 33.8
L 114.15 29.7
Q 116 27.9 116 25.35 116 22.75 114.15 20.95 Z"/>
</g>

<g id="Layer0_6_FILL">
<path fill="#B0BEC5" stroke="none" d="
M 126.1 46.05
Q 126.65 44.1 126.1 42.15 125.6 40.25 124.15 38.8
L 94.9 9.5
Q 93.65 8.25 91.8 8.25 90 8.25 88.75 9.5
L 74.35 23.9
Q 73.1 25.2 73.1 27 73.1 28.8 74.35 30.05
L 114.8 70.55
Q 116.05 71.75 117.7 71.35 119.35 70.9 119.8 69.25
L 126.1 46.05 Z"/>
</g>

<g id="Layer0_7_MEMBER_0_FILL">
<path fill="#2F2F2F" stroke="none" d="
M 64.2 62.45
L 62.4 60.75 52.55 68.9 53.85 70.2
Q 53.9318359375 70.10390625 54.5 69.75 55.1095703125 69.3853515625 55.8 68.8 56.49140625 68.272265625 56.75 68
L 64.2 62.45 Z"/>
</g>
</defs>

<g id="Layer_1">
<g transform="matrix( 0.5625, 0, 0, 0.5625, 0,0) ">
<use xlink:href="#Layer0_0_FILL"/>
</g>

<g transform="matrix( 0.5625, 0, 0, 0.5625, 0,0) ">
<use xlink:href="#Layer0_1_FILL"/>
</g>

<g transform="matrix( 0.5625, 0, 0, 0.5625, 0,0) ">
<use xlink:href="#Layer0_2_FILL"/>
</g>

<g transform="matrix( 0.5625, 0, 0, 0.5625, 0,0) ">
<use xlink:href="#Layer0_3_FILL"/>
</g>

<g transform="matrix( 0.5625, 0, 0, 0.5625, 0,0) ">
<use xlink:href="#Layer0_4_MEMBER_0_FILL"/>
</g>

<g transform="matrix( 0.5625, 0, 0, 0.5625, 0,0) ">
<use xlink:href="#Layer0_5_FILL"/>
</g>

<g transform="matrix( 0.5625, 0, 0, 0.5625, 0,0) ">
<use xlink:href="#Layer0_6_FILL"/>
</g>

<g transform="matrix( 0.5625, 0, 0, 0.5625, 0,0) ">
<use xlink:href="#Layer0_7_MEMBER_0_FILL"/>
</g>
</g>
</svg>
