
<svg xmlns="http://www.w3.org/2000/svg" version="1.1" xmlns:xlink="http://www.w3.org/1999/xlink" preserveAspectRatio="none" x="0px" y="0px" width="72px" height="72px" viewBox="0 0 72 72">
<defs>
<g id="Layer0_0_MEMBER_0_FILL">
<path fill="#FAC036" stroke="none" d="
M 97.85 9.6
Q 97.35 3.95 93.15 2.6 87.4 0.75 83.55 5 82.4 6.3 81.55 9.2 81.05 11.05 80.05 15.9 79.6 18.6 79.1 20.6
L 77.35 29.05
Q 73.9 45.55 73.15 48.05
L 72.9 48.85
Q 72.05 51.65 71.3 52.85 70.25 54.5 68.55 54.8 66.85 54.65 65.65 53.2 64.8 52.1 63.65 49.45
L 63.3 48.7
Q 62.75 47.45 56.75 30.3
L 52.45 17.65
Q 50.8 12.8 50.15 11.2 48.95 8.35 47.65 7.25 43.3 3.5 37.85 6.05 33.85 7.95 34.05 13.6 34.15 16.8 36 22.8
L 36.4 24.25
Q 38.25 30.45 42.35 42.25 46.15 53.15 46.95 54.9 47.9 56.9 50 63.35
L 51.95 68.4 52.05 68.55 50.7 69.3 47.3 60.3
Q 45.9 56.6 42.7 55.5 39.9 54.5 36.6 55.75 33.5 56.9 32.6 60.35 31.85 63.2 32.8 66 33.6 68.4 37.6 76.4
L 35.85 77.35 33.9 73.45
Q 30.55 67.2 24.3 69.8 21.55 71 20.95 74.7 20.45 77.75 21.5 80.35 21.85 81.35 23.25 84.15
L 25.3 91.9
Q 27.65 100.6 29.2 105.3
L 29.45 106
Q 29.95 107.6 30.45 108.8 31.5 111.45 31.6 111.65 35.05 118.4 41.6 122.2 48 125.9 55.7 125.9 56 125.9 60.3 126 65.35 125.95 70.05 125 84.9 122 92.25 111.45 93.9 109.1 94.8 106.1 96.1 102.1 96.45 96.1 96.85 89.35 95.75 84.8 93.85 77.15 85.55 72.9
L 86.85 66.25 86.85 66.2
Q 87.55 64 87.7 63.25
L 88.15 60.95
Q 89.5 54.25 90.15 52.15 90.75 50.3 93.15 39.1 95.8 26.85 96.8 20.45
L 97.05 18.95
Q 98.15 12.8 97.85 9.6 Z"/>
</g>

<g id="Layer0_0_MEMBER_1_FILL">
<path fill="#E48C15" stroke="none" d="
M 48.1 41
L 48.55 39.1
Q 44.8 37.45 40.6 36.6 39.05 36.3 38.25 36.15 36.8 35.85 35.9 35.85 32.05 35.85 29.6 37.3
L 26.75 31.65
Q 26.75 32.25 26.5 32.45 26.15 32.65 25.75 32.4
L 25.75 32.45
Q 26.3 33.15 26.6 33.95 27.2 35.45 28.3 38.4
L 27.95 38.85 27.15 40.8
Q 26.7 43.1 28.2 45.1
L 28.85 45.75
Q 29.85 46.5 31.45 46.95 31.9 48.65 31 49.9 30.55 50.55 30.05 50.8 28.15 51.8 26.2 50.6
L 24.6 49.25
Q 24.05 48.7 22.05 44.85
L 19.5 39.55
Q 19.5 40.15 19.2 40.35 18.85 40.6 18.45 40.3
L 18.4 40.35
Q 18.7798828125 40.7798828125 19.45 42.05 20.1201171875 43.3701171875 21.9 47.2
L 22.25 48.1
Q 23.15 50.05 23.35 51.25 23.45 51.85 23.35 52.05 23.05 53.45 21.6 54.1
L 20.2 54.5
Q 18.65 54.65 17.15 53.35
L 15.95 52 13.1 47.3 14.2 51.5
Q 15 53.1 16.1 54.2 16.65 54.8 17.05 55 19.05 56.35 21.3 55.9 22.45 55.65 23.15 55.15 23.85 54.65 24.25 53.9
L 24.55 53.25
Q 24.8 52.4 24.6 51.35 26.45 52.95 28.7 52.9 29.85 52.85 30.6 52.5 32.3 51.6 32.9 49.85 33.25 48.65 33.1 47.3
L 34.3 47.45
Q 37.9 47.75 39.2 48.15
L 41.05 48.95
Q 42.95 50.1 43.15 51.6
L 43.1 52.3
Q 42.95 53.2 42.5 54.05
L 42.45 54.6
Q 42.45 55.2 42.9 55.3 43.15 55.4 43.7 55.25 44.25 55.05 44.6 54.75 45.2 54.2 45.5 52.95 45.6 52.5 45.55 51.8 45.4 50.35 44.25 49.1 43.95 48.75 43.4 48.3 42.35 47.4 41.2 47 39.45 46.4 38.8 46.25 37.55 45.95 35.4 45.75 34.55 45.65 33.45 45.4 31.2 44.95 29.85 44 29.45 43.7 29.15 43.05 28.65 41.8 29.45 40.4 29.55 40.2 29.85 39.9 30.45 39.25 31.25 38.8 33.95 37.35 38.35 37.95
L 41.7 38.75
Q 45.55 39.7 48.1 41 Z"/>
</g>
</defs>

<g transform="matrix( 0.5624847412109375, 0, 0, 0.5624847412109375, 0,0) ">
<use xlink:href="#Layer0_0_MEMBER_0_FILL"/>
</g>

<g transform="matrix( 1, 0, 0, 1, 0,0) ">
<use xlink:href="#Layer0_0_MEMBER_1_FILL"/>
</g>
</svg>
