
<svg xmlns="http://www.w3.org/2000/svg" version="1.1" xmlns:xlink="http://www.w3.org/1999/xlink" preserveAspectRatio="none" x="0px" y="0px" width="72px" height="72px" viewBox="0 0 72 72">
<defs>
<g id="Layer0_0_MEMBER_0_FILL">
<path fill="#F79329" stroke="none" d="
M 46.7 9.55
L 42.75 0.1 38.8 9.55
Q 36.75 14.35 32.05 20.65 22.75 33.15 9.4 41.15
L 3.25 44.8 9.4 48.5
Q 22.7 56.5 32.05 69 36.75 75.3 38.8 80.1
L 42.7 89.55 46.7 80.1
Q 48.75 75.3 53.4 69 62.7 56.5 76.05 48.5
L 82.2 44.8 76.05 41.15
Q 62.7 33.15 53.4 20.65 50.5 16.7 48.3 12.8 46.7 9.6 46.7 9.55
M 42.75 20.2
Q 51.85 34.75 66.1 44.8 51.8 54.9 42.75 69.45 33.75 55 19.4 44.8 33.7 34.7 42.75 20.2 Z"/>
</g>

<g id="Layer0_0_MEMBER_1_FILL">
<path fill="#F79329" stroke="none" d="
M 117.9 67.3
Q 109.55 63.2 103.7 56.75 99.55 51.15 99.5 51.1
L 96.2 44.5 92.85 51.05
Q 91.55 53.5 88.65 56.75 82.8 63.15 74.45 67.3
L 67.7 70.65 74.45 74
Q 82.75 78.1 88.6 84.5 91.55 87.75 92.85 90.2
L 96.15 96.75 99.5 90.2
Q 100.8 87.8 103.75 84.55 109.6 78.15 117.9 74
L 124.7 70.65 117.9 67.3
M 83.65 70.65
Q 91.05 65.85 96.15 59.4 101.2 65.8 108.7 70.65 101.45 75.3 96.15 81.85 91 75.35 83.65 70.65 Z"/>
</g>

<g id="Layer0_0_MEMBER_2_FILL">
<path fill="#F79329" stroke="none" d="
M 56.9 86.5
Q 52.25 92.9 45.7 96.95
L 40.55 100.1 45.7 103.3
Q 52.25 107.35 56.85 113.7 59.2 116.9 60.25 119.4
L 63.65 127.95 67.15 119.4
Q 68.2 116.95 70.5 113.75 75.1 107.35 81.7 103.3
L 86.85 100.1 81.7 96.95
Q 75.1 92.9 70.5 86.5 67.2 80.9 67.15 80.85
L 63.75 72.3 60.25 80.85
Q 60.25 80.9 56.9 86.5
M 73.25 100.1
Q 67.55 104.65 63.7 110.45 59.7 104.55 54.1 100.1 59.55 95.85 63.7 89.8 67.7 95.75 73.25 100.1 Z"/>
</g>

<g id="Layer0_0_MEMBER_3_FILL">
<path fill="#FCC21B" stroke="none" d="
M 44.5 14.8
Q 44.1587890625 14.9291015625 43.95 15.25 38.0830078125 25.4736328125 28.75 32.6 28.4974609375 32.795703125 28.4 33.1 28.3041015625 33.4 28.4 33.7 28.4978515625 34.0044921875 28.75 34.2 38.132421875 41.3755859375 43.95 51.55 44.1572265625 51.8697265625 44.5 52 44.8505859375 52.1251953125 45.2 52 45.541015625 51.8708984375 45.7 51.55 51.61640625 41.326171875 60.9 34.2 61.153125 34.002734375 61.25 33.7 61.3455078125 33.40078125 61.25 33.1 61.1525390625 32.795703125 60.9 32.6 51.616796875 25.5224609375 45.7 15.25 45.5427734375 14.930078125 45.2 14.8 44.84921875 14.674609375 44.5 14.8 Z"/>
</g>

<g id="Layer0_0_MEMBER_4_FILL">
<path fill="#FCC21B" stroke="none" d="
M 109.65 70.3
Q 109.537890625 69.99296875 109.25 69.8 101.8869140625 65.046484375 96.9 58.75 96.7376953125 58.5369140625 96.45 58.45 96.15 58.3580078125 95.85 58.45 95.562109375 58.537109375 95.35 58.75 90.3646484375 65.0958984375 83.1 69.8 82.8109375 69.994921875 82.7 70.3 82.5865234375 70.6486328125 82.7 70.95 82.812109375 71.3080078125 83.1 71.5 90.315234375 76.10546875 95.35 82.45 95.5607421875 82.7107421875 95.85 82.8 96.150390625 82.8912109375 96.45 82.8 96.73671875 82.7123046875 96.9 82.45 102.1310546875 76.0556640625 109.25 71.5 109.5375 71.308203125 109.65 70.95 109.7640625 70.6494140625 109.65 70.3 Z"/>
</g>

<g id="Layer0_0_MEMBER_5_FILL">
<path fill="#FCC21B" stroke="none" d="
M 63.35 88.85
Q 63.06171875 88.9517578125 62.85 89.2 58.8103515625 95.1423828125 53.45 99.3 53.2376953125 99.4970703125 53.15 99.8 53.0568359375 100.099609375 53.15 100.4 53.2373046875 100.6896484375 53.45 100.85 58.9578125 105.228125 62.85 111 63.060546875 111.2859375 63.35 111.4 63.7005859375 111.508984375 64 111.4 64.33984375 111.2857421875 64.5 111 68.295703125 105.3263671875 73.85 100.85 74.1130859375 100.6875 74.2 100.4 74.2919921875 100.099609375 74.2 99.8 74.1126953125 99.5119140625 73.85 99.3 68.4423828125 95.0693359375 64.5 89.25 64.338671875 88.9646484375 64 88.85 63.700390625 88.7423828125 63.35 88.85 Z"/>
</g>
</defs>

<g id="Layer_1">
<g transform="matrix( 0.662017822265625, 0, 0, 0.716796875, 16.5,1.25) ">
<use xlink:href="#Layer0_0_MEMBER_0_FILL"/>
</g>

<g transform="matrix( 0.4906463623046875, 0, 0, 0.5625, -26.45,16.35) ">
<use xlink:href="#Layer0_0_MEMBER_1_FILL"/>
</g>

<g transform="matrix( 0.5625, 0, 0, 0.5625, -21.65,-37.5) ">
<use xlink:href="#Layer0_0_MEMBER_2_FILL"/>
</g>

<g transform="matrix( 1, 0, 0, 1, 0,0) ">
<use xlink:href="#Layer0_0_MEMBER_3_FILL"/>
</g>

<g transform="matrix( 0.4906463623046875, 0, 0, 0.5625, -26.45,16.35) ">
<use xlink:href="#Layer0_0_MEMBER_4_FILL"/>
</g>

<g transform="matrix( 0.5625, 0, 0, 0.5625, -21.65,-37.5) ">
<use xlink:href="#Layer0_0_MEMBER_5_FILL"/>
</g>
</g>
</svg>
