
<svg xmlns="http://www.w3.org/2000/svg" version="1.1" xmlns:xlink="http://www.w3.org/1999/xlink" preserveAspectRatio="none" x="0px" y="0px" width="72px" height="72px" viewBox="0 0 72 72">
<defs>
<g id="Layer0_0_FILL">
<path fill="#DB4437" stroke="none" d="
M 71.5 36
Q 71.5 21.3 61.1 10.9 50.7 0.5 36 0.5 21.3 0.5 10.9 10.9 0.5 21.3 0.5 36 0.5 50.7 10.9 61.1 21.3 71.5 36 71.5 50.7 71.5 61.1 61.1 71.5 50.7 71.5 36
M 53.75 18.25
Q 61.1 25.6 61.1 36 61.1 46.4 53.75 53.8 46.4 61.15 36 61.15 25.6 61.15 18.25 53.8 10.85 46.4 10.85 36 10.85 25.6 18.25 18.25 25.6 10.9 36 10.9 46.4 10.9 53.75 18.25 Z"/>
</g>
</defs>

<g id="Layer_1">
<g transform="matrix( 0.9936676025390625, 0, 0, 0.9936676025390625, 0.25,0.25) ">
<use xlink:href="#Layer0_0_FILL"/>
</g>
</g>
</svg>
