
<svg xmlns="http://www.w3.org/2000/svg" version="1.1" xmlns:xlink="http://www.w3.org/1999/xlink" preserveAspectRatio="none" x="0px" y="0px" width="72px" height="72px" viewBox="0 0 72 72">
<defs>
<g id="Layer2_0_FILL">
<path fill="#ADADAD" stroke="none" d="
M 70.9 35.7
Q 70.9 35.55 70.9 35.35 70.45 33.1 69.35 31.05
L 69.35 31
Q 69.15 30.65 68.95 30.3 68.9 30.2 68.85 30.15 68.3 29.4 67.85 28.7
L 67.8 28.7
Q 56.25 11.75 37.6 11.2
L 34.4 11.2
Q 15.75 11.75 4.2 28.7
L 4.25 28.65
Q 3.633984375 29.408203125 3.2 30.2 2.884765625 30.584375 2.7 31
L 2.65 31.05
Q 1.55 33.1 1.15 35.35 1.1 35.55 1.1 35.7 1.1 35.85 1.1 36 1.1 36.15 1.1 36.3 1.1 36.45 1.15 36.65 1.55 38.9 2.65 40.95
L 2.7 41
Q 2.9 41.4 3.15 41.8 3.65 42.55 4.25 43.4
L 4.2 43.35
Q 15.75 60.25 34.4 60.8
L 37.6 60.8
Q 56.25 60.25 67.8 43.35
L 67.85 43.3
Q 68.3 42.6 68.85 41.9 68.9 41.8 68.95 41.7 69.15 41.35 69.35 41
L 69.35 40.95
Q 70.45 38.9 70.9 36.65 70.9 36.45 70.9 36.3 70.9 36.15 70.9 36 70.9 35.85 70.9 35.7
M 67.2 31.3
Q 67.4 31.65 67.6 32 68.55 33.75 68.9 35.7 68.9 35.85 68.9 36 68.9 36.15 68.9 36.3 68.55 38.25 67.6 40 67.4 40.35 67.2 40.7 66.65 41.45 66.15 42.2 55.2 58.25 37.55 58.8
L 34.45 58.8
Q 16.8 58.25 5.85 42.2 5.3 41.45 4.85 40.7 4.6 40.35 4.4 40 3.45 38.25 3.1 36.3 3.1 36.15 3.1 36 3.1 35.85 3.1 35.7 3.45 33.75 4.4 32 4.6 31.65 4.85 31.3 5.3 30.55 5.85 29.8 16.8 13.75 34.45 13.2
L 37.55 13.2
Q 55.2 13.75 66.15 29.8 66.65 30.55 67.2 31.3 Z"/>
</g>

<g id="Layer2_1_FILL">
<path fill="#FFFFFF" stroke="none" d="
M 66.15 42.2
Q 66.65 41.45 67.2 40.7 67.4 40.35 67.6 40 68.55 38.25 68.9 36.3 68.9 36.15 68.9 36 68.9 35.85 68.9 35.7 68.55 33.75 67.6 32 67.4 31.65 67.2 31.3 66.65 30.55 66.15 29.8 55.2 13.75 37.55 13.2
L 34.45 13.2
Q 16.8 13.75 5.85 29.8 5.3 30.55 4.85 31.3 4.6 31.65 4.4 32 3.45 33.75 3.1 35.7 3.1 35.85 3.1 36 3.1 36.15 3.1 36.3 3.45 38.25 4.4 40 4.6 40.35 4.85 40.7 5.3 41.45 5.85 42.2 16.8 58.25 34.45 58.8
L 37.55 58.8
Q 55.2 58.25 66.15 42.2 Z"/>
</g>

<g id="Layer1_0_FILL">
<path fill="#F08E46" stroke="none" d="
M 46.85 46.85
Q 51.3 42.35 51.3 36.05 51.3 29.7 46.85 25.2 42.35 20.75 36 20.75 29.7 20.75 25.2 25.2 20.7 29.7 20.7 36.05 20.7 42.35 25.2 46.85 29.7 51.35 36 51.35 42.35 51.35 46.85 46.85 Z"/>
</g>

<g id="Layer1_1_FILL">
<path fill="#2F2F2F" stroke="none" d="
M 48.85 36.05
Q 48.85 30.9 45.1 26.95 41.25 23.15 35.8 23.15 30.45 23.15 26.6 26.95 22.95 30.8 22.95 36.05 22.95 41.7 26.6 45.15 30.35 49.3 35.8 49.3 41.35 49.3 45.1 45.15 48.85 41.6 48.85 36.05
M 33.6 27.9
Q 34.8 29.4 34.8 30.9 34.8 32.95 33.6 34.25 32.35 35.45 30.45 35.45 28.75 35.45 27.2 34.25 26.1 32.85 26.1 30.9 26.1 29.5 27.2 27.9 28.75 26.65 30.45 26.65 32.35 26.65 33.6 27.9 Z"/>

<path fill="#FFFFFF" stroke="none" d="
M 34.8 30.9
Q 34.8 29.4 33.6 27.9 32.35 26.65 30.45 26.65 28.75 26.65 27.2 27.9 26.1 29.5 26.1 30.9 26.1 32.85 27.2 34.25 28.75 35.45 30.45 35.45 32.35 35.45 33.6 34.25 34.8 32.95 34.8 30.9 Z"/>
</g>
</defs>

<g id="Layer_1">
<g transform="matrix( 1, 0, 0, 1, 0,0) ">
<use xlink:href="#Layer2_0_FILL"/>
</g>

<g transform="matrix( 1, 0, 0, 1, 0,0) ">
<use xlink:href="#Layer2_1_FILL"/>
</g>
</g>

<g transform="matrix( 1.068634033203125, 0, 0, 1.068634033203125, -2.45,-2.45) ">
<use xlink:href="#Layer1_0_FILL"/>
</g>

<g transform="matrix( 1, 0, 0, 1, 0,0) ">
<use xlink:href="#Layer1_1_FILL"/>
</g>
</svg>
