
<svg xmlns="http://www.w3.org/2000/svg" version="1.1" xmlns:xlink="http://www.w3.org/1999/xlink" preserveAspectRatio="none" x="0px" y="0px" width="72px" height="72px" viewBox="0 0 72 72">
<defs>
<g id="Layer0_0_MEMBER_0_FILL">
<path fill="#E53935" stroke="none" d="
M 113.95 24.4
Q 107.5 19.65 95.85 15.65 83.2 11.35 71.85 10.7 58.65 10 51.3 14.75 48.6 16.5 44.65 22.95 40.7 29.35 40.35 29.6 40 29.85 32.55 31 25.1 32.2 22.45 34 15.25 38.9 10.8 51.4 7 62.1 6.1 75.45 5.3 87.75 7.25 95.5 9.25 103.55 13 100.95 26.85 91.2 29.9 86.85 31.55 84.55 33.35 80.15 35.75 74 37.7 69.3 38.7 67 43.2 63.7 48.4 59.8 53.45 58.8 55.9 58.35 58.4 56.7 60.9 55 62.25 52.95 65.1 48.65 70.7 45.3 75.55 42.45 78 42.45 83.1 42.45 89.75 42.6 94.45 42.65 97.25 42 102.4 40.85 116.75 31.8 120.6 29.4 113.95 24.4 Z"/>
</g>

<g id="Layer0_0_MEMBER_1_FILL">
<path fill="#E53935" stroke="none" d="
M 114.9 45
Q 105 44.15 98.65 45.35 91 46.75 89 51.05 87.3 56.7 85.1 60.25 81.2 66.5 70.05 74.55 58.35 81.75 51.1 82.9 48.7 83.3 45.8 83.15 41.9 82.95 41.1 83 36.4 83.2 32.15 89.7 28.55 95.15 25.55 104.6 23.65 110.6 30 114.05 35.9 117.3 46.85 117.4 57.85 117.55 69.35 114.55 81.8 111.3 90.65 105.4 99.5 99.5 107.3 89.25 114.5 79.75 118.55 69.6 122.65 59.45 121.95 52.75 121.2 45.55 114.9 45 Z"/>
</g>
</defs>

<g id="Layer_1">
<g transform="matrix( 0.5625, 0, 0, 0.5625, 0,0) ">
<use xlink:href="#Layer0_0_MEMBER_0_FILL"/>
</g>

<g transform="matrix( 0.5625, 0, 0, 0.5625, 0,0) ">
<use xlink:href="#Layer0_0_MEMBER_1_FILL"/>
</g>
</g>
</svg>
