
<svg xmlns="http://www.w3.org/2000/svg" version="1.1" xmlns:xlink="http://www.w3.org/1999/xlink" preserveAspectRatio="none" x="0px" y="0px" width="72px" height="72px" viewBox="0 0 72 72">
<defs>
<g id="Layer1_0_MEMBER_0_MEMBER_1_FILL">
<path fill="#B0BEC5" stroke="none" d="
M 64.05 8.4
Q 63.1 7.45 61.8 7.45
L 10.25 7.45
Q 8.9 7.45 8 8.4 7.05 9.35 7.05 10.7
L 7.05 44.9
Q 7.05 46.25 8 47.2 8.9 48.15 10.25 48.15
L 61.8 48.15
Q 63.1 48.15 64.05 47.2 65 46.25 65 44.9
L 65 10.7
Q 65 9.35 64.05 8.4 Z"/>
</g>

<g id="Layer1_0_MEMBER_0_MEMBER_2_MEMBER_0_MEMBER_0_FILL">
<path fill="#78909C" stroke="none" d="
M 60.8 14.55
Q 60.8 13.55 60.1 12.85 59.35 12.1 58.35 12.1
L 13.7 12.1
Q 12.7 12.1 12 12.85 11.25 13.55 11.25 14.55
L 11.25 37.4
Q 11.25 38.4 12 39.15 12.7 39.85 13.7 39.85
L 58.35 39.85
Q 59.35 39.85 60.1 39.15 60.8 38.4 60.8 37.4
L 60.8 14.55 Z"/>
</g>

<g id="An_1F4BB_SVG_Layer_1__Clip_Group__0_Layer1_0_FILL">
<path fill="#FFFFFF" stroke="none" d="
M 7.1 2.45
Q 5.45 2.5 4.25 3.75 2.95 5 2.95 6.8
L 2.95 47.4
Q 2.95 49.2 4.25 50.5 5.45 51.7 7.1 51.75 7.2 51.75 7.3 51.75
L 29.15 51.75 44.7 2.45 7.1 2.45 Z"/>
</g>

<g id="Layer1_0_MEMBER_0_MEMBER_3_MEMBER_0_FILL">
<path fill="#90A4AE" stroke="none" d="
M 64.5 47.25
Q 64 46.85 63.4 46.85
L 8.6 46.85
Q 8 46.85 7.5 47.25 7 47.65 6.9 48.25
L 3.75 64.15
Q 3.65 64.75 4 65.15 4.3 65.55 4.85 65.55
L 67.15 65.55
Q 67.7 65.55 68.05 65.15 68.35 64.75 68.25 64.15
L 65.1 48.25
Q 64.95 47.65 64.5 47.25 Z"/>
</g>

<g id="Layer1_0_MEMBER_0_MEMBER_3_MEMBER_1_FILL">
<path fill="#FFFFFF" stroke="none" d="
M 17.3 106.05
Q 17.85 106.6 18.65 106.6
L 87.05 106.6
Q 87.9 106.6 88.45 106.05 89 105.5 89 104.65 89 103.85 88.45 103.3 87.85 102.7 87.05 102.7
L 18.65 102.7
Q 17.85 102.7 17.3 103.3 16.7 103.85 16.7 104.65 16.7 105.45 17.3 106.05 Z"/>
</g>

<g id="Layer1_0_MEMBER_0_MEMBER_3_MEMBER_2_FILL">
<path fill="#FFFFFF" stroke="none" d="
M 15.4 64.9
Q 15.7 65.2 16.15 65.2
L 56.7 65.2
Q 57.2 65.2 57.5 64.9 57.8 64.6 57.8 64.15 57.8 63.7 57.5 63.35 57.2 63.05 56.75 63.05
L 16.15 63.05
Q 15.7 63.05 15.35 63.35 15.05 63.7 15.05 64.15 15.05 64.6 15.4 64.9 Z"/>
</g>

<g id="Layer1_0_MEMBER_1_FILL">
<path fill="#78909C" stroke="none" d="
M 60.1 12.85
Q 59.35 12.1 58.35 12.1
L 13.7 12.1
Q 12.7 12.1 12 12.85 11.25 13.55 11.25 14.55
L 11.25 37.4
Q 11.25 38.4 12 39.15 12.7 39.85 13.7 39.85
L 58.35 39.85
Q 59.35 39.85 60.1 39.15 60.8 38.4 60.8 37.4
L 60.8 14.55
Q 60.8 13.55 60.1 12.85
M 58.25 14.65
L 58.25 37.3 13.8 37.3 13.8 14.65 58.25 14.65 Z"/>
</g>
</defs>

<g id="Layer_1">
<g transform="matrix( 1, 0, 0, 1, 0,-1) ">
<use xlink:href="#Layer1_0_MEMBER_0_MEMBER_1_FILL"/>
</g>

<g transform="matrix( 1, 0, 0, 1, 0,-1) ">
<use xlink:href="#Layer1_0_MEMBER_0_MEMBER_2_MEMBER_0_MEMBER_0_FILL"/>
</g>

<g transform="matrix( 0.5625, 0, 0, 0.5625, 9.6,9.75) ">
<g id="Camada_1"/>

<g id="Camada_3">
<g transform="matrix( 1, 0, 0, 1, 0,0) ">
<use xlink:href="#An_1F4BB_SVG_Layer_1__Clip_Group__0_Layer1_0_FILL"/>
</g>
</g>

<g id="Camada_4"/>
</g>

<g transform="matrix( 1, 0, 0, 1, 0,0) ">
<use xlink:href="#Layer1_0_MEMBER_0_MEMBER_3_MEMBER_0_FILL"/>
</g>

<g transform="matrix( 0.715301513671875, 0, 0, 0.738555908203125, -1.6,-24.9) ">
<use xlink:href="#Layer1_0_MEMBER_0_MEMBER_3_MEMBER_1_FILL"/>
</g>

<g transform="matrix( 1.2716522216796875, 0, 0, 1.31298828125, -10.1,-24.9) ">
<use xlink:href="#Layer1_0_MEMBER_0_MEMBER_3_MEMBER_2_FILL"/>
</g>

<g transform="matrix( 1, 0, 0, 1, 0,-1) ">
<use xlink:href="#Layer1_0_MEMBER_1_FILL"/>
</g>
</g>
</svg>
