
<svg xmlns="http://www.w3.org/2000/svg" version="1.1" xmlns:xlink="http://www.w3.org/1999/xlink" preserveAspectRatio="none" x="0px" y="0px" width="72px" height="72px" viewBox="0 0 72 72">
<defs>
<g id="Layer0_0_MEMBER_0_FILL">
<path fill="#FAC036" stroke="none" d="
M 91.55 14.85
Q 90 11.7 86.55 11.15 83.25 10.6 80.6 14.2 78.5 17.05 77.95 20.35 76.55 28.5 75.55 34.9 73.55 47.05 72.65 54.7 72.45 55.85 72.15 56.1 70.8 57.05 69.55 56.1
L 68.6 54.9
Q 68.25 49.15 68.1 32.65 68.05 24.1 68 13.5 67.85 0.45 60.55 0.45 56.2 0.45 54.35 4.15 52.65 7.5 52.75 14.35 53.6 38.9 53.5 53.65 52.1 56.15 50.2 55.45
L 48.55 54.2
Q 47.6 46.65 46.1 32.25 44.8 19.45 44.5 17.5 43.6 12.15 41.7 9.85 39.75 7.4 36.3 7.7 32.7 8 31.35 11.05 30 14.05 30.65 20.2 34 52.8 34.65 57.9 33.9 61.35 31.7 61.2
L 29.6 60.35
Q 25.95 41.4 24.65 36.2 23.25 30.8 21.35 28.95 19.45 27.1 16.1 28 12.65 29 11.8 32.25 11.15 34.9 12 40.35 12.35 42.55 15.15 60.3 17.9 78.45 18.2 85.75 18.75 98.95 24 109.55 29.1 119.8 36.05 122.7 46.05 126.85 57.75 126.35 70.25 125.8 80.75 120 82.8 118.9 86.65 114.6 91.65 109 92.15 108.55 94.7 105.55 97.15 102.75 102 97.2 102.75 96.7 108.2 93.15 111.9 91.2 116.35 88.75 118.4 87.25 122.9 83.9 122.8 80.4 122.7 77.2 119.1 75.8 115.05 74.25 111.2 74.25 106.75 74.2 104.35 76.25
L 92.55 86.45
Q 87 88.15 86.4 77.6 86.15 73.3 87.2 62.5 91.4 28.6 92.3 22.95 93.1 18 91.55 14.85 Z"/>
</g>

<g id="Layer0_0_MEMBER_1_MEMBER_0_FILL">
<path fill="#E48C15" stroke="none" d="
M 86.35 76.25
Q 86.3 75 86.4 72 77 72.25 70.8 74.3 64.35 76.45 59.45 83.75 56.35 88.4 54.35 93.7 52.5 98.5 53.15 99 54.55 100.05 56.85 95.45 60.9 87.4 62.5 85.1 65.4 80.95 71.55 78.3 78.65 75.25 86.35 76.25 Z"/>
</g>
</defs>

<g id="Layer_1">
<g transform="matrix( 0.5625, 0, 0, 0.5625, 0,0) ">
<use xlink:href="#Layer0_0_MEMBER_0_FILL"/>
</g>

<g transform="matrix( 0.5625, 0, 0, 0.5625, 0,0) ">
<use xlink:href="#Layer0_0_MEMBER_1_MEMBER_0_FILL"/>
</g>
</g>
</svg>
