
<svg xmlns="http://www.w3.org/2000/svg" version="1.1" xmlns:xlink="http://www.w3.org/1999/xlink" preserveAspectRatio="none" x="0px" y="0px" width="72px" height="72px" viewBox="0 0 72 72">
<defs>
<g id="Layer0_0_MEMBER_0_MEMBER_0_FILL">
<path fill="#F79329" stroke="none" d="
M 59.5 39.1
Q 59.7 39.4 60 39.4 60.2 39.4 60.25 39.35
L 69.7 35.2
Q 70 35.05 70.05 34.8 70.15 34.55 70 34.3
L 68.3 31.75
Q 68.15 31.45 67.8 31.45 67.55 31.45 67.4 31.6
L 59.55 38.2
Q 59.35 38.35 59.3 38.6 59.3 38.8 59.45 39
L 59.5 39.1 Z"/>
</g>

<g id="Layer0_0_MEMBER_1_MEMBER_0_FILL">
<path fill="#F79329" stroke="none" d="
M 59.5 46.1
Q 59.3 46.4 59.55 46.6
L 67.8 53.5
Q 67.95 53.6 68.05 53.6 68.25 53.6 68.35 53.45
L 70.35 50.4
Q 70.6 50.05 70.2 49.85
L 60.15 45.45
Q 59.9 45.45 59.8 45.6
L 59.5 46.1 Z"/>
</g>

<g id="Layer0_0_MEMBER_2_MEMBER_0_FILL">
<path fill="#F79329" stroke="none" d="
M 59.65 42.35
Q 59.65 42.9 60.15 42.95
L 70.6 43.7
Q 70.8 43.7 71 43.55 71.15 43.35 71.15 43.15
L 71.15 40.25
Q 71.15 40 70.95 39.85 70.75 39.7 70.55 39.7
L 70.45 39.7 60.1 41.65
Q 59.65 41.7 59.65 42.2
L 59.65 42.35 Z"/>
</g>

<g id="Layer0_1_MEMBER_0_FILL">
<path fill="#006CA0" stroke="none" d="
M 43.25 12
L 43.9 11.35
Q 44.8 10.45 44.7 10.05 44.65 9.95 44.2 9.7 43.7 9.4 43 9.25 41.2 8.8 38.1 8.25
L 36.1 7.9
Q 34 7.45 30.5 7.3
L 30.4 7.25
Q 28.55 7.05 27.15 7.05 24.15 7.05 21.1 7.7 17.45 8.5 14.85 9.7 10 11.8 6.9 15.6 4.55 18.35 3.25 22 2 25.35 1.85 29 1.75 31.05 2.1 33.9 2.55 37.15 3.2 39.3 4.4 43.5 6.85 46.65 9.5 50.1 13.9 53.1 16.35 54.75 18.4 55.7 20.55 56.65 22.45 57.85 26.1 60.15 26.95 62.05 27.65 63.45 27.4 64.7 27.25 65.6 26.4 66.75 25.5 68 24.65 68.8 25.65 69.25 28.5 69.55 32 69.9 37.15 69.9
L 38.35 69.9
Q 41.7 69.85 44.45 69.45 47.25 69.1 47.7 68.55 47.7 68.2 47.35 67.2
L 46.85 66
Q 46.5 65.15 46.35 64.25 46.2 63.25 46.2 62.6 46.2 59.75 47.7 58.35 48.4 57.65 49.65 57.2 50.95 56.7 51.8 56.5
L 53.7 56.05
Q 54.7 55.75 55.05 55.6 55.85 55.25 56.2 54.8 57.1 53.7 56.65 51.1
L 56.5 50.45
Q 56.25 49.55 56.2 49.05 56.15 48.25 56.55 47.65
L 56.55 47.6
Q 56.95 47.05 57 46.8
L 57.2 46.2 57.25 45.8
Q 56.5 46 55.95 46.1 54.1 46.5 53.2 46.7 52 46.9 51.05 46.9 50.15 46.9 49.25 46.65 48.3 46.4 47.9 46.15 47.2 45.75 47.05 45.1 46.85 44.15 48.15 43.05 49.1 42.25 52.35 40.35
L 53.3 39.8
Q 54.6 39.1 55.1 38.75 55.85 38.2 55.9 37.85 55.9 37.6 55.7 37.35
L 55.65 37.25 55.4 36.95
Q 55.05 36.55 54.95 36.25 54.65 35.55 55.05 34.4 55.4 33.55 55.95 32.9
L 56.1 32.7
Q 56.1 32.5 55.25 31.7 54.7 31.25 54.3 31.1 53.1 30.5 52.1 29.3 50.8 27.85 50.5 26.25
L 50.5 21.75 50.4 21.25
Q 49.9 19.85 47.9 17.2 46 14.9 46 14.85
L 44.05 12.65 43.25 12 Z"/>
</g>
</defs>

<g id="Layer_1">
<g transform="matrix( 1, 0, 0, 1, 0,0.95) ">
<use xlink:href="#Layer0_0_MEMBER_0_MEMBER_0_FILL"/>
</g>

<g transform="matrix( 1, 0, 0, 1, 0,0.95) ">
<use xlink:href="#Layer0_0_MEMBER_1_MEMBER_0_FILL"/>
</g>

<g transform="matrix( 1, 0, 0, 1, 0,0.95) ">
<use xlink:href="#Layer0_0_MEMBER_2_MEMBER_0_FILL"/>
</g>

<g transform="matrix( 0.9848175048828125, 0.1736297607421875, -0.1736297607421875, 0.9848175048828125, 7,-7.7) ">
<use xlink:href="#Layer0_1_MEMBER_0_FILL"/>
</g>
</g>
</svg>
