
<svg xmlns="http://www.w3.org/2000/svg" version="1.1" xmlns:xlink="http://www.w3.org/1999/xlink" preserveAspectRatio="none" x="0px" y="0px" width="72px" height="72px" viewBox="0 0 72 72">
<defs>
<g id="Layer1_0_MEMBER_0_FILL">
<path fill="#78909C" stroke="none" d="
M 15 9.25
Q 9.95 14.5 8.9 22.55
L 28.9 35.3 51.15 10.35
Q 43.2 3.6 32.25 2.8 21.45 1.95 14.95 9.25
L 15 9.25
M 61.15 24.3
L 61.15 24.35 61.35 25.85
Q 61.3 27.2 61.3 28.35 61.3 28.475 61.3 28.6 61.25 29.55 61.3 30.35 61.3 30.4 61.3 30.45 61.25 31.8 61.25 33 61.25 33.25 61.25 33.45 61.2 34.85 60.95 36.1
L 62.25 36.1
Q 63.05 36.05 63.1 34.6
L 63.1 25.85
Q 63.05 24.4 62.25 24.3
L 61.15 24.3 Z"/>

<path fill="#B0BEC5" stroke="none" d="
M 48.65 49.25
Q 52.55 47.2 54.65 45.7 59.85 41.9 60.95 36.1 61.2 34.85 61.25 33.45 61.25 33.25 61.25 33 61.25 31.8 61.3 30.45 61.3 30.4 61.3 30.35 61.25 29.55 61.3 28.6 61.3 28.475 61.3 28.35 61.3 27.2 61.35 25.85
L 61.15 24.35
Q 59.6 17.65 51.15 10.35
L 28.9 35.3 42.55 44.1
Q 44.55 51 48.65 49.25 Z"/>
</g>

<g id="Layer1_0_MEMBER_1_MEMBER_0_FILL">
<path fill="#FAC036" stroke="none" d="
M 50.8 47.8
Q 55.7 39.2 56.05 38.4 58.65 32.9 59.05 27.35 59.85 16.75 52.7 9.7 46 3.1 35.3 2.35 25.15 1.6 18.9 8.4 12.7 15.05 12.85 26.2 12.9 29.8 14.25 32.55 15.15 34.5 17.2 36.85 19.8 39.8 20.5 40.9 22.2 43.45 22.85 46.5 23 47.35 22.2 51.5 21.2 56.8 21 59.3 19.95 69.65 25.85 69.75 42.1 70 46.5 61.75 47.75 59.45 48.75 54.5 49.8 49.65 50.8 47.8 Z"/>
</g>

<g id="Layer1_0_MEMBER_1_MEMBER_1_FILL">
<path fill="#E48C15" stroke="none" d="
M 96.9 47.35
Q 97.9 33.2 88.4 23.85 79.45 15 65.2 14 56.9 13.4 49.2 18.25 41.9 22.85 37.1 30.95 36.65 31.75 37.4 32.25 38.15 32.8 38.75 32.1 43.95 26.1 50.75 22.9 57.75 19.6 64.6 20.1 77.65 21.05 84.65 27.85 92.2 35.15 91.25 48.1 90.75 54.8 87.3 61.75 85.3 65.8 80.6 73.4 79.25 75.75 78.5 85.25 77.65 95.75 75.7 101.1 75.4 101.95 76.25 102.35 77.05 102.75 77.5 101.95 80.55 96.8 82.55 86.95 84.55 77 85.9 74.6 92.35 63.25 92.9 62.1 96.35 54.8 96.9 47.35 Z"/>
</g>

<g id="Layer1_0_MEMBER_1_MEMBER_2_FILL">
<path fill="#E48C15" stroke="none" d="
M 27.95 30.45
Q 23.9 28.9 22.35 33 21.05 36.3 24 38.3 24.8 38.8 26.4 39.65 27.65 40.35 27.85 41 28.45 42.7 27.8 48.45 27.75 48.9 28.1 49.05 28.5 49.2 28.75 48.9 30.95 46.3 32.1 43.7 33.9 39.9 33.1 36.8 31.85 32 27.95 30.45 Z"/>
</g>

<g id="Layer1_0_MEMBER_1_MEMBER_3_FILL">
<path fill="#E48C15" stroke="none" d="
M 52.75 39.6
Q 52.45 40.5 53.25 40.85 60.75 44.05 65.25 48.85 71.1 55.1 71.1 63.5 71.1 64.45 72 64.5 72.9 64.55 73.1 63.65 74.65 55.25 71.1 49.35 66.55 41.8 53.9 38.95 53.05 38.75 52.75 39.6 Z"/>
</g>

<g id="Layer1_0_MEMBER_2_MEMBER_0_FILL">
<path fill="#B0BEC5" stroke="none" d="
M 18.1 38.55
Q 18.1 40.75 19.65 42.25 21.15 43.75 23.35 43.75 25.5 43.75 27.05 42.25 28.5 40.75 28.5 38.55 28.5 36.4 27.05 34.9 25.5 33.4 23.35 33.4 21.15 33.4 19.65 34.9 18.1 36.4 18.1 38.55 Z"/>
</g>

<g id="Layer1_0_MEMBER_2_MEMBER_1_FILL">
<path fill="#78909C" stroke="none" d="
M 11.4 18.7
L 8.9 22.5
Q 8.8 30.05 14.05 32.5 17.6 34.15 21.1 39.2 22.4 40.85 23.45 40.5 24.2 40.25 24.6 39.65 25.45 38.2 24.05 36.75 19.4 31.8 16.25 30.5 15.85 30.35 15.5 30.15 10.165234375 25.8583984375 11.4 18.7 Z"/>
</g>

<path id="Layer1_0_MEMBER_2_MEMBER_0_1_STROKES" stroke="#78909C" stroke-width="1" stroke-linejoin="round" stroke-linecap="round" fill="none" d="
M 28.5 38.55
Q 28.5 40.75 27.05 42.25 25.5 43.75 23.35 43.75 21.15 43.75 19.65 42.25 18.1 40.75 18.1 38.55 18.1 36.4 19.65 34.9 21.15 33.4 23.35 33.4 25.5 33.4 27.05 34.9 28.5 36.4 28.5 38.55 Z"/>
</defs>

<g id="Layer_1">
<g transform="matrix( 1, 0, 0, 1, 0,0) ">
<use xlink:href="#Layer1_0_MEMBER_0_FILL"/>
</g>

<g transform="matrix( 0.95928955078125, 0, 0, 0.95928955078125, -1.8,2.45) ">
<use xlink:href="#Layer1_0_MEMBER_1_MEMBER_0_FILL"/>
</g>

<g transform="matrix( 0.539581298828125, 0, 0, 0.539581298828125, -1.8,2.45) ">
<use xlink:href="#Layer1_0_MEMBER_1_MEMBER_1_FILL"/>
</g>

<g transform="matrix( 0.95928955078125, 0, 0, 0.95928955078125, -1.8,2.45) ">
<use xlink:href="#Layer1_0_MEMBER_1_MEMBER_2_FILL"/>
</g>

<g transform="matrix( 0.539581298828125, 0, 0, 0.539581298828125, -1.8,2.45) ">
<use xlink:href="#Layer1_0_MEMBER_1_MEMBER_3_FILL"/>
</g>

<g transform="matrix( 1, 0, 0, 1, 0,0) ">
<use xlink:href="#Layer1_0_MEMBER_2_MEMBER_0_FILL"/>

<use xlink:href="#Layer1_0_MEMBER_2_MEMBER_0_1_STROKES"/>
</g>

<g transform="matrix( 1, 0, 0, 1, 0,0) ">
<use xlink:href="#Layer1_0_MEMBER_2_MEMBER_1_FILL"/>
</g>
</g>

<g id="svg2"/>
</svg>
