
<svg xmlns="http://www.w3.org/2000/svg" version="1.1" xmlns:xlink="http://www.w3.org/1999/xlink" preserveAspectRatio="none" x="0px" y="0px" width="72px" height="72px" viewBox="0 0 72 72">
<defs>
<g id="Layer0_0_MEMBER_0_FILL">
<path fill="#875E54" stroke="none" d="
M 122.8 69.6
Q 122.8 46.3 106.15 29.75 89.5 13.2 66 13.2 42.5 13.2 25.85 29.75 9.2 46.25 9.2 69.6 9.2 92.95 25.85 109.45 42.5 126 66 126 89.5 126 106.15 109.45 122.8 92.9 122.8 69.6
M 102.45 33.8
Q 117.55 48.65 117.55 69.6 117.55 90.55 102.45 105.4 87.3 120.25 66 120.25 44.65 120.25 29.55 105.4 14.45 90.55 14.45 69.6 14.45 48.65 29.55 33.8 44.65 18.95 66 18.95 87.3 18.95 102.45 33.8 Z"/>
</g>

<g id="Layer0_0_MEMBER_1_FILL">
<path fill="#875E54" stroke="none" d="
M 30.4 64.35
L 30.4 70 41.85 70 41.85 64.35 30.4 64.35 Z"/>
</g>

<g id="Layer0_0_MEMBER_2_FILL">
<path fill="#BE1931" stroke="none" d="
M 69.85 34.65
Q 69.05 34.2 68.65 32.8 61 5.4 36.05 5.4
L 36 5.95 36 5.4
Q 20.5 5.4 11.85 15.75 6.85 21.75 3.95 32.2 3.55 33.75 2.5 34.45 1.95 34.8 1.45 34.95 1.35 36.6 2.95 38.6 4.7 40.8 8.1 42.9 13.1 45.95 21.3 47.8 28.9 49.45 36 49.45
L 36.05 49.45
Q 43.15 49.45 50.7 47.8 58.9 45.95 63.9 42.9 67.35 40.8 69.1 38.6 70.7 36.6 70.55 34.95 70.25 34.9 69.85 34.65 Z"/>
</g>

<g id="Layer0_0_MEMBER_3_FILL">
<path fill="#EA596E" stroke="none" d="
M 48.8 36.95
L 41.4 5.3
Q 36.05 3.5 30.6 5.1
L 29.95 5.3 23.25 36.95 23.45 37
Q 36 39.55 48.65 37
L 48.8 36.95 Z"/>
</g>

<g id="Layer0_0_MEMBER_4_FILL">
<path fill="#FFFFFF" stroke="none" d="
M 67.3 32.9
L 60.65 32.9 60.65 57.4 67.3 57.4 67.3 32.9 Z"/>
</g>

<g id="Layer0_0_MEMBER_5_FILL">
<path fill="#FFFFFF" stroke="none" d="
M 78.65 43.85
L 51.9 43.85 51.9 51.7 78.65 51.7 78.65 43.85 Z"/>
</g>

<g id="Layer0_0_MEMBER_6_FILL">
<path fill="#BE1931" stroke="none" d="
M 2.95 32.05
Q 1.6 33.45 1.45 34.95
L 3.65 35.85 4.3 31 2.95 32.05 Z"/>
</g>

<g id="Layer0_0_MEMBER_7_FILL">
<path fill="#BE1931" stroke="none" d="
M 68.35 35.9
L 70.55 35
Q 70.25 33.1 68.95 31.65
L 67.7 30.6 68.35 35.9 Z"/>
</g>

<g id="Layer0_0_MEMBER_8_FILL">
<path fill="#EA596E" stroke="none" d="
M 66.3 36.4
L 70.55 35.15 70.45 34.45
Q 70.3 33.55 69.5 33.05 68.7 32.6 67.85 32.85
L 66.3 33.35
Q 50.95 37.85 35.35 37.75 19.7 37.65 4.35 32.95
L 4.2 32.95
Q 3.3 32.65 2.5 33.15 1.7 33.65 1.5 34.55
L 1.45 35.2 4.35 36.05
Q 19.65 40.7 35.35 40.85 50.95 40.9 66.3 36.4 Z"/>
</g>
</defs>

<g id="Layer_1">
<g transform="matrix( 0.5625, 0, 0, 0.5625, -0.7,-1.6) ">
<use xlink:href="#Layer0_0_MEMBER_0_FILL"/>
</g>

<g transform="matrix( 1, 0, 0, 1, 0,-1.6) ">
<use xlink:href="#Layer0_0_MEMBER_1_FILL"/>
</g>

<g transform="matrix( 1, 0, 0, 1, 0,-1.6) ">
<use xlink:href="#Layer0_0_MEMBER_2_FILL"/>
</g>

<g transform="matrix( 1, 0, 0, 1, 0,-1.6) ">
<use xlink:href="#Layer0_0_MEMBER_3_FILL"/>
</g>

<g transform="matrix( 0.5625, 0, 0, 0.5625, 0,-0.45) ">
<use xlink:href="#Layer0_0_MEMBER_4_FILL"/>
</g>

<g transform="matrix( 0.5625, 0, 0, 0.5625, -0.7,-1.6) ">
<use xlink:href="#Layer0_0_MEMBER_5_FILL"/>
</g>

<g transform="matrix( 1, 0, 0, 1, 0,-1.6) ">
<use xlink:href="#Layer0_0_MEMBER_6_FILL"/>
</g>

<g transform="matrix( 1, 0, 0, 1, 0,-1.6) ">
<use xlink:href="#Layer0_0_MEMBER_7_FILL"/>
</g>

<g transform="matrix( 1, 0, 0, 1, 0,-1.6) ">
<use xlink:href="#Layer0_0_MEMBER_8_FILL"/>
</g>
</g>
</svg>
