
<svg xmlns="http://www.w3.org/2000/svg" version="1.1" xmlns:xlink="http://www.w3.org/1999/xlink" preserveAspectRatio="none" x="0px" y="0px" width="72px" height="72px" viewBox="0 0 72 72">
<defs>
<g id="Layer0_0_FILL">
<path fill="#FCC21B" stroke="none" d="
M 36 5.45
Q 13.7 5.45 4.95 26.05 0.15 37.3 0.15 52.5 0.15 58.35 10.7 62.45 21.15 66.6 36 66.6 50.9 66.6 61.4 62.45 71.9 58.35 71.9 52.5 71.9 37.3 67.1 26.05 58.35 5.45 36 5.45 Z"/>
</g>

<g id="Layer0_1_FILL">
<path fill="#ED6C30" stroke="none" d="
M 54.95 42.45
Q 55.9 39.15 54.25 38.05 53.15 37.3 51.4 37.45 51.2 37.5 48.4 38.05 42.7 39.2 36 39.2 29.25 39.2 23.6 38.05 20.8 37.5 20.6 37.45 18.85 37.3 17.7 38.05 16.1 39.15 17.05 42.45 18 45.75 20.6 48.5 23 50.95 26 52.5 30.55 54.9 36 54.9 41.45 54.9 46 52.5 49 50.95 51.35 48.5 54 45.75 54.95 42.45 Z"/>
</g>

<g id="Layer0_2_MEMBER_0_FILL">
<path fill="#2F2F2F" stroke="none" d="
M 47.8 44.7
Q 45.35 41.85 42 41.9 38.65 41.95 36.25 44.8 33.9 47.7 33.95 51.7 34 55.7 36.4 58.55 38.85 61.35 42.2 61.3 45.55 61.25 47.9 58.4 50.25 55.55 50.25 51.55 50.2 47.5 47.8 44.7 Z"/>
</g>

<g id="Layer0_2_MEMBER_1_FILL">
<path fill="#2F2F2F" stroke="none" d="
M 45.3 32.9
Q 46.65 34.5 48.55 34.5 50.45 34.5 51.8 32.9 53.1 31.3 53.1 29.05 53.1 26.8 51.75 25.15 50.4 23.55 48.5 23.6 46.65 23.6 45.3 25.2 43.95 26.8 43.95 29.05 43.95 31.3 45.3 32.9 Z"/>
</g>
</defs>

<g transform="matrix( 1, 0, 0, 1, 0,0) ">
<use xlink:href="#Layer0_0_FILL"/>
</g>

<g transform="matrix( 1, 0, 0, 1, 0,1) ">
<use xlink:href="#Layer0_1_FILL"/>
</g>

<g transform="matrix( 0.5625, 0, 0, 0.76885986328125, 0,-12.55) ">
<use xlink:href="#Layer0_2_MEMBER_0_FILL"/>
</g>

<g transform="matrix( 1, 0, 0, 1.3668670654296875, 0,-12.55) ">
<use xlink:href="#Layer0_2_MEMBER_1_FILL"/>
</g>
</svg>
