
<svg xmlns="http://www.w3.org/2000/svg" version="1.1" xmlns:xlink="http://www.w3.org/1999/xlink" preserveAspectRatio="none" x="0px" y="0px" width="72px" height="72px" viewBox="0 0 72 72">
<defs>
<g id="Layer0_0_FILL">
<path fill="#FCC21B" stroke="none" d="
M 127.1 94.3
Q 127.1 67.35 118.7 47.35 103.3 10.7 64.15 10.7 25 10.7 9.6 47.35 1.15 67.4 1.15 94.3 1.15 104.65 19.6 112 38.05 119.3 64.15 119.3 90.25 119.3 108.7 112 127.1 104.65 127.1 94.3 Z"/>
</g>

<g id="Layer0_1_FILL">
<path fill="#ED6C30" stroke="none" d="
M 36 44.3
Q 35.8 44.3 35.55 44.3 31.1 44.3 28.3 46.3 25.7 48.2 25.25 51.3 25.1 52.3 25.75 52.9 26.5 53.6 28.95 53.2 33.1 52.6 35.35 52.6 35.65 52.6 36 52.65
L 36 52.6
Q 36.3505859375 52.6 36.65 52.6 38.9 52.6 43.05 53.2 45.5 53.6 46.25 52.9 46.9 52.3 46.75 51.3 46.3 48.2 43.7 46.3 40.9 44.3 36.45 44.3 36.2232421875 44.3 36 44.3 Z"/>
</g>

<g id="Layer0_3_MEMBER_0_FILL">
<path fill="#2F2F2F" stroke="none" d="
M 27.3 32.9
Q 27.3 30.6 25.95 29 24.65 27.4 22.75 27.4 20.85 27.4 19.55 29 18.2 30.6 18.2 32.9 18.2 35.15 19.55 36.75 20.9 38.35 22.75 38.35 24.65 38.35 25.95 36.75 27.3 35.15 27.3 32.9 Z"/>
</g>

<g id="Layer0_3_MEMBER_1_FILL">
<path fill="#2F2F2F" stroke="none" d="
M 46.35 29
Q 45 30.6 45 32.9 45 35.15 46.35 36.75 47.7 38.35 49.55 38.35 51.45 38.35 52.75 36.75 54.1 35.15 54.1 32.9 54.1 30.6 52.75 29 51.45 27.4 49.55 27.4 47.65 27.4 46.35 29 Z"/>
</g>

<path id="Layer0_2_1_STROKES" stroke="#2F2F2F" stroke-width="3" stroke-linejoin="round" stroke-linecap="round" fill="none" d="
M 56.45 25.1
L 55.3 25
Q 51.3 24.65 49.8 23.15 48.65 21.75 48.15 20.7
M 15.9 25.1
Q 20.8 24.9 22.55 23.15 23.7 21.75 24.2 20.7"/>
</defs>

<g id="MergedLayer_1">
<g transform="matrix( 0.5624847412109375, 0, 0, 0.5624847412109375, 0,0) ">
<use xlink:href="#Layer0_0_FILL"/>
</g>

<g transform="matrix( 1, 0, 0, 1, 0,0) ">
<use xlink:href="#Layer0_1_FILL"/>
</g>

<g transform="matrix( 1, 0, 0, 1, -0.15,0) ">
<use xlink:href="#Layer0_2_1_STROKES"/>
</g>

<g transform="matrix( 1.06689453125, 0, 0, 1.06689453125, -1.35,-2.55) ">
<use xlink:href="#Layer0_3_MEMBER_0_FILL"/>
</g>

<g transform="matrix( 1.06689453125, 0, 0, 1.06689453125, -3.75,-2.55) ">
<use xlink:href="#Layer0_3_MEMBER_1_FILL"/>
</g>
</g>
</svg>
