
<svg xmlns="http://www.w3.org/2000/svg" version="1.1" xmlns:xlink="http://www.w3.org/1999/xlink" preserveAspectRatio="none" x="0px" y="0px" width="72px" height="72px" viewBox="0 0 72 72">
<defs>
<g id="Layer0_0_FILL">
<path fill="#FCC21B" stroke="none" d="
M 36 5.45
Q 13.7 5.45 4.95 26.05 0.15 37.3 0.15 52.5 0.15 58.35 10.7 62.45 21.15 66.6 36 66.6 50.9 66.6 61.4 62.45 71.9 58.35 71.9 52.5 71.9 37.3 67.1 26.05 58.35 5.45 36 5.45 Z"/>
</g>

<g id="Layer0_1_MEMBER_0_FILL">
<path fill="#2F2F2F" stroke="none" d="
M 47.55 48.9
Q 45.15 46.05 41.8 46.1 38.45 46.15 36.05 49 33.7 51.9 33.75 55.9 33.8 59.9 36.2 62.75 38.6 65.55 41.95 65.5 45.3 65.5 47.7 62.65 50.05 59.75 50 55.75 49.95 51.75 47.55 48.9 Z"/>
</g>

<g id="Layer0_1_MEMBER_1_FILL">
<path fill="#2F2F2F" stroke="none" d="
M 91.75 48.95
Q 89.4 46.1 86.05 46.15 82.7 46.15 80.3 49 77.9 51.85 77.9 55.85 77.9 59.85 80.3 62.7 82.7 65.55 86.05 65.5 89.45 65.5 91.8 62.65 94.2 59.8 94.15 55.8 94.15 51.8 91.75 48.95 Z"/>
</g>

<g id="Layer0_2_FILL">
<path fill="#ED6C30" stroke="none" d="
M 45.95 45.55
Q 44.4 43.8 42.45 42.7 39.5 40.95 36.05 40.95 32.5 40.95 29.55 42.7 27.6 43.8 26.05 45.55 24.4 47.55 23.8 49.9 23.2 52.3 24.2 53.1 24.95 53.65 26.05 53.55 26.2 53.5 28 53.1 31.6 52.25 35.95 52.25 40.4 52.25 44 53.1 45.8 53.5 45.95 53.55 47.05 53.65 47.8 53.1 48.8 52.3 48.2 49.9 47.6 47.55 45.95 45.55 Z"/>
</g>
</defs>

<g transform="matrix( 1, 0, 0, 1, 0,0) ">
<use xlink:href="#Layer0_0_FILL"/>
</g>

<g transform="matrix( 0.5624847412109375, 0, 0, 0.5624847412109375, 0,-0.1) ">
<use xlink:href="#Layer0_1_MEMBER_0_FILL"/>
</g>

<g transform="matrix( 0.5624847412109375, 0, 0, 0.5624847412109375, 0,-0.1) ">
<use xlink:href="#Layer0_1_MEMBER_1_FILL"/>
</g>

<g transform="matrix( 1, 0, 0, 1, 0,0) ">
<use xlink:href="#Layer0_2_FILL"/>
</g>
</svg>
