
<svg xmlns="http://www.w3.org/2000/svg" version="1.1" xmlns:xlink="http://www.w3.org/1999/xlink" preserveAspectRatio="none" x="0px" y="0px" width="72px" height="72px" viewBox="0 0 72 72">
<defs>
<g id="Layer0_0_FILL">
<path fill="#FCC21B" stroke="none" d="
M 127.75 93.35
Q 127.75 66.35 119.25 46.3 103.65 9.65 64 9.65 24.3 9.65 8.7 46.3 0.2 66.35 0.2 93.35 0.2 103.75 18.9 111.05 37.55 118.4 64 118.4 90.4 118.4 109.1 111.05 127.75 103.75 127.75 93.35 Z"/>
</g>

<g id="Layer0_1_MEMBER_0_MEMBER_0_FILL">
<path fill="#FCC21B" stroke="none" d="
M 111 42.95
Q 104.15 39.8 97 42.35 89.9 44.9 86.7 51.7 83.5 58.45 86.05 65.5 88.7 72.55 95.55 75.7 102.35 78.85 109.5 76.3 116.6 73.75 119.85 66.95 123.05 60.15 120.45 53.15 117.85 46.1 111 42.95 Z"/>
</g>

<g id="Layer0_1_MEMBER_0_MEMBER_1_FILL">
<path fill="#FCC01C" stroke="none" d="
M 110.7 43.55
Q 104.1 40.55 97.25 43 90.4 45.5 87.3 52 84.25 58.5 86.75 65.3 89.25 72.05 95.85 75.1 102.45 78.15 109.3 75.65 116.15 73.2 119.2 66.7 122.3 60.15 119.8 53.35 117.35 46.6 110.7 43.55 Z"/>
</g>

<g id="Layer0_1_MEMBER_0_MEMBER_2_FILL">
<path fill="#FCBE1C" stroke="none" d="
M 110.4 44.2
Q 104.05 41.25 97.45 43.6 90.9 46 87.9 52.3 84.95 58.55 87.35 65.05 89.75 71.6 96.1 74.5 102.45 77.4 109.05 75 115.6 72.65 118.6 66.35 121.55 60.1 119.15 53.6 116.75 47.1 110.4 44.2 Z"/>
</g>

<g id="Layer0_1_MEMBER_0_MEMBER_3_FILL">
<path fill="#FBBB1D" stroke="none" d="
M 110.1 44.8
Q 104 41.95 97.7 44.25 91.35 46.55 88.55 52.55 85.7 58.55 88 64.8 90.3 71.05 96.4 73.85 102.45 76.65 108.8 74.4 115.15 72.1 117.95 66.1 120.8 60.1 118.5 53.85 116.2 47.6 110.1 44.8 Z"/>
</g>

<g id="Layer0_1_MEMBER_0_MEMBER_4_FILL">
<path fill="#FBB91E" stroke="none" d="
M 109.85 45.4
Q 104 42.75 97.95 44.9 91.9 47.1 89.2 52.85 86.5 58.6 88.65 64.6 90.85 70.55 96.7 73.25 102.55 75.95 108.6 73.75 114.65 71.6 117.35 65.8 120.1 60.05 117.9 54.05 115.7 48.1 109.85 45.4 Z"/>
</g>

<g id="Layer0_1_MEMBER_0_MEMBER_5_FILL">
<path fill="#FBB71E" stroke="none" d="
M 109.55 46
Q 104 43.45 98.2 45.5 92.4 47.6 89.8 53.15 87.2 58.65 89.3 64.35 91.4 70.05 96.95 72.65 102.55 75.2 108.35 73.1 114.15 71.05 116.75 65.5 119.35 60 117.25 54.3 115.1 48.55 109.55 46 Z"/>
</g>

<g id="Layer0_1_MEMBER_0_MEMBER_6_FILL">
<path fill="#FBB51F" stroke="none" d="
M 109.25 46.6
Q 103.9 44.15 98.4 46.15 92.9 48.15 90.4 53.4 87.95 58.65 89.95 64.1 91.95 69.55 97.25 72.05 102.6 74.5 108.1 72.5 113.6 70.5 116.1 65.25 118.6 60 116.6 54.5 114.6 49.05 109.25 46.6 Z"/>
</g>

<g id="Layer0_1_MEMBER_0_MEMBER_7_FILL">
<path fill="#FAB220" stroke="none" d="
M 108.95 47.25
Q 103.9 44.9 98.65 46.8 93.4 48.7 91.05 53.7 88.7 58.7 90.6 63.9 92.5 69.1 97.55 71.4 102.6 73.75 107.9 71.85 113.15 70 115.5 64.95 117.85 59.95 115.95 54.75 114.05 49.55 108.95 47.25 Z"/>
</g>

<g id="Layer0_1_MEMBER_0_MEMBER_8_FILL">
<path fill="#FAB020" stroke="none" d="
M 108.65 47.85
Q 103.85 45.65 98.85 47.45 93.9 49.25 91.65 54 89.4 58.75 91.2 63.65 93.05 68.6 97.85 70.8 102.65 73 107.65 71.2 112.65 69.45 114.9 64.7 117.15 59.9 115.3 55 113.45 50.1 108.65 47.85 Z"/>
</g>

<g id="Layer0_1_MEMBER_0_MEMBER_9_FILL">
<path fill="#FAAE21" stroke="none" d="
M 108.4 48.45
Q 103.85 46.35 99.1 48.05 94.4 49.75 92.25 54.25 90.15 58.75 91.85 63.45 93.6 68.1 98.15 70.2 102.7 72.3 107.4 70.6 112.15 68.9 114.25 64.4 116.4 59.9 114.65 55.2 112.95 50.55 108.4 48.45 Z"/>
</g>

<g id="Layer0_1_MEMBER_0_MEMBER_10_FILL">
<path fill="#FAAC22" stroke="none" d="
M 108.1 49.1
Q 103.75 47.1 99.35 48.7 94.9 50.3 92.9 54.55 90.9 58.8 92.5 63.2 94.1 67.6 98.4 69.6 102.75 71.55 107.15 69.95 111.6 68.35 113.6 64.1 115.6 59.85 114 55.45 112.4 51.05 108.1 49.1 Z"/>
</g>

<g id="Layer0_1_MEMBER_0_MEMBER_11_FILL">
<path fill="#F9A922" stroke="none" d="
M 106.95 69.3
Q 111.15 67.8 113.05 63.8 114.9 59.85 113.4 55.7 111.85 51.55 107.8 49.7 103.75 47.8 99.6 49.35 95.4 50.85 93.5 54.85 91.6 58.85 93.15 62.95 94.65 67.1 98.7 69 102.75 70.85 106.95 69.3 Z"/>
</g>

<g id="Layer0_1_MEMBER_0_MEMBER_12_FILL">
<path fill="#F9A723" stroke="none" d="
M 106.7 68.7
Q 110.65 67.3 112.4 63.5 114.2 59.75 112.75 55.9 111.35 52.05 107.55 50.3 103.75 48.55 99.8 49.95 95.9 51.4 94.15 55.15 92.4 58.9 93.8 62.75 95.2 66.6 99 68.35 102.8 70.1 106.7 68.7 Z"/>
</g>

<g id="Layer0_1_MEMBER_0_MEMBER_13_FILL">
<path fill="#F9A524" stroke="none" d="
M 106.5 68.05
Q 110.15 66.75 111.8 63.25 113.4 59.75 112.1 56.15 110.75 52.5 107.2 50.9 103.7 49.3 100.05 50.6 96.4 51.9 94.75 55.4 93.1 58.9 94.4 62.5 95.75 66.1 99.3 67.75 102.85 69.35 106.5 68.05 Z"/>
</g>

<g id="Layer0_1_MEMBER_0_MEMBER_14_FILL">
<path fill="#F9A324" stroke="none" d="
M 106.25 67.4
Q 109.65 66.2 111.15 62.95 112.7 59.7 111.45 56.35 110.2 53 106.95 51.5 103.7 50 100.3 51.2 96.9 52.45 95.35 55.7 93.85 58.9 95.05 62.25 96.3 65.65 99.55 67.15 102.85 68.65 106.25 67.4 Z"/>
</g>

<g id="Layer0_1_MEMBER_0_MEMBER_15_FILL">
<path fill="#F8A025" stroke="none" d="
M 106 66.75
Q 109.1 65.65 110.5 62.65 111.9 59.7 110.8 56.6 109.7 53.55 106.65 52.15 103.6 50.75 100.5 51.85 97.4 53 96 56 94.6 58.95 95.7 62.05 96.85 65.15 99.9 66.5 102.9 67.9 106 66.75 Z"/>
</g>

<g id="Layer0_1_MEMBER_0_MEMBER_16_FILL">
<path fill="#F89E26" stroke="none" d="
M 105.8 66.15
Q 108.65 65.1 109.95 62.4 111.2 59.65 110.15 56.85 109.15 54 106.35 52.75 103.6 51.45 100.75 52.5 97.9 53.5 96.6 56.25 95.35 59 96.35 61.8 97.4 64.65 100.15 65.9 102.9 67.15 105.8 66.15 Z"/>
</g>

<g id="Layer0_1_MEMBER_0_MEMBER_17_FILL">
<path fill="#F89C26" stroke="none" d="
M 105.55 65.5
Q 108.15 64.55 109.3 62.1 110.5 59.65 109.55 57.05 108.6 54.5 106.1 53.35 103.6 52.2 101 53.15 98.4 54.1 97.2 56.55 96.05 59 97 61.6 97.95 64.15 100.45 65.3 102.95 66.45 105.55 65.5 Z"/>
</g>

<g id="Layer0_1_MEMBER_0_MEMBER_18_FILL">
<path fill="#F89A27" stroke="none" d="
M 105.3 64.85
Q 107.6 64.05 108.7 61.8 109.75 59.6 108.9 57.3 108.05 55 105.8 53.95 103.5 52.95 101.2 53.75 98.85 54.6 97.85 56.85 96.8 59.05 97.65 61.35 98.5 63.65 100.75 64.7 103 65.7 105.3 64.85 Z"/>
</g>

<g id="Layer0_1_MEMBER_0_MEMBER_19_FILL">
<path fill="#F79728" stroke="none" d="
M 105.05 64.25
Q 107.1 63.5 108.05 61.55 109 59.55 108.25 57.55 107.5 55.5 105.5 54.55 103.5 53.65 101.45 54.4 99.4 55.15 98.45 57.1 97.55 59.05 98.3 61.1 99.05 63.15 101 64.05 103 64.95 105.05 64.25 Z"/>
</g>

<g id="Layer0_1_MEMBER_0_MEMBER_20_FILL">
<path fill="#F79528" stroke="none" d="
M 104.85 63.6
Q 106.65 62.95 107.45 61.25 108.25 59.5 107.6 57.75 106.95 56 105.25 55.2 103.5 54.4 101.7 55.05 99.9 55.7 99.1 57.4 98.3 59.1 98.95 60.9 99.6 62.65 101.3 63.45 103.05 64.25 104.85 63.6 Z"/>
</g>

<g id="Layer0_1_MEMBER_0_MEMBER_21_FILL">
<path fill="#F79329" stroke="none" d="
M 104.6 62.95
Q 106.15 62.45 106.85 60.95 107.5 59.5 106.95 58 106.4 56.5 104.9 55.8 103.45 55.15 101.9 55.65 100.35 56.2 99.7 57.7 99 59.15 99.55 60.65 100.1 62.15 101.6 62.85 103.05 63.5 104.6 62.95 Z"/>
</g>

<g id="Layer0_1_MEMBER_1_MEMBER_0_FILL">
<path fill="#FCC21B" stroke="none" d="
M 33 42.95
Q 26.15 39.8 19 42.35 11.9 44.9 8.7 51.7 5.5 58.5 8.1 65.5 10.7 72.55 17.55 75.7 24.35 78.85 31.5 76.3 38.6 73.75 41.85 66.95 45.05 60.15 42.45 53.15 39.85 46.1 33 42.95 Z"/>
</g>

<g id="Layer0_1_MEMBER_1_MEMBER_1_FILL">
<path fill="#FCC01C" stroke="none" d="
M 32.7 43.55
Q 26.1 40.55 19.25 43 12.4 45.5 9.3 52 6.25 58.5 8.75 65.3 11.25 72.05 17.85 75.1 24.45 78.15 31.3 75.65 38.15 73.2 41.2 66.7 44.3 60.15 41.8 53.35 39.35 46.6 32.7 43.55 Z"/>
</g>

<g id="Layer0_1_MEMBER_1_MEMBER_2_FILL">
<path fill="#FCBE1C" stroke="none" d="
M 32.4 44.2
Q 26.05 41.25 19.5 43.6 12.9 46 9.95 52.3 6.95 58.55 9.35 65.05 11.75 71.6 18.1 74.5 24.45 77.4 31.05 75 37.6 72.65 40.6 66.35 43.55 60.1 41.15 53.6 38.75 47.1 32.4 44.2 Z"/>
</g>

<g id="Layer0_1_MEMBER_1_MEMBER_3_FILL">
<path fill="#FBBB1D" stroke="none" d="
M 32.1 44.8
Q 26 41.95 19.7 44.25 13.4 46.55 10.55 52.55 7.7 58.6 10 64.8 12.3 71.05 18.4 73.85 24.5 76.65 30.8 74.4 37.15 72.1 39.95 66.1 42.8 60.1 40.5 53.85 38.2 47.6 32.1 44.8 Z"/>
</g>

<g id="Layer0_1_MEMBER_1_MEMBER_4_FILL">
<path fill="#FBB91E" stroke="none" d="
M 31.85 45.4
Q 26 42.75 19.95 44.9 13.9 47.1 11.2 52.85 8.5 58.6 10.65 64.6 12.85 70.55 18.7 73.25 24.55 75.95 30.6 73.75 36.65 71.6 39.35 65.8 42.1 60.05 39.9 54.05 37.7 48.1 31.85 45.4 Z"/>
</g>

<g id="Layer0_1_MEMBER_1_MEMBER_5_FILL">
<path fill="#FBB71E" stroke="none" d="
M 31.55 46
Q 26 43.45 20.2 45.5 14.4 47.6 11.8 53.15 9.2 58.65 11.3 64.35 13.4 70.05 18.95 72.65 24.55 75.2 30.35 73.1 36.15 71.05 38.75 65.5 41.35 60 39.25 54.3 37.1 48.55 31.55 46 Z"/>
</g>

<g id="Layer0_1_MEMBER_1_MEMBER_6_FILL">
<path fill="#FBB51F" stroke="none" d="
M 31.25 46.6
Q 25.9 44.15 20.4 46.15 14.9 48.15 12.4 53.4 9.95 58.65 11.95 64.1 13.95 69.55 19.25 72.05 24.6 74.5 30.1 72.5 35.6 70.5 38.1 65.25 40.6 60 38.6 54.5 36.6 49.05 31.25 46.6 Z"/>
</g>

<g id="Layer0_1_MEMBER_1_MEMBER_7_FILL">
<path fill="#FAB220" stroke="none" d="
M 30.95 47.25
Q 25.9 44.9 20.65 46.8 15.4 48.7 13.05 53.7 10.7 58.7 12.6 63.9 14.45 69.05 19.55 71.4 24.6 73.75 29.85 71.85 35.15 70 37.5 64.95 39.85 59.95 37.95 54.75 36.05 49.55 30.95 47.25 Z"/>
</g>

<g id="Layer0_1_MEMBER_1_MEMBER_8_FILL">
<path fill="#FAB020" stroke="none" d="
M 30.65 47.85
Q 25.85 45.65 20.85 47.45 15.9 49.25 13.65 54 11.4 58.75 13.2 63.65 15.05 68.6 19.85 70.8 24.65 73 29.65 71.2 34.65 69.45 36.9 64.7 39.15 59.9 37.3 55 35.5 50.1 30.65 47.85 Z"/>
</g>

<g id="Layer0_1_MEMBER_1_MEMBER_9_FILL">
<path fill="#FAAE21" stroke="none" d="
M 30.4 48.45
Q 25.85 46.35 21.1 48.05 16.4 49.75 14.25 54.25 12.15 58.75 13.85 63.45 15.6 68.1 20.15 70.2 24.7 72.3 29.4 70.6 34.1 68.9 36.25 64.4 38.4 59.9 36.7 55.2 35 50.55 30.4 48.45 Z"/>
</g>

<g id="Layer0_1_MEMBER_1_MEMBER_10_FILL">
<path fill="#FAAC22" stroke="none" d="
M 30.1 49.1
Q 25.75 47.1 21.35 48.7 16.9 50.3 14.9 54.55 12.9 58.8 14.5 63.2 16.1 67.6 20.45 69.6 24.75 71.55 29.2 69.95 33.65 68.35 35.65 64.1 37.65 59.85 36 55.45 34.4 51.05 30.1 49.1 Z"/>
</g>

<g id="Layer0_1_MEMBER_1_MEMBER_11_FILL">
<path fill="#F9A922" stroke="none" d="
M 28.95 69.3
Q 33.1 67.8 35 63.8 36.9 59.8 35.4 55.7 33.85 51.55 29.8 49.7 25.75 47.8 21.6 49.35 17.4 50.85 15.5 54.85 13.6 58.85 15.15 62.95 16.65 67.1 20.7 69 24.75 70.85 28.95 69.3 Z"/>
</g>

<g id="Layer0_1_MEMBER_1_MEMBER_12_FILL">
<path fill="#F9A723" stroke="none" d="
M 28.7 68.7
Q 32.65 67.3 34.4 63.5 36.2 59.75 34.75 55.9 33.35 52.05 29.55 50.3 25.75 48.55 21.85 49.95 17.9 51.4 16.15 55.15 14.4 58.9 15.8 62.75 17.2 66.6 21 68.35 24.8 70.1 28.7 68.7 Z"/>
</g>

<g id="Layer0_1_MEMBER_1_MEMBER_13_FILL">
<path fill="#F9A524" stroke="none" d="
M 28.5 68.05
Q 32.15 66.75 33.8 63.25 35.4 59.75 34.1 56.15 32.75 52.5 29.2 50.9 25.7 49.3 22.05 50.6 18.4 51.9 16.75 55.4 15.1 58.9 16.45 62.5 17.75 66.1 21.3 67.75 24.85 69.35 28.5 68.05 Z"/>
</g>

<g id="Layer0_1_MEMBER_1_MEMBER_14_FILL">
<path fill="#F9A324" stroke="none" d="
M 28.25 67.4
Q 31.65 66.2 33.15 62.95 34.7 59.7 33.45 56.35 32.2 53 28.95 51.5 25.7 50 22.3 51.2 18.9 52.45 17.4 55.7 15.85 58.9 17.1 62.25 18.3 65.6 21.55 67.15 24.85 68.65 28.25 67.4 Z"/>
</g>

<g id="Layer0_1_MEMBER_1_MEMBER_15_FILL">
<path fill="#F8A025" stroke="none" d="
M 28 66.75
Q 31.15 65.65 32.55 62.65 33.95 59.7 32.8 56.6 31.65 53.5 28.65 52.15 25.65 50.75 22.5 51.85 19.4 53 18 56 16.6 58.95 17.7 62.05 18.85 65.15 21.9 66.5 24.9 67.9 28 66.75 Z"/>
</g>

<g id="Layer0_1_MEMBER_1_MEMBER_16_FILL">
<path fill="#F89E26" stroke="none" d="
M 27.75 66.15
Q 30.65 65.1 31.9 62.4 33.2 59.65 32.15 56.85 31.1 54 28.35 52.75 25.6 51.45 22.75 52.5 19.9 53.5 18.6 56.25 17.35 59 18.35 61.8 19.4 64.65 22.15 65.9 24.9 67.15 27.75 66.15 Z"/>
</g>

<g id="Layer0_1_MEMBER_1_MEMBER_17_FILL">
<path fill="#F89C26" stroke="none" d="
M 27.55 65.5
Q 30.15 64.55 31.3 62.1 32.5 59.65 31.55 57.05 30.6 54.5 28.1 53.35 25.6 52.2 23 53.15 20.4 54.1 19.2 56.55 18.05 59 19 61.6 19.95 64.15 22.45 65.3 24.95 66.45 27.55 65.5 Z"/>
</g>

<g id="Layer0_1_MEMBER_1_MEMBER_18_FILL">
<path fill="#F89A27" stroke="none" d="
M 27.3 64.85
Q 29.65 64.05 30.65 61.8 31.7 59.6 30.85 57.3 30.05 55 27.8 53.95 25.55 52.95 23.2 53.75 20.85 54.6 19.85 56.85 18.8 59.05 19.65 61.35 20.5 63.65 22.75 64.7 25 65.7 27.3 64.85 Z"/>
</g>

<g id="Layer0_1_MEMBER_1_MEMBER_19_FILL">
<path fill="#F79728" stroke="none" d="
M 27.1 64.25
Q 29.15 63.5 30.05 61.55 31 59.55 30.25 57.55 29.5 55.5 27.5 54.55 25.5 53.65 23.45 54.4 21.4 55.15 20.45 57.1 19.55 59.05 20.3 61.1 21.05 63.1 23.05 64.05 25.05 64.95 27.1 64.25 Z"/>
</g>

<g id="Layer0_1_MEMBER_1_MEMBER_20_FILL">
<path fill="#F79528" stroke="none" d="
M 26.85 63.6
Q 28.65 62.95 29.45 61.25 30.25 59.5 29.6 57.75 28.95 56 27.25 55.2 25.5 54.4 23.7 55.05 21.9 55.7 21.1 57.4 20.3 59.1 20.95 60.9 21.6 62.65 23.3 63.45 25.05 64.25 26.85 63.6 Z"/>
</g>

<g id="Layer0_1_MEMBER_1_MEMBER_21_FILL">
<path fill="#F79329" stroke="none" d="
M 26.6 62.95
Q 28.15 62.45 28.85 60.95 29.5 59.5 28.95 58 28.4 56.5 26.9 55.8 25.45 55.15 23.9 55.65 22.4 56.2 21.7 57.7 21 59.15 21.55 60.65 22.1 62.15 23.6 62.85 25.05 63.5 26.6 62.95 Z"/>
</g>

<g id="Layer0_2_FILL">
<path fill="#FFFFFF" stroke="none" d="
M 25.6 72.75
Q 24 69.05 20.5 67.1 16.15 64.7 11.35 66 6.5 67.35 4.05 71.65 2.5 74.4 2.5 77.5 2.5 80.55 3.95 83.2
L 3.7 83.55
Q 1.25 87.85 2.6 92.6 3.9 97.35 8.25 99.8 11.2 101.4 14.55 101.3 17.75 101.2 20.55 99.5
L 21.45 100.15
Q 25.8 102.6 30.6 101.25 35.4 99.9 37.9 95.6 40.35 91.35 39.05 86.65 37.75 81.9 33.45 79.45 39.75 74.15 47.05 64.5 50.7 59.65 53.1 55.9 48.05 60.85 39.95 65.95 31.4 71.25 25.6 72.75 Z"/>
</g>

<g id="Layer0_3_FILL">
<path fill="#FFFFFF" stroke="none" d="
M 88.9 86.65
Q 87.6 91.35 90.05 95.6 92.55 99.9 97.35 101.25 102.15 102.6 106.5 100.15
L 107.4 99.5
Q 110.2 101.2 113.4 101.3 116.75 101.4 119.7 99.8 124.05 97.35 125.35 92.6 126.7 87.85 124.25 83.55
L 124 83.2
Q 125.45 80.55 125.45 77.5 125.45 74.4 123.9 71.65 121.45 67.35 116.6 66 111.8 64.7 107.45 67.1 103.95 69.05 102.35 72.75 96.55 71.25 88 65.95 79.9 60.85 74.85 55.9
L 80.9 64.5
Q 88.2 74.15 94.5 79.45 90.25 81.9 88.9 86.65 Z"/>
</g>

<g id="Layer0_4_FILL">
<path fill="#2F2F2F" stroke="none" d="
M 83.1 78.3
Q 83.9 79.15 85 79.15 86.15 79.2 87 78.4 87.85 77.65 87.85 76.5 87.9 75.4 87.1 74.55 82.75 69.9 76.7 67.35 70.65 64.8 64 64.8 57.3 64.8 51.25 67.35 45.2 69.9 40.85 74.55 40.05 75.4 40.1 76.5 40.15 77.65 40.95 78.45 41.8 79.2 42.85 79.2 44.05 79.2 44.85 78.3 48.45 74.5 53.45 72.4 58.45 70.3 64 70.3 69.5 70.3 74.5 72.4 79.5 74.5 83.1 78.3 Z"/>
</g>

<path id="Layer0_5_1_STROKES" stroke="#2F2F2F" stroke-width="3" stroke-linejoin="round" stroke-linecap="round" fill="none" d="
M 28.3 28.9
Q 23.75 31.85 18.8 28.9"/>

<path id="Layer0_5_2_STROKES" stroke="#2F2F2F" stroke-width="2" stroke-linejoin="round" stroke-linecap="round" fill="none" d="
M 28.15 23.75
Q 24.85 19.7 19.55 18.6"/>

<path id="Layer0_6_1_STROKES" stroke="#2F2F2F" stroke-width="3" stroke-linejoin="round" stroke-linecap="round" fill="none" d="
M 43.75 28.9
Q 48.3 31.85 53.25 28.9"/>

<path id="Layer0_6_2_STROKES" stroke="#2F2F2F" stroke-width="2" stroke-linejoin="round" stroke-linecap="round" fill="none" d="
M 43.9 23.75
Q 47.2 19.7 52.5 18.6"/>
</defs>

<g id="Layer_1">
<g transform="matrix( 0.5624847412109375, 0, 0, 0.5624847412109375, 0,0) ">
<use xlink:href="#Layer0_0_FILL"/>
</g>

<g transform="matrix( 0.5624237060546875, 0, 0, 0.5624237060546875, 0,0) ">
<use xlink:href="#Layer0_1_MEMBER_0_MEMBER_0_FILL"/>
</g>

<g transform="matrix( 0.5624237060546875, 0, 0, 0.5624237060546875, 0,0) ">
<use xlink:href="#Layer0_1_MEMBER_0_MEMBER_1_FILL"/>
</g>

<g transform="matrix( 0.5624237060546875, 0, 0, 0.5624237060546875, 0,0) ">
<use xlink:href="#Layer0_1_MEMBER_0_MEMBER_2_FILL"/>
</g>

<g transform="matrix( 0.5624237060546875, 0, 0, 0.5624237060546875, 0,0) ">
<use xlink:href="#Layer0_1_MEMBER_0_MEMBER_3_FILL"/>
</g>

<g transform="matrix( 0.5624237060546875, 0, 0, 0.5624237060546875, 0,0) ">
<use xlink:href="#Layer0_1_MEMBER_0_MEMBER_4_FILL"/>
</g>

<g transform="matrix( 0.5624237060546875, 0, 0, 0.5624237060546875, 0,0) ">
<use xlink:href="#Layer0_1_MEMBER_0_MEMBER_5_FILL"/>
</g>

<g transform="matrix( 0.5624237060546875, 0, 0, 0.5624237060546875, 0,0) ">
<use xlink:href="#Layer0_1_MEMBER_0_MEMBER_6_FILL"/>
</g>

<g transform="matrix( 0.5624237060546875, 0, 0, 0.5624237060546875, 0,0) ">
<use xlink:href="#Layer0_1_MEMBER_0_MEMBER_7_FILL"/>
</g>

<g transform="matrix( 0.5624237060546875, 0, 0, 0.5624237060546875, 0,0) ">
<use xlink:href="#Layer0_1_MEMBER_0_MEMBER_8_FILL"/>
</g>

<g transform="matrix( 0.5624237060546875, 0, 0, 0.5624237060546875, 0,0) ">
<use xlink:href="#Layer0_1_MEMBER_0_MEMBER_9_FILL"/>
</g>

<g transform="matrix( 0.5624237060546875, 0, 0, 0.5624237060546875, 0,0) ">
<use xlink:href="#Layer0_1_MEMBER_0_MEMBER_10_FILL"/>
</g>

<g transform="matrix( 0.5624237060546875, 0, 0, 0.5624237060546875, 0,0) ">
<use xlink:href="#Layer0_1_MEMBER_0_MEMBER_11_FILL"/>
</g>

<g transform="matrix( 0.5624237060546875, 0, 0, 0.5624237060546875, 0,0) ">
<use xlink:href="#Layer0_1_MEMBER_0_MEMBER_12_FILL"/>
</g>

<g transform="matrix( 0.5624237060546875, 0, 0, 0.5624237060546875, 0,0) ">
<use xlink:href="#Layer0_1_MEMBER_0_MEMBER_13_FILL"/>
</g>

<g transform="matrix( 0.5624237060546875, 0, 0, 0.5624237060546875, 0,0) ">
<use xlink:href="#Layer0_1_MEMBER_0_MEMBER_14_FILL"/>
</g>

<g transform="matrix( 0.5624237060546875, 0, 0, 0.5624237060546875, 0,0) ">
<use xlink:href="#Layer0_1_MEMBER_0_MEMBER_15_FILL"/>
</g>

<g transform="matrix( 0.5624237060546875, 0, 0, 0.5624237060546875, 0,0) ">
<use xlink:href="#Layer0_1_MEMBER_0_MEMBER_16_FILL"/>
</g>

<g transform="matrix( 0.5624237060546875, 0, 0, 0.5624237060546875, 0,0) ">
<use xlink:href="#Layer0_1_MEMBER_0_MEMBER_17_FILL"/>
</g>

<g transform="matrix( 0.5624237060546875, 0, 0, 0.5624237060546875, 0,0) ">
<use xlink:href="#Layer0_1_MEMBER_0_MEMBER_18_FILL"/>
</g>

<g transform="matrix( 0.5624237060546875, 0, 0, 0.5624237060546875, 0,0) ">
<use xlink:href="#Layer0_1_MEMBER_0_MEMBER_19_FILL"/>
</g>

<g transform="matrix( 0.5624237060546875, 0, 0, 0.5624237060546875, 0,0) ">
<use xlink:href="#Layer0_1_MEMBER_0_MEMBER_20_FILL"/>
</g>

<g transform="matrix( 0.5624237060546875, 0, 0, 0.5624237060546875, 0,0) ">
<use xlink:href="#Layer0_1_MEMBER_0_MEMBER_21_FILL"/>
</g>

<g transform="matrix( 0.5624237060546875, 0, 0, 0.5624237060546875, 0,0) ">
<use xlink:href="#Layer0_1_MEMBER_1_MEMBER_0_FILL"/>
</g>

<g transform="matrix( 0.5624237060546875, 0, 0, 0.5624237060546875, 0,0) ">
<use xlink:href="#Layer0_1_MEMBER_1_MEMBER_1_FILL"/>
</g>

<g transform="matrix( 0.5624237060546875, 0, 0, 0.5624237060546875, 0,0) ">
<use xlink:href="#Layer0_1_MEMBER_1_MEMBER_2_FILL"/>
</g>

<g transform="matrix( 0.5624237060546875, 0, 0, 0.5624237060546875, 0,0) ">
<use xlink:href="#Layer0_1_MEMBER_1_MEMBER_3_FILL"/>
</g>

<g transform="matrix( 0.5624237060546875, 0, 0, 0.5624237060546875, 0,0) ">
<use xlink:href="#Layer0_1_MEMBER_1_MEMBER_4_FILL"/>
</g>

<g transform="matrix( 0.5624237060546875, 0, 0, 0.5624237060546875, 0,0) ">
<use xlink:href="#Layer0_1_MEMBER_1_MEMBER_5_FILL"/>
</g>

<g transform="matrix( 0.5624237060546875, 0, 0, 0.5624237060546875, 0,0) ">
<use xlink:href="#Layer0_1_MEMBER_1_MEMBER_6_FILL"/>
</g>

<g transform="matrix( 0.5624237060546875, 0, 0, 0.5624237060546875, 0,0) ">
<use xlink:href="#Layer0_1_MEMBER_1_MEMBER_7_FILL"/>
</g>

<g transform="matrix( 0.5624237060546875, 0, 0, 0.5624237060546875, 0,0) ">
<use xlink:href="#Layer0_1_MEMBER_1_MEMBER_8_FILL"/>
</g>

<g transform="matrix( 0.5624237060546875, 0, 0, 0.5624237060546875, 0,0) ">
<use xlink:href="#Layer0_1_MEMBER_1_MEMBER_9_FILL"/>
</g>

<g transform="matrix( 0.5624237060546875, 0, 0, 0.5624237060546875, 0,0) ">
<use xlink:href="#Layer0_1_MEMBER_1_MEMBER_10_FILL"/>
</g>

<g transform="matrix( 0.5624237060546875, 0, 0, 0.5624237060546875, 0,0) ">
<use xlink:href="#Layer0_1_MEMBER_1_MEMBER_11_FILL"/>
</g>

<g transform="matrix( 0.5624237060546875, 0, 0, 0.5624237060546875, 0,0) ">
<use xlink:href="#Layer0_1_MEMBER_1_MEMBER_12_FILL"/>
</g>

<g transform="matrix( 0.5624237060546875, 0, 0, 0.5624237060546875, 0,0) ">
<use xlink:href="#Layer0_1_MEMBER_1_MEMBER_13_FILL"/>
</g>

<g transform="matrix( 0.5624237060546875, 0, 0, 0.5624237060546875, 0,0) ">
<use xlink:href="#Layer0_1_MEMBER_1_MEMBER_14_FILL"/>
</g>

<g transform="matrix( 0.5624237060546875, 0, 0, 0.5624237060546875, 0,0) ">
<use xlink:href="#Layer0_1_MEMBER_1_MEMBER_15_FILL"/>
</g>

<g transform="matrix( 0.5624237060546875, 0, 0, 0.5624237060546875, 0,0) ">
<use xlink:href="#Layer0_1_MEMBER_1_MEMBER_16_FILL"/>
</g>

<g transform="matrix( 0.5624237060546875, 0, 0, 0.5624237060546875, 0,0) ">
<use xlink:href="#Layer0_1_MEMBER_1_MEMBER_17_FILL"/>
</g>

<g transform="matrix( 0.5624237060546875, 0, 0, 0.5624237060546875, 0,0) ">
<use xlink:href="#Layer0_1_MEMBER_1_MEMBER_18_FILL"/>
</g>

<g transform="matrix( 0.5624237060546875, 0, 0, 0.5624237060546875, 0,0) ">
<use xlink:href="#Layer0_1_MEMBER_1_MEMBER_19_FILL"/>
</g>

<g transform="matrix( 0.5624237060546875, 0, 0, 0.5624237060546875, 0,0) ">
<use xlink:href="#Layer0_1_MEMBER_1_MEMBER_20_FILL"/>
</g>

<g transform="matrix( 0.5624237060546875, 0, 0, 0.5624237060546875, 0,0) ">
<use xlink:href="#Layer0_1_MEMBER_1_MEMBER_21_FILL"/>
</g>

<g transform="matrix( 0.560333251953125, 0.0489959716796875, -0.0489959716796875, 0.560333251953125, 3.85,-1.15) ">
<use xlink:href="#Layer0_2_FILL"/>
</g>

<g transform="matrix( 0.560333251953125, -0.0489959716796875, 0.0489959716796875, 0.560333251953125, -3.65,5.05) ">
<use xlink:href="#Layer0_3_FILL"/>
</g>

<g transform="matrix( 0.5624847412109375, 0, 0, 0.5624847412109375, 0,0) ">
<use xlink:href="#Layer0_4_FILL"/>
</g>

<g transform="matrix( 1, 0, 0, 1, 0,0) ">
<use xlink:href="#Layer0_5_1_STROKES"/>

<use xlink:href="#Layer0_5_2_STROKES"/>
</g>

<g transform="matrix( 1, 0, 0, 1, 0,0) ">
<use xlink:href="#Layer0_6_1_STROKES"/>

<use xlink:href="#Layer0_6_2_STROKES"/>
</g>
</g>
</svg>
