
<svg xmlns="http://www.w3.org/2000/svg" version="1.1" xmlns:xlink="http://www.w3.org/1999/xlink" preserveAspectRatio="none" x="0px" y="0px" width="72px" height="72px" viewBox="0 0 72 72">
<defs>
<g id="Layer0_0_FILL">
<path fill="#FCC21B" stroke="none" d="
M 36 5.45
Q 13.7 5.45 4.95 26.05 0.15 37.3 0.15 52.5 0.15 58.35 10.7 62.45 21.15 66.6 36 66.6 50.9 66.6 61.4 62.45 71.9 58.35 71.9 52.5 71.9 37.3 67.1 26.05 58.35 5.45 36 5.45 Z"/>
</g>

<g id="Layer0_1_FILL">
<path fill="#2F2F2F" stroke="none" d="
M 46 43.7
Q 44.95 44.65 43.3 45.55 39.9 47.35 35.9 47.35 31.95 47.35 28.6 45.55 25.95 43.75 25.9 43.7 25.35 43.15 24.6 43.1 23.85 43.1 23.3 43.65 22.75 44.2 22.75 44.95 22.75 45.7 23.25 46.25 23.35 46.35 26.7 48.7 30.95 51 35.9 51 40.9 51 45.15 48.7 47.35 47.5 48.6 46.25 49.15 45.7 49.1 44.95 49.1 44.2 48.55 43.65 48 43.1 47.3 43.1 46.5 43.15 46 43.7 Z"/>
</g>

<g id="Layer0_2_MEMBER_0_FILL">
<path fill="#2F2F2F" stroke="none" d="
M 36.05 51.5
Q 33.7 54.4 33.75 58.4 33.8 62.4 36.2 65.25 38.65 68.05 42 68 45.35 68 47.7 65.15 50.05 62.25 50 58.25 49.95 54.25 47.55 51.4 45.15 48.55 41.8 48.6 38.45 48.65 36.05 51.5 Z"/>
</g>

<g id="Layer0_2_MEMBER_1_FILL">
<path fill="#2F2F2F" stroke="none" d="
M 94.2 58.3
Q 94.15 54.3 91.8 51.45 89.4 48.6 86.05 48.65 82.7 48.65 80.3 51.5 77.9 54.35 77.9 58.35 77.95 62.35 80.35 65.2 82.75 68.05 86.1 68 89.45 68 91.8 65.15 94.2 62.3 94.2 58.3 Z"/>
</g>
</defs>

<g transform="matrix( -1, 0, 0, -1, 72.05,72) ">
<use xlink:href="#Layer0_0_FILL"/>
</g>

<g transform="matrix( -1, 0, 0, -1, 71.95,72) ">
<use xlink:href="#Layer0_1_FILL"/>
</g>

<g transform="matrix( -0.5624847412109375, 0, 0, -0.5624847412109375, 72.05,74.5) ">
<use xlink:href="#Layer0_2_MEMBER_0_FILL"/>
</g>

<g transform="matrix( -0.5624847412109375, 0, 0, -0.5624847412109375, 72.05,74.5) ">
<use xlink:href="#Layer0_2_MEMBER_1_FILL"/>
</g>
</svg>
