
<svg xmlns="http://www.w3.org/2000/svg" version="1.1" xmlns:xlink="http://www.w3.org/1999/xlink" preserveAspectRatio="none" x="0px" y="0px" width="72px" height="72px" viewBox="0 0 72 72">
<defs>
<g id="Layer0_0_MEMBER_0_MEMBER_0_MEMBER_0_FILL">
<path fill="#FCC21B" stroke="none" d="
M 121.8 84.8
Q 121.8 60.25 114.05 42.05 99.9 8.7 63.75 8.7 27.65 8.7 13.5 42.05 5.75 60.25 5.75 84.8 5.75 94.25 22.75 100.95 39.75 107.6 63.75 107.6 87.8 107.6 104.8 100.95 121.8 94.25 121.8 84.8 Z"/>
</g>

<g id="Layer0_0_MEMBER_0_MEMBER_0_MEMBER_1_MEMBER_0_FILL">
<path fill="#FCC21B" stroke="none" d="
M 101.9 82.1
Q 108.1 79.85 110.9 73.95 113.7 68.05 111.4 61.9 109.05 55.75 103.1 53 97.1 50.25 90.9 52.5 84.75 54.75 81.95 60.65 79.15 66.55 81.4 72.7 83.75 78.9 89.7 81.6 95.65 84.35 101.9 82.1 Z"/>
</g>

<g id="Layer0_0_MEMBER_0_MEMBER_0_MEMBER_1_MEMBER_1_FILL">
<path fill="#FCC01C" stroke="none" d="
M 101.65 81.5
Q 107.6 79.35 110.25 73.7 112.95 68 110.85 62.1 108.7 56.25 102.95 53.6 97.15 50.95 91.25 53.1 85.25 55.25 82.55 60.95 79.85 66.65 82.05 72.5 84.25 78.4 89.95 81.05 95.7 83.7 101.65 81.5 Z"/>
</g>

<g id="Layer0_0_MEMBER_0_MEMBER_0_MEMBER_1_MEMBER_2_FILL">
<path fill="#FCBE1C" stroke="none" d="
M 101.5 80.95
Q 107.15 78.9 109.75 73.45 112.35 68 110.3 62.35 108.2 56.75 102.7 54.25 97.2 51.7 91.5 53.75 85.7 55.85 83.1 61.3 80.55 66.7 82.65 72.35 84.8 77.95 90.3 80.45 95.8 82.95 101.5 80.95 Z"/>
</g>

<g id="Layer0_0_MEMBER_0_MEMBER_0_MEMBER_1_MEMBER_3_FILL">
<path fill="#FBBB1D" stroke="none" d="
M 101.3 80.35
Q 106.7 78.35 109.2 73.15 111.65 67.9 109.7 62.6 107.7 57.2 102.45 54.8 97.2 52.4 91.7 54.3 86.25 56.3 83.8 61.45 81.35 66.65 83.3 72 85.35 77.4 90.6 79.85 95.85 82.3 101.3 80.35 Z"/>
</g>

<g id="Layer0_0_MEMBER_0_MEMBER_0_MEMBER_1_MEMBER_4_FILL">
<path fill="#FBB91E" stroke="none" d="
M 101 79.7
Q 106.25 77.85 108.55 72.85 110.9 67.9 109 62.8 107.15 57.65 102.1 55.35 97.1 53 91.9 54.9 86.65 56.75 84.35 61.75 82 66.7 83.9 71.8 85.75 76.95 90.8 79.3 95.8 81.6 101 79.7 Z"/>
</g>

<g id="Layer0_0_MEMBER_0_MEMBER_0_MEMBER_1_MEMBER_5_FILL">
<path fill="#FBB71E" stroke="none" d="
M 100.8 79.1
Q 105.75 77.3 107.95 72.6 110.2 67.85 108.35 63 106.6 58.1 101.8 55.9 97 53.7 92.05 55.5 87.1 57.3 84.9 62 82.65 66.75 84.5 71.6 86.3 76.5 91.1 78.7 95.85 80.9 100.8 79.1 Z"/>
</g>

<g id="Layer0_0_MEMBER_0_MEMBER_0_MEMBER_1_MEMBER_6_FILL">
<path fill="#FBB51F" stroke="none" d="
M 100.55 78.5
Q 105.3 76.8 107.4 72.35 109.5 67.9 107.75 63.25 106.05 58.6 101.45 56.55 96.9 54.5 92.25 56.15 87.55 57.9 85.45 62.35 83.35 66.8 85.05 71.45 86.8 76.05 91.3 78.1 95.8 80.15 100.55 78.5 Z"/>
</g>

<g id="Layer0_0_MEMBER_0_MEMBER_0_MEMBER_1_MEMBER_7_FILL">
<path fill="#FAB220" stroke="none" d="
M 100.4 77.95
Q 104.85 76.25 106.8 72.05 108.75 67.85 107.2 63.3 105.65 58.95 101.35 57 97.05 55 92.6 56.6 88.2 58.25 86.2 62.5 84.2 66.75 85.8 71.1 87.35 75.5 91.7 77.5 95.95 79.5 100.4 77.95 Z"/>
</g>

<g id="Layer0_0_MEMBER_0_MEMBER_0_MEMBER_1_MEMBER_8_FILL">
<path fill="#FAB020" stroke="none" d="
M 100.15 77.35
Q 104.3 75.85 106.15 71.85 108.05 67.85 106.55 63.75 105.05 59.65 101 57.8 96.95 55.95 92.75 57.45 88.55 58.95 86.7 62.9 84.85 66.85 86.35 71 87.85 75.15 91.9 77 95.95 78.85 100.15 77.35 Z"/>
</g>

<g id="Layer0_0_MEMBER_0_MEMBER_0_MEMBER_1_MEMBER_9_FILL">
<path fill="#FAAE21" stroke="none" d="
M 99.9 76.7
Q 103.85 75.3 105.6 71.5 107.4 67.7 105.9 63.9 104.4 60 100.6 58.25 96.75 56.5 92.9 57.9 89 59.35 87.25 63.05 85.5 66.8 86.9 70.7 88.4 74.6 92.15 76.35 95.9 78.1 99.9 76.7 Z"/>
</g>

<g id="Layer0_0_MEMBER_0_MEMBER_0_MEMBER_1_MEMBER_10_FILL">
<path fill="#FAAC22" stroke="none" d="
M 99.65 76.1
Q 103.35 74.8 105 71.25 106.7 67.75 105.35 64.1 104 60.45 100.45 58.85 96.95 57.2 93.25 58.5 89.5 59.85 87.85 63.4 86.2 66.9 87.55 70.5 88.9 74.2 92.45 75.85 96 77.5 99.65 76.1 Z"/>
</g>

<g id="Layer0_0_MEMBER_0_MEMBER_0_MEMBER_1_MEMBER_11_FILL">
<path fill="#F9A922" stroke="none" d="
M 99.5 75.5
Q 102.9 74.25 104.45 71 106 67.75 104.8 64.35 103.5 61 100.2 59.45 96.9 57.95 93.5 59.15 90 60.4 88.45 63.7 86.9 66.95 88.15 70.35 89.45 73.7 92.75 75.2 96.05 76.7 99.5 75.5 Z"/>
</g>

<g id="Layer0_0_MEMBER_0_MEMBER_0_MEMBER_1_MEMBER_12_FILL">
<path fill="#F9A723" stroke="none" d="
M 99.3 74.95
Q 102.45 73.75 103.85 70.7 105.3 67.7 104.2 64.6 103 61.45 99.95 60.05 96.85 58.65 93.7 59.8 90.5 60.9 89.1 63.95 87.65 66.95 88.8 70.1 90 73.25 93.1 74.7 96.15 76.1 99.3 74.95 Z"/>
</g>

<g id="Layer0_0_MEMBER_0_MEMBER_0_MEMBER_1_MEMBER_13_FILL">
<path fill="#F9A524" stroke="none" d="
M 99 74.2
Q 101.95 73.2 103.3 70.4 104.6 67.6 103.5 64.7 102.4 61.85 99.6 60.55 96.8 59.25 93.9 60.3 91 61.4 89.65 64.15 88.35 66.95 89.4 69.8 90.45 72.65 93.25 73.95 96.05 75.25 99 74.2 Z"/>
</g>

<g id="Layer0_0_MEMBER_0_MEMBER_0_MEMBER_1_MEMBER_14_FILL">
<path fill="#F9A324" stroke="none" d="
M 98.8 73.6
Q 101.45 72.75 102.65 70.2 103.85 67.65 102.9 65 101.9 62.3 99.3 61.1 96.75 59.95 94.05 60.9 91.4 61.9 90.2 64.45 89 67 90 69.6 91 72.25 93.55 73.4 96.1 74.6 98.8 73.6 Z"/>
</g>

<g id="Layer0_0_MEMBER_0_MEMBER_0_MEMBER_1_MEMBER_15_FILL">
<path fill="#F8A025" stroke="none" d="
M 98.55 73
Q 101 72.2 102.1 69.9 103.2 67.6 102.25 65.1 101.35 62.75 99 61.65 96.65 60.55 94.25 61.45 91.85 62.35 90.75 64.65 89.7 66.95 90.55 69.35 91.45 71.7 93.8 72.8 96.2 73.9 98.55 73 Z"/>
</g>

<g id="Layer0_0_MEMBER_0_MEMBER_0_MEMBER_1_MEMBER_16_FILL">
<path fill="#F89E26" stroke="none" d="
M 98.4 72.45
Q 100.6 71.7 101.55 69.65 102.5 67.6 101.7 65.45 100.95 63.25 98.85 62.3 96.8 61.35 94.6 62.1 92.45 62.85 91.5 64.9 90.55 66.9 91.3 69.1 92.05 71.25 94.15 72.25 96.2 73.2 98.4 72.45 Z"/>
</g>

<g id="Layer0_0_MEMBER_0_MEMBER_0_MEMBER_1_MEMBER_17_FILL">
<path fill="#F89C26" stroke="none" d="
M 98.15 71.85
Q 100.05 71.15 100.9 69.35 101.75 67.45 101.05 65.6 100.35 63.75 98.5 62.9 96.6 62.05 94.75 62.75 92.9 63.45 92.05 65.25 91.2 67.05 91.85 68.95 92.55 70.85 94.35 71.7 96.2 72.55 98.15 71.85 Z"/>
</g>

<g id="Layer0_0_MEMBER_0_MEMBER_0_MEMBER_1_MEMBER_18_FILL">
<path fill="#F89A27" stroke="none" d="
M 97.9 71.2
Q 99.55 70.65 100.3 69.05 101.05 67.45 100.4 65.8 99.75 64.15 98.15 63.45 96.5 62.7 94.9 63.3 93.25 63.9 92.5 65.5 91.75 67.05 92.4 68.7 93 70.35 94.65 71.1 96.25 71.8 97.9 71.2 Z"/>
</g>

<g id="Layer0_0_MEMBER_0_MEMBER_0_MEMBER_1_MEMBER_19_FILL">
<path fill="#F79728" stroke="none" d="
M 97.65 70.6
Q 99.1 70.15 99.75 68.8 100.4 67.45 99.85 66 99.3 64.65 98 64.05 96.65 63.45 95.25 63.95 93.85 64.45 93.2 65.75 92.55 67.1 93.05 68.5 93.6 69.85 94.9 70.5 96.25 71.1 97.65 70.6 Z"/>
</g>

<g id="Layer0_0_MEMBER_0_MEMBER_0_MEMBER_1_MEMBER_20_FILL">
<path fill="#F79528" stroke="none" d="
M 97.5 70
Q 98.6 69.65 99.15 68.55 99.7 67.5 99.3 66.35 98.8 65.15 97.7 64.6 96.65 64.1 95.5 64.5 94.25 65 93.75 66.1 93.2 67.2 93.65 68.35 94.15 69.5 95.25 69.95 96.4 70.45 97.5 70 Z"/>
</g>

<g id="Layer0_0_MEMBER_0_MEMBER_0_MEMBER_1_MEMBER_21_FILL">
<path fill="#F79329" stroke="none" d="
M 97.3 69.45
Q 98.2 69.1 98.6 68.25 98.95 67.4 98.7 66.5 98.35 65.6 97.45 65.2 96.6 64.8 95.7 65.1 94.8 65.4 94.4 66.25 94 67.15 94.3 68 94.65 68.95 95.55 69.35 96.4 69.75 97.3 69.45 Z"/>
</g>

<g id="Layer0_0_MEMBER_0_MEMBER_0_MEMBER_2_MEMBER_0_FILL">
<path fill="#FCC21B" stroke="none" d="
M 36.6 52.4
Q 30.6 49.65 24.4 51.9 18.25 54.15 15.45 60.05 12.65 65.95 14.9 72.1 17.2 78.3 23.2 81 29.15 83.75 35.4 81.5 41.65 79.25 44.45 73.35 47.2 67.45 44.9 61.3 42.55 55.15 36.6 52.4 Z"/>
</g>

<g id="Layer0_0_MEMBER_0_MEMBER_0_MEMBER_2_MEMBER_1_FILL">
<path fill="#FCC01C" stroke="none" d="
M 36.4 53.05
Q 30.65 50.45 24.7 52.5 18.75 54.7 16.1 60.4 13.45 66.05 15.6 71.95 17.8 77.8 23.5 80.45 29.2 83.1 35.2 80.95 41.1 78.75 43.8 73.05 46.45 67.35 44.3 61.5 42.15 55.7 36.4 53.05 Z"/>
</g>

<g id="Layer0_0_MEMBER_0_MEMBER_0_MEMBER_2_MEMBER_2_FILL">
<path fill="#FCBE1C" stroke="none" d="
M 36.2 53.65
Q 30.7 51.1 25 53.15 19.25 55.25 16.65 60.7 14.1 66.1 16.2 71.75 18.3 77.35 23.8 79.85 29.25 82.35 35 80.35 40.65 78.2 43.25 72.8 45.8 67.35 43.75 61.85 41.7 56.2 36.2 53.65 Z"/>
</g>

<g id="Layer0_0_MEMBER_0_MEMBER_0_MEMBER_2_MEMBER_3_FILL">
<path fill="#FBBB1D" stroke="none" d="
M 35.9 54.2
Q 30.65 51.75 25.15 53.7 19.7 55.65 17.25 60.85 14.8 66 16.75 71.4 18.8 76.8 24.05 79.25 29.3 81.65 34.75 79.7 40.2 77.75 42.65 72.55 45.1 67.35 43.15 62 41.15 56.6 35.9 54.2 Z"/>
</g>

<g id="Layer0_0_MEMBER_0_MEMBER_0_MEMBER_2_MEMBER_4_FILL">
<path fill="#FBB91E" stroke="none" d="
M 35.6 54.75
Q 30.55 52.4 25.35 54.3 20.1 56.15 17.8 61.15 15.45 66.1 17.35 71.2 19.2 76.35 24.3 78.7 29.3 81 34.5 79.1 39.75 77.25 42.05 72.25 44.4 67.3 42.5 62.2 40.65 57.05 35.6 54.75 Z"/>
</g>

<g id="Layer0_0_MEMBER_0_MEMBER_0_MEMBER_2_MEMBER_5_FILL">
<path fill="#FBB71E" stroke="none" d="
M 35.35 55.35
Q 30.55 53.1 25.6 54.95 20.65 56.7 18.45 61.4 16.2 66.1 18 71 19.75 75.9 24.55 78.1 29.3 80.35 34.25 78.5 39.25 76.7 41.45 72 43.65 67.35 41.9 62.45 40.1 57.55 35.35 55.35 Z"/>
</g>

<g id="Layer0_0_MEMBER_0_MEMBER_0_MEMBER_2_MEMBER_6_FILL">
<path fill="#FBB51F" stroke="none" d="
M 35 55.95
Q 30.45 53.9 25.75 55.55 21.05 57.3 18.95 61.75 16.85 66.2 18.55 70.85 20.25 75.45 24.8 77.5 29.3 79.55 34.05 77.95 38.75 76.2 40.85 71.75 42.95 67.3 41.25 62.65 39.55 58 35 55.95 Z"/>
</g>

<g id="Layer0_0_MEMBER_0_MEMBER_0_MEMBER_2_MEMBER_7_FILL">
<path fill="#FAB220" stroke="none" d="
M 33.9 77.35
Q 38.3 75.65 40.25 71.45 42.25 67.2 40.7 62.8 39.05 58.45 34.8 56.5 30.5 54.55 26.1 56.15 21.7 57.8 19.7 62.05 17.7 66.3 19.3 70.65 20.85 75 25.2 76.95 29.45 78.95 33.9 77.35 Z"/>
</g>

<g id="Layer0_0_MEMBER_0_MEMBER_0_MEMBER_2_MEMBER_8_FILL">
<path fill="#FAB020" stroke="none" d="
M 33.7 76.7
Q 37.8 75.2 39.7 71.25 41.55 67.25 40.1 63.2 38.6 59 34.55 57.15 30.5 55.3 26.3 56.8 22.1 58.3 20.25 62.3 18.4 66.25 19.9 70.4 21.4 74.5 25.45 76.35 29.5 78.2 33.7 76.7 Z"/>
</g>

<g id="Layer0_0_MEMBER_0_MEMBER_0_MEMBER_2_MEMBER_9_FILL">
<path fill="#FAAE21" stroke="none" d="
M 33.4 76.1
Q 37.4 74.7 39.15 70.9 40.9 67.15 39.4 63.3 37.9 59.4 34.1 57.65 30.3 55.9 26.4 57.3 22.5 58.75 20.75 62.5 19 66.25 20.4 70.1 21.9 74 25.65 75.75 29.45 77.5 33.4 76.1 Z"/>
</g>

<g id="Layer0_0_MEMBER_0_MEMBER_0_MEMBER_2_MEMBER_10_FILL">
<path fill="#FAAC22" stroke="none" d="
M 33.2 75.5
Q 36.85 74.15 38.5 70.65 40.15 67.15 38.9 63.5 37.5 59.85 33.95 58.25 30.4 56.6 26.75 57.95 23.05 59.3 21.4 62.8 19.75 66.3 21.1 69.95 22.45 73.65 26 75.25 29.55 76.9 33.2 75.5 Z"/>
</g>

<g id="Layer0_0_MEMBER_0_MEMBER_0_MEMBER_2_MEMBER_11_FILL">
<path fill="#F9A922" stroke="none" d="
M 33 74.95
Q 36.4 73.65 37.95 70.35 39.5 67.1 38.25 63.75 37 60.35 33.7 58.85 30.45 57.35 27 58.55 23.55 59.85 22 63.1 20.45 66.4 21.7 69.75 22.95 73.1 26.25 74.6 29.5 76.1 33 74.95 Z"/>
</g>

<g id="Layer0_0_MEMBER_0_MEMBER_0_MEMBER_2_MEMBER_12_FILL">
<path fill="#F9A723" stroke="none" d="
M 32.75 74.2
Q 35.95 73.1 37.4 70.05 38.8 67.05 37.65 63.9 36.45 60.75 33.4 59.35 30.3 57.95 27.15 59.1 23.95 60.2 22.55 63.25 21.1 66.25 22.25 69.4 23.45 72.55 26.55 73.95 29.6 75.35 32.75 74.2 Z"/>
</g>

<g id="Layer0_0_MEMBER_0_MEMBER_0_MEMBER_2_MEMBER_13_FILL">
<path fill="#F9A524" stroke="none" d="
M 32.5 73.6
Q 35.45 72.55 36.75 69.8 38.05 67 37 64.1 35.9 61.25 33.1 59.95 30.25 58.65 27.35 59.7 24.45 60.75 23.15 63.55 21.85 66.35 22.85 69.2 23.9 72.05 26.75 73.35 29.6 74.65 32.5 73.6 Z"/>
</g>

<g id="Layer0_0_MEMBER_0_MEMBER_0_MEMBER_2_MEMBER_14_FILL">
<path fill="#F9A324" stroke="none" d="
M 32.25 73
Q 34.95 72.15 36.2 69.6 37.4 67.05 36.4 64.35 35.4 61.7 32.85 60.5 30.3 59.35 27.6 60.3 24.9 61.25 23.7 63.85 22.5 66.35 23.5 69 24.45 71.65 27 72.8 29.55 74 32.25 73 Z"/>
</g>

<g id="Layer0_0_MEMBER_0_MEMBER_0_MEMBER_2_MEMBER_15_FILL">
<path fill="#F8A025" stroke="none" d="
M 32.05 72.45
Q 34.5 71.6 35.55 69.3 36.7 67 35.75 64.5 34.85 62.1 32.5 61.05 30.15 59.95 27.75 60.85 25.35 61.75 24.25 64.05 23.15 66.35 24.05 68.75 24.95 71.15 27.3 72.25 29.65 73.3 32.05 72.45 Z"/>
</g>

<g id="Layer0_0_MEMBER_0_MEMBER_0_MEMBER_2_MEMBER_16_FILL">
<path fill="#F89E26" stroke="none" d="
M 31.85 71.85
Q 34 71.1 35 69 35.95 66.95 35.15 64.85 34.4 62.7 32.3 61.7 30.25 60.75 28.05 61.5 25.9 62.25 24.95 64.35 24 66.4 24.75 68.5 25.5 70.7 27.6 71.65 29.7 72.6 31.85 71.85 Z"/>
</g>

<g id="Layer0_0_MEMBER_0_MEMBER_0_MEMBER_2_MEMBER_17_FILL">
<path fill="#F89C26" stroke="none" d="
M 31.7 71.2
Q 33.55 70.55 34.45 68.7 35.3 66.9 34.6 65 33.95 63.15 32.05 62.3 30.2 61.4 28.3 62.1 26.45 62.8 25.6 64.6 24.75 66.4 25.4 68.3 26.1 70.2 27.9 71.05 29.75 71.9 31.7 71.2 Z"/>
</g>

<g id="Layer0_0_MEMBER_0_MEMBER_0_MEMBER_2_MEMBER_18_FILL">
<path fill="#F89A27" stroke="none" d="
M 31.35 70.6
Q 33 70.05 33.75 68.45 34.55 66.9 33.9 65.2 33.25 63.55 31.65 62.85 30.05 62.1 28.35 62.7 26.7 63.3 26 64.9 25.3 66.45 25.85 68.1 26.5 69.75 28.1 70.5 29.7 71.25 31.35 70.6 Z"/>
</g>

<g id="Layer0_0_MEMBER_0_MEMBER_0_MEMBER_2_MEMBER_19_FILL">
<path fill="#F79728" stroke="none" d="
M 31.2 70
Q 32.6 69.6 33.2 68.25 33.85 66.9 33.4 65.45 32.85 64.1 31.55 63.45 30.2 62.85 28.8 63.35 27.35 63.85 26.7 65.2 26.05 66.55 26.6 67.95 27.15 69.3 28.45 69.9 29.8 70.5 31.2 70 Z"/>
</g>

<g id="Layer0_0_MEMBER_0_MEMBER_0_MEMBER_2_MEMBER_20_FILL">
<path fill="#F79528" stroke="none" d="
M 31 69.45
Q 32.1 69.1 32.65 67.95 33.15 66.85 32.75 65.65 32.35 64.5 31.25 64 30.1 63.5 29 63.95 27.8 64.4 27.3 65.5 26.75 66.65 27.2 67.75 27.6 68.85 28.75 69.35 29.85 69.85 31 69.45 Z"/>
</g>

<g id="Layer0_0_MEMBER_0_MEMBER_0_MEMBER_2_MEMBER_21_FILL">
<path fill="#F79329" stroke="none" d="
M 30.75 68.85
Q 31.65 68.55 32.05 67.7 32.45 66.85 32.15 65.95 31.8 65 30.9 64.6 30.05 64.2 29.15 64.5 28.3 64.85 27.85 65.7 27.45 66.55 27.75 67.45 28.15 68.35 29 68.75 29.85 69.15 30.75 68.85 Z"/>
</g>

<g id="Layer0_0_MEMBER_0_MEMBER_0_MEMBER_3_FILL">
<path fill="#2F2F2F" stroke="none" d="
M 33.05 57.95
Q 33.85 56.45 35.3 55.05 38.1 52.3 41.7 52.25 45.45 52.25 48.3 54.95 49.75 56.3 50.5 57.8 51.05 59 52.55 59 53.35 59 53.85 58.75 54.75 58.2 55.05 57.2 55.3 56.2 54.75 55.3 53.65 53.1 51.5 51.1 47.35 47.3 41.75 47.3 36.25 47.3 32.05 51.2 29.95 53.15 28.75 55.3 28.25 56.2 28.5 57.2 28.75 58.2 29.65 58.75 30.55 59.3 31.55 59.05 32.55 58.85 33.05 57.95 Z"/>
</g>

<g id="Layer0_0_MEMBER_0_MEMBER_0_MEMBER_4_FILL">
<path fill="#2F2F2F" stroke="none" d="
M 98.4 58.75
Q 99.3 58.15 99.55 57.2 99.75 56.2 99.15 55.3 97.7 52.7 95.85 51.05 91.75 47.3 86.15 47.3 80.6 47.3 76.5 51.05 74.6 52.8 73.15 55.3 72.65 56.2 72.95 57.2 73.2 58.2 74.05 58.75 75 59.25 76 58.95 77 58.7 77.5 57.8
L 79.6 55
Q 82.5 52.25 86.3 52.25 90.05 52.25 92.9 54.95 94.35 56.3 95.1 57.8 95.7 59 97.2 59 97.9 59 98.4 58.75 Z"/>
</g>

<g id="Layer0_0_MEMBER_0_MEMBER_1_FILL">
<path fill="#2F2F2F" stroke="none" d="
M 81.6 79.15
Q 85.4 76.55 87.4 73.6 88.05 72.6 87.8 71.45 87.55 70.25 86.55 69.6 85.5 68.95 84.35 69.2 83.15 69.45 82.5 70.45 81.3 72.4 77.85 74.65 71.9 78.5 64.25 78.5 55.9 78.5 49.9 74.45 47.95 73.15 46.5 71.6 45.9 71 45.25 70.1 44.5 69.15 43.3 68.95 42.1 68.75 41.15 69.5 40.15 70.25 40 71.45 39.8 72.65 40.55 73.6 40.65 73.7 42.1 75.45 44 77.45 46.4 79.15 54 84.35 64.05 84.35 74.05 84.35 81.6 79.15 Z"/>
</g>

<g id="Layer0_0_MEMBER_1_MEMBER_0_MEMBER_0_FILL">
<path fill="#FAC036" stroke="none" d="
M 18 76.4
Q 16.05 76.4 14.4 77.9 12.35 79.95 13.2 82.6
L 13.1 82.5
Q 11.5 81.2 9.7 81.2 8.5 81.2 7.35 81.85 6.15 82.45 5.5 83.5 4.6 85 4.9 86.8 5.15 88.4 6.3 89.8 4.15 90.25 2.7 92.3 1.6 94 2.4 96.15 3.1 97.95 4.6 99.1 4.9 99.4 6 100 4.4 100.65 3.6 102.5 2.85 104.45 3.75 106.3 4.55 107.95 6.3 108.95
L 9.35 110.6
Q 12.95 112.45 15.5 113.5 15.7 113.5 17.2 114.3 19.15 115.3 21.2 116.7 25.4 119.7 30.7 119.7 34.7 119.7 37.35 118.2 41.25 116.6 43.6 114.3 46.95 111 48.15 105.7 48.75 102.9 48.55 99.95 48.3 96.95 47.35 94.7 46.25 92.4 44.45 90 42.8 87.8 42.35 86.6 41.6 84.65 40.75 83.6 39.3 81.8 37.05 81.8 34.75 81.8 33.35 83.6 31.55 85.85 32.35 88.7 32.5 89.6 32.95 90.4
L 30.55 87.8
Q 29.4 86.4 21.75 78.2 20.05 76.4 18 76.4 Z"/>
</g>

<g id="Layer0_0_MEMBER_1_MEMBER_0_MEMBER_1_FILL">
<path fill="#2F2F2F" stroke="none" d="
M 13.1 76.7
Q 11.75 77.9 11.3 79.6 10.55 79.45 9.65 79.45 7.9 79.45 6.35 80.25 4.7 81.1 3.75 82.5 1.8 85.3 3.25 88.95 2 89.7 0.85 91.35 -0.5 93.5 0.1 96.1 0.65 98.45 2.55 100.25 1.9 101.05 1.65 101.95 0.6 104.5 1.85 107.1 2.95 109.4 5.25 110.75 5.3 110.75 8.5 112.5 12.2 114.5 14.75 115.55
L 16.3 116.3
Q 18.2 117.3 20.05 118.55 24.85 121.85 30.75 121.85 34.45 121.85 38.05 120.45 42.35 118.75 45 116.15 48.7 112.45 50.05 106.55 50.75 103.5 50.5 100.15 50.3 96.8 49.15 94.25 48.5 92.8 47.55 91.35 46.5 89.8 46.05 89.15 44.65 87.2 44.25 86.15 43.2 83.7 42.2 82.55 40.2 80.15 37.2 80.15
L 37.1 80.15
Q 33.75 80.15 31.9 82.75 31.2 83.75 30.7 85.05
L 23.4 77.05
Q 20.85 74.6 18 74.6 15.2 74.6 13.1 76.7
M 15.85 79.5
Q 16.75 78.6 18 78.6 19.2 78.6 20.25 79.8
L 29.05 89.4
Q 29.65 90.1 31.35 92
L 34.35 95.1 34.9 95.55
Q 35.6 96 36.15 96 37.2 96 37.85 94.4 37.2 93.25 35.7 91.3 34.6 89.8 34.25 88.6 33.85 86.9 34.7 85.55 35.55 84.2 37 84.2 38.2 84.2 39.05 85.15 39.65 85.9 40.4 87.7 41.05 89.3 42.75 91.6 44.55 94 45.4 95.9 46.3 97.8 46.45 100.6 46.65 103.25 46.1 105.7 45.05 110.3 42.4 113.05 40.25 115.25 36.5 116.8 33.75 117.9 30.7 117.9 26.15 117.9 22.3 115.3 20.2 113.8 18.05 112.7
L 16.3 111.9
Q 12.7 110.4 7.3 107.4 6.3 106.85 5.7 105.85 4.95 104.65 5.4 103.5 6.1 101.8 7.8 101.8 8.75 101.8 9.5 102.3 16.1 105.9 17.5 106.6 18.2 106.4 18.25 106 18.45 105.4 17.85 104.7 16.45 103.75 11.05 100.65 5.9 97.7 5.65 97.5 4.75 96.9 4.25 95.75 3.65 94.4 4.25 93.45 5.25 91.85 7 91.85 7.9 91.85 8.65 92.45
L 19.75 99.75
Q 20.2 99.7 20.55 99.4 21.3 98.9 20.85 97.95 17.5 95.75 13.4 92.95 8.45 89.5 8 88.95 7.15 88.1 6.8 87.05 6.35 85.75 7.05 84.75 8.1 83.35 9.65 83.35 10.9 83.35 11.75 84.15
L 24.15 94.35 24.55 94.35
Q 25.65 94.35 25.55 93 23.35 90.95 21.1 88.75 16.55 84.4 16.15 83.95 15.35 82.95 15.15 81.9 14.85 80.45 15.85 79.5 Z"/>
</g>

<g id="Layer0_0_MEMBER_1_MEMBER_1_MEMBER_0_FILL">
<path fill="#FAC036" stroke="none" d="
M 85.7 86.8
Q 85.05 88.2 83.6 90.2 81.55 92.95 80.7 94.9 79.7 97.2 79.5 100.15 79.25 103.2 79.9 105.9 81.1 111.2 84.45 114.5 86.8 116.8 90.7 118.4 93.95 119.7 97.3 119.7 102.55 119.7 106.9 116.7 110.05 114.5 112.55 113.5 116.65 111.9 121.75 108.9 123.45 107.8 124.25 106.2 125.2 104.3 124.45 102.5 123.65 100.75 122.05 100
L 123.45 99.1
Q 125 98 125.7 96.15 126.45 94.05 125.35 92.3 123.95 90.1 121.75 89.8 122.95 88.4 123.25 86.75 123.6 84.9 122.55 83.5 121.9 82.5 120.8 81.9 119.65 81.3 118.4 81.3 116.45 81.3 115 82.6 115 82.7 114.9 82.7 115.75 79.9 113.7 78 112.05 76.5 110.1 76.5 108 76.5 106.3 78.3 98.65 86.5 97.5 87.9 97 88.6 95.3 90.4
L 95.1 90.6 95.7 88.9
Q 96.35 85.9 94.7 83.8 93.25 82 91 82 88.8 82.05 87.3 83.9 86.45 84.9 85.7 86.8 Z"/>
</g>

<g id="Layer0_0_MEMBER_1_MEMBER_1_MEMBER_1_FILL">
<path fill="#2F2F2F" stroke="none" d="
M 97.5 85
Q 96.85 83.55 96.3 82.7 94.3 80.1 91 80.1
L 90.9 80.1
Q 87.9 80.15 85.85 82.55 84.85 83.7 83.8 86.1 83.4 87.15 82 89.1 80.1 91.5 78.9 94.2 77.8 96.75 77.55 100.1 77.3 103.45 78 106.5 79.35 112.45 83.05 116.1 85.7 118.7 90 120.45 93.95 121.85 97.3 121.85 103 121.85 108 118.5 111 116.45 113.3 115.5 116 114.45 119.6 112.55 122.65 110.9 122.8 110.7 125.1 109.4 126.2 107.1 127.45 104.5 126.4 101.9 126.25 101.45 125.5 100.2 127.4 98.45 127.95 96.05 128.55 93.45 127.15 91.3 126.25 89.8 124.75 88.9 126.2 85.3 124.25 82.5 123.3 81.1 121.7 80.25 120.1 79.4 118.35 79.4 117.75 79.4 116.75 79.6 116.3 77.9 114.95 76.7 112.7 74.6 110 74.6 107 74.6 104.8 77 98.3 84.1 97.5 85
M 89 85
Q 89.85 84 91.05 84 92.5 84 93.35 85.35 94.2 86.7 93.75 88.45 93.45 89.65 92.35 91.1 90.75 93.25 90.15 94.25 90.7 95.85 91.85 95.85 92.75 95.85 93.65 94.95
L 98.95 89.25
Q 106.95 80.45 107.75 79.65 108.9 78.6 110 78.6 111.15 78.6 112.15 79.6 113.15 80.55 112.85 81.95 112.65 83 111.85 84 111.25 84.85 102.45 93.1 102.35 94.45 103.45 94.45
L 103.85 94.45
Q 106.35 92.25 116.25 84.25 117.05 83.45 118.35 83.45 120 83.45 120.95 84.85 121.6 85.85 121.2 87.2 120.8 88.3 120.05 89 119.5 89.6 114.55 93 110.15 96.05 107.15 98 106.7 98.95 107.45 99.5 107.8 99.75 108.25 99.85
L 119.35 92.5
Q 120.2 91.95 121.05 91.95 122.7 91.95 123.75 93.5 124.35 94.5 123.75 95.85 123.25 97 122.35 97.6 121.25 98.55 110.15 104.5 109.45 105.35 109.75 105.85 109.95 106.35 110.55 106.45 114.7 104.4 118.55 102.1 119.55 101.6 120.25 101.6 122.05 101.6 122.65 103.3 123.15 104.45 122.4 105.65 121.75 106.65 120.75 107.2 119.85 107.75 117.3 109.1 114.1 110.7 111.75 111.7 109.15 112.8 105.75 115.1 102.1 117.7 97.35 117.7 94.3 117.7 91.55 116.6 87.8 115.05 85.65 112.85 83 110.1 81.95 105.5 81.4 103.1 81.6 100.45 81.75 97.75 82.65 95.7 83.45 93.8 85.25 91.4 87 89.05 87.65 87.5 88.3 85.8 89 85 Z"/>
</g>
</defs>

<g id="Layer_1">
<g transform="matrix( 0.5625, 0, 0, 0.5625, 0,0) ">
<use xlink:href="#Layer0_0_MEMBER_0_MEMBER_0_MEMBER_0_FILL"/>
</g>

<g transform="matrix( 0.5625, 0, 0, 0.5625, 0,0) ">
<use xlink:href="#Layer0_0_MEMBER_0_MEMBER_0_MEMBER_1_MEMBER_0_FILL"/>
</g>

<g transform="matrix( 0.5625, 0, 0, 0.5625, 0,0) ">
<use xlink:href="#Layer0_0_MEMBER_0_MEMBER_0_MEMBER_1_MEMBER_1_FILL"/>
</g>

<g transform="matrix( 0.5625, 0, 0, 0.5625, 0,0) ">
<use xlink:href="#Layer0_0_MEMBER_0_MEMBER_0_MEMBER_1_MEMBER_2_FILL"/>
</g>

<g transform="matrix( 0.5625, 0, 0, 0.5625, 0,0) ">
<use xlink:href="#Layer0_0_MEMBER_0_MEMBER_0_MEMBER_1_MEMBER_3_FILL"/>
</g>

<g transform="matrix( 0.5625, 0, 0, 0.5625, 0,0) ">
<use xlink:href="#Layer0_0_MEMBER_0_MEMBER_0_MEMBER_1_MEMBER_4_FILL"/>
</g>

<g transform="matrix( 0.5625, 0, 0, 0.5625, 0,0) ">
<use xlink:href="#Layer0_0_MEMBER_0_MEMBER_0_MEMBER_1_MEMBER_5_FILL"/>
</g>

<g transform="matrix( 0.5625, 0, 0, 0.5625, 0,0) ">
<use xlink:href="#Layer0_0_MEMBER_0_MEMBER_0_MEMBER_1_MEMBER_6_FILL"/>
</g>

<g transform="matrix( 0.5625, 0, 0, 0.5625, 0,0) ">
<use xlink:href="#Layer0_0_MEMBER_0_MEMBER_0_MEMBER_1_MEMBER_7_FILL"/>
</g>

<g transform="matrix( 0.5625, 0, 0, 0.5625, 0,0) ">
<use xlink:href="#Layer0_0_MEMBER_0_MEMBER_0_MEMBER_1_MEMBER_8_FILL"/>
</g>

<g transform="matrix( 0.5625, 0, 0, 0.5625, 0,0) ">
<use xlink:href="#Layer0_0_MEMBER_0_MEMBER_0_MEMBER_1_MEMBER_9_FILL"/>
</g>

<g transform="matrix( 0.5625, 0, 0, 0.5625, 0,0) ">
<use xlink:href="#Layer0_0_MEMBER_0_MEMBER_0_MEMBER_1_MEMBER_10_FILL"/>
</g>

<g transform="matrix( 0.5625, 0, 0, 0.5625, 0,0) ">
<use xlink:href="#Layer0_0_MEMBER_0_MEMBER_0_MEMBER_1_MEMBER_11_FILL"/>
</g>

<g transform="matrix( 0.5625, 0, 0, 0.5625, 0,0) ">
<use xlink:href="#Layer0_0_MEMBER_0_MEMBER_0_MEMBER_1_MEMBER_12_FILL"/>
</g>

<g transform="matrix( 0.5625, 0, 0, 0.5625, 0,0) ">
<use xlink:href="#Layer0_0_MEMBER_0_MEMBER_0_MEMBER_1_MEMBER_13_FILL"/>
</g>

<g transform="matrix( 0.5625, 0, 0, 0.5625, 0,0) ">
<use xlink:href="#Layer0_0_MEMBER_0_MEMBER_0_MEMBER_1_MEMBER_14_FILL"/>
</g>

<g transform="matrix( 0.5625, 0, 0, 0.5625, 0,0) ">
<use xlink:href="#Layer0_0_MEMBER_0_MEMBER_0_MEMBER_1_MEMBER_15_FILL"/>
</g>

<g transform="matrix( 0.5625, 0, 0, 0.5625, 0,0) ">
<use xlink:href="#Layer0_0_MEMBER_0_MEMBER_0_MEMBER_1_MEMBER_16_FILL"/>
</g>

<g transform="matrix( 0.5625, 0, 0, 0.5625, 0,0) ">
<use xlink:href="#Layer0_0_MEMBER_0_MEMBER_0_MEMBER_1_MEMBER_17_FILL"/>
</g>

<g transform="matrix( 0.5625, 0, 0, 0.5625, 0,0) ">
<use xlink:href="#Layer0_0_MEMBER_0_MEMBER_0_MEMBER_1_MEMBER_18_FILL"/>
</g>

<g transform="matrix( 0.5625, 0, 0, 0.5625, 0,0) ">
<use xlink:href="#Layer0_0_MEMBER_0_MEMBER_0_MEMBER_1_MEMBER_19_FILL"/>
</g>

<g transform="matrix( 0.5625, 0, 0, 0.5625, 0,0) ">
<use xlink:href="#Layer0_0_MEMBER_0_MEMBER_0_MEMBER_1_MEMBER_20_FILL"/>
</g>

<g transform="matrix( 0.5625, 0, 0, 0.5625, 0,0) ">
<use xlink:href="#Layer0_0_MEMBER_0_MEMBER_0_MEMBER_1_MEMBER_21_FILL"/>
</g>

<g transform="matrix( 0.5625, 0, 0, 0.5625, 0,0) ">
<use xlink:href="#Layer0_0_MEMBER_0_MEMBER_0_MEMBER_2_MEMBER_0_FILL"/>
</g>

<g transform="matrix( 0.5625, 0, 0, 0.5625, 0,0) ">
<use xlink:href="#Layer0_0_MEMBER_0_MEMBER_0_MEMBER_2_MEMBER_1_FILL"/>
</g>

<g transform="matrix( 0.5625, 0, 0, 0.5625, 0,0) ">
<use xlink:href="#Layer0_0_MEMBER_0_MEMBER_0_MEMBER_2_MEMBER_2_FILL"/>
</g>

<g transform="matrix( 0.5625, 0, 0, 0.5625, 0,0) ">
<use xlink:href="#Layer0_0_MEMBER_0_MEMBER_0_MEMBER_2_MEMBER_3_FILL"/>
</g>

<g transform="matrix( 0.5625, 0, 0, 0.5625, 0,0) ">
<use xlink:href="#Layer0_0_MEMBER_0_MEMBER_0_MEMBER_2_MEMBER_4_FILL"/>
</g>

<g transform="matrix( 0.5625, 0, 0, 0.5625, 0,0) ">
<use xlink:href="#Layer0_0_MEMBER_0_MEMBER_0_MEMBER_2_MEMBER_5_FILL"/>
</g>

<g transform="matrix( 0.5625, 0, 0, 0.5625, 0,0) ">
<use xlink:href="#Layer0_0_MEMBER_0_MEMBER_0_MEMBER_2_MEMBER_6_FILL"/>
</g>

<g transform="matrix( 0.5625, 0, 0, 0.5625, 0,0) ">
<use xlink:href="#Layer0_0_MEMBER_0_MEMBER_0_MEMBER_2_MEMBER_7_FILL"/>
</g>

<g transform="matrix( 0.5625, 0, 0, 0.5625, 0,0) ">
<use xlink:href="#Layer0_0_MEMBER_0_MEMBER_0_MEMBER_2_MEMBER_8_FILL"/>
</g>

<g transform="matrix( 0.5625, 0, 0, 0.5625, 0,0) ">
<use xlink:href="#Layer0_0_MEMBER_0_MEMBER_0_MEMBER_2_MEMBER_9_FILL"/>
</g>

<g transform="matrix( 0.5625, 0, 0, 0.5625, 0,0) ">
<use xlink:href="#Layer0_0_MEMBER_0_MEMBER_0_MEMBER_2_MEMBER_10_FILL"/>
</g>

<g transform="matrix( 0.5625, 0, 0, 0.5625, 0,0) ">
<use xlink:href="#Layer0_0_MEMBER_0_MEMBER_0_MEMBER_2_MEMBER_11_FILL"/>
</g>

<g transform="matrix( 0.5625, 0, 0, 0.5625, 0,0) ">
<use xlink:href="#Layer0_0_MEMBER_0_MEMBER_0_MEMBER_2_MEMBER_12_FILL"/>
</g>

<g transform="matrix( 0.5625, 0, 0, 0.5625, 0,0) ">
<use xlink:href="#Layer0_0_MEMBER_0_MEMBER_0_MEMBER_2_MEMBER_13_FILL"/>
</g>

<g transform="matrix( 0.5625, 0, 0, 0.5625, 0,0) ">
<use xlink:href="#Layer0_0_MEMBER_0_MEMBER_0_MEMBER_2_MEMBER_14_FILL"/>
</g>

<g transform="matrix( 0.5625, 0, 0, 0.5625, 0,0) ">
<use xlink:href="#Layer0_0_MEMBER_0_MEMBER_0_MEMBER_2_MEMBER_15_FILL"/>
</g>

<g transform="matrix( 0.5625, 0, 0, 0.5625, 0,0) ">
<use xlink:href="#Layer0_0_MEMBER_0_MEMBER_0_MEMBER_2_MEMBER_16_FILL"/>
</g>

<g transform="matrix( 0.5625, 0, 0, 0.5625, 0,0) ">
<use xlink:href="#Layer0_0_MEMBER_0_MEMBER_0_MEMBER_2_MEMBER_17_FILL"/>
</g>

<g transform="matrix( 0.5625, 0, 0, 0.5625, 0,0) ">
<use xlink:href="#Layer0_0_MEMBER_0_MEMBER_0_MEMBER_2_MEMBER_18_FILL"/>
</g>

<g transform="matrix( 0.5625, 0, 0, 0.5625, 0,0) ">
<use xlink:href="#Layer0_0_MEMBER_0_MEMBER_0_MEMBER_2_MEMBER_19_FILL"/>
</g>

<g transform="matrix( 0.5625, 0, 0, 0.5625, 0,0) ">
<use xlink:href="#Layer0_0_MEMBER_0_MEMBER_0_MEMBER_2_MEMBER_20_FILL"/>
</g>

<g transform="matrix( 0.5625, 0, 0, 0.5625, 0,0) ">
<use xlink:href="#Layer0_0_MEMBER_0_MEMBER_0_MEMBER_2_MEMBER_21_FILL"/>
</g>

<g transform="matrix( 0.5625, 0, 0, 0.5625, 0,0) ">
<use xlink:href="#Layer0_0_MEMBER_0_MEMBER_0_MEMBER_3_FILL"/>
</g>

<g transform="matrix( 0.5625, 0, 0, 0.5625, 0,0) ">
<use xlink:href="#Layer0_0_MEMBER_0_MEMBER_0_MEMBER_4_FILL"/>
</g>

<g transform="matrix( 0.5625, 0, 0, 0.5625, 0,0) ">
<use xlink:href="#Layer0_0_MEMBER_0_MEMBER_1_FILL"/>
</g>

<g transform="matrix( 0.5625, 0, 0, 0.5625, 0,0) ">
<use xlink:href="#Layer0_0_MEMBER_1_MEMBER_0_MEMBER_0_FILL"/>
</g>

<g transform="matrix( 0.5625, 0, 0, 0.5625, 0,0) ">
<use xlink:href="#Layer0_0_MEMBER_1_MEMBER_0_MEMBER_1_FILL"/>
</g>

<g transform="matrix( 0.5625, 0, 0, 0.5625, 0,0) ">
<use xlink:href="#Layer0_0_MEMBER_1_MEMBER_1_MEMBER_0_FILL"/>
</g>

<g transform="matrix( 0.5625, 0, 0, 0.5625, 0,0) ">
<use xlink:href="#Layer0_0_MEMBER_1_MEMBER_1_MEMBER_1_FILL"/>
</g>
</g>
</svg>
