
<svg xmlns="http://www.w3.org/2000/svg" version="1.1" xmlns:xlink="http://www.w3.org/1999/xlink" preserveAspectRatio="none" x="0px" y="0px" width="72px" height="72px" viewBox="0 0 72 72">
<defs>
<g id="Layer1_0_MEMBER_0_MEMBER_0_MEMBER_0_MEMBER_0_FILL">
<path fill="#FCC21B" stroke="none" d="
M 36 5.6
Q 13.8 5.6 5.05 26.1 0.25 37.35 0.25 52.45 0.25 58.25 10.7 62.35 21.2 66.45 36 66.45 50.8 66.45 61.25 62.35 71.7 58.25 71.7 52.45 71.7 37.35 66.9 26.1 58.2 5.6 36 5.6 Z"/>
</g>

<g id="Layer1_1_MEMBER_0_FILL">
<path fill="#2F2F2F" stroke="none" d="
M 51.1 49.4
Q 51.55 49.25 51.75 48.8 52 48.35 51.8 47.9 51.65 47.45 51.25 47.25 50.8 47 50.35 47.15 48.75 47.7 46.9 48.6 43.15 50.35 40.9 52.35 40.25 52.9 40.6 53.75 41 54.5 41.9 54.35 41.95 54.35 44.8 54 48.15 53.8 50.55 54.4
L 50.85 54.45
Q 51.8 54.45 51.95 53.55 52.1 53.1 51.85 52.7 51.6 52.25 51.15 52.15 48.9 51.55 46.05 51.65 48.6 50.2 51.1 49.4 Z"/>
</g>

<g id="Layer1_1_MEMBER_1_FILL">
<path fill="#2F2F2F" stroke="none" d="
M 51.1 49.4
Q 51.55 49.25 51.75 48.8 52 48.35 51.8 47.9 51.65 47.45 51.25 47.25 50.8 47 50.35 47.15 48.75 47.7 46.9 48.6 43.15 50.35 40.9 52.35 40.25 52.9 40.6 53.75 41 54.5 41.9 54.35 41.95 54.35 44.8 54 48.15 53.8 50.55 54.4
L 50.85 54.45
Q 51.8 54.45 51.95 53.55 52.1 53.1 51.85 52.7 51.6 52.25 51.15 52.15 48.9 51.55 46.05 51.65 48.6 50.2 51.1 49.4 Z"/>
</g>

<g id="Layer1_2_FILL">
<path fill="#2F2F2F" stroke="none" d="
M 36 38.85
Q 29.6455078125 38.867578125 25.05 42.15 20.05 45.8 19 51.7 18.6 53.6 19.55 54.95 20.9 56.75 25.85 55.7 32.1861328125 54.3765625 35.75 54.3 35.876953125 54.300390625 36 54.3 36.050390625 54.3001953125 36.1 54.3 39.5 54.3 46.15 55.7 51.1 56.75 52.45 54.95 53.4 53.6 53 51.7 51.95 45.8 46.95 42.15 42.35 38.85 36 38.85 Z"/>
</g>

<g id="Layer0_0_FILL">
<path fill="#7CB342" stroke="none" d="
M 36 40.5
Q 28.11875 40.4916015625 24.05 46.1 21.6228515625 49.7591796875 21.1 54.5 20.587109375 59.296484375 20.7 64.6
L 51.3 64.6
Q 51.4 59.3 50.9 54.55 50.4 49.75 47.95 46.1 43.9 40.5 36 40.5 Z"/>
</g>

<g id="Layer0_1_FILL">
<path fill="#7CB342" stroke="none" d="
M 10.55 65.45
Q 10.55 67.65 18 69.2 25.45 70.8 36 70.8 46.55 70.8 54 69.2 61.45 67.65 61.45 65.45 61.45 63.25 54 61.65 46.55 60.1 36 60.1 25.45 60.1 18 61.65 10.55 63.25 10.55 65.45 Z"/>
</g>

<g id="Layer0_2_FILL">
<path fill="#B1C937" stroke="none" d="
M -1.95 10.1
Q -5.35 6.7 -10.15 6.7 -14.95 6.7 -18.35 10.1 -21.75 13.5 -21.75 18.3 -21.75 23.1 -18.35 26.5 -14.95 29.9 -10.15 29.9 -5.35 29.9 -1.95 26.5 1.45 23.1 1.45 18.3 1.45 13.5 -1.95 10.1 Z"/>
</g>

<g id="Layer0_3_FILL">
<path fill="#B1C937" stroke="none" d="
M -1.95 10.1
Q -5.35 6.7 -10.15 6.7 -14.95 6.7 -18.35 10.1 -21.75 13.5 -21.75 18.3 -21.75 23.1 -18.35 26.5 -14.95 29.9 -10.15 29.9 -5.35 29.9 -1.95 26.5 1.45 23.1 1.45 18.3 1.45 13.5 -1.95 10.1 Z"/>
</g>

<g id="Layer0_4_FILL">
<path fill="#B1C937" stroke="none" d="
M -1.95 10.1
Q -5.35 6.7 -10.15 6.7 -14.95 6.7 -18.35 10.1 -21.75 13.5 -21.75 18.3 -21.75 23.1 -18.35 26.5 -14.95 29.9 -10.15 29.9 -5.35 29.9 -1.95 26.5 1.45 23.1 1.45 18.3 1.45 13.5 -1.95 10.1 Z"/>
</g>

<g id="Layer0_5_FILL">
<path fill="#B1C937" stroke="none" d="
M -1.95 10.1
Q -5.35 6.7 -10.15 6.7 -14.95 6.7 -18.35 10.1 -21.75 13.5 -21.75 18.3 -21.75 23.1 -18.35 26.5 -14.95 29.9 -10.15 29.9 -5.35 29.9 -1.95 26.5 1.45 23.1 1.45 18.3 1.45 13.5 -1.95 10.1 Z"/>
</g>

<g id="Layer0_6_FILL">
<path fill="#B1C937" stroke="none" d="
M -1.95 10.1
Q -5.35 6.7 -10.15 6.7 -14.95 6.7 -18.35 10.1 -21.75 13.5 -21.75 18.3 -21.75 23.1 -18.35 26.5 -14.95 29.9 -10.15 29.9 -5.35 29.9 -1.95 26.5 1.45 23.1 1.45 18.3 1.45 13.5 -1.95 10.1 Z"/>
</g>

<g id="Layer0_7_FILL">
<path fill="#B1C937" stroke="none" d="
M -1.95 10.1
Q -5.35 6.7 -10.15 6.7 -14.95 6.7 -18.35 10.1 -21.75 13.5 -21.75 18.3 -21.75 23.1 -18.35 26.5 -14.95 29.9 -10.15 29.9 -5.35 29.9 -1.95 26.5 1.45 23.1 1.45 18.3 1.45 13.5 -1.95 10.1 Z"/>
</g>

<g id="Layer0_8_FILL">
<path fill="#B1C937" stroke="none" d="
M -1.95 10.1
Q -5.35 6.7 -10.15 6.7 -14.95 6.7 -18.35 10.1 -21.75 13.5 -21.75 18.3 -21.75 23.1 -18.35 26.5 -14.95 29.9 -10.15 29.9 -5.35 29.9 -1.95 26.5 1.45 23.1 1.45 18.3 1.45 13.5 -1.95 10.1 Z"/>
</g>

<g id="Layer0_9_FILL">
<path fill="#B1C937" stroke="none" d="
M -1.95 10.1
Q -5.35 6.7 -10.15 6.7 -14.95 6.7 -18.35 10.1 -21.75 13.5 -21.75 18.3 -21.75 23.1 -18.35 26.5 -14.95 29.9 -10.15 29.9 -5.35 29.9 -1.95 26.5 1.45 23.1 1.45 18.3 1.45 13.5 -1.95 10.1 Z"/>
</g>

<g id="Layer0_10_FILL">
<path fill="#B1C937" stroke="none" d="
M -1.95 10.1
Q -5.35 6.7 -10.15 6.7 -14.95 6.7 -18.35 10.1 -21.75 13.5 -21.75 18.3 -21.75 23.1 -18.35 26.5 -14.95 29.9 -10.15 29.9 -5.35 29.9 -1.95 26.5 1.45 23.1 1.45 18.3 1.45 13.5 -1.95 10.1 Z"/>
</g>

<g id="Layer0_11_FILL">
<path fill="#B1C937" stroke="none" d="
M -1.95 10.1
Q -5.35 6.7 -10.15 6.7 -14.95 6.7 -18.35 10.1 -21.75 13.5 -21.75 18.3 -21.75 23.1 -18.35 26.5 -14.95 29.9 -10.15 29.9 -5.35 29.9 -1.95 26.5 1.45 23.1 1.45 18.3 1.45 13.5 -1.95 10.1 Z"/>
</g>

<g id="Layer0_12_FILL">
<path fill="#B1C937" stroke="none" d="
M -1.95 10.1
Q -5.35 6.7 -10.15 6.7 -14.95 6.7 -18.35 10.1 -21.75 13.5 -21.75 18.3 -21.75 23.1 -18.35 26.5 -14.95 29.9 -10.15 29.9 -5.35 29.9 -1.95 26.5 1.45 23.1 1.45 18.3 1.45 13.5 -1.95 10.1 Z"/>
</g>

<g id="Layer0_13_FILL">
<path fill="#B1C937" stroke="none" d="
M -1.95 10.1
Q -5.35 6.7 -10.15 6.7 -14.95 6.7 -18.35 10.1 -21.75 13.5 -21.75 18.3 -21.75 23.1 -18.35 26.5 -14.95 29.9 -10.15 29.9 -5.35 29.9 -1.95 26.5 1.45 23.1 1.45 18.3 1.45 13.5 -1.95 10.1 Z"/>
</g>

<path id="Layer0_2_1_STROKES" stroke="#B1C937" stroke-width="0.1" stroke-linejoin="round" stroke-linecap="round" fill="none" d="
M 42.51214294433594 62.005392456054686
Q 42.51214294433594 63.02975769042969 41.78022155761719 63.755349731445314 41.04830017089844 64.48094177246094 40.01499938964844 64.48094177246094 38.98169860839844 64.48094177246094 38.24977722167969 63.755349731445314 37.51785583496094 63.02975769042969 37.51785583496094 62.005392456054686 37.51785583496094 60.98102722167969 38.24977722167969 60.255435180664065 38.98169860839844 59.52984313964844 40.01499938964844 59.52984313964844 41.04830017089844 59.52984313964844 41.78022155761719 60.255435180664065 42.51214294433594 60.98102722167969 42.51214294433594 62.005392456054686 Z"/>

<path id="Layer0_3_1_STROKES" stroke="#B1C937" stroke-width="0.1" stroke-linejoin="round" stroke-linecap="round" fill="none" d="
M 51.51214294433594 65.0053924560547
Q 51.51214294433594 66.02975769042969 50.78022155761719 66.7553497314453 50.04830017089844 67.48094177246094 49.01499938964844 67.48094177246094 47.98169860839844 67.48094177246094 47.24977722167969 66.7553497314453 46.51785583496094 66.02975769042969 46.51785583496094 65.0053924560547 46.51785583496094 63.98102722167969 47.24977722167969 63.255435180664065 47.98169860839844 62.52984313964844 49.01499938964844 62.52984313964844 50.04830017089844 62.52984313964844 50.78022155761719 63.255435180664065 51.51214294433594 63.98102722167969 51.51214294433594 65.0053924560547 Z"/>

<path id="Layer0_4_1_STROKES" stroke="#B1C937" stroke-width="0.1" stroke-linejoin="round" stroke-linecap="round" fill="none" d="
M 35.51214294433594 56.005392456054686
Q 35.51214294433594 57.02975769042969 34.78022155761719 57.755349731445314 34.04830017089844 58.48094177246094 33.01499938964844 58.48094177246094 31.98169860839844 58.48094177246094 31.24977722167969 57.755349731445314 30.51785583496094 57.02975769042969 30.51785583496094 56.005392456054686 30.51785583496094 54.98102722167969 31.24977722167969 54.255435180664065 31.98169860839844 53.52984313964844 33.01499938964844 53.52984313964844 34.04830017089844 53.52984313964844 34.78022155761719 54.255435180664065 35.51214294433594 54.98102722167969 35.51214294433594 56.005392456054686 Z"/>

<path id="Layer0_5_1_STROKES" stroke="#B1C937" stroke-width="0.1" stroke-linejoin="round" stroke-linecap="round" fill="none" d="
M 31.512142944335938 49.005392456054686
Q 31.512142944335938 50.02975769042969 30.780221557617185 50.755349731445314 30.048300170898436 51.48094177246094 29.014999389648438 51.48094177246094 27.98169860839844 51.48094177246094 27.249777221679686 50.755349731445314 26.517855834960937 50.02975769042969 26.517855834960937 49.005392456054686 26.517855834960937 47.98102722167969 27.249777221679686 47.255435180664065 27.98169860839844 46.52984313964844 29.014999389648438 46.52984313964844 30.048300170898436 46.52984313964844 30.780221557617185 47.255435180664065 31.512142944335938 47.98102722167969 31.512142944335938 49.005392456054686 Z"/>

<path id="Layer0_6_1_STROKES" stroke="#B1C937" stroke-width="0.1" stroke-linejoin="round" stroke-linecap="round" fill="none" d="
M 46.51214294433594 51.005392456054686
Q 46.51214294433594 52.02975769042969 45.78022155761719 52.755349731445314 45.04830017089844 53.48094177246094 44.01499938964844 53.48094177246094 42.98169860839844 53.48094177246094 42.24977722167969 52.755349731445314 41.51785583496094 52.02975769042969 41.51785583496094 51.005392456054686 41.51785583496094 49.98102722167969 42.24977722167969 49.255435180664065 42.98169860839844 48.52984313964844 44.01499938964844 48.52984313964844 45.04830017089844 48.52984313964844 45.78022155761719 49.255435180664065 46.51214294433594 49.98102722167969 46.51214294433594 51.005392456054686 Z"/>

<path id="Layer0_7_1_STROKES" stroke="#B1C937" stroke-width="0.1" stroke-linejoin="round" stroke-linecap="round" fill="none" d="
M 25.31214294433594 63.95539245605468
Q 25.31214294433594 64.97975769042968 24.580221557617186 65.70534973144531 23.848300170898437 66.43094177246094 22.814999389648438 66.43094177246094 21.781698608398436 66.43094177246094 21.049777221679687 65.70534973144531 20.317855834960938 64.97975769042968 20.317855834960938 63.95539245605468 20.317855834960938 62.931027221679685 21.049777221679687 62.20543518066406 21.781698608398436 61.47984313964844 22.814999389648438 61.47984313964844 23.848300170898437 61.47984313964844 24.580221557617186 62.20543518066406 25.31214294433594 62.931027221679685 25.31214294433594 63.95539245605468 Z"/>

<path id="Layer0_8_1_STROKES" stroke="#B1C937" stroke-width="0.1" stroke-linejoin="round" stroke-linecap="round" fill="none" d="
M 30.48726806640625 61.477430725097655
Q 30.48726806640625 62.087904357910155 30.04815673828125 62.52032318115234 29.609045410156252 62.95274200439453 28.98912353515625 62.95274200439453 28.36920166015625 62.95274200439453 27.93009033203125 62.52032318115234 27.49097900390625 62.087904357910155 27.49097900390625 61.477430725097655 27.49097900390625 60.866957092285155 27.93009033203125 60.43453826904297 28.36920166015625 60.00211944580078 28.98912353515625 60.00211944580078 29.609045410156252 60.00211944580078 30.04815673828125 60.43453826904297 30.48726806640625 60.866957092285155 30.48726806640625 61.477430725097655 Z"/>

<path id="Layer0_9_1_STROKES" stroke="#B1C937" stroke-width="0.1" stroke-linejoin="round" stroke-linecap="round" fill="none" d="
M 44.487268066406244 56.477430725097655
Q 44.487268066406244 57.087904357910155 44.04815673828125 57.52032318115234 43.60904541015625 57.95274200439453 42.989123535156246 57.95274200439453 42.36920166015625 57.95274200439453 41.93009033203125 57.52032318115234 41.49097900390625 57.087904357910155 41.49097900390625 56.477430725097655 41.49097900390625 55.866957092285155 41.93009033203125 55.43453826904297 42.36920166015625 55.00211944580078 42.989123535156246 55.00211944580078 43.60904541015625 55.00211944580078 44.04815673828125 55.43453826904297 44.487268066406244 55.866957092285155 44.487268066406244 56.477430725097655 Z"/>

<path id="Layer0_10_1_STROKES" stroke="#B1C937" stroke-width="0.1" stroke-linejoin="round" stroke-linecap="round" fill="none" d="
M 26.48726806640625 56.477430725097655
Q 26.48726806640625 57.087904357910155 26.04815673828125 57.52032318115234 25.609045410156252 57.95274200439453 24.98912353515625 57.95274200439453 24.36920166015625 57.95274200439453 23.93009033203125 57.52032318115234 23.49097900390625 57.087904357910155 23.49097900390625 56.477430725097655 23.49097900390625 55.866957092285155 23.93009033203125 55.43453826904297 24.36920166015625 55.00211944580078 24.98912353515625 55.00211944580078 25.609045410156252 55.00211944580078 26.04815673828125 55.43453826904297 26.48726806640625 55.866957092285155 26.48726806640625 56.477430725097655 Z"/>

<path id="Layer0_11_1_STROKES" stroke="#B1C937" stroke-width="0.1" stroke-linejoin="round" stroke-linecap="round" fill="none" d="
M 36.487268066406244 65.47743072509766
Q 36.487268066406244 66.08790435791016 36.04815673828125 66.52032318115235 35.60904541015625 66.95274200439454 34.989123535156246 66.95274200439454 34.36920166015625 66.95274200439454 33.93009033203125 66.52032318115235 33.49097900390625 66.08790435791016 33.49097900390625 65.47743072509766 33.49097900390625 64.86695709228516 33.93009033203125 64.43453826904297 34.36920166015625 64.00211944580079 34.989123535156246 64.00211944580079 35.60904541015625 64.00211944580079 36.04815673828125 64.43453826904297 36.487268066406244 64.86695709228516 36.487268066406244 65.47743072509766 Z"/>

<path id="Layer0_12_1_STROKES" stroke="#B1C937" stroke-width="0.1" stroke-linejoin="round" stroke-linecap="round" fill="none" d="
M 38.987268066406244 48.477430725097655
Q 38.987268066406244 49.087904357910155 38.54815673828125 49.52032318115234 38.10904541015625 49.95274200439453 37.489123535156246 49.95274200439453 36.86920166015625 49.95274200439453 36.43009033203125 49.52032318115234 35.99097900390625 49.087904357910155 35.99097900390625 48.477430725097655 35.99097900390625 47.866957092285155 36.43009033203125 47.43453826904297 36.86920166015625 47.00211944580078 37.489123535156246 47.00211944580078 38.10904541015625 47.00211944580078 38.54815673828125 47.43453826904297 38.987268066406244 47.866957092285155 38.987268066406244 48.477430725097655 Z"/>

<path id="Layer0_13_1_STROKES" stroke="#B1C937" stroke-width="0.1" stroke-linejoin="round" stroke-linecap="round" fill="none" d="
M 48.487268066406244 60.67743072509766
Q 48.487268066406244 61.28790435791016 48.04815673828125 61.720323181152345 47.60904541015625 62.15274200439453 46.989123535156246 62.15274200439453 46.36920166015625 62.15274200439453 45.93009033203125 61.720323181152345 45.49097900390625 61.28790435791016 45.49097900390625 60.67743072509766 45.49097900390625 60.06695709228516 45.93009033203125 59.63453826904297 46.36920166015625 59.20211944580078 46.989123535156246 59.20211944580078 47.60904541015625 59.20211944580078 48.04815673828125 59.63453826904297 48.487268066406244 60.06695709228516 48.487268066406244 60.67743072509766 Z"/>
</defs>

<g transform="matrix( 1, 0, 0, 1, 0.05,0) ">
<use xlink:href="#Layer1_0_MEMBER_0_MEMBER_0_MEMBER_0_MEMBER_0_FILL"/>
</g>

<g transform="matrix( 1.32086181640625, 0, 0, 1.32086181640625, -11.5,-36.25) ">
<use xlink:href="#Layer1_1_MEMBER_0_FILL"/>
</g>

<g transform="matrix( -1.32086181640625, 0, 0, 1.32086181640625, 83.5,-36.25) ">
<use xlink:href="#Layer1_1_MEMBER_1_FILL"/>
</g>

<g transform="matrix( 1, 0, 0, 1, 0,0) ">
<use xlink:href="#Layer1_2_FILL"/>
</g>

<g transform="matrix( 1, 0, 0, 1, 0,2.1) ">
<use xlink:href="#Layer0_0_FILL"/>
</g>

<g transform="matrix( 0.880157470703125, 0, 0, 1.1775665283203125, 4.3,-12.6) ">
<use xlink:href="#Layer0_1_FILL"/>
</g>

<g transform="matrix( 0.21527099609375, 0, 0, 0.213409423828125, 42.2,58.1) ">
<use xlink:href="#Layer0_2_FILL"/>

<use xlink:href="#Layer0_2_1_STROKES" transform="matrix( 4.645294189453125, 0, 0, 4.685821533203125, -196,-272.2) "/>
</g>

<g transform="matrix( 0.21527099609375, 0, 0, 0.213409423828125, 51.2,61.1) ">
<use xlink:href="#Layer0_3_FILL"/>

<use xlink:href="#Layer0_3_1_STROKES" transform="matrix( 4.645294189453125, 0, 0, 4.685821533203125, -237.8,-286.3) "/>
</g>

<g transform="matrix( 0.21527099609375, 0, 0, 0.213409423828125, 35.2,52.1) ">
<use xlink:href="#Layer0_4_FILL"/>

<use xlink:href="#Layer0_4_1_STROKES" transform="matrix( 4.645294189453125, 0, 0, 4.685821533203125, -163.5,-244.1) "/>
</g>

<g transform="matrix( 0.21527099609375, 0, 0, 0.213409423828125, 31.2,45.1) ">
<use xlink:href="#Layer0_5_FILL"/>

<use xlink:href="#Layer0_5_1_STROKES" transform="matrix( 4.645294189453125, 0, 0, 4.685821533203125, -144.9,-211.3) "/>
</g>

<g transform="matrix( 0.21527099609375, 0, 0, 0.213409423828125, 46.2,47.1) ">
<use xlink:href="#Layer0_6_FILL"/>

<use xlink:href="#Layer0_6_1_STROKES" transform="matrix( 4.645294189453125, 0, 0, 4.685821533203125, -214.6,-220.7) "/>
</g>

<g transform="matrix( 0.21527099609375, 0, 0, 0.213409423828125, 25,60.05) ">
<use xlink:href="#Layer0_7_FILL"/>

<use xlink:href="#Layer0_7_1_STROKES" transform="matrix( 4.645294189453125, 0, 0, 4.685821533203125, -116.1,-281.35) "/>
</g>

<g transform="matrix( 0.129150390625, 0, 0, 0.1271820068359375, 30.3,59.15) ">
<use xlink:href="#Layer0_8_FILL"/>

<use xlink:href="#Layer0_8_1_STROKES" transform="matrix( 7.7429046630859375, 0, 0, 7.8627471923828125, -234.6,-465.05) "/>
</g>

<g transform="matrix( 0.129150390625, 0, 0, 0.1271820068359375, 44.3,54.15) ">
<use xlink:href="#Layer0_9_FILL"/>

<use xlink:href="#Layer0_9_1_STROKES" transform="matrix( 7.7429046630859375, 0, 0, 7.8627471923828125, -343,-425.75) "/>
</g>

<g transform="matrix( 0.129150390625, 0, 0, 0.1271820068359375, 26.3,54.15) ">
<use xlink:href="#Layer0_10_FILL"/>

<use xlink:href="#Layer0_10_1_STROKES" transform="matrix( 7.7429046630859375, 0, 0, 7.8627471923828125, -203.6,-425.75) "/>
</g>

<g transform="matrix( 0.129150390625, 0, 0, 0.1271820068359375, 36.3,63.15) ">
<use xlink:href="#Layer0_11_FILL"/>

<use xlink:href="#Layer0_11_1_STROKES" transform="matrix( 7.7429046630859375, 0, 0, 7.8627471923828125, -281.05,-496.5) "/>
</g>

<g transform="matrix( 0.129150390625, 0, 0, 0.1271820068359375, 38.8,46.15) ">
<use xlink:href="#Layer0_12_FILL"/>

<use xlink:href="#Layer0_12_1_STROKES" transform="matrix( 7.7429046630859375, 0, 0, 7.8627471923828125, -300.4,-362.85) "/>
</g>

<g transform="matrix( 0.129150390625, 0, 0, 0.1271820068359375, 48.3,58.35) ">
<use xlink:href="#Layer0_13_FILL"/>

<use xlink:href="#Layer0_13_1_STROKES" transform="matrix( 7.7429046630859375, 0, 0, 7.8627471923828125, -373.95,-458.75) "/>
</g>
</svg>
