
<svg xmlns="http://www.w3.org/2000/svg" version="1.1" xmlns:xlink="http://www.w3.org/1999/xlink" preserveAspectRatio="none" x="0px" y="0px" width="72px" height="72px" viewBox="0 0 72 72">
<defs>
<g id="Layer0_0_MEMBER_0_FILL">
<path fill="#FFA000" stroke="none" d="
M 120.05 46.85
Q 120.4 37.7 120.4 30.7
L 68.8 30.7
Q 68.8 38.45 69.3 48.05 70.3 67.15 72.8 76.15 74.45 82.25 76.45 84.05 79 86.4 83.1 83.3
L 106 83.1
Q 110.2 86.3 113.45 83.95 116.35 81.8 117.4 75.95 119.3 65.15 120.05 46.85 Z"/>
</g>

<g id="Layer0_0_MEMBER_1_MEMBER_0_FILL">
<path fill="#7E57C2" stroke="none" d="
M 107.1 67.45
Q 95.9 64.75 85.05 66.65 75.7 68.25 70.05 73.7 64 79.6 64 88.45
L 64 128.55 128 128.5 128 88.45
Q 128 80.35 121.75 74.65 116.25 69.6 107.1 67.45 Z"/>
</g>

<g id="Layer0_0_MEMBER_2_FILL">
<path fill="#FCC21B" stroke="none" d="
M 128.1 97.15
L 120.1 97.15 120.1 128.5 128.1 128.5 128.1 97.15 Z"/>
</g>

<g id="Layer0_0_MEMBER_3_FILL">
<path fill="#E59900" stroke="none" d="
M 94.65 74.15
Q 97.55 74.15 99.6 72.1 101.65 70.05 101.65 67.15
L 101.65 61.15 87.65 61.15 87.65 67.15
Q 87.65 70.05 89.7 72.1 91.75 74.15 94.65 74.15 Z"/>
</g>

<g id="Layer0_0_MEMBER_4_FILL">
<path fill="#FFA000" stroke="none" d="
M 112.9 46.95
Q 120.45 40.15 120.45 30.55 120.45 20.95 112.9 14.15 105.35 7.35 94.65 7.35 83.95 7.35 76.4 14.15 68.85 20.95 68.85 30.55 68.85 40.15 76.4 46.95 83.95 53.75 94.65 53.75 105.35 53.75 112.9 46.95 Z"/>
</g>

<g id="Layer0_0_MEMBER_5_FILL">
<path fill="#FCC21B" stroke="none" d="
M 110.6 21.25
Q 105.8 12.95 94.65 12.95 83.5 12.95 78.7 21.25 74.65 28.3 74.65 42.5 74.65 54.1 81.75 60.25 87.35 65.05 94.65 65.05 102 65.05 107.55 60.25 114.65 54.15 114.65 42.5 114.65 28.3 110.6 21.25 Z"/>
</g>

<g id="Layer0_0_MEMBER_6_FILL">
<path fill="#FFA000" stroke="none" d="
M 100.7 26.5
Q 101.05 26.15 101.35 26.6 104.4 32.9 110.55 37.3 113.6 39.5 116.05 40.45
L 116.05 21.4
Q 114.5 18.25 111.05 15.05 104.2 8.7 94.85 8.7 85.5 8.7 78.65 14.9 76.55 16.8 74.9 19.1
L 73.7 21.05 73.7 40.45
Q 82.9 38.85 91.85 33.3 96.9 30.1 100.7 26.5 Z"/>
</g>

<g id="Layer0_0_MEMBER_7_FILL">
<path fill="#4C3734" stroke="none" d="
M 100.65 54.55
L 88.65 54.55
Q 88.1 54.55 87.95 54.85 87.75 55.2 88.1 55.7 88.75 56.7 90.3 57.5 92.3 58.55 94.65 58.55 97 58.55 99 57.5 100.55 56.7 101.2 55.7 101.55 55.2 101.35 54.85 101.2 54.55 100.65 54.55 Z"/>
</g>

<g id="Layer0_0_MEMBER_8_FILL">
<path fill="#E48C15" stroke="none" d="
M 98 49.95
Q 97.85 49.75 97.55 49.8 96.05 50.25 94.65 50.25 93.25 50.25 91.75 49.8 91.45 49.75 91.3 49.95 91.15 50.15 91.3 50.4 91.6 50.95 92.45 51.45 93.5 52.1 94.65 52.1 95.8 52.1 96.85 51.45 97.65 50.95 98 50.4 98.1 50.15 98 49.95 Z"/>
</g>

<g id="Layer0_0_MEMBER_9_FILL">
<path fill="#FCC21B" stroke="none" d="
M 128.1 97.15
L 120.1 97.15 120.1 128.5 128.1 128.5 128.1 97.15 Z"/>
</g>

<g id="Layer0_0_MEMBER_10_MEMBER_0_FILL">
<path fill="#444444" stroke="none" d="
M 87.8 43.2
Q 87.8 41.8 87 40.85 86.2 39.85 85.05 39.85 83.9 39.85 83.05 40.85 82.25 41.8 82.25 43.2 82.25 44.6 83.05 45.55 83.9 46.55 85.05 46.55 86.2 46.55 87 45.55 87.8 44.6 87.8 43.2 Z"/>
</g>

<g id="Layer0_0_MEMBER_10_MEMBER_1_FILL">
<path fill="#444444" stroke="none" d="
M 102.3 40.85
Q 101.5 41.8 101.5 43.2 101.5 44.6 102.3 45.55 103.1 46.55 104.25 46.55 105.4 46.55 106.25 45.55 107.05 44.6 107.05 43.2 107.05 41.8 106.25 40.85 105.4 39.85 104.25 39.85 103.1 39.85 102.3 40.85 Z"/>
</g>

<g id="Layer0_1_MEMBER_0_FILL">
<path fill="#B2DFDB" stroke="none" d="
M 73.5 111.75
Q 66.7 115.55 66.7 122 66.4 129.1 66.7 129.1
L 109.8 129.1
Q 110.15 129.1 109.8 122.3
L 109.8 122
Q 109.8 115.55 103 111.75 97.85 108.85 92.95 108.85
L 83.55 108.85
Q 78.65 108.85 73.5 111.75 Z"/>
</g>

<g id="Layer0_1_MEMBER_1_FILL">
<path fill="#E59900" stroke="none" d="
M 88.25 116.35
Q 90.2 116.35 91.6 114.95 92.95 113.55 92.95 111.65
L 92.95 108.05 83.55 108.05 83.55 111.65
Q 83.55 113.6 84.95 115 86.3 116.35 88.25 116.35 Z"/>
</g>

<g id="Layer0_1_MEMBER_2_MEMBER_0_FILL">
<path fill="#FFA000" stroke="none" d="
M 102.5 93.4
Q 118.5 78.35 118.5 57.1 118.5 35.9 102.5 20.85 86.55 5.8 64 5.8 41.45 5.8 25.45 20.85 9.5 35.85 9.5 57.1 9.5 78.35 25.45 93.4 41.45 108.45 64 108.45 86.55 108.45 102.5 93.4 Z"/>
</g>

<g id="Layer0_1_MEMBER_2_MEMBER_1_MEMBER_0_FILL">
<path fill="#E59600" stroke="none" d="
M 108.6 69.8
L 104.8 69.8 104.8 91.2
Q 109.85 91.2 113.1 88.65 116.9 85.7 116.9 80.2 116.9 74.6 112.75 71.65
L 108.6 69.8 Z"/>
</g>

<g id="Layer0_1_MEMBER_2_MEMBER_1_MEMBER_1_FILL">
<path fill="#E59600" stroke="none" d="
M 23.15 69.8
L 19.35 69.8 15.2 71.65
Q 11.05 74.6 11.05 80.2 11.05 85.7 14.85 88.65 18.1 91.2 23.15 91.2
L 23.15 69.8 Z"/>
</g>

<g id="Layer0_1_MEMBER_2_MEMBER_2_MEMBER_0_FILL">
<path fill="#FCC21B" stroke="none" d="
M 95.55 43
Q 90.2 36.3 81.05 32.7 72.95 29.5 64 29.5 55.05 29.5 46.9 32.7 37.75 36.3 32.4 43 21.15 57 21.2 80 21.25 90.05 24.05 97.2 27.1 104.9 33.9 110.55 47.15 121.65 63.35 121.65 71.6 121.65 79.55 118.9 87.95 115.95 94.05 110.6 100.75 104.7 103.8 97.15 106.7 89.9 106.75 80 106.8 57 95.55 43 Z"/>
</g>

<g id="Layer0_1_MEMBER_2_MEMBER_3_FILL">
<path fill="#E59600" stroke="none" d="
M 57.75 89.65
Q 57.1 89.45 56.75 89.95 56.45 90.4 56.75 90.9 57.45 92.1 59.25 93.2 61.5 94.6 64 94.6 66.45 94.6 68.75 93.2 70.5 92.1 71.2 90.9 71.5 90.4 71.2 89.95 70.9 89.45 70.25 89.65 67.05 90.6 64 90.6 60.95 90.6 57.75 89.65 Z"/>
</g>

<g id="Layer0_1_MEMBER_2_MEMBER_4_FILL">
<path fill="#513F35" stroke="none" d="
M 64 108.45
Q 69.05 108.45 73.35 106.15 76.65 104.4 78.05 102.3 78.8 101.25 78.4 100.55 78.05 99.85 76.9 99.85
L 51.05 99.85
Q 49.9 99.85 49.55 100.55 49.2 101.25 49.9 102.3 51.25 104.4 54.6 106.15 58.9 108.45 64 108.45 Z"/>
</g>

<g id="Layer0_1_MEMBER_2_MEMBER_5_FILL">
<path fill="#FFA000" stroke="none" d="
M 109.15 77.45
L 116 55.4
Q 113.25 45.6 105.6 35.8 90.4 16.15 66.2 16.15 42.05 16.15 25.05 37.1 16.55 47.55 12.9 58
L 18.85 77.45
Q 31.25 64.4 35.8 60.05 36 59.85 36.3 59.95 36.55 60.1 36.55 60.4 36.25 63.15 36.15 65.4 36.1 65.8 36.45 66.1 36.75 66.4 37.15 66.3 46.85 64.45 56.95 59.85 57.15 59.75 57.35 59.9 57.55 60 57.55 60.25 57.45 62.9 57.55 64.45 57.55 64.85 57.85 65.1 58.15 65.35 58.55 65.3 63.85 64.45 69.4 62.35 73.1 60.95 75.8 59.45 76.6 59.05 77.5 59.35 82.15 61 88.75 65 89.05 65.2 89.4 65.1 89.75 65 89.9 64.65 90.65 63.4 92.1 60.45 92.2 60.25 92.4 60.25 92.6 60.2 92.75 60.35 99.4 66.95 109.15 77.45 Z"/>
</g>

<g id="Layer0_1_MEMBER_2_MEMBER_6_MEMBER_0_FILL">
<path fill="#444444" stroke="none" d="
M 40.15 72.35
Q 38.45 74.35 38.45 77.2 38.45 80.1 40.15 82.1 41.8 84.1 44.2 84.1 46.55 84.1 48.25 82.1 49.9 80.05 49.9 77.2 49.9 74.35 48.25 72.35 46.55 70.3 44.2 70.3 41.8 70.3 40.15 72.35 Z"/>
</g>

<g id="Layer0_1_MEMBER_2_MEMBER_6_MEMBER_1_FILL">
<path fill="#444444" stroke="none" d="
M 87.85 72.35
Q 86.15 70.3 83.8 70.3 81.4 70.3 79.75 72.35 78.05 74.35 78.05 77.2 78.05 80.05 79.75 82.1 81.4 84.1 83.8 84.1 86.15 84.1 87.85 82.1 89.5 80.1 89.5 77.2 89.5 74.35 87.85 72.35 Z"/>
</g>
</defs>

<g id="Layer_1">
<g transform="matrix( 0.5625, 0, 0, 0.5625, -17.2,-0.3) ">
<use xlink:href="#Layer0_0_MEMBER_0_FILL"/>
</g>

<g transform="matrix( 0.5625, 0, 0, 0.5625, -18,-0.3) ">
<use xlink:href="#Layer0_0_MEMBER_1_MEMBER_0_FILL"/>
</g>

<g transform="matrix( 0.5625, 0, 0, 0.5625, -18,-0.3) ">
<use xlink:href="#Layer0_0_MEMBER_2_FILL"/>
</g>

<g transform="matrix( 0.5625, 0, 0, 0.5625, -17.25,-0.3) ">
<use xlink:href="#Layer0_0_MEMBER_3_FILL"/>
</g>

<g transform="matrix( 0.5625, 0, 0, 0.5625, -17.25,-0.3) ">
<use xlink:href="#Layer0_0_MEMBER_4_FILL"/>
</g>

<g transform="matrix( 0.5625, 0, 0, 0.5625, -17.25,-0.3) ">
<use xlink:href="#Layer0_0_MEMBER_5_FILL"/>
</g>

<g transform="matrix( 0.5625, 0, 0, 0.5625, -17.35,-0.3) ">
<use xlink:href="#Layer0_0_MEMBER_6_FILL"/>
</g>

<g transform="matrix( 0.5625, 0, 0, 0.5625, -17.2,-0.3) ">
<use xlink:href="#Layer0_0_MEMBER_7_FILL"/>
</g>

<g transform="matrix( 0.5625, 0, 0, 0.5625, -17.2,-0.3) ">
<use xlink:href="#Layer0_0_MEMBER_8_FILL"/>
</g>

<g transform="matrix( 0.5625, 0, 0, 0.5625, -49.6,-0.3) ">
<use xlink:href="#Layer0_0_MEMBER_9_FILL"/>
</g>

<g transform="matrix( 0.5625, 0, 0, 0.5625, -17.2,-0.3) ">
<use xlink:href="#Layer0_0_MEMBER_10_MEMBER_0_FILL"/>
</g>

<g transform="matrix( 0.5625, 0, 0, 0.5625, -17.2,-0.3) ">
<use xlink:href="#Layer0_0_MEMBER_10_MEMBER_1_FILL"/>
</g>

<g transform="matrix( 0.5463104248046875, 0, 0, 0.5463104248046875, -12.25,1.45) ">
<use xlink:href="#Layer0_1_MEMBER_0_FILL"/>
</g>

<g transform="matrix( 0.5463104248046875, 0, 0, 0.5463104248046875, -12.25,1.45) ">
<use xlink:href="#Layer0_1_MEMBER_1_FILL"/>
</g>

<g transform="matrix( 0.20751953125, 0, 0, 0.2074432373046875, 22.85,36.35) ">
<use xlink:href="#Layer0_1_MEMBER_2_MEMBER_0_FILL"/>
</g>

<g transform="matrix( 0.20745849609375, 0, 0, 0.207366943359375, 22.85,36.35) ">
<use xlink:href="#Layer0_1_MEMBER_2_MEMBER_1_MEMBER_0_FILL"/>
</g>

<g transform="matrix( 0.20745849609375, 0, 0, 0.207366943359375, 22.85,36.35) ">
<use xlink:href="#Layer0_1_MEMBER_2_MEMBER_1_MEMBER_1_FILL"/>
</g>

<g transform="matrix( 0.20745849609375, 0, 0, 0.207366943359375, 22.85,36.35) ">
<use xlink:href="#Layer0_1_MEMBER_2_MEMBER_2_MEMBER_0_FILL"/>
</g>

<g transform="matrix( 0.20751953125, 0, 0, 0.2074432373046875, 22.85,36.35) ">
<use xlink:href="#Layer0_1_MEMBER_2_MEMBER_3_FILL"/>
</g>

<g transform="matrix( 0.20751953125, 0, 0, 0.2074432373046875, 22.85,36.35) ">
<use xlink:href="#Layer0_1_MEMBER_2_MEMBER_4_FILL"/>
</g>

<g transform="matrix( 0.20751953125, 0, 0, 0.2074432373046875, 22.85,36.35) ">
<use xlink:href="#Layer0_1_MEMBER_2_MEMBER_5_FILL"/>
</g>

<g transform="matrix( 0.20745849609375, 0, 0, 0.2073822021484375, 22.85,36.85) ">
<use xlink:href="#Layer0_1_MEMBER_2_MEMBER_6_MEMBER_0_FILL"/>
</g>

<g transform="matrix( 0.20745849609375, 0, 0, 0.2073822021484375, 22.85,36.85) ">
<use xlink:href="#Layer0_1_MEMBER_2_MEMBER_6_MEMBER_1_FILL"/>
</g>
</g>
</svg>
