
<svg xmlns="http://www.w3.org/2000/svg" version="1.1" xmlns:xlink="http://www.w3.org/1999/xlink" preserveAspectRatio="none" x="0px" y="0px" width="72px" height="72px" viewBox="0 0 72 72">
<defs>
<radialGradient id="Gradient_1" gradientUnits="userSpaceOnUse" cx="0" cy="0" r="16.174999999999997" fx="0" fy="0" gradientTransform="matrix( 1.0000000000000002, 0, 0, 0.8979907264296757, 36.05,55.75) " spreadMethod="pad">
<stop  offset="0%" stop-color="#FFFFFF"/>

<stop  offset="100%" stop-color="#FFFFFF" stop-opacity="0"/>
</radialGradient>

<g id="Layer0_0_MEMBER_0_MEMBER_0_MEMBER_0_FILL">
<path fill="#7E57C2" stroke="none" d="
M 8.85 69.75
L 8.85 72 63.35 72 63.35 69.75
Q 63.35 62.3 58 57.2 53.05 52.6 45.05 51.2 35.95 49.65 26.6 51.9 18.85 53.7 14.15 58 8.85 62.85 8.85 69.75 Z"/>
</g>

<g id="Layer0_0_MEMBER_0_MEMBER_1_FILL">
<path fill="#7E57C2" stroke="none" d="
M 13.35 56.7
Q 7.85 61.95 7.85 69.7
L 7.85 72 64.15 72 64.15 69.7
Q 64.15 62.55 58.7 57.55 53.85 53.1 45.75 51.25 36.1 48.9 26.75 50.5 18.45 51.95 13.35 56.7 Z"/>
</g>

<g id="Layer0_0_MEMBER_0_MEMBER_2_FILL">
<path fill="#E59900" stroke="none" d="
M 64 74.15
Q 66.9 74.15 68.95 72.1 71 70.05 71 67.15
L 71 60.75 57 60.75 57 67.15
Q 57 70.05 59.05 72.1 61.1 74.15 64 74.15 Z"/>
</g>

<g id="Layer0_0_MEMBER_1_MEMBER_0_FILL">
<path fill="#FFA000" stroke="none" d="
M 118.2 71.6
L 118.5 55.8 65 53.6 9.5 55.8 9.8 71.6
Q 10.5 90.25 12.65 104.65 14.65 118.2 16.6 120.85 19 124.15 27.8 123.15 34.1 122.4 48.7 120.15 58.15 118.65 63.5 118.65
L 64.45 118.65
Q 69.8 118.65 79.25 120.15 93.85 122.4 100.1 123.15 108.9 124.15 111.3 120.85 113.3 118.2 115.3 104.65 117.45 90.25 118.2 71.6 Z"/>
</g>

<g id="Layer0_0_MEMBER_1_MEMBER_1_FILL">
<path fill="#FFA000" stroke="none" d="
M 102.5 91.65
Q 118.5 76.9 118.5 56.1 118.5 35.25 102.5 20.55 86.55 5.8 64 5.8 41.4 5.8 25.45 20.55 9.5 35.25 9.5 56.1 9.5 76.9 25.45 91.65 41.45 106.4 64 106.4 86.55 106.4 102.5 91.65 Z"/>
</g>

<g id="Layer0_0_MEMBER_1_MEMBER_2_FILL">
<path fill="#FCC21B" stroke="none" d="
M 106.75 73.45
Q 106.75 44.75 97.85 30.85 87.7 14.9 64.15 14.9 40.6 14.9 30.25 31 21.2 45.15 21.2 73.8 21.2 97.8 36.65 111.3 49 122.15 64.15 122.15 79.2 122.15 91.5 111.15 106.75 97.45 106.75 73.45 Z"/>
</g>

<g id="Layer0_0_MEMBER_1_MEMBER_3_FILL">
<path fill="#FFA000" stroke="none" d="
M 108.05 32.25
Q 104.85 25.75 97.8 19.2 83.65 6.15 64.4 6.15 45.2 6.15 31.05 18.9 24 25.3 20.8 31.65
L 20.8 71.45
Q 39.8 68.25 58.15 56.8 68.65 50.25 76.45 42.8 76.75 42.5 77.15 42.55 77.55 42.65 77.75 43.05 84.05 56 96.7 65 103 69.55 108.05 71.45
L 108.05 32.25 Z"/>
</g>

<g id="Layer0_0_MEMBER_1_MEMBER_4_MEMBER_0_FILL">
<path fill="#444444" stroke="none" d="
M 40.15 72.35
Q 38.45 74.35 38.45 77.2 38.45 80.1 40.15 82.1 41.8 84.1 44.2 84.1 46.55 84.1 48.25 82.1 49.9 80.05 49.9 77.2 49.9 74.35 48.25 72.35 46.55 70.3 44.2 70.3 41.8 70.3 40.15 72.35 Z"/>
</g>

<g id="Layer0_0_MEMBER_1_MEMBER_4_MEMBER_1_FILL">
<path fill="#444444" stroke="none" d="
M 87.85 72.35
Q 86.15 70.3 83.8 70.3 81.4 70.3 79.75 72.35 78.05 74.35 78.05 77.2 78.05 80.05 79.75 82.1 81.4 84.1 83.8 84.1 86.15 84.1 87.85 82.1 89.5 80.1 89.5 77.2 89.5 74.35 87.85 72.35 Z"/>
</g>

<g id="Layer0_0_MEMBER_1_MEMBER_4_MEMBER_2_FILL">
<path fill="#513F35" stroke="none" d="
M 63.95 108.75
Q 68.85 108.75 72.95 106.6 76.15 104.9 77.45 102.9 78.15 101.85 77.8 101.2 77.45 100.55 76.35 100.55
L 51.6 100.55
Q 50.5 100.55 50.15 101.2 49.8 101.85 50.5 102.9 51.8 104.9 55 106.6 59.1 108.75 63.95 108.75 Z"/>
</g>

<g id="Layer0_0_MEMBER_1_MEMBER_4_MEMBER_3_FILL">
<path fill="#E59600" stroke="none" d="
M 58 90
Q 57.35 89.85 57.1 90.3 56.8 90.7 57.05 91.2 57.75 92.35 59.45 93.4 61.65 94.75 64 94.75 66.35 94.75 68.5 93.4 70.2 92.35 70.9 91.2 71.15 90.7 70.9 90.3 70.6 89.85 69.95 90 66.8 90.9 64 90.9 61.15 90.9 58 90 Z"/>
</g>

<g id="Layer0_0_MEMBER_2_FILL">
<path fill="url(#Gradient_1)" stroke="none" d="
M 36.05 39.25
Q 28.6 39.25 23.4 44 18.15 48.7 18.15 55.45 18.15 62.15 23.4 66.9 28.6 71.65 36.05 71.65 43.4 71.65 48.65 66.9 53.9 62.15 53.9 55.45 53.9 48.7 48.65 44 43.4 39.25 36.05 39.25 Z"/>
</g>

<g id="Layer0_0_MEMBER_3_FILL">
<path fill="#00ACC1" stroke="none" d="
M 39.1 62.75
L 34.4 62.75
Q 33 62.75 31.95 63.8 30.95 64.75 30.9 66.3 30.75 69.55 30.5 72
L 43.05 72
Q 42.75 69.55 42.65 66.3 42.6 64.75 41.55 63.8 40.55 62.75 39.1 62.75 Z"/>

<path fill="#4DD0E1" stroke="none" d="
M 12.2 49.85
Q 11.2 50.95 11.2 52.4
L 11.2 72 30.5 72
Q 30.75 69.55 30.9 66.3 30.95 64.75 31.95 63.8 33 62.75 34.4 62.75
L 39.1 62.75
Q 40.55 62.75 41.55 63.8 42.6 64.75 42.65 66.3 42.75 69.55 43.05 72
L 60.9 72 60.9 52.4
Q 60.9 50.95 59.9 49.85 58.9 48.85 57.5 48.85
L 14.6 48.85
Q 13.2 48.85 12.2 49.85 Z"/>
</g>
</defs>

<g id="Layer_1">
<g transform="matrix( 1.03338623046875, 0, 0, 1.03338623046875, -1.3,-2.4) ">
<use xlink:href="#Layer0_0_MEMBER_0_MEMBER_0_MEMBER_0_FILL"/>
</g>

<g transform="matrix( 1, 0, 0, 1, 0,0) ">
<use xlink:href="#Layer0_0_MEMBER_0_MEMBER_1_FILL"/>
</g>

<g transform="matrix( 0.8800048828125, 0, 0, 0.8800048828125, -20.25,-8.05) ">
<use xlink:href="#Layer0_0_MEMBER_0_MEMBER_2_FILL"/>
</g>

<g transform="matrix( 0.4211578369140625, 0, 0, 0.4211578369140625, 9.05,-2.25) ">
<use xlink:href="#Layer0_0_MEMBER_1_MEMBER_0_FILL"/>
</g>

<g transform="matrix( 0.4211578369140625, 0, 0, 0.4211578369140625, 9.05,-2.25) ">
<use xlink:href="#Layer0_0_MEMBER_1_MEMBER_1_FILL"/>
</g>

<g transform="matrix( 0.4211578369140625, 0, 0, 0.4211578369140625, 9.05,-2.25) ">
<use xlink:href="#Layer0_0_MEMBER_1_MEMBER_2_FILL"/>
</g>

<g transform="matrix( 0.4211578369140625, 0, 0, 0.4211578369140625, 9.05,-2.25) ">
<use xlink:href="#Layer0_0_MEMBER_1_MEMBER_3_FILL"/>
</g>

<g transform="matrix( 0.4210968017578125, 0, 0, 0.4210968017578125, 9.05,-2.25) ">
<use xlink:href="#Layer0_0_MEMBER_1_MEMBER_4_MEMBER_0_FILL"/>
</g>

<g transform="matrix( 0.4210968017578125, 0, 0, 0.4210968017578125, 9.05,-2.25) ">
<use xlink:href="#Layer0_0_MEMBER_1_MEMBER_4_MEMBER_1_FILL"/>
</g>

<g transform="matrix( 0.4210968017578125, 0, 0, 0.4210968017578125, 9.05,-2.25) ">
<use xlink:href="#Layer0_0_MEMBER_1_MEMBER_4_MEMBER_2_FILL"/>
</g>

<g transform="matrix( 0.4210968017578125, 0, 0, 0.4210968017578125, 9.05,-2.25) ">
<use xlink:href="#Layer0_0_MEMBER_1_MEMBER_4_MEMBER_3_FILL"/>
</g>

<g transform="matrix( 1, 0, 0, 1, 0,0) ">
<use xlink:href="#Layer0_0_MEMBER_2_FILL"/>
</g>

<g transform="matrix( 1, 0, 0, 1, -0.05,0) ">
<use xlink:href="#Layer0_0_MEMBER_3_FILL"/>
</g>
</g>
</svg>
