
<svg xmlns="http://www.w3.org/2000/svg" version="1.1" xmlns:xlink="http://www.w3.org/1999/xlink" preserveAspectRatio="none" x="0px" y="0px" width="72px" height="72px" viewBox="0 0 72 72">
<defs>
<radialGradient id="Gradient_1" gradientUnits="userSpaceOnUse" cx="0" cy="0" r="16.174999999999997" fx="0" fy="0" gradientTransform="matrix( 1.0000000000000002, 0, 0, 0.8979907264296757, 36.05,55.75) " spreadMethod="pad">
<stop  offset="0%" stop-color="#FFFFFF"/>

<stop  offset="100%" stop-color="#FFFFFF" stop-opacity="0"/>
</radialGradient>

<g id="Layer0_0_MEMBER_0_MEMBER_0_MEMBER_0_FILL">
<path fill="#00ACC1" stroke="none" d="
M 8.85 69.75
L 8.85 72 63.35 72 63.35 69.75
Q 63.35 62.3 58 57.2 53.05 52.6 45.05 51.2 35.95 49.65 26.6 51.9 18.85 53.7 14.15 58 8.85 62.85 8.85 69.75 Z"/>
</g>

<g id="Layer0_0_MEMBER_0_MEMBER_1_FILL">
<path fill="#00ACC1" stroke="none" d="
M 14.2 57.2
Q 8.85 62.25 8.85 69.75
L 8.85 72 63.35 72 63.35 69.75
Q 63.35 62.85 58.05 58 53.35 53.7 45.55 51.9 36.2 49.65 27.15 51.2 19.1 52.6 14.2 57.2 Z"/>
</g>

<g id="Layer0_0_MEMBER_0_MEMBER_2_FILL">
<path fill="#E59900" stroke="none" d="
M 64 74.15
Q 66.9 74.15 68.95 72.1 71 70.05 71 67.15
L 71 60.75 57 60.75 57 67.15
Q 57 70.05 59.05 72.1 61.1 74.15 64 74.15 Z"/>
</g>

<g id="Layer0_0_MEMBER_1_MEMBER_0_MEMBER_0_FILL">
<path fill="#E59600" stroke="none" d="
M 106.9 66.05
L 103.3 66.05 103.3 86.35
Q 108.05 86.35 111.15 83.95 114.75 81.15 114.75 75.9 114.75 70.6 110.85 67.8
L 106.9 66.05 Z"/>
</g>

<g id="Layer0_0_MEMBER_1_MEMBER_0_MEMBER_1_FILL">
<path fill="#E59600" stroke="none" d="
M 24.7 66.05
L 21.05 66.05 17.15 67.8
Q 13.2 70.6 13.2 75.9 13.2 81.15 16.8 83.95 19.9 86.35 24.7 86.35
L 24.7 66.05 Z"/>
</g>

<g id="Layer0_0_MEMBER_1_MEMBER_1_FILL">
<path fill="#FCC21B" stroke="none" d="
M 106.75 73.8
Q 106.75 43.35 98.1 28.35 87.85 10.6 64 10.6 40.1 10.6 29.85 28.35 21.2 43.35 21.2 73.8 21.2 99.7 35.8 112.25 47.05 122 64 122 80.8 122 92.1 112.35 106.75 99.8 106.75 73.8 Z"/>
</g>

<g id="Layer0_0_MEMBER_1_MEMBER_2_FILL">
<path fill="#444444" stroke="none" d="
M 40.15 72.35
Q 38.45 74.35 38.45 77.2 38.45 80.1 40.15 82.1 41.8 84.1 44.2 84.1 46.55 84.1 48.25 82.1 49.9 80.05 49.9 77.2 49.9 74.35 48.25 72.35 46.55 70.3 44.2 70.3 41.8 70.3 40.15 72.35 Z"/>
</g>

<g id="Layer0_0_MEMBER_1_MEMBER_3_FILL">
<path fill="#444444" stroke="none" d="
M 87.85 72.35
Q 86.15 70.3 83.8 70.3 81.4 70.3 79.75 72.35 78.05 74.35 78.05 77.2 78.05 80.05 79.75 82.1 81.4 84.1 83.8 84.1 86.15 84.1 87.85 82.1 89.5 80.1 89.5 77.2 89.5 74.35 87.85 72.35 Z"/>
</g>

<g id="Layer0_0_MEMBER_1_MEMBER_4_FILL">
<path fill="#513F35" stroke="none" d="
M 63.95 108.75
Q 68.85 108.75 72.95 106.6 76.15 104.9 77.45 102.9 78.15 101.85 77.8 101.2 77.45 100.55 76.35 100.55
L 51.6 100.55
Q 50.5 100.55 50.15 101.2 49.8 101.85 50.5 102.9 51.8 104.9 55 106.6 59.1 108.75 63.95 108.75 Z"/>
</g>

<g id="Layer0_0_MEMBER_1_MEMBER_5_FILL">
<path fill="#E59600" stroke="none" d="
M 58 90
Q 57.35 89.85 57.1 90.3 56.8 90.7 57.05 91.2 57.75 92.35 59.45 93.4 61.65 94.75 64 94.75 66.35 94.75 68.5 93.4 70.2 92.35 70.9 91.2 71.15 90.7 70.9 90.3 70.6 89.85 69.95 90 66.8 90.9 64 90.9 61.15 90.9 58 90 Z"/>
</g>

<g id="Layer0_0_MEMBER_1_MEMBER_6_FILL">
<path fill="#FFA000" stroke="none" d="
M 63.35 24.5
Q 63.35 24.1 63.35 23.7 62.95 17.45 57.7 12.85 50.5 6.55 36.55 6.35
L 35.5 6.35
Q 21.55 6.55 14.4 12.85 9.1 17.45 8.75 23.7 8.7 24.1 8.7 24.5
L 8.7 39.05
Q 9.05 38.75 9.65 38.3 10.05 37.95 10.6 37.7
L 11 37.5 12.05 44.45
Q 17.8 35.5 19.4 25.7 23.95 28.7 27.7 29.95 31.45 31.2 35.5 31.15
L 36.55 31.15
Q 43.25 31.1 48.85 30.45
L 52.95 30
Q 53.05 30 53.15 30.1
L 60 44.45 61.05 37.5 61.5 37.7
Q 62 37.95 62.4 38.25 63.05 38.75 63.35 39.05
L 63.35 24.5 Z"/>
</g>

<g id="Layer0_0_MEMBER_2_FILL">
<path fill="url(#Gradient_1)" stroke="none" d="
M 36.05 39.25
Q 28.6 39.25 23.4 44 18.15 48.7 18.15 55.45 18.15 62.15 23.4 66.9 28.6 71.65 36.05 71.65 43.4 71.65 48.65 66.9 53.9 62.15 53.9 55.45 53.9 48.7 48.65 44 43.4 39.25 36.05 39.25 Z"/>
</g>

<g id="Layer0_0_MEMBER_3_FILL">
<path fill="#00ACC1" stroke="none" d="
M 39.1 62.75
L 34.4 62.75
Q 33 62.75 31.95 63.8 30.95 64.75 30.9 66.3 30.75 69.55 30.5 72
L 43.05 72
Q 42.75 69.55 42.65 66.3 42.6 64.75 41.55 63.8 40.55 62.75 39.1 62.75 Z"/>

<path fill="#4DD0E1" stroke="none" d="
M 11.2 72
L 30.5 72
Q 30.75 69.55 30.9 66.3 30.95 64.75 31.95 63.8 33 62.75 34.4 62.75
L 39.1 62.75
Q 40.55 62.75 41.55 63.8 42.6 64.75 42.65 66.3 42.75 69.55 43.05 72
L 60.9 72 60.9 52.4
Q 60.9 50.95 59.9 49.85 58.9 48.85 57.5 48.85
L 14.6 48.85
Q 13.2 48.85 12.2 49.85 11.2 50.95 11.2 52.4
L 11.2 72 Z"/>
</g>
</defs>

<g id="Layer_1">
<g transform="matrix( 1.033447265625, 0, 0, 1.033447265625, -1.3,-2.4) ">
<use xlink:href="#Layer0_0_MEMBER_0_MEMBER_0_MEMBER_0_FILL"/>
</g>

<g transform="matrix( 1.033447265625, 0, 0, 1.033447265625, -1.3,-2.4) ">
<use xlink:href="#Layer0_0_MEMBER_0_MEMBER_1_FILL"/>
</g>

<g transform="matrix( 0.880035400390625, 0, 0, 0.880035400390625, -20.3,-8.1) ">
<use xlink:href="#Layer0_0_MEMBER_0_MEMBER_2_FILL"/>
</g>

<g transform="matrix( 0.4291534423828125, 0, 0, 0.4291534423828125, 8.55,-3.95) ">
<use xlink:href="#Layer0_0_MEMBER_1_MEMBER_0_MEMBER_0_FILL"/>
</g>

<g transform="matrix( 0.4291534423828125, 0, 0, 0.4291534423828125, 8.55,-3.95) ">
<use xlink:href="#Layer0_0_MEMBER_1_MEMBER_0_MEMBER_1_FILL"/>
</g>

<g transform="matrix( 0.429229736328125, 0, 0, 0.4292449951171875, 8.55,-3.55) ">
<use xlink:href="#Layer0_0_MEMBER_1_MEMBER_1_FILL"/>
</g>

<g transform="matrix( 0.429229736328125, 0, 0, 0.4292449951171875, 8.55,-3.55) ">
<use xlink:href="#Layer0_0_MEMBER_1_MEMBER_2_FILL"/>
</g>

<g transform="matrix( 0.429229736328125, 0, 0, 0.4292449951171875, 8.55,-3.55) ">
<use xlink:href="#Layer0_0_MEMBER_1_MEMBER_3_FILL"/>
</g>

<g transform="matrix( 0.429229736328125, 0, 0, 0.4292449951171875, 8.55,-3.55) ">
<use xlink:href="#Layer0_0_MEMBER_1_MEMBER_4_FILL"/>
</g>

<g transform="matrix( 0.429229736328125, 0, 0, 0.4292449951171875, 8.55,-3.55) ">
<use xlink:href="#Layer0_0_MEMBER_1_MEMBER_5_FILL"/>
</g>

<g transform="matrix( 0.763092041015625, 0, 0, 0.76312255859375, 8.55,-3.85) ">
<use xlink:href="#Layer0_0_MEMBER_1_MEMBER_6_FILL"/>
</g>

<g transform="matrix( 1, 0, 0, 1, 0,0) ">
<use xlink:href="#Layer0_0_MEMBER_2_FILL"/>
</g>

<g transform="matrix( 1, 0, 0, 1, -0.05,0) ">
<use xlink:href="#Layer0_0_MEMBER_3_FILL"/>
</g>
</g>
</svg>
