
<svg xmlns="http://www.w3.org/2000/svg" version="1.1" xmlns:xlink="http://www.w3.org/1999/xlink" preserveAspectRatio="none" x="0px" y="0px" width="72px" height="72px" viewBox="0 0 72 72">
<defs>
<filter id="Filter_1" x="-20%" y="-20%" width="140%" height="140%" color-interpolation-filters="sRGB">
<feColorMatrix in="SourceGraphic" type="matrix" values="1 0 0 0 0 0 1 0 0 0 0 0 1 0 0 0 0 0 0.5 0" result="result1"/>
</filter>

<g id="Layer0_0_MEMBER_0_MEMBER_0_MEMBER_0_FILL">
<path fill="#FFA000" stroke="none" d="
M 60 41.9
Q 61.5 33.25 61.5 19.2
L 35.6 19.2 35.85 27.9
Q 36.35 37.45 37.6 42 38.45 45.05 39.45 45.95 40.75 47.1 42.8 45.55
L 54.25 45.45
Q 56.4 47.05 58 45.9 59.5 44.8 60 41.9 Z"/>
</g>

<g id="Layer0_0_MEMBER_0_MEMBER_1_FILL">
<path fill="#FCC21B" stroke="none" d="
M 24.25 21.7
Q 23.2 22.15 22.35 22.8 21.95 23.1 21.75 23.3
L 25.05 28.5
Q 29.65 28.7 33.65 27.25 35.65 26.5 36.75 25.7
L 36.1 20.25
Q 35.15 20.85 33.85 21.05 32.7 21.2 31.85 21.05 27.6 20.25 24.25 21.7 Z"/>
</g>

<g id="Layer0_0_MEMBER_0_MEMBER_2_MEMBER_0_MEMBER_0_FILL">
<path fill="#FCC21B" stroke="none" d="
M 73.6 30.35
Q 73.15 31.8 73.85 33.2 74.55 34.55 76.05 35.05 77.5 35.55 78.9 34.85 80.25 34.1 80.7 32.65 81.2 31.2 80.5 29.8 79.75 28.45 78.3 27.95 76.85 27.45 75.45 28.2 74.1 28.9 73.6 30.35 Z"/>
</g>

<g id="Layer0_0_MEMBER_0_MEMBER_2_MEMBER_0_MEMBER_1_FILL">
<path fill="#FCC21B" stroke="none" d="
M 63.65 45.45
Q 64.4 45.5 65.65 45.05 66.85 44.6 67.5 44.1 72 40.6 79.45 34.45
L 74.85 28.65 73.2 29.8
Q 71.25 31.3 65.65 34.75
L 60.45 37.9 61.75 41.7
Q 63.1 45.45 63.65 45.45 Z"/>
</g>

<g id="Layer0_0_MEMBER_0_MEMBER_2_MEMBER_0_MEMBER_2_FILL">
<path fill="#FCC21B" stroke="none" d="
M 76.9 22.25
Q 74 17.25 73.2 15.3 72.7 13.9 72.05 13.7 71.45 13.5 70 14.2 68.55 14.8 68.3 15.15 67.85 15.65 68.25 16.8
L 71.6 27.05
Q 72.5 29.75 73.15 33
L 80.65 30.2
Q 79.5 26.65 76.9 22.25 Z"/>
</g>

<g id="Layer0_0_MEMBER_0_MEMBER_2_MEMBER_1_FILL">
<path fill="#FCC21B" stroke="none" d="
M 72.95 10.55
Q 72.25 10.7 71.6 11.25
L 68.55 13.95
Q 67.25 15.1 68.15 16.5 69.05 17.85 70.45 17 72.15 16.05 74.5 13.75
L 76.2 12
Q 78.2 10.05 79.55 9.05 79.9 8.8 79.75 8.3 79.6 7.8 79.1 7.85 78.15 8.05 76 9.6
L 74.05 11.15
Q 73.8 10.4 72.95 10.55 Z"/>
</g>

<g id="Layer0_0_MEMBER_0_MEMBER_3_MEMBER_0_FILL">
<path fill="#FBC11B" stroke="none" d="
M 25.25 55.85
Q 25 57.35 25.85 58.65 26.75 59.9 28.25 60.2 29.8 60.45 31.05 59.6 32.3 58.75 32.6 57.2 32.85 55.7 32 54.45 31.15 53.15 29.6 52.85 28.1 52.6 26.85 53.45 25.55 54.3 25.25 55.85 Z"/>
</g>

<g id="Layer0_0_MEMBER_0_MEMBER_3_MEMBER_1_FILL">
<path fill="#FCC21B" stroke="none" d="
M 42.95 44.45
Q 41.1 40.9 40.6 40.95 39.8 41 38.65 41.65 37.55 42.2 36.95 42.8 31.6 48.25 26.3 53.9
L 31.65 59.05 33.1 57.7
Q 35.95 54.95 44.7 48.05 43.9 46.25 42.95 44.45 Z"/>
</g>

<g id="Layer0_0_MEMBER_0_MEMBER_3_MEMBER_2_FILL">
<path fill="#FCC21B" stroke="none" d="
M 32.75 64.7
Q 37.4 68.05 38.9 69.45 39.8 70.4 41.25 69.9 41.95 69.7 42.5 69.25 43.55 68.05 43.65 67.7 43.85 67.05 43 66.1
L 35.7 58.2
Q 33.25 55.4 31.85 53.4
L 26.2 59.05
Q 28.7 61.8 32.75 64.7 Z"/>
</g>

<g id="Layer0_0_MEMBER_0_MEMBER_3_MEMBER_3_FILL">
<path fill="#FCC21B" stroke="none" d="
M 38.75 79.25
Q 39.4 78.55 40.2 76.05
L 40.85 73.65
Q 41.55 74.1 42.15 73.45 42.6 72.95 42.8 72.1
L 43.65 68.15
Q 44 66.45 42.5 65.85 40.95 65.25 40.3 66.75 39.65 68.2 38.95 71.8
L 38.65 74.25
Q 38.2 77 37.7 78.6 37.6 79.05 38 79.3 38.4 79.6 38.75 79.25 Z"/>
</g>

<g id="Layer0_0_MEMBER_0_MEMBER_4_FILL">
<path fill="#DD2C00" stroke="none" d="
M 59.7 41.2
Q 58.5 39.75 56.8 38.05
L 55.35 36.65 54.2 36.65
Q 55.95 38.7 57.15 42.7 58.6 47.55 56.2 48.65 53.95 49.7 49 43.85
L 44.5 37.75 43.05 38.15
Q 40.7 38.95 38.15 40.9 35.9 42.65 35.95 43.05 35.95 43.2 40.15 47.95 44.8 53.25 46.15 55.1 47.15 56.3 47.9 58.4 48.95 61.2 48.4 63.35 44.75 71 46.05 75.9 46.4 77.25 47.55 79.4 48.55 81.35 48.75 82.45 49.7 87.3 46.4 96.7 42.2 108.55 33.9 113.85
L 46.15 116.75 54.8 109.3 66.7 107.55 70.9 98.9 68.35 83.2 70.9 80.35 79.65 79.65
Q 81 79.8 76.65 75.25 72.25 70.6 68.95 68.7 64.1 65.85 63.15 59 62.85 56.95 63.9 54.25 65.15 51.05 65.25 49.75 65.5 46.5 63.4 44.35 60.7 42.35 59.7 41.2 Z"/>
</g>

<g id="Layer0_0_MEMBER_0_MEMBER_5_FILL">
<path fill="#DD2C00" stroke="none" d="
M 58.7 36.8
Q 56.85 36.6 55.35 36.6 57.7 39.2 59.05 42.2 61.1 46.75 63.2 47.4 64.1 47.7 66.25 46.3 68.3 44.95 68.3 44.45 68.4 42.8 66.85 40.35 65.3 38 63.75 36.8 62.65 36.15 62.3 36.25 60.25 36.85 58.7 36.8 Z"/>
</g>

<g id="Layer0_0_MEMBER_0_MEMBER_6_MEMBER_0_MEMBER_0_FILL">
<path fill="#FFA000" stroke="none" d="
M 49.4 30.8
Q 54.75 30.4 58.3 26.7 61.8 23.05 61.45 18.25 61.1 13.45 57.05 10.35 53.05 7.25 47.7 7.6 42.35 8 38.8 11.7 35.3 15.35 35.65 20.15 36.05 25 40.05 28.1 44.05 31.2 49.4 30.8 Z"/>
</g>

<g id="Layer0_0_MEMBER_0_MEMBER_6_MEMBER_1_FILL">
<path fill="#E59900" stroke="none" d="
M 28.2 22.9
Q 29.05 22.85 29.55 22.3 30.05 21.7 30 20.9
L 29.85 19 26 19.25 26.15 21.2
Q 26.2 22 26.8 22.45 27.4 22.95 28.2 22.9 Z"/>
</g>

<g id="Layer0_0_MEMBER_0_MEMBER_6_MEMBER_2_FILL">
<path fill="#E59900" stroke="none" d="
M 28.95 18
L 26.8 18.15
Q 26.4 18.2 26.2 18.55 25.95 18.9 26 19.3
L 26.15 21.2 26.65 21.25
Q 27.35 21.35 28.1 21.3 29.3 21.2 30 20.85
L 29.85 19
Q 29.8 18.55 29.55 18.3 29.3 17.95 28.95 18 Z"/>
</g>

<g id="Layer0_0_MEMBER_0_MEMBER_6_MEMBER_3_MEMBER_0_FILL">
<path fill="#FCC21B" stroke="none" d="
M 56.15 13.95
Q 53.45 10 47.9 10.4 42.3 10.8 40.25 15.15 38.45 18.8 39 25.9 39.45 31.7 43.25 34.55 46.2 36.75 49.85 36.45 53.5 36.15 56.1 33.55 59.45 30.2 59 24.4 58.45 17.3 56.15 13.95 Z"/>
</g>

<g id="Layer0_0_MEMBER_0_MEMBER_6_MEMBER_4_MEMBER_0_FILL">
<path fill="#FFA000" stroke="none" d="
M 51.45 16.95
Q 51.5 16.85 51.6 16.9 51.7 16.9 51.75 17 53.55 20.05 56.75 22 58.35 23 59.6 23.35
L 58.9 13.8
Q 58 12.3 56.15 10.8 52.5 7.9 47.85 8.25 43.15 8.65 39.95 12
L 37.7 15.25 38.45 24.9
Q 43 23.8 47.25 20.7 49.65 18.9 51.45 16.95 Z"/>
</g>

<g id="Layer0_0_MEMBER_0_MEMBER_6_MEMBER_5_MEMBER_0_FILL">
<path fill="#444444" stroke="none" d="
M 45.7 26
Q 45.65 25.3 45.2 24.85 44.75 24.4 44.2 24.45 43.65 24.5 43.25 25 42.9 25.55 42.95 26.2 43 26.85 43.45 27.35 43.9 27.8 44.45 27.75 45 27.7 45.4 27.2 45.75 26.7 45.7 26 Z"/>
</g>

<g id="Layer0_0_MEMBER_0_MEMBER_6_MEMBER_5_MEMBER_1_FILL">
<path fill="#444444" stroke="none" d="
M 29.65 13.65
Q 29.45 13.95 29.5 14.35 29.55 14.75 29.75 15 30 15.25 30.3 15.2 30.65 15.2 30.85 14.9 31.05 14.65 31 14.25 31 13.85 30.75 13.6 30.5 13.35 30.2 13.35 29.85 13.4 29.65 13.65 Z"/>
</g>

<g id="Layer0_0_MEMBER_0_MEMBER_6_MEMBER_5_MEMBER_2_FILL">
<path fill="#444444" stroke="none" d="
M 52.8 31.25
Q 52.7 31.05 52.45 31.1
L 46.5 31.55
Q 45.85 31.55 46.3 32.15 46.65 32.6 47.45 32.95 48.45 33.35 49.6 33.3 50.75 33.2 51.7 32.6 52.45 32.15 52.7 31.65 52.9 31.4 52.8 31.25 Z"/>
</g>

<g id="Layer0_0_MEMBER_0_MEMBER_6_MEMBER_5_MEMBER_3_FILL">
<path fill="#E59600" stroke="none" d="
M 50.95 28.95
Q 51.05 28.6 50.7 28.7 49.95 29 49.3 29 48.7 29.05 47.85 28.9 47.7 28.85 47.65 29 47.55 29.1 47.65 29.2 48.3 30 49.35 29.9 50.5 29.85 50.95 28.95 Z"/>
</g>

<g id="Layer0_0_MEMBER_0_MEMBER_7_FILL">
<path fill="#B42002" stroke="none" d="
M 88.6 66.7
Q 85.8 66.35 83.8 66.8 80.25 67.65 79.75 70.85 79.45 72.7 78.35 73.65 78 73.95 75.7 75.15 75.4 75.35 72.4 75.65 69.85 75.95 67.4 78.15 65.25 80.1 65.55 84.1 65.7 86 66.8 90 68.15 94.75 67.15 100.05 66.1 105.85 62.9 105.8 61.7 105.8 58.45 104.1 55.65 102.6 54.15 103.15 51.6 104.15 49.55 108.35 47.45 112.7 45.65 113.6 44.1 114.4 34.85 113.15 27 112.15 25.55 115.75 25.05 116.95 25.7 118.45 26.3 119.8 27.55 120.6 31.8 123.35 35.75 122.8 38 122.45 42.4 121.7 42.5 121.7 46.6 122.75 49.75 123.55 51.4 122.9 52.7 122.4 54.5 120.05 56.35 117.65 57 117.3 58.8 116.4 64.1 117.4 69.2 118.3 70.35 117.45 72.25 116.05 74.75 116.3 77.9 116.55 77.95 116.55 79.15 116.25 79.8 114.9 80.4 113.7 80.3 112.3 80.1 109.9 80.25 108.7 80.5 106.25 81.95 104.9 82.55 104.35 84.45 103.75 86.2 103.15 87.4 101.7 88.15 100.8 88.65 98.8 89.15 96.9 90.05 96 90.75 95.3 92.75 95.1 93.95 94.95 96.75 94.8 99.45 94.6 100.9 93.35 101.85 92.6 102.15 91.5 102.55 90.35 102.05 89.35 101.2 87.65 101.1 87.4 100.75 86.35 101.15 85.45 101.9 84.45 102.35 83.45 103.2 81.55 102.65 79.8 102.1 78.1 99.85 77.75 97.35 77.4 96.9 76.75 96.5 76.15 96.4 74.45 96.25 72.35 96 71.45 94.85 67.6 88.6 66.7 Z"/>
</g>

<g id="Layer0_0_MEMBER_0_MEMBER_8_FILL">
<path fill="#DD2C00" stroke="none" d="
M 36.35 42.45
L 35.1 43.7
Q 34.65 44.05 34.6 44.45 34.6 44.7 34.8 45.1 36.5 48.4 40.35 51.5 40.8 51.85 41.1 51.9 41.45 52 43.4 50.5 43.8 50.05 43.25 49.15 41.7 46.15 40.45 44.8 38.4 42.55 36.35 42.45 Z"/>
</g>

<g id="Layer0_0_MEMBER_0_MEMBER_9_MEMBER_0_FILL">
<path fill="#B42002" stroke="none" d="
M 96.05 119.8
Q 94.4 118.6 91.45 116.75 88.65 115 88.55 115.05 87.6 115.4 87.2 115.8 86.3 116.65 86.3 118.15 86.3 119.65 86.65 120.95 87.2 122.7 87.4 124.65
L 89 124.65
Q 89.05 124.2 89.3 124.2 89.55 124.25 89.8 124.7 90.3 125.7 90.85 126 93.75 127.6 97.95 127.95 101.55 128.2 101.9 127.75 102.15 127.45 102.05 126.7 101.95 126.05 101.75 125.65 101.1 124.4 99.15 122.45 97.3 120.6 96.05 119.8 Z"/>
</g>

<g id="Layer0_0_MEMBER_0_MEMBER_9_MEMBER_1_FILL">
<path fill="#FCC21B" stroke="none" d="
M 84.15 91.5
Q 83.55 90.2 81.8 90.45 80.35 90.65 78.65 91.75 76.65 93 76.15 93.75 75.3 94.95 76.25 96.45 77.1 97.75 82.25 104.55 86.45 110.15 87.75 112.9 88 113.4 89.05 116.85 89.8 119.2 90.95 120.45 92.35 122.05 93.7 122.25 96.55 122.75 96.8 121.2 96.9 120.65 96.6 119.5 96.35 118.55 96.05 117.85
L 93.35 111.55
Q 89 101.4 84.15 91.5 Z"/>
</g>

<g id="An_1F483_SVG_Layer_1__Path__1_0_Layer0_0_FILL">
<path fill="#B42002" stroke="none" d="
M 2.25 0
Q 2.2 0.05 2.35 1.95 2.5 4.3 2.2 6.1 2 7.1 0.85 10.35 -0.1 13.05 0.1 13.2 0.45 13.45 1.9 10.9 3.5 8.05 3.85 5.6 4.05 4.25 3.45 2.05 2.8 -0.2 2.25 0 Z"/>
</g>

<g id="An_1F483_SVG_Layer_1__Path__0_Layer0_0_FILL">
<path fill="#B42002" stroke="none" d="
M 0.7 0.05
Q 0.65 0.1 1 2.15 1.4 4.8 1.3 6.8 1.25 8 0.5 11.65 -0.15 14.7 0.05 14.85 0.45 15.05 1.6 12.15 2.9 8.85 2.95 6.1 2.95 4.6 2.05 2.2 1.2 -0.2 0.7 0.05 Z"/>
</g>

<g id="Layer0_0_MEMBER_0_MEMBER_12_MEMBER_0_FILL">
<path fill="#7F1301" stroke="none" d="
M 54.1 117.45
Q 52.55 115.05 50.95 115.05 49.35 115.05 47.7 117.45 46.25 119.6 45.9 121.75 45.8 122.1 45.8 123.45 45.8 124.15 50.85 124.15 55.85 124.15 55.85 123.4 55.85 121.95 55.8 121.75 55.45 119.55 54.1 117.45 Z"/>
</g>

<g id="Layer0_0_MEMBER_0_MEMBER_12_MEMBER_1_MEMBER_0_FILL">
<path fill="#7F1301" stroke="none" d="
M 48.1 121.85
Q 46.3 122.55 45.85 123.25 45.7 123.55 46 123.95 46.35 124.4 46.85 124.4
L 50.85 124.4 50.85 121.15
Q 49.8 121.15 48.1 121.85 Z"/>
</g>

<g id="Layer0_0_MEMBER_0_MEMBER_12_MEMBER_1_MEMBER_1_FILL">
<path fill="#7F1301" stroke="none" d="
M 55.8 123.25
Q 55.35 122.55 53.55 121.85 51.85 121.15 50.8 121.15
L 50.8 124.4 54.85 124.4
Q 55.35 124.4 55.7 123.95 56 123.55 55.8 123.25 Z"/>
</g>

<g id="Layer0_0_MEMBER_0_MEMBER_12_MEMBER_2_FILL">
<path fill="#E59900" stroke="none" d="
M 32 61.8
Q 32.25 61 30.5 60.8 28.75 60.6 28.6 61.25 28.5 61.65 28.05 63.15 27.7 64.6 27.55 65.3 27.3 66.1 27.6 66.5 27.85 66.9 28.75 67 29.5 67.15 29.85 66.75 30.2 66.45 30.45 65.65
L 32 61.8 Z"/>
</g>
</defs>

<g id="Layer_1">
<g transform="matrix( 0.5625, 0, 0, 0.5625, 0,0) ">
<use xlink:href="#Layer0_0_MEMBER_0_MEMBER_0_MEMBER_0_FILL"/>
</g>

<g transform="matrix( 1, 0, 0, 1, 0,0) ">
<use xlink:href="#Layer0_0_MEMBER_0_MEMBER_1_FILL"/>
</g>

<g transform="matrix( 0.5625, 0, 0, 0.5625, 0,0) ">
<use xlink:href="#Layer0_0_MEMBER_0_MEMBER_2_MEMBER_0_MEMBER_0_FILL"/>
</g>

<g transform="matrix( 0.5625, 0, 0, 0.5625, 0,0) ">
<use xlink:href="#Layer0_0_MEMBER_0_MEMBER_2_MEMBER_0_MEMBER_1_FILL"/>
</g>

<g transform="matrix( 0.5625, 0, 0, 0.5625, 0,0) ">
<use xlink:href="#Layer0_0_MEMBER_0_MEMBER_2_MEMBER_0_MEMBER_2_FILL"/>
</g>

<g transform="matrix( 0.5625, 0, 0, 0.5625, 0,0) ">
<use xlink:href="#Layer0_0_MEMBER_0_MEMBER_2_MEMBER_1_FILL"/>
</g>

<g transform="matrix( 0.5625, 0, 0, 0.5625, 0,0) ">
<use xlink:href="#Layer0_0_MEMBER_0_MEMBER_3_MEMBER_0_FILL"/>
</g>

<g transform="matrix( 0.5625, 0, 0, 0.5625, 0,0) ">
<use xlink:href="#Layer0_0_MEMBER_0_MEMBER_3_MEMBER_1_FILL"/>
</g>

<g transform="matrix( 0.5625, 0, 0, 0.5625, 0,0) ">
<use xlink:href="#Layer0_0_MEMBER_0_MEMBER_3_MEMBER_2_FILL"/>
</g>

<g transform="matrix( 0.5625, 0, 0, 0.5625, 0,0) ">
<use xlink:href="#Layer0_0_MEMBER_0_MEMBER_3_MEMBER_3_FILL"/>
</g>

<g transform="matrix( 0.5625, 0, 0, 0.5625, 0,0) ">
<use xlink:href="#Layer0_0_MEMBER_0_MEMBER_4_FILL"/>
</g>

<g transform="matrix( 0.5625, 0, 0, 0.5625, 0,0) ">
<use xlink:href="#Layer0_0_MEMBER_0_MEMBER_5_FILL"/>
</g>

<g transform="matrix( 0.5625, 0, 0, 0.5625, 0,0) ">
<use xlink:href="#Layer0_0_MEMBER_0_MEMBER_6_MEMBER_0_MEMBER_0_FILL"/>
</g>

<g transform="matrix( 1, 0, 0, 1, 0,0) ">
<use xlink:href="#Layer0_0_MEMBER_0_MEMBER_6_MEMBER_1_FILL"/>
</g>

<g transform="matrix( 1, 0, 0, 1, 0,0) ">
<use xlink:href="#Layer0_0_MEMBER_0_MEMBER_6_MEMBER_2_FILL"/>
</g>

<g transform="matrix( 0.5625, 0, 0, 0.5625, 0,0) ">
<use xlink:href="#Layer0_0_MEMBER_0_MEMBER_6_MEMBER_3_MEMBER_0_FILL"/>
</g>

<g transform="matrix( 0.5625, 0, 0, 0.5625, 0,0) ">
<use xlink:href="#Layer0_0_MEMBER_0_MEMBER_6_MEMBER_4_MEMBER_0_FILL"/>
</g>

<g transform="matrix( 0.5625, 0, 0, 0.5625, 0,0) ">
<use xlink:href="#Layer0_0_MEMBER_0_MEMBER_6_MEMBER_5_MEMBER_0_FILL"/>
</g>

<g transform="matrix( 1, 0, 0, 1, 0,0) ">
<use xlink:href="#Layer0_0_MEMBER_0_MEMBER_6_MEMBER_5_MEMBER_1_FILL"/>
</g>

<g transform="matrix( 0.5625, 0, 0, 0.5625, 0,0) ">
<use xlink:href="#Layer0_0_MEMBER_0_MEMBER_6_MEMBER_5_MEMBER_2_FILL"/>
</g>

<g transform="matrix( 0.5625, 0, 0, 0.5625, 0,0) ">
<use xlink:href="#Layer0_0_MEMBER_0_MEMBER_6_MEMBER_5_MEMBER_3_FILL"/>
</g>

<g transform="matrix( 0.5625, 0, 0, 0.5625, 0,0) ">
<use xlink:href="#Layer0_0_MEMBER_0_MEMBER_7_FILL"/>
</g>

<g transform="matrix( 0.5625, 0, 0, 0.5625, 0,0) ">
<use xlink:href="#Layer0_0_MEMBER_0_MEMBER_8_FILL"/>
</g>

<g transform="matrix( 0.5625, 0, 0, 0.5625, 0,0) ">
<use xlink:href="#Layer0_0_MEMBER_0_MEMBER_9_MEMBER_0_FILL"/>
</g>

<g transform="matrix( 0.5625, 0, 0, 0.5625, 0,0) ">
<use xlink:href="#Layer0_0_MEMBER_0_MEMBER_9_MEMBER_1_FILL"/>
</g>

<g transform="matrix( 0.5625, 0, 0, 0.5625, 27.1,48.6) ">
<g id="Camada_1">
<g transform="matrix( 1, 0, 0, 1, 0,0) ">
<use filter="url(#Filter_1)" xlink:href="#An_1F483_SVG_Layer_1__Path__1_0_Layer0_0_FILL"/>
</g>
</g>
</g>

<g transform="matrix( 0.5625, 0, 0, 0.5625, 34.3,49.2) ">
<g transform="matrix( 1, 0, 0, 1, 0,0) ">
<use filter="url(#Filter_1)" xlink:href="#An_1F483_SVG_Layer_1__Path__0_Layer0_0_FILL"/>
</g>
</g>

<g transform="matrix( 0.5625, 0, 0, 0.5625, 0,0) ">
<use xlink:href="#Layer0_0_MEMBER_0_MEMBER_12_MEMBER_0_FILL"/>
</g>

<g transform="matrix( 0.5625, 0, 0, 0.5625, 0,0) ">
<use xlink:href="#Layer0_0_MEMBER_0_MEMBER_12_MEMBER_1_MEMBER_0_FILL"/>
</g>

<g transform="matrix( 0.5625, 0, 0, 0.5625, 0,0) ">
<use xlink:href="#Layer0_0_MEMBER_0_MEMBER_12_MEMBER_1_MEMBER_1_FILL"/>
</g>

<g transform="matrix( 1, 0, 0, 1, 0,0) ">
<use xlink:href="#Layer0_0_MEMBER_0_MEMBER_12_MEMBER_2_FILL"/>
</g>
</g>
</svg>
