
<svg xmlns="http://www.w3.org/2000/svg" version="1.1" xmlns:xlink="http://www.w3.org/1999/xlink" preserveAspectRatio="none" x="0px" y="0px" width="72px" height="72px" viewBox="0 0 72 72">
<defs>
<g id="Layer0_0_MEMBER_0_MEMBER_0_FILL">
<path fill="#FFA000" stroke="none" d="
M 105.4 69.2
Q 106 55.5 106 45.1
L 22 45.4
Q 22 56.85 22.8 71.1 24.45 99.6 28.5 113.55
L 101.1 113.25
Q 104.15 96.6 105.4 69.2 Z"/>
</g>

<g id="Layer0_0_MEMBER_0_MEMBER_1_MEMBER_0_FILL">
<path fill="#FFA000" stroke="none" d="
M 106 46.15
Q 106 29.8 93.7 18.2 81.4 6.65 64 6.65 46.6 6.65 34.3 18.2 22 29.75 22 46.15 22 62.5 34.3 74.1 46.6 85.65 64 85.65 81.35 85.65 93.7 74.1 106 62.5 106 46.15 Z"/>
</g>

<g id="Layer0_0_MEMBER_0_MEMBER_2_FILL">
<path fill="#7E57C2" stroke="none" d="
M 34.2 100.7
Q 20.4 106.85 20.4 118.1
L 20.4 128 107.55 128 107.55 118.1
Q 107.55 107.35 94.1 101 81.95 95.25 64.3 95.25 46.25 95.3 34.2 100.7 Z"/>
</g>

<g id="Layer0_0_MEMBER_0_MEMBER_3_FILL">
<path fill="#7E57C2" stroke="none" d="
M 39.7 94.4
Q 38.6 93.55 38.25 92.2
L 35.25 79.85 26.1 95.25 26.1 108.8 64.3 108.8 64.3 95.25 42.15 95.25
Q 40.75 95.25 39.7 94.4 Z"/>
</g>

<g id="Layer0_0_MEMBER_0_MEMBER_4_FILL">
<path fill="#E59900" stroke="none" d="
M 73 90.25
L 54.85 90.25 54.85 99.85
Q 54.85 103.1 57.25 105.4 59.7 107.7 63.1 107.7
L 64.75 107.7
Q 68.15 107.7 70.6 105.4 73 103.1 73 99.85
L 73 90.25 Z"/>
</g>

<g id="Layer0_0_MEMBER_0_MEMBER_5_MEMBER_0_FILL">
<path fill="#FCC21B" stroke="none" d="
M 83.65 86.25
Q 94.6 76.85 94.6 59 94.6 37.15 88.35 26.35 81 13.6 63.85 13.6 46.7 13.6 39.35 26.35 33.15 37.15 33.15 59 33.15 76.85 44.1 86.25 52.65 93.6 63.85 93.6 75.1 93.6 83.65 86.25 Z"/>
</g>

<g id="Layer0_0_MEMBER_0_MEMBER_6_FILL">
<path fill="#513F35" stroke="none" d="
M 54.75 78.15
Q 53.95 78.15 53.7 78.65 53.45 79.15 53.95 79.9 54.9 81.4 57.3 82.65 60.35 84.25 64 84.25 67.6 84.25 70.65 82.65 73.05 81.35 74 79.9 74.5 79.15 74.25 78.65 74 78.15 73.2 78.15
L 54.75 78.15 Z"/>
</g>

<g id="Layer0_0_MEMBER_0_MEMBER_7_FILL">
<path fill="#E59600" stroke="none" d="
M 69.05 70.5
Q 68.85 70.15 68.4 70.3 66.1 70.95 63.9 70.95 61.75 70.95 59.45 70.3 59 70.15 58.75 70.5 58.55 70.85 58.75 71.15 59.25 72 60.5 72.8 62.1 73.8 63.9 73.8 65.7 73.8 67.3 72.8 68.55 72 69.05 71.15 69.25 70.8 69.05 70.5 Z"/>
</g>

<g id="Layer0_0_MEMBER_0_MEMBER_8_FILL">
<path fill="#FFA000" stroke="none" d="
M 96.55 26.6
Q 94.15 21.75 88.9 16.9 78.4 7.2 64.1 7.2 49.8 7.2 39.3 16.7 34.05 21.4 31.65 26.15
L 31.65 55.8
Q 45.75 53.4 59.4 44.9 67.2 40 73.05 34.45 73.3 34.25 73.6 34.3 73.9 34.35 74 34.65 78.7 44.3 88.1 51 92.8 54.35 96.55 55.8
L 96.55 26.6 Z"/>
</g>

<g id="Layer0_0_MEMBER_0_MEMBER_9_MEMBER_0_FILL">
<path fill="#FAC036" stroke="none" d="
M 45.05 29.5
Q 45.3 28.7 44.45 28.05 42.65 26.65 40.85 26.95 39.8 27.1 37.5 28.2 35.9 28.2 36.2 25.7 36.4 24.05 37.2 22.1
L 41.55 12.2
Q 42.15 11 42 10.05 41.8 9.1 40.95 8.7 40.15 8.3 39.2 9.05 38.4 9.65 38 10.45 35.75 14.7 34.45 17.8 34.3 18.1 34.2 18.1 33.75 18.25 33.5 17.9
L 33.35 17.55
Q 35.6 9.25 35.95 7.9 36.9 4.5 35.05 3.9 32.9 3.3 31.95 6.95 30.45 12.4 29.3 16.25 28.7 16.8 28.25 16.45
L 27.95 16
Q 28.55 12.25 29.5 7.15 29.85 4.3 28.15 3.95 26.3 3.5 25.7 6.75
L 24 15.7
Q 23.55 16.55 22.95 16.35
L 22.5 15.95
Q 22.75 13.25 22.9 10.45 23 8.95 22.6 8.35 22.25 7.7 21.3 7.7 20.35 7.65 19.85 8.45 19.5 9.05 19.3 10.55 18.1 20.15 17.4 22.85 16.5 26.35 17.1 29.5 17.6 32.55 19.2 33.85 21.5 35.7 24.6 36.5 27.85 37.3 31.05 36.6 32.1 36.35 34.9 34.5 35.05 34.4 38.6 32.2 40 31.8 41.4 31.5 42.45 31.3 43.4 30.95 44.85 30.4 45.05 29.5 Z"/>
</g>

<g id="Layer0_0_MEMBER_0_MEMBER_9_MEMBER_1_FILL">
<path fill="#FAC036" stroke="none" d="
M 35.9 33.85
L 17 25.4
Q 16.4 28.7 16.75 33.6 16.9 36.1 17.2 37.9
L 32.55 39.55
Q 33.25 36.9 34.65 35.1 35.35 34.2 35.9 33.85 Z"/>
</g>

<g id="Layer0_0_MEMBER_0_MEMBER_10_FILL">
<path fill="#7E57C2" stroke="none" d="
M 16.5 34.75
Q 15.9 35.2 15.7 35.95
L 9.2 66.05
Q 8.5 69.6 8.9 72.7
L 13 105.35
Q 15.3 122.15 20.45 128
L 43.5 128 38.95 95 33.55 72.95
Q 32.85 70.2 33 67.05
L 34.65 38.45
Q 34.75 37.65 34.2 37.05 33.7 36.45 32.9 36.35
L 17.9 34.4
Q 17.15 34.3 16.5 34.75 Z"/>
</g>

<g id="Layer0_0_MEMBER_0_MEMBER_11_MEMBER_0_FILL">
<path fill="#444444" stroke="none" d="
M 53.5 60.75
Q 53.5 58.6 52.25 57.1 50.95 55.6 49.2 55.6 47.45 55.6 46.2 57.1 44.95 58.6 44.95 60.75 44.95 62.9 46.2 64.4 47.45 65.9 49.2 65.9 50.95 65.9 52.25 64.4 53.5 62.9 53.5 60.75 Z"/>
</g>

<g id="Layer0_0_MEMBER_0_MEMBER_11_MEMBER_1_FILL">
<path fill="#444444" stroke="none" d="
M 83 60.75
Q 83 58.6 81.75 57.1 80.5 55.6 78.75 55.6 77 55.6 75.7 57.1 74.45 58.6 74.45 60.75 74.45 62.9 75.7 64.4 76.95 65.9 78.75 65.9 80.5 65.9 81.75 64.4 83 62.9 83 60.75 Z"/>
</g>
</defs>

<g id="Layer_1">
<g transform="matrix( 0.562469482421875, 0, 0, 0.562469482421875, 0,0) ">
<use xlink:href="#Layer0_0_MEMBER_0_MEMBER_0_FILL"/>
</g>

<g transform="matrix( 0.5624542236328125, 0, 0, 0.5624542236328125, 0,0) ">
<use xlink:href="#Layer0_0_MEMBER_0_MEMBER_1_MEMBER_0_FILL"/>
</g>

<g transform="matrix( 0.562469482421875, 0, 0, 0.562469482421875, 0,0) ">
<use xlink:href="#Layer0_0_MEMBER_0_MEMBER_2_FILL"/>
</g>

<g transform="matrix( 0.562469482421875, 0, 0, 0.562469482421875, 0,0) ">
<use xlink:href="#Layer0_0_MEMBER_0_MEMBER_3_FILL"/>
</g>

<g transform="matrix( 0.562469482421875, 0, 0, 0.562469482421875, 0,0) ">
<use xlink:href="#Layer0_0_MEMBER_0_MEMBER_4_FILL"/>
</g>

<g transform="matrix( 0.5624542236328125, 0, 0, 0.5624542236328125, 0,0) ">
<use xlink:href="#Layer0_0_MEMBER_0_MEMBER_5_MEMBER_0_FILL"/>
</g>

<g transform="matrix( 0.562469482421875, 0, 0, 0.562469482421875, 0,0) ">
<use xlink:href="#Layer0_0_MEMBER_0_MEMBER_6_FILL"/>
</g>

<g transform="matrix( 0.562469482421875, 0, 0, 0.562469482421875, 0,0) ">
<use xlink:href="#Layer0_0_MEMBER_0_MEMBER_7_FILL"/>
</g>

<g transform="matrix( 0.562469482421875, 0, 0, 0.562469482421875, 0,0) ">
<use xlink:href="#Layer0_0_MEMBER_0_MEMBER_8_FILL"/>
</g>

<g transform="matrix( 0.5624542236328125, 0, 0, 0.5624542236328125, 0,0) ">
<use xlink:href="#Layer0_0_MEMBER_0_MEMBER_9_MEMBER_0_FILL"/>
</g>

<g transform="matrix( 0.5624542236328125, 0, 0, 0.5624542236328125, 0,0) ">
<use xlink:href="#Layer0_0_MEMBER_0_MEMBER_9_MEMBER_1_FILL"/>
</g>

<g transform="matrix( 0.562469482421875, 0, 0, 0.562469482421875, 0,0) ">
<use xlink:href="#Layer0_0_MEMBER_0_MEMBER_10_FILL"/>
</g>

<g transform="matrix( 0.5624542236328125, 0, 0, 0.5624542236328125, 0,0) ">
<use xlink:href="#Layer0_0_MEMBER_0_MEMBER_11_MEMBER_0_FILL"/>
</g>

<g transform="matrix( 0.5624542236328125, 0, 0, 0.5624542236328125, 0,0) ">
<use xlink:href="#Layer0_0_MEMBER_0_MEMBER_11_MEMBER_1_FILL"/>
</g>
</g>
</svg>
